0
SECTION
2
HEADER
9
$INSUNITS
70
4
9
$ACADVER
1
AC1014
9
$HANDSEED
5
FFFF
0
ENDSEC
0
SECTION
2
TABLES
0
TABLE
2
VPORT
5
8
100
AcDbSymbolTable
0
ENDTAB
0
TABLE
2
LTYPE
5
5
100
AcDbSymbolTable
0
LTYPE
5
14
100
AcDbSymbolTableRecord
100
AcDbLinetypeTableRecord
2
BYBLOCK
70
0
0
LTYPE
5
15
100
AcDbSymbolTableRecord
100
AcDbLinetypeTableRecord
2
BYLAYER
70
0
0
ENDTAB
0
TABLE
2
LAYER
5
2
100
AcDbSymbolTable
70
2
0
LAYER
5
50
100
AcDbSymbolTableRecord
100
AcDbLayerTableRecord
2
0
70
0
6
CONTINUOUS
0
ENDTAB
0
TABLE
2
STYLE
5
3
100
AcDbSymbolTable
70
1
0
STYLE
5
11
100
AcDbSymbolTableRecord
100
AcDbTextStyleTableRecord
2
STANDARD
70
0
0
ENDTAB
0
TABLE
2
VIEW
5
6
100
AcDbSymbolTable
70
0
0
ENDTAB
0
TABLE
2
UCS
5
7
100
AcDbSymbolTable
70
0
0
ENDTAB
0
TABLE
2
APPID
5
9
100
AcDbSymbolTable
70
2
0
APPID
5
12
100
AcDbSymbolTableRecord
100
AcDbRegAppTableRecord
2
ACAD
70
0
0
ENDTAB
0
TABLE
2
DIMSTYLE
5
A
100
AcDbSymbolTable
70
1
0
ENDTAB
0
TABLE
2
BLOCK_RECORD
5
1
100
AcDbSymbolTable
70
1
0
BLOCK_RECORD
5
1F
100
AcDbSymbolTableRecord
100
AcDbBlockTableRecord
2
*MODEL_SPACE
0
BLOCK_RECORD
5
1B
100
AcDbSymbolTableRecord
100
AcDbBlockTableRecord
2
*PAPER_SPACE
0
ENDTAB
0
ENDSEC
0
SECTION
2
BLOCKS
0
BLOCK
5
20
100
AcDbEntity
100
AcDbBlockBegin
2
*MODEL_SPACE
0
ENDBLK
5
21
100
AcDbEntity
100
AcDbBlockEnd
0
BLOCK
5
1C
100
AcDbEntity
100
AcDbBlockBegin
2
*PAPER_SPACE
0
ENDBLK
5
1D
100
AcDbEntity
100
AcDbBlockEnd
0
ENDSEC
0
SECTION
2
ENTITIES
0
CIRCLE
5
100
100
AcDbEntity
8
0
100
AcDbCircle
10
-88.208439955073061
20
41.539392396762864
30
0
40
1.6000000000000014
210
1.8957547138809101e-112
220
1.3684555315672042e-48
230
1
0
CIRCLE
5
101
100
AcDbEntity
8
0
100
AcDbCircle
10
41.539392396762757
20
-88.208439955073189
30
0
40
1.6000000000000103
210
1.8957547138808995e-112
220
1.3684555315672042e-48
230
1
0
CIRCLE
5
102
100
AcDbEntity
8
0
100
AcDbCircle
10
-41.53939239676059
20
-88.208439955074439
30
0
40
1.6000000000000014
210
1.8957547138809101e-112
220
1.3684555315672042e-48
230
1
0
CIRCLE
5
103
100
AcDbEntity
8
0
100
AcDbCircle
10
88.208439955074283
20
-41.539392396760483
30
0
40
1.6000000000000014
210
1.8957547138809101e-112
220
1.3684555315672042e-48
230
1
0
CIRCLE
5
104
100
AcDbEntity
8
0
100
AcDbCircle
10
-88.208439955073317
20
-41.539392396762878
30
0
40
1.6000000000000014
210
1.8957547138809101e-112
220
1.3684555315672042e-48
230
1
0
CIRCLE
5
105
100
AcDbEntity
8
0
100
AcDbCircle
10
88.208439955073061
20
41.539392396762864
30
0
40
1.6000000000000014
210
1.8957547138809101e-112
220
1.3684555315672042e-48
230
1
0
CIRCLE
5
106
100
AcDbEntity
8
0
100
AcDbCircle
10
41.539392396760334
20
88.208439955074425
30
0
40
1.5999999999999925
210
1.8957547138809205e-112
220
-6.3953348625744028e-192
230
1
0
CIRCLE
5
107
100
AcDbEntity
8
0
100
AcDbCircle
10
-41.539392396760334
20
88.208439955074425
30
0
40
1.6000000000000014
210
1.8957547138809101e-112
220
1.3684555315672042e-48
230
1
0
LWPOLYLINE
5
108
100
AcDbEntity
8
0
100
AcDbPolyline
90
34
70
1
43
0.0
10
-80.221264066682224
20
41.188969745180934
10
-89.684658617121443
20
50.652364295562606
42
0.26287699632705536
10
-89.684658617111268
20
-50.652364295580611
10
-80.221264066681499
20
-41.188969745183968
42
-0.4142135623730932
10
-73.150196254816038
20
-41.188969745183982
10
-41.188969745184082
20
-73.150196254815981
42
-0.41421356237309509
10
-41.188969745184096
20
-80.221264066681471
10
-50.652364295557
20
-89.684658617124597
42
0.26287699632698502
10
50.652364295562649
20
-89.684658617121443
10
41.188969745184103
20
-80.221264066681471
42
-0.41421356237309359
10
41.188969745184082
20
-73.150196254815981
10
73.150196254816038
20
-41.188969745184004
42
-0.41421356237309576
10
80.221264066681556
20
-41.188969745184025
10
89.684658617124626
20
-50.652364295556978
42
0.26287699632698486
10
89.684658617121457
20
50.652364295562592
10
80.22126406668221
20
41.188969745180927
42
-0.41421356237299578
10
73.150196254817914
20
41.188969745182121
10
41.188969745184103
20
73.150196254815967
42
-0.41421356237309359
10
41.188969745184124
20
80.221264066681442
10
50.652364295557007
20
89.684658617124654
42
0.025715892501440255
10
41.177742139320124
20
94.410770319427343
10
32.712772494517907
20
85.806668319905413
10
31.919148000000011
20
85.000000000000028
10
29.241202683585801
20
82.278039115696401
42
0.19825308709513836
10
22.000000000000011
20
85.266687375895742
10
-22
20
85.266687375895714
42
0.19825308709513823
10
-29.241202683585769
20
82.278039115696373
10
-31.919148000000011
20
85.000000000000028
10
-32.712772494517907
20
85.806668319905413
10
-41.177742000000038
20
94.410770000000085
42
0.025715892501441337
10
-50.652364124180863
20
89.684658313687521
10
-41.188969745184124
20
80.221264066681428
42
-0.41421356237309653
10
-41.18896974518411
20
73.150196254815953
10
-73.150196254817928
20
41.188969745182121
42
-0.41421356237299789
0
ENDSEC
0
SECTION
2
OBJECTS
0
DICTIONARY
5
C
100
AcDbDictionary
3
ACAD_GROUP
350
D
3
ACAD_MLINESTYLE
350
17
0
DICTIONARY
5
D
100
AcDbDictionary
0
DICTIONARY
5
1A
330
C
100
AcDbDictionary
0
DICTIONARY
5
17
100
AcDbDictionary
0
ENDSEC
0
EOF
