0
SECTION
2
HEADER
9
$INSUNITS
70
4
9
$ACADVER
1
AC1014
9
$HANDSEED
5
FFFF
0
ENDSEC
0
SECTION
2
TABLES
0
TABLE
2
VPORT
5
8
100
AcDbSymbolTable
0
ENDTAB
0
TABLE
2
LTYPE
5
5
100
AcDbSymbolTable
0
LTYPE
5
14
100
AcDbSymbolTableRecord
100
AcDbLinetypeTableRecord
2
BYBLOCK
70
0
0
LTYPE
5
15
100
AcDbSymbolTableRecord
100
AcDbLinetypeTableRecord
2
BYLAYER
70
0
0
ENDTAB
0
TABLE
2
LAYER
5
2
100
AcDbSymbolTable
70
2
0
LAYER
5
50
100
AcDbSymbolTableRecord
100
AcDbLayerTableRecord
2
0
70
0
6
CONTINUOUS
0
ENDTAB
0
TABLE
2
STYLE
5
3
100
AcDbSymbolTable
70
1
0
STYLE
5
11
100
AcDbSymbolTableRecord
100
AcDbTextStyleTableRecord
2
STANDARD
70
0
0
ENDTAB
0
TABLE
2
VIEW
5
6
100
AcDbSymbolTable
70
0
0
ENDTAB
0
TABLE
2
UCS
5
7
100
AcDbSymbolTable
70
0
0
ENDTAB
0
TABLE
2
APPID
5
9
100
AcDbSymbolTable
70
2
0
APPID
5
12
100
AcDbSymbolTableRecord
100
AcDbRegAppTableRecord
2
ACAD
70
0
0
ENDTAB
0
TABLE
2
DIMSTYLE
5
A
100
AcDbSymbolTable
70
1
0
ENDTAB
0
TABLE
2
BLOCK_RECORD
5
1
100
AcDbSymbolTable
70
1
0
BLOCK_RECORD
5
1F
100
AcDbSymbolTableRecord
100
AcDbBlockTableRecord
2
*MODEL_SPACE
0
BLOCK_RECORD
5
1B
100
AcDbSymbolTableRecord
100
AcDbBlockTableRecord
2
*PAPER_SPACE
0
ENDTAB
0
ENDSEC
0
SECTION
2
BLOCKS
0
BLOCK
5
20
100
AcDbEntity
100
AcDbBlockBegin
2
*MODEL_SPACE
0
ENDBLK
5
21
100
AcDbEntity
100
AcDbBlockEnd
0
BLOCK
5
1C
100
AcDbEntity
100
AcDbBlockBegin
2
*PAPER_SPACE
0
ENDBLK
5
1D
100
AcDbEntity
100
AcDbBlockEnd
0
ENDSEC
0
SECTION
2
ENTITIES
0
LWPOLYLINE
5
100
100
AcDbEntity
8
0
100
AcDbPolyline
90
36
70
1
43
0.0
10
-45.502321151124299
20
64.594204261120097
10
-47.623641494684001
20
66.7155246046798
10
-66.715524652537709
20
47.623641446825943
10
-64.594204308978107
20
45.502321103266297
10
-80.928370897549911
20
29.168154514694603
10
-92.510641345776548
20
29.168154514694599
42
0.15391301674440019
10
-92.510641345776591
20
-29.168154514694479
10
-80.928370897549911
20
-29.1681545146945
10
-64.594204261120012
20
-45.502321151124399
10
-66.715524604679501
20
-47.623641494684001
10
-47.623641491569302
20
-66.715524607794208
10
-45.502321148009798
20
-64.594204264234605
10
-36.239222326559997
20
-73.857303085684407
10
-29.1681545146945
20
-90.928370897549911
10
-29.168154514694532
20
-92.510641345776577
42
0.052515759463113251
10
-9.2551266562443306
20
-96.557457664216059
10
-9.2551266562442507
20
-97.842992627634118
10
9.2551266562442311
20
-97.842992627634118
10
9.2551266562442329
20
-96.557457664216045
42
0.052515759463113522
10
29.168154514694457
20
-92.510641345776605
10
29.1681545146945
20
-90.928370897549797
10
36.239222326559997
20
-73.857303085684407
10
45.502321151124498
20
-64.594204261119799
10
47.623641494296223
20
-66.715524605067429
10
66.715524608182363
20
-47.623641491181338
10
64.594204264234804
20
-45.502321148009599
10
80.928370897549797
20
-29.1681545146945
10
92.510641345776605
20
-29.168154514694542
42
0.15391301674440047
10
92.51064134577652
20
29.168154514694621
10
80.928370897549911
20
29.168154514694603
10
64.594204308978107
20
45.502321103266297
10
66.715524652537709
20
47.623641446825943
10
47.623641494684001
20
66.7155246046798
10
45.502321151124299
20
64.594204261120097
10
35.096525412244397
20
75
10
-35.096525412244397
20
75
0
LINE
5
101
100
AcDbEntity
8
0
100
AcDbLine
10
0
20
0
30
0
11
11.000000163912773
21
-11.000000163912773
31
0
0
LINE
5
102
100
AcDbEntity
8
0
100
AcDbLine
10
11.000000163912773
20
-11.000000163912773
30
0
11
55.048262706122195
21
-55.048262706122287
31
9.6869277860895966e-26
0
LINE
5
103
100
AcDbEntity
8
0
100
AcDbLine
10
55.048262706122195
20
-55.048262706122287
30
9.6869277860895966e-26
11
63.887097470954046
21
-46.209427941290457
31
9.6869277860895966e-26
0
LWPOLYLINE
5
104
100
AcDbEntity
8
0
100
AcDbPolyline
90
2
70
1
43
0.0
10
63.887097470954046
20
-46.209427941290457
10
46.209427941290343
20
-63.887097470954117
0
LWPOLYLINE
5
105
100
AcDbEntity
8
0
100
AcDbPolyline
90
4
70
1
43
0.0
10
63.887097470954046
20
-46.209427941290457
10
19.339370256201612
20
-1.6617007265379158
10
1.6617007265379069
20
-19.339370256201576
10
46.209427941290343
20
-63.887097470954117
0
LWPOLYLINE
5
106
100
AcDbEntity
8
0
100
AcDbPolyline
90
4
70
1
43
0.0
10
46.209427941290471
20
63.887097470954039
10
1.66170072653792
20
19.339370256201612
10
19.339370256201576
20
1.6617007265379027
10
63.887097470954124
20
46.209427941290322
0
LINE
5
107
100
AcDbEntity
8
0
100
AcDbLine
10
55.048262706122301
20
55.048262706122188
30
9.6869277860895966e-26
11
46.209427941290471
21
63.887097470954039
31
9.6869277860895966e-26
0
LWPOLYLINE
5
108
100
AcDbEntity
8
0
100
AcDbPolyline
90
4
70
1
43
0.0
10
-63.887097470954039
20
46.209427941290464
10
-19.339370256201612
20
1.6617007265379182
10
-1.6617007265379045
20
19.339370256201576
10
-46.209427941290329
20
63.887097470954124
0
LINE
5
109
100
AcDbEntity
8
0
100
AcDbLine
10
-55.048262706122188
20
55.048262706122301
30
9.6869277860895966e-26
11
-63.887097470954039
21
46.209427941290464
31
9.6869277860895966e-26
0
LWPOLYLINE
5
110
100
AcDbEntity
8
0
100
AcDbPolyline
90
4
70
1
43
0.0
10
-46.209427941290471
20
-63.887097470954039
10
-1.66170072653792
20
-19.339370256201612
10
-19.339370256201576
20
-1.6617007265379027
10
-63.887097470954124
20
-46.209427941290322
0
LINE
5
111
100
AcDbEntity
8
0
100
AcDbLine
10
-55.048262706122301
20
-55.048262706122188
30
9.6869277860895966e-26
11
-46.209427941290471
21
-63.887097470954039
31
9.6869277860895966e-26
0
LINE
5
112
100
AcDbEntity
8
0
100
AcDbLine
10
-46.209427941290471
20
-63.887097470954039
30
9.6869277860895966e-26
11
-63.887097470954124
21
-46.209427941290322
31
9.6869277860895966e-26
0
LINE
5
113
100
AcDbEntity
8
0
100
AcDbLine
10
-63.887097470954039
20
46.209427941290464
30
9.6869277860895966e-26
11
-46.209427941290329
21
63.887097470954124
31
9.6869277860895966e-26
0
LINE
5
114
100
AcDbEntity
8
0
100
AcDbLine
10
46.209427941290471
20
63.887097470954039
30
9.6869277860895966e-26
11
63.887097470954124
21
46.209427941290322
31
9.6869277860895966e-26
0
LWPOLYLINE
5
115
100
AcDbEntity
8
0
100
AcDbPolyline
90
5
70
1
43
0.0
10
0
20
75
10
-12.5
20
75
10
-12.5
20
12.500000186264524
10
12.499999720603228
20
12.500000186264524
10
12.499999720603228
20
75
0
LINE
5
116
100
AcDbEntity
8
0
100
AcDbLine
10
12.499999720603228
20
75
30
-4.930380657631322e-31
11
-12.5
21
75
31
-4.930380657631322e-31
0
LINE
5
117
100
AcDbEntity
8
0
100
AcDbLine
10
-64.594204308978107
20
45.502321103266297
30
-4.4339467921902478e-26
11
-45.502321151124299
21
64.594204261120097
31
4.9303806576313238e-31
0
LINE
5
118
100
AcDbEntity
8
0
100
AcDbLine
10
64.594204308978107
20
45.502321103266297
30
4.9303806576313238e-31
11
45.502321151124299
21
64.594204261120097
31
4.9303806576313238e-31
0
LINE
5
119
100
AcDbEntity
8
0
100
AcDbLine
10
64.594204264234804
20
-45.502321148009599
30
6.1138260898583925e-26
11
45.502321151124498
21
-64.594204261119799
31
2.4651903288156619e-31
0
LINE
5
120
100
AcDbEntity
8
0
100
AcDbLine
10
-45.502321148009798
20
-64.594204264234605
30
4.9303806576313238e-31
11
-64.594204261120012
21
-45.502321151124399
31
4.9303806576313238e-31
0
ENDSEC
0
SECTION
2
OBJECTS
0
DICTIONARY
5
C
100
AcDbDictionary
3
ACAD_GROUP
350
D
3
ACAD_MLINESTYLE
350
17
0
DICTIONARY
5
D
100
AcDbDictionary
0
DICTIONARY
5
1A
330
C
100
AcDbDictionary
0
DICTIONARY
5
17
100
AcDbDictionary
0
ENDSEC
0
EOF
