%TF.GenerationSoftware,KiCad,Pcbnew,(6.0.9)*%
%TF.CreationDate,2023-07-18T19:51:59+10:00*%
%TF.ProjectId,VisorPlate2.0,5669736f-7250-46c6-9174-65322e302e6b,rev?*%
%TF.SameCoordinates,Original*%
%TF.FileFunction,Drillmap*%
%TF.FilePolarity,Positive*%
%FSLAX45Y45*%
G04 Gerber Fmt 4.5, Leading zero omitted, Abs format (unit mm)*
G04 Created by KiCad (PCBNEW (6.0.9)) date 2023-07-18 19:51:59*
%MOMM*%
%LPD*%
G01*
G04 APERTURE LIST*
%ADD10C,0.010000*%
%ADD11C,0.100000*%
%ADD12C,0.200000*%
%ADD13C,0.030000*%
%ADD14C,0.076200*%
G04 APERTURE END LIST*
D10*
X10844000Y-9146000D02*
X15756000Y-9146000D01*
X10617000Y-9600000D02*
X10617000Y-9373000D01*
X15983000Y-11611000D02*
X15983000Y-9600000D01*
X15983000Y-9373000D02*
X15983000Y-9600000D01*
D11*
X10944000Y-9373000D02*
G75*
G03*
X10944000Y-9373000I-100000J0D01*
G01*
D10*
X15983000Y-9373000D02*
G75*
G03*
X15756000Y-9146000I-227000J0D01*
G01*
X10617000Y-11611000D02*
X15983000Y-11611000D01*
X10844000Y-9146000D02*
G75*
G03*
X10617000Y-9373000I0J-227000D01*
G01*
X10617000Y-9600000D02*
X10617000Y-11611000D01*
D11*
X15856000Y-9373000D02*
G75*
G03*
X15856000Y-9373000I-100000J0D01*
G01*
D12*
D13*
X11105000Y-10885000D02*
X11135000Y-10915000D01*
X11135000Y-10885000D02*
X11105000Y-10915000D01*
X11285000Y-10385000D02*
X11315000Y-10415000D01*
X11315000Y-10385000D02*
X11285000Y-10415000D01*
X11285000Y-10885000D02*
X11315000Y-10915000D01*
X11315000Y-10885000D02*
X11285000Y-10915000D01*
X11425000Y-10285000D02*
X11455000Y-10315000D01*
X11455000Y-10285000D02*
X11425000Y-10315000D01*
X11566230Y-10837450D02*
X11596230Y-10867450D01*
X11596230Y-10837450D02*
X11566230Y-10867450D01*
X11612450Y-11210000D02*
X11642450Y-11240000D01*
X11642450Y-11210000D02*
X11612450Y-11240000D01*
X11707911Y-10833732D02*
X11737911Y-10863732D01*
X11737911Y-10833732D02*
X11707911Y-10863732D01*
X11860000Y-11247450D02*
X11890000Y-11277450D01*
X11890000Y-11247450D02*
X11860000Y-11277450D01*
X11946230Y-10866230D02*
X11976230Y-10896230D01*
X11976230Y-10866230D02*
X11946230Y-10896230D01*
X12025142Y-10284858D02*
X12055142Y-10314858D01*
X12055142Y-10284858D02*
X12025142Y-10314858D01*
X12165000Y-10285000D02*
X12195000Y-10315000D01*
X12195000Y-10285000D02*
X12165000Y-10315000D01*
X12185000Y-10865000D02*
X12215000Y-10895000D01*
X12215000Y-10865000D02*
X12185000Y-10895000D01*
X12510000Y-10810000D02*
X12540000Y-10840000D01*
X12540000Y-10810000D02*
X12510000Y-10840000D01*
X12705000Y-9845000D02*
X12735000Y-9875000D01*
X12735000Y-9845000D02*
X12705000Y-9875000D01*
X12770480Y-9474520D02*
X12800480Y-9504520D01*
X12800480Y-9474520D02*
X12770480Y-9504520D01*
X12860000Y-9560000D02*
X12890000Y-9590000D01*
X12890000Y-9560000D02*
X12860000Y-9590000D01*
X12905000Y-9845000D02*
X12935000Y-9875000D01*
X12935000Y-9845000D02*
X12905000Y-9875000D01*
X13535000Y-9885000D02*
X13565000Y-9915000D01*
X13565000Y-9885000D02*
X13535000Y-9915000D01*
X13660000Y-9485000D02*
X13690000Y-9515000D01*
X13690000Y-9485000D02*
X13660000Y-9515000D01*
X13685000Y-9735000D02*
X13715000Y-9765000D01*
X13715000Y-9735000D02*
X13685000Y-9765000D01*
X13735000Y-11060000D02*
X13765000Y-11090000D01*
X13765000Y-11060000D02*
X13735000Y-11090000D01*
X14060000Y-10810000D02*
X14090000Y-10840000D01*
X14090000Y-10810000D02*
X14060000Y-10840000D01*
X14312550Y-10871225D02*
X14342550Y-10901225D01*
X14342550Y-10871225D02*
X14312550Y-10901225D01*
X14385000Y-10305000D02*
X14415000Y-10335000D01*
X14415000Y-10305000D02*
X14385000Y-10335000D01*
X14445000Y-9665000D02*
X14475000Y-9695000D01*
X14475000Y-9665000D02*
X14445000Y-9695000D01*
X14522753Y-11220203D02*
X14552753Y-11250203D01*
X14552753Y-11220203D02*
X14522753Y-11250203D01*
X14635000Y-10857450D02*
X14665000Y-10887450D01*
X14665000Y-10857450D02*
X14635000Y-10887450D01*
X14774500Y-11214477D02*
X14804500Y-11244477D01*
X14804500Y-11214477D02*
X14774500Y-11244477D01*
X14775000Y-10285000D02*
X14805000Y-10315000D01*
X14805000Y-10285000D02*
X14775000Y-10315000D01*
X14833770Y-10886230D02*
X14863770Y-10916230D01*
X14863770Y-10886230D02*
X14833770Y-10916230D01*
X14895000Y-10735000D02*
X14925000Y-10765000D01*
X14925000Y-10735000D02*
X14895000Y-10765000D01*
X14918768Y-10562550D02*
X14948768Y-10592550D01*
X14948768Y-10562550D02*
X14918768Y-10592550D01*
X15027270Y-10489730D02*
X15057270Y-10519730D01*
X15057270Y-10489730D02*
X15027270Y-10519730D01*
X15028500Y-10268500D02*
X15058500Y-10298500D01*
X15058500Y-10268500D02*
X15028500Y-10298500D01*
X15195000Y-9955000D02*
X15225000Y-9985000D01*
X15225000Y-9955000D02*
X15195000Y-9985000D01*
X15236144Y-10393860D02*
X15266144Y-10423860D01*
X15266144Y-10393860D02*
X15236144Y-10423860D01*
X15281697Y-11216397D02*
X15311697Y-11246397D01*
X15311697Y-11216397D02*
X15281697Y-11246397D01*
X15405000Y-10885000D02*
X15435000Y-10915000D01*
X15435000Y-10885000D02*
X15405000Y-10915000D01*
X15525000Y-10285000D02*
X15555000Y-10315000D01*
X15555000Y-10285000D02*
X15525000Y-10315000D01*
X15535000Y-10855000D02*
X15565000Y-10885000D01*
X15565000Y-10855000D02*
X15535000Y-10885000D01*
D14*
X10790100Y-9850000D02*
G75*
G03*
X10790100Y-9850000I-38100J0D01*
G01*
X10790100Y-11350000D02*
G75*
G03*
X10790100Y-11350000I-38100J0D01*
G01*
X11040100Y-9850000D02*
G75*
G03*
X11040100Y-9850000I-38100J0D01*
G01*
X11040100Y-11350000D02*
G75*
G03*
X11040100Y-11350000I-38100J0D01*
G01*
X11290100Y-9850000D02*
G75*
G03*
X11290100Y-9850000I-38100J0D01*
G01*
X11290100Y-11350000D02*
G75*
G03*
X11290100Y-11350000I-38100J0D01*
G01*
X11540100Y-9850000D02*
G75*
G03*
X11540100Y-9850000I-38100J0D01*
G01*
X11540100Y-11350000D02*
G75*
G03*
X11540100Y-11350000I-38100J0D01*
G01*
X11790100Y-9850000D02*
G75*
G03*
X11790100Y-9850000I-38100J0D01*
G01*
X11790100Y-11350000D02*
G75*
G03*
X11790100Y-11350000I-38100J0D01*
G01*
X12040100Y-9850000D02*
G75*
G03*
X12040100Y-9850000I-38100J0D01*
G01*
X12040100Y-11350000D02*
G75*
G03*
X12040100Y-11350000I-38100J0D01*
G01*
X12290100Y-9850000D02*
G75*
G03*
X12290100Y-9850000I-38100J0D01*
G01*
X12290100Y-11350000D02*
G75*
G03*
X12290100Y-11350000I-38100J0D01*
G01*
X12540100Y-9850000D02*
G75*
G03*
X12540100Y-9850000I-38100J0D01*
G01*
X12540100Y-11350000D02*
G75*
G03*
X12540100Y-11350000I-38100J0D01*
G01*
X14146100Y-9850000D02*
G75*
G03*
X14146100Y-9850000I-38100J0D01*
G01*
X14146100Y-11350000D02*
G75*
G03*
X14146100Y-11350000I-38100J0D01*
G01*
X14396100Y-9850000D02*
G75*
G03*
X14396100Y-9850000I-38100J0D01*
G01*
X14396100Y-11350000D02*
G75*
G03*
X14396100Y-11350000I-38100J0D01*
G01*
X14646100Y-9850000D02*
G75*
G03*
X14646100Y-9850000I-38100J0D01*
G01*
X14646100Y-11350000D02*
G75*
G03*
X14646100Y-11350000I-38100J0D01*
G01*
X14896100Y-9850000D02*
G75*
G03*
X14896100Y-9850000I-38100J0D01*
G01*
X14896100Y-11350000D02*
G75*
G03*
X14896100Y-11350000I-38100J0D01*
G01*
X15146100Y-9850000D02*
G75*
G03*
X15146100Y-9850000I-38100J0D01*
G01*
X15146100Y-11350000D02*
G75*
G03*
X15146100Y-11350000I-38100J0D01*
G01*
X15396100Y-9850000D02*
G75*
G03*
X15396100Y-9850000I-38100J0D01*
G01*
X15396100Y-11350000D02*
G75*
G03*
X15396100Y-11350000I-38100J0D01*
G01*
X15646100Y-9850000D02*
G75*
G03*
X15646100Y-9850000I-38100J0D01*
G01*
X15646100Y-11350000D02*
G75*
G03*
X15646100Y-11350000I-38100J0D01*
G01*
X15896100Y-9850000D02*
G75*
G03*
X15896100Y-9850000I-38100J0D01*
G01*
X15896100Y-11350000D02*
G75*
G03*
X15896100Y-11350000I-38100J0D01*
G01*
D11*
X12792000Y-9277500D02*
X12792000Y-9377500D01*
X12742000Y-9327500D02*
X12842000Y-9327500D01*
X13046000Y-9277500D02*
X13046000Y-9377500D01*
X12996000Y-9327500D02*
X13096000Y-9327500D01*
X13300000Y-9277500D02*
X13300000Y-9377500D01*
X13250000Y-9327500D02*
X13350000Y-9327500D01*
X13554000Y-9277500D02*
X13554000Y-9377500D01*
X13504000Y-9327500D02*
X13604000Y-9327500D01*
X13808000Y-9277500D02*
X13808000Y-9377500D01*
X13758000Y-9327500D02*
X13858000Y-9327500D01*
D12*
X10874119Y-11921976D02*
X10874119Y-11721976D01*
X10921738Y-11721976D01*
X10950310Y-11731500D01*
X10969357Y-11750548D01*
X10978881Y-11769595D01*
X10988405Y-11807690D01*
X10988405Y-11836262D01*
X10978881Y-11874357D01*
X10969357Y-11893405D01*
X10950310Y-11912452D01*
X10921738Y-11921976D01*
X10874119Y-11921976D01*
X11074119Y-11921976D02*
X11074119Y-11788643D01*
X11074119Y-11826738D02*
X11083643Y-11807690D01*
X11093167Y-11798167D01*
X11112214Y-11788643D01*
X11131262Y-11788643D01*
X11197928Y-11921976D02*
X11197928Y-11788643D01*
X11197928Y-11721976D02*
X11188405Y-11731500D01*
X11197928Y-11741024D01*
X11207452Y-11731500D01*
X11197928Y-11721976D01*
X11197928Y-11741024D01*
X11321738Y-11921976D02*
X11302690Y-11912452D01*
X11293167Y-11893405D01*
X11293167Y-11721976D01*
X11426500Y-11921976D02*
X11407452Y-11912452D01*
X11397928Y-11893405D01*
X11397928Y-11721976D01*
X11655071Y-11921976D02*
X11655071Y-11721976D01*
X11721738Y-11864833D01*
X11788405Y-11721976D01*
X11788405Y-11921976D01*
X11969357Y-11921976D02*
X11969357Y-11817214D01*
X11959833Y-11798167D01*
X11940786Y-11788643D01*
X11902690Y-11788643D01*
X11883643Y-11798167D01*
X11969357Y-11912452D02*
X11950309Y-11921976D01*
X11902690Y-11921976D01*
X11883643Y-11912452D01*
X11874119Y-11893405D01*
X11874119Y-11874357D01*
X11883643Y-11855309D01*
X11902690Y-11845786D01*
X11950309Y-11845786D01*
X11969357Y-11836262D01*
X12064595Y-11788643D02*
X12064595Y-11988643D01*
X12064595Y-11798167D02*
X12083643Y-11788643D01*
X12121738Y-11788643D01*
X12140786Y-11798167D01*
X12150309Y-11807690D01*
X12159833Y-11826738D01*
X12159833Y-11883881D01*
X12150309Y-11902928D01*
X12140786Y-11912452D01*
X12121738Y-11921976D01*
X12083643Y-11921976D01*
X12064595Y-11912452D01*
X12245548Y-11902928D02*
X12255071Y-11912452D01*
X12245548Y-11921976D01*
X12236024Y-11912452D01*
X12245548Y-11902928D01*
X12245548Y-11921976D01*
X12245548Y-11798167D02*
X12255071Y-11807690D01*
X12245548Y-11817214D01*
X12236024Y-11807690D01*
X12245548Y-11798167D01*
X12245548Y-11817214D01*
D13*
X10586500Y-12236500D02*
X10616500Y-12266500D01*
X10616500Y-12236500D02*
X10586500Y-12266500D01*
D12*
X10912214Y-12141976D02*
X10931262Y-12141976D01*
X10950310Y-12151500D01*
X10959833Y-12161024D01*
X10969357Y-12180071D01*
X10978881Y-12218167D01*
X10978881Y-12265786D01*
X10969357Y-12303881D01*
X10959833Y-12322928D01*
X10950310Y-12332452D01*
X10931262Y-12341976D01*
X10912214Y-12341976D01*
X10893167Y-12332452D01*
X10883643Y-12322928D01*
X10874119Y-12303881D01*
X10864595Y-12265786D01*
X10864595Y-12218167D01*
X10874119Y-12180071D01*
X10883643Y-12161024D01*
X10893167Y-12151500D01*
X10912214Y-12141976D01*
X11064595Y-12322928D02*
X11074119Y-12332452D01*
X11064595Y-12341976D01*
X11055071Y-12332452D01*
X11064595Y-12322928D01*
X11064595Y-12341976D01*
X11140786Y-12141976D02*
X11264595Y-12141976D01*
X11197928Y-12218167D01*
X11226500Y-12218167D01*
X11245548Y-12227690D01*
X11255071Y-12237214D01*
X11264595Y-12256262D01*
X11264595Y-12303881D01*
X11255071Y-12322928D01*
X11245548Y-12332452D01*
X11226500Y-12341976D01*
X11169357Y-12341976D01*
X11150310Y-12332452D01*
X11140786Y-12322928D01*
X11388405Y-12141976D02*
X11407452Y-12141976D01*
X11426500Y-12151500D01*
X11436024Y-12161024D01*
X11445548Y-12180071D01*
X11455071Y-12218167D01*
X11455071Y-12265786D01*
X11445548Y-12303881D01*
X11436024Y-12322928D01*
X11426500Y-12332452D01*
X11407452Y-12341976D01*
X11388405Y-12341976D01*
X11369357Y-12332452D01*
X11359833Y-12322928D01*
X11350309Y-12303881D01*
X11340786Y-12265786D01*
X11340786Y-12218167D01*
X11350309Y-12180071D01*
X11359833Y-12161024D01*
X11369357Y-12151500D01*
X11388405Y-12141976D01*
X11578881Y-12141976D02*
X11597928Y-12141976D01*
X11616976Y-12151500D01*
X11626500Y-12161024D01*
X11636024Y-12180071D01*
X11645548Y-12218167D01*
X11645548Y-12265786D01*
X11636024Y-12303881D01*
X11626500Y-12322928D01*
X11616976Y-12332452D01*
X11597928Y-12341976D01*
X11578881Y-12341976D01*
X11559833Y-12332452D01*
X11550309Y-12322928D01*
X11540786Y-12303881D01*
X11531262Y-12265786D01*
X11531262Y-12218167D01*
X11540786Y-12180071D01*
X11550309Y-12161024D01*
X11559833Y-12151500D01*
X11578881Y-12141976D01*
X11731262Y-12341976D02*
X11731262Y-12208643D01*
X11731262Y-12227690D02*
X11740786Y-12218167D01*
X11759833Y-12208643D01*
X11788405Y-12208643D01*
X11807452Y-12218167D01*
X11816976Y-12237214D01*
X11816976Y-12341976D01*
X11816976Y-12237214D02*
X11826500Y-12218167D01*
X11845548Y-12208643D01*
X11874119Y-12208643D01*
X11893167Y-12218167D01*
X11902690Y-12237214D01*
X11902690Y-12341976D01*
X11997928Y-12341976D02*
X11997928Y-12208643D01*
X11997928Y-12227690D02*
X12007452Y-12218167D01*
X12026500Y-12208643D01*
X12055071Y-12208643D01*
X12074119Y-12218167D01*
X12083643Y-12237214D01*
X12083643Y-12341976D01*
X12083643Y-12237214D02*
X12093167Y-12218167D01*
X12112214Y-12208643D01*
X12140786Y-12208643D01*
X12159833Y-12218167D01*
X12169357Y-12237214D01*
X12169357Y-12341976D01*
X12559833Y-12132452D02*
X12388405Y-12389595D01*
X12816976Y-12141976D02*
X12836024Y-12141976D01*
X12855071Y-12151500D01*
X12864595Y-12161024D01*
X12874119Y-12180071D01*
X12883643Y-12218167D01*
X12883643Y-12265786D01*
X12874119Y-12303881D01*
X12864595Y-12322928D01*
X12855071Y-12332452D01*
X12836024Y-12341976D01*
X12816976Y-12341976D01*
X12797928Y-12332452D01*
X12788405Y-12322928D01*
X12778881Y-12303881D01*
X12769357Y-12265786D01*
X12769357Y-12218167D01*
X12778881Y-12180071D01*
X12788405Y-12161024D01*
X12797928Y-12151500D01*
X12816976Y-12141976D01*
X12969357Y-12322928D02*
X12978881Y-12332452D01*
X12969357Y-12341976D01*
X12959833Y-12332452D01*
X12969357Y-12322928D01*
X12969357Y-12341976D01*
X13102690Y-12141976D02*
X13121738Y-12141976D01*
X13140786Y-12151500D01*
X13150309Y-12161024D01*
X13159833Y-12180071D01*
X13169357Y-12218167D01*
X13169357Y-12265786D01*
X13159833Y-12303881D01*
X13150309Y-12322928D01*
X13140786Y-12332452D01*
X13121738Y-12341976D01*
X13102690Y-12341976D01*
X13083643Y-12332452D01*
X13074119Y-12322928D01*
X13064595Y-12303881D01*
X13055071Y-12265786D01*
X13055071Y-12218167D01*
X13064595Y-12180071D01*
X13074119Y-12161024D01*
X13083643Y-12151500D01*
X13102690Y-12141976D01*
X13359833Y-12341976D02*
X13245548Y-12341976D01*
X13302690Y-12341976D02*
X13302690Y-12141976D01*
X13283643Y-12170548D01*
X13264595Y-12189595D01*
X13245548Y-12199119D01*
X13550309Y-12341976D02*
X13436024Y-12341976D01*
X13493167Y-12341976D02*
X13493167Y-12141976D01*
X13474119Y-12170548D01*
X13455071Y-12189595D01*
X13436024Y-12199119D01*
X13664595Y-12227690D02*
X13645548Y-12218167D01*
X13636024Y-12208643D01*
X13626500Y-12189595D01*
X13626500Y-12180071D01*
X13636024Y-12161024D01*
X13645548Y-12151500D01*
X13664595Y-12141976D01*
X13702690Y-12141976D01*
X13721738Y-12151500D01*
X13731262Y-12161024D01*
X13740786Y-12180071D01*
X13740786Y-12189595D01*
X13731262Y-12208643D01*
X13721738Y-12218167D01*
X13702690Y-12227690D01*
X13664595Y-12227690D01*
X13645548Y-12237214D01*
X13636024Y-12246738D01*
X13626500Y-12265786D01*
X13626500Y-12303881D01*
X13636024Y-12322928D01*
X13645548Y-12332452D01*
X13664595Y-12341976D01*
X13702690Y-12341976D01*
X13721738Y-12332452D01*
X13731262Y-12322928D01*
X13740786Y-12303881D01*
X13740786Y-12265786D01*
X13731262Y-12246738D01*
X13721738Y-12237214D01*
X13702690Y-12227690D01*
X13816976Y-12141976D02*
X13816976Y-12180071D01*
X13893167Y-12141976D02*
X13893167Y-12180071D01*
X14188405Y-12418167D02*
X14178881Y-12408643D01*
X14159833Y-12380071D01*
X14150309Y-12361024D01*
X14140786Y-12332452D01*
X14131262Y-12284833D01*
X14131262Y-12246738D01*
X14140786Y-12199119D01*
X14150309Y-12170548D01*
X14159833Y-12151500D01*
X14178881Y-12122928D01*
X14188405Y-12113405D01*
X14350309Y-12208643D02*
X14350309Y-12341976D01*
X14302690Y-12132452D02*
X14255071Y-12275309D01*
X14378881Y-12275309D01*
X14493167Y-12141976D02*
X14512214Y-12141976D01*
X14531262Y-12151500D01*
X14540786Y-12161024D01*
X14550309Y-12180071D01*
X14559833Y-12218167D01*
X14559833Y-12265786D01*
X14550309Y-12303881D01*
X14540786Y-12322928D01*
X14531262Y-12332452D01*
X14512214Y-12341976D01*
X14493167Y-12341976D01*
X14474119Y-12332452D01*
X14464595Y-12322928D01*
X14455071Y-12303881D01*
X14445548Y-12265786D01*
X14445548Y-12218167D01*
X14455071Y-12180071D01*
X14464595Y-12161024D01*
X14474119Y-12151500D01*
X14493167Y-12141976D01*
X14797928Y-12341976D02*
X14797928Y-12141976D01*
X14883643Y-12341976D02*
X14883643Y-12237214D01*
X14874119Y-12218167D01*
X14855071Y-12208643D01*
X14826500Y-12208643D01*
X14807452Y-12218167D01*
X14797928Y-12227690D01*
X15007452Y-12341976D02*
X14988405Y-12332452D01*
X14978881Y-12322928D01*
X14969357Y-12303881D01*
X14969357Y-12246738D01*
X14978881Y-12227690D01*
X14988405Y-12218167D01*
X15007452Y-12208643D01*
X15036024Y-12208643D01*
X15055071Y-12218167D01*
X15064595Y-12227690D01*
X15074119Y-12246738D01*
X15074119Y-12303881D01*
X15064595Y-12322928D01*
X15055071Y-12332452D01*
X15036024Y-12341976D01*
X15007452Y-12341976D01*
X15188405Y-12341976D02*
X15169357Y-12332452D01*
X15159833Y-12313405D01*
X15159833Y-12141976D01*
X15340786Y-12332452D02*
X15321738Y-12341976D01*
X15283643Y-12341976D01*
X15264595Y-12332452D01*
X15255071Y-12313405D01*
X15255071Y-12237214D01*
X15264595Y-12218167D01*
X15283643Y-12208643D01*
X15321738Y-12208643D01*
X15340786Y-12218167D01*
X15350309Y-12237214D01*
X15350309Y-12256262D01*
X15255071Y-12275309D01*
X15426500Y-12332452D02*
X15445548Y-12341976D01*
X15483643Y-12341976D01*
X15502690Y-12332452D01*
X15512214Y-12313405D01*
X15512214Y-12303881D01*
X15502690Y-12284833D01*
X15483643Y-12275309D01*
X15455071Y-12275309D01*
X15436024Y-12265786D01*
X15426500Y-12246738D01*
X15426500Y-12237214D01*
X15436024Y-12218167D01*
X15455071Y-12208643D01*
X15483643Y-12208643D01*
X15502690Y-12218167D01*
X15578881Y-12418167D02*
X15588405Y-12408643D01*
X15607452Y-12380071D01*
X15616976Y-12361024D01*
X15626500Y-12332452D01*
X15636024Y-12284833D01*
X15636024Y-12246738D01*
X15626500Y-12199119D01*
X15616976Y-12170548D01*
X15607452Y-12151500D01*
X15588405Y-12122928D01*
X15578881Y-12113405D01*
D14*
X10616500Y-12515500D02*
G75*
G03*
X10616500Y-12515500I-38100J0D01*
G01*
D12*
X10912214Y-12405976D02*
X10931262Y-12405976D01*
X10950310Y-12415500D01*
X10959833Y-12425024D01*
X10969357Y-12444071D01*
X10978881Y-12482167D01*
X10978881Y-12529786D01*
X10969357Y-12567881D01*
X10959833Y-12586928D01*
X10950310Y-12596452D01*
X10931262Y-12605976D01*
X10912214Y-12605976D01*
X10893167Y-12596452D01*
X10883643Y-12586928D01*
X10874119Y-12567881D01*
X10864595Y-12529786D01*
X10864595Y-12482167D01*
X10874119Y-12444071D01*
X10883643Y-12425024D01*
X10893167Y-12415500D01*
X10912214Y-12405976D01*
X11064595Y-12586928D02*
X11074119Y-12596452D01*
X11064595Y-12605976D01*
X11055071Y-12596452D01*
X11064595Y-12586928D01*
X11064595Y-12605976D01*
X11140786Y-12405976D02*
X11274119Y-12405976D01*
X11188405Y-12605976D01*
X11436024Y-12405976D02*
X11397928Y-12405976D01*
X11378881Y-12415500D01*
X11369357Y-12425024D01*
X11350309Y-12453595D01*
X11340786Y-12491690D01*
X11340786Y-12567881D01*
X11350309Y-12586928D01*
X11359833Y-12596452D01*
X11378881Y-12605976D01*
X11416976Y-12605976D01*
X11436024Y-12596452D01*
X11445548Y-12586928D01*
X11455071Y-12567881D01*
X11455071Y-12520262D01*
X11445548Y-12501214D01*
X11436024Y-12491690D01*
X11416976Y-12482167D01*
X11378881Y-12482167D01*
X11359833Y-12491690D01*
X11350309Y-12501214D01*
X11340786Y-12520262D01*
X11531262Y-12425024D02*
X11540786Y-12415500D01*
X11559833Y-12405976D01*
X11607452Y-12405976D01*
X11626500Y-12415500D01*
X11636024Y-12425024D01*
X11645548Y-12444071D01*
X11645548Y-12463119D01*
X11636024Y-12491690D01*
X11521738Y-12605976D01*
X11645548Y-12605976D01*
X11731262Y-12605976D02*
X11731262Y-12472643D01*
X11731262Y-12491690D02*
X11740786Y-12482167D01*
X11759833Y-12472643D01*
X11788405Y-12472643D01*
X11807452Y-12482167D01*
X11816976Y-12501214D01*
X11816976Y-12605976D01*
X11816976Y-12501214D02*
X11826500Y-12482167D01*
X11845548Y-12472643D01*
X11874119Y-12472643D01*
X11893167Y-12482167D01*
X11902690Y-12501214D01*
X11902690Y-12605976D01*
X11997928Y-12605976D02*
X11997928Y-12472643D01*
X11997928Y-12491690D02*
X12007452Y-12482167D01*
X12026500Y-12472643D01*
X12055071Y-12472643D01*
X12074119Y-12482167D01*
X12083643Y-12501214D01*
X12083643Y-12605976D01*
X12083643Y-12501214D02*
X12093167Y-12482167D01*
X12112214Y-12472643D01*
X12140786Y-12472643D01*
X12159833Y-12482167D01*
X12169357Y-12501214D01*
X12169357Y-12605976D01*
X12559833Y-12396452D02*
X12388405Y-12653595D01*
X12816976Y-12405976D02*
X12836024Y-12405976D01*
X12855071Y-12415500D01*
X12864595Y-12425024D01*
X12874119Y-12444071D01*
X12883643Y-12482167D01*
X12883643Y-12529786D01*
X12874119Y-12567881D01*
X12864595Y-12586928D01*
X12855071Y-12596452D01*
X12836024Y-12605976D01*
X12816976Y-12605976D01*
X12797928Y-12596452D01*
X12788405Y-12586928D01*
X12778881Y-12567881D01*
X12769357Y-12529786D01*
X12769357Y-12482167D01*
X12778881Y-12444071D01*
X12788405Y-12425024D01*
X12797928Y-12415500D01*
X12816976Y-12405976D01*
X12969357Y-12586928D02*
X12978881Y-12596452D01*
X12969357Y-12605976D01*
X12959833Y-12596452D01*
X12969357Y-12586928D01*
X12969357Y-12605976D01*
X13102690Y-12405976D02*
X13121738Y-12405976D01*
X13140786Y-12415500D01*
X13150309Y-12425024D01*
X13159833Y-12444071D01*
X13169357Y-12482167D01*
X13169357Y-12529786D01*
X13159833Y-12567881D01*
X13150309Y-12586928D01*
X13140786Y-12596452D01*
X13121738Y-12605976D01*
X13102690Y-12605976D01*
X13083643Y-12596452D01*
X13074119Y-12586928D01*
X13064595Y-12567881D01*
X13055071Y-12529786D01*
X13055071Y-12482167D01*
X13064595Y-12444071D01*
X13074119Y-12425024D01*
X13083643Y-12415500D01*
X13102690Y-12405976D01*
X13236024Y-12405976D02*
X13359833Y-12405976D01*
X13293167Y-12482167D01*
X13321738Y-12482167D01*
X13340786Y-12491690D01*
X13350309Y-12501214D01*
X13359833Y-12520262D01*
X13359833Y-12567881D01*
X13350309Y-12586928D01*
X13340786Y-12596452D01*
X13321738Y-12605976D01*
X13264595Y-12605976D01*
X13245548Y-12596452D01*
X13236024Y-12586928D01*
X13483643Y-12405976D02*
X13502690Y-12405976D01*
X13521738Y-12415500D01*
X13531262Y-12425024D01*
X13540786Y-12444071D01*
X13550309Y-12482167D01*
X13550309Y-12529786D01*
X13540786Y-12567881D01*
X13531262Y-12586928D01*
X13521738Y-12596452D01*
X13502690Y-12605976D01*
X13483643Y-12605976D01*
X13464595Y-12596452D01*
X13455071Y-12586928D01*
X13445548Y-12567881D01*
X13436024Y-12529786D01*
X13436024Y-12482167D01*
X13445548Y-12444071D01*
X13455071Y-12425024D01*
X13464595Y-12415500D01*
X13483643Y-12405976D01*
X13674119Y-12405976D02*
X13693167Y-12405976D01*
X13712214Y-12415500D01*
X13721738Y-12425024D01*
X13731262Y-12444071D01*
X13740786Y-12482167D01*
X13740786Y-12529786D01*
X13731262Y-12567881D01*
X13721738Y-12586928D01*
X13712214Y-12596452D01*
X13693167Y-12605976D01*
X13674119Y-12605976D01*
X13655071Y-12596452D01*
X13645548Y-12586928D01*
X13636024Y-12567881D01*
X13626500Y-12529786D01*
X13626500Y-12482167D01*
X13636024Y-12444071D01*
X13645548Y-12425024D01*
X13655071Y-12415500D01*
X13674119Y-12405976D01*
X13816976Y-12405976D02*
X13816976Y-12444071D01*
X13893167Y-12405976D02*
X13893167Y-12444071D01*
X14188405Y-12682167D02*
X14178881Y-12672643D01*
X14159833Y-12644071D01*
X14150309Y-12625024D01*
X14140786Y-12596452D01*
X14131262Y-12548833D01*
X14131262Y-12510738D01*
X14140786Y-12463119D01*
X14150309Y-12434548D01*
X14159833Y-12415500D01*
X14178881Y-12386928D01*
X14188405Y-12377405D01*
X14245548Y-12405976D02*
X14369357Y-12405976D01*
X14302690Y-12482167D01*
X14331262Y-12482167D01*
X14350309Y-12491690D01*
X14359833Y-12501214D01*
X14369357Y-12520262D01*
X14369357Y-12567881D01*
X14359833Y-12586928D01*
X14350309Y-12596452D01*
X14331262Y-12605976D01*
X14274119Y-12605976D01*
X14255071Y-12596452D01*
X14245548Y-12586928D01*
X14445548Y-12425024D02*
X14455071Y-12415500D01*
X14474119Y-12405976D01*
X14521738Y-12405976D01*
X14540786Y-12415500D01*
X14550309Y-12425024D01*
X14559833Y-12444071D01*
X14559833Y-12463119D01*
X14550309Y-12491690D01*
X14436024Y-12605976D01*
X14559833Y-12605976D01*
X14797928Y-12605976D02*
X14797928Y-12405976D01*
X14883643Y-12605976D02*
X14883643Y-12501214D01*
X14874119Y-12482167D01*
X14855071Y-12472643D01*
X14826500Y-12472643D01*
X14807452Y-12482167D01*
X14797928Y-12491690D01*
X15007452Y-12605976D02*
X14988405Y-12596452D01*
X14978881Y-12586928D01*
X14969357Y-12567881D01*
X14969357Y-12510738D01*
X14978881Y-12491690D01*
X14988405Y-12482167D01*
X15007452Y-12472643D01*
X15036024Y-12472643D01*
X15055071Y-12482167D01*
X15064595Y-12491690D01*
X15074119Y-12510738D01*
X15074119Y-12567881D01*
X15064595Y-12586928D01*
X15055071Y-12596452D01*
X15036024Y-12605976D01*
X15007452Y-12605976D01*
X15188405Y-12605976D02*
X15169357Y-12596452D01*
X15159833Y-12577405D01*
X15159833Y-12405976D01*
X15340786Y-12596452D02*
X15321738Y-12605976D01*
X15283643Y-12605976D01*
X15264595Y-12596452D01*
X15255071Y-12577405D01*
X15255071Y-12501214D01*
X15264595Y-12482167D01*
X15283643Y-12472643D01*
X15321738Y-12472643D01*
X15340786Y-12482167D01*
X15350309Y-12501214D01*
X15350309Y-12520262D01*
X15255071Y-12539309D01*
X15426500Y-12596452D02*
X15445548Y-12605976D01*
X15483643Y-12605976D01*
X15502690Y-12596452D01*
X15512214Y-12577405D01*
X15512214Y-12567881D01*
X15502690Y-12548833D01*
X15483643Y-12539309D01*
X15455071Y-12539309D01*
X15436024Y-12529786D01*
X15426500Y-12510738D01*
X15426500Y-12501214D01*
X15436024Y-12482167D01*
X15455071Y-12472643D01*
X15483643Y-12472643D01*
X15502690Y-12482167D01*
X15578881Y-12682167D02*
X15588405Y-12672643D01*
X15607452Y-12644071D01*
X15616976Y-12625024D01*
X15626500Y-12596452D01*
X15636024Y-12548833D01*
X15636024Y-12510738D01*
X15626500Y-12463119D01*
X15616976Y-12434548D01*
X15607452Y-12415500D01*
X15588405Y-12386928D01*
X15578881Y-12377405D01*
D11*
X10566500Y-12729500D02*
X10566500Y-12829500D01*
X10516500Y-12779500D02*
X10616500Y-12779500D01*
D12*
X10978881Y-12869976D02*
X10864595Y-12869976D01*
X10921738Y-12869976D02*
X10921738Y-12669976D01*
X10902690Y-12698548D01*
X10883643Y-12717595D01*
X10864595Y-12727119D01*
X11064595Y-12850928D02*
X11074119Y-12860452D01*
X11064595Y-12869976D01*
X11055071Y-12860452D01*
X11064595Y-12850928D01*
X11064595Y-12869976D01*
X11197928Y-12669976D02*
X11216976Y-12669976D01*
X11236024Y-12679500D01*
X11245548Y-12689024D01*
X11255071Y-12708071D01*
X11264595Y-12746167D01*
X11264595Y-12793786D01*
X11255071Y-12831881D01*
X11245548Y-12850928D01*
X11236024Y-12860452D01*
X11216976Y-12869976D01*
X11197928Y-12869976D01*
X11178881Y-12860452D01*
X11169357Y-12850928D01*
X11159833Y-12831881D01*
X11150310Y-12793786D01*
X11150310Y-12746167D01*
X11159833Y-12708071D01*
X11169357Y-12689024D01*
X11178881Y-12679500D01*
X11197928Y-12669976D01*
X11388405Y-12669976D02*
X11407452Y-12669976D01*
X11426500Y-12679500D01*
X11436024Y-12689024D01*
X11445548Y-12708071D01*
X11455071Y-12746167D01*
X11455071Y-12793786D01*
X11445548Y-12831881D01*
X11436024Y-12850928D01*
X11426500Y-12860452D01*
X11407452Y-12869976D01*
X11388405Y-12869976D01*
X11369357Y-12860452D01*
X11359833Y-12850928D01*
X11350309Y-12831881D01*
X11340786Y-12793786D01*
X11340786Y-12746167D01*
X11350309Y-12708071D01*
X11359833Y-12689024D01*
X11369357Y-12679500D01*
X11388405Y-12669976D01*
X11578881Y-12669976D02*
X11597928Y-12669976D01*
X11616976Y-12679500D01*
X11626500Y-12689024D01*
X11636024Y-12708071D01*
X11645548Y-12746167D01*
X11645548Y-12793786D01*
X11636024Y-12831881D01*
X11626500Y-12850928D01*
X11616976Y-12860452D01*
X11597928Y-12869976D01*
X11578881Y-12869976D01*
X11559833Y-12860452D01*
X11550309Y-12850928D01*
X11540786Y-12831881D01*
X11531262Y-12793786D01*
X11531262Y-12746167D01*
X11540786Y-12708071D01*
X11550309Y-12689024D01*
X11559833Y-12679500D01*
X11578881Y-12669976D01*
X11731262Y-12869976D02*
X11731262Y-12736643D01*
X11731262Y-12755690D02*
X11740786Y-12746167D01*
X11759833Y-12736643D01*
X11788405Y-12736643D01*
X11807452Y-12746167D01*
X11816976Y-12765214D01*
X11816976Y-12869976D01*
X11816976Y-12765214D02*
X11826500Y-12746167D01*
X11845548Y-12736643D01*
X11874119Y-12736643D01*
X11893167Y-12746167D01*
X11902690Y-12765214D01*
X11902690Y-12869976D01*
X11997928Y-12869976D02*
X11997928Y-12736643D01*
X11997928Y-12755690D02*
X12007452Y-12746167D01*
X12026500Y-12736643D01*
X12055071Y-12736643D01*
X12074119Y-12746167D01*
X12083643Y-12765214D01*
X12083643Y-12869976D01*
X12083643Y-12765214D02*
X12093167Y-12746167D01*
X12112214Y-12736643D01*
X12140786Y-12736643D01*
X12159833Y-12746167D01*
X12169357Y-12765214D01*
X12169357Y-12869976D01*
X12559833Y-12660452D02*
X12388405Y-12917595D01*
X12816976Y-12669976D02*
X12836024Y-12669976D01*
X12855071Y-12679500D01*
X12864595Y-12689024D01*
X12874119Y-12708071D01*
X12883643Y-12746167D01*
X12883643Y-12793786D01*
X12874119Y-12831881D01*
X12864595Y-12850928D01*
X12855071Y-12860452D01*
X12836024Y-12869976D01*
X12816976Y-12869976D01*
X12797928Y-12860452D01*
X12788405Y-12850928D01*
X12778881Y-12831881D01*
X12769357Y-12793786D01*
X12769357Y-12746167D01*
X12778881Y-12708071D01*
X12788405Y-12689024D01*
X12797928Y-12679500D01*
X12816976Y-12669976D01*
X12969357Y-12850928D02*
X12978881Y-12860452D01*
X12969357Y-12869976D01*
X12959833Y-12860452D01*
X12969357Y-12850928D01*
X12969357Y-12869976D01*
X13102690Y-12669976D02*
X13121738Y-12669976D01*
X13140786Y-12679500D01*
X13150309Y-12689024D01*
X13159833Y-12708071D01*
X13169357Y-12746167D01*
X13169357Y-12793786D01*
X13159833Y-12831881D01*
X13150309Y-12850928D01*
X13140786Y-12860452D01*
X13121738Y-12869976D01*
X13102690Y-12869976D01*
X13083643Y-12860452D01*
X13074119Y-12850928D01*
X13064595Y-12831881D01*
X13055071Y-12793786D01*
X13055071Y-12746167D01*
X13064595Y-12708071D01*
X13074119Y-12689024D01*
X13083643Y-12679500D01*
X13102690Y-12669976D01*
X13236024Y-12669976D02*
X13359833Y-12669976D01*
X13293167Y-12746167D01*
X13321738Y-12746167D01*
X13340786Y-12755690D01*
X13350309Y-12765214D01*
X13359833Y-12784262D01*
X13359833Y-12831881D01*
X13350309Y-12850928D01*
X13340786Y-12860452D01*
X13321738Y-12869976D01*
X13264595Y-12869976D01*
X13245548Y-12860452D01*
X13236024Y-12850928D01*
X13455071Y-12869976D02*
X13493167Y-12869976D01*
X13512214Y-12860452D01*
X13521738Y-12850928D01*
X13540786Y-12822357D01*
X13550309Y-12784262D01*
X13550309Y-12708071D01*
X13540786Y-12689024D01*
X13531262Y-12679500D01*
X13512214Y-12669976D01*
X13474119Y-12669976D01*
X13455071Y-12679500D01*
X13445548Y-12689024D01*
X13436024Y-12708071D01*
X13436024Y-12755690D01*
X13445548Y-12774738D01*
X13455071Y-12784262D01*
X13474119Y-12793786D01*
X13512214Y-12793786D01*
X13531262Y-12784262D01*
X13540786Y-12774738D01*
X13550309Y-12755690D01*
X13721738Y-12736643D02*
X13721738Y-12869976D01*
X13674119Y-12660452D02*
X13626500Y-12803309D01*
X13750309Y-12803309D01*
X13816976Y-12669976D02*
X13816976Y-12708071D01*
X13893167Y-12669976D02*
X13893167Y-12708071D01*
X14188405Y-12946167D02*
X14178881Y-12936643D01*
X14159833Y-12908071D01*
X14150309Y-12889024D01*
X14140786Y-12860452D01*
X14131262Y-12812833D01*
X14131262Y-12774738D01*
X14140786Y-12727119D01*
X14150309Y-12698548D01*
X14159833Y-12679500D01*
X14178881Y-12650928D01*
X14188405Y-12641405D01*
X14359833Y-12669976D02*
X14264595Y-12669976D01*
X14255071Y-12765214D01*
X14264595Y-12755690D01*
X14283643Y-12746167D01*
X14331262Y-12746167D01*
X14350309Y-12755690D01*
X14359833Y-12765214D01*
X14369357Y-12784262D01*
X14369357Y-12831881D01*
X14359833Y-12850928D01*
X14350309Y-12860452D01*
X14331262Y-12869976D01*
X14283643Y-12869976D01*
X14264595Y-12860452D01*
X14255071Y-12850928D01*
X14607452Y-12869976D02*
X14607452Y-12669976D01*
X14693167Y-12869976D02*
X14693167Y-12765214D01*
X14683643Y-12746167D01*
X14664595Y-12736643D01*
X14636024Y-12736643D01*
X14616976Y-12746167D01*
X14607452Y-12755690D01*
X14816976Y-12869976D02*
X14797928Y-12860452D01*
X14788405Y-12850928D01*
X14778881Y-12831881D01*
X14778881Y-12774738D01*
X14788405Y-12755690D01*
X14797928Y-12746167D01*
X14816976Y-12736643D01*
X14845548Y-12736643D01*
X14864595Y-12746167D01*
X14874119Y-12755690D01*
X14883643Y-12774738D01*
X14883643Y-12831881D01*
X14874119Y-12850928D01*
X14864595Y-12860452D01*
X14845548Y-12869976D01*
X14816976Y-12869976D01*
X14997928Y-12869976D02*
X14978881Y-12860452D01*
X14969357Y-12841405D01*
X14969357Y-12669976D01*
X15150309Y-12860452D02*
X15131262Y-12869976D01*
X15093167Y-12869976D01*
X15074119Y-12860452D01*
X15064595Y-12841405D01*
X15064595Y-12765214D01*
X15074119Y-12746167D01*
X15093167Y-12736643D01*
X15131262Y-12736643D01*
X15150309Y-12746167D01*
X15159833Y-12765214D01*
X15159833Y-12784262D01*
X15064595Y-12803309D01*
X15236024Y-12860452D02*
X15255071Y-12869976D01*
X15293167Y-12869976D01*
X15312214Y-12860452D01*
X15321738Y-12841405D01*
X15321738Y-12831881D01*
X15312214Y-12812833D01*
X15293167Y-12803309D01*
X15264595Y-12803309D01*
X15245548Y-12793786D01*
X15236024Y-12774738D01*
X15236024Y-12765214D01*
X15245548Y-12746167D01*
X15264595Y-12736643D01*
X15293167Y-12736643D01*
X15312214Y-12746167D01*
X15388405Y-12946167D02*
X15397928Y-12936643D01*
X15416976Y-12908071D01*
X15426500Y-12889024D01*
X15436024Y-12860452D01*
X15445548Y-12812833D01*
X15445548Y-12774738D01*
X15436024Y-12727119D01*
X15426500Y-12698548D01*
X15416976Y-12679500D01*
X15397928Y-12650928D01*
X15388405Y-12641405D01*
M02*
