%TF.GenerationSoftware,KiCad,Pcbnew,(6.0.9)*%
%TF.CreationDate,2023-04-03T18:36:50+10:00*%
%TF.ProjectId,Chi Chi - GV2,43686920-4368-4692-902d-204756322e6b,rev?*%
%TF.SameCoordinates,Original*%
%TF.FileFunction,Paste,Top*%
%TF.FilePolarity,Positive*%
%FSLAX46Y46*%
G04 Gerber Fmt 4.6, Leading zero omitted, Abs format (unit mm)*
G04 Created by KiCad (PCBNEW (6.0.9)) date 2023-04-03 18:36:50*
%MOMM*%
%LPD*%
G01*
G04 APERTURE LIST*
G04 Aperture macros list*
%AMRoundRect*
0 Rectangle with rounded corners*
0 $1 Rounding radius*
0 $2 $3 $4 $5 $6 $7 $8 $9 X,Y pos of 4 corners*
0 Add a 4 corners polygon primitive as box body*
4,1,4,$2,$3,$4,$5,$6,$7,$8,$9,$2,$3,0*
0 Add four circle primitives for the rounded corners*
1,1,$1+$1,$2,$3*
1,1,$1+$1,$4,$5*
1,1,$1+$1,$6,$7*
1,1,$1+$1,$8,$9*
0 Add four rect primitives between the rounded corners*
20,1,$1+$1,$2,$3,$4,$5,0*
20,1,$1+$1,$4,$5,$6,$7,0*
20,1,$1+$1,$6,$7,$8,$9,0*
20,1,$1+$1,$8,$9,$2,$3,0*%
%AMRotRect*
0 Rectangle, with rotation*
0 The origin of the aperture is its center*
0 $1 length*
0 $2 width*
0 $3 Rotation angle, in degrees counterclockwise*
0 Add horizontal line*
21,1,$1,$2,0,0,$3*%
G04 Aperture macros list end*
%ADD10C,0.001000*%
%ADD11RoundRect,0.250000X0.350000X0.450000X-0.350000X0.450000X-0.350000X-0.450000X0.350000X-0.450000X0*%
%ADD12RotRect,0.800000X0.800000X315.000000*%
%ADD13RoundRect,0.250000X0.450000X-0.350000X0.450000X0.350000X-0.450000X0.350000X-0.450000X-0.350000X0*%
%ADD14RoundRect,0.250000X-0.350000X-0.450000X0.350000X-0.450000X0.350000X0.450000X-0.350000X0.450000X0*%
%ADD15R,0.800000X0.800000*%
%ADD16RoundRect,0.250000X0.475000X-0.337500X0.475000X0.337500X-0.475000X0.337500X-0.475000X-0.337500X0*%
%ADD17RoundRect,0.250000X-0.450000X0.350000X-0.450000X-0.350000X0.450000X-0.350000X0.450000X0.350000X0*%
%ADD18RotRect,0.800000X0.800000X225.000000*%
%ADD19R,1.462000X0.507200*%
%ADD20R,0.507200X1.462000*%
%ADD21RoundRect,0.250000X-0.475000X0.337500X-0.475000X-0.337500X0.475000X-0.337500X0.475000X0.337500X0*%
%ADD22RoundRect,0.250000X0.450000X-0.262500X0.450000X0.262500X-0.450000X0.262500X-0.450000X-0.262500X0*%
%ADD23RotRect,0.800000X0.800000X45.000000*%
%ADD24RotRect,0.800000X0.800000X135.000000*%
G04 APERTURE END LIST*
%TO.C,D7*%
G36*
X213946589Y-183749533D02*
G01*
X213953661Y-183898026D01*
X214328427Y-184272792D01*
X213762742Y-184838478D01*
X213310193Y-184385929D01*
X212885929Y-184810193D01*
X213338478Y-185262742D01*
X212772792Y-185828427D01*
X212398026Y-185453661D01*
X212249533Y-185446589D01*
X210326203Y-183523259D01*
X210326203Y-183113137D01*
X211613137Y-181826203D01*
X212023259Y-181826203D01*
X213946589Y-183749533D01*
G37*
D10*
X213946589Y-183749533D02*
X213953661Y-183898026D01*
X214328427Y-184272792D01*
X213762742Y-184838478D01*
X213310193Y-184385929D01*
X212885929Y-184810193D01*
X213338478Y-185262742D01*
X212772792Y-185828427D01*
X212398026Y-185453661D01*
X212249533Y-185446589D01*
X210326203Y-183523259D01*
X210326203Y-183113137D01*
X211613137Y-181826203D01*
X212023259Y-181826203D01*
X213946589Y-183749533D01*
G36*
X210601974Y-180546339D02*
G01*
X210750467Y-180553411D01*
X211259584Y-181062527D01*
X211259584Y-181472649D01*
X209972649Y-182759584D01*
X209562527Y-182759584D01*
X209053411Y-182250467D01*
X209046339Y-182101974D01*
X208671573Y-181727208D01*
X209237258Y-181161522D01*
X209689807Y-181614071D01*
X210114071Y-181189807D01*
X209661522Y-180737258D01*
X210227208Y-180171573D01*
X210601974Y-180546339D01*
G37*
X210601974Y-180546339D02*
X210750467Y-180553411D01*
X211259584Y-181062527D01*
X211259584Y-181472649D01*
X209972649Y-182759584D01*
X209562527Y-182759584D01*
X209053411Y-182250467D01*
X209046339Y-182101974D01*
X208671573Y-181727208D01*
X209237258Y-181161522D01*
X209689807Y-181614071D01*
X210114071Y-181189807D01*
X209661522Y-180737258D01*
X210227208Y-180171573D01*
X210601974Y-180546339D01*
G36*
X210601974Y-180546339D02*
G01*
X210750467Y-180553411D01*
X211259584Y-181062527D01*
X211259584Y-181472649D01*
X209972649Y-182759584D01*
X209562527Y-182759584D01*
X209053411Y-182250467D01*
X209046339Y-182101974D01*
X208671573Y-181727208D01*
X209237258Y-181161522D01*
X209689807Y-181614071D01*
X210114071Y-181189807D01*
X209661522Y-180737258D01*
X210227208Y-180171573D01*
X210601974Y-180546339D01*
G37*
X210601974Y-180546339D02*
X210750467Y-180553411D01*
X211259584Y-181062527D01*
X211259584Y-181472649D01*
X209972649Y-182759584D01*
X209562527Y-182759584D01*
X209053411Y-182250467D01*
X209046339Y-182101974D01*
X208671573Y-181727208D01*
X209237258Y-181161522D01*
X209689807Y-181614071D01*
X210114071Y-181189807D01*
X209661522Y-180737258D01*
X210227208Y-180171573D01*
X210601974Y-180546339D01*
G36*
X213946589Y-183749533D02*
G01*
X213953661Y-183898026D01*
X214328427Y-184272792D01*
X213762742Y-184838478D01*
X213310193Y-184385929D01*
X212885929Y-184810193D01*
X213338478Y-185262742D01*
X212772792Y-185828427D01*
X212398026Y-185453661D01*
X212249533Y-185446589D01*
X210326203Y-183523259D01*
X210326203Y-183113137D01*
X211613137Y-181826203D01*
X212023259Y-181826203D01*
X213946589Y-183749533D01*
G37*
X213946589Y-183749533D02*
X213953661Y-183898026D01*
X214328427Y-184272792D01*
X213762742Y-184838478D01*
X213310193Y-184385929D01*
X212885929Y-184810193D01*
X213338478Y-185262742D01*
X212772792Y-185828427D01*
X212398026Y-185453661D01*
X212249533Y-185446589D01*
X210326203Y-183523259D01*
X210326203Y-183113137D01*
X211613137Y-181826203D01*
X212023259Y-181826203D01*
X213946589Y-183749533D01*
%TO.C,D20*%
G36*
X292700000Y-106240000D02*
G01*
X293300000Y-106240000D01*
X293300000Y-105600000D01*
X294100000Y-105600000D01*
X294100000Y-106130000D01*
X294200000Y-106240000D01*
X294200000Y-108960000D01*
X293910000Y-109250000D01*
X292090000Y-109250000D01*
X291800000Y-108960000D01*
X291800000Y-106240000D01*
X291900000Y-106130000D01*
X291900000Y-105600000D01*
X292700000Y-105600000D01*
X292700000Y-106240000D01*
G37*
X292700000Y-106240000D02*
X293300000Y-106240000D01*
X293300000Y-105600000D01*
X294100000Y-105600000D01*
X294100000Y-106130000D01*
X294200000Y-106240000D01*
X294200000Y-108960000D01*
X293910000Y-109250000D01*
X292090000Y-109250000D01*
X291800000Y-108960000D01*
X291800000Y-106240000D01*
X291900000Y-106130000D01*
X291900000Y-105600000D01*
X292700000Y-105600000D01*
X292700000Y-106240000D01*
G36*
X294200000Y-110040000D02*
G01*
X294200000Y-110760000D01*
X294100000Y-110870000D01*
X294100000Y-111400000D01*
X293300000Y-111400000D01*
X293300000Y-110760000D01*
X292700000Y-110760000D01*
X292700000Y-111400000D01*
X291900000Y-111400000D01*
X291900000Y-110870000D01*
X291800000Y-110760000D01*
X291800000Y-110040000D01*
X292090000Y-109750000D01*
X293910000Y-109750000D01*
X294200000Y-110040000D01*
G37*
X294200000Y-110040000D02*
X294200000Y-110760000D01*
X294100000Y-110870000D01*
X294100000Y-111400000D01*
X293300000Y-111400000D01*
X293300000Y-110760000D01*
X292700000Y-110760000D01*
X292700000Y-111400000D01*
X291900000Y-111400000D01*
X291900000Y-110870000D01*
X291800000Y-110760000D01*
X291800000Y-110040000D01*
X292090000Y-109750000D01*
X293910000Y-109750000D01*
X294200000Y-110040000D01*
G36*
X292700000Y-106240000D02*
G01*
X293300000Y-106240000D01*
X293300000Y-105600000D01*
X294100000Y-105600000D01*
X294100000Y-106130000D01*
X294200000Y-106240000D01*
X294200000Y-108960000D01*
X293910000Y-109250000D01*
X292090000Y-109250000D01*
X291800000Y-108960000D01*
X291800000Y-106240000D01*
X291900000Y-106130000D01*
X291900000Y-105600000D01*
X292700000Y-105600000D01*
X292700000Y-106240000D01*
G37*
X292700000Y-106240000D02*
X293300000Y-106240000D01*
X293300000Y-105600000D01*
X294100000Y-105600000D01*
X294100000Y-106130000D01*
X294200000Y-106240000D01*
X294200000Y-108960000D01*
X293910000Y-109250000D01*
X292090000Y-109250000D01*
X291800000Y-108960000D01*
X291800000Y-106240000D01*
X291900000Y-106130000D01*
X291900000Y-105600000D01*
X292700000Y-105600000D01*
X292700000Y-106240000D01*
G36*
X294200000Y-110040000D02*
G01*
X294200000Y-110760000D01*
X294100000Y-110870000D01*
X294100000Y-111400000D01*
X293300000Y-111400000D01*
X293300000Y-110760000D01*
X292700000Y-110760000D01*
X292700000Y-111400000D01*
X291900000Y-111400000D01*
X291900000Y-110870000D01*
X291800000Y-110760000D01*
X291800000Y-110040000D01*
X292090000Y-109750000D01*
X293910000Y-109750000D01*
X294200000Y-110040000D01*
G37*
X294200000Y-110040000D02*
X294200000Y-110760000D01*
X294100000Y-110870000D01*
X294100000Y-111400000D01*
X293300000Y-111400000D01*
X293300000Y-110760000D01*
X292700000Y-110760000D01*
X292700000Y-111400000D01*
X291900000Y-111400000D01*
X291900000Y-110870000D01*
X291800000Y-110760000D01*
X291800000Y-110040000D01*
X292090000Y-109750000D01*
X293910000Y-109750000D01*
X294200000Y-110040000D01*
%TO.C,D17*%
G36*
X272370000Y-100900000D02*
G01*
X272900000Y-100900000D01*
X272900000Y-101700000D01*
X272260000Y-101700000D01*
X272260000Y-102300000D01*
X272900000Y-102300000D01*
X272900000Y-103100000D01*
X272370000Y-103100000D01*
X272260000Y-103200000D01*
X271540000Y-103200000D01*
X271250000Y-102910000D01*
X271250000Y-101090000D01*
X271540000Y-100800000D01*
X272260000Y-100800000D01*
X272370000Y-100900000D01*
G37*
X272370000Y-100900000D02*
X272900000Y-100900000D01*
X272900000Y-101700000D01*
X272260000Y-101700000D01*
X272260000Y-102300000D01*
X272900000Y-102300000D01*
X272900000Y-103100000D01*
X272370000Y-103100000D01*
X272260000Y-103200000D01*
X271540000Y-103200000D01*
X271250000Y-102910000D01*
X271250000Y-101090000D01*
X271540000Y-100800000D01*
X272260000Y-100800000D01*
X272370000Y-100900000D01*
G36*
X270750000Y-101090000D02*
G01*
X270750000Y-102910000D01*
X270460000Y-103200000D01*
X267740000Y-103200000D01*
X267630000Y-103100000D01*
X267100000Y-103100000D01*
X267100000Y-102300000D01*
X267740000Y-102300000D01*
X267740000Y-101700000D01*
X267100000Y-101700000D01*
X267100000Y-100900000D01*
X267630000Y-100900000D01*
X267740000Y-100800000D01*
X270460000Y-100800000D01*
X270750000Y-101090000D01*
G37*
X270750000Y-101090000D02*
X270750000Y-102910000D01*
X270460000Y-103200000D01*
X267740000Y-103200000D01*
X267630000Y-103100000D01*
X267100000Y-103100000D01*
X267100000Y-102300000D01*
X267740000Y-102300000D01*
X267740000Y-101700000D01*
X267100000Y-101700000D01*
X267100000Y-100900000D01*
X267630000Y-100900000D01*
X267740000Y-100800000D01*
X270460000Y-100800000D01*
X270750000Y-101090000D01*
G36*
X272370000Y-100900000D02*
G01*
X272900000Y-100900000D01*
X272900000Y-101700000D01*
X272260000Y-101700000D01*
X272260000Y-102300000D01*
X272900000Y-102300000D01*
X272900000Y-103100000D01*
X272370000Y-103100000D01*
X272260000Y-103200000D01*
X271540000Y-103200000D01*
X271250000Y-102910000D01*
X271250000Y-101090000D01*
X271540000Y-100800000D01*
X272260000Y-100800000D01*
X272370000Y-100900000D01*
G37*
X272370000Y-100900000D02*
X272900000Y-100900000D01*
X272900000Y-101700000D01*
X272260000Y-101700000D01*
X272260000Y-102300000D01*
X272900000Y-102300000D01*
X272900000Y-103100000D01*
X272370000Y-103100000D01*
X272260000Y-103200000D01*
X271540000Y-103200000D01*
X271250000Y-102910000D01*
X271250000Y-101090000D01*
X271540000Y-100800000D01*
X272260000Y-100800000D01*
X272370000Y-100900000D01*
G36*
X270750000Y-101090000D02*
G01*
X270750000Y-102910000D01*
X270460000Y-103200000D01*
X267740000Y-103200000D01*
X267630000Y-103100000D01*
X267100000Y-103100000D01*
X267100000Y-102300000D01*
X267740000Y-102300000D01*
X267740000Y-101700000D01*
X267100000Y-101700000D01*
X267100000Y-100900000D01*
X267630000Y-100900000D01*
X267740000Y-100800000D01*
X270460000Y-100800000D01*
X270750000Y-101090000D01*
G37*
X270750000Y-101090000D02*
X270750000Y-102910000D01*
X270460000Y-103200000D01*
X267740000Y-103200000D01*
X267630000Y-103100000D01*
X267100000Y-103100000D01*
X267100000Y-102300000D01*
X267740000Y-102300000D01*
X267740000Y-101700000D01*
X267100000Y-101700000D01*
X267100000Y-100900000D01*
X267630000Y-100900000D01*
X267740000Y-100800000D01*
X270460000Y-100800000D01*
X270750000Y-101090000D01*
%TO.C,D4*%
G36*
X252250000Y-180090000D02*
G01*
X252250000Y-181910000D01*
X251960000Y-182200000D01*
X251240000Y-182200000D01*
X251130000Y-182100000D01*
X250600000Y-182100000D01*
X250600000Y-181300000D01*
X251240000Y-181300000D01*
X251240000Y-180700000D01*
X250600000Y-180700000D01*
X250600000Y-179900000D01*
X251130000Y-179900000D01*
X251240000Y-179800000D01*
X251960000Y-179800000D01*
X252250000Y-180090000D01*
G37*
X252250000Y-180090000D02*
X252250000Y-181910000D01*
X251960000Y-182200000D01*
X251240000Y-182200000D01*
X251130000Y-182100000D01*
X250600000Y-182100000D01*
X250600000Y-181300000D01*
X251240000Y-181300000D01*
X251240000Y-180700000D01*
X250600000Y-180700000D01*
X250600000Y-179900000D01*
X251130000Y-179900000D01*
X251240000Y-179800000D01*
X251960000Y-179800000D01*
X252250000Y-180090000D01*
G36*
X255870000Y-179900000D02*
G01*
X256400000Y-179900000D01*
X256400000Y-180700000D01*
X255760000Y-180700000D01*
X255760000Y-181300000D01*
X256400000Y-181300000D01*
X256400000Y-182100000D01*
X255870000Y-182100000D01*
X255760000Y-182200000D01*
X253040000Y-182200000D01*
X252750000Y-181910000D01*
X252750000Y-180090000D01*
X253040000Y-179800000D01*
X255760000Y-179800000D01*
X255870000Y-179900000D01*
G37*
X255870000Y-179900000D02*
X256400000Y-179900000D01*
X256400000Y-180700000D01*
X255760000Y-180700000D01*
X255760000Y-181300000D01*
X256400000Y-181300000D01*
X256400000Y-182100000D01*
X255870000Y-182100000D01*
X255760000Y-182200000D01*
X253040000Y-182200000D01*
X252750000Y-181910000D01*
X252750000Y-180090000D01*
X253040000Y-179800000D01*
X255760000Y-179800000D01*
X255870000Y-179900000D01*
G36*
X255870000Y-179900000D02*
G01*
X256400000Y-179900000D01*
X256400000Y-180700000D01*
X255760000Y-180700000D01*
X255760000Y-181300000D01*
X256400000Y-181300000D01*
X256400000Y-182100000D01*
X255870000Y-182100000D01*
X255760000Y-182200000D01*
X253040000Y-182200000D01*
X252750000Y-181910000D01*
X252750000Y-180090000D01*
X253040000Y-179800000D01*
X255760000Y-179800000D01*
X255870000Y-179900000D01*
G37*
X255870000Y-179900000D02*
X256400000Y-179900000D01*
X256400000Y-180700000D01*
X255760000Y-180700000D01*
X255760000Y-181300000D01*
X256400000Y-181300000D01*
X256400000Y-182100000D01*
X255870000Y-182100000D01*
X255760000Y-182200000D01*
X253040000Y-182200000D01*
X252750000Y-181910000D01*
X252750000Y-180090000D01*
X253040000Y-179800000D01*
X255760000Y-179800000D01*
X255870000Y-179900000D01*
G36*
X252250000Y-180090000D02*
G01*
X252250000Y-181910000D01*
X251960000Y-182200000D01*
X251240000Y-182200000D01*
X251130000Y-182100000D01*
X250600000Y-182100000D01*
X250600000Y-181300000D01*
X251240000Y-181300000D01*
X251240000Y-180700000D01*
X250600000Y-180700000D01*
X250600000Y-179900000D01*
X251130000Y-179900000D01*
X251240000Y-179800000D01*
X251960000Y-179800000D01*
X252250000Y-180090000D01*
G37*
X252250000Y-180090000D02*
X252250000Y-181910000D01*
X251960000Y-182200000D01*
X251240000Y-182200000D01*
X251130000Y-182100000D01*
X250600000Y-182100000D01*
X250600000Y-181300000D01*
X251240000Y-181300000D01*
X251240000Y-180700000D01*
X250600000Y-180700000D01*
X250600000Y-179900000D01*
X251130000Y-179900000D01*
X251240000Y-179800000D01*
X251960000Y-179800000D01*
X252250000Y-180090000D01*
%TO.C,D13*%
G36*
X213673797Y-100113137D02*
G01*
X213673797Y-100523259D01*
X211750467Y-102446589D01*
X211601974Y-102453661D01*
X211227208Y-102828427D01*
X210661522Y-102262742D01*
X211114071Y-101810193D01*
X210689807Y-101385929D01*
X210237258Y-101838478D01*
X209671573Y-101272792D01*
X210046339Y-100898026D01*
X210053411Y-100749533D01*
X211976741Y-98826203D01*
X212386863Y-98826203D01*
X213673797Y-100113137D01*
G37*
X213673797Y-100113137D02*
X213673797Y-100523259D01*
X211750467Y-102446589D01*
X211601974Y-102453661D01*
X211227208Y-102828427D01*
X210661522Y-102262742D01*
X211114071Y-101810193D01*
X210689807Y-101385929D01*
X210237258Y-101838478D01*
X209671573Y-101272792D01*
X210046339Y-100898026D01*
X210053411Y-100749533D01*
X211976741Y-98826203D01*
X212386863Y-98826203D01*
X213673797Y-100113137D01*
G36*
X214338478Y-97737258D02*
G01*
X213885929Y-98189807D01*
X214310193Y-98614071D01*
X214762742Y-98161522D01*
X215328427Y-98727208D01*
X214953661Y-99101974D01*
X214946589Y-99250467D01*
X214437473Y-99759584D01*
X214027351Y-99759584D01*
X212740416Y-98472649D01*
X212740416Y-98062527D01*
X213249533Y-97553411D01*
X213398026Y-97546339D01*
X213772792Y-97171573D01*
X214338478Y-97737258D01*
G37*
X214338478Y-97737258D02*
X213885929Y-98189807D01*
X214310193Y-98614071D01*
X214762742Y-98161522D01*
X215328427Y-98727208D01*
X214953661Y-99101974D01*
X214946589Y-99250467D01*
X214437473Y-99759584D01*
X214027351Y-99759584D01*
X212740416Y-98472649D01*
X212740416Y-98062527D01*
X213249533Y-97553411D01*
X213398026Y-97546339D01*
X213772792Y-97171573D01*
X214338478Y-97737258D01*
G36*
X214338478Y-97737258D02*
G01*
X213885929Y-98189807D01*
X214310193Y-98614071D01*
X214762742Y-98161522D01*
X215328427Y-98727208D01*
X214953661Y-99101974D01*
X214946589Y-99250467D01*
X214437473Y-99759584D01*
X214027351Y-99759584D01*
X212740416Y-98472649D01*
X212740416Y-98062527D01*
X213249533Y-97553411D01*
X213398026Y-97546339D01*
X213772792Y-97171573D01*
X214338478Y-97737258D01*
G37*
X214338478Y-97737258D02*
X213885929Y-98189807D01*
X214310193Y-98614071D01*
X214762742Y-98161522D01*
X215328427Y-98727208D01*
X214953661Y-99101974D01*
X214946589Y-99250467D01*
X214437473Y-99759584D01*
X214027351Y-99759584D01*
X212740416Y-98472649D01*
X212740416Y-98062527D01*
X213249533Y-97553411D01*
X213398026Y-97546339D01*
X213772792Y-97171573D01*
X214338478Y-97737258D01*
G36*
X213673797Y-100113137D02*
G01*
X213673797Y-100523259D01*
X211750467Y-102446589D01*
X211601974Y-102453661D01*
X211227208Y-102828427D01*
X210661522Y-102262742D01*
X211114071Y-101810193D01*
X210689807Y-101385929D01*
X210237258Y-101838478D01*
X209671573Y-101272792D01*
X210046339Y-100898026D01*
X210053411Y-100749533D01*
X211976741Y-98826203D01*
X212386863Y-98826203D01*
X213673797Y-100113137D01*
G37*
X213673797Y-100113137D02*
X213673797Y-100523259D01*
X211750467Y-102446589D01*
X211601974Y-102453661D01*
X211227208Y-102828427D01*
X210661522Y-102262742D01*
X211114071Y-101810193D01*
X210689807Y-101385929D01*
X210237258Y-101838478D01*
X209671573Y-101272792D01*
X210046339Y-100898026D01*
X210053411Y-100749533D01*
X211976741Y-98826203D01*
X212386863Y-98826203D01*
X213673797Y-100113137D01*
%TO.C,D9*%
G36*
X215200000Y-157540000D02*
G01*
X215200000Y-160260000D01*
X215100000Y-160370000D01*
X215100000Y-160900000D01*
X214300000Y-160900000D01*
X214300000Y-160260000D01*
X213700000Y-160260000D01*
X213700000Y-160900000D01*
X212900000Y-160900000D01*
X212900000Y-160370000D01*
X212800000Y-160260000D01*
X212800000Y-157540000D01*
X213090000Y-157250000D01*
X214910000Y-157250000D01*
X215200000Y-157540000D01*
G37*
X215200000Y-157540000D02*
X215200000Y-160260000D01*
X215100000Y-160370000D01*
X215100000Y-160900000D01*
X214300000Y-160900000D01*
X214300000Y-160260000D01*
X213700000Y-160260000D01*
X213700000Y-160900000D01*
X212900000Y-160900000D01*
X212900000Y-160370000D01*
X212800000Y-160260000D01*
X212800000Y-157540000D01*
X213090000Y-157250000D01*
X214910000Y-157250000D01*
X215200000Y-157540000D01*
G36*
X213700000Y-155740000D02*
G01*
X214300000Y-155740000D01*
X214300000Y-155100000D01*
X215100000Y-155100000D01*
X215100000Y-155630000D01*
X215200000Y-155740000D01*
X215200000Y-156460000D01*
X214910000Y-156750000D01*
X213090000Y-156750000D01*
X212800000Y-156460000D01*
X212800000Y-155740000D01*
X212900000Y-155630000D01*
X212900000Y-155100000D01*
X213700000Y-155100000D01*
X213700000Y-155740000D01*
G37*
X213700000Y-155740000D02*
X214300000Y-155740000D01*
X214300000Y-155100000D01*
X215100000Y-155100000D01*
X215100000Y-155630000D01*
X215200000Y-155740000D01*
X215200000Y-156460000D01*
X214910000Y-156750000D01*
X213090000Y-156750000D01*
X212800000Y-156460000D01*
X212800000Y-155740000D01*
X212900000Y-155630000D01*
X212900000Y-155100000D01*
X213700000Y-155100000D01*
X213700000Y-155740000D01*
G36*
X215200000Y-157540000D02*
G01*
X215200000Y-160260000D01*
X215100000Y-160370000D01*
X215100000Y-160900000D01*
X214300000Y-160900000D01*
X214300000Y-160260000D01*
X213700000Y-160260000D01*
X213700000Y-160900000D01*
X212900000Y-160900000D01*
X212900000Y-160370000D01*
X212800000Y-160260000D01*
X212800000Y-157540000D01*
X213090000Y-157250000D01*
X214910000Y-157250000D01*
X215200000Y-157540000D01*
G37*
X215200000Y-157540000D02*
X215200000Y-160260000D01*
X215100000Y-160370000D01*
X215100000Y-160900000D01*
X214300000Y-160900000D01*
X214300000Y-160260000D01*
X213700000Y-160260000D01*
X213700000Y-160900000D01*
X212900000Y-160900000D01*
X212900000Y-160370000D01*
X212800000Y-160260000D01*
X212800000Y-157540000D01*
X213090000Y-157250000D01*
X214910000Y-157250000D01*
X215200000Y-157540000D01*
G36*
X213700000Y-155740000D02*
G01*
X214300000Y-155740000D01*
X214300000Y-155100000D01*
X215100000Y-155100000D01*
X215100000Y-155630000D01*
X215200000Y-155740000D01*
X215200000Y-156460000D01*
X214910000Y-156750000D01*
X213090000Y-156750000D01*
X212800000Y-156460000D01*
X212800000Y-155740000D01*
X212900000Y-155630000D01*
X212900000Y-155100000D01*
X213700000Y-155100000D01*
X213700000Y-155740000D01*
G37*
X213700000Y-155740000D02*
X214300000Y-155740000D01*
X214300000Y-155100000D01*
X215100000Y-155100000D01*
X215100000Y-155630000D01*
X215200000Y-155740000D01*
X215200000Y-156460000D01*
X214910000Y-156750000D01*
X213090000Y-156750000D01*
X212800000Y-156460000D01*
X212800000Y-155740000D01*
X212900000Y-155630000D01*
X212900000Y-155100000D01*
X213700000Y-155100000D01*
X213700000Y-155740000D01*
%TO.C,D24*%
G36*
X294200000Y-175740000D02*
G01*
X294200000Y-176460000D01*
X294100000Y-176570000D01*
X294100000Y-177100000D01*
X293300000Y-177100000D01*
X293300000Y-176460000D01*
X292700000Y-176460000D01*
X292700000Y-177100000D01*
X291900000Y-177100000D01*
X291900000Y-176570000D01*
X291800000Y-176460000D01*
X291800000Y-175740000D01*
X292090000Y-175450000D01*
X293910000Y-175450000D01*
X294200000Y-175740000D01*
G37*
X294200000Y-175740000D02*
X294200000Y-176460000D01*
X294100000Y-176570000D01*
X294100000Y-177100000D01*
X293300000Y-177100000D01*
X293300000Y-176460000D01*
X292700000Y-176460000D01*
X292700000Y-177100000D01*
X291900000Y-177100000D01*
X291900000Y-176570000D01*
X291800000Y-176460000D01*
X291800000Y-175740000D01*
X292090000Y-175450000D01*
X293910000Y-175450000D01*
X294200000Y-175740000D01*
G36*
X292700000Y-171940000D02*
G01*
X293300000Y-171940000D01*
X293300000Y-171300000D01*
X294100000Y-171300000D01*
X294100000Y-171830000D01*
X294200000Y-171940000D01*
X294200000Y-174660000D01*
X293910000Y-174950000D01*
X292090000Y-174950000D01*
X291800000Y-174660000D01*
X291800000Y-171940000D01*
X291900000Y-171830000D01*
X291900000Y-171300000D01*
X292700000Y-171300000D01*
X292700000Y-171940000D01*
G37*
X292700000Y-171940000D02*
X293300000Y-171940000D01*
X293300000Y-171300000D01*
X294100000Y-171300000D01*
X294100000Y-171830000D01*
X294200000Y-171940000D01*
X294200000Y-174660000D01*
X293910000Y-174950000D01*
X292090000Y-174950000D01*
X291800000Y-174660000D01*
X291800000Y-171940000D01*
X291900000Y-171830000D01*
X291900000Y-171300000D01*
X292700000Y-171300000D01*
X292700000Y-171940000D01*
G36*
X294200000Y-175740000D02*
G01*
X294200000Y-176460000D01*
X294100000Y-176570000D01*
X294100000Y-177100000D01*
X293300000Y-177100000D01*
X293300000Y-176460000D01*
X292700000Y-176460000D01*
X292700000Y-177100000D01*
X291900000Y-177100000D01*
X291900000Y-176570000D01*
X291800000Y-176460000D01*
X291800000Y-175740000D01*
X292090000Y-175450000D01*
X293910000Y-175450000D01*
X294200000Y-175740000D01*
G37*
X294200000Y-175740000D02*
X294200000Y-176460000D01*
X294100000Y-176570000D01*
X294100000Y-177100000D01*
X293300000Y-177100000D01*
X293300000Y-176460000D01*
X292700000Y-176460000D01*
X292700000Y-177100000D01*
X291900000Y-177100000D01*
X291900000Y-176570000D01*
X291800000Y-176460000D01*
X291800000Y-175740000D01*
X292090000Y-175450000D01*
X293910000Y-175450000D01*
X294200000Y-175740000D01*
G36*
X292700000Y-171940000D02*
G01*
X293300000Y-171940000D01*
X293300000Y-171300000D01*
X294100000Y-171300000D01*
X294100000Y-171830000D01*
X294200000Y-171940000D01*
X294200000Y-174660000D01*
X293910000Y-174950000D01*
X292090000Y-174950000D01*
X291800000Y-174660000D01*
X291800000Y-171940000D01*
X291900000Y-171830000D01*
X291900000Y-171300000D01*
X292700000Y-171300000D01*
X292700000Y-171940000D01*
G37*
X292700000Y-171940000D02*
X293300000Y-171940000D01*
X293300000Y-171300000D01*
X294100000Y-171300000D01*
X294100000Y-171830000D01*
X294200000Y-171940000D01*
X294200000Y-174660000D01*
X293910000Y-174950000D01*
X292090000Y-174950000D01*
X291800000Y-174660000D01*
X291800000Y-171940000D01*
X291900000Y-171830000D01*
X291900000Y-171300000D01*
X292700000Y-171300000D01*
X292700000Y-171940000D01*
%TO.C,D12*%
G36*
X213700000Y-106240000D02*
G01*
X214300000Y-106240000D01*
X214300000Y-105600000D01*
X215100000Y-105600000D01*
X215100000Y-106130000D01*
X215200000Y-106240000D01*
X215200000Y-106960000D01*
X214910000Y-107250000D01*
X213090000Y-107250000D01*
X212800000Y-106960000D01*
X212800000Y-106240000D01*
X212900000Y-106130000D01*
X212900000Y-105600000D01*
X213700000Y-105600000D01*
X213700000Y-106240000D01*
G37*
X213700000Y-106240000D02*
X214300000Y-106240000D01*
X214300000Y-105600000D01*
X215100000Y-105600000D01*
X215100000Y-106130000D01*
X215200000Y-106240000D01*
X215200000Y-106960000D01*
X214910000Y-107250000D01*
X213090000Y-107250000D01*
X212800000Y-106960000D01*
X212800000Y-106240000D01*
X212900000Y-106130000D01*
X212900000Y-105600000D01*
X213700000Y-105600000D01*
X213700000Y-106240000D01*
G36*
X215200000Y-108040000D02*
G01*
X215200000Y-110760000D01*
X215100000Y-110870000D01*
X215100000Y-111400000D01*
X214300000Y-111400000D01*
X214300000Y-110760000D01*
X213700000Y-110760000D01*
X213700000Y-111400000D01*
X212900000Y-111400000D01*
X212900000Y-110870000D01*
X212800000Y-110760000D01*
X212800000Y-108040000D01*
X213090000Y-107750000D01*
X214910000Y-107750000D01*
X215200000Y-108040000D01*
G37*
X215200000Y-108040000D02*
X215200000Y-110760000D01*
X215100000Y-110870000D01*
X215100000Y-111400000D01*
X214300000Y-111400000D01*
X214300000Y-110760000D01*
X213700000Y-110760000D01*
X213700000Y-111400000D01*
X212900000Y-111400000D01*
X212900000Y-110870000D01*
X212800000Y-110760000D01*
X212800000Y-108040000D01*
X213090000Y-107750000D01*
X214910000Y-107750000D01*
X215200000Y-108040000D01*
G36*
X213700000Y-106240000D02*
G01*
X214300000Y-106240000D01*
X214300000Y-105600000D01*
X215100000Y-105600000D01*
X215100000Y-106130000D01*
X215200000Y-106240000D01*
X215200000Y-106960000D01*
X214910000Y-107250000D01*
X213090000Y-107250000D01*
X212800000Y-106960000D01*
X212800000Y-106240000D01*
X212900000Y-106130000D01*
X212900000Y-105600000D01*
X213700000Y-105600000D01*
X213700000Y-106240000D01*
G37*
X213700000Y-106240000D02*
X214300000Y-106240000D01*
X214300000Y-105600000D01*
X215100000Y-105600000D01*
X215100000Y-106130000D01*
X215200000Y-106240000D01*
X215200000Y-106960000D01*
X214910000Y-107250000D01*
X213090000Y-107250000D01*
X212800000Y-106960000D01*
X212800000Y-106240000D01*
X212900000Y-106130000D01*
X212900000Y-105600000D01*
X213700000Y-105600000D01*
X213700000Y-106240000D01*
G36*
X215200000Y-108040000D02*
G01*
X215200000Y-110760000D01*
X215100000Y-110870000D01*
X215100000Y-111400000D01*
X214300000Y-111400000D01*
X214300000Y-110760000D01*
X213700000Y-110760000D01*
X213700000Y-111400000D01*
X212900000Y-111400000D01*
X212900000Y-110870000D01*
X212800000Y-110760000D01*
X212800000Y-108040000D01*
X213090000Y-107750000D01*
X214910000Y-107750000D01*
X215200000Y-108040000D01*
G37*
X215200000Y-108040000D02*
X215200000Y-110760000D01*
X215100000Y-110870000D01*
X215100000Y-111400000D01*
X214300000Y-111400000D01*
X214300000Y-110760000D01*
X213700000Y-110760000D01*
X213700000Y-111400000D01*
X212900000Y-111400000D01*
X212900000Y-110870000D01*
X212800000Y-110760000D01*
X212800000Y-108040000D01*
X213090000Y-107750000D01*
X214910000Y-107750000D01*
X215200000Y-108040000D01*
%TO.C,D15*%
G36*
X239370000Y-100900000D02*
G01*
X239900000Y-100900000D01*
X239900000Y-101700000D01*
X239260000Y-101700000D01*
X239260000Y-102300000D01*
X239900000Y-102300000D01*
X239900000Y-103100000D01*
X239370000Y-103100000D01*
X239260000Y-103200000D01*
X238540000Y-103200000D01*
X238250000Y-102910000D01*
X238250000Y-101090000D01*
X238540000Y-100800000D01*
X239260000Y-100800000D01*
X239370000Y-100900000D01*
G37*
X239370000Y-100900000D02*
X239900000Y-100900000D01*
X239900000Y-101700000D01*
X239260000Y-101700000D01*
X239260000Y-102300000D01*
X239900000Y-102300000D01*
X239900000Y-103100000D01*
X239370000Y-103100000D01*
X239260000Y-103200000D01*
X238540000Y-103200000D01*
X238250000Y-102910000D01*
X238250000Y-101090000D01*
X238540000Y-100800000D01*
X239260000Y-100800000D01*
X239370000Y-100900000D01*
G36*
X237750000Y-101090000D02*
G01*
X237750000Y-102910000D01*
X237460000Y-103200000D01*
X234740000Y-103200000D01*
X234630000Y-103100000D01*
X234100000Y-103100000D01*
X234100000Y-102300000D01*
X234740000Y-102300000D01*
X234740000Y-101700000D01*
X234100000Y-101700000D01*
X234100000Y-100900000D01*
X234630000Y-100900000D01*
X234740000Y-100800000D01*
X237460000Y-100800000D01*
X237750000Y-101090000D01*
G37*
X237750000Y-101090000D02*
X237750000Y-102910000D01*
X237460000Y-103200000D01*
X234740000Y-103200000D01*
X234630000Y-103100000D01*
X234100000Y-103100000D01*
X234100000Y-102300000D01*
X234740000Y-102300000D01*
X234740000Y-101700000D01*
X234100000Y-101700000D01*
X234100000Y-100900000D01*
X234630000Y-100900000D01*
X234740000Y-100800000D01*
X237460000Y-100800000D01*
X237750000Y-101090000D01*
G36*
X237750000Y-101090000D02*
G01*
X237750000Y-102910000D01*
X237460000Y-103200000D01*
X234740000Y-103200000D01*
X234630000Y-103100000D01*
X234100000Y-103100000D01*
X234100000Y-102300000D01*
X234740000Y-102300000D01*
X234740000Y-101700000D01*
X234100000Y-101700000D01*
X234100000Y-100900000D01*
X234630000Y-100900000D01*
X234740000Y-100800000D01*
X237460000Y-100800000D01*
X237750000Y-101090000D01*
G37*
X237750000Y-101090000D02*
X237750000Y-102910000D01*
X237460000Y-103200000D01*
X234740000Y-103200000D01*
X234630000Y-103100000D01*
X234100000Y-103100000D01*
X234100000Y-102300000D01*
X234740000Y-102300000D01*
X234740000Y-101700000D01*
X234100000Y-101700000D01*
X234100000Y-100900000D01*
X234630000Y-100900000D01*
X234740000Y-100800000D01*
X237460000Y-100800000D01*
X237750000Y-101090000D01*
G36*
X239370000Y-100900000D02*
G01*
X239900000Y-100900000D01*
X239900000Y-101700000D01*
X239260000Y-101700000D01*
X239260000Y-102300000D01*
X239900000Y-102300000D01*
X239900000Y-103100000D01*
X239370000Y-103100000D01*
X239260000Y-103200000D01*
X238540000Y-103200000D01*
X238250000Y-102910000D01*
X238250000Y-101090000D01*
X238540000Y-100800000D01*
X239260000Y-100800000D01*
X239370000Y-100900000D01*
G37*
X239370000Y-100900000D02*
X239900000Y-100900000D01*
X239900000Y-101700000D01*
X239260000Y-101700000D01*
X239260000Y-102300000D01*
X239900000Y-102300000D01*
X239900000Y-103100000D01*
X239370000Y-103100000D01*
X239260000Y-103200000D01*
X238540000Y-103200000D01*
X238250000Y-102910000D01*
X238250000Y-101090000D01*
X238540000Y-100800000D01*
X239260000Y-100800000D01*
X239370000Y-100900000D01*
%TO.C,D18*%
G36*
X288870000Y-100900000D02*
G01*
X289400000Y-100900000D01*
X289400000Y-101700000D01*
X288760000Y-101700000D01*
X288760000Y-102300000D01*
X289400000Y-102300000D01*
X289400000Y-103100000D01*
X288870000Y-103100000D01*
X288760000Y-103200000D01*
X288040000Y-103200000D01*
X287750000Y-102910000D01*
X287750000Y-101090000D01*
X288040000Y-100800000D01*
X288760000Y-100800000D01*
X288870000Y-100900000D01*
G37*
X288870000Y-100900000D02*
X289400000Y-100900000D01*
X289400000Y-101700000D01*
X288760000Y-101700000D01*
X288760000Y-102300000D01*
X289400000Y-102300000D01*
X289400000Y-103100000D01*
X288870000Y-103100000D01*
X288760000Y-103200000D01*
X288040000Y-103200000D01*
X287750000Y-102910000D01*
X287750000Y-101090000D01*
X288040000Y-100800000D01*
X288760000Y-100800000D01*
X288870000Y-100900000D01*
G36*
X287250000Y-101090000D02*
G01*
X287250000Y-102910000D01*
X286960000Y-103200000D01*
X284240000Y-103200000D01*
X284130000Y-103100000D01*
X283600000Y-103100000D01*
X283600000Y-102300000D01*
X284240000Y-102300000D01*
X284240000Y-101700000D01*
X283600000Y-101700000D01*
X283600000Y-100900000D01*
X284130000Y-100900000D01*
X284240000Y-100800000D01*
X286960000Y-100800000D01*
X287250000Y-101090000D01*
G37*
X287250000Y-101090000D02*
X287250000Y-102910000D01*
X286960000Y-103200000D01*
X284240000Y-103200000D01*
X284130000Y-103100000D01*
X283600000Y-103100000D01*
X283600000Y-102300000D01*
X284240000Y-102300000D01*
X284240000Y-101700000D01*
X283600000Y-101700000D01*
X283600000Y-100900000D01*
X284130000Y-100900000D01*
X284240000Y-100800000D01*
X286960000Y-100800000D01*
X287250000Y-101090000D01*
G36*
X287250000Y-101090000D02*
G01*
X287250000Y-102910000D01*
X286960000Y-103200000D01*
X284240000Y-103200000D01*
X284130000Y-103100000D01*
X283600000Y-103100000D01*
X283600000Y-102300000D01*
X284240000Y-102300000D01*
X284240000Y-101700000D01*
X283600000Y-101700000D01*
X283600000Y-100900000D01*
X284130000Y-100900000D01*
X284240000Y-100800000D01*
X286960000Y-100800000D01*
X287250000Y-101090000D01*
G37*
X287250000Y-101090000D02*
X287250000Y-102910000D01*
X286960000Y-103200000D01*
X284240000Y-103200000D01*
X284130000Y-103100000D01*
X283600000Y-103100000D01*
X283600000Y-102300000D01*
X284240000Y-102300000D01*
X284240000Y-101700000D01*
X283600000Y-101700000D01*
X283600000Y-100900000D01*
X284130000Y-100900000D01*
X284240000Y-100800000D01*
X286960000Y-100800000D01*
X287250000Y-101090000D01*
G36*
X288870000Y-100900000D02*
G01*
X289400000Y-100900000D01*
X289400000Y-101700000D01*
X288760000Y-101700000D01*
X288760000Y-102300000D01*
X289400000Y-102300000D01*
X289400000Y-103100000D01*
X288870000Y-103100000D01*
X288760000Y-103200000D01*
X288040000Y-103200000D01*
X287750000Y-102910000D01*
X287750000Y-101090000D01*
X288040000Y-100800000D01*
X288760000Y-100800000D01*
X288870000Y-100900000D01*
G37*
X288870000Y-100900000D02*
X289400000Y-100900000D01*
X289400000Y-101700000D01*
X288760000Y-101700000D01*
X288760000Y-102300000D01*
X289400000Y-102300000D01*
X289400000Y-103100000D01*
X288870000Y-103100000D01*
X288760000Y-103200000D01*
X288040000Y-103200000D01*
X287750000Y-102910000D01*
X287750000Y-101090000D01*
X288040000Y-100800000D01*
X288760000Y-100800000D01*
X288870000Y-100900000D01*
%TO.C,D5*%
G36*
X235750000Y-180090000D02*
G01*
X235750000Y-181910000D01*
X235460000Y-182200000D01*
X234740000Y-182200000D01*
X234630000Y-182100000D01*
X234100000Y-182100000D01*
X234100000Y-181300000D01*
X234740000Y-181300000D01*
X234740000Y-180700000D01*
X234100000Y-180700000D01*
X234100000Y-179900000D01*
X234630000Y-179900000D01*
X234740000Y-179800000D01*
X235460000Y-179800000D01*
X235750000Y-180090000D01*
G37*
X235750000Y-180090000D02*
X235750000Y-181910000D01*
X235460000Y-182200000D01*
X234740000Y-182200000D01*
X234630000Y-182100000D01*
X234100000Y-182100000D01*
X234100000Y-181300000D01*
X234740000Y-181300000D01*
X234740000Y-180700000D01*
X234100000Y-180700000D01*
X234100000Y-179900000D01*
X234630000Y-179900000D01*
X234740000Y-179800000D01*
X235460000Y-179800000D01*
X235750000Y-180090000D01*
G36*
X239370000Y-179900000D02*
G01*
X239900000Y-179900000D01*
X239900000Y-180700000D01*
X239260000Y-180700000D01*
X239260000Y-181300000D01*
X239900000Y-181300000D01*
X239900000Y-182100000D01*
X239370000Y-182100000D01*
X239260000Y-182200000D01*
X236540000Y-182200000D01*
X236250000Y-181910000D01*
X236250000Y-180090000D01*
X236540000Y-179800000D01*
X239260000Y-179800000D01*
X239370000Y-179900000D01*
G37*
X239370000Y-179900000D02*
X239900000Y-179900000D01*
X239900000Y-180700000D01*
X239260000Y-180700000D01*
X239260000Y-181300000D01*
X239900000Y-181300000D01*
X239900000Y-182100000D01*
X239370000Y-182100000D01*
X239260000Y-182200000D01*
X236540000Y-182200000D01*
X236250000Y-181910000D01*
X236250000Y-180090000D01*
X236540000Y-179800000D01*
X239260000Y-179800000D01*
X239370000Y-179900000D01*
G36*
X235750000Y-180090000D02*
G01*
X235750000Y-181910000D01*
X235460000Y-182200000D01*
X234740000Y-182200000D01*
X234630000Y-182100000D01*
X234100000Y-182100000D01*
X234100000Y-181300000D01*
X234740000Y-181300000D01*
X234740000Y-180700000D01*
X234100000Y-180700000D01*
X234100000Y-179900000D01*
X234630000Y-179900000D01*
X234740000Y-179800000D01*
X235460000Y-179800000D01*
X235750000Y-180090000D01*
G37*
X235750000Y-180090000D02*
X235750000Y-181910000D01*
X235460000Y-182200000D01*
X234740000Y-182200000D01*
X234630000Y-182100000D01*
X234100000Y-182100000D01*
X234100000Y-181300000D01*
X234740000Y-181300000D01*
X234740000Y-180700000D01*
X234100000Y-180700000D01*
X234100000Y-179900000D01*
X234630000Y-179900000D01*
X234740000Y-179800000D01*
X235460000Y-179800000D01*
X235750000Y-180090000D01*
G36*
X239370000Y-179900000D02*
G01*
X239900000Y-179900000D01*
X239900000Y-180700000D01*
X239260000Y-180700000D01*
X239260000Y-181300000D01*
X239900000Y-181300000D01*
X239900000Y-182100000D01*
X239370000Y-182100000D01*
X239260000Y-182200000D01*
X236540000Y-182200000D01*
X236250000Y-181910000D01*
X236250000Y-180090000D01*
X236540000Y-179800000D01*
X239260000Y-179800000D01*
X239370000Y-179900000D01*
G37*
X239370000Y-179900000D02*
X239900000Y-179900000D01*
X239900000Y-180700000D01*
X239260000Y-180700000D01*
X239260000Y-181300000D01*
X239900000Y-181300000D01*
X239900000Y-182100000D01*
X239370000Y-182100000D01*
X239260000Y-182200000D01*
X236540000Y-182200000D01*
X236250000Y-181910000D01*
X236250000Y-180090000D01*
X236540000Y-179800000D01*
X239260000Y-179800000D01*
X239370000Y-179900000D01*
%TO.C,D21*%
G36*
X294200000Y-126540000D02*
G01*
X294200000Y-127260000D01*
X294100000Y-127370000D01*
X294100000Y-127900000D01*
X293300000Y-127900000D01*
X293300000Y-127260000D01*
X292700000Y-127260000D01*
X292700000Y-127900000D01*
X291900000Y-127900000D01*
X291900000Y-127370000D01*
X291800000Y-127260000D01*
X291800000Y-126540000D01*
X292090000Y-126250000D01*
X293910000Y-126250000D01*
X294200000Y-126540000D01*
G37*
X294200000Y-126540000D02*
X294200000Y-127260000D01*
X294100000Y-127370000D01*
X294100000Y-127900000D01*
X293300000Y-127900000D01*
X293300000Y-127260000D01*
X292700000Y-127260000D01*
X292700000Y-127900000D01*
X291900000Y-127900000D01*
X291900000Y-127370000D01*
X291800000Y-127260000D01*
X291800000Y-126540000D01*
X292090000Y-126250000D01*
X293910000Y-126250000D01*
X294200000Y-126540000D01*
G36*
X294200000Y-126540000D02*
G01*
X294200000Y-127260000D01*
X294100000Y-127370000D01*
X294100000Y-127900000D01*
X293300000Y-127900000D01*
X293300000Y-127260000D01*
X292700000Y-127260000D01*
X292700000Y-127900000D01*
X291900000Y-127900000D01*
X291900000Y-127370000D01*
X291800000Y-127260000D01*
X291800000Y-126540000D01*
X292090000Y-126250000D01*
X293910000Y-126250000D01*
X294200000Y-126540000D01*
G37*
X294200000Y-126540000D02*
X294200000Y-127260000D01*
X294100000Y-127370000D01*
X294100000Y-127900000D01*
X293300000Y-127900000D01*
X293300000Y-127260000D01*
X292700000Y-127260000D01*
X292700000Y-127900000D01*
X291900000Y-127900000D01*
X291900000Y-127370000D01*
X291800000Y-127260000D01*
X291800000Y-126540000D01*
X292090000Y-126250000D01*
X293910000Y-126250000D01*
X294200000Y-126540000D01*
G36*
X292700000Y-122740000D02*
G01*
X293300000Y-122740000D01*
X293300000Y-122100000D01*
X294100000Y-122100000D01*
X294100000Y-122630000D01*
X294200000Y-122740000D01*
X294200000Y-125460000D01*
X293910000Y-125750000D01*
X292090000Y-125750000D01*
X291800000Y-125460000D01*
X291800000Y-122740000D01*
X291900000Y-122630000D01*
X291900000Y-122100000D01*
X292700000Y-122100000D01*
X292700000Y-122740000D01*
G37*
X292700000Y-122740000D02*
X293300000Y-122740000D01*
X293300000Y-122100000D01*
X294100000Y-122100000D01*
X294100000Y-122630000D01*
X294200000Y-122740000D01*
X294200000Y-125460000D01*
X293910000Y-125750000D01*
X292090000Y-125750000D01*
X291800000Y-125460000D01*
X291800000Y-122740000D01*
X291900000Y-122630000D01*
X291900000Y-122100000D01*
X292700000Y-122100000D01*
X292700000Y-122740000D01*
G36*
X292700000Y-122740000D02*
G01*
X293300000Y-122740000D01*
X293300000Y-122100000D01*
X294100000Y-122100000D01*
X294100000Y-122630000D01*
X294200000Y-122740000D01*
X294200000Y-125460000D01*
X293910000Y-125750000D01*
X292090000Y-125750000D01*
X291800000Y-125460000D01*
X291800000Y-122740000D01*
X291900000Y-122630000D01*
X291900000Y-122100000D01*
X292700000Y-122100000D01*
X292700000Y-122740000D01*
G37*
X292700000Y-122740000D02*
X293300000Y-122740000D01*
X293300000Y-122100000D01*
X294100000Y-122100000D01*
X294100000Y-122630000D01*
X294200000Y-122740000D01*
X294200000Y-125460000D01*
X293910000Y-125750000D01*
X292090000Y-125750000D01*
X291800000Y-125460000D01*
X291800000Y-122740000D01*
X291900000Y-122630000D01*
X291900000Y-122100000D01*
X292700000Y-122100000D01*
X292700000Y-122740000D01*
%TO.C,D16*%
G36*
X254250000Y-101090000D02*
G01*
X254250000Y-102910000D01*
X253960000Y-103200000D01*
X251240000Y-103200000D01*
X251130000Y-103100000D01*
X250600000Y-103100000D01*
X250600000Y-102300000D01*
X251240000Y-102300000D01*
X251240000Y-101700000D01*
X250600000Y-101700000D01*
X250600000Y-100900000D01*
X251130000Y-100900000D01*
X251240000Y-100800000D01*
X253960000Y-100800000D01*
X254250000Y-101090000D01*
G37*
X254250000Y-101090000D02*
X254250000Y-102910000D01*
X253960000Y-103200000D01*
X251240000Y-103200000D01*
X251130000Y-103100000D01*
X250600000Y-103100000D01*
X250600000Y-102300000D01*
X251240000Y-102300000D01*
X251240000Y-101700000D01*
X250600000Y-101700000D01*
X250600000Y-100900000D01*
X251130000Y-100900000D01*
X251240000Y-100800000D01*
X253960000Y-100800000D01*
X254250000Y-101090000D01*
G36*
X255870000Y-100900000D02*
G01*
X256400000Y-100900000D01*
X256400000Y-101700000D01*
X255760000Y-101700000D01*
X255760000Y-102300000D01*
X256400000Y-102300000D01*
X256400000Y-103100000D01*
X255870000Y-103100000D01*
X255760000Y-103200000D01*
X255040000Y-103200000D01*
X254750000Y-102910000D01*
X254750000Y-101090000D01*
X255040000Y-100800000D01*
X255760000Y-100800000D01*
X255870000Y-100900000D01*
G37*
X255870000Y-100900000D02*
X256400000Y-100900000D01*
X256400000Y-101700000D01*
X255760000Y-101700000D01*
X255760000Y-102300000D01*
X256400000Y-102300000D01*
X256400000Y-103100000D01*
X255870000Y-103100000D01*
X255760000Y-103200000D01*
X255040000Y-103200000D01*
X254750000Y-102910000D01*
X254750000Y-101090000D01*
X255040000Y-100800000D01*
X255760000Y-100800000D01*
X255870000Y-100900000D01*
G36*
X254250000Y-101090000D02*
G01*
X254250000Y-102910000D01*
X253960000Y-103200000D01*
X251240000Y-103200000D01*
X251130000Y-103100000D01*
X250600000Y-103100000D01*
X250600000Y-102300000D01*
X251240000Y-102300000D01*
X251240000Y-101700000D01*
X250600000Y-101700000D01*
X250600000Y-100900000D01*
X251130000Y-100900000D01*
X251240000Y-100800000D01*
X253960000Y-100800000D01*
X254250000Y-101090000D01*
G37*
X254250000Y-101090000D02*
X254250000Y-102910000D01*
X253960000Y-103200000D01*
X251240000Y-103200000D01*
X251130000Y-103100000D01*
X250600000Y-103100000D01*
X250600000Y-102300000D01*
X251240000Y-102300000D01*
X251240000Y-101700000D01*
X250600000Y-101700000D01*
X250600000Y-100900000D01*
X251130000Y-100900000D01*
X251240000Y-100800000D01*
X253960000Y-100800000D01*
X254250000Y-101090000D01*
G36*
X255870000Y-100900000D02*
G01*
X256400000Y-100900000D01*
X256400000Y-101700000D01*
X255760000Y-101700000D01*
X255760000Y-102300000D01*
X256400000Y-102300000D01*
X256400000Y-103100000D01*
X255870000Y-103100000D01*
X255760000Y-103200000D01*
X255040000Y-103200000D01*
X254750000Y-102910000D01*
X254750000Y-101090000D01*
X255040000Y-100800000D01*
X255760000Y-100800000D01*
X255870000Y-100900000D01*
G37*
X255870000Y-100900000D02*
X256400000Y-100900000D01*
X256400000Y-101700000D01*
X255760000Y-101700000D01*
X255760000Y-102300000D01*
X256400000Y-102300000D01*
X256400000Y-103100000D01*
X255870000Y-103100000D01*
X255760000Y-103200000D01*
X255040000Y-103200000D01*
X254750000Y-102910000D01*
X254750000Y-101090000D01*
X255040000Y-100800000D01*
X255760000Y-100800000D01*
X255870000Y-100900000D01*
%TO.C,D19*%
G36*
X293601974Y-98046339D02*
G01*
X293750467Y-98053411D01*
X295673797Y-99976741D01*
X295673797Y-100386863D01*
X294386863Y-101673797D01*
X293976741Y-101673797D01*
X292053411Y-99750467D01*
X292046339Y-99601974D01*
X291671573Y-99227208D01*
X292237258Y-98661522D01*
X292689807Y-99114071D01*
X293114071Y-98689807D01*
X292661522Y-98237258D01*
X293227208Y-97671573D01*
X293601974Y-98046339D01*
G37*
X293601974Y-98046339D02*
X293750467Y-98053411D01*
X295673797Y-99976741D01*
X295673797Y-100386863D01*
X294386863Y-101673797D01*
X293976741Y-101673797D01*
X292053411Y-99750467D01*
X292046339Y-99601974D01*
X291671573Y-99227208D01*
X292237258Y-98661522D01*
X292689807Y-99114071D01*
X293114071Y-98689807D01*
X292661522Y-98237258D01*
X293227208Y-97671573D01*
X293601974Y-98046339D01*
G36*
X293601974Y-98046339D02*
G01*
X293750467Y-98053411D01*
X295673797Y-99976741D01*
X295673797Y-100386863D01*
X294386863Y-101673797D01*
X293976741Y-101673797D01*
X292053411Y-99750467D01*
X292046339Y-99601974D01*
X291671573Y-99227208D01*
X292237258Y-98661522D01*
X292689807Y-99114071D01*
X293114071Y-98689807D01*
X292661522Y-98237258D01*
X293227208Y-97671573D01*
X293601974Y-98046339D01*
G37*
X293601974Y-98046339D02*
X293750467Y-98053411D01*
X295673797Y-99976741D01*
X295673797Y-100386863D01*
X294386863Y-101673797D01*
X293976741Y-101673797D01*
X292053411Y-99750467D01*
X292046339Y-99601974D01*
X291671573Y-99227208D01*
X292237258Y-98661522D01*
X292689807Y-99114071D01*
X293114071Y-98689807D01*
X292661522Y-98237258D01*
X293227208Y-97671573D01*
X293601974Y-98046339D01*
G36*
X296946589Y-101249533D02*
G01*
X296953661Y-101398026D01*
X297328427Y-101772792D01*
X296762742Y-102338478D01*
X296310193Y-101885929D01*
X295885929Y-102310193D01*
X296338478Y-102762742D01*
X295772792Y-103328427D01*
X295398026Y-102953661D01*
X295249533Y-102946589D01*
X294740416Y-102437473D01*
X294740416Y-102027351D01*
X296027351Y-100740416D01*
X296437473Y-100740416D01*
X296946589Y-101249533D01*
G37*
X296946589Y-101249533D02*
X296953661Y-101398026D01*
X297328427Y-101772792D01*
X296762742Y-102338478D01*
X296310193Y-101885929D01*
X295885929Y-102310193D01*
X296338478Y-102762742D01*
X295772792Y-103328427D01*
X295398026Y-102953661D01*
X295249533Y-102946589D01*
X294740416Y-102437473D01*
X294740416Y-102027351D01*
X296027351Y-100740416D01*
X296437473Y-100740416D01*
X296946589Y-101249533D01*
G36*
X296946589Y-101249533D02*
G01*
X296953661Y-101398026D01*
X297328427Y-101772792D01*
X296762742Y-102338478D01*
X296310193Y-101885929D01*
X295885929Y-102310193D01*
X296338478Y-102762742D01*
X295772792Y-103328427D01*
X295398026Y-102953661D01*
X295249533Y-102946589D01*
X294740416Y-102437473D01*
X294740416Y-102027351D01*
X296027351Y-100740416D01*
X296437473Y-100740416D01*
X296946589Y-101249533D01*
G37*
X296946589Y-101249533D02*
X296953661Y-101398026D01*
X297328427Y-101772792D01*
X296762742Y-102338478D01*
X296310193Y-101885929D01*
X295885929Y-102310193D01*
X296338478Y-102762742D01*
X295772792Y-103328427D01*
X295398026Y-102953661D01*
X295249533Y-102946589D01*
X294740416Y-102437473D01*
X294740416Y-102027351D01*
X296027351Y-100740416D01*
X296437473Y-100740416D01*
X296946589Y-101249533D01*
%TO.C,D14*%
G36*
X221250000Y-101090000D02*
G01*
X221250000Y-102910000D01*
X220960000Y-103200000D01*
X218240000Y-103200000D01*
X218130000Y-103100000D01*
X217600000Y-103100000D01*
X217600000Y-102300000D01*
X218240000Y-102300000D01*
X218240000Y-101700000D01*
X217600000Y-101700000D01*
X217600000Y-100900000D01*
X218130000Y-100900000D01*
X218240000Y-100800000D01*
X220960000Y-100800000D01*
X221250000Y-101090000D01*
G37*
X221250000Y-101090000D02*
X221250000Y-102910000D01*
X220960000Y-103200000D01*
X218240000Y-103200000D01*
X218130000Y-103100000D01*
X217600000Y-103100000D01*
X217600000Y-102300000D01*
X218240000Y-102300000D01*
X218240000Y-101700000D01*
X217600000Y-101700000D01*
X217600000Y-100900000D01*
X218130000Y-100900000D01*
X218240000Y-100800000D01*
X220960000Y-100800000D01*
X221250000Y-101090000D01*
G36*
X222870000Y-100900000D02*
G01*
X223400000Y-100900000D01*
X223400000Y-101700000D01*
X222760000Y-101700000D01*
X222760000Y-102300000D01*
X223400000Y-102300000D01*
X223400000Y-103100000D01*
X222870000Y-103100000D01*
X222760000Y-103200000D01*
X222040000Y-103200000D01*
X221750000Y-102910000D01*
X221750000Y-101090000D01*
X222040000Y-100800000D01*
X222760000Y-100800000D01*
X222870000Y-100900000D01*
G37*
X222870000Y-100900000D02*
X223400000Y-100900000D01*
X223400000Y-101700000D01*
X222760000Y-101700000D01*
X222760000Y-102300000D01*
X223400000Y-102300000D01*
X223400000Y-103100000D01*
X222870000Y-103100000D01*
X222760000Y-103200000D01*
X222040000Y-103200000D01*
X221750000Y-102910000D01*
X221750000Y-101090000D01*
X222040000Y-100800000D01*
X222760000Y-100800000D01*
X222870000Y-100900000D01*
G36*
X221250000Y-101090000D02*
G01*
X221250000Y-102910000D01*
X220960000Y-103200000D01*
X218240000Y-103200000D01*
X218130000Y-103100000D01*
X217600000Y-103100000D01*
X217600000Y-102300000D01*
X218240000Y-102300000D01*
X218240000Y-101700000D01*
X217600000Y-101700000D01*
X217600000Y-100900000D01*
X218130000Y-100900000D01*
X218240000Y-100800000D01*
X220960000Y-100800000D01*
X221250000Y-101090000D01*
G37*
X221250000Y-101090000D02*
X221250000Y-102910000D01*
X220960000Y-103200000D01*
X218240000Y-103200000D01*
X218130000Y-103100000D01*
X217600000Y-103100000D01*
X217600000Y-102300000D01*
X218240000Y-102300000D01*
X218240000Y-101700000D01*
X217600000Y-101700000D01*
X217600000Y-100900000D01*
X218130000Y-100900000D01*
X218240000Y-100800000D01*
X220960000Y-100800000D01*
X221250000Y-101090000D01*
G36*
X222870000Y-100900000D02*
G01*
X223400000Y-100900000D01*
X223400000Y-101700000D01*
X222760000Y-101700000D01*
X222760000Y-102300000D01*
X223400000Y-102300000D01*
X223400000Y-103100000D01*
X222870000Y-103100000D01*
X222760000Y-103200000D01*
X222040000Y-103200000D01*
X221750000Y-102910000D01*
X221750000Y-101090000D01*
X222040000Y-100800000D01*
X222760000Y-100800000D01*
X222870000Y-100900000D01*
G37*
X222870000Y-100900000D02*
X223400000Y-100900000D01*
X223400000Y-101700000D01*
X222760000Y-101700000D01*
X222760000Y-102300000D01*
X223400000Y-102300000D01*
X223400000Y-103100000D01*
X222870000Y-103100000D01*
X222760000Y-103200000D01*
X222040000Y-103200000D01*
X221750000Y-102910000D01*
X221750000Y-101090000D01*
X222040000Y-100800000D01*
X222760000Y-100800000D01*
X222870000Y-100900000D01*
%TO.C,D3*%
G36*
X268750000Y-180090000D02*
G01*
X268750000Y-181910000D01*
X268460000Y-182200000D01*
X267740000Y-182200000D01*
X267630000Y-182100000D01*
X267100000Y-182100000D01*
X267100000Y-181300000D01*
X267740000Y-181300000D01*
X267740000Y-180700000D01*
X267100000Y-180700000D01*
X267100000Y-179900000D01*
X267630000Y-179900000D01*
X267740000Y-179800000D01*
X268460000Y-179800000D01*
X268750000Y-180090000D01*
G37*
X268750000Y-180090000D02*
X268750000Y-181910000D01*
X268460000Y-182200000D01*
X267740000Y-182200000D01*
X267630000Y-182100000D01*
X267100000Y-182100000D01*
X267100000Y-181300000D01*
X267740000Y-181300000D01*
X267740000Y-180700000D01*
X267100000Y-180700000D01*
X267100000Y-179900000D01*
X267630000Y-179900000D01*
X267740000Y-179800000D01*
X268460000Y-179800000D01*
X268750000Y-180090000D01*
G36*
X272370000Y-179900000D02*
G01*
X272900000Y-179900000D01*
X272900000Y-180700000D01*
X272260000Y-180700000D01*
X272260000Y-181300000D01*
X272900000Y-181300000D01*
X272900000Y-182100000D01*
X272370000Y-182100000D01*
X272260000Y-182200000D01*
X269540000Y-182200000D01*
X269250000Y-181910000D01*
X269250000Y-180090000D01*
X269540000Y-179800000D01*
X272260000Y-179800000D01*
X272370000Y-179900000D01*
G37*
X272370000Y-179900000D02*
X272900000Y-179900000D01*
X272900000Y-180700000D01*
X272260000Y-180700000D01*
X272260000Y-181300000D01*
X272900000Y-181300000D01*
X272900000Y-182100000D01*
X272370000Y-182100000D01*
X272260000Y-182200000D01*
X269540000Y-182200000D01*
X269250000Y-181910000D01*
X269250000Y-180090000D01*
X269540000Y-179800000D01*
X272260000Y-179800000D01*
X272370000Y-179900000D01*
G36*
X268750000Y-180090000D02*
G01*
X268750000Y-181910000D01*
X268460000Y-182200000D01*
X267740000Y-182200000D01*
X267630000Y-182100000D01*
X267100000Y-182100000D01*
X267100000Y-181300000D01*
X267740000Y-181300000D01*
X267740000Y-180700000D01*
X267100000Y-180700000D01*
X267100000Y-179900000D01*
X267630000Y-179900000D01*
X267740000Y-179800000D01*
X268460000Y-179800000D01*
X268750000Y-180090000D01*
G37*
X268750000Y-180090000D02*
X268750000Y-181910000D01*
X268460000Y-182200000D01*
X267740000Y-182200000D01*
X267630000Y-182100000D01*
X267100000Y-182100000D01*
X267100000Y-181300000D01*
X267740000Y-181300000D01*
X267740000Y-180700000D01*
X267100000Y-180700000D01*
X267100000Y-179900000D01*
X267630000Y-179900000D01*
X267740000Y-179800000D01*
X268460000Y-179800000D01*
X268750000Y-180090000D01*
G36*
X272370000Y-179900000D02*
G01*
X272900000Y-179900000D01*
X272900000Y-180700000D01*
X272260000Y-180700000D01*
X272260000Y-181300000D01*
X272900000Y-181300000D01*
X272900000Y-182100000D01*
X272370000Y-182100000D01*
X272260000Y-182200000D01*
X269540000Y-182200000D01*
X269250000Y-181910000D01*
X269250000Y-180090000D01*
X269540000Y-179800000D01*
X272260000Y-179800000D01*
X272370000Y-179900000D01*
G37*
X272370000Y-179900000D02*
X272900000Y-179900000D01*
X272900000Y-180700000D01*
X272260000Y-180700000D01*
X272260000Y-181300000D01*
X272900000Y-181300000D01*
X272900000Y-182100000D01*
X272370000Y-182100000D01*
X272260000Y-182200000D01*
X269540000Y-182200000D01*
X269250000Y-181910000D01*
X269250000Y-180090000D01*
X269540000Y-179800000D01*
X272260000Y-179800000D01*
X272370000Y-179900000D01*
%TO.C,D22*%
G36*
X292700000Y-139240000D02*
G01*
X293300000Y-139240000D01*
X293300000Y-138600000D01*
X294100000Y-138600000D01*
X294100000Y-139130000D01*
X294200000Y-139240000D01*
X294200000Y-141960000D01*
X293910000Y-142250000D01*
X292090000Y-142250000D01*
X291800000Y-141960000D01*
X291800000Y-139240000D01*
X291900000Y-139130000D01*
X291900000Y-138600000D01*
X292700000Y-138600000D01*
X292700000Y-139240000D01*
G37*
X292700000Y-139240000D02*
X293300000Y-139240000D01*
X293300000Y-138600000D01*
X294100000Y-138600000D01*
X294100000Y-139130000D01*
X294200000Y-139240000D01*
X294200000Y-141960000D01*
X293910000Y-142250000D01*
X292090000Y-142250000D01*
X291800000Y-141960000D01*
X291800000Y-139240000D01*
X291900000Y-139130000D01*
X291900000Y-138600000D01*
X292700000Y-138600000D01*
X292700000Y-139240000D01*
G36*
X294200000Y-143040000D02*
G01*
X294200000Y-143760000D01*
X294100000Y-143870000D01*
X294100000Y-144400000D01*
X293300000Y-144400000D01*
X293300000Y-143760000D01*
X292700000Y-143760000D01*
X292700000Y-144400000D01*
X291900000Y-144400000D01*
X291900000Y-143870000D01*
X291800000Y-143760000D01*
X291800000Y-143040000D01*
X292090000Y-142750000D01*
X293910000Y-142750000D01*
X294200000Y-143040000D01*
G37*
X294200000Y-143040000D02*
X294200000Y-143760000D01*
X294100000Y-143870000D01*
X294100000Y-144400000D01*
X293300000Y-144400000D01*
X293300000Y-143760000D01*
X292700000Y-143760000D01*
X292700000Y-144400000D01*
X291900000Y-144400000D01*
X291900000Y-143870000D01*
X291800000Y-143760000D01*
X291800000Y-143040000D01*
X292090000Y-142750000D01*
X293910000Y-142750000D01*
X294200000Y-143040000D01*
G36*
X294200000Y-143040000D02*
G01*
X294200000Y-143760000D01*
X294100000Y-143870000D01*
X294100000Y-144400000D01*
X293300000Y-144400000D01*
X293300000Y-143760000D01*
X292700000Y-143760000D01*
X292700000Y-144400000D01*
X291900000Y-144400000D01*
X291900000Y-143870000D01*
X291800000Y-143760000D01*
X291800000Y-143040000D01*
X292090000Y-142750000D01*
X293910000Y-142750000D01*
X294200000Y-143040000D01*
G37*
X294200000Y-143040000D02*
X294200000Y-143760000D01*
X294100000Y-143870000D01*
X294100000Y-144400000D01*
X293300000Y-144400000D01*
X293300000Y-143760000D01*
X292700000Y-143760000D01*
X292700000Y-144400000D01*
X291900000Y-144400000D01*
X291900000Y-143870000D01*
X291800000Y-143760000D01*
X291800000Y-143040000D01*
X292090000Y-142750000D01*
X293910000Y-142750000D01*
X294200000Y-143040000D01*
G36*
X292700000Y-139240000D02*
G01*
X293300000Y-139240000D01*
X293300000Y-138600000D01*
X294100000Y-138600000D01*
X294100000Y-139130000D01*
X294200000Y-139240000D01*
X294200000Y-141960000D01*
X293910000Y-142250000D01*
X292090000Y-142250000D01*
X291800000Y-141960000D01*
X291800000Y-139240000D01*
X291900000Y-139130000D01*
X291900000Y-138600000D01*
X292700000Y-138600000D01*
X292700000Y-139240000D01*
G37*
X292700000Y-139240000D02*
X293300000Y-139240000D01*
X293300000Y-138600000D01*
X294100000Y-138600000D01*
X294100000Y-139130000D01*
X294200000Y-139240000D01*
X294200000Y-141960000D01*
X293910000Y-142250000D01*
X292090000Y-142250000D01*
X291800000Y-141960000D01*
X291800000Y-139240000D01*
X291900000Y-139130000D01*
X291900000Y-138600000D01*
X292700000Y-138600000D01*
X292700000Y-139240000D01*
%TO.C,D1*%
G36*
X296838478Y-180737258D02*
G01*
X296385929Y-181189807D01*
X296810193Y-181614071D01*
X297262742Y-181161522D01*
X297828427Y-181727208D01*
X297453661Y-182101974D01*
X297446589Y-182250467D01*
X295523259Y-184173797D01*
X295113137Y-184173797D01*
X293826203Y-182886863D01*
X293826203Y-182476741D01*
X295749533Y-180553411D01*
X295898026Y-180546339D01*
X296272792Y-180171573D01*
X296838478Y-180737258D01*
G37*
X296838478Y-180737258D02*
X296385929Y-181189807D01*
X296810193Y-181614071D01*
X297262742Y-181161522D01*
X297828427Y-181727208D01*
X297453661Y-182101974D01*
X297446589Y-182250467D01*
X295523259Y-184173797D01*
X295113137Y-184173797D01*
X293826203Y-182886863D01*
X293826203Y-182476741D01*
X295749533Y-180553411D01*
X295898026Y-180546339D01*
X296272792Y-180171573D01*
X296838478Y-180737258D01*
G36*
X294759584Y-184527351D02*
G01*
X294759584Y-184937473D01*
X294250467Y-185446589D01*
X294101974Y-185453661D01*
X293727208Y-185828427D01*
X293161522Y-185262742D01*
X293614071Y-184810193D01*
X293189807Y-184385929D01*
X292737258Y-184838478D01*
X292171573Y-184272792D01*
X292546339Y-183898026D01*
X292553411Y-183749533D01*
X293062527Y-183240416D01*
X293472649Y-183240416D01*
X294759584Y-184527351D01*
G37*
X294759584Y-184527351D02*
X294759584Y-184937473D01*
X294250467Y-185446589D01*
X294101974Y-185453661D01*
X293727208Y-185828427D01*
X293161522Y-185262742D01*
X293614071Y-184810193D01*
X293189807Y-184385929D01*
X292737258Y-184838478D01*
X292171573Y-184272792D01*
X292546339Y-183898026D01*
X292553411Y-183749533D01*
X293062527Y-183240416D01*
X293472649Y-183240416D01*
X294759584Y-184527351D01*
G36*
X296838478Y-180737258D02*
G01*
X296385929Y-181189807D01*
X296810193Y-181614071D01*
X297262742Y-181161522D01*
X297828427Y-181727208D01*
X297453661Y-182101974D01*
X297446589Y-182250467D01*
X295523259Y-184173797D01*
X295113137Y-184173797D01*
X293826203Y-182886863D01*
X293826203Y-182476741D01*
X295749533Y-180553411D01*
X295898026Y-180546339D01*
X296272792Y-180171573D01*
X296838478Y-180737258D01*
G37*
X296838478Y-180737258D02*
X296385929Y-181189807D01*
X296810193Y-181614071D01*
X297262742Y-181161522D01*
X297828427Y-181727208D01*
X297453661Y-182101974D01*
X297446589Y-182250467D01*
X295523259Y-184173797D01*
X295113137Y-184173797D01*
X293826203Y-182886863D01*
X293826203Y-182476741D01*
X295749533Y-180553411D01*
X295898026Y-180546339D01*
X296272792Y-180171573D01*
X296838478Y-180737258D01*
G36*
X294759584Y-184527351D02*
G01*
X294759584Y-184937473D01*
X294250467Y-185446589D01*
X294101974Y-185453661D01*
X293727208Y-185828427D01*
X293161522Y-185262742D01*
X293614071Y-184810193D01*
X293189807Y-184385929D01*
X292737258Y-184838478D01*
X292171573Y-184272792D01*
X292546339Y-183898026D01*
X292553411Y-183749533D01*
X293062527Y-183240416D01*
X293472649Y-183240416D01*
X294759584Y-184527351D01*
G37*
X294759584Y-184527351D02*
X294759584Y-184937473D01*
X294250467Y-185446589D01*
X294101974Y-185453661D01*
X293727208Y-185828427D01*
X293161522Y-185262742D01*
X293614071Y-184810193D01*
X293189807Y-184385929D01*
X292737258Y-184838478D01*
X292171573Y-184272792D01*
X292546339Y-183898026D01*
X292553411Y-183749533D01*
X293062527Y-183240416D01*
X293472649Y-183240416D01*
X294759584Y-184527351D01*
%TO.C,D6*%
G36*
X219250000Y-180090000D02*
G01*
X219250000Y-181910000D01*
X218960000Y-182200000D01*
X218240000Y-182200000D01*
X218130000Y-182100000D01*
X217600000Y-182100000D01*
X217600000Y-181300000D01*
X218240000Y-181300000D01*
X218240000Y-180700000D01*
X217600000Y-180700000D01*
X217600000Y-179900000D01*
X218130000Y-179900000D01*
X218240000Y-179800000D01*
X218960000Y-179800000D01*
X219250000Y-180090000D01*
G37*
X219250000Y-180090000D02*
X219250000Y-181910000D01*
X218960000Y-182200000D01*
X218240000Y-182200000D01*
X218130000Y-182100000D01*
X217600000Y-182100000D01*
X217600000Y-181300000D01*
X218240000Y-181300000D01*
X218240000Y-180700000D01*
X217600000Y-180700000D01*
X217600000Y-179900000D01*
X218130000Y-179900000D01*
X218240000Y-179800000D01*
X218960000Y-179800000D01*
X219250000Y-180090000D01*
G36*
X219250000Y-180090000D02*
G01*
X219250000Y-181910000D01*
X218960000Y-182200000D01*
X218240000Y-182200000D01*
X218130000Y-182100000D01*
X217600000Y-182100000D01*
X217600000Y-181300000D01*
X218240000Y-181300000D01*
X218240000Y-180700000D01*
X217600000Y-180700000D01*
X217600000Y-179900000D01*
X218130000Y-179900000D01*
X218240000Y-179800000D01*
X218960000Y-179800000D01*
X219250000Y-180090000D01*
G37*
X219250000Y-180090000D02*
X219250000Y-181910000D01*
X218960000Y-182200000D01*
X218240000Y-182200000D01*
X218130000Y-182100000D01*
X217600000Y-182100000D01*
X217600000Y-181300000D01*
X218240000Y-181300000D01*
X218240000Y-180700000D01*
X217600000Y-180700000D01*
X217600000Y-179900000D01*
X218130000Y-179900000D01*
X218240000Y-179800000D01*
X218960000Y-179800000D01*
X219250000Y-180090000D01*
G36*
X222870000Y-179900000D02*
G01*
X223400000Y-179900000D01*
X223400000Y-180700000D01*
X222760000Y-180700000D01*
X222760000Y-181300000D01*
X223400000Y-181300000D01*
X223400000Y-182100000D01*
X222870000Y-182100000D01*
X222760000Y-182200000D01*
X220040000Y-182200000D01*
X219750000Y-181910000D01*
X219750000Y-180090000D01*
X220040000Y-179800000D01*
X222760000Y-179800000D01*
X222870000Y-179900000D01*
G37*
X222870000Y-179900000D02*
X223400000Y-179900000D01*
X223400000Y-180700000D01*
X222760000Y-180700000D01*
X222760000Y-181300000D01*
X223400000Y-181300000D01*
X223400000Y-182100000D01*
X222870000Y-182100000D01*
X222760000Y-182200000D01*
X220040000Y-182200000D01*
X219750000Y-181910000D01*
X219750000Y-180090000D01*
X220040000Y-179800000D01*
X222760000Y-179800000D01*
X222870000Y-179900000D01*
G36*
X222870000Y-179900000D02*
G01*
X223400000Y-179900000D01*
X223400000Y-180700000D01*
X222760000Y-180700000D01*
X222760000Y-181300000D01*
X223400000Y-181300000D01*
X223400000Y-182100000D01*
X222870000Y-182100000D01*
X222760000Y-182200000D01*
X220040000Y-182200000D01*
X219750000Y-181910000D01*
X219750000Y-180090000D01*
X220040000Y-179800000D01*
X222760000Y-179800000D01*
X222870000Y-179900000D01*
G37*
X222870000Y-179900000D02*
X223400000Y-179900000D01*
X223400000Y-180700000D01*
X222760000Y-180700000D01*
X222760000Y-181300000D01*
X223400000Y-181300000D01*
X223400000Y-182100000D01*
X222870000Y-182100000D01*
X222760000Y-182200000D01*
X220040000Y-182200000D01*
X219750000Y-181910000D01*
X219750000Y-180090000D01*
X220040000Y-179800000D01*
X222760000Y-179800000D01*
X222870000Y-179900000D01*
%TO.C,D11*%
G36*
X213700000Y-122740000D02*
G01*
X214300000Y-122740000D01*
X214300000Y-122100000D01*
X215100000Y-122100000D01*
X215100000Y-122630000D01*
X215200000Y-122740000D01*
X215200000Y-123460000D01*
X214910000Y-123750000D01*
X213090000Y-123750000D01*
X212800000Y-123460000D01*
X212800000Y-122740000D01*
X212900000Y-122630000D01*
X212900000Y-122100000D01*
X213700000Y-122100000D01*
X213700000Y-122740000D01*
G37*
X213700000Y-122740000D02*
X214300000Y-122740000D01*
X214300000Y-122100000D01*
X215100000Y-122100000D01*
X215100000Y-122630000D01*
X215200000Y-122740000D01*
X215200000Y-123460000D01*
X214910000Y-123750000D01*
X213090000Y-123750000D01*
X212800000Y-123460000D01*
X212800000Y-122740000D01*
X212900000Y-122630000D01*
X212900000Y-122100000D01*
X213700000Y-122100000D01*
X213700000Y-122740000D01*
G36*
X213700000Y-122740000D02*
G01*
X214300000Y-122740000D01*
X214300000Y-122100000D01*
X215100000Y-122100000D01*
X215100000Y-122630000D01*
X215200000Y-122740000D01*
X215200000Y-123460000D01*
X214910000Y-123750000D01*
X213090000Y-123750000D01*
X212800000Y-123460000D01*
X212800000Y-122740000D01*
X212900000Y-122630000D01*
X212900000Y-122100000D01*
X213700000Y-122100000D01*
X213700000Y-122740000D01*
G37*
X213700000Y-122740000D02*
X214300000Y-122740000D01*
X214300000Y-122100000D01*
X215100000Y-122100000D01*
X215100000Y-122630000D01*
X215200000Y-122740000D01*
X215200000Y-123460000D01*
X214910000Y-123750000D01*
X213090000Y-123750000D01*
X212800000Y-123460000D01*
X212800000Y-122740000D01*
X212900000Y-122630000D01*
X212900000Y-122100000D01*
X213700000Y-122100000D01*
X213700000Y-122740000D01*
G36*
X215200000Y-124540000D02*
G01*
X215200000Y-127260000D01*
X215100000Y-127370000D01*
X215100000Y-127900000D01*
X214300000Y-127900000D01*
X214300000Y-127260000D01*
X213700000Y-127260000D01*
X213700000Y-127900000D01*
X212900000Y-127900000D01*
X212900000Y-127370000D01*
X212800000Y-127260000D01*
X212800000Y-124540000D01*
X213090000Y-124250000D01*
X214910000Y-124250000D01*
X215200000Y-124540000D01*
G37*
X215200000Y-124540000D02*
X215200000Y-127260000D01*
X215100000Y-127370000D01*
X215100000Y-127900000D01*
X214300000Y-127900000D01*
X214300000Y-127260000D01*
X213700000Y-127260000D01*
X213700000Y-127900000D01*
X212900000Y-127900000D01*
X212900000Y-127370000D01*
X212800000Y-127260000D01*
X212800000Y-124540000D01*
X213090000Y-124250000D01*
X214910000Y-124250000D01*
X215200000Y-124540000D01*
G36*
X215200000Y-124540000D02*
G01*
X215200000Y-127260000D01*
X215100000Y-127370000D01*
X215100000Y-127900000D01*
X214300000Y-127900000D01*
X214300000Y-127260000D01*
X213700000Y-127260000D01*
X213700000Y-127900000D01*
X212900000Y-127900000D01*
X212900000Y-127370000D01*
X212800000Y-127260000D01*
X212800000Y-124540000D01*
X213090000Y-124250000D01*
X214910000Y-124250000D01*
X215200000Y-124540000D01*
G37*
X215200000Y-124540000D02*
X215200000Y-127260000D01*
X215100000Y-127370000D01*
X215100000Y-127900000D01*
X214300000Y-127900000D01*
X214300000Y-127260000D01*
X213700000Y-127260000D01*
X213700000Y-127900000D01*
X212900000Y-127900000D01*
X212900000Y-127370000D01*
X212800000Y-127260000D01*
X212800000Y-124540000D01*
X213090000Y-124250000D01*
X214910000Y-124250000D01*
X215200000Y-124540000D01*
%TO.C,D10*%
G36*
X215200000Y-141040000D02*
G01*
X215200000Y-143760000D01*
X215100000Y-143870000D01*
X215100000Y-144400000D01*
X214300000Y-144400000D01*
X214300000Y-143760000D01*
X213700000Y-143760000D01*
X213700000Y-144400000D01*
X212900000Y-144400000D01*
X212900000Y-143870000D01*
X212800000Y-143760000D01*
X212800000Y-141040000D01*
X213090000Y-140750000D01*
X214910000Y-140750000D01*
X215200000Y-141040000D01*
G37*
X215200000Y-141040000D02*
X215200000Y-143760000D01*
X215100000Y-143870000D01*
X215100000Y-144400000D01*
X214300000Y-144400000D01*
X214300000Y-143760000D01*
X213700000Y-143760000D01*
X213700000Y-144400000D01*
X212900000Y-144400000D01*
X212900000Y-143870000D01*
X212800000Y-143760000D01*
X212800000Y-141040000D01*
X213090000Y-140750000D01*
X214910000Y-140750000D01*
X215200000Y-141040000D01*
G36*
X213700000Y-139240000D02*
G01*
X214300000Y-139240000D01*
X214300000Y-138600000D01*
X215100000Y-138600000D01*
X215100000Y-139130000D01*
X215200000Y-139240000D01*
X215200000Y-139960000D01*
X214910000Y-140250000D01*
X213090000Y-140250000D01*
X212800000Y-139960000D01*
X212800000Y-139240000D01*
X212900000Y-139130000D01*
X212900000Y-138600000D01*
X213700000Y-138600000D01*
X213700000Y-139240000D01*
G37*
X213700000Y-139240000D02*
X214300000Y-139240000D01*
X214300000Y-138600000D01*
X215100000Y-138600000D01*
X215100000Y-139130000D01*
X215200000Y-139240000D01*
X215200000Y-139960000D01*
X214910000Y-140250000D01*
X213090000Y-140250000D01*
X212800000Y-139960000D01*
X212800000Y-139240000D01*
X212900000Y-139130000D01*
X212900000Y-138600000D01*
X213700000Y-138600000D01*
X213700000Y-139240000D01*
G36*
X215200000Y-141040000D02*
G01*
X215200000Y-143760000D01*
X215100000Y-143870000D01*
X215100000Y-144400000D01*
X214300000Y-144400000D01*
X214300000Y-143760000D01*
X213700000Y-143760000D01*
X213700000Y-144400000D01*
X212900000Y-144400000D01*
X212900000Y-143870000D01*
X212800000Y-143760000D01*
X212800000Y-141040000D01*
X213090000Y-140750000D01*
X214910000Y-140750000D01*
X215200000Y-141040000D01*
G37*
X215200000Y-141040000D02*
X215200000Y-143760000D01*
X215100000Y-143870000D01*
X215100000Y-144400000D01*
X214300000Y-144400000D01*
X214300000Y-143760000D01*
X213700000Y-143760000D01*
X213700000Y-144400000D01*
X212900000Y-144400000D01*
X212900000Y-143870000D01*
X212800000Y-143760000D01*
X212800000Y-141040000D01*
X213090000Y-140750000D01*
X214910000Y-140750000D01*
X215200000Y-141040000D01*
G36*
X213700000Y-139240000D02*
G01*
X214300000Y-139240000D01*
X214300000Y-138600000D01*
X215100000Y-138600000D01*
X215100000Y-139130000D01*
X215200000Y-139240000D01*
X215200000Y-139960000D01*
X214910000Y-140250000D01*
X213090000Y-140250000D01*
X212800000Y-139960000D01*
X212800000Y-139240000D01*
X212900000Y-139130000D01*
X212900000Y-138600000D01*
X213700000Y-138600000D01*
X213700000Y-139240000D01*
G37*
X213700000Y-139240000D02*
X214300000Y-139240000D01*
X214300000Y-138600000D01*
X215100000Y-138600000D01*
X215100000Y-139130000D01*
X215200000Y-139240000D01*
X215200000Y-139960000D01*
X214910000Y-140250000D01*
X213090000Y-140250000D01*
X212800000Y-139960000D01*
X212800000Y-139240000D01*
X212900000Y-139130000D01*
X212900000Y-138600000D01*
X213700000Y-138600000D01*
X213700000Y-139240000D01*
%TO.C,D8*%
G36*
X215200000Y-174040000D02*
G01*
X215200000Y-176760000D01*
X215100000Y-176870000D01*
X215100000Y-177400000D01*
X214300000Y-177400000D01*
X214300000Y-176760000D01*
X213700000Y-176760000D01*
X213700000Y-177400000D01*
X212900000Y-177400000D01*
X212900000Y-176870000D01*
X212800000Y-176760000D01*
X212800000Y-174040000D01*
X213090000Y-173750000D01*
X214910000Y-173750000D01*
X215200000Y-174040000D01*
G37*
X215200000Y-174040000D02*
X215200000Y-176760000D01*
X215100000Y-176870000D01*
X215100000Y-177400000D01*
X214300000Y-177400000D01*
X214300000Y-176760000D01*
X213700000Y-176760000D01*
X213700000Y-177400000D01*
X212900000Y-177400000D01*
X212900000Y-176870000D01*
X212800000Y-176760000D01*
X212800000Y-174040000D01*
X213090000Y-173750000D01*
X214910000Y-173750000D01*
X215200000Y-174040000D01*
G36*
X213700000Y-172240000D02*
G01*
X214300000Y-172240000D01*
X214300000Y-171600000D01*
X215100000Y-171600000D01*
X215100000Y-172130000D01*
X215200000Y-172240000D01*
X215200000Y-172960000D01*
X214910000Y-173250000D01*
X213090000Y-173250000D01*
X212800000Y-172960000D01*
X212800000Y-172240000D01*
X212900000Y-172130000D01*
X212900000Y-171600000D01*
X213700000Y-171600000D01*
X213700000Y-172240000D01*
G37*
X213700000Y-172240000D02*
X214300000Y-172240000D01*
X214300000Y-171600000D01*
X215100000Y-171600000D01*
X215100000Y-172130000D01*
X215200000Y-172240000D01*
X215200000Y-172960000D01*
X214910000Y-173250000D01*
X213090000Y-173250000D01*
X212800000Y-172960000D01*
X212800000Y-172240000D01*
X212900000Y-172130000D01*
X212900000Y-171600000D01*
X213700000Y-171600000D01*
X213700000Y-172240000D01*
G36*
X213700000Y-172240000D02*
G01*
X214300000Y-172240000D01*
X214300000Y-171600000D01*
X215100000Y-171600000D01*
X215100000Y-172130000D01*
X215200000Y-172240000D01*
X215200000Y-172960000D01*
X214910000Y-173250000D01*
X213090000Y-173250000D01*
X212800000Y-172960000D01*
X212800000Y-172240000D01*
X212900000Y-172130000D01*
X212900000Y-171600000D01*
X213700000Y-171600000D01*
X213700000Y-172240000D01*
G37*
X213700000Y-172240000D02*
X214300000Y-172240000D01*
X214300000Y-171600000D01*
X215100000Y-171600000D01*
X215100000Y-172130000D01*
X215200000Y-172240000D01*
X215200000Y-172960000D01*
X214910000Y-173250000D01*
X213090000Y-173250000D01*
X212800000Y-172960000D01*
X212800000Y-172240000D01*
X212900000Y-172130000D01*
X212900000Y-171600000D01*
X213700000Y-171600000D01*
X213700000Y-172240000D01*
G36*
X215200000Y-174040000D02*
G01*
X215200000Y-176760000D01*
X215100000Y-176870000D01*
X215100000Y-177400000D01*
X214300000Y-177400000D01*
X214300000Y-176760000D01*
X213700000Y-176760000D01*
X213700000Y-177400000D01*
X212900000Y-177400000D01*
X212900000Y-176870000D01*
X212800000Y-176760000D01*
X212800000Y-174040000D01*
X213090000Y-173750000D01*
X214910000Y-173750000D01*
X215200000Y-174040000D01*
G37*
X215200000Y-174040000D02*
X215200000Y-176760000D01*
X215100000Y-176870000D01*
X215100000Y-177400000D01*
X214300000Y-177400000D01*
X214300000Y-176760000D01*
X213700000Y-176760000D01*
X213700000Y-177400000D01*
X212900000Y-177400000D01*
X212900000Y-176870000D01*
X212800000Y-176760000D01*
X212800000Y-174040000D01*
X213090000Y-173750000D01*
X214910000Y-173750000D01*
X215200000Y-174040000D01*
%TO.C,D2*%
G36*
X288870000Y-179900000D02*
G01*
X289400000Y-179900000D01*
X289400000Y-180700000D01*
X288760000Y-180700000D01*
X288760000Y-181300000D01*
X289400000Y-181300000D01*
X289400000Y-182100000D01*
X288870000Y-182100000D01*
X288760000Y-182200000D01*
X286040000Y-182200000D01*
X285750000Y-181910000D01*
X285750000Y-180090000D01*
X286040000Y-179800000D01*
X288760000Y-179800000D01*
X288870000Y-179900000D01*
G37*
X288870000Y-179900000D02*
X289400000Y-179900000D01*
X289400000Y-180700000D01*
X288760000Y-180700000D01*
X288760000Y-181300000D01*
X289400000Y-181300000D01*
X289400000Y-182100000D01*
X288870000Y-182100000D01*
X288760000Y-182200000D01*
X286040000Y-182200000D01*
X285750000Y-181910000D01*
X285750000Y-180090000D01*
X286040000Y-179800000D01*
X288760000Y-179800000D01*
X288870000Y-179900000D01*
G36*
X288870000Y-179900000D02*
G01*
X289400000Y-179900000D01*
X289400000Y-180700000D01*
X288760000Y-180700000D01*
X288760000Y-181300000D01*
X289400000Y-181300000D01*
X289400000Y-182100000D01*
X288870000Y-182100000D01*
X288760000Y-182200000D01*
X286040000Y-182200000D01*
X285750000Y-181910000D01*
X285750000Y-180090000D01*
X286040000Y-179800000D01*
X288760000Y-179800000D01*
X288870000Y-179900000D01*
G37*
X288870000Y-179900000D02*
X289400000Y-179900000D01*
X289400000Y-180700000D01*
X288760000Y-180700000D01*
X288760000Y-181300000D01*
X289400000Y-181300000D01*
X289400000Y-182100000D01*
X288870000Y-182100000D01*
X288760000Y-182200000D01*
X286040000Y-182200000D01*
X285750000Y-181910000D01*
X285750000Y-180090000D01*
X286040000Y-179800000D01*
X288760000Y-179800000D01*
X288870000Y-179900000D01*
G36*
X285250000Y-180090000D02*
G01*
X285250000Y-181910000D01*
X284960000Y-182200000D01*
X284240000Y-182200000D01*
X284130000Y-182100000D01*
X283600000Y-182100000D01*
X283600000Y-181300000D01*
X284240000Y-181300000D01*
X284240000Y-180700000D01*
X283600000Y-180700000D01*
X283600000Y-179900000D01*
X284130000Y-179900000D01*
X284240000Y-179800000D01*
X284960000Y-179800000D01*
X285250000Y-180090000D01*
G37*
X285250000Y-180090000D02*
X285250000Y-181910000D01*
X284960000Y-182200000D01*
X284240000Y-182200000D01*
X284130000Y-182100000D01*
X283600000Y-182100000D01*
X283600000Y-181300000D01*
X284240000Y-181300000D01*
X284240000Y-180700000D01*
X283600000Y-180700000D01*
X283600000Y-179900000D01*
X284130000Y-179900000D01*
X284240000Y-179800000D01*
X284960000Y-179800000D01*
X285250000Y-180090000D01*
G36*
X285250000Y-180090000D02*
G01*
X285250000Y-181910000D01*
X284960000Y-182200000D01*
X284240000Y-182200000D01*
X284130000Y-182100000D01*
X283600000Y-182100000D01*
X283600000Y-181300000D01*
X284240000Y-181300000D01*
X284240000Y-180700000D01*
X283600000Y-180700000D01*
X283600000Y-179900000D01*
X284130000Y-179900000D01*
X284240000Y-179800000D01*
X284960000Y-179800000D01*
X285250000Y-180090000D01*
G37*
X285250000Y-180090000D02*
X285250000Y-181910000D01*
X284960000Y-182200000D01*
X284240000Y-182200000D01*
X284130000Y-182100000D01*
X283600000Y-182100000D01*
X283600000Y-181300000D01*
X284240000Y-181300000D01*
X284240000Y-180700000D01*
X283600000Y-180700000D01*
X283600000Y-179900000D01*
X284130000Y-179900000D01*
X284240000Y-179800000D01*
X284960000Y-179800000D01*
X285250000Y-180090000D01*
%TO.C,D23*%
G36*
X292700000Y-155740000D02*
G01*
X293300000Y-155740000D01*
X293300000Y-155100000D01*
X294100000Y-155100000D01*
X294100000Y-155630000D01*
X294200000Y-155740000D01*
X294200000Y-158460000D01*
X293910000Y-158750000D01*
X292090000Y-158750000D01*
X291800000Y-158460000D01*
X291800000Y-155740000D01*
X291900000Y-155630000D01*
X291900000Y-155100000D01*
X292700000Y-155100000D01*
X292700000Y-155740000D01*
G37*
X292700000Y-155740000D02*
X293300000Y-155740000D01*
X293300000Y-155100000D01*
X294100000Y-155100000D01*
X294100000Y-155630000D01*
X294200000Y-155740000D01*
X294200000Y-158460000D01*
X293910000Y-158750000D01*
X292090000Y-158750000D01*
X291800000Y-158460000D01*
X291800000Y-155740000D01*
X291900000Y-155630000D01*
X291900000Y-155100000D01*
X292700000Y-155100000D01*
X292700000Y-155740000D01*
G36*
X294200000Y-159540000D02*
G01*
X294200000Y-160260000D01*
X294100000Y-160370000D01*
X294100000Y-160900000D01*
X293300000Y-160900000D01*
X293300000Y-160260000D01*
X292700000Y-160260000D01*
X292700000Y-160900000D01*
X291900000Y-160900000D01*
X291900000Y-160370000D01*
X291800000Y-160260000D01*
X291800000Y-159540000D01*
X292090000Y-159250000D01*
X293910000Y-159250000D01*
X294200000Y-159540000D01*
G37*
X294200000Y-159540000D02*
X294200000Y-160260000D01*
X294100000Y-160370000D01*
X294100000Y-160900000D01*
X293300000Y-160900000D01*
X293300000Y-160260000D01*
X292700000Y-160260000D01*
X292700000Y-160900000D01*
X291900000Y-160900000D01*
X291900000Y-160370000D01*
X291800000Y-160260000D01*
X291800000Y-159540000D01*
X292090000Y-159250000D01*
X293910000Y-159250000D01*
X294200000Y-159540000D01*
G36*
X294200000Y-159540000D02*
G01*
X294200000Y-160260000D01*
X294100000Y-160370000D01*
X294100000Y-160900000D01*
X293300000Y-160900000D01*
X293300000Y-160260000D01*
X292700000Y-160260000D01*
X292700000Y-160900000D01*
X291900000Y-160900000D01*
X291900000Y-160370000D01*
X291800000Y-160260000D01*
X291800000Y-159540000D01*
X292090000Y-159250000D01*
X293910000Y-159250000D01*
X294200000Y-159540000D01*
G37*
X294200000Y-159540000D02*
X294200000Y-160260000D01*
X294100000Y-160370000D01*
X294100000Y-160900000D01*
X293300000Y-160900000D01*
X293300000Y-160260000D01*
X292700000Y-160260000D01*
X292700000Y-160900000D01*
X291900000Y-160900000D01*
X291900000Y-160370000D01*
X291800000Y-160260000D01*
X291800000Y-159540000D01*
X292090000Y-159250000D01*
X293910000Y-159250000D01*
X294200000Y-159540000D01*
G36*
X292700000Y-155740000D02*
G01*
X293300000Y-155740000D01*
X293300000Y-155100000D01*
X294100000Y-155100000D01*
X294100000Y-155630000D01*
X294200000Y-155740000D01*
X294200000Y-158460000D01*
X293910000Y-158750000D01*
X292090000Y-158750000D01*
X291800000Y-158460000D01*
X291800000Y-155740000D01*
X291900000Y-155630000D01*
X291900000Y-155100000D01*
X292700000Y-155100000D01*
X292700000Y-155740000D01*
G37*
X292700000Y-155740000D02*
X293300000Y-155740000D01*
X293300000Y-155100000D01*
X294100000Y-155100000D01*
X294100000Y-155630000D01*
X294200000Y-155740000D01*
X294200000Y-158460000D01*
X293910000Y-158750000D01*
X292090000Y-158750000D01*
X291800000Y-158460000D01*
X291800000Y-155740000D01*
X291900000Y-155630000D01*
X291900000Y-155100000D01*
X292700000Y-155100000D01*
X292700000Y-155740000D01*
%TD*%
D11*
%TO.C,R2*%
X264500000Y-161500000D03*
X262500000Y-161500000D03*
%TD*%
D12*
%TO.C,A19*%
X297469670Y-96469670D03*
X298530330Y-97530330D03*
%TD*%
D13*
%TO.C,R19*%
X228500000Y-147500000D03*
X228500000Y-145500000D03*
%TD*%
D14*
%TO.C,R28*%
X242500000Y-117000000D03*
X244500000Y-117000000D03*
%TD*%
D15*
%TO.C,A18*%
X285750000Y-97000000D03*
X287250000Y-97000000D03*
%TD*%
D16*
%TO.C,C1*%
X262500000Y-142537500D03*
X262500000Y-140462500D03*
%TD*%
D15*
%TO.C,A12*%
X209000000Y-109250000D03*
X209000000Y-107750000D03*
%TD*%
D11*
%TO.C,R7*%
X259500000Y-166000000D03*
X257500000Y-166000000D03*
%TD*%
%TO.C,R9*%
X249500000Y-161500000D03*
X247500000Y-161500000D03*
%TD*%
D14*
%TO.C,R27*%
X237500000Y-117000000D03*
X239500000Y-117000000D03*
%TD*%
%TO.C,R25*%
X237500000Y-121500000D03*
X239500000Y-121500000D03*
%TD*%
D15*
%TO.C,A5*%
X237750000Y-186000000D03*
X236250000Y-186000000D03*
%TD*%
%TO.C,A6*%
X221250000Y-186000000D03*
X219750000Y-186000000D03*
%TD*%
D11*
%TO.C,R5*%
X259500000Y-161500000D03*
X257500000Y-161500000D03*
%TD*%
%TO.C,R12*%
X244500000Y-166000000D03*
X242500000Y-166000000D03*
%TD*%
D17*
%TO.C,R46*%
X273500000Y-150500000D03*
X273500000Y-152500000D03*
%TD*%
%TO.C,R40*%
X278000000Y-130500000D03*
X278000000Y-132500000D03*
%TD*%
D13*
%TO.C,R20*%
X228500000Y-142500000D03*
X228500000Y-140500000D03*
%TD*%
D11*
%TO.C,R11*%
X249500000Y-166000000D03*
X247500000Y-166000000D03*
%TD*%
%TO.C,R4*%
X264500000Y-166000000D03*
X262500000Y-166000000D03*
%TD*%
D15*
%TO.C,A16*%
X252750000Y-97000000D03*
X254250000Y-97000000D03*
%TD*%
D11*
%TO.C,R8*%
X254500000Y-166000000D03*
X252500000Y-166000000D03*
%TD*%
D18*
%TO.C,A1*%
X298530330Y-185469670D03*
X297469670Y-186530330D03*
%TD*%
D11*
%TO.C,R10*%
X244500000Y-161500000D03*
X242500000Y-161500000D03*
%TD*%
D19*
%TO.C,U1*%
X249381000Y-138700000D03*
X249381000Y-139500000D03*
X249381000Y-140300000D03*
X249381000Y-141100000D03*
X249381000Y-141900000D03*
X249381000Y-142700000D03*
X249381000Y-143500000D03*
X249381000Y-144300000D03*
D20*
X250700000Y-145619000D03*
X251500000Y-145619000D03*
X252300000Y-145619000D03*
X253100000Y-145619000D03*
X253900000Y-145619000D03*
X254700000Y-145619000D03*
X255500000Y-145619000D03*
X256300000Y-145619000D03*
D19*
X257619000Y-144300000D03*
X257619000Y-143500000D03*
X257619000Y-142700000D03*
X257619000Y-141900000D03*
X257619000Y-141100000D03*
X257619000Y-140300000D03*
X257619000Y-139500000D03*
X257619000Y-138700000D03*
D20*
X256300000Y-137381000D03*
X255500000Y-137381000D03*
X254700000Y-137381000D03*
X253900000Y-137381000D03*
X253100000Y-137381000D03*
X252300000Y-137381000D03*
X251500000Y-137381000D03*
X250700000Y-137381000D03*
%TD*%
D13*
%TO.C,R15*%
X228500000Y-157500000D03*
X228500000Y-155500000D03*
%TD*%
D11*
%TO.C,R6*%
X254500000Y-161500000D03*
X252500000Y-161500000D03*
%TD*%
D17*
%TO.C,R48*%
X278000000Y-150500000D03*
X278000000Y-152500000D03*
%TD*%
D13*
%TO.C,R17*%
X233500000Y-147500000D03*
X233500000Y-145500000D03*
%TD*%
D14*
%TO.C,R34*%
X262500000Y-121500000D03*
X264500000Y-121500000D03*
%TD*%
D17*
%TO.C,R47*%
X278000000Y-145500000D03*
X278000000Y-147500000D03*
%TD*%
%TO.C,R42*%
X273500000Y-140500000D03*
X273500000Y-142500000D03*
%TD*%
D13*
%TO.C,R22*%
X233500000Y-132500000D03*
X233500000Y-130500000D03*
%TD*%
D15*
%TO.C,A14*%
X219750000Y-97000000D03*
X221250000Y-97000000D03*
%TD*%
%TO.C,A3*%
X270750000Y-186000000D03*
X269250000Y-186000000D03*
%TD*%
D13*
%TO.C,R21*%
X233500000Y-137500000D03*
X233500000Y-135500000D03*
%TD*%
%TO.C,R24*%
X228500000Y-132500000D03*
X228500000Y-130500000D03*
%TD*%
D15*
%TO.C,A11*%
X209000000Y-125750000D03*
X209000000Y-124250000D03*
%TD*%
D21*
%TO.C,C2*%
X244250000Y-140462500D03*
X244250000Y-142537500D03*
%TD*%
D22*
%TO.C,R49*%
X260000000Y-132912500D03*
X260000000Y-131087500D03*
%TD*%
D13*
%TO.C,R14*%
X233500000Y-152500000D03*
X233500000Y-150500000D03*
%TD*%
D15*
%TO.C,A10*%
X209000000Y-142250000D03*
X209000000Y-140750000D03*
%TD*%
D13*
%TO.C,R23*%
X228500000Y-137500000D03*
X228500000Y-135500000D03*
%TD*%
D17*
%TO.C,R45*%
X273500000Y-145500000D03*
X273500000Y-147500000D03*
%TD*%
%TO.C,R41*%
X273500000Y-135500000D03*
X273500000Y-137500000D03*
%TD*%
D14*
%TO.C,R32*%
X252500000Y-117000000D03*
X254500000Y-117000000D03*
%TD*%
%TO.C,R29*%
X247500000Y-121500000D03*
X249500000Y-121500000D03*
%TD*%
D11*
%TO.C,R3*%
X269500000Y-166000000D03*
X267500000Y-166000000D03*
%TD*%
D15*
%TO.C,A23*%
X298000000Y-157250000D03*
X298000000Y-158750000D03*
%TD*%
D17*
%TO.C,R39*%
X278000000Y-125500000D03*
X278000000Y-127500000D03*
%TD*%
D14*
%TO.C,R33*%
X257500000Y-121500000D03*
X259500000Y-121500000D03*
%TD*%
%TO.C,R35*%
X257500000Y-117000000D03*
X259500000Y-117000000D03*
%TD*%
D13*
%TO.C,R18*%
X233500000Y-142500000D03*
X233500000Y-140500000D03*
%TD*%
D17*
%TO.C,R38*%
X273500000Y-130500000D03*
X273500000Y-132500000D03*
%TD*%
D15*
%TO.C,A9*%
X209000000Y-158750000D03*
X209000000Y-157250000D03*
%TD*%
D14*
%TO.C,R36*%
X262500000Y-117000000D03*
X264500000Y-117000000D03*
%TD*%
D15*
%TO.C,A15*%
X236250000Y-97000000D03*
X237750000Y-97000000D03*
%TD*%
D17*
%TO.C,R44*%
X278000000Y-140500000D03*
X278000000Y-142500000D03*
%TD*%
D23*
%TO.C,A13*%
X208469670Y-97530330D03*
X209530330Y-96469670D03*
%TD*%
D15*
%TO.C,A24*%
X298000000Y-173750000D03*
X298000000Y-175250000D03*
%TD*%
D13*
%TO.C,R13*%
X233500000Y-157500000D03*
X233500000Y-155500000D03*
%TD*%
D15*
%TO.C,A21*%
X298000000Y-124250000D03*
X298000000Y-125750000D03*
%TD*%
%TO.C,A4*%
X254250000Y-186000000D03*
X252750000Y-186000000D03*
%TD*%
D17*
%TO.C,R37*%
X273500000Y-125500000D03*
X273500000Y-127500000D03*
%TD*%
D14*
%TO.C,R26*%
X242500000Y-121500000D03*
X244500000Y-121500000D03*
%TD*%
D17*
%TO.C,R43*%
X278000000Y-135500000D03*
X278000000Y-137500000D03*
%TD*%
D14*
%TO.C,R31*%
X247500000Y-117000000D03*
X249500000Y-117000000D03*
%TD*%
D15*
%TO.C,A8*%
X209000000Y-175250000D03*
X209000000Y-173750000D03*
%TD*%
%TO.C,A20*%
X298000000Y-107750000D03*
X298000000Y-109250000D03*
%TD*%
D24*
%TO.C,A7*%
X209530330Y-186530330D03*
X208469670Y-185469670D03*
%TD*%
D14*
%TO.C,R30*%
X252500000Y-121500000D03*
X254500000Y-121500000D03*
%TD*%
D11*
%TO.C,R1*%
X269500000Y-161500000D03*
X267500000Y-161500000D03*
%TD*%
D13*
%TO.C,R16*%
X228500000Y-152500000D03*
X228500000Y-150500000D03*
%TD*%
D15*
%TO.C,A2*%
X287250000Y-186000000D03*
X285750000Y-186000000D03*
%TD*%
%TO.C,A22*%
X298000000Y-140750000D03*
X298000000Y-142250000D03*
%TD*%
%TO.C,A17*%
X269250000Y-97000000D03*
X270750000Y-97000000D03*
%TD*%
M02*
