M48
; DRILL file {KiCad 8.0.4} date 2024-09-15T13:23:29+1000
; FORMAT={-:-/ absolute / inch / decimal}
; #@! TF.CreationDate,2024-09-15T13:23:29+10:00
; #@! TF.GenerationSoftware,Kicad,Pcbnew,8.0.4
; #@! TF.FileFunction,Plated,1,2,PTH
FMAT,2
INCH
; #@! TA.AperFunction,Plated,PTH,ViaDrill
T1C0.0118
; #@! TA.AperFunction,Plated,PTH,ComponentDrill
T2C0.0315
; #@! TA.AperFunction,Plated,PTH,ComponentDrill
T3C0.0354
; #@! TA.AperFunction,Plated,PTH,ComponentDrill
T4C0.0374
; #@! TA.AperFunction,Plated,PTH,ComponentDrill
T5C0.0394
; #@! TA.AperFunction,Plated,PTH,ComponentDrill
T6C0.0402
; #@! TA.AperFunction,Plated,PTH,ComponentDrill
T7C0.1063
%
G90
G05
T1
X4.3445Y-3.376
X4.3898Y-3.3366
X5.7677Y-2.4016
X5.7677Y-2.4409
X5.7677Y-2.4803
X5.8071Y-2.4016
X5.8071Y-2.4409
X5.8465Y-2.4016
X5.8465Y-2.4409
X5.8858Y-2.4016
X5.8858Y-2.4409
X5.9252Y-2.4016
X5.9252Y-2.4409
X5.9646Y-2.4016
X5.9646Y-2.4409
T2
X6.5032Y-1.9488
X6.5086Y-3.2874
X6.5551Y-2.2311
X6.5551Y-2.6311
X6.6017Y-1.9488
X6.607Y-3.2874
T3
X6.5551Y-2.8144
X6.5551Y-2.9144
T4
X4.8228Y-3.248
X4.9409Y-3.248
X5.0591Y-3.248
X5.1772Y-3.248
X6.2992Y-3.1791
X6.2992Y-3.2776
X6.2992Y-3.376
X6.2992Y-3.4744
X6.3002Y-1.7618
X6.3002Y-1.8602
X6.3002Y-1.9587
X6.3002Y-2.0571
T5
X3.8146Y-3.936
X3.9146Y-3.936
X4.0146Y-3.936
X4.1146Y-3.936
X4.2146Y-3.936
X4.75Y-2.9181
X4.85Y-2.3181
X4.85Y-2.9181
X4.95Y-2.3181
X4.95Y-2.9181
X5.05Y-2.3181
X5.05Y-2.9181
X5.15Y-2.3181
X5.15Y-2.9181
X5.25Y-2.9181
X5.7866Y-3.9341
X5.8866Y-3.9341
X5.9866Y-3.9341
X6.0866Y-3.9341
X6.1866Y-3.9341
T6
X3.4263Y-1.5937
X3.4263Y-1.6937
X3.4263Y-1.7937
X3.4263Y-1.8937
X3.4263Y-1.9937
X3.4263Y-2.0937
X3.4263Y-2.1937
X3.4263Y-2.2937
X3.4263Y-2.3937
X3.4263Y-2.4937
X3.4263Y-2.5937
X3.4263Y-2.6937
X3.4263Y-2.7937
X3.4263Y-2.8937
X3.4263Y-2.9937
X3.4263Y-3.0937
X3.4263Y-3.1937
X3.4263Y-3.2937
X3.4263Y-3.3937
X4.4263Y-1.5937
X4.4263Y-1.6937
X4.4263Y-1.7937
X4.4263Y-1.8937
X4.4263Y-1.9937
X4.4263Y-2.0937
X4.4263Y-2.1937
X4.4263Y-2.2937
X4.4263Y-2.3937
X4.4263Y-2.4937
X4.4263Y-2.5937
X4.4263Y-2.6937
X4.4263Y-2.7937
X4.4263Y-2.8937
X4.4263Y-2.9937
X4.4263Y-3.0937
X4.4263Y-3.1937
X4.4263Y-3.2937
X4.4263Y-3.3937
X5.5768Y-1.5594
X5.5768Y-1.6594
X5.5768Y-1.7594
X5.5768Y-1.8594
X5.5768Y-1.9594
X5.5768Y-2.0594
X5.5768Y-2.1594
X5.5768Y-2.2594
X5.5768Y-2.8783
X5.5768Y-2.9783
X5.5768Y-3.0783
X5.5768Y-3.1783
X5.5768Y-3.2783
X5.5768Y-3.3783
X5.5768Y-3.4783
X5.5768Y-3.5783
X6.0768Y-1.5594
X6.0768Y-1.6594
X6.0768Y-1.7594
X6.0768Y-1.8594
X6.0768Y-1.9594
X6.0768Y-2.0594
X6.0768Y-2.1594
X6.0768Y-2.2594
X6.0768Y-2.8783
X6.0768Y-2.9783
X6.0768Y-3.0783
X6.0768Y-3.1783
X6.0768Y-3.2783
X6.0768Y-3.3783
X6.0768Y-3.4783
X6.0768Y-3.5783
T7
X6.2598Y-2.5
X6.2598Y-2.6969
M30
