%TF.GenerationSoftware,KiCad,Pcbnew,(6.0.9)*%
%TF.CreationDate,2022-12-04T20:19:28+11:00*%
%TF.ProjectId,Coilgun 1.3,436f696c-6775-46e2-9031-2e332e6b6963,1.3*%
%TF.SameCoordinates,Original*%
%TF.FileFunction,Legend,Top*%
%TF.FilePolarity,Positive*%
%FSLAX46Y46*%
G04 Gerber Fmt 4.6, Leading zero omitted, Abs format (unit mm)*
G04 Created by KiCad (PCBNEW (6.0.9)) date 2022-12-04 20:19:28*
%MOMM*%
%LPD*%
G01*
G04 APERTURE LIST*
%ADD10C,0.150000*%
%ADD11C,0.120000*%
G04 APERTURE END LIST*
D10*
X185277619Y-101447142D02*
X185230000Y-101494761D01*
X185087142Y-101542380D01*
X184991904Y-101542380D01*
X184849047Y-101494761D01*
X184753809Y-101399523D01*
X184706190Y-101304285D01*
X184658571Y-101113809D01*
X184658571Y-100970952D01*
X184706190Y-100780476D01*
X184753809Y-100685238D01*
X184849047Y-100590000D01*
X184991904Y-100542380D01*
X185087142Y-100542380D01*
X185230000Y-100590000D01*
X185277619Y-100637619D01*
X185849047Y-101542380D02*
X185753809Y-101494761D01*
X185706190Y-101447142D01*
X185658571Y-101351904D01*
X185658571Y-101066190D01*
X185706190Y-100970952D01*
X185753809Y-100923333D01*
X185849047Y-100875714D01*
X185991904Y-100875714D01*
X186087142Y-100923333D01*
X186134761Y-100970952D01*
X186182380Y-101066190D01*
X186182380Y-101351904D01*
X186134761Y-101447142D01*
X186087142Y-101494761D01*
X185991904Y-101542380D01*
X185849047Y-101542380D01*
X186610952Y-101542380D02*
X186610952Y-100875714D01*
X186610952Y-100542380D02*
X186563333Y-100590000D01*
X186610952Y-100637619D01*
X186658571Y-100590000D01*
X186610952Y-100542380D01*
X186610952Y-100637619D01*
X187230000Y-101542380D02*
X187134761Y-101494761D01*
X187087142Y-101399523D01*
X187087142Y-100542380D01*
X188039523Y-100875714D02*
X188039523Y-101685238D01*
X187991904Y-101780476D01*
X187944285Y-101828095D01*
X187849047Y-101875714D01*
X187706190Y-101875714D01*
X187610952Y-101828095D01*
X188039523Y-101494761D02*
X187944285Y-101542380D01*
X187753809Y-101542380D01*
X187658571Y-101494761D01*
X187610952Y-101447142D01*
X187563333Y-101351904D01*
X187563333Y-101066190D01*
X187610952Y-100970952D01*
X187658571Y-100923333D01*
X187753809Y-100875714D01*
X187944285Y-100875714D01*
X188039523Y-100923333D01*
X188944285Y-100875714D02*
X188944285Y-101542380D01*
X188515714Y-100875714D02*
X188515714Y-101399523D01*
X188563333Y-101494761D01*
X188658571Y-101542380D01*
X188801428Y-101542380D01*
X188896666Y-101494761D01*
X188944285Y-101447142D01*
X189420476Y-100875714D02*
X189420476Y-101542380D01*
X189420476Y-100970952D02*
X189468095Y-100923333D01*
X189563333Y-100875714D01*
X189706190Y-100875714D01*
X189801428Y-100923333D01*
X189849047Y-101018571D01*
X189849047Y-101542380D01*
X190991904Y-100875714D02*
X191230000Y-101542380D01*
X191468095Y-100875714D01*
X192372857Y-101542380D02*
X191801428Y-101542380D01*
X192087142Y-101542380D02*
X192087142Y-100542380D01*
X191991904Y-100685238D01*
X191896666Y-100780476D01*
X191801428Y-100828095D01*
X192801428Y-101447142D02*
X192849047Y-101494761D01*
X192801428Y-101542380D01*
X192753809Y-101494761D01*
X192801428Y-101447142D01*
X192801428Y-101542380D01*
X193182380Y-100542380D02*
X193801428Y-100542380D01*
X193468095Y-100923333D01*
X193610952Y-100923333D01*
X193706190Y-100970952D01*
X193753809Y-101018571D01*
X193801428Y-101113809D01*
X193801428Y-101351904D01*
X193753809Y-101447142D01*
X193706190Y-101494761D01*
X193610952Y-101542380D01*
X193325238Y-101542380D01*
X193230000Y-101494761D01*
X193182380Y-101447142D01*
X184658571Y-103152380D02*
X184658571Y-102152380D01*
X184896666Y-102152380D01*
X185039523Y-102200000D01*
X185134761Y-102295238D01*
X185182380Y-102390476D01*
X185230000Y-102580952D01*
X185230000Y-102723809D01*
X185182380Y-102914285D01*
X185134761Y-103009523D01*
X185039523Y-103104761D01*
X184896666Y-103152380D01*
X184658571Y-103152380D01*
X186039523Y-103104761D02*
X185944285Y-103152380D01*
X185753809Y-103152380D01*
X185658571Y-103104761D01*
X185610952Y-103009523D01*
X185610952Y-102628571D01*
X185658571Y-102533333D01*
X185753809Y-102485714D01*
X185944285Y-102485714D01*
X186039523Y-102533333D01*
X186087142Y-102628571D01*
X186087142Y-102723809D01*
X185610952Y-102819047D01*
X186468095Y-103104761D02*
X186563333Y-103152380D01*
X186753809Y-103152380D01*
X186849047Y-103104761D01*
X186896666Y-103009523D01*
X186896666Y-102961904D01*
X186849047Y-102866666D01*
X186753809Y-102819047D01*
X186610952Y-102819047D01*
X186515714Y-102771428D01*
X186468095Y-102676190D01*
X186468095Y-102628571D01*
X186515714Y-102533333D01*
X186610952Y-102485714D01*
X186753809Y-102485714D01*
X186849047Y-102533333D01*
X187753809Y-102485714D02*
X187753809Y-103295238D01*
X187706190Y-103390476D01*
X187658571Y-103438095D01*
X187563333Y-103485714D01*
X187420476Y-103485714D01*
X187325238Y-103438095D01*
X187753809Y-103104761D02*
X187658571Y-103152380D01*
X187468095Y-103152380D01*
X187372857Y-103104761D01*
X187325238Y-103057142D01*
X187277619Y-102961904D01*
X187277619Y-102676190D01*
X187325238Y-102580952D01*
X187372857Y-102533333D01*
X187468095Y-102485714D01*
X187658571Y-102485714D01*
X187753809Y-102533333D01*
X188230000Y-103152380D02*
X188230000Y-102485714D01*
X188230000Y-102152380D02*
X188182380Y-102200000D01*
X188230000Y-102247619D01*
X188277619Y-102200000D01*
X188230000Y-102152380D01*
X188230000Y-102247619D01*
X188706190Y-102485714D02*
X188706190Y-103152380D01*
X188706190Y-102580952D02*
X188753809Y-102533333D01*
X188849047Y-102485714D01*
X188991904Y-102485714D01*
X189087142Y-102533333D01*
X189134761Y-102628571D01*
X189134761Y-103152380D01*
X189991904Y-103104761D02*
X189896666Y-103152380D01*
X189706190Y-103152380D01*
X189610952Y-103104761D01*
X189563333Y-103009523D01*
X189563333Y-102628571D01*
X189610952Y-102533333D01*
X189706190Y-102485714D01*
X189896666Y-102485714D01*
X189991904Y-102533333D01*
X190039523Y-102628571D01*
X190039523Y-102723809D01*
X189563333Y-102819047D01*
X190896666Y-103152380D02*
X190896666Y-102152380D01*
X190896666Y-103104761D02*
X190801428Y-103152380D01*
X190610952Y-103152380D01*
X190515714Y-103104761D01*
X190468095Y-103057142D01*
X190420476Y-102961904D01*
X190420476Y-102676190D01*
X190468095Y-102580952D01*
X190515714Y-102533333D01*
X190610952Y-102485714D01*
X190801428Y-102485714D01*
X190896666Y-102533333D01*
X192134761Y-103152380D02*
X192134761Y-102152380D01*
X192134761Y-102533333D02*
X192230000Y-102485714D01*
X192420476Y-102485714D01*
X192515714Y-102533333D01*
X192563333Y-102580952D01*
X192610952Y-102676190D01*
X192610952Y-102961904D01*
X192563333Y-103057142D01*
X192515714Y-103104761D01*
X192420476Y-103152380D01*
X192230000Y-103152380D01*
X192134761Y-103104761D01*
X192944285Y-102485714D02*
X193182380Y-103152380D01*
X193420476Y-102485714D02*
X193182380Y-103152380D01*
X193087142Y-103390476D01*
X193039523Y-103438095D01*
X192944285Y-103485714D01*
X193801428Y-103057142D02*
X193849047Y-103104761D01*
X193801428Y-103152380D01*
X193753809Y-103104761D01*
X193801428Y-103057142D01*
X193801428Y-103152380D01*
X193801428Y-102533333D02*
X193849047Y-102580952D01*
X193801428Y-102628571D01*
X193753809Y-102580952D01*
X193801428Y-102533333D01*
X193801428Y-102628571D01*
X185349047Y-104762380D02*
X185349047Y-103762380D01*
X185349047Y-104238571D02*
X185920476Y-104238571D01*
X185920476Y-104762380D02*
X185920476Y-103762380D01*
X186825238Y-104095714D02*
X186825238Y-104762380D01*
X186396666Y-104095714D02*
X186396666Y-104619523D01*
X186444285Y-104714761D01*
X186539523Y-104762380D01*
X186682380Y-104762380D01*
X186777619Y-104714761D01*
X186825238Y-104667142D01*
X187730000Y-104095714D02*
X187730000Y-104905238D01*
X187682380Y-105000476D01*
X187634761Y-105048095D01*
X187539523Y-105095714D01*
X187396666Y-105095714D01*
X187301428Y-105048095D01*
X187730000Y-104714761D02*
X187634761Y-104762380D01*
X187444285Y-104762380D01*
X187349047Y-104714761D01*
X187301428Y-104667142D01*
X187253809Y-104571904D01*
X187253809Y-104286190D01*
X187301428Y-104190952D01*
X187349047Y-104143333D01*
X187444285Y-104095714D01*
X187634761Y-104095714D01*
X187730000Y-104143333D01*
X188206190Y-104762380D02*
X188206190Y-103762380D01*
X188634761Y-104762380D02*
X188634761Y-104238571D01*
X188587142Y-104143333D01*
X188491904Y-104095714D01*
X188349047Y-104095714D01*
X188253809Y-104143333D01*
X188206190Y-104190952D01*
X189872857Y-104762380D02*
X189872857Y-103762380D01*
X190253809Y-103762380D01*
X190349047Y-103810000D01*
X190396666Y-103857619D01*
X190444285Y-103952857D01*
X190444285Y-104095714D01*
X190396666Y-104190952D01*
X190349047Y-104238571D01*
X190253809Y-104286190D01*
X189872857Y-104286190D01*
X190872857Y-104762380D02*
X190872857Y-103762380D01*
X191301428Y-104762380D02*
X191301428Y-104238571D01*
X191253809Y-104143333D01*
X191158571Y-104095714D01*
X191015714Y-104095714D01*
X190920476Y-104143333D01*
X190872857Y-104190952D01*
X192206190Y-104762380D02*
X192206190Y-104238571D01*
X192158571Y-104143333D01*
X192063333Y-104095714D01*
X191872857Y-104095714D01*
X191777619Y-104143333D01*
X192206190Y-104714761D02*
X192110952Y-104762380D01*
X191872857Y-104762380D01*
X191777619Y-104714761D01*
X191730000Y-104619523D01*
X191730000Y-104524285D01*
X191777619Y-104429047D01*
X191872857Y-104381428D01*
X192110952Y-104381428D01*
X192206190Y-104333809D01*
X192682380Y-104095714D02*
X192682380Y-104762380D01*
X192682380Y-104190952D02*
X192730000Y-104143333D01*
X192825238Y-104095714D01*
X192968095Y-104095714D01*
X193063333Y-104143333D01*
X193110952Y-104238571D01*
X193110952Y-104762380D01*
X187039523Y-105705714D02*
X187039523Y-106372380D01*
X186801428Y-105324761D02*
X186563333Y-106039047D01*
X187182380Y-106039047D01*
X187563333Y-106277142D02*
X187610952Y-106324761D01*
X187563333Y-106372380D01*
X187515714Y-106324761D01*
X187563333Y-106277142D01*
X187563333Y-106372380D01*
X188563333Y-106372380D02*
X187991904Y-106372380D01*
X188277619Y-106372380D02*
X188277619Y-105372380D01*
X188182380Y-105515238D01*
X188087142Y-105610476D01*
X187991904Y-105658095D01*
X188944285Y-105467619D02*
X188991904Y-105420000D01*
X189087142Y-105372380D01*
X189325238Y-105372380D01*
X189420476Y-105420000D01*
X189468095Y-105467619D01*
X189515714Y-105562857D01*
X189515714Y-105658095D01*
X189468095Y-105800952D01*
X188896666Y-106372380D01*
X189515714Y-106372380D01*
X189944285Y-106277142D02*
X189991904Y-106324761D01*
X189944285Y-106372380D01*
X189896666Y-106324761D01*
X189944285Y-106277142D01*
X189944285Y-106372380D01*
X190372857Y-105467619D02*
X190420476Y-105420000D01*
X190515714Y-105372380D01*
X190753809Y-105372380D01*
X190849047Y-105420000D01*
X190896666Y-105467619D01*
X190944285Y-105562857D01*
X190944285Y-105658095D01*
X190896666Y-105800952D01*
X190325238Y-106372380D01*
X190944285Y-106372380D01*
X191325238Y-105467619D02*
X191372857Y-105420000D01*
X191468095Y-105372380D01*
X191706190Y-105372380D01*
X191801428Y-105420000D01*
X191849047Y-105467619D01*
X191896666Y-105562857D01*
X191896666Y-105658095D01*
X191849047Y-105800952D01*
X191277619Y-106372380D01*
X191896666Y-106372380D01*
X176771659Y-91569894D02*
X176676421Y-91522274D01*
X176533564Y-91522274D01*
X176390707Y-91569894D01*
X176295469Y-91665132D01*
X176247850Y-91760370D01*
X176200231Y-91950846D01*
X176200231Y-92093703D01*
X176247850Y-92284179D01*
X176295469Y-92379417D01*
X176390707Y-92474655D01*
X176533564Y-92522274D01*
X176628802Y-92522274D01*
X176771659Y-92474655D01*
X176819278Y-92427036D01*
X176819278Y-92093703D01*
X176628802Y-92093703D01*
X176291904Y-86526666D02*
X176768095Y-86526666D01*
X176196666Y-86812380D02*
X176530000Y-85812380D01*
X176863333Y-86812380D01*
X176268095Y-81097380D02*
X176268095Y-80097380D01*
X176839523Y-81097380D02*
X176410952Y-80525952D01*
X176839523Y-80097380D02*
X176268095Y-80668809D01*
%TO.C,J4*%
X169846666Y-106132380D02*
X169846666Y-106846666D01*
X169799047Y-106989523D01*
X169703809Y-107084761D01*
X169560952Y-107132380D01*
X169465714Y-107132380D01*
X170751428Y-106465714D02*
X170751428Y-107132380D01*
X170513333Y-106084761D02*
X170275238Y-106799047D01*
X170894285Y-106799047D01*
%TO.C,J3*%
X157146666Y-106132380D02*
X157146666Y-106846666D01*
X157099047Y-106989523D01*
X157003809Y-107084761D01*
X156860952Y-107132380D01*
X156765714Y-107132380D01*
X157527619Y-106132380D02*
X158146666Y-106132380D01*
X157813333Y-106513333D01*
X157956190Y-106513333D01*
X158051428Y-106560952D01*
X158099047Y-106608571D01*
X158146666Y-106703809D01*
X158146666Y-106941904D01*
X158099047Y-107037142D01*
X158051428Y-107084761D01*
X157956190Y-107132380D01*
X157670476Y-107132380D01*
X157575238Y-107084761D01*
X157527619Y-107037142D01*
%TO.C,J2*%
X164796666Y-70142380D02*
X164796666Y-70856666D01*
X164749047Y-70999523D01*
X164653809Y-71094761D01*
X164510952Y-71142380D01*
X164415714Y-71142380D01*
X165225238Y-70237619D02*
X165272857Y-70190000D01*
X165368095Y-70142380D01*
X165606190Y-70142380D01*
X165701428Y-70190000D01*
X165749047Y-70237619D01*
X165796666Y-70332857D01*
X165796666Y-70428095D01*
X165749047Y-70570952D01*
X165177619Y-71142380D01*
X165796666Y-71142380D01*
%TO.C,J1*%
X147016666Y-70142380D02*
X147016666Y-70856666D01*
X146969047Y-70999523D01*
X146873809Y-71094761D01*
X146730952Y-71142380D01*
X146635714Y-71142380D01*
X148016666Y-71142380D02*
X147445238Y-71142380D01*
X147730952Y-71142380D02*
X147730952Y-70142380D01*
X147635714Y-70285238D01*
X147540476Y-70380476D01*
X147445238Y-70428095D01*
%TO.C,R2*%
X193672380Y-86526666D02*
X193196190Y-86860000D01*
X193672380Y-87098095D02*
X192672380Y-87098095D01*
X192672380Y-86717142D01*
X192720000Y-86621904D01*
X192767619Y-86574285D01*
X192862857Y-86526666D01*
X193005714Y-86526666D01*
X193100952Y-86574285D01*
X193148571Y-86621904D01*
X193196190Y-86717142D01*
X193196190Y-87098095D01*
X192767619Y-86145714D02*
X192720000Y-86098095D01*
X192672380Y-86002857D01*
X192672380Y-85764761D01*
X192720000Y-85669523D01*
X192767619Y-85621904D01*
X192862857Y-85574285D01*
X192958095Y-85574285D01*
X193100952Y-85621904D01*
X193672380Y-86193333D01*
X193672380Y-85574285D01*
%TO.C,R1*%
X184147380Y-86526666D02*
X183671190Y-86860000D01*
X184147380Y-87098095D02*
X183147380Y-87098095D01*
X183147380Y-86717142D01*
X183195000Y-86621904D01*
X183242619Y-86574285D01*
X183337857Y-86526666D01*
X183480714Y-86526666D01*
X183575952Y-86574285D01*
X183623571Y-86621904D01*
X183671190Y-86717142D01*
X183671190Y-87098095D01*
X184147380Y-85574285D02*
X184147380Y-86145714D01*
X184147380Y-85860000D02*
X183147380Y-85860000D01*
X183290238Y-85955238D01*
X183385476Y-86050476D01*
X183433095Y-86145714D01*
%TO.C,D3*%
X177007380Y-107418095D02*
X176007380Y-107418095D01*
X176007380Y-107180000D01*
X176055000Y-107037142D01*
X176150238Y-106941904D01*
X176245476Y-106894285D01*
X176435952Y-106846666D01*
X176578809Y-106846666D01*
X176769285Y-106894285D01*
X176864523Y-106941904D01*
X176959761Y-107037142D01*
X177007380Y-107180000D01*
X177007380Y-107418095D01*
X176007380Y-106513333D02*
X176007380Y-105894285D01*
X176388333Y-106227619D01*
X176388333Y-106084761D01*
X176435952Y-105989523D01*
X176483571Y-105941904D01*
X176578809Y-105894285D01*
X176816904Y-105894285D01*
X176912142Y-105941904D01*
X176959761Y-105989523D01*
X177007380Y-106084761D01*
X177007380Y-106370476D01*
X176959761Y-106465714D01*
X176912142Y-106513333D01*
X178592380Y-114561904D02*
X177592380Y-114561904D01*
X178592380Y-113990476D02*
X178020952Y-114419047D01*
X177592380Y-113990476D02*
X178163809Y-114561904D01*
%TO.C,D2*%
X175532380Y-87098095D02*
X174532380Y-87098095D01*
X174532380Y-86860000D01*
X174580000Y-86717142D01*
X174675238Y-86621904D01*
X174770476Y-86574285D01*
X174960952Y-86526666D01*
X175103809Y-86526666D01*
X175294285Y-86574285D01*
X175389523Y-86621904D01*
X175484761Y-86717142D01*
X175532380Y-86860000D01*
X175532380Y-87098095D01*
X174627619Y-86145714D02*
X174580000Y-86098095D01*
X174532380Y-86002857D01*
X174532380Y-85764761D01*
X174580000Y-85669523D01*
X174627619Y-85621904D01*
X174722857Y-85574285D01*
X174818095Y-85574285D01*
X174960952Y-85621904D01*
X175532380Y-86193333D01*
X175532380Y-85574285D01*
%TO.C,D1*%
X178331904Y-62532380D02*
X178331904Y-61532380D01*
X178570000Y-61532380D01*
X178712857Y-61580000D01*
X178808095Y-61675238D01*
X178855714Y-61770476D01*
X178903333Y-61960952D01*
X178903333Y-62103809D01*
X178855714Y-62294285D01*
X178808095Y-62389523D01*
X178712857Y-62484761D01*
X178570000Y-62532380D01*
X178331904Y-62532380D01*
X179855714Y-62532380D02*
X179284285Y-62532380D01*
X179570000Y-62532380D02*
X179570000Y-61532380D01*
X179474761Y-61675238D01*
X179379523Y-61770476D01*
X179284285Y-61818095D01*
%TO.C,C1*%
X135723333Y-75922142D02*
X135675714Y-75969761D01*
X135532857Y-76017380D01*
X135437619Y-76017380D01*
X135294761Y-75969761D01*
X135199523Y-75874523D01*
X135151904Y-75779285D01*
X135104285Y-75588809D01*
X135104285Y-75445952D01*
X135151904Y-75255476D01*
X135199523Y-75160238D01*
X135294761Y-75065000D01*
X135437619Y-75017380D01*
X135532857Y-75017380D01*
X135675714Y-75065000D01*
X135723333Y-75112619D01*
X136675714Y-76017380D02*
X136104285Y-76017380D01*
X136390000Y-76017380D02*
X136390000Y-75017380D01*
X136294761Y-75160238D01*
X136199523Y-75255476D01*
X136104285Y-75303095D01*
D11*
%TO.C,J4*%
X165100000Y-107950000D02*
X165100000Y-115570000D01*
X175260000Y-115570000D02*
X175260000Y-107950000D01*
X175260000Y-114300000D02*
X165100000Y-114300000D01*
X165100000Y-115570000D02*
X175260000Y-115570000D01*
X175260000Y-107950000D02*
X165100000Y-107950000D01*
%TO.C,J3*%
X152400000Y-107950000D02*
X152400000Y-115570000D01*
X162560000Y-115570000D02*
X162560000Y-107950000D01*
X162560000Y-114300000D02*
X152400000Y-114300000D01*
X152400000Y-115570000D02*
X162560000Y-115570000D01*
X162560000Y-107950000D02*
X152400000Y-107950000D01*
%TO.C,J2*%
X172720000Y-69850000D02*
X157480000Y-69850000D01*
X157480000Y-62230000D02*
X157480000Y-69850000D01*
X172720000Y-63500000D02*
X157480000Y-63500000D01*
X172720000Y-62230000D02*
X157480000Y-62230000D01*
X172720000Y-62230000D02*
X172720000Y-69850000D01*
%TO.C,J1*%
X154940000Y-69850000D02*
X139700000Y-69850000D01*
X139700000Y-62230000D02*
X139700000Y-69850000D01*
X154940000Y-63500000D02*
X139700000Y-63500000D01*
X154940000Y-62230000D02*
X139700000Y-62230000D01*
X154940000Y-62230000D02*
X154940000Y-69850000D01*
%TO.C,R2*%
X192220000Y-90980000D02*
X192220000Y-81740000D01*
X188780000Y-81740000D02*
X188780000Y-90980000D01*
X188780000Y-90980000D02*
X192220000Y-90980000D01*
X190500000Y-91670000D02*
X190500000Y-90980000D01*
X190500000Y-81050000D02*
X190500000Y-81740000D01*
X192220000Y-81740000D02*
X188780000Y-81740000D01*
%TO.C,R1*%
X182695000Y-81740000D02*
X179255000Y-81740000D01*
X180975000Y-81050000D02*
X180975000Y-81740000D01*
X180975000Y-91670000D02*
X180975000Y-90980000D01*
X179255000Y-90980000D02*
X182695000Y-90980000D01*
X179255000Y-81740000D02*
X179255000Y-90980000D01*
X182695000Y-90980000D02*
X182695000Y-81740000D01*
%TO.C,D3*%
X177555000Y-101800000D02*
X177555000Y-111560000D01*
X177555000Y-111560000D02*
X183125000Y-111560000D01*
X177555000Y-110132000D02*
X183125000Y-110132000D01*
X177555000Y-110012000D02*
X183125000Y-110012000D01*
X180340000Y-112860000D02*
X180340000Y-111560000D01*
X177555000Y-109892000D02*
X183125000Y-109892000D01*
X183125000Y-111560000D02*
X183125000Y-101800000D01*
X180340000Y-100500000D02*
X180340000Y-101800000D01*
X183125000Y-101800000D02*
X177555000Y-101800000D01*
%TO.C,D2*%
X174081000Y-88165000D02*
X168810000Y-88165000D01*
X168810000Y-78290000D02*
X168810000Y-94430000D01*
X174081000Y-78290000D02*
X174081000Y-94430000D01*
X174081000Y-94430000D02*
X168810000Y-94430000D01*
X174081000Y-84556000D02*
X168810000Y-84556000D01*
X174081000Y-78290000D02*
X168810000Y-78290000D01*
%TO.C,D1*%
X176510000Y-64495000D02*
X176510000Y-67585000D01*
X176510000Y-67584830D02*
G75*
G03*
X182060000Y-66039538I2560000J1544830D01*
G01*
X182060000Y-66040462D02*
G75*
G03*
X176510000Y-64495170I-2990000J462D01*
G01*
X181570000Y-66040000D02*
G75*
G03*
X181570000Y-66040000I-2500000J0D01*
G01*
%TO.C,C1*%
X165260000Y-80523000D02*
X165260000Y-97277000D01*
X155861000Y-72402000D02*
X155861000Y-86660000D01*
X159980000Y-74572000D02*
X159980000Y-103228000D01*
X161740000Y-76000000D02*
X161740000Y-101800000D01*
X151541000Y-71408000D02*
X151541000Y-106392000D01*
X166260000Y-82705000D02*
X166260000Y-95095000D01*
X153181000Y-71651000D02*
X153181000Y-86660000D01*
X154341000Y-71920000D02*
X154341000Y-86660000D01*
X164100000Y-78673000D02*
X164100000Y-99127000D01*
X166900000Y-84772000D02*
X166900000Y-93028000D01*
X165900000Y-81825000D02*
X165900000Y-95975000D01*
X158980000Y-73912000D02*
X158980000Y-103888000D01*
X157501000Y-73101000D02*
X157501000Y-104699000D01*
X156141000Y-72507000D02*
X156141000Y-86660000D01*
X166300000Y-82811000D02*
X166300000Y-94989000D01*
X153301000Y-71675000D02*
X153301000Y-86660000D01*
X152661000Y-71556000D02*
X152661000Y-86660000D01*
X157221000Y-72967000D02*
X157221000Y-104833000D01*
X150741000Y-71346000D02*
X150741000Y-106454000D01*
X154381000Y-91140000D02*
X154381000Y-105869000D01*
X156621000Y-72701000D02*
X156621000Y-86660000D01*
X152901000Y-71598000D02*
X152901000Y-86660000D01*
X154901000Y-91140000D02*
X154901000Y-105720000D01*
X161980000Y-76226000D02*
X161980000Y-101574000D01*
X153821000Y-91140000D02*
X153821000Y-106011000D01*
X160660000Y-75080000D02*
X160660000Y-102720000D01*
X156221000Y-91140000D02*
X156221000Y-105261000D01*
X150460000Y-71333000D02*
X150460000Y-106467000D01*
X157061000Y-72894000D02*
X157061000Y-104906000D01*
X155501000Y-91140000D02*
X155501000Y-105526000D01*
X151861000Y-71443000D02*
X151861000Y-106357000D01*
X160100000Y-74658000D02*
X160100000Y-103142000D01*
X154261000Y-71899000D02*
X154261000Y-86660000D01*
X152461000Y-71525000D02*
X152461000Y-106275000D01*
X152981000Y-71613000D02*
X152981000Y-86660000D01*
X155821000Y-91140000D02*
X155821000Y-105413000D01*
X159740000Y-74405000D02*
X159740000Y-103395000D01*
X163420000Y-77785000D02*
X163420000Y-100015000D01*
X152861000Y-71591000D02*
X152861000Y-86660000D01*
X154221000Y-91140000D02*
X154221000Y-105912000D01*
X156861000Y-91140000D02*
X156861000Y-104995000D01*
X154821000Y-91140000D02*
X154821000Y-105744000D01*
X154661000Y-91140000D02*
X154661000Y-105791000D01*
X130925998Y-79025000D02*
X134425998Y-79025000D01*
X154861000Y-72068000D02*
X154861000Y-86660000D01*
X155221000Y-72180000D02*
X155221000Y-86660000D01*
X160460000Y-74925000D02*
X160460000Y-102875000D01*
X155301000Y-72206000D02*
X155301000Y-86660000D01*
X154181000Y-71878000D02*
X154181000Y-86660000D01*
X152741000Y-91140000D02*
X152741000Y-106230000D01*
X164420000Y-79135000D02*
X164420000Y-98665000D01*
X166180000Y-82497000D02*
X166180000Y-95303000D01*
X156821000Y-91140000D02*
X156821000Y-105013000D01*
X153261000Y-91140000D02*
X153261000Y-106133000D01*
X156381000Y-91140000D02*
X156381000Y-105198000D01*
X153421000Y-91140000D02*
X153421000Y-106100000D01*
X166420000Y-83145000D02*
X166420000Y-94655000D01*
X153221000Y-91140000D02*
X153221000Y-106141000D01*
X163980000Y-78508000D02*
X163980000Y-99292000D01*
X151021000Y-71363000D02*
X151021000Y-106437000D01*
X155221000Y-91140000D02*
X155221000Y-105620000D01*
X165580000Y-81141000D02*
X165580000Y-96659000D01*
X152621000Y-91140000D02*
X152621000Y-106250000D01*
X154821000Y-72056000D02*
X154821000Y-86660000D01*
X156261000Y-72554000D02*
X156261000Y-86660000D01*
X154941000Y-72092000D02*
X154941000Y-86660000D01*
X150420000Y-71331000D02*
X150420000Y-106469000D01*
X162220000Y-76461000D02*
X162220000Y-101339000D01*
X166340000Y-82920000D02*
X166340000Y-94880000D01*
X164020000Y-78562000D02*
X164020000Y-99238000D01*
X151821000Y-71438000D02*
X151821000Y-106362000D01*
X163300000Y-77640000D02*
X163300000Y-100160000D01*
X156981000Y-91140000D02*
X156981000Y-104942000D01*
X156301000Y-91140000D02*
X156301000Y-105230000D01*
X154581000Y-71986000D02*
X154581000Y-86660000D01*
X151301000Y-71385000D02*
X151301000Y-106415000D01*
X162660000Y-76916000D02*
X162660000Y-100884000D01*
X152901000Y-91140000D02*
X152901000Y-106202000D01*
X158580000Y-73674000D02*
X158580000Y-104126000D01*
X153221000Y-71659000D02*
X153221000Y-86660000D01*
X167100000Y-85702000D02*
X167100000Y-92098000D01*
X160020000Y-74601000D02*
X160020000Y-103199000D01*
X157621000Y-73160000D02*
X157621000Y-104640000D01*
X158900000Y-73863000D02*
X158900000Y-103937000D01*
X155181000Y-72167000D02*
X155181000Y-86660000D01*
X149980000Y-71321000D02*
X149980000Y-106479000D01*
X160780000Y-75175000D02*
X160780000Y-102625000D01*
X155741000Y-72358000D02*
X155741000Y-86660000D01*
X165700000Y-81388000D02*
X165700000Y-96412000D01*
X151501000Y-71404000D02*
X151501000Y-106396000D01*
X152741000Y-71570000D02*
X152741000Y-86660000D01*
X153461000Y-71708000D02*
X153461000Y-86660000D01*
X154541000Y-71975000D02*
X154541000Y-86660000D01*
X151981000Y-71457000D02*
X151981000Y-106343000D01*
X156941000Y-91140000D02*
X156941000Y-104960000D01*
X166100000Y-82297000D02*
X166100000Y-95503000D01*
X161580000Y-75854000D02*
X161580000Y-101946000D01*
X164540000Y-79316000D02*
X164540000Y-98484000D01*
X162340000Y-76582000D02*
X162340000Y-101218000D01*
X155941000Y-72431000D02*
X155941000Y-86660000D01*
X151621000Y-71416000D02*
X151621000Y-106384000D01*
X153621000Y-71743000D02*
X153621000Y-86660000D01*
X166660000Y-83887000D02*
X166660000Y-93913000D01*
X166020000Y-82104000D02*
X166020000Y-95696000D01*
X152221000Y-71489000D02*
X152221000Y-106311000D01*
X157461000Y-73081000D02*
X157461000Y-104719000D01*
X161420000Y-75712000D02*
X161420000Y-102088000D01*
X163740000Y-78189000D02*
X163740000Y-99611000D01*
X155301000Y-91140000D02*
X155301000Y-105594000D01*
X150380000Y-71330000D02*
X150380000Y-106470000D01*
X158140000Y-73429000D02*
X158140000Y-104371000D01*
X151661000Y-71420000D02*
X151661000Y-106380000D01*
X156741000Y-72752000D02*
X156741000Y-86660000D01*
X159460000Y-74217000D02*
X159460000Y-103583000D01*
X161860000Y-76112000D02*
X161860000Y-101688000D01*
X161540000Y-75818000D02*
X161540000Y-101982000D01*
X159900000Y-74516000D02*
X159900000Y-103284000D01*
X155581000Y-91140000D02*
X155581000Y-105499000D01*
X155141000Y-91140000D02*
X155141000Y-105645000D01*
X154021000Y-91140000D02*
X154021000Y-105963000D01*
X153141000Y-91140000D02*
X153141000Y-106157000D01*
X151261000Y-71382000D02*
X151261000Y-106418000D01*
X155341000Y-72220000D02*
X155341000Y-86660000D01*
X155941000Y-91140000D02*
X155941000Y-105369000D01*
X165060000Y-80165000D02*
X165060000Y-97635000D01*
X156701000Y-91140000D02*
X156701000Y-105065000D01*
X155741000Y-91140000D02*
X155741000Y-105442000D01*
X162820000Y-77089000D02*
X162820000Y-100711000D01*
X162620000Y-76873000D02*
X162620000Y-100927000D01*
X167300000Y-87065000D02*
X167300000Y-90735000D01*
X160260000Y-74775000D02*
X160260000Y-103025000D01*
X159860000Y-74488000D02*
X159860000Y-103312000D01*
X158340000Y-73539000D02*
X158340000Y-104261000D01*
X154141000Y-71867000D02*
X154141000Y-86660000D01*
X162860000Y-77134000D02*
X162860000Y-100666000D01*
X167340000Y-87487000D02*
X167340000Y-90313000D01*
X155021000Y-72117000D02*
X155021000Y-86660000D01*
X154301000Y-71909000D02*
X154301000Y-86660000D01*
X154781000Y-72044000D02*
X154781000Y-86660000D01*
X150861000Y-71353000D02*
X150861000Y-106447000D01*
X156061000Y-72477000D02*
X156061000Y-86660000D01*
X164500000Y-79255000D02*
X164500000Y-98545000D01*
X154141000Y-91140000D02*
X154141000Y-105933000D01*
X162700000Y-76959000D02*
X162700000Y-100841000D01*
X154101000Y-71857000D02*
X154101000Y-86660000D01*
X165460000Y-80902000D02*
X165460000Y-96898000D01*
X154781000Y-91140000D02*
X154781000Y-105756000D01*
X156221000Y-72539000D02*
X156221000Y-86660000D01*
X155701000Y-72344000D02*
X155701000Y-86660000D01*
X155021000Y-91140000D02*
X155021000Y-105683000D01*
X156621000Y-91140000D02*
X156621000Y-105099000D01*
X156941000Y-72840000D02*
X156941000Y-86660000D01*
X165660000Y-81305000D02*
X165660000Y-96495000D01*
X166580000Y-83627000D02*
X166580000Y-94173000D01*
X163260000Y-77593000D02*
X163260000Y-100207000D01*
X166860000Y-84611000D02*
X166860000Y-93189000D01*
X151741000Y-71429000D02*
X151741000Y-106371000D01*
X156061000Y-91140000D02*
X156061000Y-105323000D01*
X154501000Y-71963000D02*
X154501000Y-86660000D01*
X155541000Y-72288000D02*
X155541000Y-86660000D01*
X161900000Y-76150000D02*
X161900000Y-101650000D01*
X155381000Y-91140000D02*
X155381000Y-105567000D01*
X150981000Y-71360000D02*
X150981000Y-106440000D01*
X163180000Y-77498000D02*
X163180000Y-100302000D01*
X151781000Y-71433000D02*
X151781000Y-106367000D01*
X154701000Y-72020000D02*
X154701000Y-86660000D01*
X159700000Y-74377000D02*
X159700000Y-103423000D01*
X157941000Y-73323000D02*
X157941000Y-104477000D01*
X157181000Y-72949000D02*
X157181000Y-104851000D01*
X155101000Y-91140000D02*
X155101000Y-105658000D01*
X162540000Y-76789000D02*
X162540000Y-101011000D01*
X160540000Y-74986000D02*
X160540000Y-102814000D01*
X153381000Y-91140000D02*
X153381000Y-106109000D01*
X156141000Y-91140000D02*
X156141000Y-105293000D01*
X162380000Y-76623000D02*
X162380000Y-101177000D01*
X159220000Y-74062000D02*
X159220000Y-103738000D01*
X160380000Y-74865000D02*
X160380000Y-102935000D01*
X167180000Y-86164000D02*
X167180000Y-91636000D01*
X166780000Y-84307000D02*
X166780000Y-93493000D01*
X156261000Y-91140000D02*
X156261000Y-105246000D01*
X154061000Y-91140000D02*
X154061000Y-105953000D01*
X157021000Y-72876000D02*
X157021000Y-104924000D01*
X164220000Y-78842000D02*
X164220000Y-98958000D01*
X154741000Y-72032000D02*
X154741000Y-86660000D01*
X158260000Y-73494000D02*
X158260000Y-104306000D01*
X153901000Y-71808000D02*
X153901000Y-86660000D01*
X154301000Y-91140000D02*
X154301000Y-105891000D01*
X155261000Y-72193000D02*
X155261000Y-86660000D01*
X156741000Y-91140000D02*
X156741000Y-105048000D01*
X153901000Y-91140000D02*
X153901000Y-105992000D01*
X159020000Y-73937000D02*
X159020000Y-103863000D01*
X154021000Y-71837000D02*
X154021000Y-86660000D01*
X154381000Y-71931000D02*
X154381000Y-86660000D01*
X161820000Y-76075000D02*
X161820000Y-101725000D01*
X158820000Y-73815000D02*
X158820000Y-103985000D01*
X160820000Y-75207000D02*
X160820000Y-102593000D01*
X159940000Y-74544000D02*
X159940000Y-103256000D01*
X150220000Y-71325000D02*
X150220000Y-106475000D01*
X154461000Y-91140000D02*
X154461000Y-105848000D01*
X154221000Y-71888000D02*
X154221000Y-86660000D01*
X150621000Y-71340000D02*
X150621000Y-106460000D01*
X161500000Y-75783000D02*
X161500000Y-102017000D01*
X166700000Y-84022000D02*
X166700000Y-93778000D01*
X157381000Y-73043000D02*
X157381000Y-104757000D01*
X164740000Y-79630000D02*
X164740000Y-98170000D01*
X150821000Y-71350000D02*
X150821000Y-106450000D01*
X162300000Y-76541000D02*
X162300000Y-101259000D01*
X155901000Y-72416000D02*
X155901000Y-86660000D01*
X152541000Y-71537000D02*
X152541000Y-86660000D01*
X166620000Y-83755000D02*
X166620000Y-94045000D01*
X160900000Y-75272000D02*
X160900000Y-102528000D01*
X152581000Y-71543000D02*
X152581000Y-86660000D01*
X161780000Y-76037000D02*
X161780000Y-101763000D01*
X162980000Y-77268000D02*
X162980000Y-100532000D01*
X166940000Y-84940000D02*
X166940000Y-92860000D01*
X158620000Y-73697000D02*
X158620000Y-104103000D01*
X150020000Y-71321000D02*
X150020000Y-106479000D01*
X150140000Y-71323000D02*
X150140000Y-106477000D01*
X155341000Y-91140000D02*
X155341000Y-105580000D01*
X165820000Y-81647000D02*
X165820000Y-96153000D01*
X154501000Y-91140000D02*
X154501000Y-105837000D01*
X164340000Y-79016000D02*
X164340000Y-98784000D01*
X163340000Y-77688000D02*
X163340000Y-100112000D01*
X163380000Y-77737000D02*
X163380000Y-100063000D01*
X158460000Y-73606000D02*
X158460000Y-104194000D01*
X151141000Y-71372000D02*
X151141000Y-106428000D01*
X152541000Y-91140000D02*
X152541000Y-106263000D01*
X149820000Y-71320000D02*
X149820000Y-106480000D01*
X164900000Y-79892000D02*
X164900000Y-97908000D01*
X154981000Y-91140000D02*
X154981000Y-105696000D01*
X155061000Y-91140000D02*
X155061000Y-105671000D01*
X153061000Y-91140000D02*
X153061000Y-106173000D01*
X158700000Y-73744000D02*
X158700000Y-104056000D01*
X165980000Y-82010000D02*
X165980000Y-95790000D01*
X158660000Y-73721000D02*
X158660000Y-104079000D01*
X152621000Y-71550000D02*
X152621000Y-86660000D01*
X156381000Y-72602000D02*
X156381000Y-86660000D01*
X153861000Y-71798000D02*
X153861000Y-86660000D01*
X162580000Y-76831000D02*
X162580000Y-100969000D01*
X154741000Y-91140000D02*
X154741000Y-105768000D01*
X153861000Y-91140000D02*
X153861000Y-106002000D01*
X159540000Y-74270000D02*
X159540000Y-103530000D01*
X165860000Y-81735000D02*
X165860000Y-96065000D01*
X157980000Y-73344000D02*
X157980000Y-104456000D01*
X150340000Y-71328000D02*
X150340000Y-106472000D01*
X153701000Y-91140000D02*
X153701000Y-106039000D01*
X166460000Y-83261000D02*
X166460000Y-94539000D01*
X167260000Y-86723000D02*
X167260000Y-91077000D01*
X156661000Y-91140000D02*
X156661000Y-105082000D01*
X165740000Y-81473000D02*
X165740000Y-96327000D01*
X165380000Y-80748000D02*
X165380000Y-97052000D01*
X150260000Y-71326000D02*
X150260000Y-106474000D01*
X151221000Y-71378000D02*
X151221000Y-106422000D01*
X158220000Y-73472000D02*
X158220000Y-104328000D01*
X160940000Y-75304000D02*
X160940000Y-102496000D01*
X155701000Y-91140000D02*
X155701000Y-105456000D01*
X152101000Y-71473000D02*
X152101000Y-106327000D01*
X156861000Y-72805000D02*
X156861000Y-86660000D01*
X159660000Y-74350000D02*
X159660000Y-103450000D01*
X164620000Y-79440000D02*
X164620000Y-98360000D01*
X157581000Y-73140000D02*
X157581000Y-104660000D01*
X164660000Y-79503000D02*
X164660000Y-98297000D01*
X155621000Y-91140000D02*
X155621000Y-105485000D01*
X154101000Y-91140000D02*
X154101000Y-105943000D01*
X165020000Y-80096000D02*
X165020000Y-97704000D01*
X165420000Y-80824000D02*
X165420000Y-96976000D01*
X153181000Y-91140000D02*
X153181000Y-106149000D01*
X154941000Y-91140000D02*
X154941000Y-105708000D01*
X160340000Y-74835000D02*
X160340000Y-102965000D01*
X162940000Y-77223000D02*
X162940000Y-100577000D01*
X156541000Y-91140000D02*
X156541000Y-105132000D01*
X163860000Y-78346000D02*
X163860000Y-99454000D01*
X165500000Y-80980000D02*
X165500000Y-96820000D01*
X152381000Y-71512000D02*
X152381000Y-106288000D01*
X156461000Y-91140000D02*
X156461000Y-105165000D01*
X160620000Y-75049000D02*
X160620000Y-102751000D01*
X161300000Y-75607000D02*
X161300000Y-102193000D01*
X161020000Y-75370000D02*
X161020000Y-102430000D01*
X161060000Y-75403000D02*
X161060000Y-102397000D01*
X152941000Y-91140000D02*
X152941000Y-106195000D01*
X154701000Y-91140000D02*
X154701000Y-105780000D01*
X150300000Y-71327000D02*
X150300000Y-106473000D01*
X156701000Y-72735000D02*
X156701000Y-86660000D01*
X163620000Y-78035000D02*
X163620000Y-99765000D01*
X132675998Y-77275000D02*
X132675998Y-80775000D01*
X166380000Y-83032000D02*
X166380000Y-94768000D01*
X164780000Y-79695000D02*
X164780000Y-98105000D01*
X160740000Y-75143000D02*
X160740000Y-102657000D01*
X166500000Y-83380000D02*
X166500000Y-94420000D01*
X161700000Y-75963000D02*
X161700000Y-101837000D01*
X166740000Y-84162000D02*
X166740000Y-93638000D01*
X154621000Y-91140000D02*
X154621000Y-105803000D01*
X153741000Y-71770000D02*
X153741000Y-86660000D01*
X161100000Y-75437000D02*
X161100000Y-102363000D01*
X157261000Y-72986000D02*
X157261000Y-104814000D01*
X150661000Y-71341000D02*
X150661000Y-106459000D01*
X156301000Y-72570000D02*
X156301000Y-86660000D01*
X152941000Y-71605000D02*
X152941000Y-86660000D01*
X156781000Y-72770000D02*
X156781000Y-86660000D01*
X154621000Y-71997000D02*
X154621000Y-86660000D01*
X153701000Y-71761000D02*
X153701000Y-86660000D01*
X155261000Y-91140000D02*
X155261000Y-105607000D01*
X158300000Y-73516000D02*
X158300000Y-104284000D01*
X149780000Y-71320000D02*
X149780000Y-106480000D01*
X151061000Y-71366000D02*
X151061000Y-106434000D01*
X155061000Y-72129000D02*
X155061000Y-86660000D01*
X153981000Y-91140000D02*
X153981000Y-105973000D01*
X154461000Y-71952000D02*
X154461000Y-86660000D01*
X159780000Y-74432000D02*
X159780000Y-103368000D01*
X155661000Y-91140000D02*
X155661000Y-105470000D01*
X161180000Y-75504000D02*
X161180000Y-102296000D01*
X162260000Y-76501000D02*
X162260000Y-101299000D01*
X151901000Y-71448000D02*
X151901000Y-106352000D01*
X153261000Y-71667000D02*
X153261000Y-86660000D01*
X159340000Y-74138000D02*
X159340000Y-103662000D01*
X154861000Y-91140000D02*
X154861000Y-105732000D01*
X155621000Y-72315000D02*
X155621000Y-86660000D01*
X160860000Y-75239000D02*
X160860000Y-102561000D01*
X151181000Y-71375000D02*
X151181000Y-106425000D01*
X163140000Y-77451000D02*
X163140000Y-100349000D01*
X155421000Y-91140000D02*
X155421000Y-105553000D01*
X155461000Y-72260000D02*
X155461000Y-86660000D01*
X153781000Y-91140000D02*
X153781000Y-106020000D01*
X165940000Y-81917000D02*
X165940000Y-95883000D01*
X160500000Y-74956000D02*
X160500000Y-102844000D01*
X161220000Y-75538000D02*
X161220000Y-102262000D01*
X150581000Y-71338000D02*
X150581000Y-106462000D01*
X154181000Y-91140000D02*
X154181000Y-105922000D01*
X162740000Y-77002000D02*
X162740000Y-100798000D01*
X160140000Y-74687000D02*
X160140000Y-103113000D01*
X157741000Y-73220000D02*
X157741000Y-104580000D01*
X161340000Y-75642000D02*
X161340000Y-102158000D01*
X155381000Y-72233000D02*
X155381000Y-86660000D01*
X156501000Y-72651000D02*
X156501000Y-86660000D01*
X156341000Y-91140000D02*
X156341000Y-105214000D01*
X162020000Y-76265000D02*
X162020000Y-101535000D01*
X163220000Y-77545000D02*
X163220000Y-100255000D01*
X156021000Y-72461000D02*
X156021000Y-86660000D01*
X157861000Y-73281000D02*
X157861000Y-104519000D01*
X158380000Y-73561000D02*
X158380000Y-104239000D01*
X149860000Y-71320000D02*
X149860000Y-106480000D01*
X155101000Y-72142000D02*
X155101000Y-86660000D01*
X152141000Y-71478000D02*
X152141000Y-106322000D01*
X164140000Y-78729000D02*
X164140000Y-99071000D01*
X154901000Y-72080000D02*
X154901000Y-86660000D01*
X158540000Y-73651000D02*
X158540000Y-104149000D01*
X152781000Y-91140000D02*
X152781000Y-106223000D01*
X157341000Y-73024000D02*
X157341000Y-104776000D01*
X158020000Y-73365000D02*
X158020000Y-104435000D01*
X151581000Y-71412000D02*
X151581000Y-106388000D01*
X151701000Y-71424000D02*
X151701000Y-106376000D01*
X151461000Y-71400000D02*
X151461000Y-106400000D01*
X166540000Y-83502000D02*
X166540000Y-94298000D01*
X159420000Y-74190000D02*
X159420000Y-103610000D01*
X153821000Y-71789000D02*
X153821000Y-86660000D01*
X159620000Y-74323000D02*
X159620000Y-103477000D01*
X156181000Y-72523000D02*
X156181000Y-86660000D01*
X151421000Y-71396000D02*
X151421000Y-106404000D01*
X154581000Y-91140000D02*
X154581000Y-105814000D01*
X163900000Y-78400000D02*
X163900000Y-99400000D01*
X155501000Y-72274000D02*
X155501000Y-86660000D01*
X154061000Y-71847000D02*
X154061000Y-86660000D01*
X152821000Y-71584000D02*
X152821000Y-86660000D01*
X165780000Y-81559000D02*
X165780000Y-96241000D01*
X157421000Y-73062000D02*
X157421000Y-104738000D01*
X156661000Y-72718000D02*
X156661000Y-86660000D01*
X158420000Y-73583000D02*
X158420000Y-104217000D01*
X155181000Y-91140000D02*
X155181000Y-105633000D01*
X159500000Y-74243000D02*
X159500000Y-103557000D01*
X153661000Y-71752000D02*
X153661000Y-86660000D01*
X156581000Y-91140000D02*
X156581000Y-105115000D01*
X161460000Y-75747000D02*
X161460000Y-102053000D01*
X166220000Y-82600000D02*
X166220000Y-95200000D01*
X161660000Y-75927000D02*
X161660000Y-101873000D01*
X159180000Y-74036000D02*
X159180000Y-103764000D01*
X165220000Y-80450000D02*
X165220000Y-97350000D01*
X160980000Y-75337000D02*
X160980000Y-102463000D01*
X152181000Y-71484000D02*
X152181000Y-106316000D01*
X165340000Y-80672000D02*
X165340000Y-97128000D01*
X153661000Y-91140000D02*
X153661000Y-106048000D01*
X157101000Y-72912000D02*
X157101000Y-104888000D01*
X152501000Y-71531000D02*
X152501000Y-106269000D01*
X161380000Y-75677000D02*
X161380000Y-102123000D01*
X154421000Y-71941000D02*
X154421000Y-86660000D01*
X164700000Y-79566000D02*
X164700000Y-98234000D01*
X156781000Y-91140000D02*
X156781000Y-105030000D01*
X167020000Y-85300000D02*
X167020000Y-92500000D01*
X152261000Y-71495000D02*
X152261000Y-106305000D01*
X150941000Y-71358000D02*
X150941000Y-106442000D01*
X158740000Y-73768000D02*
X158740000Y-104032000D01*
X162420000Y-76664000D02*
X162420000Y-101136000D01*
X150180000Y-71324000D02*
X150180000Y-106476000D01*
X152861000Y-91140000D02*
X152861000Y-106209000D01*
X161940000Y-76188000D02*
X161940000Y-101612000D01*
X156981000Y-72858000D02*
X156981000Y-86660000D01*
X153741000Y-91140000D02*
X153741000Y-106030000D01*
X155981000Y-91140000D02*
X155981000Y-105354000D01*
X152781000Y-71577000D02*
X152781000Y-86660000D01*
X157141000Y-72930000D02*
X157141000Y-104870000D01*
X156421000Y-72619000D02*
X156421000Y-86660000D01*
X156541000Y-72668000D02*
X156541000Y-86660000D01*
X167140000Y-85924000D02*
X167140000Y-91876000D01*
X152701000Y-71563000D02*
X152701000Y-86660000D01*
X155781000Y-72373000D02*
X155781000Y-86660000D01*
X153341000Y-71683000D02*
X153341000Y-86660000D01*
X156821000Y-72787000D02*
X156821000Y-86660000D01*
X161620000Y-75890000D02*
X161620000Y-101910000D01*
X159380000Y-74164000D02*
X159380000Y-103636000D01*
X159820000Y-74460000D02*
X159820000Y-103340000D01*
X160060000Y-74629000D02*
X160060000Y-103171000D01*
X151101000Y-71369000D02*
X151101000Y-106431000D01*
X164860000Y-79826000D02*
X164860000Y-97974000D01*
X159580000Y-74296000D02*
X159580000Y-103504000D01*
X155141000Y-72155000D02*
X155141000Y-86660000D01*
X153021000Y-91140000D02*
X153021000Y-106180000D01*
X153141000Y-71643000D02*
X153141000Y-86660000D01*
X162140000Y-76382000D02*
X162140000Y-101418000D01*
X162460000Y-76705000D02*
X162460000Y-101095000D01*
X153061000Y-71627000D02*
X153061000Y-86660000D01*
X158100000Y-73408000D02*
X158100000Y-104392000D01*
X155421000Y-72247000D02*
X155421000Y-86660000D01*
X163020000Y-77313000D02*
X163020000Y-100487000D01*
X158500000Y-73629000D02*
X158500000Y-104171000D01*
X155901000Y-91140000D02*
X155901000Y-105384000D01*
X154261000Y-91140000D02*
X154261000Y-105901000D01*
X152661000Y-91140000D02*
X152661000Y-106244000D01*
X162060000Y-76304000D02*
X162060000Y-101496000D01*
X149940000Y-71320000D02*
X149940000Y-106480000D01*
X156101000Y-91140000D02*
X156101000Y-105308000D01*
X163780000Y-78241000D02*
X163780000Y-99559000D01*
X165300000Y-80597000D02*
X165300000Y-97203000D01*
X158180000Y-73451000D02*
X158180000Y-104349000D01*
X167380000Y-88100000D02*
X167380000Y-89700000D01*
X161260000Y-75573000D02*
X161260000Y-102227000D01*
X150541000Y-71336000D02*
X150541000Y-106464000D01*
X152821000Y-91140000D02*
X152821000Y-106216000D01*
X151381000Y-71392000D02*
X151381000Y-106408000D01*
X162100000Y-76343000D02*
X162100000Y-101457000D01*
X154981000Y-72104000D02*
X154981000Y-86660000D01*
X164300000Y-78958000D02*
X164300000Y-98842000D01*
X156901000Y-72822000D02*
X156901000Y-86660000D01*
X153381000Y-71691000D02*
X153381000Y-86660000D01*
X155781000Y-91140000D02*
X155781000Y-105427000D01*
X154421000Y-91140000D02*
X154421000Y-105859000D01*
X165100000Y-80235000D02*
X165100000Y-97565000D01*
X150901000Y-71355000D02*
X150901000Y-106445000D01*
X164940000Y-79960000D02*
X164940000Y-97840000D01*
X155581000Y-72301000D02*
X155581000Y-86660000D01*
X163460000Y-77834000D02*
X163460000Y-99966000D01*
X156901000Y-91140000D02*
X156901000Y-104978000D01*
X156581000Y-72685000D02*
X156581000Y-86660000D01*
X150781000Y-71348000D02*
X150781000Y-106452000D01*
X155981000Y-72446000D02*
X155981000Y-86660000D01*
X167060000Y-85495000D02*
X167060000Y-92305000D01*
X164260000Y-78900000D02*
X164260000Y-98900000D01*
X157701000Y-73200000D02*
X157701000Y-104600000D01*
X166060000Y-82200000D02*
X166060000Y-95600000D01*
X158860000Y-73839000D02*
X158860000Y-103961000D01*
X163940000Y-78453000D02*
X163940000Y-99347000D01*
X155541000Y-91140000D02*
X155541000Y-105512000D01*
X162180000Y-76421000D02*
X162180000Y-101379000D01*
X153501000Y-71717000D02*
X153501000Y-86660000D01*
X156021000Y-91140000D02*
X156021000Y-105339000D01*
X153581000Y-91140000D02*
X153581000Y-106066000D01*
X167220000Y-86427000D02*
X167220000Y-91373000D01*
X153501000Y-91140000D02*
X153501000Y-106083000D01*
X166140000Y-82396000D02*
X166140000Y-95404000D01*
X154341000Y-91140000D02*
X154341000Y-105880000D01*
X159060000Y-73961000D02*
X159060000Y-103839000D01*
X162500000Y-76747000D02*
X162500000Y-101053000D01*
X163540000Y-77934000D02*
X163540000Y-99866000D01*
X154661000Y-72009000D02*
X154661000Y-86660000D01*
X155861000Y-91140000D02*
X155861000Y-105398000D01*
X166820000Y-84456000D02*
X166820000Y-93344000D01*
X163660000Y-78085000D02*
X163660000Y-99715000D01*
X153301000Y-91140000D02*
X153301000Y-106125000D01*
X152421000Y-71518000D02*
X152421000Y-106282000D01*
X152701000Y-91140000D02*
X152701000Y-106237000D01*
X153541000Y-71725000D02*
X153541000Y-86660000D01*
X155661000Y-72330000D02*
X155661000Y-86660000D01*
X150701000Y-71344000D02*
X150701000Y-106456000D01*
X164980000Y-80027000D02*
X164980000Y-97773000D01*
X160300000Y-74805000D02*
X160300000Y-102995000D01*
X165140000Y-80306000D02*
X165140000Y-97494000D01*
X159260000Y-74087000D02*
X159260000Y-103713000D01*
X164380000Y-79075000D02*
X164380000Y-98725000D01*
X156421000Y-91140000D02*
X156421000Y-105181000D01*
X156461000Y-72635000D02*
X156461000Y-86660000D01*
X156181000Y-91140000D02*
X156181000Y-105277000D01*
X164820000Y-79760000D02*
X164820000Y-98040000D01*
X158940000Y-73888000D02*
X158940000Y-103912000D01*
X152021000Y-71462000D02*
X152021000Y-106338000D01*
X163820000Y-78293000D02*
X163820000Y-99507000D01*
X163100000Y-77405000D02*
X163100000Y-100395000D01*
X161140000Y-75470000D02*
X161140000Y-102330000D01*
X165180000Y-80378000D02*
X165180000Y-97422000D01*
X155821000Y-72387000D02*
X155821000Y-86660000D01*
X150060000Y-71322000D02*
X150060000Y-106478000D01*
X152341000Y-71506000D02*
X152341000Y-106294000D01*
X164460000Y-79195000D02*
X164460000Y-98605000D01*
X153341000Y-91140000D02*
X153341000Y-106117000D01*
X153941000Y-71818000D02*
X153941000Y-86660000D01*
X150100000Y-71322000D02*
X150100000Y-106478000D01*
X153941000Y-91140000D02*
X153941000Y-105982000D01*
X164180000Y-78785000D02*
X164180000Y-99015000D01*
X151341000Y-71389000D02*
X151341000Y-106411000D01*
X166980000Y-85115000D02*
X166980000Y-92685000D01*
X160220000Y-74745000D02*
X160220000Y-103055000D01*
X152581000Y-91140000D02*
X152581000Y-106257000D01*
X165620000Y-81222000D02*
X165620000Y-96578000D01*
X153461000Y-91140000D02*
X153461000Y-106092000D01*
X153101000Y-91140000D02*
X153101000Y-106165000D01*
X156101000Y-72492000D02*
X156101000Y-86660000D01*
X157901000Y-73302000D02*
X157901000Y-104498000D01*
X157541000Y-73120000D02*
X157541000Y-104680000D01*
X160420000Y-74895000D02*
X160420000Y-102905000D01*
X152301000Y-71501000D02*
X152301000Y-106299000D01*
X164580000Y-79378000D02*
X164580000Y-98422000D01*
X151941000Y-71452000D02*
X151941000Y-106348000D01*
X150501000Y-71334000D02*
X150501000Y-106466000D01*
X155461000Y-91140000D02*
X155461000Y-105540000D01*
X159140000Y-74011000D02*
X159140000Y-103789000D01*
X153101000Y-71635000D02*
X153101000Y-86660000D01*
X152061000Y-71468000D02*
X152061000Y-106332000D01*
X160580000Y-75017000D02*
X160580000Y-102783000D01*
X157661000Y-73180000D02*
X157661000Y-104620000D01*
X153781000Y-71780000D02*
X153781000Y-86660000D01*
X157781000Y-73240000D02*
X157781000Y-104560000D01*
X157301000Y-73005000D02*
X157301000Y-104795000D01*
X164060000Y-78617000D02*
X164060000Y-99183000D01*
X153621000Y-91140000D02*
X153621000Y-106057000D01*
X153541000Y-91140000D02*
X153541000Y-106075000D01*
X153581000Y-71734000D02*
X153581000Y-86660000D01*
X152981000Y-91140000D02*
X152981000Y-106187000D01*
X165540000Y-81060000D02*
X165540000Y-96740000D01*
X156501000Y-91140000D02*
X156501000Y-105149000D01*
X162780000Y-77046000D02*
X162780000Y-100754000D01*
X158060000Y-73386000D02*
X158060000Y-104414000D01*
X159100000Y-73986000D02*
X159100000Y-103814000D01*
X157821000Y-73261000D02*
X157821000Y-104539000D01*
X163500000Y-77884000D02*
X163500000Y-99916000D01*
X153021000Y-71620000D02*
X153021000Y-86660000D01*
X159300000Y-74113000D02*
X159300000Y-103687000D01*
X163700000Y-78137000D02*
X163700000Y-99663000D01*
X160700000Y-75111000D02*
X160700000Y-102689000D01*
X154541000Y-91140000D02*
X154541000Y-105825000D01*
X149900000Y-71320000D02*
X149900000Y-106480000D01*
X162900000Y-77178000D02*
X162900000Y-100622000D01*
X160180000Y-74716000D02*
X160180000Y-103084000D01*
X153981000Y-71827000D02*
X153981000Y-86660000D01*
X156341000Y-72586000D02*
X156341000Y-86660000D01*
X153421000Y-71700000D02*
X153421000Y-86660000D01*
X158780000Y-73791000D02*
X158780000Y-104009000D01*
X163580000Y-77984000D02*
X163580000Y-99816000D01*
X163060000Y-77359000D02*
X163060000Y-100441000D01*
X167400000Y-88900000D02*
G75*
G03*
X167400000Y-88900000I-17620000J0D01*
G01*
%TD*%
M02*
