%TF.GenerationSoftware,KiCad,Pcbnew,(6.0.9)*%
%TF.CreationDate,2023-04-06T06:38:54+10:00*%
%TF.ProjectId,Bulma,42756c6d-612e-46b6-9963-61645f706362,rev?*%
%TF.SameCoordinates,Original*%
%TF.FileFunction,Legend,Top*%
%TF.FilePolarity,Positive*%
%FSLAX46Y46*%
G04 Gerber Fmt 4.6, Leading zero omitted, Abs format (unit mm)*
G04 Created by KiCad (PCBNEW (6.0.9)) date 2023-04-06 06:38:54*
%MOMM*%
%LPD*%
G01*
G04 APERTURE LIST*
%ADD10C,0.150000*%
%ADD11C,0.127000*%
%ADD12C,0.152400*%
%ADD13C,0.200000*%
%ADD14C,0.120000*%
%ADD15C,0.280000*%
G04 APERTURE END LIST*
D10*
X197642857Y-121047619D02*
X197690476Y-121000000D01*
X197785714Y-120952380D01*
X198023809Y-120952380D01*
X198119047Y-121000000D01*
X198166666Y-121047619D01*
X198214285Y-121142857D01*
X198214285Y-121238095D01*
X198166666Y-121380952D01*
X197595238Y-121952380D01*
X198214285Y-121952380D01*
X198595238Y-121904761D02*
X198738095Y-121952380D01*
X198976190Y-121952380D01*
X199071428Y-121904761D01*
X199119047Y-121857142D01*
X199166666Y-121761904D01*
X199166666Y-121666666D01*
X199119047Y-121571428D01*
X199071428Y-121523809D01*
X198976190Y-121476190D01*
X198785714Y-121428571D01*
X198690476Y-121380952D01*
X198642857Y-121333333D01*
X198595238Y-121238095D01*
X198595238Y-121142857D01*
X198642857Y-121047619D01*
X198690476Y-121000000D01*
X198785714Y-120952380D01*
X199023809Y-120952380D01*
X199166666Y-121000000D01*
X200833333Y-121952380D02*
X200357142Y-121952380D01*
X200357142Y-120952380D01*
X201166666Y-121952380D02*
X201166666Y-121285714D01*
X201166666Y-120952380D02*
X201119047Y-121000000D01*
X201166666Y-121047619D01*
X201214285Y-121000000D01*
X201166666Y-120952380D01*
X201166666Y-121047619D01*
X201642857Y-121571428D02*
X202404761Y-121571428D01*
X202880952Y-121952380D02*
X202880952Y-120952380D01*
X203261904Y-120952380D01*
X203357142Y-121000000D01*
X203404761Y-121047619D01*
X203452380Y-121142857D01*
X203452380Y-121285714D01*
X203404761Y-121380952D01*
X203357142Y-121428571D01*
X203261904Y-121476190D01*
X202880952Y-121476190D01*
X204023809Y-121952380D02*
X203928571Y-121904761D01*
X203880952Y-121857142D01*
X203833333Y-121761904D01*
X203833333Y-121476190D01*
X203880952Y-121380952D01*
X203928571Y-121333333D01*
X204023809Y-121285714D01*
X204166666Y-121285714D01*
X204261904Y-121333333D01*
X204309523Y-121380952D01*
X204357142Y-121476190D01*
X204357142Y-121761904D01*
X204309523Y-121857142D01*
X204261904Y-121904761D01*
X204166666Y-121952380D01*
X204023809Y-121952380D01*
X203535714Y-143880952D02*
X204202380Y-143880952D01*
X203154761Y-144119047D02*
X203869047Y-144357142D01*
X203869047Y-143738095D01*
X204154761Y-143404761D02*
X204202380Y-143261904D01*
X204202380Y-143023809D01*
X204154761Y-142928571D01*
X204107142Y-142880952D01*
X204011904Y-142833333D01*
X203916666Y-142833333D01*
X203821428Y-142880952D01*
X203773809Y-142928571D01*
X203726190Y-143023809D01*
X203678571Y-143214285D01*
X203630952Y-143309523D01*
X203583333Y-143357142D01*
X203488095Y-143404761D01*
X203392857Y-143404761D01*
X203297619Y-143357142D01*
X203250000Y-143309523D01*
X203202380Y-143214285D01*
X203202380Y-142976190D01*
X203250000Y-142833333D01*
X204202380Y-141166666D02*
X204202380Y-141642857D01*
X203202380Y-141642857D01*
X204202380Y-140833333D02*
X203535714Y-140833333D01*
X203202380Y-140833333D02*
X203250000Y-140880952D01*
X203297619Y-140833333D01*
X203250000Y-140785714D01*
X203202380Y-140833333D01*
X203297619Y-140833333D01*
X203821428Y-140357142D02*
X203821428Y-139595238D01*
X204202380Y-139119047D02*
X203202380Y-139119047D01*
X203202380Y-138738095D01*
X203250000Y-138642857D01*
X203297619Y-138595238D01*
X203392857Y-138547619D01*
X203535714Y-138547619D01*
X203630952Y-138595238D01*
X203678571Y-138642857D01*
X203726190Y-138738095D01*
X203726190Y-139119047D01*
X204202380Y-137976190D02*
X204154761Y-138071428D01*
X204107142Y-138119047D01*
X204011904Y-138166666D01*
X203726190Y-138166666D01*
X203630952Y-138119047D01*
X203583333Y-138071428D01*
X203535714Y-137976190D01*
X203535714Y-137833333D01*
X203583333Y-137738095D01*
X203630952Y-137690476D01*
X203726190Y-137642857D01*
X204011904Y-137642857D01*
X204107142Y-137690476D01*
X204154761Y-137738095D01*
X204202380Y-137833333D01*
X204202380Y-137976190D01*
X129080714Y-77304880D02*
X128509285Y-77304880D01*
X128795000Y-77304880D02*
X128795000Y-76304880D01*
X128699761Y-76447738D01*
X128604523Y-76542976D01*
X128509285Y-76590595D01*
X133009285Y-76400119D02*
X133056904Y-76352500D01*
X133152142Y-76304880D01*
X133390238Y-76304880D01*
X133485476Y-76352500D01*
X133533095Y-76400119D01*
X133580714Y-76495357D01*
X133580714Y-76590595D01*
X133533095Y-76733452D01*
X132961666Y-77304880D01*
X133580714Y-77304880D01*
X171583333Y-68818571D02*
X171250000Y-68818571D01*
X171250000Y-69342380D02*
X171250000Y-68342380D01*
X171726190Y-68342380D01*
X172059523Y-69294761D02*
X172202380Y-69342380D01*
X172440476Y-69342380D01*
X172535714Y-69294761D01*
X172583333Y-69247142D01*
X172630952Y-69151904D01*
X172630952Y-69056666D01*
X172583333Y-68961428D01*
X172535714Y-68913809D01*
X172440476Y-68866190D01*
X172250000Y-68818571D01*
X172154761Y-68770952D01*
X172107142Y-68723333D01*
X172059523Y-68628095D01*
X172059523Y-68532857D01*
X172107142Y-68437619D01*
X172154761Y-68390000D01*
X172250000Y-68342380D01*
X172488095Y-68342380D01*
X172630952Y-68390000D01*
X173059523Y-69342380D02*
X173059523Y-68342380D01*
X173059523Y-68818571D02*
X173630952Y-68818571D01*
X173630952Y-69342380D02*
X173630952Y-68342380D01*
X174059523Y-69294761D02*
X174202380Y-69342380D01*
X174440476Y-69342380D01*
X174535714Y-69294761D01*
X174583333Y-69247142D01*
X174630952Y-69151904D01*
X174630952Y-69056666D01*
X174583333Y-68961428D01*
X174535714Y-68913809D01*
X174440476Y-68866190D01*
X174250000Y-68818571D01*
X174154761Y-68770952D01*
X174107142Y-68723333D01*
X174059523Y-68628095D01*
X174059523Y-68532857D01*
X174107142Y-68437619D01*
X174154761Y-68390000D01*
X174250000Y-68342380D01*
X174488095Y-68342380D01*
X174630952Y-68390000D01*
X175773809Y-69294761D02*
X175916666Y-69342380D01*
X176154761Y-69342380D01*
X176250000Y-69294761D01*
X176297619Y-69247142D01*
X176345238Y-69151904D01*
X176345238Y-69056666D01*
X176297619Y-68961428D01*
X176250000Y-68913809D01*
X176154761Y-68866190D01*
X175964285Y-68818571D01*
X175869047Y-68770952D01*
X175821428Y-68723333D01*
X175773809Y-68628095D01*
X175773809Y-68532857D01*
X175821428Y-68437619D01*
X175869047Y-68390000D01*
X175964285Y-68342380D01*
X176202380Y-68342380D01*
X176345238Y-68390000D01*
X176773809Y-69342380D02*
X176773809Y-68342380D01*
X177726190Y-69342380D02*
X177250000Y-69342380D01*
X177250000Y-68342380D01*
X177916666Y-68342380D02*
X178250000Y-69342380D01*
X178583333Y-68342380D01*
X178916666Y-68818571D02*
X179250000Y-68818571D01*
X179392857Y-69342380D02*
X178916666Y-69342380D01*
X178916666Y-68342380D01*
X179392857Y-68342380D01*
X180392857Y-69342380D02*
X180059523Y-68866190D01*
X179821428Y-69342380D02*
X179821428Y-68342380D01*
X180202380Y-68342380D01*
X180297619Y-68390000D01*
X180345238Y-68437619D01*
X180392857Y-68532857D01*
X180392857Y-68675714D01*
X180345238Y-68770952D01*
X180297619Y-68818571D01*
X180202380Y-68866190D01*
X179821428Y-68866190D01*
X181154761Y-68818571D02*
X181297619Y-68866190D01*
X181345238Y-68913809D01*
X181392857Y-69009047D01*
X181392857Y-69151904D01*
X181345238Y-69247142D01*
X181297619Y-69294761D01*
X181202380Y-69342380D01*
X180821428Y-69342380D01*
X180821428Y-68342380D01*
X181154761Y-68342380D01*
X181250000Y-68390000D01*
X181297619Y-68437619D01*
X181345238Y-68532857D01*
X181345238Y-68628095D01*
X181297619Y-68723333D01*
X181250000Y-68770952D01*
X181154761Y-68818571D01*
X180821428Y-68818571D01*
X181773809Y-69056666D02*
X182250000Y-69056666D01*
X181678571Y-69342380D02*
X182011904Y-68342380D01*
X182345238Y-69342380D01*
X183250000Y-69247142D02*
X183202380Y-69294761D01*
X183059523Y-69342380D01*
X182964285Y-69342380D01*
X182821428Y-69294761D01*
X182726190Y-69199523D01*
X182678571Y-69104285D01*
X182630952Y-68913809D01*
X182630952Y-68770952D01*
X182678571Y-68580476D01*
X182726190Y-68485238D01*
X182821428Y-68390000D01*
X182964285Y-68342380D01*
X183059523Y-68342380D01*
X183202380Y-68390000D01*
X183250000Y-68437619D01*
X183678571Y-69342380D02*
X183678571Y-68342380D01*
X184250000Y-69342380D02*
X183821428Y-68770952D01*
X184250000Y-68342380D02*
X183678571Y-68913809D01*
X185440476Y-68961428D02*
X186202380Y-68961428D01*
X187773809Y-68818571D02*
X187916666Y-68866190D01*
X187964285Y-68913809D01*
X188011904Y-69009047D01*
X188011904Y-69151904D01*
X187964285Y-69247142D01*
X187916666Y-69294761D01*
X187821428Y-69342380D01*
X187440476Y-69342380D01*
X187440476Y-68342380D01*
X187773809Y-68342380D01*
X187869047Y-68390000D01*
X187916666Y-68437619D01*
X187964285Y-68532857D01*
X187964285Y-68628095D01*
X187916666Y-68723333D01*
X187869047Y-68770952D01*
X187773809Y-68818571D01*
X187440476Y-68818571D01*
X188440476Y-68342380D02*
X188440476Y-69151904D01*
X188488095Y-69247142D01*
X188535714Y-69294761D01*
X188630952Y-69342380D01*
X188821428Y-69342380D01*
X188916666Y-69294761D01*
X188964285Y-69247142D01*
X189011904Y-69151904D01*
X189011904Y-68342380D01*
X189964285Y-69342380D02*
X189488095Y-69342380D01*
X189488095Y-68342380D01*
X190297619Y-69342380D02*
X190297619Y-68342380D01*
X190630952Y-69056666D01*
X190964285Y-68342380D01*
X190964285Y-69342380D01*
X191392857Y-69056666D02*
X191869047Y-69056666D01*
X191297619Y-69342380D02*
X191630952Y-68342380D01*
X191964285Y-69342380D01*
X193583333Y-68390000D02*
X193488095Y-68342380D01*
X193345238Y-68342380D01*
X193202380Y-68390000D01*
X193107142Y-68485238D01*
X193059523Y-68580476D01*
X193011904Y-68770952D01*
X193011904Y-68913809D01*
X193059523Y-69104285D01*
X193107142Y-69199523D01*
X193202380Y-69294761D01*
X193345238Y-69342380D01*
X193440476Y-69342380D01*
X193583333Y-69294761D01*
X193630952Y-69247142D01*
X193630952Y-68913809D01*
X193440476Y-68913809D01*
X194250000Y-68342380D02*
X194440476Y-68342380D01*
X194535714Y-68390000D01*
X194630952Y-68485238D01*
X194678571Y-68675714D01*
X194678571Y-69009047D01*
X194630952Y-69199523D01*
X194535714Y-69294761D01*
X194440476Y-69342380D01*
X194250000Y-69342380D01*
X194154761Y-69294761D01*
X194059523Y-69199523D01*
X194011904Y-69009047D01*
X194011904Y-68675714D01*
X194059523Y-68485238D01*
X194154761Y-68390000D01*
X194250000Y-68342380D01*
X195107142Y-69342380D02*
X195107142Y-68342380D01*
X195678571Y-69342380D02*
X195250000Y-68770952D01*
X195678571Y-68342380D02*
X195107142Y-68913809D01*
X196107142Y-68342380D02*
X196107142Y-69151904D01*
X196154761Y-69247142D01*
X196202380Y-69294761D01*
X196297619Y-69342380D01*
X196488095Y-69342380D01*
X196583333Y-69294761D01*
X196630952Y-69247142D01*
X196678571Y-69151904D01*
X196678571Y-68342380D01*
X197773809Y-68342380D02*
X198107142Y-69342380D01*
X198440476Y-68342380D01*
X198726190Y-68437619D02*
X198773809Y-68390000D01*
X198869047Y-68342380D01*
X199107142Y-68342380D01*
X199202380Y-68390000D01*
X199250000Y-68437619D01*
X199297619Y-68532857D01*
X199297619Y-68628095D01*
X199250000Y-68770952D01*
X198678571Y-69342380D01*
X199297619Y-69342380D01*
X181059523Y-70952380D02*
X181059523Y-69952380D01*
X181059523Y-70428571D02*
X181630952Y-70428571D01*
X181630952Y-70952380D02*
X181630952Y-69952380D01*
X182107142Y-69952380D02*
X182107142Y-70761904D01*
X182154761Y-70857142D01*
X182202380Y-70904761D01*
X182297619Y-70952380D01*
X182488095Y-70952380D01*
X182583333Y-70904761D01*
X182630952Y-70857142D01*
X182678571Y-70761904D01*
X182678571Y-69952380D01*
X183678571Y-70000000D02*
X183583333Y-69952380D01*
X183440476Y-69952380D01*
X183297619Y-70000000D01*
X183202380Y-70095238D01*
X183154761Y-70190476D01*
X183107142Y-70380952D01*
X183107142Y-70523809D01*
X183154761Y-70714285D01*
X183202380Y-70809523D01*
X183297619Y-70904761D01*
X183440476Y-70952380D01*
X183535714Y-70952380D01*
X183678571Y-70904761D01*
X183726190Y-70857142D01*
X183726190Y-70523809D01*
X183535714Y-70523809D01*
X184154761Y-70952380D02*
X184154761Y-69952380D01*
X184154761Y-70428571D02*
X184726190Y-70428571D01*
X184726190Y-70952380D02*
X184726190Y-69952380D01*
X185964285Y-70952380D02*
X185964285Y-69952380D01*
X186345238Y-69952380D01*
X186440476Y-70000000D01*
X186488095Y-70047619D01*
X186535714Y-70142857D01*
X186535714Y-70285714D01*
X186488095Y-70380952D01*
X186440476Y-70428571D01*
X186345238Y-70476190D01*
X185964285Y-70476190D01*
X186964285Y-70952380D02*
X186964285Y-69952380D01*
X186964285Y-70428571D02*
X187535714Y-70428571D01*
X187535714Y-70952380D02*
X187535714Y-69952380D01*
X187964285Y-70666666D02*
X188440476Y-70666666D01*
X187869047Y-70952380D02*
X188202380Y-69952380D01*
X188535714Y-70952380D01*
X188869047Y-70952380D02*
X188869047Y-69952380D01*
X189440476Y-70952380D01*
X189440476Y-69952380D01*
X182535714Y-71562380D02*
X182059523Y-71562380D01*
X182011904Y-72038571D01*
X182059523Y-71990952D01*
X182154761Y-71943333D01*
X182392857Y-71943333D01*
X182488095Y-71990952D01*
X182535714Y-72038571D01*
X182583333Y-72133809D01*
X182583333Y-72371904D01*
X182535714Y-72467142D01*
X182488095Y-72514761D01*
X182392857Y-72562380D01*
X182154761Y-72562380D01*
X182059523Y-72514761D01*
X182011904Y-72467142D01*
X183726190Y-71514761D02*
X182869047Y-72800476D01*
X184250000Y-71562380D02*
X184345238Y-71562380D01*
X184440476Y-71610000D01*
X184488095Y-71657619D01*
X184535714Y-71752857D01*
X184583333Y-71943333D01*
X184583333Y-72181428D01*
X184535714Y-72371904D01*
X184488095Y-72467142D01*
X184440476Y-72514761D01*
X184345238Y-72562380D01*
X184250000Y-72562380D01*
X184154761Y-72514761D01*
X184107142Y-72467142D01*
X184059523Y-72371904D01*
X184011904Y-72181428D01*
X184011904Y-71943333D01*
X184059523Y-71752857D01*
X184107142Y-71657619D01*
X184154761Y-71610000D01*
X184250000Y-71562380D01*
X185440476Y-71895714D02*
X185440476Y-72562380D01*
X185202380Y-71514761D02*
X184964285Y-72229047D01*
X185583333Y-72229047D01*
X186678571Y-71514761D02*
X185821428Y-72800476D01*
X186964285Y-71657619D02*
X187011904Y-71610000D01*
X187107142Y-71562380D01*
X187345238Y-71562380D01*
X187440476Y-71610000D01*
X187488095Y-71657619D01*
X187535714Y-71752857D01*
X187535714Y-71848095D01*
X187488095Y-71990952D01*
X186916666Y-72562380D01*
X187535714Y-72562380D01*
X187869047Y-71562380D02*
X188488095Y-71562380D01*
X188154761Y-71943333D01*
X188297619Y-71943333D01*
X188392857Y-71990952D01*
X188440476Y-72038571D01*
X188488095Y-72133809D01*
X188488095Y-72371904D01*
X188440476Y-72467142D01*
X188392857Y-72514761D01*
X188297619Y-72562380D01*
X188011904Y-72562380D01*
X187916666Y-72514761D01*
X187869047Y-72467142D01*
X137461666Y-76304880D02*
X138080714Y-76304880D01*
X137747380Y-76685833D01*
X137890238Y-76685833D01*
X137985476Y-76733452D01*
X138033095Y-76781071D01*
X138080714Y-76876309D01*
X138080714Y-77114404D01*
X138033095Y-77209642D01*
X137985476Y-77257261D01*
X137890238Y-77304880D01*
X137604523Y-77304880D01*
X137509285Y-77257261D01*
X137461666Y-77209642D01*
X108877380Y-86284523D02*
X107877380Y-86284523D01*
X108591666Y-85951190D01*
X107877380Y-85617857D01*
X108877380Y-85617857D01*
X107972619Y-85189285D02*
X107925000Y-85141666D01*
X107877380Y-85046428D01*
X107877380Y-84808333D01*
X107925000Y-84713095D01*
X107972619Y-84665476D01*
X108067857Y-84617857D01*
X108163095Y-84617857D01*
X108305952Y-84665476D01*
X108877380Y-85236904D01*
X108877380Y-84617857D01*
X108877380Y-78284523D02*
X107877380Y-78284523D01*
X108591666Y-77951190D01*
X107877380Y-77617857D01*
X108877380Y-77617857D01*
X108210714Y-76713095D02*
X108877380Y-76713095D01*
X107829761Y-76951190D02*
X108544047Y-77189285D01*
X108544047Y-76570238D01*
X108877380Y-74308333D02*
X107877380Y-74308333D01*
X108591666Y-73975000D01*
X107877380Y-73641666D01*
X108877380Y-73641666D01*
X108877380Y-73165476D02*
X107877380Y-73165476D01*
X107877380Y-72927380D01*
X107925000Y-72784523D01*
X108020238Y-72689285D01*
X108115476Y-72641666D01*
X108305952Y-72594047D01*
X108448809Y-72594047D01*
X108639285Y-72641666D01*
X108734523Y-72689285D01*
X108829761Y-72784523D01*
X108877380Y-72927380D01*
X108877380Y-73165476D01*
X150892857Y-61500000D02*
X150797619Y-61452380D01*
X150654761Y-61452380D01*
X150511904Y-61500000D01*
X150416666Y-61595238D01*
X150369047Y-61690476D01*
X150321428Y-61880952D01*
X150321428Y-62023809D01*
X150369047Y-62214285D01*
X150416666Y-62309523D01*
X150511904Y-62404761D01*
X150654761Y-62452380D01*
X150750000Y-62452380D01*
X150892857Y-62404761D01*
X150940476Y-62357142D01*
X150940476Y-62023809D01*
X150750000Y-62023809D01*
X151559523Y-61976190D02*
X151559523Y-62452380D01*
X151226190Y-61452380D02*
X151559523Y-61976190D01*
X151892857Y-61452380D01*
X152797619Y-62452380D02*
X152464285Y-61976190D01*
X152226190Y-62452380D02*
X152226190Y-61452380D01*
X152607142Y-61452380D01*
X152702380Y-61500000D01*
X152750000Y-61547619D01*
X152797619Y-61642857D01*
X152797619Y-61785714D01*
X152750000Y-61880952D01*
X152702380Y-61928571D01*
X152607142Y-61976190D01*
X152226190Y-61976190D01*
X153416666Y-61452380D02*
X153607142Y-61452380D01*
X153702380Y-61500000D01*
X153797619Y-61595238D01*
X153845238Y-61785714D01*
X153845238Y-62119047D01*
X153797619Y-62309523D01*
X153702380Y-62404761D01*
X153607142Y-62452380D01*
X153416666Y-62452380D01*
X153321428Y-62404761D01*
X153226190Y-62309523D01*
X153178571Y-62119047D01*
X153178571Y-61785714D01*
X153226190Y-61595238D01*
X153321428Y-61500000D01*
X153416666Y-61452380D01*
X154988095Y-62166666D02*
X155464285Y-62166666D01*
X154892857Y-62452380D02*
X155226190Y-61452380D01*
X155559523Y-62452380D01*
X156464285Y-62357142D02*
X156416666Y-62404761D01*
X156273809Y-62452380D01*
X156178571Y-62452380D01*
X156035714Y-62404761D01*
X155940476Y-62309523D01*
X155892857Y-62214285D01*
X155845238Y-62023809D01*
X155845238Y-61880952D01*
X155892857Y-61690476D01*
X155940476Y-61595238D01*
X156035714Y-61500000D01*
X156178571Y-61452380D01*
X156273809Y-61452380D01*
X156416666Y-61500000D01*
X156464285Y-61547619D01*
X157464285Y-62357142D02*
X157416666Y-62404761D01*
X157273809Y-62452380D01*
X157178571Y-62452380D01*
X157035714Y-62404761D01*
X156940476Y-62309523D01*
X156892857Y-62214285D01*
X156845238Y-62023809D01*
X156845238Y-61880952D01*
X156892857Y-61690476D01*
X156940476Y-61595238D01*
X157035714Y-61500000D01*
X157178571Y-61452380D01*
X157273809Y-61452380D01*
X157416666Y-61500000D01*
X157464285Y-61547619D01*
X157892857Y-61928571D02*
X158226190Y-61928571D01*
X158369047Y-62452380D02*
X157892857Y-62452380D01*
X157892857Y-61452380D01*
X158369047Y-61452380D01*
X159273809Y-62452380D02*
X158797619Y-62452380D01*
X158797619Y-61452380D01*
X108877380Y-82284523D02*
X107877380Y-82284523D01*
X108591666Y-81951190D01*
X107877380Y-81617857D01*
X108877380Y-81617857D01*
X107877380Y-81236904D02*
X107877380Y-80617857D01*
X108258333Y-80951190D01*
X108258333Y-80808333D01*
X108305952Y-80713095D01*
X108353571Y-80665476D01*
X108448809Y-80617857D01*
X108686904Y-80617857D01*
X108782142Y-80665476D01*
X108829761Y-80713095D01*
X108877380Y-80808333D01*
X108877380Y-81094047D01*
X108829761Y-81189285D01*
X108782142Y-81236904D01*
X142485476Y-76638214D02*
X142485476Y-77304880D01*
X142247380Y-76257261D02*
X142009285Y-76971547D01*
X142628333Y-76971547D01*
X106627380Y-87546428D02*
X105627380Y-87546428D01*
X106341666Y-87213095D01*
X105627380Y-86879761D01*
X106627380Y-86879761D01*
X105627380Y-86213095D02*
X105627380Y-86022619D01*
X105675000Y-85927380D01*
X105770238Y-85832142D01*
X105960714Y-85784523D01*
X106294047Y-85784523D01*
X106484523Y-85832142D01*
X106579761Y-85927380D01*
X106627380Y-86022619D01*
X106627380Y-86213095D01*
X106579761Y-86308333D01*
X106484523Y-86403571D01*
X106294047Y-86451190D01*
X105960714Y-86451190D01*
X105770238Y-86403571D01*
X105675000Y-86308333D01*
X105627380Y-86213095D01*
X105627380Y-85498809D02*
X105627380Y-84927380D01*
X106627380Y-85213095D02*
X105627380Y-85213095D01*
X105627380Y-84403571D02*
X105627380Y-84213095D01*
X105675000Y-84117857D01*
X105770238Y-84022619D01*
X105960714Y-83975000D01*
X106294047Y-83975000D01*
X106484523Y-84022619D01*
X106579761Y-84117857D01*
X106627380Y-84213095D01*
X106627380Y-84403571D01*
X106579761Y-84498809D01*
X106484523Y-84594047D01*
X106294047Y-84641666D01*
X105960714Y-84641666D01*
X105770238Y-84594047D01*
X105675000Y-84498809D01*
X105627380Y-84403571D01*
X106627380Y-82975000D02*
X106151190Y-83308333D01*
X106627380Y-83546428D02*
X105627380Y-83546428D01*
X105627380Y-83165476D01*
X105675000Y-83070238D01*
X105722619Y-83022619D01*
X105817857Y-82975000D01*
X105960714Y-82975000D01*
X106055952Y-83022619D01*
X106103571Y-83070238D01*
X106151190Y-83165476D01*
X106151190Y-83546428D01*
X106722619Y-82784523D02*
X106722619Y-82022619D01*
X105627380Y-81594047D02*
X105627380Y-81403571D01*
X105675000Y-81308333D01*
X105770238Y-81213095D01*
X105960714Y-81165476D01*
X106294047Y-81165476D01*
X106484523Y-81213095D01*
X106579761Y-81308333D01*
X106627380Y-81403571D01*
X106627380Y-81594047D01*
X106579761Y-81689285D01*
X106484523Y-81784523D01*
X106294047Y-81832142D01*
X105960714Y-81832142D01*
X105770238Y-81784523D01*
X105675000Y-81689285D01*
X105627380Y-81594047D01*
X105627380Y-80736904D02*
X106436904Y-80736904D01*
X106532142Y-80689285D01*
X106579761Y-80641666D01*
X106627380Y-80546428D01*
X106627380Y-80355952D01*
X106579761Y-80260714D01*
X106532142Y-80213095D01*
X106436904Y-80165476D01*
X105627380Y-80165476D01*
X105627380Y-79832142D02*
X105627380Y-79260714D01*
X106627380Y-79546428D02*
X105627380Y-79546428D01*
X173809523Y-88357142D02*
X173761904Y-88404761D01*
X173619047Y-88452380D01*
X173523809Y-88452380D01*
X173380952Y-88404761D01*
X173285714Y-88309523D01*
X173238095Y-88214285D01*
X173190476Y-88023809D01*
X173190476Y-87880952D01*
X173238095Y-87690476D01*
X173285714Y-87595238D01*
X173380952Y-87500000D01*
X173523809Y-87452380D01*
X173619047Y-87452380D01*
X173761904Y-87500000D01*
X173809523Y-87547619D01*
X174190476Y-88166666D02*
X174666666Y-88166666D01*
X174095238Y-88452380D02*
X174428571Y-87452380D01*
X174761904Y-88452380D01*
X175095238Y-88452380D02*
X175095238Y-87452380D01*
X175428571Y-88166666D01*
X175761904Y-87452380D01*
X175761904Y-88452380D01*
X108877380Y-90284523D02*
X107877380Y-90284523D01*
X108591666Y-89951190D01*
X107877380Y-89617857D01*
X108877380Y-89617857D01*
X108877380Y-88617857D02*
X108877380Y-89189285D01*
X108877380Y-88903571D02*
X107877380Y-88903571D01*
X108020238Y-88998809D01*
X108115476Y-89094047D01*
X108163095Y-89189285D01*
X173404761Y-110107142D02*
X173357142Y-110154761D01*
X173214285Y-110202380D01*
X173119047Y-110202380D01*
X172976190Y-110154761D01*
X172880952Y-110059523D01*
X172833333Y-109964285D01*
X172785714Y-109773809D01*
X172785714Y-109630952D01*
X172833333Y-109440476D01*
X172880952Y-109345238D01*
X172976190Y-109250000D01*
X173119047Y-109202380D01*
X173214285Y-109202380D01*
X173357142Y-109250000D01*
X173404761Y-109297619D01*
X173833333Y-110202380D02*
X173833333Y-109202380D01*
X173833333Y-109678571D02*
X174404761Y-109678571D01*
X174404761Y-110202380D02*
X174404761Y-109202380D01*
X174880952Y-110202380D02*
X174880952Y-109202380D01*
X176690476Y-110107142D02*
X176642857Y-110154761D01*
X176500000Y-110202380D01*
X176404761Y-110202380D01*
X176261904Y-110154761D01*
X176166666Y-110059523D01*
X176119047Y-109964285D01*
X176071428Y-109773809D01*
X176071428Y-109630952D01*
X176119047Y-109440476D01*
X176166666Y-109345238D01*
X176261904Y-109250000D01*
X176404761Y-109202380D01*
X176500000Y-109202380D01*
X176642857Y-109250000D01*
X176690476Y-109297619D01*
X177119047Y-110202380D02*
X177119047Y-109202380D01*
X177119047Y-109678571D02*
X177690476Y-109678571D01*
X177690476Y-110202380D02*
X177690476Y-109202380D01*
X178166666Y-110202380D02*
X178166666Y-109202380D01*
X132476190Y-74702380D02*
X132476190Y-75511904D01*
X132523809Y-75607142D01*
X132571428Y-75654761D01*
X132666666Y-75702380D01*
X132857142Y-75702380D01*
X132952380Y-75654761D01*
X133000000Y-75607142D01*
X133047619Y-75511904D01*
X133047619Y-74702380D01*
X133476190Y-75654761D02*
X133619047Y-75702380D01*
X133857142Y-75702380D01*
X133952380Y-75654761D01*
X134000000Y-75607142D01*
X134047619Y-75511904D01*
X134047619Y-75416666D01*
X134000000Y-75321428D01*
X133952380Y-75273809D01*
X133857142Y-75226190D01*
X133666666Y-75178571D01*
X133571428Y-75130952D01*
X133523809Y-75083333D01*
X133476190Y-74988095D01*
X133476190Y-74892857D01*
X133523809Y-74797619D01*
X133571428Y-74750000D01*
X133666666Y-74702380D01*
X133904761Y-74702380D01*
X134047619Y-74750000D01*
X134666666Y-74702380D02*
X134857142Y-74702380D01*
X134952380Y-74750000D01*
X135047619Y-74845238D01*
X135095238Y-75035714D01*
X135095238Y-75369047D01*
X135047619Y-75559523D01*
X134952380Y-75654761D01*
X134857142Y-75702380D01*
X134666666Y-75702380D01*
X134571428Y-75654761D01*
X134476190Y-75559523D01*
X134428571Y-75369047D01*
X134428571Y-75035714D01*
X134476190Y-74845238D01*
X134571428Y-74750000D01*
X134666666Y-74702380D01*
X135523809Y-75702380D02*
X135523809Y-74702380D01*
X136095238Y-75702380D01*
X136095238Y-74702380D01*
X136571428Y-75702380D02*
X136571428Y-74702380D01*
X137619047Y-75607142D02*
X137571428Y-75654761D01*
X137428571Y-75702380D01*
X137333333Y-75702380D01*
X137190476Y-75654761D01*
X137095238Y-75559523D01*
X137047619Y-75464285D01*
X137000000Y-75273809D01*
X137000000Y-75130952D01*
X137047619Y-74940476D01*
X137095238Y-74845238D01*
X137190476Y-74750000D01*
X137333333Y-74702380D01*
X137428571Y-74702380D01*
X137571428Y-74750000D01*
X137619047Y-74797619D01*
X138000000Y-75654761D02*
X138142857Y-75702380D01*
X138380952Y-75702380D01*
X138476190Y-75654761D01*
X138523809Y-75607142D01*
X138571428Y-75511904D01*
X138571428Y-75416666D01*
X138523809Y-75321428D01*
X138476190Y-75273809D01*
X138380952Y-75226190D01*
X138190476Y-75178571D01*
X138095238Y-75130952D01*
X138047619Y-75083333D01*
X138000000Y-74988095D01*
X138000000Y-74892857D01*
X138047619Y-74797619D01*
X138095238Y-74750000D01*
X138190476Y-74702380D01*
X138428571Y-74702380D01*
X138571428Y-74750000D01*
%TO.C,S1*%
X139986913Y-143155389D02*
X140129992Y-143203082D01*
X140368456Y-143203082D01*
X140463842Y-143155389D01*
X140511535Y-143107696D01*
X140559228Y-143012310D01*
X140559228Y-142916925D01*
X140511535Y-142821539D01*
X140463842Y-142773846D01*
X140368456Y-142726153D01*
X140177685Y-142678460D01*
X140082299Y-142630767D01*
X140034606Y-142583074D01*
X139986913Y-142487689D01*
X139986913Y-142392303D01*
X140034606Y-142296917D01*
X140082299Y-142249224D01*
X140177685Y-142201531D01*
X140416149Y-142201531D01*
X140559228Y-142249224D01*
X141513086Y-143203082D02*
X140940771Y-143203082D01*
X141226929Y-143203082D02*
X141226929Y-142201531D01*
X141131543Y-142344610D01*
X141036157Y-142439996D01*
X140940771Y-142487689D01*
%TO.C,U10*%
X191002380Y-139713095D02*
X191811904Y-139713095D01*
X191907142Y-139665476D01*
X191954761Y-139617857D01*
X192002380Y-139522619D01*
X192002380Y-139332142D01*
X191954761Y-139236904D01*
X191907142Y-139189285D01*
X191811904Y-139141666D01*
X191002380Y-139141666D01*
X192002380Y-138141666D02*
X192002380Y-138713095D01*
X192002380Y-138427380D02*
X191002380Y-138427380D01*
X191145238Y-138522619D01*
X191240476Y-138617857D01*
X191288095Y-138713095D01*
X191002380Y-137522619D02*
X191002380Y-137427380D01*
X191050000Y-137332142D01*
X191097619Y-137284523D01*
X191192857Y-137236904D01*
X191383333Y-137189285D01*
X191621428Y-137189285D01*
X191811904Y-137236904D01*
X191907142Y-137284523D01*
X191954761Y-137332142D01*
X192002380Y-137427380D01*
X192002380Y-137522619D01*
X191954761Y-137617857D01*
X191907142Y-137665476D01*
X191811904Y-137713095D01*
X191621428Y-137760714D01*
X191383333Y-137760714D01*
X191192857Y-137713095D01*
X191097619Y-137665476D01*
X191050000Y-137617857D01*
X191002380Y-137522619D01*
%TO.C,R16*%
X126857142Y-125952380D02*
X126523809Y-125476190D01*
X126285714Y-125952380D02*
X126285714Y-124952380D01*
X126666666Y-124952380D01*
X126761904Y-125000000D01*
X126809523Y-125047619D01*
X126857142Y-125142857D01*
X126857142Y-125285714D01*
X126809523Y-125380952D01*
X126761904Y-125428571D01*
X126666666Y-125476190D01*
X126285714Y-125476190D01*
X127809523Y-125952380D02*
X127238095Y-125952380D01*
X127523809Y-125952380D02*
X127523809Y-124952380D01*
X127428571Y-125095238D01*
X127333333Y-125190476D01*
X127238095Y-125238095D01*
X128666666Y-124952380D02*
X128476190Y-124952380D01*
X128380952Y-125000000D01*
X128333333Y-125047619D01*
X128238095Y-125190476D01*
X128190476Y-125380952D01*
X128190476Y-125761904D01*
X128238095Y-125857142D01*
X128285714Y-125904761D01*
X128380952Y-125952380D01*
X128571428Y-125952380D01*
X128666666Y-125904761D01*
X128714285Y-125857142D01*
X128761904Y-125761904D01*
X128761904Y-125523809D01*
X128714285Y-125428571D01*
X128666666Y-125380952D01*
X128571428Y-125333333D01*
X128380952Y-125333333D01*
X128285714Y-125380952D01*
X128238095Y-125428571D01*
X128190476Y-125523809D01*
%TO.C,J15*%
X136985476Y-88804880D02*
X136985476Y-89519166D01*
X136937857Y-89662023D01*
X136842619Y-89757261D01*
X136699761Y-89804880D01*
X136604523Y-89804880D01*
X137985476Y-89804880D02*
X137414047Y-89804880D01*
X137699761Y-89804880D02*
X137699761Y-88804880D01*
X137604523Y-88947738D01*
X137509285Y-89042976D01*
X137414047Y-89090595D01*
X138890238Y-88804880D02*
X138414047Y-88804880D01*
X138366428Y-89281071D01*
X138414047Y-89233452D01*
X138509285Y-89185833D01*
X138747380Y-89185833D01*
X138842619Y-89233452D01*
X138890238Y-89281071D01*
X138937857Y-89376309D01*
X138937857Y-89614404D01*
X138890238Y-89709642D01*
X138842619Y-89757261D01*
X138747380Y-89804880D01*
X138509285Y-89804880D01*
X138414047Y-89757261D01*
X138366428Y-89709642D01*
%TO.C,C2*%
X170482142Y-139666666D02*
X170529761Y-139714285D01*
X170577380Y-139857142D01*
X170577380Y-139952380D01*
X170529761Y-140095238D01*
X170434523Y-140190476D01*
X170339285Y-140238095D01*
X170148809Y-140285714D01*
X170005952Y-140285714D01*
X169815476Y-140238095D01*
X169720238Y-140190476D01*
X169625000Y-140095238D01*
X169577380Y-139952380D01*
X169577380Y-139857142D01*
X169625000Y-139714285D01*
X169672619Y-139666666D01*
X169672619Y-139285714D02*
X169625000Y-139238095D01*
X169577380Y-139142857D01*
X169577380Y-138904761D01*
X169625000Y-138809523D01*
X169672619Y-138761904D01*
X169767857Y-138714285D01*
X169863095Y-138714285D01*
X170005952Y-138761904D01*
X170577380Y-139333333D01*
X170577380Y-138714285D01*
%TO.C,C8*%
X110607142Y-135166666D02*
X110654761Y-135214285D01*
X110702380Y-135357142D01*
X110702380Y-135452380D01*
X110654761Y-135595238D01*
X110559523Y-135690476D01*
X110464285Y-135738095D01*
X110273809Y-135785714D01*
X110130952Y-135785714D01*
X109940476Y-135738095D01*
X109845238Y-135690476D01*
X109750000Y-135595238D01*
X109702380Y-135452380D01*
X109702380Y-135357142D01*
X109750000Y-135214285D01*
X109797619Y-135166666D01*
X110130952Y-134595238D02*
X110083333Y-134690476D01*
X110035714Y-134738095D01*
X109940476Y-134785714D01*
X109892857Y-134785714D01*
X109797619Y-134738095D01*
X109750000Y-134690476D01*
X109702380Y-134595238D01*
X109702380Y-134404761D01*
X109750000Y-134309523D01*
X109797619Y-134261904D01*
X109892857Y-134214285D01*
X109940476Y-134214285D01*
X110035714Y-134261904D01*
X110083333Y-134309523D01*
X110130952Y-134404761D01*
X110130952Y-134595238D01*
X110178571Y-134690476D01*
X110226190Y-134738095D01*
X110321428Y-134785714D01*
X110511904Y-134785714D01*
X110607142Y-134738095D01*
X110654761Y-134690476D01*
X110702380Y-134595238D01*
X110702380Y-134404761D01*
X110654761Y-134309523D01*
X110607142Y-134261904D01*
X110511904Y-134214285D01*
X110321428Y-134214285D01*
X110226190Y-134261904D01*
X110178571Y-134309523D01*
X110130952Y-134404761D01*
%TO.C,J13*%
X115627380Y-74284523D02*
X116341666Y-74284523D01*
X116484523Y-74332142D01*
X116579761Y-74427380D01*
X116627380Y-74570238D01*
X116627380Y-74665476D01*
X116627380Y-73284523D02*
X116627380Y-73855952D01*
X116627380Y-73570238D02*
X115627380Y-73570238D01*
X115770238Y-73665476D01*
X115865476Y-73760714D01*
X115913095Y-73855952D01*
X115627380Y-72951190D02*
X115627380Y-72332142D01*
X116008333Y-72665476D01*
X116008333Y-72522619D01*
X116055952Y-72427380D01*
X116103571Y-72379761D01*
X116198809Y-72332142D01*
X116436904Y-72332142D01*
X116532142Y-72379761D01*
X116579761Y-72427380D01*
X116627380Y-72522619D01*
X116627380Y-72808333D01*
X116579761Y-72903571D01*
X116532142Y-72951190D01*
%TO.C,R23*%
X137607142Y-106052380D02*
X137273809Y-105576190D01*
X137035714Y-106052380D02*
X137035714Y-105052380D01*
X137416666Y-105052380D01*
X137511904Y-105100000D01*
X137559523Y-105147619D01*
X137607142Y-105242857D01*
X137607142Y-105385714D01*
X137559523Y-105480952D01*
X137511904Y-105528571D01*
X137416666Y-105576190D01*
X137035714Y-105576190D01*
X137988095Y-105147619D02*
X138035714Y-105100000D01*
X138130952Y-105052380D01*
X138369047Y-105052380D01*
X138464285Y-105100000D01*
X138511904Y-105147619D01*
X138559523Y-105242857D01*
X138559523Y-105338095D01*
X138511904Y-105480952D01*
X137940476Y-106052380D01*
X138559523Y-106052380D01*
X138892857Y-105052380D02*
X139511904Y-105052380D01*
X139178571Y-105433333D01*
X139321428Y-105433333D01*
X139416666Y-105480952D01*
X139464285Y-105528571D01*
X139511904Y-105623809D01*
X139511904Y-105861904D01*
X139464285Y-105957142D01*
X139416666Y-106004761D01*
X139321428Y-106052380D01*
X139035714Y-106052380D01*
X138940476Y-106004761D01*
X138892857Y-105957142D01*
%TO.C,C1*%
X172982142Y-139666666D02*
X173029761Y-139714285D01*
X173077380Y-139857142D01*
X173077380Y-139952380D01*
X173029761Y-140095238D01*
X172934523Y-140190476D01*
X172839285Y-140238095D01*
X172648809Y-140285714D01*
X172505952Y-140285714D01*
X172315476Y-140238095D01*
X172220238Y-140190476D01*
X172125000Y-140095238D01*
X172077380Y-139952380D01*
X172077380Y-139857142D01*
X172125000Y-139714285D01*
X172172619Y-139666666D01*
X173077380Y-138714285D02*
X173077380Y-139285714D01*
X173077380Y-139000000D02*
X172077380Y-139000000D01*
X172220238Y-139095238D01*
X172315476Y-139190476D01*
X172363095Y-139285714D01*
%TO.C,C7*%
X185570579Y-79527142D02*
X185522960Y-79574761D01*
X185380103Y-79622380D01*
X185284865Y-79622380D01*
X185142007Y-79574761D01*
X185046769Y-79479523D01*
X184999150Y-79384285D01*
X184951531Y-79193809D01*
X184951531Y-79050952D01*
X184999150Y-78860476D01*
X185046769Y-78765238D01*
X185142007Y-78670000D01*
X185284865Y-78622380D01*
X185380103Y-78622380D01*
X185522960Y-78670000D01*
X185570579Y-78717619D01*
X185903912Y-78622380D02*
X186570579Y-78622380D01*
X186142007Y-79622380D01*
%TO.C,J9*%
X192916666Y-120952380D02*
X192916666Y-121666666D01*
X192869047Y-121809523D01*
X192773809Y-121904761D01*
X192630952Y-121952380D01*
X192535714Y-121952380D01*
X193440476Y-121952380D02*
X193630952Y-121952380D01*
X193726190Y-121904761D01*
X193773809Y-121857142D01*
X193869047Y-121714285D01*
X193916666Y-121523809D01*
X193916666Y-121142857D01*
X193869047Y-121047619D01*
X193821428Y-121000000D01*
X193726190Y-120952380D01*
X193535714Y-120952380D01*
X193440476Y-121000000D01*
X193392857Y-121047619D01*
X193345238Y-121142857D01*
X193345238Y-121380952D01*
X193392857Y-121476190D01*
X193440476Y-121523809D01*
X193535714Y-121571428D01*
X193726190Y-121571428D01*
X193821428Y-121523809D01*
X193869047Y-121476190D01*
X193916666Y-121380952D01*
%TO.C,U2*%
X111488095Y-108952380D02*
X111488095Y-109761904D01*
X111535714Y-109857142D01*
X111583333Y-109904761D01*
X111678571Y-109952380D01*
X111869047Y-109952380D01*
X111964285Y-109904761D01*
X112011904Y-109857142D01*
X112059523Y-109761904D01*
X112059523Y-108952380D01*
X112488095Y-109047619D02*
X112535714Y-109000000D01*
X112630952Y-108952380D01*
X112869047Y-108952380D01*
X112964285Y-109000000D01*
X113011904Y-109047619D01*
X113059523Y-109142857D01*
X113059523Y-109238095D01*
X113011904Y-109380952D01*
X112440476Y-109952380D01*
X113059523Y-109952380D01*
%TO.C,C9*%
X133583333Y-105857142D02*
X133535714Y-105904761D01*
X133392857Y-105952380D01*
X133297619Y-105952380D01*
X133154761Y-105904761D01*
X133059523Y-105809523D01*
X133011904Y-105714285D01*
X132964285Y-105523809D01*
X132964285Y-105380952D01*
X133011904Y-105190476D01*
X133059523Y-105095238D01*
X133154761Y-105000000D01*
X133297619Y-104952380D01*
X133392857Y-104952380D01*
X133535714Y-105000000D01*
X133583333Y-105047619D01*
X134059523Y-105952380D02*
X134250000Y-105952380D01*
X134345238Y-105904761D01*
X134392857Y-105857142D01*
X134488095Y-105714285D01*
X134535714Y-105523809D01*
X134535714Y-105142857D01*
X134488095Y-105047619D01*
X134440476Y-105000000D01*
X134345238Y-104952380D01*
X134154761Y-104952380D01*
X134059523Y-105000000D01*
X134011904Y-105047619D01*
X133964285Y-105142857D01*
X133964285Y-105380952D01*
X134011904Y-105476190D01*
X134059523Y-105523809D01*
X134154761Y-105571428D01*
X134345238Y-105571428D01*
X134440476Y-105523809D01*
X134488095Y-105476190D01*
X134535714Y-105380952D01*
%TO.C,R3*%
X124522380Y-97166666D02*
X124046190Y-97500000D01*
X124522380Y-97738095D02*
X123522380Y-97738095D01*
X123522380Y-97357142D01*
X123570000Y-97261904D01*
X123617619Y-97214285D01*
X123712857Y-97166666D01*
X123855714Y-97166666D01*
X123950952Y-97214285D01*
X123998571Y-97261904D01*
X124046190Y-97357142D01*
X124046190Y-97738095D01*
X123522380Y-96833333D02*
X123522380Y-96214285D01*
X123903333Y-96547619D01*
X123903333Y-96404761D01*
X123950952Y-96309523D01*
X123998571Y-96261904D01*
X124093809Y-96214285D01*
X124331904Y-96214285D01*
X124427142Y-96261904D01*
X124474761Y-96309523D01*
X124522380Y-96404761D01*
X124522380Y-96690476D01*
X124474761Y-96785714D01*
X124427142Y-96833333D01*
%TO.C,R14*%
X126857142Y-118952380D02*
X126523809Y-118476190D01*
X126285714Y-118952380D02*
X126285714Y-117952380D01*
X126666666Y-117952380D01*
X126761904Y-118000000D01*
X126809523Y-118047619D01*
X126857142Y-118142857D01*
X126857142Y-118285714D01*
X126809523Y-118380952D01*
X126761904Y-118428571D01*
X126666666Y-118476190D01*
X126285714Y-118476190D01*
X127809523Y-118952380D02*
X127238095Y-118952380D01*
X127523809Y-118952380D02*
X127523809Y-117952380D01*
X127428571Y-118095238D01*
X127333333Y-118190476D01*
X127238095Y-118238095D01*
X128666666Y-118285714D02*
X128666666Y-118952380D01*
X128428571Y-117904761D02*
X128190476Y-118619047D01*
X128809523Y-118619047D01*
%TO.C,R28*%
X145357142Y-140552380D02*
X145023809Y-140076190D01*
X144785714Y-140552380D02*
X144785714Y-139552380D01*
X145166666Y-139552380D01*
X145261904Y-139600000D01*
X145309523Y-139647619D01*
X145357142Y-139742857D01*
X145357142Y-139885714D01*
X145309523Y-139980952D01*
X145261904Y-140028571D01*
X145166666Y-140076190D01*
X144785714Y-140076190D01*
X145738095Y-139647619D02*
X145785714Y-139600000D01*
X145880952Y-139552380D01*
X146119047Y-139552380D01*
X146214285Y-139600000D01*
X146261904Y-139647619D01*
X146309523Y-139742857D01*
X146309523Y-139838095D01*
X146261904Y-139980952D01*
X145690476Y-140552380D01*
X146309523Y-140552380D01*
X146880952Y-139980952D02*
X146785714Y-139933333D01*
X146738095Y-139885714D01*
X146690476Y-139790476D01*
X146690476Y-139742857D01*
X146738095Y-139647619D01*
X146785714Y-139600000D01*
X146880952Y-139552380D01*
X147071428Y-139552380D01*
X147166666Y-139600000D01*
X147214285Y-139647619D01*
X147261904Y-139742857D01*
X147261904Y-139790476D01*
X147214285Y-139885714D01*
X147166666Y-139933333D01*
X147071428Y-139980952D01*
X146880952Y-139980952D01*
X146785714Y-140028571D01*
X146738095Y-140076190D01*
X146690476Y-140171428D01*
X146690476Y-140361904D01*
X146738095Y-140457142D01*
X146785714Y-140504761D01*
X146880952Y-140552380D01*
X147071428Y-140552380D01*
X147166666Y-140504761D01*
X147214285Y-140457142D01*
X147261904Y-140361904D01*
X147261904Y-140171428D01*
X147214285Y-140076190D01*
X147166666Y-140028571D01*
X147071428Y-139980952D01*
%TO.C,J1*%
X200166666Y-105427380D02*
X200166666Y-106141666D01*
X200119047Y-106284523D01*
X200023809Y-106379761D01*
X199880952Y-106427380D01*
X199785714Y-106427380D01*
X201166666Y-106427380D02*
X200595238Y-106427380D01*
X200880952Y-106427380D02*
X200880952Y-105427380D01*
X200785714Y-105570238D01*
X200690476Y-105665476D01*
X200595238Y-105713095D01*
%TO.C,R27*%
X133107142Y-102552380D02*
X132773809Y-102076190D01*
X132535714Y-102552380D02*
X132535714Y-101552380D01*
X132916666Y-101552380D01*
X133011904Y-101600000D01*
X133059523Y-101647619D01*
X133107142Y-101742857D01*
X133107142Y-101885714D01*
X133059523Y-101980952D01*
X133011904Y-102028571D01*
X132916666Y-102076190D01*
X132535714Y-102076190D01*
X133488095Y-101647619D02*
X133535714Y-101600000D01*
X133630952Y-101552380D01*
X133869047Y-101552380D01*
X133964285Y-101600000D01*
X134011904Y-101647619D01*
X134059523Y-101742857D01*
X134059523Y-101838095D01*
X134011904Y-101980952D01*
X133440476Y-102552380D01*
X134059523Y-102552380D01*
X134392857Y-101552380D02*
X135059523Y-101552380D01*
X134630952Y-102552380D01*
%TO.C,U6*%
X154090880Y-72091904D02*
X154900404Y-72091904D01*
X154995642Y-72044285D01*
X155043261Y-71996666D01*
X155090880Y-71901428D01*
X155090880Y-71710952D01*
X155043261Y-71615714D01*
X154995642Y-71568095D01*
X154900404Y-71520476D01*
X154090880Y-71520476D01*
X154090880Y-70615714D02*
X154090880Y-70806190D01*
X154138500Y-70901428D01*
X154186119Y-70949047D01*
X154328976Y-71044285D01*
X154519452Y-71091904D01*
X154900404Y-71091904D01*
X154995642Y-71044285D01*
X155043261Y-70996666D01*
X155090880Y-70901428D01*
X155090880Y-70710952D01*
X155043261Y-70615714D01*
X154995642Y-70568095D01*
X154900404Y-70520476D01*
X154662309Y-70520476D01*
X154567071Y-70568095D01*
X154519452Y-70615714D01*
X154471833Y-70710952D01*
X154471833Y-70901428D01*
X154519452Y-70996666D01*
X154567071Y-71044285D01*
X154662309Y-71091904D01*
%TO.C,J17*%
X127985476Y-88804880D02*
X127985476Y-89519166D01*
X127937857Y-89662023D01*
X127842619Y-89757261D01*
X127699761Y-89804880D01*
X127604523Y-89804880D01*
X128985476Y-89804880D02*
X128414047Y-89804880D01*
X128699761Y-89804880D02*
X128699761Y-88804880D01*
X128604523Y-88947738D01*
X128509285Y-89042976D01*
X128414047Y-89090595D01*
X129318809Y-88804880D02*
X129985476Y-88804880D01*
X129556904Y-89804880D01*
%TO.C,D1*%
X170886904Y-132452380D02*
X170886904Y-131452380D01*
X171125000Y-131452380D01*
X171267857Y-131500000D01*
X171363095Y-131595238D01*
X171410714Y-131690476D01*
X171458333Y-131880952D01*
X171458333Y-132023809D01*
X171410714Y-132214285D01*
X171363095Y-132309523D01*
X171267857Y-132404761D01*
X171125000Y-132452380D01*
X170886904Y-132452380D01*
X172410714Y-132452380D02*
X171839285Y-132452380D01*
X172125000Y-132452380D02*
X172125000Y-131452380D01*
X172029761Y-131595238D01*
X171934523Y-131690476D01*
X171839285Y-131738095D01*
%TO.C,R15*%
X126857142Y-122452380D02*
X126523809Y-121976190D01*
X126285714Y-122452380D02*
X126285714Y-121452380D01*
X126666666Y-121452380D01*
X126761904Y-121500000D01*
X126809523Y-121547619D01*
X126857142Y-121642857D01*
X126857142Y-121785714D01*
X126809523Y-121880952D01*
X126761904Y-121928571D01*
X126666666Y-121976190D01*
X126285714Y-121976190D01*
X127809523Y-122452380D02*
X127238095Y-122452380D01*
X127523809Y-122452380D02*
X127523809Y-121452380D01*
X127428571Y-121595238D01*
X127333333Y-121690476D01*
X127238095Y-121738095D01*
X128714285Y-121452380D02*
X128238095Y-121452380D01*
X128190476Y-121928571D01*
X128238095Y-121880952D01*
X128333333Y-121833333D01*
X128571428Y-121833333D01*
X128666666Y-121880952D01*
X128714285Y-121928571D01*
X128761904Y-122023809D01*
X128761904Y-122261904D01*
X128714285Y-122357142D01*
X128666666Y-122404761D01*
X128571428Y-122452380D01*
X128333333Y-122452380D01*
X128238095Y-122404761D01*
X128190476Y-122357142D01*
%TO.C,R12*%
X126857142Y-111952380D02*
X126523809Y-111476190D01*
X126285714Y-111952380D02*
X126285714Y-110952380D01*
X126666666Y-110952380D01*
X126761904Y-111000000D01*
X126809523Y-111047619D01*
X126857142Y-111142857D01*
X126857142Y-111285714D01*
X126809523Y-111380952D01*
X126761904Y-111428571D01*
X126666666Y-111476190D01*
X126285714Y-111476190D01*
X127809523Y-111952380D02*
X127238095Y-111952380D01*
X127523809Y-111952380D02*
X127523809Y-110952380D01*
X127428571Y-111095238D01*
X127333333Y-111190476D01*
X127238095Y-111238095D01*
X128190476Y-111047619D02*
X128238095Y-111000000D01*
X128333333Y-110952380D01*
X128571428Y-110952380D01*
X128666666Y-111000000D01*
X128714285Y-111047619D01*
X128761904Y-111142857D01*
X128761904Y-111238095D01*
X128714285Y-111380952D01*
X128142857Y-111952380D01*
X128761904Y-111952380D01*
%TO.C,R17*%
X126857142Y-129452380D02*
X126523809Y-128976190D01*
X126285714Y-129452380D02*
X126285714Y-128452380D01*
X126666666Y-128452380D01*
X126761904Y-128500000D01*
X126809523Y-128547619D01*
X126857142Y-128642857D01*
X126857142Y-128785714D01*
X126809523Y-128880952D01*
X126761904Y-128928571D01*
X126666666Y-128976190D01*
X126285714Y-128976190D01*
X127809523Y-129452380D02*
X127238095Y-129452380D01*
X127523809Y-129452380D02*
X127523809Y-128452380D01*
X127428571Y-128595238D01*
X127333333Y-128690476D01*
X127238095Y-128738095D01*
X128142857Y-128452380D02*
X128809523Y-128452380D01*
X128380952Y-129452380D01*
%TO.C,U1*%
X111488095Y-99452380D02*
X111488095Y-100261904D01*
X111535714Y-100357142D01*
X111583333Y-100404761D01*
X111678571Y-100452380D01*
X111869047Y-100452380D01*
X111964285Y-100404761D01*
X112011904Y-100357142D01*
X112059523Y-100261904D01*
X112059523Y-99452380D01*
X113059523Y-100452380D02*
X112488095Y-100452380D01*
X112773809Y-100452380D02*
X112773809Y-99452380D01*
X112678571Y-99595238D01*
X112583333Y-99690476D01*
X112488095Y-99738095D01*
%TO.C,C4*%
X110607142Y-106666666D02*
X110654761Y-106714285D01*
X110702380Y-106857142D01*
X110702380Y-106952380D01*
X110654761Y-107095238D01*
X110559523Y-107190476D01*
X110464285Y-107238095D01*
X110273809Y-107285714D01*
X110130952Y-107285714D01*
X109940476Y-107238095D01*
X109845238Y-107190476D01*
X109750000Y-107095238D01*
X109702380Y-106952380D01*
X109702380Y-106857142D01*
X109750000Y-106714285D01*
X109797619Y-106666666D01*
X110035714Y-105809523D02*
X110702380Y-105809523D01*
X109654761Y-106047619D02*
X110369047Y-106285714D01*
X110369047Y-105666666D01*
%TO.C,U7*%
X111488095Y-137452380D02*
X111488095Y-138261904D01*
X111535714Y-138357142D01*
X111583333Y-138404761D01*
X111678571Y-138452380D01*
X111869047Y-138452380D01*
X111964285Y-138404761D01*
X112011904Y-138357142D01*
X112059523Y-138261904D01*
X112059523Y-137452380D01*
X112440476Y-137452380D02*
X113107142Y-137452380D01*
X112678571Y-138452380D01*
%TO.C,C5*%
X110607142Y-116166666D02*
X110654761Y-116214285D01*
X110702380Y-116357142D01*
X110702380Y-116452380D01*
X110654761Y-116595238D01*
X110559523Y-116690476D01*
X110464285Y-116738095D01*
X110273809Y-116785714D01*
X110130952Y-116785714D01*
X109940476Y-116738095D01*
X109845238Y-116690476D01*
X109750000Y-116595238D01*
X109702380Y-116452380D01*
X109702380Y-116357142D01*
X109750000Y-116214285D01*
X109797619Y-116166666D01*
X109702380Y-115261904D02*
X109702380Y-115738095D01*
X110178571Y-115785714D01*
X110130952Y-115738095D01*
X110083333Y-115642857D01*
X110083333Y-115404761D01*
X110130952Y-115309523D01*
X110178571Y-115261904D01*
X110273809Y-115214285D01*
X110511904Y-115214285D01*
X110607142Y-115261904D01*
X110654761Y-115309523D01*
X110702380Y-115404761D01*
X110702380Y-115642857D01*
X110654761Y-115738095D01*
X110607142Y-115785714D01*
%TO.C,U4*%
X111488095Y-127952380D02*
X111488095Y-128761904D01*
X111535714Y-128857142D01*
X111583333Y-128904761D01*
X111678571Y-128952380D01*
X111869047Y-128952380D01*
X111964285Y-128904761D01*
X112011904Y-128857142D01*
X112059523Y-128761904D01*
X112059523Y-127952380D01*
X112964285Y-128285714D02*
X112964285Y-128952380D01*
X112726190Y-127904761D02*
X112488095Y-128619047D01*
X113107142Y-128619047D01*
%TO.C,R26*%
X114607142Y-130702380D02*
X114273809Y-130226190D01*
X114035714Y-130702380D02*
X114035714Y-129702380D01*
X114416666Y-129702380D01*
X114511904Y-129750000D01*
X114559523Y-129797619D01*
X114607142Y-129892857D01*
X114607142Y-130035714D01*
X114559523Y-130130952D01*
X114511904Y-130178571D01*
X114416666Y-130226190D01*
X114035714Y-130226190D01*
X114988095Y-129797619D02*
X115035714Y-129750000D01*
X115130952Y-129702380D01*
X115369047Y-129702380D01*
X115464285Y-129750000D01*
X115511904Y-129797619D01*
X115559523Y-129892857D01*
X115559523Y-129988095D01*
X115511904Y-130130952D01*
X114940476Y-130702380D01*
X115559523Y-130702380D01*
X116416666Y-129702380D02*
X116226190Y-129702380D01*
X116130952Y-129750000D01*
X116083333Y-129797619D01*
X115988095Y-129940476D01*
X115940476Y-130130952D01*
X115940476Y-130511904D01*
X115988095Y-130607142D01*
X116035714Y-130654761D01*
X116130952Y-130702380D01*
X116321428Y-130702380D01*
X116416666Y-130654761D01*
X116464285Y-130607142D01*
X116511904Y-130511904D01*
X116511904Y-130273809D01*
X116464285Y-130178571D01*
X116416666Y-130130952D01*
X116321428Y-130083333D01*
X116130952Y-130083333D01*
X116035714Y-130130952D01*
X115988095Y-130178571D01*
X115940476Y-130273809D01*
%TO.C,R22*%
X137607142Y-102552380D02*
X137273809Y-102076190D01*
X137035714Y-102552380D02*
X137035714Y-101552380D01*
X137416666Y-101552380D01*
X137511904Y-101600000D01*
X137559523Y-101647619D01*
X137607142Y-101742857D01*
X137607142Y-101885714D01*
X137559523Y-101980952D01*
X137511904Y-102028571D01*
X137416666Y-102076190D01*
X137035714Y-102076190D01*
X137988095Y-101647619D02*
X138035714Y-101600000D01*
X138130952Y-101552380D01*
X138369047Y-101552380D01*
X138464285Y-101600000D01*
X138511904Y-101647619D01*
X138559523Y-101742857D01*
X138559523Y-101838095D01*
X138511904Y-101980952D01*
X137940476Y-102552380D01*
X138559523Y-102552380D01*
X138940476Y-101647619D02*
X138988095Y-101600000D01*
X139083333Y-101552380D01*
X139321428Y-101552380D01*
X139416666Y-101600000D01*
X139464285Y-101647619D01*
X139511904Y-101742857D01*
X139511904Y-101838095D01*
X139464285Y-101980952D01*
X138892857Y-102552380D01*
X139511904Y-102552380D01*
%TO.C,R4*%
X124522380Y-106666666D02*
X124046190Y-107000000D01*
X124522380Y-107238095D02*
X123522380Y-107238095D01*
X123522380Y-106857142D01*
X123570000Y-106761904D01*
X123617619Y-106714285D01*
X123712857Y-106666666D01*
X123855714Y-106666666D01*
X123950952Y-106714285D01*
X123998571Y-106761904D01*
X124046190Y-106857142D01*
X124046190Y-107238095D01*
X123855714Y-105809523D02*
X124522380Y-105809523D01*
X123474761Y-106047619D02*
X124189047Y-106285714D01*
X124189047Y-105666666D01*
%TO.C,J18*%
X169940476Y-87412380D02*
X169940476Y-88126666D01*
X169892857Y-88269523D01*
X169797619Y-88364761D01*
X169654761Y-88412380D01*
X169559523Y-88412380D01*
X170940476Y-88412380D02*
X170369047Y-88412380D01*
X170654761Y-88412380D02*
X170654761Y-87412380D01*
X170559523Y-87555238D01*
X170464285Y-87650476D01*
X170369047Y-87698095D01*
X171511904Y-87840952D02*
X171416666Y-87793333D01*
X171369047Y-87745714D01*
X171321428Y-87650476D01*
X171321428Y-87602857D01*
X171369047Y-87507619D01*
X171416666Y-87460000D01*
X171511904Y-87412380D01*
X171702380Y-87412380D01*
X171797619Y-87460000D01*
X171845238Y-87507619D01*
X171892857Y-87602857D01*
X171892857Y-87650476D01*
X171845238Y-87745714D01*
X171797619Y-87793333D01*
X171702380Y-87840952D01*
X171511904Y-87840952D01*
X171416666Y-87888571D01*
X171369047Y-87936190D01*
X171321428Y-88031428D01*
X171321428Y-88221904D01*
X171369047Y-88317142D01*
X171416666Y-88364761D01*
X171511904Y-88412380D01*
X171702380Y-88412380D01*
X171797619Y-88364761D01*
X171845238Y-88317142D01*
X171892857Y-88221904D01*
X171892857Y-88031428D01*
X171845238Y-87936190D01*
X171797619Y-87888571D01*
X171702380Y-87840952D01*
%TO.C,D6*%
X118511904Y-121202380D02*
X118511904Y-120202380D01*
X118750000Y-120202380D01*
X118892857Y-120250000D01*
X118988095Y-120345238D01*
X119035714Y-120440476D01*
X119083333Y-120630952D01*
X119083333Y-120773809D01*
X119035714Y-120964285D01*
X118988095Y-121059523D01*
X118892857Y-121154761D01*
X118750000Y-121202380D01*
X118511904Y-121202380D01*
X119940476Y-120202380D02*
X119750000Y-120202380D01*
X119654761Y-120250000D01*
X119607142Y-120297619D01*
X119511904Y-120440476D01*
X119464285Y-120630952D01*
X119464285Y-121011904D01*
X119511904Y-121107142D01*
X119559523Y-121154761D01*
X119654761Y-121202380D01*
X119845238Y-121202380D01*
X119940476Y-121154761D01*
X119988095Y-121107142D01*
X120035714Y-121011904D01*
X120035714Y-120773809D01*
X119988095Y-120678571D01*
X119940476Y-120630952D01*
X119845238Y-120583333D01*
X119654761Y-120583333D01*
X119559523Y-120630952D01*
X119511904Y-120678571D01*
X119464285Y-120773809D01*
%TO.C,Q4*%
X192097619Y-114870238D02*
X192050000Y-114965476D01*
X191954761Y-115060714D01*
X191811904Y-115203571D01*
X191764285Y-115298809D01*
X191764285Y-115394047D01*
X192002380Y-115346428D02*
X191954761Y-115441666D01*
X191859523Y-115536904D01*
X191669047Y-115584523D01*
X191335714Y-115584523D01*
X191145238Y-115536904D01*
X191050000Y-115441666D01*
X191002380Y-115346428D01*
X191002380Y-115155952D01*
X191050000Y-115060714D01*
X191145238Y-114965476D01*
X191335714Y-114917857D01*
X191669047Y-114917857D01*
X191859523Y-114965476D01*
X191954761Y-115060714D01*
X192002380Y-115155952D01*
X192002380Y-115346428D01*
X191335714Y-114060714D02*
X192002380Y-114060714D01*
X190954761Y-114298809D02*
X191669047Y-114536904D01*
X191669047Y-113917857D01*
%TO.C,J3*%
X125722380Y-89833333D02*
X126436666Y-89833333D01*
X126579523Y-89880952D01*
X126674761Y-89976190D01*
X126722380Y-90119047D01*
X126722380Y-90214285D01*
X125722380Y-89452380D02*
X125722380Y-88833333D01*
X126103333Y-89166666D01*
X126103333Y-89023809D01*
X126150952Y-88928571D01*
X126198571Y-88880952D01*
X126293809Y-88833333D01*
X126531904Y-88833333D01*
X126627142Y-88880952D01*
X126674761Y-88928571D01*
X126722380Y-89023809D01*
X126722380Y-89309523D01*
X126674761Y-89404761D01*
X126627142Y-89452380D01*
%TO.C,R13*%
X126857142Y-115452380D02*
X126523809Y-114976190D01*
X126285714Y-115452380D02*
X126285714Y-114452380D01*
X126666666Y-114452380D01*
X126761904Y-114500000D01*
X126809523Y-114547619D01*
X126857142Y-114642857D01*
X126857142Y-114785714D01*
X126809523Y-114880952D01*
X126761904Y-114928571D01*
X126666666Y-114976190D01*
X126285714Y-114976190D01*
X127809523Y-115452380D02*
X127238095Y-115452380D01*
X127523809Y-115452380D02*
X127523809Y-114452380D01*
X127428571Y-114595238D01*
X127333333Y-114690476D01*
X127238095Y-114738095D01*
X128142857Y-114452380D02*
X128761904Y-114452380D01*
X128428571Y-114833333D01*
X128571428Y-114833333D01*
X128666666Y-114880952D01*
X128714285Y-114928571D01*
X128761904Y-115023809D01*
X128761904Y-115261904D01*
X128714285Y-115357142D01*
X128666666Y-115404761D01*
X128571428Y-115452380D01*
X128285714Y-115452380D01*
X128190476Y-115404761D01*
X128142857Y-115357142D01*
%TO.C,C6*%
X110607142Y-125666666D02*
X110654761Y-125714285D01*
X110702380Y-125857142D01*
X110702380Y-125952380D01*
X110654761Y-126095238D01*
X110559523Y-126190476D01*
X110464285Y-126238095D01*
X110273809Y-126285714D01*
X110130952Y-126285714D01*
X109940476Y-126238095D01*
X109845238Y-126190476D01*
X109750000Y-126095238D01*
X109702380Y-125952380D01*
X109702380Y-125857142D01*
X109750000Y-125714285D01*
X109797619Y-125666666D01*
X109702380Y-124809523D02*
X109702380Y-125000000D01*
X109750000Y-125095238D01*
X109797619Y-125142857D01*
X109940476Y-125238095D01*
X110130952Y-125285714D01*
X110511904Y-125285714D01*
X110607142Y-125238095D01*
X110654761Y-125190476D01*
X110702380Y-125095238D01*
X110702380Y-124904761D01*
X110654761Y-124809523D01*
X110607142Y-124761904D01*
X110511904Y-124714285D01*
X110273809Y-124714285D01*
X110178571Y-124761904D01*
X110130952Y-124809523D01*
X110083333Y-124904761D01*
X110083333Y-125095238D01*
X110130952Y-125190476D01*
X110178571Y-125238095D01*
X110273809Y-125285714D01*
%TO.C,J7*%
X170416666Y-109202380D02*
X170416666Y-109916666D01*
X170369047Y-110059523D01*
X170273809Y-110154761D01*
X170130952Y-110202380D01*
X170035714Y-110202380D01*
X170797619Y-109202380D02*
X171464285Y-109202380D01*
X171035714Y-110202380D01*
%TO.C,U5*%
X164488095Y-89452380D02*
X164488095Y-90261904D01*
X164535714Y-90357142D01*
X164583333Y-90404761D01*
X164678571Y-90452380D01*
X164869047Y-90452380D01*
X164964285Y-90404761D01*
X165011904Y-90357142D01*
X165059523Y-90261904D01*
X165059523Y-89452380D01*
X166011904Y-89452380D02*
X165535714Y-89452380D01*
X165488095Y-89928571D01*
X165535714Y-89880952D01*
X165630952Y-89833333D01*
X165869047Y-89833333D01*
X165964285Y-89880952D01*
X166011904Y-89928571D01*
X166059523Y-90023809D01*
X166059523Y-90261904D01*
X166011904Y-90357142D01*
X165964285Y-90404761D01*
X165869047Y-90452380D01*
X165630952Y-90452380D01*
X165535714Y-90404761D01*
X165488095Y-90357142D01*
%TO.C,R10*%
X171202380Y-115869921D02*
X170726190Y-116203254D01*
X171202380Y-116441349D02*
X170202380Y-116441349D01*
X170202380Y-116060397D01*
X170250000Y-115965159D01*
X170297619Y-115917540D01*
X170392857Y-115869921D01*
X170535714Y-115869921D01*
X170630952Y-115917540D01*
X170678571Y-115965159D01*
X170726190Y-116060397D01*
X170726190Y-116441349D01*
X171202380Y-114917540D02*
X171202380Y-115488968D01*
X171202380Y-115203254D02*
X170202380Y-115203254D01*
X170345238Y-115298492D01*
X170440476Y-115393730D01*
X170488095Y-115488968D01*
X170202380Y-114298492D02*
X170202380Y-114203254D01*
X170250000Y-114108016D01*
X170297619Y-114060397D01*
X170392857Y-114012778D01*
X170583333Y-113965159D01*
X170821428Y-113965159D01*
X171011904Y-114012778D01*
X171107142Y-114060397D01*
X171154761Y-114108016D01*
X171202380Y-114203254D01*
X171202380Y-114298492D01*
X171154761Y-114393730D01*
X171107142Y-114441349D01*
X171011904Y-114488968D01*
X170821428Y-114536587D01*
X170583333Y-114536587D01*
X170392857Y-114488968D01*
X170297619Y-114441349D01*
X170250000Y-114393730D01*
X170202380Y-114298492D01*
%TO.C,R25*%
X114607142Y-121202380D02*
X114273809Y-120726190D01*
X114035714Y-121202380D02*
X114035714Y-120202380D01*
X114416666Y-120202380D01*
X114511904Y-120250000D01*
X114559523Y-120297619D01*
X114607142Y-120392857D01*
X114607142Y-120535714D01*
X114559523Y-120630952D01*
X114511904Y-120678571D01*
X114416666Y-120726190D01*
X114035714Y-120726190D01*
X114988095Y-120297619D02*
X115035714Y-120250000D01*
X115130952Y-120202380D01*
X115369047Y-120202380D01*
X115464285Y-120250000D01*
X115511904Y-120297619D01*
X115559523Y-120392857D01*
X115559523Y-120488095D01*
X115511904Y-120630952D01*
X114940476Y-121202380D01*
X115559523Y-121202380D01*
X116464285Y-120202380D02*
X115988095Y-120202380D01*
X115940476Y-120678571D01*
X115988095Y-120630952D01*
X116083333Y-120583333D01*
X116321428Y-120583333D01*
X116416666Y-120630952D01*
X116464285Y-120678571D01*
X116511904Y-120773809D01*
X116511904Y-121011904D01*
X116464285Y-121107142D01*
X116416666Y-121154761D01*
X116321428Y-121202380D01*
X116083333Y-121202380D01*
X115988095Y-121154761D01*
X115940476Y-121107142D01*
%TO.C,D4*%
X118511904Y-102202380D02*
X118511904Y-101202380D01*
X118750000Y-101202380D01*
X118892857Y-101250000D01*
X118988095Y-101345238D01*
X119035714Y-101440476D01*
X119083333Y-101630952D01*
X119083333Y-101773809D01*
X119035714Y-101964285D01*
X118988095Y-102059523D01*
X118892857Y-102154761D01*
X118750000Y-102202380D01*
X118511904Y-102202380D01*
X119940476Y-101535714D02*
X119940476Y-102202380D01*
X119702380Y-101154761D02*
X119464285Y-101869047D01*
X120083333Y-101869047D01*
%TO.C,J5*%
X125722380Y-81808333D02*
X126436666Y-81808333D01*
X126579523Y-81855952D01*
X126674761Y-81951190D01*
X126722380Y-82094047D01*
X126722380Y-82189285D01*
X125722380Y-80855952D02*
X125722380Y-81332142D01*
X126198571Y-81379761D01*
X126150952Y-81332142D01*
X126103333Y-81236904D01*
X126103333Y-80998809D01*
X126150952Y-80903571D01*
X126198571Y-80855952D01*
X126293809Y-80808333D01*
X126531904Y-80808333D01*
X126627142Y-80855952D01*
X126674761Y-80903571D01*
X126722380Y-80998809D01*
X126722380Y-81236904D01*
X126674761Y-81332142D01*
X126627142Y-81379761D01*
%TO.C,R1*%
X124522380Y-135166666D02*
X124046190Y-135500000D01*
X124522380Y-135738095D02*
X123522380Y-135738095D01*
X123522380Y-135357142D01*
X123570000Y-135261904D01*
X123617619Y-135214285D01*
X123712857Y-135166666D01*
X123855714Y-135166666D01*
X123950952Y-135214285D01*
X123998571Y-135261904D01*
X124046190Y-135357142D01*
X124046190Y-135738095D01*
X124522380Y-134214285D02*
X124522380Y-134785714D01*
X124522380Y-134500000D02*
X123522380Y-134500000D01*
X123665238Y-134595238D01*
X123760476Y-134690476D01*
X123808095Y-134785714D01*
%TO.C,J8*%
X186318803Y-102682467D02*
X186881233Y-102682467D01*
X186993719Y-102719962D01*
X187068710Y-102794953D01*
X187106205Y-102907439D01*
X187106205Y-102982430D01*
X186656261Y-102195028D02*
X186618766Y-102270018D01*
X186581271Y-102307514D01*
X186506280Y-102345009D01*
X186468785Y-102345009D01*
X186393794Y-102307514D01*
X186356299Y-102270018D01*
X186318803Y-102195028D01*
X186318803Y-102045046D01*
X186356299Y-101970056D01*
X186393794Y-101932560D01*
X186468785Y-101895065D01*
X186506280Y-101895065D01*
X186581271Y-101932560D01*
X186618766Y-101970056D01*
X186656261Y-102045046D01*
X186656261Y-102195028D01*
X186693757Y-102270018D01*
X186731252Y-102307514D01*
X186806243Y-102345009D01*
X186956224Y-102345009D01*
X187031215Y-102307514D01*
X187068710Y-102270018D01*
X187106205Y-102195028D01*
X187106205Y-102045046D01*
X187068710Y-101970056D01*
X187031215Y-101932560D01*
X186956224Y-101895065D01*
X186806243Y-101895065D01*
X186731252Y-101932560D01*
X186693757Y-101970056D01*
X186656261Y-102045046D01*
%TO.C,D3*%
X176732380Y-103158095D02*
X175732380Y-103158095D01*
X175732380Y-102920000D01*
X175780000Y-102777142D01*
X175875238Y-102681904D01*
X175970476Y-102634285D01*
X176160952Y-102586666D01*
X176303809Y-102586666D01*
X176494285Y-102634285D01*
X176589523Y-102681904D01*
X176684761Y-102777142D01*
X176732380Y-102920000D01*
X176732380Y-103158095D01*
X175732380Y-102253333D02*
X175732380Y-101634285D01*
X176113333Y-101967619D01*
X176113333Y-101824761D01*
X176160952Y-101729523D01*
X176208571Y-101681904D01*
X176303809Y-101634285D01*
X176541904Y-101634285D01*
X176637142Y-101681904D01*
X176684761Y-101729523D01*
X176732380Y-101824761D01*
X176732380Y-102110476D01*
X176684761Y-102205714D01*
X176637142Y-102253333D01*
X177102380Y-107761904D02*
X176102380Y-107761904D01*
X177102380Y-107190476D02*
X176530952Y-107619047D01*
X176102380Y-107190476D02*
X176673809Y-107761904D01*
%TO.C,R5*%
X124522380Y-116166666D02*
X124046190Y-116500000D01*
X124522380Y-116738095D02*
X123522380Y-116738095D01*
X123522380Y-116357142D01*
X123570000Y-116261904D01*
X123617619Y-116214285D01*
X123712857Y-116166666D01*
X123855714Y-116166666D01*
X123950952Y-116214285D01*
X123998571Y-116261904D01*
X124046190Y-116357142D01*
X124046190Y-116738095D01*
X123522380Y-115261904D02*
X123522380Y-115738095D01*
X123998571Y-115785714D01*
X123950952Y-115738095D01*
X123903333Y-115642857D01*
X123903333Y-115404761D01*
X123950952Y-115309523D01*
X123998571Y-115261904D01*
X124093809Y-115214285D01*
X124331904Y-115214285D01*
X124427142Y-115261904D01*
X124474761Y-115309523D01*
X124522380Y-115404761D01*
X124522380Y-115642857D01*
X124474761Y-115738095D01*
X124427142Y-115785714D01*
%TO.C,D9*%
X132952380Y-127525595D02*
X131952380Y-127525595D01*
X131952380Y-127287500D01*
X132000000Y-127144642D01*
X132095238Y-127049404D01*
X132190476Y-127001785D01*
X132380952Y-126954166D01*
X132523809Y-126954166D01*
X132714285Y-127001785D01*
X132809523Y-127049404D01*
X132904761Y-127144642D01*
X132952380Y-127287500D01*
X132952380Y-127525595D01*
X132952380Y-126477976D02*
X132952380Y-126287500D01*
X132904761Y-126192261D01*
X132857142Y-126144642D01*
X132714285Y-126049404D01*
X132523809Y-126001785D01*
X132142857Y-126001785D01*
X132047619Y-126049404D01*
X132000000Y-126097023D01*
X131952380Y-126192261D01*
X131952380Y-126382738D01*
X132000000Y-126477976D01*
X132047619Y-126525595D01*
X132142857Y-126573214D01*
X132380952Y-126573214D01*
X132476190Y-126525595D01*
X132523809Y-126477976D01*
X132571428Y-126382738D01*
X132571428Y-126192261D01*
X132523809Y-126097023D01*
X132476190Y-126049404D01*
X132380952Y-126001785D01*
%TO.C,R24*%
X137607142Y-99052380D02*
X137273809Y-98576190D01*
X137035714Y-99052380D02*
X137035714Y-98052380D01*
X137416666Y-98052380D01*
X137511904Y-98100000D01*
X137559523Y-98147619D01*
X137607142Y-98242857D01*
X137607142Y-98385714D01*
X137559523Y-98480952D01*
X137511904Y-98528571D01*
X137416666Y-98576190D01*
X137035714Y-98576190D01*
X137988095Y-98147619D02*
X138035714Y-98100000D01*
X138130952Y-98052380D01*
X138369047Y-98052380D01*
X138464285Y-98100000D01*
X138511904Y-98147619D01*
X138559523Y-98242857D01*
X138559523Y-98338095D01*
X138511904Y-98480952D01*
X137940476Y-99052380D01*
X138559523Y-99052380D01*
X139416666Y-98385714D02*
X139416666Y-99052380D01*
X139178571Y-98004761D02*
X138940476Y-98719047D01*
X139559523Y-98719047D01*
%TO.C,R19*%
X114607142Y-92702380D02*
X114273809Y-92226190D01*
X114035714Y-92702380D02*
X114035714Y-91702380D01*
X114416666Y-91702380D01*
X114511904Y-91750000D01*
X114559523Y-91797619D01*
X114607142Y-91892857D01*
X114607142Y-92035714D01*
X114559523Y-92130952D01*
X114511904Y-92178571D01*
X114416666Y-92226190D01*
X114035714Y-92226190D01*
X115559523Y-92702380D02*
X114988095Y-92702380D01*
X115273809Y-92702380D02*
X115273809Y-91702380D01*
X115178571Y-91845238D01*
X115083333Y-91940476D01*
X114988095Y-91988095D01*
X116035714Y-92702380D02*
X116226190Y-92702380D01*
X116321428Y-92654761D01*
X116369047Y-92607142D01*
X116464285Y-92464285D01*
X116511904Y-92273809D01*
X116511904Y-91892857D01*
X116464285Y-91797619D01*
X116416666Y-91750000D01*
X116321428Y-91702380D01*
X116130952Y-91702380D01*
X116035714Y-91750000D01*
X115988095Y-91797619D01*
X115940476Y-91892857D01*
X115940476Y-92130952D01*
X115988095Y-92226190D01*
X116035714Y-92273809D01*
X116130952Y-92321428D01*
X116321428Y-92321428D01*
X116416666Y-92273809D01*
X116464285Y-92226190D01*
X116511904Y-92130952D01*
%TO.C,J10*%
X192940476Y-128702380D02*
X192940476Y-129416666D01*
X192892857Y-129559523D01*
X192797619Y-129654761D01*
X192654761Y-129702380D01*
X192559523Y-129702380D01*
X193940476Y-129702380D02*
X193369047Y-129702380D01*
X193654761Y-129702380D02*
X193654761Y-128702380D01*
X193559523Y-128845238D01*
X193464285Y-128940476D01*
X193369047Y-128988095D01*
X194559523Y-128702380D02*
X194654761Y-128702380D01*
X194750000Y-128750000D01*
X194797619Y-128797619D01*
X194845238Y-128892857D01*
X194892857Y-129083333D01*
X194892857Y-129321428D01*
X194845238Y-129511904D01*
X194797619Y-129607142D01*
X194750000Y-129654761D01*
X194654761Y-129702380D01*
X194559523Y-129702380D01*
X194464285Y-129654761D01*
X194416666Y-129607142D01*
X194369047Y-129511904D01*
X194321428Y-129321428D01*
X194321428Y-129083333D01*
X194369047Y-128892857D01*
X194416666Y-128797619D01*
X194464285Y-128750000D01*
X194559523Y-128702380D01*
%TO.C,J12*%
X195690476Y-113202380D02*
X195690476Y-113916666D01*
X195642857Y-114059523D01*
X195547619Y-114154761D01*
X195404761Y-114202380D01*
X195309523Y-114202380D01*
X196690476Y-114202380D02*
X196119047Y-114202380D01*
X196404761Y-114202380D02*
X196404761Y-113202380D01*
X196309523Y-113345238D01*
X196214285Y-113440476D01*
X196119047Y-113488095D01*
X197071428Y-113297619D02*
X197119047Y-113250000D01*
X197214285Y-113202380D01*
X197452380Y-113202380D01*
X197547619Y-113250000D01*
X197595238Y-113297619D01*
X197642857Y-113392857D01*
X197642857Y-113488095D01*
X197595238Y-113630952D01*
X197023809Y-114202380D01*
X197642857Y-114202380D01*
%TO.C,J11*%
X199690476Y-113202380D02*
X199690476Y-113916666D01*
X199642857Y-114059523D01*
X199547619Y-114154761D01*
X199404761Y-114202380D01*
X199309523Y-114202380D01*
X200690476Y-114202380D02*
X200119047Y-114202380D01*
X200404761Y-114202380D02*
X200404761Y-113202380D01*
X200309523Y-113345238D01*
X200214285Y-113440476D01*
X200119047Y-113488095D01*
X201642857Y-114202380D02*
X201071428Y-114202380D01*
X201357142Y-114202380D02*
X201357142Y-113202380D01*
X201261904Y-113345238D01*
X201166666Y-113440476D01*
X201071428Y-113488095D01*
%TO.C,R7*%
X127333333Y-101452380D02*
X127000000Y-100976190D01*
X126761904Y-101452380D02*
X126761904Y-100452380D01*
X127142857Y-100452380D01*
X127238095Y-100500000D01*
X127285714Y-100547619D01*
X127333333Y-100642857D01*
X127333333Y-100785714D01*
X127285714Y-100880952D01*
X127238095Y-100928571D01*
X127142857Y-100976190D01*
X126761904Y-100976190D01*
X127666666Y-100452380D02*
X128333333Y-100452380D01*
X127904761Y-101452380D01*
%TO.C,J14*%
X141485476Y-88804880D02*
X141485476Y-89519166D01*
X141437857Y-89662023D01*
X141342619Y-89757261D01*
X141199761Y-89804880D01*
X141104523Y-89804880D01*
X142485476Y-89804880D02*
X141914047Y-89804880D01*
X142199761Y-89804880D02*
X142199761Y-88804880D01*
X142104523Y-88947738D01*
X142009285Y-89042976D01*
X141914047Y-89090595D01*
X143342619Y-89138214D02*
X143342619Y-89804880D01*
X143104523Y-88757261D02*
X142866428Y-89471547D01*
X143485476Y-89471547D01*
%TO.C,D2*%
X118461904Y-92702380D02*
X118461904Y-91702380D01*
X118700000Y-91702380D01*
X118842857Y-91750000D01*
X118938095Y-91845238D01*
X118985714Y-91940476D01*
X119033333Y-92130952D01*
X119033333Y-92273809D01*
X118985714Y-92464285D01*
X118938095Y-92559523D01*
X118842857Y-92654761D01*
X118700000Y-92702380D01*
X118461904Y-92702380D01*
X119414285Y-91797619D02*
X119461904Y-91750000D01*
X119557142Y-91702380D01*
X119795238Y-91702380D01*
X119890476Y-91750000D01*
X119938095Y-91797619D01*
X119985714Y-91892857D01*
X119985714Y-91988095D01*
X119938095Y-92130952D01*
X119366666Y-92702380D01*
X119985714Y-92702380D01*
%TO.C,R20*%
X114607142Y-102202380D02*
X114273809Y-101726190D01*
X114035714Y-102202380D02*
X114035714Y-101202380D01*
X114416666Y-101202380D01*
X114511904Y-101250000D01*
X114559523Y-101297619D01*
X114607142Y-101392857D01*
X114607142Y-101535714D01*
X114559523Y-101630952D01*
X114511904Y-101678571D01*
X114416666Y-101726190D01*
X114035714Y-101726190D01*
X114988095Y-101297619D02*
X115035714Y-101250000D01*
X115130952Y-101202380D01*
X115369047Y-101202380D01*
X115464285Y-101250000D01*
X115511904Y-101297619D01*
X115559523Y-101392857D01*
X115559523Y-101488095D01*
X115511904Y-101630952D01*
X114940476Y-102202380D01*
X115559523Y-102202380D01*
X116178571Y-101202380D02*
X116273809Y-101202380D01*
X116369047Y-101250000D01*
X116416666Y-101297619D01*
X116464285Y-101392857D01*
X116511904Y-101583333D01*
X116511904Y-101821428D01*
X116464285Y-102011904D01*
X116416666Y-102107142D01*
X116369047Y-102154761D01*
X116273809Y-102202380D01*
X116178571Y-102202380D01*
X116083333Y-102154761D01*
X116035714Y-102107142D01*
X115988095Y-102011904D01*
X115940476Y-101821428D01*
X115940476Y-101583333D01*
X115988095Y-101392857D01*
X116035714Y-101297619D01*
X116083333Y-101250000D01*
X116178571Y-101202380D01*
%TO.C,D5*%
X118511904Y-111702380D02*
X118511904Y-110702380D01*
X118750000Y-110702380D01*
X118892857Y-110750000D01*
X118988095Y-110845238D01*
X119035714Y-110940476D01*
X119083333Y-111130952D01*
X119083333Y-111273809D01*
X119035714Y-111464285D01*
X118988095Y-111559523D01*
X118892857Y-111654761D01*
X118750000Y-111702380D01*
X118511904Y-111702380D01*
X119988095Y-110702380D02*
X119511904Y-110702380D01*
X119464285Y-111178571D01*
X119511904Y-111130952D01*
X119607142Y-111083333D01*
X119845238Y-111083333D01*
X119940476Y-111130952D01*
X119988095Y-111178571D01*
X120035714Y-111273809D01*
X120035714Y-111511904D01*
X119988095Y-111607142D01*
X119940476Y-111654761D01*
X119845238Y-111702380D01*
X119607142Y-111702380D01*
X119511904Y-111654761D01*
X119464285Y-111607142D01*
%TO.C,R8*%
X127333333Y-104952380D02*
X127000000Y-104476190D01*
X126761904Y-104952380D02*
X126761904Y-103952380D01*
X127142857Y-103952380D01*
X127238095Y-104000000D01*
X127285714Y-104047619D01*
X127333333Y-104142857D01*
X127333333Y-104285714D01*
X127285714Y-104380952D01*
X127238095Y-104428571D01*
X127142857Y-104476190D01*
X126761904Y-104476190D01*
X127904761Y-104380952D02*
X127809523Y-104333333D01*
X127761904Y-104285714D01*
X127714285Y-104190476D01*
X127714285Y-104142857D01*
X127761904Y-104047619D01*
X127809523Y-104000000D01*
X127904761Y-103952380D01*
X128095238Y-103952380D01*
X128190476Y-104000000D01*
X128238095Y-104047619D01*
X128285714Y-104142857D01*
X128285714Y-104190476D01*
X128238095Y-104285714D01*
X128190476Y-104333333D01*
X128095238Y-104380952D01*
X127904761Y-104380952D01*
X127809523Y-104428571D01*
X127761904Y-104476190D01*
X127714285Y-104571428D01*
X127714285Y-104761904D01*
X127761904Y-104857142D01*
X127809523Y-104904761D01*
X127904761Y-104952380D01*
X128095238Y-104952380D01*
X128190476Y-104904761D01*
X128238095Y-104857142D01*
X128285714Y-104761904D01*
X128285714Y-104571428D01*
X128238095Y-104476190D01*
X128190476Y-104428571D01*
X128095238Y-104380952D01*
%TO.C,Q3*%
X192097619Y-126620238D02*
X192050000Y-126715476D01*
X191954761Y-126810714D01*
X191811904Y-126953571D01*
X191764285Y-127048809D01*
X191764285Y-127144047D01*
X192002380Y-127096428D02*
X191954761Y-127191666D01*
X191859523Y-127286904D01*
X191669047Y-127334523D01*
X191335714Y-127334523D01*
X191145238Y-127286904D01*
X191050000Y-127191666D01*
X191002380Y-127096428D01*
X191002380Y-126905952D01*
X191050000Y-126810714D01*
X191145238Y-126715476D01*
X191335714Y-126667857D01*
X191669047Y-126667857D01*
X191859523Y-126715476D01*
X191954761Y-126810714D01*
X192002380Y-126905952D01*
X192002380Y-127096428D01*
X191002380Y-126334523D02*
X191002380Y-125715476D01*
X191383333Y-126048809D01*
X191383333Y-125905952D01*
X191430952Y-125810714D01*
X191478571Y-125763095D01*
X191573809Y-125715476D01*
X191811904Y-125715476D01*
X191907142Y-125763095D01*
X191954761Y-125810714D01*
X192002380Y-125905952D01*
X192002380Y-126191666D01*
X191954761Y-126286904D01*
X191907142Y-126334523D01*
%TO.C,R9*%
X171202380Y-127666666D02*
X170726190Y-128000000D01*
X171202380Y-128238095D02*
X170202380Y-128238095D01*
X170202380Y-127857142D01*
X170250000Y-127761904D01*
X170297619Y-127714285D01*
X170392857Y-127666666D01*
X170535714Y-127666666D01*
X170630952Y-127714285D01*
X170678571Y-127761904D01*
X170726190Y-127857142D01*
X170726190Y-128238095D01*
X171202380Y-127190476D02*
X171202380Y-127000000D01*
X171154761Y-126904761D01*
X171107142Y-126857142D01*
X170964285Y-126761904D01*
X170773809Y-126714285D01*
X170392857Y-126714285D01*
X170297619Y-126761904D01*
X170250000Y-126809523D01*
X170202380Y-126904761D01*
X170202380Y-127095238D01*
X170250000Y-127190476D01*
X170297619Y-127238095D01*
X170392857Y-127285714D01*
X170630952Y-127285714D01*
X170726190Y-127238095D01*
X170773809Y-127190476D01*
X170821428Y-127095238D01*
X170821428Y-126904761D01*
X170773809Y-126809523D01*
X170726190Y-126761904D01*
X170630952Y-126714285D01*
%TO.C,J16*%
X132485476Y-88804880D02*
X132485476Y-89519166D01*
X132437857Y-89662023D01*
X132342619Y-89757261D01*
X132199761Y-89804880D01*
X132104523Y-89804880D01*
X133485476Y-89804880D02*
X132914047Y-89804880D01*
X133199761Y-89804880D02*
X133199761Y-88804880D01*
X133104523Y-88947738D01*
X133009285Y-89042976D01*
X132914047Y-89090595D01*
X134342619Y-88804880D02*
X134152142Y-88804880D01*
X134056904Y-88852500D01*
X134009285Y-88900119D01*
X133914047Y-89042976D01*
X133866428Y-89233452D01*
X133866428Y-89614404D01*
X133914047Y-89709642D01*
X133961666Y-89757261D01*
X134056904Y-89804880D01*
X134247380Y-89804880D01*
X134342619Y-89757261D01*
X134390238Y-89709642D01*
X134437857Y-89614404D01*
X134437857Y-89376309D01*
X134390238Y-89281071D01*
X134342619Y-89233452D01*
X134247380Y-89185833D01*
X134056904Y-89185833D01*
X133961666Y-89233452D01*
X133914047Y-89281071D01*
X133866428Y-89376309D01*
%TO.C,R11*%
X126857142Y-108452380D02*
X126523809Y-107976190D01*
X126285714Y-108452380D02*
X126285714Y-107452380D01*
X126666666Y-107452380D01*
X126761904Y-107500000D01*
X126809523Y-107547619D01*
X126857142Y-107642857D01*
X126857142Y-107785714D01*
X126809523Y-107880952D01*
X126761904Y-107928571D01*
X126666666Y-107976190D01*
X126285714Y-107976190D01*
X127809523Y-108452380D02*
X127238095Y-108452380D01*
X127523809Y-108452380D02*
X127523809Y-107452380D01*
X127428571Y-107595238D01*
X127333333Y-107690476D01*
X127238095Y-107738095D01*
X128761904Y-108452380D02*
X128190476Y-108452380D01*
X128476190Y-108452380D02*
X128476190Y-107452380D01*
X128380952Y-107595238D01*
X128285714Y-107690476D01*
X128190476Y-107738095D01*
%TO.C,D8*%
X133011904Y-99202380D02*
X133011904Y-98202380D01*
X133250000Y-98202380D01*
X133392857Y-98250000D01*
X133488095Y-98345238D01*
X133535714Y-98440476D01*
X133583333Y-98630952D01*
X133583333Y-98773809D01*
X133535714Y-98964285D01*
X133488095Y-99059523D01*
X133392857Y-99154761D01*
X133250000Y-99202380D01*
X133011904Y-99202380D01*
X134154761Y-98630952D02*
X134059523Y-98583333D01*
X134011904Y-98535714D01*
X133964285Y-98440476D01*
X133964285Y-98392857D01*
X134011904Y-98297619D01*
X134059523Y-98250000D01*
X134154761Y-98202380D01*
X134345238Y-98202380D01*
X134440476Y-98250000D01*
X134488095Y-98297619D01*
X134535714Y-98392857D01*
X134535714Y-98440476D01*
X134488095Y-98535714D01*
X134440476Y-98583333D01*
X134345238Y-98630952D01*
X134154761Y-98630952D01*
X134059523Y-98678571D01*
X134011904Y-98726190D01*
X133964285Y-98821428D01*
X133964285Y-99011904D01*
X134011904Y-99107142D01*
X134059523Y-99154761D01*
X134154761Y-99202380D01*
X134345238Y-99202380D01*
X134440476Y-99154761D01*
X134488095Y-99107142D01*
X134535714Y-99011904D01*
X134535714Y-98821428D01*
X134488095Y-98726190D01*
X134440476Y-98678571D01*
X134345238Y-98630952D01*
%TO.C,R29*%
X136202380Y-127392857D02*
X135726190Y-127726190D01*
X136202380Y-127964285D02*
X135202380Y-127964285D01*
X135202380Y-127583333D01*
X135250000Y-127488095D01*
X135297619Y-127440476D01*
X135392857Y-127392857D01*
X135535714Y-127392857D01*
X135630952Y-127440476D01*
X135678571Y-127488095D01*
X135726190Y-127583333D01*
X135726190Y-127964285D01*
X135297619Y-127011904D02*
X135250000Y-126964285D01*
X135202380Y-126869047D01*
X135202380Y-126630952D01*
X135250000Y-126535714D01*
X135297619Y-126488095D01*
X135392857Y-126440476D01*
X135488095Y-126440476D01*
X135630952Y-126488095D01*
X136202380Y-127059523D01*
X136202380Y-126440476D01*
X136202380Y-125964285D02*
X136202380Y-125773809D01*
X136154761Y-125678571D01*
X136107142Y-125630952D01*
X135964285Y-125535714D01*
X135773809Y-125488095D01*
X135392857Y-125488095D01*
X135297619Y-125535714D01*
X135250000Y-125583333D01*
X135202380Y-125678571D01*
X135202380Y-125869047D01*
X135250000Y-125964285D01*
X135297619Y-126011904D01*
X135392857Y-126059523D01*
X135630952Y-126059523D01*
X135726190Y-126011904D01*
X135773809Y-125964285D01*
X135821428Y-125869047D01*
X135821428Y-125678571D01*
X135773809Y-125583333D01*
X135726190Y-125535714D01*
X135630952Y-125488095D01*
%TO.C,U3*%
X111488095Y-118452380D02*
X111488095Y-119261904D01*
X111535714Y-119357142D01*
X111583333Y-119404761D01*
X111678571Y-119452380D01*
X111869047Y-119452380D01*
X111964285Y-119404761D01*
X112011904Y-119357142D01*
X112059523Y-119261904D01*
X112059523Y-118452380D01*
X112440476Y-118452380D02*
X113059523Y-118452380D01*
X112726190Y-118833333D01*
X112869047Y-118833333D01*
X112964285Y-118880952D01*
X113011904Y-118928571D01*
X113059523Y-119023809D01*
X113059523Y-119261904D01*
X113011904Y-119357142D01*
X112964285Y-119404761D01*
X112869047Y-119452380D01*
X112583333Y-119452380D01*
X112488095Y-119404761D01*
X112440476Y-119357142D01*
%TO.C,J2*%
X196166666Y-105427380D02*
X196166666Y-106141666D01*
X196119047Y-106284523D01*
X196023809Y-106379761D01*
X195880952Y-106427380D01*
X195785714Y-106427380D01*
X196595238Y-105522619D02*
X196642857Y-105475000D01*
X196738095Y-105427380D01*
X196976190Y-105427380D01*
X197071428Y-105475000D01*
X197119047Y-105522619D01*
X197166666Y-105617857D01*
X197166666Y-105713095D01*
X197119047Y-105855952D01*
X196547619Y-106427380D01*
X197166666Y-106427380D01*
%TO.C,U8*%
X134238095Y-108652380D02*
X134238095Y-109461904D01*
X134285714Y-109557142D01*
X134333333Y-109604761D01*
X134428571Y-109652380D01*
X134619047Y-109652380D01*
X134714285Y-109604761D01*
X134761904Y-109557142D01*
X134809523Y-109461904D01*
X134809523Y-108652380D01*
X135428571Y-109080952D02*
X135333333Y-109033333D01*
X135285714Y-108985714D01*
X135238095Y-108890476D01*
X135238095Y-108842857D01*
X135285714Y-108747619D01*
X135333333Y-108700000D01*
X135428571Y-108652380D01*
X135619047Y-108652380D01*
X135714285Y-108700000D01*
X135761904Y-108747619D01*
X135809523Y-108842857D01*
X135809523Y-108890476D01*
X135761904Y-108985714D01*
X135714285Y-109033333D01*
X135619047Y-109080952D01*
X135428571Y-109080952D01*
X135333333Y-109128571D01*
X135285714Y-109176190D01*
X135238095Y-109271428D01*
X135238095Y-109461904D01*
X135285714Y-109557142D01*
X135333333Y-109604761D01*
X135428571Y-109652380D01*
X135619047Y-109652380D01*
X135714285Y-109604761D01*
X135761904Y-109557142D01*
X135809523Y-109461904D01*
X135809523Y-109271428D01*
X135761904Y-109176190D01*
X135714285Y-109128571D01*
X135619047Y-109080952D01*
%TO.C,R21*%
X114607142Y-111702380D02*
X114273809Y-111226190D01*
X114035714Y-111702380D02*
X114035714Y-110702380D01*
X114416666Y-110702380D01*
X114511904Y-110750000D01*
X114559523Y-110797619D01*
X114607142Y-110892857D01*
X114607142Y-111035714D01*
X114559523Y-111130952D01*
X114511904Y-111178571D01*
X114416666Y-111226190D01*
X114035714Y-111226190D01*
X114988095Y-110797619D02*
X115035714Y-110750000D01*
X115130952Y-110702380D01*
X115369047Y-110702380D01*
X115464285Y-110750000D01*
X115511904Y-110797619D01*
X115559523Y-110892857D01*
X115559523Y-110988095D01*
X115511904Y-111130952D01*
X114940476Y-111702380D01*
X115559523Y-111702380D01*
X116511904Y-111702380D02*
X115940476Y-111702380D01*
X116226190Y-111702380D02*
X116226190Y-110702380D01*
X116130952Y-110845238D01*
X116035714Y-110940476D01*
X115940476Y-110988095D01*
%TO.C,R2*%
X127333333Y-97952380D02*
X127000000Y-97476190D01*
X126761904Y-97952380D02*
X126761904Y-96952380D01*
X127142857Y-96952380D01*
X127238095Y-97000000D01*
X127285714Y-97047619D01*
X127333333Y-97142857D01*
X127333333Y-97285714D01*
X127285714Y-97380952D01*
X127238095Y-97428571D01*
X127142857Y-97476190D01*
X126761904Y-97476190D01*
X127714285Y-97047619D02*
X127761904Y-97000000D01*
X127857142Y-96952380D01*
X128095238Y-96952380D01*
X128190476Y-97000000D01*
X128238095Y-97047619D01*
X128285714Y-97142857D01*
X128285714Y-97238095D01*
X128238095Y-97380952D01*
X127666666Y-97952380D01*
X128285714Y-97952380D01*
%TO.C,R18*%
X170982142Y-135802380D02*
X170648809Y-135326190D01*
X170410714Y-135802380D02*
X170410714Y-134802380D01*
X170791666Y-134802380D01*
X170886904Y-134850000D01*
X170934523Y-134897619D01*
X170982142Y-134992857D01*
X170982142Y-135135714D01*
X170934523Y-135230952D01*
X170886904Y-135278571D01*
X170791666Y-135326190D01*
X170410714Y-135326190D01*
X171934523Y-135802380D02*
X171363095Y-135802380D01*
X171648809Y-135802380D02*
X171648809Y-134802380D01*
X171553571Y-134945238D01*
X171458333Y-135040476D01*
X171363095Y-135088095D01*
X172505952Y-135230952D02*
X172410714Y-135183333D01*
X172363095Y-135135714D01*
X172315476Y-135040476D01*
X172315476Y-134992857D01*
X172363095Y-134897619D01*
X172410714Y-134850000D01*
X172505952Y-134802380D01*
X172696428Y-134802380D01*
X172791666Y-134850000D01*
X172839285Y-134897619D01*
X172886904Y-134992857D01*
X172886904Y-135040476D01*
X172839285Y-135135714D01*
X172791666Y-135183333D01*
X172696428Y-135230952D01*
X172505952Y-135230952D01*
X172410714Y-135278571D01*
X172363095Y-135326190D01*
X172315476Y-135421428D01*
X172315476Y-135611904D01*
X172363095Y-135707142D01*
X172410714Y-135754761D01*
X172505952Y-135802380D01*
X172696428Y-135802380D01*
X172791666Y-135754761D01*
X172839285Y-135707142D01*
X172886904Y-135611904D01*
X172886904Y-135421428D01*
X172839285Y-135326190D01*
X172791666Y-135278571D01*
X172696428Y-135230952D01*
%TO.C,J6*%
X125722380Y-77833333D02*
X126436666Y-77833333D01*
X126579523Y-77880952D01*
X126674761Y-77976190D01*
X126722380Y-78119047D01*
X126722380Y-78214285D01*
X125722380Y-76928571D02*
X125722380Y-77119047D01*
X125770000Y-77214285D01*
X125817619Y-77261904D01*
X125960476Y-77357142D01*
X126150952Y-77404761D01*
X126531904Y-77404761D01*
X126627142Y-77357142D01*
X126674761Y-77309523D01*
X126722380Y-77214285D01*
X126722380Y-77023809D01*
X126674761Y-76928571D01*
X126627142Y-76880952D01*
X126531904Y-76833333D01*
X126293809Y-76833333D01*
X126198571Y-76880952D01*
X126150952Y-76928571D01*
X126103333Y-77023809D01*
X126103333Y-77214285D01*
X126150952Y-77309523D01*
X126198571Y-77357142D01*
X126293809Y-77404761D01*
%TO.C,D7*%
X118511904Y-130702380D02*
X118511904Y-129702380D01*
X118750000Y-129702380D01*
X118892857Y-129750000D01*
X118988095Y-129845238D01*
X119035714Y-129940476D01*
X119083333Y-130130952D01*
X119083333Y-130273809D01*
X119035714Y-130464285D01*
X118988095Y-130559523D01*
X118892857Y-130654761D01*
X118750000Y-130702380D01*
X118511904Y-130702380D01*
X119416666Y-129702380D02*
X120083333Y-129702380D01*
X119654761Y-130702380D01*
%TO.C,J4*%
X125702380Y-85808333D02*
X126416666Y-85808333D01*
X126559523Y-85855952D01*
X126654761Y-85951190D01*
X126702380Y-86094047D01*
X126702380Y-86189285D01*
X126035714Y-84903571D02*
X126702380Y-84903571D01*
X125654761Y-85141666D02*
X126369047Y-85379761D01*
X126369047Y-84760714D01*
%TO.C,C3*%
X110607142Y-97166666D02*
X110654761Y-97214285D01*
X110702380Y-97357142D01*
X110702380Y-97452380D01*
X110654761Y-97595238D01*
X110559523Y-97690476D01*
X110464285Y-97738095D01*
X110273809Y-97785714D01*
X110130952Y-97785714D01*
X109940476Y-97738095D01*
X109845238Y-97690476D01*
X109750000Y-97595238D01*
X109702380Y-97452380D01*
X109702380Y-97357142D01*
X109750000Y-97214285D01*
X109797619Y-97166666D01*
X109702380Y-96833333D02*
X109702380Y-96214285D01*
X110083333Y-96547619D01*
X110083333Y-96404761D01*
X110130952Y-96309523D01*
X110178571Y-96261904D01*
X110273809Y-96214285D01*
X110511904Y-96214285D01*
X110607142Y-96261904D01*
X110654761Y-96309523D01*
X110702380Y-96404761D01*
X110702380Y-96690476D01*
X110654761Y-96785714D01*
X110607142Y-96833333D01*
%TO.C,R6*%
X124522380Y-125666666D02*
X124046190Y-126000000D01*
X124522380Y-126238095D02*
X123522380Y-126238095D01*
X123522380Y-125857142D01*
X123570000Y-125761904D01*
X123617619Y-125714285D01*
X123712857Y-125666666D01*
X123855714Y-125666666D01*
X123950952Y-125714285D01*
X123998571Y-125761904D01*
X124046190Y-125857142D01*
X124046190Y-126238095D01*
X123522380Y-124809523D02*
X123522380Y-125000000D01*
X123570000Y-125095238D01*
X123617619Y-125142857D01*
X123760476Y-125238095D01*
X123950952Y-125285714D01*
X124331904Y-125285714D01*
X124427142Y-125238095D01*
X124474761Y-125190476D01*
X124522380Y-125095238D01*
X124522380Y-124904761D01*
X124474761Y-124809523D01*
X124427142Y-124761904D01*
X124331904Y-124714285D01*
X124093809Y-124714285D01*
X123998571Y-124761904D01*
X123950952Y-124809523D01*
X123903333Y-124904761D01*
X123903333Y-125095238D01*
X123950952Y-125190476D01*
X123998571Y-125238095D01*
X124093809Y-125285714D01*
D11*
%TO.C,S1*%
X139458444Y-138249400D02*
X139458444Y-143249400D01*
X139458444Y-143249400D02*
X128458444Y-143249400D01*
X128458444Y-143249400D02*
X128458444Y-138249400D01*
X128458444Y-138249400D02*
X139458444Y-138249400D01*
X132878444Y-138249400D02*
X131828444Y-138249400D01*
D12*
X133958444Y-143369400D02*
X133958444Y-148249400D01*
X133958444Y-148249400D02*
X130558444Y-148249400D01*
X130558444Y-148249400D02*
X130558444Y-143369400D01*
D13*
X140216556Y-135849400D02*
G75*
G03*
X140216556Y-135849400I-158112J0D01*
G01*
D14*
%TO.C,U10*%
X179300000Y-141890000D02*
X178200000Y-141890000D01*
X180800000Y-133300000D02*
X179300000Y-133300000D01*
X179300000Y-135110000D02*
X174175000Y-135110000D01*
X179300000Y-143700000D02*
X179300000Y-141890000D01*
X180800000Y-143700000D02*
X179300000Y-143700000D01*
X179300000Y-133300000D02*
X179300000Y-135110000D01*
%TO.C,R16*%
X127272936Y-126515000D02*
X127727064Y-126515000D01*
X127272936Y-127985000D02*
X127727064Y-127985000D01*
%TO.C,J15*%
X139125000Y-85582500D02*
X136465000Y-85582500D01*
X139125000Y-85582500D02*
X139125000Y-77902500D01*
X139125000Y-86852500D02*
X139125000Y-88182500D01*
X136465000Y-85582500D02*
X136465000Y-77902500D01*
X139125000Y-77902500D02*
X136465000Y-77902500D01*
X139125000Y-88182500D02*
X137795000Y-88182500D01*
%TO.C,C2*%
X170860000Y-142761252D02*
X170860000Y-142238748D01*
X169390000Y-142761252D02*
X169390000Y-142238748D01*
%TO.C,C8*%
X112985000Y-134738748D02*
X112985000Y-135261252D01*
X111515000Y-134738748D02*
X111515000Y-135261252D01*
%TO.C,J13*%
X114780000Y-72145000D02*
X114780000Y-73475000D01*
X112180000Y-74805000D02*
X109580000Y-74805000D01*
X112180000Y-72145000D02*
X109580000Y-72145000D01*
X109580000Y-72145000D02*
X109580000Y-74805000D01*
X112180000Y-72145000D02*
X112180000Y-74805000D01*
X113450000Y-72145000D02*
X114780000Y-72145000D01*
%TO.C,R23*%
X138022936Y-107985000D02*
X138477064Y-107985000D01*
X138022936Y-106515000D02*
X138477064Y-106515000D01*
%TO.C,C1*%
X173360000Y-142761252D02*
X173360000Y-142238748D01*
X171890000Y-142761252D02*
X171890000Y-142238748D01*
%TO.C,C7*%
X187988246Y-79981000D02*
X187988246Y-96019000D01*
X188028246Y-79986000D02*
X188028246Y-96014000D01*
X189828246Y-80432000D02*
X189828246Y-86560000D01*
X194828246Y-85926000D02*
X194828246Y-90074000D01*
X187868246Y-79967000D02*
X187868246Y-96033000D01*
X191748246Y-89440000D02*
X191748246Y-94539000D01*
X189348246Y-80270000D02*
X189348246Y-86560000D01*
X192228246Y-81837000D02*
X192228246Y-94163000D01*
X189948246Y-89440000D02*
X189948246Y-95522000D01*
X188348246Y-80034000D02*
X188348246Y-95966000D01*
X191948246Y-81610000D02*
X191948246Y-86560000D01*
X191988246Y-81642000D02*
X191988246Y-86560000D01*
X190068246Y-80526000D02*
X190068246Y-86560000D01*
X190548246Y-89440000D02*
X190548246Y-95258000D01*
X189308246Y-89440000D02*
X189308246Y-95742000D01*
X192148246Y-89440000D02*
X192148246Y-94230000D01*
X191228246Y-81114000D02*
X191228246Y-86560000D01*
X189748246Y-89440000D02*
X189748246Y-95597000D01*
X189348246Y-89440000D02*
X189348246Y-95730000D01*
X187147246Y-79921000D02*
X187147246Y-96079000D01*
X193548246Y-83254000D02*
X193548246Y-92746000D01*
X192308246Y-81905000D02*
X192308246Y-94095000D01*
X187267246Y-79924000D02*
X187267246Y-96076000D01*
X192148246Y-81770000D02*
X192148246Y-86560000D01*
X190948246Y-80951000D02*
X190948246Y-86560000D01*
X190748246Y-89440000D02*
X190748246Y-95157000D01*
X188988246Y-80170000D02*
X188988246Y-95830000D01*
X187587246Y-79942000D02*
X187587246Y-96058000D01*
X194308246Y-84525000D02*
X194308246Y-91475000D01*
X194028246Y-83993000D02*
X194028246Y-92007000D01*
X191508246Y-89440000D02*
X191508246Y-94706000D01*
X194188246Y-84285000D02*
X194188246Y-91715000D01*
X189548246Y-89440000D02*
X189548246Y-95666000D01*
X192028246Y-89440000D02*
X192028246Y-94327000D01*
X188868246Y-80140000D02*
X188868246Y-95860000D01*
X187547246Y-79939000D02*
X187547246Y-96061000D01*
X191108246Y-89440000D02*
X191108246Y-94958000D01*
X190228246Y-80594000D02*
X190228246Y-86560000D01*
X189588246Y-80347000D02*
X189588246Y-86560000D01*
X190028246Y-89440000D02*
X190028246Y-95490000D01*
X190908246Y-80928000D02*
X190908246Y-86560000D01*
X192388246Y-81975000D02*
X192388246Y-94025000D01*
X191028246Y-89440000D02*
X191028246Y-95004000D01*
X190948246Y-89440000D02*
X190948246Y-95049000D01*
X193588246Y-83309000D02*
X193588246Y-92691000D01*
X189748246Y-80403000D02*
X189748246Y-86560000D01*
X187948246Y-79976000D02*
X187948246Y-96024000D01*
X190308246Y-89440000D02*
X190308246Y-95371000D01*
X188908246Y-80150000D02*
X188908246Y-95850000D01*
X190628246Y-89440000D02*
X190628246Y-95219000D01*
X194588246Y-85180000D02*
X194588246Y-90820000D01*
X193108246Y-82703000D02*
X193108246Y-93297000D01*
X189628246Y-89440000D02*
X189628246Y-95639000D01*
X190508246Y-80722000D02*
X190508246Y-86560000D01*
X189468246Y-80307000D02*
X189468246Y-86560000D01*
X193628246Y-83366000D02*
X193628246Y-92634000D01*
X194628246Y-85289000D02*
X194628246Y-90711000D01*
X191188246Y-89440000D02*
X191188246Y-94910000D01*
X194108246Y-84136000D02*
X194108246Y-91864000D01*
X191828246Y-81520000D02*
X191828246Y-86560000D01*
X189828246Y-89440000D02*
X189828246Y-95568000D01*
X189788246Y-89440000D02*
X189788246Y-95582000D01*
X192708246Y-82276000D02*
X192708246Y-93724000D01*
X188668246Y-80095000D02*
X188668246Y-95905000D01*
X191708246Y-89440000D02*
X191708246Y-94568000D01*
X190748246Y-80843000D02*
X190748246Y-86560000D01*
X189548246Y-80334000D02*
X189548246Y-86560000D01*
X190788246Y-80864000D02*
X190788246Y-86560000D01*
X190188246Y-89440000D02*
X190188246Y-95423000D01*
X194148246Y-84210000D02*
X194148246Y-91790000D01*
X191268246Y-89440000D02*
X191268246Y-94861000D01*
X187107246Y-79920000D02*
X187107246Y-96080000D01*
X194348246Y-84610000D02*
X194348246Y-91390000D01*
X191548246Y-89440000D02*
X191548246Y-94679000D01*
X192108246Y-81737000D02*
X192108246Y-86560000D01*
X178297755Y-83445000D02*
X179897755Y-83445000D01*
X194508246Y-84976000D02*
X194508246Y-91024000D01*
X193668246Y-83423000D02*
X193668246Y-92577000D01*
X189868246Y-89440000D02*
X189868246Y-95553000D01*
X191428246Y-81241000D02*
X191428246Y-86560000D01*
X191788246Y-81490000D02*
X191788246Y-86560000D01*
X191988246Y-89440000D02*
X191988246Y-94358000D01*
X189428246Y-80295000D02*
X189428246Y-86560000D01*
X190428246Y-89440000D02*
X190428246Y-95316000D01*
X191828246Y-89440000D02*
X191828246Y-94480000D01*
X193308246Y-82941000D02*
X193308246Y-93059000D01*
X191548246Y-81321000D02*
X191548246Y-86560000D01*
X189428246Y-89440000D02*
X189428246Y-95705000D01*
X191148246Y-81066000D02*
X191148246Y-86560000D01*
X191428246Y-89440000D02*
X191428246Y-94759000D01*
X191948246Y-89440000D02*
X191948246Y-94390000D01*
X190588246Y-80761000D02*
X190588246Y-86560000D01*
X193268246Y-82892000D02*
X193268246Y-93108000D01*
X188708246Y-80104000D02*
X188708246Y-95896000D01*
X193188246Y-82796000D02*
X193188246Y-93204000D01*
X193988246Y-83924000D02*
X193988246Y-92076000D01*
X190268246Y-80611000D02*
X190268246Y-86560000D01*
X192748246Y-82316000D02*
X192748246Y-93684000D01*
X191508246Y-81294000D02*
X191508246Y-86560000D01*
X192108246Y-89440000D02*
X192108246Y-94263000D01*
X188548246Y-80071000D02*
X188548246Y-95929000D01*
X187507246Y-79936000D02*
X187507246Y-96064000D01*
X191908246Y-89440000D02*
X191908246Y-94420000D01*
X189308246Y-80258000D02*
X189308246Y-86560000D01*
X188428246Y-80048000D02*
X188428246Y-95952000D01*
X192428246Y-82011000D02*
X192428246Y-93989000D01*
X193748246Y-83541000D02*
X193748246Y-92459000D01*
X190388246Y-80666000D02*
X190388246Y-86560000D01*
X188148246Y-80003000D02*
X188148246Y-95997000D01*
X190028246Y-80510000D02*
X190028246Y-86560000D01*
X190708246Y-80822000D02*
X190708246Y-86560000D01*
X191268246Y-81139000D02*
X191268246Y-86560000D01*
X191708246Y-81432000D02*
X191708246Y-86560000D01*
X190788246Y-89440000D02*
X190788246Y-95136000D01*
X193788246Y-83602000D02*
X193788246Y-92398000D01*
X191388246Y-89440000D02*
X191388246Y-94785000D01*
X192668246Y-82237000D02*
X192668246Y-93763000D01*
X187187246Y-79922000D02*
X187187246Y-96078000D01*
X188308246Y-80028000D02*
X188308246Y-95972000D01*
X189868246Y-80447000D02*
X189868246Y-86560000D01*
X190348246Y-89440000D02*
X190348246Y-95353000D01*
X191468246Y-81267000D02*
X191468246Y-86560000D01*
X191108246Y-81042000D02*
X191108246Y-86560000D01*
X193708246Y-83481000D02*
X193708246Y-92519000D01*
X191788246Y-89440000D02*
X191788246Y-94510000D01*
X191908246Y-81580000D02*
X191908246Y-86560000D01*
X189988246Y-80494000D02*
X189988246Y-86560000D01*
X194468246Y-84880000D02*
X194468246Y-91120000D01*
X192068246Y-81705000D02*
X192068246Y-86560000D01*
X190148246Y-89440000D02*
X190148246Y-95440000D01*
X190908246Y-89440000D02*
X190908246Y-95072000D01*
X191308246Y-81164000D02*
X191308246Y-86560000D01*
X189268246Y-80246000D02*
X189268246Y-95754000D01*
X192588246Y-82160000D02*
X192588246Y-93840000D01*
X189668246Y-89440000D02*
X189668246Y-95625000D01*
X194708246Y-85522000D02*
X194708246Y-90478000D01*
X190588246Y-89440000D02*
X190588246Y-95239000D01*
X188468246Y-80056000D02*
X188468246Y-95944000D01*
X194868246Y-86080000D02*
X194868246Y-89920000D01*
X189628246Y-80361000D02*
X189628246Y-86560000D01*
X188788246Y-80122000D02*
X188788246Y-95878000D01*
X192948246Y-82525000D02*
X192948246Y-93475000D01*
X194228246Y-84363000D02*
X194228246Y-91637000D01*
X192028246Y-81673000D02*
X192028246Y-86560000D01*
X188388246Y-80041000D02*
X188388246Y-95959000D01*
X190428246Y-80684000D02*
X190428246Y-86560000D01*
X192628246Y-82198000D02*
X192628246Y-93802000D01*
X191348246Y-89440000D02*
X191348246Y-94811000D01*
X191668246Y-81404000D02*
X191668246Y-86560000D01*
X187708246Y-79951000D02*
X187708246Y-96049000D01*
X192908246Y-82482000D02*
X192908246Y-93518000D01*
X195028246Y-86902000D02*
X195028246Y-89098000D01*
X190148246Y-80560000D02*
X190148246Y-86560000D01*
X190868246Y-80906000D02*
X190868246Y-86560000D01*
X194268246Y-84443000D02*
X194268246Y-91557000D01*
X190708246Y-89440000D02*
X190708246Y-95178000D01*
X193068246Y-82657000D02*
X193068246Y-93343000D01*
X187347246Y-79927000D02*
X187347246Y-96073000D01*
X194988246Y-86649000D02*
X194988246Y-89351000D01*
X188228246Y-80015000D02*
X188228246Y-95985000D01*
X191028246Y-80996000D02*
X191028246Y-86560000D01*
X190108246Y-89440000D02*
X190108246Y-95457000D01*
X193948246Y-83857000D02*
X193948246Y-92143000D01*
X187227246Y-79923000D02*
X187227246Y-96077000D01*
X194388246Y-84697000D02*
X194388246Y-91303000D01*
X188628246Y-80087000D02*
X188628246Y-95913000D01*
X188268246Y-80021000D02*
X188268246Y-95979000D01*
X179097755Y-82645000D02*
X179097755Y-84245000D01*
X193828246Y-83664000D02*
X193828246Y-92336000D01*
X193468246Y-83146000D02*
X193468246Y-92854000D01*
X187307246Y-79926000D02*
X187307246Y-96074000D01*
X190508246Y-89440000D02*
X190508246Y-95278000D01*
X187027246Y-79920000D02*
X187027246Y-96080000D01*
X193148246Y-82749000D02*
X193148246Y-93251000D01*
X193388246Y-83042000D02*
X193388246Y-92958000D01*
X191628246Y-89440000D02*
X191628246Y-94624000D01*
X189508246Y-89440000D02*
X189508246Y-95680000D01*
X193228246Y-82844000D02*
X193228246Y-93156000D01*
X188588246Y-80079000D02*
X188588246Y-95921000D01*
X193428246Y-83094000D02*
X193428246Y-92906000D01*
X187908246Y-79972000D02*
X187908246Y-96028000D01*
X189908246Y-89440000D02*
X189908246Y-95537000D01*
X190308246Y-80629000D02*
X190308246Y-86560000D01*
X190468246Y-89440000D02*
X190468246Y-95297000D01*
X194548246Y-85076000D02*
X194548246Y-90924000D01*
X189148246Y-80212000D02*
X189148246Y-95788000D01*
X190188246Y-80577000D02*
X190188246Y-86560000D01*
X191748246Y-81461000D02*
X191748246Y-86560000D01*
X194748246Y-85649000D02*
X194748246Y-90351000D01*
X187667246Y-79948000D02*
X187667246Y-96052000D01*
X191468246Y-89440000D02*
X191468246Y-94733000D01*
X192188246Y-81803000D02*
X192188246Y-94197000D01*
X192988246Y-82568000D02*
X192988246Y-93432000D01*
X189468246Y-89440000D02*
X189468246Y-95693000D01*
X191388246Y-81215000D02*
X191388246Y-86560000D01*
X194668246Y-85403000D02*
X194668246Y-90597000D01*
X194948246Y-86436000D02*
X194948246Y-89564000D01*
X193028246Y-82612000D02*
X193028246Y-93388000D01*
X189668246Y-80375000D02*
X189668246Y-86560000D01*
X192468246Y-82048000D02*
X192468246Y-93952000D01*
X187067246Y-79920000D02*
X187067246Y-96080000D01*
X187788246Y-79959000D02*
X187788246Y-96041000D01*
X192868246Y-82440000D02*
X192868246Y-93560000D01*
X192068246Y-89440000D02*
X192068246Y-94295000D01*
X187828246Y-79963000D02*
X187828246Y-96037000D01*
X193908246Y-83791000D02*
X193908246Y-92209000D01*
X186987246Y-79919000D02*
X186987246Y-96081000D01*
X192828246Y-82398000D02*
X192828246Y-93602000D01*
X189908246Y-80463000D02*
X189908246Y-86560000D01*
X190268246Y-89440000D02*
X190268246Y-95389000D01*
X189108246Y-80201000D02*
X189108246Y-95799000D01*
X194068246Y-84064000D02*
X194068246Y-91936000D01*
X191588246Y-81348000D02*
X191588246Y-86560000D01*
X192788246Y-82357000D02*
X192788246Y-93643000D01*
X190348246Y-80647000D02*
X190348246Y-86560000D01*
X190828246Y-89440000D02*
X190828246Y-95115000D01*
X191188246Y-81090000D02*
X191188246Y-86560000D01*
X189228246Y-80235000D02*
X189228246Y-95765000D01*
X189788246Y-80418000D02*
X189788246Y-86560000D01*
X190828246Y-80885000D02*
X190828246Y-86560000D01*
X189028246Y-80180000D02*
X189028246Y-95820000D01*
X189588246Y-89440000D02*
X189588246Y-95653000D01*
X194908246Y-86248000D02*
X194908246Y-89752000D01*
X189188246Y-80223000D02*
X189188246Y-95777000D01*
X188748246Y-80113000D02*
X188748246Y-95887000D01*
X193868246Y-83727000D02*
X193868246Y-92273000D01*
X195068246Y-87235000D02*
X195068246Y-88765000D01*
X191068246Y-89440000D02*
X191068246Y-94981000D01*
X188188246Y-80009000D02*
X188188246Y-95991000D01*
X192348246Y-81940000D02*
X192348246Y-94060000D01*
X188948246Y-80160000D02*
X188948246Y-95840000D01*
X190868246Y-89440000D02*
X190868246Y-95094000D01*
X187748246Y-79955000D02*
X187748246Y-96045000D01*
X190988246Y-89440000D02*
X190988246Y-95027000D01*
X194788246Y-85782000D02*
X194788246Y-90218000D01*
X189508246Y-80320000D02*
X189508246Y-86560000D01*
X191068246Y-81019000D02*
X191068246Y-86560000D01*
X190108246Y-80543000D02*
X190108246Y-86560000D01*
X191868246Y-81550000D02*
X191868246Y-86560000D01*
X191148246Y-89440000D02*
X191148246Y-94934000D01*
X192548246Y-82122000D02*
X192548246Y-93878000D01*
X189388246Y-80282000D02*
X189388246Y-86560000D01*
X190468246Y-80703000D02*
X190468246Y-86560000D01*
X188508246Y-80063000D02*
X188508246Y-95937000D01*
X191668246Y-89440000D02*
X191668246Y-94596000D01*
X191348246Y-81189000D02*
X191348246Y-86560000D01*
X189948246Y-80478000D02*
X189948246Y-86560000D01*
X187427246Y-79931000D02*
X187427246Y-96069000D01*
X191628246Y-81376000D02*
X191628246Y-86560000D01*
X188108246Y-79997000D02*
X188108246Y-96003000D01*
X191588246Y-89440000D02*
X191588246Y-94652000D01*
X187467246Y-79934000D02*
X187467246Y-96066000D01*
X189988246Y-89440000D02*
X189988246Y-95506000D01*
X190988246Y-80973000D02*
X190988246Y-86560000D01*
X191868246Y-89440000D02*
X191868246Y-94450000D01*
X189068246Y-80190000D02*
X189068246Y-95810000D01*
X190228246Y-89440000D02*
X190228246Y-95406000D01*
X189388246Y-89440000D02*
X189388246Y-95718000D01*
X187387246Y-79929000D02*
X187387246Y-96071000D01*
X192268246Y-81871000D02*
X192268246Y-94129000D01*
X190548246Y-80742000D02*
X190548246Y-86560000D01*
X189708246Y-80389000D02*
X189708246Y-86560000D01*
X187627246Y-79945000D02*
X187627246Y-96055000D01*
X193508246Y-83200000D02*
X193508246Y-92800000D01*
X193348246Y-82991000D02*
X193348246Y-93009000D01*
X188068246Y-79992000D02*
X188068246Y-96008000D01*
X190628246Y-80781000D02*
X190628246Y-86560000D01*
X188828246Y-80131000D02*
X188828246Y-95869000D01*
X191308246Y-89440000D02*
X191308246Y-94836000D01*
X192508246Y-82084000D02*
X192508246Y-93916000D01*
X194428246Y-84787000D02*
X194428246Y-91213000D01*
X189708246Y-89440000D02*
X189708246Y-95611000D01*
X190388246Y-89440000D02*
X190388246Y-95334000D01*
X190668246Y-89440000D02*
X190668246Y-95199000D01*
X191228246Y-89440000D02*
X191228246Y-94886000D01*
X190668246Y-80801000D02*
X190668246Y-86560000D01*
X190068246Y-89440000D02*
X190068246Y-95474000D01*
X195107246Y-88000000D02*
G75*
G03*
X195107246Y-88000000I-8120000J0D01*
G01*
%TO.C,J9*%
X204350000Y-124380000D02*
X198350000Y-124380000D01*
X198350000Y-123800000D02*
X204350000Y-123800000D01*
X198350000Y-123920000D02*
X204350000Y-123920000D01*
X198350000Y-123620000D02*
X204350000Y-123620000D01*
X198350000Y-122670000D02*
X195690000Y-122670000D01*
X198350000Y-124160000D02*
X204350000Y-124160000D01*
X195690000Y-127870000D02*
X198350000Y-127870000D01*
X195292929Y-126920000D02*
X195690000Y-126920000D01*
X204350000Y-123620000D02*
X204350000Y-124380000D01*
X195360000Y-124380000D02*
X195690000Y-124380000D01*
X195690000Y-122670000D02*
X195690000Y-127870000D01*
X192980000Y-124000000D02*
X192980000Y-122730000D01*
X204350000Y-126160000D02*
X204350000Y-126920000D01*
X204350000Y-126920000D02*
X198350000Y-126920000D01*
X192980000Y-122730000D02*
X194250000Y-122730000D01*
X198350000Y-124040000D02*
X204350000Y-124040000D01*
X198350000Y-124280000D02*
X204350000Y-124280000D01*
X195690000Y-125270000D02*
X198350000Y-125270000D01*
X198350000Y-126160000D02*
X204350000Y-126160000D01*
X195292929Y-126160000D02*
X195690000Y-126160000D01*
X198350000Y-127870000D02*
X198350000Y-122670000D01*
X198350000Y-123680000D02*
X204350000Y-123680000D01*
X195360000Y-123620000D02*
X195690000Y-123620000D01*
D11*
%TO.C,U2*%
X119200000Y-110025000D02*
X115300000Y-110025000D01*
X119200000Y-104975000D02*
X115300000Y-104975000D01*
D13*
X121420000Y-109405000D02*
G75*
G03*
X121420000Y-109405000I-100000J0D01*
G01*
D14*
%TO.C,C9*%
X134011252Y-106515000D02*
X133488748Y-106515000D01*
X134011252Y-107985000D02*
X133488748Y-107985000D01*
%TO.C,R3*%
X123160000Y-96272936D02*
X123160000Y-97727064D01*
X121340000Y-96272936D02*
X121340000Y-97727064D01*
%TO.C,R14*%
X127272936Y-120985000D02*
X127727064Y-120985000D01*
X127272936Y-119515000D02*
X127727064Y-119515000D01*
%TO.C,R28*%
X145772936Y-141015000D02*
X146227064Y-141015000D01*
X145772936Y-142485000D02*
X146227064Y-142485000D01*
%TO.C,J1*%
X199170000Y-109720000D02*
X199170000Y-112320000D01*
X201830000Y-109720000D02*
X201830000Y-112320000D01*
X199170000Y-109720000D02*
X201830000Y-109720000D01*
X199170000Y-107120000D02*
X200500000Y-107120000D01*
X199170000Y-112320000D02*
X201830000Y-112320000D01*
X199170000Y-108450000D02*
X199170000Y-107120000D01*
%TO.C,R27*%
X133522936Y-104485000D02*
X133977064Y-104485000D01*
X133522936Y-103015000D02*
X133977064Y-103015000D01*
%TO.C,U6*%
X147406500Y-83709000D02*
X147406500Y-81049000D01*
X146136500Y-83709000D02*
X144806500Y-83709000D01*
X165246500Y-83709000D02*
X165246500Y-81049000D01*
X147406500Y-83709000D02*
X165246500Y-83709000D01*
X144806500Y-83709000D02*
X144806500Y-82379000D01*
X147406500Y-81049000D02*
X165246500Y-81049000D01*
X144806500Y-83709000D02*
X165246500Y-83709000D01*
X165246500Y-83709000D02*
X165246500Y-63202000D01*
X165246500Y-63202000D02*
X144806500Y-63202000D01*
X144806500Y-63202000D02*
X144806500Y-83709000D01*
%TO.C,J17*%
X130125000Y-85582500D02*
X127465000Y-85582500D01*
X127465000Y-85582500D02*
X127465000Y-77902500D01*
X130125000Y-86852500D02*
X130125000Y-88182500D01*
X130125000Y-85582500D02*
X130125000Y-77902500D01*
X130125000Y-88182500D02*
X128795000Y-88182500D01*
X130125000Y-77902500D02*
X127465000Y-77902500D01*
%TO.C,D1*%
X173110000Y-134235000D02*
X173110000Y-132765000D01*
X173110000Y-132765000D02*
X170825000Y-132765000D01*
X170825000Y-134235000D02*
X173110000Y-134235000D01*
%TO.C,R15*%
X127272936Y-123015000D02*
X127727064Y-123015000D01*
X127272936Y-124485000D02*
X127727064Y-124485000D01*
%TO.C,R12*%
X127272936Y-112515000D02*
X127727064Y-112515000D01*
X127272936Y-113985000D02*
X127727064Y-113985000D01*
%TO.C,R17*%
X127272936Y-131485000D02*
X127727064Y-131485000D01*
X127272936Y-130015000D02*
X127727064Y-130015000D01*
D11*
%TO.C,U1*%
X119200000Y-100525000D02*
X115300000Y-100525000D01*
X119200000Y-95475000D02*
X115300000Y-95475000D01*
D13*
X121420000Y-99905000D02*
G75*
G03*
X121420000Y-99905000I-100000J0D01*
G01*
D14*
%TO.C,C4*%
X111515000Y-106238748D02*
X111515000Y-106761252D01*
X112985000Y-106238748D02*
X112985000Y-106761252D01*
D11*
%TO.C,U7*%
X119200000Y-138525000D02*
X115300000Y-138525000D01*
X119200000Y-133475000D02*
X115300000Y-133475000D01*
D13*
X121420000Y-137905000D02*
G75*
G03*
X121420000Y-137905000I-100000J0D01*
G01*
D14*
%TO.C,C5*%
X111515000Y-115738748D02*
X111515000Y-116261252D01*
X112985000Y-115738748D02*
X112985000Y-116261252D01*
D11*
%TO.C,U4*%
X119200000Y-129025000D02*
X115300000Y-129025000D01*
X119200000Y-123975000D02*
X115300000Y-123975000D01*
D13*
X121420000Y-128405000D02*
G75*
G03*
X121420000Y-128405000I-100000J0D01*
G01*
D14*
%TO.C,R26*%
X115477064Y-131265000D02*
X115022936Y-131265000D01*
X115477064Y-132735000D02*
X115022936Y-132735000D01*
%TO.C,R22*%
X138022936Y-103015000D02*
X138477064Y-103015000D01*
X138022936Y-104485000D02*
X138477064Y-104485000D01*
%TO.C,R4*%
X121340000Y-105772936D02*
X121340000Y-107227064D01*
X123160000Y-105772936D02*
X123160000Y-107227064D01*
%TO.C,J18*%
X170125000Y-99360000D02*
X175325000Y-99360000D01*
X172725000Y-91680000D02*
X172725000Y-89080000D01*
X170125000Y-89080000D02*
X171455000Y-89080000D01*
X170125000Y-91680000D02*
X172725000Y-91680000D01*
X170125000Y-91680000D02*
X170125000Y-99360000D01*
X175325000Y-89080000D02*
X175325000Y-99360000D01*
X172725000Y-89080000D02*
X175325000Y-89080000D01*
X170125000Y-90410000D02*
X170125000Y-89080000D01*
%TO.C,D6*%
X120735000Y-123235000D02*
X120735000Y-121765000D01*
X120735000Y-121765000D02*
X118450000Y-121765000D01*
X118450000Y-123235000D02*
X120735000Y-123235000D01*
%TO.C,Q4*%
X179300000Y-111610000D02*
X174175000Y-111610000D01*
X179300000Y-118390000D02*
X178200000Y-118390000D01*
X179300000Y-109800000D02*
X179300000Y-111610000D01*
X179300000Y-120200000D02*
X179300000Y-118390000D01*
X180800000Y-109800000D02*
X179300000Y-109800000D01*
X180800000Y-120200000D02*
X179300000Y-120200000D01*
%TO.C,J3*%
X122230000Y-88170000D02*
X122230000Y-90830000D01*
X124830000Y-90830000D02*
X123500000Y-90830000D01*
X122230000Y-88170000D02*
X109470000Y-88170000D01*
X109470000Y-88170000D02*
X109470000Y-90830000D01*
X122230000Y-90830000D02*
X109470000Y-90830000D01*
X124830000Y-89500000D02*
X124830000Y-90830000D01*
%TO.C,R13*%
X127272936Y-117485000D02*
X127727064Y-117485000D01*
X127272936Y-116015000D02*
X127727064Y-116015000D01*
%TO.C,C6*%
X111515000Y-125238748D02*
X111515000Y-125761252D01*
X112985000Y-125238748D02*
X112985000Y-125761252D01*
D13*
%TO.C,J7*%
X175205000Y-108775000D02*
X170255000Y-108775000D01*
X170255000Y-100645000D02*
X175205000Y-100645000D01*
X175205000Y-100645000D02*
X175205000Y-108775000D01*
X170255000Y-100645000D02*
X170255000Y-108775000D01*
X174100000Y-99995000D02*
G75*
G03*
X174100000Y-99995000I-100000J0D01*
G01*
D11*
%TO.C,U5*%
X159060000Y-139100000D02*
X168950000Y-139100000D01*
X141050000Y-90900000D02*
X141050000Y-139100000D01*
X141050000Y-139100000D02*
X150930000Y-139100000D01*
X164000000Y-84700000D02*
X164000000Y-90900000D01*
X146000000Y-90900000D02*
X146000000Y-84700000D01*
X150930000Y-139100000D02*
X150930000Y-140000000D01*
X168950000Y-139100000D02*
X168950000Y-90900000D01*
X146000000Y-90900000D02*
X141050000Y-90900000D01*
X159060000Y-140000000D02*
X159060000Y-139100000D01*
X146000000Y-84700000D02*
X164000000Y-84700000D01*
X150930000Y-140000000D02*
X159060000Y-140000000D01*
X168950000Y-90900000D02*
X164000000Y-90900000D01*
D13*
X140530000Y-92030000D02*
G75*
G03*
X140530000Y-92030000I-100000J0D01*
G01*
D14*
%TO.C,R10*%
X173485000Y-114772936D02*
X173485000Y-115227064D01*
X172015000Y-114772936D02*
X172015000Y-115227064D01*
%TO.C,R25*%
X115477064Y-121765000D02*
X115022936Y-121765000D01*
X115477064Y-123235000D02*
X115022936Y-123235000D01*
%TO.C,D4*%
X120735000Y-104235000D02*
X120735000Y-102765000D01*
X120735000Y-102765000D02*
X118450000Y-102765000D01*
X118450000Y-104235000D02*
X120735000Y-104235000D01*
%TO.C,J5*%
X122230000Y-82805000D02*
X109470000Y-82805000D01*
X122230000Y-80145000D02*
X109470000Y-80145000D01*
X124830000Y-81475000D02*
X124830000Y-82805000D01*
X109470000Y-80145000D02*
X109470000Y-82805000D01*
X124830000Y-82805000D02*
X123500000Y-82805000D01*
X122230000Y-80145000D02*
X122230000Y-82805000D01*
%TO.C,R1*%
X121340000Y-134272936D02*
X121340000Y-135727064D01*
X123160000Y-134272936D02*
X123160000Y-135727064D01*
D11*
%TO.C,J8*%
X191050000Y-107420000D02*
X182750000Y-107420000D01*
X182750000Y-97420000D02*
X191050000Y-97420000D01*
X182750000Y-107420000D02*
X182750000Y-97420000D01*
X191050000Y-97420000D02*
X191050000Y-107420000D01*
D15*
X185390000Y-106220000D02*
G75*
G03*
X185390000Y-106220000I-140000J0D01*
G01*
D14*
%TO.C,D3*%
X177280000Y-104120000D02*
X180220000Y-104120000D01*
X177280000Y-104360000D02*
X180220000Y-104360000D01*
X177280000Y-104240000D02*
X180220000Y-104240000D01*
X178750000Y-106160000D02*
X178750000Y-105140000D01*
X180220000Y-99700000D02*
X177280000Y-99700000D01*
X178750000Y-98680000D02*
X178750000Y-99700000D01*
X177280000Y-99700000D02*
X177280000Y-105140000D01*
X180220000Y-105140000D02*
X180220000Y-99700000D01*
X177280000Y-105140000D02*
X180220000Y-105140000D01*
%TO.C,R5*%
X123160000Y-115272936D02*
X123160000Y-116727064D01*
X121340000Y-115272936D02*
X121340000Y-116727064D01*
%TO.C,D9*%
X134735000Y-127587500D02*
X134735000Y-125302500D01*
X133265000Y-125302500D02*
X133265000Y-127587500D01*
X134735000Y-125302500D02*
X133265000Y-125302500D01*
%TO.C,R24*%
X138022936Y-99515000D02*
X138477064Y-99515000D01*
X138022936Y-100985000D02*
X138477064Y-100985000D01*
%TO.C,R19*%
X115477064Y-94735000D02*
X115022936Y-94735000D01*
X115477064Y-93265000D02*
X115022936Y-93265000D01*
%TO.C,J10*%
X202600000Y-136000000D02*
X202600000Y-144800000D01*
X199900000Y-130100000D02*
X202600000Y-130100000D01*
X202600000Y-130100000D02*
X202600000Y-132000000D01*
X193400000Y-130100000D02*
X196000000Y-130100000D01*
X193200000Y-130950000D02*
X193200000Y-129900000D01*
X202600000Y-144800000D02*
X193400000Y-144800000D01*
X193400000Y-144800000D02*
X193400000Y-130100000D01*
X194250000Y-129900000D02*
X193200000Y-129900000D01*
%TO.C,J12*%
X195170000Y-117520000D02*
X195170000Y-120120000D01*
X195170000Y-116250000D02*
X195170000Y-114920000D01*
X197830000Y-117520000D02*
X197830000Y-120120000D01*
X195170000Y-120120000D02*
X197830000Y-120120000D01*
X195170000Y-117520000D02*
X197830000Y-117520000D01*
X195170000Y-114920000D02*
X196500000Y-114920000D01*
%TO.C,J11*%
X199170000Y-117495000D02*
X201830000Y-117495000D01*
X199170000Y-116225000D02*
X199170000Y-114895000D01*
X199170000Y-117495000D02*
X199170000Y-120095000D01*
X199170000Y-120095000D02*
X201830000Y-120095000D01*
X201830000Y-117495000D02*
X201830000Y-120095000D01*
X199170000Y-114895000D02*
X200500000Y-114895000D01*
%TO.C,R7*%
X127272936Y-102015000D02*
X127727064Y-102015000D01*
X127272936Y-103485000D02*
X127727064Y-103485000D01*
%TO.C,J14*%
X143625000Y-85582500D02*
X140965000Y-85582500D01*
X143625000Y-85582500D02*
X143625000Y-77902500D01*
X143625000Y-86852500D02*
X143625000Y-88182500D01*
X143625000Y-88182500D02*
X142295000Y-88182500D01*
X143625000Y-77902500D02*
X140965000Y-77902500D01*
X140965000Y-85582500D02*
X140965000Y-77902500D01*
%TO.C,D2*%
X120735000Y-94735000D02*
X120735000Y-93265000D01*
X118450000Y-94735000D02*
X120735000Y-94735000D01*
X120735000Y-93265000D02*
X118450000Y-93265000D01*
%TO.C,R20*%
X115477064Y-102765000D02*
X115022936Y-102765000D01*
X115477064Y-104235000D02*
X115022936Y-104235000D01*
%TO.C,D5*%
X118450000Y-113735000D02*
X120735000Y-113735000D01*
X120735000Y-113735000D02*
X120735000Y-112265000D01*
X120735000Y-112265000D02*
X118450000Y-112265000D01*
%TO.C,R8*%
X127272936Y-106985000D02*
X127727064Y-106985000D01*
X127272936Y-105515000D02*
X127727064Y-105515000D01*
%TO.C,Q3*%
X179300000Y-131950000D02*
X179300000Y-130140000D01*
X179300000Y-121550000D02*
X179300000Y-123360000D01*
X179300000Y-130140000D02*
X178200000Y-130140000D01*
X179300000Y-123360000D02*
X174175000Y-123360000D01*
X180800000Y-131950000D02*
X179300000Y-131950000D01*
X180800000Y-121550000D02*
X179300000Y-121550000D01*
%TO.C,R9*%
X172015000Y-127272936D02*
X172015000Y-127727064D01*
X173485000Y-127272936D02*
X173485000Y-127727064D01*
%TO.C,J16*%
X131965000Y-85582500D02*
X131965000Y-77902500D01*
X134625000Y-85582500D02*
X134625000Y-77902500D01*
X134625000Y-77902500D02*
X131965000Y-77902500D01*
X134625000Y-86852500D02*
X134625000Y-88182500D01*
X134625000Y-88182500D02*
X133295000Y-88182500D01*
X134625000Y-85582500D02*
X131965000Y-85582500D01*
%TO.C,R11*%
X127272936Y-109015000D02*
X127727064Y-109015000D01*
X127272936Y-110485000D02*
X127727064Y-110485000D01*
%TO.C,D8*%
X132950000Y-100985000D02*
X135235000Y-100985000D01*
X135235000Y-99515000D02*
X132950000Y-99515000D01*
X135235000Y-100985000D02*
X135235000Y-99515000D01*
%TO.C,R29*%
X136765000Y-126977064D02*
X136765000Y-126522936D01*
X138235000Y-126977064D02*
X138235000Y-126522936D01*
D11*
%TO.C,U3*%
X119200000Y-119525000D02*
X115300000Y-119525000D01*
X119200000Y-114475000D02*
X115300000Y-114475000D01*
D13*
X121420000Y-118905000D02*
G75*
G03*
X121420000Y-118905000I-100000J0D01*
G01*
D14*
%TO.C,J2*%
X195170000Y-109720000D02*
X197830000Y-109720000D01*
X195170000Y-107120000D02*
X196500000Y-107120000D01*
X195170000Y-109720000D02*
X195170000Y-112320000D01*
X197830000Y-109720000D02*
X197830000Y-112320000D01*
X195170000Y-108450000D02*
X195170000Y-107120000D01*
X195170000Y-112320000D02*
X197830000Y-112320000D01*
%TO.C,U8*%
X135000000Y-110040000D02*
X132690000Y-110040000D01*
X132690000Y-110315000D02*
X131400000Y-110315000D01*
X135000000Y-119960000D02*
X132690000Y-119960000D01*
X135000000Y-110040000D02*
X137310000Y-110040000D01*
X132690000Y-119960000D02*
X132690000Y-119685000D01*
X135000000Y-119960000D02*
X137310000Y-119960000D01*
X137310000Y-119960000D02*
X137310000Y-119685000D01*
X137310000Y-110040000D02*
X137310000Y-110315000D01*
X132690000Y-110040000D02*
X132690000Y-110315000D01*
%TO.C,R21*%
X115477064Y-112265000D02*
X115022936Y-112265000D01*
X115477064Y-113735000D02*
X115022936Y-113735000D01*
%TO.C,R2*%
X127272936Y-99985000D02*
X127727064Y-99985000D01*
X127272936Y-98515000D02*
X127727064Y-98515000D01*
%TO.C,R18*%
X171397936Y-136265000D02*
X171852064Y-136265000D01*
X171397936Y-137735000D02*
X171852064Y-137735000D01*
%TO.C,J6*%
X109470000Y-76170000D02*
X109470000Y-78830000D01*
X122230000Y-76170000D02*
X109470000Y-76170000D01*
X124830000Y-78830000D02*
X123500000Y-78830000D01*
X122230000Y-78830000D02*
X109470000Y-78830000D01*
X122230000Y-76170000D02*
X122230000Y-78830000D01*
X124830000Y-77500000D02*
X124830000Y-78830000D01*
%TO.C,D7*%
X120735000Y-132735000D02*
X120735000Y-131265000D01*
X118450000Y-132735000D02*
X120735000Y-132735000D01*
X120735000Y-131265000D02*
X118450000Y-131265000D01*
%TO.C,J4*%
X123525000Y-84145000D02*
X124855000Y-84145000D01*
X109495000Y-84145000D02*
X109495000Y-86805000D01*
X124855000Y-84145000D02*
X124855000Y-85475000D01*
X122255000Y-84145000D02*
X109495000Y-84145000D01*
X122255000Y-86805000D02*
X109495000Y-86805000D01*
X122255000Y-84145000D02*
X122255000Y-86805000D01*
%TO.C,C3*%
X111515000Y-96738748D02*
X111515000Y-97261252D01*
X112985000Y-96738748D02*
X112985000Y-97261252D01*
%TO.C,R6*%
X121340000Y-124772936D02*
X121340000Y-126227064D01*
X123160000Y-124772936D02*
X123160000Y-126227064D01*
%TD*%
M02*
