0
SECTION
2
HEADER
9
$INSUNITS
70
4
9
$ACADVER
1
AC1014
9
$HANDSEED
5
FFFF
0
ENDSEC
0
SECTION
2
TABLES
0
TABLE
2
VPORT
5
8
100
AcDbSymbolTable
0
ENDTAB
0
TABLE
2
LTYPE
5
5
100
AcDbSymbolTable
0
LTYPE
5
14
100
AcDbSymbolTableRecord
100
AcDbLinetypeTableRecord
2
BYBLOCK
70
0
0
LTYPE
5
15
100
AcDbSymbolTableRecord
100
AcDbLinetypeTableRecord
2
BYLAYER
70
0
0
ENDTAB
0
TABLE
2
LAYER
5
2
100
AcDbSymbolTable
70
2
0
LAYER
5
50
100
AcDbSymbolTableRecord
100
AcDbLayerTableRecord
2
0
70
0
6
CONTINUOUS
0
ENDTAB
0
TABLE
2
STYLE
5
3
100
AcDbSymbolTable
70
1
0
STYLE
5
11
100
AcDbSymbolTableRecord
100
AcDbTextStyleTableRecord
2
STANDARD
70
0
0
ENDTAB
0
TABLE
2
VIEW
5
6
100
AcDbSymbolTable
70
0
0
ENDTAB
0
TABLE
2
UCS
5
7
100
AcDbSymbolTable
70
0
0
ENDTAB
0
TABLE
2
APPID
5
9
100
AcDbSymbolTable
70
2
0
APPID
5
12
100
AcDbSymbolTableRecord
100
AcDbRegAppTableRecord
2
ACAD
70
0
0
ENDTAB
0
TABLE
2
DIMSTYLE
5
A
100
AcDbSymbolTable
70
1
0
ENDTAB
0
TABLE
2
BLOCK_RECORD
5
1
100
AcDbSymbolTable
70
1
0
BLOCK_RECORD
5
1F
100
AcDbSymbolTableRecord
100
AcDbBlockTableRecord
2
*MODEL_SPACE
0
BLOCK_RECORD
5
1B
100
AcDbSymbolTableRecord
100
AcDbBlockTableRecord
2
*PAPER_SPACE
0
ENDTAB
0
ENDSEC
0
SECTION
2
BLOCKS
0
BLOCK
5
20
100
AcDbEntity
100
AcDbBlockBegin
2
*MODEL_SPACE
0
ENDBLK
5
21
100
AcDbEntity
100
AcDbBlockEnd
0
BLOCK
5
1C
100
AcDbEntity
100
AcDbBlockBegin
2
*PAPER_SPACE
0
ENDBLK
5
1D
100
AcDbEntity
100
AcDbBlockEnd
0
ENDSEC
0
SECTION
2
ENTITIES
0
LWPOLYLINE
5
100
100
AcDbEntity
8
0
100
AcDbPolyline
90
28
70
1
43
0.0
10
41.188969818470689
20
80.221263905932773
10
50.652364295557
20
89.684658617124612
42
0.025715892501440792
10
41.17774213931996
20
94.410770319427414
10
31.919148000000014
20
85.000000000000028
10
-31.919148000000014
20
85.000000000000028
10
-41.177742142468567
20
94.410770318054134
42
0.025715892493113738
10
-50.652364295562585
20
89.684658617121457
10
-41.188969818473076
20
80.221263905932744
42
-0.414213558750397
10
-41.188969862202924
20
73.150196137797124
10
-73.150196137798346
20
41.188969862201709
42
-0.41421355875029697
10
-80.221263905932787
20
41.188969818470682
10
-89.684658617124626
20
50.652364295556964
42
0.26287699632703881
10
-89.684658617111239
20
-50.652364295580711
10
-80.221263905932773
20
-41.188969818480743
42
-0.41421355875071492
10
-73.150196137793301
20
-41.188969862206747
10
-41.188969862201724
20
-73.150196137798332
42
-0.41421355875029697
10
-41.188969818470696
20
-80.221263905932773
10
-50.652364295557
20
-89.684658617124612
42
0.26287699632698508
10
50.652364295562656
20
-89.684658617121443
10
41.188969818473062
20
-80.221263905932773
42
-0.41421355875039628
10
41.18896986220291
20
-73.150196137797138
10
73.150196137798332
20
-41.188969862201724
42
-0.41421355875029769
10
80.221263905932773
20
-41.188969818470696
10
89.684658617124612
20
-50.652364295556964
42
0.26287699632698486
10
89.684658617121443
20
50.652364295562577
10
80.221263905932773
20
41.188969818473055
42
-0.414213558750397
10
73.150196137797138
20
41.188969862202896
10
41.188969862201731
20
73.150196137798332
42
-0.41421355875029697
0
CIRCLE
5
101
100
AcDbEntity
8
0
100
AcDbCircle
10
-39.956409643453156
20
86.050018345488581
30
0
40
2.1000000000000085
210
-2.4651903288156619e-32
220
-2.4651903288156619e-32
230
1
0
CIRCLE
5
102
100
AcDbEntity
8
0
100
AcDbCircle
10
39.956409643453135
20
86.050018345488581
30
0
40
2.1000000000000085
210
-2.4651903288156581e-32
220
-2.4651903288156619e-32
230
1
0
CIRCLE
5
103
100
AcDbEntity
8
0
100
AcDbCircle
10
-35.303420000000024
20
-87.063636000000045
30
0
40
2.0999999999999996
210
8.0247495189308656e-62
220
-2.899119397316262e-107
230
1
0
CIRCLE
5
104
100
AcDbEntity
8
0
100
AcDbCircle
10
35.303420000000024
20
-87.063636000000045
30
0
40
2.0999999999999996
210
8.0247495189308656e-62
220
-2.899119397316262e-107
230
1
0
CIRCLE
5
105
100
AcDbEntity
8
0
100
AcDbCircle
10
87.063636000000045
20
35.303420000000024
30
0
40
2.1000000000000085
210
8.0247495189308622e-62
220
-2.4651903288156619e-32
230
1
0
CIRCLE
5
106
100
AcDbEntity
8
0
100
AcDbCircle
10
87.063636000000045
20
-35.303420000000024
30
0
40
2.1000000000000085
210
8.0247495189308622e-62
220
-2.4651903288156619e-32
230
1
0
CIRCLE
5
107
100
AcDbEntity
8
0
100
AcDbCircle
10
-87.063636000000045
20
35.303420000000024
30
0
40
2.1000000000000085
210
8.0247495189308622e-62
220
-2.4651903288156619e-32
230
1
0
CIRCLE
5
108
100
AcDbEntity
8
0
100
AcDbCircle
10
-87.063636000000045
20
-35.303420000000024
30
0
40
2.1000000000000085
210
8.0247495189308622e-62
220
-2.4651903288156619e-32
230
1
0
ENDSEC
0
SECTION
2
OBJECTS
0
DICTIONARY
5
C
100
AcDbDictionary
3
ACAD_GROUP
350
D
3
ACAD_MLINESTYLE
350
17
0
DICTIONARY
5
D
100
AcDbDictionary
0
DICTIONARY
5
1A
330
C
100
AcDbDictionary
0
DICTIONARY
5
17
100
AcDbDictionary
0
ENDSEC
0
EOF
