M48
; DRILL file {KiCad 7.0.6-0} date 2023 September 14, Thursday 10:30:23
; FORMAT={-:-/ absolute / inch / decimal}
; #@! TF.CreationDate,2023-09-14T10:30:23+10:00
; #@! TF.GenerationSoftware,Kicad,Pcbnew,7.0.6-0
; #@! TF.FileFunction,Plated,1,2,PTH
FMAT,2
INCH
; #@! TA.AperFunction,Plated,PTH,ViaDrill
T1C0.0118
; #@! TA.AperFunction,Plated,PTH,ComponentDrill
T2C0.0276
; #@! TA.AperFunction,Plated,PTH,ComponentDrill
T3C0.0295
; #@! TA.AperFunction,Plated,PTH,ComponentDrill
T4C0.0300
; #@! TA.AperFunction,Plated,PTH,ComponentDrill
T5C0.0315
; #@! TA.AperFunction,Plated,PTH,ComponentDrill
T6C0.0354
; #@! TA.AperFunction,Plated,PTH,ComponentDrill
T7C0.0374
; #@! TA.AperFunction,Plated,PTH,ComponentDrill
T8C0.0394
; #@! TA.AperFunction,Plated,PTH,ComponentDrill
T9C0.0430
; #@! TA.AperFunction,Plated,PTH,ComponentDrill
T10C0.0433
; #@! TA.AperFunction,Plated,PTH,ComponentDrill
T11C0.0472
; #@! TA.AperFunction,Plated,PTH,ComponentDrill
T12C0.0610
; #@! TA.AperFunction,Plated,PTH,ComponentDrill
T13C0.0690
; #@! TA.AperFunction,Plated,PTH,ComponentDrill
T14C0.0709
; #@! TA.AperFunction,Plated,PTH,ComponentDrill
T15C0.1063
; #@! TA.AperFunction,Plated,PTH,ComponentDrill
T16C0.1800
%
G90
G05
T1
X2.8346Y-7.2047
X2.9232Y-6.4272
X3.13Y-6.8503
X4.0256Y-7.372
X4.0256Y-7.4902
X4.0551Y-7.372
X4.0551Y-7.4902
X4.0846Y-7.372
X4.0846Y-7.4902
X4.1142Y-7.372
X4.1142Y-7.4902
X4.1437Y-7.372
X4.1437Y-7.4902
X4.1732Y-7.372
X4.1732Y-7.4902
X4.2028Y-7.372
X4.2028Y-7.4902
X4.2323Y-7.372
X4.2323Y-7.4902
X4.4291Y-7.2539
X4.4291Y-7.5
X4.4587Y-7.2539
X4.4587Y-7.5
X4.4882Y-7.2539
X4.4882Y-7.5
X4.5177Y-7.2539
X4.5177Y-7.5
X4.5472Y-7.2539
X4.5472Y-7.5
X4.5768Y-7.2539
X4.5768Y-7.5
X4.6063Y-7.2539
X4.6063Y-7.5
X4.6358Y-7.2539
X4.6358Y-7.5
X4.7638Y-7.2146
X4.8031Y-7.2146
X4.8819Y-7.2628
X4.8819Y-7.5591
X4.9213Y-7.3904
X4.9213Y-7.5295
X4.9362Y-7.3626
X4.9459Y-7.5
X4.9495Y-7.3341
X4.9705Y-7.475
X4.9902Y-7.2047
X5.2165Y-7.6476
X5.2264Y-6.5551
X5.2264Y-8.878
X5.3051Y-8.5728
X5.3423Y-7.3549
X5.3445Y-8.3169
X5.347Y-7.3155
X5.3592Y-8.0889
X5.3681Y-7.6656
X5.3696Y-7.6127
X5.3738Y-7.3727
X5.4108Y-7.3793
X5.4724Y-7.3573
X5.5709Y-6.6831
X5.5709Y-6.8041
X5.5969Y-7.3081
X5.6023Y-6.8041
X5.6046Y-6.6841
X5.6338Y-6.8041
X5.6361Y-6.6841
X5.6455Y-7.874
X5.6653Y-6.8041
X5.6708Y-6.6841
X6.2697Y-8.0807
X6.2697Y-8.2874
X6.4104Y-7.6299
X6.4104Y-7.7327
X6.4488Y-7.5354
X6.9233Y-6.7126
X6.9233Y-6.7441
X6.9922Y-6.7265
X6.9922Y-6.758
X7.6255Y-7.9207
X7.6285Y-7.7368
X7.6531Y-7.7122
X7.6575Y-7.9035
T2
X5.702Y-9.1433
X5.702Y-9.222
X5.7807Y-9.1433
X5.7807Y-9.222
X5.8594Y-9.1433
X5.8594Y-9.222
T3
X6.0854Y-9.0827
X6.0854Y-9.1827
X6.0854Y-9.2827
X6.0854Y-9.3827
X6.0854Y-9.4827
T4
X2.5028Y-5.5555
X2.5028Y-5.6555
X2.5028Y-5.7555
X2.5028Y-5.8555
X2.5028Y-5.9555
X2.5028Y-6.0555
X2.5028Y-6.1555
X3.0028Y-6.3555
X3.0028Y-6.4555
X3.1028Y-6.3555
X3.1028Y-6.4555
X3.3028Y-6.4555
X3.4028Y-5.3555
X3.4028Y-5.4555
X3.4028Y-5.5555
X3.4028Y-5.6555
X3.4028Y-5.7555
X3.4028Y-5.8555
X3.4028Y-5.9555
X3.4028Y-6.0555
X3.4028Y-6.1555
X3.4028Y-6.2555
X3.4028Y-6.3555
X3.4028Y-6.4555
X3.6445Y-5.5555
X3.6445Y-5.6555
X3.6445Y-5.7555
X3.6445Y-5.8555
X3.6445Y-5.9555
X3.6445Y-6.0555
X3.6445Y-6.1555
X4.1445Y-6.3555
X4.1445Y-6.4555
X4.2445Y-6.3555
X4.2445Y-6.4555
X4.4445Y-6.4555
X4.5445Y-5.3555
X4.5445Y-5.4555
X4.5445Y-5.5555
X4.5445Y-5.6555
X4.5445Y-5.7555
X4.5445Y-5.8555
X4.5445Y-5.9555
X4.5445Y-6.0555
X4.5445Y-6.1555
X4.5445Y-6.2555
X4.5445Y-6.3555
X4.5445Y-6.4555
X6.6594Y-8.9327
X6.6594Y-9.0327
X6.7594Y-8.9327
X6.7594Y-9.0327
X6.8594Y-8.9327
X6.8594Y-9.0327
X6.9594Y-8.9327
X6.9594Y-9.0327
X7.0594Y-8.9327
X7.0594Y-9.0327
X7.1594Y-8.9327
X7.1594Y-9.0327
X7.2665Y-5.5555
X7.2665Y-5.6555
X7.2665Y-5.7555
X7.2665Y-5.8555
X7.2665Y-5.9555
X7.2665Y-6.0555
X7.2665Y-6.1555
X7.7665Y-6.3555
X7.7665Y-6.4555
X7.8665Y-6.3555
X7.8665Y-6.4555
X8.0665Y-6.4555
X8.1665Y-5.3555
X8.1665Y-5.4555
X8.1665Y-5.5555
X8.1665Y-5.6555
X8.1665Y-5.7555
X8.1665Y-5.8555
X8.1665Y-5.9555
X8.1665Y-6.0555
X8.1665Y-6.1555
X8.1665Y-6.2555
X8.1665Y-6.3555
X8.1665Y-6.4555
X8.4083Y-5.5555
X8.4083Y-5.6555
X8.4083Y-5.7555
X8.4083Y-5.8555
X8.4083Y-5.9555
X8.4083Y-6.0555
X8.4083Y-6.1555
X8.9083Y-6.3555
X8.9083Y-6.4555
X9.0083Y-6.3555
X9.0083Y-6.4555
X9.2083Y-6.4555
X9.3083Y-5.3555
X9.3083Y-5.4555
X9.3083Y-5.5555
X9.3083Y-5.6555
X9.3083Y-5.7555
X9.3083Y-5.8555
X9.3083Y-5.9555
X9.3083Y-6.0555
X9.3083Y-6.1555
X9.3083Y-6.2555
X9.3083Y-6.3555
X9.3083Y-6.4555
T5
X5.6055Y-7.4327
X5.6055Y-7.5327
X5.6055Y-7.6327
X5.6055Y-7.7327
X5.6055Y-7.8327
X5.6055Y-7.9327
X5.6055Y-8.0327
X5.6055Y-8.1327
X5.6055Y-8.2327
X5.6055Y-8.3327
X5.6055Y-8.4327
X5.6055Y-8.5327
X5.6055Y-8.6327
X5.6055Y-8.7327
X5.6055Y-8.8327
X5.6055Y-8.9327
X5.6055Y-9.0327
X5.6055Y-9.1327
X5.6055Y-9.2327
X5.6055Y-9.3327
X5.6055Y-9.4327
X5.6055Y-9.5327
X5.6055Y-9.6327
X5.6055Y-9.7327
X5.7055Y-7.9327
X5.7055Y-9.6327
X5.8055Y-7.9327
X5.9055Y-7.9327
X6.0055Y-7.9327
X6.1055Y-7.9327
X6.2055Y-7.4327
X6.2055Y-7.5327
X6.2055Y-7.6327
X6.2055Y-7.7327
X6.2055Y-7.8327
X6.2055Y-7.9327
X6.2055Y-8.0327
X6.2055Y-8.1327
X6.2055Y-8.2327
X6.2055Y-8.3327
X6.2055Y-8.4327
X6.2055Y-8.5327
X6.2055Y-8.6327
X6.2055Y-8.7327
X6.2055Y-8.8327
X6.2055Y-8.9327
X6.2055Y-9.0327
X6.2055Y-9.1327
X6.2055Y-9.2327
X6.2055Y-9.3327
X6.2055Y-9.4327
X6.2055Y-9.5327
X6.2055Y-9.6327
X6.2055Y-9.7327
T6
X4.0866Y-2.3317
X4.0866Y-2.4317
X7.7244Y-2.3317
X7.7244Y-2.4317
T7
X8.878Y-6.7726
X8.9764Y-6.7726
X9.0748Y-6.7726
X9.1732Y-6.7726
X9.2717Y-6.7726
T8
X3.3665Y-4.2341
X3.3679Y-7.5784
X3.4372Y-4.3048
X3.4386Y-7.5076
X3.508Y-4.3755
X3.5093Y-7.4369
X3.5787Y-4.4462
X3.5801Y-7.3662
X3.6494Y-4.5169
X3.6508Y-7.2955
X3.7201Y-4.5876
X3.7215Y-7.2248
X4.6846Y-9.0875
X4.685Y-8.1686
X4.7835Y-3.5578
X4.7835Y-3.7546
X4.7846Y-9.0875
X4.785Y-8.1686
X5.1969Y-3.5578
X5.1969Y-3.7546
X5.2138Y-9.0875
X5.2142Y-8.1686
X5.3138Y-9.0875
X5.3142Y-8.1686
X5.4724Y-6.9934
X5.4724Y-7.1902
X5.4744Y-7.4327
X5.4744Y-7.5327
X5.4744Y-7.6327
X5.4744Y-7.7327
X5.4744Y-7.8327
X5.4744Y-7.9327
X5.4744Y-8.0327
X5.4744Y-8.1327
X5.4744Y-8.2327
X5.4744Y-8.3327
X5.4744Y-8.4327
X5.4744Y-8.5327
X5.4744Y-8.6327
X5.4744Y-8.7327
X5.4744Y-8.8327
X5.4744Y-8.9327
X5.4744Y-9.0327
X5.4744Y-9.1327
X5.4744Y-9.2327
X5.4744Y-9.3327
X5.4744Y-9.4327
X5.4744Y-9.5327
X5.4744Y-9.6327
X5.4744Y-9.7327
X5.6555Y-6.2055
X5.7055Y-6.8593
X5.7055Y-7.302
X5.7555Y-5.6055
X5.7555Y-6.2055
X5.8055Y-6.8593
X5.8055Y-7.0069
X5.8055Y-7.302
X5.8061Y-7.1545
X5.8555Y-5.6055
X5.8555Y-6.2055
X5.9055Y-6.8593
X5.9055Y-7.0069
X5.9055Y-7.302
X5.9061Y-7.1545
X5.9555Y-5.6055
X5.9555Y-6.2055
X6.0055Y-6.8593
X6.0055Y-7.0069
X6.0055Y-7.302
X6.0061Y-7.1545
X6.0555Y-5.6055
X6.0555Y-6.2055
X6.1055Y-6.8593
X6.1055Y-7.302
X6.1555Y-6.2055
X6.3362Y-7.4327
X6.3362Y-7.5327
X6.3362Y-7.6327
X6.3362Y-7.7327
X6.3362Y-7.8327
X6.3362Y-7.9327
X6.3362Y-8.0327
X6.3362Y-8.1327
X6.3362Y-8.2327
X6.3362Y-8.3327
X6.3362Y-8.4327
X6.3362Y-8.5327
X6.3362Y-8.6327
X6.3362Y-8.7327
X6.3362Y-8.8327
X6.3362Y-8.9327
X6.3362Y-9.0327
X6.3362Y-9.1327
X6.3362Y-9.2327
X6.3362Y-9.3327
X6.3362Y-9.4327
X6.3362Y-9.5327
X6.3362Y-9.6327
X6.3362Y-9.7327
X6.6142Y-3.5578
X6.6142Y-3.7546
X7.0276Y-3.5578
X7.0276Y-3.7546
X7.2622Y-3.189
X7.3622Y-3.189
X7.4622Y-3.189
X8.0895Y-4.5862
X8.0909Y-7.2234
X8.1603Y-4.5155
X8.1617Y-7.2941
X8.231Y-4.4448
X8.2324Y-7.3648
X8.3017Y-4.3741
X8.3031Y-7.4355
X8.3724Y-4.3034
X8.3738Y-7.5062
X8.4378Y-4.685
X8.4431Y-4.2327
X8.4445Y-7.577
X8.5378Y-4.685
X8.6378Y-4.685
X8.7378Y-4.685
X8.8378Y-4.685
X8.9378Y-4.685
X9.0378Y-4.685
X9.1378Y-4.685
X9.2378Y-4.685
T9
X2.7453Y-5.1606
X2.7453Y-5.7906
X2.7453Y-6.4205
X2.7453Y-7.0504
X2.8453Y-5.1606
X2.8453Y-5.7906
X2.8453Y-6.4205
X2.8453Y-7.0504
T10
X5.2787Y-7.724
X5.2787Y-7.824
X5.2787Y-7.924
X5.2787Y-8.024
T11
X6.9578Y-4.6761
X7.8063Y-3.8276
T12
X4.3307Y-8.3465
X4.3307Y-8.5354
X4.9902Y-3.9016
X4.9902Y-4.0906
X5.0827Y-7.5984
X5.2717Y-7.5984
X6.5925Y-7.6772
X6.7815Y-7.6772
X7.4803Y-8.3465
X7.4803Y-8.5354
T13
X2.6453Y-4.8606
X2.6453Y-5.4906
X2.6453Y-6.1205
X2.6453Y-6.7504
X2.8953Y-4.7606
X2.8953Y-5.3906
X2.8953Y-6.0205
X2.8953Y-6.6504
T14
X7.313Y-3.3858
X7.5098Y-3.3858
X8.3957Y-7.0669
X8.5925Y-7.0669
T15
X3.2283Y-4.8228
X3.2283Y-6.9882
X3.4252Y-4.8228
X3.4252Y-6.9882
T16
X8.9296Y-7.0669
X9.2096Y-7.0502
T0
M30
