%TF.GenerationSoftware,KiCad,Pcbnew,(6.0.9)*%
%TF.CreationDate,2023-07-09T09:32:55+10:00*%
%TF.ProjectId,Main 2.4,4d61696e-2032-42e3-942e-6b696361645f,rev?*%
%TF.SameCoordinates,Original*%
%TF.FileFunction,Drillmap*%
%TF.FilePolarity,Positive*%
%FSLAX45Y45*%
G04 Gerber Fmt 4.5, Leading zero omitted, Abs format (unit mm)*
G04 Created by KiCad (PCBNEW (6.0.9)) date 2023-07-09 09:32:55*
%MOMM*%
%LPD*%
G01*
G04 APERTURE LIST*
%ADD10C,0.100000*%
%ADD11C,0.150000*%
%ADD12C,0.200000*%
%ADD13C,0.030000*%
%ADD14C,0.040000*%
%ADD15C,0.076200*%
%ADD16C,0.085000*%
%ADD17C,0.089000*%
%ADD18C,0.130000*%
%ADD19C,0.250000*%
%ADD20C,0.455000*%
G04 APERTURE END LIST*
D10*
X10300000Y-15000000D02*
G75*
G03*
X10300000Y-15000000I-250000J0D01*
G01*
X22775000Y-19375000D02*
G75*
G03*
X22825000Y-19425000I50000J0D01*
G01*
X15838266Y-24911734D02*
X18000000Y-22750000D01*
X12650000Y-13900000D02*
G75*
G03*
X12750000Y-14000000I100000J0D01*
G01*
X12400000Y-13400000D02*
X11450000Y-13400000D01*
X11450000Y-13400000D02*
X11450000Y-16600000D01*
X11450000Y-16600000D02*
X12400000Y-16600000D01*
X12400000Y-16600000D02*
X12400000Y-13400000D01*
X15275000Y-23616953D02*
G75*
G03*
X15275000Y-23616953I-250000J0D01*
G01*
X21275000Y-17800000D02*
X21275000Y-17175000D01*
X14825000Y-19425000D02*
X17225000Y-19425000D01*
D11*
X16737000Y-18662000D02*
G75*
G03*
X16737000Y-18662000I-150000J0D01*
G01*
X11113000Y-10788000D02*
G75*
G03*
X11113000Y-10788000I-150000J0D01*
G01*
D10*
X22825000Y-19425000D02*
X25225000Y-19425000D01*
X16550000Y-14000000D02*
G75*
G03*
X16650000Y-13900000I0J100000D01*
G01*
X12750000Y-14000000D02*
X12850000Y-14000000D01*
X27150000Y-12000000D02*
X27250000Y-12000000D01*
X14875000Y-7525000D02*
X14425000Y-7525000D01*
X14425000Y-7525000D02*
X14425000Y-7375000D01*
X14425000Y-7375000D02*
X14875000Y-7375000D01*
X14875000Y-7375000D02*
X14875000Y-7525000D01*
X16450000Y-12000000D02*
G75*
G03*
X16350000Y-12100000I0J-100000D01*
G01*
X15275000Y-6383047D02*
G75*
G03*
X15275000Y-6383047I-250000J0D01*
G01*
X12750000Y-12000000D02*
G75*
G03*
X12650000Y-12100000I0J-100000D01*
G01*
X22775000Y-19050000D02*
X22775000Y-19375000D01*
X12650000Y-13900000D02*
X12650000Y-12100000D01*
X24161734Y-24911734D02*
G75*
G03*
X15838266Y-24911734I-4161734J9911734D01*
G01*
X27450000Y-15000000D02*
G75*
G03*
X27450000Y-15000000I-100000J0D01*
G01*
D11*
X29187000Y-10788000D02*
G75*
G03*
X29187000Y-10788000I-150000J0D01*
G01*
X23563000Y-18662000D02*
G75*
G03*
X23563000Y-18662000I-150000J0D01*
G01*
D10*
X16650000Y-12100000D02*
X16650000Y-13900000D01*
D11*
X16737000Y-10788000D02*
G75*
G03*
X16737000Y-10788000I-150000J0D01*
G01*
D10*
X27350000Y-12100000D02*
G75*
G03*
X27250000Y-12000000I-100000J0D01*
G01*
D11*
X11113000Y-18663000D02*
G75*
G03*
X11113000Y-18663000I-150000J0D01*
G01*
D10*
X23650000Y-12100000D02*
X23650000Y-13900000D01*
X18825000Y-17850000D02*
X21225000Y-17850000D01*
X18775000Y-17175000D02*
X18775000Y-17800000D01*
X27050000Y-13900000D02*
G75*
G03*
X27150000Y-14000000I100000J0D01*
G01*
X21275000Y-17175000D02*
G75*
G03*
X21225000Y-17125000I-50000J0D01*
G01*
X23350000Y-13900000D02*
X23350000Y-12100000D01*
X28866953Y-19975000D02*
G75*
G03*
X28866953Y-19975000I-250000J0D01*
G01*
X12750000Y-15000000D02*
G75*
G03*
X12750000Y-15000000I-100000J0D01*
G01*
X27050000Y-13900000D02*
X27050000Y-12100000D01*
X11633047Y-10025000D02*
G75*
G03*
X11633047Y-10025000I-250000J0D01*
G01*
X23350000Y-13900000D02*
G75*
G03*
X23450000Y-14000000I100000J0D01*
G01*
X23450000Y-14000000D02*
X23550000Y-14000000D01*
X25275000Y-19050000D02*
G75*
G03*
X25225000Y-19000000I-50000J0D01*
G01*
X12950000Y-12100000D02*
X12950000Y-13900000D01*
X16350000Y-13900000D02*
G75*
G03*
X16450000Y-14000000I100000J0D01*
G01*
X14775000Y-19375000D02*
G75*
G03*
X14825000Y-19425000I50000J0D01*
G01*
X25225000Y-6383047D02*
G75*
G03*
X25225000Y-6383047I-250000J0D01*
G01*
X17275000Y-19375000D02*
X17275000Y-19050000D01*
X17225000Y-19000000D02*
X14825000Y-19000000D01*
X30200000Y-15000000D02*
G75*
G03*
X30200000Y-15000000I-250000J0D01*
G01*
X23450000Y-12000000D02*
X23550000Y-12000000D01*
X25225000Y-19000000D02*
X22825000Y-19000000D01*
X27350000Y-12100000D02*
X27350000Y-13900000D01*
X25225000Y-23616953D02*
G75*
G03*
X25225000Y-23616953I-250000J0D01*
G01*
X14825000Y-19000000D02*
G75*
G03*
X14775000Y-19050000I0J-50000D01*
G01*
X12950000Y-12100000D02*
G75*
G03*
X12850000Y-12000000I-100000J0D01*
G01*
X17275000Y-19050000D02*
G75*
G03*
X17225000Y-19000000I-50000J0D01*
G01*
X27250000Y-14000000D02*
G75*
G03*
X27350000Y-13900000I0J100000D01*
G01*
X16450000Y-12000000D02*
X16550000Y-12000000D01*
X21225000Y-17850000D02*
G75*
G03*
X21275000Y-17800000I0J50000D01*
G01*
X18000000Y-22750000D02*
X22000000Y-22750000D01*
X23650000Y-12100000D02*
G75*
G03*
X23550000Y-12000000I-100000J0D01*
G01*
X22825000Y-19000000D02*
G75*
G03*
X22775000Y-19050000I0J-50000D01*
G01*
X16750000Y-15000000D02*
G75*
G03*
X16750000Y-15000000I-100000J0D01*
G01*
D11*
X29187000Y-18662000D02*
G75*
G03*
X29187000Y-18662000I-150000J0D01*
G01*
D10*
X22000000Y-22750000D02*
X24161734Y-24911734D01*
X25275000Y-19375000D02*
X25275000Y-19050000D01*
X23450000Y-15000000D02*
G75*
G03*
X23450000Y-15000000I-100000J0D01*
G01*
X27150000Y-14000000D02*
X27250000Y-14000000D01*
X23450000Y-12000000D02*
G75*
G03*
X23350000Y-12100000I0J-100000D01*
G01*
X21225000Y-17125000D02*
X18825000Y-17125000D01*
X18775000Y-17800000D02*
G75*
G03*
X18825000Y-17850000I50000J0D01*
G01*
X14775000Y-19050000D02*
X14775000Y-19375000D01*
X27150000Y-12000000D02*
G75*
G03*
X27050000Y-12100000I0J-100000D01*
G01*
X25575000Y-7550000D02*
X25125000Y-7550000D01*
X25125000Y-7550000D02*
X25125000Y-7400000D01*
X25125000Y-7400000D02*
X25575000Y-7400000D01*
X25575000Y-7400000D02*
X25575000Y-7550000D01*
X18825000Y-17125000D02*
G75*
G03*
X18775000Y-17175000I0J-50000D01*
G01*
X16450000Y-14000000D02*
X16550000Y-14000000D01*
X12750000Y-12000000D02*
X12850000Y-12000000D01*
X16650000Y-12100000D02*
G75*
G03*
X16550000Y-12000000I-100000J0D01*
G01*
X11633047Y-19975000D02*
G75*
G03*
X11633047Y-19975000I-250000J0D01*
G01*
X25225000Y-19425000D02*
G75*
G03*
X25275000Y-19375000I0J50000D01*
G01*
X28866953Y-10025000D02*
G75*
G03*
X28866953Y-10025000I-250000J0D01*
G01*
X23550000Y-14000000D02*
G75*
G03*
X23650000Y-13900000I0J100000D01*
G01*
X12850000Y-14000000D02*
G75*
G03*
X12950000Y-13900000I0J100000D01*
G01*
D11*
X23563000Y-10788000D02*
G75*
G03*
X23563000Y-10788000I-150000J0D01*
G01*
D10*
X17225000Y-19425000D02*
G75*
G03*
X17275000Y-19375000I0J50000D01*
G01*
X16350000Y-13900000D02*
X16350000Y-12100000D01*
D12*
D13*
X12035000Y-10185000D02*
X12065000Y-10215000D01*
X12065000Y-10185000D02*
X12035000Y-10215000D01*
X12085000Y-10335000D02*
X12115000Y-10365000D01*
X12115000Y-10335000D02*
X12085000Y-10365000D01*
X14385000Y-16135000D02*
X14415000Y-16165000D01*
X14415000Y-16135000D02*
X14385000Y-16165000D01*
X14385000Y-16410000D02*
X14415000Y-16440000D01*
X14415000Y-16410000D02*
X14385000Y-16440000D01*
X17135000Y-14235000D02*
X17165000Y-14265000D01*
X17165000Y-14235000D02*
X17135000Y-14265000D01*
X17265000Y-14785000D02*
X17295000Y-14815000D01*
X17295000Y-14785000D02*
X17265000Y-14815000D01*
X17425000Y-14785000D02*
X17455000Y-14815000D01*
X17455000Y-14785000D02*
X17425000Y-14815000D01*
X17705000Y-12405000D02*
X17735000Y-12435000D01*
X17735000Y-12405000D02*
X17705000Y-12435000D01*
X17765000Y-14557050D02*
X17795000Y-14587050D01*
X17795000Y-14557050D02*
X17765000Y-14587050D01*
X17865000Y-14482550D02*
X17895000Y-14512550D01*
X17895000Y-14482550D02*
X17865000Y-14512550D01*
X17950659Y-14839341D02*
X17980659Y-14869341D01*
X17980659Y-14839341D02*
X17950659Y-14869341D01*
X18035000Y-13535000D02*
X18065000Y-13565000D01*
X18065000Y-13535000D02*
X18035000Y-13565000D01*
X18265000Y-10485000D02*
X18295000Y-10515000D01*
X18295000Y-10485000D02*
X18265000Y-10515000D01*
X18385000Y-17035000D02*
X18415000Y-17065000D01*
X18415000Y-17035000D02*
X18385000Y-17065000D01*
X18685000Y-10745000D02*
X18715000Y-10775000D01*
X18715000Y-10745000D02*
X18685000Y-10775000D01*
X18710000Y-14760000D02*
X18740000Y-14790000D01*
X18740000Y-14760000D02*
X18710000Y-14790000D01*
X18847330Y-13272670D02*
X18877330Y-13302670D01*
X18877330Y-13272670D02*
X18847330Y-13302670D01*
X19985000Y-16460000D02*
X20015000Y-16490000D01*
X20015000Y-16460000D02*
X19985000Y-16490000D01*
X21760000Y-14535000D02*
X21790000Y-14565000D01*
X21790000Y-14535000D02*
X21760000Y-14565000D01*
X21763513Y-14414805D02*
X21793513Y-14444805D01*
X21793513Y-14414805D02*
X21763513Y-14444805D01*
X22225000Y-13865000D02*
X22255000Y-13895000D01*
X22255000Y-13865000D02*
X22225000Y-13895000D01*
D14*
X11060936Y-12865936D02*
G75*
G03*
X11060936Y-12865936I-20000J0D01*
G01*
X18520000Y-16800000D02*
G75*
G03*
X18520000Y-16800000I-20000J0D01*
G01*
X18619950Y-16800000D02*
G75*
G03*
X18619950Y-16800000I-20000J0D01*
G01*
X21595000Y-16475000D02*
G75*
G03*
X21595000Y-16475000I-20000J0D01*
G01*
X21720000Y-17100000D02*
G75*
G03*
X21720000Y-17100000I-20000J0D01*
G01*
D15*
X18761000Y-18858400D02*
X18761000Y-18934600D01*
X18722900Y-18896500D02*
X18799100Y-18896500D01*
X18761000Y-20325400D02*
X18761000Y-20401600D01*
X18722900Y-20363500D02*
X18799100Y-20363500D01*
X21239000Y-20315400D02*
X21239000Y-20391600D01*
X21200900Y-20353500D02*
X21277100Y-20353500D01*
X21249000Y-18858400D02*
X21249000Y-18934600D01*
X21210900Y-18896500D02*
X21287100Y-18896500D01*
D16*
X17617052Y-7329652D02*
X17617052Y-7269548D01*
X17556948Y-7269548D01*
X17556948Y-7329652D01*
X17617052Y-7329652D01*
X17617052Y-7583652D02*
X17617052Y-7523548D01*
X17556948Y-7523548D01*
X17556948Y-7583652D01*
X17617052Y-7583652D01*
X17617052Y-7837652D02*
X17617052Y-7777548D01*
X17556948Y-7777548D01*
X17556948Y-7837652D01*
X17617052Y-7837652D01*
X17617052Y-8091652D02*
X17617052Y-8031548D01*
X17556948Y-8031548D01*
X17556948Y-8091652D01*
X17617052Y-8091652D01*
X17617052Y-8345652D02*
X17617052Y-8285548D01*
X17556948Y-8285548D01*
X17556948Y-8345652D01*
X17617052Y-8345652D01*
X17617052Y-8599652D02*
X17617052Y-8539548D01*
X17556948Y-8539548D01*
X17556948Y-8599652D01*
X17617052Y-8599652D01*
X17617052Y-8853652D02*
X17617052Y-8793548D01*
X17556948Y-8793548D01*
X17556948Y-8853652D01*
X17617052Y-8853652D01*
X17617052Y-9107652D02*
X17617052Y-9047548D01*
X17556948Y-9047548D01*
X17556948Y-9107652D01*
X17617052Y-9107652D01*
X17617052Y-9361652D02*
X17617052Y-9301548D01*
X17556948Y-9301548D01*
X17556948Y-9361652D01*
X17617052Y-9361652D01*
X17617052Y-9615652D02*
X17617052Y-9555548D01*
X17556948Y-9555548D01*
X17556948Y-9615652D01*
X17617052Y-9615652D01*
X17617052Y-10022052D02*
X17617052Y-9961948D01*
X17556948Y-9961948D01*
X17556948Y-10022052D01*
X17617052Y-10022052D01*
X17617052Y-10276052D02*
X17617052Y-10215948D01*
X17556948Y-10215948D01*
X17556948Y-10276052D01*
X17617052Y-10276052D01*
X17617052Y-10530052D02*
X17617052Y-10469948D01*
X17556948Y-10469948D01*
X17556948Y-10530052D01*
X17617052Y-10530052D01*
X17617052Y-10784052D02*
X17617052Y-10723948D01*
X17556948Y-10723948D01*
X17556948Y-10784052D01*
X17617052Y-10784052D01*
X17617052Y-11038052D02*
X17617052Y-10977948D01*
X17556948Y-10977948D01*
X17556948Y-11038052D01*
X17617052Y-11038052D01*
X17617052Y-11292052D02*
X17617052Y-11231948D01*
X17556948Y-11231948D01*
X17556948Y-11292052D01*
X17617052Y-11292052D01*
X17617052Y-11546052D02*
X17617052Y-11485948D01*
X17556948Y-11485948D01*
X17556948Y-11546052D01*
X17617052Y-11546052D01*
X17617052Y-11800052D02*
X17617052Y-11739948D01*
X17556948Y-11739948D01*
X17556948Y-11800052D01*
X17617052Y-11800052D01*
X17617052Y-12308052D02*
X17617052Y-12247948D01*
X17556948Y-12247948D01*
X17556948Y-12308052D01*
X17617052Y-12308052D01*
X17617052Y-12562052D02*
X17617052Y-12501948D01*
X17556948Y-12501948D01*
X17556948Y-12562052D01*
X17617052Y-12562052D01*
X17617052Y-12816052D02*
X17617052Y-12755948D01*
X17556948Y-12755948D01*
X17556948Y-12816052D01*
X17617052Y-12816052D01*
X17617052Y-13070052D02*
X17617052Y-13009948D01*
X17556948Y-13009948D01*
X17556948Y-13070052D01*
X17617052Y-13070052D01*
X17617052Y-13324052D02*
X17617052Y-13263948D01*
X17556948Y-13263948D01*
X17556948Y-13324052D01*
X17617052Y-13324052D01*
X17617052Y-13578052D02*
X17617052Y-13517948D01*
X17556948Y-13517948D01*
X17556948Y-13578052D01*
X17617052Y-13578052D01*
X17617052Y-13832052D02*
X17617052Y-13771948D01*
X17556948Y-13771948D01*
X17556948Y-13832052D01*
X17617052Y-13832052D01*
X17617052Y-14086052D02*
X17617052Y-14025948D01*
X17556948Y-14025948D01*
X17556948Y-14086052D01*
X17617052Y-14086052D01*
X17617052Y-14848052D02*
X17617052Y-14787948D01*
X17556948Y-14787948D01*
X17556948Y-14848052D01*
X17617052Y-14848052D01*
X17617052Y-15102052D02*
X17617052Y-15041948D01*
X17556948Y-15041948D01*
X17556948Y-15102052D01*
X17617052Y-15102052D01*
X17871052Y-14848052D02*
X17871052Y-14787948D01*
X17810948Y-14787948D01*
X17810948Y-14848052D01*
X17871052Y-14848052D01*
X17871052Y-15102052D02*
X17871052Y-15041948D01*
X17810948Y-15041948D01*
X17810948Y-15102052D01*
X17871052Y-15102052D01*
X18125052Y-14848052D02*
X18125052Y-14787948D01*
X18064948Y-14787948D01*
X18064948Y-14848052D01*
X18125052Y-14848052D01*
X18125052Y-15102052D02*
X18125052Y-15041948D01*
X18064948Y-15041948D01*
X18064948Y-15102052D01*
X18125052Y-15102052D01*
X18379052Y-14848052D02*
X18379052Y-14787948D01*
X18318948Y-14787948D01*
X18318948Y-14848052D01*
X18379052Y-14848052D01*
X18379052Y-15102052D02*
X18379052Y-15041948D01*
X18318948Y-15041948D01*
X18318948Y-15102052D01*
X18379052Y-15102052D01*
X18633052Y-14848052D02*
X18633052Y-14787948D01*
X18572948Y-14787948D01*
X18572948Y-14848052D01*
X18633052Y-14848052D01*
X18633052Y-15102052D02*
X18633052Y-15041948D01*
X18572948Y-15041948D01*
X18572948Y-15102052D01*
X18633052Y-15102052D01*
X18887052Y-14848052D02*
X18887052Y-14787948D01*
X18826948Y-14787948D01*
X18826948Y-14848052D01*
X18887052Y-14848052D01*
X18887052Y-15102052D02*
X18887052Y-15041948D01*
X18826948Y-15041948D01*
X18826948Y-15102052D01*
X18887052Y-15102052D01*
X19141052Y-14848052D02*
X19141052Y-14787948D01*
X19080948Y-14787948D01*
X19080948Y-14848052D01*
X19141052Y-14848052D01*
X19141052Y-15102052D02*
X19141052Y-15041948D01*
X19080948Y-15041948D01*
X19080948Y-15102052D01*
X19141052Y-15102052D01*
X19395052Y-14848052D02*
X19395052Y-14787948D01*
X19334948Y-14787948D01*
X19334948Y-14848052D01*
X19395052Y-14848052D01*
X19395052Y-15102052D02*
X19395052Y-15041948D01*
X19334948Y-15041948D01*
X19334948Y-15102052D01*
X19395052Y-15102052D01*
X19649052Y-14848052D02*
X19649052Y-14787948D01*
X19588948Y-14787948D01*
X19588948Y-14848052D01*
X19649052Y-14848052D01*
X19649052Y-15102052D02*
X19649052Y-15041948D01*
X19588948Y-15041948D01*
X19588948Y-15102052D01*
X19649052Y-15102052D01*
X19903052Y-14848052D02*
X19903052Y-14787948D01*
X19842948Y-14787948D01*
X19842948Y-14848052D01*
X19903052Y-14848052D01*
X19903052Y-15102052D02*
X19903052Y-15041948D01*
X19842948Y-15041948D01*
X19842948Y-15102052D01*
X19903052Y-15102052D01*
X20157052Y-14848052D02*
X20157052Y-14787948D01*
X20096948Y-14787948D01*
X20096948Y-14848052D01*
X20157052Y-14848052D01*
X20157052Y-15102052D02*
X20157052Y-15041948D01*
X20096948Y-15041948D01*
X20096948Y-15102052D01*
X20157052Y-15102052D01*
X20411052Y-14848052D02*
X20411052Y-14787948D01*
X20350948Y-14787948D01*
X20350948Y-14848052D01*
X20411052Y-14848052D01*
X20411052Y-15102052D02*
X20411052Y-15041948D01*
X20350948Y-15041948D01*
X20350948Y-15102052D01*
X20411052Y-15102052D01*
X20665052Y-14848052D02*
X20665052Y-14787948D01*
X20604948Y-14787948D01*
X20604948Y-14848052D01*
X20665052Y-14848052D01*
X20665052Y-15102052D02*
X20665052Y-15041948D01*
X20604948Y-15041948D01*
X20604948Y-15102052D01*
X20665052Y-15102052D01*
X20919052Y-14848052D02*
X20919052Y-14787948D01*
X20858948Y-14787948D01*
X20858948Y-14848052D01*
X20919052Y-14848052D01*
X20919052Y-15102052D02*
X20919052Y-15041948D01*
X20858948Y-15041948D01*
X20858948Y-15102052D01*
X20919052Y-15102052D01*
X21173052Y-14848052D02*
X21173052Y-14787948D01*
X21112948Y-14787948D01*
X21112948Y-14848052D01*
X21173052Y-14848052D01*
X21173052Y-15102052D02*
X21173052Y-15041948D01*
X21112948Y-15041948D01*
X21112948Y-15102052D01*
X21173052Y-15102052D01*
X21427052Y-14848052D02*
X21427052Y-14787948D01*
X21366948Y-14787948D01*
X21366948Y-14848052D01*
X21427052Y-14848052D01*
X21427052Y-15102052D02*
X21427052Y-15041948D01*
X21366948Y-15041948D01*
X21366948Y-15102052D01*
X21427052Y-15102052D01*
X21681052Y-14848052D02*
X21681052Y-14787948D01*
X21620948Y-14787948D01*
X21620948Y-14848052D01*
X21681052Y-14848052D01*
X21681052Y-15102052D02*
X21681052Y-15041948D01*
X21620948Y-15041948D01*
X21620948Y-15102052D01*
X21681052Y-15102052D01*
X21935052Y-14848052D02*
X21935052Y-14787948D01*
X21874948Y-14787948D01*
X21874948Y-14848052D01*
X21935052Y-14848052D01*
X21935052Y-15102052D02*
X21935052Y-15041948D01*
X21874948Y-15041948D01*
X21874948Y-15102052D01*
X21935052Y-15102052D01*
X22443052Y-8244052D02*
X22443052Y-8183948D01*
X22382948Y-8183948D01*
X22382948Y-8244052D01*
X22443052Y-8244052D01*
X22443052Y-8498052D02*
X22443052Y-8437948D01*
X22382948Y-8437948D01*
X22382948Y-8498052D01*
X22443052Y-8498052D01*
X22443052Y-8752052D02*
X22443052Y-8691948D01*
X22382948Y-8691948D01*
X22382948Y-8752052D01*
X22443052Y-8752052D01*
X22443052Y-9006052D02*
X22443052Y-8945948D01*
X22382948Y-8945948D01*
X22382948Y-9006052D01*
X22443052Y-9006052D01*
X22443052Y-9260052D02*
X22443052Y-9199948D01*
X22382948Y-9199948D01*
X22382948Y-9260052D01*
X22443052Y-9260052D01*
X22443052Y-9514052D02*
X22443052Y-9453948D01*
X22382948Y-9453948D01*
X22382948Y-9514052D01*
X22443052Y-9514052D01*
X22443052Y-9768052D02*
X22443052Y-9707948D01*
X22382948Y-9707948D01*
X22382948Y-9768052D01*
X22443052Y-9768052D01*
X22443052Y-10022052D02*
X22443052Y-9961948D01*
X22382948Y-9961948D01*
X22382948Y-10022052D01*
X22443052Y-10022052D01*
X22443052Y-10530052D02*
X22443052Y-10469948D01*
X22382948Y-10469948D01*
X22382948Y-10530052D01*
X22443052Y-10530052D01*
X22443052Y-10784052D02*
X22443052Y-10723948D01*
X22382948Y-10723948D01*
X22382948Y-10784052D01*
X22443052Y-10784052D01*
X22443052Y-11038052D02*
X22443052Y-10977948D01*
X22382948Y-10977948D01*
X22382948Y-11038052D01*
X22443052Y-11038052D01*
X22443052Y-11292052D02*
X22443052Y-11231948D01*
X22382948Y-11231948D01*
X22382948Y-11292052D01*
X22443052Y-11292052D01*
X22443052Y-11546052D02*
X22443052Y-11485948D01*
X22382948Y-11485948D01*
X22382948Y-11546052D01*
X22443052Y-11546052D01*
X22443052Y-11800052D02*
X22443052Y-11739948D01*
X22382948Y-11739948D01*
X22382948Y-11800052D01*
X22443052Y-11800052D01*
X22443052Y-12054052D02*
X22443052Y-11993948D01*
X22382948Y-11993948D01*
X22382948Y-12054052D01*
X22443052Y-12054052D01*
X22443052Y-12308052D02*
X22443052Y-12247948D01*
X22382948Y-12247948D01*
X22382948Y-12308052D01*
X22443052Y-12308052D01*
X22443052Y-12816052D02*
X22443052Y-12755948D01*
X22382948Y-12755948D01*
X22382948Y-12816052D01*
X22443052Y-12816052D01*
X22443052Y-13070052D02*
X22443052Y-13009948D01*
X22382948Y-13009948D01*
X22382948Y-13070052D01*
X22443052Y-13070052D01*
X22443052Y-13324052D02*
X22443052Y-13263948D01*
X22382948Y-13263948D01*
X22382948Y-13324052D01*
X22443052Y-13324052D01*
X22443052Y-13578052D02*
X22443052Y-13517948D01*
X22382948Y-13517948D01*
X22382948Y-13578052D01*
X22443052Y-13578052D01*
X22443052Y-13832052D02*
X22443052Y-13771948D01*
X22382948Y-13771948D01*
X22382948Y-13832052D01*
X22443052Y-13832052D01*
X22443052Y-14086052D02*
X22443052Y-14025948D01*
X22382948Y-14025948D01*
X22382948Y-14086052D01*
X22443052Y-14086052D01*
X22443052Y-14314652D02*
X22443052Y-14254548D01*
X22382948Y-14254548D01*
X22382948Y-14314652D01*
X22443052Y-14314652D01*
X22443052Y-14568652D02*
X22443052Y-14508548D01*
X22382948Y-14508548D01*
X22382948Y-14568652D01*
X22443052Y-14568652D01*
D17*
X10773000Y-13965500D02*
X10817500Y-13921000D01*
X10773000Y-13876500D01*
X10728500Y-13921000D01*
X10773000Y-13965500D01*
X10773000Y-14219500D02*
X10817500Y-14175000D01*
X10773000Y-14130500D01*
X10728500Y-14175000D01*
X10773000Y-14219500D01*
X10773000Y-14473500D02*
X10817500Y-14429000D01*
X10773000Y-14384500D01*
X10728500Y-14429000D01*
X10773000Y-14473500D01*
X10773000Y-15615500D02*
X10817500Y-15571000D01*
X10773000Y-15526500D01*
X10728500Y-15571000D01*
X10773000Y-15615500D01*
X10773000Y-15869500D02*
X10817500Y-15825000D01*
X10773000Y-15780500D01*
X10728500Y-15825000D01*
X10773000Y-15869500D01*
X10773000Y-16123500D02*
X10817500Y-16079000D01*
X10773000Y-16034500D01*
X10728500Y-16079000D01*
X10773000Y-16123500D01*
X11027000Y-13965500D02*
X11071500Y-13921000D01*
X11027000Y-13876500D01*
X10982500Y-13921000D01*
X11027000Y-13965500D01*
X11027000Y-14219500D02*
X11071500Y-14175000D01*
X11027000Y-14130500D01*
X10982500Y-14175000D01*
X11027000Y-14219500D01*
X11027000Y-14473500D02*
X11071500Y-14429000D01*
X11027000Y-14384500D01*
X10982500Y-14429000D01*
X11027000Y-14473500D01*
X11027000Y-15615500D02*
X11071500Y-15571000D01*
X11027000Y-15526500D01*
X10982500Y-15571000D01*
X11027000Y-15615500D01*
X11027000Y-15869500D02*
X11071500Y-15825000D01*
X11027000Y-15780500D01*
X10982500Y-15825000D01*
X11027000Y-15869500D01*
X11027000Y-16123500D02*
X11071500Y-16079000D01*
X11027000Y-16034500D01*
X10982500Y-16079000D01*
X11027000Y-16123500D01*
X17823000Y-17290500D02*
X17867500Y-17246000D01*
X17823000Y-17201500D01*
X17778500Y-17246000D01*
X17823000Y-17290500D01*
X17823000Y-17544500D02*
X17867500Y-17500000D01*
X17823000Y-17455500D01*
X17778500Y-17500000D01*
X17823000Y-17544500D01*
X17823000Y-17798500D02*
X17867500Y-17754000D01*
X17823000Y-17709500D01*
X17778500Y-17754000D01*
X17823000Y-17798500D01*
X18077000Y-17290500D02*
X18121500Y-17246000D01*
X18077000Y-17201500D01*
X18032500Y-17246000D01*
X18077000Y-17290500D01*
X18077000Y-17544500D02*
X18121500Y-17500000D01*
X18077000Y-17455500D01*
X18032500Y-17500000D01*
X18077000Y-17544500D01*
X18077000Y-17798500D02*
X18121500Y-17754000D01*
X18077000Y-17709500D01*
X18032500Y-17754000D01*
X18077000Y-17798500D01*
X21950000Y-17036500D02*
X21994500Y-16992000D01*
X21950000Y-16947500D01*
X21905500Y-16992000D01*
X21950000Y-17036500D01*
X21950000Y-17290500D02*
X21994500Y-17246000D01*
X21950000Y-17201500D01*
X21905500Y-17246000D01*
X21950000Y-17290500D01*
X21950000Y-17544500D02*
X21994500Y-17500000D01*
X21950000Y-17455500D01*
X21905500Y-17500000D01*
X21950000Y-17544500D01*
X21950000Y-17798500D02*
X21994500Y-17754000D01*
X21950000Y-17709500D01*
X21905500Y-17754000D01*
X21950000Y-17798500D01*
X21950000Y-18052500D02*
X21994500Y-18008000D01*
X21950000Y-17963500D01*
X21905500Y-18008000D01*
X21950000Y-18052500D01*
X22204000Y-17036500D02*
X22248500Y-16992000D01*
X22204000Y-16947500D01*
X22159500Y-16992000D01*
X22204000Y-17036500D01*
X22204000Y-17290500D02*
X22248500Y-17246000D01*
X22204000Y-17201500D01*
X22159500Y-17246000D01*
X22204000Y-17290500D01*
X22204000Y-17544500D02*
X22248500Y-17500000D01*
X22204000Y-17455500D01*
X22159500Y-17500000D01*
X22204000Y-17544500D01*
X22204000Y-17798500D02*
X22248500Y-17754000D01*
X22204000Y-17709500D01*
X22159500Y-17754000D01*
X22204000Y-17798500D01*
X22204000Y-18052500D02*
X22248500Y-18008000D01*
X22204000Y-17963500D01*
X22159500Y-18008000D01*
X22204000Y-18052500D01*
D10*
X10150000Y-11325000D02*
X10250000Y-11425000D01*
X10250000Y-11325000D02*
X10150000Y-11425000D01*
X10250000Y-11375000D02*
G75*
G03*
X10250000Y-11375000I-50000J0D01*
G01*
X10150000Y-11675000D02*
X10250000Y-11775000D01*
X10250000Y-11675000D02*
X10150000Y-11775000D01*
X10250000Y-11725000D02*
G75*
G03*
X10250000Y-11725000I-50000J0D01*
G01*
X10150000Y-12025000D02*
X10250000Y-12125000D01*
X10250000Y-12025000D02*
X10150000Y-12125000D01*
X10250000Y-12075000D02*
G75*
G03*
X10250000Y-12075000I-50000J0D01*
G01*
X10150000Y-12375000D02*
X10250000Y-12475000D01*
X10250000Y-12375000D02*
X10150000Y-12475000D01*
X10250000Y-12425000D02*
G75*
G03*
X10250000Y-12425000I-50000J0D01*
G01*
X10150000Y-12725000D02*
X10250000Y-12825000D01*
X10250000Y-12725000D02*
X10150000Y-12825000D01*
X10250000Y-12775000D02*
G75*
G03*
X10250000Y-12775000I-50000J0D01*
G01*
X10150000Y-13075000D02*
X10250000Y-13175000D01*
X10250000Y-13075000D02*
X10150000Y-13175000D01*
X10250000Y-13125000D02*
G75*
G03*
X10250000Y-13125000I-50000J0D01*
G01*
X10850000Y-16925000D02*
X10950000Y-17025000D01*
X10950000Y-16925000D02*
X10850000Y-17025000D01*
X10950000Y-16975000D02*
G75*
G03*
X10950000Y-16975000I-50000J0D01*
G01*
X10850000Y-17175000D02*
X10950000Y-17275000D01*
X10950000Y-17175000D02*
X10850000Y-17275000D01*
X10950000Y-17225000D02*
G75*
G03*
X10950000Y-17225000I-50000J0D01*
G01*
X10850000Y-17425000D02*
X10950000Y-17525000D01*
X10950000Y-17425000D02*
X10850000Y-17525000D01*
X10950000Y-17475000D02*
G75*
G03*
X10950000Y-17475000I-50000J0D01*
G01*
X12375000Y-8075000D02*
X12475000Y-8175000D01*
X12475000Y-8075000D02*
X12375000Y-8175000D01*
X12475000Y-8125000D02*
G75*
G03*
X12475000Y-8125000I-50000J0D01*
G01*
X12477500Y-8525000D02*
X12577500Y-8625000D01*
X12577500Y-8525000D02*
X12477500Y-8625000D01*
X12577500Y-8575000D02*
G75*
G03*
X12577500Y-8575000I-50000J0D01*
G01*
X12477500Y-8775000D02*
X12577500Y-8875000D01*
X12577500Y-8775000D02*
X12477500Y-8875000D01*
X12577500Y-8825000D02*
G75*
G03*
X12577500Y-8825000I-50000J0D01*
G01*
X12477500Y-9350000D02*
X12577500Y-9450000D01*
X12577500Y-9350000D02*
X12477500Y-9450000D01*
X12577500Y-9400000D02*
G75*
G03*
X12577500Y-9400000I-50000J0D01*
G01*
X12477500Y-9600000D02*
X12577500Y-9700000D01*
X12577500Y-9600000D02*
X12477500Y-9700000D01*
X12577500Y-9650000D02*
G75*
G03*
X12577500Y-9650000I-50000J0D01*
G01*
X12477500Y-9850000D02*
X12577500Y-9950000D01*
X12577500Y-9850000D02*
X12477500Y-9950000D01*
X12577500Y-9900000D02*
G75*
G03*
X12577500Y-9900000I-50000J0D01*
G01*
X12477500Y-10100000D02*
X12577500Y-10200000D01*
X12577500Y-10100000D02*
X12477500Y-10200000D01*
X12577500Y-10150000D02*
G75*
G03*
X12577500Y-10150000I-50000J0D01*
G01*
X12515000Y-19488000D02*
X12615000Y-19588000D01*
X12615000Y-19488000D02*
X12515000Y-19588000D01*
X12615000Y-19538000D02*
G75*
G03*
X12615000Y-19538000I-50000J0D01*
G01*
X12769000Y-19488000D02*
X12869000Y-19588000D01*
X12869000Y-19488000D02*
X12769000Y-19588000D01*
X12869000Y-19538000D02*
G75*
G03*
X12869000Y-19538000I-50000J0D01*
G01*
X12769000Y-21012000D02*
X12869000Y-21112000D01*
X12869000Y-21012000D02*
X12769000Y-21112000D01*
X12869000Y-21062000D02*
G75*
G03*
X12869000Y-21062000I-50000J0D01*
G01*
X13023000Y-19488000D02*
X13123000Y-19588000D01*
X13123000Y-19488000D02*
X13023000Y-19588000D01*
X13123000Y-19538000D02*
G75*
G03*
X13123000Y-19538000I-50000J0D01*
G01*
X13023000Y-21012000D02*
X13123000Y-21112000D01*
X13123000Y-21012000D02*
X13023000Y-21112000D01*
X13123000Y-21062000D02*
G75*
G03*
X13123000Y-21062000I-50000J0D01*
G01*
X13277000Y-19488000D02*
X13377000Y-19588000D01*
X13377000Y-19488000D02*
X13277000Y-19588000D01*
X13377000Y-19538000D02*
G75*
G03*
X13377000Y-19538000I-50000J0D01*
G01*
X13277000Y-21012000D02*
X13377000Y-21112000D01*
X13377000Y-21012000D02*
X13277000Y-21112000D01*
X13377000Y-21062000D02*
G75*
G03*
X13377000Y-21062000I-50000J0D01*
G01*
X13531000Y-19488000D02*
X13631000Y-19588000D01*
X13631000Y-19488000D02*
X13531000Y-19588000D01*
X13631000Y-19538000D02*
G75*
G03*
X13631000Y-19538000I-50000J0D01*
G01*
X13531000Y-21012000D02*
X13631000Y-21112000D01*
X13631000Y-21012000D02*
X13531000Y-21112000D01*
X13631000Y-21062000D02*
G75*
G03*
X13631000Y-21062000I-50000J0D01*
G01*
X13785000Y-19488000D02*
X13885000Y-19588000D01*
X13885000Y-19488000D02*
X13785000Y-19588000D01*
X13885000Y-19538000D02*
G75*
G03*
X13885000Y-19538000I-50000J0D01*
G01*
X17050000Y-7255000D02*
X17150000Y-7355000D01*
X17150000Y-7255000D02*
X17050000Y-7355000D01*
X17150000Y-7305000D02*
G75*
G03*
X17150000Y-7305000I-50000J0D01*
G01*
X17050000Y-7509000D02*
X17150000Y-7609000D01*
X17150000Y-7509000D02*
X17050000Y-7609000D01*
X17150000Y-7559000D02*
G75*
G03*
X17150000Y-7559000I-50000J0D01*
G01*
X17050000Y-7763000D02*
X17150000Y-7863000D01*
X17150000Y-7763000D02*
X17050000Y-7863000D01*
X17150000Y-7813000D02*
G75*
G03*
X17150000Y-7813000I-50000J0D01*
G01*
X17050000Y-8017000D02*
X17150000Y-8117000D01*
X17150000Y-8017000D02*
X17050000Y-8117000D01*
X17150000Y-8067000D02*
G75*
G03*
X17150000Y-8067000I-50000J0D01*
G01*
X17050000Y-8271000D02*
X17150000Y-8371000D01*
X17150000Y-8271000D02*
X17050000Y-8371000D01*
X17150000Y-8321000D02*
G75*
G03*
X17150000Y-8321000I-50000J0D01*
G01*
X17050000Y-8525000D02*
X17150000Y-8625000D01*
X17150000Y-8525000D02*
X17050000Y-8625000D01*
X17150000Y-8575000D02*
G75*
G03*
X17150000Y-8575000I-50000J0D01*
G01*
X17050000Y-8779000D02*
X17150000Y-8879000D01*
X17150000Y-8779000D02*
X17050000Y-8879000D01*
X17150000Y-8829000D02*
G75*
G03*
X17150000Y-8829000I-50000J0D01*
G01*
X17050000Y-9033000D02*
X17150000Y-9133000D01*
X17150000Y-9033000D02*
X17050000Y-9133000D01*
X17150000Y-9083000D02*
G75*
G03*
X17150000Y-9083000I-50000J0D01*
G01*
X17050000Y-9287000D02*
X17150000Y-9387000D01*
X17150000Y-9287000D02*
X17050000Y-9387000D01*
X17150000Y-9337000D02*
G75*
G03*
X17150000Y-9337000I-50000J0D01*
G01*
X17050000Y-9541000D02*
X17150000Y-9641000D01*
X17150000Y-9541000D02*
X17050000Y-9641000D01*
X17150000Y-9591000D02*
G75*
G03*
X17150000Y-9591000I-50000J0D01*
G01*
X17050000Y-9938000D02*
X17150000Y-10038000D01*
X17150000Y-9938000D02*
X17050000Y-10038000D01*
X17150000Y-9988000D02*
G75*
G03*
X17150000Y-9988000I-50000J0D01*
G01*
X17050000Y-10192000D02*
X17150000Y-10292000D01*
X17150000Y-10192000D02*
X17050000Y-10292000D01*
X17150000Y-10242000D02*
G75*
G03*
X17150000Y-10242000I-50000J0D01*
G01*
X17050000Y-10446000D02*
X17150000Y-10546000D01*
X17150000Y-10446000D02*
X17050000Y-10546000D01*
X17150000Y-10496000D02*
G75*
G03*
X17150000Y-10496000I-50000J0D01*
G01*
X17050000Y-10700000D02*
X17150000Y-10800000D01*
X17150000Y-10700000D02*
X17050000Y-10800000D01*
X17150000Y-10750000D02*
G75*
G03*
X17150000Y-10750000I-50000J0D01*
G01*
X17050000Y-10954000D02*
X17150000Y-11054000D01*
X17150000Y-10954000D02*
X17050000Y-11054000D01*
X17150000Y-11004000D02*
G75*
G03*
X17150000Y-11004000I-50000J0D01*
G01*
X17050000Y-11208000D02*
X17150000Y-11308000D01*
X17150000Y-11208000D02*
X17050000Y-11308000D01*
X17150000Y-11258000D02*
G75*
G03*
X17150000Y-11258000I-50000J0D01*
G01*
X17050000Y-11462000D02*
X17150000Y-11562000D01*
X17150000Y-11462000D02*
X17050000Y-11562000D01*
X17150000Y-11512000D02*
G75*
G03*
X17150000Y-11512000I-50000J0D01*
G01*
X17050000Y-11716000D02*
X17150000Y-11816000D01*
X17150000Y-11716000D02*
X17050000Y-11816000D01*
X17150000Y-11766000D02*
G75*
G03*
X17150000Y-11766000I-50000J0D01*
G01*
X17050000Y-12225000D02*
X17150000Y-12325000D01*
X17150000Y-12225000D02*
X17050000Y-12325000D01*
X17150000Y-12275000D02*
G75*
G03*
X17150000Y-12275000I-50000J0D01*
G01*
X17050000Y-12479000D02*
X17150000Y-12579000D01*
X17150000Y-12479000D02*
X17050000Y-12579000D01*
X17150000Y-12529000D02*
G75*
G03*
X17150000Y-12529000I-50000J0D01*
G01*
X17050000Y-12733000D02*
X17150000Y-12833000D01*
X17150000Y-12733000D02*
X17050000Y-12833000D01*
X17150000Y-12783000D02*
G75*
G03*
X17150000Y-12783000I-50000J0D01*
G01*
X17050000Y-12987000D02*
X17150000Y-13087000D01*
X17150000Y-12987000D02*
X17050000Y-13087000D01*
X17150000Y-13037000D02*
G75*
G03*
X17150000Y-13037000I-50000J0D01*
G01*
X17050000Y-13241000D02*
X17150000Y-13341000D01*
X17150000Y-13241000D02*
X17050000Y-13341000D01*
X17150000Y-13291000D02*
G75*
G03*
X17150000Y-13291000I-50000J0D01*
G01*
X17050000Y-13495000D02*
X17150000Y-13595000D01*
X17150000Y-13495000D02*
X17050000Y-13595000D01*
X17150000Y-13545000D02*
G75*
G03*
X17150000Y-13545000I-50000J0D01*
G01*
X17050000Y-13749000D02*
X17150000Y-13849000D01*
X17150000Y-13749000D02*
X17050000Y-13849000D01*
X17150000Y-13799000D02*
G75*
G03*
X17150000Y-13799000I-50000J0D01*
G01*
X17050000Y-14003000D02*
X17150000Y-14103000D01*
X17150000Y-14003000D02*
X17050000Y-14103000D01*
X17150000Y-14053000D02*
G75*
G03*
X17150000Y-14053000I-50000J0D01*
G01*
X17539000Y-15750000D02*
X17639000Y-15850000D01*
X17639000Y-15750000D02*
X17539000Y-15850000D01*
X17639000Y-15800000D02*
G75*
G03*
X17639000Y-15800000I-50000J0D01*
G01*
X17539000Y-16125000D02*
X17639000Y-16225000D01*
X17639000Y-16125000D02*
X17539000Y-16225000D01*
X17639000Y-16175000D02*
G75*
G03*
X17639000Y-16175000I-50000J0D01*
G01*
X17793000Y-15750000D02*
X17893000Y-15850000D01*
X17893000Y-15750000D02*
X17793000Y-15850000D01*
X17893000Y-15800000D02*
G75*
G03*
X17893000Y-15800000I-50000J0D01*
G01*
X17793000Y-16125000D02*
X17893000Y-16225000D01*
X17893000Y-16125000D02*
X17793000Y-16225000D01*
X17893000Y-16175000D02*
G75*
G03*
X17893000Y-16175000I-50000J0D01*
G01*
X18047000Y-15750000D02*
X18147000Y-15850000D01*
X18147000Y-15750000D02*
X18047000Y-15850000D01*
X18147000Y-15800000D02*
G75*
G03*
X18147000Y-15800000I-50000J0D01*
G01*
X18047000Y-16125000D02*
X18147000Y-16225000D01*
X18147000Y-16125000D02*
X18047000Y-16225000D01*
X18147000Y-16175000D02*
G75*
G03*
X18147000Y-16175000I-50000J0D01*
G01*
X18301000Y-15750000D02*
X18401000Y-15850000D01*
X18401000Y-15750000D02*
X18301000Y-15850000D01*
X18401000Y-15800000D02*
G75*
G03*
X18401000Y-15800000I-50000J0D01*
G01*
X18301000Y-16125000D02*
X18401000Y-16225000D01*
X18401000Y-16125000D02*
X18301000Y-16225000D01*
X18401000Y-16175000D02*
G75*
G03*
X18401000Y-16175000I-50000J0D01*
G01*
X18555000Y-15750000D02*
X18655000Y-15850000D01*
X18655000Y-15750000D02*
X18555000Y-15850000D01*
X18655000Y-15800000D02*
G75*
G03*
X18655000Y-15800000I-50000J0D01*
G01*
X18555000Y-16125000D02*
X18655000Y-16225000D01*
X18655000Y-16125000D02*
X18555000Y-16225000D01*
X18655000Y-16175000D02*
G75*
G03*
X18655000Y-16175000I-50000J0D01*
G01*
X18809000Y-15750000D02*
X18909000Y-15850000D01*
X18909000Y-15750000D02*
X18809000Y-15850000D01*
X18909000Y-15800000D02*
G75*
G03*
X18909000Y-15800000I-50000J0D01*
G01*
X18809000Y-16125000D02*
X18909000Y-16225000D01*
X18909000Y-16125000D02*
X18809000Y-16225000D01*
X18909000Y-16175000D02*
G75*
G03*
X18909000Y-16175000I-50000J0D01*
G01*
X18825000Y-16752500D02*
X18925000Y-16852500D01*
X18925000Y-16752500D02*
X18825000Y-16852500D01*
X18925000Y-16802500D02*
G75*
G03*
X18925000Y-16802500I-50000J0D01*
G01*
X18825000Y-18097500D02*
X18925000Y-18197500D01*
X18925000Y-18097500D02*
X18825000Y-18197500D01*
X18925000Y-18147500D02*
G75*
G03*
X18925000Y-18147500I-50000J0D01*
G01*
X19063000Y-15750000D02*
X19163000Y-15850000D01*
X19163000Y-15750000D02*
X19063000Y-15850000D01*
X19163000Y-15800000D02*
G75*
G03*
X19163000Y-15800000I-50000J0D01*
G01*
X19063000Y-16125000D02*
X19163000Y-16225000D01*
X19163000Y-16125000D02*
X19063000Y-16225000D01*
X19163000Y-16175000D02*
G75*
G03*
X19163000Y-16175000I-50000J0D01*
G01*
X19075000Y-16752500D02*
X19175000Y-16852500D01*
X19175000Y-16752500D02*
X19075000Y-16852500D01*
X19175000Y-16802500D02*
G75*
G03*
X19175000Y-16802500I-50000J0D01*
G01*
X19075000Y-18097500D02*
X19175000Y-18197500D01*
X19175000Y-18097500D02*
X19075000Y-18197500D01*
X19175000Y-18147500D02*
G75*
G03*
X19175000Y-18147500I-50000J0D01*
G01*
X19317000Y-15750000D02*
X19417000Y-15850000D01*
X19417000Y-15750000D02*
X19317000Y-15850000D01*
X19417000Y-15800000D02*
G75*
G03*
X19417000Y-15800000I-50000J0D01*
G01*
X19317000Y-16125000D02*
X19417000Y-16225000D01*
X19417000Y-16125000D02*
X19317000Y-16225000D01*
X19417000Y-16175000D02*
G75*
G03*
X19417000Y-16175000I-50000J0D01*
G01*
X19325000Y-16752500D02*
X19425000Y-16852500D01*
X19425000Y-16752500D02*
X19325000Y-16852500D01*
X19425000Y-16802500D02*
G75*
G03*
X19425000Y-16802500I-50000J0D01*
G01*
X19325000Y-18097500D02*
X19425000Y-18197500D01*
X19425000Y-18097500D02*
X19325000Y-18197500D01*
X19425000Y-18147500D02*
G75*
G03*
X19425000Y-18147500I-50000J0D01*
G01*
X19571000Y-15750000D02*
X19671000Y-15850000D01*
X19671000Y-15750000D02*
X19571000Y-15850000D01*
X19671000Y-15800000D02*
G75*
G03*
X19671000Y-15800000I-50000J0D01*
G01*
X19571000Y-16125000D02*
X19671000Y-16225000D01*
X19671000Y-16125000D02*
X19571000Y-16225000D01*
X19671000Y-16175000D02*
G75*
G03*
X19671000Y-16175000I-50000J0D01*
G01*
X19575000Y-16752500D02*
X19675000Y-16852500D01*
X19675000Y-16752500D02*
X19575000Y-16852500D01*
X19675000Y-16802500D02*
G75*
G03*
X19675000Y-16802500I-50000J0D01*
G01*
X19575000Y-18097500D02*
X19675000Y-18197500D01*
X19675000Y-18097500D02*
X19575000Y-18197500D01*
X19675000Y-18147500D02*
G75*
G03*
X19675000Y-18147500I-50000J0D01*
G01*
X19825000Y-15750000D02*
X19925000Y-15850000D01*
X19925000Y-15750000D02*
X19825000Y-15850000D01*
X19925000Y-15800000D02*
G75*
G03*
X19925000Y-15800000I-50000J0D01*
G01*
X19825000Y-16125000D02*
X19925000Y-16225000D01*
X19925000Y-16125000D02*
X19825000Y-16225000D01*
X19925000Y-16175000D02*
G75*
G03*
X19925000Y-16175000I-50000J0D01*
G01*
X20079000Y-15750000D02*
X20179000Y-15850000D01*
X20179000Y-15750000D02*
X20079000Y-15850000D01*
X20179000Y-15800000D02*
G75*
G03*
X20179000Y-15800000I-50000J0D01*
G01*
X20079000Y-16125000D02*
X20179000Y-16225000D01*
X20179000Y-16125000D02*
X20079000Y-16225000D01*
X20179000Y-16175000D02*
G75*
G03*
X20179000Y-16175000I-50000J0D01*
G01*
X20325000Y-16752500D02*
X20425000Y-16852500D01*
X20425000Y-16752500D02*
X20325000Y-16852500D01*
X20425000Y-16802500D02*
G75*
G03*
X20425000Y-16802500I-50000J0D01*
G01*
X20325000Y-18097500D02*
X20425000Y-18197500D01*
X20425000Y-18097500D02*
X20325000Y-18197500D01*
X20425000Y-18147500D02*
G75*
G03*
X20425000Y-18147500I-50000J0D01*
G01*
X20333000Y-15750000D02*
X20433000Y-15850000D01*
X20433000Y-15750000D02*
X20333000Y-15850000D01*
X20433000Y-15800000D02*
G75*
G03*
X20433000Y-15800000I-50000J0D01*
G01*
X20333000Y-16125000D02*
X20433000Y-16225000D01*
X20433000Y-16125000D02*
X20333000Y-16225000D01*
X20433000Y-16175000D02*
G75*
G03*
X20433000Y-16175000I-50000J0D01*
G01*
X20575000Y-16752500D02*
X20675000Y-16852500D01*
X20675000Y-16752500D02*
X20575000Y-16852500D01*
X20675000Y-16802500D02*
G75*
G03*
X20675000Y-16802500I-50000J0D01*
G01*
X20575000Y-18097500D02*
X20675000Y-18197500D01*
X20675000Y-18097500D02*
X20575000Y-18197500D01*
X20675000Y-18147500D02*
G75*
G03*
X20675000Y-18147500I-50000J0D01*
G01*
X20587000Y-15750000D02*
X20687000Y-15850000D01*
X20687000Y-15750000D02*
X20587000Y-15850000D01*
X20687000Y-15800000D02*
G75*
G03*
X20687000Y-15800000I-50000J0D01*
G01*
X20587000Y-16125000D02*
X20687000Y-16225000D01*
X20687000Y-16125000D02*
X20587000Y-16225000D01*
X20687000Y-16175000D02*
G75*
G03*
X20687000Y-16175000I-50000J0D01*
G01*
X20825000Y-16752500D02*
X20925000Y-16852500D01*
X20925000Y-16752500D02*
X20825000Y-16852500D01*
X20925000Y-16802500D02*
G75*
G03*
X20925000Y-16802500I-50000J0D01*
G01*
X20825000Y-18097500D02*
X20925000Y-18197500D01*
X20925000Y-18097500D02*
X20825000Y-18197500D01*
X20925000Y-18147500D02*
G75*
G03*
X20925000Y-18147500I-50000J0D01*
G01*
X20841000Y-15750000D02*
X20941000Y-15850000D01*
X20941000Y-15750000D02*
X20841000Y-15850000D01*
X20941000Y-15800000D02*
G75*
G03*
X20941000Y-15800000I-50000J0D01*
G01*
X20841000Y-16125000D02*
X20941000Y-16225000D01*
X20941000Y-16125000D02*
X20841000Y-16225000D01*
X20941000Y-16175000D02*
G75*
G03*
X20941000Y-16175000I-50000J0D01*
G01*
X21075000Y-16752500D02*
X21175000Y-16852500D01*
X21175000Y-16752500D02*
X21075000Y-16852500D01*
X21175000Y-16802500D02*
G75*
G03*
X21175000Y-16802500I-50000J0D01*
G01*
X21075000Y-18097500D02*
X21175000Y-18197500D01*
X21175000Y-18097500D02*
X21075000Y-18197500D01*
X21175000Y-18147500D02*
G75*
G03*
X21175000Y-18147500I-50000J0D01*
G01*
X21095000Y-15750000D02*
X21195000Y-15850000D01*
X21195000Y-15750000D02*
X21095000Y-15850000D01*
X21195000Y-15800000D02*
G75*
G03*
X21195000Y-15800000I-50000J0D01*
G01*
X21095000Y-16125000D02*
X21195000Y-16225000D01*
X21195000Y-16125000D02*
X21095000Y-16225000D01*
X21195000Y-16175000D02*
G75*
G03*
X21195000Y-16175000I-50000J0D01*
G01*
X21349000Y-15750000D02*
X21449000Y-15850000D01*
X21449000Y-15750000D02*
X21349000Y-15850000D01*
X21449000Y-15800000D02*
G75*
G03*
X21449000Y-15800000I-50000J0D01*
G01*
X21349000Y-16125000D02*
X21449000Y-16225000D01*
X21449000Y-16125000D02*
X21349000Y-16225000D01*
X21449000Y-16175000D02*
G75*
G03*
X21449000Y-16175000I-50000J0D01*
G01*
X21603000Y-15750000D02*
X21703000Y-15850000D01*
X21703000Y-15750000D02*
X21603000Y-15850000D01*
X21703000Y-15800000D02*
G75*
G03*
X21703000Y-15800000I-50000J0D01*
G01*
X21603000Y-16125000D02*
X21703000Y-16225000D01*
X21703000Y-16125000D02*
X21603000Y-16225000D01*
X21703000Y-16175000D02*
G75*
G03*
X21703000Y-16175000I-50000J0D01*
G01*
X21857000Y-15750000D02*
X21957000Y-15850000D01*
X21957000Y-15750000D02*
X21857000Y-15850000D01*
X21957000Y-15800000D02*
G75*
G03*
X21957000Y-15800000I-50000J0D01*
G01*
X21857000Y-16125000D02*
X21957000Y-16225000D01*
X21957000Y-16125000D02*
X21857000Y-16225000D01*
X21957000Y-16175000D02*
G75*
G03*
X21957000Y-16175000I-50000J0D01*
G01*
X22850000Y-8162500D02*
X22950000Y-8262500D01*
X22950000Y-8162500D02*
X22850000Y-8262500D01*
X22950000Y-8212500D02*
G75*
G03*
X22950000Y-8212500I-50000J0D01*
G01*
X22850000Y-8416500D02*
X22950000Y-8516500D01*
X22950000Y-8416500D02*
X22850000Y-8516500D01*
X22950000Y-8466500D02*
G75*
G03*
X22950000Y-8466500I-50000J0D01*
G01*
X22850000Y-8670500D02*
X22950000Y-8770500D01*
X22950000Y-8670500D02*
X22850000Y-8770500D01*
X22950000Y-8720500D02*
G75*
G03*
X22950000Y-8720500I-50000J0D01*
G01*
X22850000Y-8924500D02*
X22950000Y-9024500D01*
X22950000Y-8924500D02*
X22850000Y-9024500D01*
X22950000Y-8974500D02*
G75*
G03*
X22950000Y-8974500I-50000J0D01*
G01*
X22850000Y-9178500D02*
X22950000Y-9278500D01*
X22950000Y-9178500D02*
X22850000Y-9278500D01*
X22950000Y-9228500D02*
G75*
G03*
X22950000Y-9228500I-50000J0D01*
G01*
X22850000Y-9432500D02*
X22950000Y-9532500D01*
X22950000Y-9432500D02*
X22850000Y-9532500D01*
X22950000Y-9482500D02*
G75*
G03*
X22950000Y-9482500I-50000J0D01*
G01*
X22850000Y-9686500D02*
X22950000Y-9786500D01*
X22950000Y-9686500D02*
X22850000Y-9786500D01*
X22950000Y-9736500D02*
G75*
G03*
X22950000Y-9736500I-50000J0D01*
G01*
X22850000Y-9940500D02*
X22950000Y-10040500D01*
X22950000Y-9940500D02*
X22850000Y-10040500D01*
X22950000Y-9990500D02*
G75*
G03*
X22950000Y-9990500I-50000J0D01*
G01*
X22850000Y-10447000D02*
X22950000Y-10547000D01*
X22950000Y-10447000D02*
X22850000Y-10547000D01*
X22950000Y-10497000D02*
G75*
G03*
X22950000Y-10497000I-50000J0D01*
G01*
X22850000Y-10701000D02*
X22950000Y-10801000D01*
X22950000Y-10701000D02*
X22850000Y-10801000D01*
X22950000Y-10751000D02*
G75*
G03*
X22950000Y-10751000I-50000J0D01*
G01*
X22850000Y-10955000D02*
X22950000Y-11055000D01*
X22950000Y-10955000D02*
X22850000Y-11055000D01*
X22950000Y-11005000D02*
G75*
G03*
X22950000Y-11005000I-50000J0D01*
G01*
X22850000Y-11209000D02*
X22950000Y-11309000D01*
X22950000Y-11209000D02*
X22850000Y-11309000D01*
X22950000Y-11259000D02*
G75*
G03*
X22950000Y-11259000I-50000J0D01*
G01*
X22850000Y-11463000D02*
X22950000Y-11563000D01*
X22950000Y-11463000D02*
X22850000Y-11563000D01*
X22950000Y-11513000D02*
G75*
G03*
X22950000Y-11513000I-50000J0D01*
G01*
X22850000Y-11717000D02*
X22950000Y-11817000D01*
X22950000Y-11717000D02*
X22850000Y-11817000D01*
X22950000Y-11767000D02*
G75*
G03*
X22950000Y-11767000I-50000J0D01*
G01*
X22850000Y-11971000D02*
X22950000Y-12071000D01*
X22950000Y-11971000D02*
X22850000Y-12071000D01*
X22950000Y-12021000D02*
G75*
G03*
X22950000Y-12021000I-50000J0D01*
G01*
X22850000Y-12225000D02*
X22950000Y-12325000D01*
X22950000Y-12225000D02*
X22850000Y-12325000D01*
X22950000Y-12275000D02*
G75*
G03*
X22950000Y-12275000I-50000J0D01*
G01*
X22850000Y-12687500D02*
X22950000Y-12787500D01*
X22950000Y-12687500D02*
X22850000Y-12787500D01*
X22950000Y-12737500D02*
G75*
G03*
X22950000Y-12737500I-50000J0D01*
G01*
X22850000Y-12941500D02*
X22950000Y-13041500D01*
X22950000Y-12941500D02*
X22850000Y-13041500D01*
X22950000Y-12991500D02*
G75*
G03*
X22950000Y-12991500I-50000J0D01*
G01*
X22850000Y-13195500D02*
X22950000Y-13295500D01*
X22950000Y-13195500D02*
X22850000Y-13295500D01*
X22950000Y-13245500D02*
G75*
G03*
X22950000Y-13245500I-50000J0D01*
G01*
X22850000Y-13449500D02*
X22950000Y-13549500D01*
X22950000Y-13449500D02*
X22850000Y-13549500D01*
X22950000Y-13499500D02*
G75*
G03*
X22950000Y-13499500I-50000J0D01*
G01*
X22850000Y-13703500D02*
X22950000Y-13803500D01*
X22950000Y-13703500D02*
X22850000Y-13803500D01*
X22950000Y-13753500D02*
G75*
G03*
X22950000Y-13753500I-50000J0D01*
G01*
X22850000Y-13957500D02*
X22950000Y-14057500D01*
X22950000Y-13957500D02*
X22850000Y-14057500D01*
X22950000Y-14007500D02*
G75*
G03*
X22950000Y-14007500I-50000J0D01*
G01*
X22850000Y-14211500D02*
X22950000Y-14311500D01*
X22950000Y-14211500D02*
X22850000Y-14311500D01*
X22950000Y-14261500D02*
G75*
G03*
X22950000Y-14261500I-50000J0D01*
G01*
X22850000Y-14465500D02*
X22950000Y-14565500D01*
X22950000Y-14465500D02*
X22850000Y-14565500D01*
X22950000Y-14515500D02*
G75*
G03*
X22950000Y-14515500I-50000J0D01*
G01*
D18*
X16735000Y-19935000D02*
X16865000Y-20065000D01*
X16865000Y-19935000D02*
X16735000Y-20065000D01*
X16800000Y-19935000D02*
X16800000Y-20065000D01*
X16735000Y-20000000D02*
X16865000Y-20000000D01*
X17235000Y-19935000D02*
X17365000Y-20065000D01*
X17365000Y-19935000D02*
X17235000Y-20065000D01*
X17300000Y-19935000D02*
X17300000Y-20065000D01*
X17235000Y-20000000D02*
X17365000Y-20000000D01*
X17410000Y-21585000D02*
X17540000Y-21715000D01*
X17540000Y-21585000D02*
X17410000Y-21715000D01*
X17475000Y-21585000D02*
X17475000Y-21715000D01*
X17410000Y-21650000D02*
X17540000Y-21650000D01*
X17910000Y-21585000D02*
X18040000Y-21715000D01*
X18040000Y-21585000D02*
X17910000Y-21715000D01*
X17975000Y-21585000D02*
X17975000Y-21715000D01*
X17910000Y-21650000D02*
X18040000Y-21650000D01*
X22660000Y-19935000D02*
X22790000Y-20065000D01*
X22790000Y-19935000D02*
X22660000Y-20065000D01*
X22725000Y-19935000D02*
X22725000Y-20065000D01*
X22660000Y-20000000D02*
X22790000Y-20000000D01*
X23160000Y-19935000D02*
X23290000Y-20065000D01*
X23290000Y-19935000D02*
X23160000Y-20065000D01*
X23225000Y-19935000D02*
X23225000Y-20065000D01*
X23160000Y-20000000D02*
X23290000Y-20000000D01*
D19*
X12059000Y-19413000D02*
X12309000Y-19663000D01*
X12309000Y-19413000D02*
X12059000Y-19663000D01*
X12272389Y-19626389D02*
X12272389Y-19449611D01*
X12095611Y-19449611D01*
X12095611Y-19626389D01*
X12272389Y-19626389D01*
X12059000Y-20937000D02*
X12309000Y-21187000D01*
X12309000Y-20937000D02*
X12059000Y-21187000D01*
X12272389Y-21150389D02*
X12272389Y-20973611D01*
X12095611Y-20973611D01*
X12095611Y-21150389D01*
X12272389Y-21150389D01*
X14091000Y-19413000D02*
X14341000Y-19663000D01*
X14341000Y-19413000D02*
X14091000Y-19663000D01*
X14304389Y-19626389D02*
X14304389Y-19449611D01*
X14127611Y-19449611D01*
X14127611Y-19626389D01*
X14304389Y-19626389D01*
X14091000Y-20937000D02*
X14341000Y-21187000D01*
X14341000Y-20937000D02*
X14091000Y-21187000D01*
X14304389Y-21150389D02*
X14304389Y-20973611D01*
X14127611Y-20973611D01*
X14127611Y-21150389D01*
X14304389Y-21150389D01*
D20*
X14912500Y-19772500D02*
X15367500Y-20227500D01*
X15367500Y-19772500D02*
X14912500Y-20227500D01*
X15140000Y-20227500D02*
X15367500Y-20000000D01*
X15140000Y-19772500D01*
X14912500Y-20000000D01*
X15140000Y-20227500D01*
X15632500Y-19772500D02*
X16087500Y-20227500D01*
X16087500Y-19772500D02*
X15632500Y-20227500D01*
X15860000Y-20227500D02*
X16087500Y-20000000D01*
X15860000Y-19772500D01*
X15632500Y-20000000D01*
X15860000Y-20227500D01*
X19412500Y-21422500D02*
X19867500Y-21877500D01*
X19867500Y-21422500D02*
X19412500Y-21877500D01*
X19640000Y-21877500D02*
X19867500Y-21650000D01*
X19640000Y-21422500D01*
X19412500Y-21650000D01*
X19640000Y-21877500D01*
X20132500Y-21422500D02*
X20587500Y-21877500D01*
X20587500Y-21422500D02*
X20132500Y-21877500D01*
X20360000Y-21877500D02*
X20587500Y-21650000D01*
X20360000Y-21422500D01*
X20132500Y-21650000D01*
X20360000Y-21877500D01*
X23912500Y-19772500D02*
X24367500Y-20227500D01*
X24367500Y-19772500D02*
X23912500Y-20227500D01*
X24140000Y-20227500D02*
X24367500Y-20000000D01*
X24140000Y-19772500D01*
X23912500Y-20000000D01*
X24140000Y-20227500D01*
X24632500Y-19772500D02*
X25087500Y-20227500D01*
X25087500Y-19772500D02*
X24632500Y-20227500D01*
X24860000Y-20227500D02*
X25087500Y-20000000D01*
X24860000Y-19772500D01*
X24632500Y-20000000D01*
X24860000Y-20227500D01*
D12*
X9502619Y-25227210D02*
X9502619Y-25027210D01*
X9550238Y-25027210D01*
X9578810Y-25036734D01*
X9597857Y-25055782D01*
X9607381Y-25074829D01*
X9616905Y-25112924D01*
X9616905Y-25141496D01*
X9607381Y-25179591D01*
X9597857Y-25198639D01*
X9578810Y-25217686D01*
X9550238Y-25227210D01*
X9502619Y-25227210D01*
X9702619Y-25227210D02*
X9702619Y-25093877D01*
X9702619Y-25131972D02*
X9712143Y-25112924D01*
X9721667Y-25103401D01*
X9740714Y-25093877D01*
X9759762Y-25093877D01*
X9826429Y-25227210D02*
X9826429Y-25093877D01*
X9826429Y-25027210D02*
X9816905Y-25036734D01*
X9826429Y-25046258D01*
X9835952Y-25036734D01*
X9826429Y-25027210D01*
X9826429Y-25046258D01*
X9950238Y-25227210D02*
X9931190Y-25217686D01*
X9921667Y-25198639D01*
X9921667Y-25027210D01*
X10055000Y-25227210D02*
X10035952Y-25217686D01*
X10026429Y-25198639D01*
X10026429Y-25027210D01*
X10283571Y-25227210D02*
X10283571Y-25027210D01*
X10350238Y-25170067D01*
X10416905Y-25027210D01*
X10416905Y-25227210D01*
X10597857Y-25227210D02*
X10597857Y-25122448D01*
X10588333Y-25103401D01*
X10569286Y-25093877D01*
X10531190Y-25093877D01*
X10512143Y-25103401D01*
X10597857Y-25217686D02*
X10578810Y-25227210D01*
X10531190Y-25227210D01*
X10512143Y-25217686D01*
X10502619Y-25198639D01*
X10502619Y-25179591D01*
X10512143Y-25160543D01*
X10531190Y-25151020D01*
X10578810Y-25151020D01*
X10597857Y-25141496D01*
X10693095Y-25093877D02*
X10693095Y-25293877D01*
X10693095Y-25103401D02*
X10712143Y-25093877D01*
X10750238Y-25093877D01*
X10769286Y-25103401D01*
X10778810Y-25112924D01*
X10788333Y-25131972D01*
X10788333Y-25189115D01*
X10778810Y-25208162D01*
X10769286Y-25217686D01*
X10750238Y-25227210D01*
X10712143Y-25227210D01*
X10693095Y-25217686D01*
X10874048Y-25208162D02*
X10883571Y-25217686D01*
X10874048Y-25227210D01*
X10864524Y-25217686D01*
X10874048Y-25208162D01*
X10874048Y-25227210D01*
X10874048Y-25103401D02*
X10883571Y-25112924D01*
X10874048Y-25122448D01*
X10864524Y-25112924D01*
X10874048Y-25103401D01*
X10874048Y-25122448D01*
D13*
X9215000Y-25541734D02*
X9245000Y-25571734D01*
X9245000Y-25541734D02*
X9215000Y-25571734D01*
D12*
X9540714Y-25447210D02*
X9559762Y-25447210D01*
X9578810Y-25456734D01*
X9588333Y-25466258D01*
X9597857Y-25485305D01*
X9607381Y-25523401D01*
X9607381Y-25571020D01*
X9597857Y-25609115D01*
X9588333Y-25628162D01*
X9578810Y-25637686D01*
X9559762Y-25647210D01*
X9540714Y-25647210D01*
X9521667Y-25637686D01*
X9512143Y-25628162D01*
X9502619Y-25609115D01*
X9493095Y-25571020D01*
X9493095Y-25523401D01*
X9502619Y-25485305D01*
X9512143Y-25466258D01*
X9521667Y-25456734D01*
X9540714Y-25447210D01*
X9693095Y-25628162D02*
X9702619Y-25637686D01*
X9693095Y-25647210D01*
X9683571Y-25637686D01*
X9693095Y-25628162D01*
X9693095Y-25647210D01*
X9769286Y-25447210D02*
X9893095Y-25447210D01*
X9826429Y-25523401D01*
X9855000Y-25523401D01*
X9874048Y-25532924D01*
X9883571Y-25542448D01*
X9893095Y-25561496D01*
X9893095Y-25609115D01*
X9883571Y-25628162D01*
X9874048Y-25637686D01*
X9855000Y-25647210D01*
X9797857Y-25647210D01*
X9778810Y-25637686D01*
X9769286Y-25628162D01*
X10016905Y-25447210D02*
X10035952Y-25447210D01*
X10055000Y-25456734D01*
X10064524Y-25466258D01*
X10074048Y-25485305D01*
X10083571Y-25523401D01*
X10083571Y-25571020D01*
X10074048Y-25609115D01*
X10064524Y-25628162D01*
X10055000Y-25637686D01*
X10035952Y-25647210D01*
X10016905Y-25647210D01*
X9997857Y-25637686D01*
X9988333Y-25628162D01*
X9978810Y-25609115D01*
X9969286Y-25571020D01*
X9969286Y-25523401D01*
X9978810Y-25485305D01*
X9988333Y-25466258D01*
X9997857Y-25456734D01*
X10016905Y-25447210D01*
X10207381Y-25447210D02*
X10226429Y-25447210D01*
X10245476Y-25456734D01*
X10255000Y-25466258D01*
X10264524Y-25485305D01*
X10274048Y-25523401D01*
X10274048Y-25571020D01*
X10264524Y-25609115D01*
X10255000Y-25628162D01*
X10245476Y-25637686D01*
X10226429Y-25647210D01*
X10207381Y-25647210D01*
X10188333Y-25637686D01*
X10178810Y-25628162D01*
X10169286Y-25609115D01*
X10159762Y-25571020D01*
X10159762Y-25523401D01*
X10169286Y-25485305D01*
X10178810Y-25466258D01*
X10188333Y-25456734D01*
X10207381Y-25447210D01*
X10359762Y-25647210D02*
X10359762Y-25513877D01*
X10359762Y-25532924D02*
X10369286Y-25523401D01*
X10388333Y-25513877D01*
X10416905Y-25513877D01*
X10435952Y-25523401D01*
X10445476Y-25542448D01*
X10445476Y-25647210D01*
X10445476Y-25542448D02*
X10455000Y-25523401D01*
X10474048Y-25513877D01*
X10502619Y-25513877D01*
X10521667Y-25523401D01*
X10531190Y-25542448D01*
X10531190Y-25647210D01*
X10626429Y-25647210D02*
X10626429Y-25513877D01*
X10626429Y-25532924D02*
X10635952Y-25523401D01*
X10655000Y-25513877D01*
X10683571Y-25513877D01*
X10702619Y-25523401D01*
X10712143Y-25542448D01*
X10712143Y-25647210D01*
X10712143Y-25542448D02*
X10721667Y-25523401D01*
X10740714Y-25513877D01*
X10769286Y-25513877D01*
X10788333Y-25523401D01*
X10797857Y-25542448D01*
X10797857Y-25647210D01*
X11188333Y-25437686D02*
X11016905Y-25694829D01*
X11445476Y-25447210D02*
X11464524Y-25447210D01*
X11483571Y-25456734D01*
X11493095Y-25466258D01*
X11502619Y-25485305D01*
X11512143Y-25523401D01*
X11512143Y-25571020D01*
X11502619Y-25609115D01*
X11493095Y-25628162D01*
X11483571Y-25637686D01*
X11464524Y-25647210D01*
X11445476Y-25647210D01*
X11426428Y-25637686D01*
X11416905Y-25628162D01*
X11407381Y-25609115D01*
X11397857Y-25571020D01*
X11397857Y-25523401D01*
X11407381Y-25485305D01*
X11416905Y-25466258D01*
X11426428Y-25456734D01*
X11445476Y-25447210D01*
X11597857Y-25628162D02*
X11607381Y-25637686D01*
X11597857Y-25647210D01*
X11588333Y-25637686D01*
X11597857Y-25628162D01*
X11597857Y-25647210D01*
X11731190Y-25447210D02*
X11750238Y-25447210D01*
X11769286Y-25456734D01*
X11778809Y-25466258D01*
X11788333Y-25485305D01*
X11797857Y-25523401D01*
X11797857Y-25571020D01*
X11788333Y-25609115D01*
X11778809Y-25628162D01*
X11769286Y-25637686D01*
X11750238Y-25647210D01*
X11731190Y-25647210D01*
X11712143Y-25637686D01*
X11702619Y-25628162D01*
X11693095Y-25609115D01*
X11683571Y-25571020D01*
X11683571Y-25523401D01*
X11693095Y-25485305D01*
X11702619Y-25466258D01*
X11712143Y-25456734D01*
X11731190Y-25447210D01*
X11988333Y-25647210D02*
X11874048Y-25647210D01*
X11931190Y-25647210D02*
X11931190Y-25447210D01*
X11912143Y-25475782D01*
X11893095Y-25494829D01*
X11874048Y-25504353D01*
X12178809Y-25647210D02*
X12064524Y-25647210D01*
X12121667Y-25647210D02*
X12121667Y-25447210D01*
X12102619Y-25475782D01*
X12083571Y-25494829D01*
X12064524Y-25504353D01*
X12293095Y-25532924D02*
X12274048Y-25523401D01*
X12264524Y-25513877D01*
X12255000Y-25494829D01*
X12255000Y-25485305D01*
X12264524Y-25466258D01*
X12274048Y-25456734D01*
X12293095Y-25447210D01*
X12331190Y-25447210D01*
X12350238Y-25456734D01*
X12359762Y-25466258D01*
X12369286Y-25485305D01*
X12369286Y-25494829D01*
X12359762Y-25513877D01*
X12350238Y-25523401D01*
X12331190Y-25532924D01*
X12293095Y-25532924D01*
X12274048Y-25542448D01*
X12264524Y-25551972D01*
X12255000Y-25571020D01*
X12255000Y-25609115D01*
X12264524Y-25628162D01*
X12274048Y-25637686D01*
X12293095Y-25647210D01*
X12331190Y-25647210D01*
X12350238Y-25637686D01*
X12359762Y-25628162D01*
X12369286Y-25609115D01*
X12369286Y-25571020D01*
X12359762Y-25551972D01*
X12350238Y-25542448D01*
X12331190Y-25532924D01*
X12445476Y-25447210D02*
X12445476Y-25485305D01*
X12521667Y-25447210D02*
X12521667Y-25485305D01*
X12816905Y-25723401D02*
X12807381Y-25713877D01*
X12788333Y-25685305D01*
X12778809Y-25666258D01*
X12769286Y-25637686D01*
X12759762Y-25590067D01*
X12759762Y-25551972D01*
X12769286Y-25504353D01*
X12778809Y-25475782D01*
X12788333Y-25456734D01*
X12807381Y-25428162D01*
X12816905Y-25418639D01*
X12883571Y-25466258D02*
X12893095Y-25456734D01*
X12912143Y-25447210D01*
X12959762Y-25447210D01*
X12978809Y-25456734D01*
X12988333Y-25466258D01*
X12997857Y-25485305D01*
X12997857Y-25504353D01*
X12988333Y-25532924D01*
X12874048Y-25647210D01*
X12997857Y-25647210D01*
X13188333Y-25647210D02*
X13074048Y-25647210D01*
X13131190Y-25647210D02*
X13131190Y-25447210D01*
X13112143Y-25475782D01*
X13093095Y-25494829D01*
X13074048Y-25504353D01*
X13426428Y-25647210D02*
X13426428Y-25447210D01*
X13512143Y-25647210D02*
X13512143Y-25542448D01*
X13502619Y-25523401D01*
X13483571Y-25513877D01*
X13455000Y-25513877D01*
X13435952Y-25523401D01*
X13426428Y-25532924D01*
X13635952Y-25647210D02*
X13616905Y-25637686D01*
X13607381Y-25628162D01*
X13597857Y-25609115D01*
X13597857Y-25551972D01*
X13607381Y-25532924D01*
X13616905Y-25523401D01*
X13635952Y-25513877D01*
X13664524Y-25513877D01*
X13683571Y-25523401D01*
X13693095Y-25532924D01*
X13702619Y-25551972D01*
X13702619Y-25609115D01*
X13693095Y-25628162D01*
X13683571Y-25637686D01*
X13664524Y-25647210D01*
X13635952Y-25647210D01*
X13816905Y-25647210D02*
X13797857Y-25637686D01*
X13788333Y-25618639D01*
X13788333Y-25447210D01*
X13969286Y-25637686D02*
X13950238Y-25647210D01*
X13912143Y-25647210D01*
X13893095Y-25637686D01*
X13883571Y-25618639D01*
X13883571Y-25542448D01*
X13893095Y-25523401D01*
X13912143Y-25513877D01*
X13950238Y-25513877D01*
X13969286Y-25523401D01*
X13978809Y-25542448D01*
X13978809Y-25561496D01*
X13883571Y-25580543D01*
X14055000Y-25637686D02*
X14074048Y-25647210D01*
X14112143Y-25647210D01*
X14131190Y-25637686D01*
X14140714Y-25618639D01*
X14140714Y-25609115D01*
X14131190Y-25590067D01*
X14112143Y-25580543D01*
X14083571Y-25580543D01*
X14064524Y-25571020D01*
X14055000Y-25551972D01*
X14055000Y-25542448D01*
X14064524Y-25523401D01*
X14083571Y-25513877D01*
X14112143Y-25513877D01*
X14131190Y-25523401D01*
X14207381Y-25723401D02*
X14216905Y-25713877D01*
X14235952Y-25685305D01*
X14245476Y-25666258D01*
X14255000Y-25637686D01*
X14264524Y-25590067D01*
X14264524Y-25551972D01*
X14255000Y-25504353D01*
X14245476Y-25475782D01*
X14235952Y-25456734D01*
X14216905Y-25428162D01*
X14207381Y-25418639D01*
D14*
X9245000Y-25820734D02*
G75*
G03*
X9245000Y-25820734I-20000J0D01*
G01*
D12*
X9540714Y-25711210D02*
X9559762Y-25711210D01*
X9578810Y-25720734D01*
X9588333Y-25730258D01*
X9597857Y-25749305D01*
X9607381Y-25787401D01*
X9607381Y-25835020D01*
X9597857Y-25873115D01*
X9588333Y-25892162D01*
X9578810Y-25901686D01*
X9559762Y-25911210D01*
X9540714Y-25911210D01*
X9521667Y-25901686D01*
X9512143Y-25892162D01*
X9502619Y-25873115D01*
X9493095Y-25835020D01*
X9493095Y-25787401D01*
X9502619Y-25749305D01*
X9512143Y-25730258D01*
X9521667Y-25720734D01*
X9540714Y-25711210D01*
X9693095Y-25892162D02*
X9702619Y-25901686D01*
X9693095Y-25911210D01*
X9683571Y-25901686D01*
X9693095Y-25892162D01*
X9693095Y-25911210D01*
X9874048Y-25777877D02*
X9874048Y-25911210D01*
X9826429Y-25701686D02*
X9778810Y-25844543D01*
X9902619Y-25844543D01*
X10016905Y-25711210D02*
X10035952Y-25711210D01*
X10055000Y-25720734D01*
X10064524Y-25730258D01*
X10074048Y-25749305D01*
X10083571Y-25787401D01*
X10083571Y-25835020D01*
X10074048Y-25873115D01*
X10064524Y-25892162D01*
X10055000Y-25901686D01*
X10035952Y-25911210D01*
X10016905Y-25911210D01*
X9997857Y-25901686D01*
X9988333Y-25892162D01*
X9978810Y-25873115D01*
X9969286Y-25835020D01*
X9969286Y-25787401D01*
X9978810Y-25749305D01*
X9988333Y-25730258D01*
X9997857Y-25720734D01*
X10016905Y-25711210D01*
X10207381Y-25711210D02*
X10226429Y-25711210D01*
X10245476Y-25720734D01*
X10255000Y-25730258D01*
X10264524Y-25749305D01*
X10274048Y-25787401D01*
X10274048Y-25835020D01*
X10264524Y-25873115D01*
X10255000Y-25892162D01*
X10245476Y-25901686D01*
X10226429Y-25911210D01*
X10207381Y-25911210D01*
X10188333Y-25901686D01*
X10178810Y-25892162D01*
X10169286Y-25873115D01*
X10159762Y-25835020D01*
X10159762Y-25787401D01*
X10169286Y-25749305D01*
X10178810Y-25730258D01*
X10188333Y-25720734D01*
X10207381Y-25711210D01*
X10359762Y-25911210D02*
X10359762Y-25777877D01*
X10359762Y-25796924D02*
X10369286Y-25787401D01*
X10388333Y-25777877D01*
X10416905Y-25777877D01*
X10435952Y-25787401D01*
X10445476Y-25806448D01*
X10445476Y-25911210D01*
X10445476Y-25806448D02*
X10455000Y-25787401D01*
X10474048Y-25777877D01*
X10502619Y-25777877D01*
X10521667Y-25787401D01*
X10531190Y-25806448D01*
X10531190Y-25911210D01*
X10626429Y-25911210D02*
X10626429Y-25777877D01*
X10626429Y-25796924D02*
X10635952Y-25787401D01*
X10655000Y-25777877D01*
X10683571Y-25777877D01*
X10702619Y-25787401D01*
X10712143Y-25806448D01*
X10712143Y-25911210D01*
X10712143Y-25806448D02*
X10721667Y-25787401D01*
X10740714Y-25777877D01*
X10769286Y-25777877D01*
X10788333Y-25787401D01*
X10797857Y-25806448D01*
X10797857Y-25911210D01*
X11188333Y-25701686D02*
X11016905Y-25958829D01*
X11445476Y-25711210D02*
X11464524Y-25711210D01*
X11483571Y-25720734D01*
X11493095Y-25730258D01*
X11502619Y-25749305D01*
X11512143Y-25787401D01*
X11512143Y-25835020D01*
X11502619Y-25873115D01*
X11493095Y-25892162D01*
X11483571Y-25901686D01*
X11464524Y-25911210D01*
X11445476Y-25911210D01*
X11426428Y-25901686D01*
X11416905Y-25892162D01*
X11407381Y-25873115D01*
X11397857Y-25835020D01*
X11397857Y-25787401D01*
X11407381Y-25749305D01*
X11416905Y-25730258D01*
X11426428Y-25720734D01*
X11445476Y-25711210D01*
X11597857Y-25892162D02*
X11607381Y-25901686D01*
X11597857Y-25911210D01*
X11588333Y-25901686D01*
X11597857Y-25892162D01*
X11597857Y-25911210D01*
X11731190Y-25711210D02*
X11750238Y-25711210D01*
X11769286Y-25720734D01*
X11778809Y-25730258D01*
X11788333Y-25749305D01*
X11797857Y-25787401D01*
X11797857Y-25835020D01*
X11788333Y-25873115D01*
X11778809Y-25892162D01*
X11769286Y-25901686D01*
X11750238Y-25911210D01*
X11731190Y-25911210D01*
X11712143Y-25901686D01*
X11702619Y-25892162D01*
X11693095Y-25873115D01*
X11683571Y-25835020D01*
X11683571Y-25787401D01*
X11693095Y-25749305D01*
X11702619Y-25730258D01*
X11712143Y-25720734D01*
X11731190Y-25711210D01*
X11988333Y-25911210D02*
X11874048Y-25911210D01*
X11931190Y-25911210D02*
X11931190Y-25711210D01*
X11912143Y-25739782D01*
X11893095Y-25758829D01*
X11874048Y-25768353D01*
X12169286Y-25711210D02*
X12074048Y-25711210D01*
X12064524Y-25806448D01*
X12074048Y-25796924D01*
X12093095Y-25787401D01*
X12140714Y-25787401D01*
X12159762Y-25796924D01*
X12169286Y-25806448D01*
X12178809Y-25825496D01*
X12178809Y-25873115D01*
X12169286Y-25892162D01*
X12159762Y-25901686D01*
X12140714Y-25911210D01*
X12093095Y-25911210D01*
X12074048Y-25901686D01*
X12064524Y-25892162D01*
X12245476Y-25711210D02*
X12378809Y-25711210D01*
X12293095Y-25911210D01*
X12445476Y-25711210D02*
X12445476Y-25749305D01*
X12521667Y-25711210D02*
X12521667Y-25749305D01*
X12816905Y-25987401D02*
X12807381Y-25977877D01*
X12788333Y-25949305D01*
X12778809Y-25930258D01*
X12769286Y-25901686D01*
X12759762Y-25854067D01*
X12759762Y-25815972D01*
X12769286Y-25768353D01*
X12778809Y-25739782D01*
X12788333Y-25720734D01*
X12807381Y-25692162D01*
X12816905Y-25682639D01*
X12988333Y-25711210D02*
X12893095Y-25711210D01*
X12883571Y-25806448D01*
X12893095Y-25796924D01*
X12912143Y-25787401D01*
X12959762Y-25787401D01*
X12978809Y-25796924D01*
X12988333Y-25806448D01*
X12997857Y-25825496D01*
X12997857Y-25873115D01*
X12988333Y-25892162D01*
X12978809Y-25901686D01*
X12959762Y-25911210D01*
X12912143Y-25911210D01*
X12893095Y-25901686D01*
X12883571Y-25892162D01*
X13235952Y-25911210D02*
X13235952Y-25711210D01*
X13321667Y-25911210D02*
X13321667Y-25806448D01*
X13312143Y-25787401D01*
X13293095Y-25777877D01*
X13264524Y-25777877D01*
X13245476Y-25787401D01*
X13235952Y-25796924D01*
X13445476Y-25911210D02*
X13426428Y-25901686D01*
X13416905Y-25892162D01*
X13407381Y-25873115D01*
X13407381Y-25815972D01*
X13416905Y-25796924D01*
X13426428Y-25787401D01*
X13445476Y-25777877D01*
X13474048Y-25777877D01*
X13493095Y-25787401D01*
X13502619Y-25796924D01*
X13512143Y-25815972D01*
X13512143Y-25873115D01*
X13502619Y-25892162D01*
X13493095Y-25901686D01*
X13474048Y-25911210D01*
X13445476Y-25911210D01*
X13626428Y-25911210D02*
X13607381Y-25901686D01*
X13597857Y-25882639D01*
X13597857Y-25711210D01*
X13778809Y-25901686D02*
X13759762Y-25911210D01*
X13721667Y-25911210D01*
X13702619Y-25901686D01*
X13693095Y-25882639D01*
X13693095Y-25806448D01*
X13702619Y-25787401D01*
X13721667Y-25777877D01*
X13759762Y-25777877D01*
X13778809Y-25787401D01*
X13788333Y-25806448D01*
X13788333Y-25825496D01*
X13693095Y-25844543D01*
X13864524Y-25901686D02*
X13883571Y-25911210D01*
X13921667Y-25911210D01*
X13940714Y-25901686D01*
X13950238Y-25882639D01*
X13950238Y-25873115D01*
X13940714Y-25854067D01*
X13921667Y-25844543D01*
X13893095Y-25844543D01*
X13874048Y-25835020D01*
X13864524Y-25815972D01*
X13864524Y-25806448D01*
X13874048Y-25787401D01*
X13893095Y-25777877D01*
X13921667Y-25777877D01*
X13940714Y-25787401D01*
X14016905Y-25987401D02*
X14026428Y-25977877D01*
X14045476Y-25949305D01*
X14055000Y-25930258D01*
X14064524Y-25901686D01*
X14074048Y-25854067D01*
X14074048Y-25815972D01*
X14064524Y-25768353D01*
X14055000Y-25739782D01*
X14045476Y-25720734D01*
X14026428Y-25692162D01*
X14016905Y-25682639D01*
D15*
X9206900Y-26046634D02*
X9206900Y-26122834D01*
X9168800Y-26084734D02*
X9245000Y-26084734D01*
D12*
X9540714Y-25975210D02*
X9559762Y-25975210D01*
X9578810Y-25984734D01*
X9588333Y-25994258D01*
X9597857Y-26013305D01*
X9607381Y-26051401D01*
X9607381Y-26099020D01*
X9597857Y-26137115D01*
X9588333Y-26156162D01*
X9578810Y-26165686D01*
X9559762Y-26175210D01*
X9540714Y-26175210D01*
X9521667Y-26165686D01*
X9512143Y-26156162D01*
X9502619Y-26137115D01*
X9493095Y-26099020D01*
X9493095Y-26051401D01*
X9502619Y-26013305D01*
X9512143Y-25994258D01*
X9521667Y-25984734D01*
X9540714Y-25975210D01*
X9693095Y-26156162D02*
X9702619Y-26165686D01*
X9693095Y-26175210D01*
X9683571Y-26165686D01*
X9693095Y-26156162D01*
X9693095Y-26175210D01*
X9769286Y-25975210D02*
X9902619Y-25975210D01*
X9816905Y-26175210D01*
X10064524Y-25975210D02*
X10026429Y-25975210D01*
X10007381Y-25984734D01*
X9997857Y-25994258D01*
X9978810Y-26022829D01*
X9969286Y-26060924D01*
X9969286Y-26137115D01*
X9978810Y-26156162D01*
X9988333Y-26165686D01*
X10007381Y-26175210D01*
X10045476Y-26175210D01*
X10064524Y-26165686D01*
X10074048Y-26156162D01*
X10083571Y-26137115D01*
X10083571Y-26089496D01*
X10074048Y-26070448D01*
X10064524Y-26060924D01*
X10045476Y-26051401D01*
X10007381Y-26051401D01*
X9988333Y-26060924D01*
X9978810Y-26070448D01*
X9969286Y-26089496D01*
X10159762Y-25994258D02*
X10169286Y-25984734D01*
X10188333Y-25975210D01*
X10235952Y-25975210D01*
X10255000Y-25984734D01*
X10264524Y-25994258D01*
X10274048Y-26013305D01*
X10274048Y-26032353D01*
X10264524Y-26060924D01*
X10150238Y-26175210D01*
X10274048Y-26175210D01*
X10359762Y-26175210D02*
X10359762Y-26041877D01*
X10359762Y-26060924D02*
X10369286Y-26051401D01*
X10388333Y-26041877D01*
X10416905Y-26041877D01*
X10435952Y-26051401D01*
X10445476Y-26070448D01*
X10445476Y-26175210D01*
X10445476Y-26070448D02*
X10455000Y-26051401D01*
X10474048Y-26041877D01*
X10502619Y-26041877D01*
X10521667Y-26051401D01*
X10531190Y-26070448D01*
X10531190Y-26175210D01*
X10626429Y-26175210D02*
X10626429Y-26041877D01*
X10626429Y-26060924D02*
X10635952Y-26051401D01*
X10655000Y-26041877D01*
X10683571Y-26041877D01*
X10702619Y-26051401D01*
X10712143Y-26070448D01*
X10712143Y-26175210D01*
X10712143Y-26070448D02*
X10721667Y-26051401D01*
X10740714Y-26041877D01*
X10769286Y-26041877D01*
X10788333Y-26051401D01*
X10797857Y-26070448D01*
X10797857Y-26175210D01*
X11188333Y-25965686D02*
X11016905Y-26222829D01*
X11445476Y-25975210D02*
X11464524Y-25975210D01*
X11483571Y-25984734D01*
X11493095Y-25994258D01*
X11502619Y-26013305D01*
X11512143Y-26051401D01*
X11512143Y-26099020D01*
X11502619Y-26137115D01*
X11493095Y-26156162D01*
X11483571Y-26165686D01*
X11464524Y-26175210D01*
X11445476Y-26175210D01*
X11426428Y-26165686D01*
X11416905Y-26156162D01*
X11407381Y-26137115D01*
X11397857Y-26099020D01*
X11397857Y-26051401D01*
X11407381Y-26013305D01*
X11416905Y-25994258D01*
X11426428Y-25984734D01*
X11445476Y-25975210D01*
X11597857Y-26156162D02*
X11607381Y-26165686D01*
X11597857Y-26175210D01*
X11588333Y-26165686D01*
X11597857Y-26156162D01*
X11597857Y-26175210D01*
X11731190Y-25975210D02*
X11750238Y-25975210D01*
X11769286Y-25984734D01*
X11778809Y-25994258D01*
X11788333Y-26013305D01*
X11797857Y-26051401D01*
X11797857Y-26099020D01*
X11788333Y-26137115D01*
X11778809Y-26156162D01*
X11769286Y-26165686D01*
X11750238Y-26175210D01*
X11731190Y-26175210D01*
X11712143Y-26165686D01*
X11702619Y-26156162D01*
X11693095Y-26137115D01*
X11683571Y-26099020D01*
X11683571Y-26051401D01*
X11693095Y-26013305D01*
X11702619Y-25994258D01*
X11712143Y-25984734D01*
X11731190Y-25975210D01*
X11864524Y-25975210D02*
X11988333Y-25975210D01*
X11921667Y-26051401D01*
X11950238Y-26051401D01*
X11969286Y-26060924D01*
X11978809Y-26070448D01*
X11988333Y-26089496D01*
X11988333Y-26137115D01*
X11978809Y-26156162D01*
X11969286Y-26165686D01*
X11950238Y-26175210D01*
X11893095Y-26175210D01*
X11874048Y-26165686D01*
X11864524Y-26156162D01*
X12112143Y-25975210D02*
X12131190Y-25975210D01*
X12150238Y-25984734D01*
X12159762Y-25994258D01*
X12169286Y-26013305D01*
X12178809Y-26051401D01*
X12178809Y-26099020D01*
X12169286Y-26137115D01*
X12159762Y-26156162D01*
X12150238Y-26165686D01*
X12131190Y-26175210D01*
X12112143Y-26175210D01*
X12093095Y-26165686D01*
X12083571Y-26156162D01*
X12074048Y-26137115D01*
X12064524Y-26099020D01*
X12064524Y-26051401D01*
X12074048Y-26013305D01*
X12083571Y-25994258D01*
X12093095Y-25984734D01*
X12112143Y-25975210D01*
X12302619Y-25975210D02*
X12321667Y-25975210D01*
X12340714Y-25984734D01*
X12350238Y-25994258D01*
X12359762Y-26013305D01*
X12369286Y-26051401D01*
X12369286Y-26099020D01*
X12359762Y-26137115D01*
X12350238Y-26156162D01*
X12340714Y-26165686D01*
X12321667Y-26175210D01*
X12302619Y-26175210D01*
X12283571Y-26165686D01*
X12274048Y-26156162D01*
X12264524Y-26137115D01*
X12255000Y-26099020D01*
X12255000Y-26051401D01*
X12264524Y-26013305D01*
X12274048Y-25994258D01*
X12283571Y-25984734D01*
X12302619Y-25975210D01*
X12445476Y-25975210D02*
X12445476Y-26013305D01*
X12521667Y-25975210D02*
X12521667Y-26013305D01*
X12816905Y-26251401D02*
X12807381Y-26241877D01*
X12788333Y-26213305D01*
X12778809Y-26194258D01*
X12769286Y-26165686D01*
X12759762Y-26118067D01*
X12759762Y-26079972D01*
X12769286Y-26032353D01*
X12778809Y-26003782D01*
X12788333Y-25984734D01*
X12807381Y-25956162D01*
X12816905Y-25946639D01*
X12978809Y-26041877D02*
X12978809Y-26175210D01*
X12931190Y-25965686D02*
X12883571Y-26108543D01*
X13007381Y-26108543D01*
X13235952Y-26175210D02*
X13235952Y-25975210D01*
X13321667Y-26175210D02*
X13321667Y-26070448D01*
X13312143Y-26051401D01*
X13293095Y-26041877D01*
X13264524Y-26041877D01*
X13245476Y-26051401D01*
X13235952Y-26060924D01*
X13445476Y-26175210D02*
X13426428Y-26165686D01*
X13416905Y-26156162D01*
X13407381Y-26137115D01*
X13407381Y-26079972D01*
X13416905Y-26060924D01*
X13426428Y-26051401D01*
X13445476Y-26041877D01*
X13474048Y-26041877D01*
X13493095Y-26051401D01*
X13502619Y-26060924D01*
X13512143Y-26079972D01*
X13512143Y-26137115D01*
X13502619Y-26156162D01*
X13493095Y-26165686D01*
X13474048Y-26175210D01*
X13445476Y-26175210D01*
X13626428Y-26175210D02*
X13607381Y-26165686D01*
X13597857Y-26146639D01*
X13597857Y-25975210D01*
X13778809Y-26165686D02*
X13759762Y-26175210D01*
X13721667Y-26175210D01*
X13702619Y-26165686D01*
X13693095Y-26146639D01*
X13693095Y-26070448D01*
X13702619Y-26051401D01*
X13721667Y-26041877D01*
X13759762Y-26041877D01*
X13778809Y-26051401D01*
X13788333Y-26070448D01*
X13788333Y-26089496D01*
X13693095Y-26108543D01*
X13864524Y-26165686D02*
X13883571Y-26175210D01*
X13921667Y-26175210D01*
X13940714Y-26165686D01*
X13950238Y-26146639D01*
X13950238Y-26137115D01*
X13940714Y-26118067D01*
X13921667Y-26108543D01*
X13893095Y-26108543D01*
X13874048Y-26099020D01*
X13864524Y-26079972D01*
X13864524Y-26070448D01*
X13874048Y-26051401D01*
X13893095Y-26041877D01*
X13921667Y-26041877D01*
X13940714Y-26051401D01*
X14016905Y-26251401D02*
X14026428Y-26241877D01*
X14045476Y-26213305D01*
X14055000Y-26194258D01*
X14064524Y-26165686D01*
X14074048Y-26118067D01*
X14074048Y-26079972D01*
X14064524Y-26032353D01*
X14055000Y-26003782D01*
X14045476Y-25984734D01*
X14026428Y-25956162D01*
X14016905Y-25946639D01*
D16*
X9232552Y-26378786D02*
X9232552Y-26318682D01*
X9172448Y-26318682D01*
X9172448Y-26378786D01*
X9232552Y-26378786D01*
D12*
X9540714Y-26239210D02*
X9559762Y-26239210D01*
X9578810Y-26248734D01*
X9588333Y-26258258D01*
X9597857Y-26277305D01*
X9607381Y-26315401D01*
X9607381Y-26363020D01*
X9597857Y-26401115D01*
X9588333Y-26420162D01*
X9578810Y-26429686D01*
X9559762Y-26439210D01*
X9540714Y-26439210D01*
X9521667Y-26429686D01*
X9512143Y-26420162D01*
X9502619Y-26401115D01*
X9493095Y-26363020D01*
X9493095Y-26315401D01*
X9502619Y-26277305D01*
X9512143Y-26258258D01*
X9521667Y-26248734D01*
X9540714Y-26239210D01*
X9693095Y-26420162D02*
X9702619Y-26429686D01*
X9693095Y-26439210D01*
X9683571Y-26429686D01*
X9693095Y-26420162D01*
X9693095Y-26439210D01*
X9816905Y-26324924D02*
X9797857Y-26315401D01*
X9788333Y-26305877D01*
X9778810Y-26286829D01*
X9778810Y-26277305D01*
X9788333Y-26258258D01*
X9797857Y-26248734D01*
X9816905Y-26239210D01*
X9855000Y-26239210D01*
X9874048Y-26248734D01*
X9883571Y-26258258D01*
X9893095Y-26277305D01*
X9893095Y-26286829D01*
X9883571Y-26305877D01*
X9874048Y-26315401D01*
X9855000Y-26324924D01*
X9816905Y-26324924D01*
X9797857Y-26334448D01*
X9788333Y-26343972D01*
X9778810Y-26363020D01*
X9778810Y-26401115D01*
X9788333Y-26420162D01*
X9797857Y-26429686D01*
X9816905Y-26439210D01*
X9855000Y-26439210D01*
X9874048Y-26429686D01*
X9883571Y-26420162D01*
X9893095Y-26401115D01*
X9893095Y-26363020D01*
X9883571Y-26343972D01*
X9874048Y-26334448D01*
X9855000Y-26324924D01*
X10074048Y-26239210D02*
X9978810Y-26239210D01*
X9969286Y-26334448D01*
X9978810Y-26324924D01*
X9997857Y-26315401D01*
X10045476Y-26315401D01*
X10064524Y-26324924D01*
X10074048Y-26334448D01*
X10083571Y-26353496D01*
X10083571Y-26401115D01*
X10074048Y-26420162D01*
X10064524Y-26429686D01*
X10045476Y-26439210D01*
X9997857Y-26439210D01*
X9978810Y-26429686D01*
X9969286Y-26420162D01*
X10207381Y-26239210D02*
X10226429Y-26239210D01*
X10245476Y-26248734D01*
X10255000Y-26258258D01*
X10264524Y-26277305D01*
X10274048Y-26315401D01*
X10274048Y-26363020D01*
X10264524Y-26401115D01*
X10255000Y-26420162D01*
X10245476Y-26429686D01*
X10226429Y-26439210D01*
X10207381Y-26439210D01*
X10188333Y-26429686D01*
X10178810Y-26420162D01*
X10169286Y-26401115D01*
X10159762Y-26363020D01*
X10159762Y-26315401D01*
X10169286Y-26277305D01*
X10178810Y-26258258D01*
X10188333Y-26248734D01*
X10207381Y-26239210D01*
X10359762Y-26439210D02*
X10359762Y-26305877D01*
X10359762Y-26324924D02*
X10369286Y-26315401D01*
X10388333Y-26305877D01*
X10416905Y-26305877D01*
X10435952Y-26315401D01*
X10445476Y-26334448D01*
X10445476Y-26439210D01*
X10445476Y-26334448D02*
X10455000Y-26315401D01*
X10474048Y-26305877D01*
X10502619Y-26305877D01*
X10521667Y-26315401D01*
X10531190Y-26334448D01*
X10531190Y-26439210D01*
X10626429Y-26439210D02*
X10626429Y-26305877D01*
X10626429Y-26324924D02*
X10635952Y-26315401D01*
X10655000Y-26305877D01*
X10683571Y-26305877D01*
X10702619Y-26315401D01*
X10712143Y-26334448D01*
X10712143Y-26439210D01*
X10712143Y-26334448D02*
X10721667Y-26315401D01*
X10740714Y-26305877D01*
X10769286Y-26305877D01*
X10788333Y-26315401D01*
X10797857Y-26334448D01*
X10797857Y-26439210D01*
X11188333Y-26229686D02*
X11016905Y-26486829D01*
X11445476Y-26239210D02*
X11464524Y-26239210D01*
X11483571Y-26248734D01*
X11493095Y-26258258D01*
X11502619Y-26277305D01*
X11512143Y-26315401D01*
X11512143Y-26363020D01*
X11502619Y-26401115D01*
X11493095Y-26420162D01*
X11483571Y-26429686D01*
X11464524Y-26439210D01*
X11445476Y-26439210D01*
X11426428Y-26429686D01*
X11416905Y-26420162D01*
X11407381Y-26401115D01*
X11397857Y-26363020D01*
X11397857Y-26315401D01*
X11407381Y-26277305D01*
X11416905Y-26258258D01*
X11426428Y-26248734D01*
X11445476Y-26239210D01*
X11597857Y-26420162D02*
X11607381Y-26429686D01*
X11597857Y-26439210D01*
X11588333Y-26429686D01*
X11597857Y-26420162D01*
X11597857Y-26439210D01*
X11731190Y-26239210D02*
X11750238Y-26239210D01*
X11769286Y-26248734D01*
X11778809Y-26258258D01*
X11788333Y-26277305D01*
X11797857Y-26315401D01*
X11797857Y-26363020D01*
X11788333Y-26401115D01*
X11778809Y-26420162D01*
X11769286Y-26429686D01*
X11750238Y-26439210D01*
X11731190Y-26439210D01*
X11712143Y-26429686D01*
X11702619Y-26420162D01*
X11693095Y-26401115D01*
X11683571Y-26363020D01*
X11683571Y-26315401D01*
X11693095Y-26277305D01*
X11702619Y-26258258D01*
X11712143Y-26248734D01*
X11731190Y-26239210D01*
X11864524Y-26239210D02*
X11988333Y-26239210D01*
X11921667Y-26315401D01*
X11950238Y-26315401D01*
X11969286Y-26324924D01*
X11978809Y-26334448D01*
X11988333Y-26353496D01*
X11988333Y-26401115D01*
X11978809Y-26420162D01*
X11969286Y-26429686D01*
X11950238Y-26439210D01*
X11893095Y-26439210D01*
X11874048Y-26429686D01*
X11864524Y-26420162D01*
X12055000Y-26239210D02*
X12178809Y-26239210D01*
X12112143Y-26315401D01*
X12140714Y-26315401D01*
X12159762Y-26324924D01*
X12169286Y-26334448D01*
X12178809Y-26353496D01*
X12178809Y-26401115D01*
X12169286Y-26420162D01*
X12159762Y-26429686D01*
X12140714Y-26439210D01*
X12083571Y-26439210D01*
X12064524Y-26429686D01*
X12055000Y-26420162D01*
X12359762Y-26239210D02*
X12264524Y-26239210D01*
X12255000Y-26334448D01*
X12264524Y-26324924D01*
X12283571Y-26315401D01*
X12331190Y-26315401D01*
X12350238Y-26324924D01*
X12359762Y-26334448D01*
X12369286Y-26353496D01*
X12369286Y-26401115D01*
X12359762Y-26420162D01*
X12350238Y-26429686D01*
X12331190Y-26439210D01*
X12283571Y-26439210D01*
X12264524Y-26429686D01*
X12255000Y-26420162D01*
X12445476Y-26239210D02*
X12445476Y-26277305D01*
X12521667Y-26239210D02*
X12521667Y-26277305D01*
X12816905Y-26515401D02*
X12807381Y-26505877D01*
X12788333Y-26477305D01*
X12778809Y-26458258D01*
X12769286Y-26429686D01*
X12759762Y-26382067D01*
X12759762Y-26343972D01*
X12769286Y-26296353D01*
X12778809Y-26267782D01*
X12788333Y-26248734D01*
X12807381Y-26220162D01*
X12816905Y-26210639D01*
X12921667Y-26324924D02*
X12902619Y-26315401D01*
X12893095Y-26305877D01*
X12883571Y-26286829D01*
X12883571Y-26277305D01*
X12893095Y-26258258D01*
X12902619Y-26248734D01*
X12921667Y-26239210D01*
X12959762Y-26239210D01*
X12978809Y-26248734D01*
X12988333Y-26258258D01*
X12997857Y-26277305D01*
X12997857Y-26286829D01*
X12988333Y-26305877D01*
X12978809Y-26315401D01*
X12959762Y-26324924D01*
X12921667Y-26324924D01*
X12902619Y-26334448D01*
X12893095Y-26343972D01*
X12883571Y-26363020D01*
X12883571Y-26401115D01*
X12893095Y-26420162D01*
X12902619Y-26429686D01*
X12921667Y-26439210D01*
X12959762Y-26439210D01*
X12978809Y-26429686D01*
X12988333Y-26420162D01*
X12997857Y-26401115D01*
X12997857Y-26363020D01*
X12988333Y-26343972D01*
X12978809Y-26334448D01*
X12959762Y-26324924D01*
X13169286Y-26239210D02*
X13131190Y-26239210D01*
X13112143Y-26248734D01*
X13102619Y-26258258D01*
X13083571Y-26286829D01*
X13074048Y-26324924D01*
X13074048Y-26401115D01*
X13083571Y-26420162D01*
X13093095Y-26429686D01*
X13112143Y-26439210D01*
X13150238Y-26439210D01*
X13169286Y-26429686D01*
X13178809Y-26420162D01*
X13188333Y-26401115D01*
X13188333Y-26353496D01*
X13178809Y-26334448D01*
X13169286Y-26324924D01*
X13150238Y-26315401D01*
X13112143Y-26315401D01*
X13093095Y-26324924D01*
X13083571Y-26334448D01*
X13074048Y-26353496D01*
X13426428Y-26439210D02*
X13426428Y-26239210D01*
X13512143Y-26439210D02*
X13512143Y-26334448D01*
X13502619Y-26315401D01*
X13483571Y-26305877D01*
X13455000Y-26305877D01*
X13435952Y-26315401D01*
X13426428Y-26324924D01*
X13635952Y-26439210D02*
X13616905Y-26429686D01*
X13607381Y-26420162D01*
X13597857Y-26401115D01*
X13597857Y-26343972D01*
X13607381Y-26324924D01*
X13616905Y-26315401D01*
X13635952Y-26305877D01*
X13664524Y-26305877D01*
X13683571Y-26315401D01*
X13693095Y-26324924D01*
X13702619Y-26343972D01*
X13702619Y-26401115D01*
X13693095Y-26420162D01*
X13683571Y-26429686D01*
X13664524Y-26439210D01*
X13635952Y-26439210D01*
X13816905Y-26439210D02*
X13797857Y-26429686D01*
X13788333Y-26410639D01*
X13788333Y-26239210D01*
X13969286Y-26429686D02*
X13950238Y-26439210D01*
X13912143Y-26439210D01*
X13893095Y-26429686D01*
X13883571Y-26410639D01*
X13883571Y-26334448D01*
X13893095Y-26315401D01*
X13912143Y-26305877D01*
X13950238Y-26305877D01*
X13969286Y-26315401D01*
X13978809Y-26334448D01*
X13978809Y-26353496D01*
X13883571Y-26372543D01*
X14055000Y-26429686D02*
X14074048Y-26439210D01*
X14112143Y-26439210D01*
X14131190Y-26429686D01*
X14140714Y-26410639D01*
X14140714Y-26401115D01*
X14131190Y-26382067D01*
X14112143Y-26372543D01*
X14083571Y-26372543D01*
X14064524Y-26363020D01*
X14055000Y-26343972D01*
X14055000Y-26334448D01*
X14064524Y-26315401D01*
X14083571Y-26305877D01*
X14112143Y-26305877D01*
X14131190Y-26315401D01*
X14207381Y-26515401D02*
X14216905Y-26505877D01*
X14235952Y-26477305D01*
X14245476Y-26458258D01*
X14255000Y-26429686D01*
X14264524Y-26382067D01*
X14264524Y-26343972D01*
X14255000Y-26296353D01*
X14245476Y-26267782D01*
X14235952Y-26248734D01*
X14216905Y-26220162D01*
X14207381Y-26210639D01*
D17*
X9200500Y-26657234D02*
X9245000Y-26612734D01*
X9200500Y-26568234D01*
X9156000Y-26612734D01*
X9200500Y-26657234D01*
D12*
X9540714Y-26503210D02*
X9559762Y-26503210D01*
X9578810Y-26512734D01*
X9588333Y-26522258D01*
X9597857Y-26541305D01*
X9607381Y-26579401D01*
X9607381Y-26627020D01*
X9597857Y-26665115D01*
X9588333Y-26684162D01*
X9578810Y-26693686D01*
X9559762Y-26703210D01*
X9540714Y-26703210D01*
X9521667Y-26693686D01*
X9512143Y-26684162D01*
X9502619Y-26665115D01*
X9493095Y-26627020D01*
X9493095Y-26579401D01*
X9502619Y-26541305D01*
X9512143Y-26522258D01*
X9521667Y-26512734D01*
X9540714Y-26503210D01*
X9693095Y-26684162D02*
X9702619Y-26693686D01*
X9693095Y-26703210D01*
X9683571Y-26693686D01*
X9693095Y-26684162D01*
X9693095Y-26703210D01*
X9816905Y-26588924D02*
X9797857Y-26579401D01*
X9788333Y-26569877D01*
X9778810Y-26550829D01*
X9778810Y-26541305D01*
X9788333Y-26522258D01*
X9797857Y-26512734D01*
X9816905Y-26503210D01*
X9855000Y-26503210D01*
X9874048Y-26512734D01*
X9883571Y-26522258D01*
X9893095Y-26541305D01*
X9893095Y-26550829D01*
X9883571Y-26569877D01*
X9874048Y-26579401D01*
X9855000Y-26588924D01*
X9816905Y-26588924D01*
X9797857Y-26598448D01*
X9788333Y-26607972D01*
X9778810Y-26627020D01*
X9778810Y-26665115D01*
X9788333Y-26684162D01*
X9797857Y-26693686D01*
X9816905Y-26703210D01*
X9855000Y-26703210D01*
X9874048Y-26693686D01*
X9883571Y-26684162D01*
X9893095Y-26665115D01*
X9893095Y-26627020D01*
X9883571Y-26607972D01*
X9874048Y-26598448D01*
X9855000Y-26588924D01*
X9988333Y-26703210D02*
X10026429Y-26703210D01*
X10045476Y-26693686D01*
X10055000Y-26684162D01*
X10074048Y-26655591D01*
X10083571Y-26617496D01*
X10083571Y-26541305D01*
X10074048Y-26522258D01*
X10064524Y-26512734D01*
X10045476Y-26503210D01*
X10007381Y-26503210D01*
X9988333Y-26512734D01*
X9978810Y-26522258D01*
X9969286Y-26541305D01*
X9969286Y-26588924D01*
X9978810Y-26607972D01*
X9988333Y-26617496D01*
X10007381Y-26627020D01*
X10045476Y-26627020D01*
X10064524Y-26617496D01*
X10074048Y-26607972D01*
X10083571Y-26588924D01*
X10207381Y-26503210D02*
X10226429Y-26503210D01*
X10245476Y-26512734D01*
X10255000Y-26522258D01*
X10264524Y-26541305D01*
X10274048Y-26579401D01*
X10274048Y-26627020D01*
X10264524Y-26665115D01*
X10255000Y-26684162D01*
X10245476Y-26693686D01*
X10226429Y-26703210D01*
X10207381Y-26703210D01*
X10188333Y-26693686D01*
X10178810Y-26684162D01*
X10169286Y-26665115D01*
X10159762Y-26627020D01*
X10159762Y-26579401D01*
X10169286Y-26541305D01*
X10178810Y-26522258D01*
X10188333Y-26512734D01*
X10207381Y-26503210D01*
X10359762Y-26703210D02*
X10359762Y-26569877D01*
X10359762Y-26588924D02*
X10369286Y-26579401D01*
X10388333Y-26569877D01*
X10416905Y-26569877D01*
X10435952Y-26579401D01*
X10445476Y-26598448D01*
X10445476Y-26703210D01*
X10445476Y-26598448D02*
X10455000Y-26579401D01*
X10474048Y-26569877D01*
X10502619Y-26569877D01*
X10521667Y-26579401D01*
X10531190Y-26598448D01*
X10531190Y-26703210D01*
X10626429Y-26703210D02*
X10626429Y-26569877D01*
X10626429Y-26588924D02*
X10635952Y-26579401D01*
X10655000Y-26569877D01*
X10683571Y-26569877D01*
X10702619Y-26579401D01*
X10712143Y-26598448D01*
X10712143Y-26703210D01*
X10712143Y-26598448D02*
X10721667Y-26579401D01*
X10740714Y-26569877D01*
X10769286Y-26569877D01*
X10788333Y-26579401D01*
X10797857Y-26598448D01*
X10797857Y-26703210D01*
X11188333Y-26493686D02*
X11016905Y-26750829D01*
X11445476Y-26503210D02*
X11464524Y-26503210D01*
X11483571Y-26512734D01*
X11493095Y-26522258D01*
X11502619Y-26541305D01*
X11512143Y-26579401D01*
X11512143Y-26627020D01*
X11502619Y-26665115D01*
X11493095Y-26684162D01*
X11483571Y-26693686D01*
X11464524Y-26703210D01*
X11445476Y-26703210D01*
X11426428Y-26693686D01*
X11416905Y-26684162D01*
X11407381Y-26665115D01*
X11397857Y-26627020D01*
X11397857Y-26579401D01*
X11407381Y-26541305D01*
X11416905Y-26522258D01*
X11426428Y-26512734D01*
X11445476Y-26503210D01*
X11597857Y-26684162D02*
X11607381Y-26693686D01*
X11597857Y-26703210D01*
X11588333Y-26693686D01*
X11597857Y-26684162D01*
X11597857Y-26703210D01*
X11731190Y-26503210D02*
X11750238Y-26503210D01*
X11769286Y-26512734D01*
X11778809Y-26522258D01*
X11788333Y-26541305D01*
X11797857Y-26579401D01*
X11797857Y-26627020D01*
X11788333Y-26665115D01*
X11778809Y-26684162D01*
X11769286Y-26693686D01*
X11750238Y-26703210D01*
X11731190Y-26703210D01*
X11712143Y-26693686D01*
X11702619Y-26684162D01*
X11693095Y-26665115D01*
X11683571Y-26627020D01*
X11683571Y-26579401D01*
X11693095Y-26541305D01*
X11702619Y-26522258D01*
X11712143Y-26512734D01*
X11731190Y-26503210D01*
X11864524Y-26503210D02*
X11988333Y-26503210D01*
X11921667Y-26579401D01*
X11950238Y-26579401D01*
X11969286Y-26588924D01*
X11978809Y-26598448D01*
X11988333Y-26617496D01*
X11988333Y-26665115D01*
X11978809Y-26684162D01*
X11969286Y-26693686D01*
X11950238Y-26703210D01*
X11893095Y-26703210D01*
X11874048Y-26693686D01*
X11864524Y-26684162D01*
X12169286Y-26503210D02*
X12074048Y-26503210D01*
X12064524Y-26598448D01*
X12074048Y-26588924D01*
X12093095Y-26579401D01*
X12140714Y-26579401D01*
X12159762Y-26588924D01*
X12169286Y-26598448D01*
X12178809Y-26617496D01*
X12178809Y-26665115D01*
X12169286Y-26684162D01*
X12159762Y-26693686D01*
X12140714Y-26703210D01*
X12093095Y-26703210D01*
X12074048Y-26693686D01*
X12064524Y-26684162D01*
X12302619Y-26503210D02*
X12321667Y-26503210D01*
X12340714Y-26512734D01*
X12350238Y-26522258D01*
X12359762Y-26541305D01*
X12369286Y-26579401D01*
X12369286Y-26627020D01*
X12359762Y-26665115D01*
X12350238Y-26684162D01*
X12340714Y-26693686D01*
X12321667Y-26703210D01*
X12302619Y-26703210D01*
X12283571Y-26693686D01*
X12274048Y-26684162D01*
X12264524Y-26665115D01*
X12255000Y-26627020D01*
X12255000Y-26579401D01*
X12264524Y-26541305D01*
X12274048Y-26522258D01*
X12283571Y-26512734D01*
X12302619Y-26503210D01*
X12445476Y-26503210D02*
X12445476Y-26541305D01*
X12521667Y-26503210D02*
X12521667Y-26541305D01*
X12816905Y-26779401D02*
X12807381Y-26769877D01*
X12788333Y-26741305D01*
X12778809Y-26722258D01*
X12769286Y-26693686D01*
X12759762Y-26646067D01*
X12759762Y-26607972D01*
X12769286Y-26560353D01*
X12778809Y-26531782D01*
X12788333Y-26512734D01*
X12807381Y-26484162D01*
X12816905Y-26474639D01*
X12883571Y-26522258D02*
X12893095Y-26512734D01*
X12912143Y-26503210D01*
X12959762Y-26503210D01*
X12978809Y-26512734D01*
X12988333Y-26522258D01*
X12997857Y-26541305D01*
X12997857Y-26560353D01*
X12988333Y-26588924D01*
X12874048Y-26703210D01*
X12997857Y-26703210D01*
X13112143Y-26588924D02*
X13093095Y-26579401D01*
X13083571Y-26569877D01*
X13074048Y-26550829D01*
X13074048Y-26541305D01*
X13083571Y-26522258D01*
X13093095Y-26512734D01*
X13112143Y-26503210D01*
X13150238Y-26503210D01*
X13169286Y-26512734D01*
X13178809Y-26522258D01*
X13188333Y-26541305D01*
X13188333Y-26550829D01*
X13178809Y-26569877D01*
X13169286Y-26579401D01*
X13150238Y-26588924D01*
X13112143Y-26588924D01*
X13093095Y-26598448D01*
X13083571Y-26607972D01*
X13074048Y-26627020D01*
X13074048Y-26665115D01*
X13083571Y-26684162D01*
X13093095Y-26693686D01*
X13112143Y-26703210D01*
X13150238Y-26703210D01*
X13169286Y-26693686D01*
X13178809Y-26684162D01*
X13188333Y-26665115D01*
X13188333Y-26627020D01*
X13178809Y-26607972D01*
X13169286Y-26598448D01*
X13150238Y-26588924D01*
X13426428Y-26703210D02*
X13426428Y-26503210D01*
X13512143Y-26703210D02*
X13512143Y-26598448D01*
X13502619Y-26579401D01*
X13483571Y-26569877D01*
X13455000Y-26569877D01*
X13435952Y-26579401D01*
X13426428Y-26588924D01*
X13635952Y-26703210D02*
X13616905Y-26693686D01*
X13607381Y-26684162D01*
X13597857Y-26665115D01*
X13597857Y-26607972D01*
X13607381Y-26588924D01*
X13616905Y-26579401D01*
X13635952Y-26569877D01*
X13664524Y-26569877D01*
X13683571Y-26579401D01*
X13693095Y-26588924D01*
X13702619Y-26607972D01*
X13702619Y-26665115D01*
X13693095Y-26684162D01*
X13683571Y-26693686D01*
X13664524Y-26703210D01*
X13635952Y-26703210D01*
X13816905Y-26703210D02*
X13797857Y-26693686D01*
X13788333Y-26674639D01*
X13788333Y-26503210D01*
X13969286Y-26693686D02*
X13950238Y-26703210D01*
X13912143Y-26703210D01*
X13893095Y-26693686D01*
X13883571Y-26674639D01*
X13883571Y-26598448D01*
X13893095Y-26579401D01*
X13912143Y-26569877D01*
X13950238Y-26569877D01*
X13969286Y-26579401D01*
X13978809Y-26598448D01*
X13978809Y-26617496D01*
X13883571Y-26636543D01*
X14055000Y-26693686D02*
X14074048Y-26703210D01*
X14112143Y-26703210D01*
X14131190Y-26693686D01*
X14140714Y-26674639D01*
X14140714Y-26665115D01*
X14131190Y-26646067D01*
X14112143Y-26636543D01*
X14083571Y-26636543D01*
X14064524Y-26627020D01*
X14055000Y-26607972D01*
X14055000Y-26598448D01*
X14064524Y-26579401D01*
X14083571Y-26569877D01*
X14112143Y-26569877D01*
X14131190Y-26579401D01*
X14207381Y-26779401D02*
X14216905Y-26769877D01*
X14235952Y-26741305D01*
X14245476Y-26722258D01*
X14255000Y-26693686D01*
X14264524Y-26646067D01*
X14264524Y-26607972D01*
X14255000Y-26560353D01*
X14245476Y-26531782D01*
X14235952Y-26512734D01*
X14216905Y-26484162D01*
X14207381Y-26474639D01*
D10*
X9145000Y-26826734D02*
X9245000Y-26926734D01*
X9245000Y-26826734D02*
X9145000Y-26926734D01*
X9245000Y-26876734D02*
G75*
G03*
X9245000Y-26876734I-50000J0D01*
G01*
D12*
X9607381Y-26967210D02*
X9493095Y-26967210D01*
X9550238Y-26967210D02*
X9550238Y-26767210D01*
X9531190Y-26795782D01*
X9512143Y-26814829D01*
X9493095Y-26824353D01*
X9693095Y-26948162D02*
X9702619Y-26957686D01*
X9693095Y-26967210D01*
X9683571Y-26957686D01*
X9693095Y-26948162D01*
X9693095Y-26967210D01*
X9826429Y-26767210D02*
X9845476Y-26767210D01*
X9864524Y-26776734D01*
X9874048Y-26786258D01*
X9883571Y-26805305D01*
X9893095Y-26843401D01*
X9893095Y-26891020D01*
X9883571Y-26929115D01*
X9874048Y-26948162D01*
X9864524Y-26957686D01*
X9845476Y-26967210D01*
X9826429Y-26967210D01*
X9807381Y-26957686D01*
X9797857Y-26948162D01*
X9788333Y-26929115D01*
X9778810Y-26891020D01*
X9778810Y-26843401D01*
X9788333Y-26805305D01*
X9797857Y-26786258D01*
X9807381Y-26776734D01*
X9826429Y-26767210D01*
X10016905Y-26767210D02*
X10035952Y-26767210D01*
X10055000Y-26776734D01*
X10064524Y-26786258D01*
X10074048Y-26805305D01*
X10083571Y-26843401D01*
X10083571Y-26891020D01*
X10074048Y-26929115D01*
X10064524Y-26948162D01*
X10055000Y-26957686D01*
X10035952Y-26967210D01*
X10016905Y-26967210D01*
X9997857Y-26957686D01*
X9988333Y-26948162D01*
X9978810Y-26929115D01*
X9969286Y-26891020D01*
X9969286Y-26843401D01*
X9978810Y-26805305D01*
X9988333Y-26786258D01*
X9997857Y-26776734D01*
X10016905Y-26767210D01*
X10207381Y-26767210D02*
X10226429Y-26767210D01*
X10245476Y-26776734D01*
X10255000Y-26786258D01*
X10264524Y-26805305D01*
X10274048Y-26843401D01*
X10274048Y-26891020D01*
X10264524Y-26929115D01*
X10255000Y-26948162D01*
X10245476Y-26957686D01*
X10226429Y-26967210D01*
X10207381Y-26967210D01*
X10188333Y-26957686D01*
X10178810Y-26948162D01*
X10169286Y-26929115D01*
X10159762Y-26891020D01*
X10159762Y-26843401D01*
X10169286Y-26805305D01*
X10178810Y-26786258D01*
X10188333Y-26776734D01*
X10207381Y-26767210D01*
X10359762Y-26967210D02*
X10359762Y-26833877D01*
X10359762Y-26852924D02*
X10369286Y-26843401D01*
X10388333Y-26833877D01*
X10416905Y-26833877D01*
X10435952Y-26843401D01*
X10445476Y-26862448D01*
X10445476Y-26967210D01*
X10445476Y-26862448D02*
X10455000Y-26843401D01*
X10474048Y-26833877D01*
X10502619Y-26833877D01*
X10521667Y-26843401D01*
X10531190Y-26862448D01*
X10531190Y-26967210D01*
X10626429Y-26967210D02*
X10626429Y-26833877D01*
X10626429Y-26852924D02*
X10635952Y-26843401D01*
X10655000Y-26833877D01*
X10683571Y-26833877D01*
X10702619Y-26843401D01*
X10712143Y-26862448D01*
X10712143Y-26967210D01*
X10712143Y-26862448D02*
X10721667Y-26843401D01*
X10740714Y-26833877D01*
X10769286Y-26833877D01*
X10788333Y-26843401D01*
X10797857Y-26862448D01*
X10797857Y-26967210D01*
X11188333Y-26757686D02*
X11016905Y-27014829D01*
X11445476Y-26767210D02*
X11464524Y-26767210D01*
X11483571Y-26776734D01*
X11493095Y-26786258D01*
X11502619Y-26805305D01*
X11512143Y-26843401D01*
X11512143Y-26891020D01*
X11502619Y-26929115D01*
X11493095Y-26948162D01*
X11483571Y-26957686D01*
X11464524Y-26967210D01*
X11445476Y-26967210D01*
X11426428Y-26957686D01*
X11416905Y-26948162D01*
X11407381Y-26929115D01*
X11397857Y-26891020D01*
X11397857Y-26843401D01*
X11407381Y-26805305D01*
X11416905Y-26786258D01*
X11426428Y-26776734D01*
X11445476Y-26767210D01*
X11597857Y-26948162D02*
X11607381Y-26957686D01*
X11597857Y-26967210D01*
X11588333Y-26957686D01*
X11597857Y-26948162D01*
X11597857Y-26967210D01*
X11731190Y-26767210D02*
X11750238Y-26767210D01*
X11769286Y-26776734D01*
X11778809Y-26786258D01*
X11788333Y-26805305D01*
X11797857Y-26843401D01*
X11797857Y-26891020D01*
X11788333Y-26929115D01*
X11778809Y-26948162D01*
X11769286Y-26957686D01*
X11750238Y-26967210D01*
X11731190Y-26967210D01*
X11712143Y-26957686D01*
X11702619Y-26948162D01*
X11693095Y-26929115D01*
X11683571Y-26891020D01*
X11683571Y-26843401D01*
X11693095Y-26805305D01*
X11702619Y-26786258D01*
X11712143Y-26776734D01*
X11731190Y-26767210D01*
X11864524Y-26767210D02*
X11988333Y-26767210D01*
X11921667Y-26843401D01*
X11950238Y-26843401D01*
X11969286Y-26852924D01*
X11978809Y-26862448D01*
X11988333Y-26881496D01*
X11988333Y-26929115D01*
X11978809Y-26948162D01*
X11969286Y-26957686D01*
X11950238Y-26967210D01*
X11893095Y-26967210D01*
X11874048Y-26957686D01*
X11864524Y-26948162D01*
X12083571Y-26967210D02*
X12121667Y-26967210D01*
X12140714Y-26957686D01*
X12150238Y-26948162D01*
X12169286Y-26919591D01*
X12178809Y-26881496D01*
X12178809Y-26805305D01*
X12169286Y-26786258D01*
X12159762Y-26776734D01*
X12140714Y-26767210D01*
X12102619Y-26767210D01*
X12083571Y-26776734D01*
X12074048Y-26786258D01*
X12064524Y-26805305D01*
X12064524Y-26852924D01*
X12074048Y-26871972D01*
X12083571Y-26881496D01*
X12102619Y-26891020D01*
X12140714Y-26891020D01*
X12159762Y-26881496D01*
X12169286Y-26871972D01*
X12178809Y-26852924D01*
X12350238Y-26833877D02*
X12350238Y-26967210D01*
X12302619Y-26757686D02*
X12255000Y-26900543D01*
X12378809Y-26900543D01*
X12445476Y-26767210D02*
X12445476Y-26805305D01*
X12521667Y-26767210D02*
X12521667Y-26805305D01*
X12816905Y-27043401D02*
X12807381Y-27033877D01*
X12788333Y-27005305D01*
X12778809Y-26986258D01*
X12769286Y-26957686D01*
X12759762Y-26910067D01*
X12759762Y-26871972D01*
X12769286Y-26824353D01*
X12778809Y-26795782D01*
X12788333Y-26776734D01*
X12807381Y-26748162D01*
X12816905Y-26738639D01*
X12997857Y-26967210D02*
X12883571Y-26967210D01*
X12940714Y-26967210D02*
X12940714Y-26767210D01*
X12921667Y-26795782D01*
X12902619Y-26814829D01*
X12883571Y-26824353D01*
X13074048Y-26786258D02*
X13083571Y-26776734D01*
X13102619Y-26767210D01*
X13150238Y-26767210D01*
X13169286Y-26776734D01*
X13178809Y-26786258D01*
X13188333Y-26805305D01*
X13188333Y-26824353D01*
X13178809Y-26852924D01*
X13064524Y-26967210D01*
X13188333Y-26967210D01*
X13302619Y-26852924D02*
X13283571Y-26843401D01*
X13274048Y-26833877D01*
X13264524Y-26814829D01*
X13264524Y-26805305D01*
X13274048Y-26786258D01*
X13283571Y-26776734D01*
X13302619Y-26767210D01*
X13340714Y-26767210D01*
X13359762Y-26776734D01*
X13369286Y-26786258D01*
X13378809Y-26805305D01*
X13378809Y-26814829D01*
X13369286Y-26833877D01*
X13359762Y-26843401D01*
X13340714Y-26852924D01*
X13302619Y-26852924D01*
X13283571Y-26862448D01*
X13274048Y-26871972D01*
X13264524Y-26891020D01*
X13264524Y-26929115D01*
X13274048Y-26948162D01*
X13283571Y-26957686D01*
X13302619Y-26967210D01*
X13340714Y-26967210D01*
X13359762Y-26957686D01*
X13369286Y-26948162D01*
X13378809Y-26929115D01*
X13378809Y-26891020D01*
X13369286Y-26871972D01*
X13359762Y-26862448D01*
X13340714Y-26852924D01*
X13616905Y-26967210D02*
X13616905Y-26767210D01*
X13702619Y-26967210D02*
X13702619Y-26862448D01*
X13693095Y-26843401D01*
X13674048Y-26833877D01*
X13645476Y-26833877D01*
X13626428Y-26843401D01*
X13616905Y-26852924D01*
X13826428Y-26967210D02*
X13807381Y-26957686D01*
X13797857Y-26948162D01*
X13788333Y-26929115D01*
X13788333Y-26871972D01*
X13797857Y-26852924D01*
X13807381Y-26843401D01*
X13826428Y-26833877D01*
X13855000Y-26833877D01*
X13874048Y-26843401D01*
X13883571Y-26852924D01*
X13893095Y-26871972D01*
X13893095Y-26929115D01*
X13883571Y-26948162D01*
X13874048Y-26957686D01*
X13855000Y-26967210D01*
X13826428Y-26967210D01*
X14007381Y-26967210D02*
X13988333Y-26957686D01*
X13978809Y-26938639D01*
X13978809Y-26767210D01*
X14159762Y-26957686D02*
X14140714Y-26967210D01*
X14102619Y-26967210D01*
X14083571Y-26957686D01*
X14074048Y-26938639D01*
X14074048Y-26862448D01*
X14083571Y-26843401D01*
X14102619Y-26833877D01*
X14140714Y-26833877D01*
X14159762Y-26843401D01*
X14169286Y-26862448D01*
X14169286Y-26881496D01*
X14074048Y-26900543D01*
X14245476Y-26957686D02*
X14264524Y-26967210D01*
X14302619Y-26967210D01*
X14321667Y-26957686D01*
X14331190Y-26938639D01*
X14331190Y-26929115D01*
X14321667Y-26910067D01*
X14302619Y-26900543D01*
X14274048Y-26900543D01*
X14255000Y-26891020D01*
X14245476Y-26871972D01*
X14245476Y-26862448D01*
X14255000Y-26843401D01*
X14274048Y-26833877D01*
X14302619Y-26833877D01*
X14321667Y-26843401D01*
X14397857Y-27043401D02*
X14407381Y-27033877D01*
X14426428Y-27005305D01*
X14435952Y-26986258D01*
X14445476Y-26957686D01*
X14455000Y-26910067D01*
X14455000Y-26871972D01*
X14445476Y-26824353D01*
X14435952Y-26795782D01*
X14426428Y-26776734D01*
X14407381Y-26748162D01*
X14397857Y-26738639D01*
D18*
X9115000Y-27075734D02*
X9245000Y-27205734D01*
X9245000Y-27075734D02*
X9115000Y-27205734D01*
X9180000Y-27075734D02*
X9180000Y-27205734D01*
X9115000Y-27140734D02*
X9245000Y-27140734D01*
D12*
X9607381Y-27231210D02*
X9493095Y-27231210D01*
X9550238Y-27231210D02*
X9550238Y-27031210D01*
X9531190Y-27059782D01*
X9512143Y-27078829D01*
X9493095Y-27088353D01*
X9693095Y-27212162D02*
X9702619Y-27221686D01*
X9693095Y-27231210D01*
X9683571Y-27221686D01*
X9693095Y-27212162D01*
X9693095Y-27231210D01*
X9769286Y-27031210D02*
X9893095Y-27031210D01*
X9826429Y-27107401D01*
X9855000Y-27107401D01*
X9874048Y-27116924D01*
X9883571Y-27126448D01*
X9893095Y-27145496D01*
X9893095Y-27193115D01*
X9883571Y-27212162D01*
X9874048Y-27221686D01*
X9855000Y-27231210D01*
X9797857Y-27231210D01*
X9778810Y-27221686D01*
X9769286Y-27212162D01*
X10016905Y-27031210D02*
X10035952Y-27031210D01*
X10055000Y-27040734D01*
X10064524Y-27050258D01*
X10074048Y-27069305D01*
X10083571Y-27107401D01*
X10083571Y-27155020D01*
X10074048Y-27193115D01*
X10064524Y-27212162D01*
X10055000Y-27221686D01*
X10035952Y-27231210D01*
X10016905Y-27231210D01*
X9997857Y-27221686D01*
X9988333Y-27212162D01*
X9978810Y-27193115D01*
X9969286Y-27155020D01*
X9969286Y-27107401D01*
X9978810Y-27069305D01*
X9988333Y-27050258D01*
X9997857Y-27040734D01*
X10016905Y-27031210D01*
X10207381Y-27031210D02*
X10226429Y-27031210D01*
X10245476Y-27040734D01*
X10255000Y-27050258D01*
X10264524Y-27069305D01*
X10274048Y-27107401D01*
X10274048Y-27155020D01*
X10264524Y-27193115D01*
X10255000Y-27212162D01*
X10245476Y-27221686D01*
X10226429Y-27231210D01*
X10207381Y-27231210D01*
X10188333Y-27221686D01*
X10178810Y-27212162D01*
X10169286Y-27193115D01*
X10159762Y-27155020D01*
X10159762Y-27107401D01*
X10169286Y-27069305D01*
X10178810Y-27050258D01*
X10188333Y-27040734D01*
X10207381Y-27031210D01*
X10359762Y-27231210D02*
X10359762Y-27097877D01*
X10359762Y-27116924D02*
X10369286Y-27107401D01*
X10388333Y-27097877D01*
X10416905Y-27097877D01*
X10435952Y-27107401D01*
X10445476Y-27126448D01*
X10445476Y-27231210D01*
X10445476Y-27126448D02*
X10455000Y-27107401D01*
X10474048Y-27097877D01*
X10502619Y-27097877D01*
X10521667Y-27107401D01*
X10531190Y-27126448D01*
X10531190Y-27231210D01*
X10626429Y-27231210D02*
X10626429Y-27097877D01*
X10626429Y-27116924D02*
X10635952Y-27107401D01*
X10655000Y-27097877D01*
X10683571Y-27097877D01*
X10702619Y-27107401D01*
X10712143Y-27126448D01*
X10712143Y-27231210D01*
X10712143Y-27126448D02*
X10721667Y-27107401D01*
X10740714Y-27097877D01*
X10769286Y-27097877D01*
X10788333Y-27107401D01*
X10797857Y-27126448D01*
X10797857Y-27231210D01*
X11188333Y-27021686D02*
X11016905Y-27278829D01*
X11445476Y-27031210D02*
X11464524Y-27031210D01*
X11483571Y-27040734D01*
X11493095Y-27050258D01*
X11502619Y-27069305D01*
X11512143Y-27107401D01*
X11512143Y-27155020D01*
X11502619Y-27193115D01*
X11493095Y-27212162D01*
X11483571Y-27221686D01*
X11464524Y-27231210D01*
X11445476Y-27231210D01*
X11426428Y-27221686D01*
X11416905Y-27212162D01*
X11407381Y-27193115D01*
X11397857Y-27155020D01*
X11397857Y-27107401D01*
X11407381Y-27069305D01*
X11416905Y-27050258D01*
X11426428Y-27040734D01*
X11445476Y-27031210D01*
X11597857Y-27212162D02*
X11607381Y-27221686D01*
X11597857Y-27231210D01*
X11588333Y-27221686D01*
X11597857Y-27212162D01*
X11597857Y-27231210D01*
X11731190Y-27031210D02*
X11750238Y-27031210D01*
X11769286Y-27040734D01*
X11778809Y-27050258D01*
X11788333Y-27069305D01*
X11797857Y-27107401D01*
X11797857Y-27155020D01*
X11788333Y-27193115D01*
X11778809Y-27212162D01*
X11769286Y-27221686D01*
X11750238Y-27231210D01*
X11731190Y-27231210D01*
X11712143Y-27221686D01*
X11702619Y-27212162D01*
X11693095Y-27193115D01*
X11683571Y-27155020D01*
X11683571Y-27107401D01*
X11693095Y-27069305D01*
X11702619Y-27050258D01*
X11712143Y-27040734D01*
X11731190Y-27031210D01*
X11978809Y-27031210D02*
X11883571Y-27031210D01*
X11874048Y-27126448D01*
X11883571Y-27116924D01*
X11902619Y-27107401D01*
X11950238Y-27107401D01*
X11969286Y-27116924D01*
X11978809Y-27126448D01*
X11988333Y-27145496D01*
X11988333Y-27193115D01*
X11978809Y-27212162D01*
X11969286Y-27221686D01*
X11950238Y-27231210D01*
X11902619Y-27231210D01*
X11883571Y-27221686D01*
X11874048Y-27212162D01*
X12178809Y-27231210D02*
X12064524Y-27231210D01*
X12121667Y-27231210D02*
X12121667Y-27031210D01*
X12102619Y-27059782D01*
X12083571Y-27078829D01*
X12064524Y-27088353D01*
X12255000Y-27050258D02*
X12264524Y-27040734D01*
X12283571Y-27031210D01*
X12331190Y-27031210D01*
X12350238Y-27040734D01*
X12359762Y-27050258D01*
X12369286Y-27069305D01*
X12369286Y-27088353D01*
X12359762Y-27116924D01*
X12245476Y-27231210D01*
X12369286Y-27231210D01*
X12445476Y-27031210D02*
X12445476Y-27069305D01*
X12521667Y-27031210D02*
X12521667Y-27069305D01*
X12816905Y-27307401D02*
X12807381Y-27297877D01*
X12788333Y-27269305D01*
X12778809Y-27250258D01*
X12769286Y-27221686D01*
X12759762Y-27174067D01*
X12759762Y-27135972D01*
X12769286Y-27088353D01*
X12778809Y-27059782D01*
X12788333Y-27040734D01*
X12807381Y-27012162D01*
X12816905Y-27002639D01*
X12978809Y-27031210D02*
X12940714Y-27031210D01*
X12921667Y-27040734D01*
X12912143Y-27050258D01*
X12893095Y-27078829D01*
X12883571Y-27116924D01*
X12883571Y-27193115D01*
X12893095Y-27212162D01*
X12902619Y-27221686D01*
X12921667Y-27231210D01*
X12959762Y-27231210D01*
X12978809Y-27221686D01*
X12988333Y-27212162D01*
X12997857Y-27193115D01*
X12997857Y-27145496D01*
X12988333Y-27126448D01*
X12978809Y-27116924D01*
X12959762Y-27107401D01*
X12921667Y-27107401D01*
X12902619Y-27116924D01*
X12893095Y-27126448D01*
X12883571Y-27145496D01*
X13235952Y-27231210D02*
X13235952Y-27031210D01*
X13321667Y-27231210D02*
X13321667Y-27126448D01*
X13312143Y-27107401D01*
X13293095Y-27097877D01*
X13264524Y-27097877D01*
X13245476Y-27107401D01*
X13235952Y-27116924D01*
X13445476Y-27231210D02*
X13426428Y-27221686D01*
X13416905Y-27212162D01*
X13407381Y-27193115D01*
X13407381Y-27135972D01*
X13416905Y-27116924D01*
X13426428Y-27107401D01*
X13445476Y-27097877D01*
X13474048Y-27097877D01*
X13493095Y-27107401D01*
X13502619Y-27116924D01*
X13512143Y-27135972D01*
X13512143Y-27193115D01*
X13502619Y-27212162D01*
X13493095Y-27221686D01*
X13474048Y-27231210D01*
X13445476Y-27231210D01*
X13626428Y-27231210D02*
X13607381Y-27221686D01*
X13597857Y-27202639D01*
X13597857Y-27031210D01*
X13778809Y-27221686D02*
X13759762Y-27231210D01*
X13721667Y-27231210D01*
X13702619Y-27221686D01*
X13693095Y-27202639D01*
X13693095Y-27126448D01*
X13702619Y-27107401D01*
X13721667Y-27097877D01*
X13759762Y-27097877D01*
X13778809Y-27107401D01*
X13788333Y-27126448D01*
X13788333Y-27145496D01*
X13693095Y-27164543D01*
X13864524Y-27221686D02*
X13883571Y-27231210D01*
X13921667Y-27231210D01*
X13940714Y-27221686D01*
X13950238Y-27202639D01*
X13950238Y-27193115D01*
X13940714Y-27174067D01*
X13921667Y-27164543D01*
X13893095Y-27164543D01*
X13874048Y-27155020D01*
X13864524Y-27135972D01*
X13864524Y-27126448D01*
X13874048Y-27107401D01*
X13893095Y-27097877D01*
X13921667Y-27097877D01*
X13940714Y-27107401D01*
X14016905Y-27307401D02*
X14026428Y-27297877D01*
X14045476Y-27269305D01*
X14055000Y-27250258D01*
X14064524Y-27221686D01*
X14074048Y-27174067D01*
X14074048Y-27135972D01*
X14064524Y-27088353D01*
X14055000Y-27059782D01*
X14045476Y-27040734D01*
X14026428Y-27012162D01*
X14016905Y-27002639D01*
X9045000Y-27304734D02*
X9245000Y-27504734D01*
X9245000Y-27304734D02*
X9045000Y-27504734D01*
X9215711Y-27475445D02*
X9215711Y-27334023D01*
X9074289Y-27334023D01*
X9074289Y-27475445D01*
X9215711Y-27475445D01*
X9493095Y-27314258D02*
X9502619Y-27304734D01*
X9521667Y-27295210D01*
X9569286Y-27295210D01*
X9588333Y-27304734D01*
X9597857Y-27314258D01*
X9607381Y-27333305D01*
X9607381Y-27352353D01*
X9597857Y-27380924D01*
X9483571Y-27495210D01*
X9607381Y-27495210D01*
X9693095Y-27476162D02*
X9702619Y-27485686D01*
X9693095Y-27495210D01*
X9683571Y-27485686D01*
X9693095Y-27476162D01*
X9693095Y-27495210D01*
X9883571Y-27295210D02*
X9788333Y-27295210D01*
X9778810Y-27390448D01*
X9788333Y-27380924D01*
X9807381Y-27371401D01*
X9855000Y-27371401D01*
X9874048Y-27380924D01*
X9883571Y-27390448D01*
X9893095Y-27409496D01*
X9893095Y-27457115D01*
X9883571Y-27476162D01*
X9874048Y-27485686D01*
X9855000Y-27495210D01*
X9807381Y-27495210D01*
X9788333Y-27485686D01*
X9778810Y-27476162D01*
X10016905Y-27295210D02*
X10035952Y-27295210D01*
X10055000Y-27304734D01*
X10064524Y-27314258D01*
X10074048Y-27333305D01*
X10083571Y-27371401D01*
X10083571Y-27419020D01*
X10074048Y-27457115D01*
X10064524Y-27476162D01*
X10055000Y-27485686D01*
X10035952Y-27495210D01*
X10016905Y-27495210D01*
X9997857Y-27485686D01*
X9988333Y-27476162D01*
X9978810Y-27457115D01*
X9969286Y-27419020D01*
X9969286Y-27371401D01*
X9978810Y-27333305D01*
X9988333Y-27314258D01*
X9997857Y-27304734D01*
X10016905Y-27295210D01*
X10207381Y-27295210D02*
X10226429Y-27295210D01*
X10245476Y-27304734D01*
X10255000Y-27314258D01*
X10264524Y-27333305D01*
X10274048Y-27371401D01*
X10274048Y-27419020D01*
X10264524Y-27457115D01*
X10255000Y-27476162D01*
X10245476Y-27485686D01*
X10226429Y-27495210D01*
X10207381Y-27495210D01*
X10188333Y-27485686D01*
X10178810Y-27476162D01*
X10169286Y-27457115D01*
X10159762Y-27419020D01*
X10159762Y-27371401D01*
X10169286Y-27333305D01*
X10178810Y-27314258D01*
X10188333Y-27304734D01*
X10207381Y-27295210D01*
X10359762Y-27495210D02*
X10359762Y-27361877D01*
X10359762Y-27380924D02*
X10369286Y-27371401D01*
X10388333Y-27361877D01*
X10416905Y-27361877D01*
X10435952Y-27371401D01*
X10445476Y-27390448D01*
X10445476Y-27495210D01*
X10445476Y-27390448D02*
X10455000Y-27371401D01*
X10474048Y-27361877D01*
X10502619Y-27361877D01*
X10521667Y-27371401D01*
X10531190Y-27390448D01*
X10531190Y-27495210D01*
X10626429Y-27495210D02*
X10626429Y-27361877D01*
X10626429Y-27380924D02*
X10635952Y-27371401D01*
X10655000Y-27361877D01*
X10683571Y-27361877D01*
X10702619Y-27371401D01*
X10712143Y-27390448D01*
X10712143Y-27495210D01*
X10712143Y-27390448D02*
X10721667Y-27371401D01*
X10740714Y-27361877D01*
X10769286Y-27361877D01*
X10788333Y-27371401D01*
X10797857Y-27390448D01*
X10797857Y-27495210D01*
X11188333Y-27285686D02*
X11016905Y-27542829D01*
X11445476Y-27295210D02*
X11464524Y-27295210D01*
X11483571Y-27304734D01*
X11493095Y-27314258D01*
X11502619Y-27333305D01*
X11512143Y-27371401D01*
X11512143Y-27419020D01*
X11502619Y-27457115D01*
X11493095Y-27476162D01*
X11483571Y-27485686D01*
X11464524Y-27495210D01*
X11445476Y-27495210D01*
X11426428Y-27485686D01*
X11416905Y-27476162D01*
X11407381Y-27457115D01*
X11397857Y-27419020D01*
X11397857Y-27371401D01*
X11407381Y-27333305D01*
X11416905Y-27314258D01*
X11426428Y-27304734D01*
X11445476Y-27295210D01*
X11597857Y-27476162D02*
X11607381Y-27485686D01*
X11597857Y-27495210D01*
X11588333Y-27485686D01*
X11597857Y-27476162D01*
X11597857Y-27495210D01*
X11731190Y-27295210D02*
X11750238Y-27295210D01*
X11769286Y-27304734D01*
X11778809Y-27314258D01*
X11788333Y-27333305D01*
X11797857Y-27371401D01*
X11797857Y-27419020D01*
X11788333Y-27457115D01*
X11778809Y-27476162D01*
X11769286Y-27485686D01*
X11750238Y-27495210D01*
X11731190Y-27495210D01*
X11712143Y-27485686D01*
X11702619Y-27476162D01*
X11693095Y-27457115D01*
X11683571Y-27419020D01*
X11683571Y-27371401D01*
X11693095Y-27333305D01*
X11702619Y-27314258D01*
X11712143Y-27304734D01*
X11731190Y-27295210D01*
X11893095Y-27495210D02*
X11931190Y-27495210D01*
X11950238Y-27485686D01*
X11959762Y-27476162D01*
X11978809Y-27447591D01*
X11988333Y-27409496D01*
X11988333Y-27333305D01*
X11978809Y-27314258D01*
X11969286Y-27304734D01*
X11950238Y-27295210D01*
X11912143Y-27295210D01*
X11893095Y-27304734D01*
X11883571Y-27314258D01*
X11874048Y-27333305D01*
X11874048Y-27380924D01*
X11883571Y-27399972D01*
X11893095Y-27409496D01*
X11912143Y-27419020D01*
X11950238Y-27419020D01*
X11969286Y-27409496D01*
X11978809Y-27399972D01*
X11988333Y-27380924D01*
X12102619Y-27380924D02*
X12083571Y-27371401D01*
X12074048Y-27361877D01*
X12064524Y-27342829D01*
X12064524Y-27333305D01*
X12074048Y-27314258D01*
X12083571Y-27304734D01*
X12102619Y-27295210D01*
X12140714Y-27295210D01*
X12159762Y-27304734D01*
X12169286Y-27314258D01*
X12178809Y-27333305D01*
X12178809Y-27342829D01*
X12169286Y-27361877D01*
X12159762Y-27371401D01*
X12140714Y-27380924D01*
X12102619Y-27380924D01*
X12083571Y-27390448D01*
X12074048Y-27399972D01*
X12064524Y-27419020D01*
X12064524Y-27457115D01*
X12074048Y-27476162D01*
X12083571Y-27485686D01*
X12102619Y-27495210D01*
X12140714Y-27495210D01*
X12159762Y-27485686D01*
X12169286Y-27476162D01*
X12178809Y-27457115D01*
X12178809Y-27419020D01*
X12169286Y-27399972D01*
X12159762Y-27390448D01*
X12140714Y-27380924D01*
X12350238Y-27361877D02*
X12350238Y-27495210D01*
X12302619Y-27285686D02*
X12255000Y-27428543D01*
X12378809Y-27428543D01*
X12445476Y-27295210D02*
X12445476Y-27333305D01*
X12521667Y-27295210D02*
X12521667Y-27333305D01*
X12816905Y-27571401D02*
X12807381Y-27561877D01*
X12788333Y-27533305D01*
X12778809Y-27514258D01*
X12769286Y-27485686D01*
X12759762Y-27438067D01*
X12759762Y-27399972D01*
X12769286Y-27352353D01*
X12778809Y-27323782D01*
X12788333Y-27304734D01*
X12807381Y-27276162D01*
X12816905Y-27266639D01*
X12978809Y-27361877D02*
X12978809Y-27495210D01*
X12931190Y-27285686D02*
X12883571Y-27428543D01*
X13007381Y-27428543D01*
X13235952Y-27495210D02*
X13235952Y-27295210D01*
X13321667Y-27495210D02*
X13321667Y-27390448D01*
X13312143Y-27371401D01*
X13293095Y-27361877D01*
X13264524Y-27361877D01*
X13245476Y-27371401D01*
X13235952Y-27380924D01*
X13445476Y-27495210D02*
X13426428Y-27485686D01*
X13416905Y-27476162D01*
X13407381Y-27457115D01*
X13407381Y-27399972D01*
X13416905Y-27380924D01*
X13426428Y-27371401D01*
X13445476Y-27361877D01*
X13474048Y-27361877D01*
X13493095Y-27371401D01*
X13502619Y-27380924D01*
X13512143Y-27399972D01*
X13512143Y-27457115D01*
X13502619Y-27476162D01*
X13493095Y-27485686D01*
X13474048Y-27495210D01*
X13445476Y-27495210D01*
X13626428Y-27495210D02*
X13607381Y-27485686D01*
X13597857Y-27466639D01*
X13597857Y-27295210D01*
X13778809Y-27485686D02*
X13759762Y-27495210D01*
X13721667Y-27495210D01*
X13702619Y-27485686D01*
X13693095Y-27466639D01*
X13693095Y-27390448D01*
X13702619Y-27371401D01*
X13721667Y-27361877D01*
X13759762Y-27361877D01*
X13778809Y-27371401D01*
X13788333Y-27390448D01*
X13788333Y-27409496D01*
X13693095Y-27428543D01*
X13864524Y-27485686D02*
X13883571Y-27495210D01*
X13921667Y-27495210D01*
X13940714Y-27485686D01*
X13950238Y-27466639D01*
X13950238Y-27457115D01*
X13940714Y-27438067D01*
X13921667Y-27428543D01*
X13893095Y-27428543D01*
X13874048Y-27419020D01*
X13864524Y-27399972D01*
X13864524Y-27390448D01*
X13874048Y-27371401D01*
X13893095Y-27361877D01*
X13921667Y-27361877D01*
X13940714Y-27371401D01*
X14016905Y-27571401D02*
X14026428Y-27561877D01*
X14045476Y-27533305D01*
X14055000Y-27514258D01*
X14064524Y-27485686D01*
X14074048Y-27438067D01*
X14074048Y-27399972D01*
X14064524Y-27352353D01*
X14055000Y-27323782D01*
X14045476Y-27304734D01*
X14026428Y-27276162D01*
X14016905Y-27266639D01*
X9045000Y-27624734D02*
X9245000Y-27824734D01*
X9245000Y-27624734D02*
X9045000Y-27824734D01*
X9145000Y-27824734D02*
X9245000Y-27724734D01*
X9145000Y-27624734D01*
X9045000Y-27724734D01*
X9145000Y-27824734D01*
X9588333Y-27681877D02*
X9588333Y-27815210D01*
X9540714Y-27605686D02*
X9493095Y-27748543D01*
X9616905Y-27748543D01*
X9693095Y-27796162D02*
X9702619Y-27805686D01*
X9693095Y-27815210D01*
X9683571Y-27805686D01*
X9693095Y-27796162D01*
X9693095Y-27815210D01*
X9883571Y-27615210D02*
X9788333Y-27615210D01*
X9778810Y-27710448D01*
X9788333Y-27700924D01*
X9807381Y-27691401D01*
X9855000Y-27691401D01*
X9874048Y-27700924D01*
X9883571Y-27710448D01*
X9893095Y-27729496D01*
X9893095Y-27777115D01*
X9883571Y-27796162D01*
X9874048Y-27805686D01*
X9855000Y-27815210D01*
X9807381Y-27815210D01*
X9788333Y-27805686D01*
X9778810Y-27796162D01*
X10074048Y-27615210D02*
X9978810Y-27615210D01*
X9969286Y-27710448D01*
X9978810Y-27700924D01*
X9997857Y-27691401D01*
X10045476Y-27691401D01*
X10064524Y-27700924D01*
X10074048Y-27710448D01*
X10083571Y-27729496D01*
X10083571Y-27777115D01*
X10074048Y-27796162D01*
X10064524Y-27805686D01*
X10045476Y-27815210D01*
X9997857Y-27815210D01*
X9978810Y-27805686D01*
X9969286Y-27796162D01*
X10207381Y-27615210D02*
X10226429Y-27615210D01*
X10245476Y-27624734D01*
X10255000Y-27634258D01*
X10264524Y-27653305D01*
X10274048Y-27691401D01*
X10274048Y-27739020D01*
X10264524Y-27777115D01*
X10255000Y-27796162D01*
X10245476Y-27805686D01*
X10226429Y-27815210D01*
X10207381Y-27815210D01*
X10188333Y-27805686D01*
X10178810Y-27796162D01*
X10169286Y-27777115D01*
X10159762Y-27739020D01*
X10159762Y-27691401D01*
X10169286Y-27653305D01*
X10178810Y-27634258D01*
X10188333Y-27624734D01*
X10207381Y-27615210D01*
X10359762Y-27815210D02*
X10359762Y-27681877D01*
X10359762Y-27700924D02*
X10369286Y-27691401D01*
X10388333Y-27681877D01*
X10416905Y-27681877D01*
X10435952Y-27691401D01*
X10445476Y-27710448D01*
X10445476Y-27815210D01*
X10445476Y-27710448D02*
X10455000Y-27691401D01*
X10474048Y-27681877D01*
X10502619Y-27681877D01*
X10521667Y-27691401D01*
X10531190Y-27710448D01*
X10531190Y-27815210D01*
X10626429Y-27815210D02*
X10626429Y-27681877D01*
X10626429Y-27700924D02*
X10635952Y-27691401D01*
X10655000Y-27681877D01*
X10683571Y-27681877D01*
X10702619Y-27691401D01*
X10712143Y-27710448D01*
X10712143Y-27815210D01*
X10712143Y-27710448D02*
X10721667Y-27691401D01*
X10740714Y-27681877D01*
X10769286Y-27681877D01*
X10788333Y-27691401D01*
X10797857Y-27710448D01*
X10797857Y-27815210D01*
X11188333Y-27605686D02*
X11016905Y-27862829D01*
X11445476Y-27615210D02*
X11464524Y-27615210D01*
X11483571Y-27624734D01*
X11493095Y-27634258D01*
X11502619Y-27653305D01*
X11512143Y-27691401D01*
X11512143Y-27739020D01*
X11502619Y-27777115D01*
X11493095Y-27796162D01*
X11483571Y-27805686D01*
X11464524Y-27815210D01*
X11445476Y-27815210D01*
X11426428Y-27805686D01*
X11416905Y-27796162D01*
X11407381Y-27777115D01*
X11397857Y-27739020D01*
X11397857Y-27691401D01*
X11407381Y-27653305D01*
X11416905Y-27634258D01*
X11426428Y-27624734D01*
X11445476Y-27615210D01*
X11597857Y-27796162D02*
X11607381Y-27805686D01*
X11597857Y-27815210D01*
X11588333Y-27805686D01*
X11597857Y-27796162D01*
X11597857Y-27815210D01*
X11797857Y-27815210D02*
X11683571Y-27815210D01*
X11740714Y-27815210D02*
X11740714Y-27615210D01*
X11721667Y-27643782D01*
X11702619Y-27662829D01*
X11683571Y-27672353D01*
X11864524Y-27615210D02*
X11997857Y-27615210D01*
X11912143Y-27815210D01*
X12083571Y-27815210D02*
X12121667Y-27815210D01*
X12140714Y-27805686D01*
X12150238Y-27796162D01*
X12169286Y-27767591D01*
X12178809Y-27729496D01*
X12178809Y-27653305D01*
X12169286Y-27634258D01*
X12159762Y-27624734D01*
X12140714Y-27615210D01*
X12102619Y-27615210D01*
X12083571Y-27624734D01*
X12074048Y-27634258D01*
X12064524Y-27653305D01*
X12064524Y-27700924D01*
X12074048Y-27719972D01*
X12083571Y-27729496D01*
X12102619Y-27739020D01*
X12140714Y-27739020D01*
X12159762Y-27729496D01*
X12169286Y-27719972D01*
X12178809Y-27700924D01*
X12369286Y-27815210D02*
X12255000Y-27815210D01*
X12312143Y-27815210D02*
X12312143Y-27615210D01*
X12293095Y-27643782D01*
X12274048Y-27662829D01*
X12255000Y-27672353D01*
X12445476Y-27615210D02*
X12445476Y-27653305D01*
X12521667Y-27615210D02*
X12521667Y-27653305D01*
X12816905Y-27891401D02*
X12807381Y-27881877D01*
X12788333Y-27853305D01*
X12778809Y-27834258D01*
X12769286Y-27805686D01*
X12759762Y-27758067D01*
X12759762Y-27719972D01*
X12769286Y-27672353D01*
X12778809Y-27643782D01*
X12788333Y-27624734D01*
X12807381Y-27596162D01*
X12816905Y-27586639D01*
X12978809Y-27615210D02*
X12940714Y-27615210D01*
X12921667Y-27624734D01*
X12912143Y-27634258D01*
X12893095Y-27662829D01*
X12883571Y-27700924D01*
X12883571Y-27777115D01*
X12893095Y-27796162D01*
X12902619Y-27805686D01*
X12921667Y-27815210D01*
X12959762Y-27815210D01*
X12978809Y-27805686D01*
X12988333Y-27796162D01*
X12997857Y-27777115D01*
X12997857Y-27729496D01*
X12988333Y-27710448D01*
X12978809Y-27700924D01*
X12959762Y-27691401D01*
X12921667Y-27691401D01*
X12902619Y-27700924D01*
X12893095Y-27710448D01*
X12883571Y-27729496D01*
X13235952Y-27815210D02*
X13235952Y-27615210D01*
X13321667Y-27815210D02*
X13321667Y-27710448D01*
X13312143Y-27691401D01*
X13293095Y-27681877D01*
X13264524Y-27681877D01*
X13245476Y-27691401D01*
X13235952Y-27700924D01*
X13445476Y-27815210D02*
X13426428Y-27805686D01*
X13416905Y-27796162D01*
X13407381Y-27777115D01*
X13407381Y-27719972D01*
X13416905Y-27700924D01*
X13426428Y-27691401D01*
X13445476Y-27681877D01*
X13474048Y-27681877D01*
X13493095Y-27691401D01*
X13502619Y-27700924D01*
X13512143Y-27719972D01*
X13512143Y-27777115D01*
X13502619Y-27796162D01*
X13493095Y-27805686D01*
X13474048Y-27815210D01*
X13445476Y-27815210D01*
X13626428Y-27815210D02*
X13607381Y-27805686D01*
X13597857Y-27786639D01*
X13597857Y-27615210D01*
X13778809Y-27805686D02*
X13759762Y-27815210D01*
X13721667Y-27815210D01*
X13702619Y-27805686D01*
X13693095Y-27786639D01*
X13693095Y-27710448D01*
X13702619Y-27691401D01*
X13721667Y-27681877D01*
X13759762Y-27681877D01*
X13778809Y-27691401D01*
X13788333Y-27710448D01*
X13788333Y-27729496D01*
X13693095Y-27748543D01*
X13864524Y-27805686D02*
X13883571Y-27815210D01*
X13921667Y-27815210D01*
X13940714Y-27805686D01*
X13950238Y-27786639D01*
X13950238Y-27777115D01*
X13940714Y-27758067D01*
X13921667Y-27748543D01*
X13893095Y-27748543D01*
X13874048Y-27739020D01*
X13864524Y-27719972D01*
X13864524Y-27710448D01*
X13874048Y-27691401D01*
X13893095Y-27681877D01*
X13921667Y-27681877D01*
X13940714Y-27691401D01*
X14016905Y-27891401D02*
X14026428Y-27881877D01*
X14045476Y-27853305D01*
X14055000Y-27834258D01*
X14064524Y-27805686D01*
X14074048Y-27758067D01*
X14074048Y-27719972D01*
X14064524Y-27672353D01*
X14055000Y-27643782D01*
X14045476Y-27624734D01*
X14026428Y-27596162D01*
X14016905Y-27586639D01*
M02*
