0
SECTION
2
HEADER
9
$INSUNITS
70
4
9
$ACADVER
1
AC1014
9
$HANDSEED
5
FFFF
0
ENDSEC
0
SECTION
2
TABLES
0
TABLE
2
VPORT
5
8
100
AcDbSymbolTable
0
ENDTAB
0
TABLE
2
LTYPE
5
5
100
AcDbSymbolTable
0
LTYPE
5
14
100
AcDbSymbolTableRecord
100
AcDbLinetypeTableRecord
2
BYBLOCK
70
0
0
LTYPE
5
15
100
AcDbSymbolTableRecord
100
AcDbLinetypeTableRecord
2
BYLAYER
70
0
0
ENDTAB
0
TABLE
2
LAYER
5
2
100
AcDbSymbolTable
70
2
0
LAYER
5
50
100
AcDbSymbolTableRecord
100
AcDbLayerTableRecord
2
0
70
0
6
CONTINUOUS
0
ENDTAB
0
TABLE
2
STYLE
5
3
100
AcDbSymbolTable
70
1
0
STYLE
5
11
100
AcDbSymbolTableRecord
100
AcDbTextStyleTableRecord
2
STANDARD
70
0
0
ENDTAB
0
TABLE
2
VIEW
5
6
100
AcDbSymbolTable
70
0
0
ENDTAB
0
TABLE
2
UCS
5
7
100
AcDbSymbolTable
70
0
0
ENDTAB
0
TABLE
2
APPID
5
9
100
AcDbSymbolTable
70
2
0
APPID
5
12
100
AcDbSymbolTableRecord
100
AcDbRegAppTableRecord
2
ACAD
70
0
0
ENDTAB
0
TABLE
2
DIMSTYLE
5
A
100
AcDbSymbolTable
70
1
0
ENDTAB
0
TABLE
2
BLOCK_RECORD
5
1
100
AcDbSymbolTable
70
1
0
BLOCK_RECORD
5
1F
100
AcDbSymbolTableRecord
100
AcDbBlockTableRecord
2
*MODEL_SPACE
0
BLOCK_RECORD
5
1B
100
AcDbSymbolTableRecord
100
AcDbBlockTableRecord
2
*PAPER_SPACE
0
ENDTAB
0
ENDSEC
0
SECTION
2
BLOCKS
0
BLOCK
5
20
100
AcDbEntity
100
AcDbBlockBegin
2
*MODEL_SPACE
0
ENDBLK
5
21
100
AcDbEntity
100
AcDbBlockEnd
0
BLOCK
5
1C
100
AcDbEntity
100
AcDbBlockBegin
2
*PAPER_SPACE
0
ENDBLK
5
1D
100
AcDbEntity
100
AcDbBlockEnd
0
ENDSEC
0
SECTION
2
ENTITIES
0
LWPOLYLINE
5
100
100
AcDbEntity
8
0
100
AcDbPolyline
90
4
70
1
43
0.0
10
39.62079621224359
20
-88.692887888773569
10
29.721301087497409
20
-78.793392764027359
10
72.147708087497449
20
-36.366985764027476
10
82.04720321224363
20
-46.266480888773664
0
LWPOLYLINE
5
101
100
AcDbEntity
8
0
100
AcDbPolyline
90
4
70
1
43
0.0
10
82.047203212243744
20
40.707653360718616
10
72.147708087497534
20
30.808158235972449
10
29.721301087497629
20
73.234565235972497
10
39.620796212243825
20
83.134060360718664
0
LWPOLYLINE
5
102
100
AcDbEntity
8
0
100
AcDbPolyline
90
4
70
1
43
0.0
10
-47.353338037248498
20
83.13406036071882
10
-37.453842912502338
20
73.23456523597261
10
-79.880249912502364
20
30.808158235972741
10
-89.779745037248517
20
40.707653360718936
0
LWPOLYLINE
5
103
100
AcDbEntity
8
0
100
AcDbPolyline
90
4
70
1
43
0.0
10
-89.779745037248645
20
-46.26648088877333
10
-79.88024991250245
20
-36.366985764027184
10
-37.453842912502566
20
-78.793392764027217
10
-47.35333803724874
20
-88.692887888773399
0
LWPOLYLINE
5
104
100
AcDbEntity
8
0
100
AcDbPolyline
90
4
70
1
43
0.0
10
37.75106908749764
20
96.337926235972446
10
16.133729087497628
20
74.720586235972505
10
-23.866270912502337
20
74.720586235972604
10
-45.483610912502286
20
96.337926235972645
42
4.9646935714722025
0
CIRCLE
5
105
100
AcDbEntity
8
0
100
AcDbCircle
10
82.303257087497528
20
46.970586235972405
30
6.9388939039072284e-17
40
1.4999999999999987
210
1.5408693109624816e-33
220
-2.1384449762598743e-48
230
1
0
CIRCLE
5
106
100
AcDbEntity
8
0
100
AcDbCircle
10
45.883729087497613
20
83.390114235972433
30
6.9388939039072284e-17
40
1.4999999999999987
210
1.5408693109624816e-33
220
-2.1384449762598743e-48
230
1
0
CIRCLE
5
107
100
AcDbEntity
8
0
100
AcDbCircle
10
95.633729087497443
20
-2.7794137640275629
30
6.9388939039072284e-17
40
1.4999999999999987
210
1.5408693109624816e-33
220
-2.1384449762598743e-48
230
1
0
CIRCLE
5
108
100
AcDbEntity
8
0
100
AcDbCircle
10
-53.616270912502316
20
83.390114235972618
30
6.9388939039072284e-17
40
1.4999999999999987
210
1.5408693109624816e-33
220
-2.1384449762598743e-48
230
1
0
CIRCLE
5
109
100
AcDbEntity
8
0
100
AcDbCircle
10
-90.035798912502329
20
46.970586235972746
30
6.9388939039072284e-17
40
1.4999999999999987
210
1.5408693109624816e-33
220
-2.1384449762598743e-48
230
1
0
CIRCLE
5
110
100
AcDbEntity
8
0
100
AcDbCircle
10
-103.36627091250242
20
-2.7794137640271765
30
6.9388939039072284e-17
40
1.4999999999999987
210
1.5408693109624816e-33
220
-2.1384449762598743e-48
230
1
0
CIRCLE
5
111
100
AcDbEntity
8
0
100
AcDbCircle
10
82.303257087497386
20
-52.529413764027481
30
6.9388939039072284e-17
40
1.4999999999999987
210
1.5408693109624816e-33
220
-2.1384449762598743e-48
230
1
0
CIRCLE
5
112
100
AcDbEntity
8
0
100
AcDbCircle
10
45.883729087497372
20
-88.948941764027381
30
6.9388939039072284e-17
40
1.4999999999999987
210
1.5408693109624816e-33
220
-2.1384449762598743e-48
230
1
0
CIRCLE
5
113
100
AcDbEntity
8
0
100
AcDbCircle
10
-53.616270912502557
20
-88.948941764027211
30
6.9388939039072284e-17
40
1.4999999999999987
210
1.5408693109624816e-33
220
-2.1384449762598743e-48
230
1
0
CIRCLE
5
114
100
AcDbEntity
8
0
100
AcDbCircle
10
-90.035798912502472
20
-52.52941376402714
30
1.3877787807814457e-16
40
1.4999999999999987
210
1.5408693109624816e-33
220
-2.1384449762598743e-48
230
1
0
ENDSEC
0
SECTION
2
OBJECTS
0
DICTIONARY
5
C
100
AcDbDictionary
3
ACAD_GROUP
350
D
3
ACAD_MLINESTYLE
350
17
0
DICTIONARY
5
D
100
AcDbDictionary
0
DICTIONARY
5
1A
330
C
100
AcDbDictionary
0
DICTIONARY
5
17
100
AcDbDictionary
0
ENDSEC
0
EOF
