0
SECTION
2
HEADER
9
$INSUNITS
70
4
9
$ACADVER
1
AC1014
9
$HANDSEED
5
FFFF
0
ENDSEC
0
SECTION
2
TABLES
0
TABLE
2
VPORT
5
8
100
AcDbSymbolTable
0
ENDTAB
0
TABLE
2
LTYPE
5
5
100
AcDbSymbolTable
0
LTYPE
5
14
100
AcDbSymbolTableRecord
100
AcDbLinetypeTableRecord
2
BYBLOCK
70
0
0
LTYPE
5
15
100
AcDbSymbolTableRecord
100
AcDbLinetypeTableRecord
2
BYLAYER
70
0
0
ENDTAB
0
TABLE
2
LAYER
5
2
100
AcDbSymbolTable
70
2
0
LAYER
5
50
100
AcDbSymbolTableRecord
100
AcDbLayerTableRecord
2
0
70
0
6
CONTINUOUS
0
ENDTAB
0
TABLE
2
STYLE
5
3
100
AcDbSymbolTable
70
1
0
STYLE
5
11
100
AcDbSymbolTableRecord
100
AcDbTextStyleTableRecord
2
STANDARD
70
0
0
ENDTAB
0
TABLE
2
VIEW
5
6
100
AcDbSymbolTable
70
0
0
ENDTAB
0
TABLE
2
UCS
5
7
100
AcDbSymbolTable
70
0
0
ENDTAB
0
TABLE
2
APPID
5
9
100
AcDbSymbolTable
70
2
0
APPID
5
12
100
AcDbSymbolTableRecord
100
AcDbRegAppTableRecord
2
ACAD
70
0
0
ENDTAB
0
TABLE
2
DIMSTYLE
5
A
100
AcDbSymbolTable
70
1
0
ENDTAB
0
TABLE
2
BLOCK_RECORD
5
1
100
AcDbSymbolTable
70
1
0
BLOCK_RECORD
5
1F
100
AcDbSymbolTableRecord
100
AcDbBlockTableRecord
2
*MODEL_SPACE
0
BLOCK_RECORD
5
1B
100
AcDbSymbolTableRecord
100
AcDbBlockTableRecord
2
*PAPER_SPACE
0
ENDTAB
0
ENDSEC
0
SECTION
2
BLOCKS
0
BLOCK
5
20
100
AcDbEntity
100
AcDbBlockBegin
2
*MODEL_SPACE
0
ENDBLK
5
21
100
AcDbEntity
100
AcDbBlockEnd
0
BLOCK
5
1C
100
AcDbEntity
100
AcDbBlockBegin
2
*PAPER_SPACE
0
ENDBLK
5
1D
100
AcDbEntity
100
AcDbBlockEnd
0
ENDSEC
0
SECTION
2
ENTITIES
0
LWPOLYLINE
5
100
100
AcDbEntity
8
0
100
AcDbPolyline
90
56
70
1
43
0.0
10
-12.5
20
0
10
-12.5
20
-2
10
-12.450019472001372
20
-2
10
-12.450019472001372
20
-6.8675151219391193
42
0.48148254080820146
10
-11.227790037926793
20
-7.8425095212209239
42
-1.2535758512816988
10
-11.227790037926791
20
-11.157490478779071
42
0.48148254080820152
10
-12.450019472001372
20
-12.132484878060875
10
-12.450019472001369
20
-13.217515121939119
42
0.48148254080820002
10
-11.227790037926793
20
-14.192509521220924
42
-1.2535758512816988
10
-11.227790037926791
20
-17.507490478779072
42
0.4814825408081988
10
-12.450019472001365
20
-18.482484878060873
10
-12.450019472001369
20
-19.567515121939117
42
0.48148254080820002
10
-11.227790037926791
20
-20.542509521220925
42
-1.2535758512816984
10
-11.227790037926791
20
-23.85749047877907
42
0.48148254080820013
10
-12.450019472001369
20
-24.832484878060875
10
-12.450019472001369
20
-25.917515121939122
42
0.48148254080819985
10
-11.227790037926793
20
-26.892509521220926
42
-1.2535758512816988
10
-11.227790037926791
20
-30.207490478779071
42
0.48148254080820013
10
-12.450019472001369
20
-31.18248487806088
10
-12.450019472001369
20
-32.267515121939127
42
0.48148254080819985
10
-11.227790037926793
20
-33.242509521220931
42
-1.2535758512816988
10
-11.227790037926791
20
-36.557490478779073
42
0.48148254080820013
10
-12.450019472001369
20
-37.532484878060885
10
-12.450019472001363
20
-38.617515121939128
42
0.48148254080819985
10
-11.227790037926786
20
-39.592509521220933
42
-1.2535758512816966
10
-11.227790037926786
20
-42.907490478779067
42
0.48148254080819985
10
-12.450019472001363
20
-43.882484878060879
10
-12.450019472001363
20
-49.715481734916281
42
0.28495414665766283
10
-10.165501206917682
20
-51.999999999999993
10
10.422808665069994
20
-52
42
0.34802580881165956
10
12.500000000000009
20
-48.922808665069979
10
12.5
20
-43.921290431154425
42
0.45763972142719828
10
11.354558317834192
20
-42.931923604800929
42
-1.1577522630181185
10
11.354558317834194
20
-39.568076395199071
42
0.45763972142719778
10
12.499999999999998
20
-38.578709568845582
10
12.5
20
-37.571290431154424
42
0.45763972142719761
10
11.354558317834195
20
-36.581923604800942
42
-1.1577522630181172
10
11.354558317834192
20
-33.218076395199063
42
0.45763972142719961
10
12.499999999999998
20
-32.228709568845566
10
12.5
20
-31.221290431154429
42
0.45763972142719828
10
11.354558317834194
20
-30.23192360480094
42
-1.1577522630181156
10
11.35455831783419
20
-26.868076395199068
42
0.45763972142719894
10
12.5
20
-25.878709568845576
10
12.5
20
-24.871290431154428
42
0.45763972142719761
10
11.354558317834195
20
-23.881923604800939
42
-1.1577522630181147
10
11.354558317834194
20
-20.518076395199071
42
0.45763972142719733
10
12.5
20
-19.528709568845571
10
12.5
20
-18.521290431154426
42
0.45763972142719622
10
11.354558317834194
20
-17.531923604800937
42
-1.1577522630181132
10
11.354558317834192
20
-14.168076395199066
42
0.45763972142719828
10
12.5
20
-13.178709568845573
10
12.5
20
-12.171290431154427
42
0.45763972142719761
10
11.354558317834195
20
-11.181923604800939
42
-1.1577522630181116
10
11.354558317834194
20
-7.8180763951990651
42
0.457639721427198
10
12.5
20
-6.8287095688455723
10
12.5
20
0
0
CIRCLE
5
101
100
AcDbEntity
8
0
100
AcDbCircle
10
0.12865372907616024
20
-38.150000000000006
30
0
40
1.6500000000000028
210
0
220
-0
230
1
0
CIRCLE
5
102
100
AcDbEntity
8
0
100
AcDbCircle
10
0.12865372907616024
20
-31.800000000000001
30
0
40
1.6500000000000028
210
0
220
-0
230
1
0
CIRCLE
5
103
100
AcDbEntity
8
0
100
AcDbCircle
10
0.12865372907616024
20
-25.449999999999999
30
0
40
1.6499999999999992
210
0
220
-0
230
1
0
CIRCLE
5
104
100
AcDbEntity
8
0
100
AcDbCircle
10
0.12865372907616024
20
-19.099999999999998
30
0
40
1.6499999999999992
210
0
220
-0
230
1
0
CIRCLE
5
105
100
AcDbEntity
8
0
100
AcDbCircle
10
0.12865372907616024
20
-12.75
30
0
40
1.6500000000000006
210
0
220
-0
230
1
0
CIRCLE
5
106
100
AcDbEntity
8
0
100
AcDbCircle
10
0.12865372907616024
20
-6.4000000000000004
30
0
40
1.6499999999999999
210
0
220
-0
230
1
0
CIRCLE
5
107
100
AcDbEntity
8
0
100
AcDbCircle
10
0.12865372907615802
20
-44.5
30
0
40
1.6500000000000028
210
0
220
-0
230
1
0
ENDSEC
0
SECTION
2
OBJECTS
0
DICTIONARY
5
C
100
AcDbDictionary
3
ACAD_GROUP
350
D
3
ACAD_MLINESTYLE
350
17
0
DICTIONARY
5
D
100
AcDbDictionary
0
DICTIONARY
5
1A
330
C
100
AcDbDictionary
0
DICTIONARY
5
17
100
AcDbDictionary
0
ENDSEC
0
EOF
