0
SECTION
2
HEADER
9
$INSUNITS
70
4
9
$ACADVER
1
AC1014
9
$HANDSEED
5
FFFF
0
ENDSEC
0
SECTION
2
TABLES
0
TABLE
2
VPORT
5
8
100
AcDbSymbolTable
0
ENDTAB
0
TABLE
2
LTYPE
5
5
100
AcDbSymbolTable
0
LTYPE
5
14
100
AcDbSymbolTableRecord
100
AcDbLinetypeTableRecord
2
BYBLOCK
70
0
0
LTYPE
5
15
100
AcDbSymbolTableRecord
100
AcDbLinetypeTableRecord
2
BYLAYER
70
0
0
ENDTAB
0
TABLE
2
LAYER
5
2
100
AcDbSymbolTable
70
2
0
LAYER
5
50
100
AcDbSymbolTableRecord
100
AcDbLayerTableRecord
2
0
70
0
6
CONTINUOUS
0
ENDTAB
0
TABLE
2
STYLE
5
3
100
AcDbSymbolTable
70
1
0
STYLE
5
11
100
AcDbSymbolTableRecord
100
AcDbTextStyleTableRecord
2
STANDARD
70
0
0
ENDTAB
0
TABLE
2
VIEW
5
6
100
AcDbSymbolTable
70
0
0
ENDTAB
0
TABLE
2
UCS
5
7
100
AcDbSymbolTable
70
0
0
ENDTAB
0
TABLE
2
APPID
5
9
100
AcDbSymbolTable
70
2
0
APPID
5
12
100
AcDbSymbolTableRecord
100
AcDbRegAppTableRecord
2
ACAD
70
0
0
ENDTAB
0
TABLE
2
DIMSTYLE
5
A
100
AcDbSymbolTable
70
1
0
ENDTAB
0
TABLE
2
BLOCK_RECORD
5
1
100
AcDbSymbolTable
70
1
0
BLOCK_RECORD
5
1F
100
AcDbSymbolTableRecord
100
AcDbBlockTableRecord
2
*MODEL_SPACE
0
BLOCK_RECORD
5
1B
100
AcDbSymbolTableRecord
100
AcDbBlockTableRecord
2
*PAPER_SPACE
0
ENDTAB
0
ENDSEC
0
SECTION
2
BLOCKS
0
BLOCK
5
20
100
AcDbEntity
100
AcDbBlockBegin
2
*MODEL_SPACE
0
ENDBLK
5
21
100
AcDbEntity
100
AcDbBlockEnd
0
BLOCK
5
1C
100
AcDbEntity
100
AcDbBlockBegin
2
*PAPER_SPACE
0
ENDBLK
5
1D
100
AcDbEntity
100
AcDbBlockEnd
0
ENDSEC
0
SECTION
2
ENTITIES
0
CIRCLE
5
100
100
AcDbEntity
8
0
100
AcDbCircle
10
50.00000074505806
20
30.000000447034893
30
0
40
2.0000000000000018
210
-0
220
0
230
1
0
CIRCLE
5
101
100
AcDbEntity
8
0
100
AcDbCircle
10
50.000000745058166
20
-30.000000447034591
30
0
40
2.0000000000000018
210
-0
220
0
230
1
0
CIRCLE
5
102
100
AcDbEntity
8
0
100
AcDbCircle
10
-50.00000074505806
20
30.000000447034893
30
0
40
2.0000000000000018
210
-0
220
0
230
1
0
CIRCLE
5
103
100
AcDbEntity
8
0
100
AcDbCircle
10
-50.000000745057953
20
-30.000000447034964
30
0
40
2.0000000000000018
210
-0
220
0
230
1
0
CIRCLE
5
104
100
AcDbEntity
8
0
100
AcDbCircle
10
87.063636449365077
20
-35.303420066509823
30
0
40
2.0999999999999908
210
0
220
-0
230
1
0
CIRCLE
5
105
100
AcDbEntity
8
0
100
AcDbCircle
10
-35.303420066509787
20
-87.063636449365092
30
0
40
2.0999999999999952
210
0
220
-0
230
1
0
CIRCLE
5
106
100
AcDbEntity
8
0
100
AcDbCircle
10
87.063636449365134
20
35.303420066509801
30
0
40
2.1000000000000085
210
0
220
-0
230
1
0
CIRCLE
5
107
100
AcDbEntity
8
0
100
AcDbCircle
10
35.303420066509773
20
-87.063636449365134
30
0
40
2.1000000000000085
210
0
220
-0
230
1
0
CIRCLE
5
108
100
AcDbEntity
8
0
100
AcDbCircle
10
-87.063636449365106
20
-35.303420066509766
30
0
40
2.0999999999999908
210
0
220
-0
230
1
0
CIRCLE
5
109
100
AcDbEntity
8
0
100
AcDbCircle
10
-87.063636449365092
20
35.303420066509823
30
0
40
2.1000000000000085
210
0
220
-0
230
1
0
ELLIPSE
5
110
100
AcDbEntity
8
0
100
AcDbEllipse
10
14.690718041448809
20
66.599302247558029
30
0
11
-1.10983512670269
21
1.2877371971502336
31
0.0
40
0.99999981014062211
41
0
42
6.2831853071795862
0
ELLIPSE
5
111
100
AcDbEntity
8
0
100
AcDbEllipse
10
-18.394262173818809
20
42.86658305444567
30
0
11
-1.1098351267026914
21
1.2877371971502327
31
0.0
40
0.99999981014062211
41
0
42
6.2831853071795862
0
ELLIPSE
5
112
100
AcDbEntity
8
0
100
AcDbEllipse
10
27.083835231409562
20
66.598503635208303
30
0
11
-1.10983512670269
21
1.2877371971502336
31
0.0
40
0.99999981014062211
41
0
42
6.2831853071795862
0
ELLIPSE
5
113
100
AcDbEntity
8
0
100
AcDbEllipse
10
0.097828707896842074
20
66.600242613200635
30
0
11
-1.10983512670269
21
1.2877371971502336
31
0.0
40
0.99999981014062211
41
0
42
6.2831853071795862
0
ELLIPSE
5
114
100
AcDbEntity
8
0
100
AcDbEllipse
10
-26.888177815616213
20
66.601981591198523
30
0
11
-1.10983512670269
21
1.2877371971502336
31
0.0
40
0.99999981014062211
41
0
42
6.2831853071795862
0
ELLIPSE
5
115
100
AcDbEntity
8
0
100
AcDbEllipse
10
18.586869556262688
20
42.864199990680483
30
0
11
-1.1098351267026914
21
1.2877371971502327
31
0.0
40
0.99999981014062211
41
0
42
6.2831853071795862
0
LWPOLYLINE
5
116
100
AcDbEntity
8
0
100
AcDbPolyline
90
14
70
1
43
0.0
10
35.096525412244361
20
75
10
-35.096525412244375
20
75
10
-76.685730210430521
20
33.410795201813826
10
-88.956261314061052
20
45.681326305444365
42
0.2417560867671813
10
-88.956261314061095
20
-45.681326305444301
10
-76.685730210430577
20
-33.410795201813812
10
-33.410795201813841
20
-76.685730210430535
10
-45.681326305444365
20
-88.956261314061052
42
0.24175608676718108
10
45.681326305444223
20
-88.956261314061123
10
33.410795201813812
20
-76.685730210430592
10
76.685730210430521
20
-33.410795201813848
10
88.956261314061067
20
-45.681326305444387
42
0.24175608676718136
10
88.956261314061109
20
45.681326305444315
10
76.685730210430577
20
33.410795201813819
0
ENDSEC
0
SECTION
2
OBJECTS
0
DICTIONARY
5
C
100
AcDbDictionary
3
ACAD_GROUP
350
D
3
ACAD_MLINESTYLE
350
17
0
DICTIONARY
5
D
100
AcDbDictionary
0
DICTIONARY
5
1A
330
C
100
AcDbDictionary
0
DICTIONARY
5
17
100
AcDbDictionary
0
ENDSEC
0
EOF
