0
SECTION
2
HEADER
9
$INSUNITS
70
4
9
$ACADVER
1
AC1014
9
$HANDSEED
5
FFFF
0
ENDSEC
0
SECTION
2
TABLES
0
TABLE
2
VPORT
5
8
100
AcDbSymbolTable
0
ENDTAB
0
TABLE
2
LTYPE
5
5
100
AcDbSymbolTable
0
LTYPE
5
14
100
AcDbSymbolTableRecord
100
AcDbLinetypeTableRecord
2
BYBLOCK
70
0
0
LTYPE
5
15
100
AcDbSymbolTableRecord
100
AcDbLinetypeTableRecord
2
BYLAYER
70
0
0
ENDTAB
0
TABLE
2
LAYER
5
2
100
AcDbSymbolTable
70
2
0
LAYER
5
50
100
AcDbSymbolTableRecord
100
AcDbLayerTableRecord
2
0
70
0
6
CONTINUOUS
0
ENDTAB
0
TABLE
2
STYLE
5
3
100
AcDbSymbolTable
70
1
0
STYLE
5
11
100
AcDbSymbolTableRecord
100
AcDbTextStyleTableRecord
2
STANDARD
70
0
0
ENDTAB
0
TABLE
2
VIEW
5
6
100
AcDbSymbolTable
70
0
0
ENDTAB
0
TABLE
2
UCS
5
7
100
AcDbSymbolTable
70
0
0
ENDTAB
0
TABLE
2
APPID
5
9
100
AcDbSymbolTable
70
2
0
APPID
5
12
100
AcDbSymbolTableRecord
100
AcDbRegAppTableRecord
2
ACAD
70
0
0
ENDTAB
0
TABLE
2
DIMSTYLE
5
A
100
AcDbSymbolTable
70
1
0
ENDTAB
0
TABLE
2
BLOCK_RECORD
5
1
100
AcDbSymbolTable
70
1
0
BLOCK_RECORD
5
1F
100
AcDbSymbolTableRecord
100
AcDbBlockTableRecord
2
*MODEL_SPACE
0
BLOCK_RECORD
5
1B
100
AcDbSymbolTableRecord
100
AcDbBlockTableRecord
2
*PAPER_SPACE
0
ENDTAB
0
ENDSEC
0
SECTION
2
BLOCKS
0
BLOCK
5
20
100
AcDbEntity
100
AcDbBlockBegin
2
*MODEL_SPACE
0
ENDBLK
5
21
100
AcDbEntity
100
AcDbBlockEnd
0
BLOCK
5
1C
100
AcDbEntity
100
AcDbBlockBegin
2
*PAPER_SPACE
0
ENDBLK
5
1D
100
AcDbEntity
100
AcDbBlockEnd
0
ENDSEC
0
SECTION
2
ENTITIES
0
LWPOLYLINE
5
100
100
AcDbEntity
8
0
100
AcDbPolyline
90
18
70
1
43
0.0
10
31.334041630006304
20
69.798230163534498
10
31.332021380159702
20
38.363378049759298
10
22.832020709901339
20
38.363925925666081
10
13.689193350991802
20
38.364515234730007
10
13.689771761557401
20
47.364516196496908
10
22.832599120466298
20
47.363926889915206
10
22.833610365216401
20
63.098777320343601
10
-3.6383992507749596
20
63.100483590068777
10
-20.638400591291788
20
63.101579335651934
10
-22.638400748999601
20
63.101708246896997
10
-22.639411993749704
20
47.366857816468702
10
-13.496584634840803
20
47.366268509884897
10
-13.497163045404601
20
38.366267548118003
10
-22.639990404316759
20
38.366856852251402
10
-31.139991074573118
20
38.367404722537572
10
-31.137970824726505
20
69.802256835671201
10
-20.637969996760294
20
69.801580051634389
10
-3.637968656243451
20
69.800484306051217
0
LWPOLYLINE
5
101
100
AcDbEntity
8
0
100
AcDbPolyline
90
10
70
1
43
0.0
10
-76.685730210430506
20
33.410795201813798
10
-76.685730210430606
20
-33.410795201813798
10
-33.410795201813798
20
-76.685730210430506
10
-45.681326305444401
20
-88.956261314061095
42
0.24175608676718124
10
45.681326305444294
20
-88.956261314061109
10
33.410795201813798
20
-76.685730210430606
10
76.685730210430506
20
-33.410795201813798
10
76.685730210430606
20
33.410795201813798
10
35.096525412244404
20
75
10
-35.096525412244397
20
75
0
CIRCLE
5
102
100
AcDbEntity
8
0
100
AcDbCircle
10
50.000000000000107
20
30
30
0
40
5
210
0
220
0
230
1
0
CIRCLE
5
103
100
AcDbEntity
8
0
100
AcDbCircle
10
50.000000000000107
20
-30.000000000000103
30
0
40
5
210
0
220
0
230
1
0
CIRCLE
5
104
100
AcDbEntity
8
0
100
AcDbCircle
10
-50.000000000000107
20
30
30
0
40
5
210
0
220
0
230
1
0
CIRCLE
5
105
100
AcDbEntity
8
0
100
AcDbCircle
10
-50.000000000000107
20
-30.000000000000103
30
0
40
5
210
0
220
0
230
1
0
CIRCLE
5
106
100
AcDbEntity
8
0
100
AcDbCircle
10
35.303420066509801
20
-87.063636449365106
30
9.7699626167013776e-14
40
4.5
210
0
220
0
230
1
0
CIRCLE
5
107
100
AcDbEntity
8
0
100
AcDbCircle
10
-35.303420066509801
20
-87.063636449365106
30
-1.021405182655144e-13
40
4.5
210
0
220
0
230
1
0
ENDSEC
0
SECTION
2
OBJECTS
0
DICTIONARY
5
C
100
AcDbDictionary
3
ACAD_GROUP
350
D
3
ACAD_MLINESTYLE
350
17
0
DICTIONARY
5
D
100
AcDbDictionary
0
DICTIONARY
5
1A
330
C
100
AcDbDictionary
0
DICTIONARY
5
17
100
AcDbDictionary
0
ENDSEC
0
EOF
