%TF.GenerationSoftware,KiCad,Pcbnew,7.0.8*%
%TF.CreationDate,2023-10-26T13:24:24+11:00*%
%TF.ProjectId,Main 4.2,4d61696e-2034-42e3-922e-6b696361645f,rev?*%
%TF.SameCoordinates,Original*%
%TF.FileFunction,Soldermask,Bot*%
%TF.FilePolarity,Negative*%
%FSLAX46Y46*%
G04 Gerber Fmt 4.6, Leading zero omitted, Abs format (unit mm)*
G04 Created by KiCad (PCBNEW 7.0.8) date 2023-10-26 13:24:24*
%MOMM*%
%LPD*%
G01*
G04 APERTURE LIST*
G04 Aperture macros list*
%AMRoundRect*
0 Rectangle with rounded corners*
0 $1 Rounding radius*
0 $2 $3 $4 $5 $6 $7 $8 $9 X,Y pos of 4 corners*
0 Add a 4 corners polygon primitive as box body*
4,1,4,$2,$3,$4,$5,$6,$7,$8,$9,$2,$3,0*
0 Add four circle primitives for the rounded corners*
1,1,$1+$1,$2,$3*
1,1,$1+$1,$4,$5*
1,1,$1+$1,$6,$7*
1,1,$1+$1,$8,$9*
0 Add four rect primitives between the rounded corners*
20,1,$1+$1,$2,$3,$4,$5,0*
20,1,$1+$1,$4,$5,$6,$7,0*
20,1,$1+$1,$6,$7,$8,$9,0*
20,1,$1+$1,$8,$9,$2,$3,0*%
%AMHorizOval*
0 Thick line with rounded ends*
0 $1 width*
0 $2 $3 position (X,Y) of the first rounded end (center of the circle)*
0 $4 $5 position (X,Y) of the second rounded end (center of the circle)*
0 Add line between two ends*
20,1,$1,$2,$3,$4,$5,0*
0 Add two circle primitives to create the rounded ends*
1,1,$1,$2,$3*
1,1,$1,$4,$5*%
%AMRotRect*
0 Rectangle, with rotation*
0 The origin of the aperture is its center*
0 $1 length*
0 $2 width*
0 $3 Rotation angle, in degrees counterclockwise*
0 Add horizontal line*
21,1,$1,$2,0,0,$3*%
G04 Aperture macros list end*
%ADD10C,1.524000*%
%ADD11C,3.200000*%
%ADD12C,2.000000*%
%ADD13RoundRect,0.249999X1.025001X1.025001X-1.025001X1.025001X-1.025001X-1.025001X1.025001X-1.025001X0*%
%ADD14C,2.550000*%
%ADD15R,1.700000X1.700000*%
%ADD16O,1.700000X1.700000*%
%ADD17RoundRect,0.250000X0.088388X-0.936916X0.936916X-0.088388X-0.088388X0.936916X-0.936916X0.088388X0*%
%ADD18HorizOval,1.700000X-0.088388X0.088388X0.088388X-0.088388X0*%
%ADD19C,1.308000*%
%ADD20C,1.258000*%
%ADD21C,1.208000*%
%ADD22R,1.800000X1.800000*%
%ADD23C,1.800000*%
%ADD24RotRect,3.800000X3.800000X45.000000*%
%ADD25C,4.000000*%
%ADD26R,3.800000X3.800000*%
%ADD27C,3.800000*%
%ADD28C,1.879600*%
%ADD29C,2.032000*%
%ADD30RoundRect,0.140000X0.140000X0.170000X-0.140000X0.170000X-0.140000X-0.170000X0.140000X-0.170000X0*%
%ADD31RoundRect,0.140000X-0.170000X0.140000X-0.170000X-0.140000X0.170000X-0.140000X0.170000X0.140000X0*%
%ADD32R,0.354800X1.461999*%
%ADD33R,5.283200X2.413000*%
%ADD34RoundRect,0.250000X-0.550000X1.500000X-0.550000X-1.500000X0.550000X-1.500000X0.550000X1.500000X0*%
%ADD35RoundRect,0.250000X0.262500X0.450000X-0.262500X0.450000X-0.262500X-0.450000X0.262500X-0.450000X0*%
%ADD36RoundRect,0.140000X-0.140000X-0.170000X0.140000X-0.170000X0.140000X0.170000X-0.140000X0.170000X0*%
%ADD37RoundRect,0.140000X0.170000X-0.140000X0.170000X0.140000X-0.170000X0.140000X-0.170000X-0.140000X0*%
%ADD38R,1.461999X0.354800*%
%ADD39R,2.413000X5.283200*%
%ADD40RoundRect,0.250000X0.450000X-0.262500X0.450000X0.262500X-0.450000X0.262500X-0.450000X-0.262500X0*%
%ADD41RoundRect,0.250000X0.250000X0.475000X-0.250000X0.475000X-0.250000X-0.475000X0.250000X-0.475000X0*%
%ADD42RoundRect,0.250000X-0.450000X0.262500X-0.450000X-0.262500X0.450000X-0.262500X0.450000X0.262500X0*%
%ADD43RoundRect,0.250000X-0.262500X-0.450000X0.262500X-0.450000X0.262500X0.450000X-0.262500X0.450000X0*%
%ADD44RoundRect,0.135000X0.135000X0.185000X-0.135000X0.185000X-0.135000X-0.185000X0.135000X-0.185000X0*%
%ADD45RoundRect,0.250000X0.600000X0.725000X-0.600000X0.725000X-0.600000X-0.725000X0.600000X-0.725000X0*%
%ADD46O,1.700000X1.950000*%
%ADD47RoundRect,0.135000X-0.135000X-0.185000X0.135000X-0.185000X0.135000X0.185000X-0.135000X0.185000X0*%
%ADD48RoundRect,0.135000X0.185000X-0.135000X0.185000X0.135000X-0.185000X0.135000X-0.185000X-0.135000X0*%
%ADD49RoundRect,0.135000X-0.185000X0.135000X-0.185000X-0.135000X0.185000X-0.135000X0.185000X0.135000X0*%
%ADD50RoundRect,0.250000X0.550000X-1.500000X0.550000X1.500000X-0.550000X1.500000X-0.550000X-1.500000X0*%
%ADD51RoundRect,0.250000X1.500000X0.550000X-1.500000X0.550000X-1.500000X-0.550000X1.500000X-0.550000X0*%
%ADD52RoundRect,0.250000X0.725000X-0.600000X0.725000X0.600000X-0.725000X0.600000X-0.725000X-0.600000X0*%
%ADD53O,1.950000X1.700000*%
%ADD54RoundRect,0.250000X-1.500000X-0.550000X1.500000X-0.550000X1.500000X0.550000X-1.500000X0.550000X0*%
G04 APERTURE END LIST*
D10*
%TO.C,U8*%
X158640000Y-143600000D03*
X161180000Y-143600000D03*
X158640000Y-141060000D03*
X161180000Y-141060000D03*
X158640000Y-138520000D03*
X161180000Y-138520000D03*
X158640000Y-135980000D03*
X161180000Y-135980000D03*
X158640000Y-133440000D03*
X161180000Y-133440000D03*
X161180000Y-130900000D03*
X158640000Y-130900000D03*
%TD*%
D11*
%TO.C,H3*%
X105500000Y-105500000D03*
%TD*%
D12*
%TO.C,SW2*%
X108000000Y-156750000D03*
X101500000Y-156750000D03*
X108000000Y-152250000D03*
X101500000Y-152250000D03*
%TD*%
%TO.C,SW3*%
X101500000Y-181500000D03*
X108000000Y-181500000D03*
X101500000Y-186000000D03*
X108000000Y-186000000D03*
%TD*%
%TO.C,SW1*%
X108000000Y-164250000D03*
X101500000Y-164250000D03*
X108000000Y-159750000D03*
X101500000Y-159750000D03*
%TD*%
D11*
%TO.C,H1*%
X154000000Y-187000000D03*
%TD*%
%TO.C,H2*%
X194500000Y-105500000D03*
%TD*%
D13*
%TO.C,J14*%
X196900000Y-147250000D03*
D14*
X192100000Y-147250000D03*
%TD*%
D15*
%TO.C,U10*%
X160000000Y-185850000D03*
D16*
X160000000Y-183310000D03*
X160000000Y-180770000D03*
X160000000Y-178230000D03*
X160000000Y-175690000D03*
X160000000Y-173150000D03*
%TD*%
D17*
%TO.C,J13*%
X182593235Y-182414303D03*
D18*
X184361002Y-180646536D03*
X186128769Y-178878769D03*
X187896536Y-177111002D03*
X189664303Y-175343235D03*
%TD*%
D15*
%TO.C,J12*%
X126090000Y-194750000D03*
D16*
X128630000Y-194750000D03*
X131170000Y-194750000D03*
X133710000Y-194750000D03*
X136250000Y-194750000D03*
X138790000Y-194750000D03*
X141330000Y-194750000D03*
X143870000Y-194750000D03*
X146410000Y-194750000D03*
%TD*%
D12*
%TO.C,U7*%
X158190000Y-122580000D03*
X160730000Y-122580000D03*
X163270000Y-122580000D03*
X165810000Y-122580000D03*
%TD*%
D19*
%TO.C,U12*%
X194670000Y-154380000D03*
X192130000Y-154380000D03*
X189590000Y-154380000D03*
X187050000Y-154380000D03*
X161650000Y-154380000D03*
X192130000Y-169620000D03*
X151490000Y-159460000D03*
X184510000Y-154380000D03*
X181970000Y-154380000D03*
D20*
X190860000Y-157430000D03*
D19*
X179430000Y-154380000D03*
X176890000Y-154380000D03*
X174350000Y-154380000D03*
X171810000Y-154380000D03*
X169270000Y-154380000D03*
X166730000Y-154380000D03*
X164190000Y-154380000D03*
X164190000Y-169620000D03*
X166730000Y-169620000D03*
X169270000Y-169620000D03*
X171810000Y-169620000D03*
X174350000Y-169620000D03*
X176890000Y-169620000D03*
X179430000Y-169620000D03*
X181970000Y-169620000D03*
X184510000Y-169620000D03*
X187050000Y-169620000D03*
X189590000Y-169620000D03*
X159110000Y-154380000D03*
X156570000Y-154380000D03*
X154030000Y-154380000D03*
X151490000Y-154380000D03*
X148950000Y-154380000D03*
X146410000Y-154380000D03*
X143870000Y-154380000D03*
X141330000Y-154380000D03*
X138790000Y-154380000D03*
X138790000Y-169620000D03*
X141330000Y-169620000D03*
X143870000Y-169620000D03*
X146410000Y-169620000D03*
X148950000Y-169620000D03*
X151490000Y-169620000D03*
X154030000Y-169620000D03*
X156570000Y-169620000D03*
X159110000Y-169620000D03*
D20*
X185780000Y-157430000D03*
X188320000Y-157430000D03*
D19*
X197210000Y-154380000D03*
X161650000Y-169620000D03*
X194670000Y-169620000D03*
X151490000Y-162000000D03*
D21*
X182240000Y-165170000D03*
X184240000Y-165170000D03*
D19*
X151490000Y-167080000D03*
X151490000Y-164540000D03*
D21*
X184240000Y-167170000D03*
X182240000Y-167170000D03*
X182240000Y-163170000D03*
X184240000Y-163170000D03*
D20*
X183240000Y-157430000D03*
X180700000Y-157430000D03*
D19*
X151490000Y-156920000D03*
X197210000Y-169620000D03*
X194670000Y-167080000D03*
%TD*%
D15*
%TO.C,J16*%
X196775000Y-151025000D03*
D16*
X194235000Y-151025000D03*
X191695000Y-151025000D03*
%TD*%
D22*
%TO.C,Q1*%
X102225000Y-113000000D03*
D23*
X104765000Y-113000000D03*
%TD*%
D11*
%TO.C,H4*%
X105500000Y-194500000D03*
%TD*%
D24*
%TO.C,J10*%
X170272614Y-195727387D03*
D25*
X173808148Y-192191853D03*
%TD*%
D26*
%TO.C,J11*%
X154500000Y-196500000D03*
D27*
X159500000Y-196500000D03*
%TD*%
D15*
%TO.C,J2*%
X109500000Y-122225000D03*
D16*
X109500000Y-124765000D03*
%TD*%
D28*
%TO.C,U9*%
X131620000Y-149080000D03*
X131620000Y-146540000D03*
X131620000Y-144000000D03*
X131620000Y-141460000D03*
X131620000Y-138920000D03*
X131620000Y-136380000D03*
D29*
X116380000Y-146540000D03*
X116380000Y-144000000D03*
X116380000Y-141460000D03*
X116380000Y-138920000D03*
%TD*%
D22*
%TO.C,D1*%
X111725000Y-103500000D03*
D23*
X114265000Y-103500000D03*
%TD*%
D12*
%TO.C,U6*%
X154435000Y-122240000D03*
X154435000Y-119700000D03*
X154435000Y-108800000D03*
X154435000Y-106260000D03*
X131095000Y-122250000D03*
X131095000Y-119710000D03*
X131095000Y-108810000D03*
X131095000Y-106270000D03*
%TD*%
D30*
%TO.C,C3*%
X168855002Y-180124998D03*
X167895002Y-180124998D03*
%TD*%
D15*
%TO.C,J5*%
X177350000Y-174250000D03*
D16*
X174810000Y-174250000D03*
X172270000Y-174250000D03*
X169730000Y-174250000D03*
X167190000Y-174250000D03*
X164650000Y-174250000D03*
%TD*%
D31*
%TO.C,C16*%
X108600000Y-175600000D03*
X108600000Y-176560000D03*
%TD*%
D32*
%TO.C,U1*%
X170500001Y-187745998D03*
X169850002Y-187745998D03*
X169200004Y-187745998D03*
X168550003Y-187745998D03*
X167900004Y-187745998D03*
X167250003Y-187745998D03*
X166600004Y-187745998D03*
X165950003Y-187745998D03*
X165300004Y-187745998D03*
X164650003Y-187745998D03*
X164000004Y-187745998D03*
X163350003Y-187745998D03*
X163350003Y-181903998D03*
X164000002Y-181903998D03*
X164650003Y-181903998D03*
X165300001Y-181903998D03*
X165950003Y-181903998D03*
X166600001Y-181903998D03*
X167250000Y-181903998D03*
X167900001Y-181903998D03*
X168550000Y-181903998D03*
X169200001Y-181903998D03*
X169850000Y-181903998D03*
X170500001Y-181903998D03*
D33*
X166925002Y-184824998D03*
%TD*%
D34*
%TO.C,C4*%
X174895002Y-179800000D03*
X174895002Y-185200000D03*
%TD*%
D35*
%TO.C,R5*%
X163287502Y-189750000D03*
X161462502Y-189750000D03*
%TD*%
D31*
%TO.C,C8*%
X182300000Y-126070000D03*
X182300000Y-127030000D03*
%TD*%
D36*
%TO.C,C15*%
X126670000Y-117400000D03*
X127630000Y-117400000D03*
%TD*%
D37*
%TO.C,C18*%
X117700000Y-173930000D03*
X117700000Y-172970000D03*
%TD*%
D38*
%TO.C,U2*%
X189921000Y-124425001D03*
X189921000Y-125075000D03*
X189921000Y-125724998D03*
X189921000Y-126374999D03*
X189921000Y-127024998D03*
X189921000Y-127674999D03*
X189921000Y-128324998D03*
X189921000Y-128974999D03*
X189921000Y-129624998D03*
X189921000Y-130274999D03*
X189921000Y-130924998D03*
X189921000Y-131574999D03*
X184079000Y-131574999D03*
X184079000Y-130925000D03*
X184079000Y-130274999D03*
X184079000Y-129625001D03*
X184079000Y-128974999D03*
X184079000Y-128325001D03*
X184079000Y-127675002D03*
X184079000Y-127025001D03*
X184079000Y-126375002D03*
X184079000Y-125725001D03*
X184079000Y-125075002D03*
X184079000Y-124425001D03*
D39*
X187000000Y-128000000D03*
%TD*%
D40*
%TO.C,R7*%
X195250000Y-130262500D03*
X195250000Y-128437500D03*
%TD*%
D41*
%TO.C,C26*%
X165450000Y-125250000D03*
X163550000Y-125250000D03*
%TD*%
D36*
%TO.C,C12*%
X119220000Y-117700000D03*
X120180000Y-117700000D03*
%TD*%
D42*
%TO.C,R17*%
X104750000Y-169737500D03*
X104750000Y-171562500D03*
%TD*%
D30*
%TO.C,C2*%
X170705002Y-180124998D03*
X169745002Y-180124998D03*
%TD*%
D42*
%TO.C,R8*%
X194000000Y-124537500D03*
X194000000Y-126362500D03*
%TD*%
D15*
%TO.C,J7*%
X122650000Y-125750000D03*
D16*
X125190000Y-125750000D03*
X127730000Y-125750000D03*
X130270000Y-125750000D03*
X132810000Y-125750000D03*
X135350000Y-125750000D03*
%TD*%
D40*
%TO.C,R19*%
X107950000Y-173412500D03*
X107950000Y-171587500D03*
%TD*%
D43*
%TO.C,R13*%
X119537500Y-106000000D03*
X121362500Y-106000000D03*
%TD*%
D44*
%TO.C,R6*%
X170585002Y-190224998D03*
X169565002Y-190224998D03*
%TD*%
D15*
%TO.C,J6*%
X174250000Y-122920000D03*
D16*
X174250000Y-125460000D03*
X174250000Y-128000000D03*
X174250000Y-130540000D03*
X174250000Y-133080000D03*
X174250000Y-135620000D03*
%TD*%
D45*
%TO.C,J15*%
X120250000Y-195975000D03*
D46*
X117750000Y-195975000D03*
X115250000Y-195975000D03*
X112750000Y-195975000D03*
%TD*%
D35*
%TO.C,R12*%
X125262500Y-104750000D03*
X123437500Y-104750000D03*
%TD*%
D41*
%TO.C,C27*%
X165450000Y-127250000D03*
X163550000Y-127250000D03*
%TD*%
D30*
%TO.C,C11*%
X119400000Y-108600000D03*
X118440000Y-108600000D03*
%TD*%
D47*
%TO.C,R16*%
X119340000Y-107600000D03*
X120360000Y-107600000D03*
%TD*%
D42*
%TO.C,R10*%
X192000000Y-131637500D03*
X192000000Y-133462500D03*
%TD*%
D35*
%TO.C,R4*%
X168337502Y-189874998D03*
X166512502Y-189874998D03*
%TD*%
D48*
%TO.C,R21*%
X107600000Y-175660000D03*
X107600000Y-174640000D03*
%TD*%
D31*
%TO.C,C10*%
X182600000Y-131670000D03*
X182600000Y-132630000D03*
%TD*%
D36*
%TO.C,C1*%
X170525002Y-189224998D03*
X171485002Y-189224998D03*
%TD*%
D43*
%TO.C,R14*%
X121587500Y-107950000D03*
X123412500Y-107950000D03*
%TD*%
D49*
%TO.C,R11*%
X192400000Y-124340000D03*
X192400000Y-125360000D03*
%TD*%
D50*
%TO.C,C14*%
X115100000Y-121950000D03*
X115100000Y-116550000D03*
%TD*%
D30*
%TO.C,C5*%
X163255002Y-180424998D03*
X162295002Y-180424998D03*
%TD*%
D51*
%TO.C,C19*%
X121950000Y-179900000D03*
X116550000Y-179900000D03*
%TD*%
D40*
%TO.C,R18*%
X106000000Y-175462500D03*
X106000000Y-173637500D03*
%TD*%
D32*
%TO.C,U3*%
X119425001Y-110079000D03*
X120075000Y-110079000D03*
X120724998Y-110079000D03*
X121374999Y-110079000D03*
X122024998Y-110079000D03*
X122674999Y-110079000D03*
X123324998Y-110079000D03*
X123974999Y-110079000D03*
X124624998Y-110079000D03*
X125274999Y-110079000D03*
X125924998Y-110079000D03*
X126574999Y-110079000D03*
X126574999Y-115921000D03*
X125925000Y-115921000D03*
X125274999Y-115921000D03*
X124625001Y-115921000D03*
X123974999Y-115921000D03*
X123325001Y-115921000D03*
X122675002Y-115921000D03*
X122025001Y-115921000D03*
X121375002Y-115921000D03*
X120725001Y-115921000D03*
X120075002Y-115921000D03*
X119425001Y-115921000D03*
D33*
X123000000Y-113000000D03*
%TD*%
D15*
%TO.C,J8*%
X125750000Y-177100000D03*
D16*
X125750000Y-174560000D03*
X125750000Y-172020000D03*
X125750000Y-169480000D03*
X125750000Y-166940000D03*
X125750000Y-164400000D03*
%TD*%
D31*
%TO.C,C7*%
X182300000Y-124220000D03*
X182300000Y-125180000D03*
%TD*%
D40*
%TO.C,R20*%
X108000000Y-168362500D03*
X108000000Y-166537500D03*
%TD*%
D35*
%TO.C,R2*%
X159912500Y-189750000D03*
X158087500Y-189750000D03*
%TD*%
D38*
%TO.C,U4*%
X110079000Y-175574999D03*
X110079000Y-174925000D03*
X110079000Y-174275002D03*
X110079000Y-173625001D03*
X110079000Y-172975002D03*
X110079000Y-172325001D03*
X110079000Y-171675002D03*
X110079000Y-171025001D03*
X110079000Y-170375002D03*
X110079000Y-169725001D03*
X110079000Y-169075002D03*
X110079000Y-168425001D03*
X115921000Y-168425001D03*
X115921000Y-169075000D03*
X115921000Y-169725001D03*
X115921000Y-170374999D03*
X115921000Y-171025001D03*
X115921000Y-171674999D03*
X115921000Y-172324998D03*
X115921000Y-172974999D03*
X115921000Y-173624998D03*
X115921000Y-174274999D03*
X115921000Y-174924998D03*
X115921000Y-175574999D03*
D39*
X113000000Y-172000000D03*
%TD*%
D52*
%TO.C,J1*%
X104275000Y-125750000D03*
D53*
X104275000Y-123250000D03*
X104275000Y-120750000D03*
%TD*%
D42*
%TO.C,R9*%
X192050000Y-126587500D03*
X192050000Y-128412500D03*
%TD*%
D43*
%TO.C,R15*%
X126637500Y-108000000D03*
X128462500Y-108000000D03*
%TD*%
D37*
%TO.C,C6*%
X191400000Y-124400000D03*
X191400000Y-123440000D03*
%TD*%
D35*
%TO.C,R3*%
X167662500Y-191824998D03*
X165837500Y-191824998D03*
%TD*%
D54*
%TO.C,C9*%
X178050000Y-120100000D03*
X183450000Y-120100000D03*
%TD*%
D40*
%TO.C,R33*%
X189500000Y-167912500D03*
X189500000Y-166087500D03*
%TD*%
D37*
%TO.C,C20*%
X117400000Y-168330000D03*
X117400000Y-167370000D03*
%TD*%
D36*
%TO.C,C13*%
X121070000Y-117700000D03*
X122030000Y-117700000D03*
%TD*%
D37*
%TO.C,C17*%
X117700000Y-175780000D03*
X117700000Y-174820000D03*
%TD*%
M02*
