0
SECTION
2
HEADER
9
$INSUNITS
70
4
9
$ACADVER
1
AC1014
9
$HANDSEED
5
FFFF
0
ENDSEC
0
SECTION
2
TABLES
0
TABLE
2
VPORT
5
8
100
AcDbSymbolTable
0
ENDTAB
0
TABLE
2
LTYPE
5
5
100
AcDbSymbolTable
0
LTYPE
5
14
100
AcDbSymbolTableRecord
100
AcDbLinetypeTableRecord
2
BYBLOCK
70
0
0
LTYPE
5
15
100
AcDbSymbolTableRecord
100
AcDbLinetypeTableRecord
2
BYLAYER
70
0
0
ENDTAB
0
TABLE
2
LAYER
5
2
100
AcDbSymbolTable
70
2
0
LAYER
5
50
100
AcDbSymbolTableRecord
100
AcDbLayerTableRecord
2
0
70
0
6
CONTINUOUS
0
ENDTAB
0
TABLE
2
STYLE
5
3
100
AcDbSymbolTable
70
1
0
STYLE
5
11
100
AcDbSymbolTableRecord
100
AcDbTextStyleTableRecord
2
STANDARD
70
0
0
ENDTAB
0
TABLE
2
VIEW
5
6
100
AcDbSymbolTable
70
0
0
ENDTAB
0
TABLE
2
UCS
5
7
100
AcDbSymbolTable
70
0
0
ENDTAB
0
TABLE
2
APPID
5
9
100
AcDbSymbolTable
70
2
0
APPID
5
12
100
AcDbSymbolTableRecord
100
AcDbRegAppTableRecord
2
ACAD
70
0
0
ENDTAB
0
TABLE
2
DIMSTYLE
5
A
100
AcDbSymbolTable
70
1
0
ENDTAB
0
TABLE
2
BLOCK_RECORD
5
1
100
AcDbSymbolTable
70
1
0
BLOCK_RECORD
5
1F
100
AcDbSymbolTableRecord
100
AcDbBlockTableRecord
2
*MODEL_SPACE
0
BLOCK_RECORD
5
1B
100
AcDbSymbolTableRecord
100
AcDbBlockTableRecord
2
*PAPER_SPACE
0
ENDTAB
0
ENDSEC
0
SECTION
2
BLOCKS
0
BLOCK
5
20
100
AcDbEntity
100
AcDbBlockBegin
2
*MODEL_SPACE
0
ENDBLK
5
21
100
AcDbEntity
100
AcDbBlockEnd
0
BLOCK
5
1C
100
AcDbEntity
100
AcDbBlockBegin
2
*PAPER_SPACE
0
ENDBLK
5
1D
100
AcDbEntity
100
AcDbBlockEnd
0
ENDSEC
0
SECTION
2
ENTITIES
0
LWPOLYLINE
5
100
100
AcDbEntity
8
0
100
AcDbPolyline
90
4
70
1
43
0.0
10
206.0000000000033
20
59.999999999999915
10
216.00000000000301
20
59.999999999999915
10
216.00000000000307
20
-60
10
206.0000000000031
20
-60
0
LWPOLYLINE
5
101
100
AcDbEntity
8
0
100
AcDbPolyline
90
4
70
1
43
0.0
10
105.00000000000314
20
79
10
116.00000000000313
20
79
10
116.0000000000031
20
25.999999999999986
10
105.00000000000313
20
25.999999999999986
0
LWPOLYLINE
5
102
100
AcDbEntity
8
0
100
AcDbPolyline
90
4
70
1
43
0.0
10
105.00000000000307
20
-26.000000000000007
10
116.0000000000031
20
-26.000000000000011
10
116.00000000000308
20
-79
10
105.00000000000306
20
-79.000000000000014
0
LWPOLYLINE
5
103
100
AcDbEntity
8
0
100
AcDbPolyline
90
4
70
1
43
0.0
10
-115.99999999999997
20
-25.999999999999979
10
-104.99999999999994
20
-25.999999999999979
10
-104.99999999999994
20
-78.999999999999986
10
-115.99999999999997
20
-78.999999999999972
0
LWPOLYLINE
5
104
100
AcDbEntity
8
0
100
AcDbPolyline
90
4
70
1
43
0.0
10
-115.99999999999997
20
79.000000000000028
10
-105
20
79.000000000000028
10
-105
20
26.000000000000014
10
-115.99999999999997
20
26.000000000000014
0
LWPOLYLINE
5
105
100
AcDbEntity
8
0
100
AcDbPolyline
90
4
70
1
43
0.0
10
-215.99999999999989
20
59.999999999999964
10
-206.00000000000017
20
59.999999999999964
10
-205.99999999999997
20
-59.999999999999943
10
-215.99999999999994
20
-59.999999999999943
0
LWPOLYLINE
5
106
100
AcDbEntity
8
0
100
AcDbPolyline
90
84
70
1
43
0.0
10
-114.49999967353754
20
-409.50010000000083
42
0.41421349862728629
10
-113.00000000000038
20
-408.00010000000088
10
-112.9999999999999
20
-362.99999999999886
10
-184.69401899223931
20
-343.78964550882063
42
-0.33945425886335484
10
-200.99999999999989
20
-322.53927733044299
10
-201.00000000000068
20
-283.46072266947692
42
-0.33945425886336794
10
-184.69401899225304
20
-262.21035449111446
10
-112.99999999999989
20
-242.99999999999869
10
-112.99999999999989
20
-199.49999999999878
10
-111.99999978855499
20
-199.49999999999886
42
1.0000002893282567
10
-112.00000107925464
20
-196.4999999999992
10
-113.00000000000003
20
-196.5
10
-113.00000000000003
20
-191.50000000000006
10
-158.00000000000014
20
-191.50000000000006
10
-158.00000000000014
20
-108.00000000000009
10
-114.49999999999997
20
-107.99999999999999
42
0.99999999999999989
10
-114.49999999999997
20
-104.99999999999999
10
-206
20
-104.99999999999999
10
-216
20
-102.00000000000004
10
-304
20
-101.99999999999997
10
-304.00000000000011
20
-78.999000000000009
10
-308.00000000000017
20
-77.498999999999953
10
-307.99999999999949
20
-27.498999999999963
10
-303.99999999999972
20
-25.998999999999999
10
-304.00000000000068
20
26.000999999999852
10
-307.99999999999778
20
27.500999999999898
10
-307.99999999999756
20
77.50099999999982
10
-304.00000000000324
20
79.000999999999692
10
-304.00000000000284
20
101.99999999998587
10
-216
20
102.00000000000001
10
-206
20
105
10
-111.49999999999997
20
104.99999999999994
42
0.99999999999999989
10
-111.5
20
107.99999999999999
10
-155.00000000000009
20
107.99999999999928
10
-155.00000000000006
20
192.99999999999943
10
155.00000000000327
20
192.9999999999994
10
155.00000000000324
20
107.99999999999925
10
111.50000000000315
20
107.99999999999996
42
0.99999999999999989
10
111.50000000000315
20
104.99999999999994
10
206.00000000000318
20
104.99999999999994
10
216.00000000000318
20
101.99999999999996
10
304.00000000000597
20
101.9999999999858
10
304.00000000000642
20
79.000999999999621
10
308.00000000000074
20
77.500999999999735
10
308.00000000000091
20
27.500999999999824
10
304.00000000000381
20
26.000999999999781
10
304.00000000000284
20
-25.99900000000007
10
308.00000000000261
20
-27.499000000000038
10
308.0000000000033
20
-77.499000000000024
10
304.00000000000324
20
-78.99900000000008
10
304.00000000000307
20
-102.00000000000004
10
216.0000000000031
20
-102.0000000000001
10
206.0000000000031
20
-105.00000000000003
10
114.50000000000308
20
-104.99999999999999
42
0.99999999999999989
10
114.50000000000307
20
-108.00000000000003
10
158.00000000000321
20
-108.00000000000011
10
158.00000000000321
20
-191.50000000000009
10
113.0000000000031
20
-191.50000000000009
10
113.0000000000031
20
-196.50000000000003
10
112.00000107925773
20
-196.49999999999923
42
1.0000002893282567
10
111.99999978855807
20
-199.49999999999886
10
113.00000000000296
20
-199.49999999999881
10
113.00000000000296
20
-242.99999999999872
10
184.69401899225608
20
-262.21035449111446
42
-0.33945425886337033
10
201.00000000000375
20
-283.46072266947698
10
201.00000000000503
20
-322.53927733044304
42
-0.33945425886335523
10
184.69401899224292
20
-343.78964550882267
10
113.00000000000294
20
-362.99999999999886
10
113.00000000000338
20
-408.00010000000088
42
0.41421349862726203
10
114.49999967354057
20
-409.50010000000077
10
143.00000177804426
20
-409.50010000000083
42
-0.41433707154689986
10
163.0000000000029
20
-429.50853336538495
10
163.0000000000031
20
-446.50010000000077
42
-0.4142135623730428
10
113.00000000001194
20
-496.50010000000077
10
103.99999999994287
20
-496.50010000000077
10
102.49999999994191
20
-498.00010000000088
10
16.331922252823485
20
-498.00009999999935
42
1.1541268214631102
10
-16.331922252824089
20
-498.00009999999929
10
-102.49999999993892
20
-498.00010000000088
10
-103.99999999993987
20
-496.50010000000077
10
-113.00000000000894
20
-496.50010000000088
42
-0.41421356237304302
10
-163.00000000000014
20
-446.50010000000077
10
-163.00000000000006
20
-429.50853336538489
42
-0.41433707154690191
10
-143.00000177804125
20
-409.50010000000066
0
ENDSEC
0
SECTION
2
OBJECTS
0
DICTIONARY
5
C
100
AcDbDictionary
3
ACAD_GROUP
350
D
3
ACAD_MLINESTYLE
350
17
0
DICTIONARY
5
D
100
AcDbDictionary
0
DICTIONARY
5
1A
330
C
100
AcDbDictionary
0
DICTIONARY
5
17
100
AcDbDictionary
0
ENDSEC
0
EOF
