0
SECTION
2
HEADER
9
$INSUNITS
70
4
9
$ACADVER
1
AC1014
9
$HANDSEED
5
FFFF
0
ENDSEC
0
SECTION
2
TABLES
0
TABLE
2
VPORT
5
8
100
AcDbSymbolTable
0
ENDTAB
0
TABLE
2
LTYPE
5
5
100
AcDbSymbolTable
0
LTYPE
5
14
100
AcDbSymbolTableRecord
100
AcDbLinetypeTableRecord
2
BYBLOCK
70
0
0
LTYPE
5
15
100
AcDbSymbolTableRecord
100
AcDbLinetypeTableRecord
2
BYLAYER
70
0
0
ENDTAB
0
TABLE
2
LAYER
5
2
100
AcDbSymbolTable
70
2
0
LAYER
5
50
100
AcDbSymbolTableRecord
100
AcDbLayerTableRecord
2
0
70
0
6
CONTINUOUS
0
ENDTAB
0
TABLE
2
STYLE
5
3
100
AcDbSymbolTable
70
1
0
STYLE
5
11
100
AcDbSymbolTableRecord
100
AcDbTextStyleTableRecord
2
STANDARD
70
0
0
ENDTAB
0
TABLE
2
VIEW
5
6
100
AcDbSymbolTable
70
0
0
ENDTAB
0
TABLE
2
UCS
5
7
100
AcDbSymbolTable
70
0
0
ENDTAB
0
TABLE
2
APPID
5
9
100
AcDbSymbolTable
70
2
0
APPID
5
12
100
AcDbSymbolTableRecord
100
AcDbRegAppTableRecord
2
ACAD
70
0
0
ENDTAB
0
TABLE
2
DIMSTYLE
5
A
100
AcDbSymbolTable
70
1
0
ENDTAB
0
TABLE
2
BLOCK_RECORD
5
1
100
AcDbSymbolTable
70
1
0
BLOCK_RECORD
5
1F
100
AcDbSymbolTableRecord
100
AcDbBlockTableRecord
2
*MODEL_SPACE
0
BLOCK_RECORD
5
1B
100
AcDbSymbolTableRecord
100
AcDbBlockTableRecord
2
*PAPER_SPACE
0
ENDTAB
0
ENDSEC
0
SECTION
2
BLOCKS
0
BLOCK
5
20
100
AcDbEntity
100
AcDbBlockBegin
2
*MODEL_SPACE
0
ENDBLK
5
21
100
AcDbEntity
100
AcDbBlockEnd
0
BLOCK
5
1C
100
AcDbEntity
100
AcDbBlockBegin
2
*PAPER_SPACE
0
ENDBLK
5
1D
100
AcDbEntity
100
AcDbBlockEnd
0
ENDSEC
0
SECTION
2
ENTITIES
0
CIRCLE
5
100
100
AcDbEntity
8
0
100
AcDbCircle
10
49.999998882413109
20
-26.000001505017259
30
0
40
1.6000000000000014
210
-3.3114376003336414e-46
220
-4.3660822697358077e-76
230
1
0
CIRCLE
5
101
100
AcDbEntity
8
0
100
AcDbCircle
10
-50.000003352763031
20
-26.000001505017323
30
0
40
1.6000000000000014
210
-3.3114376003336414e-46
220
-4.3660822697358077e-76
230
1
0
CIRCLE
5
102
100
AcDbEntity
8
0
100
AcDbCircle
10
49.999998882413053
20
25.999999418854699
30
0
40
1.6000000000000014
210
-3.3114376003336414e-46
220
-4.3660822697358077e-76
230
1
0
CIRCLE
5
103
100
AcDbEntity
8
0
100
AcDbCircle
10
-50.000003352763045
20
25.999999418854635
30
0
40
1.6000000000000014
210
-3.3114376003336414e-46
220
-4.3660822697358077e-76
230
1
0
LWPOLYLINE
5
104
100
AcDbEntity
8
0
100
AcDbPolyline
90
8
70
1
43
0.0
10
66.875000000000142
20
-16.950000000000006
10
62.125000000000135
20
-16.950000000000006
42
-0.4142135623730957
10
61.125000000000142
20
-15.950000000000006
10
61.125000000000142
20
-4.5500000000000052
42
-0.4142135623730947
10
62.125000000000135
20
-3.5500000000000065
10
66.875000000000142
20
-3.5500000000000087
42
-0.41421356237309509
10
67.875000000000142
20
-4.5500000000000052
10
67.875000000000142
20
-15.950000000000006
42
-0.41421356237309509
0
LWPOLYLINE
5
105
100
AcDbEntity
8
0
100
AcDbPolyline
90
8
70
1
43
0.0
10
7.4500000000000899
20
29.62500000000005
10
-7.4499999999999211
20
29.62500000000005
42
-0.41421356237309509
10
-8.4499999999999211
20
30.62500000000005
10
-8.4499999999999211
20
35.375000000000036
42
-0.41421356237309509
10
-7.4499999999999211
20
36.375000000000036
10
7.4500000000000899
20
36.375000000000043
42
-0.4142135623730947
10
8.4500000000000881
20
35.375000000000043
10
8.4500000000000917
20
30.62500000000005
42
-0.41421356237309509
0
CIRCLE
5
106
100
AcDbEntity
8
0
100
AcDbCircle
10
-5.6999999999999194
20
-37.500000000000064
30
2.2204460492503131e-15
40
5.5
210
-6.2126814191064901e-32
220
-1.5367985114700919e-47
230
1
0
CIRCLE
5
107
100
AcDbEntity
8
0
100
AcDbCircle
10
74.000000000000142
20
20.000000000000036
30
0
40
1.1000000000000032
210
-2.8843359476147152e-46
220
-3.3124585200969009e-76
230
1
0
CIRCLE
5
108
100
AcDbEntity
8
0
100
AcDbCircle
10
20.100000000000101
20
-47.500000000000064
30
0
40
1.1000000000000032
210
-2.884335947614716e-46
220
-3.3124585200969022e-76
230
1
0
CIRCLE
5
109
100
AcDbEntity
8
0
100
AcDbCircle
10
-59.999999999999943
20
-20.500000000000046
30
0
40
1.1000000000000032
210
-2.8843359476147152e-46
220
-3.3124585200969009e-76
230
1
0
CIRCLE
5
110
100
AcDbEntity
8
0
100
AcDbCircle
10
-20.09999999999993
20
-47.500000000000064
30
2.2204460492503131e-15
40
1.100000000000001
210
-2.8843359476147152e-46
220
-3.3124585200969016e-76
230
1
0
LWPOLYLINE
5
111
100
AcDbEntity
8
0
100
AcDbPolyline
90
8
70
1
43
0.0
10
17.000000000000473
20
-51.999999999999993
10
17.000000000000469
20
-78
42
-0.4142135623730957
10
16.000000000000473
20
-79
10
-16.000000000000476
20
-79
42
-0.41421356237309637
10
-17.000000000000473
20
-78
10
-17.000000000000469
20
-51.999999999999993
42
-0.4142135623730957
10
-16.000000000000473
20
-51
10
16.000000000000476
20
-51
42
-0.41421356237309637
0
CIRCLE
5
112
100
AcDbEntity
8
0
100
AcDbCircle
10
29.99999998859256
20
-74.000000057373512
30
0
40
1.5000000000000036
210
6.4001027464969163e-81
220
0
230
1
0
CIRCLE
5
113
100
AcDbEntity
8
0
100
AcDbCircle
10
-30.00000001140755
20
73.999999988257073
30
0
40
1.5000000000000036
210
6.4001027464969163e-81
220
0
230
1
0
CIRCLE
5
114
100
AcDbEntity
8
0
100
AcDbCircle
10
74.000000011407806
20
-30.000000034558166
30
2.2204460492503131e-15
40
1.5000000000000036
210
-0
220
0
230
1
0
CIRCLE
5
115
100
AcDbEntity
8
0
100
AcDbCircle
10
-74.000000034222793
20
29.999999965441731
30
-2.2204460492503131e-15
40
1.5000000000000036
210
-0
220
0
230
1
0
CIRCLE
5
116
100
AcDbEntity
8
0
100
AcDbCircle
10
29.999999988592457
20
73.999999988257116
30
0
40
1.5000000000000036
210
6.4001027464969163e-81
220
0
230
1
0
CIRCLE
5
117
100
AcDbEntity
8
0
100
AcDbCircle
10
-30.000000011407444
20
-74.000000057373498
30
0
40
1.5000000000000036
210
6.4001027464969163e-81
220
0
230
1
0
CIRCLE
5
118
100
AcDbEntity
8
0
100
AcDbCircle
10
74.000000011407806
20
29.999999965441834
30
0
40
1.5000000000000036
210
1.7413545448541954e-80
220
0
230
1
0
CIRCLE
5
119
100
AcDbEntity
8
0
100
AcDbCircle
10
-74.000000034222793
20
-30.000000034558276
30
0
40
1.5000000000000036
210
1.7413545448541954e-80
220
0
230
1
0
LWPOLYLINE
5
120
100
AcDbEntity
8
0
100
AcDbPolyline
90
24
70
1
43
0.0
10
-6.1999999657780034
20
-1.9999999654417786
42
0.4142135623730952
10
-8.1999999657780052
20
3.4558221284619606e-08
10
-9.1999999194761788
20
3.4558223227509899e-08
42
-0.41421356237309515
10
-11.199999919476177
20
2.0000000345582238
10
-11.199999919476177
20
4.2000000117436169
42
-0.41421356237309503
10
-9.199999919476177
20
6.200000011743616
10
-1.9999999885926101
20
6.2000000117436134
42
0.41421356237309548
10
1.1407390032580622e-08
20
8.2000000117436134
10
1.1407391142803647e-08
20
9.1999999654417906
42
-0.41421356237309515
10
2.0000000114073915
20
11.199999965441789
10
4.1999999885927846
20
11.199999965441789
42
-0.41421356237309509
10
6.1999999885927837
20
9.1999999654417906
10
6.1999999885927837
20
2.0000000345582181
42
0.41421356237309515
10
8.1999999885927828
20
3.45582187866178e-08
10
9.19999994229096
20
3.4558218231506288e-08
42
-0.41421356237309515
10
11.199999942290958
20
-1.9999999654417822
10
11.199999942290958
20
-4.1999999426271746
42
-0.41421356237309476
10
9.1999999422909582
20
-6.1999999426271737
10
2.0000000114073901
20
-6.1999999426271728
42
0.41421356237309476
10
1.1407390310136378e-08
20
-8.1999999426271728
10
1.1407388644801841e-08
20
-9.1999998963253482
42
-0.41421356237309509
10
-1.9999999885926112
20
-11.199999896325348
10
-4.1999999657780034
20
-11.199999896325348
42
-0.41421356237309509
10
-6.1999999657780025
20
-9.1999998963253482
0
CIRCLE
5
121
100
AcDbEntity
8
0
100
AcDbCircle
10
40.853094283053004
20
-25.508877131304246
30
0
40
1.6000000000000014
210
-1.4661867388479813e-30
220
-4.9303806576312586e-32
230
1
0
CIRCLE
5
122
100
AcDbEntity
8
0
100
AcDbCircle
10
7.5483648891665922
20
-22.892582040914114
30
-2.2204460492503131e-15
40
1.6000000000000014
210
1.1153507159404233e-31
220
-4.9303806576313293e-32
230
1
0
CIRCLE
5
123
100
AcDbEntity
8
0
100
AcDbCircle
10
22.892582040914647
20
-7.5483648891659758
30
0
40
1.6000000000000014
210
-1.4661867388479813e-30
220
-4.9303806576312586e-32
230
1
0
CIRCLE
5
124
100
AcDbEntity
8
0
100
AcDbCircle
10
-22.89258204091421
20
7.5483648891662334
30
0
40
1.6000000000000014
210
-1.4661867388479813e-30
220
-4.9303806576312586e-32
230
1
0
CIRCLE
5
125
100
AcDbEntity
8
0
100
AcDbCircle
10
25.50887713130459
20
40.853094283052926
30
2.2204460492503131e-15
40
1.6000000000000014
210
-1.4661867388479813e-30
220
-4.9303806576312586e-32
230
1
0
CIRCLE
5
126
100
AcDbEntity
8
0
100
AcDbCircle
10
-7.5483648891658852
20
-22.892582040914291
30
0
40
1.6000000000000014
210
1.1153507159404233e-31
220
-4.9303806576313293e-32
230
1
0
CIRCLE
5
127
100
AcDbEntity
8
0
100
AcDbCircle
10
-25.50887713130415
20
-40.853094283052656
30
-2.2204460492503131e-15
40
1.6000000000000014
210
-1.4661867388479813e-30
220
-4.9303806576312586e-32
230
1
0
CIRCLE
5
128
100
AcDbEntity
8
0
100
AcDbCircle
10
-40.853094283052286
20
-25.508877131304594
30
0
40
1.599999999999997
210
1.115350715940424e-31
220
-4.9303806576313293e-32
230
1
0
CIRCLE
5
129
100
AcDbEntity
8
0
100
AcDbCircle
10
-40.853094283052585
20
25.508877131304498
30
0
40
1.6000000000000014
210
-1.4661867388479813e-30
220
-4.9303806576312586e-32
230
1
0
CIRCLE
5
130
100
AcDbEntity
8
0
100
AcDbCircle
10
40.853094283052727
20
25.508877131304864
30
0
40
1.6000000000000014
210
-1.4661867388479813e-30
220
-4.9303806576312586e-32
230
1
0
CIRCLE
5
131
100
AcDbEntity
8
0
100
AcDbCircle
10
22.892582040914469
20
7.5483648891665087
30
0
40
1.6000000000000014
210
-1.4661867388479813e-30
220
-4.9303806576312586e-32
230
1
0
CIRCLE
5
132
100
AcDbEntity
8
0
100
AcDbCircle
10
25.508877131304946
20
-40.853094283052378
30
0
40
1.599999999999997
210
1.115350715940424e-31
220
-4.9303806576313293e-32
230
1
0
CIRCLE
5
133
100
AcDbEntity
8
0
100
AcDbCircle
10
7.5483648891663258
20
22.892582040914562
30
0
40
1.6000000000000003
210
9.0039597681505416e-31
220
-3.9985613105272318e-46
230
1
0
CIRCLE
5
134
100
AcDbEntity
8
0
100
AcDbCircle
10
-25.508877131304523
20
40.853094283052641
30
0
40
1.599999999999997
210
1.115350715940424e-31
220
-4.9303806576313293e-32
230
1
0
CIRCLE
5
135
100
AcDbEntity
8
0
100
AcDbCircle
10
-7.5483648891661614
20
22.892582040914387
30
2.2204460492503131e-15
40
1.6000000000000014
210
1.1153507159404233e-31
220
-4.9303806576313293e-32
230
1
0
CIRCLE
5
136
100
AcDbEntity
8
0
100
AcDbCircle
10
-22.892582040914029
20
-7.5483648891662387
30
0
40
1.6000000000000014
210
-1.4661867388479813e-30
220
-4.9303806576312586e-32
230
1
0
ARC
5
137
100
AcDbEntity
8
0
100
AcDbCircle
10
22.79905765691181
20
53.267518346245211
30
-1.0263416486754031e-45
40
0.49999999999999822
210
-8.0628826045583883e-31
220
1.479114197289419e-31
230
1
100
AcDbArc
50
180
51
270
0
LINE
5
138
100
AcDbEntity
8
0
100
AcDbLine
10
22.79905765691181
20
52.767518346245211
30
7.3955709864469638e-32
11
23.299057656911813
21
52.767518346245211
31
2.5824072491262197e-47
0
ARC
5
139
100
AcDbEntity
8
0
100
AcDbCircle
10
23.299057656911813
20
52.267518346245218
30
0
40
0.49999999999999822
210
-7.7143354998618881e-31
220
-4.9303806576313183e-32
230
1
100
AcDbArc
50
0
51
90
0
LINE
5
140
100
AcDbEntity
8
0
100
AcDbLine
10
23.79905765691181
20
52.267518346245218
30
3.8571677499309305e-31
11
23.799057656911813
21
48.267518346245225
31
0
0
ARC
5
141
100
AcDbEntity
8
0
100
AcDbCircle
10
23.299057656911817
20
48.267518346245225
30
0
40
0.49999999999999822
210
-8.0628826045583795e-31
220
1.4791141972894013e-31
230
1
100
AcDbArc
50
-90
51
0
0
LINE
5
142
100
AcDbEntity
8
0
100
AcDbLine
10
23.299057656911817
20
47.767518346245225
30
7.3955709864469802e-32
11
22.79905765691181
21
47.767518346245211
31
-2.5824072491263656e-47
0
ARC
5
143
100
AcDbEntity
8
0
100
AcDbCircle
10
22.79905765691181
20
47.267518346245218
30
-4.926439913641935e-46
40
0.49999999999999822
210
-7.7143354998618732e-31
220
-9.336398377458631e-46
230
1
100
AcDbArc
50
90
51
180
0
ARC
5
144
100
AcDbEntity
8
0
100
AcDbCircle
10
19.299057656911817
20
47.267518346245218
30
-2.2204460492503131e-15
40
2.9999999999999982
210
-7.8886090522101216e-31
220
8.2173010960522111e-32
230
1
100
AcDbArc
50
-90
51
0
0
LINE
5
145
100
AcDbEntity
8
0
100
AcDbLine
10
19.299057656911817
20
44.267518346245218
30
-2.2204460492503127e-15
11
-22.100920172695247
21
44.267518346245218
31
-9.2718026982455515e-48
0
ARC
5
146
100
AcDbEntity
8
0
100
AcDbCircle
10
-22.100920172695243
20
47.267518346245218
30
-2.2204460492503131e-15
40
3.0000000000000027
210
-8.2173010960521981e-31
220
7.083448934580363e-47
230
1
100
AcDbArc
50
180
51
269.99999999999994
0
ARC
5
147
100
AcDbEntity
8
0
100
AcDbCircle
10
-25.60092017269524
20
47.267518346245218
30
1.0263416486754031e-45
40
0.49999999999999378
210
4.4408920985006861e-15
220
1.479114197289419e-31
230
1
100
AcDbArc
50
0
51
90
0
LINE
5
148
100
AcDbEntity
8
0
100
AcDbLine
10
-25.60092017269524
20
47.767518346245211
30
-7.3955709864469638e-32
11
-26.10092017269524
21
47.767518346245211
31
-2.5824072491260704e-47
0
ARC
5
149
100
AcDbEntity
8
0
100
AcDbCircle
10
-26.10092017269524
20
48.267518346245211
30
0
40
0.49999999999999822
210
-7.7143354998618881e-31
220
-4.9303806576313183e-32
230
1
100
AcDbArc
50
180
51
270
0
LINE
5
150
100
AcDbEntity
8
0
100
AcDbLine
10
-26.600920172695236
20
48.267518346245211
30
-3.8571677499309305e-31
11
-26.60092017269524
21
52.267518346245211
31
0
0
ARC
5
151
100
AcDbEntity
8
0
100
AcDbCircle
10
-26.100920172695243
20
52.267518346245211
30
0
40
0.49999999999999822
210
-8.0628826045583795e-31
220
1.4791141972894013e-31
230
1
100
AcDbArc
50
90
51
180
0
LINE
5
152
100
AcDbEntity
8
0
100
AcDbLine
10
-26.100920172695243
20
52.767518346245204
30
-7.3955709864469802e-32
11
-25.600920172695236
21
52.767518346245211
31
2.5824072491263656e-47
0
ARC
5
153
100
AcDbEntity
8
0
100
AcDbCircle
10
-25.600920172695236
20
53.267518346245211
30
4.926439913641935e-46
40
0.49999999999999822
210
-7.7143354998618732e-31
220
-9.336398377458631e-46
230
1
100
AcDbArc
50
-90
51
0
0
LINE
5
154
100
AcDbEntity
8
0
100
AcDbLine
10
-25.10092017269524
20
53.267518346245211
30
3.8571677499309279e-31
11
-25.10092017269524
21
77.100921498898501
31
0
0
LINE
5
155
100
AcDbEntity
8
0
100
AcDbLine
10
-25.10092017269524
20
77.100921498898501
30
0
11
-26.383602585621944
21
78.383603911825205
31
4.3140830754274083e-31
0
SPLINE
5
156
100
AcDbEntity
8
0
100
AcDbSpline
70
0
71
3
72
12
73
8
74
0
42
0.000000001
43
0.0000000001
44
0.0000000001
40
0
40
0
40
0
40
0
40
0.20550451100050912
40
0.20550451100050912
40
0.37123558198204365
40
0.37123558198204365
40
0.5293028256664426
40
0.5293028256664426
40
0.5293028256664426
40
0.5293028256664426
10
-26.383602585621944
20
78.383603911825205
30
0
10
-26.867981363264892
20
78.867982689468164
30
0
10
-27.442464506690936
20
79.260073092515697
30
0
10
-28.585191544015242
20
79.729330581461198
30
0
10
-29.128032792821237
20
79.850448279630427
30
0
10
-30.203114446255558
20
79.876476611328201
30
0
10
-30.724255385215372
20
79.790630558167308
30
0
10
-31.212108105131943
20
79.599336100457236
30
0
0
ARC
5
157
100
AcDbEntity
8
0
100
AcDbCircle
10
-1.1419531986689435e-08
20
3.4521905334372605e-08
30
-1.890001303758097e-42
40
85.499999963691806
210
-4.0569107088884489e-31
220
-1.5907762781777007e-31
230
1
100
AcDbArc
50
111.41089959187573
51
114.2832562349073
0
SPLINE
5
158
100
AcDbEntity
8
0
100
AcDbSpline
70
0
71
3
72
18
73
14
74
0
42
0.000000001
43
0.0000000001
44
0.0000000001
40
0
40
0
40
0
40
0
40
0.089804880423280081
40
0.089804880423280081
40
0.17770265860682902
40
0.17770265860682902
40
0.27087172707933682
40
0.27087172707933682
40
0.3752518825739305
40
0.3752518825739305
40
0.43804907173817431
40
0.43804907173817431
40
0.50175645866034246
40
0.50175645866034246
40
0.50175645866034246
40
0.50175645866034246
10
-35.161703839813896
20
77.935258920986769
30
0
10
-35.43456803506367
20
77.812151996666572
30
0
10
-35.679487135993348
20
77.637895901448132
30
2.2204460492503131e-15
10
-36.083459381096283
20
77.205072180192701
30
0
10
-36.238197888788697
20
76.954846143566826
30
0
10
-36.454084304121601
20
76.391136002242106
30
0
10
-36.506182823573788
20
76.082598812091021
30
0
10
-36.499055452265054
20
75.42310385619983
30
0
10
-36.425914982593682
20
75.078343062824374
30
-2.2204460492503131e-15
10
-36.21675490800444
20
74.559787433204804
30
0
10
-36.117772402344372
20
74.373520238403358
30
0
10
-35.883167074933702
20
74.021277630830838
30
0
10
-35.747214253366842
20
73.855900640985254
30
0
10
-35.5964908158927
20
73.705177203511113
30
-2.2204460492503131e-15
0
LINE
5
159
100
AcDbEntity
8
0
100
AcDbLine
10
-35.596490815892707
20
73.705177203511113
30
-2.2204460492503131e-15
11
-35.269174651601496
21
73.37786103921988
31
-2.2204460492503131e-15
0
ARC
5
160
100
AcDbEntity
8
0
100
AcDbCircle
10
-40.572475510500603
20
68.074560180320788
30
1.313717310304516e-45
40
7.5000000000000044
210
2.7890444774736766e-31
220
-3.8349361565263089e-31
230
1
100
AcDbArc
50
-45.00000000000005
51
44.999999999999922
0
LINE
5
161
100
AcDbEntity
8
0
100
AcDbLine
10
-35.269174651601496
20
62.771259321421667
30
-3.5128962185623182e-30
11
-37.989351198909297
21
60.051082774113844
31
4.9303806576313238e-31
0
ARC
5
162
100
AcDbEntity
8
0
100
AcDbCircle
10
-36.575137636536205
20
58.636869211740752
30
2.2204460492503127e-15
40
1.999999999999996
210
-7.8504622934188864e-16
220
7.8504622934188904e-16
230
1
100
AcDbArc
50
135
51
224.99999999999986
0
LINE
5
163
100
AcDbEntity
8
0
100
AcDbLine
10
-37.989351198909304
20
57.22265564936766
30
2.2204460492503135e-15
11
-34.082547037541907
21
53.31585148800022
31
-7.3955709864469857e-31
0
ARC
5
164
100
AcDbEntity
8
0
100
AcDbCircle
10
-35.496760599915021
20
51.901637925627142
30
0
40
1.9999999999999993
210
1.8721461055041997e-29
220
-1.8826050222947429e-29
230
1
100
AcDbArc
50
-45.000000000000306
51
44.999999999999275
0
LINE
5
165
100
AcDbEntity
8
0
100
AcDbLine
10
-34.082547037541936
20
50.487424363254043
30
-5.3100199682689357e-29
11
-50.487424361069969
21
34.082547039726251
31
2.2204460492503131e-15
0
ARC
5
166
100
AcDbEntity
8
0
100
AcDbCircle
10
-51.901637923443033
20
35.496760602099343
30
0
40
1.9999999999999993
210
2.8239075334421165e-30
220
3.2074011490947196e-30
230
1
100
AcDbArc
50
224.99999999999972
51
314.99999999999943
0
LINE
5
167
100
AcDbEntity
8
0
100
AcDbLine
10
-53.315851485816133
20
34.082547039726258
30
8.5295585377021901e-30
11
-57.222655647183402
21
37.989351201093569
31
-1.1093356479670479e-30
0
ARC
5
168
100
AcDbEntity
8
0
100
AcDbCircle
10
-58.636869209556508
20
36.575137638720484
30
1.2589790890418278e-45
40
2.0000000000000022
210
2.0046257181842694e-31
220
5.8395618747104908e-31
230
1
100
AcDbArc
50
44.999999999999567
51
134.99999999999972
0
LINE
5
169
100
AcDbEntity
8
0
100
AcDbLine
10
-60.0510827719296
20
37.989351201093591
30
-5.4234187233944457e-31
11
-62.771259275456053
21
35.269174697567152
31
-2.2204460492503139e-15
0
ARC
5
170
100
AcDbEntity
8
0
100
AcDbCircle
10
-68.074560134355153
20
40.572475556466287
30
-2.3646911585481288e-44
40
7.5000000000000187
210
-4.1835667162105085e-31
220
1.0110286230842094e-30
230
1
100
AcDbArc
50
225.00000000000003
51
314.99999999999977
0
LINE
5
171
100
AcDbEntity
8
0
100
AcDbLine
10
-73.377860993254274
20
35.269174697567159
30
3.1431176692399728e-30
11
-73.705177175058608
21
35.59649087937148
31
0
0
SPLINE
5
172
100
AcDbEntity
8
0
100
AcDbSpline
70
0
71
3
72
16
73
12
74
0
42
0.000000001
43
0.0000000001
44
0.0000000001
40
0
40
0
40
0
40
0
40
0.12635909001058296
40
0.12635909001058296
40
0.23738055897039206
40
0.23738055897039206
40
0.33501237051593724
40
0.33501237051593724
40
0.41972146695081519
40
0.41972146695081519
40
0.50429610710564743
40
0.50429610710564743
40
0.50429610710564743
40
0.50429610710564743
10
-73.705177175058608
20
35.59649087937148
30
0
10
-74.003008406428748
20
35.894322110741626
30
0
10
-74.35753629561826
20
36.133959772467591
30
0
10
-75.089570352460413
20
36.43149142728209
30
0
10
-75.455438745610351
20
36.506313475095993
30
0
10
-76.148474100702089
20
36.499823049810672
30
-2.2204460492503131e-15
10
-76.468518940976764
20
36.436146615563587
30
0
10
-77.02428878556654
20
36.197858156272382
30
-2.2204460492503131e-15
10
-77.259063121565703
20
36.041720457125656
30
0
10
-77.6595741375898
20
35.648706718751718
30
0
10
-77.819918870935226
20
35.41735290294428
30
0
10
-77.935258891630454
20
35.161703904881925
30
0
0
ARC
5
173
100
AcDbEntity
8
0
100
AcDbCircle
10
1.1407390587692134e-08
20
3.4558220729508093e-08
30
-4.2038953929744512e-44
40
85.499999996186403
210
-2.5152290718556723e-31
220
-5.5749581885582019e-31
230
1
100
AcDbArc
50
155.71674374404813
51
204.28325629817064
0
SPLINE
5
174
100
AcDbEntity
8
0
100
AcDbSpline
70
0
71
3
72
16
73
12
74
0
42
0.000000001
43
0.0000000001
44
0.0000000001
40
0
40
0
40
0
40
0
40
0.12635909001058296
40
0.12635909001058296
40
0.23738055897039206
40
0.23738055897039206
40
0.33501237051593724
40
0.33501237051593724
40
0.41972146695081519
40
0.41972146695081519
40
0.50429610710564743
40
0.50429610710564743
40
0.50429610710564743
40
0.50429610710564743
10
-73.705177175058608
20
-35.596490879371473
30
0
10
-74.003008406428748
20
-35.894322110741619
30
0
10
-74.35753629561826
20
-36.133959772467584
30
0
10
-75.089570352460413
20
-36.431491427282083
30
0
10
-75.455438745610351
20
-36.506313475095986
30
0
10
-76.148474100702089
20
-36.499823049810665
30
0
10
-76.468518940976764
20
-36.436146615563572
30
0
10
-77.02428878556654
20
-36.197858156272375
30
0
10
-77.259063121565703
20
-36.041720457125649
30
0
10
-77.6595741375898
20
-35.648706718751711
30
0
10
-77.819918870935226
20
-35.417352902944273
30
0
10
-77.935258891630454
20
-35.161703904881918
30
0
0
LINE
5
175
100
AcDbEntity
8
0
100
AcDbLine
10
-73.705177175058608
20
-35.596490879371473
30
0
11
-73.377860993254259
21
-35.269174697567159
31
3.5745259767827097e-30
0
ARC
5
176
100
AcDbEntity
8
0
100
AcDbCircle
10
-68.074560134355153
20
-40.572475556466259
30
-2.2204460492503135e-15
40
7.5000000000000009
210
-7.7701518273690591e-32
220
-4.801073772210449e-31
230
1
100
AcDbArc
50
45.00000000000005
51
135.00000000000006
0
LINE
5
177
100
AcDbEntity
8
0
100
AcDbLine
10
-62.771259275456053
20
-35.269174697567152
30
-2.2204460492503107e-15
11
-60.051082774113752
21
-37.989351198909411
31
7.3955709864469857e-31
0
ARC
5
178
100
AcDbEntity
8
0
100
AcDbCircle
10
-58.63686921174066
20
-36.575137636536319
30
5.7475132325822575e-45
40
1.999999999999996
210
5.0551431154211453e-31
220
1.7431527984197366e-32
230
1
100
AcDbArc
50
225
51
314.99999999999915
0
LINE
5
179
100
AcDbEntity
8
0
100
AcDbLine
10
-57.222655649367589
20
-37.989351198909432
30
-6.9025329206838358e-31
11
-53.315851488000128
21
-34.082547037542014
31
2.2204460492503127e-15
0
ARC
5
180
100
AcDbEntity
8
0
100
AcDbCircle
10
-51.901637925627043
20
-35.496760599915113
30
0
40
1.9999999999999993
210
-1.0267169982700061e-29
220
-9.6047719192999027e-30
230
1
100
AcDbArc
50
44.999999999999424
51
134.99999999999972
0
LINE
5
181
100
AcDbEntity
8
0
100
AcDbLine
10
-50.487424363253936
20
-34.082547037542035
30
2.8103169748498551e-29
11
-34.082547039726144
21
-50.48742436107004
31
-7.3955709864469857e-30
0
ARC
5
182
100
AcDbEntity
8
0
100
AcDbCircle
10
-35.496760602099251
20
-51.901637923443118
30
0
40
2.0000000000000022
210
1.4363579058989341e-29
220
-1.4642483506736888e-29
230
1
100
AcDbArc
50
-45.000000000000306
51
44.999999999999424
0
LINE
5
183
100
AcDbEntity
8
0
100
AcDbLine
10
-34.082547039726158
20
-53.315851485816225
30
-4.1020767071492614e-29
11
-37.98935120109347
21
-57.22265564718348
31
-1.2325951644078309e-30
0
ARC
5
184
100
AcDbEntity
8
0
100
AcDbCircle
10
-36.575137638720392
20
-58.636869209556586
30
9.85287982728387e-46
40
1.9999999999999993
210
-2.0917833581052135e-31
220
6.6239806339999956e-31
230
1
100
AcDbArc
50
134.99999999999943
51
224.99999999999972
0
LINE
5
185
100
AcDbEntity
8
0
100
AcDbLine
10
-37.989351201093491
20
-60.051082771929671
30
6.4094948549207025e-31
11
-35.269174651601503
21
-62.771259321421653
31
-1.2325951644078309e-31
0
ARC
5
186
100
AcDbEntity
8
0
100
AcDbCircle
10
-40.572475510500603
20
-68.074560180320759
30
1.313717310304516e-45
40
7.5000000000000044
210
-1.394522238736833e-31
220
-6.6239806339999921e-31
230
1
100
AcDbArc
50
-44.999999999999901
51
45.00000000000005
0
LINE
5
187
100
AcDbEntity
8
0
100
AcDbLine
10
-35.269174651601475
20
-73.377861039219866
30
-2.7733391199176144e-30
11
-35.596490815892707
21
-73.705177203511099
31
2.2204460492503131e-15
0
SPLINE
5
188
100
AcDbEntity
8
0
100
AcDbSpline
70
0
71
3
72
18
73
14
74
0
42
0.000000001
43
0.0000000001
44
0.0000000001
40
0
40
0
40
0
40
0
40
0.089804880423280081
40
0.089804880423280081
40
0.17770265860682902
40
0.17770265860682902
40
0.27087172707933682
40
0.27087172707933682
40
0.3752518825739305
40
0.3752518825739305
40
0.43804907173817431
40
0.43804907173817431
40
0.50175645866034246
40
0.50175645866034246
40
0.50175645866034246
40
0.50175645866034246
10
-35.161703839813896
20
-77.935258920986755
30
0
10
-35.43456803506367
20
-77.812151996666557
30
0
10
-35.679487135993348
20
-77.637895901448118
30
0
10
-36.083459381096283
20
-77.205072180192687
30
-2.2204460492503131e-15
10
-36.238197888788697
20
-76.954846143566812
30
0
10
-36.454084304121601
20
-76.391136002242092
30
-2.2204460492503131e-15
10
-36.506182823573788
20
-76.082598812090993
30
-2.2204460492503131e-15
10
-36.499055452265054
20
-75.423103856199816
30
-2.2204460492503131e-15
10
-36.425914982593682
20
-75.078343062824359
30
0
10
-36.21675490800444
20
-74.559787433204775
30
2.2204460492503131e-15
10
-36.117772402344372
20
-74.373520238403344
30
2.2204460492503131e-15
10
-35.883167074933702
20
-74.021277630830824
30
0
10
-35.747214253366842
20
-73.85590064098524
30
2.2204460492503131e-15
10
-35.5964908158927
20
-73.705177203511084
30
0
0
ARC
5
189
100
AcDbEntity
8
0
100
AcDbCircle
10
-1.1407499389548548e-08
20
-3.4558080841406991e-08
30
-1.7516230804060213e-44
40
85.499999963808349
210
-3.9537020116464115e-33
220
1.7837741369652574e-33
230
1
100
AcDbArc
50
245.71674376507542
51
294.28325624886065
0
SPLINE
5
190
100
AcDbEntity
8
0
100
AcDbSpline
70
0
71
3
72
18
73
14
74
0
42
0.000000001
43
0.0000000001
44
0.0000000001
40
0
40
0
40
0
40
0
40
0.089804880423280081
40
0.089804880423280081
40
0.17770265860682902
40
0.17770265860682902
40
0.27087172707933682
40
0.27087172707933682
40
0.3752518825739305
40
0.3752518825739305
40
0.43804907173817431
40
0.43804907173817431
40
0.50175645866034246
40
0.50175645866034246
40
0.50175645866034246
40
0.50175645866034246
10
35.161703839813718
20
-77.935258920986755
30
0
10
35.434568035063492
20
-77.812151996666557
30
0
10
35.67948713599317
20
-77.637895901448118
30
-2.2204460492503131e-15
10
36.083459381096105
20
-77.205072180192687
30
0
10
36.23819788878852
20
-76.954846143566812
30
0
10
36.454084304121423
20
-76.391136002242092
30
0
10
36.50618282357361
20
-76.082598812090993
30
0
10
36.499055452264876
20
-75.423103856199816
30
0
10
36.425914982593504
20
-75.078343062824359
30
2.2204460492503131e-15
10
36.216754908004262
20
-74.559787433204775
30
0
10
36.117772402344194
20
-74.373520238403344
30
0
10
35.883167074933525
20
-74.021277630830824
30
0
10
35.747214253366664
20
-73.85590064098524
30
0
10
35.596490815892523
20
-73.705177203511084
30
2.2204460492503131e-15
0
LINE
5
191
100
AcDbEntity
8
0
100
AcDbLine
10
35.59649081589253
20
-73.705177203511099
30
2.2204460492503131e-15
11
35.269174651601318
21
-73.377861039219866
31
2.220446049250306e-15
0
ARC
5
192
100
AcDbEntity
8
0
100
AcDbCircle
10
40.572475510500439
20
-68.074560180320759
30
-1.313717310304516e-45
40
7.5000000000000044
210
2.7890444774736766e-31
220
-3.8349361565263089e-31
230
1
100
AcDbArc
50
135
51
224.99999999999991
0
LINE
5
193
100
AcDbEntity
8
0
100
AcDbLine
10
35.269174651601332
20
-62.771259321421653
30
3.5128962185623182e-30
11
37.989351198909283
21
-60.051082774113674
31
0
0
ARC
5
194
100
AcDbEntity
8
0
100
AcDbCircle
10
36.575137636536191
20
-58.636869211740581
30
-2.2204460492503135e-15
40
1.999999999999996
210
-7.8504622934188914e-16
220
7.8504622934188933e-16
230
1
100
AcDbArc
50
-45
51
44.999999999999424
0
LINE
5
195
100
AcDbEntity
8
0
100
AcDbLine
10
37.989351198909304
20
-57.222655649367496
30
-2.2204460492503135e-15
11
34.082547037542071
21
-53.31585148800022
31
0
0
ARC
5
196
100
AcDbEntity
8
0
100
AcDbCircle
10
35.496760599915184
20
-51.901637925627135
30
0
40
1.9999999999999993
210
1.0371759150605168e-29
220
-1.0162580814794804e-29
230
1
100
AcDbArc
50
134.99999999999929
51
224.99999999999943
0
LINE
5
197
100
AcDbEntity
8
0
100
AcDbLine
10
34.082547037542106
20
-50.487424363254021
30
2.9039942073448497e-29
11
50.487424361070111
21
-34.082547039726265
31
-2.2204460492503202e-15
0
ARC
5
198
100
AcDbEntity
8
0
100
AcDbCircle
10
51.901637923443189
20
-35.496760602099371
30
0
40
2.0000000000000022
210
-1.39975169713211e-29
220
-1.4067243083257763e-29
230
1
100
AcDbArc
50
44.999999999999709
51
134.99999999999943
0
LINE
5
199
100
AcDbEntity
8
0
100
AcDbLine
10
53.315851485816296
20
-34.082547039726279
30
3.9689564293932156e-29
11
57.222655647183402
21
-37.989351201093434
31
-3.6977854932234928e-31
0
ARC
5
200
100
AcDbEntity
8
0
100
AcDbCircle
10
58.636869209556501
20
-36.575137638720363
30
9.4149740571823647e-45
40
1.9999999999999898
210
-6.8854535537631253e-31
220
4.2707243561315757e-31
230
1
100
AcDbArc
50
224.99999999999943
51
315.00000000000017
0
LINE
5
201
100
AcDbEntity
8
0
100
AcDbLine
10
60.0510827719296
20
-37.989351201093456
30
1.5777218104420303e-30
11
62.771259275455897
21
-35.269174697567152
31
2.2204460492503127e-15
0
ARC
5
202
100
AcDbEntity
8
0
100
AcDbCircle
10
68.074560134354996
20
-40.572475556466266
30
2.3646911585481288e-44
40
7.5000000000000187
210
-4.1835667162105085e-31
220
1.0110286230842094e-30
230
1
100
AcDbArc
50
45.000000000000028
51
134.99999999999991
0
LINE
5
203
100
AcDbEntity
8
0
100
AcDbLine
10
73.377860993254117
20
-35.269174697567138
30
-3.1431176692399728e-30
11
73.705177175058452
21
-35.596490879371473
31
1.5407439555097887e-32
0
SPLINE
5
204
100
AcDbEntity
8
0
100
AcDbSpline
70
0
71
3
72
16
73
12
74
0
42
0.000000001
43
0.0000000001
44
0.0000000001
40
0
40
0
40
0
40
0
40
0.12635909001058296
40
0.12635909001058296
40
0.23738055897039206
40
0.23738055897039206
40
0.33501237051593724
40
0.33501237051593724
40
0.41972146695081519
40
0.41972146695081519
40
0.50429610710564743
40
0.50429610710564743
40
0.50429610710564743
40
0.50429610710564743
10
73.705177175058452
20
-35.596490879371473
30
0
10
74.003008406428592
20
-35.894322110741619
30
0
10
74.357536295618104
20
-36.133959772467584
30
0
10
75.089570352460257
20
-36.431491427282083
30
0
10
75.455438745610181
20
-36.506313475095986
30
0
10
76.148474100701932
20
-36.499823049810665
30
2.2204460492503131e-15
10
76.468518940976594
20
-36.436146615563572
30
0
10
77.024288785566384
20
-36.197858156272375
30
2.2204460492503131e-15
10
77.259063121565546
20
-36.041720457125649
30
0
10
77.659574137589644
20
-35.648706718751711
30
0
10
77.819918870935069
20
-35.417352902944273
30
0
10
77.935258891630298
20
-35.161703904881918
30
0
0
ARC
5
205
100
AcDbEntity
8
0
100
AcDbCircle
10
-1.1407499389548548e-08
20
-3.4558080841406991e-08
30
-1.7516230804060213e-44
40
85.499999996186403
210
-2.5152290718556902e-31
220
-5.5749581885582019e-31
230
1
100
AcDbArc
50
-24.283256255951972
51
24.283256298170588
0
SPLINE
5
206
100
AcDbEntity
8
0
100
AcDbSpline
70
0
71
3
72
16
73
12
74
0
42
0.000000001
43
0.0000000001
44
0.0000000001
40
0
40
0
40
0
40
0
40
0.12635909001058296
40
0.12635909001058296
40
0.23738055897039206
40
0.23738055897039206
40
0.33501237051593724
40
0.33501237051593724
40
0.41972146695081519
40
0.41972146695081519
40
0.50429610710564743
40
0.50429610710564743
40
0.50429610710564743
40
0.50429610710564743
10
73.705177175058452
20
35.59649087937148
30
0
10
74.003008406428592
20
35.894322110741626
30
0
10
74.357536295618104
20
36.133959772467591
30
0
10
75.089570352460257
20
36.43149142728209
30
0
10
75.455438745610181
20
36.506313475095993
30
0
10
76.148474100701932
20
36.499823049810672
30
0
10
76.468518940976594
20
36.436146615563587
30
0
10
77.024288785566384
20
36.197858156272382
30
0
10
77.259063121565546
20
36.041720457125656
30
0
10
77.659574137589644
20
35.648706718751718
30
0
10
77.819918870935069
20
35.41735290294428
30
0
10
77.935258891630298
20
35.161703904881925
30
0
0
LINE
5
207
100
AcDbEntity
8
0
100
AcDbLine
10
73.705177175058452
20
35.59649087937148
30
0
11
73.377860993254103
21
35.269174697567159
31
-2.2325379915336838e-29
0
ARC
5
208
100
AcDbEntity
8
0
100
AcDbCircle
10
68.074560134354996
20
40.572475556466273
30
2.2204460492503135e-15
40
7.5000000000000009
210
-7.7701518273690591e-32
220
-4.801073772210449e-31
230
1
100
AcDbArc
50
225.00000000000003
51
314.99999999999994
0
LINE
5
209
100
AcDbEntity
8
0
100
AcDbLine
10
62.771259275455897
20
35.269174697567166
30
2.2204460492503107e-15
11
60.051082774113773
21
37.989351198909219
31
-2.4651903288156619e-31
0
ARC
5
210
100
AcDbEntity
8
0
100
AcDbCircle
10
58.636869211740681
20
36.575137636536141
30
-1.6202513493755697e-44
40
1.9999999999999867
210
-4.7065125557368118e-31
220
6.4496653541578104e-31
230
1
100
AcDbArc
50
44.999999999999709
51
135
0
LINE
5
211
100
AcDbEntity
8
0
100
AcDbLine
10
57.222655649367589
20
37.989351198909233
30
-1.5777218104420264e-30
11
53.315851488000305
21
34.082547037541985
31
-2.2204460492503123e-15
0
ARC
5
212
100
AcDbEntity
8
0
100
AcDbCircle
10
51.90163792562722
20
35.496760599915092
30
0
40
1.9999999999999993
210
-1.0267169982700061e-29
220
-9.6047719192999027e-30
230
1
100
AcDbArc
50
224.99999999999943
51
314.99999999999955
0
LINE
5
213
100
AcDbEntity
8
0
100
AcDbLine
10
50.487424363254114
20
34.082547037542014
30
-2.8103169748498551e-29
11
34.082547039726329
21
50.487424361070019
31
7.3955709864469857e-30
0
ARC
5
214
100
AcDbEntity
8
0
100
AcDbCircle
10
35.496760602099428
20
51.901637923443111
30
0
40
2.0000000000000022
210
-2.7890444774736617e-31
220
4.1835667162105234e-31
230
1
100
AcDbArc
50
134.99999999999986
51
224.99999999999986
0
LINE
5
215
100
AcDbEntity
8
0
100
AcDbLine
10
34.082547039726336
20
53.315851485816211
30
-9.8607613152626476e-31
11
37.989351201093477
21
57.222655647183309
31
4.9303806576313238e-31
0
ARC
5
216
100
AcDbEntity
8
0
100
AcDbCircle
10
36.575137638720406
20
58.636869209556409
30
-6.6780629940479564e-45
40
1.9999999999999867
210
5.2294583952628773e-32
220
4.0092514363684074e-31
230
1
100
AcDbArc
50
-45.000000000000561
51
45
0
LINE
5
217
100
AcDbEntity
8
0
100
AcDbLine
10
37.989351201093498
20
60.051082771929501
30
-6.4094948549207314e-31
11
35.269174651601325
21
62.771259321421667
31
-3.6977854932234928e-31
0
ARC
5
218
100
AcDbEntity
8
0
100
AcDbCircle
10
40.572475510500439
20
68.074560180320788
30
-1.313717310304516e-45
40
7.5000000000000044
210
-1.394522238736833e-31
220
-6.6239806339999921e-31
230
1
100
AcDbArc
50
135.00000000000017
51
225.00000000000003
0
LINE
5
219
100
AcDbEntity
8
0
100
AcDbLine
10
35.269174651601318
20
73.37786103921988
30
2.7733391199176144e-30
11
35.59649081589253
21
73.705177203511113
31
-2.2204460492503131e-15
0
SPLINE
5
220
100
AcDbEntity
8
0
100
AcDbSpline
70
0
71
3
72
18
73
14
74
0
42
0.000000001
43
0.0000000001
44
0.0000000001
40
0
40
0
40
0
40
0
40
0.089804880423280081
40
0.089804880423280081
40
0.17770265860682902
40
0.17770265860682902
40
0.27087172707933682
40
0.27087172707933682
40
0.3752518825739305
40
0.3752518825739305
40
0.43804907173817431
40
0.43804907173817431
40
0.50175645866034246
40
0.50175645866034246
40
0.50175645866034246
40
0.50175645866034246
10
35.161703839813718
20
77.935258920986769
30
0
10
35.434568035063492
20
77.812151996666572
30
0
10
35.67948713599317
20
77.637895901448132
30
0
10
36.083459381096105
20
77.205072180192701
30
2.2204460492503131e-15
10
36.23819788878852
20
76.954846143566826
30
0
10
36.454084304121423
20
76.391136002242106
30
2.2204460492503131e-15
10
36.50618282357361
20
76.082598812091021
30
2.2204460492503131e-15
10
36.499055452264876
20
75.42310385619983
30
2.2204460492503131e-15
10
36.425914982593504
20
75.078343062824374
30
0
10
36.216754908004262
20
74.559787433204804
30
-2.2204460492503131e-15
10
36.117772402344194
20
74.373520238403358
30
-2.2204460492503131e-15
10
35.883167074933525
20
74.021277630830838
30
0
10
35.747214253366664
20
73.855900640985254
30
-2.2204460492503131e-15
10
35.596490815892523
20
73.705177203511113
30
0
0
ARC
5
221
100
AcDbEntity
8
0
100
AcDbCircle
10
-1.1419531986689435e-08
20
3.4521905334372605e-08
30
-1.890001303758097e-42
40
85.499999973228853
210
3.3663836853327859e-32
220
-1.5187963430765059e-32
230
1
100
AcDbArc
50
65.716743751141948
51
68.589100393875441
0
SPLINE
5
222
100
AcDbEntity
8
0
100
AcDbSpline
70
0
71
3
72
14
73
10
74
0
42
0.000000001
43
0.0000000001
44
0.0000000001
40
0
40
0
40
0
40
0
40
0.14833827819269618
40
0.14833827819269618
40
0.31517116550465896
40
0.31517116550465896
40
0.41949003420931397
40
0.41949003420931397
40
0.52636644388706522
40
0.52636644388706522
40
0.52636644388706522
40
0.52636644388706522
10
31.212108105131886
20
79.599336100457364
30
0
10
30.751771712834671
20
79.779840988374701
30
0
10
30.261457104296273
20
79.866551602415015
30
0
10
29.209283421280176
20
79.863204018471876
30
0
10
28.657861449591735
20
79.750085526063273
30
0
10
27.813988353840429
20
79.417466170338059
30
0
10
27.503714140730267
20
79.254434660719397
30
0
10
26.914270426897922
20
78.864538183212886
30
0
10
26.636535966841564
20
78.636537293045009
30
0
10
26.38360258562188
20
78.383603911825332
30
2.2204460492503131e-15
0
LINE
5
223
100
AcDbEntity
8
0
100
AcDbLine
10
26.38360258562188
20
78.383603911825332
30
2.2204460492503135e-15
11
24.928932188134439
21
76.928933514337871
31
2.2204460492502926e-15
0
ARC
5
224
100
AcDbEntity
8
0
100
AcDbCircle
10
17.85786437626918
20
84.000001326203076
30
2.2204460492503344e-15
40
9.9999999999996625
210
9.6851316935409751e-31
220
-1.6110059761241988e-30
230
1
100
AcDbArc
50
296.36700738853966
51
315.00000000000017
0
LINE
5
225
100
AcDbEntity
8
0
100
AcDbLine
10
22.299057656911817
20
75.040324867537407
30
2.2204460492503154e-15
11
22.299057656911813
21
53.267518346245211
31
-4.0314413022791906e-31
0
ENDSEC
0
SECTION
2
OBJECTS
0
DICTIONARY
5
C
100
AcDbDictionary
3
ACAD_GROUP
350
D
3
ACAD_MLINESTYLE
350
17
0
DICTIONARY
5
D
100
AcDbDictionary
0
DICTIONARY
5
1A
330
C
100
AcDbDictionary
0
DICTIONARY
5
17
100
AcDbDictionary
0
ENDSEC
0
EOF
