0
SECTION
2
HEADER
9
$INSUNITS
70
4
9
$ACADVER
1
AC1014
9
$HANDSEED
5
FFFF
0
ENDSEC
0
SECTION
2
TABLES
0
TABLE
2
VPORT
5
8
100
AcDbSymbolTable
0
ENDTAB
0
TABLE
2
LTYPE
5
5
100
AcDbSymbolTable
0
LTYPE
5
14
100
AcDbSymbolTableRecord
100
AcDbLinetypeTableRecord
2
BYBLOCK
70
0
0
LTYPE
5
15
100
AcDbSymbolTableRecord
100
AcDbLinetypeTableRecord
2
BYLAYER
70
0
0
ENDTAB
0
TABLE
2
LAYER
5
2
100
AcDbSymbolTable
70
2
0
LAYER
5
50
100
AcDbSymbolTableRecord
100
AcDbLayerTableRecord
2
0
70
0
6
CONTINUOUS
0
ENDTAB
0
TABLE
2
STYLE
5
3
100
AcDbSymbolTable
70
1
0
STYLE
5
11
100
AcDbSymbolTableRecord
100
AcDbTextStyleTableRecord
2
STANDARD
70
0
0
ENDTAB
0
TABLE
2
VIEW
5
6
100
AcDbSymbolTable
70
0
0
ENDTAB
0
TABLE
2
UCS
5
7
100
AcDbSymbolTable
70
0
0
ENDTAB
0
TABLE
2
APPID
5
9
100
AcDbSymbolTable
70
2
0
APPID
5
12
100
AcDbSymbolTableRecord
100
AcDbRegAppTableRecord
2
ACAD
70
0
0
ENDTAB
0
TABLE
2
DIMSTYLE
5
A
100
AcDbSymbolTable
70
1
0
ENDTAB
0
TABLE
2
BLOCK_RECORD
5
1
100
AcDbSymbolTable
70
1
0
BLOCK_RECORD
5
1F
100
AcDbSymbolTableRecord
100
AcDbBlockTableRecord
2
*MODEL_SPACE
0
BLOCK_RECORD
5
1B
100
AcDbSymbolTableRecord
100
AcDbBlockTableRecord
2
*PAPER_SPACE
0
ENDTAB
0
ENDSEC
0
SECTION
2
BLOCKS
0
BLOCK
5
20
100
AcDbEntity
100
AcDbBlockBegin
2
*MODEL_SPACE
0
ENDBLK
5
21
100
AcDbEntity
100
AcDbBlockEnd
0
BLOCK
5
1C
100
AcDbEntity
100
AcDbBlockBegin
2
*PAPER_SPACE
0
ENDBLK
5
1D
100
AcDbEntity
100
AcDbBlockEnd
0
ENDSEC
0
SECTION
2
ENTITIES
0
CIRCLE
5
100
100
AcDbEntity
8
0
100
AcDbCircle
10
-7.6205074650122366
20
12.500003981778466
30
0
40
2.1000000000000774
210
-6.3519201081069338e-28
220
2.1767944610701345e-41
230
1
0
CIRCLE
5
101
100
AcDbEntity
8
0
100
AcDbCircle
10
-17.869982672206007
20
5.3258347369163445e-06
30
-8.8817841970012523e-15
40
2.7500000000000959
210
5.2938885142251622e-23
220
-1.9252248227550357e-36
230
1
0
CIRCLE
5
102
100
AcDbEntity
8
0
100
AcDbCircle
10
-7.6205107433658696
20
-12.49999601822161
30
0
40
2.1000000000000787
210
-6.7406113931865765e-28
220
2.4513535344176283e-41
230
1
0
LWPOLYLINE
5
103
100
AcDbEntity
8
0
100
AcDbPolyline
90
4
70
1
43
0.0
10
3.5000000000000004
20
20.000000357627865
10
-3.4999999999999982
20
20.000000357627869
42
-0.99999999999999989
10
-3.4999999999999982
20
23.000000357627869
10
3.4999999999999982
20
23.000000357627854
42
-0.99999999999999989
0
LWPOLYLINE
5
104
100
AcDbEntity
8
0
100
AcDbPolyline
90
4
70
1
43
0.0
10
3.500000000000858
20
-23.000000357626913
42
0.99999999999999989
10
3.5000000000007403
20
-20.000000357626917
10
-3.4999999999992504
20
-20.000000357627155
42
0.99999999999999989
10
-3.4999999999991416
20
-23.000000357627172
0
CIRCLE
5
105
100
AcDbEntity
8
0
100
AcDbCircle
10
50.000018445428168
20
26.000000461937272
30
-8.8817841970012523e-15
40
1.6000000000000014
210
2.26988282520917e-30
220
3.1554436208840472e-30
230
1
0
CIRCLE
5
106
100
AcDbEntity
8
0
100
AcDbCircle
10
50.000018214004442
20
-26.000000383196067
30
-8.8817841970012523e-15
40
1.6000000000000014
210
2.2698828252091563e-30
220
3.1554436208840472e-30
230
1
0
CIRCLE
5
107
100
AcDbEntity
8
0
100
AcDbCircle
10
-50.000474938798632
20
-25.999995754698762
30
0
40
1.6000000000000014
210
2.2698828252091563e-30
220
3.1554436208840472e-30
230
1
0
ARC
5
108
100
AcDbEntity
8
0
100
AcDbCircle
10
49.000018445428104
20
28.000001078676839
30
-2.2771100045278277e-44
40
7.0000000000000089
210
2.9397122372405284e-30
220
3.1554436208840507e-30
230
1
100
AcDbArc
50
272.53726156284745
51
360
0
LINE
5
109
100
AcDbEntity
8
0
100
AcDbLine
10
56.000018445428111
20
28.000001078676835
30
-2.0577985660683729e-29
11
56.000018445428104
21
31.000000105490109
31
0
0
ARC
5
110
100
AcDbEntity
8
0
100
AcDbCircle
10
51.000018445428097
20
31.000000336913821
30
-8.8817841970012523e-15
40
5.0000000000000142
210
-1.7763568394002434e-15
220
8.2218221630814338e-23
230
1
100
AcDbArc
50
-2.5613209387547816e-06
51
89.999997348079347
0
LINE
5
111
100
AcDbEntity
8
0
100
AcDbLine
10
51.00001867685183
20
36.000000336913814
30
-8.8817841970012681e-15
11
-51.000469662337615
21
36.000005057980388
31
-8.8817827635186368e-15
0
ARC
5
112
100
AcDbEntity
8
0
100
AcDbCircle
10
-51.000469893761668
20
31.000005057980388
30
0
40
5.0000000000000053
210
7.1362987650701488e-23
220
1.7763565527037241e-15
230
1
100
AcDbArc
50
89.999997348075695
51
179.99999743867906
0
LINE
5
113
100
AcDbEntity
8
0
100
AcDbLine
10
-56.000469893762514
20
30.999992684615925
30
0
11
-56.000470171469729
21
28.000006262590858
31
1.5777218104420236e-29
0
ARC
5
114
100
AcDbEntity
8
0
100
AcDbCircle
10
-49.00047017146975
20
28.000005614604433
30
8.8817841970012507e-15
40
7.0000000000000053
210
-1.2688263138573133e-15
220
1.1397416668557288e-22
230
1
100
AcDbArc
50
179.9999947369858
51
267.46273313331142
0
ARC
5
115
100
AcDbEntity
8
0
100
AcDbCircle
10
-49.974392319648331
20
6.0215735583978951
30
-8.8817841970012507e-15
40
15.000000000000002
210
1.2452599017441364e-23
220
-1.8276964203810599e-24
230
1
100
AcDbArc
50
-5.2630142080430209e-06
51
87.462733133311517
0
LINE
5
116
100
AcDbEntity
8
0
100
AcDbLine
10
-34.974392319648395
20
6.0215721698558671
30
-8.8817843837902382e-15
11
-34.974393434475253
21
-6.0215656947713869
31
-8.8817841970012523e-15
0
ARC
5
117
100
AcDbEntity
8
0
100
AcDbCircle
10
-49.974393434475189
20
-6.0215643062293616
30
-4.70197740328915e-37
40
15.000000000000009
210
3.1230198801538781e-23
220
-6.0464065033100517e-30
230
1
100
AcDbArc
50
272.53725625900557
51
359.9999947369858
0
ARC
5
118
100
AcDbEntity
8
0
100
AcDbCircle
10
-49.000475355361381
20
-27.999996542746509
30
5.5835981664058657e-37
40
7.0000000000000124
210
-2.1798358351796529e-23
220
1.999545420566967e-24
230
1
100
AcDbArc
50
92.537256259005758
51
179.9999947369858
0
LINE
5
119
100
AcDbEntity
8
0
100
AcDbLine
10
-56.00047535536136
20
-27.999995894760069
30
-1.5196827683339364e-22
11
-56.000475633069733
21
-30.999994921573286
31
-8.8817841970012523e-15
0
ARC
5
120
100
AcDbEntity
8
0
100
AcDbCircle
10
-51.00046989376132
20
-31.000005057977909
30
4.5550406094363641e-37
40
5.0000000000000853
210
6.3794456844993146e-23
220
2.9527102127496686e-30
230
1
100
AcDbArc
50
180.00000256132094
51
270.00000265192074
0
LINE
5
121
100
AcDbEntity
8
0
100
AcDbLine
10
-51.000469662337579
20
-36.000005057977987
30
-4.0813082333252905e-37
11
51.000018676851866
21
-36.00000033691132
31
1.4334822858983323e-21
0
ARC
5
122
100
AcDbEntity
8
0
100
AcDbCircle
10
51.00001844542809
20
-31.000000336911317
30
3.0856726709085047e-37
40
5.0000000000000053
210
1.0855015042175984e-23
220
2.8669645768208807e-22
230
1
100
AcDbArc
50
-89.99999734807885
51
2.561320938754782e-06
0
LINE
5
123
100
AcDbEntity
8
0
100
AcDbLine
10
56.00001844542809
20
-31.000000105487562
30
-5.4275141559257004e-23
11
56.000018445428104
21
-28.000001078674334
31
0
0
ARC
5
124
100
AcDbEntity
8
0
100
AcDbCircle
10
49.000018445428111
20
-28.000001078674345
30
4.5550406094363641e-37
40
6.9999999999999929
210
7.0796450466844894e-38
220
-4.5116039114986014e-24
230
1
100
AcDbArc
50
0
51
87.462738437153106
0
ARC
5
125
100
AcDbEntity
8
0
100
AcDbCircle
10
49.973938559074199
20
-6.0215689323124106
30
-1.4693679385278594e-37
40
15
210
-2.0506475635090582e-23
220
-2.1680146758362499e-24
230
1
100
AcDbArc
50
180
51
267.46273843715329
0
LINE
5
126
100
AcDbEntity
8
0
100
AcDbLine
10
34.973938559074199
20
-6.0215689323121522
30
-3.0759713452635829e-22
11
34.973938559074405
21
6.0215689323151702
31
0
0
ARC
5
127
100
AcDbEntity
8
0
100
AcDbCircle
10
49.973938559074398
20
6.0215689323149117
30
-8.8817841970012523e-15
40
14.999999999999996
210
2.6212590899450253e-17
220
-5.9153845761981912e-16
230
1
100
AcDbArc
50
92.537261562847291
51
180
0
CIRCLE
5
128
100
AcDbEntity
8
0
100
AcDbCircle
10
-50.000470356608858
20
26.000005090434367
30
0
40
1.6000000000000014
210
2.2698828252091563e-30
220
3.1554436208840472e-30
230
1
0
CIRCLE
5
129
100
AcDbEntity
8
0
100
AcDbCircle
10
-4.9996341917440397
20
-28.999646669417206
30
0
40
1.6000000000000558
210
-5.2939556933570921e-23
220
3.1554436144009931e-30
230
1
0
CIRCLE
5
130
100
AcDbEntity
8
0
100
AcDbCircle
10
5.0003658082563032
20
-28.999646669417203
30
0
40
1.6000000000000556
210
-5.2939556933570921e-23
220
-6.4830539727895468e-39
230
1
0
CIRCLE
5
131
100
AcDbEntity
8
0
100
AcDbCircle
10
4.999999838559285
20
29.000000506641509
30
-8.8817841970012523e-15
40
1.6000000000000556
210
-5.2939556933450985e-23
220
-3.1554436273674446e-30
230
1
0
CIRCLE
5
132
100
AcDbEntity
8
0
100
AcDbCircle
10
-5.000000161441057
20
29.000000506641509
30
-8.8817841970012523e-15
40
1.6000000000000556
210
-5.2939556933450985e-23
220
-3.1554436273674446e-30
230
1
0
ENDSEC
0
SECTION
2
OBJECTS
0
DICTIONARY
5
C
100
AcDbDictionary
3
ACAD_GROUP
350
D
3
ACAD_MLINESTYLE
350
17
0
DICTIONARY
5
D
100
AcDbDictionary
0
DICTIONARY
5
1A
330
C
100
AcDbDictionary
0
DICTIONARY
5
17
100
AcDbDictionary
0
ENDSEC
0
EOF
