%TF.GenerationSoftware,KiCad,Pcbnew,(6.0.9)*%
%TF.CreationDate,2023-01-27T09:56:42+11:00*%
%TF.ProjectId,CG22STAGE_MODULE,43473232-5354-4414-9745-5f4d4f44554c,rev?*%
%TF.SameCoordinates,Original*%
%TF.FileFunction,Copper,L1,Top*%
%TF.FilePolarity,Positive*%
%FSLAX46Y46*%
G04 Gerber Fmt 4.6, Leading zero omitted, Abs format (unit mm)*
G04 Created by KiCad (PCBNEW (6.0.9)) date 2023-01-27 09:56:42*
%MOMM*%
%LPD*%
G01*
G04 APERTURE LIST*
%TA.AperFunction,ComponentPad*%
%ADD10C,1.270000*%
%TD*%
%TA.AperFunction,ComponentPad*%
%ADD11C,1.400000*%
%TD*%
%TA.AperFunction,ComponentPad*%
%ADD12O,1.400000X1.400000*%
%TD*%
%TA.AperFunction,ComponentPad*%
%ADD13R,1.950000X1.950000*%
%TD*%
%TA.AperFunction,ComponentPad*%
%ADD14C,1.950000*%
%TD*%
%TA.AperFunction,ComponentPad*%
%ADD15R,4.000000X4.000000*%
%TD*%
%TA.AperFunction,ComponentPad*%
%ADD16C,4.000000*%
%TD*%
%TA.AperFunction,ComponentPad*%
%ADD17R,2.200000X2.200000*%
%TD*%
%TA.AperFunction,ComponentPad*%
%ADD18O,2.200000X2.200000*%
%TD*%
%TA.AperFunction,ComponentPad*%
%ADD19R,1.200000X1.200000*%
%TD*%
%TA.AperFunction,ComponentPad*%
%ADD20C,1.200000*%
%TD*%
%TA.AperFunction,ComponentPad*%
%ADD21R,4.500000X2.500000*%
%TD*%
%TA.AperFunction,ComponentPad*%
%ADD22O,4.500000X2.500000*%
%TD*%
%TA.AperFunction,ComponentPad*%
%ADD23R,2.400000X1.600000*%
%TD*%
%TA.AperFunction,ComponentPad*%
%ADD24O,2.400000X1.600000*%
%TD*%
%TA.AperFunction,ComponentPad*%
%ADD25C,1.524000*%
%TD*%
%TA.AperFunction,ComponentPad*%
%ADD26R,1.222000X1.222000*%
%TD*%
%TA.AperFunction,ComponentPad*%
%ADD27C,1.222000*%
%TD*%
%TA.AperFunction,ComponentPad*%
%ADD28R,3.200000X3.200000*%
%TD*%
%TA.AperFunction,ComponentPad*%
%ADD29O,3.200000X3.200000*%
%TD*%
%TA.AperFunction,Conductor*%
%ADD30C,0.200000*%
%TD*%
%TA.AperFunction,Conductor*%
%ADD31C,0.250000*%
%TD*%
G04 APERTURE END LIST*
D10*
%TO.P,U1,1,1*%
%TO.N,Net-(U1-Pad1)*%
X192499600Y-129730000D03*
%TO.P,U1,2,2*%
%TO.N,GND*%
X173500400Y-129730000D03*
%TO.P,U1,3,3*%
%TO.N,Net-(D1-Pad3)*%
X173500400Y-132270000D03*
%TO.P,U1,4,4*%
%TO.N,GND*%
X192499600Y-132270000D03*
%TD*%
D11*
%TO.P,R7,1*%
%TO.N,Net-(U1-Pad1)*%
X186810000Y-124400000D03*
D12*
%TO.P,R7,2*%
%TO.N,+3V*%
X179190000Y-124400000D03*
%TD*%
D13*
%TO.P,J3,1,1*%
%TO.N,+3V*%
X164750000Y-87000000D03*
D14*
%TO.P,J3,2,2*%
%TO.N,GND*%
X159750000Y-87000000D03*
%TD*%
D13*
%TO.P,J4,1,1*%
%TO.N,+3V*%
X159750000Y-130000000D03*
D14*
%TO.P,J4,2,2*%
%TO.N,GND*%
X164750000Y-130000000D03*
%TD*%
D11*
%TO.P,R5,1*%
%TO.N,Net-(R4-Pad1)*%
X170250000Y-97420000D03*
D12*
%TO.P,R5,2*%
%TO.N,Net-(R5-Pad2)*%
X170250000Y-105040000D03*
%TD*%
D15*
%TO.P,C1,1*%
%TO.N,Net-(C1-Pad1)*%
X212500000Y-112730499D03*
D16*
%TO.P,C1,2*%
%TO.N,GND*%
X212500000Y-102730499D03*
%TD*%
D11*
%TO.P,R1,1*%
%TO.N,Net-(R1-Pad1)*%
X174750000Y-97420000D03*
D12*
%TO.P,R1,2*%
%TO.N,Net-(R1-Pad2)*%
X174750000Y-105040000D03*
%TD*%
D17*
%TO.P,D4,1,K*%
%TO.N,Net-(C1-Pad1)*%
X193900000Y-114920000D03*
D18*
%TO.P,D4,2,A*%
%TO.N,+400V*%
X193900000Y-125080000D03*
%TD*%
D13*
%TO.P,J6,1,1*%
%TO.N,+400V*%
X198500000Y-130000000D03*
D14*
%TO.P,J6,2,2*%
%TO.N,GND*%
X203500000Y-130000000D03*
%TD*%
D17*
%TO.P,D3,1,K*%
%TO.N,Net-(D3-Pad1)*%
X193400000Y-83820000D03*
D18*
%TO.P,D3,2,A*%
%TO.N,Net-(C1-Pad1)*%
X193400000Y-93980000D03*
%TD*%
D19*
%TO.P,C3,1*%
%TO.N,+3V*%
X155972599Y-94000000D03*
D20*
%TO.P,C3,2*%
%TO.N,GND*%
X153972599Y-94000000D03*
%TD*%
D11*
%TO.P,R4,1*%
%TO.N,Net-(R4-Pad1)*%
X172500000Y-97420000D03*
D12*
%TO.P,R4,2*%
%TO.N,GND*%
X172500000Y-105040000D03*
%TD*%
D11*
%TO.P,R2,1*%
%TO.N,Net-(R1-Pad1)*%
X177000000Y-97420000D03*
D12*
%TO.P,R2,2*%
%TO.N,Net-(R2-Pad2)*%
X177000000Y-105040000D03*
%TD*%
D11*
%TO.P,R6,1*%
%TO.N,+3V*%
X168890000Y-126300000D03*
D12*
%TO.P,R6,2*%
%TO.N,Net-(D1-Pad3)*%
X176510000Y-126300000D03*
%TD*%
D21*
%TO.P,D1,1,K*%
%TO.N,GND*%
X172180000Y-111100000D03*
D22*
%TO.P,D1,2,A*%
%TO.N,Net-(D1-Pad2)*%
X172180000Y-116550000D03*
%TO.P,D1,3,G*%
%TO.N,Net-(D1-Pad3)*%
X172180000Y-122000000D03*
%TD*%
D23*
%TO.P,U2,1,LED1*%
%TO.N,Net-(LED1-Pad11)*%
X167630000Y-117650000D03*
D24*
%TO.P,U2,2,V-*%
%TO.N,GND*%
X167630000Y-115110000D03*
%TO.P,U2,3,V+*%
%TO.N,+18V*%
X167630000Y-112570000D03*
%TO.P,U2,4,RLO*%
%TO.N,GND*%
X167630000Y-110030000D03*
%TO.P,U2,5,SIG*%
%TO.N,Net-(R1-Pad2)*%
X167630000Y-107490000D03*
%TO.P,U2,6,RHI*%
%TO.N,Net-(R5-Pad2)*%
X167630000Y-104950000D03*
%TO.P,U2,7,REFOUT*%
X167630000Y-102410000D03*
%TO.P,U2,8,REFADJ*%
%TO.N,Net-(R4-Pad1)*%
X167630000Y-99870000D03*
%TO.P,U2,9,MODE*%
%TO.N,+18V*%
X167630000Y-97330000D03*
%TO.P,U2,10,LED10*%
%TO.N,Net-(LED1-Pad20)*%
X160010000Y-97330000D03*
%TO.P,U2,11,LED9*%
%TO.N,Net-(LED1-Pad19)*%
X160010000Y-99870000D03*
%TO.P,U2,12,LED8*%
%TO.N,Net-(LED1-Pad18)*%
X160010000Y-102410000D03*
%TO.P,U2,13,LED7*%
%TO.N,Net-(LED1-Pad17)*%
X160010000Y-104950000D03*
%TO.P,U2,14,LED6*%
%TO.N,Net-(LED1-Pad16)*%
X160010000Y-107490000D03*
%TO.P,U2,15,LED5*%
%TO.N,Net-(LED1-Pad15)*%
X160010000Y-110030000D03*
%TO.P,U2,16,LED4*%
%TO.N,Net-(LED1-Pad14)*%
X160010000Y-112570000D03*
%TO.P,U2,17,LED3*%
%TO.N,Net-(LED1-Pad13)*%
X160010000Y-115110000D03*
%TO.P,U2,18,LED2*%
%TO.N,Net-(LED1-Pad12)*%
X160010000Y-117650000D03*
%TD*%
D25*
%TO.P,LED1,1,1*%
%TO.N,+3V*%
X149190000Y-98050000D03*
%TO.P,LED1,2,2*%
X149190000Y-100590000D03*
%TO.P,LED1,3,3*%
X149190000Y-103130000D03*
%TO.P,LED1,4,4*%
X149190000Y-105670000D03*
%TO.P,LED1,5,5*%
X149190000Y-108210000D03*
%TO.P,LED1,6,6*%
X149190000Y-110750000D03*
%TO.P,LED1,7,7*%
X149190000Y-113290000D03*
%TO.P,LED1,8,8*%
X149190000Y-115830000D03*
%TO.P,LED1,9,9*%
X149190000Y-118370000D03*
%TO.P,LED1,10,10*%
X149190000Y-120910000D03*
%TO.P,LED1,11,11*%
%TO.N,Net-(LED1-Pad11)*%
X156810000Y-120910000D03*
%TO.P,LED1,12,12*%
%TO.N,Net-(LED1-Pad12)*%
X156810000Y-118370000D03*
%TO.P,LED1,13,13*%
%TO.N,Net-(LED1-Pad13)*%
X156810000Y-115830000D03*
%TO.P,LED1,14,14*%
%TO.N,Net-(LED1-Pad14)*%
X156810000Y-113290000D03*
%TO.P,LED1,15,15*%
%TO.N,Net-(LED1-Pad15)*%
X156810000Y-110750000D03*
%TO.P,LED1,16,16*%
%TO.N,Net-(LED1-Pad16)*%
X156810000Y-108210000D03*
%TO.P,LED1,17,17*%
%TO.N,Net-(LED1-Pad17)*%
X156810000Y-105670000D03*
%TO.P,LED1,18,18*%
%TO.N,Net-(LED1-Pad18)*%
X156810000Y-103130000D03*
%TO.P,LED1,19,19*%
%TO.N,Net-(LED1-Pad19)*%
X156810000Y-100590000D03*
%TO.P,LED1,20,20*%
%TO.N,Net-(LED1-Pad20)*%
X156810000Y-98050000D03*
%TD*%
D26*
%TO.P,VR1,1*%
%TO.N,GND*%
X171770000Y-84615500D03*
D27*
%TO.P,VR1,2*%
%TO.N,Net-(R1-Pad2)*%
X174310000Y-87155500D03*
%TO.P,VR1,3*%
X171770000Y-89695500D03*
%TD*%
D13*
%TO.P,J1,1,1*%
%TO.N,+18V*%
X153750000Y-87000000D03*
D14*
%TO.P,J1,2,2*%
%TO.N,GND*%
X148750000Y-87000000D03*
%TD*%
D13*
%TO.P,J7,1,1*%
%TO.N,Net-(C1-Pad1)*%
X209500000Y-130000000D03*
D14*
%TO.P,J7,2,2*%
%TO.N,Net-(D1-Pad2)*%
X214500000Y-130000000D03*
%TD*%
D19*
%TO.P,C2,1*%
%TO.N,+18V*%
X151222599Y-94000000D03*
D20*
%TO.P,C2,2*%
%TO.N,GND*%
X149222599Y-94000000D03*
%TD*%
D28*
%TO.P,D2,1,A1*%
%TO.N,Net-(C1-Pad1)*%
X232100000Y-129750000D03*
D29*
%TO.P,D2,2,A2*%
%TO.N,Net-(D1-Pad2)*%
X219400000Y-129750000D03*
%TD*%
D13*
%TO.P,J2,1,1*%
%TO.N,+400V*%
X203000000Y-87000000D03*
D14*
%TO.P,J2,2,2*%
%TO.N,GND*%
X198000000Y-87000000D03*
%TD*%
D11*
%TO.P,R3,1*%
%TO.N,Net-(D3-Pad1)*%
X179250000Y-97420000D03*
D12*
%TO.P,R3,2*%
%TO.N,Net-(R2-Pad2)*%
X179250000Y-105040000D03*
%TD*%
D13*
%TO.P,J5,1,1*%
%TO.N,+18V*%
X148750000Y-130000000D03*
D14*
%TO.P,J5,2,2*%
%TO.N,GND*%
X153750000Y-130000000D03*
%TD*%
D30*
%TO.N,+3V*%
X179190000Y-129110000D02*
X179190000Y-124400000D01*
X174700000Y-133600000D02*
X179190000Y-129110000D01*
X172700000Y-133600000D02*
X174700000Y-133600000D01*
X171900000Y-132800000D02*
X172700000Y-133600000D01*
X171900000Y-129310000D02*
X171900000Y-132800000D01*
X168890000Y-126300000D02*
X171900000Y-129310000D01*
D31*
%TO.N,Net-(D1-Pad3)*%
X176510000Y-129260400D02*
X176510000Y-126300000D01*
X173500400Y-132270000D02*
X176510000Y-129260400D01*
%TO.N,Net-(U1-Pad1)*%
X192140000Y-129730000D02*
X192499600Y-129730000D01*
X186810000Y-124400000D02*
X192140000Y-129730000D01*
D30*
%TO.N,+3V*%
X167500000Y-132400000D02*
X169000000Y-130900000D01*
X169000000Y-130900000D02*
X168890000Y-130790000D01*
X168890000Y-130790000D02*
X168890000Y-126300000D01*
X162150000Y-132400000D02*
X167500000Y-132400000D01*
X159750000Y-130000000D02*
X162150000Y-132400000D01*
%TO.N,GND*%
X166000000Y-102084365D02*
X166000000Y-109070000D01*
X172215635Y-105040000D02*
X168485635Y-101310000D01*
X168485635Y-101310000D02*
X166774365Y-101310000D01*
X166774365Y-101310000D02*
X166000000Y-102084365D01*
X166000000Y-109070000D02*
X167630000Y-110700000D01*
D31*
%TO.N,+18V*%
X167630000Y-113240000D02*
X164805000Y-110415000D01*
X153750000Y-87000000D02*
X153750000Y-91472599D01*
X164805000Y-110415000D02*
X164805000Y-100155000D01*
X164805000Y-100155000D02*
X167080000Y-97880000D01*
X148750000Y-130000000D02*
X146500000Y-127750000D01*
X146500000Y-127750000D02*
X146500000Y-86000000D01*
X148000000Y-84500000D02*
X151250000Y-84500000D01*
X151250000Y-84500000D02*
X153750000Y-87000000D01*
X146500000Y-86000000D02*
X148000000Y-84500000D01*
X153750000Y-91472599D02*
X151222599Y-94000000D01*
%TO.N,Net-(D1-Pad3)*%
X172210000Y-122000000D02*
X172180000Y-122000000D01*
X176510000Y-126300000D02*
X172210000Y-122000000D01*
D30*
%TO.N,+3V*%
X150660000Y-120910000D02*
X159750000Y-130000000D01*
X149190000Y-103130000D02*
X149190000Y-105670000D01*
X155972599Y-94000000D02*
X151922599Y-98050000D01*
X164750000Y-87000000D02*
X161250000Y-90500000D01*
X151922599Y-98050000D02*
X149190000Y-98050000D01*
X149190000Y-105670000D02*
X149190000Y-108210000D01*
X161250000Y-90500000D02*
X159472599Y-90500000D01*
X149190000Y-108210000D02*
X149190000Y-110750000D01*
X149190000Y-98050000D02*
X149190000Y-100590000D01*
X149190000Y-115830000D02*
X149190000Y-118370000D01*
X149190000Y-110750000D02*
X149190000Y-113290000D01*
X149190000Y-120910000D02*
X150660000Y-120910000D01*
X149190000Y-113290000D02*
X149190000Y-115830000D01*
X159472599Y-90500000D02*
X155972599Y-94000000D01*
X149190000Y-118370000D02*
X149190000Y-120910000D01*
X149190000Y-100590000D02*
X149190000Y-103130000D01*
D31*
%TO.N,Net-(LED1-Pad11)*%
X166950000Y-119000000D02*
X167630000Y-118320000D01*
X167630000Y-118320000D02*
X167630000Y-117650000D01*
X156810000Y-120910000D02*
X158720000Y-119000000D01*
X158720000Y-119000000D02*
X166950000Y-119000000D01*
D30*
%TO.N,Net-(LED1-Pad12)*%
X159340000Y-118320000D02*
X156860000Y-118320000D01*
X160010000Y-117650000D02*
X159340000Y-118320000D01*
%TO.N,Net-(LED1-Pad13)*%
X160010000Y-115110000D02*
X159340000Y-115780000D01*
X159340000Y-115780000D02*
X156860000Y-115780000D01*
%TO.N,Net-(LED1-Pad14)*%
X159340000Y-113240000D02*
X156860000Y-113240000D01*
X160010000Y-112570000D02*
X159340000Y-113240000D01*
%TO.N,Net-(LED1-Pad15)*%
X160010000Y-110030000D02*
X159340000Y-110700000D01*
X159340000Y-110700000D02*
X156860000Y-110700000D01*
%TO.N,Net-(LED1-Pad16)*%
X159340000Y-108160000D02*
X156860000Y-108160000D01*
X160010000Y-107490000D02*
X159340000Y-108160000D01*
%TO.N,Net-(LED1-Pad17)*%
X159340000Y-105620000D02*
X156860000Y-105620000D01*
X160010000Y-104950000D02*
X159340000Y-105620000D01*
%TO.N,Net-(LED1-Pad18)*%
X160010000Y-102410000D02*
X159340000Y-103080000D01*
X159340000Y-103080000D02*
X156860000Y-103080000D01*
%TO.N,Net-(LED1-Pad19)*%
X160010000Y-99870000D02*
X159340000Y-100540000D01*
X159340000Y-100540000D02*
X156860000Y-100540000D01*
%TO.N,Net-(LED1-Pad20)*%
X160010000Y-97330000D02*
X159340000Y-98000000D01*
X159340000Y-98000000D02*
X156860000Y-98000000D01*
%TO.N,Net-(R1-Pad1)*%
X174750000Y-97420000D02*
X177000000Y-97420000D01*
%TO.N,Net-(R1-Pad2)*%
X171770000Y-89695500D02*
X174310000Y-87155500D01*
X171630000Y-108160000D02*
X168300000Y-108160000D01*
X168300000Y-108160000D02*
X167630000Y-107490000D01*
X180500000Y-99290000D02*
X171630000Y-108160000D01*
X171770000Y-89695500D02*
X172945500Y-89695500D01*
X180500000Y-97250000D02*
X180500000Y-99290000D01*
X172945500Y-89695500D02*
X180500000Y-97250000D01*
D31*
%TO.N,Net-(R4-Pad1)*%
X167630000Y-100040000D02*
X170250000Y-97420000D01*
X170250000Y-97420000D02*
X172500000Y-97420000D01*
D30*
%TO.N,Net-(R5-Pad2)*%
X170250000Y-105040000D02*
X167720000Y-105040000D01*
X167630000Y-102410000D02*
X167630000Y-104950000D01*
%TO.N,Net-(D1-Pad2)*%
X172430000Y-116800000D02*
X201300000Y-116800000D01*
X214750000Y-129750000D02*
X214500000Y-130000000D01*
X219400000Y-129750000D02*
X214750000Y-129750000D01*
X201300000Y-116800000D02*
X214500000Y-130000000D01*
%TD*%
%TA.AperFunction,Conductor*%
%TO.N,GND*%
G36*
X191736939Y-82528502D02*
G01*
X191783432Y-82582158D01*
X191794081Y-82648108D01*
X191791500Y-82671866D01*
X191791500Y-84968134D01*
X191798255Y-85030316D01*
X191849385Y-85166705D01*
X191936739Y-85283261D01*
X192053295Y-85370615D01*
X192189684Y-85421745D01*
X192251866Y-85428500D01*
X194548134Y-85428500D01*
X194610316Y-85421745D01*
X194746705Y-85370615D01*
X194863261Y-85283261D01*
X194950615Y-85166705D01*
X195001745Y-85030316D01*
X195008500Y-84968134D01*
X195008500Y-82671866D01*
X195005919Y-82648108D01*
X195018447Y-82578226D01*
X195066767Y-82526210D01*
X195131182Y-82508500D01*
X233865500Y-82508500D01*
X233933621Y-82528502D01*
X233980114Y-82582158D01*
X233991500Y-82634500D01*
X233991500Y-127534379D01*
X233971498Y-127602500D01*
X233917842Y-127648993D01*
X233847568Y-127659097D01*
X233821275Y-127652363D01*
X233817716Y-127651029D01*
X233817715Y-127651029D01*
X233810316Y-127648255D01*
X233748134Y-127641500D01*
X230451866Y-127641500D01*
X230389684Y-127648255D01*
X230253295Y-127699385D01*
X230136739Y-127786739D01*
X230049385Y-127903295D01*
X229998255Y-128039684D01*
X229991500Y-128101866D01*
X229991500Y-131398134D01*
X229998255Y-131460316D01*
X230049385Y-131596705D01*
X230136739Y-131713261D01*
X230253295Y-131800615D01*
X230389684Y-131851745D01*
X230451866Y-131858500D01*
X233748134Y-131858500D01*
X233810316Y-131851745D01*
X233817716Y-131848971D01*
X233821275Y-131847637D01*
X233824238Y-131847420D01*
X233825400Y-131847144D01*
X233825445Y-131847332D01*
X233892082Y-131842457D01*
X233954450Y-131876380D01*
X233988577Y-131938637D01*
X233991500Y-131965621D01*
X233991500Y-134365500D01*
X233971498Y-134433621D01*
X233917842Y-134480114D01*
X233865500Y-134491500D01*
X146134500Y-134491500D01*
X146066379Y-134471498D01*
X146019886Y-134417842D01*
X146008500Y-134365500D01*
X146008500Y-128458594D01*
X146028502Y-128390473D01*
X146082158Y-128343980D01*
X146152432Y-128333876D01*
X146217012Y-128363370D01*
X146223595Y-128369499D01*
X147229595Y-129375499D01*
X147263621Y-129437811D01*
X147266500Y-129464594D01*
X147266500Y-131023134D01*
X147273255Y-131085316D01*
X147324385Y-131221705D01*
X147411739Y-131338261D01*
X147528295Y-131425615D01*
X147664684Y-131476745D01*
X147726866Y-131483500D01*
X149773134Y-131483500D01*
X149835316Y-131476745D01*
X149971705Y-131425615D01*
X150088261Y-131338261D01*
X150175615Y-131221705D01*
X150177520Y-131216624D01*
X152898621Y-131216624D01*
X152902988Y-131222774D01*
X153102563Y-131339397D01*
X153111846Y-131343844D01*
X153330007Y-131427152D01*
X153339905Y-131430028D01*
X153568744Y-131476585D01*
X153578972Y-131477804D01*
X153812340Y-131486362D01*
X153822626Y-131485895D01*
X154054262Y-131456222D01*
X154064340Y-131454080D01*
X154288014Y-131386974D01*
X154297612Y-131383212D01*
X154507324Y-131280476D01*
X154516169Y-131275203D01*
X154588869Y-131223347D01*
X154597270Y-131212646D01*
X154590283Y-131199493D01*
X153762812Y-130372022D01*
X153748868Y-130364408D01*
X153747035Y-130364539D01*
X153740420Y-130368790D01*
X152905881Y-131203329D01*
X152898621Y-131216624D01*
X150177520Y-131216624D01*
X150226745Y-131085316D01*
X150233500Y-131023134D01*
X150233500Y-129968799D01*
X152262658Y-129968799D01*
X152276102Y-130201942D01*
X152277535Y-130212144D01*
X152328873Y-130439949D01*
X152331956Y-130449789D01*
X152419814Y-130666156D01*
X152424457Y-130675347D01*
X152525555Y-130840325D01*
X152536011Y-130849785D01*
X152544789Y-130846001D01*
X153377978Y-130012812D01*
X153384356Y-130001132D01*
X154114408Y-130001132D01*
X154114539Y-130002965D01*
X154118790Y-130009580D01*
X154950045Y-130840835D01*
X154962055Y-130847394D01*
X154973794Y-130838426D01*
X155022518Y-130770619D01*
X155027829Y-130761780D01*
X155131291Y-130552442D01*
X155135089Y-130542849D01*
X155202974Y-130319413D01*
X155205151Y-130309343D01*
X155235869Y-130076015D01*
X155236388Y-130069340D01*
X155238001Y-130003364D01*
X155237807Y-129996647D01*
X155218525Y-129762108D01*
X155216842Y-129751946D01*
X155159952Y-129525453D01*
X155156634Y-129515706D01*
X155063513Y-129301542D01*
X155058646Y-129292467D01*
X154973465Y-129160796D01*
X154962779Y-129151593D01*
X154953214Y-129155996D01*
X154122022Y-129987188D01*
X154114408Y-130001132D01*
X153384356Y-130001132D01*
X153385592Y-129998868D01*
X153385461Y-129997035D01*
X153381210Y-129990420D01*
X152549892Y-129159102D01*
X152538356Y-129152802D01*
X152526073Y-129162426D01*
X152459036Y-129260698D01*
X152453943Y-129269662D01*
X152355619Y-129481483D01*
X152352062Y-129491151D01*
X152289657Y-129716178D01*
X152287726Y-129726298D01*
X152262910Y-129958510D01*
X152262658Y-129968799D01*
X150233500Y-129968799D01*
X150233500Y-128976866D01*
X150226745Y-128914684D01*
X150178932Y-128787142D01*
X152901938Y-128787142D01*
X152908684Y-128799474D01*
X153737188Y-129627978D01*
X153751132Y-129635592D01*
X153752965Y-129635461D01*
X153759580Y-129631210D01*
X154592391Y-128798399D01*
X154599412Y-128785543D01*
X154591639Y-128774875D01*
X154577548Y-128763746D01*
X154568970Y-128758047D01*
X154364526Y-128645189D01*
X154355126Y-128640964D01*
X154134993Y-128563011D01*
X154125036Y-128560381D01*
X153895129Y-128519427D01*
X153884878Y-128518458D01*
X153651367Y-128515605D01*
X153641083Y-128516325D01*
X153410253Y-128551647D01*
X153400225Y-128554036D01*
X153178263Y-128626584D01*
X153168753Y-128630581D01*
X152961624Y-128738405D01*
X152952904Y-128743897D01*
X152910391Y-128775817D01*
X152901938Y-128787142D01*
X150178932Y-128787142D01*
X150175615Y-128778295D01*
X150088261Y-128661739D01*
X149971705Y-128574385D01*
X149835316Y-128523255D01*
X149773134Y-128516500D01*
X148214594Y-128516500D01*
X148146473Y-128496498D01*
X148125503Y-128479599D01*
X147170403Y-127524498D01*
X147136379Y-127462188D01*
X147133500Y-127435405D01*
X147133500Y-120910000D01*
X147914647Y-120910000D01*
X147934022Y-121131463D01*
X147991560Y-121346196D01*
X147993882Y-121351177D01*
X147993883Y-121351178D01*
X148083186Y-121542689D01*
X148083189Y-121542694D01*
X148085512Y-121547676D01*
X148088668Y-121552183D01*
X148088669Y-121552185D01*
X148190688Y-121697883D01*
X148213023Y-121729781D01*
X148370219Y-121886977D01*
X148374727Y-121890134D01*
X148374730Y-121890136D01*
X148414887Y-121918254D01*
X148552323Y-122014488D01*
X148557305Y-122016811D01*
X148557310Y-122016814D01*
X148748822Y-122106117D01*
X148753804Y-122108440D01*
X148759112Y-122109862D01*
X148759114Y-122109863D01*
X148824949Y-122127503D01*
X148968537Y-122165978D01*
X149190000Y-122185353D01*
X149411463Y-122165978D01*
X149555051Y-122127503D01*
X149620886Y-122109863D01*
X149620888Y-122109862D01*
X149626196Y-122108440D01*
X149631178Y-122106117D01*
X149822690Y-122016814D01*
X149822695Y-122016811D01*
X149827677Y-122014488D01*
X149965113Y-121918254D01*
X150005270Y-121890136D01*
X150005273Y-121890134D01*
X150009781Y-121886977D01*
X150166977Y-121729781D01*
X150189313Y-121697883D01*
X150267104Y-121586785D01*
X150322561Y-121542457D01*
X150393180Y-121535148D01*
X150459412Y-121569961D01*
X158229595Y-129340144D01*
X158263621Y-129402456D01*
X158266500Y-129429239D01*
X158266500Y-131023134D01*
X158273255Y-131085316D01*
X158324385Y-131221705D01*
X158411739Y-131338261D01*
X158528295Y-131425615D01*
X158664684Y-131476745D01*
X158726866Y-131483500D01*
X160320761Y-131483500D01*
X160388882Y-131503502D01*
X160409856Y-131520405D01*
X161685685Y-132796234D01*
X161696552Y-132808625D01*
X161716013Y-132833987D01*
X161722563Y-132839013D01*
X161747921Y-132858471D01*
X161747937Y-132858485D01*
X161797305Y-132896366D01*
X161843124Y-132931524D01*
X161991149Y-132992838D01*
X162150000Y-133013751D01*
X162181699Y-133009578D01*
X162198144Y-133008500D01*
X167451864Y-133008500D01*
X167468307Y-133009578D01*
X167500000Y-133013750D01*
X167508189Y-133012672D01*
X167539874Y-133008501D01*
X167539884Y-133008500D01*
X167539885Y-133008500D01*
X167639457Y-132995391D01*
X167650664Y-132993916D01*
X167650666Y-132993915D01*
X167658851Y-132992838D01*
X167806876Y-132931524D01*
X167821295Y-132920460D01*
X167902069Y-132858480D01*
X167902075Y-132858474D01*
X167902079Y-132858471D01*
X167933987Y-132833987D01*
X167939017Y-132827432D01*
X167953452Y-132808621D01*
X167964319Y-132796230D01*
X169396234Y-131364315D01*
X169408625Y-131353448D01*
X169427437Y-131339013D01*
X169433987Y-131333987D01*
X169458474Y-131302075D01*
X169458477Y-131302072D01*
X169531523Y-131206876D01*
X169592837Y-131058851D01*
X169613750Y-130900000D01*
X169611366Y-130881893D01*
X169593916Y-130749336D01*
X169593915Y-130749333D01*
X169592838Y-130741150D01*
X169531523Y-130593124D01*
X169524538Y-130584021D01*
X169523556Y-130581480D01*
X169522368Y-130579423D01*
X169522689Y-130579238D01*
X169498937Y-130517801D01*
X169498500Y-130507317D01*
X169498500Y-128073239D01*
X169518502Y-128005118D01*
X169572158Y-127958625D01*
X169642432Y-127948521D01*
X169707012Y-127978015D01*
X169713595Y-127984144D01*
X171254595Y-129525144D01*
X171288621Y-129587456D01*
X171291500Y-129614239D01*
X171291500Y-132751864D01*
X171290422Y-132768307D01*
X171286250Y-132800000D01*
X171291500Y-132839880D01*
X171291500Y-132839885D01*
X171304609Y-132939457D01*
X171307162Y-132958851D01*
X171368476Y-133106876D01*
X171373503Y-133113427D01*
X171373504Y-133113429D01*
X171441520Y-133202069D01*
X171441526Y-133202075D01*
X171466013Y-133233987D01*
X171472568Y-133239017D01*
X171491379Y-133253452D01*
X171503770Y-133264319D01*
X172235685Y-133996234D01*
X172246552Y-134008625D01*
X172266013Y-134033987D01*
X172272563Y-134039013D01*
X172297921Y-134058471D01*
X172297937Y-134058485D01*
X172347305Y-134096366D01*
X172393124Y-134131524D01*
X172541149Y-134192838D01*
X172549336Y-134193916D01*
X172549337Y-134193916D01*
X172560542Y-134195391D01*
X172591738Y-134199498D01*
X172660115Y-134208500D01*
X172660118Y-134208500D01*
X172660126Y-134208501D01*
X172691811Y-134212672D01*
X172700000Y-134213750D01*
X172731693Y-134209578D01*
X172748136Y-134208500D01*
X174651864Y-134208500D01*
X174668307Y-134209578D01*
X174700000Y-134213750D01*
X174708189Y-134212672D01*
X174739874Y-134208501D01*
X174739884Y-134208500D01*
X174739885Y-134208500D01*
X174739901Y-134208498D01*
X174839457Y-134195391D01*
X174850664Y-134193916D01*
X174850666Y-134193915D01*
X174858851Y-134192838D01*
X175006876Y-134131524D01*
X175102062Y-134058485D01*
X175102069Y-134058480D01*
X175102075Y-134058474D01*
X175127434Y-134039015D01*
X175133987Y-134033987D01*
X175139017Y-134027432D01*
X175153452Y-134008621D01*
X175164319Y-133996230D01*
X175924019Y-133236530D01*
X191897430Y-133236530D01*
X191907310Y-133249017D01*
X191947072Y-133275585D01*
X191957175Y-133281071D01*
X192139573Y-133359435D01*
X192150516Y-133362990D01*
X192344133Y-133406802D01*
X192355542Y-133408304D01*
X192553908Y-133416097D01*
X192565390Y-133415495D01*
X192761850Y-133387011D01*
X192773045Y-133384323D01*
X192961024Y-133320512D01*
X192971531Y-133315834D01*
X193093345Y-133247614D01*
X193103210Y-133237536D01*
X193100254Y-133229864D01*
X192512412Y-132642022D01*
X192498468Y-132634408D01*
X192496635Y-132634539D01*
X192490020Y-132638790D01*
X191903627Y-133225183D01*
X191897430Y-133236530D01*
X175924019Y-133236530D01*
X176914831Y-132245718D01*
X191352474Y-132245718D01*
X191365458Y-132443803D01*
X191367259Y-132455173D01*
X191416123Y-132647576D01*
X191419964Y-132658423D01*
X191503075Y-132838705D01*
X191508823Y-132848661D01*
X191520275Y-132864867D01*
X191530863Y-132873254D01*
X191544164Y-132866226D01*
X192127578Y-132282812D01*
X192133956Y-132271132D01*
X192864008Y-132271132D01*
X192864139Y-132272965D01*
X192868390Y-132279580D01*
X193455550Y-132866740D01*
X193467930Y-132873500D01*
X193474510Y-132868574D01*
X193545434Y-132741931D01*
X193550112Y-132731424D01*
X193613923Y-132543445D01*
X193616611Y-132532250D01*
X193645391Y-132333750D01*
X193646021Y-132326367D01*
X193647400Y-132273704D01*
X193647157Y-132266305D01*
X193628804Y-132066566D01*
X193626707Y-132055251D01*
X193572822Y-131864190D01*
X193568700Y-131853451D01*
X193480899Y-131675409D01*
X193478792Y-131671970D01*
X193469476Y-131664980D01*
X193457059Y-131671751D01*
X192871622Y-132257188D01*
X192864008Y-132271132D01*
X192133956Y-132271132D01*
X192135192Y-132268868D01*
X192135061Y-132267035D01*
X192130810Y-132260420D01*
X191542226Y-131671836D01*
X191529846Y-131665076D01*
X191523880Y-131669542D01*
X191441773Y-131825602D01*
X191437368Y-131836236D01*
X191378500Y-132025822D01*
X191376108Y-132037076D01*
X191352775Y-132234217D01*
X191352474Y-132245718D01*
X176914831Y-132245718D01*
X177857410Y-131303139D01*
X191896851Y-131303139D01*
X191900338Y-131311528D01*
X192486788Y-131897978D01*
X192500732Y-131905592D01*
X192502565Y-131905461D01*
X192509180Y-131901210D01*
X193095257Y-131315133D01*
X193102017Y-131302753D01*
X193095987Y-131294698D01*
X193025620Y-131250299D01*
X193015369Y-131245076D01*
X192830989Y-131171516D01*
X192819952Y-131168247D01*
X192625254Y-131129518D01*
X192613810Y-131128315D01*
X192571366Y-131127760D01*
X192545502Y-131119797D01*
X192539835Y-131123132D01*
X192507462Y-131126924D01*
X192415319Y-131125718D01*
X192403839Y-131126621D01*
X192208199Y-131160238D01*
X192197079Y-131163218D01*
X192010834Y-131231927D01*
X192000456Y-131236877D01*
X191906449Y-131292806D01*
X191896851Y-131303139D01*
X177857410Y-131303139D01*
X178137415Y-131023134D01*
X197016500Y-131023134D01*
X197023255Y-131085316D01*
X197074385Y-131221705D01*
X197161739Y-131338261D01*
X197278295Y-131425615D01*
X197414684Y-131476745D01*
X197476866Y-131483500D01*
X199523134Y-131483500D01*
X199585316Y-131476745D01*
X199721705Y-131425615D01*
X199838261Y-131338261D01*
X199925615Y-131221705D01*
X199927520Y-131216624D01*
X202648621Y-131216624D01*
X202652988Y-131222774D01*
X202852563Y-131339397D01*
X202861846Y-131343844D01*
X203080007Y-131427152D01*
X203089905Y-131430028D01*
X203318744Y-131476585D01*
X203328972Y-131477804D01*
X203562340Y-131486362D01*
X203572626Y-131485895D01*
X203804262Y-131456222D01*
X203814340Y-131454080D01*
X204038014Y-131386974D01*
X204047612Y-131383212D01*
X204257324Y-131280476D01*
X204266169Y-131275203D01*
X204338869Y-131223347D01*
X204347270Y-131212646D01*
X204340283Y-131199493D01*
X204163924Y-131023134D01*
X208016500Y-131023134D01*
X208023255Y-131085316D01*
X208074385Y-131221705D01*
X208161739Y-131338261D01*
X208278295Y-131425615D01*
X208414684Y-131476745D01*
X208476866Y-131483500D01*
X210523134Y-131483500D01*
X210585316Y-131476745D01*
X210721705Y-131425615D01*
X210838261Y-131338261D01*
X210925615Y-131221705D01*
X210976745Y-131085316D01*
X210983500Y-131023134D01*
X210983500Y-128976866D01*
X210976745Y-128914684D01*
X210925615Y-128778295D01*
X210838261Y-128661739D01*
X210721705Y-128574385D01*
X210585316Y-128523255D01*
X210523134Y-128516500D01*
X208476866Y-128516500D01*
X208414684Y-128523255D01*
X208278295Y-128574385D01*
X208161739Y-128661739D01*
X208074385Y-128778295D01*
X208023255Y-128914684D01*
X208016500Y-128976866D01*
X208016500Y-131023134D01*
X204163924Y-131023134D01*
X203512812Y-130372022D01*
X203498868Y-130364408D01*
X203497035Y-130364539D01*
X203490420Y-130368790D01*
X202655881Y-131203329D01*
X202648621Y-131216624D01*
X199927520Y-131216624D01*
X199976745Y-131085316D01*
X199983500Y-131023134D01*
X199983500Y-129968799D01*
X202012658Y-129968799D01*
X202026102Y-130201942D01*
X202027535Y-130212144D01*
X202078873Y-130439949D01*
X202081956Y-130449789D01*
X202169814Y-130666156D01*
X202174457Y-130675347D01*
X202275555Y-130840325D01*
X202286011Y-130849785D01*
X202294789Y-130846001D01*
X203127978Y-130012812D01*
X203134356Y-130001132D01*
X203864408Y-130001132D01*
X203864539Y-130002965D01*
X203868790Y-130009580D01*
X204700045Y-130840835D01*
X204712055Y-130847394D01*
X204723794Y-130838426D01*
X204772518Y-130770619D01*
X204777829Y-130761780D01*
X204881291Y-130552442D01*
X204885089Y-130542849D01*
X204952974Y-130319413D01*
X204955151Y-130309343D01*
X204985869Y-130076015D01*
X204986388Y-130069340D01*
X204988001Y-130003364D01*
X204987807Y-129996647D01*
X204968525Y-129762108D01*
X204966842Y-129751946D01*
X204909952Y-129525453D01*
X204906634Y-129515706D01*
X204813513Y-129301542D01*
X204808646Y-129292467D01*
X204723465Y-129160796D01*
X204712779Y-129151593D01*
X204703214Y-129155996D01*
X203872022Y-129987188D01*
X203864408Y-130001132D01*
X203134356Y-130001132D01*
X203135592Y-129998868D01*
X203135461Y-129997035D01*
X203131210Y-129990420D01*
X202299892Y-129159102D01*
X202288356Y-129152802D01*
X202276073Y-129162426D01*
X202209036Y-129260698D01*
X202203943Y-129269662D01*
X202105619Y-129481483D01*
X202102062Y-129491151D01*
X202039657Y-129716178D01*
X202037726Y-129726298D01*
X202012910Y-129958510D01*
X202012658Y-129968799D01*
X199983500Y-129968799D01*
X199983500Y-128976866D01*
X199976745Y-128914684D01*
X199928932Y-128787142D01*
X202651938Y-128787142D01*
X202658684Y-128799474D01*
X203487188Y-129627978D01*
X203501132Y-129635592D01*
X203502965Y-129635461D01*
X203509580Y-129631210D01*
X204342391Y-128798399D01*
X204349412Y-128785543D01*
X204341639Y-128774875D01*
X204327548Y-128763746D01*
X204318970Y-128758047D01*
X204114526Y-128645189D01*
X204105126Y-128640964D01*
X203884993Y-128563011D01*
X203875036Y-128560381D01*
X203645129Y-128519427D01*
X203634878Y-128518458D01*
X203401367Y-128515605D01*
X203391083Y-128516325D01*
X203160253Y-128551647D01*
X203150225Y-128554036D01*
X202928263Y-128626584D01*
X202918753Y-128630581D01*
X202711624Y-128738405D01*
X202702904Y-128743897D01*
X202660391Y-128775817D01*
X202651938Y-128787142D01*
X199928932Y-128787142D01*
X199925615Y-128778295D01*
X199838261Y-128661739D01*
X199721705Y-128574385D01*
X199585316Y-128523255D01*
X199523134Y-128516500D01*
X197476866Y-128516500D01*
X197414684Y-128523255D01*
X197278295Y-128574385D01*
X197161739Y-128661739D01*
X197074385Y-128778295D01*
X197023255Y-128914684D01*
X197016500Y-128976866D01*
X197016500Y-131023134D01*
X178137415Y-131023134D01*
X179586234Y-129574315D01*
X179598625Y-129563448D01*
X179617437Y-129549013D01*
X179623987Y-129543987D01*
X179648474Y-129512075D01*
X179648478Y-129512071D01*
X179721524Y-129416876D01*
X179782838Y-129268851D01*
X179789470Y-129218476D01*
X179798500Y-129149885D01*
X179798500Y-129149880D01*
X179803750Y-129110000D01*
X179799578Y-129078307D01*
X179798500Y-129061864D01*
X179798500Y-125514820D01*
X179818502Y-125446699D01*
X179852230Y-125411607D01*
X179910653Y-125370699D01*
X179969776Y-125329301D01*
X180119301Y-125179776D01*
X180240589Y-125006558D01*
X180329956Y-124814910D01*
X180352296Y-124731538D01*
X180383262Y-124615970D01*
X180383262Y-124615968D01*
X180384686Y-124610655D01*
X180403116Y-124400000D01*
X185596884Y-124400000D01*
X185615314Y-124610655D01*
X185616738Y-124615968D01*
X185616738Y-124615970D01*
X185647705Y-124731538D01*
X185670044Y-124814910D01*
X185759411Y-125006558D01*
X185880699Y-125179776D01*
X186030224Y-125329301D01*
X186203442Y-125450589D01*
X186208420Y-125452910D01*
X186208423Y-125452912D01*
X186390108Y-125537633D01*
X186395090Y-125539956D01*
X186400398Y-125541378D01*
X186400400Y-125541379D01*
X186594030Y-125593262D01*
X186594032Y-125593262D01*
X186599345Y-125594686D01*
X186810000Y-125613116D01*
X187020655Y-125594686D01*
X187025971Y-125593262D01*
X187030563Y-125592452D01*
X187101123Y-125600321D01*
X187141539Y-125627443D01*
X191327710Y-129813614D01*
X191361736Y-129875926D01*
X191364345Y-129894468D01*
X191365340Y-129909649D01*
X191417071Y-130113343D01*
X191419490Y-130118590D01*
X191502638Y-130298953D01*
X191502641Y-130298958D01*
X191505057Y-130304199D01*
X191508388Y-130308912D01*
X191508389Y-130308914D01*
X191604670Y-130445147D01*
X191626351Y-130475825D01*
X191776889Y-130622474D01*
X191781685Y-130625679D01*
X191781688Y-130625681D01*
X191901537Y-130705761D01*
X191951631Y-130739233D01*
X191956939Y-130741514D01*
X191956940Y-130741514D01*
X192139422Y-130819914D01*
X192139425Y-130819915D01*
X192144725Y-130822192D01*
X192150354Y-130823466D01*
X192150355Y-130823466D01*
X192344067Y-130867299D01*
X192344073Y-130867300D01*
X192349704Y-130868574D01*
X192355475Y-130868801D01*
X192355477Y-130868801D01*
X192514058Y-130875032D01*
X192535933Y-130882400D01*
X192539102Y-130880421D01*
X192559734Y-130877039D01*
X192559703Y-130876825D01*
X192767688Y-130846669D01*
X192773152Y-130844814D01*
X192773157Y-130844813D01*
X192961224Y-130780973D01*
X192961229Y-130780971D01*
X192966696Y-130779115D01*
X192976041Y-130773882D01*
X193048104Y-130733524D01*
X193150060Y-130676426D01*
X193311641Y-130542041D01*
X193446026Y-130380460D01*
X193514405Y-130258360D01*
X193545891Y-130202139D01*
X193545892Y-130202137D01*
X193548715Y-130197096D01*
X193550571Y-130191629D01*
X193550573Y-130191624D01*
X193614413Y-130003557D01*
X193614414Y-130003552D01*
X193616269Y-129998088D01*
X193646425Y-129790103D01*
X193647999Y-129730000D01*
X193628769Y-129520721D01*
X193626330Y-129512071D01*
X193577841Y-129340144D01*
X193571723Y-129318451D01*
X193478771Y-129129963D01*
X193353027Y-128961571D01*
X193348791Y-128957655D01*
X193202941Y-128822833D01*
X193202938Y-128822831D01*
X193198701Y-128818914D01*
X193020962Y-128706769D01*
X192825763Y-128628892D01*
X192820106Y-128627767D01*
X192820100Y-128627765D01*
X192625307Y-128589019D01*
X192625305Y-128589019D01*
X192619640Y-128587892D01*
X192613865Y-128587816D01*
X192613861Y-128587816D01*
X192508601Y-128586438D01*
X192409498Y-128585141D01*
X192403801Y-128586120D01*
X192403800Y-128586120D01*
X192255016Y-128611686D01*
X192202372Y-128620732D01*
X192076618Y-128667125D01*
X192005786Y-128671937D01*
X191943913Y-128638008D01*
X188385905Y-125080000D01*
X192286526Y-125080000D01*
X192306391Y-125332403D01*
X192307545Y-125337210D01*
X192307546Y-125337216D01*
X192315585Y-125370699D01*
X192365495Y-125578591D01*
X192367388Y-125583162D01*
X192367389Y-125583164D01*
X192413068Y-125693442D01*
X192462384Y-125812502D01*
X192594672Y-126028376D01*
X192759102Y-126220898D01*
X192951624Y-126385328D01*
X193167498Y-126517616D01*
X193172068Y-126519509D01*
X193172072Y-126519511D01*
X193396836Y-126612611D01*
X193401409Y-126614505D01*
X193486032Y-126634821D01*
X193642784Y-126672454D01*
X193642790Y-126672455D01*
X193647597Y-126673609D01*
X193900000Y-126693474D01*
X194152403Y-126673609D01*
X194157210Y-126672455D01*
X194157216Y-126672454D01*
X194313968Y-126634821D01*
X194398591Y-126614505D01*
X194403164Y-126612611D01*
X194627928Y-126519511D01*
X194627932Y-126519509D01*
X194632502Y-126517616D01*
X194848376Y-126385328D01*
X195040898Y-126220898D01*
X195205328Y-126028376D01*
X195337616Y-125812502D01*
X195386933Y-125693442D01*
X195432611Y-125583164D01*
X195432612Y-125583162D01*
X195434505Y-125578591D01*
X195484415Y-125370699D01*
X195492454Y-125337216D01*
X195492455Y-125337210D01*
X195493609Y-125332403D01*
X195513474Y-125080000D01*
X195493609Y-124827597D01*
X195491760Y-124819892D01*
X195440213Y-124605184D01*
X195434505Y-124581409D01*
X195359363Y-124400000D01*
X195339511Y-124352072D01*
X195339509Y-124352068D01*
X195337616Y-124347498D01*
X195205328Y-124131624D01*
X195040898Y-123939102D01*
X194848376Y-123774672D01*
X194632502Y-123642384D01*
X194627932Y-123640491D01*
X194627928Y-123640489D01*
X194403164Y-123547389D01*
X194403162Y-123547388D01*
X194398591Y-123545495D01*
X194313968Y-123525179D01*
X194157216Y-123487546D01*
X194157210Y-123487545D01*
X194152403Y-123486391D01*
X193900000Y-123466526D01*
X193647597Y-123486391D01*
X193642790Y-123487545D01*
X193642784Y-123487546D01*
X193486032Y-123525179D01*
X193401409Y-123545495D01*
X193396838Y-123547388D01*
X193396836Y-123547389D01*
X193172072Y-123640489D01*
X193172068Y-123640491D01*
X193167498Y-123642384D01*
X192951624Y-123774672D01*
X192759102Y-123939102D01*
X192594672Y-124131624D01*
X192462384Y-124347498D01*
X192460491Y-124352068D01*
X192460489Y-124352072D01*
X192440637Y-124400000D01*
X192365495Y-124581409D01*
X192359787Y-124605184D01*
X192308241Y-124819892D01*
X192306391Y-124827597D01*
X192286526Y-125080000D01*
X188385905Y-125080000D01*
X188037443Y-124731538D01*
X188003417Y-124669226D01*
X188002453Y-124620561D01*
X188003264Y-124615961D01*
X188004686Y-124610655D01*
X188005166Y-124605175D01*
X188022637Y-124405475D01*
X188023116Y-124400000D01*
X188004686Y-124189345D01*
X187989220Y-124131624D01*
X187951379Y-123990400D01*
X187951378Y-123990398D01*
X187949956Y-123985090D01*
X187930263Y-123942858D01*
X187862912Y-123798423D01*
X187862910Y-123798420D01*
X187860589Y-123793442D01*
X187739301Y-123620224D01*
X187589776Y-123470699D01*
X187416558Y-123349411D01*
X187411580Y-123347090D01*
X187411577Y-123347088D01*
X187229892Y-123262367D01*
X187229891Y-123262366D01*
X187224910Y-123260044D01*
X187219602Y-123258622D01*
X187219600Y-123258621D01*
X187025970Y-123206738D01*
X187025968Y-123206738D01*
X187020655Y-123205314D01*
X186810000Y-123186884D01*
X186599345Y-123205314D01*
X186594032Y-123206738D01*
X186594030Y-123206738D01*
X186400400Y-123258621D01*
X186400398Y-123258622D01*
X186395090Y-123260044D01*
X186390109Y-123262366D01*
X186390108Y-123262367D01*
X186208423Y-123347088D01*
X186208420Y-123347090D01*
X186203442Y-123349411D01*
X186030224Y-123470699D01*
X185880699Y-123620224D01*
X185759411Y-123793442D01*
X185757090Y-123798420D01*
X185757088Y-123798423D01*
X185689737Y-123942858D01*
X185670044Y-123985090D01*
X185668622Y-123990398D01*
X185668621Y-123990400D01*
X185630780Y-124131624D01*
X185615314Y-124189345D01*
X185596884Y-124400000D01*
X180403116Y-124400000D01*
X180384686Y-124189345D01*
X180369220Y-124131624D01*
X180331379Y-123990400D01*
X180331378Y-123990398D01*
X180329956Y-123985090D01*
X180310263Y-123942858D01*
X180242912Y-123798423D01*
X180242910Y-123798420D01*
X180240589Y-123793442D01*
X180119301Y-123620224D01*
X179969776Y-123470699D01*
X179796558Y-123349411D01*
X179791580Y-123347090D01*
X179791577Y-123347088D01*
X179609892Y-123262367D01*
X179609891Y-123262366D01*
X179604910Y-123260044D01*
X179599602Y-123258622D01*
X179599600Y-123258621D01*
X179405970Y-123206738D01*
X179405968Y-123206738D01*
X179400655Y-123205314D01*
X179190000Y-123186884D01*
X178979345Y-123205314D01*
X178974032Y-123206738D01*
X178974030Y-123206738D01*
X178780400Y-123258621D01*
X178780398Y-123258622D01*
X178775090Y-123260044D01*
X178770109Y-123262366D01*
X178770108Y-123262367D01*
X178588423Y-123347088D01*
X178588420Y-123347090D01*
X178583442Y-123349411D01*
X178410224Y-123470699D01*
X178260699Y-123620224D01*
X178139411Y-123793442D01*
X178137090Y-123798420D01*
X178137088Y-123798423D01*
X178069737Y-123942858D01*
X178050044Y-123985090D01*
X178048622Y-123990398D01*
X178048621Y-123990400D01*
X178010780Y-124131624D01*
X177995314Y-124189345D01*
X177976884Y-124400000D01*
X177995314Y-124610655D01*
X177996738Y-124615968D01*
X177996738Y-124615970D01*
X178027705Y-124731538D01*
X178050044Y-124814910D01*
X178139411Y-125006558D01*
X178260699Y-125179776D01*
X178410224Y-125329301D01*
X178469347Y-125370699D01*
X178527770Y-125411607D01*
X178572099Y-125467064D01*
X178581500Y-125514820D01*
X178581500Y-128805761D01*
X178561498Y-128873882D01*
X178544595Y-128894856D01*
X174837079Y-132602372D01*
X174774767Y-132636398D01*
X174703952Y-132631333D01*
X174647116Y-132588786D01*
X174622305Y-132522266D01*
X174623288Y-132495197D01*
X174646692Y-132333777D01*
X174647225Y-132330103D01*
X174648799Y-132270000D01*
X174632957Y-132097594D01*
X174646641Y-132027930D01*
X174669333Y-131996971D01*
X176902247Y-129764057D01*
X176910537Y-129756513D01*
X176917018Y-129752400D01*
X176941618Y-129726204D01*
X176963658Y-129702733D01*
X176966413Y-129699891D01*
X176986134Y-129680170D01*
X176988612Y-129676975D01*
X176996318Y-129667953D01*
X177021158Y-129641501D01*
X177026586Y-129635721D01*
X177036346Y-129617968D01*
X177047199Y-129601445D01*
X177054753Y-129591706D01*
X177059613Y-129585441D01*
X177077176Y-129544857D01*
X177082383Y-129534227D01*
X177103695Y-129495460D01*
X177105666Y-129487783D01*
X177105668Y-129487778D01*
X177108732Y-129475842D01*
X177115138Y-129457130D01*
X177120033Y-129445819D01*
X177123181Y-129438545D01*
X177124421Y-129430717D01*
X177124423Y-129430710D01*
X177130099Y-129394876D01*
X177132505Y-129383256D01*
X177141528Y-129348111D01*
X177141528Y-129348110D01*
X177143500Y-129340430D01*
X177143500Y-129320176D01*
X177145051Y-129300465D01*
X177146980Y-129288286D01*
X177148220Y-129280457D01*
X177144059Y-129236438D01*
X177143500Y-129224581D01*
X177143500Y-127397315D01*
X177163502Y-127329194D01*
X177197230Y-127294102D01*
X177285264Y-127232460D01*
X177289776Y-127229301D01*
X177439301Y-127079776D01*
X177560589Y-126906558D01*
X177649956Y-126714910D01*
X177676860Y-126614505D01*
X177703262Y-126515970D01*
X177703262Y-126515968D01*
X177704686Y-126510655D01*
X177723116Y-126300000D01*
X177704686Y-126089345D01*
X177688992Y-126030773D01*
X177651379Y-125890400D01*
X177651378Y-125890398D01*
X177649956Y-125885090D01*
X177647633Y-125880108D01*
X177562912Y-125698423D01*
X177562910Y-125698420D01*
X177560589Y-125693442D01*
X177439301Y-125520224D01*
X177289776Y-125370699D01*
X177116558Y-125249411D01*
X177111580Y-125247090D01*
X177111577Y-125247088D01*
X176929892Y-125162367D01*
X176929891Y-125162366D01*
X176924910Y-125160044D01*
X176919602Y-125158622D01*
X176919600Y-125158621D01*
X176725970Y-125106738D01*
X176725968Y-125106738D01*
X176720655Y-125105314D01*
X176510000Y-125086884D01*
X176504525Y-125087363D01*
X176304816Y-125104835D01*
X176304812Y-125104836D01*
X176299345Y-125105314D01*
X176294039Y-125106736D01*
X176289439Y-125107547D01*
X176218879Y-125099679D01*
X176178462Y-125072557D01*
X174474585Y-123368680D01*
X174440559Y-123306368D01*
X174445624Y-123235553D01*
X174471905Y-123193252D01*
X174547237Y-123113171D01*
X174550443Y-123109763D01*
X174699424Y-122895009D01*
X174721284Y-122850682D01*
X174812960Y-122664781D01*
X174812961Y-122664778D01*
X174815025Y-122660593D01*
X174820303Y-122644106D01*
X174893280Y-122416123D01*
X174894707Y-122411665D01*
X174936721Y-122153693D01*
X174938572Y-122012254D01*
X174940081Y-121897022D01*
X174940081Y-121897019D01*
X174940142Y-121892345D01*
X174904896Y-121633362D01*
X174890473Y-121583877D01*
X174871417Y-121518500D01*
X174831757Y-121382433D01*
X174722332Y-121145072D01*
X174680814Y-121081746D01*
X174581590Y-120930404D01*
X174581586Y-120930399D01*
X174579024Y-120926491D01*
X174404982Y-120731494D01*
X174204030Y-120564363D01*
X174058434Y-120476013D01*
X173984578Y-120431196D01*
X173984574Y-120431194D01*
X173980581Y-120428771D01*
X173739545Y-120327697D01*
X173486217Y-120263359D01*
X173481566Y-120262891D01*
X173481562Y-120262890D01*
X173272271Y-120241816D01*
X173269133Y-120241500D01*
X171113646Y-120241500D01*
X171111321Y-120241673D01*
X171111315Y-120241673D01*
X170924000Y-120255593D01*
X170923996Y-120255594D01*
X170919348Y-120255939D01*
X170914800Y-120256968D01*
X170914794Y-120256969D01*
X170741200Y-120296250D01*
X170664423Y-120313623D01*
X170660071Y-120315315D01*
X170660069Y-120315316D01*
X170425176Y-120406660D01*
X170425173Y-120406661D01*
X170420823Y-120408353D01*
X170193902Y-120538049D01*
X169988643Y-120699862D01*
X169809557Y-120890237D01*
X169660576Y-121104991D01*
X169658510Y-121109181D01*
X169658508Y-121109184D01*
X169590251Y-121247597D01*
X169544975Y-121339407D01*
X169543553Y-121343850D01*
X169543552Y-121343852D01*
X169473600Y-121562384D01*
X169465293Y-121588335D01*
X169423279Y-121846307D01*
X169422798Y-121883080D01*
X169421078Y-122014488D01*
X169419858Y-122107655D01*
X169455104Y-122366638D01*
X169456412Y-122371124D01*
X169456412Y-122371126D01*
X169473180Y-122428655D01*
X169528243Y-122617567D01*
X169637668Y-122854928D01*
X169640231Y-122858837D01*
X169778410Y-123069596D01*
X169778414Y-123069601D01*
X169780976Y-123073509D01*
X169955018Y-123268506D01*
X170155970Y-123435637D01*
X170159973Y-123438066D01*
X170375422Y-123568804D01*
X170375426Y-123568806D01*
X170379419Y-123571229D01*
X170620455Y-123672303D01*
X170873783Y-123736641D01*
X170878434Y-123737109D01*
X170878438Y-123737110D01*
X171071308Y-123756531D01*
X171090867Y-123758500D01*
X173020406Y-123758500D01*
X173088527Y-123778502D01*
X173109501Y-123795405D01*
X175282557Y-125968461D01*
X175316583Y-126030773D01*
X175317548Y-126079437D01*
X175316738Y-126084029D01*
X175315314Y-126089345D01*
X175296884Y-126300000D01*
X175315314Y-126510655D01*
X175316738Y-126515968D01*
X175316738Y-126515970D01*
X175343141Y-126614505D01*
X175370044Y-126714910D01*
X175459411Y-126906558D01*
X175580699Y-127079776D01*
X175730224Y-127229301D01*
X175734736Y-127232460D01*
X175822770Y-127294102D01*
X175867099Y-127349559D01*
X175876500Y-127397315D01*
X175876500Y-128945806D01*
X175856498Y-129013927D01*
X175839595Y-129034901D01*
X174840720Y-130033776D01*
X174778408Y-130067802D01*
X174707593Y-130062737D01*
X174650757Y-130020190D01*
X174625946Y-129953670D01*
X174626929Y-129926601D01*
X174646191Y-129793750D01*
X174646821Y-129786367D01*
X174648200Y-129733704D01*
X174647957Y-129726305D01*
X174629604Y-129526566D01*
X174627507Y-129515251D01*
X174573622Y-129324190D01*
X174569500Y-129313451D01*
X174481699Y-129135409D01*
X174479592Y-129131970D01*
X174470276Y-129124980D01*
X174457859Y-129131751D01*
X172904427Y-130685183D01*
X172898230Y-130696530D01*
X172908110Y-130709017D01*
X172947872Y-130735585D01*
X172957975Y-130741071D01*
X173140373Y-130819435D01*
X173151316Y-130822990D01*
X173344933Y-130866802D01*
X173356342Y-130868304D01*
X173514847Y-130874531D01*
X173536704Y-130881893D01*
X173539862Y-130879921D01*
X173560507Y-130876536D01*
X173560476Y-130876324D01*
X173697001Y-130856529D01*
X173767287Y-130866549D01*
X173820998Y-130912978D01*
X173841081Y-130981075D01*
X173821160Y-131049220D01*
X173804176Y-131070320D01*
X173773295Y-131101201D01*
X173710983Y-131135227D01*
X173659619Y-131135685D01*
X173626107Y-131129019D01*
X173626104Y-131129019D01*
X173620440Y-131127892D01*
X173614666Y-131127816D01*
X173614662Y-131127816D01*
X173595997Y-131127572D01*
X173572126Y-131127260D01*
X173546281Y-131119302D01*
X173540626Y-131122630D01*
X173508252Y-131126423D01*
X173460480Y-131125798D01*
X173410298Y-131125141D01*
X173404601Y-131126120D01*
X173404600Y-131126120D01*
X173272472Y-131148824D01*
X173203172Y-131160732D01*
X173006001Y-131233472D01*
X173001040Y-131236424D01*
X173001039Y-131236424D01*
X172926264Y-131280911D01*
X172825388Y-131340926D01*
X172798718Y-131364315D01*
X172717577Y-131435473D01*
X172653173Y-131465350D01*
X172582840Y-131455664D01*
X172528909Y-131409491D01*
X172508500Y-131340741D01*
X172508500Y-130414880D01*
X172528502Y-130346759D01*
X172545405Y-130325785D01*
X173128378Y-129742812D01*
X173135992Y-129728868D01*
X173135861Y-129727035D01*
X173131610Y-129720420D01*
X172543025Y-129131835D01*
X172506842Y-129112077D01*
X172456640Y-129061873D01*
X172450820Y-129049709D01*
X172444686Y-129034901D01*
X172431524Y-129003124D01*
X172358478Y-128907929D01*
X172358474Y-128907925D01*
X172348114Y-128894423D01*
X172339016Y-128882566D01*
X172339013Y-128882563D01*
X172333987Y-128876013D01*
X172327432Y-128870983D01*
X172308621Y-128856548D01*
X172296230Y-128845681D01*
X172213688Y-128763139D01*
X172897651Y-128763139D01*
X172901138Y-128771528D01*
X173487588Y-129357978D01*
X173501532Y-129365592D01*
X173503365Y-129365461D01*
X173509980Y-129361210D01*
X174096057Y-128775133D01*
X174102817Y-128762753D01*
X174096787Y-128754698D01*
X174026420Y-128710299D01*
X174016169Y-128705076D01*
X173831789Y-128631516D01*
X173820752Y-128628247D01*
X173626054Y-128589518D01*
X173614610Y-128588315D01*
X173416119Y-128585718D01*
X173404639Y-128586621D01*
X173208999Y-128620238D01*
X173197879Y-128623218D01*
X173011634Y-128691927D01*
X173001256Y-128696877D01*
X172907249Y-128752806D01*
X172897651Y-128763139D01*
X172213688Y-128763139D01*
X170110031Y-126659482D01*
X170076005Y-126597170D01*
X170077419Y-126537776D01*
X170083262Y-126515970D01*
X170083262Y-126515968D01*
X170084686Y-126510655D01*
X170103116Y-126300000D01*
X170084686Y-126089345D01*
X170068992Y-126030773D01*
X170031379Y-125890400D01*
X170031378Y-125890398D01*
X170029956Y-125885090D01*
X170027633Y-125880108D01*
X169942912Y-125698423D01*
X169942910Y-125698420D01*
X169940589Y-125693442D01*
X169819301Y-125520224D01*
X169669776Y-125370699D01*
X169496558Y-125249411D01*
X169491580Y-125247090D01*
X169491577Y-125247088D01*
X169309892Y-125162367D01*
X169309891Y-125162366D01*
X169304910Y-125160044D01*
X169299602Y-125158622D01*
X169299600Y-125158621D01*
X169105970Y-125106738D01*
X169105968Y-125106738D01*
X169100655Y-125105314D01*
X168890000Y-125086884D01*
X168679345Y-125105314D01*
X168674032Y-125106738D01*
X168674030Y-125106738D01*
X168480400Y-125158621D01*
X168480398Y-125158622D01*
X168475090Y-125160044D01*
X168470109Y-125162366D01*
X168470108Y-125162367D01*
X168288423Y-125247088D01*
X168288420Y-125247090D01*
X168283442Y-125249411D01*
X168110224Y-125370699D01*
X167960699Y-125520224D01*
X167839411Y-125693442D01*
X167837090Y-125698420D01*
X167837088Y-125698423D01*
X167752367Y-125880108D01*
X167750044Y-125885090D01*
X167748622Y-125890398D01*
X167748621Y-125890400D01*
X167711008Y-126030773D01*
X167695314Y-126089345D01*
X167676884Y-126300000D01*
X167695314Y-126510655D01*
X167696738Y-126515968D01*
X167696738Y-126515970D01*
X167723141Y-126614505D01*
X167750044Y-126714910D01*
X167839411Y-126906558D01*
X167960699Y-127079776D01*
X168110224Y-127229301D01*
X168114736Y-127232460D01*
X168227770Y-127311607D01*
X168272099Y-127367064D01*
X168281500Y-127414820D01*
X168281500Y-130705761D01*
X168261498Y-130773882D01*
X168244595Y-130794856D01*
X167284856Y-131754595D01*
X167222544Y-131788621D01*
X167195761Y-131791500D01*
X162454239Y-131791500D01*
X162386118Y-131771498D01*
X162365144Y-131754595D01*
X161827173Y-131216624D01*
X163898621Y-131216624D01*
X163902988Y-131222774D01*
X164102563Y-131339397D01*
X164111846Y-131343844D01*
X164330007Y-131427152D01*
X164339905Y-131430028D01*
X164568744Y-131476585D01*
X164578972Y-131477804D01*
X164812340Y-131486362D01*
X164822626Y-131485895D01*
X165054262Y-131456222D01*
X165064340Y-131454080D01*
X165288014Y-131386974D01*
X165297612Y-131383212D01*
X165507324Y-131280476D01*
X165516169Y-131275203D01*
X165588869Y-131223347D01*
X165597270Y-131212646D01*
X165590283Y-131199493D01*
X164762812Y-130372022D01*
X164748868Y-130364408D01*
X164747035Y-130364539D01*
X164740420Y-130368790D01*
X163905881Y-131203329D01*
X163898621Y-131216624D01*
X161827173Y-131216624D01*
X161270405Y-130659856D01*
X161236379Y-130597544D01*
X161233500Y-130570761D01*
X161233500Y-129968799D01*
X163262658Y-129968799D01*
X163276102Y-130201942D01*
X163277535Y-130212144D01*
X163328873Y-130439949D01*
X163331956Y-130449789D01*
X163419814Y-130666156D01*
X163424457Y-130675347D01*
X163525555Y-130840325D01*
X163536011Y-130849785D01*
X163544789Y-130846001D01*
X164377978Y-130012812D01*
X164384356Y-130001132D01*
X165114408Y-130001132D01*
X165114539Y-130002965D01*
X165118790Y-130009580D01*
X165950045Y-130840835D01*
X165962055Y-130847394D01*
X165973794Y-130838426D01*
X166022518Y-130770619D01*
X166027829Y-130761780D01*
X166131291Y-130552442D01*
X166135089Y-130542849D01*
X166202974Y-130319413D01*
X166205151Y-130309343D01*
X166235869Y-130076015D01*
X166236388Y-130069340D01*
X166238001Y-130003364D01*
X166237807Y-129996647D01*
X166218525Y-129762108D01*
X166216842Y-129751946D01*
X166159952Y-129525453D01*
X166156634Y-129515706D01*
X166063513Y-129301542D01*
X166058646Y-129292467D01*
X165973465Y-129160796D01*
X165962779Y-129151593D01*
X165953214Y-129155996D01*
X165122022Y-129987188D01*
X165114408Y-130001132D01*
X164384356Y-130001132D01*
X164385592Y-129998868D01*
X164385461Y-129997035D01*
X164381210Y-129990420D01*
X163549892Y-129159102D01*
X163538356Y-129152802D01*
X163526073Y-129162426D01*
X163459036Y-129260698D01*
X163453943Y-129269662D01*
X163355619Y-129481483D01*
X163352062Y-129491151D01*
X163289657Y-129716178D01*
X163287726Y-129726298D01*
X163262910Y-129958510D01*
X163262658Y-129968799D01*
X161233500Y-129968799D01*
X161233500Y-128976866D01*
X161226745Y-128914684D01*
X161178932Y-128787142D01*
X163901938Y-128787142D01*
X163908684Y-128799474D01*
X164737188Y-129627978D01*
X164751132Y-129635592D01*
X164752965Y-129635461D01*
X164759580Y-129631210D01*
X165592391Y-128798399D01*
X165599412Y-128785543D01*
X165591639Y-128774875D01*
X165577548Y-128763746D01*
X165568970Y-128758047D01*
X165364526Y-128645189D01*
X165355126Y-128640964D01*
X165134993Y-128563011D01*
X165125036Y-128560381D01*
X164895129Y-128519427D01*
X164884878Y-128518458D01*
X164651367Y-128515605D01*
X164641083Y-128516325D01*
X164410253Y-128551647D01*
X164400225Y-128554036D01*
X164178263Y-128626584D01*
X164168753Y-128630581D01*
X163961624Y-128738405D01*
X163952904Y-128743897D01*
X163910391Y-128775817D01*
X163901938Y-128787142D01*
X161178932Y-128787142D01*
X161175615Y-128778295D01*
X161088261Y-128661739D01*
X160971705Y-128574385D01*
X160835316Y-128523255D01*
X160773134Y-128516500D01*
X159179239Y-128516500D01*
X159111118Y-128496498D01*
X159090144Y-128479595D01*
X153610549Y-123000000D01*
X160886526Y-123000000D01*
X160906391Y-123252403D01*
X160907545Y-123257210D01*
X160907546Y-123257216D01*
X160929680Y-123349411D01*
X160965495Y-123498591D01*
X160967388Y-123503162D01*
X160967389Y-123503164D01*
X161037925Y-123673452D01*
X161062384Y-123732502D01*
X161194672Y-123948376D01*
X161359102Y-124140898D01*
X161551624Y-124305328D01*
X161767498Y-124437616D01*
X161772068Y-124439509D01*
X161772072Y-124439511D01*
X161996836Y-124532611D01*
X162001409Y-124534505D01*
X162086032Y-124554821D01*
X162242784Y-124592454D01*
X162242790Y-124592455D01*
X162247597Y-124593609D01*
X162500000Y-124613474D01*
X162752403Y-124593609D01*
X162757210Y-124592455D01*
X162757216Y-124592454D01*
X162913968Y-124554821D01*
X162998591Y-124534505D01*
X163003164Y-124532611D01*
X163227928Y-124439511D01*
X163227932Y-124439509D01*
X163232502Y-124437616D01*
X163448376Y-124305328D01*
X163640898Y-124140898D01*
X163805328Y-123948376D01*
X163937616Y-123732502D01*
X163962076Y-123673452D01*
X164032611Y-123503164D01*
X164032612Y-123503162D01*
X164034505Y-123498591D01*
X164070320Y-123349411D01*
X164092454Y-123257216D01*
X164092455Y-123257210D01*
X164093609Y-123252403D01*
X164113474Y-123000000D01*
X164093609Y-122747597D01*
X164083203Y-122704250D01*
X164035660Y-122506221D01*
X164034505Y-122501409D01*
X164010793Y-122444162D01*
X163939511Y-122272072D01*
X163939509Y-122272068D01*
X163937616Y-122267498D01*
X163805328Y-122051624D01*
X163640898Y-121859102D01*
X163448376Y-121694672D01*
X163232502Y-121562384D01*
X163227932Y-121560491D01*
X163227928Y-121560489D01*
X163003164Y-121467389D01*
X163003162Y-121467388D01*
X162998591Y-121465495D01*
X162913968Y-121445179D01*
X162757216Y-121407546D01*
X162757210Y-121407545D01*
X162752403Y-121406391D01*
X162500000Y-121386526D01*
X162247597Y-121406391D01*
X162242790Y-121407545D01*
X162242784Y-121407546D01*
X162086032Y-121445179D01*
X162001409Y-121465495D01*
X161996838Y-121467388D01*
X161996836Y-121467389D01*
X161772072Y-121560489D01*
X161772068Y-121560491D01*
X161767498Y-121562384D01*
X161551624Y-121694672D01*
X161359102Y-121859102D01*
X161194672Y-122051624D01*
X161062384Y-122267498D01*
X161060491Y-122272068D01*
X161060489Y-122272072D01*
X160989207Y-122444162D01*
X160965495Y-122501409D01*
X160964340Y-122506221D01*
X160916798Y-122704250D01*
X160906391Y-122747597D01*
X160886526Y-123000000D01*
X153610549Y-123000000D01*
X151520549Y-120910000D01*
X155534647Y-120910000D01*
X155554022Y-121131463D01*
X155611560Y-121346196D01*
X155613882Y-121351177D01*
X155613883Y-121351178D01*
X155703186Y-121542689D01*
X155703189Y-121542694D01*
X155705512Y-121547676D01*
X155708668Y-121552183D01*
X155708669Y-121552185D01*
X155810688Y-121697883D01*
X155833023Y-121729781D01*
X155990219Y-121886977D01*
X155994727Y-121890134D01*
X155994730Y-121890136D01*
X156034887Y-121918254D01*
X156172323Y-122014488D01*
X156177305Y-122016811D01*
X156177310Y-122016814D01*
X156368822Y-122106117D01*
X156373804Y-122108440D01*
X156379112Y-122109862D01*
X156379114Y-122109863D01*
X156444949Y-122127503D01*
X156588537Y-122165978D01*
X156810000Y-122185353D01*
X157031463Y-122165978D01*
X157175051Y-122127503D01*
X157240886Y-122109863D01*
X157240888Y-122109862D01*
X157246196Y-122108440D01*
X157251178Y-122106117D01*
X157442690Y-122016814D01*
X157442695Y-122016811D01*
X157447677Y-122014488D01*
X157585113Y-121918254D01*
X157625270Y-121890136D01*
X157625273Y-121890134D01*
X157629781Y-121886977D01*
X157786977Y-121729781D01*
X157809313Y-121697883D01*
X157911331Y-121552185D01*
X157911332Y-121552183D01*
X157914488Y-121547676D01*
X157916811Y-121542694D01*
X157916814Y-121542689D01*
X158006117Y-121351178D01*
X158006118Y-121351177D01*
X158008440Y-121346196D01*
X158065978Y-121131463D01*
X158085353Y-120910000D01*
X158065978Y-120688537D01*
X158055514Y-120649485D01*
X158057204Y-120578509D01*
X158088126Y-120527778D01*
X158945501Y-119670404D01*
X159007813Y-119636379D01*
X159034596Y-119633500D01*
X166871233Y-119633500D01*
X166882416Y-119634027D01*
X166889909Y-119635702D01*
X166897835Y-119635453D01*
X166897836Y-119635453D01*
X166957986Y-119633562D01*
X166961945Y-119633500D01*
X166989856Y-119633500D01*
X166993791Y-119633003D01*
X166993856Y-119632995D01*
X167005693Y-119632062D01*
X167037951Y-119631048D01*
X167041970Y-119630922D01*
X167049889Y-119630673D01*
X167069343Y-119625021D01*
X167088700Y-119621013D01*
X167100930Y-119619468D01*
X167100931Y-119619468D01*
X167108797Y-119618474D01*
X167116168Y-119615555D01*
X167116170Y-119615555D01*
X167149912Y-119602196D01*
X167161142Y-119598351D01*
X167195983Y-119588229D01*
X167195984Y-119588229D01*
X167203593Y-119586018D01*
X167210412Y-119581985D01*
X167210417Y-119581983D01*
X167221028Y-119575707D01*
X167238776Y-119567012D01*
X167257617Y-119559552D01*
X167293387Y-119533564D01*
X167303307Y-119527048D01*
X167334535Y-119508580D01*
X167334538Y-119508578D01*
X167341362Y-119504542D01*
X167355683Y-119490221D01*
X167370717Y-119477380D01*
X167371496Y-119476814D01*
X167387107Y-119465472D01*
X167415298Y-119431395D01*
X167423288Y-119422616D01*
X167850499Y-118995405D01*
X167912811Y-118961379D01*
X167939594Y-118958500D01*
X168878134Y-118958500D01*
X168940316Y-118951745D01*
X169076705Y-118900615D01*
X169193261Y-118813261D01*
X169280615Y-118696705D01*
X169331745Y-118560316D01*
X169338500Y-118498134D01*
X169338500Y-117330258D01*
X169358502Y-117262137D01*
X169412158Y-117215644D01*
X169482432Y-117205540D01*
X169547012Y-117235034D01*
X169578926Y-117277507D01*
X169637668Y-117404928D01*
X169648804Y-117421913D01*
X169778410Y-117619596D01*
X169778414Y-117619601D01*
X169780976Y-117623509D01*
X169955018Y-117818506D01*
X170155970Y-117985637D01*
X170159973Y-117988066D01*
X170375422Y-118118804D01*
X170375426Y-118118806D01*
X170379419Y-118121229D01*
X170620455Y-118222303D01*
X170873783Y-118286641D01*
X170878434Y-118287109D01*
X170878438Y-118287110D01*
X171071308Y-118306531D01*
X171090867Y-118308500D01*
X173246354Y-118308500D01*
X173248679Y-118308327D01*
X173248685Y-118308327D01*
X173436000Y-118294407D01*
X173436004Y-118294406D01*
X173440652Y-118294061D01*
X173445200Y-118293032D01*
X173445206Y-118293031D01*
X173677356Y-118240500D01*
X173695577Y-118236377D01*
X173728814Y-118223452D01*
X173934824Y-118143340D01*
X173934827Y-118143339D01*
X173939177Y-118141647D01*
X174166098Y-118011951D01*
X174371357Y-117850138D01*
X174550443Y-117659763D01*
X174687165Y-117462680D01*
X174742428Y-117418110D01*
X174790692Y-117408500D01*
X200995761Y-117408500D01*
X201063882Y-117428502D01*
X201084856Y-117445405D01*
X213055894Y-129416443D01*
X213089920Y-129478755D01*
X213088217Y-129539207D01*
X213037783Y-129721067D01*
X213011860Y-129963631D01*
X213012157Y-129968783D01*
X213012157Y-129968787D01*
X213017867Y-130067802D01*
X213025903Y-130207171D01*
X213027040Y-130212217D01*
X213027041Y-130212223D01*
X213046587Y-130298953D01*
X213079533Y-130445147D01*
X213081475Y-130449929D01*
X213081476Y-130449933D01*
X213166717Y-130659856D01*
X213171311Y-130671169D01*
X213298772Y-130879166D01*
X213458492Y-131063553D01*
X213646183Y-131219377D01*
X213856804Y-131342453D01*
X213861629Y-131344295D01*
X213861630Y-131344296D01*
X213885597Y-131353448D01*
X214084698Y-131429478D01*
X214089764Y-131430509D01*
X214089765Y-131430509D01*
X214318667Y-131477080D01*
X214318671Y-131477080D01*
X214323746Y-131478113D01*
X214328922Y-131478303D01*
X214328924Y-131478303D01*
X214562363Y-131486863D01*
X214562367Y-131486863D01*
X214567527Y-131487052D01*
X214572647Y-131486396D01*
X214572649Y-131486396D01*
X214669639Y-131473971D01*
X214809494Y-131456055D01*
X214814443Y-131454570D01*
X214814449Y-131454569D01*
X215038200Y-131387440D01*
X215038199Y-131387440D01*
X215043150Y-131385955D01*
X215262219Y-131278634D01*
X215266424Y-131275634D01*
X215266430Y-131275631D01*
X215456614Y-131139974D01*
X215456616Y-131139972D01*
X215460818Y-131136975D01*
X215633614Y-130964781D01*
X215775966Y-130766677D01*
X215778387Y-130761780D01*
X215881756Y-130552626D01*
X215881757Y-130552624D01*
X215884050Y-130547984D01*
X215907406Y-130471111D01*
X215914467Y-130447871D01*
X215953408Y-130388507D01*
X216018262Y-130359620D01*
X216035025Y-130358500D01*
X217289603Y-130358500D01*
X217357724Y-130378502D01*
X217404217Y-130432158D01*
X217408809Y-130443684D01*
X217410949Y-130449933D01*
X217446109Y-130552626D01*
X217451710Y-130568986D01*
X217453637Y-130572817D01*
X217577914Y-130819914D01*
X217580885Y-130825822D01*
X217743721Y-131062750D01*
X217746608Y-131065923D01*
X217746609Y-131065924D01*
X217901752Y-131236424D01*
X217937206Y-131275388D01*
X217940501Y-131278143D01*
X217940502Y-131278144D01*
X218152815Y-131455664D01*
X218157759Y-131459798D01*
X218401298Y-131612571D01*
X218663318Y-131730877D01*
X218667437Y-131732097D01*
X218934857Y-131811311D01*
X218934862Y-131811312D01*
X218938970Y-131812529D01*
X218943204Y-131813177D01*
X218943209Y-131813178D01*
X219166409Y-131847332D01*
X219223153Y-131856015D01*
X219369485Y-131858314D01*
X219506317Y-131860464D01*
X219506323Y-131860464D01*
X219510608Y-131860531D01*
X219514860Y-131860016D01*
X219514868Y-131860016D01*
X219791756Y-131826508D01*
X219791761Y-131826507D01*
X219796017Y-131825992D01*
X219892748Y-131800615D01*
X220069954Y-131754126D01*
X220069955Y-131754126D01*
X220074097Y-131753039D01*
X220339704Y-131643021D01*
X220587922Y-131497974D01*
X220814159Y-131320582D01*
X220819440Y-131315133D01*
X220967125Y-131162733D01*
X221014227Y-131114128D01*
X221016760Y-131110680D01*
X221016764Y-131110675D01*
X221181887Y-130885886D01*
X221184425Y-130882431D01*
X221188714Y-130874531D01*
X221319554Y-130633555D01*
X221319555Y-130633553D01*
X221321604Y-130629779D01*
X221381560Y-130471111D01*
X221421707Y-130364866D01*
X221421708Y-130364862D01*
X221423225Y-130360848D01*
X221449279Y-130247091D01*
X221486449Y-130084797D01*
X221486450Y-130084793D01*
X221487407Y-130080613D01*
X221487818Y-130076015D01*
X221512743Y-129796726D01*
X221512743Y-129796724D01*
X221512963Y-129794260D01*
X221513046Y-129786395D01*
X221513401Y-129752484D01*
X221513401Y-129752483D01*
X221513427Y-129750000D01*
X221511455Y-129721067D01*
X221494165Y-129467452D01*
X221494164Y-129467446D01*
X221493873Y-129463175D01*
X221488773Y-129438545D01*
X221451935Y-129260663D01*
X221435574Y-129181658D01*
X221339607Y-128910657D01*
X221282221Y-128799474D01*
X221209715Y-128658995D01*
X221209715Y-128658994D01*
X221207750Y-128655188D01*
X221200402Y-128644732D01*
X221044904Y-128423482D01*
X221042441Y-128419977D01*
X220846740Y-128209378D01*
X220624268Y-128027287D01*
X220379142Y-127877073D01*
X220361048Y-127869130D01*
X220119830Y-127763243D01*
X220115898Y-127761517D01*
X220089963Y-127754129D01*
X219843534Y-127683932D01*
X219843535Y-127683932D01*
X219839406Y-127682756D01*
X219602171Y-127648993D01*
X219559036Y-127642854D01*
X219559034Y-127642854D01*
X219554784Y-127642249D01*
X219550495Y-127642227D01*
X219550488Y-127642226D01*
X219271583Y-127640765D01*
X219271576Y-127640765D01*
X219267297Y-127640743D01*
X219263053Y-127641302D01*
X219263049Y-127641302D01*
X219179034Y-127652363D01*
X218982266Y-127678268D01*
X218978126Y-127679401D01*
X218978124Y-127679401D01*
X218916597Y-127696233D01*
X218704964Y-127754129D01*
X218701016Y-127755813D01*
X218444476Y-127865237D01*
X218444472Y-127865239D01*
X218440524Y-127866923D01*
X218391758Y-127896109D01*
X218197521Y-128012357D01*
X218197517Y-128012360D01*
X218193839Y-128014561D01*
X217969472Y-128194313D01*
X217771577Y-128402851D01*
X217603814Y-128636317D01*
X217601805Y-128640112D01*
X217601804Y-128640113D01*
X217595678Y-128651683D01*
X217469288Y-128890392D01*
X217460393Y-128914698D01*
X217407659Y-129058801D01*
X217365465Y-129115899D01*
X217299099Y-129141121D01*
X217289333Y-129141500D01*
X215779169Y-129141500D01*
X215711048Y-129121498D01*
X215680467Y-129093414D01*
X215679390Y-129091748D01*
X215667163Y-129078310D01*
X215518690Y-128915141D01*
X215518688Y-128915140D01*
X215515212Y-128911319D01*
X215511161Y-128908120D01*
X215511157Y-128908116D01*
X215327825Y-128763329D01*
X215327821Y-128763327D01*
X215323770Y-128760127D01*
X215313936Y-128754698D01*
X215267759Y-128729207D01*
X215110205Y-128642233D01*
X215105336Y-128640509D01*
X215105332Y-128640507D01*
X214885127Y-128562528D01*
X214885123Y-128562527D01*
X214880252Y-128560802D01*
X214875159Y-128559895D01*
X214875156Y-128559894D01*
X214645177Y-128518928D01*
X214645171Y-128518927D01*
X214640088Y-128518022D01*
X214560380Y-128517048D01*
X214401332Y-128515105D01*
X214401330Y-128515105D01*
X214396162Y-128515042D01*
X214155024Y-128551941D01*
X214045770Y-128587651D01*
X213974807Y-128589802D01*
X213917530Y-128556981D01*
X206860549Y-121500000D01*
X225886526Y-121500000D01*
X225906391Y-121752403D01*
X225907545Y-121757210D01*
X225907546Y-121757216D01*
X225938699Y-121886977D01*
X225965495Y-121998591D01*
X225967388Y-122003162D01*
X225967389Y-122003164D01*
X226027805Y-122149020D01*
X226062384Y-122232502D01*
X226194672Y-122448376D01*
X226359102Y-122640898D01*
X226551624Y-122805328D01*
X226767498Y-122937616D01*
X226772068Y-122939509D01*
X226772072Y-122939511D01*
X226996836Y-123032611D01*
X227001409Y-123034505D01*
X227086032Y-123054821D01*
X227242784Y-123092454D01*
X227242790Y-123092455D01*
X227247597Y-123093609D01*
X227500000Y-123113474D01*
X227752403Y-123093609D01*
X227757210Y-123092455D01*
X227757216Y-123092454D01*
X227913968Y-123054821D01*
X227998591Y-123034505D01*
X228003164Y-123032611D01*
X228227928Y-122939511D01*
X228227932Y-122939509D01*
X228232502Y-122937616D01*
X228448376Y-122805328D01*
X228640898Y-122640898D01*
X228805328Y-122448376D01*
X228937616Y-122232502D01*
X228972196Y-122149020D01*
X229032611Y-122003164D01*
X229032612Y-122003162D01*
X229034505Y-121998591D01*
X229061301Y-121886977D01*
X229092454Y-121757216D01*
X229092455Y-121757210D01*
X229093609Y-121752403D01*
X229113474Y-121500000D01*
X229093609Y-121247597D01*
X229083203Y-121204250D01*
X229035660Y-121006221D01*
X229034505Y-121001409D01*
X229005094Y-120930404D01*
X228939511Y-120772072D01*
X228939509Y-120772068D01*
X228937616Y-120767498D01*
X228805328Y-120551624D01*
X228640898Y-120359102D01*
X228448376Y-120194672D01*
X228232502Y-120062384D01*
X228227932Y-120060491D01*
X228227928Y-120060489D01*
X228003164Y-119967389D01*
X228003162Y-119967388D01*
X227998591Y-119965495D01*
X227879567Y-119936920D01*
X227757216Y-119907546D01*
X227757210Y-119907545D01*
X227752403Y-119906391D01*
X227500000Y-119886526D01*
X227247597Y-119906391D01*
X227242790Y-119907545D01*
X227242784Y-119907546D01*
X227120433Y-119936920D01*
X227001409Y-119965495D01*
X226996838Y-119967388D01*
X226996836Y-119967389D01*
X226772072Y-120060489D01*
X226772068Y-120060491D01*
X226767498Y-120062384D01*
X226551624Y-120194672D01*
X226359102Y-120359102D01*
X226194672Y-120551624D01*
X226062384Y-120767498D01*
X226060491Y-120772068D01*
X226060489Y-120772072D01*
X225994906Y-120930404D01*
X225965495Y-121001409D01*
X225964340Y-121006221D01*
X225916798Y-121204250D01*
X225906391Y-121247597D01*
X225886526Y-121500000D01*
X206860549Y-121500000D01*
X201764315Y-116403766D01*
X201753448Y-116391375D01*
X201739013Y-116372563D01*
X201733987Y-116366013D01*
X201702075Y-116341526D01*
X201702072Y-116341523D01*
X201673713Y-116319762D01*
X201613429Y-116273504D01*
X201613427Y-116273503D01*
X201606876Y-116268476D01*
X201458851Y-116207162D01*
X201450664Y-116206084D01*
X201450663Y-116206084D01*
X201439458Y-116204609D01*
X201408262Y-116200502D01*
X201339885Y-116191500D01*
X201339882Y-116191500D01*
X201339874Y-116191499D01*
X201308189Y-116187328D01*
X201300000Y-116186250D01*
X201268307Y-116190422D01*
X201251864Y-116191500D01*
X195634500Y-116191500D01*
X195566379Y-116171498D01*
X195519886Y-116117842D01*
X195508500Y-116065500D01*
X195508500Y-114778633D01*
X209991500Y-114778633D01*
X209998255Y-114840815D01*
X210049385Y-114977204D01*
X210136739Y-115093760D01*
X210253295Y-115181114D01*
X210389684Y-115232244D01*
X210451866Y-115238999D01*
X214548134Y-115238999D01*
X214610316Y-115232244D01*
X214746705Y-115181114D01*
X214863261Y-115093760D01*
X214950615Y-114977204D01*
X215001745Y-114840815D01*
X215008500Y-114778633D01*
X215008500Y-110682365D01*
X215001745Y-110620183D01*
X214950615Y-110483794D01*
X214863261Y-110367238D01*
X214746705Y-110279884D01*
X214610316Y-110228754D01*
X214548134Y-110221999D01*
X210451866Y-110221999D01*
X210389684Y-110228754D01*
X210253295Y-110279884D01*
X210136739Y-110367238D01*
X210049385Y-110483794D01*
X209998255Y-110620183D01*
X209991500Y-110682365D01*
X209991500Y-114778633D01*
X195508500Y-114778633D01*
X195508500Y-113771866D01*
X195501745Y-113709684D01*
X195450615Y-113573295D01*
X195363261Y-113456739D01*
X195246705Y-113369385D01*
X195110316Y-113318255D01*
X195048134Y-113311500D01*
X192751866Y-113311500D01*
X192689684Y-113318255D01*
X192553295Y-113369385D01*
X192436739Y-113456739D01*
X192349385Y-113573295D01*
X192298255Y-113709684D01*
X192291500Y-113771866D01*
X192291500Y-116065500D01*
X192271498Y-116133621D01*
X192217842Y-116180114D01*
X192165500Y-116191500D01*
X175001785Y-116191500D01*
X174933664Y-116171498D01*
X174887171Y-116117842D01*
X174880819Y-116100758D01*
X174870542Y-116065500D01*
X174831757Y-115932433D01*
X174722332Y-115695072D01*
X174629797Y-115553933D01*
X174581590Y-115480404D01*
X174581586Y-115480399D01*
X174579024Y-115476491D01*
X174404982Y-115281494D01*
X174204030Y-115114363D01*
X174025984Y-115006322D01*
X173984578Y-114981196D01*
X173984574Y-114981194D01*
X173980581Y-114978771D01*
X173739545Y-114877697D01*
X173486217Y-114813359D01*
X173481566Y-114812891D01*
X173481562Y-114812890D01*
X173272271Y-114791816D01*
X173269133Y-114791500D01*
X171113646Y-114791500D01*
X171111321Y-114791673D01*
X171111315Y-114791673D01*
X170924000Y-114805593D01*
X170923996Y-114805594D01*
X170919348Y-114805939D01*
X170914800Y-114806968D01*
X170914794Y-114806969D01*
X170732521Y-114848214D01*
X170664423Y-114863623D01*
X170660071Y-114865315D01*
X170660069Y-114865316D01*
X170425176Y-114956660D01*
X170425173Y-114956661D01*
X170420823Y-114958353D01*
X170416769Y-114960670D01*
X170416767Y-114960671D01*
X170385099Y-114978771D01*
X170193902Y-115088049D01*
X169988643Y-115249862D01*
X169809557Y-115440237D01*
X169730802Y-115553761D01*
X169689002Y-115614016D01*
X169660576Y-115654991D01*
X169544975Y-115889407D01*
X169543553Y-115893850D01*
X169543552Y-115893852D01*
X169487764Y-116068134D01*
X169465293Y-116138335D01*
X169423279Y-116396307D01*
X169423120Y-116408502D01*
X169423012Y-116416737D01*
X169402122Y-116484591D01*
X169347863Y-116530379D01*
X169277463Y-116539564D01*
X169213273Y-116509229D01*
X169205014Y-116500247D01*
X169204992Y-116500269D01*
X169198642Y-116493919D01*
X169193261Y-116486739D01*
X169076705Y-116399385D01*
X168940316Y-116348255D01*
X168928771Y-116347001D01*
X168926090Y-116345887D01*
X168924778Y-116345575D01*
X168924828Y-116345363D01*
X168863210Y-116319762D01*
X168822782Y-116261401D01*
X168820323Y-116190447D01*
X168856616Y-116129428D01*
X168867225Y-116120853D01*
X168877875Y-116111916D01*
X169031916Y-115957875D01*
X169038972Y-115949467D01*
X169163931Y-115771007D01*
X169169414Y-115761511D01*
X169261490Y-115564053D01*
X169265236Y-115553761D01*
X169311394Y-115381497D01*
X169311058Y-115367401D01*
X169303116Y-115364000D01*
X165962033Y-115364000D01*
X165948502Y-115367973D01*
X165947273Y-115376522D01*
X165994764Y-115553761D01*
X165998510Y-115564053D01*
X166090586Y-115761511D01*
X166096069Y-115771007D01*
X166221028Y-115949467D01*
X166228084Y-115957875D01*
X166382125Y-116111916D01*
X166394746Y-116122507D01*
X166393892Y-116123525D01*
X166434224Y-116173984D01*
X166441532Y-116244603D01*
X166409500Y-116307963D01*
X166348298Y-116343947D01*
X166331238Y-116347000D01*
X166319684Y-116348255D01*
X166183295Y-116399385D01*
X166066739Y-116486739D01*
X165979385Y-116603295D01*
X165928255Y-116739684D01*
X165921500Y-116801866D01*
X165921500Y-118240500D01*
X165901498Y-118308621D01*
X165847842Y-118355114D01*
X165795500Y-118366500D01*
X161717441Y-118366500D01*
X161649320Y-118346498D01*
X161602827Y-118292842D01*
X161592723Y-118222568D01*
X161603246Y-118187250D01*
X161641961Y-118104226D01*
X161641963Y-118104220D01*
X161644284Y-118099243D01*
X161689949Y-117928822D01*
X161702119Y-117883402D01*
X161702119Y-117883400D01*
X161703543Y-117878087D01*
X161723498Y-117650000D01*
X161703543Y-117421913D01*
X161695802Y-117393023D01*
X161645707Y-117206067D01*
X161645706Y-117206065D01*
X161644284Y-117200757D01*
X161630669Y-117171560D01*
X161549849Y-116998238D01*
X161549846Y-116998233D01*
X161547523Y-116993251D01*
X161416198Y-116805700D01*
X161254300Y-116643802D01*
X161249792Y-116640645D01*
X161249789Y-116640643D01*
X161105433Y-116539564D01*
X161066749Y-116512477D01*
X161061767Y-116510154D01*
X161061762Y-116510151D01*
X161027543Y-116494195D01*
X160974258Y-116447278D01*
X160954797Y-116379001D01*
X160975339Y-116311041D01*
X161027543Y-116265805D01*
X161061762Y-116249849D01*
X161061767Y-116249846D01*
X161066749Y-116247523D01*
X161175324Y-116171498D01*
X161249789Y-116119357D01*
X161249792Y-116119355D01*
X161254300Y-116116198D01*
X161416198Y-115954300D01*
X161428360Y-115936932D01*
X161503234Y-115830000D01*
X161547523Y-115766749D01*
X161549846Y-115761767D01*
X161549849Y-115761762D01*
X161641961Y-115564225D01*
X161641961Y-115564224D01*
X161644284Y-115559243D01*
X161666458Y-115476491D01*
X161702119Y-115343402D01*
X161702119Y-115343400D01*
X161703543Y-115338087D01*
X161723498Y-115110000D01*
X161703543Y-114881913D01*
X161702119Y-114876598D01*
X161645707Y-114666067D01*
X161645706Y-114666065D01*
X161644284Y-114660757D01*
X161630669Y-114631560D01*
X161549849Y-114458238D01*
X161549846Y-114458233D01*
X161547523Y-114453251D01*
X161416198Y-114265700D01*
X161254300Y-114103802D01*
X161249792Y-114100645D01*
X161249789Y-114100643D01*
X161171611Y-114045902D01*
X161066749Y-113972477D01*
X161061767Y-113970154D01*
X161061762Y-113970151D01*
X161027543Y-113954195D01*
X160974258Y-113907278D01*
X160954797Y-113839001D01*
X160975339Y-113771041D01*
X161027543Y-113725805D01*
X161061762Y-113709849D01*
X161061767Y-113709846D01*
X161066749Y-113707523D01*
X161171611Y-113634098D01*
X161249789Y-113579357D01*
X161249792Y-113579355D01*
X161254300Y-113576198D01*
X161416198Y-113414300D01*
X161547523Y-113226749D01*
X161549846Y-113221767D01*
X161549849Y-113221762D01*
X161641961Y-113024225D01*
X161641961Y-113024224D01*
X161644284Y-113019243D01*
X161689949Y-112848822D01*
X161702119Y-112803402D01*
X161702119Y-112803400D01*
X161703543Y-112798087D01*
X161723498Y-112570000D01*
X161703543Y-112341913D01*
X161695802Y-112313023D01*
X161645707Y-112126067D01*
X161645706Y-112126065D01*
X161644284Y-112120757D01*
X161630669Y-112091560D01*
X161549849Y-111918238D01*
X161549846Y-111918233D01*
X161547523Y-111913251D01*
X161416198Y-111725700D01*
X161254300Y-111563802D01*
X161249792Y-111560645D01*
X161249789Y-111560643D01*
X161171611Y-111505902D01*
X161066749Y-111432477D01*
X161061767Y-111430154D01*
X161061762Y-111430151D01*
X161027543Y-111414195D01*
X160974258Y-111367278D01*
X160954797Y-111299001D01*
X160975339Y-111231041D01*
X161027543Y-111185805D01*
X161061762Y-111169849D01*
X161061767Y-111169846D01*
X161066749Y-111167523D01*
X161171611Y-111094098D01*
X161249789Y-111039357D01*
X161249792Y-111039355D01*
X161254300Y-111036198D01*
X161416198Y-110874300D01*
X161439148Y-110841525D01*
X161503234Y-110750000D01*
X161547523Y-110686749D01*
X161549846Y-110681767D01*
X161549849Y-110681762D01*
X161641961Y-110484225D01*
X161641961Y-110484224D01*
X161644284Y-110479243D01*
X161646574Y-110470699D01*
X161702119Y-110263402D01*
X161702119Y-110263400D01*
X161703543Y-110258087D01*
X161723498Y-110030000D01*
X161703543Y-109801913D01*
X161695688Y-109772599D01*
X161645707Y-109586067D01*
X161645706Y-109586065D01*
X161644284Y-109580757D01*
X161630669Y-109551560D01*
X161549849Y-109378238D01*
X161549846Y-109378233D01*
X161547523Y-109373251D01*
X161416198Y-109185700D01*
X161254300Y-109023802D01*
X161249792Y-109020645D01*
X161249789Y-109020643D01*
X161171611Y-108965902D01*
X161066749Y-108892477D01*
X161061767Y-108890154D01*
X161061762Y-108890151D01*
X161027543Y-108874195D01*
X160974258Y-108827278D01*
X160954797Y-108759001D01*
X160975339Y-108691041D01*
X161027543Y-108645805D01*
X161061762Y-108629849D01*
X161061767Y-108629846D01*
X161066749Y-108627523D01*
X161171611Y-108554098D01*
X161249789Y-108499357D01*
X161249792Y-108499355D01*
X161254300Y-108496198D01*
X161416198Y-108334300D01*
X161547523Y-108146749D01*
X161549846Y-108141767D01*
X161549849Y-108141762D01*
X161641961Y-107944225D01*
X161641961Y-107944224D01*
X161644284Y-107939243D01*
X161689949Y-107768822D01*
X161702119Y-107723402D01*
X161702119Y-107723400D01*
X161703543Y-107718087D01*
X161723498Y-107490000D01*
X161703543Y-107261913D01*
X161695802Y-107233023D01*
X161645707Y-107046067D01*
X161645706Y-107046065D01*
X161644284Y-107040757D01*
X161630669Y-107011560D01*
X161549849Y-106838238D01*
X161549846Y-106838233D01*
X161547523Y-106833251D01*
X161416198Y-106645700D01*
X161254300Y-106483802D01*
X161249792Y-106480645D01*
X161249789Y-106480643D01*
X161131114Y-106397546D01*
X161066749Y-106352477D01*
X161061767Y-106350154D01*
X161061762Y-106350151D01*
X161027543Y-106334195D01*
X160974258Y-106287278D01*
X160954797Y-106219001D01*
X160975339Y-106151041D01*
X161027543Y-106105805D01*
X161061762Y-106089849D01*
X161061767Y-106089846D01*
X161066749Y-106087523D01*
X161231076Y-105972460D01*
X161249789Y-105959357D01*
X161249792Y-105959355D01*
X161254300Y-105956198D01*
X161416198Y-105794300D01*
X161547523Y-105606749D01*
X161549846Y-105601767D01*
X161549849Y-105601762D01*
X161641961Y-105404225D01*
X161641961Y-105404224D01*
X161644284Y-105399243D01*
X161658004Y-105348042D01*
X161702119Y-105183402D01*
X161702119Y-105183400D01*
X161703543Y-105178087D01*
X161723498Y-104950000D01*
X161703543Y-104721913D01*
X161695802Y-104693023D01*
X161645707Y-104506067D01*
X161645706Y-104506065D01*
X161644284Y-104500757D01*
X161630669Y-104471560D01*
X161549849Y-104298238D01*
X161549846Y-104298233D01*
X161547523Y-104293251D01*
X161422426Y-104114594D01*
X161419357Y-104110211D01*
X161419355Y-104110208D01*
X161416198Y-104105700D01*
X161254300Y-103943802D01*
X161249792Y-103940645D01*
X161249789Y-103940643D01*
X161150912Y-103871409D01*
X161066749Y-103812477D01*
X161061767Y-103810154D01*
X161061762Y-103810151D01*
X161027543Y-103794195D01*
X160974258Y-103747278D01*
X160954797Y-103679001D01*
X160975339Y-103611041D01*
X161027543Y-103565805D01*
X161061762Y-103549849D01*
X161061767Y-103549846D01*
X161066749Y-103547523D01*
X161171611Y-103474098D01*
X161249789Y-103419357D01*
X161249792Y-103419355D01*
X161254300Y-103416198D01*
X161416198Y-103254300D01*
X161547523Y-103066749D01*
X161549846Y-103061767D01*
X161549849Y-103061762D01*
X161641961Y-102864225D01*
X161641961Y-102864224D01*
X161644284Y-102859243D01*
X161679085Y-102729367D01*
X161702119Y-102643402D01*
X161702119Y-102643400D01*
X161703543Y-102638087D01*
X161723498Y-102410000D01*
X161703543Y-102181913D01*
X161695802Y-102153023D01*
X161645707Y-101966067D01*
X161645706Y-101966065D01*
X161644284Y-101960757D01*
X161630669Y-101931560D01*
X161549849Y-101758238D01*
X161549846Y-101758233D01*
X161547523Y-101753251D01*
X161416198Y-101565700D01*
X161254300Y-101403802D01*
X161249792Y-101400645D01*
X161249789Y-101400643D01*
X161171611Y-101345902D01*
X161066749Y-101272477D01*
X161061767Y-101270154D01*
X161061762Y-101270151D01*
X161027543Y-101254195D01*
X160974258Y-101207278D01*
X160954797Y-101139001D01*
X160975339Y-101071041D01*
X161027543Y-101025805D01*
X161061762Y-101009849D01*
X161061767Y-101009846D01*
X161066749Y-101007523D01*
X161171611Y-100934098D01*
X161249789Y-100879357D01*
X161249792Y-100879355D01*
X161254300Y-100876198D01*
X161416198Y-100714300D01*
X161547523Y-100526749D01*
X161549846Y-100521767D01*
X161549849Y-100521762D01*
X161641961Y-100324225D01*
X161641961Y-100324224D01*
X161644284Y-100319243D01*
X161659345Y-100263037D01*
X161693668Y-100134943D01*
X164166780Y-100134943D01*
X164167526Y-100142835D01*
X164170941Y-100178961D01*
X164171500Y-100190819D01*
X164171500Y-110336233D01*
X164170973Y-110347416D01*
X164169298Y-110354909D01*
X164169547Y-110362835D01*
X164169547Y-110362836D01*
X164171438Y-110422986D01*
X164171500Y-110426945D01*
X164171500Y-110454856D01*
X164171997Y-110458790D01*
X164171997Y-110458791D01*
X164172005Y-110458856D01*
X164172938Y-110470693D01*
X164174327Y-110514889D01*
X164179884Y-110534016D01*
X164179978Y-110534339D01*
X164183987Y-110553700D01*
X164186526Y-110573797D01*
X164189445Y-110581168D01*
X164189445Y-110581170D01*
X164202804Y-110614912D01*
X164206649Y-110626142D01*
X164218982Y-110668593D01*
X164223015Y-110675412D01*
X164223017Y-110675417D01*
X164229293Y-110686028D01*
X164237988Y-110703776D01*
X164245448Y-110722617D01*
X164250110Y-110729033D01*
X164250110Y-110729034D01*
X164271436Y-110758387D01*
X164277952Y-110768307D01*
X164300458Y-110806362D01*
X164314779Y-110820683D01*
X164327619Y-110835716D01*
X164339528Y-110852107D01*
X164345634Y-110857158D01*
X164373605Y-110880298D01*
X164382384Y-110888288D01*
X165886829Y-112392733D01*
X165920855Y-112455045D01*
X165923255Y-112492809D01*
X165916502Y-112570000D01*
X165936457Y-112798087D01*
X165937881Y-112803400D01*
X165937881Y-112803402D01*
X165950052Y-112848822D01*
X165995716Y-113019243D01*
X165998039Y-113024224D01*
X165998039Y-113024225D01*
X166090151Y-113221762D01*
X166090154Y-113221767D01*
X166092477Y-113226749D01*
X166223802Y-113414300D01*
X166385700Y-113576198D01*
X166390208Y-113579355D01*
X166390211Y-113579357D01*
X166468389Y-113634098D01*
X166573251Y-113707523D01*
X166578233Y-113709846D01*
X166578238Y-113709849D01*
X166613049Y-113726081D01*
X166666334Y-113772998D01*
X166685795Y-113841275D01*
X166665253Y-113909235D01*
X166613049Y-113954471D01*
X166578489Y-113970586D01*
X166568993Y-113976069D01*
X166390533Y-114101028D01*
X166382125Y-114108084D01*
X166228084Y-114262125D01*
X166221028Y-114270533D01*
X166096069Y-114448993D01*
X166090586Y-114458489D01*
X165998510Y-114655947D01*
X165994764Y-114666239D01*
X165948606Y-114838503D01*
X165948942Y-114852599D01*
X165956884Y-114856000D01*
X169297967Y-114856000D01*
X169311498Y-114852027D01*
X169312727Y-114843478D01*
X169265236Y-114666239D01*
X169261490Y-114655947D01*
X169169414Y-114458489D01*
X169163931Y-114448993D01*
X169038972Y-114270533D01*
X169031916Y-114262125D01*
X168877875Y-114108084D01*
X168869467Y-114101028D01*
X168691007Y-113976069D01*
X168681511Y-113970586D01*
X168646951Y-113954471D01*
X168593666Y-113907554D01*
X168574205Y-113839277D01*
X168594747Y-113771317D01*
X168646951Y-113726081D01*
X168681762Y-113709849D01*
X168681767Y-113709846D01*
X168686749Y-113707523D01*
X168791611Y-113634098D01*
X168869789Y-113579357D01*
X168869792Y-113579355D01*
X168874300Y-113576198D01*
X169036198Y-113414300D01*
X169167523Y-113226749D01*
X169169846Y-113221767D01*
X169169849Y-113221762D01*
X169261961Y-113024225D01*
X169261961Y-113024224D01*
X169264284Y-113019243D01*
X169309949Y-112848822D01*
X169322119Y-112803402D01*
X169322119Y-112803400D01*
X169323543Y-112798087D01*
X169324022Y-112792611D01*
X169324023Y-112792606D01*
X169326955Y-112759084D01*
X169352818Y-112692965D01*
X169410321Y-112651325D01*
X169481208Y-112647384D01*
X169542973Y-112682392D01*
X169553302Y-112694498D01*
X169561717Y-112705726D01*
X169574276Y-112718285D01*
X169676351Y-112794786D01*
X169691946Y-112803324D01*
X169812394Y-112848478D01*
X169827649Y-112852105D01*
X169878514Y-112857631D01*
X169885328Y-112858000D01*
X171907885Y-112858000D01*
X171923124Y-112853525D01*
X171924329Y-112852135D01*
X171926000Y-112844452D01*
X171926000Y-112839884D01*
X172434000Y-112839884D01*
X172438475Y-112855123D01*
X172439865Y-112856328D01*
X172447548Y-112857999D01*
X174474669Y-112857999D01*
X174481490Y-112857629D01*
X174532352Y-112852105D01*
X174547604Y-112848479D01*
X174668054Y-112803324D01*
X174683649Y-112794786D01*
X174785724Y-112718285D01*
X174798285Y-112705724D01*
X174874786Y-112603649D01*
X174883324Y-112588054D01*
X174928478Y-112467606D01*
X174932105Y-112452351D01*
X174937631Y-112401486D01*
X174938000Y-112394672D01*
X174938000Y-111372115D01*
X174933525Y-111356876D01*
X174932135Y-111355671D01*
X174924452Y-111354000D01*
X172452115Y-111354000D01*
X172436876Y-111358475D01*
X172435671Y-111359865D01*
X172434000Y-111367548D01*
X172434000Y-112839884D01*
X171926000Y-112839884D01*
X171926000Y-111372115D01*
X171921525Y-111356876D01*
X171920135Y-111355671D01*
X171912452Y-111354000D01*
X169440116Y-111354000D01*
X169424877Y-111358475D01*
X169423672Y-111359865D01*
X169422001Y-111367548D01*
X169422001Y-111890631D01*
X169401999Y-111958752D01*
X169348343Y-112005245D01*
X169278069Y-112015349D01*
X169213489Y-111985855D01*
X169181806Y-111943881D01*
X169169849Y-111918238D01*
X169169846Y-111918233D01*
X169167523Y-111913251D01*
X169036198Y-111725700D01*
X168874300Y-111563802D01*
X168869792Y-111560645D01*
X168869789Y-111560643D01*
X168791611Y-111505902D01*
X168686749Y-111432477D01*
X168681767Y-111430154D01*
X168681762Y-111430151D01*
X168646951Y-111413919D01*
X168593666Y-111367002D01*
X168574205Y-111298725D01*
X168594747Y-111230765D01*
X168646951Y-111185529D01*
X168681511Y-111169414D01*
X168691007Y-111163931D01*
X168869467Y-111038972D01*
X168877875Y-111031916D01*
X169031916Y-110877875D01*
X169038972Y-110869467D01*
X169163931Y-110691007D01*
X169169416Y-110681507D01*
X169181805Y-110654938D01*
X169228722Y-110601652D01*
X169296999Y-110582191D01*
X169364959Y-110602733D01*
X169411025Y-110656755D01*
X169422000Y-110708187D01*
X169422000Y-110827885D01*
X169426475Y-110843124D01*
X169427865Y-110844329D01*
X169435548Y-110846000D01*
X171907885Y-110846000D01*
X171923124Y-110841525D01*
X171924329Y-110840135D01*
X171926000Y-110832452D01*
X171926000Y-110827885D01*
X172434000Y-110827885D01*
X172438475Y-110843124D01*
X172439865Y-110844329D01*
X172447548Y-110846000D01*
X174919884Y-110846000D01*
X174935123Y-110841525D01*
X174936328Y-110840135D01*
X174937999Y-110832452D01*
X174937999Y-109805331D01*
X174937629Y-109798510D01*
X174932105Y-109747648D01*
X174928479Y-109732396D01*
X174883324Y-109611946D01*
X174874786Y-109596351D01*
X174798285Y-109494276D01*
X174785724Y-109481715D01*
X174683649Y-109405214D01*
X174668054Y-109396676D01*
X174547606Y-109351522D01*
X174532351Y-109347895D01*
X174481486Y-109342369D01*
X174474672Y-109342000D01*
X172452115Y-109342000D01*
X172436876Y-109346475D01*
X172435671Y-109347865D01*
X172434000Y-109355548D01*
X172434000Y-110827885D01*
X171926000Y-110827885D01*
X171926000Y-109360116D01*
X171921525Y-109344877D01*
X171920135Y-109343672D01*
X171912452Y-109342001D01*
X169885331Y-109342001D01*
X169878510Y-109342371D01*
X169827648Y-109347895D01*
X169812396Y-109351521D01*
X169691946Y-109396676D01*
X169676351Y-109405214D01*
X169574276Y-109481715D01*
X169561715Y-109494276D01*
X169479828Y-109603538D01*
X169477002Y-109601420D01*
X169438705Y-109639615D01*
X169369311Y-109654613D01*
X169302824Y-109629712D01*
X169265930Y-109579942D01*
X169263813Y-109580929D01*
X169169414Y-109378489D01*
X169163931Y-109368993D01*
X169038972Y-109190533D01*
X169031916Y-109182125D01*
X168877875Y-109028084D01*
X168869462Y-109021024D01*
X168836170Y-108997713D01*
X168791841Y-108942256D01*
X168784532Y-108871637D01*
X168816562Y-108808276D01*
X168877764Y-108772291D01*
X168908440Y-108768500D01*
X171581864Y-108768500D01*
X171598307Y-108769578D01*
X171630000Y-108773750D01*
X171638189Y-108772672D01*
X171669874Y-108768501D01*
X171669884Y-108768500D01*
X171669885Y-108768500D01*
X171734449Y-108760000D01*
X171769457Y-108755391D01*
X171780664Y-108753916D01*
X171780666Y-108753915D01*
X171788851Y-108752838D01*
X171936876Y-108691524D01*
X172032072Y-108618477D01*
X172032075Y-108618474D01*
X172063987Y-108593987D01*
X172069017Y-108587432D01*
X172083452Y-108568621D01*
X172094319Y-108556230D01*
X174390518Y-106260031D01*
X174452830Y-106226005D01*
X174512224Y-106227419D01*
X174534030Y-106233262D01*
X174534032Y-106233262D01*
X174539345Y-106234686D01*
X174750000Y-106253116D01*
X174960655Y-106234686D01*
X174965968Y-106233262D01*
X174965970Y-106233262D01*
X175159600Y-106181379D01*
X175159602Y-106181378D01*
X175164910Y-106179956D01*
X175170908Y-106177159D01*
X175351577Y-106092912D01*
X175351580Y-106092910D01*
X175356558Y-106090589D01*
X175529776Y-105969301D01*
X175679301Y-105819776D01*
X175771788Y-105687690D01*
X175827244Y-105643363D01*
X175897863Y-105636054D01*
X175961224Y-105668084D01*
X175978210Y-105687688D01*
X176070699Y-105819776D01*
X176220224Y-105969301D01*
X176393442Y-106090589D01*
X176398420Y-106092910D01*
X176398423Y-106092912D01*
X176579092Y-106177159D01*
X176585090Y-106179956D01*
X176590398Y-106181378D01*
X176590400Y-106181379D01*
X176784030Y-106233262D01*
X176784032Y-106233262D01*
X176789345Y-106234686D01*
X177000000Y-106253116D01*
X177210655Y-106234686D01*
X177215968Y-106233262D01*
X177215970Y-106233262D01*
X177409600Y-106181379D01*
X177409602Y-106181378D01*
X177414910Y-106179956D01*
X177420908Y-106177159D01*
X177601577Y-106092912D01*
X177601580Y-106092910D01*
X177606558Y-106090589D01*
X177779776Y-105969301D01*
X177929301Y-105819776D01*
X178021788Y-105687690D01*
X178077244Y-105643363D01*
X178147863Y-105636054D01*
X178211224Y-105668084D01*
X178228210Y-105687688D01*
X178320699Y-105819776D01*
X178470224Y-105969301D01*
X178643442Y-106090589D01*
X178648420Y-106092910D01*
X178648423Y-106092912D01*
X178829092Y-106177159D01*
X178835090Y-106179956D01*
X178840398Y-106181378D01*
X178840400Y-106181379D01*
X179034030Y-106233262D01*
X179034032Y-106233262D01*
X179039345Y-106234686D01*
X179250000Y-106253116D01*
X179460655Y-106234686D01*
X179465968Y-106233262D01*
X179465970Y-106233262D01*
X179659600Y-106181379D01*
X179659602Y-106181378D01*
X179664910Y-106179956D01*
X179670908Y-106177159D01*
X179851577Y-106092912D01*
X179851580Y-106092910D01*
X179856558Y-106090589D01*
X180029776Y-105969301D01*
X180179301Y-105819776D01*
X180300589Y-105646558D01*
X180319153Y-105606749D01*
X180387633Y-105459892D01*
X180387634Y-105459891D01*
X180389956Y-105454910D01*
X180444686Y-105250655D01*
X180463116Y-105040000D01*
X180444686Y-104829345D01*
X180406841Y-104688104D01*
X180403728Y-104676486D01*
X210918721Y-104676486D01*
X210927548Y-104688104D01*
X211150281Y-104849929D01*
X211156961Y-104854169D01*
X211426572Y-105002389D01*
X211433707Y-105005746D01*
X211719770Y-105119007D01*
X211727296Y-105121452D01*
X212025279Y-105197961D01*
X212033050Y-105199444D01*
X212338278Y-105238002D01*
X212346169Y-105238499D01*
X212653831Y-105238499D01*
X212661722Y-105238002D01*
X212966950Y-105199444D01*
X212974721Y-105197961D01*
X213272704Y-105121452D01*
X213280230Y-105119007D01*
X213566293Y-105005746D01*
X213573428Y-105002389D01*
X213843039Y-104854169D01*
X213849719Y-104849929D01*
X214072823Y-104687835D01*
X214081246Y-104676912D01*
X214074342Y-104664051D01*
X212512812Y-103102521D01*
X212498868Y-103094907D01*
X212497035Y-103095038D01*
X212490420Y-103099289D01*
X210925334Y-104664375D01*
X210918721Y-104676486D01*
X180403728Y-104676486D01*
X180391379Y-104630400D01*
X180391378Y-104630398D01*
X180389956Y-104625090D01*
X180370191Y-104582704D01*
X180302912Y-104438423D01*
X180302910Y-104438420D01*
X180300589Y-104433442D01*
X180179301Y-104260224D01*
X180029776Y-104110699D01*
X179856558Y-103989411D01*
X179851580Y-103987090D01*
X179851577Y-103987088D01*
X179669892Y-103902367D01*
X179669891Y-103902366D01*
X179664910Y-103900044D01*
X179659602Y-103898622D01*
X179659600Y-103898621D01*
X179465970Y-103846738D01*
X179465968Y-103846738D01*
X179460655Y-103845314D01*
X179250000Y-103826884D01*
X179039345Y-103845314D01*
X179034032Y-103846738D01*
X179034030Y-103846738D01*
X178840400Y-103898621D01*
X178840398Y-103898622D01*
X178835090Y-103900044D01*
X178830109Y-103902366D01*
X178830108Y-103902367D01*
X178648423Y-103987088D01*
X178648420Y-103987090D01*
X178643442Y-103989411D01*
X178470224Y-104110699D01*
X178320699Y-104260224D01*
X178271113Y-104331041D01*
X178228213Y-104392309D01*
X178172756Y-104436637D01*
X178102137Y-104443946D01*
X178038776Y-104411916D01*
X178021787Y-104392309D01*
X177978887Y-104331041D01*
X177929301Y-104260224D01*
X177779776Y-104110699D01*
X177606558Y-103989411D01*
X177601580Y-103987090D01*
X177601577Y-103987088D01*
X177419892Y-103902367D01*
X177419891Y-103902366D01*
X177414910Y-103900044D01*
X177409602Y-103898622D01*
X177409600Y-103898621D01*
X177215970Y-103846738D01*
X177215968Y-103846738D01*
X177210655Y-103845314D01*
X177107030Y-103836248D01*
X177040912Y-103810384D01*
X176999273Y-103752881D01*
X176995332Y-103681994D01*
X177028917Y-103621632D01*
X177916092Y-102734457D01*
X209987290Y-102734457D01*
X210006607Y-103041493D01*
X210007600Y-103049354D01*
X210065246Y-103351545D01*
X210067217Y-103359222D01*
X210162284Y-103651808D01*
X210165199Y-103659171D01*
X210296189Y-103937540D01*
X210300001Y-103944473D01*
X210464851Y-104204235D01*
X210469495Y-104210628D01*
X210544497Y-104301289D01*
X210557014Y-104309744D01*
X210567752Y-104303537D01*
X212127978Y-102743311D01*
X212134356Y-102731631D01*
X212864408Y-102731631D01*
X212864539Y-102733464D01*
X212868790Y-102740079D01*
X214431145Y-104302434D01*
X214444407Y-104309676D01*
X214454512Y-104302487D01*
X214530505Y-104210628D01*
X214535149Y-104204235D01*
X214699999Y-103944473D01*
X214703811Y-103937540D01*
X214834801Y-103659171D01*
X214837716Y-103651808D01*
X214932783Y-103359222D01*
X214934754Y-103351545D01*
X214992400Y-103049354D01*
X214993393Y-103041493D01*
X215012710Y-102734457D01*
X215012710Y-102726541D01*
X214993393Y-102419505D01*
X214992400Y-102411644D01*
X214934754Y-102109453D01*
X214932783Y-102101776D01*
X214837716Y-101809190D01*
X214834801Y-101801827D01*
X214703811Y-101523458D01*
X214699999Y-101516525D01*
X214535149Y-101256763D01*
X214530505Y-101250370D01*
X214455503Y-101159709D01*
X214442986Y-101151254D01*
X214432248Y-101157461D01*
X212872022Y-102717687D01*
X212864408Y-102731631D01*
X212134356Y-102731631D01*
X212135592Y-102729367D01*
X212135461Y-102727534D01*
X212131210Y-102720919D01*
X210568855Y-101158564D01*
X210555593Y-101151322D01*
X210545488Y-101158511D01*
X210469495Y-101250370D01*
X210464851Y-101256763D01*
X210300001Y-101516525D01*
X210296189Y-101523458D01*
X210165199Y-101801827D01*
X210162284Y-101809190D01*
X210067217Y-102101776D01*
X210065246Y-102109453D01*
X210007600Y-102411644D01*
X210006607Y-102419505D01*
X209987290Y-102726541D01*
X209987290Y-102734457D01*
X177916092Y-102734457D01*
X179866463Y-100784086D01*
X210918754Y-100784086D01*
X210925658Y-100796947D01*
X212487188Y-102358477D01*
X212501132Y-102366091D01*
X212502965Y-102365960D01*
X212509580Y-102361709D01*
X214074666Y-100796623D01*
X214081279Y-100784512D01*
X214072452Y-100772894D01*
X213849719Y-100611069D01*
X213843039Y-100606829D01*
X213573428Y-100458609D01*
X213566293Y-100455252D01*
X213280230Y-100341991D01*
X213272704Y-100339546D01*
X212974721Y-100263037D01*
X212966950Y-100261554D01*
X212661722Y-100222996D01*
X212653831Y-100222499D01*
X212346169Y-100222499D01*
X212338278Y-100222996D01*
X212033050Y-100261554D01*
X212025279Y-100263037D01*
X211727296Y-100339546D01*
X211719770Y-100341991D01*
X211433707Y-100455252D01*
X211426572Y-100458609D01*
X211156961Y-100606829D01*
X211150281Y-100611069D01*
X210927177Y-100773163D01*
X210918754Y-100784086D01*
X179866463Y-100784086D01*
X180896234Y-99754315D01*
X180908625Y-99743448D01*
X180927437Y-99729013D01*
X180933987Y-99723987D01*
X180958474Y-99692075D01*
X180958477Y-99692072D01*
X181031523Y-99596876D01*
X181031524Y-99596875D01*
X181076345Y-99488669D01*
X181089678Y-99456479D01*
X181092838Y-99448850D01*
X181108500Y-99329885D01*
X181108500Y-99329878D01*
X181113750Y-99290000D01*
X181109578Y-99258307D01*
X181108500Y-99241864D01*
X181108500Y-97298136D01*
X181109578Y-97281690D01*
X181112672Y-97258188D01*
X181113750Y-97250000D01*
X181108500Y-97210122D01*
X181108500Y-97210115D01*
X181092838Y-97091150D01*
X181031524Y-96943125D01*
X181001053Y-96903414D01*
X180958477Y-96847928D01*
X180958474Y-96847925D01*
X180958471Y-96847921D01*
X180939016Y-96822566D01*
X180939013Y-96822563D01*
X180933987Y-96816013D01*
X180927432Y-96810983D01*
X180908621Y-96796548D01*
X180896230Y-96785681D01*
X178090549Y-93980000D01*
X191786526Y-93980000D01*
X191806391Y-94232403D01*
X191807545Y-94237210D01*
X191807546Y-94237216D01*
X191836834Y-94359210D01*
X191865495Y-94478591D01*
X191867388Y-94483162D01*
X191867389Y-94483164D01*
X191934307Y-94644717D01*
X191962384Y-94712502D01*
X192094672Y-94928376D01*
X192259102Y-95120898D01*
X192451624Y-95285328D01*
X192667498Y-95417616D01*
X192672068Y-95419509D01*
X192672072Y-95419511D01*
X192896836Y-95512611D01*
X192901409Y-95514505D01*
X192986032Y-95534821D01*
X193142784Y-95572454D01*
X193142790Y-95572455D01*
X193147597Y-95573609D01*
X193400000Y-95593474D01*
X193652403Y-95573609D01*
X193657210Y-95572455D01*
X193657216Y-95572454D01*
X193813968Y-95534821D01*
X193898591Y-95514505D01*
X193903164Y-95512611D01*
X194127928Y-95419511D01*
X194127932Y-95419509D01*
X194132502Y-95417616D01*
X194348376Y-95285328D01*
X194540898Y-95120898D01*
X194705328Y-94928376D01*
X194837616Y-94712502D01*
X194865694Y-94644717D01*
X194932611Y-94483164D01*
X194932612Y-94483162D01*
X194934505Y-94478591D01*
X194963166Y-94359210D01*
X194992454Y-94237216D01*
X194992455Y-94237210D01*
X194993609Y-94232403D01*
X195013474Y-93980000D01*
X194993609Y-93727597D01*
X194990620Y-93715144D01*
X194935660Y-93486221D01*
X194934505Y-93481409D01*
X194932611Y-93476836D01*
X194839511Y-93252072D01*
X194839509Y-93252068D01*
X194837616Y-93247498D01*
X194705328Y-93031624D01*
X194540898Y-92839102D01*
X194348376Y-92674672D01*
X194132502Y-92542384D01*
X194127932Y-92540491D01*
X194127928Y-92540489D01*
X193903164Y-92447389D01*
X193903162Y-92447388D01*
X193898591Y-92445495D01*
X193813968Y-92425179D01*
X193657216Y-92387546D01*
X193657210Y-92387545D01*
X193652403Y-92386391D01*
X193400000Y-92366526D01*
X193147597Y-92386391D01*
X193142790Y-92387545D01*
X193142784Y-92387546D01*
X192986032Y-92425179D01*
X192901409Y-92445495D01*
X192896838Y-92447388D01*
X192896836Y-92447389D01*
X192672072Y-92540489D01*
X192672068Y-92540491D01*
X192667498Y-92542384D01*
X192451624Y-92674672D01*
X192259102Y-92839102D01*
X192094672Y-93031624D01*
X191962384Y-93247498D01*
X191960491Y-93252068D01*
X191960489Y-93252072D01*
X191867389Y-93476836D01*
X191865495Y-93481409D01*
X191864340Y-93486221D01*
X191809381Y-93715144D01*
X191806391Y-93727597D01*
X191786526Y-93980000D01*
X178090549Y-93980000D01*
X173409815Y-89299266D01*
X173398948Y-89286875D01*
X173384513Y-89268063D01*
X173379487Y-89261513D01*
X173347575Y-89237026D01*
X173347572Y-89237023D01*
X173315263Y-89212231D01*
X173273397Y-89154892D01*
X173269176Y-89084021D01*
X173302874Y-89023175D01*
X173326049Y-89000000D01*
X185886526Y-89000000D01*
X185906391Y-89252403D01*
X185907545Y-89257210D01*
X185907546Y-89257216D01*
X185945179Y-89413968D01*
X185965495Y-89498591D01*
X185967388Y-89503162D01*
X185967389Y-89503164D01*
X186034867Y-89666069D01*
X186062384Y-89732502D01*
X186194672Y-89948376D01*
X186359102Y-90140898D01*
X186551624Y-90305328D01*
X186767498Y-90437616D01*
X186772068Y-90439509D01*
X186772072Y-90439511D01*
X186996836Y-90532611D01*
X187001409Y-90534505D01*
X187086032Y-90554821D01*
X187242784Y-90592454D01*
X187242790Y-90592455D01*
X187247597Y-90593609D01*
X187500000Y-90613474D01*
X187752403Y-90593609D01*
X187757210Y-90592455D01*
X187757216Y-90592454D01*
X187913968Y-90554821D01*
X187998591Y-90534505D01*
X188003164Y-90532611D01*
X188227928Y-90439511D01*
X188227932Y-90439509D01*
X188232502Y-90437616D01*
X188448376Y-90305328D01*
X188640898Y-90140898D01*
X188805328Y-89948376D01*
X188937616Y-89732502D01*
X188965134Y-89666069D01*
X189032611Y-89503164D01*
X189032612Y-89503162D01*
X189034505Y-89498591D01*
X189054821Y-89413968D01*
X189092454Y-89257216D01*
X189092455Y-89257210D01*
X189093609Y-89252403D01*
X189113474Y-89000000D01*
X225886526Y-89000000D01*
X225906391Y-89252403D01*
X225907545Y-89257210D01*
X225907546Y-89257216D01*
X225945179Y-89413968D01*
X225965495Y-89498591D01*
X225967388Y-89503162D01*
X225967389Y-89503164D01*
X226034867Y-89666069D01*
X226062384Y-89732502D01*
X226194672Y-89948376D01*
X226359102Y-90140898D01*
X226551624Y-90305328D01*
X226767498Y-90437616D01*
X226772068Y-90439509D01*
X226772072Y-90439511D01*
X226996836Y-90532611D01*
X227001409Y-90534505D01*
X227086032Y-90554821D01*
X227242784Y-90592454D01*
X227242790Y-90592455D01*
X227247597Y-90593609D01*
X227500000Y-90613474D01*
X227752403Y-90593609D01*
X227757210Y-90592455D01*
X227757216Y-90592454D01*
X227913968Y-90554821D01*
X227998591Y-90534505D01*
X228003164Y-90532611D01*
X228227928Y-90439511D01*
X228227932Y-90439509D01*
X228232502Y-90437616D01*
X228448376Y-90305328D01*
X228640898Y-90140898D01*
X228805328Y-89948376D01*
X228937616Y-89732502D01*
X228965134Y-89666069D01*
X229032611Y-89503164D01*
X229032612Y-89503162D01*
X229034505Y-89498591D01*
X229054821Y-89413968D01*
X229092454Y-89257216D01*
X229092455Y-89257210D01*
X229093609Y-89252403D01*
X229113474Y-89000000D01*
X229093609Y-88747597D01*
X229083203Y-88704250D01*
X229052328Y-88575649D01*
X229034505Y-88501409D01*
X229028846Y-88487746D01*
X228939511Y-88272072D01*
X228939509Y-88272068D01*
X228937616Y-88267498D01*
X228805328Y-88051624D01*
X228640898Y-87859102D01*
X228448376Y-87694672D01*
X228232502Y-87562384D01*
X228227932Y-87560491D01*
X228227928Y-87560489D01*
X228003164Y-87467389D01*
X228003162Y-87467388D01*
X227998591Y-87465495D01*
X227893304Y-87440218D01*
X227757216Y-87407546D01*
X227757210Y-87407545D01*
X227752403Y-87406391D01*
X227500000Y-87386526D01*
X227247597Y-87406391D01*
X227242790Y-87407545D01*
X227242784Y-87407546D01*
X227106696Y-87440218D01*
X227001409Y-87465495D01*
X226996838Y-87467388D01*
X226996836Y-87467389D01*
X226772072Y-87560489D01*
X226772068Y-87560491D01*
X226767498Y-87562384D01*
X226551624Y-87694672D01*
X226359102Y-87859102D01*
X226194672Y-88051624D01*
X226062384Y-88267498D01*
X226060491Y-88272068D01*
X226060489Y-88272072D01*
X225971154Y-88487746D01*
X225965495Y-88501409D01*
X225947672Y-88575649D01*
X225916798Y-88704250D01*
X225906391Y-88747597D01*
X225886526Y-89000000D01*
X189113474Y-89000000D01*
X189093609Y-88747597D01*
X189083203Y-88704250D01*
X189052328Y-88575649D01*
X189034505Y-88501409D01*
X189028846Y-88487746D01*
X188939511Y-88272072D01*
X188939509Y-88272068D01*
X188937616Y-88267498D01*
X188906440Y-88216624D01*
X197148621Y-88216624D01*
X197152988Y-88222774D01*
X197352563Y-88339397D01*
X197361846Y-88343844D01*
X197580007Y-88427152D01*
X197589905Y-88430028D01*
X197818744Y-88476585D01*
X197828972Y-88477804D01*
X198062340Y-88486362D01*
X198072626Y-88485895D01*
X198304262Y-88456222D01*
X198314340Y-88454080D01*
X198538014Y-88386974D01*
X198547612Y-88383212D01*
X198757324Y-88280476D01*
X198766169Y-88275203D01*
X198838869Y-88223347D01*
X198847270Y-88212646D01*
X198840283Y-88199493D01*
X198663924Y-88023134D01*
X201516500Y-88023134D01*
X201523255Y-88085316D01*
X201574385Y-88221705D01*
X201661739Y-88338261D01*
X201778295Y-88425615D01*
X201914684Y-88476745D01*
X201976866Y-88483500D01*
X204023134Y-88483500D01*
X204085316Y-88476745D01*
X204221705Y-88425615D01*
X204338261Y-88338261D01*
X204425615Y-88221705D01*
X204476745Y-88085316D01*
X204483500Y-88023134D01*
X204483500Y-85976866D01*
X204476745Y-85914684D01*
X204425615Y-85778295D01*
X204338261Y-85661739D01*
X204221705Y-85574385D01*
X204085316Y-85523255D01*
X204023134Y-85516500D01*
X201976866Y-85516500D01*
X201914684Y-85523255D01*
X201778295Y-85574385D01*
X201661739Y-85661739D01*
X201574385Y-85778295D01*
X201523255Y-85914684D01*
X201516500Y-85976866D01*
X201516500Y-88023134D01*
X198663924Y-88023134D01*
X198012812Y-87372022D01*
X197998868Y-87364408D01*
X197997035Y-87364539D01*
X197990420Y-87368790D01*
X197155881Y-88203329D01*
X197148621Y-88216624D01*
X188906440Y-88216624D01*
X188805328Y-88051624D01*
X188640898Y-87859102D01*
X188448376Y-87694672D01*
X188232502Y-87562384D01*
X188227932Y-87560491D01*
X188227928Y-87560489D01*
X188003164Y-87467389D01*
X188003162Y-87467388D01*
X187998591Y-87465495D01*
X187893304Y-87440218D01*
X187757216Y-87407546D01*
X187757210Y-87407545D01*
X187752403Y-87406391D01*
X187500000Y-87386526D01*
X187247597Y-87406391D01*
X187242790Y-87407545D01*
X187242784Y-87407546D01*
X187106696Y-87440218D01*
X187001409Y-87465495D01*
X186996838Y-87467388D01*
X186996836Y-87467389D01*
X186772072Y-87560489D01*
X186772068Y-87560491D01*
X186767498Y-87562384D01*
X186551624Y-87694672D01*
X186359102Y-87859102D01*
X186194672Y-88051624D01*
X186062384Y-88267498D01*
X186060491Y-88272068D01*
X186060489Y-88272072D01*
X185971154Y-88487746D01*
X185965495Y-88501409D01*
X185947672Y-88575649D01*
X185916798Y-88704250D01*
X185906391Y-88747597D01*
X185886526Y-89000000D01*
X173326049Y-89000000D01*
X174026553Y-88299496D01*
X174088865Y-88265470D01*
X174143456Y-88265698D01*
X174157614Y-88268902D01*
X174157617Y-88268902D01*
X174163250Y-88270177D01*
X174169021Y-88270404D01*
X174169023Y-88270404D01*
X174230460Y-88272818D01*
X174368841Y-88278255D01*
X174572462Y-88248732D01*
X174648932Y-88222774D01*
X174761820Y-88184454D01*
X174761825Y-88184452D01*
X174767292Y-88182596D01*
X174946808Y-88082062D01*
X174952342Y-88077460D01*
X175100565Y-87954183D01*
X175104997Y-87950497D01*
X175191906Y-87846001D01*
X175232868Y-87796750D01*
X175232870Y-87796747D01*
X175236562Y-87792308D01*
X175337096Y-87612792D01*
X175338952Y-87607325D01*
X175338954Y-87607320D01*
X175401376Y-87423430D01*
X175401376Y-87423429D01*
X175403232Y-87417962D01*
X175432755Y-87214341D01*
X175434296Y-87155500D01*
X175419904Y-86998868D01*
X175417141Y-86968799D01*
X196512658Y-86968799D01*
X196526102Y-87201942D01*
X196527535Y-87212144D01*
X196578873Y-87439949D01*
X196581956Y-87449789D01*
X196669814Y-87666156D01*
X196674457Y-87675347D01*
X196775555Y-87840325D01*
X196786011Y-87849785D01*
X196794789Y-87846001D01*
X197627978Y-87012812D01*
X197634356Y-87001132D01*
X198364408Y-87001132D01*
X198364539Y-87002965D01*
X198368790Y-87009580D01*
X199200045Y-87840835D01*
X199212055Y-87847394D01*
X199223794Y-87838426D01*
X199272518Y-87770619D01*
X199277829Y-87761780D01*
X199381291Y-87552442D01*
X199385089Y-87542849D01*
X199452974Y-87319413D01*
X199455151Y-87309343D01*
X199485869Y-87076015D01*
X199486388Y-87069340D01*
X199488001Y-87003364D01*
X199487807Y-86996647D01*
X199468525Y-86762108D01*
X199466842Y-86751946D01*
X199409952Y-86525453D01*
X199406634Y-86515706D01*
X199313513Y-86301542D01*
X199308646Y-86292467D01*
X199223465Y-86160796D01*
X199212779Y-86151593D01*
X199203214Y-86155996D01*
X198372022Y-86987188D01*
X198364408Y-87001132D01*
X197634356Y-87001132D01*
X197635592Y-86998868D01*
X197635461Y-86997035D01*
X197631210Y-86990420D01*
X196799892Y-86159102D01*
X196788356Y-86152802D01*
X196776073Y-86162426D01*
X196709036Y-86260698D01*
X196703943Y-86269662D01*
X196605619Y-86481483D01*
X196602062Y-86491151D01*
X196539657Y-86716178D01*
X196537726Y-86726298D01*
X196512910Y-86958510D01*
X196512658Y-86968799D01*
X175417141Y-86968799D01*
X175415999Y-86956367D01*
X175415998Y-86956364D01*
X175415470Y-86950613D01*
X175359621Y-86752588D01*
X175341666Y-86716178D01*
X175271174Y-86573236D01*
X175268620Y-86568057D01*
X175171362Y-86437812D01*
X175148968Y-86407823D01*
X175148967Y-86407822D01*
X175145515Y-86403199D01*
X175141279Y-86399283D01*
X174998668Y-86267455D01*
X174998665Y-86267453D01*
X174994428Y-86263536D01*
X174820420Y-86153745D01*
X174629317Y-86077503D01*
X174427521Y-86037363D01*
X174421746Y-86037287D01*
X174421742Y-86037287D01*
X174318952Y-86035942D01*
X174221789Y-86034670D01*
X174216092Y-86035649D01*
X174216091Y-86035649D01*
X174024708Y-86068534D01*
X174024707Y-86068534D01*
X174019011Y-86069513D01*
X173825978Y-86140727D01*
X173649155Y-86245925D01*
X173644815Y-86249731D01*
X173644811Y-86249734D01*
X173622088Y-86269662D01*
X173494464Y-86381586D01*
X173490889Y-86386121D01*
X173490888Y-86386122D01*
X173404499Y-86495707D01*
X173367086Y-86543165D01*
X173364395Y-86548281D01*
X173364393Y-86548283D01*
X173273978Y-86720134D01*
X173271286Y-86725251D01*
X173210273Y-86921746D01*
X173186089Y-87126069D01*
X173199546Y-87331379D01*
X173199907Y-87332802D01*
X173190988Y-87401822D01*
X173164733Y-87440218D01*
X172051972Y-88552979D01*
X171989660Y-88587005D01*
X171938296Y-88587463D01*
X171887521Y-88577363D01*
X171881746Y-88577287D01*
X171881742Y-88577287D01*
X171778952Y-88575942D01*
X171681789Y-88574670D01*
X171676092Y-88575649D01*
X171676091Y-88575649D01*
X171484708Y-88608534D01*
X171484707Y-88608534D01*
X171479011Y-88609513D01*
X171285978Y-88680727D01*
X171109155Y-88785925D01*
X171104815Y-88789731D01*
X171104811Y-88789734D01*
X171039616Y-88846909D01*
X170954464Y-88921586D01*
X170827086Y-89083165D01*
X170824395Y-89088281D01*
X170824393Y-89088283D01*
X170735897Y-89256487D01*
X170731286Y-89265251D01*
X170670273Y-89461746D01*
X170646089Y-89666069D01*
X170659546Y-89871379D01*
X170710192Y-90070798D01*
X170796331Y-90257648D01*
X170915079Y-90425672D01*
X171062458Y-90569242D01*
X171233532Y-90683551D01*
X171238835Y-90685829D01*
X171238838Y-90685831D01*
X171417266Y-90762489D01*
X171422573Y-90764769D01*
X171495700Y-90781316D01*
X171617613Y-90808902D01*
X171617618Y-90808903D01*
X171623250Y-90810177D01*
X171629021Y-90810404D01*
X171629023Y-90810404D01*
X171690460Y-90812818D01*
X171828841Y-90818255D01*
X172032462Y-90788732D01*
X172103055Y-90764769D01*
X172221820Y-90724454D01*
X172221825Y-90724452D01*
X172227292Y-90722596D01*
X172292941Y-90685831D01*
X172302744Y-90680341D01*
X172406808Y-90622062D01*
X172417601Y-90613086D01*
X172560565Y-90494183D01*
X172564997Y-90490497D01*
X172568683Y-90486065D01*
X172568688Y-90486060D01*
X172619691Y-90424735D01*
X172678628Y-90385151D01*
X172749610Y-90383714D01*
X172805660Y-90416209D01*
X178605148Y-96215697D01*
X178639174Y-96278009D01*
X178634109Y-96348824D01*
X178588324Y-96408005D01*
X178470224Y-96490699D01*
X178320699Y-96640224D01*
X178228213Y-96772309D01*
X178172756Y-96816637D01*
X178102137Y-96823946D01*
X178038776Y-96791916D01*
X178021787Y-96772309D01*
X177929301Y-96640224D01*
X177779776Y-96490699D01*
X177606558Y-96369411D01*
X177601580Y-96367090D01*
X177601577Y-96367088D01*
X177419892Y-96282367D01*
X177419891Y-96282366D01*
X177414910Y-96280044D01*
X177409602Y-96278622D01*
X177409600Y-96278621D01*
X177215970Y-96226738D01*
X177215968Y-96226738D01*
X177210655Y-96225314D01*
X177000000Y-96206884D01*
X176789345Y-96225314D01*
X176784032Y-96226738D01*
X176784030Y-96226738D01*
X176590400Y-96278621D01*
X176590398Y-96278622D01*
X176585090Y-96280044D01*
X176580109Y-96282366D01*
X176580108Y-96282367D01*
X176398423Y-96367088D01*
X176398420Y-96367090D01*
X176393442Y-96369411D01*
X176220224Y-96490699D01*
X176070699Y-96640224D01*
X176005898Y-96732770D01*
X175988393Y-96757770D01*
X175932936Y-96802099D01*
X175885180Y-96811500D01*
X175864820Y-96811500D01*
X175796699Y-96791498D01*
X175761607Y-96757770D01*
X175744102Y-96732770D01*
X175679301Y-96640224D01*
X175529776Y-96490699D01*
X175356558Y-96369411D01*
X175351580Y-96367090D01*
X175351577Y-96367088D01*
X175169892Y-96282367D01*
X175169891Y-96282366D01*
X175164910Y-96280044D01*
X175159602Y-96278622D01*
X175159600Y-96278621D01*
X174965970Y-96226738D01*
X174965968Y-96226738D01*
X174960655Y-96225314D01*
X174750000Y-96206884D01*
X174539345Y-96225314D01*
X174534032Y-96226738D01*
X174534030Y-96226738D01*
X174340400Y-96278621D01*
X174340398Y-96278622D01*
X174335090Y-96280044D01*
X174330109Y-96282366D01*
X174330108Y-96282367D01*
X174148423Y-96367088D01*
X174148420Y-96367090D01*
X174143442Y-96369411D01*
X173970224Y-96490699D01*
X173820699Y-96640224D01*
X173728213Y-96772309D01*
X173672756Y-96816637D01*
X173602137Y-96823946D01*
X173538776Y-96791916D01*
X173521787Y-96772309D01*
X173429301Y-96640224D01*
X173279776Y-96490699D01*
X173106558Y-96369411D01*
X173101580Y-96367090D01*
X173101577Y-96367088D01*
X172919892Y-96282367D01*
X172919891Y-96282366D01*
X172914910Y-96280044D01*
X172909602Y-96278622D01*
X172909600Y-96278621D01*
X172715970Y-96226738D01*
X172715968Y-96226738D01*
X172710655Y-96225314D01*
X172500000Y-96206884D01*
X172289345Y-96225314D01*
X172284032Y-96226738D01*
X172284030Y-96226738D01*
X172090400Y-96278621D01*
X172090398Y-96278622D01*
X172085090Y-96280044D01*
X172080109Y-96282366D01*
X172080108Y-96282367D01*
X171898423Y-96367088D01*
X171898420Y-96367090D01*
X171893442Y-96369411D01*
X171720224Y-96490699D01*
X171570699Y-96640224D01*
X171505898Y-96732770D01*
X171450441Y-96777099D01*
X171402685Y-96786500D01*
X171347315Y-96786500D01*
X171279194Y-96766498D01*
X171244102Y-96732770D01*
X171179301Y-96640224D01*
X171029776Y-96490699D01*
X170856558Y-96369411D01*
X170851580Y-96367090D01*
X170851577Y-96367088D01*
X170669892Y-96282367D01*
X170669891Y-96282366D01*
X170664910Y-96280044D01*
X170659602Y-96278622D01*
X170659600Y-96278621D01*
X170465970Y-96226738D01*
X170465968Y-96226738D01*
X170460655Y-96225314D01*
X170250000Y-96206884D01*
X170039345Y-96225314D01*
X170034032Y-96226738D01*
X170034030Y-96226738D01*
X169840400Y-96278621D01*
X169840398Y-96278622D01*
X169835090Y-96280044D01*
X169830109Y-96282366D01*
X169830108Y-96282367D01*
X169648423Y-96367088D01*
X169648420Y-96367090D01*
X169643442Y-96369411D01*
X169470224Y-96490699D01*
X169323184Y-96637739D01*
X169260872Y-96671765D01*
X169190057Y-96666700D01*
X169130876Y-96620914D01*
X169039361Y-96490216D01*
X169039356Y-96490210D01*
X169036198Y-96485700D01*
X168874300Y-96323802D01*
X168869792Y-96320645D01*
X168869789Y-96320643D01*
X168791611Y-96265902D01*
X168686749Y-96192477D01*
X168681767Y-96190154D01*
X168681762Y-96190151D01*
X168484225Y-96098039D01*
X168484224Y-96098039D01*
X168479243Y-96095716D01*
X168473935Y-96094294D01*
X168473933Y-96094293D01*
X168263402Y-96037881D01*
X168263400Y-96037881D01*
X168258087Y-96036457D01*
X168158520Y-96027746D01*
X168089851Y-96021738D01*
X168089844Y-96021738D01*
X168087127Y-96021500D01*
X167172873Y-96021500D01*
X167170156Y-96021738D01*
X167170149Y-96021738D01*
X167101480Y-96027746D01*
X167001913Y-96036457D01*
X166996600Y-96037881D01*
X166996598Y-96037881D01*
X166786067Y-96094293D01*
X166786065Y-96094294D01*
X166780757Y-96095716D01*
X166775776Y-96098039D01*
X166775775Y-96098039D01*
X166578238Y-96190151D01*
X166578233Y-96190154D01*
X166573251Y-96192477D01*
X166468389Y-96265902D01*
X166390211Y-96320643D01*
X166390208Y-96320645D01*
X166385700Y-96323802D01*
X166223802Y-96485700D01*
X166220645Y-96490208D01*
X166220643Y-96490211D01*
X166217574Y-96494594D01*
X166092477Y-96673251D01*
X166090154Y-96678233D01*
X166090151Y-96678238D01*
X166011026Y-96847925D01*
X165995716Y-96880757D01*
X165994294Y-96886065D01*
X165994293Y-96886067D01*
X165944198Y-97073023D01*
X165936457Y-97101913D01*
X165916502Y-97330000D01*
X165936457Y-97558087D01*
X165937881Y-97563400D01*
X165937881Y-97563402D01*
X165950052Y-97608822D01*
X165995716Y-97779243D01*
X166050380Y-97896472D01*
X166061041Y-97966662D01*
X166032061Y-98031474D01*
X166025280Y-98038815D01*
X164412747Y-99651348D01*
X164404461Y-99658888D01*
X164397982Y-99663000D01*
X164392557Y-99668777D01*
X164351357Y-99712651D01*
X164348602Y-99715493D01*
X164328865Y-99735230D01*
X164326385Y-99738427D01*
X164318682Y-99747447D01*
X164288414Y-99779679D01*
X164284595Y-99786625D01*
X164284593Y-99786628D01*
X164278652Y-99797434D01*
X164267801Y-99813953D01*
X164255386Y-99829959D01*
X164252241Y-99837228D01*
X164252238Y-99837232D01*
X164237826Y-99870537D01*
X164232609Y-99881187D01*
X164211305Y-99919940D01*
X164209334Y-99927615D01*
X164209334Y-99927616D01*
X164206267Y-99939562D01*
X164199863Y-99958266D01*
X164191819Y-99976855D01*
X164190580Y-99984678D01*
X164190577Y-99984688D01*
X164184901Y-100020524D01*
X164182495Y-100032144D01*
X164171500Y-100074970D01*
X164171500Y-100095224D01*
X164169949Y-100114934D01*
X164166780Y-100134943D01*
X161693668Y-100134943D01*
X161702119Y-100103402D01*
X161702119Y-100103400D01*
X161703543Y-100098087D01*
X161723498Y-99870000D01*
X161703543Y-99641913D01*
X161695802Y-99613023D01*
X161645707Y-99426067D01*
X161645706Y-99426065D01*
X161644284Y-99420757D01*
X161639550Y-99410604D01*
X161549849Y-99218238D01*
X161549846Y-99218233D01*
X161547523Y-99213251D01*
X161450618Y-99074856D01*
X161419357Y-99030211D01*
X161419355Y-99030208D01*
X161416198Y-99025700D01*
X161254300Y-98863802D01*
X161249792Y-98860645D01*
X161249789Y-98860643D01*
X161171611Y-98805902D01*
X161066749Y-98732477D01*
X161061767Y-98730154D01*
X161061762Y-98730151D01*
X161027543Y-98714195D01*
X160974258Y-98667278D01*
X160954797Y-98599001D01*
X160975339Y-98531041D01*
X161027543Y-98485805D01*
X161061762Y-98469849D01*
X161061767Y-98469846D01*
X161066749Y-98467523D01*
X161241150Y-98345406D01*
X161249789Y-98339357D01*
X161249792Y-98339355D01*
X161254300Y-98336198D01*
X161416198Y-98174300D01*
X161547523Y-97986749D01*
X161549846Y-97981767D01*
X161549849Y-97981762D01*
X161641961Y-97784225D01*
X161641961Y-97784224D01*
X161644284Y-97779243D01*
X161689949Y-97608822D01*
X161702119Y-97563402D01*
X161702119Y-97563400D01*
X161703543Y-97558087D01*
X161723498Y-97330000D01*
X161703543Y-97101913D01*
X161695802Y-97073023D01*
X161645707Y-96886067D01*
X161645706Y-96886065D01*
X161644284Y-96880757D01*
X161628974Y-96847925D01*
X161549849Y-96678238D01*
X161549846Y-96678233D01*
X161547523Y-96673251D01*
X161422426Y-96494594D01*
X161419357Y-96490211D01*
X161419355Y-96490208D01*
X161416198Y-96485700D01*
X161254300Y-96323802D01*
X161249792Y-96320645D01*
X161249789Y-96320643D01*
X161171611Y-96265902D01*
X161066749Y-96192477D01*
X161061767Y-96190154D01*
X161061762Y-96190151D01*
X160864225Y-96098039D01*
X160864224Y-96098039D01*
X160859243Y-96095716D01*
X160853935Y-96094294D01*
X160853933Y-96094293D01*
X160643402Y-96037881D01*
X160643400Y-96037881D01*
X160638087Y-96036457D01*
X160538520Y-96027746D01*
X160469851Y-96021738D01*
X160469844Y-96021738D01*
X160467127Y-96021500D01*
X159552873Y-96021500D01*
X159550156Y-96021738D01*
X159550149Y-96021738D01*
X159481480Y-96027746D01*
X159381913Y-96036457D01*
X159376600Y-96037881D01*
X159376598Y-96037881D01*
X159166067Y-96094293D01*
X159166065Y-96094294D01*
X159160757Y-96095716D01*
X159155776Y-96098039D01*
X159155775Y-96098039D01*
X158958238Y-96190151D01*
X158958233Y-96190154D01*
X158953251Y-96192477D01*
X158848389Y-96265902D01*
X158770211Y-96320643D01*
X158770208Y-96320645D01*
X158765700Y-96323802D01*
X158603802Y-96485700D01*
X158600645Y-96490208D01*
X158600643Y-96490211D01*
X158597574Y-96494594D01*
X158472477Y-96673251D01*
X158470154Y-96678233D01*
X158470151Y-96678238D01*
X158391026Y-96847925D01*
X158375716Y-96880757D01*
X158374294Y-96886065D01*
X158374293Y-96886067D01*
X158324198Y-97073023D01*
X158316457Y-97101913D01*
X158315978Y-97107393D01*
X158301184Y-97276482D01*
X158275320Y-97342600D01*
X158217817Y-97384239D01*
X158175663Y-97391500D01*
X157965499Y-97391500D01*
X157897378Y-97371498D01*
X157862286Y-97337771D01*
X157790136Y-97234730D01*
X157790134Y-97234727D01*
X157786977Y-97230219D01*
X157629781Y-97073023D01*
X157625273Y-97069866D01*
X157625270Y-97069864D01*
X157486958Y-96973017D01*
X157447677Y-96945512D01*
X157442695Y-96943189D01*
X157442690Y-96943186D01*
X157251178Y-96853883D01*
X157251177Y-96853882D01*
X157246196Y-96851560D01*
X157240888Y-96850138D01*
X157240886Y-96850137D01*
X157143140Y-96823946D01*
X157031463Y-96794022D01*
X156810000Y-96774647D01*
X156588537Y-96794022D01*
X156476860Y-96823946D01*
X156379114Y-96850137D01*
X156379112Y-96850138D01*
X156373804Y-96851560D01*
X156368823Y-96853882D01*
X156368822Y-96853883D01*
X156177311Y-96943186D01*
X156177306Y-96943189D01*
X156172324Y-96945512D01*
X156167817Y-96948668D01*
X156167815Y-96948669D01*
X155994730Y-97069864D01*
X155994727Y-97069866D01*
X155990219Y-97073023D01*
X155833023Y-97230219D01*
X155829866Y-97234727D01*
X155829864Y-97234730D01*
X155725177Y-97384239D01*
X155705512Y-97412324D01*
X155703189Y-97417306D01*
X155703186Y-97417311D01*
X155637541Y-97558087D01*
X155611560Y-97613804D01*
X155554022Y-97828537D01*
X155534647Y-98050000D01*
X155554022Y-98271463D01*
X155555446Y-98276776D01*
X155608001Y-98472912D01*
X155611560Y-98486196D01*
X155613882Y-98491177D01*
X155613883Y-98491178D01*
X155703186Y-98682689D01*
X155703188Y-98682692D01*
X155705512Y-98687676D01*
X155708668Y-98692183D01*
X155708669Y-98692185D01*
X155826625Y-98860643D01*
X155833023Y-98869781D01*
X155990219Y-99026977D01*
X155994727Y-99030134D01*
X155994730Y-99030136D01*
X156005891Y-99037951D01*
X156172323Y-99154488D01*
X156177305Y-99156811D01*
X156177310Y-99156814D01*
X156282373Y-99205805D01*
X156335658Y-99252722D01*
X156355119Y-99320999D01*
X156334577Y-99388959D01*
X156282373Y-99434195D01*
X156177311Y-99483186D01*
X156177306Y-99483189D01*
X156172324Y-99485512D01*
X156167817Y-99488668D01*
X156167815Y-99488669D01*
X155994730Y-99609864D01*
X155994727Y-99609866D01*
X155990219Y-99613023D01*
X155833023Y-99770219D01*
X155829866Y-99774727D01*
X155829864Y-99774730D01*
X155720093Y-99931500D01*
X155705512Y-99952324D01*
X155703189Y-99957306D01*
X155703186Y-99957311D01*
X155631279Y-100111516D01*
X155611560Y-100153804D01*
X155554022Y-100368537D01*
X155534647Y-100590000D01*
X155554022Y-100811463D01*
X155555446Y-100816776D01*
X155606557Y-101007523D01*
X155611560Y-101026196D01*
X155613882Y-101031177D01*
X155613883Y-101031178D01*
X155703186Y-101222689D01*
X155703188Y-101222692D01*
X155705512Y-101227676D01*
X155708668Y-101232183D01*
X155708669Y-101232185D01*
X155826625Y-101400643D01*
X155833023Y-101409781D01*
X155990219Y-101566977D01*
X155994727Y-101570134D01*
X155994730Y-101570136D01*
X156070495Y-101623187D01*
X156172323Y-101694488D01*
X156177305Y-101696811D01*
X156177310Y-101696814D01*
X156282373Y-101745805D01*
X156335658Y-101792722D01*
X156355119Y-101860999D01*
X156334577Y-101928959D01*
X156282373Y-101974195D01*
X156177311Y-102023186D01*
X156177306Y-102023189D01*
X156172324Y-102025512D01*
X156167817Y-102028668D01*
X156167815Y-102028669D01*
X155994730Y-102149864D01*
X155994727Y-102149866D01*
X155990219Y-102153023D01*
X155833023Y-102310219D01*
X155829866Y-102314727D01*
X155829864Y-102314730D01*
X155725177Y-102464239D01*
X155705512Y-102492324D01*
X155703189Y-102497306D01*
X155703186Y-102497311D01*
X155637541Y-102638087D01*
X155611560Y-102693804D01*
X155610138Y-102699112D01*
X155610137Y-102699114D01*
X155592497Y-102764949D01*
X155554022Y-102908537D01*
X155534647Y-103130000D01*
X155554022Y-103351463D01*
X155555446Y-103356776D01*
X155606557Y-103547523D01*
X155611560Y-103566196D01*
X155613882Y-103571177D01*
X155613883Y-103571178D01*
X155703186Y-103762689D01*
X155703188Y-103762692D01*
X155705512Y-103767676D01*
X155708668Y-103772183D01*
X155708669Y-103772185D01*
X155826625Y-103940643D01*
X155833023Y-103949781D01*
X155990219Y-104106977D01*
X155994727Y-104110134D01*
X155994730Y-104110136D01*
X156070495Y-104163187D01*
X156172323Y-104234488D01*
X156177305Y-104236811D01*
X156177310Y-104236814D01*
X156282373Y-104285805D01*
X156335658Y-104332722D01*
X156355119Y-104400999D01*
X156334577Y-104468959D01*
X156282373Y-104514195D01*
X156177311Y-104563186D01*
X156177306Y-104563189D01*
X156172324Y-104565512D01*
X156167817Y-104568668D01*
X156167815Y-104568669D01*
X155994730Y-104689864D01*
X155994727Y-104689866D01*
X155990219Y-104693023D01*
X155833023Y-104850219D01*
X155829866Y-104854727D01*
X155829864Y-104854730D01*
X155725177Y-105004239D01*
X155705512Y-105032324D01*
X155703189Y-105037306D01*
X155703186Y-105037311D01*
X155637541Y-105178087D01*
X155611560Y-105233804D01*
X155610138Y-105239112D01*
X155610137Y-105239114D01*
X155600790Y-105273998D01*
X155554022Y-105448537D01*
X155534647Y-105670000D01*
X155554022Y-105891463D01*
X155573835Y-105965406D01*
X155608001Y-106092912D01*
X155611560Y-106106196D01*
X155613882Y-106111177D01*
X155613883Y-106111178D01*
X155703186Y-106302689D01*
X155703188Y-106302692D01*
X155705512Y-106307676D01*
X155708668Y-106312183D01*
X155708669Y-106312185D01*
X155826625Y-106480643D01*
X155833023Y-106489781D01*
X155990219Y-106646977D01*
X155994727Y-106650134D01*
X155994730Y-106650136D01*
X156070495Y-106703187D01*
X156172323Y-106774488D01*
X156177305Y-106776811D01*
X156177310Y-106776814D01*
X156282373Y-106825805D01*
X156335658Y-106872722D01*
X156355119Y-106940999D01*
X156334577Y-107008959D01*
X156282373Y-107054195D01*
X156177311Y-107103186D01*
X156177306Y-107103189D01*
X156172324Y-107105512D01*
X156167817Y-107108668D01*
X156167815Y-107108669D01*
X155994730Y-107229864D01*
X155994727Y-107229866D01*
X155990219Y-107233023D01*
X155833023Y-107390219D01*
X155829866Y-107394727D01*
X155829864Y-107394730D01*
X155725177Y-107544239D01*
X155705512Y-107572324D01*
X155703189Y-107577306D01*
X155703186Y-107577311D01*
X155637541Y-107718087D01*
X155611560Y-107773804D01*
X155554022Y-107988537D01*
X155534647Y-108210000D01*
X155554022Y-108431463D01*
X155589019Y-108562074D01*
X155606557Y-108627523D01*
X155611560Y-108646196D01*
X155613882Y-108651177D01*
X155613883Y-108651178D01*
X155703186Y-108842689D01*
X155703188Y-108842692D01*
X155705512Y-108847676D01*
X155708668Y-108852183D01*
X155708669Y-108852185D01*
X155826625Y-109020643D01*
X155833023Y-109029781D01*
X155990219Y-109186977D01*
X155994727Y-109190134D01*
X155994730Y-109190136D01*
X155995297Y-109190533D01*
X156172323Y-109314488D01*
X156177305Y-109316811D01*
X156177310Y-109316814D01*
X156282373Y-109365805D01*
X156335658Y-109412722D01*
X156355119Y-109480999D01*
X156334577Y-109548959D01*
X156282373Y-109594195D01*
X156177311Y-109643186D01*
X156177306Y-109643189D01*
X156172324Y-109645512D01*
X156167817Y-109648668D01*
X156167815Y-109648669D01*
X155994730Y-109769864D01*
X155994727Y-109769866D01*
X155990219Y-109773023D01*
X155833023Y-109930219D01*
X155829866Y-109934727D01*
X155829864Y-109934730D01*
X155725177Y-110084239D01*
X155705512Y-110112324D01*
X155703189Y-110117306D01*
X155703186Y-110117311D01*
X155623605Y-110287973D01*
X155611560Y-110313804D01*
X155554022Y-110528537D01*
X155534647Y-110750000D01*
X155554022Y-110971463D01*
X155570324Y-111032301D01*
X155606557Y-111167523D01*
X155611560Y-111186196D01*
X155613882Y-111191177D01*
X155613883Y-111191178D01*
X155703186Y-111382689D01*
X155703188Y-111382692D01*
X155705512Y-111387676D01*
X155708668Y-111392183D01*
X155708669Y-111392185D01*
X155826625Y-111560643D01*
X155833023Y-111569781D01*
X155990219Y-111726977D01*
X155994727Y-111730134D01*
X155994730Y-111730136D01*
X156070495Y-111783187D01*
X156172323Y-111854488D01*
X156177305Y-111856811D01*
X156177310Y-111856814D01*
X156282373Y-111905805D01*
X156335658Y-111952722D01*
X156355119Y-112020999D01*
X156334577Y-112088959D01*
X156282373Y-112134195D01*
X156177311Y-112183186D01*
X156177306Y-112183189D01*
X156172324Y-112185512D01*
X156167817Y-112188668D01*
X156167815Y-112188669D01*
X155994730Y-112309864D01*
X155994727Y-112309866D01*
X155990219Y-112313023D01*
X155833023Y-112470219D01*
X155829866Y-112474727D01*
X155829864Y-112474730D01*
X155725177Y-112624239D01*
X155705512Y-112652324D01*
X155703189Y-112657306D01*
X155703186Y-112657311D01*
X155614043Y-112848479D01*
X155611560Y-112853804D01*
X155554022Y-113068537D01*
X155534647Y-113290000D01*
X155554022Y-113511463D01*
X155570324Y-113572301D01*
X155609241Y-113717540D01*
X155611560Y-113726196D01*
X155613882Y-113731177D01*
X155613883Y-113731178D01*
X155703186Y-113922689D01*
X155703188Y-113922692D01*
X155705512Y-113927676D01*
X155708668Y-113932183D01*
X155708669Y-113932185D01*
X155826625Y-114100643D01*
X155833023Y-114109781D01*
X155990219Y-114266977D01*
X155994727Y-114270134D01*
X155994730Y-114270136D01*
X155995297Y-114270533D01*
X156172323Y-114394488D01*
X156177305Y-114396811D01*
X156177310Y-114396814D01*
X156282373Y-114445805D01*
X156335658Y-114492722D01*
X156355119Y-114560999D01*
X156334577Y-114628959D01*
X156282373Y-114674195D01*
X156177311Y-114723186D01*
X156177306Y-114723189D01*
X156172324Y-114725512D01*
X156167817Y-114728668D01*
X156167815Y-114728669D01*
X155994730Y-114849864D01*
X155994727Y-114849866D01*
X155990219Y-114853023D01*
X155833023Y-115010219D01*
X155829866Y-115014727D01*
X155829864Y-115014730D01*
X155713361Y-115181114D01*
X155705512Y-115192324D01*
X155703189Y-115197306D01*
X155703186Y-115197311D01*
X155637541Y-115338087D01*
X155611560Y-115393804D01*
X155554022Y-115608537D01*
X155534647Y-115830000D01*
X155554022Y-116051463D01*
X155586186Y-116171498D01*
X155606557Y-116247523D01*
X155611560Y-116266196D01*
X155613882Y-116271177D01*
X155613883Y-116271178D01*
X155703186Y-116462689D01*
X155703188Y-116462692D01*
X155705512Y-116467676D01*
X155708668Y-116472183D01*
X155708669Y-116472185D01*
X155826625Y-116640643D01*
X155833023Y-116649781D01*
X155990219Y-116806977D01*
X155994727Y-116810134D01*
X155994730Y-116810136D01*
X156070495Y-116863187D01*
X156172323Y-116934488D01*
X156177305Y-116936811D01*
X156177310Y-116936814D01*
X156282373Y-116985805D01*
X156335658Y-117032722D01*
X156355119Y-117100999D01*
X156334577Y-117168959D01*
X156282373Y-117214195D01*
X156177311Y-117263186D01*
X156177306Y-117263189D01*
X156172324Y-117265512D01*
X156167817Y-117268668D01*
X156167815Y-117268669D01*
X155994730Y-117389864D01*
X155994727Y-117389866D01*
X155990219Y-117393023D01*
X155833023Y-117550219D01*
X155829866Y-117554727D01*
X155829864Y-117554730D01*
X155725177Y-117704239D01*
X155705512Y-117732324D01*
X155703189Y-117737306D01*
X155703186Y-117737311D01*
X155637541Y-117878087D01*
X155611560Y-117933804D01*
X155554022Y-118148537D01*
X155534647Y-118370000D01*
X155554022Y-118591463D01*
X155611560Y-118806196D01*
X155613882Y-118811177D01*
X155613883Y-118811178D01*
X155703186Y-119002689D01*
X155703189Y-119002694D01*
X155705512Y-119007676D01*
X155833023Y-119189781D01*
X155990219Y-119346977D01*
X155994727Y-119350134D01*
X155994730Y-119350136D01*
X156070495Y-119403187D01*
X156172323Y-119474488D01*
X156177305Y-119476811D01*
X156177310Y-119476814D01*
X156282373Y-119525805D01*
X156335658Y-119572722D01*
X156355119Y-119640999D01*
X156334577Y-119708959D01*
X156282373Y-119754195D01*
X156177311Y-119803186D01*
X156177306Y-119803189D01*
X156172324Y-119805512D01*
X156167817Y-119808668D01*
X156167815Y-119808669D01*
X155994730Y-119929864D01*
X155994727Y-119929866D01*
X155990219Y-119933023D01*
X155833023Y-120090219D01*
X155829866Y-120094727D01*
X155829864Y-120094730D01*
X155708669Y-120267815D01*
X155705512Y-120272324D01*
X155703189Y-120277306D01*
X155703186Y-120277311D01*
X155621950Y-120451523D01*
X155611560Y-120473804D01*
X155554022Y-120688537D01*
X155534647Y-120910000D01*
X151520549Y-120910000D01*
X151124315Y-120513766D01*
X151113448Y-120501375D01*
X151099013Y-120482563D01*
X151093987Y-120476013D01*
X151062075Y-120451526D01*
X151062072Y-120451523D01*
X150966876Y-120378476D01*
X150818851Y-120317162D01*
X150810664Y-120316084D01*
X150810663Y-120316084D01*
X150799458Y-120314609D01*
X150768262Y-120310502D01*
X150699885Y-120301500D01*
X150699882Y-120301500D01*
X150699874Y-120301499D01*
X150668189Y-120297328D01*
X150660000Y-120296250D01*
X150628307Y-120300422D01*
X150611864Y-120301500D01*
X150380509Y-120301500D01*
X150312388Y-120281498D01*
X150277296Y-120247771D01*
X150170136Y-120094730D01*
X150170134Y-120094727D01*
X150166977Y-120090219D01*
X150009781Y-119933023D01*
X150005273Y-119929866D01*
X150005270Y-119929864D01*
X149937892Y-119882686D01*
X149852228Y-119822703D01*
X149807901Y-119767247D01*
X149798500Y-119719491D01*
X149798500Y-119560509D01*
X149818502Y-119492388D01*
X149852228Y-119457297D01*
X149937892Y-119397314D01*
X150005270Y-119350136D01*
X150005273Y-119350134D01*
X150009781Y-119346977D01*
X150166977Y-119189781D01*
X150294488Y-119007676D01*
X150296811Y-119002694D01*
X150296814Y-119002689D01*
X150386117Y-118811178D01*
X150386118Y-118811177D01*
X150388440Y-118806196D01*
X150445978Y-118591463D01*
X150465353Y-118370000D01*
X150445978Y-118148537D01*
X150388440Y-117933804D01*
X150362459Y-117878087D01*
X150296814Y-117737311D01*
X150296811Y-117737306D01*
X150294488Y-117732324D01*
X150274823Y-117704239D01*
X150170136Y-117554730D01*
X150170134Y-117554727D01*
X150166977Y-117550219D01*
X150009781Y-117393023D01*
X150005273Y-117389866D01*
X150005270Y-117389864D01*
X149937892Y-117342686D01*
X149852228Y-117282703D01*
X149807901Y-117227247D01*
X149798500Y-117179491D01*
X149798500Y-117020509D01*
X149818502Y-116952388D01*
X149852228Y-116917297D01*
X149937892Y-116857314D01*
X150005270Y-116810136D01*
X150005273Y-116810134D01*
X150009781Y-116806977D01*
X150166977Y-116649781D01*
X150173376Y-116640643D01*
X150291331Y-116472185D01*
X150291332Y-116472183D01*
X150294488Y-116467676D01*
X150296812Y-116462692D01*
X150296814Y-116462689D01*
X150386117Y-116271178D01*
X150386118Y-116271177D01*
X150388440Y-116266196D01*
X150393444Y-116247523D01*
X150413814Y-116171498D01*
X150445978Y-116051463D01*
X150465353Y-115830000D01*
X150445978Y-115608537D01*
X150388440Y-115393804D01*
X150362459Y-115338087D01*
X150296814Y-115197311D01*
X150296811Y-115197306D01*
X150294488Y-115192324D01*
X150286639Y-115181114D01*
X150170136Y-115014730D01*
X150170134Y-115014727D01*
X150166977Y-115010219D01*
X150009781Y-114853023D01*
X150005273Y-114849866D01*
X150005270Y-114849864D01*
X149898661Y-114775216D01*
X149852228Y-114742703D01*
X149807901Y-114687247D01*
X149798500Y-114639491D01*
X149798500Y-114480509D01*
X149818502Y-114412388D01*
X149852228Y-114377297D01*
X150004703Y-114270533D01*
X150005270Y-114270136D01*
X150005273Y-114270134D01*
X150009781Y-114266977D01*
X150166977Y-114109781D01*
X150173376Y-114100643D01*
X150291331Y-113932185D01*
X150291332Y-113932183D01*
X150294488Y-113927676D01*
X150296812Y-113922692D01*
X150296814Y-113922689D01*
X150386117Y-113731178D01*
X150386118Y-113731177D01*
X150388440Y-113726196D01*
X150390760Y-113717540D01*
X150429676Y-113572301D01*
X150445978Y-113511463D01*
X150465353Y-113290000D01*
X150445978Y-113068537D01*
X150388440Y-112853804D01*
X150385957Y-112848479D01*
X150296814Y-112657311D01*
X150296811Y-112657306D01*
X150294488Y-112652324D01*
X150274823Y-112624239D01*
X150170136Y-112474730D01*
X150170134Y-112474727D01*
X150166977Y-112470219D01*
X150009781Y-112313023D01*
X150005273Y-112309866D01*
X150005270Y-112309864D01*
X149937892Y-112262686D01*
X149852228Y-112202703D01*
X149807901Y-112147247D01*
X149798500Y-112099491D01*
X149798500Y-111940509D01*
X149818502Y-111872388D01*
X149852228Y-111837297D01*
X149937892Y-111777314D01*
X150005270Y-111730136D01*
X150005273Y-111730134D01*
X150009781Y-111726977D01*
X150166977Y-111569781D01*
X150173376Y-111560643D01*
X150291331Y-111392185D01*
X150291332Y-111392183D01*
X150294488Y-111387676D01*
X150296812Y-111382692D01*
X150296814Y-111382689D01*
X150386117Y-111191178D01*
X150386118Y-111191177D01*
X150388440Y-111186196D01*
X150393444Y-111167523D01*
X150429676Y-111032301D01*
X150445978Y-110971463D01*
X150465353Y-110750000D01*
X150445978Y-110528537D01*
X150388440Y-110313804D01*
X150376395Y-110287973D01*
X150296814Y-110117311D01*
X150296811Y-110117306D01*
X150294488Y-110112324D01*
X150274823Y-110084239D01*
X150170136Y-109934730D01*
X150170134Y-109934727D01*
X150166977Y-109930219D01*
X150009781Y-109773023D01*
X150005273Y-109769866D01*
X150005270Y-109769864D01*
X149937892Y-109722686D01*
X149852228Y-109662703D01*
X149807901Y-109607247D01*
X149798500Y-109559491D01*
X149798500Y-109400509D01*
X149818502Y-109332388D01*
X149852228Y-109297297D01*
X150004703Y-109190533D01*
X150005270Y-109190136D01*
X150005273Y-109190134D01*
X150009781Y-109186977D01*
X150166977Y-109029781D01*
X150173376Y-109020643D01*
X150291331Y-108852185D01*
X150291332Y-108852183D01*
X150294488Y-108847676D01*
X150296812Y-108842692D01*
X150296814Y-108842689D01*
X150386117Y-108651178D01*
X150386118Y-108651177D01*
X150388440Y-108646196D01*
X150393444Y-108627523D01*
X150410981Y-108562074D01*
X150445978Y-108431463D01*
X150465353Y-108210000D01*
X150445978Y-107988537D01*
X150388440Y-107773804D01*
X150362459Y-107718087D01*
X150296814Y-107577311D01*
X150296811Y-107577306D01*
X150294488Y-107572324D01*
X150274823Y-107544239D01*
X150170136Y-107394730D01*
X150170134Y-107394727D01*
X150166977Y-107390219D01*
X150009781Y-107233023D01*
X150005273Y-107229866D01*
X150005270Y-107229864D01*
X149937892Y-107182686D01*
X149852228Y-107122703D01*
X149807901Y-107067247D01*
X149798500Y-107019491D01*
X149798500Y-106860509D01*
X149818502Y-106792388D01*
X149852228Y-106757297D01*
X149937892Y-106697314D01*
X150005270Y-106650136D01*
X150005273Y-106650134D01*
X150009781Y-106646977D01*
X150166977Y-106489781D01*
X150173376Y-106480643D01*
X150291331Y-106312185D01*
X150291332Y-106312183D01*
X150294488Y-106307676D01*
X150296812Y-106302692D01*
X150296814Y-106302689D01*
X150386117Y-106111178D01*
X150386118Y-106111177D01*
X150388440Y-106106196D01*
X150392000Y-106092912D01*
X150426165Y-105965406D01*
X150445978Y-105891463D01*
X150465353Y-105670000D01*
X150445978Y-105448537D01*
X150399210Y-105273998D01*
X150389863Y-105239114D01*
X150389862Y-105239112D01*
X150388440Y-105233804D01*
X150362459Y-105178087D01*
X150296814Y-105037311D01*
X150296811Y-105037306D01*
X150294488Y-105032324D01*
X150274823Y-105004239D01*
X150170136Y-104854730D01*
X150170134Y-104854727D01*
X150166977Y-104850219D01*
X150009781Y-104693023D01*
X150005273Y-104689866D01*
X150005270Y-104689864D01*
X149866958Y-104593017D01*
X149852228Y-104582703D01*
X149807901Y-104527247D01*
X149798500Y-104479491D01*
X149798500Y-104320509D01*
X149818502Y-104252388D01*
X149852228Y-104217297D01*
X149937892Y-104157314D01*
X150005270Y-104110136D01*
X150005273Y-104110134D01*
X150009781Y-104106977D01*
X150166977Y-103949781D01*
X150173376Y-103940643D01*
X150291331Y-103772185D01*
X150291332Y-103772183D01*
X150294488Y-103767676D01*
X150296812Y-103762692D01*
X150296814Y-103762689D01*
X150386117Y-103571178D01*
X150386118Y-103571177D01*
X150388440Y-103566196D01*
X150393444Y-103547523D01*
X150444554Y-103356776D01*
X150445978Y-103351463D01*
X150465353Y-103130000D01*
X150445978Y-102908537D01*
X150407503Y-102764949D01*
X150389863Y-102699114D01*
X150389862Y-102699112D01*
X150388440Y-102693804D01*
X150362459Y-102638087D01*
X150296814Y-102497311D01*
X150296811Y-102497306D01*
X150294488Y-102492324D01*
X150274823Y-102464239D01*
X150170136Y-102314730D01*
X150170134Y-102314727D01*
X150166977Y-102310219D01*
X150009781Y-102153023D01*
X150005273Y-102149866D01*
X150005270Y-102149864D01*
X149936593Y-102101776D01*
X149852228Y-102042703D01*
X149807901Y-101987247D01*
X149798500Y-101939491D01*
X149798500Y-101780509D01*
X149818502Y-101712388D01*
X149852228Y-101677297D01*
X149937892Y-101617314D01*
X150005270Y-101570136D01*
X150005273Y-101570134D01*
X150009781Y-101566977D01*
X150166977Y-101409781D01*
X150173376Y-101400643D01*
X150291331Y-101232185D01*
X150291332Y-101232183D01*
X150294488Y-101227676D01*
X150296812Y-101222692D01*
X150296814Y-101222689D01*
X150386117Y-101031178D01*
X150386118Y-101031177D01*
X150388440Y-101026196D01*
X150393444Y-101007523D01*
X150444554Y-100816776D01*
X150445978Y-100811463D01*
X150465353Y-100590000D01*
X150445978Y-100368537D01*
X150388440Y-100153804D01*
X150368721Y-100111516D01*
X150296814Y-99957311D01*
X150296811Y-99957306D01*
X150294488Y-99952324D01*
X150279907Y-99931500D01*
X150170136Y-99774730D01*
X150170134Y-99774727D01*
X150166977Y-99770219D01*
X150009781Y-99613023D01*
X150005273Y-99609866D01*
X150005270Y-99609864D01*
X149937892Y-99562686D01*
X149852228Y-99502703D01*
X149807901Y-99447247D01*
X149798500Y-99399491D01*
X149798500Y-99240509D01*
X149818502Y-99172388D01*
X149852228Y-99137297D01*
X149994109Y-99037951D01*
X150005270Y-99030136D01*
X150005273Y-99030134D01*
X150009781Y-99026977D01*
X150166977Y-98869781D01*
X150173376Y-98860643D01*
X150277296Y-98712229D01*
X150332753Y-98667901D01*
X150380509Y-98658500D01*
X151874463Y-98658500D01*
X151890906Y-98659578D01*
X151922599Y-98663750D01*
X151930788Y-98662672D01*
X151962473Y-98658501D01*
X151962483Y-98658500D01*
X151962484Y-98658500D01*
X152062056Y-98645391D01*
X152073263Y-98643916D01*
X152073265Y-98643915D01*
X152081450Y-98642838D01*
X152229475Y-98581524D01*
X152251943Y-98564284D01*
X152324671Y-98508477D01*
X152324674Y-98508474D01*
X152356586Y-98483987D01*
X152361616Y-98477432D01*
X152376051Y-98458621D01*
X152386918Y-98446230D01*
X154036600Y-96796548D01*
X155687742Y-95145405D01*
X155750054Y-95111379D01*
X155776837Y-95108500D01*
X156620733Y-95108500D01*
X156682915Y-95101745D01*
X156819304Y-95050615D01*
X156935860Y-94963261D01*
X157023214Y-94846705D01*
X157074344Y-94710316D01*
X157081099Y-94648134D01*
X157081099Y-93804239D01*
X157101101Y-93736118D01*
X157118004Y-93715144D01*
X159687743Y-91145405D01*
X159750055Y-91111379D01*
X159776838Y-91108500D01*
X161201864Y-91108500D01*
X161218307Y-91109578D01*
X161250000Y-91113750D01*
X161258189Y-91112672D01*
X161289874Y-91108501D01*
X161289884Y-91108500D01*
X161289885Y-91108500D01*
X161389457Y-91095391D01*
X161400664Y-91093916D01*
X161400666Y-91093915D01*
X161408851Y-91092838D01*
X161556876Y-91031524D01*
X161652072Y-90958477D01*
X161652075Y-90958474D01*
X161683987Y-90933987D01*
X161703458Y-90908613D01*
X161714316Y-90896233D01*
X164090144Y-88520405D01*
X164152456Y-88486379D01*
X164179239Y-88483500D01*
X165773134Y-88483500D01*
X165835316Y-88476745D01*
X165971705Y-88425615D01*
X166088261Y-88338261D01*
X166175615Y-88221705D01*
X166226745Y-88085316D01*
X166233500Y-88023134D01*
X166233500Y-85976866D01*
X166226745Y-85914684D01*
X166178932Y-85787142D01*
X197151938Y-85787142D01*
X197158684Y-85799474D01*
X197987188Y-86627978D01*
X198001132Y-86635592D01*
X198002965Y-86635461D01*
X198009580Y-86631210D01*
X198842391Y-85798399D01*
X198849412Y-85785543D01*
X198841639Y-85774875D01*
X198827548Y-85763746D01*
X198818970Y-85758047D01*
X198614526Y-85645189D01*
X198605126Y-85640964D01*
X198384993Y-85563011D01*
X198375036Y-85560381D01*
X198145129Y-85519427D01*
X198134878Y-85518458D01*
X197901367Y-85515605D01*
X197891083Y-85516325D01*
X197660253Y-85551647D01*
X197650225Y-85554036D01*
X197428263Y-85626584D01*
X197418753Y-85630581D01*
X197211624Y-85738405D01*
X197202904Y-85743897D01*
X197160391Y-85775817D01*
X197151938Y-85787142D01*
X166178932Y-85787142D01*
X166175615Y-85778295D01*
X166088261Y-85661739D01*
X165971705Y-85574385D01*
X165835316Y-85523255D01*
X165773134Y-85516500D01*
X163726866Y-85516500D01*
X163664684Y-85523255D01*
X163528295Y-85574385D01*
X163411739Y-85661739D01*
X163324385Y-85778295D01*
X163273255Y-85914684D01*
X163266500Y-85976866D01*
X163266500Y-87570761D01*
X163246498Y-87638882D01*
X163229595Y-87659856D01*
X161034856Y-89854595D01*
X160972544Y-89888621D01*
X160945761Y-89891500D01*
X159520735Y-89891500D01*
X159504289Y-89890422D01*
X159480787Y-89887328D01*
X159472599Y-89886250D01*
X159464411Y-89887328D01*
X159432728Y-89891499D01*
X159432719Y-89891500D01*
X159432714Y-89891500D01*
X159313749Y-89907162D01*
X159165724Y-89968476D01*
X159165722Y-89968477D01*
X159165723Y-89968477D01*
X159070527Y-90041523D01*
X159070524Y-90041526D01*
X159038612Y-90066013D01*
X159033582Y-90072568D01*
X159019147Y-90091379D01*
X159008280Y-90103770D01*
X156257455Y-92854595D01*
X156195143Y-92888621D01*
X156168360Y-92891500D01*
X155324465Y-92891500D01*
X155262283Y-92898255D01*
X155125894Y-92949385D01*
X155009338Y-93036739D01*
X154921984Y-93153295D01*
X154870854Y-93289684D01*
X154864099Y-93351866D01*
X154864099Y-93415520D01*
X154844097Y-93483641D01*
X154827194Y-93504616D01*
X153972599Y-94359210D01*
X153401861Y-94929949D01*
X153395666Y-94941294D01*
X153405548Y-94953784D01*
X153436838Y-94974691D01*
X153446948Y-94980181D01*
X153623434Y-95056005D01*
X153634377Y-95059560D01*
X153752489Y-95086286D01*
X153814515Y-95120829D01*
X153848020Y-95183422D01*
X153842366Y-95254193D01*
X153813776Y-95298274D01*
X151707455Y-97404595D01*
X151645143Y-97438621D01*
X151618360Y-97441500D01*
X150380509Y-97441500D01*
X150312388Y-97421498D01*
X150277296Y-97387771D01*
X150170136Y-97234730D01*
X150170134Y-97234727D01*
X150166977Y-97230219D01*
X150009781Y-97073023D01*
X150005273Y-97069866D01*
X150005270Y-97069864D01*
X149866958Y-96973017D01*
X149827677Y-96945512D01*
X149822695Y-96943189D01*
X149822690Y-96943186D01*
X149631178Y-96853883D01*
X149631177Y-96853882D01*
X149626196Y-96851560D01*
X149620888Y-96850138D01*
X149620886Y-96850137D01*
X149523140Y-96823946D01*
X149411463Y-96794022D01*
X149190000Y-96774647D01*
X148968537Y-96794022D01*
X148856860Y-96823946D01*
X148759114Y-96850137D01*
X148759112Y-96850138D01*
X148753804Y-96851560D01*
X148748823Y-96853882D01*
X148748822Y-96853883D01*
X148557311Y-96943186D01*
X148557306Y-96943189D01*
X148552324Y-96945512D01*
X148547817Y-96948668D01*
X148547815Y-96948669D01*
X148374730Y-97069864D01*
X148374727Y-97069866D01*
X148370219Y-97073023D01*
X148213023Y-97230219D01*
X148209866Y-97234727D01*
X148209864Y-97234730D01*
X148105177Y-97384239D01*
X148085512Y-97412324D01*
X148083189Y-97417306D01*
X148083186Y-97417311D01*
X148017541Y-97558087D01*
X147991560Y-97613804D01*
X147934022Y-97828537D01*
X147914647Y-98050000D01*
X147934022Y-98271463D01*
X147935446Y-98276776D01*
X147988001Y-98472912D01*
X147991560Y-98486196D01*
X147993882Y-98491177D01*
X147993883Y-98491178D01*
X148083186Y-98682689D01*
X148083188Y-98682692D01*
X148085512Y-98687676D01*
X148088668Y-98692183D01*
X148088669Y-98692185D01*
X148206625Y-98860643D01*
X148213023Y-98869781D01*
X148370219Y-99026977D01*
X148374727Y-99030134D01*
X148374730Y-99030136D01*
X148385891Y-99037951D01*
X148527772Y-99137297D01*
X148572099Y-99192753D01*
X148581500Y-99240509D01*
X148581500Y-99399491D01*
X148561498Y-99467612D01*
X148527771Y-99502704D01*
X148374730Y-99609864D01*
X148374727Y-99609866D01*
X148370219Y-99613023D01*
X148213023Y-99770219D01*
X148209866Y-99774727D01*
X148209864Y-99774730D01*
X148100093Y-99931500D01*
X148085512Y-99952324D01*
X148083189Y-99957306D01*
X148083186Y-99957311D01*
X148011279Y-100111516D01*
X147991560Y-100153804D01*
X147934022Y-100368537D01*
X147914647Y-100590000D01*
X147934022Y-100811463D01*
X147935446Y-100816776D01*
X147986557Y-101007523D01*
X147991560Y-101026196D01*
X147993882Y-101031177D01*
X147993883Y-101031178D01*
X148083186Y-101222689D01*
X148083188Y-101222692D01*
X148085512Y-101227676D01*
X148088668Y-101232183D01*
X148088669Y-101232185D01*
X148206625Y-101400643D01*
X148213023Y-101409781D01*
X148370219Y-101566977D01*
X148374727Y-101570134D01*
X148374730Y-101570136D01*
X148442108Y-101617314D01*
X148527772Y-101677297D01*
X148572099Y-101732753D01*
X148581500Y-101780509D01*
X148581500Y-101939491D01*
X148561498Y-102007612D01*
X148527771Y-102042704D01*
X148374730Y-102149864D01*
X148374727Y-102149866D01*
X148370219Y-102153023D01*
X148213023Y-102310219D01*
X148209866Y-102314727D01*
X148209864Y-102314730D01*
X148105177Y-102464239D01*
X148085512Y-102492324D01*
X148083189Y-102497306D01*
X148083186Y-102497311D01*
X148017541Y-102638087D01*
X147991560Y-102693804D01*
X147990138Y-102699112D01*
X147990137Y-102699114D01*
X147972497Y-102764949D01*
X147934022Y-102908537D01*
X147914647Y-103130000D01*
X147934022Y-103351463D01*
X147935446Y-103356776D01*
X147986557Y-103547523D01*
X147991560Y-103566196D01*
X147993882Y-103571177D01*
X147993883Y-103571178D01*
X148083186Y-103762689D01*
X148083188Y-103762692D01*
X148085512Y-103767676D01*
X148088668Y-103772183D01*
X148088669Y-103772185D01*
X148206625Y-103940643D01*
X148213023Y-103949781D01*
X148370219Y-104106977D01*
X148374727Y-104110134D01*
X148374730Y-104110136D01*
X148442108Y-104157314D01*
X148527772Y-104217297D01*
X148572099Y-104272753D01*
X148581500Y-104320509D01*
X148581500Y-104479491D01*
X148561498Y-104547612D01*
X148527771Y-104582704D01*
X148374730Y-104689864D01*
X148374727Y-104689866D01*
X148370219Y-104693023D01*
X148213023Y-104850219D01*
X148209866Y-104854727D01*
X148209864Y-104854730D01*
X148105177Y-105004239D01*
X148085512Y-105032324D01*
X148083189Y-105037306D01*
X148083186Y-105037311D01*
X148017541Y-105178087D01*
X147991560Y-105233804D01*
X147990138Y-105239112D01*
X147990137Y-105239114D01*
X147980790Y-105273998D01*
X147934022Y-105448537D01*
X147914647Y-105670000D01*
X147934022Y-105891463D01*
X147953835Y-105965406D01*
X147988001Y-106092912D01*
X147991560Y-106106196D01*
X147993882Y-106111177D01*
X147993883Y-106111178D01*
X148083186Y-106302689D01*
X148083188Y-106302692D01*
X148085512Y-106307676D01*
X148088668Y-106312183D01*
X148088669Y-106312185D01*
X148206625Y-106480643D01*
X148213023Y-106489781D01*
X148370219Y-106646977D01*
X148374727Y-106650134D01*
X148374730Y-106650136D01*
X148442108Y-106697314D01*
X148527772Y-106757297D01*
X148572099Y-106812753D01*
X148581500Y-106860509D01*
X148581500Y-107019491D01*
X148561498Y-107087612D01*
X148527771Y-107122704D01*
X148374730Y-107229864D01*
X148374727Y-107229866D01*
X148370219Y-107233023D01*
X148213023Y-107390219D01*
X148209866Y-107394727D01*
X148209864Y-107394730D01*
X148105177Y-107544239D01*
X148085512Y-107572324D01*
X148083189Y-107577306D01*
X148083186Y-107577311D01*
X148017541Y-107718087D01*
X147991560Y-107773804D01*
X147934022Y-107988537D01*
X147914647Y-108210000D01*
X147934022Y-108431463D01*
X147969019Y-108562074D01*
X147986557Y-108627523D01*
X147991560Y-108646196D01*
X147993882Y-108651177D01*
X147993883Y-108651178D01*
X148083186Y-108842689D01*
X148083188Y-108842692D01*
X148085512Y-108847676D01*
X148088668Y-108852183D01*
X148088669Y-108852185D01*
X148206625Y-109020643D01*
X148213023Y-109029781D01*
X148370219Y-109186977D01*
X148374727Y-109190134D01*
X148374730Y-109190136D01*
X148375297Y-109190533D01*
X148527772Y-109297297D01*
X148572099Y-109352753D01*
X148581500Y-109400509D01*
X148581500Y-109559491D01*
X148561498Y-109627612D01*
X148527771Y-109662704D01*
X148374730Y-109769864D01*
X148374727Y-109769866D01*
X148370219Y-109773023D01*
X148213023Y-109930219D01*
X148209866Y-109934727D01*
X148209864Y-109934730D01*
X148105177Y-110084239D01*
X148085512Y-110112324D01*
X148083189Y-110117306D01*
X148083186Y-110117311D01*
X148003605Y-110287973D01*
X147991560Y-110313804D01*
X147934022Y-110528537D01*
X147914647Y-110750000D01*
X147934022Y-110971463D01*
X147950324Y-111032301D01*
X147986557Y-111167523D01*
X147991560Y-111186196D01*
X147993882Y-111191177D01*
X147993883Y-111191178D01*
X148083186Y-111382689D01*
X148083188Y-111382692D01*
X148085512Y-111387676D01*
X148088668Y-111392183D01*
X148088669Y-111392185D01*
X148206625Y-111560643D01*
X148213023Y-111569781D01*
X148370219Y-111726977D01*
X148374727Y-111730134D01*
X148374730Y-111730136D01*
X148442108Y-111777314D01*
X148527772Y-111837297D01*
X148572099Y-111892753D01*
X148581500Y-111940509D01*
X148581500Y-112099491D01*
X148561498Y-112167612D01*
X148527771Y-112202704D01*
X148374730Y-112309864D01*
X148374727Y-112309866D01*
X148370219Y-112313023D01*
X148213023Y-112470219D01*
X148209866Y-112474727D01*
X148209864Y-112474730D01*
X148105177Y-112624239D01*
X148085512Y-112652324D01*
X148083189Y-112657306D01*
X148083186Y-112657311D01*
X147994043Y-112848479D01*
X147991560Y-112853804D01*
X147934022Y-113068537D01*
X147914647Y-113290000D01*
X147934022Y-113511463D01*
X147950324Y-113572301D01*
X147989241Y-113717540D01*
X147991560Y-113726196D01*
X147993882Y-113731177D01*
X147993883Y-113731178D01*
X148083186Y-113922689D01*
X148083188Y-113922692D01*
X148085512Y-113927676D01*
X148088668Y-113932183D01*
X148088669Y-113932185D01*
X148206625Y-114100643D01*
X148213023Y-114109781D01*
X148370219Y-114266977D01*
X148374727Y-114270134D01*
X148374730Y-114270136D01*
X148375297Y-114270533D01*
X148527772Y-114377297D01*
X148572099Y-114432753D01*
X148581500Y-114480509D01*
X148581500Y-114639491D01*
X148561498Y-114707612D01*
X148527771Y-114742704D01*
X148374730Y-114849864D01*
X148374727Y-114849866D01*
X148370219Y-114853023D01*
X148213023Y-115010219D01*
X148209866Y-115014727D01*
X148209864Y-115014730D01*
X148093361Y-115181114D01*
X148085512Y-115192324D01*
X148083189Y-115197306D01*
X148083186Y-115197311D01*
X148017541Y-115338087D01*
X147991560Y-115393804D01*
X147934022Y-115608537D01*
X147914647Y-115830000D01*
X147934022Y-116051463D01*
X147966186Y-116171498D01*
X147986557Y-116247523D01*
X147991560Y-116266196D01*
X147993882Y-116271177D01*
X147993883Y-116271178D01*
X148083186Y-116462689D01*
X148083188Y-116462692D01*
X148085512Y-116467676D01*
X148088668Y-116472183D01*
X148088669Y-116472185D01*
X148206625Y-116640643D01*
X148213023Y-116649781D01*
X148370219Y-116806977D01*
X148374727Y-116810134D01*
X148374730Y-116810136D01*
X148442108Y-116857314D01*
X148527772Y-116917297D01*
X148572099Y-116972753D01*
X148581500Y-117020509D01*
X148581500Y-117179491D01*
X148561498Y-117247612D01*
X148527771Y-117282704D01*
X148374730Y-117389864D01*
X148374727Y-117389866D01*
X148370219Y-117393023D01*
X148213023Y-117550219D01*
X148209866Y-117554727D01*
X148209864Y-117554730D01*
X148105177Y-117704239D01*
X148085512Y-117732324D01*
X148083189Y-117737306D01*
X148083186Y-117737311D01*
X148017541Y-117878087D01*
X147991560Y-117933804D01*
X147934022Y-118148537D01*
X147914647Y-118370000D01*
X147934022Y-118591463D01*
X147991560Y-118806196D01*
X147993882Y-118811177D01*
X147993883Y-118811178D01*
X148083186Y-119002689D01*
X148083189Y-119002694D01*
X148085512Y-119007676D01*
X148213023Y-119189781D01*
X148370219Y-119346977D01*
X148374727Y-119350134D01*
X148374730Y-119350136D01*
X148442108Y-119397314D01*
X148527772Y-119457297D01*
X148572099Y-119512753D01*
X148581500Y-119560509D01*
X148581500Y-119719491D01*
X148561498Y-119787612D01*
X148527771Y-119822704D01*
X148374730Y-119929864D01*
X148374727Y-119929866D01*
X148370219Y-119933023D01*
X148213023Y-120090219D01*
X148209866Y-120094727D01*
X148209864Y-120094730D01*
X148088669Y-120267815D01*
X148085512Y-120272324D01*
X148083189Y-120277306D01*
X148083186Y-120277311D01*
X148001950Y-120451523D01*
X147991560Y-120473804D01*
X147934022Y-120688537D01*
X147914647Y-120910000D01*
X147133500Y-120910000D01*
X147133500Y-94941294D01*
X148645665Y-94941294D01*
X148655547Y-94953783D01*
X148686838Y-94974691D01*
X148696948Y-94980181D01*
X148873434Y-95056005D01*
X148884377Y-95059560D01*
X149071719Y-95101952D01*
X149083129Y-95103454D01*
X149275068Y-95110995D01*
X149286550Y-95110393D01*
X149476644Y-95082832D01*
X149487839Y-95080144D01*
X149669730Y-95018400D01*
X149680227Y-95013726D01*
X149790631Y-94951898D01*
X149800494Y-94941821D01*
X149797539Y-94934151D01*
X149235410Y-94372021D01*
X149221467Y-94364408D01*
X149219633Y-94364539D01*
X149213019Y-94368790D01*
X148651858Y-94929952D01*
X148645665Y-94941294D01*
X147133500Y-94941294D01*
X147133500Y-93976638D01*
X148110611Y-93976638D01*
X148123174Y-94168304D01*
X148124975Y-94179674D01*
X148172256Y-94365843D01*
X148176097Y-94376690D01*
X148256515Y-94551130D01*
X148262263Y-94561086D01*
X148268387Y-94569751D01*
X148278976Y-94578140D01*
X148292275Y-94571113D01*
X148850578Y-94012811D01*
X148858191Y-93998868D01*
X148858060Y-93997034D01*
X148853809Y-93990420D01*
X148291137Y-93427749D01*
X148278762Y-93420992D01*
X148272796Y-93425458D01*
X148197244Y-93569058D01*
X148192841Y-93579691D01*
X148135880Y-93763132D01*
X148133490Y-93774376D01*
X148110912Y-93965137D01*
X148110611Y-93976638D01*
X147133500Y-93976638D01*
X147133500Y-93058675D01*
X148645387Y-93058675D01*
X148648874Y-93067064D01*
X149209788Y-93627979D01*
X149223731Y-93635592D01*
X149225565Y-93635461D01*
X149232179Y-93631210D01*
X149792884Y-93070504D01*
X149799641Y-93058129D01*
X149793611Y-93050073D01*
X149732660Y-93011616D01*
X149722412Y-93006395D01*
X149544000Y-92935216D01*
X149532972Y-92931949D01*
X149344581Y-92894476D01*
X149333134Y-92893273D01*
X149141076Y-92890759D01*
X149129596Y-92891662D01*
X148940296Y-92924190D01*
X148929176Y-92927170D01*
X148748964Y-92993653D01*
X148738590Y-92998601D01*
X148654984Y-93048342D01*
X148645387Y-93058675D01*
X147133500Y-93058675D01*
X147133500Y-88216624D01*
X147898621Y-88216624D01*
X147902988Y-88222774D01*
X148102563Y-88339397D01*
X148111846Y-88343844D01*
X148330007Y-88427152D01*
X148339905Y-88430028D01*
X148568744Y-88476585D01*
X148578972Y-88477804D01*
X148812340Y-88486362D01*
X148822626Y-88485895D01*
X149054262Y-88456222D01*
X149064340Y-88454080D01*
X149288014Y-88386974D01*
X149297612Y-88383212D01*
X149507324Y-88280476D01*
X149516169Y-88275203D01*
X149588869Y-88223347D01*
X149597270Y-88212646D01*
X149590283Y-88199493D01*
X148762812Y-87372022D01*
X148748868Y-87364408D01*
X148747035Y-87364539D01*
X148740420Y-87368790D01*
X147905881Y-88203329D01*
X147898621Y-88216624D01*
X147133500Y-88216624D01*
X147133500Y-87606257D01*
X147153502Y-87538136D01*
X147207158Y-87491643D01*
X147277432Y-87481539D01*
X147342012Y-87511033D01*
X147376243Y-87558853D01*
X147419814Y-87666156D01*
X147424457Y-87675347D01*
X147525555Y-87840325D01*
X147536011Y-87849785D01*
X147544789Y-87846001D01*
X148389658Y-87001132D01*
X149114408Y-87001132D01*
X149114539Y-87002965D01*
X149118790Y-87009580D01*
X149950045Y-87840835D01*
X149962055Y-87847394D01*
X149973794Y-87838426D01*
X150022518Y-87770619D01*
X150027829Y-87761780D01*
X150131291Y-87552442D01*
X150135089Y-87542849D01*
X150202974Y-87319413D01*
X150205151Y-87309343D01*
X150235869Y-87076015D01*
X150236388Y-87069340D01*
X150238001Y-87003364D01*
X150237807Y-86996647D01*
X150218525Y-86762108D01*
X150216842Y-86751946D01*
X150159952Y-86525453D01*
X150156634Y-86515706D01*
X150063513Y-86301542D01*
X150058646Y-86292467D01*
X149973465Y-86160796D01*
X149962779Y-86151593D01*
X149953214Y-86155996D01*
X149122022Y-86987188D01*
X149114408Y-87001132D01*
X148389658Y-87001132D01*
X149592391Y-85798399D01*
X149599412Y-85785543D01*
X149591639Y-85774875D01*
X149577548Y-85763746D01*
X149568970Y-85758047D01*
X149364526Y-85645189D01*
X149355126Y-85640964D01*
X149134993Y-85563011D01*
X149125036Y-85560381D01*
X148895129Y-85519427D01*
X148884878Y-85518458D01*
X148651367Y-85515605D01*
X148641083Y-85516325D01*
X148410253Y-85551647D01*
X148400225Y-85554036D01*
X148178263Y-85626584D01*
X148168753Y-85630581D01*
X148053414Y-85690623D01*
X147983754Y-85704336D01*
X147917739Y-85678211D01*
X147876328Y-85620542D01*
X147872669Y-85549640D01*
X147906139Y-85489765D01*
X148225499Y-85170405D01*
X148287811Y-85136379D01*
X148314594Y-85133500D01*
X150935406Y-85133500D01*
X151003527Y-85153502D01*
X151024501Y-85170405D01*
X152229595Y-86375500D01*
X152263621Y-86437812D01*
X152266500Y-86464595D01*
X152266500Y-88023134D01*
X152273255Y-88085316D01*
X152324385Y-88221705D01*
X152411739Y-88338261D01*
X152528295Y-88425615D01*
X152664684Y-88476745D01*
X152726866Y-88483500D01*
X152990500Y-88483500D01*
X153058621Y-88503502D01*
X153105114Y-88557158D01*
X153116500Y-88609500D01*
X153116500Y-91158005D01*
X153096498Y-91226126D01*
X153079595Y-91247100D01*
X151472099Y-92854595D01*
X151409787Y-92888621D01*
X151383004Y-92891500D01*
X150574465Y-92891500D01*
X150512283Y-92898255D01*
X150375894Y-92949385D01*
X150259338Y-93036739D01*
X150171984Y-93153295D01*
X150120854Y-93289684D01*
X150114099Y-93351866D01*
X150114099Y-93415520D01*
X150094097Y-93483641D01*
X150077194Y-93504616D01*
X149594620Y-93987189D01*
X149587007Y-94001132D01*
X149587138Y-94002966D01*
X149591389Y-94009580D01*
X150077194Y-94495384D01*
X150111219Y-94557697D01*
X150114099Y-94584480D01*
X150114099Y-94648134D01*
X150120854Y-94710316D01*
X150171984Y-94846705D01*
X150259338Y-94963261D01*
X150375894Y-95050615D01*
X150512283Y-95101745D01*
X150574465Y-95108500D01*
X151870733Y-95108500D01*
X151932915Y-95101745D01*
X152069304Y-95050615D01*
X152185860Y-94963261D01*
X152273214Y-94846705D01*
X152324344Y-94710316D01*
X152331099Y-94648134D01*
X152331099Y-93839594D01*
X152351101Y-93771473D01*
X152368004Y-93750499D01*
X152801526Y-93316977D01*
X152863838Y-93282951D01*
X152934653Y-93288016D01*
X152991489Y-93330563D01*
X153016300Y-93397083D01*
X153002129Y-93464740D01*
X152947248Y-93569052D01*
X152942839Y-93579695D01*
X152885880Y-93763132D01*
X152883490Y-93774376D01*
X152860912Y-93965137D01*
X152860611Y-93976638D01*
X152873174Y-94168304D01*
X152874975Y-94179674D01*
X152922256Y-94365843D01*
X152926097Y-94376690D01*
X153006515Y-94551130D01*
X153012263Y-94561086D01*
X153018387Y-94569751D01*
X153028976Y-94578140D01*
X153042275Y-94571113D01*
X153972599Y-93640790D01*
X154542881Y-93070507D01*
X154549640Y-93058128D01*
X154543610Y-93050073D01*
X154482660Y-93011616D01*
X154472412Y-93006395D01*
X154294000Y-92935216D01*
X154282972Y-92931949D01*
X154094581Y-92894476D01*
X154083134Y-92893273D01*
X153891076Y-92890759D01*
X153879596Y-92891662D01*
X153690296Y-92924190D01*
X153679176Y-92927170D01*
X153498965Y-92993653D01*
X153488590Y-92998601D01*
X153444670Y-93024731D01*
X153375900Y-93042370D01*
X153308510Y-93020029D01*
X153263896Y-92964801D01*
X153256224Y-92894220D01*
X153291151Y-92827352D01*
X154142264Y-91976240D01*
X154150538Y-91968711D01*
X154157018Y-91964599D01*
X154203644Y-91914947D01*
X154206398Y-91912106D01*
X154226135Y-91892369D01*
X154228615Y-91889172D01*
X154236320Y-91880150D01*
X154261159Y-91853699D01*
X154266586Y-91847920D01*
X154270405Y-91840974D01*
X154270407Y-91840971D01*
X154276348Y-91830165D01*
X154287199Y-91813646D01*
X154294758Y-91803900D01*
X154299614Y-91797640D01*
X154302759Y-91790371D01*
X154302762Y-91790367D01*
X154317174Y-91757062D01*
X154322391Y-91746412D01*
X154343695Y-91707659D01*
X154348733Y-91688036D01*
X154355137Y-91669333D01*
X154360033Y-91658019D01*
X154360033Y-91658018D01*
X154363181Y-91650744D01*
X154364420Y-91642921D01*
X154364423Y-91642911D01*
X154370099Y-91607075D01*
X154372505Y-91595455D01*
X154381528Y-91560310D01*
X154381528Y-91560309D01*
X154383500Y-91552629D01*
X154383500Y-91532375D01*
X154385051Y-91512664D01*
X154386980Y-91500485D01*
X154388220Y-91492656D01*
X154384059Y-91448637D01*
X154383500Y-91436780D01*
X154383500Y-88609500D01*
X154403502Y-88541379D01*
X154457158Y-88494886D01*
X154509500Y-88483500D01*
X154773134Y-88483500D01*
X154835316Y-88476745D01*
X154971705Y-88425615D01*
X155088261Y-88338261D01*
X155175615Y-88221705D01*
X155177520Y-88216624D01*
X158898621Y-88216624D01*
X158902988Y-88222774D01*
X159102563Y-88339397D01*
X159111846Y-88343844D01*
X159330007Y-88427152D01*
X159339905Y-88430028D01*
X159568744Y-88476585D01*
X159578972Y-88477804D01*
X159812340Y-88486362D01*
X159822626Y-88485895D01*
X160054262Y-88456222D01*
X160064340Y-88454080D01*
X160288014Y-88386974D01*
X160297612Y-88383212D01*
X160507324Y-88280476D01*
X160516169Y-88275203D01*
X160588869Y-88223347D01*
X160597270Y-88212646D01*
X160590283Y-88199493D01*
X159762812Y-87372022D01*
X159748868Y-87364408D01*
X159747035Y-87364539D01*
X159740420Y-87368790D01*
X158905881Y-88203329D01*
X158898621Y-88216624D01*
X155177520Y-88216624D01*
X155226745Y-88085316D01*
X155233500Y-88023134D01*
X155233500Y-86968799D01*
X158262658Y-86968799D01*
X158276102Y-87201942D01*
X158277535Y-87212144D01*
X158328873Y-87439949D01*
X158331956Y-87449789D01*
X158419814Y-87666156D01*
X158424457Y-87675347D01*
X158525555Y-87840325D01*
X158536011Y-87849785D01*
X158544789Y-87846001D01*
X159377978Y-87012812D01*
X159384356Y-87001132D01*
X160114408Y-87001132D01*
X160114539Y-87002965D01*
X160118790Y-87009580D01*
X160950045Y-87840835D01*
X160962055Y-87847394D01*
X160973794Y-87838426D01*
X161022518Y-87770619D01*
X161027829Y-87761780D01*
X161131291Y-87552442D01*
X161135089Y-87542849D01*
X161202974Y-87319413D01*
X161205151Y-87309343D01*
X161235869Y-87076015D01*
X161236388Y-87069340D01*
X161238001Y-87003364D01*
X161237807Y-86996647D01*
X161218525Y-86762108D01*
X161216842Y-86751946D01*
X161159952Y-86525453D01*
X161156634Y-86515706D01*
X161063513Y-86301542D01*
X161058646Y-86292467D01*
X160973465Y-86160796D01*
X160962779Y-86151593D01*
X160953214Y-86155996D01*
X160122022Y-86987188D01*
X160114408Y-87001132D01*
X159384356Y-87001132D01*
X159385592Y-86998868D01*
X159385461Y-86997035D01*
X159381210Y-86990420D01*
X158549892Y-86159102D01*
X158538356Y-86152802D01*
X158526073Y-86162426D01*
X158459036Y-86260698D01*
X158453943Y-86269662D01*
X158355619Y-86481483D01*
X158352062Y-86491151D01*
X158289657Y-86716178D01*
X158287726Y-86726298D01*
X158262910Y-86958510D01*
X158262658Y-86968799D01*
X155233500Y-86968799D01*
X155233500Y-85976866D01*
X155226745Y-85914684D01*
X155178932Y-85787142D01*
X158901938Y-85787142D01*
X158908684Y-85799474D01*
X159737188Y-86627978D01*
X159751132Y-86635592D01*
X159752965Y-86635461D01*
X159759580Y-86631210D01*
X160592391Y-85798399D01*
X160599412Y-85785543D01*
X160591639Y-85774875D01*
X160577548Y-85763746D01*
X160568970Y-85758047D01*
X160364526Y-85645189D01*
X160355126Y-85640964D01*
X160134993Y-85563011D01*
X160125036Y-85560381D01*
X159895129Y-85519427D01*
X159884878Y-85518458D01*
X159651367Y-85515605D01*
X159641083Y-85516325D01*
X159410253Y-85551647D01*
X159400225Y-85554036D01*
X159178263Y-85626584D01*
X159168753Y-85630581D01*
X158961624Y-85738405D01*
X158952904Y-85743897D01*
X158910391Y-85775817D01*
X158901938Y-85787142D01*
X155178932Y-85787142D01*
X155175615Y-85778295D01*
X155088261Y-85661739D01*
X154971705Y-85574385D01*
X154835316Y-85523255D01*
X154773134Y-85516500D01*
X153214594Y-85516500D01*
X153146473Y-85496498D01*
X153125499Y-85479595D01*
X152917073Y-85271169D01*
X170651001Y-85271169D01*
X170651371Y-85277990D01*
X170656895Y-85328852D01*
X170660521Y-85344104D01*
X170705676Y-85464554D01*
X170714214Y-85480149D01*
X170790715Y-85582224D01*
X170803276Y-85594785D01*
X170905351Y-85671286D01*
X170920946Y-85679824D01*
X171041394Y-85724978D01*
X171056649Y-85728605D01*
X171107514Y-85734131D01*
X171114328Y-85734500D01*
X171497885Y-85734500D01*
X171513124Y-85730025D01*
X171514329Y-85728635D01*
X171516000Y-85720952D01*
X171516000Y-85716384D01*
X172024000Y-85716384D01*
X172028475Y-85731623D01*
X172029865Y-85732828D01*
X172037548Y-85734499D01*
X172425669Y-85734499D01*
X172432490Y-85734129D01*
X172483352Y-85728605D01*
X172498604Y-85724979D01*
X172619054Y-85679824D01*
X172634649Y-85671286D01*
X172736724Y-85594785D01*
X172749285Y-85582224D01*
X172825786Y-85480149D01*
X172834324Y-85464554D01*
X172879478Y-85344106D01*
X172883105Y-85328851D01*
X172888631Y-85277986D01*
X172889000Y-85271172D01*
X172889000Y-84887615D01*
X172884525Y-84872376D01*
X172883135Y-84871171D01*
X172875452Y-84869500D01*
X172042115Y-84869500D01*
X172026876Y-84873975D01*
X172025671Y-84875365D01*
X172024000Y-84883048D01*
X172024000Y-85716384D01*
X171516000Y-85716384D01*
X171516000Y-84887615D01*
X171511525Y-84872376D01*
X171510135Y-84871171D01*
X171502452Y-84869500D01*
X170669116Y-84869500D01*
X170653877Y-84873975D01*
X170652672Y-84875365D01*
X170651001Y-84883048D01*
X170651001Y-85271169D01*
X152917073Y-85271169D01*
X151989290Y-84343385D01*
X170651000Y-84343385D01*
X170655475Y-84358624D01*
X170656865Y-84359829D01*
X170664548Y-84361500D01*
X171497885Y-84361500D01*
X171513124Y-84357025D01*
X171514329Y-84355635D01*
X171516000Y-84347952D01*
X171516000Y-84343385D01*
X172024000Y-84343385D01*
X172028475Y-84358624D01*
X172029865Y-84359829D01*
X172037548Y-84361500D01*
X172870884Y-84361500D01*
X172886123Y-84357025D01*
X172887328Y-84355635D01*
X172888999Y-84347952D01*
X172888999Y-83959831D01*
X172888629Y-83953010D01*
X172883105Y-83902148D01*
X172879479Y-83886896D01*
X172834324Y-83766446D01*
X172825786Y-83750851D01*
X172749285Y-83648776D01*
X172736724Y-83636215D01*
X172634649Y-83559714D01*
X172619054Y-83551176D01*
X172498606Y-83506022D01*
X172483351Y-83502395D01*
X172432486Y-83496869D01*
X172425672Y-83496500D01*
X172042115Y-83496500D01*
X172026876Y-83500975D01*
X172025671Y-83502365D01*
X172024000Y-83510048D01*
X172024000Y-84343385D01*
X171516000Y-84343385D01*
X171516000Y-83514616D01*
X171511525Y-83499377D01*
X171510135Y-83498172D01*
X171502452Y-83496501D01*
X171114331Y-83496501D01*
X171107510Y-83496871D01*
X171056648Y-83502395D01*
X171041396Y-83506021D01*
X170920946Y-83551176D01*
X170905351Y-83559714D01*
X170803276Y-83636215D01*
X170790715Y-83648776D01*
X170714214Y-83750851D01*
X170705676Y-83766446D01*
X170660522Y-83886894D01*
X170656895Y-83902149D01*
X170651369Y-83953014D01*
X170651000Y-83959828D01*
X170651000Y-84343385D01*
X151989290Y-84343385D01*
X151753652Y-84107747D01*
X151746112Y-84099461D01*
X151742000Y-84092982D01*
X151692348Y-84046356D01*
X151689507Y-84043602D01*
X151669770Y-84023865D01*
X151666573Y-84021385D01*
X151657551Y-84013680D01*
X151644116Y-84001064D01*
X151625321Y-83983414D01*
X151618375Y-83979595D01*
X151618372Y-83979593D01*
X151607566Y-83973652D01*
X151591047Y-83962801D01*
X151587214Y-83959828D01*
X151575041Y-83950386D01*
X151567772Y-83947241D01*
X151567768Y-83947238D01*
X151534463Y-83932826D01*
X151523813Y-83927609D01*
X151485060Y-83906305D01*
X151465437Y-83901267D01*
X151446734Y-83894863D01*
X151435420Y-83889967D01*
X151435419Y-83889967D01*
X151428145Y-83886819D01*
X151420322Y-83885580D01*
X151420312Y-83885577D01*
X151384476Y-83879901D01*
X151372856Y-83877495D01*
X151337711Y-83868472D01*
X151337710Y-83868472D01*
X151330030Y-83866500D01*
X151309776Y-83866500D01*
X151290065Y-83864949D01*
X151287534Y-83864548D01*
X151270057Y-83861780D01*
X151262165Y-83862526D01*
X151226039Y-83865941D01*
X151214181Y-83866500D01*
X148078763Y-83866500D01*
X148067579Y-83865973D01*
X148060091Y-83864299D01*
X148052168Y-83864548D01*
X147992033Y-83866438D01*
X147988075Y-83866500D01*
X147960144Y-83866500D01*
X147956229Y-83866995D01*
X147956225Y-83866995D01*
X147956167Y-83867003D01*
X147956138Y-83867006D01*
X147944296Y-83867939D01*
X147900110Y-83869327D01*
X147882744Y-83874372D01*
X147880658Y-83874978D01*
X147861306Y-83878986D01*
X147854235Y-83879880D01*
X147841203Y-83881526D01*
X147833834Y-83884443D01*
X147833832Y-83884444D01*
X147800097Y-83897800D01*
X147788869Y-83901645D01*
X147746407Y-83913982D01*
X147739585Y-83918016D01*
X147739579Y-83918019D01*
X147728968Y-83924294D01*
X147711218Y-83932990D01*
X147699756Y-83937528D01*
X147699751Y-83937531D01*
X147692383Y-83940448D01*
X147675093Y-83953010D01*
X147656625Y-83966427D01*
X147646707Y-83972943D01*
X147635463Y-83979593D01*
X147608637Y-83995458D01*
X147594313Y-84009782D01*
X147579281Y-84022621D01*
X147562893Y-84034528D01*
X147534712Y-84068593D01*
X147526722Y-84077373D01*
X146223595Y-85380500D01*
X146161283Y-85414526D01*
X146090468Y-85409461D01*
X146033632Y-85366914D01*
X146008821Y-85300394D01*
X146008500Y-85291405D01*
X146008500Y-82634500D01*
X146028502Y-82566379D01*
X146082158Y-82519886D01*
X146134500Y-82508500D01*
X191668818Y-82508500D01*
X191736939Y-82528502D01*
G37*
%TD.AperFunction*%
%TA.AperFunction,Conductor*%
G36*
X165877515Y-100082555D02*
G01*
X165934351Y-100125102D01*
X165955190Y-100167999D01*
X165995716Y-100319243D01*
X165998039Y-100324224D01*
X165998039Y-100324225D01*
X166090151Y-100521762D01*
X166090154Y-100521767D01*
X166092477Y-100526749D01*
X166223802Y-100714300D01*
X166385700Y-100876198D01*
X166390208Y-100879355D01*
X166390211Y-100879357D01*
X166468389Y-100934098D01*
X166573251Y-101007523D01*
X166578233Y-101009846D01*
X166578238Y-101009849D01*
X166612457Y-101025805D01*
X166665742Y-101072722D01*
X166685203Y-101140999D01*
X166664661Y-101208959D01*
X166612457Y-101254195D01*
X166578238Y-101270151D01*
X166578233Y-101270154D01*
X166573251Y-101272477D01*
X166468389Y-101345902D01*
X166390211Y-101400643D01*
X166390208Y-101400645D01*
X166385700Y-101403802D01*
X166223802Y-101565700D01*
X166092477Y-101753251D01*
X166090154Y-101758233D01*
X166090151Y-101758238D01*
X166009331Y-101931560D01*
X165995716Y-101960757D01*
X165994294Y-101966065D01*
X165994293Y-101966067D01*
X165944198Y-102153023D01*
X165936457Y-102181913D01*
X165916502Y-102410000D01*
X165936457Y-102638087D01*
X165937881Y-102643400D01*
X165937881Y-102643402D01*
X165960916Y-102729367D01*
X165995716Y-102859243D01*
X165998039Y-102864224D01*
X165998039Y-102864225D01*
X166090151Y-103061762D01*
X166090154Y-103061767D01*
X166092477Y-103066749D01*
X166223802Y-103254300D01*
X166385700Y-103416198D01*
X166390208Y-103419355D01*
X166390211Y-103419357D01*
X166468389Y-103474098D01*
X166573251Y-103547523D01*
X166578233Y-103549846D01*
X166578238Y-103549849D01*
X166612457Y-103565805D01*
X166665742Y-103612722D01*
X166685203Y-103680999D01*
X166664661Y-103748959D01*
X166612457Y-103794195D01*
X166578238Y-103810151D01*
X166578233Y-103810154D01*
X166573251Y-103812477D01*
X166489088Y-103871409D01*
X166390211Y-103940643D01*
X166390208Y-103940645D01*
X166385700Y-103943802D01*
X166223802Y-104105700D01*
X166220645Y-104110208D01*
X166220643Y-104110211D01*
X166217574Y-104114594D01*
X166092477Y-104293251D01*
X166090154Y-104298233D01*
X166090151Y-104298238D01*
X166009331Y-104471560D01*
X165995716Y-104500757D01*
X165994294Y-104506065D01*
X165994293Y-104506067D01*
X165944198Y-104693023D01*
X165936457Y-104721913D01*
X165916502Y-104950000D01*
X165936457Y-105178087D01*
X165937881Y-105183400D01*
X165937881Y-105183402D01*
X165981997Y-105348042D01*
X165995716Y-105399243D01*
X165998039Y-105404224D01*
X165998039Y-105404225D01*
X166090151Y-105601762D01*
X166090154Y-105601767D01*
X166092477Y-105606749D01*
X166223802Y-105794300D01*
X166385700Y-105956198D01*
X166390208Y-105959355D01*
X166390211Y-105959357D01*
X166408924Y-105972460D01*
X166573251Y-106087523D01*
X166578233Y-106089846D01*
X166578238Y-106089849D01*
X166612457Y-106105805D01*
X166665742Y-106152722D01*
X166685203Y-106220999D01*
X166664661Y-106288959D01*
X166612457Y-106334195D01*
X166578238Y-106350151D01*
X166578233Y-106350154D01*
X166573251Y-106352477D01*
X166508886Y-106397546D01*
X166390211Y-106480643D01*
X166390208Y-106480645D01*
X166385700Y-106483802D01*
X166223802Y-106645700D01*
X166092477Y-106833251D01*
X166090154Y-106838233D01*
X166090151Y-106838238D01*
X166009331Y-107011560D01*
X165995716Y-107040757D01*
X165994294Y-107046065D01*
X165994293Y-107046067D01*
X165944198Y-107233023D01*
X165936457Y-107261913D01*
X165916502Y-107490000D01*
X165936457Y-107718087D01*
X165937881Y-107723400D01*
X165937881Y-107723402D01*
X165950052Y-107768822D01*
X165995716Y-107939243D01*
X165998039Y-107944224D01*
X165998039Y-107944225D01*
X166090151Y-108141762D01*
X166090154Y-108141767D01*
X166092477Y-108146749D01*
X166223802Y-108334300D01*
X166385700Y-108496198D01*
X166390208Y-108499355D01*
X166390211Y-108499357D01*
X166468389Y-108554098D01*
X166573251Y-108627523D01*
X166578233Y-108629846D01*
X166578238Y-108629849D01*
X166613049Y-108646081D01*
X166666334Y-108692998D01*
X166685795Y-108761275D01*
X166665253Y-108829235D01*
X166613049Y-108874471D01*
X166578489Y-108890586D01*
X166568993Y-108896069D01*
X166390533Y-109021028D01*
X166382125Y-109028084D01*
X166228084Y-109182125D01*
X166221028Y-109190533D01*
X166096069Y-109368993D01*
X166090586Y-109378489D01*
X165998510Y-109575947D01*
X165994764Y-109586239D01*
X165948606Y-109758503D01*
X165948942Y-109772599D01*
X165956884Y-109776000D01*
X167758000Y-109776000D01*
X167826121Y-109796002D01*
X167872614Y-109849658D01*
X167884000Y-109902000D01*
X167884000Y-110158000D01*
X167863998Y-110226121D01*
X167810342Y-110272614D01*
X167758000Y-110284000D01*
X165962033Y-110284000D01*
X165948502Y-110287973D01*
X165947273Y-110296522D01*
X165959110Y-110340697D01*
X165957420Y-110411673D01*
X165917626Y-110470469D01*
X165852362Y-110498417D01*
X165782348Y-110486644D01*
X165748308Y-110462403D01*
X165475405Y-110189500D01*
X165441379Y-110127188D01*
X165438500Y-110100405D01*
X165438500Y-100469594D01*
X165458502Y-100401473D01*
X165475405Y-100380499D01*
X165744388Y-100111516D01*
X165806700Y-100077490D01*
X165877515Y-100082555D01*
G37*
%TD.AperFunction*%
%TA.AperFunction,Conductor*%
G36*
X178211224Y-98048084D02*
G01*
X178228210Y-98067688D01*
X178320699Y-98199776D01*
X178470224Y-98349301D01*
X178643442Y-98470589D01*
X178648420Y-98472910D01*
X178648423Y-98472912D01*
X178787750Y-98537881D01*
X178835090Y-98559956D01*
X178840398Y-98561378D01*
X178840400Y-98561379D01*
X179034030Y-98613262D01*
X179034032Y-98613262D01*
X179039345Y-98614686D01*
X179250000Y-98633116D01*
X179460655Y-98614686D01*
X179465968Y-98613262D01*
X179465970Y-98613262D01*
X179659600Y-98561379D01*
X179659602Y-98561378D01*
X179664910Y-98559956D01*
X179712250Y-98537881D01*
X179782442Y-98527220D01*
X179847254Y-98556200D01*
X179886111Y-98615620D01*
X179891500Y-98652076D01*
X179891500Y-98985761D01*
X179871498Y-99053882D01*
X179854595Y-99074856D01*
X175109482Y-103819969D01*
X175047170Y-103853995D01*
X174987776Y-103852581D01*
X174965970Y-103846738D01*
X174965968Y-103846738D01*
X174960655Y-103845314D01*
X174750000Y-103826884D01*
X174539345Y-103845314D01*
X174534032Y-103846738D01*
X174534030Y-103846738D01*
X174340400Y-103898621D01*
X174340398Y-103898622D01*
X174335090Y-103900044D01*
X174330109Y-103902366D01*
X174330108Y-103902367D01*
X174148423Y-103987088D01*
X174148420Y-103987090D01*
X174143442Y-103989411D01*
X173970224Y-104110699D01*
X173820699Y-104260224D01*
X173772934Y-104328440D01*
X173727908Y-104392744D01*
X173672451Y-104437072D01*
X173601831Y-104444381D01*
X173538471Y-104412350D01*
X173521482Y-104392744D01*
X173432075Y-104265058D01*
X173425019Y-104256650D01*
X173283350Y-104114981D01*
X173274942Y-104107925D01*
X173110811Y-103992998D01*
X173101323Y-103987521D01*
X172919727Y-103902842D01*
X172909423Y-103899092D01*
X172771497Y-103862134D01*
X172757401Y-103862470D01*
X172754000Y-103870412D01*
X172754000Y-105168000D01*
X172733998Y-105236121D01*
X172680342Y-105282614D01*
X172628000Y-105294000D01*
X172372000Y-105294000D01*
X172303879Y-105273998D01*
X172257386Y-105220342D01*
X172246000Y-105168000D01*
X172246000Y-103875561D01*
X172242027Y-103862030D01*
X172233478Y-103860801D01*
X172090577Y-103899092D01*
X172080273Y-103902842D01*
X171898677Y-103987521D01*
X171889189Y-103992998D01*
X171725058Y-104107925D01*
X171716650Y-104114981D01*
X171574981Y-104256650D01*
X171567925Y-104265058D01*
X171478518Y-104392744D01*
X171423061Y-104437072D01*
X171352441Y-104444381D01*
X171289081Y-104412350D01*
X171272092Y-104392744D01*
X171227066Y-104328440D01*
X171179301Y-104260224D01*
X171029776Y-104110699D01*
X170856558Y-103989411D01*
X170851580Y-103987090D01*
X170851577Y-103987088D01*
X170669892Y-103902367D01*
X170669891Y-103902366D01*
X170664910Y-103900044D01*
X170659602Y-103898622D01*
X170659600Y-103898621D01*
X170465970Y-103846738D01*
X170465968Y-103846738D01*
X170460655Y-103845314D01*
X170250000Y-103826884D01*
X170039345Y-103845314D01*
X170034032Y-103846738D01*
X170034030Y-103846738D01*
X169840400Y-103898621D01*
X169840398Y-103898622D01*
X169835090Y-103900044D01*
X169830109Y-103902366D01*
X169830108Y-103902367D01*
X169648423Y-103987088D01*
X169648420Y-103987090D01*
X169643442Y-103989411D01*
X169470224Y-104110699D01*
X169323184Y-104257739D01*
X169260872Y-104291765D01*
X169190057Y-104286700D01*
X169130876Y-104240914D01*
X169039361Y-104110216D01*
X169039356Y-104110210D01*
X169036198Y-104105700D01*
X168874300Y-103943802D01*
X168869792Y-103940645D01*
X168869789Y-103940643D01*
X168770912Y-103871409D01*
X168686749Y-103812477D01*
X168681767Y-103810154D01*
X168681762Y-103810151D01*
X168647543Y-103794195D01*
X168594258Y-103747278D01*
X168574797Y-103679001D01*
X168595339Y-103611041D01*
X168647543Y-103565805D01*
X168681762Y-103549849D01*
X168681767Y-103549846D01*
X168686749Y-103547523D01*
X168791611Y-103474098D01*
X168869789Y-103419357D01*
X168869792Y-103419355D01*
X168874300Y-103416198D01*
X169036198Y-103254300D01*
X169167523Y-103066749D01*
X169169846Y-103061767D01*
X169169849Y-103061762D01*
X169261961Y-102864225D01*
X169261961Y-102864224D01*
X169264284Y-102859243D01*
X169299085Y-102729367D01*
X169322119Y-102643402D01*
X169322119Y-102643400D01*
X169323543Y-102638087D01*
X169343498Y-102410000D01*
X169323543Y-102181913D01*
X169315802Y-102153023D01*
X169265707Y-101966067D01*
X169265706Y-101966065D01*
X169264284Y-101960757D01*
X169250669Y-101931560D01*
X169169849Y-101758238D01*
X169169846Y-101758233D01*
X169167523Y-101753251D01*
X169036198Y-101565700D01*
X168874300Y-101403802D01*
X168869792Y-101400645D01*
X168869789Y-101400643D01*
X168791611Y-101345902D01*
X168686749Y-101272477D01*
X168681767Y-101270154D01*
X168681762Y-101270151D01*
X168647543Y-101254195D01*
X168594258Y-101207278D01*
X168574797Y-101139001D01*
X168595339Y-101071041D01*
X168647543Y-101025805D01*
X168681762Y-101009849D01*
X168681767Y-101009846D01*
X168686749Y-101007523D01*
X168791611Y-100934098D01*
X168869789Y-100879357D01*
X168869792Y-100879355D01*
X168874300Y-100876198D01*
X169036198Y-100714300D01*
X169167523Y-100526749D01*
X169169846Y-100521767D01*
X169169849Y-100521762D01*
X169261961Y-100324225D01*
X169261961Y-100324224D01*
X169264284Y-100319243D01*
X169279345Y-100263037D01*
X169322119Y-100103402D01*
X169322119Y-100103400D01*
X169323543Y-100098087D01*
X169343498Y-99870000D01*
X169323543Y-99641913D01*
X169314956Y-99609864D01*
X169273856Y-99456479D01*
X169264284Y-99420757D01*
X169261957Y-99415768D01*
X169260078Y-99410604D01*
X169262218Y-99409825D01*
X169253021Y-99349275D01*
X169282001Y-99284462D01*
X169288782Y-99277122D01*
X169918461Y-98647443D01*
X169980773Y-98613417D01*
X170029437Y-98612452D01*
X170034029Y-98613262D01*
X170039345Y-98614686D01*
X170250000Y-98633116D01*
X170460655Y-98614686D01*
X170465968Y-98613262D01*
X170465970Y-98613262D01*
X170659600Y-98561379D01*
X170659602Y-98561378D01*
X170664910Y-98559956D01*
X170712250Y-98537881D01*
X170851577Y-98472912D01*
X170851580Y-98472910D01*
X170856558Y-98470589D01*
X171029776Y-98349301D01*
X171179301Y-98199776D01*
X171244102Y-98107230D01*
X171299559Y-98062901D01*
X171347315Y-98053500D01*
X171402685Y-98053500D01*
X171470806Y-98073502D01*
X171505898Y-98107230D01*
X171570699Y-98199776D01*
X171720224Y-98349301D01*
X171893442Y-98470589D01*
X171898420Y-98472910D01*
X171898423Y-98472912D01*
X172037750Y-98537881D01*
X172085090Y-98559956D01*
X172090398Y-98561378D01*
X172090400Y-98561379D01*
X172284030Y-98613262D01*
X172284032Y-98613262D01*
X172289345Y-98614686D01*
X172500000Y-98633116D01*
X172710655Y-98614686D01*
X172715968Y-98613262D01*
X172715970Y-98613262D01*
X172909600Y-98561379D01*
X172909602Y-98561378D01*
X172914910Y-98559956D01*
X172962250Y-98537881D01*
X173101577Y-98472912D01*
X173101580Y-98472910D01*
X173106558Y-98470589D01*
X173279776Y-98349301D01*
X173429301Y-98199776D01*
X173521788Y-98067690D01*
X173577244Y-98023363D01*
X173647863Y-98016054D01*
X173711224Y-98048084D01*
X173728210Y-98067688D01*
X173820699Y-98199776D01*
X173970224Y-98349301D01*
X174143442Y-98470589D01*
X174148420Y-98472910D01*
X174148423Y-98472912D01*
X174287750Y-98537881D01*
X174335090Y-98559956D01*
X174340398Y-98561378D01*
X174340400Y-98561379D01*
X174534030Y-98613262D01*
X174534032Y-98613262D01*
X174539345Y-98614686D01*
X174750000Y-98633116D01*
X174960655Y-98614686D01*
X174965968Y-98613262D01*
X174965970Y-98613262D01*
X175159600Y-98561379D01*
X175159602Y-98561378D01*
X175164910Y-98559956D01*
X175212250Y-98537881D01*
X175351577Y-98472912D01*
X175351580Y-98472910D01*
X175356558Y-98470589D01*
X175529776Y-98349301D01*
X175679301Y-98199776D01*
X175761607Y-98082230D01*
X175817064Y-98037901D01*
X175864820Y-98028500D01*
X175885180Y-98028500D01*
X175953301Y-98048502D01*
X175988393Y-98082230D01*
X176070699Y-98199776D01*
X176220224Y-98349301D01*
X176393442Y-98470589D01*
X176398420Y-98472910D01*
X176398423Y-98472912D01*
X176537750Y-98537881D01*
X176585090Y-98559956D01*
X176590398Y-98561378D01*
X176590400Y-98561379D01*
X176784030Y-98613262D01*
X176784032Y-98613262D01*
X176789345Y-98614686D01*
X177000000Y-98633116D01*
X177210655Y-98614686D01*
X177215968Y-98613262D01*
X177215970Y-98613262D01*
X177409600Y-98561379D01*
X177409602Y-98561378D01*
X177414910Y-98559956D01*
X177462250Y-98537881D01*
X177601577Y-98472912D01*
X177601580Y-98472910D01*
X177606558Y-98470589D01*
X177779776Y-98349301D01*
X177929301Y-98199776D01*
X178021788Y-98067690D01*
X178077244Y-98023363D01*
X178147863Y-98016054D01*
X178211224Y-98048084D01*
G37*
%TD.AperFunction*%
%TD*%
M02*
