%TF.GenerationSoftware,KiCad,Pcbnew,7.0.8*%
%TF.CreationDate,2023-11-18T19:30:00+11:00*%
%TF.ProjectId,Main 4.3,4d61696e-2034-42e3-932e-6b696361645f,rev?*%
%TF.SameCoordinates,Original*%
%TF.FileFunction,Legend,Bot*%
%TF.FilePolarity,Positive*%
%FSLAX46Y46*%
G04 Gerber Fmt 4.6, Leading zero omitted, Abs format (unit mm)*
G04 Created by KiCad (PCBNEW 7.0.8) date 2023-11-18 19:30:00*
%MOMM*%
%LPD*%
G01*
G04 APERTURE LIST*
%ADD10C,0.100000*%
%ADD11C,0.150000*%
%ADD12C,0.120000*%
G04 APERTURE END LIST*
D10*
X208726109Y-162928571D02*
X208488014Y-162761905D01*
X208726109Y-162642857D02*
X208226109Y-162642857D01*
X208226109Y-162642857D02*
X208226109Y-162833333D01*
X208226109Y-162833333D02*
X208249919Y-162880952D01*
X208249919Y-162880952D02*
X208273728Y-162904762D01*
X208273728Y-162904762D02*
X208321347Y-162928571D01*
X208321347Y-162928571D02*
X208392776Y-162928571D01*
X208392776Y-162928571D02*
X208440395Y-162904762D01*
X208440395Y-162904762D02*
X208464204Y-162880952D01*
X208464204Y-162880952D02*
X208488014Y-162833333D01*
X208488014Y-162833333D02*
X208488014Y-162642857D01*
X208726109Y-163404762D02*
X208726109Y-163119048D01*
X208726109Y-163261905D02*
X208226109Y-163261905D01*
X208226109Y-163261905D02*
X208297538Y-163214286D01*
X208297538Y-163214286D02*
X208345157Y-163166667D01*
X208345157Y-163166667D02*
X208368966Y-163119048D01*
X208392776Y-163833333D02*
X208726109Y-163833333D01*
X208202300Y-163714285D02*
X208559442Y-163595238D01*
X208559442Y-163595238D02*
X208559442Y-163904761D01*
D11*
X149988094Y-121454819D02*
X149988094Y-120454819D01*
X149988094Y-120454819D02*
X149749999Y-120454819D01*
X149749999Y-120454819D02*
X149607142Y-120502438D01*
X149607142Y-120502438D02*
X149511904Y-120597676D01*
X149511904Y-120597676D02*
X149464285Y-120692914D01*
X149464285Y-120692914D02*
X149416666Y-120883390D01*
X149416666Y-120883390D02*
X149416666Y-121026247D01*
X149416666Y-121026247D02*
X149464285Y-121216723D01*
X149464285Y-121216723D02*
X149511904Y-121311961D01*
X149511904Y-121311961D02*
X149607142Y-121407200D01*
X149607142Y-121407200D02*
X149749999Y-121454819D01*
X149749999Y-121454819D02*
X149988094Y-121454819D01*
X149035713Y-120550057D02*
X148988094Y-120502438D01*
X148988094Y-120502438D02*
X148892856Y-120454819D01*
X148892856Y-120454819D02*
X148654761Y-120454819D01*
X148654761Y-120454819D02*
X148559523Y-120502438D01*
X148559523Y-120502438D02*
X148511904Y-120550057D01*
X148511904Y-120550057D02*
X148464285Y-120645295D01*
X148464285Y-120645295D02*
X148464285Y-120740533D01*
X148464285Y-120740533D02*
X148511904Y-120883390D01*
X148511904Y-120883390D02*
X149083332Y-121454819D01*
X149083332Y-121454819D02*
X148464285Y-121454819D01*
D10*
X207226109Y-162928571D02*
X206988014Y-162761905D01*
X207226109Y-162642857D02*
X206726109Y-162642857D01*
X206726109Y-162642857D02*
X206726109Y-162833333D01*
X206726109Y-162833333D02*
X206749919Y-162880952D01*
X206749919Y-162880952D02*
X206773728Y-162904762D01*
X206773728Y-162904762D02*
X206821347Y-162928571D01*
X206821347Y-162928571D02*
X206892776Y-162928571D01*
X206892776Y-162928571D02*
X206940395Y-162904762D01*
X206940395Y-162904762D02*
X206964204Y-162880952D01*
X206964204Y-162880952D02*
X206988014Y-162833333D01*
X206988014Y-162833333D02*
X206988014Y-162642857D01*
X207226109Y-163404762D02*
X207226109Y-163119048D01*
X207226109Y-163261905D02*
X206726109Y-163261905D01*
X206726109Y-163261905D02*
X206797538Y-163214286D01*
X206797538Y-163214286D02*
X206845157Y-163166667D01*
X206845157Y-163166667D02*
X206868966Y-163119048D01*
X206940395Y-163690476D02*
X206916585Y-163642857D01*
X206916585Y-163642857D02*
X206892776Y-163619047D01*
X206892776Y-163619047D02*
X206845157Y-163595238D01*
X206845157Y-163595238D02*
X206821347Y-163595238D01*
X206821347Y-163595238D02*
X206773728Y-163619047D01*
X206773728Y-163619047D02*
X206749919Y-163642857D01*
X206749919Y-163642857D02*
X206726109Y-163690476D01*
X206726109Y-163690476D02*
X206726109Y-163785714D01*
X206726109Y-163785714D02*
X206749919Y-163833333D01*
X206749919Y-163833333D02*
X206773728Y-163857142D01*
X206773728Y-163857142D02*
X206821347Y-163880952D01*
X206821347Y-163880952D02*
X206845157Y-163880952D01*
X206845157Y-163880952D02*
X206892776Y-163857142D01*
X206892776Y-163857142D02*
X206916585Y-163833333D01*
X206916585Y-163833333D02*
X206940395Y-163785714D01*
X206940395Y-163785714D02*
X206940395Y-163690476D01*
X206940395Y-163690476D02*
X206964204Y-163642857D01*
X206964204Y-163642857D02*
X206988014Y-163619047D01*
X206988014Y-163619047D02*
X207035633Y-163595238D01*
X207035633Y-163595238D02*
X207130871Y-163595238D01*
X207130871Y-163595238D02*
X207178490Y-163619047D01*
X207178490Y-163619047D02*
X207202300Y-163642857D01*
X207202300Y-163642857D02*
X207226109Y-163690476D01*
X207226109Y-163690476D02*
X207226109Y-163785714D01*
X207226109Y-163785714D02*
X207202300Y-163833333D01*
X207202300Y-163833333D02*
X207178490Y-163857142D01*
X207178490Y-163857142D02*
X207130871Y-163880952D01*
X207130871Y-163880952D02*
X207035633Y-163880952D01*
X207035633Y-163880952D02*
X206988014Y-163857142D01*
X206988014Y-163857142D02*
X206964204Y-163833333D01*
X206964204Y-163833333D02*
X206940395Y-163785714D01*
D11*
X133083333Y-128554819D02*
X133083333Y-129269104D01*
X133083333Y-129269104D02*
X133130952Y-129411961D01*
X133130952Y-129411961D02*
X133226190Y-129507200D01*
X133226190Y-129507200D02*
X133369047Y-129554819D01*
X133369047Y-129554819D02*
X133464285Y-129554819D01*
X132559523Y-129554819D02*
X132369047Y-129554819D01*
X132369047Y-129554819D02*
X132273809Y-129507200D01*
X132273809Y-129507200D02*
X132226190Y-129459580D01*
X132226190Y-129459580D02*
X132130952Y-129316723D01*
X132130952Y-129316723D02*
X132083333Y-129126247D01*
X132083333Y-129126247D02*
X132083333Y-128745295D01*
X132083333Y-128745295D02*
X132130952Y-128650057D01*
X132130952Y-128650057D02*
X132178571Y-128602438D01*
X132178571Y-128602438D02*
X132273809Y-128554819D01*
X132273809Y-128554819D02*
X132464285Y-128554819D01*
X132464285Y-128554819D02*
X132559523Y-128602438D01*
X132559523Y-128602438D02*
X132607142Y-128650057D01*
X132607142Y-128650057D02*
X132654761Y-128745295D01*
X132654761Y-128745295D02*
X132654761Y-128983390D01*
X132654761Y-128983390D02*
X132607142Y-129078628D01*
X132607142Y-129078628D02*
X132559523Y-129126247D01*
X132559523Y-129126247D02*
X132464285Y-129173866D01*
X132464285Y-129173866D02*
X132273809Y-129173866D01*
X132273809Y-129173866D02*
X132178571Y-129126247D01*
X132178571Y-129126247D02*
X132130952Y-129078628D01*
X132130952Y-129078628D02*
X132083333Y-128983390D01*
X133321428Y-130464700D02*
X132178571Y-130464700D01*
X146321428Y-130464700D02*
X145178571Y-130464700D01*
X145749999Y-131036128D02*
X145749999Y-129893271D01*
D10*
X193678490Y-142903571D02*
X193702300Y-142879762D01*
X193702300Y-142879762D02*
X193726109Y-142808333D01*
X193726109Y-142808333D02*
X193726109Y-142760714D01*
X193726109Y-142760714D02*
X193702300Y-142689286D01*
X193702300Y-142689286D02*
X193654680Y-142641667D01*
X193654680Y-142641667D02*
X193607061Y-142617857D01*
X193607061Y-142617857D02*
X193511823Y-142594048D01*
X193511823Y-142594048D02*
X193440395Y-142594048D01*
X193440395Y-142594048D02*
X193345157Y-142617857D01*
X193345157Y-142617857D02*
X193297538Y-142641667D01*
X193297538Y-142641667D02*
X193249919Y-142689286D01*
X193249919Y-142689286D02*
X193226109Y-142760714D01*
X193226109Y-142760714D02*
X193226109Y-142808333D01*
X193226109Y-142808333D02*
X193249919Y-142879762D01*
X193249919Y-142879762D02*
X193273728Y-142903571D01*
X193273728Y-143094048D02*
X193249919Y-143117857D01*
X193249919Y-143117857D02*
X193226109Y-143165476D01*
X193226109Y-143165476D02*
X193226109Y-143284524D01*
X193226109Y-143284524D02*
X193249919Y-143332143D01*
X193249919Y-143332143D02*
X193273728Y-143355952D01*
X193273728Y-143355952D02*
X193321347Y-143379762D01*
X193321347Y-143379762D02*
X193368966Y-143379762D01*
X193368966Y-143379762D02*
X193440395Y-143355952D01*
X193440395Y-143355952D02*
X193726109Y-143070238D01*
X193726109Y-143070238D02*
X193726109Y-143379762D01*
X193226109Y-143546428D02*
X193226109Y-143855952D01*
X193226109Y-143855952D02*
X193416585Y-143689285D01*
X193416585Y-143689285D02*
X193416585Y-143760714D01*
X193416585Y-143760714D02*
X193440395Y-143808333D01*
X193440395Y-143808333D02*
X193464204Y-143832142D01*
X193464204Y-143832142D02*
X193511823Y-143855952D01*
X193511823Y-143855952D02*
X193630871Y-143855952D01*
X193630871Y-143855952D02*
X193678490Y-143832142D01*
X193678490Y-143832142D02*
X193702300Y-143808333D01*
X193702300Y-143808333D02*
X193726109Y-143760714D01*
X193726109Y-143760714D02*
X193726109Y-143617857D01*
X193726109Y-143617857D02*
X193702300Y-143570238D01*
X193702300Y-143570238D02*
X193678490Y-143546428D01*
X186207419Y-141488095D02*
X187016942Y-141488095D01*
X187016942Y-141488095D02*
X187112180Y-141535714D01*
X187112180Y-141535714D02*
X187159800Y-141583333D01*
X187159800Y-141583333D02*
X187207419Y-141678571D01*
X187207419Y-141678571D02*
X187207419Y-141869047D01*
X187207419Y-141869047D02*
X187159800Y-141964285D01*
X187159800Y-141964285D02*
X187112180Y-142011904D01*
X187112180Y-142011904D02*
X187016942Y-142059523D01*
X187016942Y-142059523D02*
X186207419Y-142059523D01*
X186207419Y-143011904D02*
X186207419Y-142535714D01*
X186207419Y-142535714D02*
X186683609Y-142488095D01*
X186683609Y-142488095D02*
X186635990Y-142535714D01*
X186635990Y-142535714D02*
X186588371Y-142630952D01*
X186588371Y-142630952D02*
X186588371Y-142869047D01*
X186588371Y-142869047D02*
X186635990Y-142964285D01*
X186635990Y-142964285D02*
X186683609Y-143011904D01*
X186683609Y-143011904D02*
X186778847Y-143059523D01*
X186778847Y-143059523D02*
X187016942Y-143059523D01*
X187016942Y-143059523D02*
X187112180Y-143011904D01*
X187112180Y-143011904D02*
X187159800Y-142964285D01*
X187159800Y-142964285D02*
X187207419Y-142869047D01*
X187207419Y-142869047D02*
X187207419Y-142630952D01*
X187207419Y-142630952D02*
X187159800Y-142535714D01*
X187159800Y-142535714D02*
X187112180Y-142488095D01*
X166726109Y-156928571D02*
X166488014Y-156761905D01*
X166726109Y-156642857D02*
X166226109Y-156642857D01*
X166226109Y-156642857D02*
X166226109Y-156833333D01*
X166226109Y-156833333D02*
X166249919Y-156880952D01*
X166249919Y-156880952D02*
X166273728Y-156904762D01*
X166273728Y-156904762D02*
X166321347Y-156928571D01*
X166321347Y-156928571D02*
X166392776Y-156928571D01*
X166392776Y-156928571D02*
X166440395Y-156904762D01*
X166440395Y-156904762D02*
X166464204Y-156880952D01*
X166464204Y-156880952D02*
X166488014Y-156833333D01*
X166488014Y-156833333D02*
X166488014Y-156642857D01*
X166726109Y-157404762D02*
X166726109Y-157119048D01*
X166726109Y-157261905D02*
X166226109Y-157261905D01*
X166226109Y-157261905D02*
X166297538Y-157214286D01*
X166297538Y-157214286D02*
X166345157Y-157166667D01*
X166345157Y-157166667D02*
X166368966Y-157119048D01*
X166226109Y-157714285D02*
X166226109Y-157761904D01*
X166226109Y-157761904D02*
X166249919Y-157809523D01*
X166249919Y-157809523D02*
X166273728Y-157833333D01*
X166273728Y-157833333D02*
X166321347Y-157857142D01*
X166321347Y-157857142D02*
X166416585Y-157880952D01*
X166416585Y-157880952D02*
X166535633Y-157880952D01*
X166535633Y-157880952D02*
X166630871Y-157857142D01*
X166630871Y-157857142D02*
X166678490Y-157833333D01*
X166678490Y-157833333D02*
X166702300Y-157809523D01*
X166702300Y-157809523D02*
X166726109Y-157761904D01*
X166726109Y-157761904D02*
X166726109Y-157714285D01*
X166726109Y-157714285D02*
X166702300Y-157666666D01*
X166702300Y-157666666D02*
X166678490Y-157642857D01*
X166678490Y-157642857D02*
X166630871Y-157619047D01*
X166630871Y-157619047D02*
X166535633Y-157595238D01*
X166535633Y-157595238D02*
X166416585Y-157595238D01*
X166416585Y-157595238D02*
X166321347Y-157619047D01*
X166321347Y-157619047D02*
X166273728Y-157642857D01*
X166273728Y-157642857D02*
X166249919Y-157666666D01*
X166249919Y-157666666D02*
X166226109Y-157714285D01*
X224178490Y-162928571D02*
X224202300Y-162904762D01*
X224202300Y-162904762D02*
X224226109Y-162833333D01*
X224226109Y-162833333D02*
X224226109Y-162785714D01*
X224226109Y-162785714D02*
X224202300Y-162714286D01*
X224202300Y-162714286D02*
X224154680Y-162666667D01*
X224154680Y-162666667D02*
X224107061Y-162642857D01*
X224107061Y-162642857D02*
X224011823Y-162619048D01*
X224011823Y-162619048D02*
X223940395Y-162619048D01*
X223940395Y-162619048D02*
X223845157Y-162642857D01*
X223845157Y-162642857D02*
X223797538Y-162666667D01*
X223797538Y-162666667D02*
X223749919Y-162714286D01*
X223749919Y-162714286D02*
X223726109Y-162785714D01*
X223726109Y-162785714D02*
X223726109Y-162833333D01*
X223726109Y-162833333D02*
X223749919Y-162904762D01*
X223749919Y-162904762D02*
X223773728Y-162928571D01*
X223773728Y-163119048D02*
X223749919Y-163142857D01*
X223749919Y-163142857D02*
X223726109Y-163190476D01*
X223726109Y-163190476D02*
X223726109Y-163309524D01*
X223726109Y-163309524D02*
X223749919Y-163357143D01*
X223749919Y-163357143D02*
X223773728Y-163380952D01*
X223773728Y-163380952D02*
X223821347Y-163404762D01*
X223821347Y-163404762D02*
X223868966Y-163404762D01*
X223868966Y-163404762D02*
X223940395Y-163380952D01*
X223940395Y-163380952D02*
X224226109Y-163095238D01*
X224226109Y-163095238D02*
X224226109Y-163404762D01*
X223892776Y-163833333D02*
X224226109Y-163833333D01*
X223702300Y-163714285D02*
X224059442Y-163595238D01*
X224059442Y-163595238D02*
X224059442Y-163904761D01*
D11*
X157845238Y-121550057D02*
X157940476Y-121502438D01*
X157940476Y-121502438D02*
X158035714Y-121407200D01*
X158035714Y-121407200D02*
X158178571Y-121264342D01*
X158178571Y-121264342D02*
X158273809Y-121216723D01*
X158273809Y-121216723D02*
X158369047Y-121216723D01*
X158321428Y-121454819D02*
X158416666Y-121407200D01*
X158416666Y-121407200D02*
X158511904Y-121311961D01*
X158511904Y-121311961D02*
X158559523Y-121121485D01*
X158559523Y-121121485D02*
X158559523Y-120788152D01*
X158559523Y-120788152D02*
X158511904Y-120597676D01*
X158511904Y-120597676D02*
X158416666Y-120502438D01*
X158416666Y-120502438D02*
X158321428Y-120454819D01*
X158321428Y-120454819D02*
X158130952Y-120454819D01*
X158130952Y-120454819D02*
X158035714Y-120502438D01*
X158035714Y-120502438D02*
X157940476Y-120597676D01*
X157940476Y-120597676D02*
X157892857Y-120788152D01*
X157892857Y-120788152D02*
X157892857Y-121121485D01*
X157892857Y-121121485D02*
X157940476Y-121311961D01*
X157940476Y-121311961D02*
X158035714Y-121407200D01*
X158035714Y-121407200D02*
X158130952Y-121454819D01*
X158130952Y-121454819D02*
X158321428Y-121454819D01*
X156940476Y-121454819D02*
X157511904Y-121454819D01*
X157226190Y-121454819D02*
X157226190Y-120454819D01*
X157226190Y-120454819D02*
X157321428Y-120597676D01*
X157321428Y-120597676D02*
X157416666Y-120692914D01*
X157416666Y-120692914D02*
X157511904Y-120740533D01*
X138209523Y-145354819D02*
X138209523Y-146069104D01*
X138209523Y-146069104D02*
X138257142Y-146211961D01*
X138257142Y-146211961D02*
X138352380Y-146307200D01*
X138352380Y-146307200D02*
X138495237Y-146354819D01*
X138495237Y-146354819D02*
X138590475Y-146354819D01*
X137209523Y-146354819D02*
X137780951Y-146354819D01*
X137495237Y-146354819D02*
X137495237Y-145354819D01*
X137495237Y-145354819D02*
X137590475Y-145497676D01*
X137590475Y-145497676D02*
X137685713Y-145592914D01*
X137685713Y-145592914D02*
X137780951Y-145640533D01*
X136876189Y-145354819D02*
X136257142Y-145354819D01*
X136257142Y-145354819D02*
X136590475Y-145735771D01*
X136590475Y-145735771D02*
X136447618Y-145735771D01*
X136447618Y-145735771D02*
X136352380Y-145783390D01*
X136352380Y-145783390D02*
X136304761Y-145831009D01*
X136304761Y-145831009D02*
X136257142Y-145926247D01*
X136257142Y-145926247D02*
X136257142Y-146164342D01*
X136257142Y-146164342D02*
X136304761Y-146259580D01*
X136304761Y-146259580D02*
X136352380Y-146307200D01*
X136352380Y-146307200D02*
X136447618Y-146354819D01*
X136447618Y-146354819D02*
X136733332Y-146354819D01*
X136733332Y-146354819D02*
X136828570Y-146307200D01*
X136828570Y-146307200D02*
X136876189Y-146259580D01*
X138471428Y-147014700D02*
X137328571Y-147014700D01*
X151471428Y-147014700D02*
X150328571Y-147014700D01*
X150899999Y-147586128D02*
X150899999Y-146443271D01*
D10*
X203428490Y-137678571D02*
X203452300Y-137654762D01*
X203452300Y-137654762D02*
X203476109Y-137583333D01*
X203476109Y-137583333D02*
X203476109Y-137535714D01*
X203476109Y-137535714D02*
X203452300Y-137464286D01*
X203452300Y-137464286D02*
X203404680Y-137416667D01*
X203404680Y-137416667D02*
X203357061Y-137392857D01*
X203357061Y-137392857D02*
X203261823Y-137369048D01*
X203261823Y-137369048D02*
X203190395Y-137369048D01*
X203190395Y-137369048D02*
X203095157Y-137392857D01*
X203095157Y-137392857D02*
X203047538Y-137416667D01*
X203047538Y-137416667D02*
X202999919Y-137464286D01*
X202999919Y-137464286D02*
X202976109Y-137535714D01*
X202976109Y-137535714D02*
X202976109Y-137583333D01*
X202976109Y-137583333D02*
X202999919Y-137654762D01*
X202999919Y-137654762D02*
X203023728Y-137678571D01*
X203023728Y-137869048D02*
X202999919Y-137892857D01*
X202999919Y-137892857D02*
X202976109Y-137940476D01*
X202976109Y-137940476D02*
X202976109Y-138059524D01*
X202976109Y-138059524D02*
X202999919Y-138107143D01*
X202999919Y-138107143D02*
X203023728Y-138130952D01*
X203023728Y-138130952D02*
X203071347Y-138154762D01*
X203071347Y-138154762D02*
X203118966Y-138154762D01*
X203118966Y-138154762D02*
X203190395Y-138130952D01*
X203190395Y-138130952D02*
X203476109Y-137845238D01*
X203476109Y-137845238D02*
X203476109Y-138154762D01*
X203476109Y-138630952D02*
X203476109Y-138345238D01*
X203476109Y-138488095D02*
X202976109Y-138488095D01*
X202976109Y-138488095D02*
X203047538Y-138440476D01*
X203047538Y-138440476D02*
X203095157Y-138392857D01*
X203095157Y-138392857D02*
X203118966Y-138345238D01*
X204726109Y-162928571D02*
X204488014Y-162761905D01*
X204726109Y-162642857D02*
X204226109Y-162642857D01*
X204226109Y-162642857D02*
X204226109Y-162833333D01*
X204226109Y-162833333D02*
X204249919Y-162880952D01*
X204249919Y-162880952D02*
X204273728Y-162904762D01*
X204273728Y-162904762D02*
X204321347Y-162928571D01*
X204321347Y-162928571D02*
X204392776Y-162928571D01*
X204392776Y-162928571D02*
X204440395Y-162904762D01*
X204440395Y-162904762D02*
X204464204Y-162880952D01*
X204464204Y-162880952D02*
X204488014Y-162833333D01*
X204488014Y-162833333D02*
X204488014Y-162642857D01*
X204726109Y-163404762D02*
X204726109Y-163119048D01*
X204726109Y-163261905D02*
X204226109Y-163261905D01*
X204226109Y-163261905D02*
X204297538Y-163214286D01*
X204297538Y-163214286D02*
X204345157Y-163166667D01*
X204345157Y-163166667D02*
X204368966Y-163119048D01*
X204226109Y-163571428D02*
X204226109Y-163904761D01*
X204226109Y-163904761D02*
X204726109Y-163690476D01*
D11*
X153554819Y-136590476D02*
X154269104Y-136590476D01*
X154269104Y-136590476D02*
X154411961Y-136542857D01*
X154411961Y-136542857D02*
X154507200Y-136447619D01*
X154507200Y-136447619D02*
X154554819Y-136304762D01*
X154554819Y-136304762D02*
X154554819Y-136209524D01*
X154554819Y-137590476D02*
X154554819Y-137019048D01*
X154554819Y-137304762D02*
X153554819Y-137304762D01*
X153554819Y-137304762D02*
X153697676Y-137209524D01*
X153697676Y-137209524D02*
X153792914Y-137114286D01*
X153792914Y-137114286D02*
X153840533Y-137019048D01*
X153554819Y-138209524D02*
X153554819Y-138304762D01*
X153554819Y-138304762D02*
X153602438Y-138400000D01*
X153602438Y-138400000D02*
X153650057Y-138447619D01*
X153650057Y-138447619D02*
X153745295Y-138495238D01*
X153745295Y-138495238D02*
X153935771Y-138542857D01*
X153935771Y-138542857D02*
X154173866Y-138542857D01*
X154173866Y-138542857D02*
X154364342Y-138495238D01*
X154364342Y-138495238D02*
X154459580Y-138447619D01*
X154459580Y-138447619D02*
X154507200Y-138400000D01*
X154507200Y-138400000D02*
X154554819Y-138304762D01*
X154554819Y-138304762D02*
X154554819Y-138209524D01*
X154554819Y-138209524D02*
X154507200Y-138114286D01*
X154507200Y-138114286D02*
X154459580Y-138066667D01*
X154459580Y-138066667D02*
X154364342Y-138019048D01*
X154364342Y-138019048D02*
X154173866Y-137971429D01*
X154173866Y-137971429D02*
X153935771Y-137971429D01*
X153935771Y-137971429D02*
X153745295Y-138019048D01*
X153745295Y-138019048D02*
X153650057Y-138066667D01*
X153650057Y-138066667D02*
X153602438Y-138114286D01*
X153602438Y-138114286D02*
X153554819Y-138209524D01*
X153214700Y-150328571D02*
X153214700Y-151471429D01*
X153786128Y-150900000D02*
X152643271Y-150900000D01*
X153214700Y-137328571D02*
X153214700Y-138471429D01*
D10*
X171726109Y-156928571D02*
X171488014Y-156761905D01*
X171726109Y-156642857D02*
X171226109Y-156642857D01*
X171226109Y-156642857D02*
X171226109Y-156833333D01*
X171226109Y-156833333D02*
X171249919Y-156880952D01*
X171249919Y-156880952D02*
X171273728Y-156904762D01*
X171273728Y-156904762D02*
X171321347Y-156928571D01*
X171321347Y-156928571D02*
X171392776Y-156928571D01*
X171392776Y-156928571D02*
X171440395Y-156904762D01*
X171440395Y-156904762D02*
X171464204Y-156880952D01*
X171464204Y-156880952D02*
X171488014Y-156833333D01*
X171488014Y-156833333D02*
X171488014Y-156642857D01*
X171726109Y-157404762D02*
X171726109Y-157119048D01*
X171726109Y-157261905D02*
X171226109Y-157261905D01*
X171226109Y-157261905D02*
X171297538Y-157214286D01*
X171297538Y-157214286D02*
X171345157Y-157166667D01*
X171345157Y-157166667D02*
X171368966Y-157119048D01*
X171273728Y-157595238D02*
X171249919Y-157619047D01*
X171249919Y-157619047D02*
X171226109Y-157666666D01*
X171226109Y-157666666D02*
X171226109Y-157785714D01*
X171226109Y-157785714D02*
X171249919Y-157833333D01*
X171249919Y-157833333D02*
X171273728Y-157857142D01*
X171273728Y-157857142D02*
X171321347Y-157880952D01*
X171321347Y-157880952D02*
X171368966Y-157880952D01*
X171368966Y-157880952D02*
X171440395Y-157857142D01*
X171440395Y-157857142D02*
X171726109Y-157571428D01*
X171726109Y-157571428D02*
X171726109Y-157880952D01*
X203226109Y-162928571D02*
X202988014Y-162761905D01*
X203226109Y-162642857D02*
X202726109Y-162642857D01*
X202726109Y-162642857D02*
X202726109Y-162833333D01*
X202726109Y-162833333D02*
X202749919Y-162880952D01*
X202749919Y-162880952D02*
X202773728Y-162904762D01*
X202773728Y-162904762D02*
X202821347Y-162928571D01*
X202821347Y-162928571D02*
X202892776Y-162928571D01*
X202892776Y-162928571D02*
X202940395Y-162904762D01*
X202940395Y-162904762D02*
X202964204Y-162880952D01*
X202964204Y-162880952D02*
X202988014Y-162833333D01*
X202988014Y-162833333D02*
X202988014Y-162642857D01*
X203226109Y-163404762D02*
X203226109Y-163119048D01*
X203226109Y-163261905D02*
X202726109Y-163261905D01*
X202726109Y-163261905D02*
X202797538Y-163214286D01*
X202797538Y-163214286D02*
X202845157Y-163166667D01*
X202845157Y-163166667D02*
X202868966Y-163119048D01*
X202726109Y-163857142D02*
X202726109Y-163619047D01*
X202726109Y-163619047D02*
X202964204Y-163595238D01*
X202964204Y-163595238D02*
X202940395Y-163619047D01*
X202940395Y-163619047D02*
X202916585Y-163666666D01*
X202916585Y-163666666D02*
X202916585Y-163785714D01*
X202916585Y-163785714D02*
X202940395Y-163833333D01*
X202940395Y-163833333D02*
X202964204Y-163857142D01*
X202964204Y-163857142D02*
X203011823Y-163880952D01*
X203011823Y-163880952D02*
X203130871Y-163880952D01*
X203130871Y-163880952D02*
X203178490Y-163857142D01*
X203178490Y-163857142D02*
X203202300Y-163833333D01*
X203202300Y-163833333D02*
X203226109Y-163785714D01*
X203226109Y-163785714D02*
X203226109Y-163666666D01*
X203226109Y-163666666D02*
X203202300Y-163619047D01*
X203202300Y-163619047D02*
X203178490Y-163595238D01*
X192178490Y-142903571D02*
X192202300Y-142879762D01*
X192202300Y-142879762D02*
X192226109Y-142808333D01*
X192226109Y-142808333D02*
X192226109Y-142760714D01*
X192226109Y-142760714D02*
X192202300Y-142689286D01*
X192202300Y-142689286D02*
X192154680Y-142641667D01*
X192154680Y-142641667D02*
X192107061Y-142617857D01*
X192107061Y-142617857D02*
X192011823Y-142594048D01*
X192011823Y-142594048D02*
X191940395Y-142594048D01*
X191940395Y-142594048D02*
X191845157Y-142617857D01*
X191845157Y-142617857D02*
X191797538Y-142641667D01*
X191797538Y-142641667D02*
X191749919Y-142689286D01*
X191749919Y-142689286D02*
X191726109Y-142760714D01*
X191726109Y-142760714D02*
X191726109Y-142808333D01*
X191726109Y-142808333D02*
X191749919Y-142879762D01*
X191749919Y-142879762D02*
X191773728Y-142903571D01*
X191773728Y-143094048D02*
X191749919Y-143117857D01*
X191749919Y-143117857D02*
X191726109Y-143165476D01*
X191726109Y-143165476D02*
X191726109Y-143284524D01*
X191726109Y-143284524D02*
X191749919Y-143332143D01*
X191749919Y-143332143D02*
X191773728Y-143355952D01*
X191773728Y-143355952D02*
X191821347Y-143379762D01*
X191821347Y-143379762D02*
X191868966Y-143379762D01*
X191868966Y-143379762D02*
X191940395Y-143355952D01*
X191940395Y-143355952D02*
X192226109Y-143070238D01*
X192226109Y-143070238D02*
X192226109Y-143379762D01*
X191773728Y-143570238D02*
X191749919Y-143594047D01*
X191749919Y-143594047D02*
X191726109Y-143641666D01*
X191726109Y-143641666D02*
X191726109Y-143760714D01*
X191726109Y-143760714D02*
X191749919Y-143808333D01*
X191749919Y-143808333D02*
X191773728Y-143832142D01*
X191773728Y-143832142D02*
X191821347Y-143855952D01*
X191821347Y-143855952D02*
X191868966Y-143855952D01*
X191868966Y-143855952D02*
X191940395Y-143832142D01*
X191940395Y-143832142D02*
X192226109Y-143546428D01*
X192226109Y-143546428D02*
X192226109Y-143855952D01*
D11*
X144942857Y-194159580D02*
X144990476Y-194207200D01*
X144990476Y-194207200D02*
X145133333Y-194254819D01*
X145133333Y-194254819D02*
X145228571Y-194254819D01*
X145228571Y-194254819D02*
X145371428Y-194207200D01*
X145371428Y-194207200D02*
X145466666Y-194111961D01*
X145466666Y-194111961D02*
X145514285Y-194016723D01*
X145514285Y-194016723D02*
X145561904Y-193826247D01*
X145561904Y-193826247D02*
X145561904Y-193683390D01*
X145561904Y-193683390D02*
X145514285Y-193492914D01*
X145514285Y-193492914D02*
X145466666Y-193397676D01*
X145466666Y-193397676D02*
X145371428Y-193302438D01*
X145371428Y-193302438D02*
X145228571Y-193254819D01*
X145228571Y-193254819D02*
X145133333Y-193254819D01*
X145133333Y-193254819D02*
X144990476Y-193302438D01*
X144990476Y-193302438D02*
X144942857Y-193350057D01*
X144038095Y-193254819D02*
X144514285Y-193254819D01*
X144514285Y-193254819D02*
X144561904Y-193731009D01*
X144561904Y-193731009D02*
X144514285Y-193683390D01*
X144514285Y-193683390D02*
X144419047Y-193635771D01*
X144419047Y-193635771D02*
X144180952Y-193635771D01*
X144180952Y-193635771D02*
X144085714Y-193683390D01*
X144085714Y-193683390D02*
X144038095Y-193731009D01*
X144038095Y-193731009D02*
X143990476Y-193826247D01*
X143990476Y-193826247D02*
X143990476Y-194064342D01*
X143990476Y-194064342D02*
X144038095Y-194159580D01*
X144038095Y-194159580D02*
X144085714Y-194207200D01*
X144085714Y-194207200D02*
X144180952Y-194254819D01*
X144180952Y-194254819D02*
X144419047Y-194254819D01*
X144419047Y-194254819D02*
X144514285Y-194207200D01*
X144514285Y-194207200D02*
X144561904Y-194159580D01*
X143514285Y-194254819D02*
X143323809Y-194254819D01*
X143323809Y-194254819D02*
X143228571Y-194207200D01*
X143228571Y-194207200D02*
X143180952Y-194159580D01*
X143180952Y-194159580D02*
X143085714Y-194016723D01*
X143085714Y-194016723D02*
X143038095Y-193826247D01*
X143038095Y-193826247D02*
X143038095Y-193445295D01*
X143038095Y-193445295D02*
X143085714Y-193350057D01*
X143085714Y-193350057D02*
X143133333Y-193302438D01*
X143133333Y-193302438D02*
X143228571Y-193254819D01*
X143228571Y-193254819D02*
X143419047Y-193254819D01*
X143419047Y-193254819D02*
X143514285Y-193302438D01*
X143514285Y-193302438D02*
X143561904Y-193350057D01*
X143561904Y-193350057D02*
X143609523Y-193445295D01*
X143609523Y-193445295D02*
X143609523Y-193683390D01*
X143609523Y-193683390D02*
X143561904Y-193778628D01*
X143561904Y-193778628D02*
X143514285Y-193826247D01*
X143514285Y-193826247D02*
X143419047Y-193873866D01*
X143419047Y-193873866D02*
X143228571Y-193873866D01*
X143228571Y-193873866D02*
X143133333Y-193826247D01*
X143133333Y-193826247D02*
X143085714Y-193778628D01*
X143085714Y-193778628D02*
X143038095Y-193683390D01*
X160674819Y-190333333D02*
X160198628Y-190000000D01*
X160674819Y-189761905D02*
X159674819Y-189761905D01*
X159674819Y-189761905D02*
X159674819Y-190142857D01*
X159674819Y-190142857D02*
X159722438Y-190238095D01*
X159722438Y-190238095D02*
X159770057Y-190285714D01*
X159770057Y-190285714D02*
X159865295Y-190333333D01*
X159865295Y-190333333D02*
X160008152Y-190333333D01*
X160008152Y-190333333D02*
X160103390Y-190285714D01*
X160103390Y-190285714D02*
X160151009Y-190238095D01*
X160151009Y-190238095D02*
X160198628Y-190142857D01*
X160198628Y-190142857D02*
X160198628Y-189761905D01*
X160674819Y-191285714D02*
X160674819Y-190714286D01*
X160674819Y-191000000D02*
X159674819Y-191000000D01*
X159674819Y-191000000D02*
X159817676Y-190904762D01*
X159817676Y-190904762D02*
X159912914Y-190809524D01*
X159912914Y-190809524D02*
X159960533Y-190714286D01*
X163409523Y-153554819D02*
X163409523Y-154269104D01*
X163409523Y-154269104D02*
X163457142Y-154411961D01*
X163457142Y-154411961D02*
X163552380Y-154507200D01*
X163552380Y-154507200D02*
X163695237Y-154554819D01*
X163695237Y-154554819D02*
X163790475Y-154554819D01*
X162409523Y-154554819D02*
X162980951Y-154554819D01*
X162695237Y-154554819D02*
X162695237Y-153554819D01*
X162695237Y-153554819D02*
X162790475Y-153697676D01*
X162790475Y-153697676D02*
X162885713Y-153792914D01*
X162885713Y-153792914D02*
X162980951Y-153840533D01*
X161457142Y-154554819D02*
X162028570Y-154554819D01*
X161742856Y-154554819D02*
X161742856Y-153554819D01*
X161742856Y-153554819D02*
X161838094Y-153697676D01*
X161838094Y-153697676D02*
X161933332Y-153792914D01*
X161933332Y-153792914D02*
X162028570Y-153840533D01*
X149671428Y-153214700D02*
X148528571Y-153214700D01*
X149099999Y-153786128D02*
X149099999Y-152643271D01*
X162671428Y-153214700D02*
X161528571Y-153214700D01*
X209879819Y-159916666D02*
X210594104Y-159916666D01*
X210594104Y-159916666D02*
X210736961Y-159869047D01*
X210736961Y-159869047D02*
X210832200Y-159773809D01*
X210832200Y-159773809D02*
X210879819Y-159630952D01*
X210879819Y-159630952D02*
X210879819Y-159535714D01*
X209879819Y-160869047D02*
X209879819Y-160392857D01*
X209879819Y-160392857D02*
X210356009Y-160345238D01*
X210356009Y-160345238D02*
X210308390Y-160392857D01*
X210308390Y-160392857D02*
X210260771Y-160488095D01*
X210260771Y-160488095D02*
X210260771Y-160726190D01*
X210260771Y-160726190D02*
X210308390Y-160821428D01*
X210308390Y-160821428D02*
X210356009Y-160869047D01*
X210356009Y-160869047D02*
X210451247Y-160916666D01*
X210451247Y-160916666D02*
X210689342Y-160916666D01*
X210689342Y-160916666D02*
X210784580Y-160869047D01*
X210784580Y-160869047D02*
X210832200Y-160821428D01*
X210832200Y-160821428D02*
X210879819Y-160726190D01*
X210879819Y-160726190D02*
X210879819Y-160488095D01*
X210879819Y-160488095D02*
X210832200Y-160392857D01*
X210832200Y-160392857D02*
X210784580Y-160345238D01*
D10*
X225678490Y-162928571D02*
X225702300Y-162904762D01*
X225702300Y-162904762D02*
X225726109Y-162833333D01*
X225726109Y-162833333D02*
X225726109Y-162785714D01*
X225726109Y-162785714D02*
X225702300Y-162714286D01*
X225702300Y-162714286D02*
X225654680Y-162666667D01*
X225654680Y-162666667D02*
X225607061Y-162642857D01*
X225607061Y-162642857D02*
X225511823Y-162619048D01*
X225511823Y-162619048D02*
X225440395Y-162619048D01*
X225440395Y-162619048D02*
X225345157Y-162642857D01*
X225345157Y-162642857D02*
X225297538Y-162666667D01*
X225297538Y-162666667D02*
X225249919Y-162714286D01*
X225249919Y-162714286D02*
X225226109Y-162785714D01*
X225226109Y-162785714D02*
X225226109Y-162833333D01*
X225226109Y-162833333D02*
X225249919Y-162904762D01*
X225249919Y-162904762D02*
X225273728Y-162928571D01*
X225273728Y-163119048D02*
X225249919Y-163142857D01*
X225249919Y-163142857D02*
X225226109Y-163190476D01*
X225226109Y-163190476D02*
X225226109Y-163309524D01*
X225226109Y-163309524D02*
X225249919Y-163357143D01*
X225249919Y-163357143D02*
X225273728Y-163380952D01*
X225273728Y-163380952D02*
X225321347Y-163404762D01*
X225321347Y-163404762D02*
X225368966Y-163404762D01*
X225368966Y-163404762D02*
X225440395Y-163380952D01*
X225440395Y-163380952D02*
X225726109Y-163095238D01*
X225726109Y-163095238D02*
X225726109Y-163404762D01*
X225226109Y-163857142D02*
X225226109Y-163619047D01*
X225226109Y-163619047D02*
X225464204Y-163595238D01*
X225464204Y-163595238D02*
X225440395Y-163619047D01*
X225440395Y-163619047D02*
X225416585Y-163666666D01*
X225416585Y-163666666D02*
X225416585Y-163785714D01*
X225416585Y-163785714D02*
X225440395Y-163833333D01*
X225440395Y-163833333D02*
X225464204Y-163857142D01*
X225464204Y-163857142D02*
X225511823Y-163880952D01*
X225511823Y-163880952D02*
X225630871Y-163880952D01*
X225630871Y-163880952D02*
X225678490Y-163857142D01*
X225678490Y-163857142D02*
X225702300Y-163833333D01*
X225702300Y-163833333D02*
X225726109Y-163785714D01*
X225726109Y-163785714D02*
X225726109Y-163666666D01*
X225726109Y-163666666D02*
X225702300Y-163619047D01*
X225702300Y-163619047D02*
X225678490Y-163595238D01*
X201678490Y-137678571D02*
X201702300Y-137654762D01*
X201702300Y-137654762D02*
X201726109Y-137583333D01*
X201726109Y-137583333D02*
X201726109Y-137535714D01*
X201726109Y-137535714D02*
X201702300Y-137464286D01*
X201702300Y-137464286D02*
X201654680Y-137416667D01*
X201654680Y-137416667D02*
X201607061Y-137392857D01*
X201607061Y-137392857D02*
X201511823Y-137369048D01*
X201511823Y-137369048D02*
X201440395Y-137369048D01*
X201440395Y-137369048D02*
X201345157Y-137392857D01*
X201345157Y-137392857D02*
X201297538Y-137416667D01*
X201297538Y-137416667D02*
X201249919Y-137464286D01*
X201249919Y-137464286D02*
X201226109Y-137535714D01*
X201226109Y-137535714D02*
X201226109Y-137583333D01*
X201226109Y-137583333D02*
X201249919Y-137654762D01*
X201249919Y-137654762D02*
X201273728Y-137678571D01*
X201273728Y-137869048D02*
X201249919Y-137892857D01*
X201249919Y-137892857D02*
X201226109Y-137940476D01*
X201226109Y-137940476D02*
X201226109Y-138059524D01*
X201226109Y-138059524D02*
X201249919Y-138107143D01*
X201249919Y-138107143D02*
X201273728Y-138130952D01*
X201273728Y-138130952D02*
X201321347Y-138154762D01*
X201321347Y-138154762D02*
X201368966Y-138154762D01*
X201368966Y-138154762D02*
X201440395Y-138130952D01*
X201440395Y-138130952D02*
X201726109Y-137845238D01*
X201726109Y-137845238D02*
X201726109Y-138154762D01*
X201226109Y-138464285D02*
X201226109Y-138511904D01*
X201226109Y-138511904D02*
X201249919Y-138559523D01*
X201249919Y-138559523D02*
X201273728Y-138583333D01*
X201273728Y-138583333D02*
X201321347Y-138607142D01*
X201321347Y-138607142D02*
X201416585Y-138630952D01*
X201416585Y-138630952D02*
X201535633Y-138630952D01*
X201535633Y-138630952D02*
X201630871Y-138607142D01*
X201630871Y-138607142D02*
X201678490Y-138583333D01*
X201678490Y-138583333D02*
X201702300Y-138559523D01*
X201702300Y-138559523D02*
X201726109Y-138511904D01*
X201726109Y-138511904D02*
X201726109Y-138464285D01*
X201726109Y-138464285D02*
X201702300Y-138416666D01*
X201702300Y-138416666D02*
X201678490Y-138392857D01*
X201678490Y-138392857D02*
X201630871Y-138369047D01*
X201630871Y-138369047D02*
X201535633Y-138345238D01*
X201535633Y-138345238D02*
X201416585Y-138345238D01*
X201416585Y-138345238D02*
X201321347Y-138369047D01*
X201321347Y-138369047D02*
X201273728Y-138392857D01*
X201273728Y-138392857D02*
X201249919Y-138416666D01*
X201249919Y-138416666D02*
X201226109Y-138464285D01*
X181726109Y-156928571D02*
X181488014Y-156761905D01*
X181726109Y-156642857D02*
X181226109Y-156642857D01*
X181226109Y-156642857D02*
X181226109Y-156833333D01*
X181226109Y-156833333D02*
X181249919Y-156880952D01*
X181249919Y-156880952D02*
X181273728Y-156904762D01*
X181273728Y-156904762D02*
X181321347Y-156928571D01*
X181321347Y-156928571D02*
X181392776Y-156928571D01*
X181392776Y-156928571D02*
X181440395Y-156904762D01*
X181440395Y-156904762D02*
X181464204Y-156880952D01*
X181464204Y-156880952D02*
X181488014Y-156833333D01*
X181488014Y-156833333D02*
X181488014Y-156642857D01*
X181726109Y-157404762D02*
X181726109Y-157119048D01*
X181726109Y-157261905D02*
X181226109Y-157261905D01*
X181226109Y-157261905D02*
X181297538Y-157214286D01*
X181297538Y-157214286D02*
X181345157Y-157166667D01*
X181345157Y-157166667D02*
X181368966Y-157119048D01*
X181226109Y-157833333D02*
X181226109Y-157738095D01*
X181226109Y-157738095D02*
X181249919Y-157690476D01*
X181249919Y-157690476D02*
X181273728Y-157666666D01*
X181273728Y-157666666D02*
X181345157Y-157619047D01*
X181345157Y-157619047D02*
X181440395Y-157595238D01*
X181440395Y-157595238D02*
X181630871Y-157595238D01*
X181630871Y-157595238D02*
X181678490Y-157619047D01*
X181678490Y-157619047D02*
X181702300Y-157642857D01*
X181702300Y-157642857D02*
X181726109Y-157690476D01*
X181726109Y-157690476D02*
X181726109Y-157785714D01*
X181726109Y-157785714D02*
X181702300Y-157833333D01*
X181702300Y-157833333D02*
X181678490Y-157857142D01*
X181678490Y-157857142D02*
X181630871Y-157880952D01*
X181630871Y-157880952D02*
X181511823Y-157880952D01*
X181511823Y-157880952D02*
X181464204Y-157857142D01*
X181464204Y-157857142D02*
X181440395Y-157833333D01*
X181440395Y-157833333D02*
X181416585Y-157785714D01*
X181416585Y-157785714D02*
X181416585Y-157690476D01*
X181416585Y-157690476D02*
X181440395Y-157642857D01*
X181440395Y-157642857D02*
X181464204Y-157619047D01*
X181464204Y-157619047D02*
X181511823Y-157595238D01*
X169176109Y-156928571D02*
X168938014Y-156761905D01*
X169176109Y-156642857D02*
X168676109Y-156642857D01*
X168676109Y-156642857D02*
X168676109Y-156833333D01*
X168676109Y-156833333D02*
X168699919Y-156880952D01*
X168699919Y-156880952D02*
X168723728Y-156904762D01*
X168723728Y-156904762D02*
X168771347Y-156928571D01*
X168771347Y-156928571D02*
X168842776Y-156928571D01*
X168842776Y-156928571D02*
X168890395Y-156904762D01*
X168890395Y-156904762D02*
X168914204Y-156880952D01*
X168914204Y-156880952D02*
X168938014Y-156833333D01*
X168938014Y-156833333D02*
X168938014Y-156642857D01*
X169176109Y-157404762D02*
X169176109Y-157119048D01*
X169176109Y-157261905D02*
X168676109Y-157261905D01*
X168676109Y-157261905D02*
X168747538Y-157214286D01*
X168747538Y-157214286D02*
X168795157Y-157166667D01*
X168795157Y-157166667D02*
X168818966Y-157119048D01*
X169176109Y-157880952D02*
X169176109Y-157595238D01*
X169176109Y-157738095D02*
X168676109Y-157738095D01*
X168676109Y-157738095D02*
X168747538Y-157690476D01*
X168747538Y-157690476D02*
X168795157Y-157642857D01*
X168795157Y-157642857D02*
X168818966Y-157595238D01*
D11*
X145354819Y-161790476D02*
X146069104Y-161790476D01*
X146069104Y-161790476D02*
X146211961Y-161742857D01*
X146211961Y-161742857D02*
X146307200Y-161647619D01*
X146307200Y-161647619D02*
X146354819Y-161504762D01*
X146354819Y-161504762D02*
X146354819Y-161409524D01*
X146354819Y-162790476D02*
X146354819Y-162219048D01*
X146354819Y-162504762D02*
X145354819Y-162504762D01*
X145354819Y-162504762D02*
X145497676Y-162409524D01*
X145497676Y-162409524D02*
X145592914Y-162314286D01*
X145592914Y-162314286D02*
X145640533Y-162219048D01*
X145450057Y-163171429D02*
X145402438Y-163219048D01*
X145402438Y-163219048D02*
X145354819Y-163314286D01*
X145354819Y-163314286D02*
X145354819Y-163552381D01*
X145354819Y-163552381D02*
X145402438Y-163647619D01*
X145402438Y-163647619D02*
X145450057Y-163695238D01*
X145450057Y-163695238D02*
X145545295Y-163742857D01*
X145545295Y-163742857D02*
X145640533Y-163742857D01*
X145640533Y-163742857D02*
X145783390Y-163695238D01*
X145783390Y-163695238D02*
X146354819Y-163123810D01*
X146354819Y-163123810D02*
X146354819Y-163742857D01*
X147014700Y-161528571D02*
X147014700Y-162671429D01*
X147014700Y-148528571D02*
X147014700Y-149671429D01*
X147586128Y-149100000D02*
X146443271Y-149100000D01*
D12*
%TO.C,R14*%
X207977500Y-165737258D02*
X207977500Y-165262742D01*
X209022500Y-165737258D02*
X209022500Y-165262742D01*
%TO.C,D2*%
X149850000Y-113725000D02*
X149850000Y-114975000D01*
X149560000Y-119985000D02*
X141940000Y-119985000D01*
X149560000Y-114015000D02*
X149560000Y-119985000D01*
X149550000Y-116275000D02*
X148800000Y-116275000D01*
X149550000Y-114775000D02*
X147750000Y-114775000D01*
X149550000Y-114025000D02*
X149550000Y-114775000D01*
X148800000Y-119225000D02*
X145750000Y-119225000D01*
X148800000Y-116275000D02*
X148800000Y-119225000D01*
X148600000Y-113725000D02*
X149850000Y-113725000D01*
X147750000Y-114775000D02*
X147750000Y-114025000D01*
X147750000Y-114025000D02*
X149550000Y-114025000D01*
X146250000Y-114775000D02*
X145250000Y-114775000D01*
X146250000Y-114025000D02*
X146250000Y-114775000D01*
X145250000Y-114775000D02*
X145250000Y-114025000D01*
X145250000Y-114025000D02*
X146250000Y-114025000D01*
X143750000Y-114775000D02*
X141950000Y-114775000D01*
X143750000Y-114025000D02*
X143750000Y-114775000D01*
X142700000Y-119225000D02*
X145750000Y-119225000D01*
X142700000Y-116275000D02*
X142700000Y-119225000D01*
X141950000Y-116275000D02*
X142700000Y-116275000D01*
X141950000Y-114775000D02*
X141950000Y-114025000D01*
X141950000Y-114025000D02*
X143750000Y-114025000D01*
X141940000Y-119985000D02*
X141940000Y-114015000D01*
X141940000Y-114015000D02*
X149560000Y-114015000D01*
%TO.C,R18*%
X207522500Y-165262742D02*
X207522500Y-165737258D01*
X206477500Y-165262742D02*
X206477500Y-165737258D01*
%TO.C,J9*%
X134040000Y-128940000D02*
X135740000Y-127640000D01*
X134040000Y-131760000D02*
X134040000Y-128940000D01*
X134040000Y-131760000D02*
X135740000Y-133060000D01*
X135740000Y-127640000D02*
X144460000Y-127640000D01*
X135740000Y-133060000D02*
X144460000Y-133060000D01*
X144460000Y-133060000D02*
X144460000Y-127640000D01*
%TO.C,C23*%
X192990000Y-145615580D02*
X192990000Y-145334420D01*
X194010000Y-145615580D02*
X194010000Y-145334420D01*
%TO.C,U5*%
X187920000Y-134720000D02*
X190580000Y-134720000D01*
X187920000Y-147480000D02*
X187920000Y-134720000D01*
X187920000Y-147480000D02*
X190580000Y-147480000D01*
X187920000Y-148750000D02*
X187920000Y-150080000D01*
X187920000Y-150080000D02*
X189250000Y-150080000D01*
X190580000Y-147480000D02*
X190580000Y-134720000D01*
D10*
X224900000Y-142400000D02*
X224900000Y-134350000D01*
X224900000Y-142400000D02*
X224900000Y-150450000D01*
X224900000Y-150450000D02*
X187400000Y-150450000D01*
X187400000Y-150450000D02*
X187400000Y-134350000D01*
X187400000Y-134350000D02*
X224900000Y-134350000D01*
X224900000Y-134350000D02*
X224900000Y-150450000D01*
D12*
%TO.C,R10*%
X167022500Y-154762742D02*
X167022500Y-155237258D01*
X165977500Y-154762742D02*
X165977500Y-155237258D01*
%TO.C,C24*%
X223490000Y-165640580D02*
X223490000Y-165359420D01*
X224510000Y-165640580D02*
X224510000Y-165359420D01*
%TO.C,Q1*%
X158350000Y-113725000D02*
X158350000Y-114975000D01*
X158060000Y-119985000D02*
X150440000Y-119985000D01*
X158060000Y-114015000D02*
X158060000Y-119985000D01*
X158050000Y-116275000D02*
X157300000Y-116275000D01*
X158050000Y-114775000D02*
X156250000Y-114775000D01*
X158050000Y-114025000D02*
X158050000Y-114775000D01*
X157300000Y-119225000D02*
X154250000Y-119225000D01*
X157300000Y-116275000D02*
X157300000Y-119225000D01*
X157100000Y-113725000D02*
X158350000Y-113725000D01*
X156250000Y-114775000D02*
X156250000Y-114025000D01*
X156250000Y-114025000D02*
X158050000Y-114025000D01*
X154750000Y-114775000D02*
X153750000Y-114775000D01*
X154750000Y-114025000D02*
X154750000Y-114775000D01*
X153750000Y-114775000D02*
X153750000Y-114025000D01*
X153750000Y-114025000D02*
X154750000Y-114025000D01*
X152250000Y-114775000D02*
X150450000Y-114775000D01*
X152250000Y-114025000D02*
X152250000Y-114775000D01*
X151200000Y-119225000D02*
X154250000Y-119225000D01*
X151200000Y-116275000D02*
X151200000Y-119225000D01*
X150450000Y-116275000D02*
X151200000Y-116275000D01*
X150450000Y-114775000D02*
X150450000Y-114025000D01*
X150450000Y-114025000D02*
X152250000Y-114025000D01*
X150440000Y-119985000D02*
X150440000Y-114015000D01*
X150440000Y-114015000D02*
X158060000Y-114015000D01*
%TO.C,J13*%
X139190000Y-145490000D02*
X140890000Y-144190000D01*
X139190000Y-148310000D02*
X139190000Y-145490000D01*
X139190000Y-148310000D02*
X140890000Y-149610000D01*
X140890000Y-144190000D02*
X149610000Y-144190000D01*
X140890000Y-149610000D02*
X149610000Y-149610000D01*
X149610000Y-149610000D02*
X149610000Y-144190000D01*
%TO.C,C21*%
X203760000Y-135609420D02*
X203760000Y-135890580D01*
X202740000Y-135609420D02*
X202740000Y-135890580D01*
%TO.C,R17*%
X205022500Y-165262742D02*
X205022500Y-165737258D01*
X203977500Y-165262742D02*
X203977500Y-165737258D01*
%TO.C,J10*%
X154510000Y-139190000D02*
X155810000Y-140890000D01*
X151690000Y-139190000D02*
X154510000Y-139190000D01*
X151690000Y-139190000D02*
X150390000Y-140890000D01*
X155810000Y-140890000D02*
X155810000Y-149610000D01*
X150390000Y-140890000D02*
X150390000Y-149610000D01*
X150390000Y-149610000D02*
X155810000Y-149610000D01*
%TO.C,R12*%
X172022500Y-154762742D02*
X172022500Y-155237258D01*
X170977500Y-154762742D02*
X170977500Y-155237258D01*
%TO.C,R15*%
X202477500Y-165737258D02*
X202477500Y-165262742D01*
X203522500Y-165737258D02*
X203522500Y-165262742D01*
%TO.C,C22*%
X191490000Y-145615580D02*
X191490000Y-145334420D01*
X192510000Y-145615580D02*
X192510000Y-145334420D01*
%TO.C,C59*%
X137450000Y-190260000D02*
X138700000Y-190260000D01*
X138075000Y-190885000D02*
X138075000Y-189635000D01*
X138940000Y-183204437D02*
X138940000Y-185990000D01*
X138940000Y-183204437D02*
X140004437Y-182140000D01*
X138940000Y-191795563D02*
X138940000Y-189010000D01*
X138940000Y-191795563D02*
X140004437Y-192860000D01*
X140004437Y-182140000D02*
X149660000Y-182140000D01*
X140004437Y-192860000D02*
X149660000Y-192860000D01*
X149660000Y-182140000D02*
X149660000Y-185990000D01*
X149660000Y-192860000D02*
X149660000Y-189010000D01*
%TO.C,R1*%
X163855000Y-189776263D02*
X163855000Y-191223737D01*
X161145000Y-189776263D02*
X161145000Y-191223737D01*
%TO.C,J11*%
X160810000Y-154510000D02*
X159110000Y-155810000D01*
X160810000Y-151690000D02*
X160810000Y-154510000D01*
X160810000Y-151690000D02*
X159110000Y-150390000D01*
X159110000Y-155810000D02*
X150390000Y-155810000D01*
X159110000Y-150390000D02*
X150390000Y-150390000D01*
X150390000Y-150390000D02*
X150390000Y-155810000D01*
%TO.C,J5*%
X211225000Y-153650000D02*
X212475000Y-153650000D01*
X217485000Y-153940000D02*
X217485000Y-166560000D01*
X211515000Y-153940000D02*
X217485000Y-153940000D01*
X213775000Y-153950000D02*
X213775000Y-154700000D01*
X212275000Y-153950000D02*
X212275000Y-155750000D01*
X211525000Y-153950000D02*
X212275000Y-153950000D01*
X216725000Y-154700000D02*
X216725000Y-160250000D01*
X213775000Y-154700000D02*
X216725000Y-154700000D01*
X211225000Y-154900000D02*
X211225000Y-153650000D01*
X212275000Y-155750000D02*
X211525000Y-155750000D01*
X211525000Y-155750000D02*
X211525000Y-153950000D01*
X212275000Y-157250000D02*
X212275000Y-163250000D01*
X211525000Y-157250000D02*
X212275000Y-157250000D01*
X212275000Y-163250000D02*
X211525000Y-163250000D01*
X211525000Y-163250000D02*
X211525000Y-157250000D01*
X212275000Y-164750000D02*
X212275000Y-166550000D01*
X211525000Y-164750000D02*
X212275000Y-164750000D01*
X216725000Y-165800000D02*
X216725000Y-160250000D01*
X213775000Y-165800000D02*
X216725000Y-165800000D01*
X213775000Y-166550000D02*
X213775000Y-165800000D01*
X212275000Y-166550000D02*
X211525000Y-166550000D01*
X211525000Y-166550000D02*
X211525000Y-164750000D01*
X217485000Y-166560000D02*
X211515000Y-166560000D01*
X211515000Y-166560000D02*
X211515000Y-153940000D01*
%TO.C,C25*%
X224990000Y-165640580D02*
X224990000Y-165359420D01*
X226010000Y-165640580D02*
X226010000Y-165359420D01*
%TO.C,C20*%
X202010000Y-135609420D02*
X202010000Y-135890580D01*
X200990000Y-135609420D02*
X200990000Y-135890580D01*
%TO.C,R16*%
X182022500Y-154762742D02*
X182022500Y-155237258D01*
X180977500Y-154762742D02*
X180977500Y-155237258D01*
%TO.C,R11*%
X169472500Y-154762742D02*
X169472500Y-155237258D01*
X168427500Y-154762742D02*
X168427500Y-155237258D01*
%TO.C,J12*%
X145490000Y-160810000D02*
X144190000Y-159110000D01*
X148310000Y-160810000D02*
X145490000Y-160810000D01*
X148310000Y-160810000D02*
X149610000Y-159110000D01*
X144190000Y-159110000D02*
X144190000Y-150390000D01*
X149610000Y-159110000D02*
X149610000Y-150390000D01*
X149610000Y-150390000D02*
X144190000Y-150390000D01*
%TD*%
M02*
