%TF.GenerationSoftware,KiCad,Pcbnew,(6.0.9)*%
%TF.CreationDate,2023-05-29T17:24:43+10:00*%
%TF.ProjectId,Joysticks,4a6f7973-7469-4636-9b73-2e6b69636164,rev?*%
%TF.SameCoordinates,PX3d09000PY568bc30*%
%TF.FileFunction,Plated,1,2,PTH,Drill*%
%TF.FilePolarity,Positive*%
%FSLAX46Y46*%
G04 Gerber Fmt 4.6, Leading zero omitted, Abs format (unit mm)*
G04 Created by KiCad (PCBNEW (6.0.9)) date 2023-05-29 17:24:43*
%MOMM*%
%LPD*%
G01*
G04 APERTURE LIST*
%TA.AperFunction,ViaDrill*%
%ADD10C,0.300000*%
%TD*%
%TA.AperFunction,ComponentDrill*%
%ADD11C,1.000000*%
%TD*%
%TA.AperFunction,ComponentDrill*%
%ADD12C,1.100000*%
%TD*%
%TA.AperFunction,ComponentDrill*%
%ADD13C,1.300000*%
%TD*%
%TA.AperFunction,ComponentDrill*%
%ADD14C,1.500000*%
%TD*%
%TA.AperFunction,ComponentDrill*%
%ADD15C,1.600000*%
%TD*%
G04 APERTURE END LIST*
D10*
X18750000Y-7250000D03*
X20250000Y-8750000D03*
X21250000Y-13000000D03*
X22525500Y-22500000D03*
X23683411Y-10683411D03*
X24242915Y-14492916D03*
X24750000Y-27750000D03*
X25250000Y-13250000D03*
X25250000Y-16750000D03*
X25250000Y-19250000D03*
X25250000Y-21750000D03*
X25250000Y-24250000D03*
X25250000Y-32000000D03*
X25250000Y-34500000D03*
X26500000Y-11125500D03*
X34000000Y-10750000D03*
X35000000Y-11750000D03*
X36750000Y-7250000D03*
X37750000Y-9250000D03*
X40500000Y-7000000D03*
X46138411Y-14888411D03*
X46250000Y-7000000D03*
X46250000Y-9000000D03*
X47125500Y-13000000D03*
X47750000Y-10250000D03*
X48250000Y-15374500D03*
X49533118Y-14033118D03*
X50250000Y-13250000D03*
X50250000Y-31000000D03*
X51250000Y-1500000D03*
X51750000Y-29500000D03*
X52624500Y-1500000D03*
D11*
%TO.C,U3*%
X-16810000Y-10330000D03*
X-9190000Y-10330000D03*
%TO.C,U5*%
X6190000Y3920000D03*
X13810000Y3920000D03*
%TO.C,A1*%
X28390000Y-2950000D03*
X28390000Y-5490000D03*
X28390000Y-8030000D03*
X28390000Y-10570000D03*
X28390000Y-13110000D03*
X28390000Y-15650000D03*
X28390000Y-18190000D03*
X28390000Y-20730000D03*
X28390000Y-23270000D03*
X28390000Y-25810000D03*
X28390000Y-28350000D03*
X28390000Y-30890000D03*
X28390000Y-33430000D03*
X28390000Y-35970000D03*
X28390000Y-38510000D03*
%TO.C,J4*%
X32200000Y15775000D03*
X34740000Y15775000D03*
X37280000Y15775000D03*
X39820000Y15775000D03*
%TO.C,A1*%
X43630000Y-2950000D03*
X43630000Y-5490000D03*
X43630000Y-8030000D03*
X43630000Y-10570000D03*
X43630000Y-13110000D03*
X43630000Y-15650000D03*
X43630000Y-18190000D03*
X43630000Y-20730000D03*
X43630000Y-23270000D03*
X43630000Y-25810000D03*
X43630000Y-28350000D03*
X43630000Y-30890000D03*
X43630000Y-33430000D03*
X43630000Y-35970000D03*
X43630000Y-38510000D03*
%TO.C,U2*%
X58190000Y3920000D03*
X65810000Y3920000D03*
%TO.C,U4*%
X81190000Y-10080000D03*
X88810000Y-10080000D03*
D12*
%TO.C,U1*%
X9500000Y-11270000D03*
X12000000Y-11270000D03*
X14500000Y-11270000D03*
X20730000Y-17500000D03*
X20730000Y-20000000D03*
X20730000Y-22500000D03*
%TO.C,J1*%
X48480000Y14000000D03*
X51020000Y14000000D03*
%TO.C,U11*%
X57500000Y-11270000D03*
X60000000Y-11270000D03*
X62500000Y-11270000D03*
X68730000Y-17500000D03*
X68730000Y-20000000D03*
X68730000Y-22500000D03*
D13*
%TO.C,U1*%
X8750000Y-25750000D03*
X8750000Y-30250000D03*
X15250000Y-25750000D03*
X15250000Y-30250000D03*
%TO.C,U11*%
X56750000Y-25750000D03*
X56750000Y-30250000D03*
X63250000Y-25750000D03*
X63250000Y-30250000D03*
D14*
%TO.C,U3*%
X-16810000Y-2710000D03*
X-10490000Y-170000D03*
%TO.C,U5*%
X6190000Y11540000D03*
X12510000Y14080000D03*
%TO.C,U2*%
X58190000Y11540000D03*
X64510000Y14080000D03*
%TO.C,U4*%
X81190000Y-2460000D03*
X87510000Y80000D03*
D15*
%TO.C,U1*%
X5675000Y-15000000D03*
X5675000Y-25000000D03*
X18325000Y-15000000D03*
X18325000Y-25000000D03*
%TO.C,U11*%
X53675000Y-15000000D03*
X53675000Y-25000000D03*
X66325000Y-15000000D03*
X66325000Y-25000000D03*
M02*
