%TF.GenerationSoftware,KiCad,Pcbnew,(6.0.9)*%
%TF.CreationDate,2023-04-03T18:36:50+10:00*%
%TF.ProjectId,Chi Chi - GV2,43686920-4368-4692-902d-204756322e6b,rev?*%
%TF.SameCoordinates,Original*%
%TF.FileFunction,Legend,Bot*%
%TF.FilePolarity,Positive*%
%FSLAX46Y46*%
G04 Gerber Fmt 4.6, Leading zero omitted, Abs format (unit mm)*
G04 Created by KiCad (PCBNEW (6.0.9)) date 2023-04-03 18:36:50*
%MOMM*%
%LPD*%
G01*
G04 APERTURE LIST*
%ADD10C,0.150000*%
%ADD11C,0.120000*%
G04 APERTURE END LIST*
D10*
%TO.C,Q1*%
X253595238Y-128527619D02*
X253690476Y-128480000D01*
X253785714Y-128384761D01*
X253928571Y-128241904D01*
X254023809Y-128194285D01*
X254119047Y-128194285D01*
X254071428Y-128432380D02*
X254166666Y-128384761D01*
X254261904Y-128289523D01*
X254309523Y-128099047D01*
X254309523Y-127765714D01*
X254261904Y-127575238D01*
X254166666Y-127480000D01*
X254071428Y-127432380D01*
X253880952Y-127432380D01*
X253785714Y-127480000D01*
X253690476Y-127575238D01*
X253642857Y-127765714D01*
X253642857Y-128099047D01*
X253690476Y-128289523D01*
X253785714Y-128384761D01*
X253880952Y-128432380D01*
X254071428Y-128432380D01*
X252690476Y-128432380D02*
X253261904Y-128432380D01*
X252976190Y-128432380D02*
X252976190Y-127432380D01*
X253071428Y-127575238D01*
X253166666Y-127670476D01*
X253261904Y-127718095D01*
D11*
X258620000Y-128980000D02*
X248380000Y-128980000D01*
X248380000Y-128980000D02*
X248380000Y-133621000D01*
X258620000Y-130490000D02*
X248380000Y-130490000D01*
X258620000Y-133621000D02*
X248380000Y-133621000D01*
X255350000Y-128980000D02*
X255350000Y-130490000D01*
X258620000Y-128980000D02*
X258620000Y-133621000D01*
X251649000Y-128980000D02*
X251649000Y-130490000D01*
%TD*%
M02*
