%TF.GenerationSoftware,KiCad,Pcbnew,7.0.8*%
%TF.CreationDate,2023-10-17T18:42:54+11:00*%
%TF.ProjectId,bstconv,62737463-6f6e-4762-9e6b-696361645f70,rev?*%
%TF.SameCoordinates,Original*%
%TF.FileFunction,Drillmap*%
%TF.FilePolarity,Positive*%
%FSLAX45Y45*%
G04 Gerber Fmt 4.5, Leading zero omitted, Abs format (unit mm)*
G04 Created by KiCad (PCBNEW 7.0.8) date 2023-10-17 18:42:54*
%MOMM*%
%LPD*%
G01*
G04 APERTURE LIST*
%ADD10C,0.100000*%
%ADD11C,0.200000*%
%ADD12C,0.320000*%
G04 APERTURE END LIST*
D10*
X12250000Y-13300000D02*
X17750000Y-13300000D01*
X17750000Y-16300000D02*
X12250000Y-16300000D01*
X11900000Y-15950000D02*
G75*
G03*
X12250000Y-16300000I350000J0D01*
G01*
X11900000Y-15950000D02*
X11900000Y-13650000D01*
X18100000Y-13650000D02*
G75*
G03*
X17750000Y-13300000I-350000J0D01*
G01*
X12250000Y-13300000D02*
G75*
G03*
X11900000Y-13650000I0J-350000D01*
G01*
X18100000Y-13650000D02*
X18100000Y-15950000D01*
X17750000Y-16300000D02*
G75*
G03*
X18100000Y-15950000I0J350000D01*
G01*
D11*
D12*
X12090000Y-13490000D02*
X12410000Y-13810000D01*
X12410000Y-13490000D02*
X12090000Y-13810000D01*
X12090000Y-15790000D02*
X12410000Y-16110000D01*
X12410000Y-15790000D02*
X12090000Y-16110000D01*
X17590000Y-13490000D02*
X17910000Y-13810000D01*
X17910000Y-13490000D02*
X17590000Y-13810000D01*
X17590000Y-15790000D02*
X17910000Y-16110000D01*
X17910000Y-15790000D02*
X17590000Y-16110000D01*
D11*
X12155777Y-16616484D02*
X12155777Y-16416484D01*
X12155777Y-16416484D02*
X12203396Y-16416484D01*
X12203396Y-16416484D02*
X12231967Y-16426008D01*
X12231967Y-16426008D02*
X12251015Y-16445055D01*
X12251015Y-16445055D02*
X12260539Y-16464103D01*
X12260539Y-16464103D02*
X12270062Y-16502198D01*
X12270062Y-16502198D02*
X12270062Y-16530769D01*
X12270062Y-16530769D02*
X12260539Y-16568865D01*
X12260539Y-16568865D02*
X12251015Y-16587912D01*
X12251015Y-16587912D02*
X12231967Y-16606960D01*
X12231967Y-16606960D02*
X12203396Y-16616484D01*
X12203396Y-16616484D02*
X12155777Y-16616484D01*
X12355777Y-16616484D02*
X12355777Y-16483150D01*
X12355777Y-16521246D02*
X12365301Y-16502198D01*
X12365301Y-16502198D02*
X12374824Y-16492674D01*
X12374824Y-16492674D02*
X12393872Y-16483150D01*
X12393872Y-16483150D02*
X12412920Y-16483150D01*
X12479586Y-16616484D02*
X12479586Y-16483150D01*
X12479586Y-16416484D02*
X12470062Y-16426008D01*
X12470062Y-16426008D02*
X12479586Y-16435531D01*
X12479586Y-16435531D02*
X12489110Y-16426008D01*
X12489110Y-16426008D02*
X12479586Y-16416484D01*
X12479586Y-16416484D02*
X12479586Y-16435531D01*
X12603396Y-16616484D02*
X12584348Y-16606960D01*
X12584348Y-16606960D02*
X12574824Y-16587912D01*
X12574824Y-16587912D02*
X12574824Y-16416484D01*
X12708158Y-16616484D02*
X12689110Y-16606960D01*
X12689110Y-16606960D02*
X12679586Y-16587912D01*
X12679586Y-16587912D02*
X12679586Y-16416484D01*
X12936729Y-16616484D02*
X12936729Y-16416484D01*
X12936729Y-16416484D02*
X13003396Y-16559341D01*
X13003396Y-16559341D02*
X13070062Y-16416484D01*
X13070062Y-16416484D02*
X13070062Y-16616484D01*
X13251015Y-16616484D02*
X13251015Y-16511722D01*
X13251015Y-16511722D02*
X13241491Y-16492674D01*
X13241491Y-16492674D02*
X13222443Y-16483150D01*
X13222443Y-16483150D02*
X13184348Y-16483150D01*
X13184348Y-16483150D02*
X13165301Y-16492674D01*
X13251015Y-16606960D02*
X13231967Y-16616484D01*
X13231967Y-16616484D02*
X13184348Y-16616484D01*
X13184348Y-16616484D02*
X13165301Y-16606960D01*
X13165301Y-16606960D02*
X13155777Y-16587912D01*
X13155777Y-16587912D02*
X13155777Y-16568865D01*
X13155777Y-16568865D02*
X13165301Y-16549817D01*
X13165301Y-16549817D02*
X13184348Y-16540293D01*
X13184348Y-16540293D02*
X13231967Y-16540293D01*
X13231967Y-16540293D02*
X13251015Y-16530769D01*
X13346253Y-16483150D02*
X13346253Y-16683150D01*
X13346253Y-16492674D02*
X13365301Y-16483150D01*
X13365301Y-16483150D02*
X13403396Y-16483150D01*
X13403396Y-16483150D02*
X13422443Y-16492674D01*
X13422443Y-16492674D02*
X13431967Y-16502198D01*
X13431967Y-16502198D02*
X13441491Y-16521246D01*
X13441491Y-16521246D02*
X13441491Y-16578388D01*
X13441491Y-16578388D02*
X13431967Y-16597436D01*
X13431967Y-16597436D02*
X13422443Y-16606960D01*
X13422443Y-16606960D02*
X13403396Y-16616484D01*
X13403396Y-16616484D02*
X13365301Y-16616484D01*
X13365301Y-16616484D02*
X13346253Y-16606960D01*
X13527205Y-16597436D02*
X13536729Y-16606960D01*
X13536729Y-16606960D02*
X13527205Y-16616484D01*
X13527205Y-16616484D02*
X13517682Y-16606960D01*
X13517682Y-16606960D02*
X13527205Y-16597436D01*
X13527205Y-16597436D02*
X13527205Y-16616484D01*
X13527205Y-16492674D02*
X13536729Y-16502198D01*
X13536729Y-16502198D02*
X13527205Y-16511722D01*
X13527205Y-16511722D02*
X13517682Y-16502198D01*
X13517682Y-16502198D02*
X13527205Y-16492674D01*
X13527205Y-16492674D02*
X13527205Y-16511722D01*
X11695000Y-16845000D02*
X11895000Y-17045000D01*
X11895000Y-16845000D02*
X11695000Y-17045000D01*
X12136729Y-16836484D02*
X12260539Y-16836484D01*
X12260539Y-16836484D02*
X12193872Y-16912674D01*
X12193872Y-16912674D02*
X12222443Y-16912674D01*
X12222443Y-16912674D02*
X12241491Y-16922198D01*
X12241491Y-16922198D02*
X12251015Y-16931722D01*
X12251015Y-16931722D02*
X12260539Y-16950770D01*
X12260539Y-16950770D02*
X12260539Y-16998389D01*
X12260539Y-16998389D02*
X12251015Y-17017436D01*
X12251015Y-17017436D02*
X12241491Y-17026960D01*
X12241491Y-17026960D02*
X12222443Y-17036484D01*
X12222443Y-17036484D02*
X12165301Y-17036484D01*
X12165301Y-17036484D02*
X12146253Y-17026960D01*
X12146253Y-17026960D02*
X12136729Y-17017436D01*
X12346253Y-17017436D02*
X12355777Y-17026960D01*
X12355777Y-17026960D02*
X12346253Y-17036484D01*
X12346253Y-17036484D02*
X12336729Y-17026960D01*
X12336729Y-17026960D02*
X12346253Y-17017436D01*
X12346253Y-17017436D02*
X12346253Y-17036484D01*
X12431967Y-16855531D02*
X12441491Y-16846008D01*
X12441491Y-16846008D02*
X12460539Y-16836484D01*
X12460539Y-16836484D02*
X12508158Y-16836484D01*
X12508158Y-16836484D02*
X12527205Y-16846008D01*
X12527205Y-16846008D02*
X12536729Y-16855531D01*
X12536729Y-16855531D02*
X12546253Y-16874579D01*
X12546253Y-16874579D02*
X12546253Y-16893627D01*
X12546253Y-16893627D02*
X12536729Y-16922198D01*
X12536729Y-16922198D02*
X12422443Y-17036484D01*
X12422443Y-17036484D02*
X12546253Y-17036484D01*
X12670062Y-16836484D02*
X12689110Y-16836484D01*
X12689110Y-16836484D02*
X12708158Y-16846008D01*
X12708158Y-16846008D02*
X12717682Y-16855531D01*
X12717682Y-16855531D02*
X12727205Y-16874579D01*
X12727205Y-16874579D02*
X12736729Y-16912674D01*
X12736729Y-16912674D02*
X12736729Y-16960293D01*
X12736729Y-16960293D02*
X12727205Y-16998389D01*
X12727205Y-16998389D02*
X12717682Y-17017436D01*
X12717682Y-17017436D02*
X12708158Y-17026960D01*
X12708158Y-17026960D02*
X12689110Y-17036484D01*
X12689110Y-17036484D02*
X12670062Y-17036484D01*
X12670062Y-17036484D02*
X12651015Y-17026960D01*
X12651015Y-17026960D02*
X12641491Y-17017436D01*
X12641491Y-17017436D02*
X12631967Y-16998389D01*
X12631967Y-16998389D02*
X12622443Y-16960293D01*
X12622443Y-16960293D02*
X12622443Y-16912674D01*
X12622443Y-16912674D02*
X12631967Y-16874579D01*
X12631967Y-16874579D02*
X12641491Y-16855531D01*
X12641491Y-16855531D02*
X12651015Y-16846008D01*
X12651015Y-16846008D02*
X12670062Y-16836484D01*
X12860539Y-16836484D02*
X12879586Y-16836484D01*
X12879586Y-16836484D02*
X12898634Y-16846008D01*
X12898634Y-16846008D02*
X12908158Y-16855531D01*
X12908158Y-16855531D02*
X12917682Y-16874579D01*
X12917682Y-16874579D02*
X12927205Y-16912674D01*
X12927205Y-16912674D02*
X12927205Y-16960293D01*
X12927205Y-16960293D02*
X12917682Y-16998389D01*
X12917682Y-16998389D02*
X12908158Y-17017436D01*
X12908158Y-17017436D02*
X12898634Y-17026960D01*
X12898634Y-17026960D02*
X12879586Y-17036484D01*
X12879586Y-17036484D02*
X12860539Y-17036484D01*
X12860539Y-17036484D02*
X12841491Y-17026960D01*
X12841491Y-17026960D02*
X12831967Y-17017436D01*
X12831967Y-17017436D02*
X12822443Y-16998389D01*
X12822443Y-16998389D02*
X12812920Y-16960293D01*
X12812920Y-16960293D02*
X12812920Y-16912674D01*
X12812920Y-16912674D02*
X12822443Y-16874579D01*
X12822443Y-16874579D02*
X12831967Y-16855531D01*
X12831967Y-16855531D02*
X12841491Y-16846008D01*
X12841491Y-16846008D02*
X12860539Y-16836484D01*
X13012920Y-17036484D02*
X13012920Y-16903150D01*
X13012920Y-16922198D02*
X13022443Y-16912674D01*
X13022443Y-16912674D02*
X13041491Y-16903150D01*
X13041491Y-16903150D02*
X13070063Y-16903150D01*
X13070063Y-16903150D02*
X13089110Y-16912674D01*
X13089110Y-16912674D02*
X13098634Y-16931722D01*
X13098634Y-16931722D02*
X13098634Y-17036484D01*
X13098634Y-16931722D02*
X13108158Y-16912674D01*
X13108158Y-16912674D02*
X13127205Y-16903150D01*
X13127205Y-16903150D02*
X13155777Y-16903150D01*
X13155777Y-16903150D02*
X13174824Y-16912674D01*
X13174824Y-16912674D02*
X13184348Y-16931722D01*
X13184348Y-16931722D02*
X13184348Y-17036484D01*
X13279586Y-17036484D02*
X13279586Y-16903150D01*
X13279586Y-16922198D02*
X13289110Y-16912674D01*
X13289110Y-16912674D02*
X13308158Y-16903150D01*
X13308158Y-16903150D02*
X13336729Y-16903150D01*
X13336729Y-16903150D02*
X13355777Y-16912674D01*
X13355777Y-16912674D02*
X13365301Y-16931722D01*
X13365301Y-16931722D02*
X13365301Y-17036484D01*
X13365301Y-16931722D02*
X13374824Y-16912674D01*
X13374824Y-16912674D02*
X13393872Y-16903150D01*
X13393872Y-16903150D02*
X13422443Y-16903150D01*
X13422443Y-16903150D02*
X13441491Y-16912674D01*
X13441491Y-16912674D02*
X13451015Y-16931722D01*
X13451015Y-16931722D02*
X13451015Y-17036484D01*
X13841491Y-16826960D02*
X13670063Y-17084103D01*
X14098634Y-16836484D02*
X14117682Y-16836484D01*
X14117682Y-16836484D02*
X14136729Y-16846008D01*
X14136729Y-16846008D02*
X14146253Y-16855531D01*
X14146253Y-16855531D02*
X14155777Y-16874579D01*
X14155777Y-16874579D02*
X14165301Y-16912674D01*
X14165301Y-16912674D02*
X14165301Y-16960293D01*
X14165301Y-16960293D02*
X14155777Y-16998389D01*
X14155777Y-16998389D02*
X14146253Y-17017436D01*
X14146253Y-17017436D02*
X14136729Y-17026960D01*
X14136729Y-17026960D02*
X14117682Y-17036484D01*
X14117682Y-17036484D02*
X14098634Y-17036484D01*
X14098634Y-17036484D02*
X14079586Y-17026960D01*
X14079586Y-17026960D02*
X14070063Y-17017436D01*
X14070063Y-17017436D02*
X14060539Y-16998389D01*
X14060539Y-16998389D02*
X14051015Y-16960293D01*
X14051015Y-16960293D02*
X14051015Y-16912674D01*
X14051015Y-16912674D02*
X14060539Y-16874579D01*
X14060539Y-16874579D02*
X14070063Y-16855531D01*
X14070063Y-16855531D02*
X14079586Y-16846008D01*
X14079586Y-16846008D02*
X14098634Y-16836484D01*
X14251015Y-17017436D02*
X14260539Y-17026960D01*
X14260539Y-17026960D02*
X14251015Y-17036484D01*
X14251015Y-17036484D02*
X14241491Y-17026960D01*
X14241491Y-17026960D02*
X14251015Y-17017436D01*
X14251015Y-17017436D02*
X14251015Y-17036484D01*
X14451015Y-17036484D02*
X14336729Y-17036484D01*
X14393872Y-17036484D02*
X14393872Y-16836484D01*
X14393872Y-16836484D02*
X14374825Y-16865055D01*
X14374825Y-16865055D02*
X14355777Y-16884103D01*
X14355777Y-16884103D02*
X14336729Y-16893627D01*
X14527206Y-16855531D02*
X14536729Y-16846008D01*
X14536729Y-16846008D02*
X14555777Y-16836484D01*
X14555777Y-16836484D02*
X14603396Y-16836484D01*
X14603396Y-16836484D02*
X14622444Y-16846008D01*
X14622444Y-16846008D02*
X14631967Y-16855531D01*
X14631967Y-16855531D02*
X14641491Y-16874579D01*
X14641491Y-16874579D02*
X14641491Y-16893627D01*
X14641491Y-16893627D02*
X14631967Y-16922198D01*
X14631967Y-16922198D02*
X14517682Y-17036484D01*
X14517682Y-17036484D02*
X14641491Y-17036484D01*
X14812920Y-16836484D02*
X14774825Y-16836484D01*
X14774825Y-16836484D02*
X14755777Y-16846008D01*
X14755777Y-16846008D02*
X14746253Y-16855531D01*
X14746253Y-16855531D02*
X14727206Y-16884103D01*
X14727206Y-16884103D02*
X14717682Y-16922198D01*
X14717682Y-16922198D02*
X14717682Y-16998389D01*
X14717682Y-16998389D02*
X14727206Y-17017436D01*
X14727206Y-17017436D02*
X14736729Y-17026960D01*
X14736729Y-17026960D02*
X14755777Y-17036484D01*
X14755777Y-17036484D02*
X14793872Y-17036484D01*
X14793872Y-17036484D02*
X14812920Y-17026960D01*
X14812920Y-17026960D02*
X14822444Y-17017436D01*
X14822444Y-17017436D02*
X14831967Y-16998389D01*
X14831967Y-16998389D02*
X14831967Y-16950770D01*
X14831967Y-16950770D02*
X14822444Y-16931722D01*
X14822444Y-16931722D02*
X14812920Y-16922198D01*
X14812920Y-16922198D02*
X14793872Y-16912674D01*
X14793872Y-16912674D02*
X14755777Y-16912674D01*
X14755777Y-16912674D02*
X14736729Y-16922198D01*
X14736729Y-16922198D02*
X14727206Y-16931722D01*
X14727206Y-16931722D02*
X14717682Y-16950770D01*
X14955777Y-16836484D02*
X14974825Y-16836484D01*
X14974825Y-16836484D02*
X14993872Y-16846008D01*
X14993872Y-16846008D02*
X15003396Y-16855531D01*
X15003396Y-16855531D02*
X15012920Y-16874579D01*
X15012920Y-16874579D02*
X15022444Y-16912674D01*
X15022444Y-16912674D02*
X15022444Y-16960293D01*
X15022444Y-16960293D02*
X15012920Y-16998389D01*
X15012920Y-16998389D02*
X15003396Y-17017436D01*
X15003396Y-17017436D02*
X14993872Y-17026960D01*
X14993872Y-17026960D02*
X14974825Y-17036484D01*
X14974825Y-17036484D02*
X14955777Y-17036484D01*
X14955777Y-17036484D02*
X14936729Y-17026960D01*
X14936729Y-17026960D02*
X14927206Y-17017436D01*
X14927206Y-17017436D02*
X14917682Y-16998389D01*
X14917682Y-16998389D02*
X14908158Y-16960293D01*
X14908158Y-16960293D02*
X14908158Y-16912674D01*
X14908158Y-16912674D02*
X14917682Y-16874579D01*
X14917682Y-16874579D02*
X14927206Y-16855531D01*
X14927206Y-16855531D02*
X14936729Y-16846008D01*
X14936729Y-16846008D02*
X14955777Y-16836484D01*
X15098634Y-16836484D02*
X15098634Y-16874579D01*
X15174825Y-16836484D02*
X15174825Y-16874579D01*
X15470063Y-17112674D02*
X15460539Y-17103150D01*
X15460539Y-17103150D02*
X15441491Y-17074579D01*
X15441491Y-17074579D02*
X15431968Y-17055531D01*
X15431968Y-17055531D02*
X15422444Y-17026960D01*
X15422444Y-17026960D02*
X15412920Y-16979341D01*
X15412920Y-16979341D02*
X15412920Y-16941246D01*
X15412920Y-16941246D02*
X15422444Y-16893627D01*
X15422444Y-16893627D02*
X15431968Y-16865055D01*
X15431968Y-16865055D02*
X15441491Y-16846008D01*
X15441491Y-16846008D02*
X15460539Y-16817436D01*
X15460539Y-16817436D02*
X15470063Y-16807912D01*
X15631968Y-16903150D02*
X15631968Y-17036484D01*
X15584348Y-16826960D02*
X15536729Y-16969817D01*
X15536729Y-16969817D02*
X15660539Y-16969817D01*
X15889110Y-17036484D02*
X15889110Y-16836484D01*
X15974825Y-17036484D02*
X15974825Y-16931722D01*
X15974825Y-16931722D02*
X15965301Y-16912674D01*
X15965301Y-16912674D02*
X15946253Y-16903150D01*
X15946253Y-16903150D02*
X15917682Y-16903150D01*
X15917682Y-16903150D02*
X15898634Y-16912674D01*
X15898634Y-16912674D02*
X15889110Y-16922198D01*
X16098634Y-17036484D02*
X16079587Y-17026960D01*
X16079587Y-17026960D02*
X16070063Y-17017436D01*
X16070063Y-17017436D02*
X16060539Y-16998389D01*
X16060539Y-16998389D02*
X16060539Y-16941246D01*
X16060539Y-16941246D02*
X16070063Y-16922198D01*
X16070063Y-16922198D02*
X16079587Y-16912674D01*
X16079587Y-16912674D02*
X16098634Y-16903150D01*
X16098634Y-16903150D02*
X16127206Y-16903150D01*
X16127206Y-16903150D02*
X16146253Y-16912674D01*
X16146253Y-16912674D02*
X16155777Y-16922198D01*
X16155777Y-16922198D02*
X16165301Y-16941246D01*
X16165301Y-16941246D02*
X16165301Y-16998389D01*
X16165301Y-16998389D02*
X16155777Y-17017436D01*
X16155777Y-17017436D02*
X16146253Y-17026960D01*
X16146253Y-17026960D02*
X16127206Y-17036484D01*
X16127206Y-17036484D02*
X16098634Y-17036484D01*
X16279587Y-17036484D02*
X16260539Y-17026960D01*
X16260539Y-17026960D02*
X16251015Y-17007912D01*
X16251015Y-17007912D02*
X16251015Y-16836484D01*
X16431968Y-17026960D02*
X16412920Y-17036484D01*
X16412920Y-17036484D02*
X16374825Y-17036484D01*
X16374825Y-17036484D02*
X16355777Y-17026960D01*
X16355777Y-17026960D02*
X16346253Y-17007912D01*
X16346253Y-17007912D02*
X16346253Y-16931722D01*
X16346253Y-16931722D02*
X16355777Y-16912674D01*
X16355777Y-16912674D02*
X16374825Y-16903150D01*
X16374825Y-16903150D02*
X16412920Y-16903150D01*
X16412920Y-16903150D02*
X16431968Y-16912674D01*
X16431968Y-16912674D02*
X16441491Y-16931722D01*
X16441491Y-16931722D02*
X16441491Y-16950770D01*
X16441491Y-16950770D02*
X16346253Y-16969817D01*
X16517682Y-17026960D02*
X16536730Y-17036484D01*
X16536730Y-17036484D02*
X16574825Y-17036484D01*
X16574825Y-17036484D02*
X16593872Y-17026960D01*
X16593872Y-17026960D02*
X16603396Y-17007912D01*
X16603396Y-17007912D02*
X16603396Y-16998389D01*
X16603396Y-16998389D02*
X16593872Y-16979341D01*
X16593872Y-16979341D02*
X16574825Y-16969817D01*
X16574825Y-16969817D02*
X16546253Y-16969817D01*
X16546253Y-16969817D02*
X16527206Y-16960293D01*
X16527206Y-16960293D02*
X16517682Y-16941246D01*
X16517682Y-16941246D02*
X16517682Y-16931722D01*
X16517682Y-16931722D02*
X16527206Y-16912674D01*
X16527206Y-16912674D02*
X16546253Y-16903150D01*
X16546253Y-16903150D02*
X16574825Y-16903150D01*
X16574825Y-16903150D02*
X16593872Y-16912674D01*
X16670063Y-17112674D02*
X16679587Y-17103150D01*
X16679587Y-17103150D02*
X16698634Y-17074579D01*
X16698634Y-17074579D02*
X16708158Y-17055531D01*
X16708158Y-17055531D02*
X16717682Y-17026960D01*
X16717682Y-17026960D02*
X16727206Y-16979341D01*
X16727206Y-16979341D02*
X16727206Y-16941246D01*
X16727206Y-16941246D02*
X16717682Y-16893627D01*
X16717682Y-16893627D02*
X16708158Y-16865055D01*
X16708158Y-16865055D02*
X16698634Y-16846008D01*
X16698634Y-16846008D02*
X16679587Y-16817436D01*
X16679587Y-16817436D02*
X16670063Y-16807912D01*
X17031968Y-17112674D02*
X17022444Y-17103150D01*
X17022444Y-17103150D02*
X17003396Y-17074579D01*
X17003396Y-17074579D02*
X16993873Y-17055531D01*
X16993873Y-17055531D02*
X16984349Y-17026960D01*
X16984349Y-17026960D02*
X16974825Y-16979341D01*
X16974825Y-16979341D02*
X16974825Y-16941246D01*
X16974825Y-16941246D02*
X16984349Y-16893627D01*
X16984349Y-16893627D02*
X16993873Y-16865055D01*
X16993873Y-16865055D02*
X17003396Y-16846008D01*
X17003396Y-16846008D02*
X17022444Y-16817436D01*
X17022444Y-16817436D02*
X17031968Y-16807912D01*
X17108158Y-16903150D02*
X17108158Y-17036484D01*
X17108158Y-16922198D02*
X17117682Y-16912674D01*
X17117682Y-16912674D02*
X17136730Y-16903150D01*
X17136730Y-16903150D02*
X17165301Y-16903150D01*
X17165301Y-16903150D02*
X17184349Y-16912674D01*
X17184349Y-16912674D02*
X17193873Y-16931722D01*
X17193873Y-16931722D02*
X17193873Y-17036484D01*
X17317682Y-17036484D02*
X17298634Y-17026960D01*
X17298634Y-17026960D02*
X17289111Y-17017436D01*
X17289111Y-17017436D02*
X17279587Y-16998389D01*
X17279587Y-16998389D02*
X17279587Y-16941246D01*
X17279587Y-16941246D02*
X17289111Y-16922198D01*
X17289111Y-16922198D02*
X17298634Y-16912674D01*
X17298634Y-16912674D02*
X17317682Y-16903150D01*
X17317682Y-16903150D02*
X17346254Y-16903150D01*
X17346254Y-16903150D02*
X17365301Y-16912674D01*
X17365301Y-16912674D02*
X17374825Y-16922198D01*
X17374825Y-16922198D02*
X17384349Y-16941246D01*
X17384349Y-16941246D02*
X17384349Y-16998389D01*
X17384349Y-16998389D02*
X17374825Y-17017436D01*
X17374825Y-17017436D02*
X17365301Y-17026960D01*
X17365301Y-17026960D02*
X17346254Y-17036484D01*
X17346254Y-17036484D02*
X17317682Y-17036484D01*
X17441492Y-16903150D02*
X17517682Y-16903150D01*
X17470063Y-16836484D02*
X17470063Y-17007912D01*
X17470063Y-17007912D02*
X17479587Y-17026960D01*
X17479587Y-17026960D02*
X17498634Y-17036484D01*
X17498634Y-17036484D02*
X17517682Y-17036484D01*
X17736730Y-16903150D02*
X17736730Y-17103150D01*
X17736730Y-16912674D02*
X17755777Y-16903150D01*
X17755777Y-16903150D02*
X17793873Y-16903150D01*
X17793873Y-16903150D02*
X17812920Y-16912674D01*
X17812920Y-16912674D02*
X17822444Y-16922198D01*
X17822444Y-16922198D02*
X17831968Y-16941246D01*
X17831968Y-16941246D02*
X17831968Y-16998389D01*
X17831968Y-16998389D02*
X17822444Y-17017436D01*
X17822444Y-17017436D02*
X17812920Y-17026960D01*
X17812920Y-17026960D02*
X17793873Y-17036484D01*
X17793873Y-17036484D02*
X17755777Y-17036484D01*
X17755777Y-17036484D02*
X17736730Y-17026960D01*
X17946254Y-17036484D02*
X17927206Y-17026960D01*
X17927206Y-17026960D02*
X17917682Y-17007912D01*
X17917682Y-17007912D02*
X17917682Y-16836484D01*
X18108158Y-17036484D02*
X18108158Y-16931722D01*
X18108158Y-16931722D02*
X18098635Y-16912674D01*
X18098635Y-16912674D02*
X18079587Y-16903150D01*
X18079587Y-16903150D02*
X18041492Y-16903150D01*
X18041492Y-16903150D02*
X18022444Y-16912674D01*
X18108158Y-17026960D02*
X18089111Y-17036484D01*
X18089111Y-17036484D02*
X18041492Y-17036484D01*
X18041492Y-17036484D02*
X18022444Y-17026960D01*
X18022444Y-17026960D02*
X18012920Y-17007912D01*
X18012920Y-17007912D02*
X18012920Y-16988865D01*
X18012920Y-16988865D02*
X18022444Y-16969817D01*
X18022444Y-16969817D02*
X18041492Y-16960293D01*
X18041492Y-16960293D02*
X18089111Y-16960293D01*
X18089111Y-16960293D02*
X18108158Y-16950770D01*
X18174825Y-16903150D02*
X18251015Y-16903150D01*
X18203396Y-16836484D02*
X18203396Y-17007912D01*
X18203396Y-17007912D02*
X18212920Y-17026960D01*
X18212920Y-17026960D02*
X18231968Y-17036484D01*
X18231968Y-17036484D02*
X18251015Y-17036484D01*
X18393873Y-17026960D02*
X18374825Y-17036484D01*
X18374825Y-17036484D02*
X18336730Y-17036484D01*
X18336730Y-17036484D02*
X18317682Y-17026960D01*
X18317682Y-17026960D02*
X18308158Y-17007912D01*
X18308158Y-17007912D02*
X18308158Y-16931722D01*
X18308158Y-16931722D02*
X18317682Y-16912674D01*
X18317682Y-16912674D02*
X18336730Y-16903150D01*
X18336730Y-16903150D02*
X18374825Y-16903150D01*
X18374825Y-16903150D02*
X18393873Y-16912674D01*
X18393873Y-16912674D02*
X18403396Y-16931722D01*
X18403396Y-16931722D02*
X18403396Y-16950770D01*
X18403396Y-16950770D02*
X18308158Y-16969817D01*
X18574825Y-17036484D02*
X18574825Y-16836484D01*
X18574825Y-17026960D02*
X18555777Y-17036484D01*
X18555777Y-17036484D02*
X18517682Y-17036484D01*
X18517682Y-17036484D02*
X18498635Y-17026960D01*
X18498635Y-17026960D02*
X18489111Y-17017436D01*
X18489111Y-17017436D02*
X18479587Y-16998389D01*
X18479587Y-16998389D02*
X18479587Y-16941246D01*
X18479587Y-16941246D02*
X18489111Y-16922198D01*
X18489111Y-16922198D02*
X18498635Y-16912674D01*
X18498635Y-16912674D02*
X18517682Y-16903150D01*
X18517682Y-16903150D02*
X18555777Y-16903150D01*
X18555777Y-16903150D02*
X18574825Y-16912674D01*
X18651016Y-17112674D02*
X18660539Y-17103150D01*
X18660539Y-17103150D02*
X18679587Y-17074579D01*
X18679587Y-17074579D02*
X18689111Y-17055531D01*
X18689111Y-17055531D02*
X18698635Y-17026960D01*
X18698635Y-17026960D02*
X18708158Y-16979341D01*
X18708158Y-16979341D02*
X18708158Y-16941246D01*
X18708158Y-16941246D02*
X18698635Y-16893627D01*
X18698635Y-16893627D02*
X18689111Y-16865055D01*
X18689111Y-16865055D02*
X18679587Y-16846008D01*
X18679587Y-16846008D02*
X18660539Y-16817436D01*
X18660539Y-16817436D02*
X18651016Y-16807912D01*
M02*
