%TF.GenerationSoftware,KiCad,Pcbnew,7.0.8*%
%TF.CreationDate,2023-10-17T18:42:54+11:00*%
%TF.ProjectId,bstconv,62737463-6f6e-4762-9e6b-696361645f70,rev?*%
%TF.SameCoordinates,Original*%
%TF.FileFunction,Drillmap*%
%TF.FilePolarity,Positive*%
%FSLAX45Y45*%
G04 Gerber Fmt 4.5, Leading zero omitted, Abs format (unit mm)*
G04 Created by KiCad (PCBNEW 7.0.8) date 2023-10-17 18:42:54*
%MOMM*%
%LPD*%
G01*
G04 APERTURE LIST*
%ADD10C,0.100000*%
%ADD11C,0.200000*%
%ADD12C,0.030000*%
%ADD13C,0.130000*%
G04 APERTURE END LIST*
D10*
X12250000Y-13300000D02*
X17750000Y-13300000D01*
X17750000Y-16300000D02*
X12250000Y-16300000D01*
X11900000Y-15950000D02*
G75*
G03*
X12250000Y-16300000I350000J0D01*
G01*
X11900000Y-15950000D02*
X11900000Y-13650000D01*
X18100000Y-13650000D02*
G75*
G03*
X17750000Y-13300000I-350000J0D01*
G01*
X12250000Y-13300000D02*
G75*
G03*
X11900000Y-13650000I0J-350000D01*
G01*
X18100000Y-13650000D02*
X18100000Y-15950000D01*
X17750000Y-16300000D02*
G75*
G03*
X18100000Y-15950000I0J350000D01*
G01*
D11*
D12*
X13660000Y-15410000D02*
X13690000Y-15440000D01*
X13690000Y-15410000D02*
X13660000Y-15440000D01*
X13660000Y-15785000D02*
X13690000Y-15815000D01*
X13690000Y-15785000D02*
X13660000Y-15815000D01*
X13685000Y-14710000D02*
X13715000Y-14740000D01*
X13715000Y-14710000D02*
X13685000Y-14740000D01*
X13685000Y-15060000D02*
X13715000Y-15090000D01*
X13715000Y-15060000D02*
X13685000Y-15090000D01*
X14060000Y-15210000D02*
X14090000Y-15240000D01*
X14090000Y-15210000D02*
X14060000Y-15240000D01*
X14060000Y-15410000D02*
X14090000Y-15440000D01*
X14090000Y-15410000D02*
X14060000Y-15440000D01*
X14160000Y-14460000D02*
X14190000Y-14490000D01*
X14190000Y-14460000D02*
X14160000Y-14490000D01*
X14235000Y-14460000D02*
X14265000Y-14490000D01*
X14265000Y-14460000D02*
X14235000Y-14490000D01*
X14310000Y-14460000D02*
X14340000Y-14490000D01*
X14340000Y-14460000D02*
X14310000Y-14490000D01*
X14385000Y-14460000D02*
X14415000Y-14490000D01*
X14415000Y-14460000D02*
X14385000Y-14490000D01*
X14385000Y-14535000D02*
X14415000Y-14565000D01*
X14415000Y-14535000D02*
X14385000Y-14565000D01*
X14385000Y-14610000D02*
X14415000Y-14640000D01*
X14415000Y-14610000D02*
X14385000Y-14640000D01*
X14385000Y-14685000D02*
X14415000Y-14715000D01*
X14415000Y-14685000D02*
X14385000Y-14715000D01*
X14650241Y-14989690D02*
X14680241Y-15019690D01*
X14680241Y-14989690D02*
X14650241Y-15019690D01*
X14710000Y-14460000D02*
X14740000Y-14490000D01*
X14740000Y-14460000D02*
X14710000Y-14490000D01*
X14710000Y-14535000D02*
X14740000Y-14565000D01*
X14740000Y-14535000D02*
X14710000Y-14565000D01*
X14710000Y-14610000D02*
X14740000Y-14640000D01*
X14740000Y-14610000D02*
X14710000Y-14640000D01*
X14710000Y-14685000D02*
X14740000Y-14715000D01*
X14740000Y-14685000D02*
X14710000Y-14715000D01*
X14785000Y-14460000D02*
X14815000Y-14490000D01*
X14815000Y-14460000D02*
X14785000Y-14490000D01*
X14810000Y-15560000D02*
X14840000Y-15590000D01*
X14840000Y-15560000D02*
X14810000Y-15590000D01*
X14835000Y-15160000D02*
X14865000Y-15190000D01*
X14865000Y-15160000D02*
X14835000Y-15190000D01*
X14860000Y-14460000D02*
X14890000Y-14490000D01*
X14890000Y-14460000D02*
X14860000Y-14490000D01*
X14960000Y-14460000D02*
X14990000Y-14490000D01*
X14990000Y-14460000D02*
X14960000Y-14490000D01*
X15110000Y-15560000D02*
X15140000Y-15590000D01*
X15140000Y-15560000D02*
X15110000Y-15590000D01*
X16210000Y-13635000D02*
X16240000Y-13665000D01*
X16240000Y-13635000D02*
X16210000Y-13665000D01*
X16210000Y-15835000D02*
X16240000Y-15865000D01*
X16240000Y-15835000D02*
X16210000Y-15865000D01*
X16385000Y-13910000D02*
X16415000Y-13940000D01*
X16415000Y-13910000D02*
X16385000Y-13940000D01*
X16385000Y-15560000D02*
X16415000Y-15590000D01*
X16415000Y-15560000D02*
X16385000Y-15590000D01*
D13*
X12534500Y-14745500D02*
G75*
G03*
X12534500Y-14745500I-65000J0D01*
G01*
X12534500Y-15253500D02*
G75*
G03*
X12534500Y-15253500I-65000J0D01*
G01*
X17595500Y-14746000D02*
G75*
G03*
X17595500Y-14746000I-65000J0D01*
G01*
X17595500Y-15254000D02*
G75*
G03*
X17595500Y-15254000I-65000J0D01*
G01*
D11*
X12155777Y-16616484D02*
X12155777Y-16416484D01*
X12155777Y-16416484D02*
X12203396Y-16416484D01*
X12203396Y-16416484D02*
X12231967Y-16426008D01*
X12231967Y-16426008D02*
X12251015Y-16445055D01*
X12251015Y-16445055D02*
X12260539Y-16464103D01*
X12260539Y-16464103D02*
X12270062Y-16502198D01*
X12270062Y-16502198D02*
X12270062Y-16530769D01*
X12270062Y-16530769D02*
X12260539Y-16568865D01*
X12260539Y-16568865D02*
X12251015Y-16587912D01*
X12251015Y-16587912D02*
X12231967Y-16606960D01*
X12231967Y-16606960D02*
X12203396Y-16616484D01*
X12203396Y-16616484D02*
X12155777Y-16616484D01*
X12355777Y-16616484D02*
X12355777Y-16483150D01*
X12355777Y-16521246D02*
X12365301Y-16502198D01*
X12365301Y-16502198D02*
X12374824Y-16492674D01*
X12374824Y-16492674D02*
X12393872Y-16483150D01*
X12393872Y-16483150D02*
X12412920Y-16483150D01*
X12479586Y-16616484D02*
X12479586Y-16483150D01*
X12479586Y-16416484D02*
X12470062Y-16426008D01*
X12470062Y-16426008D02*
X12479586Y-16435531D01*
X12479586Y-16435531D02*
X12489110Y-16426008D01*
X12489110Y-16426008D02*
X12479586Y-16416484D01*
X12479586Y-16416484D02*
X12479586Y-16435531D01*
X12603396Y-16616484D02*
X12584348Y-16606960D01*
X12584348Y-16606960D02*
X12574824Y-16587912D01*
X12574824Y-16587912D02*
X12574824Y-16416484D01*
X12708158Y-16616484D02*
X12689110Y-16606960D01*
X12689110Y-16606960D02*
X12679586Y-16587912D01*
X12679586Y-16587912D02*
X12679586Y-16416484D01*
X12936729Y-16616484D02*
X12936729Y-16416484D01*
X12936729Y-16416484D02*
X13003396Y-16559341D01*
X13003396Y-16559341D02*
X13070062Y-16416484D01*
X13070062Y-16416484D02*
X13070062Y-16616484D01*
X13251015Y-16616484D02*
X13251015Y-16511722D01*
X13251015Y-16511722D02*
X13241491Y-16492674D01*
X13241491Y-16492674D02*
X13222443Y-16483150D01*
X13222443Y-16483150D02*
X13184348Y-16483150D01*
X13184348Y-16483150D02*
X13165301Y-16492674D01*
X13251015Y-16606960D02*
X13231967Y-16616484D01*
X13231967Y-16616484D02*
X13184348Y-16616484D01*
X13184348Y-16616484D02*
X13165301Y-16606960D01*
X13165301Y-16606960D02*
X13155777Y-16587912D01*
X13155777Y-16587912D02*
X13155777Y-16568865D01*
X13155777Y-16568865D02*
X13165301Y-16549817D01*
X13165301Y-16549817D02*
X13184348Y-16540293D01*
X13184348Y-16540293D02*
X13231967Y-16540293D01*
X13231967Y-16540293D02*
X13251015Y-16530769D01*
X13346253Y-16483150D02*
X13346253Y-16683150D01*
X13346253Y-16492674D02*
X13365301Y-16483150D01*
X13365301Y-16483150D02*
X13403396Y-16483150D01*
X13403396Y-16483150D02*
X13422443Y-16492674D01*
X13422443Y-16492674D02*
X13431967Y-16502198D01*
X13431967Y-16502198D02*
X13441491Y-16521246D01*
X13441491Y-16521246D02*
X13441491Y-16578388D01*
X13441491Y-16578388D02*
X13431967Y-16597436D01*
X13431967Y-16597436D02*
X13422443Y-16606960D01*
X13422443Y-16606960D02*
X13403396Y-16616484D01*
X13403396Y-16616484D02*
X13365301Y-16616484D01*
X13365301Y-16616484D02*
X13346253Y-16606960D01*
X13527205Y-16597436D02*
X13536729Y-16606960D01*
X13536729Y-16606960D02*
X13527205Y-16616484D01*
X13527205Y-16616484D02*
X13517682Y-16606960D01*
X13517682Y-16606960D02*
X13527205Y-16597436D01*
X13527205Y-16597436D02*
X13527205Y-16616484D01*
X13527205Y-16492674D02*
X13536729Y-16502198D01*
X13536729Y-16502198D02*
X13527205Y-16511722D01*
X13527205Y-16511722D02*
X13517682Y-16502198D01*
X13517682Y-16502198D02*
X13527205Y-16492674D01*
X13527205Y-16492674D02*
X13527205Y-16511722D01*
D12*
X11865000Y-16930000D02*
X11895000Y-16960000D01*
X11895000Y-16930000D02*
X11865000Y-16960000D01*
D11*
X12193872Y-16836484D02*
X12212920Y-16836484D01*
X12212920Y-16836484D02*
X12231967Y-16846008D01*
X12231967Y-16846008D02*
X12241491Y-16855531D01*
X12241491Y-16855531D02*
X12251015Y-16874579D01*
X12251015Y-16874579D02*
X12260539Y-16912674D01*
X12260539Y-16912674D02*
X12260539Y-16960293D01*
X12260539Y-16960293D02*
X12251015Y-16998389D01*
X12251015Y-16998389D02*
X12241491Y-17017436D01*
X12241491Y-17017436D02*
X12231967Y-17026960D01*
X12231967Y-17026960D02*
X12212920Y-17036484D01*
X12212920Y-17036484D02*
X12193872Y-17036484D01*
X12193872Y-17036484D02*
X12174824Y-17026960D01*
X12174824Y-17026960D02*
X12165301Y-17017436D01*
X12165301Y-17017436D02*
X12155777Y-16998389D01*
X12155777Y-16998389D02*
X12146253Y-16960293D01*
X12146253Y-16960293D02*
X12146253Y-16912674D01*
X12146253Y-16912674D02*
X12155777Y-16874579D01*
X12155777Y-16874579D02*
X12165301Y-16855531D01*
X12165301Y-16855531D02*
X12174824Y-16846008D01*
X12174824Y-16846008D02*
X12193872Y-16836484D01*
X12346253Y-17017436D02*
X12355777Y-17026960D01*
X12355777Y-17026960D02*
X12346253Y-17036484D01*
X12346253Y-17036484D02*
X12336729Y-17026960D01*
X12336729Y-17026960D02*
X12346253Y-17017436D01*
X12346253Y-17017436D02*
X12346253Y-17036484D01*
X12422443Y-16836484D02*
X12546253Y-16836484D01*
X12546253Y-16836484D02*
X12479586Y-16912674D01*
X12479586Y-16912674D02*
X12508158Y-16912674D01*
X12508158Y-16912674D02*
X12527205Y-16922198D01*
X12527205Y-16922198D02*
X12536729Y-16931722D01*
X12536729Y-16931722D02*
X12546253Y-16950770D01*
X12546253Y-16950770D02*
X12546253Y-16998389D01*
X12546253Y-16998389D02*
X12536729Y-17017436D01*
X12536729Y-17017436D02*
X12527205Y-17026960D01*
X12527205Y-17026960D02*
X12508158Y-17036484D01*
X12508158Y-17036484D02*
X12451015Y-17036484D01*
X12451015Y-17036484D02*
X12431967Y-17026960D01*
X12431967Y-17026960D02*
X12422443Y-17017436D01*
X12670062Y-16836484D02*
X12689110Y-16836484D01*
X12689110Y-16836484D02*
X12708158Y-16846008D01*
X12708158Y-16846008D02*
X12717682Y-16855531D01*
X12717682Y-16855531D02*
X12727205Y-16874579D01*
X12727205Y-16874579D02*
X12736729Y-16912674D01*
X12736729Y-16912674D02*
X12736729Y-16960293D01*
X12736729Y-16960293D02*
X12727205Y-16998389D01*
X12727205Y-16998389D02*
X12717682Y-17017436D01*
X12717682Y-17017436D02*
X12708158Y-17026960D01*
X12708158Y-17026960D02*
X12689110Y-17036484D01*
X12689110Y-17036484D02*
X12670062Y-17036484D01*
X12670062Y-17036484D02*
X12651015Y-17026960D01*
X12651015Y-17026960D02*
X12641491Y-17017436D01*
X12641491Y-17017436D02*
X12631967Y-16998389D01*
X12631967Y-16998389D02*
X12622443Y-16960293D01*
X12622443Y-16960293D02*
X12622443Y-16912674D01*
X12622443Y-16912674D02*
X12631967Y-16874579D01*
X12631967Y-16874579D02*
X12641491Y-16855531D01*
X12641491Y-16855531D02*
X12651015Y-16846008D01*
X12651015Y-16846008D02*
X12670062Y-16836484D01*
X12860539Y-16836484D02*
X12879586Y-16836484D01*
X12879586Y-16836484D02*
X12898634Y-16846008D01*
X12898634Y-16846008D02*
X12908158Y-16855531D01*
X12908158Y-16855531D02*
X12917682Y-16874579D01*
X12917682Y-16874579D02*
X12927205Y-16912674D01*
X12927205Y-16912674D02*
X12927205Y-16960293D01*
X12927205Y-16960293D02*
X12917682Y-16998389D01*
X12917682Y-16998389D02*
X12908158Y-17017436D01*
X12908158Y-17017436D02*
X12898634Y-17026960D01*
X12898634Y-17026960D02*
X12879586Y-17036484D01*
X12879586Y-17036484D02*
X12860539Y-17036484D01*
X12860539Y-17036484D02*
X12841491Y-17026960D01*
X12841491Y-17026960D02*
X12831967Y-17017436D01*
X12831967Y-17017436D02*
X12822443Y-16998389D01*
X12822443Y-16998389D02*
X12812920Y-16960293D01*
X12812920Y-16960293D02*
X12812920Y-16912674D01*
X12812920Y-16912674D02*
X12822443Y-16874579D01*
X12822443Y-16874579D02*
X12831967Y-16855531D01*
X12831967Y-16855531D02*
X12841491Y-16846008D01*
X12841491Y-16846008D02*
X12860539Y-16836484D01*
X13012920Y-17036484D02*
X13012920Y-16903150D01*
X13012920Y-16922198D02*
X13022443Y-16912674D01*
X13022443Y-16912674D02*
X13041491Y-16903150D01*
X13041491Y-16903150D02*
X13070063Y-16903150D01*
X13070063Y-16903150D02*
X13089110Y-16912674D01*
X13089110Y-16912674D02*
X13098634Y-16931722D01*
X13098634Y-16931722D02*
X13098634Y-17036484D01*
X13098634Y-16931722D02*
X13108158Y-16912674D01*
X13108158Y-16912674D02*
X13127205Y-16903150D01*
X13127205Y-16903150D02*
X13155777Y-16903150D01*
X13155777Y-16903150D02*
X13174824Y-16912674D01*
X13174824Y-16912674D02*
X13184348Y-16931722D01*
X13184348Y-16931722D02*
X13184348Y-17036484D01*
X13279586Y-17036484D02*
X13279586Y-16903150D01*
X13279586Y-16922198D02*
X13289110Y-16912674D01*
X13289110Y-16912674D02*
X13308158Y-16903150D01*
X13308158Y-16903150D02*
X13336729Y-16903150D01*
X13336729Y-16903150D02*
X13355777Y-16912674D01*
X13355777Y-16912674D02*
X13365301Y-16931722D01*
X13365301Y-16931722D02*
X13365301Y-17036484D01*
X13365301Y-16931722D02*
X13374824Y-16912674D01*
X13374824Y-16912674D02*
X13393872Y-16903150D01*
X13393872Y-16903150D02*
X13422443Y-16903150D01*
X13422443Y-16903150D02*
X13441491Y-16912674D01*
X13441491Y-16912674D02*
X13451015Y-16931722D01*
X13451015Y-16931722D02*
X13451015Y-17036484D01*
X13841491Y-16826960D02*
X13670063Y-17084103D01*
X14098634Y-16836484D02*
X14117682Y-16836484D01*
X14117682Y-16836484D02*
X14136729Y-16846008D01*
X14136729Y-16846008D02*
X14146253Y-16855531D01*
X14146253Y-16855531D02*
X14155777Y-16874579D01*
X14155777Y-16874579D02*
X14165301Y-16912674D01*
X14165301Y-16912674D02*
X14165301Y-16960293D01*
X14165301Y-16960293D02*
X14155777Y-16998389D01*
X14155777Y-16998389D02*
X14146253Y-17017436D01*
X14146253Y-17017436D02*
X14136729Y-17026960D01*
X14136729Y-17026960D02*
X14117682Y-17036484D01*
X14117682Y-17036484D02*
X14098634Y-17036484D01*
X14098634Y-17036484D02*
X14079586Y-17026960D01*
X14079586Y-17026960D02*
X14070063Y-17017436D01*
X14070063Y-17017436D02*
X14060539Y-16998389D01*
X14060539Y-16998389D02*
X14051015Y-16960293D01*
X14051015Y-16960293D02*
X14051015Y-16912674D01*
X14051015Y-16912674D02*
X14060539Y-16874579D01*
X14060539Y-16874579D02*
X14070063Y-16855531D01*
X14070063Y-16855531D02*
X14079586Y-16846008D01*
X14079586Y-16846008D02*
X14098634Y-16836484D01*
X14251015Y-17017436D02*
X14260539Y-17026960D01*
X14260539Y-17026960D02*
X14251015Y-17036484D01*
X14251015Y-17036484D02*
X14241491Y-17026960D01*
X14241491Y-17026960D02*
X14251015Y-17017436D01*
X14251015Y-17017436D02*
X14251015Y-17036484D01*
X14384348Y-16836484D02*
X14403396Y-16836484D01*
X14403396Y-16836484D02*
X14422444Y-16846008D01*
X14422444Y-16846008D02*
X14431967Y-16855531D01*
X14431967Y-16855531D02*
X14441491Y-16874579D01*
X14441491Y-16874579D02*
X14451015Y-16912674D01*
X14451015Y-16912674D02*
X14451015Y-16960293D01*
X14451015Y-16960293D02*
X14441491Y-16998389D01*
X14441491Y-16998389D02*
X14431967Y-17017436D01*
X14431967Y-17017436D02*
X14422444Y-17026960D01*
X14422444Y-17026960D02*
X14403396Y-17036484D01*
X14403396Y-17036484D02*
X14384348Y-17036484D01*
X14384348Y-17036484D02*
X14365301Y-17026960D01*
X14365301Y-17026960D02*
X14355777Y-17017436D01*
X14355777Y-17017436D02*
X14346253Y-16998389D01*
X14346253Y-16998389D02*
X14336729Y-16960293D01*
X14336729Y-16960293D02*
X14336729Y-16912674D01*
X14336729Y-16912674D02*
X14346253Y-16874579D01*
X14346253Y-16874579D02*
X14355777Y-16855531D01*
X14355777Y-16855531D02*
X14365301Y-16846008D01*
X14365301Y-16846008D02*
X14384348Y-16836484D01*
X14641491Y-17036484D02*
X14527206Y-17036484D01*
X14584348Y-17036484D02*
X14584348Y-16836484D01*
X14584348Y-16836484D02*
X14565301Y-16865055D01*
X14565301Y-16865055D02*
X14546253Y-16884103D01*
X14546253Y-16884103D02*
X14527206Y-16893627D01*
X14831967Y-17036484D02*
X14717682Y-17036484D01*
X14774825Y-17036484D02*
X14774825Y-16836484D01*
X14774825Y-16836484D02*
X14755777Y-16865055D01*
X14755777Y-16865055D02*
X14736729Y-16884103D01*
X14736729Y-16884103D02*
X14717682Y-16893627D01*
X14946253Y-16922198D02*
X14927206Y-16912674D01*
X14927206Y-16912674D02*
X14917682Y-16903150D01*
X14917682Y-16903150D02*
X14908158Y-16884103D01*
X14908158Y-16884103D02*
X14908158Y-16874579D01*
X14908158Y-16874579D02*
X14917682Y-16855531D01*
X14917682Y-16855531D02*
X14927206Y-16846008D01*
X14927206Y-16846008D02*
X14946253Y-16836484D01*
X14946253Y-16836484D02*
X14984348Y-16836484D01*
X14984348Y-16836484D02*
X15003396Y-16846008D01*
X15003396Y-16846008D02*
X15012920Y-16855531D01*
X15012920Y-16855531D02*
X15022444Y-16874579D01*
X15022444Y-16874579D02*
X15022444Y-16884103D01*
X15022444Y-16884103D02*
X15012920Y-16903150D01*
X15012920Y-16903150D02*
X15003396Y-16912674D01*
X15003396Y-16912674D02*
X14984348Y-16922198D01*
X14984348Y-16922198D02*
X14946253Y-16922198D01*
X14946253Y-16922198D02*
X14927206Y-16931722D01*
X14927206Y-16931722D02*
X14917682Y-16941246D01*
X14917682Y-16941246D02*
X14908158Y-16960293D01*
X14908158Y-16960293D02*
X14908158Y-16998389D01*
X14908158Y-16998389D02*
X14917682Y-17017436D01*
X14917682Y-17017436D02*
X14927206Y-17026960D01*
X14927206Y-17026960D02*
X14946253Y-17036484D01*
X14946253Y-17036484D02*
X14984348Y-17036484D01*
X14984348Y-17036484D02*
X15003396Y-17026960D01*
X15003396Y-17026960D02*
X15012920Y-17017436D01*
X15012920Y-17017436D02*
X15022444Y-16998389D01*
X15022444Y-16998389D02*
X15022444Y-16960293D01*
X15022444Y-16960293D02*
X15012920Y-16941246D01*
X15012920Y-16941246D02*
X15003396Y-16931722D01*
X15003396Y-16931722D02*
X14984348Y-16922198D01*
X15098634Y-16836484D02*
X15098634Y-16874579D01*
X15174825Y-16836484D02*
X15174825Y-16874579D01*
X15470063Y-17112674D02*
X15460539Y-17103150D01*
X15460539Y-17103150D02*
X15441491Y-17074579D01*
X15441491Y-17074579D02*
X15431968Y-17055531D01*
X15431968Y-17055531D02*
X15422444Y-17026960D01*
X15422444Y-17026960D02*
X15412920Y-16979341D01*
X15412920Y-16979341D02*
X15412920Y-16941246D01*
X15412920Y-16941246D02*
X15422444Y-16893627D01*
X15422444Y-16893627D02*
X15431968Y-16865055D01*
X15431968Y-16865055D02*
X15441491Y-16846008D01*
X15441491Y-16846008D02*
X15460539Y-16817436D01*
X15460539Y-16817436D02*
X15470063Y-16807912D01*
X15536729Y-16855531D02*
X15546253Y-16846008D01*
X15546253Y-16846008D02*
X15565301Y-16836484D01*
X15565301Y-16836484D02*
X15612920Y-16836484D01*
X15612920Y-16836484D02*
X15631968Y-16846008D01*
X15631968Y-16846008D02*
X15641491Y-16855531D01*
X15641491Y-16855531D02*
X15651015Y-16874579D01*
X15651015Y-16874579D02*
X15651015Y-16893627D01*
X15651015Y-16893627D02*
X15641491Y-16922198D01*
X15641491Y-16922198D02*
X15527206Y-17036484D01*
X15527206Y-17036484D02*
X15651015Y-17036484D01*
X15765301Y-16922198D02*
X15746253Y-16912674D01*
X15746253Y-16912674D02*
X15736729Y-16903150D01*
X15736729Y-16903150D02*
X15727206Y-16884103D01*
X15727206Y-16884103D02*
X15727206Y-16874579D01*
X15727206Y-16874579D02*
X15736729Y-16855531D01*
X15736729Y-16855531D02*
X15746253Y-16846008D01*
X15746253Y-16846008D02*
X15765301Y-16836484D01*
X15765301Y-16836484D02*
X15803396Y-16836484D01*
X15803396Y-16836484D02*
X15822444Y-16846008D01*
X15822444Y-16846008D02*
X15831968Y-16855531D01*
X15831968Y-16855531D02*
X15841491Y-16874579D01*
X15841491Y-16874579D02*
X15841491Y-16884103D01*
X15841491Y-16884103D02*
X15831968Y-16903150D01*
X15831968Y-16903150D02*
X15822444Y-16912674D01*
X15822444Y-16912674D02*
X15803396Y-16922198D01*
X15803396Y-16922198D02*
X15765301Y-16922198D01*
X15765301Y-16922198D02*
X15746253Y-16931722D01*
X15746253Y-16931722D02*
X15736729Y-16941246D01*
X15736729Y-16941246D02*
X15727206Y-16960293D01*
X15727206Y-16960293D02*
X15727206Y-16998389D01*
X15727206Y-16998389D02*
X15736729Y-17017436D01*
X15736729Y-17017436D02*
X15746253Y-17026960D01*
X15746253Y-17026960D02*
X15765301Y-17036484D01*
X15765301Y-17036484D02*
X15803396Y-17036484D01*
X15803396Y-17036484D02*
X15822444Y-17026960D01*
X15822444Y-17026960D02*
X15831968Y-17017436D01*
X15831968Y-17017436D02*
X15841491Y-16998389D01*
X15841491Y-16998389D02*
X15841491Y-16960293D01*
X15841491Y-16960293D02*
X15831968Y-16941246D01*
X15831968Y-16941246D02*
X15822444Y-16931722D01*
X15822444Y-16931722D02*
X15803396Y-16922198D01*
X16079587Y-17036484D02*
X16079587Y-16836484D01*
X16165301Y-17036484D02*
X16165301Y-16931722D01*
X16165301Y-16931722D02*
X16155777Y-16912674D01*
X16155777Y-16912674D02*
X16136730Y-16903150D01*
X16136730Y-16903150D02*
X16108158Y-16903150D01*
X16108158Y-16903150D02*
X16089110Y-16912674D01*
X16089110Y-16912674D02*
X16079587Y-16922198D01*
X16289110Y-17036484D02*
X16270063Y-17026960D01*
X16270063Y-17026960D02*
X16260539Y-17017436D01*
X16260539Y-17017436D02*
X16251015Y-16998389D01*
X16251015Y-16998389D02*
X16251015Y-16941246D01*
X16251015Y-16941246D02*
X16260539Y-16922198D01*
X16260539Y-16922198D02*
X16270063Y-16912674D01*
X16270063Y-16912674D02*
X16289110Y-16903150D01*
X16289110Y-16903150D02*
X16317682Y-16903150D01*
X16317682Y-16903150D02*
X16336730Y-16912674D01*
X16336730Y-16912674D02*
X16346253Y-16922198D01*
X16346253Y-16922198D02*
X16355777Y-16941246D01*
X16355777Y-16941246D02*
X16355777Y-16998389D01*
X16355777Y-16998389D02*
X16346253Y-17017436D01*
X16346253Y-17017436D02*
X16336730Y-17026960D01*
X16336730Y-17026960D02*
X16317682Y-17036484D01*
X16317682Y-17036484D02*
X16289110Y-17036484D01*
X16470063Y-17036484D02*
X16451015Y-17026960D01*
X16451015Y-17026960D02*
X16441491Y-17007912D01*
X16441491Y-17007912D02*
X16441491Y-16836484D01*
X16622444Y-17026960D02*
X16603396Y-17036484D01*
X16603396Y-17036484D02*
X16565301Y-17036484D01*
X16565301Y-17036484D02*
X16546253Y-17026960D01*
X16546253Y-17026960D02*
X16536730Y-17007912D01*
X16536730Y-17007912D02*
X16536730Y-16931722D01*
X16536730Y-16931722D02*
X16546253Y-16912674D01*
X16546253Y-16912674D02*
X16565301Y-16903150D01*
X16565301Y-16903150D02*
X16603396Y-16903150D01*
X16603396Y-16903150D02*
X16622444Y-16912674D01*
X16622444Y-16912674D02*
X16631968Y-16931722D01*
X16631968Y-16931722D02*
X16631968Y-16950770D01*
X16631968Y-16950770D02*
X16536730Y-16969817D01*
X16708158Y-17026960D02*
X16727206Y-17036484D01*
X16727206Y-17036484D02*
X16765301Y-17036484D01*
X16765301Y-17036484D02*
X16784349Y-17026960D01*
X16784349Y-17026960D02*
X16793873Y-17007912D01*
X16793873Y-17007912D02*
X16793873Y-16998389D01*
X16793873Y-16998389D02*
X16784349Y-16979341D01*
X16784349Y-16979341D02*
X16765301Y-16969817D01*
X16765301Y-16969817D02*
X16736730Y-16969817D01*
X16736730Y-16969817D02*
X16717682Y-16960293D01*
X16717682Y-16960293D02*
X16708158Y-16941246D01*
X16708158Y-16941246D02*
X16708158Y-16931722D01*
X16708158Y-16931722D02*
X16717682Y-16912674D01*
X16717682Y-16912674D02*
X16736730Y-16903150D01*
X16736730Y-16903150D02*
X16765301Y-16903150D01*
X16765301Y-16903150D02*
X16784349Y-16912674D01*
X16860539Y-17112674D02*
X16870063Y-17103150D01*
X16870063Y-17103150D02*
X16889111Y-17074579D01*
X16889111Y-17074579D02*
X16898634Y-17055531D01*
X16898634Y-17055531D02*
X16908158Y-17026960D01*
X16908158Y-17026960D02*
X16917682Y-16979341D01*
X16917682Y-16979341D02*
X16917682Y-16941246D01*
X16917682Y-16941246D02*
X16908158Y-16893627D01*
X16908158Y-16893627D02*
X16898634Y-16865055D01*
X16898634Y-16865055D02*
X16889111Y-16846008D01*
X16889111Y-16846008D02*
X16870063Y-16817436D01*
X16870063Y-16817436D02*
X16860539Y-16807912D01*
D13*
X11895000Y-17209000D02*
G75*
G03*
X11895000Y-17209000I-65000J0D01*
G01*
D11*
X12260539Y-17300484D02*
X12146253Y-17300484D01*
X12203396Y-17300484D02*
X12203396Y-17100484D01*
X12203396Y-17100484D02*
X12184348Y-17129055D01*
X12184348Y-17129055D02*
X12165301Y-17148103D01*
X12165301Y-17148103D02*
X12146253Y-17157627D01*
X12346253Y-17281436D02*
X12355777Y-17290960D01*
X12355777Y-17290960D02*
X12346253Y-17300484D01*
X12346253Y-17300484D02*
X12336729Y-17290960D01*
X12336729Y-17290960D02*
X12346253Y-17281436D01*
X12346253Y-17281436D02*
X12346253Y-17300484D01*
X12422443Y-17100484D02*
X12546253Y-17100484D01*
X12546253Y-17100484D02*
X12479586Y-17176674D01*
X12479586Y-17176674D02*
X12508158Y-17176674D01*
X12508158Y-17176674D02*
X12527205Y-17186198D01*
X12527205Y-17186198D02*
X12536729Y-17195722D01*
X12536729Y-17195722D02*
X12546253Y-17214770D01*
X12546253Y-17214770D02*
X12546253Y-17262389D01*
X12546253Y-17262389D02*
X12536729Y-17281436D01*
X12536729Y-17281436D02*
X12527205Y-17290960D01*
X12527205Y-17290960D02*
X12508158Y-17300484D01*
X12508158Y-17300484D02*
X12451015Y-17300484D01*
X12451015Y-17300484D02*
X12431967Y-17290960D01*
X12431967Y-17290960D02*
X12422443Y-17281436D01*
X12670062Y-17100484D02*
X12689110Y-17100484D01*
X12689110Y-17100484D02*
X12708158Y-17110008D01*
X12708158Y-17110008D02*
X12717682Y-17119531D01*
X12717682Y-17119531D02*
X12727205Y-17138579D01*
X12727205Y-17138579D02*
X12736729Y-17176674D01*
X12736729Y-17176674D02*
X12736729Y-17224293D01*
X12736729Y-17224293D02*
X12727205Y-17262389D01*
X12727205Y-17262389D02*
X12717682Y-17281436D01*
X12717682Y-17281436D02*
X12708158Y-17290960D01*
X12708158Y-17290960D02*
X12689110Y-17300484D01*
X12689110Y-17300484D02*
X12670062Y-17300484D01*
X12670062Y-17300484D02*
X12651015Y-17290960D01*
X12651015Y-17290960D02*
X12641491Y-17281436D01*
X12641491Y-17281436D02*
X12631967Y-17262389D01*
X12631967Y-17262389D02*
X12622443Y-17224293D01*
X12622443Y-17224293D02*
X12622443Y-17176674D01*
X12622443Y-17176674D02*
X12631967Y-17138579D01*
X12631967Y-17138579D02*
X12641491Y-17119531D01*
X12641491Y-17119531D02*
X12651015Y-17110008D01*
X12651015Y-17110008D02*
X12670062Y-17100484D01*
X12860539Y-17100484D02*
X12879586Y-17100484D01*
X12879586Y-17100484D02*
X12898634Y-17110008D01*
X12898634Y-17110008D02*
X12908158Y-17119531D01*
X12908158Y-17119531D02*
X12917682Y-17138579D01*
X12917682Y-17138579D02*
X12927205Y-17176674D01*
X12927205Y-17176674D02*
X12927205Y-17224293D01*
X12927205Y-17224293D02*
X12917682Y-17262389D01*
X12917682Y-17262389D02*
X12908158Y-17281436D01*
X12908158Y-17281436D02*
X12898634Y-17290960D01*
X12898634Y-17290960D02*
X12879586Y-17300484D01*
X12879586Y-17300484D02*
X12860539Y-17300484D01*
X12860539Y-17300484D02*
X12841491Y-17290960D01*
X12841491Y-17290960D02*
X12831967Y-17281436D01*
X12831967Y-17281436D02*
X12822443Y-17262389D01*
X12822443Y-17262389D02*
X12812920Y-17224293D01*
X12812920Y-17224293D02*
X12812920Y-17176674D01*
X12812920Y-17176674D02*
X12822443Y-17138579D01*
X12822443Y-17138579D02*
X12831967Y-17119531D01*
X12831967Y-17119531D02*
X12841491Y-17110008D01*
X12841491Y-17110008D02*
X12860539Y-17100484D01*
X13012920Y-17300484D02*
X13012920Y-17167150D01*
X13012920Y-17186198D02*
X13022443Y-17176674D01*
X13022443Y-17176674D02*
X13041491Y-17167150D01*
X13041491Y-17167150D02*
X13070063Y-17167150D01*
X13070063Y-17167150D02*
X13089110Y-17176674D01*
X13089110Y-17176674D02*
X13098634Y-17195722D01*
X13098634Y-17195722D02*
X13098634Y-17300484D01*
X13098634Y-17195722D02*
X13108158Y-17176674D01*
X13108158Y-17176674D02*
X13127205Y-17167150D01*
X13127205Y-17167150D02*
X13155777Y-17167150D01*
X13155777Y-17167150D02*
X13174824Y-17176674D01*
X13174824Y-17176674D02*
X13184348Y-17195722D01*
X13184348Y-17195722D02*
X13184348Y-17300484D01*
X13279586Y-17300484D02*
X13279586Y-17167150D01*
X13279586Y-17186198D02*
X13289110Y-17176674D01*
X13289110Y-17176674D02*
X13308158Y-17167150D01*
X13308158Y-17167150D02*
X13336729Y-17167150D01*
X13336729Y-17167150D02*
X13355777Y-17176674D01*
X13355777Y-17176674D02*
X13365301Y-17195722D01*
X13365301Y-17195722D02*
X13365301Y-17300484D01*
X13365301Y-17195722D02*
X13374824Y-17176674D01*
X13374824Y-17176674D02*
X13393872Y-17167150D01*
X13393872Y-17167150D02*
X13422443Y-17167150D01*
X13422443Y-17167150D02*
X13441491Y-17176674D01*
X13441491Y-17176674D02*
X13451015Y-17195722D01*
X13451015Y-17195722D02*
X13451015Y-17300484D01*
X13841491Y-17090960D02*
X13670063Y-17348103D01*
X14098634Y-17100484D02*
X14117682Y-17100484D01*
X14117682Y-17100484D02*
X14136729Y-17110008D01*
X14136729Y-17110008D02*
X14146253Y-17119531D01*
X14146253Y-17119531D02*
X14155777Y-17138579D01*
X14155777Y-17138579D02*
X14165301Y-17176674D01*
X14165301Y-17176674D02*
X14165301Y-17224293D01*
X14165301Y-17224293D02*
X14155777Y-17262389D01*
X14155777Y-17262389D02*
X14146253Y-17281436D01*
X14146253Y-17281436D02*
X14136729Y-17290960D01*
X14136729Y-17290960D02*
X14117682Y-17300484D01*
X14117682Y-17300484D02*
X14098634Y-17300484D01*
X14098634Y-17300484D02*
X14079586Y-17290960D01*
X14079586Y-17290960D02*
X14070063Y-17281436D01*
X14070063Y-17281436D02*
X14060539Y-17262389D01*
X14060539Y-17262389D02*
X14051015Y-17224293D01*
X14051015Y-17224293D02*
X14051015Y-17176674D01*
X14051015Y-17176674D02*
X14060539Y-17138579D01*
X14060539Y-17138579D02*
X14070063Y-17119531D01*
X14070063Y-17119531D02*
X14079586Y-17110008D01*
X14079586Y-17110008D02*
X14098634Y-17100484D01*
X14251015Y-17281436D02*
X14260539Y-17290960D01*
X14260539Y-17290960D02*
X14251015Y-17300484D01*
X14251015Y-17300484D02*
X14241491Y-17290960D01*
X14241491Y-17290960D02*
X14251015Y-17281436D01*
X14251015Y-17281436D02*
X14251015Y-17300484D01*
X14384348Y-17100484D02*
X14403396Y-17100484D01*
X14403396Y-17100484D02*
X14422444Y-17110008D01*
X14422444Y-17110008D02*
X14431967Y-17119531D01*
X14431967Y-17119531D02*
X14441491Y-17138579D01*
X14441491Y-17138579D02*
X14451015Y-17176674D01*
X14451015Y-17176674D02*
X14451015Y-17224293D01*
X14451015Y-17224293D02*
X14441491Y-17262389D01*
X14441491Y-17262389D02*
X14431967Y-17281436D01*
X14431967Y-17281436D02*
X14422444Y-17290960D01*
X14422444Y-17290960D02*
X14403396Y-17300484D01*
X14403396Y-17300484D02*
X14384348Y-17300484D01*
X14384348Y-17300484D02*
X14365301Y-17290960D01*
X14365301Y-17290960D02*
X14355777Y-17281436D01*
X14355777Y-17281436D02*
X14346253Y-17262389D01*
X14346253Y-17262389D02*
X14336729Y-17224293D01*
X14336729Y-17224293D02*
X14336729Y-17176674D01*
X14336729Y-17176674D02*
X14346253Y-17138579D01*
X14346253Y-17138579D02*
X14355777Y-17119531D01*
X14355777Y-17119531D02*
X14365301Y-17110008D01*
X14365301Y-17110008D02*
X14384348Y-17100484D01*
X14631967Y-17100484D02*
X14536729Y-17100484D01*
X14536729Y-17100484D02*
X14527206Y-17195722D01*
X14527206Y-17195722D02*
X14536729Y-17186198D01*
X14536729Y-17186198D02*
X14555777Y-17176674D01*
X14555777Y-17176674D02*
X14603396Y-17176674D01*
X14603396Y-17176674D02*
X14622444Y-17186198D01*
X14622444Y-17186198D02*
X14631967Y-17195722D01*
X14631967Y-17195722D02*
X14641491Y-17214770D01*
X14641491Y-17214770D02*
X14641491Y-17262389D01*
X14641491Y-17262389D02*
X14631967Y-17281436D01*
X14631967Y-17281436D02*
X14622444Y-17290960D01*
X14622444Y-17290960D02*
X14603396Y-17300484D01*
X14603396Y-17300484D02*
X14555777Y-17300484D01*
X14555777Y-17300484D02*
X14536729Y-17290960D01*
X14536729Y-17290960D02*
X14527206Y-17281436D01*
X14831967Y-17300484D02*
X14717682Y-17300484D01*
X14774825Y-17300484D02*
X14774825Y-17100484D01*
X14774825Y-17100484D02*
X14755777Y-17129055D01*
X14755777Y-17129055D02*
X14736729Y-17148103D01*
X14736729Y-17148103D02*
X14717682Y-17157627D01*
X14908158Y-17119531D02*
X14917682Y-17110008D01*
X14917682Y-17110008D02*
X14936729Y-17100484D01*
X14936729Y-17100484D02*
X14984348Y-17100484D01*
X14984348Y-17100484D02*
X15003396Y-17110008D01*
X15003396Y-17110008D02*
X15012920Y-17119531D01*
X15012920Y-17119531D02*
X15022444Y-17138579D01*
X15022444Y-17138579D02*
X15022444Y-17157627D01*
X15022444Y-17157627D02*
X15012920Y-17186198D01*
X15012920Y-17186198D02*
X14898634Y-17300484D01*
X14898634Y-17300484D02*
X15022444Y-17300484D01*
X15098634Y-17100484D02*
X15098634Y-17138579D01*
X15174825Y-17100484D02*
X15174825Y-17138579D01*
X15470063Y-17376674D02*
X15460539Y-17367150D01*
X15460539Y-17367150D02*
X15441491Y-17338579D01*
X15441491Y-17338579D02*
X15431968Y-17319531D01*
X15431968Y-17319531D02*
X15422444Y-17290960D01*
X15422444Y-17290960D02*
X15412920Y-17243341D01*
X15412920Y-17243341D02*
X15412920Y-17205246D01*
X15412920Y-17205246D02*
X15422444Y-17157627D01*
X15422444Y-17157627D02*
X15431968Y-17129055D01*
X15431968Y-17129055D02*
X15441491Y-17110008D01*
X15441491Y-17110008D02*
X15460539Y-17081436D01*
X15460539Y-17081436D02*
X15470063Y-17071912D01*
X15631968Y-17167150D02*
X15631968Y-17300484D01*
X15584348Y-17090960D02*
X15536729Y-17233817D01*
X15536729Y-17233817D02*
X15660539Y-17233817D01*
X15889110Y-17300484D02*
X15889110Y-17100484D01*
X15974825Y-17300484D02*
X15974825Y-17195722D01*
X15974825Y-17195722D02*
X15965301Y-17176674D01*
X15965301Y-17176674D02*
X15946253Y-17167150D01*
X15946253Y-17167150D02*
X15917682Y-17167150D01*
X15917682Y-17167150D02*
X15898634Y-17176674D01*
X15898634Y-17176674D02*
X15889110Y-17186198D01*
X16098634Y-17300484D02*
X16079587Y-17290960D01*
X16079587Y-17290960D02*
X16070063Y-17281436D01*
X16070063Y-17281436D02*
X16060539Y-17262389D01*
X16060539Y-17262389D02*
X16060539Y-17205246D01*
X16060539Y-17205246D02*
X16070063Y-17186198D01*
X16070063Y-17186198D02*
X16079587Y-17176674D01*
X16079587Y-17176674D02*
X16098634Y-17167150D01*
X16098634Y-17167150D02*
X16127206Y-17167150D01*
X16127206Y-17167150D02*
X16146253Y-17176674D01*
X16146253Y-17176674D02*
X16155777Y-17186198D01*
X16155777Y-17186198D02*
X16165301Y-17205246D01*
X16165301Y-17205246D02*
X16165301Y-17262389D01*
X16165301Y-17262389D02*
X16155777Y-17281436D01*
X16155777Y-17281436D02*
X16146253Y-17290960D01*
X16146253Y-17290960D02*
X16127206Y-17300484D01*
X16127206Y-17300484D02*
X16098634Y-17300484D01*
X16279587Y-17300484D02*
X16260539Y-17290960D01*
X16260539Y-17290960D02*
X16251015Y-17271912D01*
X16251015Y-17271912D02*
X16251015Y-17100484D01*
X16431968Y-17290960D02*
X16412920Y-17300484D01*
X16412920Y-17300484D02*
X16374825Y-17300484D01*
X16374825Y-17300484D02*
X16355777Y-17290960D01*
X16355777Y-17290960D02*
X16346253Y-17271912D01*
X16346253Y-17271912D02*
X16346253Y-17195722D01*
X16346253Y-17195722D02*
X16355777Y-17176674D01*
X16355777Y-17176674D02*
X16374825Y-17167150D01*
X16374825Y-17167150D02*
X16412920Y-17167150D01*
X16412920Y-17167150D02*
X16431968Y-17176674D01*
X16431968Y-17176674D02*
X16441491Y-17195722D01*
X16441491Y-17195722D02*
X16441491Y-17214770D01*
X16441491Y-17214770D02*
X16346253Y-17233817D01*
X16517682Y-17290960D02*
X16536730Y-17300484D01*
X16536730Y-17300484D02*
X16574825Y-17300484D01*
X16574825Y-17300484D02*
X16593872Y-17290960D01*
X16593872Y-17290960D02*
X16603396Y-17271912D01*
X16603396Y-17271912D02*
X16603396Y-17262389D01*
X16603396Y-17262389D02*
X16593872Y-17243341D01*
X16593872Y-17243341D02*
X16574825Y-17233817D01*
X16574825Y-17233817D02*
X16546253Y-17233817D01*
X16546253Y-17233817D02*
X16527206Y-17224293D01*
X16527206Y-17224293D02*
X16517682Y-17205246D01*
X16517682Y-17205246D02*
X16517682Y-17195722D01*
X16517682Y-17195722D02*
X16527206Y-17176674D01*
X16527206Y-17176674D02*
X16546253Y-17167150D01*
X16546253Y-17167150D02*
X16574825Y-17167150D01*
X16574825Y-17167150D02*
X16593872Y-17176674D01*
X16670063Y-17376674D02*
X16679587Y-17367150D01*
X16679587Y-17367150D02*
X16698634Y-17338579D01*
X16698634Y-17338579D02*
X16708158Y-17319531D01*
X16708158Y-17319531D02*
X16717682Y-17290960D01*
X16717682Y-17290960D02*
X16727206Y-17243341D01*
X16727206Y-17243341D02*
X16727206Y-17205246D01*
X16727206Y-17205246D02*
X16717682Y-17157627D01*
X16717682Y-17157627D02*
X16708158Y-17129055D01*
X16708158Y-17129055D02*
X16698634Y-17110008D01*
X16698634Y-17110008D02*
X16679587Y-17081436D01*
X16679587Y-17081436D02*
X16670063Y-17071912D01*
M02*
