%TF.GenerationSoftware,KiCad,Pcbnew,(6.0.9)*%
%TF.CreationDate,2023-04-12T13:33:41+10:00*%
%TF.ProjectId,VisorPlate2.0,5669736f-7250-46c6-9174-65322e302e6b,rev?*%
%TF.SameCoordinates,Original*%
%TF.FileFunction,Drillmap*%
%TF.FilePolarity,Positive*%
%FSLAX45Y45*%
G04 Gerber Fmt 4.5, Leading zero omitted, Abs format (unit mm)*
G04 Created by KiCad (PCBNEW (6.0.9)) date 2023-04-12 13:33:41*
%MOMM*%
%LPD*%
G01*
G04 APERTURE LIST*
%ADD10C,0.100000*%
%ADD11C,0.200000*%
%ADD12C,0.040000*%
%ADD13C,0.076200*%
G04 APERTURE END LIST*
D10*
X15295000Y-8216075D02*
G75*
G03*
X15295000Y-8216075I-95000J0D01*
G01*
X15295000Y-5790000D02*
G75*
G03*
X15295000Y-5790000I-95000J0D01*
G01*
X10475000Y-5585000D02*
X10475000Y-8425000D01*
X15515000Y-5585000D02*
X10475000Y-5585000D01*
X15515000Y-8425000D02*
X15515000Y-5585000D01*
X10475000Y-8425000D02*
X15515000Y-8425000D01*
X10885000Y-8216075D02*
G75*
G03*
X10885000Y-8216075I-95000J0D01*
G01*
X10885000Y-5790000D02*
G75*
G03*
X10885000Y-5790000I-95000J0D01*
G01*
X13245000Y-7048008D02*
X13245000Y-7548008D01*
X12745000Y-7048008D02*
X13245000Y-7048008D01*
X12745000Y-7548008D02*
X12745000Y-7048008D01*
X13245000Y-7548008D02*
X12745000Y-7548008D01*
D11*
D12*
X10781500Y-7545000D02*
X10821500Y-7585000D01*
X10821500Y-7545000D02*
X10781500Y-7585000D01*
X10908500Y-6615000D02*
X10948500Y-6655000D01*
X10948500Y-6615000D02*
X10908500Y-6655000D01*
X10908500Y-7545000D02*
X10948500Y-7585000D01*
X10948500Y-7545000D02*
X10908500Y-7585000D01*
X10963050Y-6355000D02*
X11003050Y-6395000D01*
X11003050Y-6355000D02*
X10963050Y-6395000D01*
X11120000Y-7260000D02*
X11160000Y-7300000D01*
X11160000Y-7260000D02*
X11120000Y-7300000D01*
X11155000Y-7730000D02*
X11195000Y-7770000D01*
X11195000Y-7730000D02*
X11155000Y-7770000D01*
X11480000Y-7755000D02*
X11520000Y-7795000D01*
X11520000Y-7755000D02*
X11480000Y-7795000D01*
X11543500Y-7545000D02*
X11583500Y-7585000D01*
X11583500Y-7545000D02*
X11543500Y-7585000D01*
X11716270Y-6443730D02*
X11756270Y-6483730D01*
X11756270Y-6443730D02*
X11716270Y-6483730D01*
X11730000Y-6305000D02*
X11770000Y-6345000D01*
X11770000Y-6305000D02*
X11730000Y-6345000D01*
X11820856Y-6373770D02*
X11860856Y-6413770D01*
X11860856Y-6373770D02*
X11820856Y-6413770D01*
X11848770Y-6828770D02*
X11888770Y-6868770D01*
X11888770Y-6828770D02*
X11848770Y-6868770D01*
X12054770Y-6304770D02*
X12094770Y-6344770D01*
X12094770Y-6304770D02*
X12054770Y-6344770D01*
X12178500Y-7545000D02*
X12218500Y-7585000D01*
X12218500Y-7545000D02*
X12178500Y-7585000D01*
X12780000Y-6140000D02*
X12820000Y-6180000D01*
X12820000Y-6140000D02*
X12780000Y-6180000D01*
X13836270Y-5763730D02*
X13876270Y-5803730D01*
X13876270Y-5763730D02*
X13836270Y-5803730D01*
X13857520Y-6817520D02*
X13897520Y-6857520D01*
X13897520Y-6817520D02*
X13857520Y-6857520D01*
X13900550Y-6630000D02*
X13940550Y-6670000D01*
X13940550Y-6630000D02*
X13900550Y-6670000D01*
X13908500Y-7545000D02*
X13948500Y-7585000D01*
X13948500Y-7545000D02*
X13908500Y-7585000D01*
X14160000Y-7280000D02*
X14200000Y-7320000D01*
X14200000Y-7280000D02*
X14160000Y-7320000D01*
X14162500Y-6615000D02*
X14202500Y-6655000D01*
X14202500Y-6615000D02*
X14162500Y-6655000D01*
X14480000Y-7752450D02*
X14520000Y-7792450D01*
X14520000Y-7752450D02*
X14480000Y-7792450D01*
X14527450Y-7280000D02*
X14567450Y-7320000D01*
X14567450Y-7280000D02*
X14527450Y-7320000D01*
X14543500Y-7545000D02*
X14583500Y-7585000D01*
X14583500Y-7545000D02*
X14543500Y-7585000D01*
X14660550Y-6615000D02*
X14700550Y-6655000D01*
X14700550Y-6615000D02*
X14660550Y-6655000D01*
X15004770Y-6354770D02*
X15044770Y-6394770D01*
X15044770Y-6354770D02*
X15004770Y-6394770D01*
X15178500Y-7545000D02*
X15218500Y-7585000D01*
X15218500Y-7545000D02*
X15178500Y-7585000D01*
D13*
X10659100Y-6131000D02*
G75*
G03*
X10659100Y-6131000I-38100J0D01*
G01*
X10659100Y-7881000D02*
G75*
G03*
X10659100Y-7881000I-38100J0D01*
G01*
X10909100Y-6131000D02*
G75*
G03*
X10909100Y-6131000I-38100J0D01*
G01*
X10909100Y-7881000D02*
G75*
G03*
X10909100Y-7881000I-38100J0D01*
G01*
X11159100Y-6131000D02*
G75*
G03*
X11159100Y-6131000I-38100J0D01*
G01*
X11159100Y-7881000D02*
G75*
G03*
X11159100Y-7881000I-38100J0D01*
G01*
X11409100Y-6131000D02*
G75*
G03*
X11409100Y-6131000I-38100J0D01*
G01*
X11409100Y-7881000D02*
G75*
G03*
X11409100Y-7881000I-38100J0D01*
G01*
X11659100Y-6131000D02*
G75*
G03*
X11659100Y-6131000I-38100J0D01*
G01*
X11659100Y-7881000D02*
G75*
G03*
X11659100Y-7881000I-38100J0D01*
G01*
X11909100Y-6131000D02*
G75*
G03*
X11909100Y-6131000I-38100J0D01*
G01*
X11909100Y-7881000D02*
G75*
G03*
X11909100Y-7881000I-38100J0D01*
G01*
X12159100Y-6131000D02*
G75*
G03*
X12159100Y-6131000I-38100J0D01*
G01*
X12159100Y-7881000D02*
G75*
G03*
X12159100Y-7881000I-38100J0D01*
G01*
X12409100Y-6131000D02*
G75*
G03*
X12409100Y-6131000I-38100J0D01*
G01*
X12409100Y-7881000D02*
G75*
G03*
X12409100Y-7881000I-38100J0D01*
G01*
X13659100Y-6131000D02*
G75*
G03*
X13659100Y-6131000I-38100J0D01*
G01*
X13659100Y-7881000D02*
G75*
G03*
X13659100Y-7881000I-38100J0D01*
G01*
X13909100Y-6131000D02*
G75*
G03*
X13909100Y-6131000I-38100J0D01*
G01*
X13909100Y-7881000D02*
G75*
G03*
X13909100Y-7881000I-38100J0D01*
G01*
X14159100Y-6131000D02*
G75*
G03*
X14159100Y-6131000I-38100J0D01*
G01*
X14159100Y-7881000D02*
G75*
G03*
X14159100Y-7881000I-38100J0D01*
G01*
X14409100Y-6131000D02*
G75*
G03*
X14409100Y-6131000I-38100J0D01*
G01*
X14409100Y-7881000D02*
G75*
G03*
X14409100Y-7881000I-38100J0D01*
G01*
X14659100Y-6131000D02*
G75*
G03*
X14659100Y-6131000I-38100J0D01*
G01*
X14659100Y-7881000D02*
G75*
G03*
X14659100Y-7881000I-38100J0D01*
G01*
X14909100Y-6131000D02*
G75*
G03*
X14909100Y-6131000I-38100J0D01*
G01*
X14909100Y-7881000D02*
G75*
G03*
X14909100Y-7881000I-38100J0D01*
G01*
X15159100Y-6131000D02*
G75*
G03*
X15159100Y-6131000I-38100J0D01*
G01*
X15159100Y-7881000D02*
G75*
G03*
X15159100Y-7881000I-38100J0D01*
G01*
X15409100Y-6131000D02*
G75*
G03*
X15409100Y-6131000I-38100J0D01*
G01*
X15409100Y-7881000D02*
G75*
G03*
X15409100Y-7881000I-38100J0D01*
G01*
D10*
X12367500Y-5747500D02*
X12367500Y-5847500D01*
X12317500Y-5797500D02*
X12417500Y-5797500D01*
X12621500Y-5747500D02*
X12621500Y-5847500D01*
X12571500Y-5797500D02*
X12671500Y-5797500D01*
X12875500Y-5747500D02*
X12875500Y-5847500D01*
X12825500Y-5797500D02*
X12925500Y-5797500D01*
X13129500Y-5747500D02*
X13129500Y-5847500D01*
X13079500Y-5797500D02*
X13179500Y-5797500D01*
X13383500Y-5747500D02*
X13383500Y-5847500D01*
X13333500Y-5797500D02*
X13433500Y-5797500D01*
X13637500Y-5747500D02*
X13637500Y-5847500D01*
X13587500Y-5797500D02*
X13687500Y-5797500D01*
D11*
X10727619Y-8740476D02*
X10727619Y-8540476D01*
X10775238Y-8540476D01*
X10803810Y-8550000D01*
X10822857Y-8569048D01*
X10832381Y-8588095D01*
X10841905Y-8626190D01*
X10841905Y-8654762D01*
X10832381Y-8692857D01*
X10822857Y-8711905D01*
X10803810Y-8730952D01*
X10775238Y-8740476D01*
X10727619Y-8740476D01*
X10927619Y-8740476D02*
X10927619Y-8607143D01*
X10927619Y-8645238D02*
X10937143Y-8626190D01*
X10946667Y-8616667D01*
X10965714Y-8607143D01*
X10984762Y-8607143D01*
X11051429Y-8740476D02*
X11051429Y-8607143D01*
X11051429Y-8540476D02*
X11041905Y-8550000D01*
X11051429Y-8559524D01*
X11060952Y-8550000D01*
X11051429Y-8540476D01*
X11051429Y-8559524D01*
X11175238Y-8740476D02*
X11156190Y-8730952D01*
X11146667Y-8711905D01*
X11146667Y-8540476D01*
X11280000Y-8740476D02*
X11260952Y-8730952D01*
X11251428Y-8711905D01*
X11251428Y-8540476D01*
X11508571Y-8740476D02*
X11508571Y-8540476D01*
X11575238Y-8683333D01*
X11641905Y-8540476D01*
X11641905Y-8740476D01*
X11822857Y-8740476D02*
X11822857Y-8635714D01*
X11813333Y-8616667D01*
X11794286Y-8607143D01*
X11756190Y-8607143D01*
X11737143Y-8616667D01*
X11822857Y-8730952D02*
X11803809Y-8740476D01*
X11756190Y-8740476D01*
X11737143Y-8730952D01*
X11727619Y-8711905D01*
X11727619Y-8692857D01*
X11737143Y-8673810D01*
X11756190Y-8664286D01*
X11803809Y-8664286D01*
X11822857Y-8654762D01*
X11918095Y-8607143D02*
X11918095Y-8807143D01*
X11918095Y-8616667D02*
X11937143Y-8607143D01*
X11975238Y-8607143D01*
X11994286Y-8616667D01*
X12003809Y-8626190D01*
X12013333Y-8645238D01*
X12013333Y-8702381D01*
X12003809Y-8721429D01*
X11994286Y-8730952D01*
X11975238Y-8740476D01*
X11937143Y-8740476D01*
X11918095Y-8730952D01*
X12099048Y-8721429D02*
X12108571Y-8730952D01*
X12099048Y-8740476D01*
X12089524Y-8730952D01*
X12099048Y-8721429D01*
X12099048Y-8740476D01*
X12099048Y-8616667D02*
X12108571Y-8626190D01*
X12099048Y-8635714D01*
X12089524Y-8626190D01*
X12099048Y-8616667D01*
X12099048Y-8635714D01*
D12*
X10430000Y-9050000D02*
X10470000Y-9090000D01*
X10470000Y-9050000D02*
X10430000Y-9090000D01*
D11*
X10765714Y-8960476D02*
X10784762Y-8960476D01*
X10803810Y-8970000D01*
X10813333Y-8979524D01*
X10822857Y-8998571D01*
X10832381Y-9036667D01*
X10832381Y-9084286D01*
X10822857Y-9122381D01*
X10813333Y-9141429D01*
X10803810Y-9150952D01*
X10784762Y-9160476D01*
X10765714Y-9160476D01*
X10746667Y-9150952D01*
X10737143Y-9141429D01*
X10727619Y-9122381D01*
X10718095Y-9084286D01*
X10718095Y-9036667D01*
X10727619Y-8998571D01*
X10737143Y-8979524D01*
X10746667Y-8970000D01*
X10765714Y-8960476D01*
X10918095Y-9141429D02*
X10927619Y-9150952D01*
X10918095Y-9160476D01*
X10908571Y-9150952D01*
X10918095Y-9141429D01*
X10918095Y-9160476D01*
X11099048Y-9027143D02*
X11099048Y-9160476D01*
X11051429Y-8950952D02*
X11003810Y-9093810D01*
X11127619Y-9093810D01*
X11241905Y-8960476D02*
X11260952Y-8960476D01*
X11280000Y-8970000D01*
X11289524Y-8979524D01*
X11299048Y-8998571D01*
X11308571Y-9036667D01*
X11308571Y-9084286D01*
X11299048Y-9122381D01*
X11289524Y-9141429D01*
X11280000Y-9150952D01*
X11260952Y-9160476D01*
X11241905Y-9160476D01*
X11222857Y-9150952D01*
X11213333Y-9141429D01*
X11203809Y-9122381D01*
X11194286Y-9084286D01*
X11194286Y-9036667D01*
X11203809Y-8998571D01*
X11213333Y-8979524D01*
X11222857Y-8970000D01*
X11241905Y-8960476D01*
X11432381Y-8960476D02*
X11451428Y-8960476D01*
X11470476Y-8970000D01*
X11480000Y-8979524D01*
X11489524Y-8998571D01*
X11499048Y-9036667D01*
X11499048Y-9084286D01*
X11489524Y-9122381D01*
X11480000Y-9141429D01*
X11470476Y-9150952D01*
X11451428Y-9160476D01*
X11432381Y-9160476D01*
X11413333Y-9150952D01*
X11403809Y-9141429D01*
X11394286Y-9122381D01*
X11384762Y-9084286D01*
X11384762Y-9036667D01*
X11394286Y-8998571D01*
X11403809Y-8979524D01*
X11413333Y-8970000D01*
X11432381Y-8960476D01*
X11584762Y-9160476D02*
X11584762Y-9027143D01*
X11584762Y-9046190D02*
X11594286Y-9036667D01*
X11613333Y-9027143D01*
X11641905Y-9027143D01*
X11660952Y-9036667D01*
X11670476Y-9055714D01*
X11670476Y-9160476D01*
X11670476Y-9055714D02*
X11680000Y-9036667D01*
X11699048Y-9027143D01*
X11727619Y-9027143D01*
X11746667Y-9036667D01*
X11756190Y-9055714D01*
X11756190Y-9160476D01*
X11851428Y-9160476D02*
X11851428Y-9027143D01*
X11851428Y-9046190D02*
X11860952Y-9036667D01*
X11880000Y-9027143D01*
X11908571Y-9027143D01*
X11927619Y-9036667D01*
X11937143Y-9055714D01*
X11937143Y-9160476D01*
X11937143Y-9055714D02*
X11946667Y-9036667D01*
X11965714Y-9027143D01*
X11994286Y-9027143D01*
X12013333Y-9036667D01*
X12022857Y-9055714D01*
X12022857Y-9160476D01*
X12413333Y-8950952D02*
X12241905Y-9208095D01*
X12670476Y-8960476D02*
X12689524Y-8960476D01*
X12708571Y-8970000D01*
X12718095Y-8979524D01*
X12727619Y-8998571D01*
X12737143Y-9036667D01*
X12737143Y-9084286D01*
X12727619Y-9122381D01*
X12718095Y-9141429D01*
X12708571Y-9150952D01*
X12689524Y-9160476D01*
X12670476Y-9160476D01*
X12651428Y-9150952D01*
X12641905Y-9141429D01*
X12632381Y-9122381D01*
X12622857Y-9084286D01*
X12622857Y-9036667D01*
X12632381Y-8998571D01*
X12641905Y-8979524D01*
X12651428Y-8970000D01*
X12670476Y-8960476D01*
X12822857Y-9141429D02*
X12832381Y-9150952D01*
X12822857Y-9160476D01*
X12813333Y-9150952D01*
X12822857Y-9141429D01*
X12822857Y-9160476D01*
X12956190Y-8960476D02*
X12975238Y-8960476D01*
X12994286Y-8970000D01*
X13003809Y-8979524D01*
X13013333Y-8998571D01*
X13022857Y-9036667D01*
X13022857Y-9084286D01*
X13013333Y-9122381D01*
X13003809Y-9141429D01*
X12994286Y-9150952D01*
X12975238Y-9160476D01*
X12956190Y-9160476D01*
X12937143Y-9150952D01*
X12927619Y-9141429D01*
X12918095Y-9122381D01*
X12908571Y-9084286D01*
X12908571Y-9036667D01*
X12918095Y-8998571D01*
X12927619Y-8979524D01*
X12937143Y-8970000D01*
X12956190Y-8960476D01*
X13213333Y-9160476D02*
X13099048Y-9160476D01*
X13156190Y-9160476D02*
X13156190Y-8960476D01*
X13137143Y-8989048D01*
X13118095Y-9008095D01*
X13099048Y-9017619D01*
X13394286Y-8960476D02*
X13299048Y-8960476D01*
X13289524Y-9055714D01*
X13299048Y-9046190D01*
X13318095Y-9036667D01*
X13365714Y-9036667D01*
X13384762Y-9046190D01*
X13394286Y-9055714D01*
X13403809Y-9074762D01*
X13403809Y-9122381D01*
X13394286Y-9141429D01*
X13384762Y-9150952D01*
X13365714Y-9160476D01*
X13318095Y-9160476D01*
X13299048Y-9150952D01*
X13289524Y-9141429D01*
X13470476Y-8960476D02*
X13603809Y-8960476D01*
X13518095Y-9160476D01*
X13670476Y-8960476D02*
X13670476Y-8998571D01*
X13746667Y-8960476D02*
X13746667Y-8998571D01*
X14041905Y-9236667D02*
X14032381Y-9227143D01*
X14013333Y-9198571D01*
X14003809Y-9179524D01*
X13994286Y-9150952D01*
X13984762Y-9103333D01*
X13984762Y-9065238D01*
X13994286Y-9017619D01*
X14003809Y-8989048D01*
X14013333Y-8970000D01*
X14032381Y-8941429D01*
X14041905Y-8931905D01*
X14108571Y-8979524D02*
X14118095Y-8970000D01*
X14137143Y-8960476D01*
X14184762Y-8960476D01*
X14203809Y-8970000D01*
X14213333Y-8979524D01*
X14222857Y-8998571D01*
X14222857Y-9017619D01*
X14213333Y-9046190D01*
X14099048Y-9160476D01*
X14222857Y-9160476D01*
X14289524Y-8960476D02*
X14422857Y-8960476D01*
X14337143Y-9160476D01*
X14651428Y-9160476D02*
X14651428Y-8960476D01*
X14737143Y-9160476D02*
X14737143Y-9055714D01*
X14727619Y-9036667D01*
X14708571Y-9027143D01*
X14680000Y-9027143D01*
X14660952Y-9036667D01*
X14651428Y-9046190D01*
X14860952Y-9160476D02*
X14841905Y-9150952D01*
X14832381Y-9141429D01*
X14822857Y-9122381D01*
X14822857Y-9065238D01*
X14832381Y-9046190D01*
X14841905Y-9036667D01*
X14860952Y-9027143D01*
X14889524Y-9027143D01*
X14908571Y-9036667D01*
X14918095Y-9046190D01*
X14927619Y-9065238D01*
X14927619Y-9122381D01*
X14918095Y-9141429D01*
X14908571Y-9150952D01*
X14889524Y-9160476D01*
X14860952Y-9160476D01*
X15041905Y-9160476D02*
X15022857Y-9150952D01*
X15013333Y-9131905D01*
X15013333Y-8960476D01*
X15194286Y-9150952D02*
X15175238Y-9160476D01*
X15137143Y-9160476D01*
X15118095Y-9150952D01*
X15108571Y-9131905D01*
X15108571Y-9055714D01*
X15118095Y-9036667D01*
X15137143Y-9027143D01*
X15175238Y-9027143D01*
X15194286Y-9036667D01*
X15203809Y-9055714D01*
X15203809Y-9074762D01*
X15108571Y-9093810D01*
X15280000Y-9150952D02*
X15299048Y-9160476D01*
X15337143Y-9160476D01*
X15356190Y-9150952D01*
X15365714Y-9131905D01*
X15365714Y-9122381D01*
X15356190Y-9103333D01*
X15337143Y-9093810D01*
X15308571Y-9093810D01*
X15289524Y-9084286D01*
X15280000Y-9065238D01*
X15280000Y-9055714D01*
X15289524Y-9036667D01*
X15308571Y-9027143D01*
X15337143Y-9027143D01*
X15356190Y-9036667D01*
X15432381Y-9236667D02*
X15441905Y-9227143D01*
X15460952Y-9198571D01*
X15470476Y-9179524D01*
X15480000Y-9150952D01*
X15489524Y-9103333D01*
X15489524Y-9065238D01*
X15480000Y-9017619D01*
X15470476Y-8989048D01*
X15460952Y-8970000D01*
X15441905Y-8941429D01*
X15432381Y-8931905D01*
D13*
X10470000Y-9334000D02*
G75*
G03*
X10470000Y-9334000I-38100J0D01*
G01*
D11*
X10765714Y-9224476D02*
X10784762Y-9224476D01*
X10803810Y-9234000D01*
X10813333Y-9243524D01*
X10822857Y-9262571D01*
X10832381Y-9300667D01*
X10832381Y-9348286D01*
X10822857Y-9386381D01*
X10813333Y-9405429D01*
X10803810Y-9414952D01*
X10784762Y-9424476D01*
X10765714Y-9424476D01*
X10746667Y-9414952D01*
X10737143Y-9405429D01*
X10727619Y-9386381D01*
X10718095Y-9348286D01*
X10718095Y-9300667D01*
X10727619Y-9262571D01*
X10737143Y-9243524D01*
X10746667Y-9234000D01*
X10765714Y-9224476D01*
X10918095Y-9405429D02*
X10927619Y-9414952D01*
X10918095Y-9424476D01*
X10908571Y-9414952D01*
X10918095Y-9405429D01*
X10918095Y-9424476D01*
X10994286Y-9224476D02*
X11127619Y-9224476D01*
X11041905Y-9424476D01*
X11289524Y-9224476D02*
X11251428Y-9224476D01*
X11232381Y-9234000D01*
X11222857Y-9243524D01*
X11203809Y-9272095D01*
X11194286Y-9310190D01*
X11194286Y-9386381D01*
X11203809Y-9405429D01*
X11213333Y-9414952D01*
X11232381Y-9424476D01*
X11270476Y-9424476D01*
X11289524Y-9414952D01*
X11299048Y-9405429D01*
X11308571Y-9386381D01*
X11308571Y-9338762D01*
X11299048Y-9319714D01*
X11289524Y-9310190D01*
X11270476Y-9300667D01*
X11232381Y-9300667D01*
X11213333Y-9310190D01*
X11203809Y-9319714D01*
X11194286Y-9338762D01*
X11384762Y-9243524D02*
X11394286Y-9234000D01*
X11413333Y-9224476D01*
X11460952Y-9224476D01*
X11480000Y-9234000D01*
X11489524Y-9243524D01*
X11499048Y-9262571D01*
X11499048Y-9281619D01*
X11489524Y-9310190D01*
X11375238Y-9424476D01*
X11499048Y-9424476D01*
X11584762Y-9424476D02*
X11584762Y-9291143D01*
X11584762Y-9310190D02*
X11594286Y-9300667D01*
X11613333Y-9291143D01*
X11641905Y-9291143D01*
X11660952Y-9300667D01*
X11670476Y-9319714D01*
X11670476Y-9424476D01*
X11670476Y-9319714D02*
X11680000Y-9300667D01*
X11699048Y-9291143D01*
X11727619Y-9291143D01*
X11746667Y-9300667D01*
X11756190Y-9319714D01*
X11756190Y-9424476D01*
X11851428Y-9424476D02*
X11851428Y-9291143D01*
X11851428Y-9310190D02*
X11860952Y-9300667D01*
X11880000Y-9291143D01*
X11908571Y-9291143D01*
X11927619Y-9300667D01*
X11937143Y-9319714D01*
X11937143Y-9424476D01*
X11937143Y-9319714D02*
X11946667Y-9300667D01*
X11965714Y-9291143D01*
X11994286Y-9291143D01*
X12013333Y-9300667D01*
X12022857Y-9319714D01*
X12022857Y-9424476D01*
X12413333Y-9214952D02*
X12241905Y-9472095D01*
X12670476Y-9224476D02*
X12689524Y-9224476D01*
X12708571Y-9234000D01*
X12718095Y-9243524D01*
X12727619Y-9262571D01*
X12737143Y-9300667D01*
X12737143Y-9348286D01*
X12727619Y-9386381D01*
X12718095Y-9405429D01*
X12708571Y-9414952D01*
X12689524Y-9424476D01*
X12670476Y-9424476D01*
X12651428Y-9414952D01*
X12641905Y-9405429D01*
X12632381Y-9386381D01*
X12622857Y-9348286D01*
X12622857Y-9300667D01*
X12632381Y-9262571D01*
X12641905Y-9243524D01*
X12651428Y-9234000D01*
X12670476Y-9224476D01*
X12822857Y-9405429D02*
X12832381Y-9414952D01*
X12822857Y-9424476D01*
X12813333Y-9414952D01*
X12822857Y-9405429D01*
X12822857Y-9424476D01*
X12956190Y-9224476D02*
X12975238Y-9224476D01*
X12994286Y-9234000D01*
X13003809Y-9243524D01*
X13013333Y-9262571D01*
X13022857Y-9300667D01*
X13022857Y-9348286D01*
X13013333Y-9386381D01*
X13003809Y-9405429D01*
X12994286Y-9414952D01*
X12975238Y-9424476D01*
X12956190Y-9424476D01*
X12937143Y-9414952D01*
X12927619Y-9405429D01*
X12918095Y-9386381D01*
X12908571Y-9348286D01*
X12908571Y-9300667D01*
X12918095Y-9262571D01*
X12927619Y-9243524D01*
X12937143Y-9234000D01*
X12956190Y-9224476D01*
X13089524Y-9224476D02*
X13213333Y-9224476D01*
X13146667Y-9300667D01*
X13175238Y-9300667D01*
X13194286Y-9310190D01*
X13203809Y-9319714D01*
X13213333Y-9338762D01*
X13213333Y-9386381D01*
X13203809Y-9405429D01*
X13194286Y-9414952D01*
X13175238Y-9424476D01*
X13118095Y-9424476D01*
X13099048Y-9414952D01*
X13089524Y-9405429D01*
X13337143Y-9224476D02*
X13356190Y-9224476D01*
X13375238Y-9234000D01*
X13384762Y-9243524D01*
X13394286Y-9262571D01*
X13403809Y-9300667D01*
X13403809Y-9348286D01*
X13394286Y-9386381D01*
X13384762Y-9405429D01*
X13375238Y-9414952D01*
X13356190Y-9424476D01*
X13337143Y-9424476D01*
X13318095Y-9414952D01*
X13308571Y-9405429D01*
X13299048Y-9386381D01*
X13289524Y-9348286D01*
X13289524Y-9300667D01*
X13299048Y-9262571D01*
X13308571Y-9243524D01*
X13318095Y-9234000D01*
X13337143Y-9224476D01*
X13527619Y-9224476D02*
X13546667Y-9224476D01*
X13565714Y-9234000D01*
X13575238Y-9243524D01*
X13584762Y-9262571D01*
X13594286Y-9300667D01*
X13594286Y-9348286D01*
X13584762Y-9386381D01*
X13575238Y-9405429D01*
X13565714Y-9414952D01*
X13546667Y-9424476D01*
X13527619Y-9424476D01*
X13508571Y-9414952D01*
X13499048Y-9405429D01*
X13489524Y-9386381D01*
X13480000Y-9348286D01*
X13480000Y-9300667D01*
X13489524Y-9262571D01*
X13499048Y-9243524D01*
X13508571Y-9234000D01*
X13527619Y-9224476D01*
X13670476Y-9224476D02*
X13670476Y-9262571D01*
X13746667Y-9224476D02*
X13746667Y-9262571D01*
X14041905Y-9500667D02*
X14032381Y-9491143D01*
X14013333Y-9462571D01*
X14003809Y-9443524D01*
X13994286Y-9414952D01*
X13984762Y-9367333D01*
X13984762Y-9329238D01*
X13994286Y-9281619D01*
X14003809Y-9253048D01*
X14013333Y-9234000D01*
X14032381Y-9205429D01*
X14041905Y-9195905D01*
X14099048Y-9224476D02*
X14222857Y-9224476D01*
X14156190Y-9300667D01*
X14184762Y-9300667D01*
X14203809Y-9310190D01*
X14213333Y-9319714D01*
X14222857Y-9338762D01*
X14222857Y-9386381D01*
X14213333Y-9405429D01*
X14203809Y-9414952D01*
X14184762Y-9424476D01*
X14127619Y-9424476D01*
X14108571Y-9414952D01*
X14099048Y-9405429D01*
X14299048Y-9243524D02*
X14308571Y-9234000D01*
X14327619Y-9224476D01*
X14375238Y-9224476D01*
X14394286Y-9234000D01*
X14403809Y-9243524D01*
X14413333Y-9262571D01*
X14413333Y-9281619D01*
X14403809Y-9310190D01*
X14289524Y-9424476D01*
X14413333Y-9424476D01*
X14651428Y-9424476D02*
X14651428Y-9224476D01*
X14737143Y-9424476D02*
X14737143Y-9319714D01*
X14727619Y-9300667D01*
X14708571Y-9291143D01*
X14680000Y-9291143D01*
X14660952Y-9300667D01*
X14651428Y-9310190D01*
X14860952Y-9424476D02*
X14841905Y-9414952D01*
X14832381Y-9405429D01*
X14822857Y-9386381D01*
X14822857Y-9329238D01*
X14832381Y-9310190D01*
X14841905Y-9300667D01*
X14860952Y-9291143D01*
X14889524Y-9291143D01*
X14908571Y-9300667D01*
X14918095Y-9310190D01*
X14927619Y-9329238D01*
X14927619Y-9386381D01*
X14918095Y-9405429D01*
X14908571Y-9414952D01*
X14889524Y-9424476D01*
X14860952Y-9424476D01*
X15041905Y-9424476D02*
X15022857Y-9414952D01*
X15013333Y-9395905D01*
X15013333Y-9224476D01*
X15194286Y-9414952D02*
X15175238Y-9424476D01*
X15137143Y-9424476D01*
X15118095Y-9414952D01*
X15108571Y-9395905D01*
X15108571Y-9319714D01*
X15118095Y-9300667D01*
X15137143Y-9291143D01*
X15175238Y-9291143D01*
X15194286Y-9300667D01*
X15203809Y-9319714D01*
X15203809Y-9338762D01*
X15108571Y-9357810D01*
X15280000Y-9414952D02*
X15299048Y-9424476D01*
X15337143Y-9424476D01*
X15356190Y-9414952D01*
X15365714Y-9395905D01*
X15365714Y-9386381D01*
X15356190Y-9367333D01*
X15337143Y-9357810D01*
X15308571Y-9357810D01*
X15289524Y-9348286D01*
X15280000Y-9329238D01*
X15280000Y-9319714D01*
X15289524Y-9300667D01*
X15308571Y-9291143D01*
X15337143Y-9291143D01*
X15356190Y-9300667D01*
X15432381Y-9500667D02*
X15441905Y-9491143D01*
X15460952Y-9462571D01*
X15470476Y-9443524D01*
X15480000Y-9414952D01*
X15489524Y-9367333D01*
X15489524Y-9329238D01*
X15480000Y-9281619D01*
X15470476Y-9253048D01*
X15460952Y-9234000D01*
X15441905Y-9205429D01*
X15432381Y-9195905D01*
D10*
X10420000Y-9548000D02*
X10420000Y-9648000D01*
X10370000Y-9598000D02*
X10470000Y-9598000D01*
D11*
X10832381Y-9688476D02*
X10718095Y-9688476D01*
X10775238Y-9688476D02*
X10775238Y-9488476D01*
X10756190Y-9517048D01*
X10737143Y-9536095D01*
X10718095Y-9545619D01*
X10918095Y-9669429D02*
X10927619Y-9678952D01*
X10918095Y-9688476D01*
X10908571Y-9678952D01*
X10918095Y-9669429D01*
X10918095Y-9688476D01*
X11051429Y-9488476D02*
X11070476Y-9488476D01*
X11089524Y-9498000D01*
X11099048Y-9507524D01*
X11108571Y-9526571D01*
X11118095Y-9564667D01*
X11118095Y-9612286D01*
X11108571Y-9650381D01*
X11099048Y-9669429D01*
X11089524Y-9678952D01*
X11070476Y-9688476D01*
X11051429Y-9688476D01*
X11032381Y-9678952D01*
X11022857Y-9669429D01*
X11013333Y-9650381D01*
X11003810Y-9612286D01*
X11003810Y-9564667D01*
X11013333Y-9526571D01*
X11022857Y-9507524D01*
X11032381Y-9498000D01*
X11051429Y-9488476D01*
X11241905Y-9488476D02*
X11260952Y-9488476D01*
X11280000Y-9498000D01*
X11289524Y-9507524D01*
X11299048Y-9526571D01*
X11308571Y-9564667D01*
X11308571Y-9612286D01*
X11299048Y-9650381D01*
X11289524Y-9669429D01*
X11280000Y-9678952D01*
X11260952Y-9688476D01*
X11241905Y-9688476D01*
X11222857Y-9678952D01*
X11213333Y-9669429D01*
X11203809Y-9650381D01*
X11194286Y-9612286D01*
X11194286Y-9564667D01*
X11203809Y-9526571D01*
X11213333Y-9507524D01*
X11222857Y-9498000D01*
X11241905Y-9488476D01*
X11432381Y-9488476D02*
X11451428Y-9488476D01*
X11470476Y-9498000D01*
X11480000Y-9507524D01*
X11489524Y-9526571D01*
X11499048Y-9564667D01*
X11499048Y-9612286D01*
X11489524Y-9650381D01*
X11480000Y-9669429D01*
X11470476Y-9678952D01*
X11451428Y-9688476D01*
X11432381Y-9688476D01*
X11413333Y-9678952D01*
X11403809Y-9669429D01*
X11394286Y-9650381D01*
X11384762Y-9612286D01*
X11384762Y-9564667D01*
X11394286Y-9526571D01*
X11403809Y-9507524D01*
X11413333Y-9498000D01*
X11432381Y-9488476D01*
X11584762Y-9688476D02*
X11584762Y-9555143D01*
X11584762Y-9574190D02*
X11594286Y-9564667D01*
X11613333Y-9555143D01*
X11641905Y-9555143D01*
X11660952Y-9564667D01*
X11670476Y-9583714D01*
X11670476Y-9688476D01*
X11670476Y-9583714D02*
X11680000Y-9564667D01*
X11699048Y-9555143D01*
X11727619Y-9555143D01*
X11746667Y-9564667D01*
X11756190Y-9583714D01*
X11756190Y-9688476D01*
X11851428Y-9688476D02*
X11851428Y-9555143D01*
X11851428Y-9574190D02*
X11860952Y-9564667D01*
X11880000Y-9555143D01*
X11908571Y-9555143D01*
X11927619Y-9564667D01*
X11937143Y-9583714D01*
X11937143Y-9688476D01*
X11937143Y-9583714D02*
X11946667Y-9564667D01*
X11965714Y-9555143D01*
X11994286Y-9555143D01*
X12013333Y-9564667D01*
X12022857Y-9583714D01*
X12022857Y-9688476D01*
X12413333Y-9478952D02*
X12241905Y-9736095D01*
X12670476Y-9488476D02*
X12689524Y-9488476D01*
X12708571Y-9498000D01*
X12718095Y-9507524D01*
X12727619Y-9526571D01*
X12737143Y-9564667D01*
X12737143Y-9612286D01*
X12727619Y-9650381D01*
X12718095Y-9669429D01*
X12708571Y-9678952D01*
X12689524Y-9688476D01*
X12670476Y-9688476D01*
X12651428Y-9678952D01*
X12641905Y-9669429D01*
X12632381Y-9650381D01*
X12622857Y-9612286D01*
X12622857Y-9564667D01*
X12632381Y-9526571D01*
X12641905Y-9507524D01*
X12651428Y-9498000D01*
X12670476Y-9488476D01*
X12822857Y-9669429D02*
X12832381Y-9678952D01*
X12822857Y-9688476D01*
X12813333Y-9678952D01*
X12822857Y-9669429D01*
X12822857Y-9688476D01*
X12956190Y-9488476D02*
X12975238Y-9488476D01*
X12994286Y-9498000D01*
X13003809Y-9507524D01*
X13013333Y-9526571D01*
X13022857Y-9564667D01*
X13022857Y-9612286D01*
X13013333Y-9650381D01*
X13003809Y-9669429D01*
X12994286Y-9678952D01*
X12975238Y-9688476D01*
X12956190Y-9688476D01*
X12937143Y-9678952D01*
X12927619Y-9669429D01*
X12918095Y-9650381D01*
X12908571Y-9612286D01*
X12908571Y-9564667D01*
X12918095Y-9526571D01*
X12927619Y-9507524D01*
X12937143Y-9498000D01*
X12956190Y-9488476D01*
X13089524Y-9488476D02*
X13213333Y-9488476D01*
X13146667Y-9564667D01*
X13175238Y-9564667D01*
X13194286Y-9574190D01*
X13203809Y-9583714D01*
X13213333Y-9602762D01*
X13213333Y-9650381D01*
X13203809Y-9669429D01*
X13194286Y-9678952D01*
X13175238Y-9688476D01*
X13118095Y-9688476D01*
X13099048Y-9678952D01*
X13089524Y-9669429D01*
X13308571Y-9688476D02*
X13346667Y-9688476D01*
X13365714Y-9678952D01*
X13375238Y-9669429D01*
X13394286Y-9640857D01*
X13403809Y-9602762D01*
X13403809Y-9526571D01*
X13394286Y-9507524D01*
X13384762Y-9498000D01*
X13365714Y-9488476D01*
X13327619Y-9488476D01*
X13308571Y-9498000D01*
X13299048Y-9507524D01*
X13289524Y-9526571D01*
X13289524Y-9574190D01*
X13299048Y-9593238D01*
X13308571Y-9602762D01*
X13327619Y-9612286D01*
X13365714Y-9612286D01*
X13384762Y-9602762D01*
X13394286Y-9593238D01*
X13403809Y-9574190D01*
X13575238Y-9555143D02*
X13575238Y-9688476D01*
X13527619Y-9478952D02*
X13480000Y-9621810D01*
X13603809Y-9621810D01*
X13670476Y-9488476D02*
X13670476Y-9526571D01*
X13746667Y-9488476D02*
X13746667Y-9526571D01*
X14041905Y-9764667D02*
X14032381Y-9755143D01*
X14013333Y-9726571D01*
X14003809Y-9707524D01*
X13994286Y-9678952D01*
X13984762Y-9631333D01*
X13984762Y-9593238D01*
X13994286Y-9545619D01*
X14003809Y-9517048D01*
X14013333Y-9498000D01*
X14032381Y-9469429D01*
X14041905Y-9459905D01*
X14203809Y-9488476D02*
X14165714Y-9488476D01*
X14146667Y-9498000D01*
X14137143Y-9507524D01*
X14118095Y-9536095D01*
X14108571Y-9574190D01*
X14108571Y-9650381D01*
X14118095Y-9669429D01*
X14127619Y-9678952D01*
X14146667Y-9688476D01*
X14184762Y-9688476D01*
X14203809Y-9678952D01*
X14213333Y-9669429D01*
X14222857Y-9650381D01*
X14222857Y-9602762D01*
X14213333Y-9583714D01*
X14203809Y-9574190D01*
X14184762Y-9564667D01*
X14146667Y-9564667D01*
X14127619Y-9574190D01*
X14118095Y-9583714D01*
X14108571Y-9602762D01*
X14460952Y-9688476D02*
X14460952Y-9488476D01*
X14546667Y-9688476D02*
X14546667Y-9583714D01*
X14537143Y-9564667D01*
X14518095Y-9555143D01*
X14489524Y-9555143D01*
X14470476Y-9564667D01*
X14460952Y-9574190D01*
X14670476Y-9688476D02*
X14651428Y-9678952D01*
X14641905Y-9669429D01*
X14632381Y-9650381D01*
X14632381Y-9593238D01*
X14641905Y-9574190D01*
X14651428Y-9564667D01*
X14670476Y-9555143D01*
X14699048Y-9555143D01*
X14718095Y-9564667D01*
X14727619Y-9574190D01*
X14737143Y-9593238D01*
X14737143Y-9650381D01*
X14727619Y-9669429D01*
X14718095Y-9678952D01*
X14699048Y-9688476D01*
X14670476Y-9688476D01*
X14851428Y-9688476D02*
X14832381Y-9678952D01*
X14822857Y-9659905D01*
X14822857Y-9488476D01*
X15003809Y-9678952D02*
X14984762Y-9688476D01*
X14946667Y-9688476D01*
X14927619Y-9678952D01*
X14918095Y-9659905D01*
X14918095Y-9583714D01*
X14927619Y-9564667D01*
X14946667Y-9555143D01*
X14984762Y-9555143D01*
X15003809Y-9564667D01*
X15013333Y-9583714D01*
X15013333Y-9602762D01*
X14918095Y-9621810D01*
X15089524Y-9678952D02*
X15108571Y-9688476D01*
X15146667Y-9688476D01*
X15165714Y-9678952D01*
X15175238Y-9659905D01*
X15175238Y-9650381D01*
X15165714Y-9631333D01*
X15146667Y-9621810D01*
X15118095Y-9621810D01*
X15099048Y-9612286D01*
X15089524Y-9593238D01*
X15089524Y-9583714D01*
X15099048Y-9564667D01*
X15118095Y-9555143D01*
X15146667Y-9555143D01*
X15165714Y-9564667D01*
X15241905Y-9764667D02*
X15251428Y-9755143D01*
X15270476Y-9726571D01*
X15280000Y-9707524D01*
X15289524Y-9678952D01*
X15299048Y-9631333D01*
X15299048Y-9593238D01*
X15289524Y-9545619D01*
X15280000Y-9517048D01*
X15270476Y-9498000D01*
X15251428Y-9469429D01*
X15241905Y-9459905D01*
M02*
