%TF.GenerationSoftware,KiCad,Pcbnew,7.0.6-0*%
%TF.CreationDate,2023-09-17T18:40:21+10:00*%
%TF.ProjectId,Line 3.1,4c696e65-2033-42e3-912e-6b696361645f,rev?*%
%TF.SameCoordinates,Original*%
%TF.FileFunction,Drillmap*%
%TF.FilePolarity,Positive*%
%FSLAX45Y45*%
G04 Gerber Fmt 4.5, Leading zero omitted, Abs format (unit mm)*
G04 Created by KiCad (PCBNEW 7.0.6-0) date 2023-09-17 18:40:21*
%MOMM*%
%LPD*%
G01*
G04 APERTURE LIST*
%ADD10C,0.050000*%
%ADD11C,0.200000*%
G04 APERTURE END LIST*
D10*
X18271267Y-6419353D02*
X18191905Y-6500020D01*
X10881093Y-23022146D02*
G75*
G03*
X10881093Y-22315040I-353553J353553D01*
G01*
X10881093Y-7685000D02*
X7684970Y-10881123D01*
X17199990Y-6473351D02*
X12799990Y-6473351D01*
X6339146Y-10846081D02*
G75*
G03*
X6339146Y-10846081I-160000J0D01*
G01*
X11006051Y-23820864D02*
G75*
G03*
X11006051Y-23820864I-160000J0D01*
G01*
X19118887Y-6977894D02*
X20065226Y-6031554D01*
X17924110Y-6772216D02*
G75*
G03*
X17199990Y-6473351I-724120J-727804D01*
G01*
X6339146Y-19153959D02*
G75*
G03*
X6339146Y-19153959I-160000J0D01*
G01*
X7684970Y-19118917D02*
G75*
G03*
X6977864Y-19118917I-353553J-353553D01*
G01*
X22315010Y-10881123D02*
X19118887Y-7685000D01*
X23968456Y-9934784D02*
X23022116Y-10881123D01*
X10882216Y-5558943D02*
G75*
G03*
X9934754Y-6031554I4117704J-9440937D01*
G01*
X19117764Y-5558943D02*
X18271267Y-6419353D01*
X7684970Y-19118917D02*
X10881093Y-22315040D01*
X19118887Y-6977894D02*
G75*
G03*
X19118887Y-7685000I353553J-353553D01*
G01*
X11808075Y-6500020D02*
X11728713Y-6419353D01*
X11006051Y-6179176D02*
G75*
G03*
X11006051Y-6179176I-160000J0D01*
G01*
X23968456Y-20065256D02*
G75*
G03*
X23968456Y-9934784I-8968466J5065236D01*
G01*
X19118887Y-22315040D02*
G75*
G03*
X19118887Y-23022146I353553J-353553D01*
G01*
X6031524Y-9934784D02*
G75*
G03*
X6031524Y-20065256I8968466J-5065236D01*
G01*
X9934754Y-6031554D02*
X10881093Y-6977894D01*
X22315010Y-10881123D02*
G75*
G03*
X23022116Y-10881123I353553J353553D01*
G01*
X10881093Y-23022146D02*
X9934754Y-23968486D01*
X19118887Y-22315040D02*
X22315010Y-19118917D01*
X20065226Y-23968486D02*
X19118887Y-23022146D01*
X23022116Y-19118917D02*
G75*
G03*
X22315010Y-19118917I-353553J-353553D01*
G01*
X23980834Y-19153959D02*
G75*
G03*
X23980834Y-19153959I-160000J0D01*
G01*
X12799990Y-6473351D02*
G75*
G03*
X12075870Y-6772216I0J-1026669D01*
G01*
X6977864Y-10881123D02*
G75*
G03*
X7684970Y-10881123I353553J353553D01*
G01*
X11728713Y-6419353D02*
X10882216Y-5558943D01*
X12075870Y-6772216D02*
X11808075Y-6500020D01*
X23022116Y-19118917D02*
X23968456Y-20065256D01*
X23980834Y-10846081D02*
G75*
G03*
X23980834Y-10846081I-160000J0D01*
G01*
X6031524Y-20065256D02*
X6977864Y-19118917D01*
X9934754Y-23968486D02*
G75*
G03*
X20065226Y-23968486I5065236J8968466D01*
G01*
X19313929Y-6179176D02*
G75*
G03*
X19313929Y-6179176I-160000J0D01*
G01*
X6977864Y-10881123D02*
X6031524Y-9934784D01*
X19313929Y-23820864D02*
G75*
G03*
X19313929Y-23820864I-160000J0D01*
G01*
X10881093Y-7685000D02*
G75*
G03*
X10881093Y-6977894I-353553J353553D01*
G01*
X20065226Y-6031554D02*
G75*
G03*
X19117764Y-5558943I-5065226J-8968446D01*
G01*
X18191905Y-6500020D02*
X17924110Y-6772216D01*
D11*
X4958267Y-25614004D02*
X4958267Y-25414004D01*
X4958267Y-25414004D02*
X5005886Y-25414004D01*
X5005886Y-25414004D02*
X5034457Y-25423528D01*
X5034457Y-25423528D02*
X5053505Y-25442575D01*
X5053505Y-25442575D02*
X5063029Y-25461623D01*
X5063029Y-25461623D02*
X5072553Y-25499718D01*
X5072553Y-25499718D02*
X5072553Y-25528289D01*
X5072553Y-25528289D02*
X5063029Y-25566385D01*
X5063029Y-25566385D02*
X5053505Y-25585432D01*
X5053505Y-25585432D02*
X5034457Y-25604480D01*
X5034457Y-25604480D02*
X5005886Y-25614004D01*
X5005886Y-25614004D02*
X4958267Y-25614004D01*
X5158267Y-25614004D02*
X5158267Y-25480670D01*
X5158267Y-25518766D02*
X5167791Y-25499718D01*
X5167791Y-25499718D02*
X5177314Y-25490194D01*
X5177314Y-25490194D02*
X5196362Y-25480670D01*
X5196362Y-25480670D02*
X5215410Y-25480670D01*
X5282076Y-25614004D02*
X5282076Y-25480670D01*
X5282076Y-25414004D02*
X5272553Y-25423528D01*
X5272553Y-25423528D02*
X5282076Y-25433051D01*
X5282076Y-25433051D02*
X5291600Y-25423528D01*
X5291600Y-25423528D02*
X5282076Y-25414004D01*
X5282076Y-25414004D02*
X5282076Y-25433051D01*
X5405886Y-25614004D02*
X5386838Y-25604480D01*
X5386838Y-25604480D02*
X5377314Y-25585432D01*
X5377314Y-25585432D02*
X5377314Y-25414004D01*
X5510648Y-25614004D02*
X5491600Y-25604480D01*
X5491600Y-25604480D02*
X5482076Y-25585432D01*
X5482076Y-25585432D02*
X5482076Y-25414004D01*
X5739219Y-25614004D02*
X5739219Y-25414004D01*
X5739219Y-25414004D02*
X5805886Y-25556861D01*
X5805886Y-25556861D02*
X5872552Y-25414004D01*
X5872552Y-25414004D02*
X5872552Y-25614004D01*
X6053505Y-25614004D02*
X6053505Y-25509242D01*
X6053505Y-25509242D02*
X6043981Y-25490194D01*
X6043981Y-25490194D02*
X6024933Y-25480670D01*
X6024933Y-25480670D02*
X5986838Y-25480670D01*
X5986838Y-25480670D02*
X5967791Y-25490194D01*
X6053505Y-25604480D02*
X6034457Y-25614004D01*
X6034457Y-25614004D02*
X5986838Y-25614004D01*
X5986838Y-25614004D02*
X5967791Y-25604480D01*
X5967791Y-25604480D02*
X5958267Y-25585432D01*
X5958267Y-25585432D02*
X5958267Y-25566385D01*
X5958267Y-25566385D02*
X5967791Y-25547337D01*
X5967791Y-25547337D02*
X5986838Y-25537813D01*
X5986838Y-25537813D02*
X6034457Y-25537813D01*
X6034457Y-25537813D02*
X6053505Y-25528289D01*
X6148743Y-25480670D02*
X6148743Y-25680670D01*
X6148743Y-25490194D02*
X6167791Y-25480670D01*
X6167791Y-25480670D02*
X6205886Y-25480670D01*
X6205886Y-25480670D02*
X6224933Y-25490194D01*
X6224933Y-25490194D02*
X6234457Y-25499718D01*
X6234457Y-25499718D02*
X6243981Y-25518766D01*
X6243981Y-25518766D02*
X6243981Y-25575908D01*
X6243981Y-25575908D02*
X6234457Y-25594956D01*
X6234457Y-25594956D02*
X6224933Y-25604480D01*
X6224933Y-25604480D02*
X6205886Y-25614004D01*
X6205886Y-25614004D02*
X6167791Y-25614004D01*
X6167791Y-25614004D02*
X6148743Y-25604480D01*
X6329695Y-25594956D02*
X6339219Y-25604480D01*
X6339219Y-25604480D02*
X6329695Y-25614004D01*
X6329695Y-25614004D02*
X6320172Y-25604480D01*
X6320172Y-25604480D02*
X6329695Y-25594956D01*
X6329695Y-25594956D02*
X6329695Y-25614004D01*
X6329695Y-25490194D02*
X6339219Y-25499718D01*
X6339219Y-25499718D02*
X6329695Y-25509242D01*
X6329695Y-25509242D02*
X6320172Y-25499718D01*
X6320172Y-25499718D02*
X6329695Y-25490194D01*
X6329695Y-25490194D02*
X6329695Y-25509242D01*
M02*
