0
SECTION
2
HEADER
9
$INSUNITS
70
4
9
$ACADVER
1
AC1014
9
$HANDSEED
5
FFFF
0
ENDSEC
0
SECTION
2
TABLES
0
TABLE
2
VPORT
5
8
100
AcDbSymbolTable
0
ENDTAB
0
TABLE
2
LTYPE
5
5
100
AcDbSymbolTable
0
LTYPE
5
14
100
AcDbSymbolTableRecord
100
AcDbLinetypeTableRecord
2
BYBLOCK
70
0
0
LTYPE
5
15
100
AcDbSymbolTableRecord
100
AcDbLinetypeTableRecord
2
BYLAYER
70
0
0
ENDTAB
0
TABLE
2
LAYER
5
2
100
AcDbSymbolTable
70
2
0
LAYER
5
50
100
AcDbSymbolTableRecord
100
AcDbLayerTableRecord
2
0
70
0
6
CONTINUOUS
0
ENDTAB
0
TABLE
2
STYLE
5
3
100
AcDbSymbolTable
70
1
0
STYLE
5
11
100
AcDbSymbolTableRecord
100
AcDbTextStyleTableRecord
2
STANDARD
70
0
0
ENDTAB
0
TABLE
2
VIEW
5
6
100
AcDbSymbolTable
70
0
0
ENDTAB
0
TABLE
2
UCS
5
7
100
AcDbSymbolTable
70
0
0
ENDTAB
0
TABLE
2
APPID
5
9
100
AcDbSymbolTable
70
2
0
APPID
5
12
100
AcDbSymbolTableRecord
100
AcDbRegAppTableRecord
2
ACAD
70
0
0
ENDTAB
0
TABLE
2
DIMSTYLE
5
A
100
AcDbSymbolTable
70
1
0
ENDTAB
0
TABLE
2
BLOCK_RECORD
5
1
100
AcDbSymbolTable
70
1
0
BLOCK_RECORD
5
1F
100
AcDbSymbolTableRecord
100
AcDbBlockTableRecord
2
*MODEL_SPACE
0
BLOCK_RECORD
5
1B
100
AcDbSymbolTableRecord
100
AcDbBlockTableRecord
2
*PAPER_SPACE
0
ENDTAB
0
ENDSEC
0
SECTION
2
BLOCKS
0
BLOCK
5
20
100
AcDbEntity
100
AcDbBlockBegin
2
*MODEL_SPACE
0
ENDBLK
5
21
100
AcDbEntity
100
AcDbBlockEnd
0
BLOCK
5
1C
100
AcDbEntity
100
AcDbBlockBegin
2
*PAPER_SPACE
0
ENDBLK
5
1D
100
AcDbEntity
100
AcDbBlockEnd
0
ENDSEC
0
SECTION
2
ENTITIES
0
CIRCLE
5
100
100
AcDbEntity
8
0
100
AcDbCircle
10
-35.054818970858783
20
-19.71060214071067
30
0
40
1.4999999999999991
210
0
220
-0
230
1
0
CIRCLE
5
101
100
AcDbEntity
8
0
100
AcDbCircle
10
19.71060214071067
20
-35.054818970858776
30
0
40
1.5000000000000013
210
0
220
-0
230
1
0
CIRCLE
5
102
100
AcDbEntity
8
0
100
AcDbCircle
10
42.161242000162311
20
57.505458948300252
30
0
40
1.5000000000000036
210
0
220
-0
230
1
0
CIRCLE
5
103
100
AcDbEntity
8
0
100
AcDbCircle
10
57.505458889305309
20
42.161242059157232
30
0
40
1.5000000000000036
210
0
220
-0
230
1
0
CIRCLE
5
104
100
AcDbEntity
8
0
100
AcDbCircle
10
42.161242059157232
20
-57.505458889305316
30
0
40
1.4999999999999991
210
0
220
-0
230
1
0
CIRCLE
5
105
100
AcDbEntity
8
0
100
AcDbCircle
10
-57.505458889305302
20
-42.161242059157225
30
0
40
1.5000000000000036
210
0
220
-0
230
1
0
CIRCLE
5
106
100
AcDbEntity
8
0
100
AcDbCircle
10
-19.710602081715756
20
-35.054819029853661
30
0
40
1.4999999999999991
210
0
220
-0
230
1
0
CIRCLE
5
107
100
AcDbEntity
8
0
100
AcDbCircle
10
35.054819029853668
20
-19.710602081715756
30
0
40
1.4999999999999991
210
0
220
-0
230
1
0
CIRCLE
5
108
100
AcDbEntity
8
0
100
AcDbCircle
10
19.710602081715756
20
35.054819029853675
30
0
40
1.4999999999999991
210
0
220
-0
230
1
0
CIRCLE
5
109
100
AcDbEntity
8
0
100
AcDbCircle
10
35.054818970858783
20
19.710602140710684
30
0
40
1.5000000000000036
210
0
220
-0
230
1
0
CIRCLE
5
110
100
AcDbEntity
8
0
100
AcDbCircle
10
57.50545894830023
20
-42.161242000162318
30
0
40
1.4999999999999991
210
0
220
-0
230
1
0
CIRCLE
5
111
100
AcDbEntity
8
0
100
AcDbCircle
10
-42.161242000162304
20
-57.505458948300223
30
0
40
1.5000000000000036
210
0
220
-0
230
1
0
CIRCLE
5
112
100
AcDbEntity
8
0
100
AcDbCircle
10
-42.161242059157225
20
57.505458889305316
30
0
40
1.4999999999999991
210
0
220
-0
230
1
0
CIRCLE
5
113
100
AcDbEntity
8
0
100
AcDbCircle
10
-19.71060214071067
20
35.054818970858776
30
0
40
1.5000000000000013
210
0
220
-0
230
1
0
CIRCLE
5
114
100
AcDbEntity
8
0
100
AcDbCircle
10
-57.50545894830023
20
42.161242000162311
30
0
40
1.5000000000000002
210
0
220
-0
230
1
0
CIRCLE
5
115
100
AcDbEntity
8
0
100
AcDbCircle
10
-35.054819029853654
20
19.710602081715763
30
0
40
1.4999999999999991
210
0
220
-0
230
1
0
CIRCLE
5
116
100
AcDbEntity
8
0
100
AcDbCircle
10
9.4999999999999769
20
45.800000000000111
30
0
40
1.5000000000000002
210
0
220
-0
230
1
0
CIRCLE
5
117
100
AcDbEntity
8
0
100
AcDbCircle
10
-9.5000000000000089
20
45.800000000000125
30
0
40
1.5000000000000002
210
0
220
-0
230
1
0
CIRCLE
5
118
100
AcDbEntity
8
0
100
AcDbCircle
10
9.4999999999999876
20
63.80000000000009
30
0
40
1.5000000000000002
210
0
220
-0
230
1
0
CIRCLE
5
119
100
AcDbEntity
8
0
100
AcDbCircle
10
-9.4999999999999964
20
63.800000000000104
30
0
40
1.5000000000000002
210
0
220
-0
230
1
0
LWPOLYLINE
5
120
100
AcDbEntity
8
0
100
AcDbPolyline
90
6
70
1
43
0.0
10
48.447961014081358
20
-87.480255335578761
10
37.653435888933132
20
-76.685730210430521
10
76.685730210430577
20
-37.653435888933089
10
87.480255335578775
20
-48.447961014081315
42
-0.012225910522243541
10
85.007459609342561
20
-52.66623026917717
10
52.666230269177433
20
-85.00745960934124
42
-0.01222591052224643
0
LWPOLYLINE
5
121
100
AcDbEntity
8
0
100
AcDbPolyline
90
6
70
1
43
0.0
10
-87.480255335578732
20
-48.447961014081372
10
-76.685730210430506
20
-37.653435888933146
10
-37.653435888933089
20
-76.685730210430592
10
-48.44796101408015
20
-87.480255335577056
42
-0.012225910522249205
10
-52.66623026917717
20
-85.007459609342561
10
-85.007459609340714
20
-52.666230269176744
42
-0.012225910522252649
0
LWPOLYLINE
5
122
100
AcDbEntity
8
0
100
AcDbPolyline
90
6
70
1
43
0.0
10
-48.447961014081358
20
87.480255335578732
10
-37.653435888933124
20
76.685730210430521
10
-76.685730210430577
20
37.653435888933096
10
-87.48025533557896
20
48.447961014080946
42
-0.01222591052225498
10
-85.007459609342561
20
52.66623026917717
10
-52.666230269177902
20
85.007459609343272
42
-0.012225910522253759
0
LWPOLYLINE
5
123
100
AcDbEntity
8
0
100
AcDbPolyline
90
6
70
1
43
0.0
10
87.480255335578732
20
48.447961014081358
10
76.685730210430521
20
37.653435888933132
10
37.653435888933089
20
76.685730210430577
10
48.447961014082352
20
87.480255335580566
42
-0.01222591052224865
10
52.66623026917717
20
85.007459609342561
10
85.00745960934394
20
52.666230269178442
42
-0.012225910522246985
0
CIRCLE
5
124
100
AcDbEntity
8
0
100
AcDbCircle
10
87.063636449365092
20
35.303420066509823
30
0
40
2.1000000000000085
210
0
220
0
230
1
0
CIRCLE
5
125
100
AcDbEntity
8
0
100
AcDbCircle
10
-87.063636449365077
20
-35.303420066509823
30
0
40
2.0999999999999908
210
0
220
0
230
1
0
LWPOLYLINE
5
126
100
AcDbEntity
8
0
100
AcDbPolyline
90
4
70
1
43
0.0
10
-41.177742466572333
20
94.410770176656357
42
4.794113478582168
10
41.177742466572425
20
94.410770176656314
10
31.919148334892817
20
85
10
-31.919148334892817
20
85
0
CIRCLE
5
127
100
AcDbEntity
8
0
100
AcDbCircle
10
-35.303420066509773
20
-87.063636449365134
30
0
40
2.1000000000000085
210
0
220
0
230
1
0
CIRCLE
5
128
100
AcDbEntity
8
0
100
AcDbCircle
10
87.063636449365106
20
-35.303420066509766
30
0
40
2.0999999999999908
210
0
220
0
230
1
0
CIRCLE
5
129
100
AcDbEntity
8
0
100
AcDbCircle
10
-87.063636449365134
20
35.303420066509801
30
0
40
2.1000000000000085
210
0
220
0
230
1
0
CIRCLE
5
130
100
AcDbEntity
8
0
100
AcDbCircle
10
35.303420066509787
20
-87.063636449365092
30
0
40
2.0999999999999952
210
0
220
0
230
1
0
ENDSEC
0
SECTION
2
OBJECTS
0
DICTIONARY
5
C
100
AcDbDictionary
3
ACAD_GROUP
350
D
3
ACAD_MLINESTYLE
350
17
0
DICTIONARY
5
D
100
AcDbDictionary
0
DICTIONARY
5
1A
330
C
100
AcDbDictionary
0
DICTIONARY
5
17
100
AcDbDictionary
0
ENDSEC
0
EOF
