0
SECTION
2
HEADER
9
$INSUNITS
70
4
9
$ACADVER
1
AC1014
9
$HANDSEED
5
FFFF
0
ENDSEC
0
SECTION
2
TABLES
0
TABLE
2
VPORT
5
8
100
AcDbSymbolTable
0
ENDTAB
0
TABLE
2
LTYPE
5
5
100
AcDbSymbolTable
0
LTYPE
5
14
100
AcDbSymbolTableRecord
100
AcDbLinetypeTableRecord
2
BYBLOCK
70
0
0
LTYPE
5
15
100
AcDbSymbolTableRecord
100
AcDbLinetypeTableRecord
2
BYLAYER
70
0
0
ENDTAB
0
TABLE
2
LAYER
5
2
100
AcDbSymbolTable
70
2
0
LAYER
5
50
100
AcDbSymbolTableRecord
100
AcDbLayerTableRecord
2
0
70
0
6
CONTINUOUS
0
ENDTAB
0
TABLE
2
STYLE
5
3
100
AcDbSymbolTable
70
1
0
STYLE
5
11
100
AcDbSymbolTableRecord
100
AcDbTextStyleTableRecord
2
STANDARD
70
0
0
ENDTAB
0
TABLE
2
VIEW
5
6
100
AcDbSymbolTable
70
0
0
ENDTAB
0
TABLE
2
UCS
5
7
100
AcDbSymbolTable
70
0
0
ENDTAB
0
TABLE
2
APPID
5
9
100
AcDbSymbolTable
70
2
0
APPID
5
12
100
AcDbSymbolTableRecord
100
AcDbRegAppTableRecord
2
ACAD
70
0
0
ENDTAB
0
TABLE
2
DIMSTYLE
5
A
100
AcDbSymbolTable
70
1
0
ENDTAB
0
TABLE
2
BLOCK_RECORD
5
1
100
AcDbSymbolTable
70
1
0
BLOCK_RECORD
5
1F
100
AcDbSymbolTableRecord
100
AcDbBlockTableRecord
2
*MODEL_SPACE
0
BLOCK_RECORD
5
1B
100
AcDbSymbolTableRecord
100
AcDbBlockTableRecord
2
*PAPER_SPACE
0
ENDTAB
0
ENDSEC
0
SECTION
2
BLOCKS
0
BLOCK
5
20
100
AcDbEntity
100
AcDbBlockBegin
2
*MODEL_SPACE
0
ENDBLK
5
21
100
AcDbEntity
100
AcDbBlockEnd
0
BLOCK
5
1C
100
AcDbEntity
100
AcDbBlockBegin
2
*PAPER_SPACE
0
ENDBLK
5
1D
100
AcDbEntity
100
AcDbBlockEnd
0
ENDSEC
0
SECTION
2
ENTITIES
0
LWPOLYLINE
5
100
100
AcDbEntity
8
0
100
AcDbPolyline
90
56
70
1
43
0.0
10
-47.729708624838395
20
-65.407376655817913
10
-46.315495062465281
20
-63.993163093444821
10
-46.350836632740389
20
-63.95782152316972
10
-42.908983682489136
20
-60.515968572918496
42
0.48148254080819503
10
-43.083805252137992
20
-58.962296700567521
42
-1.2535758512817019
10
-40.739759737544347
20
-56.618251185973875
42
0.48148254080821062
10
-39.186087865193308
20
-56.793072755622767
10
-38.418855621954521
20
-56.025840512383951
42
0.48148254080819308
10
-38.593677191603376
20
-54.472168640032955
42
-1.2535758512816972
10
-36.24963167700971
20
-52.128123125439316
42
0.48148254080820801
10
-34.69595980465872
20
-52.302944695088229
10
-33.928727561419919
20
-51.535712451849406
42
0.48148254080819608
10
-34.10354913106876
20
-49.982040579498417
42
-1.2535758512816984
10
-31.759503616475101
20
-47.637995064904771
42
0.48148254080820335
10
-30.205831744124112
20
-47.812816634553663
10
-29.438599500885275
20
-47.045584391314861
42
0.48148254080819697
10
-29.61342107053413
20
-45.491912518963879
42
-1.2535758512817041
10
-27.269375555940481
20
-43.147867004370219
42
0.48148254080819952
10
-25.715703683589485
20
-43.322688574019097
10
-24.948471440350701
20
-42.555456330780302
42
0.48148254080821434
10
-25.123293009999511
20
-41.001784458429285
42
-1.253575851281701
10
-22.779247495405851
20
-38.657738943835653
42
0.48148254080820263
10
-21.225575623054866
20
-38.832560513484545
10
-20.458343379816043
20
-38.065328270245743
42
0.48148254080819675
10
-20.633164949464874
20
-36.511656397894711
42
-1.2535758512816977
10
-18.289119434871218
20
-34.167610883301087
42
0.4814825408081998
10
-16.73544756252025
20
-34.342432452949978
10
-12.61089593039792
20
-30.217880820827713
42
0.28495414665765967
10
-12.610895930397872
20
-26.987084106857331
10
-27.169029454050246
20
-12.42895058320476
42
0.34802580881165951
10
-30.813728392738689
20
-13.136057364391245
10
-34.350335852168556
20
-16.672664823821098
42
0.45763972142720249
10
-34.239974263250986
20
-18.182202396729863
42
-1.1577522630181227
10
-36.618573436035923
20
-20.560801569514791
42
0.45763972142720494
10
-38.128111008944636
20
-20.450439980597132
10
-38.840463912703157
20
-21.162792884355635
42
0.45763972142719728
10
-38.730102323785573
20
-22.672330457264387
42
-1.1577522630181143
10
-41.108701496570525
20
-25.050929630049307
42
0.45763972142719983
10
-42.618239069479273
20
-24.940568041131705
10
-43.330591973237787
20
-25.652920944890234
42
0.45763972142719739
10
-43.22023038432021
20
-27.162458517798967
42
-1.1577522630181105
10
-45.598829557105169
20
-29.541057690583877
42
0.45763972142719722
10
-47.10836713001391
20
-29.430696101666271
10
-47.82072003377241
20
-30.14304900542475
42
0.45763972142719922
10
-47.710358444854812
20
-31.652586578333487
42
-1.1577522630181154
10
-50.088957617639764
20
-34.031185751118407
42
0.45763972142719694
10
-51.598495190548505
20
-33.920824162200802
10
-52.31084809430704
20
-34.633177065959295
42
0.45763972142720205
10
-52.200486505389449
20
-36.142714638868036
42
-1.1577522630181176
10
-54.579085678174394
20
-38.521313811652981
42
0.45763972142720227
10
-56.088623251083128
20
-38.410952222735347
10
-56.800976154841642
20
-39.123305126493861
42
0.45763972142719705
10
-56.690614565924086
20
-40.63284269940258
42
-1.1577522630181161
10
-59.06921373870901
20
-43.011441872187518
42
0.45763972142719739
10
-60.578751311617737
20
-42.901080283269899
10
-65.407378154501984
20
-47.729707126154025
0
CIRCLE
5
101
100
AcDbEntity
8
0
100
AcDbCircle
10
-29.68339161165779
20
-29.501446264464654
30
-3.944304526105059e-30
40
1.6500000000000066
210
-5.2294583952632101e-32
220
-8.7157639921052045e-32
230
1
0
CIRCLE
5
102
100
AcDbEntity
8
0
100
AcDbCircle
10
-34.173519672192427
20
-33.991574324999199
30
-6.9025329206838533e-30
40
1.6500000000000066
210
-5.2294583952632101e-32
220
-8.7157639921052045e-32
230
1
0
CIRCLE
5
103
100
AcDbEntity
8
0
100
AcDbCircle
10
-38.663647732727064
20
-38.481702385533751
30
-7.8886090522101181e-30
40
1.6500000000000028
210
-6.9726111936842713e-32
220
-1.0458916790526236e-31
230
1
0
CIRCLE
5
104
100
AcDbEntity
8
0
100
AcDbCircle
10
-43.153775793261673
20
-42.971830446068296
30
-6.9025329206838533e-30
40
1.6500000000000028
210
-6.9726111936842713e-32
220
-1.0458916790526236e-31
230
1
0
CIRCLE
5
105
100
AcDbEntity
8
0
100
AcDbCircle
10
-47.643903853796303
20
-47.461958506602862
30
-4.9303806576313238e-30
40
1.6500000000000039
210
-8.7157639921053359e-32
220
-1.2202069588947273e-31
230
1
0
CIRCLE
5
106
100
AcDbEntity
8
0
100
AcDbCircle
10
-52.134031914330919
20
-51.952086567137414
30
-1.0846837446788912e-29
40
1.650000000000003
210
-5.2294583952632112e-32
220
-8.7157639921052034e-32
230
1
0
CIRCLE
5
107
100
AcDbEntity
8
0
100
AcDbCircle
10
-25.193263551123213
20
-25.011318203930109
30
-2.9582283945787943e-30
40
1.6500000000000066
210
-5.2294583952632101e-32
220
-8.7157639921052045e-32
230
1
0
ENDSEC
0
SECTION
2
OBJECTS
0
DICTIONARY
5
C
100
AcDbDictionary
3
ACAD_GROUP
350
D
3
ACAD_MLINESTYLE
350
17
0
DICTIONARY
5
D
100
AcDbDictionary
0
DICTIONARY
5
1A
330
C
100
AcDbDictionary
0
DICTIONARY
5
17
100
AcDbDictionary
0
ENDSEC
0
EOF
