0
SECTION
2
HEADER
9
$INSUNITS
70
4
9
$ACADVER
1
AC1014
9
$HANDSEED
5
FFFF
0
ENDSEC
0
SECTION
2
TABLES
0
TABLE
2
VPORT
5
8
100
AcDbSymbolTable
0
ENDTAB
0
TABLE
2
LTYPE
5
5
100
AcDbSymbolTable
0
LTYPE
5
14
100
AcDbSymbolTableRecord
100
AcDbLinetypeTableRecord
2
BYBLOCK
70
0
0
LTYPE
5
15
100
AcDbSymbolTableRecord
100
AcDbLinetypeTableRecord
2
BYLAYER
70
0
0
ENDTAB
0
TABLE
2
LAYER
5
2
100
AcDbSymbolTable
70
2
0
LAYER
5
50
100
AcDbSymbolTableRecord
100
AcDbLayerTableRecord
2
0
70
0
6
CONTINUOUS
0
ENDTAB
0
TABLE
2
STYLE
5
3
100
AcDbSymbolTable
70
1
0
STYLE
5
11
100
AcDbSymbolTableRecord
100
AcDbTextStyleTableRecord
2
STANDARD
70
0
0
ENDTAB
0
TABLE
2
VIEW
5
6
100
AcDbSymbolTable
70
0
0
ENDTAB
0
TABLE
2
UCS
5
7
100
AcDbSymbolTable
70
0
0
ENDTAB
0
TABLE
2
APPID
5
9
100
AcDbSymbolTable
70
2
0
APPID
5
12
100
AcDbSymbolTableRecord
100
AcDbRegAppTableRecord
2
ACAD
70
0
0
ENDTAB
0
TABLE
2
DIMSTYLE
5
A
100
AcDbSymbolTable
70
1
0
ENDTAB
0
TABLE
2
BLOCK_RECORD
5
1
100
AcDbSymbolTable
70
1
0
BLOCK_RECORD
5
1F
100
AcDbSymbolTableRecord
100
AcDbBlockTableRecord
2
*MODEL_SPACE
0
BLOCK_RECORD
5
1B
100
AcDbSymbolTableRecord
100
AcDbBlockTableRecord
2
*PAPER_SPACE
0
ENDTAB
0
ENDSEC
0
SECTION
2
BLOCKS
0
BLOCK
5
20
100
AcDbEntity
100
AcDbBlockBegin
2
*MODEL_SPACE
0
ENDBLK
5
21
100
AcDbEntity
100
AcDbBlockEnd
0
BLOCK
5
1C
100
AcDbEntity
100
AcDbBlockBegin
2
*PAPER_SPACE
0
ENDBLK
5
1D
100
AcDbEntity
100
AcDbBlockEnd
0
ENDSEC
0
SECTION
2
ENTITIES
0
LWPOLYLINE
5
100
100
AcDbEntity
8
0
100
AcDbPolyline
90
12
70
1
43
0.0
10
-41.177742466586452
20
94.410770176688445
42
4.7941134785831645
10
41.177742466586444
20
94.410770176688459
10
32.712772494517893
20
85.806668319905398
10
29.24120268358579
20
82.278039115696401
42
0.66726158166785288
10
11.73331262410426
20
75
10
6.7833126241042301
20
75
42
-0.18728400777378654
10
10.768673051621695
20
85.266687375895742
10
-10.768673051621702
20
85.266687375895742
42
-0.18728400777378687
10
-6.7833126241042274
20
75
10
-11.73331262410426
20
75
42
0.66726158166785343
10
-29.24120268358579
20
82.278039115696401
10
-32.712772494517893
20
85.806668319905398
0
LWPOLYLINE
5
101
100
AcDbEntity
8
0
100
AcDbPolyline
90
64
70
1
43
0.0
10
37.653435888933124
20
76.685730210430521
10
48.447961014081102
20
87.480255335578903
42
-0.012225910522249205
10
52.66623026917712
20
85.00745960934259
10
85.007459609342604
20
52.666230269177142
42
-0.01222591052224865
10
87.480255335578775
20
48.447961014081315
10
76.685730210430577
20
37.653435888933096
10
66.715524652537837
20
47.623641446826035
10
62.472883965418546
20
43.381000759706758
10
76.685730210430577
20
29.168154514694553
10
92.510641345776591
20
29.168154514694535
42
-0.15391301674440025
10
92.510641345776577
20
-29.168154514694567
10
76.685730210430577
20
-29.168154514694535
10
62.47288391756026
20
-43.381000807564696
10
66.715524604679544
20
-47.62364149468398
10
76.685730210430577
20
-37.653435888933089
10
87.48025533557886
20
-48.447961014081159
42
-0.012225910522249205
10
85.007459609342547
20
-52.66623026917717
10
52.66623026917717
20
-85.007459609342561
42
-0.01222591052224865
10
48.447961014081343
20
-87.480255335578775
10
37.653435888933132
20
-76.685730210430506
10
47.623641491569337
20
-66.715524607794208
10
43.381000804450053
20
-62.472883920674917
10
29.16815451469455
20
-76.685730210430521
10
29.16815451469461
20
-92.510641345776534
42
-0.052515759463132368
10
9.2551266562371257
20
-96.557457664216741
10
9.2551266562442507
20
-97.842992627634118
10
-9.2551266562442329
20
-97.842992627634118
10
-9.2551266562371808
20
-96.557457664216741
42
-0.052515759463132035
10
-29.168154514694542
20
-92.510641345776577
10
-29.168154514694532
20
-76.685730210430521
10
-43.381000762821415
20
-62.47288396230384
10
-47.623641449940699
20
-66.715524649423116
10
-37.653435888933117
20
-76.685730210430506
10
-48.447961014081272
20
-87.480255335578775
42
-0.01222591052224865
10
-52.666230269177099
20
-85.00745960934259
10
-85.007459609342447
20
-52.666230269177319
42
-0.012225910522249205
10
-87.480255335578761
20
-48.447961014081301
10
-76.685730210430563
20
-37.653435888933089
10
-66.715524652538079
20
-47.623641446825786
10
-62.472883965418795
20
-43.381000759706502
10
-76.685730210430563
20
-29.168154514694535
10
-92.510641345776577
20
-29.168154514694578
42
-0.15391301674440025
10
-92.510641345776591
20
29.168154514694532
10
-76.685730210430577
20
29.168154514694553
10
-62.472883951767095
20
43.381000773357826
10
-66.715524638886379
20
47.623641460477117
10
-76.685730210430577
20
37.653435888933096
10
-87.48025533557886
20
48.447961014081159
42
-0.012225910522249205
10
-85.007459609342547
20
52.66623026917717
10
-52.666230269177355
20
85.007459609342447
42
-0.012225910522249205
10
-48.447961014081343
20
87.480255335578761
10
-37.653435888933124
20
76.685730210430521
10
-47.623641502105997
20
66.71552459725747
10
-43.38100081498672
20
62.472883910138187
10
-30.853884725125098
20
75
10
-12.000000000000085
20
75.000000000000128
10
-12.000000000000114
20
35.800000000000132
10
-5.000000074505806
20
13.000000193715096
10
5.000000074505806
20
13.000000193715096
10
12.099999999999891
20
35.800000000000111
10
12.099999999999852
20
75.000000000000114
10
30.853884725125098
20
75
10
43.381000807564725
20
62.472883917560551
10
47.623641494684009
20
66.715524604679842
0
CIRCLE
5
102
100
AcDbEntity
8
0
100
AcDbCircle
10
87.063636449365134
20
35.303420066509801
30
0
40
3.5549999999999926
210
0
220
-0
230
1
0
CIRCLE
5
103
100
AcDbEntity
8
0
100
AcDbCircle
10
-87.063636449365134
20
35.303420066509801
30
0
40
3.5549999999999926
210
0
220
-0
230
1
0
CIRCLE
5
104
100
AcDbEntity
8
0
100
AcDbCircle
10
-9.5000000000000195
20
45.800000000000132
30
0
40
1.5000000000000002
210
0
220
-0
230
1
0
CIRCLE
5
105
100
AcDbEntity
8
0
100
AcDbCircle
10
9.4999999999999947
20
63.800000000000097
30
0
40
1.5000000000000002
210
0
220
-0
230
1
0
CIRCLE
5
106
100
AcDbEntity
8
0
100
AcDbCircle
10
-9.5000000000000089
20
63.800000000000111
30
0
40
1.5000000000000002
210
0
220
-0
230
1
0
CIRCLE
5
107
100
AcDbEntity
8
0
100
AcDbCircle
10
9.499999999999984
20
45.800000000000118
30
0
40
1.5000000000000002
210
0
220
-0
230
1
0
CIRCLE
5
108
100
AcDbEntity
8
0
100
AcDbCircle
10
-35.303420066509773
20
-87.063636449365092
30
0
40
3.555000000000001
210
0
220
-0
230
1
0
CIRCLE
5
109
100
AcDbEntity
8
0
100
AcDbCircle
10
-87.063636449365092
20
-35.303420066509766
30
0
40
3.5550000000000104
210
0
220
-0
230
1
0
CIRCLE
5
110
100
AcDbEntity
8
0
100
AcDbCircle
10
87.063636449365106
20
-35.303420066509766
30
0
40
3.5550000000000104
210
0
220
-0
230
1
0
CIRCLE
5
111
100
AcDbEntity
8
0
100
AcDbCircle
10
35.303420066509787
20
-87.063636449365092
30
0
40
3.555000000000001
210
0
220
-0
230
1
0
ENDSEC
0
SECTION
2
OBJECTS
0
DICTIONARY
5
C
100
AcDbDictionary
3
ACAD_GROUP
350
D
3
ACAD_MLINESTYLE
350
17
0
DICTIONARY
5
D
100
AcDbDictionary
0
DICTIONARY
5
1A
330
C
100
AcDbDictionary
0
DICTIONARY
5
17
100
AcDbDictionary
0
ENDSEC
0
EOF
