%TF.GenerationSoftware,KiCad,Pcbnew,(6.0.9)*%
%TF.CreationDate,2023-07-18T19:51:57+10:00*%
%TF.ProjectId,VisorPlate2.0,5669736f-7250-46c6-9174-65322e302e6b,rev?*%
%TF.SameCoordinates,Original*%
%TF.FileFunction,Copper,L1,Top*%
%TF.FilePolarity,Positive*%
%FSLAX46Y46*%
G04 Gerber Fmt 4.6, Leading zero omitted, Abs format (unit mm)*
G04 Created by KiCad (PCBNEW (6.0.9)) date 2023-07-18 19:51:57*
%MOMM*%
%LPD*%
G01*
G04 APERTURE LIST*
%ADD10C,0.300000*%
%TA.AperFunction,NonConductor*%
%ADD11C,0.300000*%
%TD*%
%TA.AperFunction,NonConductor*%
%ADD12C,0.200000*%
%TD*%
%TA.AperFunction,ComponentPad*%
%ADD13R,1.700000X1.700000*%
%TD*%
%TA.AperFunction,ComponentPad*%
%ADD14O,1.700000X1.700000*%
%TD*%
%TA.AperFunction,ComponentPad*%
%ADD15C,1.524000*%
%TD*%
%TA.AperFunction,ViaPad*%
%ADD16C,0.600000*%
%TD*%
%TA.AperFunction,Conductor*%
%ADD17C,0.250000*%
%TD*%
G04 APERTURE END LIST*
D10*
D11*
X126857142Y-122878570D02*
X126142857Y-122878570D01*
X126071428Y-123592856D01*
X126142857Y-123521427D01*
X126285714Y-123449999D01*
X126642857Y-123449999D01*
X126785714Y-123521427D01*
X126857142Y-123592856D01*
X126928571Y-123735713D01*
X126928571Y-124092856D01*
X126857142Y-124235713D01*
X126785714Y-124307141D01*
X126642857Y-124378570D01*
X126285714Y-124378570D01*
X126142857Y-124307141D01*
X126071428Y-124235713D01*
X127428571Y-122878570D02*
X128357142Y-122878570D01*
X127857142Y-123449999D01*
X128071428Y-123449999D01*
X128214285Y-123521427D01*
X128285714Y-123592856D01*
X128357142Y-123735713D01*
X128357142Y-124092856D01*
X128285714Y-124235713D01*
X128214285Y-124307141D01*
X128071428Y-124378570D01*
X127642857Y-124378570D01*
X127500000Y-124307141D01*
X127428571Y-124235713D01*
X129000000Y-124235713D02*
X129071428Y-124307141D01*
X129000000Y-124378570D01*
X128928571Y-124307141D01*
X129000000Y-124235713D01*
X129000000Y-124378570D01*
X130357142Y-122878570D02*
X130071428Y-122878570D01*
X129928571Y-122949999D01*
X129857142Y-123021427D01*
X129714285Y-123235713D01*
X129642857Y-123521427D01*
X129642857Y-124092856D01*
X129714285Y-124235713D01*
X129785714Y-124307141D01*
X129928571Y-124378570D01*
X130214285Y-124378570D01*
X130357142Y-124307141D01*
X130428571Y-124235713D01*
X130500000Y-124092856D01*
X130500000Y-123735713D01*
X130428571Y-123592856D01*
X130357142Y-123521427D01*
X130214285Y-123449999D01*
X129928571Y-123449999D01*
X129785714Y-123521427D01*
X129714285Y-123592856D01*
X129642857Y-123735713D01*
X131785714Y-122878570D02*
X131500000Y-122878570D01*
X131357142Y-122949999D01*
X131285714Y-123021427D01*
X131142857Y-123235713D01*
X131071428Y-123521427D01*
X131071428Y-124092856D01*
X131142857Y-124235713D01*
X131214285Y-124307141D01*
X131357142Y-124378570D01*
X131642857Y-124378570D01*
X131785714Y-124307141D01*
X131857142Y-124235713D01*
X131928571Y-124092856D01*
X131928571Y-123735713D01*
X131857142Y-123592856D01*
X131785714Y-123521427D01*
X131642857Y-123449999D01*
X131357142Y-123449999D01*
X131214285Y-123521427D01*
X131142857Y-123592856D01*
X131071428Y-123735713D01*
X132857142Y-122878570D02*
X133000000Y-122878570D01*
X133142857Y-122949999D01*
X133214285Y-123021427D01*
X133285714Y-123164284D01*
X133357142Y-123449999D01*
X133357142Y-123807141D01*
X133285714Y-124092856D01*
X133214285Y-124235713D01*
X133142857Y-124307141D01*
X133000000Y-124378570D01*
X132857142Y-124378570D01*
X132714285Y-124307141D01*
X132642857Y-124235713D01*
X132571428Y-124092856D01*
X132500000Y-123807141D01*
X132500000Y-123449999D01*
X132571428Y-123164284D01*
X132642857Y-123021427D01*
X132714285Y-122949999D01*
X132857142Y-122878570D01*
X134285714Y-122878570D02*
X134428571Y-122878570D01*
X134571428Y-122949999D01*
X134642857Y-123021427D01*
X134714285Y-123164284D01*
X134785714Y-123449999D01*
X134785714Y-123807141D01*
X134714285Y-124092856D01*
X134642857Y-124235713D01*
X134571428Y-124307141D01*
X134428571Y-124378570D01*
X134285714Y-124378570D01*
X134142857Y-124307141D01*
X134071428Y-124235713D01*
X134000000Y-124092856D01*
X133928571Y-123807141D01*
X133928571Y-123449999D01*
X134000000Y-123164284D01*
X134071428Y-123021427D01*
X134142857Y-122949999D01*
X134285714Y-122878570D01*
X136571428Y-124378570D02*
X136571428Y-123378570D01*
X136571428Y-123521427D02*
X136642857Y-123449999D01*
X136785714Y-123378570D01*
X137000000Y-123378570D01*
X137142857Y-123449999D01*
X137214285Y-123592856D01*
X137214285Y-124378570D01*
X137214285Y-123592856D02*
X137285714Y-123449999D01*
X137428571Y-123378570D01*
X137642857Y-123378570D01*
X137785714Y-123449999D01*
X137857142Y-123592856D01*
X137857142Y-124378570D01*
X138571428Y-124378570D02*
X138571428Y-123378570D01*
X138571428Y-123521427D02*
X138642857Y-123449999D01*
X138785714Y-123378570D01*
X139000000Y-123378570D01*
X139142857Y-123449999D01*
X139214285Y-123592856D01*
X139214285Y-124378570D01*
X139214285Y-123592856D02*
X139285714Y-123449999D01*
X139428571Y-123378570D01*
X139642857Y-123378570D01*
X139785714Y-123449999D01*
X139857142Y-123592856D01*
X139857142Y-124378570D01*
D12*
X106170000Y-116610000D02*
X106170000Y-126086419D01*
X159830000Y-116610000D02*
X159830000Y-126086419D01*
X106170000Y-125499999D02*
X159830000Y-125499999D01*
X106170000Y-125499999D02*
X159830000Y-125499999D01*
X106170000Y-125499999D02*
X107296504Y-126086420D01*
X106170000Y-125499999D02*
X107296504Y-124913578D01*
X159830000Y-125499999D02*
X158703496Y-124913578D01*
X159830000Y-125499999D02*
X158703496Y-126086420D01*
D13*
%TO.P,J1,1,Pin_1*%
%TO.N,/+5V*%
X127920000Y-93275000D03*
D14*
%TO.P,J1,2,Pin_2*%
%TO.N,/CS2*%
X130460000Y-93275000D03*
%TO.P,J1,3,Pin_3*%
%TO.N,/CLK*%
X133000000Y-93275000D03*
%TO.P,J1,4,Pin_4*%
%TO.N,/DIN*%
X135540000Y-93275000D03*
%TO.P,J1,5,Pin_5*%
%TO.N,GND*%
X138080000Y-93275000D03*
%TD*%
D15*
%TO.P,U4,1,1*%
%TO.N,Net-(U3-Pad8)*%
X158580000Y-98500000D03*
%TO.P,U4,2,2*%
%TO.N,Net-(U3-Pad5)*%
X156080000Y-98500000D03*
%TO.P,U4,3,3*%
%TO.N,Net-(U3-Pad10)*%
X153580000Y-98500000D03*
%TO.P,U4,4,4*%
%TO.N,Net-(U3-Pad3)*%
X151080000Y-98500000D03*
%TO.P,U4,5,5*%
%TO.N,Net-(U3-Pad17)*%
X148580000Y-98500000D03*
%TO.P,U4,6,6*%
%TO.N,Net-(U3-Pad15)*%
X146080000Y-98500000D03*
%TO.P,U4,7,7*%
%TO.N,Net-(U3-Pad21)*%
X143580000Y-98500000D03*
%TO.P,U4,8,8*%
%TO.N,Net-(U3-Pad23)*%
X141080000Y-98500000D03*
%TO.P,U4,9,9*%
%TO.N,Net-(U3-Pad2)*%
X141080000Y-113500000D03*
%TO.P,U4,10,10*%
%TO.N,Net-(U3-Pad11)*%
X143580000Y-113500000D03*
%TO.P,U4,11,11*%
%TO.N,Net-(U3-Pad6)*%
X146080000Y-113500000D03*
%TO.P,U4,12,12*%
%TO.N,Net-(U3-Pad7)*%
X148580000Y-113500000D03*
%TO.P,U4,13,13*%
%TO.N,Net-(U3-Pad22)*%
X151080000Y-113500000D03*
%TO.P,U4,14,14*%
%TO.N,Net-(U3-Pad14)*%
X153580000Y-113500000D03*
%TO.P,U4,15,15*%
%TO.N,Net-(U3-Pad16)*%
X156080000Y-113500000D03*
%TO.P,U4,16,16*%
%TO.N,Net-(U3-Pad20)*%
X158580000Y-113500000D03*
%TD*%
%TO.P,U2,1,1*%
%TO.N,Net-(U1-Pad8)*%
X125020000Y-98500000D03*
%TO.P,U2,2,2*%
%TO.N,Net-(U1-Pad5)*%
X122520000Y-98500000D03*
%TO.P,U2,3,3*%
%TO.N,Net-(U1-Pad10)*%
X120020000Y-98500000D03*
%TO.P,U2,4,4*%
%TO.N,Net-(U1-Pad3)*%
X117520000Y-98500000D03*
%TO.P,U2,5,5*%
%TO.N,Net-(U1-Pad17)*%
X115020000Y-98500000D03*
%TO.P,U2,6,6*%
%TO.N,Net-(U1-Pad15)*%
X112520000Y-98500000D03*
%TO.P,U2,7,7*%
%TO.N,Net-(U1-Pad21)*%
X110020000Y-98500000D03*
%TO.P,U2,8,8*%
%TO.N,Net-(U1-Pad23)*%
X107520000Y-98500000D03*
%TO.P,U2,9,9*%
%TO.N,Net-(U1-Pad2)*%
X107520000Y-113500000D03*
%TO.P,U2,10,10*%
%TO.N,Net-(U1-Pad11)*%
X110020000Y-113500000D03*
%TO.P,U2,11,11*%
%TO.N,Net-(U1-Pad6)*%
X112520000Y-113500000D03*
%TO.P,U2,12,12*%
%TO.N,Net-(U1-Pad7)*%
X115020000Y-113500000D03*
%TO.P,U2,13,13*%
%TO.N,Net-(U1-Pad22)*%
X117520000Y-113500000D03*
%TO.P,U2,14,14*%
%TO.N,Net-(U1-Pad14)*%
X120020000Y-113500000D03*
%TO.P,U2,15,15*%
%TO.N,Net-(U1-Pad16)*%
X122520000Y-113500000D03*
%TO.P,U2,16,16*%
%TO.N,Net-(U1-Pad20)*%
X125020000Y-113500000D03*
%TD*%
D16*
%TO.N,Net-(U1-Pad1)*%
X137500000Y-110750000D03*
X128750000Y-95750000D03*
%TO.N,/+5V*%
X117229107Y-108487322D03*
X148487701Y-109012299D03*
X125250000Y-108250000D03*
X149100000Y-107500000D03*
X140750000Y-108250000D03*
%TO.N,GND*%
X113000000Y-104000000D03*
X127854799Y-94895201D03*
X137000000Y-97500000D03*
X152511444Y-104088597D03*
X135500000Y-99000000D03*
X120401424Y-102998576D03*
X149337685Y-105775500D03*
%TO.N,Net-(U1-Pad5)*%
X114400000Y-103000000D03*
%TO.N,Net-(U1-Pad7)*%
X115812299Y-108524500D03*
%TO.N,Net-(U1-Pad11)*%
X121800000Y-103000000D03*
%TO.N,Net-(U1-Pad14)*%
X122000000Y-108800000D03*
%TO.N,Net-(U1-Pad15)*%
X129200000Y-98600000D03*
%TO.N,Net-(U1-Pad16)*%
X119612299Y-108812299D03*
%TO.N,Net-(U1-Pad17)*%
X127200000Y-98600000D03*
%TO.N,Net-(U1-Pad20)*%
X116274500Y-112250000D03*
X118750000Y-112624500D03*
%TO.N,Net-(U1-Pad21)*%
X113000000Y-109000000D03*
%TO.N,Net-(U1-Pad23)*%
X111200000Y-109000000D03*
%TO.N,Net-(U3-Pad2)*%
X144000000Y-103200000D03*
%TO.N,Net-(U3-Pad5)*%
X147900000Y-103000000D03*
X144600000Y-96800000D03*
%TO.N,Net-(U3-Pad7)*%
X150422701Y-105047299D03*
X150435000Y-102835000D03*
%TO.N,Net-(U3-Pad8)*%
X152100000Y-99700000D03*
%TO.N,Net-(U3-Pad11)*%
X155400000Y-103000000D03*
%TO.N,Net-(U3-Pad15)*%
X154200000Y-109000000D03*
%TO.N,Net-(U3-Pad16)*%
X152966968Y-112313972D03*
%TO.N,Net-(U3-Pad17)*%
X155500000Y-108700000D03*
%TO.N,Net-(U3-Pad20)*%
X147895000Y-112294771D03*
%TO.N,Net-(U3-Pad21)*%
X146500000Y-108724500D03*
%TO.N,Net-(U3-Pad22)*%
X145377532Y-112352028D03*
%TO.N,Net-(U3-Pad23)*%
X143275500Y-108862250D03*
%TO.N,/CS2*%
X136750000Y-95000000D03*
%TD*%
D17*
%TO.N,GND*%
X138080000Y-96420000D02*
X138080000Y-93275000D01*
X135500000Y-99000000D02*
X138080000Y-96420000D01*
%TO.N,/CS2*%
X131111396Y-93275000D02*
X130460000Y-93275000D01*
X132836396Y-95000000D02*
X131111396Y-93275000D01*
X136750000Y-95000000D02*
X132836396Y-95000000D01*
%TO.N,GND*%
X135500000Y-98300000D02*
X135500000Y-99000000D01*
X132095201Y-94895201D02*
X135500000Y-98300000D01*
X127854799Y-94895201D02*
X132095201Y-94895201D01*
%TO.N,Net-(U1-Pad1)*%
X137500000Y-105883884D02*
X137500000Y-110750000D01*
X128750000Y-97133884D02*
X137500000Y-105883884D01*
X128750000Y-95750000D02*
X128750000Y-97133884D01*
%TO.N,/+5V*%
X149100000Y-108400000D02*
X148487701Y-109012299D01*
X149100000Y-107500000D02*
X149100000Y-108400000D01*
%TO.N,GND*%
X113000000Y-104000000D02*
X119400000Y-104000000D01*
X149337685Y-105775500D02*
X149612185Y-106050000D01*
X149612185Y-106050000D02*
X150445305Y-106050000D01*
X152406708Y-104088597D02*
X152511444Y-104088597D01*
X119400000Y-104000000D02*
X120401424Y-102998576D01*
X150445305Y-106050000D02*
X152406708Y-104088597D01*
%TO.N,Net-(U1-Pad5)*%
X114600000Y-103200000D02*
X117800000Y-103200000D01*
X114400000Y-103000000D02*
X114600000Y-103200000D01*
X117800000Y-103200000D02*
X122405000Y-98595000D01*
%TO.N,Net-(U1-Pad7)*%
X115812299Y-108524500D02*
X114905000Y-109431799D01*
X114905000Y-109431799D02*
X114905000Y-113595000D01*
%TO.N,Net-(U1-Pad11)*%
X115400000Y-107800000D02*
X110992000Y-112208000D01*
X117000000Y-107800000D02*
X115400000Y-107800000D01*
X110992000Y-112508000D02*
X109905000Y-113595000D01*
X121800000Y-103000000D02*
X117000000Y-107800000D01*
X110992000Y-112208000D02*
X110992000Y-112508000D01*
%TO.N,Net-(U1-Pad14)*%
X123750000Y-113903626D02*
X122853626Y-114800000D01*
X123750000Y-110550000D02*
X123750000Y-113903626D01*
X122853626Y-114800000D02*
X121110000Y-114800000D01*
X122000000Y-108800000D02*
X123750000Y-110550000D01*
X121110000Y-114800000D02*
X119905000Y-113595000D01*
%TO.N,Net-(U1-Pad15)*%
X129200000Y-98600000D02*
X125850000Y-95250000D01*
X125850000Y-95250000D02*
X115750000Y-95250000D01*
X115750000Y-95250000D02*
X112405000Y-98595000D01*
%TO.N,Net-(U1-Pad16)*%
X122405000Y-111605000D02*
X122405000Y-113595000D01*
X119612299Y-108812299D02*
X122405000Y-111605000D01*
%TO.N,Net-(U1-Pad17)*%
X117000000Y-96500000D02*
X114905000Y-98595000D01*
X125100000Y-96500000D02*
X117000000Y-96500000D01*
X127200000Y-98600000D02*
X125100000Y-96500000D01*
%TO.N,Net-(U1-Pad20)*%
X118375500Y-112250000D02*
X116274500Y-112250000D01*
X118750000Y-112624500D02*
X118375500Y-112250000D01*
%TO.N,Net-(U1-Pad21)*%
X109905000Y-105905000D02*
X109905000Y-98595000D01*
X113000000Y-109000000D02*
X109905000Y-105905000D01*
%TO.N,Net-(U1-Pad23)*%
X111200000Y-109000000D02*
X107405000Y-105205000D01*
X107405000Y-105205000D02*
X107405000Y-98595000D01*
%TO.N,Net-(U3-Pad2)*%
X144000000Y-110540000D02*
X144000000Y-103200000D01*
X140955000Y-113585000D02*
X144000000Y-110540000D01*
%TO.N,Net-(U3-Pad5)*%
X144750000Y-99243604D02*
X144750000Y-96950000D01*
X147900000Y-103000000D02*
X147900000Y-102393604D01*
X144750000Y-96950000D02*
X144600000Y-96800000D01*
X147900000Y-102393604D02*
X144750000Y-99243604D01*
%TO.N,Net-(U3-Pad7)*%
X150435000Y-105035000D02*
X150435000Y-102835000D01*
%TO.N,Net-(U3-Pad8)*%
X158455000Y-98585000D02*
X157340000Y-99700000D01*
X157340000Y-99700000D02*
X152100000Y-99700000D01*
%TO.N,Net-(U3-Pad11)*%
X149074695Y-106500000D02*
X148375000Y-107199695D01*
X151900000Y-106500000D02*
X149074695Y-106500000D01*
X143455000Y-112945000D02*
X143455000Y-113585000D01*
X155400000Y-103000000D02*
X151900000Y-106500000D01*
X148375000Y-107199695D02*
X148375000Y-108025000D01*
X148375000Y-108025000D02*
X143455000Y-112945000D01*
%TO.N,Net-(U3-Pad15)*%
X154200000Y-109000000D02*
X154200000Y-108900000D01*
X149480000Y-102110000D02*
X145955000Y-98585000D01*
X157100000Y-103500000D02*
X155710000Y-102110000D01*
X154200000Y-108900000D02*
X157100000Y-106000000D01*
X155710000Y-102110000D02*
X149480000Y-102110000D01*
X157100000Y-106000000D02*
X157100000Y-103500000D01*
%TO.N,Net-(U3-Pad16)*%
X155955000Y-113585000D02*
X154683972Y-112313972D01*
X154683972Y-112313972D02*
X152966968Y-112313972D01*
%TO.N,Net-(U3-Pad17)*%
X148455000Y-98585000D02*
X151530000Y-101660000D01*
X157800000Y-106400000D02*
X155500000Y-108700000D01*
X151530000Y-101660000D02*
X155960000Y-101660000D01*
X157800000Y-103500000D02*
X157800000Y-106400000D01*
X155960000Y-101660000D02*
X157800000Y-103500000D01*
%TO.N,Net-(U3-Pad20)*%
X152167000Y-113834251D02*
X153004749Y-114672000D01*
X157368000Y-114672000D02*
X158455000Y-113585000D01*
X147895000Y-112294771D02*
X147993641Y-112393412D01*
X147993641Y-112393412D02*
X151510663Y-112393412D01*
X151510663Y-112393412D02*
X152167000Y-113049749D01*
X153004749Y-114672000D02*
X157368000Y-114672000D01*
X152167000Y-113049749D02*
X152167000Y-113834251D01*
%TO.N,Net-(U3-Pad21)*%
X144200000Y-99330000D02*
X143455000Y-98585000D01*
X146500000Y-103500000D02*
X144200000Y-101200000D01*
X146500000Y-108724500D02*
X146500000Y-103500000D01*
X144200000Y-101200000D02*
X144200000Y-99330000D01*
%TO.N,Net-(U3-Pad22)*%
X145377532Y-112352028D02*
X146602028Y-112352028D01*
X147872000Y-114672000D02*
X149868000Y-114672000D01*
X149868000Y-114672000D02*
X150955000Y-113585000D01*
X147250000Y-114050000D02*
X147872000Y-114672000D01*
X147250000Y-113000000D02*
X147250000Y-114050000D01*
X146602028Y-112352028D02*
X147250000Y-113000000D01*
%TO.N,Net-(U3-Pad23)*%
X143550000Y-103775305D02*
X140955000Y-101180305D01*
X140955000Y-101180305D02*
X140955000Y-98585000D01*
X143550000Y-108587750D02*
X143550000Y-103775305D01*
X143275500Y-108862250D02*
X143550000Y-108587750D01*
%TD*%
%TA.AperFunction,Conductor*%
%TO.N,/+5V*%
G36*
X126799418Y-91780502D02*
G01*
X126845911Y-91834158D01*
X126856015Y-91904432D01*
X126826521Y-91969012D01*
X126806862Y-91987326D01*
X126714276Y-92056715D01*
X126701715Y-92069276D01*
X126625214Y-92171351D01*
X126616676Y-92186946D01*
X126571522Y-92307394D01*
X126567895Y-92322649D01*
X126562369Y-92373514D01*
X126562000Y-92380328D01*
X126562000Y-93002885D01*
X126566475Y-93018124D01*
X126567865Y-93019329D01*
X126575548Y-93021000D01*
X128048000Y-93021000D01*
X128116121Y-93041002D01*
X128162614Y-93094658D01*
X128174000Y-93147000D01*
X128174000Y-93403000D01*
X128153998Y-93471121D01*
X128100342Y-93517614D01*
X128048000Y-93529000D01*
X126580116Y-93529000D01*
X126564877Y-93533475D01*
X126563672Y-93534865D01*
X126562001Y-93542548D01*
X126562001Y-94169669D01*
X126562371Y-94176490D01*
X126567895Y-94227352D01*
X126571521Y-94242604D01*
X126616676Y-94363054D01*
X126625214Y-94378649D01*
X126701715Y-94480724D01*
X126714276Y-94493285D01*
X126816351Y-94569786D01*
X126831946Y-94578324D01*
X126952394Y-94623478D01*
X126967649Y-94627105D01*
X127018514Y-94632631D01*
X127025328Y-94633000D01*
X127139961Y-94633000D01*
X127208082Y-94653002D01*
X127254575Y-94706658D01*
X127264883Y-94775446D01*
X127249117Y-94895201D01*
X127269755Y-95051963D01*
X127330263Y-95198042D01*
X127426517Y-95323483D01*
X127551958Y-95419737D01*
X127698037Y-95480245D01*
X127854799Y-95500883D01*
X128004535Y-95481170D01*
X128011561Y-95480245D01*
X128011705Y-95481341D01*
X128074968Y-95482847D01*
X128133763Y-95522641D01*
X128161711Y-95587906D01*
X128161524Y-95619307D01*
X128144318Y-95750000D01*
X128164956Y-95906762D01*
X128225464Y-96052841D01*
X128230492Y-96059394D01*
X128230494Y-96059397D01*
X128298462Y-96147975D01*
X128324063Y-96214195D01*
X128324500Y-96224679D01*
X128324500Y-96818562D01*
X128304498Y-96886683D01*
X128250842Y-96933176D01*
X128180568Y-96943280D01*
X128115988Y-96913786D01*
X128109405Y-96907657D01*
X126103220Y-94901472D01*
X126081837Y-94890577D01*
X126064991Y-94880253D01*
X126053604Y-94871980D01*
X126045581Y-94866151D01*
X126036150Y-94863087D01*
X126036147Y-94863085D01*
X126022763Y-94858736D01*
X126004502Y-94851172D01*
X125991964Y-94844784D01*
X125991963Y-94844784D01*
X125983126Y-94840281D01*
X125959429Y-94836528D01*
X125940210Y-94831914D01*
X125917393Y-94824500D01*
X115682607Y-94824500D01*
X115659790Y-94831914D01*
X115640571Y-94836528D01*
X115616874Y-94840281D01*
X115608037Y-94844784D01*
X115608036Y-94844784D01*
X115595498Y-94851172D01*
X115577237Y-94858736D01*
X115563853Y-94863085D01*
X115563850Y-94863087D01*
X115554419Y-94866151D01*
X115546396Y-94871980D01*
X115535009Y-94880253D01*
X115518163Y-94890577D01*
X115496780Y-94901472D01*
X112948333Y-97449919D01*
X112886021Y-97483945D01*
X112821979Y-97481189D01*
X112795350Y-97472946D01*
X112734679Y-97454165D01*
X112728554Y-97453521D01*
X112728553Y-97453521D01*
X112533582Y-97433029D01*
X112533580Y-97433029D01*
X112527453Y-97432385D01*
X112415804Y-97442546D01*
X112326085Y-97450711D01*
X112326084Y-97450711D01*
X112319944Y-97451270D01*
X112314030Y-97453011D01*
X112314028Y-97453011D01*
X112272529Y-97465225D01*
X112120055Y-97510101D01*
X112114590Y-97512958D01*
X111946448Y-97600860D01*
X111935399Y-97606636D01*
X111773011Y-97737200D01*
X111639075Y-97896818D01*
X111538693Y-98079411D01*
X111475690Y-98278025D01*
X111475004Y-98284142D01*
X111475003Y-98284146D01*
X111457158Y-98443238D01*
X111452463Y-98485093D01*
X111452979Y-98491237D01*
X111465293Y-98637874D01*
X111469899Y-98692730D01*
X111527333Y-98893025D01*
X111530151Y-98898507D01*
X111530152Y-98898511D01*
X111619756Y-99072862D01*
X111619759Y-99072866D01*
X111622577Y-99078350D01*
X111668874Y-99136763D01*
X111748174Y-99236816D01*
X111748179Y-99236821D01*
X111752003Y-99241646D01*
X111756696Y-99245640D01*
X111756697Y-99245641D01*
X111905988Y-99372697D01*
X111910683Y-99376693D01*
X111916061Y-99379699D01*
X111916063Y-99379700D01*
X111991279Y-99421736D01*
X112092571Y-99478346D01*
X112290740Y-99542735D01*
X112497641Y-99567407D01*
X112503776Y-99566935D01*
X112503778Y-99566935D01*
X112699252Y-99551894D01*
X112699256Y-99551893D01*
X112705394Y-99551421D01*
X112906085Y-99495387D01*
X112911589Y-99492607D01*
X112911591Y-99492606D01*
X113086570Y-99404218D01*
X113086572Y-99404217D01*
X113092071Y-99401439D01*
X113256266Y-99273156D01*
X113392417Y-99115423D01*
X113402678Y-99097361D01*
X113492294Y-98939610D01*
X113492296Y-98939606D01*
X113495339Y-98934249D01*
X113528224Y-98835392D01*
X113559164Y-98742382D01*
X113559165Y-98742379D01*
X113561109Y-98736534D01*
X113565894Y-98698655D01*
X113586783Y-98533312D01*
X113586784Y-98533305D01*
X113587225Y-98529810D01*
X113587641Y-98500000D01*
X113586179Y-98485093D01*
X113952463Y-98485093D01*
X113952979Y-98491237D01*
X113965293Y-98637874D01*
X113969899Y-98692730D01*
X114027333Y-98893025D01*
X114030151Y-98898507D01*
X114030152Y-98898511D01*
X114119756Y-99072862D01*
X114119759Y-99072866D01*
X114122577Y-99078350D01*
X114168874Y-99136763D01*
X114248174Y-99236816D01*
X114248179Y-99236821D01*
X114252003Y-99241646D01*
X114256696Y-99245640D01*
X114256697Y-99245641D01*
X114405988Y-99372697D01*
X114410683Y-99376693D01*
X114416061Y-99379699D01*
X114416063Y-99379700D01*
X114491279Y-99421736D01*
X114592571Y-99478346D01*
X114790740Y-99542735D01*
X114997641Y-99567407D01*
X115003776Y-99566935D01*
X115003778Y-99566935D01*
X115199252Y-99551894D01*
X115199256Y-99551893D01*
X115205394Y-99551421D01*
X115406085Y-99495387D01*
X115411589Y-99492607D01*
X115411591Y-99492606D01*
X115586570Y-99404218D01*
X115586572Y-99404217D01*
X115592071Y-99401439D01*
X115756266Y-99273156D01*
X115892417Y-99115423D01*
X115902678Y-99097361D01*
X115992294Y-98939610D01*
X115992296Y-98939606D01*
X115995339Y-98934249D01*
X116028224Y-98835392D01*
X116059164Y-98742382D01*
X116059165Y-98742379D01*
X116061109Y-98736534D01*
X116065894Y-98698655D01*
X116086783Y-98533312D01*
X116086784Y-98533305D01*
X116087225Y-98529810D01*
X116087641Y-98500000D01*
X116086179Y-98485093D01*
X116452463Y-98485093D01*
X116452979Y-98491237D01*
X116465293Y-98637874D01*
X116469899Y-98692730D01*
X116527333Y-98893025D01*
X116530151Y-98898507D01*
X116530152Y-98898511D01*
X116619756Y-99072862D01*
X116619759Y-99072866D01*
X116622577Y-99078350D01*
X116668874Y-99136763D01*
X116748174Y-99236816D01*
X116748179Y-99236821D01*
X116752003Y-99241646D01*
X116756696Y-99245640D01*
X116756697Y-99245641D01*
X116905988Y-99372697D01*
X116910683Y-99376693D01*
X116916061Y-99379699D01*
X116916063Y-99379700D01*
X116991279Y-99421736D01*
X117092571Y-99478346D01*
X117290740Y-99542735D01*
X117497641Y-99567407D01*
X117503776Y-99566935D01*
X117503778Y-99566935D01*
X117699252Y-99551894D01*
X117699256Y-99551893D01*
X117705394Y-99551421D01*
X117906085Y-99495387D01*
X117911589Y-99492607D01*
X117911591Y-99492606D01*
X118086570Y-99404218D01*
X118086572Y-99404217D01*
X118092071Y-99401439D01*
X118256266Y-99273156D01*
X118392417Y-99115423D01*
X118402678Y-99097361D01*
X118492294Y-98939610D01*
X118492296Y-98939606D01*
X118495339Y-98934249D01*
X118528224Y-98835392D01*
X118559164Y-98742382D01*
X118559165Y-98742379D01*
X118561109Y-98736534D01*
X118565894Y-98698655D01*
X118586783Y-98533312D01*
X118586784Y-98533305D01*
X118587225Y-98529810D01*
X118587641Y-98500000D01*
X118586179Y-98485093D01*
X118952463Y-98485093D01*
X118952979Y-98491237D01*
X118965293Y-98637874D01*
X118969899Y-98692730D01*
X119027333Y-98893025D01*
X119030151Y-98898507D01*
X119030152Y-98898511D01*
X119119756Y-99072862D01*
X119119759Y-99072866D01*
X119122577Y-99078350D01*
X119168874Y-99136763D01*
X119248174Y-99236816D01*
X119248179Y-99236821D01*
X119252003Y-99241646D01*
X119256696Y-99245640D01*
X119256697Y-99245641D01*
X119405988Y-99372697D01*
X119410683Y-99376693D01*
X119416061Y-99379699D01*
X119416063Y-99379700D01*
X119491279Y-99421736D01*
X119592571Y-99478346D01*
X119790740Y-99542735D01*
X119997641Y-99567407D01*
X120003776Y-99566935D01*
X120003778Y-99566935D01*
X120199252Y-99551894D01*
X120199256Y-99551893D01*
X120205394Y-99551421D01*
X120406085Y-99495387D01*
X120411589Y-99492607D01*
X120411591Y-99492606D01*
X120586570Y-99404218D01*
X120586572Y-99404217D01*
X120592071Y-99401439D01*
X120756266Y-99273156D01*
X120892417Y-99115423D01*
X120902678Y-99097361D01*
X120992294Y-98939610D01*
X120992296Y-98939606D01*
X120995339Y-98934249D01*
X121028224Y-98835392D01*
X121059164Y-98742382D01*
X121059165Y-98742379D01*
X121061109Y-98736534D01*
X121065894Y-98698655D01*
X121086783Y-98533312D01*
X121086784Y-98533305D01*
X121087225Y-98529810D01*
X121087641Y-98500000D01*
X121067308Y-98292627D01*
X121007083Y-98093154D01*
X120909261Y-97909176D01*
X120903590Y-97902222D01*
X120816313Y-97795211D01*
X120777567Y-97747704D01*
X120617017Y-97614885D01*
X120433728Y-97515781D01*
X120234679Y-97454165D01*
X120228554Y-97453521D01*
X120228553Y-97453521D01*
X120033582Y-97433029D01*
X120033580Y-97433029D01*
X120027453Y-97432385D01*
X119915804Y-97442546D01*
X119826085Y-97450711D01*
X119826084Y-97450711D01*
X119819944Y-97451270D01*
X119814030Y-97453011D01*
X119814028Y-97453011D01*
X119772529Y-97465225D01*
X119620055Y-97510101D01*
X119614590Y-97512958D01*
X119446448Y-97600860D01*
X119435399Y-97606636D01*
X119273011Y-97737200D01*
X119139075Y-97896818D01*
X119038693Y-98079411D01*
X118975690Y-98278025D01*
X118975004Y-98284142D01*
X118975003Y-98284146D01*
X118957158Y-98443238D01*
X118952463Y-98485093D01*
X118586179Y-98485093D01*
X118567308Y-98292627D01*
X118507083Y-98093154D01*
X118409261Y-97909176D01*
X118403590Y-97902222D01*
X118316313Y-97795211D01*
X118277567Y-97747704D01*
X118117017Y-97614885D01*
X117933728Y-97515781D01*
X117734679Y-97454165D01*
X117728554Y-97453521D01*
X117728553Y-97453521D01*
X117533582Y-97433029D01*
X117533580Y-97433029D01*
X117527453Y-97432385D01*
X117415804Y-97442546D01*
X117326085Y-97450711D01*
X117326084Y-97450711D01*
X117319944Y-97451270D01*
X117314030Y-97453011D01*
X117314028Y-97453011D01*
X117272529Y-97465225D01*
X117120055Y-97510101D01*
X117114590Y-97512958D01*
X116946448Y-97600860D01*
X116935399Y-97606636D01*
X116773011Y-97737200D01*
X116639075Y-97896818D01*
X116538693Y-98079411D01*
X116475690Y-98278025D01*
X116475004Y-98284142D01*
X116475003Y-98284146D01*
X116457158Y-98443238D01*
X116452463Y-98485093D01*
X116086179Y-98485093D01*
X116067308Y-98292627D01*
X116029229Y-98166506D01*
X116028688Y-98095511D01*
X116060756Y-98040992D01*
X117139343Y-96962405D01*
X117201655Y-96928379D01*
X117228438Y-96925500D01*
X124871562Y-96925500D01*
X124939683Y-96945502D01*
X124960657Y-96962405D01*
X125226393Y-97228141D01*
X125260419Y-97290453D01*
X125255354Y-97361268D01*
X125212807Y-97418104D01*
X125146287Y-97442915D01*
X125124130Y-97442546D01*
X125027453Y-97432385D01*
X124915804Y-97442546D01*
X124826085Y-97450711D01*
X124826084Y-97450711D01*
X124819944Y-97451270D01*
X124814030Y-97453011D01*
X124814028Y-97453011D01*
X124772529Y-97465225D01*
X124620055Y-97510101D01*
X124614590Y-97512958D01*
X124446448Y-97600860D01*
X124435399Y-97606636D01*
X124273011Y-97737200D01*
X124139075Y-97896818D01*
X124038693Y-98079411D01*
X123975690Y-98278025D01*
X123975004Y-98284142D01*
X123975003Y-98284146D01*
X123957158Y-98443238D01*
X123952463Y-98485093D01*
X123952979Y-98491237D01*
X123965293Y-98637874D01*
X123969899Y-98692730D01*
X124027333Y-98893025D01*
X124030151Y-98898507D01*
X124030152Y-98898511D01*
X124119756Y-99072862D01*
X124119759Y-99072866D01*
X124122577Y-99078350D01*
X124168874Y-99136763D01*
X124248174Y-99236816D01*
X124248179Y-99236821D01*
X124252003Y-99241646D01*
X124256696Y-99245640D01*
X124256697Y-99245641D01*
X124405988Y-99372697D01*
X124410683Y-99376693D01*
X124416061Y-99379699D01*
X124416063Y-99379700D01*
X124491279Y-99421736D01*
X124592571Y-99478346D01*
X124790740Y-99542735D01*
X124997641Y-99567407D01*
X125003776Y-99566935D01*
X125003778Y-99566935D01*
X125199252Y-99551894D01*
X125199256Y-99551893D01*
X125205394Y-99551421D01*
X125406085Y-99495387D01*
X125411589Y-99492607D01*
X125411591Y-99492606D01*
X125586570Y-99404218D01*
X125586572Y-99404217D01*
X125592071Y-99401439D01*
X125756266Y-99273156D01*
X125892417Y-99115423D01*
X125902678Y-99097361D01*
X125992294Y-98939610D01*
X125992296Y-98939606D01*
X125995339Y-98934249D01*
X126028224Y-98835392D01*
X126059164Y-98742382D01*
X126059165Y-98742379D01*
X126061109Y-98736534D01*
X126065894Y-98698655D01*
X126086783Y-98533312D01*
X126086784Y-98533305D01*
X126087225Y-98529810D01*
X126087641Y-98500000D01*
X126077343Y-98394975D01*
X126090602Y-98325228D01*
X126139465Y-98273721D01*
X126208418Y-98256808D01*
X126275568Y-98279858D01*
X126291837Y-98293585D01*
X126563477Y-98565225D01*
X126597503Y-98627537D01*
X126599304Y-98637874D01*
X126614956Y-98756762D01*
X126675464Y-98902841D01*
X126703678Y-98939610D01*
X126750017Y-99000000D01*
X126771718Y-99028282D01*
X126778264Y-99033305D01*
X126807918Y-99056059D01*
X126897159Y-99124536D01*
X127043238Y-99185044D01*
X127200000Y-99205682D01*
X127208188Y-99204604D01*
X127236764Y-99200842D01*
X127356762Y-99185044D01*
X127502841Y-99124536D01*
X127592082Y-99056059D01*
X127621736Y-99033305D01*
X127628282Y-99028282D01*
X127649984Y-99000000D01*
X127696322Y-98939610D01*
X127724536Y-98902841D01*
X127785044Y-98756762D01*
X127805682Y-98600000D01*
X127785044Y-98443238D01*
X127724536Y-98297159D01*
X127628282Y-98171718D01*
X127502841Y-98075464D01*
X127356762Y-98014956D01*
X127309964Y-98008795D01*
X127237874Y-97999304D01*
X127172946Y-97970582D01*
X127165225Y-97963477D01*
X125353220Y-96151472D01*
X125331837Y-96140577D01*
X125314991Y-96130253D01*
X125303604Y-96121980D01*
X125295581Y-96116151D01*
X125286150Y-96113087D01*
X125286147Y-96113085D01*
X125272763Y-96108736D01*
X125254502Y-96101172D01*
X125241964Y-96094784D01*
X125241963Y-96094784D01*
X125233126Y-96090281D01*
X125209429Y-96086528D01*
X125190210Y-96081914D01*
X125167393Y-96074500D01*
X116932607Y-96074500D01*
X116909790Y-96081914D01*
X116890571Y-96086528D01*
X116866874Y-96090281D01*
X116858037Y-96094784D01*
X116858036Y-96094784D01*
X116845498Y-96101172D01*
X116827237Y-96108736D01*
X116813853Y-96113085D01*
X116813850Y-96113087D01*
X116804419Y-96116151D01*
X116796396Y-96121980D01*
X116785009Y-96130253D01*
X116768163Y-96140577D01*
X116746780Y-96151472D01*
X115448333Y-97449919D01*
X115386021Y-97483945D01*
X115321979Y-97481189D01*
X115295350Y-97472946D01*
X115234679Y-97454165D01*
X115228554Y-97453521D01*
X115228553Y-97453521D01*
X115033582Y-97433029D01*
X115033580Y-97433029D01*
X115027453Y-97432385D01*
X114915804Y-97442546D01*
X114826085Y-97450711D01*
X114826084Y-97450711D01*
X114819944Y-97451270D01*
X114814030Y-97453011D01*
X114814028Y-97453011D01*
X114772529Y-97465225D01*
X114620055Y-97510101D01*
X114614590Y-97512958D01*
X114446448Y-97600860D01*
X114435399Y-97606636D01*
X114273011Y-97737200D01*
X114139075Y-97896818D01*
X114038693Y-98079411D01*
X113975690Y-98278025D01*
X113975004Y-98284142D01*
X113975003Y-98284146D01*
X113957158Y-98443238D01*
X113952463Y-98485093D01*
X113586179Y-98485093D01*
X113567308Y-98292627D01*
X113529229Y-98166506D01*
X113528688Y-98095511D01*
X113560756Y-98040992D01*
X115889343Y-95712405D01*
X115951655Y-95678379D01*
X115978438Y-95675500D01*
X125621562Y-95675500D01*
X125689683Y-95695502D01*
X125710657Y-95712405D01*
X128563477Y-98565225D01*
X128597503Y-98627537D01*
X128599304Y-98637874D01*
X128614956Y-98756762D01*
X128675464Y-98902841D01*
X128703678Y-98939610D01*
X128750017Y-99000000D01*
X128771718Y-99028282D01*
X128778264Y-99033305D01*
X128807918Y-99056059D01*
X128897159Y-99124536D01*
X129043238Y-99185044D01*
X129200000Y-99205682D01*
X129208188Y-99204604D01*
X129236764Y-99200842D01*
X129356762Y-99185044D01*
X129502841Y-99124536D01*
X129592082Y-99056059D01*
X129621736Y-99033305D01*
X129628282Y-99028282D01*
X129633305Y-99021736D01*
X129633309Y-99021732D01*
X129720727Y-98907807D01*
X129778065Y-98865940D01*
X129848936Y-98861718D01*
X129909784Y-98895416D01*
X137037595Y-106023227D01*
X137071621Y-106085539D01*
X137074500Y-106112322D01*
X137074500Y-110275321D01*
X137054498Y-110343442D01*
X137048462Y-110352025D01*
X136980494Y-110440603D01*
X136980492Y-110440606D01*
X136975464Y-110447159D01*
X136914956Y-110593238D01*
X136894318Y-110750000D01*
X136914956Y-110906762D01*
X136975464Y-111052841D01*
X137071718Y-111178282D01*
X137197159Y-111274536D01*
X137343238Y-111335044D01*
X137500000Y-111355682D01*
X137508188Y-111354604D01*
X137648574Y-111336122D01*
X137656762Y-111335044D01*
X137802841Y-111274536D01*
X137928282Y-111178282D01*
X138024536Y-111052841D01*
X138085044Y-110906762D01*
X138105682Y-110750000D01*
X138085044Y-110593238D01*
X138024536Y-110447159D01*
X138019508Y-110440606D01*
X138019506Y-110440603D01*
X137951538Y-110352025D01*
X137925937Y-110285805D01*
X137925500Y-110275321D01*
X137925500Y-105816491D01*
X137922437Y-105807064D01*
X137922436Y-105807057D01*
X137918087Y-105793672D01*
X137913473Y-105774453D01*
X137911272Y-105760556D01*
X137911270Y-105760549D01*
X137909719Y-105750758D01*
X137898827Y-105729382D01*
X137891264Y-105711121D01*
X137886914Y-105697734D01*
X137883850Y-105688303D01*
X137875320Y-105676562D01*
X137869749Y-105668895D01*
X137859417Y-105652036D01*
X137853031Y-105639502D01*
X137848528Y-105630664D01*
X129212405Y-96994541D01*
X129178379Y-96932229D01*
X129175500Y-96905446D01*
X129175500Y-96224679D01*
X129195502Y-96156558D01*
X129201538Y-96147975D01*
X129269506Y-96059397D01*
X129269508Y-96059394D01*
X129274536Y-96052841D01*
X129335044Y-95906762D01*
X129355682Y-95750000D01*
X129335044Y-95593238D01*
X129328850Y-95578283D01*
X129294319Y-95494919D01*
X129286730Y-95424329D01*
X129318509Y-95360842D01*
X129379567Y-95324615D01*
X129410728Y-95320701D01*
X131866763Y-95320701D01*
X131934884Y-95340703D01*
X131955858Y-95357606D01*
X135036242Y-98437990D01*
X135070268Y-98500302D01*
X135065203Y-98571117D01*
X135047109Y-98603789D01*
X134980494Y-98690603D01*
X134980492Y-98690606D01*
X134975464Y-98697159D01*
X134914956Y-98843238D01*
X134894318Y-99000000D01*
X134895396Y-99008188D01*
X134911508Y-99130568D01*
X134914956Y-99156762D01*
X134975464Y-99302841D01*
X135071718Y-99428282D01*
X135197159Y-99524536D01*
X135343238Y-99585044D01*
X135500000Y-99605682D01*
X135508188Y-99604604D01*
X135648574Y-99586122D01*
X135656762Y-99585044D01*
X135802841Y-99524536D01*
X135928282Y-99428282D01*
X136024536Y-99302841D01*
X136085044Y-99156762D01*
X136096428Y-99070291D01*
X136100696Y-99037874D01*
X136129418Y-98972946D01*
X136136523Y-98965225D01*
X136965225Y-98136523D01*
X137027537Y-98102497D01*
X137037874Y-98100696D01*
X137109964Y-98091205D01*
X137156762Y-98085044D01*
X137302841Y-98024536D01*
X137428282Y-97928282D01*
X137438768Y-97914617D01*
X137471580Y-97871855D01*
X137524536Y-97802841D01*
X137585044Y-97656762D01*
X137593294Y-97594097D01*
X137600696Y-97537874D01*
X137629418Y-97472946D01*
X137636523Y-97465225D01*
X138428528Y-96673220D01*
X138439423Y-96651837D01*
X138449747Y-96634991D01*
X138458020Y-96623604D01*
X138463849Y-96615581D01*
X138466913Y-96606150D01*
X138466915Y-96606147D01*
X138471264Y-96592763D01*
X138478828Y-96574502D01*
X138485216Y-96561964D01*
X138485216Y-96561963D01*
X138489719Y-96553126D01*
X138493472Y-96529429D01*
X138498086Y-96510210D01*
X138505500Y-96487393D01*
X138505500Y-94429282D01*
X138525502Y-94361161D01*
X138569934Y-94319348D01*
X138574273Y-94316918D01*
X138734442Y-94227219D01*
X138897012Y-94092012D01*
X139032219Y-93929442D01*
X139035043Y-93924399D01*
X139035046Y-93924395D01*
X139132713Y-93749998D01*
X139132714Y-93749996D01*
X139135537Y-93744955D01*
X139137393Y-93739488D01*
X139137395Y-93739483D01*
X139140614Y-93730000D01*
X156254532Y-93730000D01*
X156255011Y-93735475D01*
X156255011Y-93735478D01*
X156256832Y-93756292D01*
X156274365Y-93956692D01*
X156275789Y-93962005D01*
X156275789Y-93962007D01*
X156331433Y-94169672D01*
X156333261Y-94176496D01*
X156335583Y-94181476D01*
X156335584Y-94181478D01*
X156412129Y-94345627D01*
X156429432Y-94382734D01*
X156559953Y-94569139D01*
X156720861Y-94730047D01*
X156907266Y-94860568D01*
X156912244Y-94862889D01*
X156912247Y-94862891D01*
X157108522Y-94954416D01*
X157113504Y-94956739D01*
X157118812Y-94958161D01*
X157118814Y-94958162D01*
X157327993Y-95014211D01*
X157327995Y-95014211D01*
X157333308Y-95015635D01*
X157560000Y-95035468D01*
X157786692Y-95015635D01*
X157792005Y-95014211D01*
X157792007Y-95014211D01*
X158001186Y-94958162D01*
X158001188Y-94958161D01*
X158006496Y-94956739D01*
X158011478Y-94954416D01*
X158207753Y-94862891D01*
X158207756Y-94862889D01*
X158212734Y-94860568D01*
X158399139Y-94730047D01*
X158560047Y-94569139D01*
X158690568Y-94382734D01*
X158707872Y-94345627D01*
X158784416Y-94181478D01*
X158784417Y-94181476D01*
X158786739Y-94176496D01*
X158788568Y-94169672D01*
X158844211Y-93962007D01*
X158844211Y-93962005D01*
X158845635Y-93956692D01*
X158865468Y-93730000D01*
X158845635Y-93503308D01*
X158844211Y-93497993D01*
X158788162Y-93288814D01*
X158788161Y-93288812D01*
X158786739Y-93283504D01*
X158784416Y-93278522D01*
X158692891Y-93082247D01*
X158692889Y-93082244D01*
X158690568Y-93077266D01*
X158560047Y-92890861D01*
X158399139Y-92729953D01*
X158212734Y-92599432D01*
X158207756Y-92597111D01*
X158207753Y-92597109D01*
X158011478Y-92505584D01*
X158011476Y-92505583D01*
X158006496Y-92503261D01*
X158001188Y-92501839D01*
X158001186Y-92501838D01*
X157792007Y-92445789D01*
X157792005Y-92445789D01*
X157786692Y-92444365D01*
X157560000Y-92424532D01*
X157333308Y-92444365D01*
X157327995Y-92445789D01*
X157327993Y-92445789D01*
X157118814Y-92501838D01*
X157118812Y-92501839D01*
X157113504Y-92503261D01*
X157108524Y-92505583D01*
X157108522Y-92505584D01*
X156912247Y-92597109D01*
X156912244Y-92597111D01*
X156907266Y-92599432D01*
X156720861Y-92729953D01*
X156559953Y-92890861D01*
X156429432Y-93077266D01*
X156427111Y-93082244D01*
X156427109Y-93082247D01*
X156335584Y-93278522D01*
X156333261Y-93283504D01*
X156331839Y-93288812D01*
X156331838Y-93288814D01*
X156275789Y-93497993D01*
X156274365Y-93503308D01*
X156260596Y-93660690D01*
X156255173Y-93722675D01*
X156255172Y-93722675D01*
X156255173Y-93722678D01*
X156254532Y-93730000D01*
X139140614Y-93730000D01*
X139184173Y-93601676D01*
X139203504Y-93544730D01*
X139204935Y-93534865D01*
X139233314Y-93339140D01*
X139233314Y-93339138D01*
X139233846Y-93335470D01*
X139235429Y-93275000D01*
X139216081Y-93064440D01*
X139207817Y-93035136D01*
X139193431Y-92984127D01*
X139158686Y-92860931D01*
X139147553Y-92838354D01*
X139067719Y-92676469D01*
X139065165Y-92671290D01*
X138965565Y-92537909D01*
X138942104Y-92506491D01*
X138942103Y-92506490D01*
X138938651Y-92501867D01*
X138807171Y-92380328D01*
X138787622Y-92362257D01*
X138787620Y-92362255D01*
X138783381Y-92358337D01*
X138604554Y-92245505D01*
X138408160Y-92167152D01*
X138402503Y-92166027D01*
X138402497Y-92166025D01*
X138206442Y-92127028D01*
X138206440Y-92127028D01*
X138200775Y-92125901D01*
X138195000Y-92125825D01*
X138194996Y-92125825D01*
X138088976Y-92124437D01*
X137989346Y-92123133D01*
X137983649Y-92124112D01*
X137983648Y-92124112D01*
X137786650Y-92157962D01*
X137786649Y-92157962D01*
X137780953Y-92158941D01*
X137582575Y-92232127D01*
X137577614Y-92235079D01*
X137577613Y-92235079D01*
X137430421Y-92322649D01*
X137400856Y-92340238D01*
X137241881Y-92479655D01*
X137110976Y-92645708D01*
X137108287Y-92650819D01*
X137108285Y-92650822D01*
X137066652Y-92729953D01*
X137012523Y-92832836D01*
X136949820Y-93034773D01*
X136949141Y-93040510D01*
X136935088Y-93159239D01*
X136907217Y-93224537D01*
X136848469Y-93264401D01*
X136777494Y-93266174D01*
X136716828Y-93229295D01*
X136685730Y-93165471D01*
X136684490Y-93155958D01*
X136684077Y-93151457D01*
X136676081Y-93064440D01*
X136667817Y-93035136D01*
X136653431Y-92984127D01*
X136618686Y-92860931D01*
X136607553Y-92838354D01*
X136527719Y-92676469D01*
X136525165Y-92671290D01*
X136425565Y-92537909D01*
X136402104Y-92506491D01*
X136402103Y-92506490D01*
X136398651Y-92501867D01*
X136267171Y-92380328D01*
X136247622Y-92362257D01*
X136247620Y-92362255D01*
X136243381Y-92358337D01*
X136064554Y-92245505D01*
X135868160Y-92167152D01*
X135862503Y-92166027D01*
X135862497Y-92166025D01*
X135666442Y-92127028D01*
X135666440Y-92127028D01*
X135660775Y-92125901D01*
X135655000Y-92125825D01*
X135654996Y-92125825D01*
X135548976Y-92124437D01*
X135449346Y-92123133D01*
X135443649Y-92124112D01*
X135443648Y-92124112D01*
X135246650Y-92157962D01*
X135246649Y-92157962D01*
X135240953Y-92158941D01*
X135042575Y-92232127D01*
X135037614Y-92235079D01*
X135037613Y-92235079D01*
X134890421Y-92322649D01*
X134860856Y-92340238D01*
X134701881Y-92479655D01*
X134570976Y-92645708D01*
X134568287Y-92650819D01*
X134568285Y-92650822D01*
X134526652Y-92729953D01*
X134472523Y-92832836D01*
X134409820Y-93034773D01*
X134409141Y-93040510D01*
X134395088Y-93159239D01*
X134367217Y-93224537D01*
X134308469Y-93264401D01*
X134237494Y-93266174D01*
X134176828Y-93229295D01*
X134145730Y-93165471D01*
X134144490Y-93155958D01*
X134144077Y-93151457D01*
X134136081Y-93064440D01*
X134127817Y-93035136D01*
X134113431Y-92984127D01*
X134078686Y-92860931D01*
X134067553Y-92838354D01*
X133987719Y-92676469D01*
X133985165Y-92671290D01*
X133885565Y-92537909D01*
X133862104Y-92506491D01*
X133862103Y-92506490D01*
X133858651Y-92501867D01*
X133727171Y-92380328D01*
X133707622Y-92362257D01*
X133707620Y-92362255D01*
X133703381Y-92358337D01*
X133524554Y-92245505D01*
X133328160Y-92167152D01*
X133322503Y-92166027D01*
X133322497Y-92166025D01*
X133126442Y-92127028D01*
X133126440Y-92127028D01*
X133120775Y-92125901D01*
X133115000Y-92125825D01*
X133114996Y-92125825D01*
X133008976Y-92124437D01*
X132909346Y-92123133D01*
X132903649Y-92124112D01*
X132903648Y-92124112D01*
X132706650Y-92157962D01*
X132706649Y-92157962D01*
X132700953Y-92158941D01*
X132502575Y-92232127D01*
X132497614Y-92235079D01*
X132497613Y-92235079D01*
X132350421Y-92322649D01*
X132320856Y-92340238D01*
X132161881Y-92479655D01*
X132030976Y-92645708D01*
X132028287Y-92650819D01*
X132028285Y-92650822D01*
X131986652Y-92729953D01*
X131932523Y-92832836D01*
X131869820Y-93034773D01*
X131869141Y-93040510D01*
X131858348Y-93131697D01*
X131830477Y-93196995D01*
X131771729Y-93236858D01*
X131700754Y-93238632D01*
X131644126Y-93205982D01*
X131637750Y-93199606D01*
X131603724Y-93137294D01*
X131601374Y-93122041D01*
X131596610Y-93070197D01*
X131596081Y-93064440D01*
X131538686Y-92860931D01*
X131527553Y-92838354D01*
X131447719Y-92676469D01*
X131445165Y-92671290D01*
X131345565Y-92537909D01*
X131322104Y-92506491D01*
X131322103Y-92506490D01*
X131318651Y-92501867D01*
X131187171Y-92380328D01*
X131167622Y-92362257D01*
X131167620Y-92362255D01*
X131163381Y-92358337D01*
X130984554Y-92245505D01*
X130788160Y-92167152D01*
X130782503Y-92166027D01*
X130782497Y-92166025D01*
X130586442Y-92127028D01*
X130586440Y-92127028D01*
X130580775Y-92125901D01*
X130575000Y-92125825D01*
X130574996Y-92125825D01*
X130468976Y-92124437D01*
X130369346Y-92123133D01*
X130363649Y-92124112D01*
X130363648Y-92124112D01*
X130166650Y-92157962D01*
X130166649Y-92157962D01*
X130160953Y-92158941D01*
X129962575Y-92232127D01*
X129957614Y-92235079D01*
X129957613Y-92235079D01*
X129810421Y-92322649D01*
X129780856Y-92340238D01*
X129621881Y-92479655D01*
X129604371Y-92501867D01*
X129502949Y-92630520D01*
X129445068Y-92671633D01*
X129374148Y-92674927D01*
X129312705Y-92639356D01*
X129280248Y-92576213D01*
X129277999Y-92552514D01*
X129277999Y-92380331D01*
X129277629Y-92373510D01*
X129272105Y-92322648D01*
X129268479Y-92307396D01*
X129223324Y-92186946D01*
X129214786Y-92171351D01*
X129138285Y-92069276D01*
X129125724Y-92056715D01*
X129033138Y-91987326D01*
X128990623Y-91930467D01*
X128985597Y-91859649D01*
X129019657Y-91797355D01*
X129081988Y-91763365D01*
X129108703Y-91760500D01*
X157522683Y-91760500D01*
X157544563Y-91762414D01*
X157549144Y-91763222D01*
X157549145Y-91763222D01*
X157560000Y-91765136D01*
X157570858Y-91763221D01*
X157581879Y-91763221D01*
X157581879Y-91763429D01*
X157594327Y-91762750D01*
X157808829Y-91776809D01*
X157825169Y-91778960D01*
X157943407Y-91802479D01*
X158061649Y-91825999D01*
X158077563Y-91830263D01*
X158089037Y-91834158D01*
X158305873Y-91907764D01*
X158321100Y-91914071D01*
X158537342Y-92020710D01*
X158551616Y-92028951D01*
X158752091Y-92162904D01*
X158765166Y-92172937D01*
X158946445Y-92331914D01*
X158958086Y-92343555D01*
X159077442Y-92479655D01*
X159117063Y-92524834D01*
X159127096Y-92537909D01*
X159261049Y-92738384D01*
X159269290Y-92752658D01*
X159375929Y-92968900D01*
X159382236Y-92984127D01*
X159459736Y-93212434D01*
X159464001Y-93228351D01*
X159466046Y-93238632D01*
X159511040Y-93464831D01*
X159513191Y-93481171D01*
X159527250Y-93695673D01*
X159526571Y-93708121D01*
X159526779Y-93708121D01*
X159526779Y-93719142D01*
X159524864Y-93730000D01*
X159526778Y-93740855D01*
X159526778Y-93740856D01*
X159527586Y-93745437D01*
X159529500Y-93767317D01*
X159529500Y-97638720D01*
X159509498Y-97706841D01*
X159455842Y-97753334D01*
X159385568Y-97763438D01*
X159323185Y-97735805D01*
X159181767Y-97618813D01*
X159181757Y-97618806D01*
X159177017Y-97614885D01*
X158993728Y-97515781D01*
X158794679Y-97454165D01*
X158788554Y-97453521D01*
X158788553Y-97453521D01*
X158593582Y-97433029D01*
X158593580Y-97433029D01*
X158587453Y-97432385D01*
X158475804Y-97442546D01*
X158386085Y-97450711D01*
X158386084Y-97450711D01*
X158379944Y-97451270D01*
X158374030Y-97453011D01*
X158374028Y-97453011D01*
X158332529Y-97465225D01*
X158180055Y-97510101D01*
X158174590Y-97512958D01*
X158006448Y-97600860D01*
X157995399Y-97606636D01*
X157833011Y-97737200D01*
X157699075Y-97896818D01*
X157598693Y-98079411D01*
X157535690Y-98278025D01*
X157535004Y-98284142D01*
X157535003Y-98284146D01*
X157517158Y-98443238D01*
X157512463Y-98485093D01*
X157512979Y-98491237D01*
X157525293Y-98637874D01*
X157529899Y-98692730D01*
X157531598Y-98698654D01*
X157531598Y-98698655D01*
X157557492Y-98788959D01*
X157557041Y-98859954D01*
X157525468Y-98912785D01*
X157359902Y-99078350D01*
X157200656Y-99237596D01*
X157138344Y-99271621D01*
X157111561Y-99274500D01*
X157078538Y-99274500D01*
X157010417Y-99254498D01*
X156963924Y-99200842D01*
X156953820Y-99130568D01*
X156968982Y-99086263D01*
X156972399Y-99080249D01*
X157010116Y-99013855D01*
X157052294Y-98939610D01*
X157052296Y-98939606D01*
X157055339Y-98934249D01*
X157088224Y-98835392D01*
X157119164Y-98742382D01*
X157119165Y-98742379D01*
X157121109Y-98736534D01*
X157125894Y-98698655D01*
X157146783Y-98533312D01*
X157146784Y-98533305D01*
X157147225Y-98529810D01*
X157147641Y-98500000D01*
X157127308Y-98292627D01*
X157067083Y-98093154D01*
X156969261Y-97909176D01*
X156963590Y-97902222D01*
X156876313Y-97795211D01*
X156837567Y-97747704D01*
X156677017Y-97614885D01*
X156493728Y-97515781D01*
X156294679Y-97454165D01*
X156288554Y-97453521D01*
X156288553Y-97453521D01*
X156093582Y-97433029D01*
X156093580Y-97433029D01*
X156087453Y-97432385D01*
X155975804Y-97442546D01*
X155886085Y-97450711D01*
X155886084Y-97450711D01*
X155879944Y-97451270D01*
X155874030Y-97453011D01*
X155874028Y-97453011D01*
X155832529Y-97465225D01*
X155680055Y-97510101D01*
X155674590Y-97512958D01*
X155506448Y-97600860D01*
X155495399Y-97606636D01*
X155333011Y-97737200D01*
X155199075Y-97896818D01*
X155098693Y-98079411D01*
X155035690Y-98278025D01*
X155035004Y-98284142D01*
X155035003Y-98284146D01*
X155017158Y-98443238D01*
X155012463Y-98485093D01*
X155012979Y-98491237D01*
X155025293Y-98637874D01*
X155029899Y-98692730D01*
X155087333Y-98893025D01*
X155090151Y-98898507D01*
X155090152Y-98898511D01*
X155179759Y-99072867D01*
X155182577Y-99078350D01*
X155184773Y-99081121D01*
X155204602Y-99148346D01*
X155184683Y-99216491D01*
X155131085Y-99263049D01*
X155078602Y-99274500D01*
X154578538Y-99274500D01*
X154510417Y-99254498D01*
X154463924Y-99200842D01*
X154453820Y-99130568D01*
X154468982Y-99086263D01*
X154472399Y-99080249D01*
X154510116Y-99013855D01*
X154552294Y-98939610D01*
X154552296Y-98939606D01*
X154555339Y-98934249D01*
X154588224Y-98835392D01*
X154619164Y-98742382D01*
X154619165Y-98742379D01*
X154621109Y-98736534D01*
X154625894Y-98698655D01*
X154646783Y-98533312D01*
X154646784Y-98533305D01*
X154647225Y-98529810D01*
X154647641Y-98500000D01*
X154627308Y-98292627D01*
X154567083Y-98093154D01*
X154469261Y-97909176D01*
X154463590Y-97902222D01*
X154376313Y-97795211D01*
X154337567Y-97747704D01*
X154177017Y-97614885D01*
X153993728Y-97515781D01*
X153794679Y-97454165D01*
X153788554Y-97453521D01*
X153788553Y-97453521D01*
X153593582Y-97433029D01*
X153593580Y-97433029D01*
X153587453Y-97432385D01*
X153475804Y-97442546D01*
X153386085Y-97450711D01*
X153386084Y-97450711D01*
X153379944Y-97451270D01*
X153374030Y-97453011D01*
X153374028Y-97453011D01*
X153332529Y-97465225D01*
X153180055Y-97510101D01*
X153174590Y-97512958D01*
X153006448Y-97600860D01*
X152995399Y-97606636D01*
X152833011Y-97737200D01*
X152699075Y-97896818D01*
X152598693Y-98079411D01*
X152535690Y-98278025D01*
X152535004Y-98284142D01*
X152535003Y-98284146D01*
X152517158Y-98443238D01*
X152512463Y-98485093D01*
X152512979Y-98491237D01*
X152525293Y-98637874D01*
X152529899Y-98692730D01*
X152587333Y-98893025D01*
X152590151Y-98898507D01*
X152590152Y-98898511D01*
X152679759Y-99072867D01*
X152682577Y-99078350D01*
X152684773Y-99081121D01*
X152704602Y-99148346D01*
X152684683Y-99216491D01*
X152631085Y-99263049D01*
X152578602Y-99274500D01*
X152574679Y-99274500D01*
X152506558Y-99254498D01*
X152497975Y-99248462D01*
X152409397Y-99180494D01*
X152409394Y-99180492D01*
X152402841Y-99175464D01*
X152275053Y-99122532D01*
X152264391Y-99118116D01*
X152256762Y-99114956D01*
X152219611Y-99110065D01*
X152157160Y-99101843D01*
X152092232Y-99073120D01*
X152053141Y-99013855D01*
X152052296Y-98942864D01*
X152055398Y-98934269D01*
X152055339Y-98934249D01*
X152119164Y-98742382D01*
X152119165Y-98742379D01*
X152121109Y-98736534D01*
X152125894Y-98698655D01*
X152146783Y-98533312D01*
X152146784Y-98533305D01*
X152147225Y-98529810D01*
X152147641Y-98500000D01*
X152127308Y-98292627D01*
X152067083Y-98093154D01*
X151969261Y-97909176D01*
X151963590Y-97902222D01*
X151876313Y-97795211D01*
X151837567Y-97747704D01*
X151677017Y-97614885D01*
X151493728Y-97515781D01*
X151294679Y-97454165D01*
X151288554Y-97453521D01*
X151288553Y-97453521D01*
X151093582Y-97433029D01*
X151093580Y-97433029D01*
X151087453Y-97432385D01*
X150975804Y-97442546D01*
X150886085Y-97450711D01*
X150886084Y-97450711D01*
X150879944Y-97451270D01*
X150874030Y-97453011D01*
X150874028Y-97453011D01*
X150832529Y-97465225D01*
X150680055Y-97510101D01*
X150674590Y-97512958D01*
X150506448Y-97600860D01*
X150495399Y-97606636D01*
X150333011Y-97737200D01*
X150199075Y-97896818D01*
X150098693Y-98079411D01*
X150035690Y-98278025D01*
X150035004Y-98284142D01*
X150035003Y-98284146D01*
X150017158Y-98443238D01*
X150012463Y-98485093D01*
X150012979Y-98491237D01*
X150025293Y-98637874D01*
X150029899Y-98692730D01*
X150087333Y-98893025D01*
X150090151Y-98898507D01*
X150090152Y-98898511D01*
X150179756Y-99072862D01*
X150179759Y-99072866D01*
X150182577Y-99078350D01*
X150228874Y-99136763D01*
X150308174Y-99236816D01*
X150308179Y-99236821D01*
X150312003Y-99241646D01*
X150316696Y-99245640D01*
X150316697Y-99245641D01*
X150465988Y-99372697D01*
X150470683Y-99376693D01*
X150476061Y-99379699D01*
X150476063Y-99379700D01*
X150551279Y-99421736D01*
X150652571Y-99478346D01*
X150850740Y-99542735D01*
X151057641Y-99567407D01*
X151063776Y-99566935D01*
X151063778Y-99566935D01*
X151259252Y-99551894D01*
X151259256Y-99551893D01*
X151265394Y-99551421D01*
X151339662Y-99530685D01*
X151410650Y-99531630D01*
X151469859Y-99570806D01*
X151498489Y-99635774D01*
X151498466Y-99668487D01*
X151496057Y-99686789D01*
X151494318Y-99700000D01*
X151514956Y-99856762D01*
X151575464Y-100002841D01*
X151671718Y-100128282D01*
X151797159Y-100224536D01*
X151943238Y-100285044D01*
X152100000Y-100305682D01*
X152108188Y-100304604D01*
X152248574Y-100286122D01*
X152256762Y-100285044D01*
X152402841Y-100224536D01*
X152409394Y-100219508D01*
X152409397Y-100219506D01*
X152497975Y-100151538D01*
X152564195Y-100125937D01*
X152574679Y-100125500D01*
X157407393Y-100125500D01*
X157430210Y-100118086D01*
X157449429Y-100113472D01*
X157473126Y-100109719D01*
X157481964Y-100105216D01*
X157494502Y-100098828D01*
X157512763Y-100091264D01*
X157526147Y-100086915D01*
X157526150Y-100086913D01*
X157535581Y-100083849D01*
X157554991Y-100069747D01*
X157571837Y-100059423D01*
X157593220Y-100048528D01*
X157688528Y-99953220D01*
X158106147Y-99535600D01*
X158168459Y-99501574D01*
X158234178Y-99504862D01*
X158269969Y-99516491D01*
X158350740Y-99542735D01*
X158557641Y-99567407D01*
X158563776Y-99566935D01*
X158563778Y-99566935D01*
X158759252Y-99551894D01*
X158759256Y-99551893D01*
X158765394Y-99551421D01*
X158966085Y-99495387D01*
X158971589Y-99492607D01*
X158971591Y-99492606D01*
X159146570Y-99404218D01*
X159146572Y-99404217D01*
X159152071Y-99401439D01*
X159316266Y-99273156D01*
X159317792Y-99271388D01*
X159379740Y-99239507D01*
X159450410Y-99246304D01*
X159506187Y-99290230D01*
X159529500Y-99363246D01*
X159529500Y-112638720D01*
X159509498Y-112706841D01*
X159455842Y-112753334D01*
X159385568Y-112763438D01*
X159323185Y-112735805D01*
X159181767Y-112618813D01*
X159181757Y-112618806D01*
X159177017Y-112614885D01*
X158993728Y-112515781D01*
X158794679Y-112454165D01*
X158788554Y-112453521D01*
X158788553Y-112453521D01*
X158593582Y-112433029D01*
X158593580Y-112433029D01*
X158587453Y-112432385D01*
X158478430Y-112442307D01*
X158386085Y-112450711D01*
X158386084Y-112450711D01*
X158379944Y-112451270D01*
X158374030Y-112453011D01*
X158374028Y-112453011D01*
X158302426Y-112474085D01*
X158180055Y-112510101D01*
X158174592Y-112512957D01*
X158174590Y-112512958D01*
X158033178Y-112586886D01*
X157995399Y-112606636D01*
X157833011Y-112737200D01*
X157699075Y-112896818D01*
X157598693Y-113079411D01*
X157535690Y-113278025D01*
X157535004Y-113284142D01*
X157535003Y-113284146D01*
X157533364Y-113298760D01*
X157512463Y-113485093D01*
X157529899Y-113692730D01*
X157531598Y-113698655D01*
X157557492Y-113788959D01*
X157557041Y-113859954D01*
X157525468Y-113912785D01*
X157375346Y-114062906D01*
X157228656Y-114209596D01*
X157166344Y-114243621D01*
X157139561Y-114246500D01*
X157094445Y-114246500D01*
X157026324Y-114226498D01*
X156979831Y-114172842D01*
X156969727Y-114102568D01*
X156984889Y-114058263D01*
X157052294Y-113939610D01*
X157052296Y-113939606D01*
X157055339Y-113934249D01*
X157121109Y-113736534D01*
X157147225Y-113529810D01*
X157147641Y-113500000D01*
X157127308Y-113292627D01*
X157067083Y-113093154D01*
X156969261Y-112909176D01*
X156963590Y-112902222D01*
X156923778Y-112853409D01*
X156837567Y-112747704D01*
X156677017Y-112614885D01*
X156493728Y-112515781D01*
X156294679Y-112454165D01*
X156288554Y-112453521D01*
X156288553Y-112453521D01*
X156093582Y-112433029D01*
X156093580Y-112433029D01*
X156087453Y-112432385D01*
X155978430Y-112442307D01*
X155886085Y-112450711D01*
X155886084Y-112450711D01*
X155879944Y-112451270D01*
X155874030Y-112453011D01*
X155874028Y-112453011D01*
X155802426Y-112474085D01*
X155680055Y-112510101D01*
X155674592Y-112512957D01*
X155674587Y-112512959D01*
X155631919Y-112535266D01*
X155562284Y-112549101D01*
X155496223Y-112523092D01*
X155484448Y-112512700D01*
X154937192Y-111965444D01*
X154915809Y-111954549D01*
X154898963Y-111944225D01*
X154887576Y-111935952D01*
X154879553Y-111930123D01*
X154870122Y-111927059D01*
X154870119Y-111927057D01*
X154856735Y-111922708D01*
X154838474Y-111915144D01*
X154825936Y-111908756D01*
X154825935Y-111908756D01*
X154817098Y-111904253D01*
X154793401Y-111900500D01*
X154774182Y-111895886D01*
X154751365Y-111888472D01*
X153441647Y-111888472D01*
X153373526Y-111868470D01*
X153364943Y-111862434D01*
X153276365Y-111794466D01*
X153276360Y-111794463D01*
X153269809Y-111789436D01*
X153123730Y-111728928D01*
X153073416Y-111722304D01*
X152975156Y-111709368D01*
X152966968Y-111708290D01*
X152958780Y-111709368D01*
X152860521Y-111722304D01*
X152810206Y-111728928D01*
X152664127Y-111789436D01*
X152538686Y-111885690D01*
X152442432Y-112011131D01*
X152381924Y-112157210D01*
X152361286Y-112313972D01*
X152362614Y-112324056D01*
X152362364Y-112325656D01*
X152362364Y-112330418D01*
X152361622Y-112330418D01*
X152351676Y-112394202D01*
X152304550Y-112447302D01*
X152236196Y-112466494D01*
X152168318Y-112445685D01*
X152148597Y-112429598D01*
X151763883Y-112044884D01*
X151742500Y-112033989D01*
X151725654Y-112023665D01*
X151714267Y-112015392D01*
X151706244Y-112009563D01*
X151696813Y-112006499D01*
X151696810Y-112006497D01*
X151683426Y-112002148D01*
X151665165Y-111994584D01*
X151652627Y-111988196D01*
X151652626Y-111988196D01*
X151643789Y-111983693D01*
X151620092Y-111979940D01*
X151600873Y-111975326D01*
X151578056Y-111967912D01*
X148463243Y-111967912D01*
X148395122Y-111947910D01*
X148363280Y-111918615D01*
X148328308Y-111873038D01*
X148328304Y-111873034D01*
X148323282Y-111866489D01*
X148303321Y-111851172D01*
X148258389Y-111816695D01*
X148197841Y-111770235D01*
X148051762Y-111709727D01*
X147895000Y-111689089D01*
X147738238Y-111709727D01*
X147592159Y-111770235D01*
X147531611Y-111816695D01*
X147486680Y-111851172D01*
X147466718Y-111866489D01*
X147461695Y-111873035D01*
X147455839Y-111880667D01*
X147370464Y-111991930D01*
X147309956Y-112138009D01*
X147308878Y-112146197D01*
X147306055Y-112167641D01*
X147277333Y-112232568D01*
X147218068Y-112271660D01*
X147147076Y-112272505D01*
X147092038Y-112240290D01*
X146855248Y-112003500D01*
X146833865Y-111992605D01*
X146817019Y-111982281D01*
X146805632Y-111974008D01*
X146797609Y-111968179D01*
X146788178Y-111965115D01*
X146788175Y-111965113D01*
X146774791Y-111960764D01*
X146756530Y-111953200D01*
X146743992Y-111946812D01*
X146743991Y-111946812D01*
X146735154Y-111942309D01*
X146711457Y-111938556D01*
X146692238Y-111933942D01*
X146669421Y-111926528D01*
X145852211Y-111926528D01*
X145784090Y-111906526D01*
X145775507Y-111900490D01*
X145686929Y-111832522D01*
X145686926Y-111832520D01*
X145680373Y-111827492D01*
X145534294Y-111766984D01*
X145526104Y-111765906D01*
X145526101Y-111765905D01*
X145522921Y-111765486D01*
X145520438Y-111764387D01*
X145518130Y-111763769D01*
X145518226Y-111763409D01*
X145457995Y-111736761D01*
X145418906Y-111677494D01*
X145418065Y-111606503D01*
X145450278Y-111551470D01*
X148723528Y-108278220D01*
X148734419Y-108256844D01*
X148744749Y-108239989D01*
X148753021Y-108228604D01*
X148753021Y-108228603D01*
X148758850Y-108220581D01*
X148766264Y-108197763D01*
X148773827Y-108179502D01*
X148784719Y-108158126D01*
X148786270Y-108148335D01*
X148786272Y-108148328D01*
X148788473Y-108134431D01*
X148793087Y-108115212D01*
X148797436Y-108101827D01*
X148797437Y-108101820D01*
X148800500Y-108092393D01*
X148800500Y-107428134D01*
X148820502Y-107360013D01*
X148837404Y-107339039D01*
X149214037Y-106962405D01*
X149276350Y-106928380D01*
X149303133Y-106925500D01*
X151967393Y-106925500D01*
X151990210Y-106918086D01*
X152009429Y-106913472D01*
X152033126Y-106909719D01*
X152041964Y-106905216D01*
X152054502Y-106898828D01*
X152072763Y-106891264D01*
X152086147Y-106886915D01*
X152086150Y-106886913D01*
X152095581Y-106883849D01*
X152114991Y-106869747D01*
X152131837Y-106859423D01*
X152153220Y-106848528D01*
X155365225Y-103636523D01*
X155427537Y-103602497D01*
X155437874Y-103600696D01*
X155509964Y-103591205D01*
X155556762Y-103585044D01*
X155702841Y-103524536D01*
X155828282Y-103428282D01*
X155924536Y-103302841D01*
X155962664Y-103210792D01*
X156007213Y-103155512D01*
X156074576Y-103133091D01*
X156143367Y-103150649D01*
X156168168Y-103169916D01*
X156637595Y-103639343D01*
X156671621Y-103701655D01*
X156674500Y-103728438D01*
X156674500Y-105771562D01*
X156654498Y-105839683D01*
X156637595Y-105860657D01*
X154119614Y-108378638D01*
X154059350Y-108411546D01*
X154059402Y-108411741D01*
X154058598Y-108411957D01*
X154057302Y-108412664D01*
X154053453Y-108413335D01*
X154051426Y-108413878D01*
X154043238Y-108414956D01*
X153897159Y-108475464D01*
X153771718Y-108571718D01*
X153675464Y-108697159D01*
X153614956Y-108843238D01*
X153594318Y-109000000D01*
X153614956Y-109156762D01*
X153618116Y-109164391D01*
X153622532Y-109175053D01*
X153675464Y-109302841D01*
X153771718Y-109428282D01*
X153897159Y-109524536D01*
X154043238Y-109585044D01*
X154200000Y-109605682D01*
X154208188Y-109604604D01*
X154348574Y-109586122D01*
X154356762Y-109585044D01*
X154502841Y-109524536D01*
X154628282Y-109428282D01*
X154724536Y-109302841D01*
X154777468Y-109175053D01*
X154781884Y-109164391D01*
X154785044Y-109156762D01*
X154788604Y-109129724D01*
X154790522Y-109115153D01*
X154819245Y-109050226D01*
X154878510Y-109011135D01*
X154949502Y-109010290D01*
X155009680Y-109047961D01*
X155015407Y-109054896D01*
X155066695Y-109121736D01*
X155071718Y-109128282D01*
X155197159Y-109224536D01*
X155343238Y-109285044D01*
X155500000Y-109305682D01*
X155508188Y-109304604D01*
X155521580Y-109302841D01*
X155656762Y-109285044D01*
X155802841Y-109224536D01*
X155928282Y-109128282D01*
X155933340Y-109121691D01*
X156005586Y-109027537D01*
X156024536Y-109002841D01*
X156085044Y-108856762D01*
X156100696Y-108737874D01*
X156129418Y-108672946D01*
X156136523Y-108665225D01*
X158053216Y-106748531D01*
X158053219Y-106748529D01*
X158148528Y-106653220D01*
X158159421Y-106631841D01*
X158169749Y-106614988D01*
X158178021Y-106603603D01*
X158178022Y-106603601D01*
X158183849Y-106595581D01*
X158186914Y-106586149D01*
X158191264Y-106572763D01*
X158198828Y-106554502D01*
X158205216Y-106541964D01*
X158205216Y-106541963D01*
X158209719Y-106533126D01*
X158213472Y-106509429D01*
X158218086Y-106490210D01*
X158225500Y-106467393D01*
X158225500Y-103432607D01*
X158218086Y-103409790D01*
X158213472Y-103390570D01*
X158211270Y-103376668D01*
X158209719Y-103366874D01*
X158198828Y-103345498D01*
X158191264Y-103327237D01*
X158186915Y-103313853D01*
X158186913Y-103313850D01*
X158183849Y-103304419D01*
X158169747Y-103285009D01*
X158159423Y-103268163D01*
X158148528Y-103246780D01*
X156213220Y-101311472D01*
X156191837Y-101300577D01*
X156174991Y-101290253D01*
X156163604Y-101281980D01*
X156155581Y-101276151D01*
X156146150Y-101273087D01*
X156146147Y-101273085D01*
X156132763Y-101268736D01*
X156114502Y-101261172D01*
X156101964Y-101254784D01*
X156101963Y-101254784D01*
X156093126Y-101250281D01*
X156069429Y-101246528D01*
X156050210Y-101241914D01*
X156027393Y-101234500D01*
X151758438Y-101234500D01*
X151690317Y-101214498D01*
X151669343Y-101197595D01*
X149569109Y-99097361D01*
X149535083Y-99035049D01*
X149540148Y-98964234D01*
X149548645Y-98946033D01*
X149550445Y-98942864D01*
X149555339Y-98934249D01*
X149588224Y-98835392D01*
X149619164Y-98742382D01*
X149619165Y-98742379D01*
X149621109Y-98736534D01*
X149625894Y-98698655D01*
X149646783Y-98533312D01*
X149646784Y-98533305D01*
X149647225Y-98529810D01*
X149647641Y-98500000D01*
X149627308Y-98292627D01*
X149567083Y-98093154D01*
X149469261Y-97909176D01*
X149463590Y-97902222D01*
X149376313Y-97795211D01*
X149337567Y-97747704D01*
X149177017Y-97614885D01*
X148993728Y-97515781D01*
X148794679Y-97454165D01*
X148788554Y-97453521D01*
X148788553Y-97453521D01*
X148593582Y-97433029D01*
X148593580Y-97433029D01*
X148587453Y-97432385D01*
X148475804Y-97442546D01*
X148386085Y-97450711D01*
X148386084Y-97450711D01*
X148379944Y-97451270D01*
X148374030Y-97453011D01*
X148374028Y-97453011D01*
X148332529Y-97465225D01*
X148180055Y-97510101D01*
X148174590Y-97512958D01*
X148006448Y-97600860D01*
X147995399Y-97606636D01*
X147833011Y-97737200D01*
X147699075Y-97896818D01*
X147598693Y-98079411D01*
X147535690Y-98278025D01*
X147535004Y-98284142D01*
X147535003Y-98284146D01*
X147517158Y-98443238D01*
X147512463Y-98485093D01*
X147512979Y-98491237D01*
X147525293Y-98637874D01*
X147529899Y-98692730D01*
X147587333Y-98893025D01*
X147590151Y-98898507D01*
X147590152Y-98898511D01*
X147679756Y-99072862D01*
X147679759Y-99072866D01*
X147682577Y-99078350D01*
X147728874Y-99136763D01*
X147808174Y-99236816D01*
X147808179Y-99236821D01*
X147812003Y-99241646D01*
X147816696Y-99245640D01*
X147816697Y-99245641D01*
X147965988Y-99372697D01*
X147970683Y-99376693D01*
X147976061Y-99379699D01*
X147976063Y-99379700D01*
X148051279Y-99421736D01*
X148152571Y-99478346D01*
X148350740Y-99542735D01*
X148557641Y-99567407D01*
X148563776Y-99566935D01*
X148563778Y-99566935D01*
X148758013Y-99551989D01*
X148827468Y-99566706D01*
X148856775Y-99588523D01*
X150737657Y-101469405D01*
X150771683Y-101531717D01*
X150766618Y-101602532D01*
X150724071Y-101659368D01*
X150657551Y-101684179D01*
X150648562Y-101684500D01*
X149708438Y-101684500D01*
X149640317Y-101664498D01*
X149619343Y-101647595D01*
X147069109Y-99097361D01*
X147035083Y-99035049D01*
X147040148Y-98964234D01*
X147048645Y-98946033D01*
X147050445Y-98942864D01*
X147055339Y-98934249D01*
X147088224Y-98835392D01*
X147119164Y-98742382D01*
X147119165Y-98742379D01*
X147121109Y-98736534D01*
X147125894Y-98698655D01*
X147146783Y-98533312D01*
X147146784Y-98533305D01*
X147147225Y-98529810D01*
X147147641Y-98500000D01*
X147127308Y-98292627D01*
X147067083Y-98093154D01*
X146969261Y-97909176D01*
X146963590Y-97902222D01*
X146876313Y-97795211D01*
X146837567Y-97747704D01*
X146677017Y-97614885D01*
X146493728Y-97515781D01*
X146294679Y-97454165D01*
X146288554Y-97453521D01*
X146288553Y-97453521D01*
X146093582Y-97433029D01*
X146093580Y-97433029D01*
X146087453Y-97432385D01*
X145975804Y-97442546D01*
X145886085Y-97450711D01*
X145886084Y-97450711D01*
X145879944Y-97451270D01*
X145874030Y-97453011D01*
X145874028Y-97453011D01*
X145832529Y-97465225D01*
X145680055Y-97510101D01*
X145674590Y-97512958D01*
X145506448Y-97600860D01*
X145495399Y-97606636D01*
X145480258Y-97618810D01*
X145380452Y-97699056D01*
X145314830Y-97726153D01*
X145244975Y-97713470D01*
X145193067Y-97665034D01*
X145175500Y-97600860D01*
X145175500Y-97004806D01*
X145179793Y-96972197D01*
X145181886Y-96964387D01*
X145185044Y-96956762D01*
X145186527Y-96945502D01*
X145204604Y-96808188D01*
X145205682Y-96800000D01*
X145185044Y-96643238D01*
X145124536Y-96497159D01*
X145028282Y-96371718D01*
X144902841Y-96275464D01*
X144756762Y-96214956D01*
X144600000Y-96194318D01*
X144443238Y-96214956D01*
X144297159Y-96275464D01*
X144171718Y-96371718D01*
X144075464Y-96497159D01*
X144014956Y-96643238D01*
X143994318Y-96800000D01*
X144014956Y-96956762D01*
X144075464Y-97102841D01*
X144171718Y-97228282D01*
X144178264Y-97233305D01*
X144275204Y-97307689D01*
X144317071Y-97365027D01*
X144324500Y-97407652D01*
X144324500Y-97483261D01*
X144304498Y-97551382D01*
X144250842Y-97597875D01*
X144180568Y-97607979D01*
X144138572Y-97594097D01*
X143999151Y-97518713D01*
X143999149Y-97518712D01*
X143993728Y-97515781D01*
X143794679Y-97454165D01*
X143788554Y-97453521D01*
X143788553Y-97453521D01*
X143593582Y-97433029D01*
X143593580Y-97433029D01*
X143587453Y-97432385D01*
X143475804Y-97442546D01*
X143386085Y-97450711D01*
X143386084Y-97450711D01*
X143379944Y-97451270D01*
X143374030Y-97453011D01*
X143374028Y-97453011D01*
X143332529Y-97465225D01*
X143180055Y-97510101D01*
X143174590Y-97512958D01*
X143006448Y-97600860D01*
X142995399Y-97606636D01*
X142833011Y-97737200D01*
X142699075Y-97896818D01*
X142598693Y-98079411D01*
X142535690Y-98278025D01*
X142535004Y-98284142D01*
X142535003Y-98284146D01*
X142517158Y-98443238D01*
X142512463Y-98485093D01*
X142512979Y-98491237D01*
X142525293Y-98637874D01*
X142529899Y-98692730D01*
X142587333Y-98893025D01*
X142590151Y-98898507D01*
X142590152Y-98898511D01*
X142679756Y-99072862D01*
X142679759Y-99072866D01*
X142682577Y-99078350D01*
X142728874Y-99136763D01*
X142808174Y-99236816D01*
X142808179Y-99236821D01*
X142812003Y-99241646D01*
X142816696Y-99245640D01*
X142816697Y-99245641D01*
X142965988Y-99372697D01*
X142970683Y-99376693D01*
X142976061Y-99379699D01*
X142976063Y-99379700D01*
X143051279Y-99421736D01*
X143152571Y-99478346D01*
X143350740Y-99542735D01*
X143557641Y-99567407D01*
X143563776Y-99566935D01*
X143563779Y-99566935D01*
X143638834Y-99561160D01*
X143708288Y-99575878D01*
X143758760Y-99625808D01*
X143774500Y-99686789D01*
X143774500Y-101267393D01*
X143781914Y-101290210D01*
X143786528Y-101309429D01*
X143790281Y-101333126D01*
X143794784Y-101341963D01*
X143794784Y-101341964D01*
X143801172Y-101354502D01*
X143808736Y-101372763D01*
X143813085Y-101386147D01*
X143813087Y-101386150D01*
X143816151Y-101395581D01*
X143821980Y-101403604D01*
X143830253Y-101414991D01*
X143840577Y-101431837D01*
X143851472Y-101453220D01*
X143875446Y-101477194D01*
X144969971Y-102571718D01*
X146037595Y-103639342D01*
X146071621Y-103701654D01*
X146074500Y-103728437D01*
X146074500Y-108249821D01*
X146054498Y-108317942D01*
X146048462Y-108326525D01*
X145980494Y-108415103D01*
X145980492Y-108415106D01*
X145975464Y-108421659D01*
X145936257Y-108516313D01*
X145921120Y-108552858D01*
X145914956Y-108567738D01*
X145894318Y-108724500D01*
X145914956Y-108881262D01*
X145975464Y-109027341D01*
X145980491Y-109033892D01*
X146051933Y-109126997D01*
X146071718Y-109152782D01*
X146197159Y-109249036D01*
X146271884Y-109279988D01*
X146327164Y-109324537D01*
X146349585Y-109391900D01*
X146332027Y-109460691D01*
X146312760Y-109485492D01*
X143355945Y-112442307D01*
X143302425Y-112474085D01*
X143185972Y-112508359D01*
X143185967Y-112508361D01*
X143180055Y-112510101D01*
X142995399Y-112606636D01*
X142833011Y-112737200D01*
X142699075Y-112896818D01*
X142598693Y-113079411D01*
X142535690Y-113278025D01*
X142535004Y-113284142D01*
X142535003Y-113284146D01*
X142533364Y-113298760D01*
X142512463Y-113485093D01*
X142529899Y-113692730D01*
X142587333Y-113893025D01*
X142590151Y-113898507D01*
X142590152Y-113898511D01*
X142679756Y-114072862D01*
X142679759Y-114072866D01*
X142682577Y-114078350D01*
X142728874Y-114136763D01*
X142808174Y-114236816D01*
X142808179Y-114236821D01*
X142812003Y-114241646D01*
X142816696Y-114245640D01*
X142816697Y-114245641D01*
X142887396Y-114305810D01*
X142970683Y-114376693D01*
X142976061Y-114379699D01*
X142976063Y-114379700D01*
X143061627Y-114427519D01*
X143152571Y-114478346D01*
X143350740Y-114542735D01*
X143557641Y-114567407D01*
X143563776Y-114566935D01*
X143563778Y-114566935D01*
X143759252Y-114551894D01*
X143759256Y-114551893D01*
X143765394Y-114551421D01*
X143966085Y-114495387D01*
X143971589Y-114492607D01*
X143971591Y-114492606D01*
X144146570Y-114404218D01*
X144146572Y-114404217D01*
X144152071Y-114401439D01*
X144316266Y-114273156D01*
X144452417Y-114115423D01*
X144462678Y-114097361D01*
X144552294Y-113939610D01*
X144552296Y-113939606D01*
X144555339Y-113934249D01*
X144621109Y-113736534D01*
X144647225Y-113529810D01*
X144647641Y-113500000D01*
X144627308Y-113292627D01*
X144567083Y-113093154D01*
X144469261Y-112909176D01*
X144377388Y-112796529D01*
X144372004Y-112789927D01*
X144344450Y-112724495D01*
X144356645Y-112654554D01*
X144380552Y-112621196D01*
X144576974Y-112424774D01*
X144639286Y-112390748D01*
X144710101Y-112395813D01*
X144766937Y-112438360D01*
X144789062Y-112492683D01*
X144789273Y-112492626D01*
X144789724Y-112494307D01*
X144790990Y-112497417D01*
X144791409Y-112500597D01*
X144792488Y-112508790D01*
X144852996Y-112654869D01*
X144949250Y-112780310D01*
X144955796Y-112785333D01*
X145048580Y-112856528D01*
X145074433Y-112876366D01*
X145074691Y-112876564D01*
X145074525Y-112876781D01*
X145120216Y-112924703D01*
X145133650Y-112994417D01*
X145118635Y-113043137D01*
X145098693Y-113079411D01*
X145035690Y-113278025D01*
X145035004Y-113284142D01*
X145035003Y-113284146D01*
X145033364Y-113298760D01*
X145012463Y-113485093D01*
X145029899Y-113692730D01*
X145087333Y-113893025D01*
X145090151Y-113898507D01*
X145090152Y-113898511D01*
X145179756Y-114072862D01*
X145179759Y-114072866D01*
X145182577Y-114078350D01*
X145228874Y-114136763D01*
X145308174Y-114236816D01*
X145308179Y-114236821D01*
X145312003Y-114241646D01*
X145316696Y-114245640D01*
X145316697Y-114245641D01*
X145387396Y-114305810D01*
X145470683Y-114376693D01*
X145476061Y-114379699D01*
X145476063Y-114379700D01*
X145561627Y-114427519D01*
X145652571Y-114478346D01*
X145850740Y-114542735D01*
X146057641Y-114567407D01*
X146063776Y-114566935D01*
X146063778Y-114566935D01*
X146259252Y-114551894D01*
X146259256Y-114551893D01*
X146265394Y-114551421D01*
X146466085Y-114495387D01*
X146471589Y-114492607D01*
X146471591Y-114492606D01*
X146646570Y-114404218D01*
X146646572Y-114404217D01*
X146652071Y-114401439D01*
X146759379Y-114317601D01*
X146825373Y-114291423D01*
X146895044Y-114305081D01*
X146926047Y-114327795D01*
X147618780Y-115020528D01*
X147640163Y-115031423D01*
X147657009Y-115041747D01*
X147676419Y-115055849D01*
X147685850Y-115058913D01*
X147685853Y-115058915D01*
X147699237Y-115063264D01*
X147717498Y-115070828D01*
X147730036Y-115077216D01*
X147738874Y-115081719D01*
X147762571Y-115085472D01*
X147781790Y-115090086D01*
X147804607Y-115097500D01*
X149935393Y-115097500D01*
X149958210Y-115090086D01*
X149977429Y-115085472D01*
X150001126Y-115081719D01*
X150009964Y-115077216D01*
X150022502Y-115070828D01*
X150040763Y-115063264D01*
X150054147Y-115058915D01*
X150054150Y-115058913D01*
X150063581Y-115055849D01*
X150082991Y-115041747D01*
X150099837Y-115031423D01*
X150121220Y-115020528D01*
X150216528Y-114925220D01*
X150606147Y-114535600D01*
X150668459Y-114501574D01*
X150734178Y-114504862D01*
X150780775Y-114520002D01*
X150850740Y-114542735D01*
X151057641Y-114567407D01*
X151063776Y-114566935D01*
X151063778Y-114566935D01*
X151259252Y-114551894D01*
X151259256Y-114551893D01*
X151265394Y-114551421D01*
X151466085Y-114495387D01*
X151471589Y-114492607D01*
X151471591Y-114492606D01*
X151646570Y-114404218D01*
X151646572Y-114404217D01*
X151652071Y-114401439D01*
X151816266Y-114273156D01*
X151820294Y-114268490D01*
X151823043Y-114265872D01*
X151886170Y-114233382D01*
X151956840Y-114240178D01*
X151999027Y-114268026D01*
X152751529Y-115020528D01*
X152772912Y-115031423D01*
X152789758Y-115041747D01*
X152809168Y-115055849D01*
X152818599Y-115058913D01*
X152818602Y-115058915D01*
X152831986Y-115063264D01*
X152850247Y-115070828D01*
X152862785Y-115077216D01*
X152871623Y-115081719D01*
X152895320Y-115085472D01*
X152914539Y-115090086D01*
X152937356Y-115097500D01*
X157435393Y-115097500D01*
X157458210Y-115090086D01*
X157477429Y-115085472D01*
X157501126Y-115081719D01*
X157509964Y-115077216D01*
X157522502Y-115070828D01*
X157540763Y-115063264D01*
X157554147Y-115058915D01*
X157554150Y-115058913D01*
X157563581Y-115055849D01*
X157582991Y-115041747D01*
X157599837Y-115031423D01*
X157621220Y-115020528D01*
X157716528Y-114925220D01*
X158106147Y-114535600D01*
X158168459Y-114501574D01*
X158234178Y-114504862D01*
X158280775Y-114520002D01*
X158350740Y-114542735D01*
X158557641Y-114567407D01*
X158563776Y-114566935D01*
X158563778Y-114566935D01*
X158759252Y-114551894D01*
X158759256Y-114551893D01*
X158765394Y-114551421D01*
X158966085Y-114495387D01*
X158971589Y-114492607D01*
X158971591Y-114492606D01*
X159146570Y-114404218D01*
X159146572Y-114404217D01*
X159152071Y-114401439D01*
X159316266Y-114273156D01*
X159317792Y-114271388D01*
X159379740Y-114239507D01*
X159450410Y-114246304D01*
X159506187Y-114290230D01*
X159529500Y-114363246D01*
X159529500Y-115683500D01*
X159509498Y-115751621D01*
X159455842Y-115798114D01*
X159403500Y-115809500D01*
X106596500Y-115809500D01*
X106528379Y-115789498D01*
X106481886Y-115735842D01*
X106470500Y-115683500D01*
X106470500Y-114248300D01*
X106490502Y-114180179D01*
X106544158Y-114133686D01*
X106614432Y-114123582D01*
X106679012Y-114153076D01*
X106695246Y-114170036D01*
X106697049Y-114172311D01*
X106748174Y-114236816D01*
X106748179Y-114236821D01*
X106752003Y-114241646D01*
X106756696Y-114245640D01*
X106756697Y-114245641D01*
X106827396Y-114305810D01*
X106910683Y-114376693D01*
X106916061Y-114379699D01*
X106916063Y-114379700D01*
X107001627Y-114427519D01*
X107092571Y-114478346D01*
X107290740Y-114542735D01*
X107497641Y-114567407D01*
X107503776Y-114566935D01*
X107503778Y-114566935D01*
X107699252Y-114551894D01*
X107699256Y-114551893D01*
X107705394Y-114551421D01*
X107906085Y-114495387D01*
X107911589Y-114492607D01*
X107911591Y-114492606D01*
X108086570Y-114404218D01*
X108086572Y-114404217D01*
X108092071Y-114401439D01*
X108256266Y-114273156D01*
X108392417Y-114115423D01*
X108402678Y-114097361D01*
X108492294Y-113939610D01*
X108492296Y-113939606D01*
X108495339Y-113934249D01*
X108561109Y-113736534D01*
X108587225Y-113529810D01*
X108587641Y-113500000D01*
X108586179Y-113485093D01*
X108952463Y-113485093D01*
X108969899Y-113692730D01*
X109027333Y-113893025D01*
X109030151Y-113898507D01*
X109030152Y-113898511D01*
X109119756Y-114072862D01*
X109119759Y-114072866D01*
X109122577Y-114078350D01*
X109168874Y-114136763D01*
X109248174Y-114236816D01*
X109248179Y-114236821D01*
X109252003Y-114241646D01*
X109256696Y-114245640D01*
X109256697Y-114245641D01*
X109327396Y-114305810D01*
X109410683Y-114376693D01*
X109416061Y-114379699D01*
X109416063Y-114379700D01*
X109501627Y-114427519D01*
X109592571Y-114478346D01*
X109790740Y-114542735D01*
X109997641Y-114567407D01*
X110003776Y-114566935D01*
X110003778Y-114566935D01*
X110199252Y-114551894D01*
X110199256Y-114551893D01*
X110205394Y-114551421D01*
X110406085Y-114495387D01*
X110411589Y-114492607D01*
X110411591Y-114492606D01*
X110586570Y-114404218D01*
X110586572Y-114404217D01*
X110592071Y-114401439D01*
X110756266Y-114273156D01*
X110892417Y-114115423D01*
X110902678Y-114097361D01*
X110992294Y-113939610D01*
X110992296Y-113939606D01*
X110995339Y-113934249D01*
X111061109Y-113736534D01*
X111087225Y-113529810D01*
X111087641Y-113500000D01*
X111086179Y-113485093D01*
X111452463Y-113485093D01*
X111469899Y-113692730D01*
X111527333Y-113893025D01*
X111530151Y-113898507D01*
X111530152Y-113898511D01*
X111619756Y-114072862D01*
X111619759Y-114072866D01*
X111622577Y-114078350D01*
X111668874Y-114136763D01*
X111748174Y-114236816D01*
X111748179Y-114236821D01*
X111752003Y-114241646D01*
X111756696Y-114245640D01*
X111756697Y-114245641D01*
X111827396Y-114305810D01*
X111910683Y-114376693D01*
X111916061Y-114379699D01*
X111916063Y-114379700D01*
X112001627Y-114427519D01*
X112092571Y-114478346D01*
X112290740Y-114542735D01*
X112497641Y-114567407D01*
X112503776Y-114566935D01*
X112503778Y-114566935D01*
X112699252Y-114551894D01*
X112699256Y-114551893D01*
X112705394Y-114551421D01*
X112906085Y-114495387D01*
X112911589Y-114492607D01*
X112911591Y-114492606D01*
X113086570Y-114404218D01*
X113086572Y-114404217D01*
X113092071Y-114401439D01*
X113256266Y-114273156D01*
X113392417Y-114115423D01*
X113402678Y-114097361D01*
X113492294Y-113939610D01*
X113492296Y-113939606D01*
X113495339Y-113934249D01*
X113561109Y-113736534D01*
X113587225Y-113529810D01*
X113587641Y-113500000D01*
X113567308Y-113292627D01*
X113507083Y-113093154D01*
X113409261Y-112909176D01*
X113403590Y-112902222D01*
X113363778Y-112853409D01*
X113277567Y-112747704D01*
X113117017Y-112614885D01*
X112933728Y-112515781D01*
X112734679Y-112454165D01*
X112728554Y-112453521D01*
X112728553Y-112453521D01*
X112533582Y-112433029D01*
X112533580Y-112433029D01*
X112527453Y-112432385D01*
X112418430Y-112442307D01*
X112326085Y-112450711D01*
X112326084Y-112450711D01*
X112319944Y-112451270D01*
X112314030Y-112453011D01*
X112314028Y-112453011D01*
X112242426Y-112474085D01*
X112120055Y-112510101D01*
X112114592Y-112512957D01*
X112114590Y-112512958D01*
X111973178Y-112586886D01*
X111935399Y-112606636D01*
X111773011Y-112737200D01*
X111639075Y-112896818D01*
X111538693Y-113079411D01*
X111475690Y-113278025D01*
X111475004Y-113284142D01*
X111475003Y-113284146D01*
X111473364Y-113298760D01*
X111452463Y-113485093D01*
X111086179Y-113485093D01*
X111067308Y-113292627D01*
X111059136Y-113265560D01*
X111029229Y-113166504D01*
X111028688Y-113095510D01*
X111060756Y-113040991D01*
X111245216Y-112856531D01*
X111245219Y-112856529D01*
X111340528Y-112761220D01*
X111351421Y-112739841D01*
X111361749Y-112722988D01*
X111370021Y-112711603D01*
X111370022Y-112711601D01*
X111375849Y-112703581D01*
X111378914Y-112694149D01*
X111383264Y-112680763D01*
X111390828Y-112662502D01*
X111397216Y-112649964D01*
X111397216Y-112649963D01*
X111401719Y-112641126D01*
X111405472Y-112617429D01*
X111410086Y-112598210D01*
X111417500Y-112575393D01*
X111417500Y-112436438D01*
X111437502Y-112368317D01*
X111454405Y-112347343D01*
X114264405Y-109537343D01*
X114326717Y-109503317D01*
X114397532Y-109508382D01*
X114454368Y-109550929D01*
X114479179Y-109617449D01*
X114479500Y-109626438D01*
X114479500Y-112510809D01*
X114459498Y-112578930D01*
X114432454Y-112609004D01*
X114273011Y-112737200D01*
X114139075Y-112896818D01*
X114038693Y-113079411D01*
X113975690Y-113278025D01*
X113975004Y-113284142D01*
X113975003Y-113284146D01*
X113973364Y-113298760D01*
X113952463Y-113485093D01*
X113969899Y-113692730D01*
X114027333Y-113893025D01*
X114030151Y-113898507D01*
X114030152Y-113898511D01*
X114119756Y-114072862D01*
X114119759Y-114072866D01*
X114122577Y-114078350D01*
X114168874Y-114136763D01*
X114248174Y-114236816D01*
X114248179Y-114236821D01*
X114252003Y-114241646D01*
X114256696Y-114245640D01*
X114256697Y-114245641D01*
X114327396Y-114305810D01*
X114410683Y-114376693D01*
X114416061Y-114379699D01*
X114416063Y-114379700D01*
X114501627Y-114427519D01*
X114592571Y-114478346D01*
X114790740Y-114542735D01*
X114997641Y-114567407D01*
X115003776Y-114566935D01*
X115003778Y-114566935D01*
X115199252Y-114551894D01*
X115199256Y-114551893D01*
X115205394Y-114551421D01*
X115406085Y-114495387D01*
X115411589Y-114492607D01*
X115411591Y-114492606D01*
X115586570Y-114404218D01*
X115586572Y-114404217D01*
X115592071Y-114401439D01*
X115756266Y-114273156D01*
X115892417Y-114115423D01*
X115902678Y-114097361D01*
X115992294Y-113939610D01*
X115992296Y-113939606D01*
X115995339Y-113934249D01*
X116061109Y-113736534D01*
X116087225Y-113529810D01*
X116087641Y-113500000D01*
X116067308Y-113292627D01*
X116007083Y-113093154D01*
X116002899Y-113085284D01*
X115964010Y-113012144D01*
X115949691Y-112942606D01*
X115975239Y-112876366D01*
X116032544Y-112834453D01*
X116107874Y-112831285D01*
X116110109Y-112831884D01*
X116117738Y-112835044D01*
X116125922Y-112836121D01*
X116125924Y-112836122D01*
X116266312Y-112854604D01*
X116274500Y-112855682D01*
X116431262Y-112835044D01*
X116433094Y-112834285D01*
X116501163Y-112835906D01*
X116559959Y-112875701D01*
X116587906Y-112940965D01*
X116573211Y-113016623D01*
X116538693Y-113079411D01*
X116475690Y-113278025D01*
X116475004Y-113284142D01*
X116475003Y-113284146D01*
X116473364Y-113298760D01*
X116452463Y-113485093D01*
X116469899Y-113692730D01*
X116527333Y-113893025D01*
X116530151Y-113898507D01*
X116530152Y-113898511D01*
X116619756Y-114072862D01*
X116619759Y-114072866D01*
X116622577Y-114078350D01*
X116668874Y-114136763D01*
X116748174Y-114236816D01*
X116748179Y-114236821D01*
X116752003Y-114241646D01*
X116756696Y-114245640D01*
X116756697Y-114245641D01*
X116827396Y-114305810D01*
X116910683Y-114376693D01*
X116916061Y-114379699D01*
X116916063Y-114379700D01*
X117001627Y-114427519D01*
X117092571Y-114478346D01*
X117290740Y-114542735D01*
X117497641Y-114567407D01*
X117503776Y-114566935D01*
X117503778Y-114566935D01*
X117699252Y-114551894D01*
X117699256Y-114551893D01*
X117705394Y-114551421D01*
X117906085Y-114495387D01*
X117911589Y-114492607D01*
X117911591Y-114492606D01*
X118086570Y-114404218D01*
X118086572Y-114404217D01*
X118092071Y-114401439D01*
X118256266Y-114273156D01*
X118392417Y-114115423D01*
X118402678Y-114097361D01*
X118492294Y-113939610D01*
X118492296Y-113939606D01*
X118495339Y-113934249D01*
X118561109Y-113736534D01*
X118587225Y-113529810D01*
X118587641Y-113500000D01*
X118574201Y-113362929D01*
X118587460Y-113293182D01*
X118636323Y-113241675D01*
X118705276Y-113224762D01*
X118716046Y-113225712D01*
X118741812Y-113229104D01*
X118750000Y-113230182D01*
X118824915Y-113220319D01*
X118895062Y-113231258D01*
X118948161Y-113278386D01*
X118967351Y-113346740D01*
X118966575Y-113359282D01*
X118952463Y-113485093D01*
X118969899Y-113692730D01*
X119027333Y-113893025D01*
X119030151Y-113898507D01*
X119030152Y-113898511D01*
X119119756Y-114072862D01*
X119119759Y-114072866D01*
X119122577Y-114078350D01*
X119168874Y-114136763D01*
X119248174Y-114236816D01*
X119248179Y-114236821D01*
X119252003Y-114241646D01*
X119256696Y-114245640D01*
X119256697Y-114245641D01*
X119327396Y-114305810D01*
X119410683Y-114376693D01*
X119416061Y-114379699D01*
X119416063Y-114379700D01*
X119501627Y-114427519D01*
X119592571Y-114478346D01*
X119790740Y-114542735D01*
X119997641Y-114567407D01*
X120003776Y-114566935D01*
X120003778Y-114566935D01*
X120198013Y-114551989D01*
X120267468Y-114566706D01*
X120296775Y-114588523D01*
X120856780Y-115148528D01*
X120878163Y-115159423D01*
X120895009Y-115169747D01*
X120914419Y-115183849D01*
X120923850Y-115186913D01*
X120923853Y-115186915D01*
X120937237Y-115191264D01*
X120955498Y-115198828D01*
X120968036Y-115205216D01*
X120976874Y-115209719D01*
X121000571Y-115213472D01*
X121019790Y-115218086D01*
X121042607Y-115225500D01*
X122921019Y-115225500D01*
X122943836Y-115218086D01*
X122963055Y-115213472D01*
X122986752Y-115209719D01*
X122995590Y-115205216D01*
X123008128Y-115198828D01*
X123026389Y-115191264D01*
X123039773Y-115186915D01*
X123039776Y-115186913D01*
X123049207Y-115183849D01*
X123068617Y-115169747D01*
X123085463Y-115159423D01*
X123106846Y-115148528D01*
X124046652Y-114208722D01*
X124108964Y-114174696D01*
X124179779Y-114179761D01*
X124234492Y-114219553D01*
X124252003Y-114241646D01*
X124256696Y-114245640D01*
X124256697Y-114245641D01*
X124327396Y-114305810D01*
X124410683Y-114376693D01*
X124416061Y-114379699D01*
X124416063Y-114379700D01*
X124501627Y-114427519D01*
X124592571Y-114478346D01*
X124790740Y-114542735D01*
X124997641Y-114567407D01*
X125003776Y-114566935D01*
X125003778Y-114566935D01*
X125199252Y-114551894D01*
X125199256Y-114551893D01*
X125205394Y-114551421D01*
X125406085Y-114495387D01*
X125411589Y-114492607D01*
X125411591Y-114492606D01*
X125586570Y-114404218D01*
X125586572Y-114404217D01*
X125592071Y-114401439D01*
X125756266Y-114273156D01*
X125892417Y-114115423D01*
X125902678Y-114097361D01*
X125992294Y-113939610D01*
X125992296Y-113939606D01*
X125995339Y-113934249D01*
X126061109Y-113736534D01*
X126087225Y-113529810D01*
X126087641Y-113500000D01*
X126086179Y-113485093D01*
X140012463Y-113485093D01*
X140029899Y-113692730D01*
X140087333Y-113893025D01*
X140090151Y-113898507D01*
X140090152Y-113898511D01*
X140179756Y-114072862D01*
X140179759Y-114072866D01*
X140182577Y-114078350D01*
X140228874Y-114136763D01*
X140308174Y-114236816D01*
X140308179Y-114236821D01*
X140312003Y-114241646D01*
X140316696Y-114245640D01*
X140316697Y-114245641D01*
X140387396Y-114305810D01*
X140470683Y-114376693D01*
X140476061Y-114379699D01*
X140476063Y-114379700D01*
X140561627Y-114427519D01*
X140652571Y-114478346D01*
X140850740Y-114542735D01*
X141057641Y-114567407D01*
X141063776Y-114566935D01*
X141063778Y-114566935D01*
X141259252Y-114551894D01*
X141259256Y-114551893D01*
X141265394Y-114551421D01*
X141466085Y-114495387D01*
X141471589Y-114492607D01*
X141471591Y-114492606D01*
X141646570Y-114404218D01*
X141646572Y-114404217D01*
X141652071Y-114401439D01*
X141816266Y-114273156D01*
X141952417Y-114115423D01*
X141962678Y-114097361D01*
X142052294Y-113939610D01*
X142052296Y-113939606D01*
X142055339Y-113934249D01*
X142121109Y-113736534D01*
X142147225Y-113529810D01*
X142147641Y-113500000D01*
X142127308Y-113292627D01*
X142084591Y-113151143D01*
X142084050Y-113080149D01*
X142116118Y-113025630D01*
X144348528Y-110793220D01*
X144359423Y-110771837D01*
X144369747Y-110754991D01*
X144378020Y-110743604D01*
X144383849Y-110735581D01*
X144386913Y-110726150D01*
X144386915Y-110726147D01*
X144391264Y-110712763D01*
X144398828Y-110694502D01*
X144405216Y-110681964D01*
X144405216Y-110681963D01*
X144409719Y-110673126D01*
X144413472Y-110649429D01*
X144418086Y-110630210D01*
X144425500Y-110607393D01*
X144425500Y-103674679D01*
X144445502Y-103606558D01*
X144451538Y-103597975D01*
X144519506Y-103509397D01*
X144519508Y-103509394D01*
X144524536Y-103502841D01*
X144585044Y-103356762D01*
X144605682Y-103200000D01*
X144585044Y-103043238D01*
X144524536Y-102897159D01*
X144428282Y-102771718D01*
X144302841Y-102675464D01*
X144156762Y-102614956D01*
X144000000Y-102594318D01*
X143843238Y-102614956D01*
X143697159Y-102675464D01*
X143571718Y-102771718D01*
X143566695Y-102778264D01*
X143523160Y-102835000D01*
X143475464Y-102897159D01*
X143472674Y-102895018D01*
X143432850Y-102932831D01*
X143363109Y-102946121D01*
X143297253Y-102919596D01*
X143286254Y-102909812D01*
X141417405Y-101040962D01*
X141383379Y-100978650D01*
X141380500Y-100951867D01*
X141380500Y-99614212D01*
X141400502Y-99546091D01*
X141454158Y-99499598D01*
X141460338Y-99496992D01*
X141466085Y-99495387D01*
X141471583Y-99492610D01*
X141646570Y-99404218D01*
X141646572Y-99404217D01*
X141652071Y-99401439D01*
X141816266Y-99273156D01*
X141952417Y-99115423D01*
X141962678Y-99097361D01*
X142052294Y-98939610D01*
X142052296Y-98939606D01*
X142055339Y-98934249D01*
X142088224Y-98835392D01*
X142119164Y-98742382D01*
X142119165Y-98742379D01*
X142121109Y-98736534D01*
X142125894Y-98698655D01*
X142146783Y-98533312D01*
X142146784Y-98533305D01*
X142147225Y-98529810D01*
X142147641Y-98500000D01*
X142127308Y-98292627D01*
X142067083Y-98093154D01*
X141969261Y-97909176D01*
X141963590Y-97902222D01*
X141876313Y-97795211D01*
X141837567Y-97747704D01*
X141677017Y-97614885D01*
X141493728Y-97515781D01*
X141294679Y-97454165D01*
X141288554Y-97453521D01*
X141288553Y-97453521D01*
X141093582Y-97433029D01*
X141093580Y-97433029D01*
X141087453Y-97432385D01*
X140975804Y-97442546D01*
X140886085Y-97450711D01*
X140886084Y-97450711D01*
X140879944Y-97451270D01*
X140874030Y-97453011D01*
X140874028Y-97453011D01*
X140832529Y-97465225D01*
X140680055Y-97510101D01*
X140674590Y-97512958D01*
X140506448Y-97600860D01*
X140495399Y-97606636D01*
X140333011Y-97737200D01*
X140199075Y-97896818D01*
X140098693Y-98079411D01*
X140035690Y-98278025D01*
X140035004Y-98284142D01*
X140035003Y-98284146D01*
X140017158Y-98443238D01*
X140012463Y-98485093D01*
X140012979Y-98491237D01*
X140025293Y-98637874D01*
X140029899Y-98692730D01*
X140087333Y-98893025D01*
X140090151Y-98898507D01*
X140090152Y-98898511D01*
X140179756Y-99072862D01*
X140179759Y-99072866D01*
X140182577Y-99078350D01*
X140228874Y-99136763D01*
X140308174Y-99236816D01*
X140308179Y-99236821D01*
X140312003Y-99241646D01*
X140316696Y-99245640D01*
X140316697Y-99245641D01*
X140465988Y-99372697D01*
X140470683Y-99376693D01*
X140475540Y-99379408D01*
X140519932Y-99434549D01*
X140529500Y-99482711D01*
X140529500Y-101247698D01*
X140536914Y-101270515D01*
X140541528Y-101289734D01*
X140545281Y-101313431D01*
X140549784Y-101322268D01*
X140549784Y-101322269D01*
X140556172Y-101334807D01*
X140563736Y-101353068D01*
X140568085Y-101366452D01*
X140568087Y-101366455D01*
X140571151Y-101375886D01*
X140576980Y-101383909D01*
X140585253Y-101395296D01*
X140595577Y-101412142D01*
X140606472Y-101433525D01*
X140630446Y-101457499D01*
X141876313Y-102703365D01*
X143087595Y-103914647D01*
X143121621Y-103976959D01*
X143124500Y-104003742D01*
X143124500Y-108190629D01*
X143104498Y-108258750D01*
X143046719Y-108307037D01*
X142972659Y-108337714D01*
X142928344Y-108371718D01*
X142874108Y-108413335D01*
X142847218Y-108433968D01*
X142750964Y-108559409D01*
X142707134Y-108665225D01*
X142696620Y-108690608D01*
X142690456Y-108705488D01*
X142689378Y-108713676D01*
X142681639Y-108772463D01*
X142669818Y-108862250D01*
X142670896Y-108870438D01*
X142689190Y-109009392D01*
X142690456Y-109019012D01*
X142693616Y-109026641D01*
X142698032Y-109037303D01*
X142750964Y-109165091D01*
X142847218Y-109290532D01*
X142972659Y-109386786D01*
X143118738Y-109447294D01*
X143275500Y-109467932D01*
X143432055Y-109447321D01*
X143502202Y-109458260D01*
X143555301Y-109505388D01*
X143574500Y-109572243D01*
X143574500Y-110311562D01*
X143554498Y-110379683D01*
X143537595Y-110400657D01*
X141493061Y-112445191D01*
X141430749Y-112479217D01*
X141366707Y-112476461D01*
X141329736Y-112465017D01*
X141294679Y-112454165D01*
X141288554Y-112453521D01*
X141288553Y-112453521D01*
X141093582Y-112433029D01*
X141093580Y-112433029D01*
X141087453Y-112432385D01*
X140978430Y-112442307D01*
X140886085Y-112450711D01*
X140886084Y-112450711D01*
X140879944Y-112451270D01*
X140874030Y-112453011D01*
X140874028Y-112453011D01*
X140802426Y-112474085D01*
X140680055Y-112510101D01*
X140674592Y-112512957D01*
X140674590Y-112512958D01*
X140533178Y-112586886D01*
X140495399Y-112606636D01*
X140333011Y-112737200D01*
X140199075Y-112896818D01*
X140098693Y-113079411D01*
X140035690Y-113278025D01*
X140035004Y-113284142D01*
X140035003Y-113284146D01*
X140033364Y-113298760D01*
X140012463Y-113485093D01*
X126086179Y-113485093D01*
X126067308Y-113292627D01*
X126007083Y-113093154D01*
X125909261Y-112909176D01*
X125903590Y-112902222D01*
X125863778Y-112853409D01*
X125777567Y-112747704D01*
X125617017Y-112614885D01*
X125433728Y-112515781D01*
X125234679Y-112454165D01*
X125228554Y-112453521D01*
X125228553Y-112453521D01*
X125033582Y-112433029D01*
X125033580Y-112433029D01*
X125027453Y-112432385D01*
X124918430Y-112442307D01*
X124826085Y-112450711D01*
X124826084Y-112450711D01*
X124819944Y-112451270D01*
X124814030Y-112453011D01*
X124814028Y-112453011D01*
X124742426Y-112474085D01*
X124620055Y-112510101D01*
X124614592Y-112512957D01*
X124614590Y-112512958D01*
X124473178Y-112586886D01*
X124435399Y-112606636D01*
X124380450Y-112650816D01*
X124314830Y-112677912D01*
X124244976Y-112665229D01*
X124193067Y-112616793D01*
X124175500Y-112552619D01*
X124175500Y-110482607D01*
X124172437Y-110473180D01*
X124172436Y-110473173D01*
X124168087Y-110459788D01*
X124163473Y-110440569D01*
X124161272Y-110426672D01*
X124161270Y-110426665D01*
X124159719Y-110416874D01*
X124148827Y-110395498D01*
X124141264Y-110377237D01*
X124136914Y-110363850D01*
X124133850Y-110354419D01*
X124119749Y-110335011D01*
X124109417Y-110318152D01*
X124106060Y-110311562D01*
X124098528Y-110296780D01*
X122636523Y-108834775D01*
X122602497Y-108772463D01*
X122600696Y-108762126D01*
X122586122Y-108651427D01*
X122586122Y-108651426D01*
X122585044Y-108643238D01*
X122524536Y-108497159D01*
X122428282Y-108371718D01*
X122302841Y-108275464D01*
X122156762Y-108214956D01*
X122127853Y-108211150D01*
X122034257Y-108198828D01*
X122000000Y-108194318D01*
X121965743Y-108198828D01*
X121872148Y-108211150D01*
X121843238Y-108214956D01*
X121697159Y-108275464D01*
X121571718Y-108371718D01*
X121475464Y-108497159D01*
X121414956Y-108643238D01*
X121394318Y-108800000D01*
X121414956Y-108956762D01*
X121475464Y-109102841D01*
X121571718Y-109228282D01*
X121578264Y-109233305D01*
X121598765Y-109249036D01*
X121697159Y-109324536D01*
X121843238Y-109385044D01*
X121868555Y-109388377D01*
X121962126Y-109400696D01*
X122027054Y-109429418D01*
X122034775Y-109436523D01*
X123287595Y-110689343D01*
X123321621Y-110751655D01*
X123324500Y-110778438D01*
X123324500Y-112518765D01*
X123304498Y-112586886D01*
X123250842Y-112633379D01*
X123180568Y-112643483D01*
X123128201Y-112620293D01*
X123126875Y-112622259D01*
X123121761Y-112618810D01*
X123117017Y-112614885D01*
X122933728Y-112515781D01*
X122919243Y-112511297D01*
X122860084Y-112472049D01*
X122831535Y-112407045D01*
X122830500Y-112390932D01*
X122830500Y-111537607D01*
X122827437Y-111528180D01*
X122827436Y-111528173D01*
X122823087Y-111514788D01*
X122818473Y-111495569D01*
X122816272Y-111481672D01*
X122816270Y-111481665D01*
X122814719Y-111471874D01*
X122803827Y-111450498D01*
X122796264Y-111432237D01*
X122791914Y-111418850D01*
X122788850Y-111409419D01*
X122774749Y-111390011D01*
X122764417Y-111373152D01*
X122758031Y-111360618D01*
X122753528Y-111351780D01*
X120248822Y-108847074D01*
X120214796Y-108784762D01*
X120212995Y-108774425D01*
X120198421Y-108663726D01*
X120198421Y-108663725D01*
X120197343Y-108655537D01*
X120136835Y-108509458D01*
X120040581Y-108384017D01*
X120018007Y-108366695D01*
X119986789Y-108342741D01*
X119915140Y-108287763D01*
X119769061Y-108227255D01*
X119755731Y-108225500D01*
X119620487Y-108207695D01*
X119612299Y-108206617D01*
X119604111Y-108207695D01*
X119468868Y-108225500D01*
X119455537Y-108227255D01*
X119309458Y-108287763D01*
X119237809Y-108342741D01*
X119206592Y-108366695D01*
X119184017Y-108384017D01*
X119087763Y-108509458D01*
X119027255Y-108655537D01*
X119006617Y-108812299D01*
X119027255Y-108969061D01*
X119087763Y-109115140D01*
X119184017Y-109240581D01*
X119309458Y-109336835D01*
X119455537Y-109397343D01*
X119481006Y-109400696D01*
X119574425Y-109412995D01*
X119639353Y-109441717D01*
X119647074Y-109448822D01*
X121942595Y-111744343D01*
X121976621Y-111806655D01*
X121979500Y-111833438D01*
X121979500Y-112510809D01*
X121959498Y-112578930D01*
X121932454Y-112609004D01*
X121773011Y-112737200D01*
X121639075Y-112896818D01*
X121538693Y-113079411D01*
X121475690Y-113278025D01*
X121475004Y-113284142D01*
X121475003Y-113284146D01*
X121473364Y-113298760D01*
X121452463Y-113485093D01*
X121469899Y-113692730D01*
X121527333Y-113893025D01*
X121530151Y-113898507D01*
X121530152Y-113898511D01*
X121619756Y-114072862D01*
X121619759Y-114072866D01*
X121622577Y-114078350D01*
X121626408Y-114083183D01*
X121695404Y-114170236D01*
X121722041Y-114236046D01*
X121708870Y-114305810D01*
X121660072Y-114357379D01*
X121596658Y-114374500D01*
X121338438Y-114374500D01*
X121270317Y-114354498D01*
X121249343Y-114337595D01*
X121009109Y-114097361D01*
X120975083Y-114035049D01*
X120980148Y-113964234D01*
X120988645Y-113946033D01*
X120990313Y-113943097D01*
X120995339Y-113934249D01*
X121061109Y-113736534D01*
X121087225Y-113529810D01*
X121087641Y-113500000D01*
X121067308Y-113292627D01*
X121007083Y-113093154D01*
X120909261Y-112909176D01*
X120903590Y-112902222D01*
X120863778Y-112853409D01*
X120777567Y-112747704D01*
X120617017Y-112614885D01*
X120433728Y-112515781D01*
X120234679Y-112454165D01*
X120228554Y-112453521D01*
X120228553Y-112453521D01*
X120033582Y-112433029D01*
X120033580Y-112433029D01*
X120027453Y-112432385D01*
X119918430Y-112442307D01*
X119826085Y-112450711D01*
X119826084Y-112450711D01*
X119819944Y-112451270D01*
X119814030Y-112453011D01*
X119814028Y-112453011D01*
X119742426Y-112474085D01*
X119620055Y-112510101D01*
X119518379Y-112563255D01*
X119448746Y-112577089D01*
X119382685Y-112551079D01*
X119341173Y-112493483D01*
X119338837Y-112483747D01*
X119338259Y-112483902D01*
X119336122Y-112475926D01*
X119335044Y-112467738D01*
X119274536Y-112321659D01*
X119178282Y-112196218D01*
X119052841Y-112099964D01*
X118906762Y-112039456D01*
X118831070Y-112029491D01*
X118787874Y-112023804D01*
X118722946Y-111995082D01*
X118715225Y-111987977D01*
X118628720Y-111901472D01*
X118607337Y-111890577D01*
X118590491Y-111880253D01*
X118579104Y-111871980D01*
X118571081Y-111866151D01*
X118561650Y-111863087D01*
X118561647Y-111863085D01*
X118548263Y-111858736D01*
X118530002Y-111851172D01*
X118517464Y-111844784D01*
X118517463Y-111844784D01*
X118508626Y-111840281D01*
X118484929Y-111836528D01*
X118465710Y-111831914D01*
X118442893Y-111824500D01*
X116749179Y-111824500D01*
X116681058Y-111804498D01*
X116672475Y-111798462D01*
X116583897Y-111730494D01*
X116583892Y-111730491D01*
X116577341Y-111725464D01*
X116431262Y-111664956D01*
X116274500Y-111644318D01*
X116117738Y-111664956D01*
X115971659Y-111725464D01*
X115919501Y-111765486D01*
X115865849Y-111806655D01*
X115846218Y-111821718D01*
X115749964Y-111947159D01*
X115689456Y-112093238D01*
X115668818Y-112250000D01*
X115669896Y-112258188D01*
X115688015Y-112395813D01*
X115689456Y-112406762D01*
X115692523Y-112414167D01*
X115690837Y-112485031D01*
X115651044Y-112543828D01*
X115585779Y-112571776D01*
X115510891Y-112557503D01*
X115495352Y-112549101D01*
X115433728Y-112515781D01*
X115419243Y-112511297D01*
X115360084Y-112472049D01*
X115331535Y-112407045D01*
X115330500Y-112390932D01*
X115330500Y-109660237D01*
X115350502Y-109592116D01*
X115367405Y-109571142D01*
X115777524Y-109161023D01*
X115839836Y-109126997D01*
X115850173Y-109125196D01*
X115926555Y-109115140D01*
X115969061Y-109109544D01*
X116115140Y-109049036D01*
X116240581Y-108952782D01*
X116336835Y-108827341D01*
X116397343Y-108681262D01*
X116417981Y-108524500D01*
X116397370Y-108367945D01*
X116408309Y-108297798D01*
X116455437Y-108244699D01*
X116522292Y-108225500D01*
X117067393Y-108225500D01*
X117090210Y-108218086D01*
X117109429Y-108213472D01*
X117133126Y-108209719D01*
X117141964Y-108205216D01*
X117154502Y-108198828D01*
X117172763Y-108191264D01*
X117186147Y-108186915D01*
X117186150Y-108186913D01*
X117195581Y-108183849D01*
X117214991Y-108169747D01*
X117231837Y-108159423D01*
X117253220Y-108148528D01*
X117348528Y-108053220D01*
X121765224Y-103636523D01*
X121827536Y-103602497D01*
X121837873Y-103600696D01*
X121948574Y-103586122D01*
X121956762Y-103585044D01*
X122102841Y-103524536D01*
X122228282Y-103428282D01*
X122324536Y-103302841D01*
X122385044Y-103156762D01*
X122388540Y-103130211D01*
X122404604Y-103008188D01*
X122405682Y-103000000D01*
X122385044Y-102843238D01*
X122324536Y-102697159D01*
X122228282Y-102571718D01*
X122102841Y-102475464D01*
X121956762Y-102414956D01*
X121937758Y-102412454D01*
X121808188Y-102395396D01*
X121800000Y-102394318D01*
X121791812Y-102395396D01*
X121662243Y-102412454D01*
X121643238Y-102414956D01*
X121497159Y-102475464D01*
X121371718Y-102571718D01*
X121275464Y-102697159D01*
X121246661Y-102766695D01*
X121217416Y-102837299D01*
X121172868Y-102892580D01*
X121105504Y-102915001D01*
X121036713Y-102897443D01*
X120988335Y-102845481D01*
X120984598Y-102837299D01*
X120960145Y-102778264D01*
X120925960Y-102695735D01*
X120829706Y-102570294D01*
X120821865Y-102564277D01*
X120771096Y-102525321D01*
X120704265Y-102474040D01*
X120558186Y-102413532D01*
X120401424Y-102392894D01*
X120244662Y-102413532D01*
X120098583Y-102474040D01*
X120031752Y-102525321D01*
X119980984Y-102564277D01*
X119973142Y-102570294D01*
X119876888Y-102695735D01*
X119816380Y-102841814D01*
X119810219Y-102888612D01*
X119800728Y-102960702D01*
X119772006Y-103025630D01*
X119764901Y-103033351D01*
X119260657Y-103537595D01*
X119198345Y-103571621D01*
X119171562Y-103574500D01*
X118331438Y-103574500D01*
X118263317Y-103554498D01*
X118216824Y-103500842D01*
X118206720Y-103430568D01*
X118236214Y-103365988D01*
X118242343Y-103359405D01*
X122061243Y-99540505D01*
X122123555Y-99506479D01*
X122189274Y-99509767D01*
X122230416Y-99523135D01*
X122290740Y-99542735D01*
X122497641Y-99567407D01*
X122503776Y-99566935D01*
X122503778Y-99566935D01*
X122699252Y-99551894D01*
X122699256Y-99551893D01*
X122705394Y-99551421D01*
X122906085Y-99495387D01*
X122911589Y-99492607D01*
X122911591Y-99492606D01*
X123086570Y-99404218D01*
X123086572Y-99404217D01*
X123092071Y-99401439D01*
X123256266Y-99273156D01*
X123392417Y-99115423D01*
X123402678Y-99097361D01*
X123492294Y-98939610D01*
X123492296Y-98939606D01*
X123495339Y-98934249D01*
X123528224Y-98835392D01*
X123559164Y-98742382D01*
X123559165Y-98742379D01*
X123561109Y-98736534D01*
X123565894Y-98698655D01*
X123586783Y-98533312D01*
X123586784Y-98533305D01*
X123587225Y-98529810D01*
X123587641Y-98500000D01*
X123567308Y-98292627D01*
X123507083Y-98093154D01*
X123409261Y-97909176D01*
X123403590Y-97902222D01*
X123316313Y-97795211D01*
X123277567Y-97747704D01*
X123117017Y-97614885D01*
X122933728Y-97515781D01*
X122734679Y-97454165D01*
X122728554Y-97453521D01*
X122728553Y-97453521D01*
X122533582Y-97433029D01*
X122533580Y-97433029D01*
X122527453Y-97432385D01*
X122415804Y-97442546D01*
X122326085Y-97450711D01*
X122326084Y-97450711D01*
X122319944Y-97451270D01*
X122314030Y-97453011D01*
X122314028Y-97453011D01*
X122272529Y-97465225D01*
X122120055Y-97510101D01*
X122114590Y-97512958D01*
X121946448Y-97600860D01*
X121935399Y-97606636D01*
X121773011Y-97737200D01*
X121639075Y-97896818D01*
X121538693Y-98079411D01*
X121475690Y-98278025D01*
X121475004Y-98284142D01*
X121475003Y-98284146D01*
X121457158Y-98443238D01*
X121452463Y-98485093D01*
X121452979Y-98491237D01*
X121465293Y-98637874D01*
X121469899Y-98692730D01*
X121471598Y-98698654D01*
X121501949Y-98804502D01*
X121501498Y-98875497D01*
X121469925Y-98928327D01*
X117660657Y-102737595D01*
X117598345Y-102771621D01*
X117571562Y-102774500D01*
X115040691Y-102774500D01*
X114972570Y-102754498D01*
X114931572Y-102711501D01*
X114927696Y-102704788D01*
X114924536Y-102697159D01*
X114828282Y-102571718D01*
X114702841Y-102475464D01*
X114556762Y-102414956D01*
X114537758Y-102412454D01*
X114408188Y-102395396D01*
X114400000Y-102394318D01*
X114391812Y-102395396D01*
X114262243Y-102412454D01*
X114243238Y-102414956D01*
X114097159Y-102475464D01*
X113971718Y-102571718D01*
X113875464Y-102697159D01*
X113814956Y-102843238D01*
X113794318Y-103000000D01*
X113795396Y-103008188D01*
X113811461Y-103130211D01*
X113814956Y-103156762D01*
X113875464Y-103302841D01*
X113918867Y-103359405D01*
X113928375Y-103371796D01*
X113953975Y-103438016D01*
X113939710Y-103507565D01*
X113890109Y-103558361D01*
X113828412Y-103574500D01*
X113474679Y-103574500D01*
X113406558Y-103554498D01*
X113397975Y-103548462D01*
X113309397Y-103480494D01*
X113309392Y-103480491D01*
X113302841Y-103475464D01*
X113156762Y-103414956D01*
X113000000Y-103394318D01*
X112843238Y-103414956D01*
X112697159Y-103475464D01*
X112571718Y-103571718D01*
X112566695Y-103578264D01*
X112547101Y-103603800D01*
X112475464Y-103697159D01*
X112414956Y-103843238D01*
X112394318Y-104000000D01*
X112414956Y-104156762D01*
X112475464Y-104302841D01*
X112571718Y-104428282D01*
X112697159Y-104524536D01*
X112843238Y-104585044D01*
X113000000Y-104605682D01*
X113008188Y-104604604D01*
X113148574Y-104586122D01*
X113156762Y-104585044D01*
X113302841Y-104524536D01*
X113309394Y-104519508D01*
X113309397Y-104519506D01*
X113397975Y-104451538D01*
X113464195Y-104425937D01*
X113474679Y-104425500D01*
X119467393Y-104425500D01*
X119467393Y-104429197D01*
X119519496Y-104435936D01*
X119573805Y-104481664D01*
X119594770Y-104549494D01*
X119575736Y-104617892D01*
X119557879Y-104640374D01*
X118203049Y-105995203D01*
X116860657Y-107337595D01*
X116798345Y-107371621D01*
X116771562Y-107374500D01*
X115332607Y-107374500D01*
X115309790Y-107381914D01*
X115290571Y-107386528D01*
X115266874Y-107390281D01*
X115258037Y-107394784D01*
X115258036Y-107394784D01*
X115245498Y-107401172D01*
X115227237Y-107408736D01*
X115213853Y-107413085D01*
X115213850Y-107413087D01*
X115204419Y-107416151D01*
X115196396Y-107421980D01*
X115185009Y-107430253D01*
X115168163Y-107440577D01*
X115146780Y-107451472D01*
X113768168Y-108830084D01*
X113705856Y-108864110D01*
X113635041Y-108859045D01*
X113578205Y-108816498D01*
X113562664Y-108789208D01*
X113551446Y-108762126D01*
X113524536Y-108697159D01*
X113428282Y-108571718D01*
X113302841Y-108475464D01*
X113156762Y-108414956D01*
X113109964Y-108408795D01*
X113037874Y-108399304D01*
X112972946Y-108370582D01*
X112965225Y-108363477D01*
X110367405Y-105765657D01*
X110333379Y-105703345D01*
X110330500Y-105676562D01*
X110330500Y-99610333D01*
X110350502Y-99542212D01*
X110403807Y-99496023D01*
X110406085Y-99495387D01*
X110411589Y-99492607D01*
X110411591Y-99492606D01*
X110586570Y-99404218D01*
X110586572Y-99404217D01*
X110592071Y-99401439D01*
X110756266Y-99273156D01*
X110892417Y-99115423D01*
X110902678Y-99097361D01*
X110992294Y-98939610D01*
X110992296Y-98939606D01*
X110995339Y-98934249D01*
X111028224Y-98835392D01*
X111059164Y-98742382D01*
X111059165Y-98742379D01*
X111061109Y-98736534D01*
X111065894Y-98698655D01*
X111086783Y-98533312D01*
X111086784Y-98533305D01*
X111087225Y-98529810D01*
X111087641Y-98500000D01*
X111067308Y-98292627D01*
X111007083Y-98093154D01*
X110909261Y-97909176D01*
X110903590Y-97902222D01*
X110816313Y-97795211D01*
X110777567Y-97747704D01*
X110617017Y-97614885D01*
X110433728Y-97515781D01*
X110234679Y-97454165D01*
X110228554Y-97453521D01*
X110228553Y-97453521D01*
X110033582Y-97433029D01*
X110033580Y-97433029D01*
X110027453Y-97432385D01*
X109915804Y-97442546D01*
X109826085Y-97450711D01*
X109826084Y-97450711D01*
X109819944Y-97451270D01*
X109814030Y-97453011D01*
X109814028Y-97453011D01*
X109772529Y-97465225D01*
X109620055Y-97510101D01*
X109614590Y-97512958D01*
X109446448Y-97600860D01*
X109435399Y-97606636D01*
X109273011Y-97737200D01*
X109139075Y-97896818D01*
X109038693Y-98079411D01*
X108975690Y-98278025D01*
X108975004Y-98284142D01*
X108975003Y-98284146D01*
X108957158Y-98443238D01*
X108952463Y-98485093D01*
X108952979Y-98491237D01*
X108965293Y-98637874D01*
X108969899Y-98692730D01*
X109027333Y-98893025D01*
X109030151Y-98898507D01*
X109030152Y-98898511D01*
X109119756Y-99072862D01*
X109119759Y-99072866D01*
X109122577Y-99078350D01*
X109168874Y-99136763D01*
X109248174Y-99236816D01*
X109248179Y-99236821D01*
X109252003Y-99241646D01*
X109256696Y-99245640D01*
X109256697Y-99245641D01*
X109405987Y-99372697D01*
X109405991Y-99372700D01*
X109410683Y-99376693D01*
X109416062Y-99379699D01*
X109421125Y-99383218D01*
X109420251Y-99384475D01*
X109464677Y-99429785D01*
X109479500Y-99489078D01*
X109479500Y-105972393D01*
X109486914Y-105995210D01*
X109491528Y-106014429D01*
X109495281Y-106038126D01*
X109499784Y-106046963D01*
X109499784Y-106046964D01*
X109506172Y-106059502D01*
X109513736Y-106077763D01*
X109518085Y-106091147D01*
X109518087Y-106091150D01*
X109521151Y-106100581D01*
X109526980Y-106108604D01*
X109535253Y-106119991D01*
X109545577Y-106136837D01*
X109556472Y-106158220D01*
X111737483Y-108339231D01*
X111771509Y-108401543D01*
X111769614Y-108428032D01*
X111779167Y-108425835D01*
X111845977Y-108449852D01*
X111860769Y-108462517D01*
X112363477Y-108965225D01*
X112397503Y-109027537D01*
X112399304Y-109037874D01*
X112414956Y-109156762D01*
X112418116Y-109164391D01*
X112422532Y-109175053D01*
X112475464Y-109302841D01*
X112571718Y-109428282D01*
X112697159Y-109524536D01*
X112789208Y-109562664D01*
X112844488Y-109607213D01*
X112866909Y-109674576D01*
X112849351Y-109743367D01*
X112830084Y-109768168D01*
X110643472Y-111954780D01*
X110632577Y-111976163D01*
X110622253Y-111993009D01*
X110608151Y-112012419D01*
X110605087Y-112021850D01*
X110605085Y-112021853D01*
X110600736Y-112035237D01*
X110593172Y-112053498D01*
X110582281Y-112074874D01*
X110578808Y-112096804D01*
X110578528Y-112098570D01*
X110573914Y-112117790D01*
X110566500Y-112140607D01*
X110566500Y-112279563D01*
X110546498Y-112347684D01*
X110529595Y-112368658D01*
X110448334Y-112449919D01*
X110386022Y-112483945D01*
X110321980Y-112481189D01*
X110278526Y-112467738D01*
X110234679Y-112454165D01*
X110228554Y-112453521D01*
X110228553Y-112453521D01*
X110033582Y-112433029D01*
X110033580Y-112433029D01*
X110027453Y-112432385D01*
X109918430Y-112442307D01*
X109826085Y-112450711D01*
X109826084Y-112450711D01*
X109819944Y-112451270D01*
X109814030Y-112453011D01*
X109814028Y-112453011D01*
X109742426Y-112474085D01*
X109620055Y-112510101D01*
X109614592Y-112512957D01*
X109614590Y-112512958D01*
X109473178Y-112586886D01*
X109435399Y-112606636D01*
X109273011Y-112737200D01*
X109139075Y-112896818D01*
X109038693Y-113079411D01*
X108975690Y-113278025D01*
X108975004Y-113284142D01*
X108975003Y-113284146D01*
X108973364Y-113298760D01*
X108952463Y-113485093D01*
X108586179Y-113485093D01*
X108567308Y-113292627D01*
X108507083Y-113093154D01*
X108409261Y-112909176D01*
X108403590Y-112902222D01*
X108363778Y-112853409D01*
X108277567Y-112747704D01*
X108117017Y-112614885D01*
X107933728Y-112515781D01*
X107734679Y-112454165D01*
X107728554Y-112453521D01*
X107728553Y-112453521D01*
X107533582Y-112433029D01*
X107533580Y-112433029D01*
X107527453Y-112432385D01*
X107418430Y-112442307D01*
X107326085Y-112450711D01*
X107326084Y-112450711D01*
X107319944Y-112451270D01*
X107314030Y-112453011D01*
X107314028Y-112453011D01*
X107242426Y-112474085D01*
X107120055Y-112510101D01*
X107114592Y-112512957D01*
X107114590Y-112512958D01*
X106973178Y-112586886D01*
X106935399Y-112606636D01*
X106773011Y-112737200D01*
X106769047Y-112741924D01*
X106693021Y-112832528D01*
X106633912Y-112871855D01*
X106562924Y-112872981D01*
X106502597Y-112835550D01*
X106472083Y-112771445D01*
X106470500Y-112751537D01*
X106470500Y-99248300D01*
X106490502Y-99180179D01*
X106544158Y-99133686D01*
X106614432Y-99123582D01*
X106679012Y-99153076D01*
X106695246Y-99170036D01*
X106748174Y-99236816D01*
X106748179Y-99236821D01*
X106752003Y-99241646D01*
X106756696Y-99245640D01*
X106756697Y-99245641D01*
X106905987Y-99372697D01*
X106905991Y-99372700D01*
X106910683Y-99376693D01*
X106916062Y-99379699D01*
X106921125Y-99383218D01*
X106920251Y-99384475D01*
X106964677Y-99429785D01*
X106979500Y-99489078D01*
X106979500Y-105272393D01*
X106986914Y-105295210D01*
X106991528Y-105314429D01*
X106995281Y-105338126D01*
X106999784Y-105346963D01*
X106999784Y-105346964D01*
X107006172Y-105359502D01*
X107013736Y-105377763D01*
X107018085Y-105391147D01*
X107018087Y-105391150D01*
X107021151Y-105400581D01*
X107026980Y-105408604D01*
X107035253Y-105419991D01*
X107045577Y-105436837D01*
X107056472Y-105458220D01*
X110563477Y-108965225D01*
X110597503Y-109027537D01*
X110599304Y-109037874D01*
X110614956Y-109156762D01*
X110618116Y-109164391D01*
X110622532Y-109175053D01*
X110675464Y-109302841D01*
X110771718Y-109428282D01*
X110897159Y-109524536D01*
X111043238Y-109585044D01*
X111200000Y-109605682D01*
X111208188Y-109604604D01*
X111348574Y-109586122D01*
X111356762Y-109585044D01*
X111502841Y-109524536D01*
X111628282Y-109428282D01*
X111724536Y-109302841D01*
X111777468Y-109175053D01*
X111781884Y-109164391D01*
X111785044Y-109156762D01*
X111805682Y-109000000D01*
X111785044Y-108843238D01*
X111724536Y-108697159D01*
X111671711Y-108628316D01*
X111646111Y-108562096D01*
X111648181Y-108552005D01*
X111588003Y-108538914D01*
X111571684Y-108528289D01*
X111565670Y-108523674D01*
X111502841Y-108475464D01*
X111356762Y-108414956D01*
X111309964Y-108408795D01*
X111237874Y-108399304D01*
X111172946Y-108370582D01*
X111165225Y-108363477D01*
X107867405Y-105065657D01*
X107833379Y-105003345D01*
X107830500Y-104976562D01*
X107830500Y-99610333D01*
X107850502Y-99542212D01*
X107903807Y-99496023D01*
X107906085Y-99495387D01*
X107911589Y-99492607D01*
X107911591Y-99492606D01*
X108086570Y-99404218D01*
X108086572Y-99404217D01*
X108092071Y-99401439D01*
X108256266Y-99273156D01*
X108392417Y-99115423D01*
X108402678Y-99097361D01*
X108492294Y-98939610D01*
X108492296Y-98939606D01*
X108495339Y-98934249D01*
X108528224Y-98835392D01*
X108559164Y-98742382D01*
X108559165Y-98742379D01*
X108561109Y-98736534D01*
X108565894Y-98698655D01*
X108586783Y-98533312D01*
X108586784Y-98533305D01*
X108587225Y-98529810D01*
X108587641Y-98500000D01*
X108567308Y-98292627D01*
X108507083Y-98093154D01*
X108409261Y-97909176D01*
X108403590Y-97902222D01*
X108316313Y-97795211D01*
X108277567Y-97747704D01*
X108117017Y-97614885D01*
X107933728Y-97515781D01*
X107734679Y-97454165D01*
X107728554Y-97453521D01*
X107728553Y-97453521D01*
X107533582Y-97433029D01*
X107533580Y-97433029D01*
X107527453Y-97432385D01*
X107415804Y-97442546D01*
X107326085Y-97450711D01*
X107326084Y-97450711D01*
X107319944Y-97451270D01*
X107314030Y-97453011D01*
X107314028Y-97453011D01*
X107272529Y-97465225D01*
X107120055Y-97510101D01*
X107114590Y-97512958D01*
X106946448Y-97600860D01*
X106935399Y-97606636D01*
X106773011Y-97737200D01*
X106769047Y-97741924D01*
X106693021Y-97832528D01*
X106633912Y-97871855D01*
X106562924Y-97872981D01*
X106502597Y-97835550D01*
X106472083Y-97771445D01*
X106470500Y-97751537D01*
X106470500Y-93767317D01*
X106472414Y-93745437D01*
X106473222Y-93740856D01*
X106473222Y-93740855D01*
X106475136Y-93730000D01*
X107134532Y-93730000D01*
X107135011Y-93735475D01*
X107135011Y-93735478D01*
X107136832Y-93756292D01*
X107154365Y-93956692D01*
X107155789Y-93962005D01*
X107155789Y-93962007D01*
X107211433Y-94169672D01*
X107213261Y-94176496D01*
X107215583Y-94181476D01*
X107215584Y-94181478D01*
X107292129Y-94345627D01*
X107309432Y-94382734D01*
X107439953Y-94569139D01*
X107600861Y-94730047D01*
X107787266Y-94860568D01*
X107792244Y-94862889D01*
X107792247Y-94862891D01*
X107988522Y-94954416D01*
X107993504Y-94956739D01*
X107998812Y-94958161D01*
X107998814Y-94958162D01*
X108207993Y-95014211D01*
X108207995Y-95014211D01*
X108213308Y-95015635D01*
X108440000Y-95035468D01*
X108666692Y-95015635D01*
X108672005Y-95014211D01*
X108672007Y-95014211D01*
X108881186Y-94958162D01*
X108881188Y-94958161D01*
X108886496Y-94956739D01*
X108891478Y-94954416D01*
X109087753Y-94862891D01*
X109087756Y-94862889D01*
X109092734Y-94860568D01*
X109279139Y-94730047D01*
X109440047Y-94569139D01*
X109570568Y-94382734D01*
X109587872Y-94345627D01*
X109664416Y-94181478D01*
X109664417Y-94181476D01*
X109666739Y-94176496D01*
X109668568Y-94169672D01*
X109724211Y-93962007D01*
X109724211Y-93962005D01*
X109725635Y-93956692D01*
X109745468Y-93730000D01*
X109725635Y-93503308D01*
X109724211Y-93497993D01*
X109668162Y-93288814D01*
X109668161Y-93288812D01*
X109666739Y-93283504D01*
X109664416Y-93278522D01*
X109572891Y-93082247D01*
X109572889Y-93082244D01*
X109570568Y-93077266D01*
X109440047Y-92890861D01*
X109279139Y-92729953D01*
X109092734Y-92599432D01*
X109087756Y-92597111D01*
X109087753Y-92597109D01*
X108891478Y-92505584D01*
X108891476Y-92505583D01*
X108886496Y-92503261D01*
X108881188Y-92501839D01*
X108881186Y-92501838D01*
X108672007Y-92445789D01*
X108672005Y-92445789D01*
X108666692Y-92444365D01*
X108440000Y-92424532D01*
X108213308Y-92444365D01*
X108207995Y-92445789D01*
X108207993Y-92445789D01*
X107998814Y-92501838D01*
X107998812Y-92501839D01*
X107993504Y-92503261D01*
X107988524Y-92505583D01*
X107988522Y-92505584D01*
X107792247Y-92597109D01*
X107792244Y-92597111D01*
X107787266Y-92599432D01*
X107600861Y-92729953D01*
X107439953Y-92890861D01*
X107309432Y-93077266D01*
X107307111Y-93082244D01*
X107307109Y-93082247D01*
X107215584Y-93278522D01*
X107213261Y-93283504D01*
X107211839Y-93288812D01*
X107211838Y-93288814D01*
X107155789Y-93497993D01*
X107154365Y-93503308D01*
X107140596Y-93660690D01*
X107135173Y-93722675D01*
X107135172Y-93722675D01*
X107135173Y-93722678D01*
X107134532Y-93730000D01*
X106475136Y-93730000D01*
X106473221Y-93719142D01*
X106473221Y-93708121D01*
X106473429Y-93708121D01*
X106472750Y-93695673D01*
X106486809Y-93481171D01*
X106488960Y-93464831D01*
X106533954Y-93238632D01*
X106535999Y-93228351D01*
X106540264Y-93212434D01*
X106617764Y-92984127D01*
X106624071Y-92968900D01*
X106730710Y-92752658D01*
X106738951Y-92738384D01*
X106872904Y-92537909D01*
X106882937Y-92524834D01*
X106922558Y-92479655D01*
X107041914Y-92343555D01*
X107053555Y-92331914D01*
X107234834Y-92172937D01*
X107247909Y-92162904D01*
X107448384Y-92028951D01*
X107462658Y-92020710D01*
X107678900Y-91914071D01*
X107694127Y-91907764D01*
X107910963Y-91834158D01*
X107922437Y-91830263D01*
X107938351Y-91825999D01*
X108056592Y-91802479D01*
X108174831Y-91778960D01*
X108191171Y-91776809D01*
X108405673Y-91762750D01*
X108418121Y-91763429D01*
X108418121Y-91763221D01*
X108429142Y-91763221D01*
X108440000Y-91765136D01*
X108450855Y-91763222D01*
X108450856Y-91763222D01*
X108455437Y-91762414D01*
X108477317Y-91760500D01*
X126731297Y-91760500D01*
X126799418Y-91780502D01*
G37*
%TD.AperFunction*%
%TD*%
M02*
