%TF.GenerationSoftware,KiCad,Pcbnew,7.0.8*%
%TF.CreationDate,2023-11-06T14:11:06+11:00*%
%TF.ProjectId,Line 4.3,4c696e65-2034-42e3-932e-6b696361645f,rev?*%
%TF.SameCoordinates,Original*%
%TF.FileFunction,Soldermask,Bot*%
%TF.FilePolarity,Negative*%
%FSLAX46Y46*%
G04 Gerber Fmt 4.6, Leading zero omitted, Abs format (unit mm)*
G04 Created by KiCad (PCBNEW 7.0.8) date 2023-11-06 14:11:06*
%MOMM*%
%LPD*%
G01*
G04 APERTURE LIST*
G04 Aperture macros list*
%AMRoundRect*
0 Rectangle with rounded corners*
0 $1 Rounding radius*
0 $2 $3 $4 $5 $6 $7 $8 $9 X,Y pos of 4 corners*
0 Add a 4 corners polygon primitive as box body*
4,1,4,$2,$3,$4,$5,$6,$7,$8,$9,$2,$3,0*
0 Add four circle primitives for the rounded corners*
1,1,$1+$1,$2,$3*
1,1,$1+$1,$4,$5*
1,1,$1+$1,$6,$7*
1,1,$1+$1,$8,$9*
0 Add four rect primitives between the rounded corners*
20,1,$1+$1,$2,$3,$4,$5,0*
20,1,$1+$1,$4,$5,$6,$7,0*
20,1,$1+$1,$6,$7,$8,$9,0*
20,1,$1+$1,$8,$9,$2,$3,0*%
%AMHorizOval*
0 Thick line with rounded ends*
0 $1 width*
0 $2 $3 position (X,Y) of the first rounded end (center of the circle)*
0 $4 $5 position (X,Y) of the second rounded end (center of the circle)*
0 Add line between two ends*
20,1,$1,$2,$3,$4,$5,0*
0 Add two circle primitives to create the rounded ends*
1,1,$1,$2,$3*
1,1,$1,$4,$5*%
%AMRotRect*
0 Rectangle, with rotation*
0 The origin of the aperture is its center*
0 $1 length*
0 $2 width*
0 $3 Rotation angle, in degrees counterclockwise*
0 Add horizontal line*
21,1,$1,$2,0,0,$3*%
G04 Aperture macros list end*
%ADD10C,0.010000*%
%ADD11HorizOval,1.700000X-0.088388X0.088388X0.088388X-0.088388X0*%
%ADD12RoundRect,0.250000X-0.088388X0.936916X-0.936916X0.088388X0.088388X-0.936916X0.936916X-0.088388X0*%
%ADD13RotRect,0.350000X1.400000X7.500000*%
%ADD14RotRect,2.257400X2.108200X285.000000*%
%ADD15RotRect,1.190600X2.108200X285.000000*%
%ADD16R,1.200000X1.200000*%
%ADD17RotRect,0.350000X1.400000X307.500000*%
%ADD18RotRect,1.200000X1.200000X120.000000*%
%ADD19RotRect,0.800000X0.800000X345.000000*%
%ADD20R,2.257400X2.108200*%
%ADD21R,1.190600X2.108200*%
%ADD22RotRect,1.200000X1.200000X30.000000*%
%ADD23RoundRect,0.250000X-1.119251X0.023621X-0.957489X-0.580082X1.119251X-0.023621X0.957489X0.580082X0*%
%ADD24RotRect,1.200000X1.200000X165.000000*%
%ADD25RotRect,2.257400X2.108200X60.000000*%
%ADD26RotRect,1.190600X2.108200X60.000000*%
%ADD27RoundRect,0.250000X0.539169X-0.981111X0.981111X-0.539169X-0.539169X0.981111X-0.981111X0.539169X0*%
%ADD28RotRect,2.257400X2.108200X330.000000*%
%ADD29RotRect,1.190600X2.108200X330.000000*%
%ADD30RotRect,1.200000X1.200000X285.000000*%
%ADD31RoundRect,0.250000X0.774727X-0.808133X1.087227X-0.266867X-0.774727X0.808133X-1.087227X0.266867X0*%
%ADD32RotRect,1.200000X1.200000X210.000000*%
%ADD33RoundRect,0.250000X0.312500X1.075000X-0.312500X1.075000X-0.312500X-1.075000X0.312500X-1.075000X0*%
%ADD34RotRect,1.200000X1.200000X105.000000*%
%ADD35RotRect,0.800000X0.800000X15.000000*%
%ADD36RotRect,2.257400X2.108200X210.000000*%
%ADD37RotRect,1.190600X2.108200X210.000000*%
%ADD38RoundRect,0.250000X-0.539169X0.981111X-0.981111X0.539169X0.539169X-0.981111X0.981111X-0.539169X0*%
%ADD39R,0.800000X0.800000*%
%ADD40RoundRect,0.250000X1.087227X0.266867X0.774727X0.808133X-1.087227X-0.266867X-0.774727X-0.808133X0*%
%ADD41RotRect,2.257400X2.108200X300.000000*%
%ADD42RotRect,1.190600X2.108200X300.000000*%
%ADD43RotRect,1.200000X1.200000X150.000000*%
%ADD44RotRect,1.200000X1.200000X15.000000*%
%ADD45RotRect,1.200000X1.200000X195.000000*%
%ADD46RoundRect,0.250000X0.957489X-0.580082X1.119251X0.023621X-0.957489X0.580082X-1.119251X-0.023621X0*%
%ADD47RoundRect,0.250000X-1.087227X-0.266867X-0.774727X-0.808133X1.087227X0.266867X0.774727X0.808133X0*%
%ADD48RoundRect,0.200000X0.200000X0.275000X-0.200000X0.275000X-0.200000X-0.275000X0.200000X-0.275000X0*%
%ADD49RotRect,2.257400X2.108200X30.000000*%
%ADD50RotRect,1.190600X2.108200X30.000000*%
%ADD51RotRect,0.800000X0.800000X150.000000*%
%ADD52RoundRect,0.250000X-0.580082X-0.957489X0.023621X-1.119251X0.580082X0.957489X-0.023621X1.119251X0*%
%ADD53RoundRect,0.250000X-0.023621X-1.119251X0.580082X-0.957489X0.023621X1.119251X-0.580082X0.957489X0*%
%ADD54RotRect,1.200000X1.200000X225.000000*%
%ADD55RotRect,0.800000X0.800000X120.000000*%
%ADD56RoundRect,0.250000X1.119251X-0.023621X0.957489X0.580082X-1.119251X0.023621X-0.957489X-0.580082X0*%
%ADD57RotRect,2.257400X2.108200X165.000000*%
%ADD58RotRect,1.190600X2.108200X165.000000*%
%ADD59RotRect,0.800000X0.800000X195.000000*%
%ADD60RoundRect,0.250000X-0.266867X1.087227X-0.808133X0.774727X0.266867X-1.087227X0.808133X-0.774727X0*%
%ADD61RotRect,1.200000X1.200000X60.000000*%
%ADD62RotRect,1.200000X1.200000X330.000000*%
%ADD63RotRect,1.200000X1.200000X315.000000*%
%ADD64RoundRect,0.250000X0.580082X0.957489X-0.023621X1.119251X-0.580082X-0.957489X0.023621X-1.119251X0*%
%ADD65RoundRect,0.250000X0.981111X0.539169X0.539169X0.981111X-0.981111X-0.539169X-0.539169X-0.981111X0*%
%ADD66RotRect,2.257400X2.108200X150.000000*%
%ADD67RotRect,1.190600X2.108200X150.000000*%
%ADD68RotRect,0.800000X0.800000X60.000000*%
%ADD69RoundRect,0.250000X-0.981111X-0.539169X-0.539169X-0.981111X0.981111X0.539169X0.539169X0.981111X0*%
%ADD70RoundRect,0.250000X1.075000X-0.312500X1.075000X0.312500X-1.075000X0.312500X-1.075000X-0.312500X0*%
%ADD71RotRect,2.257400X2.108200X345.000000*%
%ADD72RotRect,1.190600X2.108200X345.000000*%
%ADD73RotRect,2.257400X2.108200X15.000000*%
%ADD74RotRect,1.190600X2.108200X15.000000*%
%ADD75RoundRect,0.250000X0.808133X0.774727X0.266867X1.087227X-0.808133X-0.774727X-0.266867X-1.087227X0*%
%ADD76RotRect,0.350000X1.400000X247.500000*%
%ADD77RotRect,1.200000X1.200000X345.000000*%
%ADD78RotRect,1.200000X1.200000X300.000000*%
%ADD79RotRect,2.257400X2.108200X105.000000*%
%ADD80RotRect,1.190600X2.108200X105.000000*%
%ADD81RotRect,0.800000X0.800000X330.000000*%
%ADD82RotRect,1.200000X1.200000X75.000000*%
%ADD83RoundRect,0.250000X0.266867X-1.087227X0.808133X-0.774727X-0.266867X1.087227X-0.808133X0.774727X0*%
%ADD84RotRect,2.257400X2.108200X225.000000*%
%ADD85RotRect,1.190600X2.108200X225.000000*%
%ADD86RotRect,0.800000X0.800000X135.000000*%
%ADD87RotRect,0.800000X0.800000X315.000000*%
%ADD88RotRect,2.257400X2.108200X75.000000*%
%ADD89RotRect,1.190600X2.108200X75.000000*%
%ADD90O,2.004000X1.304000*%
%ADD91O,1.654000X1.254000*%
%ADD92RoundRect,0.552000X0.300000X-0.300000X0.300000X0.300000X-0.300000X0.300000X-0.300000X-0.300000X0*%
%ADD93RoundRect,0.250000X-0.808133X-0.774727X-0.266867X-1.087227X0.808133X0.774727X0.266867X1.087227X0*%
%ADD94RotRect,2.257400X2.108200X240.000000*%
%ADD95RotRect,1.190600X2.108200X240.000000*%
%ADD96RotRect,0.350000X1.400000X127.500000*%
%ADD97RotRect,0.800000X0.800000X240.000000*%
%ADD98RotRect,1.200000X1.200000X240.000000*%
%ADD99RotRect,2.257400X2.108200X255.000000*%
%ADD100RotRect,1.190600X2.108200X255.000000*%
%ADD101R,2.108200X2.257400*%
%ADD102R,2.108200X1.190600*%
%ADD103RoundRect,0.250000X-0.312500X-1.075000X0.312500X-1.075000X0.312500X1.075000X-0.312500X1.075000X0*%
%ADD104RotRect,1.200000X1.200000X255.000000*%
%ADD105RoundRect,0.250000X-0.774727X0.808133X-1.087227X0.266867X0.774727X-0.808133X1.087227X-0.266867X0*%
%ADD106RoundRect,0.250000X-0.957489X0.580082X-1.119251X-0.023621X0.957489X-0.580082X1.119251X0.023621X0*%
%ADD107RotRect,0.800000X0.800000X30.000000*%
%ADD108RotRect,1.200000X1.200000X45.000000*%
%ADD109RotRect,1.200000X1.200000X135.000000*%
%ADD110RotRect,0.800000X0.800000X75.000000*%
%ADD111RotRect,0.800000X0.800000X300.000000*%
%ADD112RotRect,0.800000X0.800000X255.000000*%
%ADD113RotRect,0.800000X0.800000X210.000000*%
%ADD114RotRect,0.350000X1.400000X187.500000*%
%ADD115RoundRect,0.250000X-1.075000X0.312500X-1.075000X-0.312500X1.075000X-0.312500X1.075000X0.312500X0*%
%ADD116RotRect,2.257400X2.108200X120.000000*%
%ADD117RotRect,1.190600X2.108200X120.000000*%
%ADD118RotRect,0.800000X0.800000X285.000000*%
%ADD119RotRect,2.257400X2.108200X195.000000*%
%ADD120RotRect,1.190600X2.108200X195.000000*%
%ADD121RotRect,0.350000X1.400000X67.500000*%
%ADD122RotRect,2.257400X2.108200X315.000000*%
%ADD123RotRect,1.190600X2.108200X315.000000*%
%ADD124RotRect,0.800000X0.800000X225.000000*%
%ADD125RoundRect,0.250000X0.023621X1.119251X-0.580082X0.957489X-0.023621X-1.119251X0.580082X-0.957489X0*%
%ADD126RotRect,2.257400X2.108200X45.000000*%
%ADD127RotRect,1.190600X2.108200X45.000000*%
%ADD128RotRect,0.800000X0.800000X45.000000*%
%ADD129RoundRect,0.140000X-0.140000X-0.170000X0.140000X-0.170000X0.140000X0.170000X-0.140000X0.170000X0*%
%ADD130RotRect,2.257400X2.108200X135.000000*%
%ADD131RotRect,1.190600X2.108200X135.000000*%
%ADD132RotRect,0.800000X0.800000X105.000000*%
%ADD133RotRect,0.800000X0.800000X165.000000*%
G04 APERTURE END LIST*
%TO.C,U7*%
D10*
X125917000Y-157991000D02*
X125964000Y-157995000D01*
X126011000Y-158001000D01*
X126057000Y-158010000D01*
X126103000Y-158021000D01*
X126148000Y-158034000D01*
X126193000Y-158050000D01*
X126236000Y-158068000D01*
X126279000Y-158088000D01*
X126320000Y-158111000D01*
X126360000Y-158135000D01*
X126399000Y-158162000D01*
X126436000Y-158191000D01*
X126472000Y-158221000D01*
X126506000Y-158254000D01*
X126539000Y-158288000D01*
X126569000Y-158324000D01*
X126598000Y-158361000D01*
X126625000Y-158400000D01*
X126649000Y-158440000D01*
X126672000Y-158481000D01*
X126692000Y-158524000D01*
X126710000Y-158567000D01*
X126726000Y-158612000D01*
X126739000Y-158657000D01*
X126750000Y-158703000D01*
X126759000Y-158749000D01*
X126765000Y-158796000D01*
X126769000Y-158843000D01*
X126770000Y-158890000D01*
X126770000Y-161390000D01*
X124970000Y-161390000D01*
X124970000Y-158890000D01*
X124971000Y-158843000D01*
X124975000Y-158796000D01*
X124981000Y-158749000D01*
X124990000Y-158703000D01*
X125001000Y-158657000D01*
X125014000Y-158612000D01*
X125030000Y-158567000D01*
X125048000Y-158524000D01*
X125068000Y-158481000D01*
X125091000Y-158440000D01*
X125115000Y-158400000D01*
X125142000Y-158361000D01*
X125171000Y-158324000D01*
X125201000Y-158288000D01*
X125234000Y-158254000D01*
X125268000Y-158221000D01*
X125304000Y-158191000D01*
X125341000Y-158162000D01*
X125380000Y-158135000D01*
X125420000Y-158111000D01*
X125461000Y-158088000D01*
X125504000Y-158068000D01*
X125547000Y-158050000D01*
X125592000Y-158034000D01*
X125637000Y-158021000D01*
X125683000Y-158010000D01*
X125729000Y-158001000D01*
X125776000Y-157995000D01*
X125823000Y-157991000D01*
X125870000Y-157990000D01*
X125917000Y-157991000D01*
G36*
X125917000Y-157991000D02*
G01*
X125964000Y-157995000D01*
X126011000Y-158001000D01*
X126057000Y-158010000D01*
X126103000Y-158021000D01*
X126148000Y-158034000D01*
X126193000Y-158050000D01*
X126236000Y-158068000D01*
X126279000Y-158088000D01*
X126320000Y-158111000D01*
X126360000Y-158135000D01*
X126399000Y-158162000D01*
X126436000Y-158191000D01*
X126472000Y-158221000D01*
X126506000Y-158254000D01*
X126539000Y-158288000D01*
X126569000Y-158324000D01*
X126598000Y-158361000D01*
X126625000Y-158400000D01*
X126649000Y-158440000D01*
X126672000Y-158481000D01*
X126692000Y-158524000D01*
X126710000Y-158567000D01*
X126726000Y-158612000D01*
X126739000Y-158657000D01*
X126750000Y-158703000D01*
X126759000Y-158749000D01*
X126765000Y-158796000D01*
X126769000Y-158843000D01*
X126770000Y-158890000D01*
X126770000Y-161390000D01*
X124970000Y-161390000D01*
X124970000Y-158890000D01*
X124971000Y-158843000D01*
X124975000Y-158796000D01*
X124981000Y-158749000D01*
X124990000Y-158703000D01*
X125001000Y-158657000D01*
X125014000Y-158612000D01*
X125030000Y-158567000D01*
X125048000Y-158524000D01*
X125068000Y-158481000D01*
X125091000Y-158440000D01*
X125115000Y-158400000D01*
X125142000Y-158361000D01*
X125171000Y-158324000D01*
X125201000Y-158288000D01*
X125234000Y-158254000D01*
X125268000Y-158221000D01*
X125304000Y-158191000D01*
X125341000Y-158162000D01*
X125380000Y-158135000D01*
X125420000Y-158111000D01*
X125461000Y-158088000D01*
X125504000Y-158068000D01*
X125547000Y-158050000D01*
X125592000Y-158034000D01*
X125637000Y-158021000D01*
X125683000Y-158010000D01*
X125729000Y-158001000D01*
X125776000Y-157995000D01*
X125823000Y-157991000D01*
X125870000Y-157990000D01*
X125917000Y-157991000D01*
G37*
X128457000Y-157991000D02*
X128504000Y-157995000D01*
X128551000Y-158001000D01*
X128597000Y-158010000D01*
X128643000Y-158021000D01*
X128688000Y-158034000D01*
X128733000Y-158050000D01*
X128776000Y-158068000D01*
X128819000Y-158088000D01*
X128860000Y-158111000D01*
X128900000Y-158135000D01*
X128939000Y-158162000D01*
X128976000Y-158191000D01*
X129012000Y-158221000D01*
X129046000Y-158254000D01*
X129079000Y-158288000D01*
X129109000Y-158324000D01*
X129138000Y-158361000D01*
X129165000Y-158400000D01*
X129189000Y-158440000D01*
X129212000Y-158481000D01*
X129232000Y-158524000D01*
X129250000Y-158567000D01*
X129266000Y-158612000D01*
X129279000Y-158657000D01*
X129290000Y-158703000D01*
X129299000Y-158749000D01*
X129305000Y-158796000D01*
X129309000Y-158843000D01*
X129310000Y-158890000D01*
X129310000Y-161390000D01*
X127510000Y-161390000D01*
X127510000Y-158890000D01*
X127511000Y-158843000D01*
X127515000Y-158796000D01*
X127521000Y-158749000D01*
X127530000Y-158703000D01*
X127541000Y-158657000D01*
X127554000Y-158612000D01*
X127570000Y-158567000D01*
X127588000Y-158524000D01*
X127608000Y-158481000D01*
X127631000Y-158440000D01*
X127655000Y-158400000D01*
X127682000Y-158361000D01*
X127711000Y-158324000D01*
X127741000Y-158288000D01*
X127774000Y-158254000D01*
X127808000Y-158221000D01*
X127844000Y-158191000D01*
X127881000Y-158162000D01*
X127920000Y-158135000D01*
X127960000Y-158111000D01*
X128001000Y-158088000D01*
X128044000Y-158068000D01*
X128087000Y-158050000D01*
X128132000Y-158034000D01*
X128177000Y-158021000D01*
X128223000Y-158010000D01*
X128269000Y-158001000D01*
X128316000Y-157995000D01*
X128363000Y-157991000D01*
X128410000Y-157990000D01*
X128457000Y-157991000D01*
G36*
X128457000Y-157991000D02*
G01*
X128504000Y-157995000D01*
X128551000Y-158001000D01*
X128597000Y-158010000D01*
X128643000Y-158021000D01*
X128688000Y-158034000D01*
X128733000Y-158050000D01*
X128776000Y-158068000D01*
X128819000Y-158088000D01*
X128860000Y-158111000D01*
X128900000Y-158135000D01*
X128939000Y-158162000D01*
X128976000Y-158191000D01*
X129012000Y-158221000D01*
X129046000Y-158254000D01*
X129079000Y-158288000D01*
X129109000Y-158324000D01*
X129138000Y-158361000D01*
X129165000Y-158400000D01*
X129189000Y-158440000D01*
X129212000Y-158481000D01*
X129232000Y-158524000D01*
X129250000Y-158567000D01*
X129266000Y-158612000D01*
X129279000Y-158657000D01*
X129290000Y-158703000D01*
X129299000Y-158749000D01*
X129305000Y-158796000D01*
X129309000Y-158843000D01*
X129310000Y-158890000D01*
X129310000Y-161390000D01*
X127510000Y-161390000D01*
X127510000Y-158890000D01*
X127511000Y-158843000D01*
X127515000Y-158796000D01*
X127521000Y-158749000D01*
X127530000Y-158703000D01*
X127541000Y-158657000D01*
X127554000Y-158612000D01*
X127570000Y-158567000D01*
X127588000Y-158524000D01*
X127608000Y-158481000D01*
X127631000Y-158440000D01*
X127655000Y-158400000D01*
X127682000Y-158361000D01*
X127711000Y-158324000D01*
X127741000Y-158288000D01*
X127774000Y-158254000D01*
X127808000Y-158221000D01*
X127844000Y-158191000D01*
X127881000Y-158162000D01*
X127920000Y-158135000D01*
X127960000Y-158111000D01*
X128001000Y-158088000D01*
X128044000Y-158068000D01*
X128087000Y-158050000D01*
X128132000Y-158034000D01*
X128177000Y-158021000D01*
X128223000Y-158010000D01*
X128269000Y-158001000D01*
X128316000Y-157995000D01*
X128363000Y-157991000D01*
X128410000Y-157990000D01*
X128457000Y-157991000D01*
G37*
X133537000Y-157991000D02*
X133584000Y-157995000D01*
X133631000Y-158001000D01*
X133677000Y-158010000D01*
X133723000Y-158021000D01*
X133768000Y-158034000D01*
X133813000Y-158050000D01*
X133856000Y-158068000D01*
X133899000Y-158088000D01*
X133940000Y-158111000D01*
X133980000Y-158135000D01*
X134019000Y-158162000D01*
X134056000Y-158191000D01*
X134092000Y-158221000D01*
X134126000Y-158254000D01*
X134159000Y-158288000D01*
X134189000Y-158324000D01*
X134218000Y-158361000D01*
X134245000Y-158400000D01*
X134269000Y-158440000D01*
X134292000Y-158481000D01*
X134312000Y-158524000D01*
X134330000Y-158567000D01*
X134346000Y-158612000D01*
X134359000Y-158657000D01*
X134370000Y-158703000D01*
X134379000Y-158749000D01*
X134385000Y-158796000D01*
X134389000Y-158843000D01*
X134390000Y-158890000D01*
X134390000Y-161390000D01*
X132590000Y-161390000D01*
X132590000Y-158890000D01*
X132591000Y-158843000D01*
X132595000Y-158796000D01*
X132601000Y-158749000D01*
X132610000Y-158703000D01*
X132621000Y-158657000D01*
X132634000Y-158612000D01*
X132650000Y-158567000D01*
X132668000Y-158524000D01*
X132688000Y-158481000D01*
X132711000Y-158440000D01*
X132735000Y-158400000D01*
X132762000Y-158361000D01*
X132791000Y-158324000D01*
X132821000Y-158288000D01*
X132854000Y-158254000D01*
X132888000Y-158221000D01*
X132924000Y-158191000D01*
X132961000Y-158162000D01*
X133000000Y-158135000D01*
X133040000Y-158111000D01*
X133081000Y-158088000D01*
X133124000Y-158068000D01*
X133167000Y-158050000D01*
X133212000Y-158034000D01*
X133257000Y-158021000D01*
X133303000Y-158010000D01*
X133349000Y-158001000D01*
X133396000Y-157995000D01*
X133443000Y-157991000D01*
X133490000Y-157990000D01*
X133537000Y-157991000D01*
G36*
X133537000Y-157991000D02*
G01*
X133584000Y-157995000D01*
X133631000Y-158001000D01*
X133677000Y-158010000D01*
X133723000Y-158021000D01*
X133768000Y-158034000D01*
X133813000Y-158050000D01*
X133856000Y-158068000D01*
X133899000Y-158088000D01*
X133940000Y-158111000D01*
X133980000Y-158135000D01*
X134019000Y-158162000D01*
X134056000Y-158191000D01*
X134092000Y-158221000D01*
X134126000Y-158254000D01*
X134159000Y-158288000D01*
X134189000Y-158324000D01*
X134218000Y-158361000D01*
X134245000Y-158400000D01*
X134269000Y-158440000D01*
X134292000Y-158481000D01*
X134312000Y-158524000D01*
X134330000Y-158567000D01*
X134346000Y-158612000D01*
X134359000Y-158657000D01*
X134370000Y-158703000D01*
X134379000Y-158749000D01*
X134385000Y-158796000D01*
X134389000Y-158843000D01*
X134390000Y-158890000D01*
X134390000Y-161390000D01*
X132590000Y-161390000D01*
X132590000Y-158890000D01*
X132591000Y-158843000D01*
X132595000Y-158796000D01*
X132601000Y-158749000D01*
X132610000Y-158703000D01*
X132621000Y-158657000D01*
X132634000Y-158612000D01*
X132650000Y-158567000D01*
X132668000Y-158524000D01*
X132688000Y-158481000D01*
X132711000Y-158440000D01*
X132735000Y-158400000D01*
X132762000Y-158361000D01*
X132791000Y-158324000D01*
X132821000Y-158288000D01*
X132854000Y-158254000D01*
X132888000Y-158221000D01*
X132924000Y-158191000D01*
X132961000Y-158162000D01*
X133000000Y-158135000D01*
X133040000Y-158111000D01*
X133081000Y-158088000D01*
X133124000Y-158068000D01*
X133167000Y-158050000D01*
X133212000Y-158034000D01*
X133257000Y-158021000D01*
X133303000Y-158010000D01*
X133349000Y-158001000D01*
X133396000Y-157995000D01*
X133443000Y-157991000D01*
X133490000Y-157990000D01*
X133537000Y-157991000D01*
G37*
X136077000Y-157991000D02*
X136124000Y-157995000D01*
X136171000Y-158001000D01*
X136217000Y-158010000D01*
X136263000Y-158021000D01*
X136308000Y-158034000D01*
X136353000Y-158050000D01*
X136396000Y-158068000D01*
X136439000Y-158088000D01*
X136480000Y-158111000D01*
X136520000Y-158135000D01*
X136559000Y-158162000D01*
X136596000Y-158191000D01*
X136632000Y-158221000D01*
X136666000Y-158254000D01*
X136699000Y-158288000D01*
X136729000Y-158324000D01*
X136758000Y-158361000D01*
X136785000Y-158400000D01*
X136809000Y-158440000D01*
X136832000Y-158481000D01*
X136852000Y-158524000D01*
X136870000Y-158567000D01*
X136886000Y-158612000D01*
X136899000Y-158657000D01*
X136910000Y-158703000D01*
X136919000Y-158749000D01*
X136925000Y-158796000D01*
X136929000Y-158843000D01*
X136930000Y-158890000D01*
X136930000Y-161390000D01*
X135130000Y-161390000D01*
X135130000Y-158890000D01*
X135131000Y-158843000D01*
X135135000Y-158796000D01*
X135141000Y-158749000D01*
X135150000Y-158703000D01*
X135161000Y-158657000D01*
X135174000Y-158612000D01*
X135190000Y-158567000D01*
X135208000Y-158524000D01*
X135228000Y-158481000D01*
X135251000Y-158440000D01*
X135275000Y-158400000D01*
X135302000Y-158361000D01*
X135331000Y-158324000D01*
X135361000Y-158288000D01*
X135394000Y-158254000D01*
X135428000Y-158221000D01*
X135464000Y-158191000D01*
X135501000Y-158162000D01*
X135540000Y-158135000D01*
X135580000Y-158111000D01*
X135621000Y-158088000D01*
X135664000Y-158068000D01*
X135707000Y-158050000D01*
X135752000Y-158034000D01*
X135797000Y-158021000D01*
X135843000Y-158010000D01*
X135889000Y-158001000D01*
X135936000Y-157995000D01*
X135983000Y-157991000D01*
X136030000Y-157990000D01*
X136077000Y-157991000D01*
G36*
X136077000Y-157991000D02*
G01*
X136124000Y-157995000D01*
X136171000Y-158001000D01*
X136217000Y-158010000D01*
X136263000Y-158021000D01*
X136308000Y-158034000D01*
X136353000Y-158050000D01*
X136396000Y-158068000D01*
X136439000Y-158088000D01*
X136480000Y-158111000D01*
X136520000Y-158135000D01*
X136559000Y-158162000D01*
X136596000Y-158191000D01*
X136632000Y-158221000D01*
X136666000Y-158254000D01*
X136699000Y-158288000D01*
X136729000Y-158324000D01*
X136758000Y-158361000D01*
X136785000Y-158400000D01*
X136809000Y-158440000D01*
X136832000Y-158481000D01*
X136852000Y-158524000D01*
X136870000Y-158567000D01*
X136886000Y-158612000D01*
X136899000Y-158657000D01*
X136910000Y-158703000D01*
X136919000Y-158749000D01*
X136925000Y-158796000D01*
X136929000Y-158843000D01*
X136930000Y-158890000D01*
X136930000Y-161390000D01*
X135130000Y-161390000D01*
X135130000Y-158890000D01*
X135131000Y-158843000D01*
X135135000Y-158796000D01*
X135141000Y-158749000D01*
X135150000Y-158703000D01*
X135161000Y-158657000D01*
X135174000Y-158612000D01*
X135190000Y-158567000D01*
X135208000Y-158524000D01*
X135228000Y-158481000D01*
X135251000Y-158440000D01*
X135275000Y-158400000D01*
X135302000Y-158361000D01*
X135331000Y-158324000D01*
X135361000Y-158288000D01*
X135394000Y-158254000D01*
X135428000Y-158221000D01*
X135464000Y-158191000D01*
X135501000Y-158162000D01*
X135540000Y-158135000D01*
X135580000Y-158111000D01*
X135621000Y-158088000D01*
X135664000Y-158068000D01*
X135707000Y-158050000D01*
X135752000Y-158034000D01*
X135797000Y-158021000D01*
X135843000Y-158010000D01*
X135889000Y-158001000D01*
X135936000Y-157995000D01*
X135983000Y-157991000D01*
X136030000Y-157990000D01*
X136077000Y-157991000D01*
G37*
X138617000Y-157991000D02*
X138664000Y-157995000D01*
X138711000Y-158001000D01*
X138757000Y-158010000D01*
X138803000Y-158021000D01*
X138848000Y-158034000D01*
X138893000Y-158050000D01*
X138936000Y-158068000D01*
X138979000Y-158088000D01*
X139020000Y-158111000D01*
X139060000Y-158135000D01*
X139099000Y-158162000D01*
X139136000Y-158191000D01*
X139172000Y-158221000D01*
X139206000Y-158254000D01*
X139239000Y-158288000D01*
X139269000Y-158324000D01*
X139298000Y-158361000D01*
X139325000Y-158400000D01*
X139349000Y-158440000D01*
X139372000Y-158481000D01*
X139392000Y-158524000D01*
X139410000Y-158567000D01*
X139426000Y-158612000D01*
X139439000Y-158657000D01*
X139450000Y-158703000D01*
X139459000Y-158749000D01*
X139465000Y-158796000D01*
X139469000Y-158843000D01*
X139470000Y-158890000D01*
X139470000Y-161390000D01*
X137670000Y-161390000D01*
X137670000Y-158890000D01*
X137671000Y-158843000D01*
X137675000Y-158796000D01*
X137681000Y-158749000D01*
X137690000Y-158703000D01*
X137701000Y-158657000D01*
X137714000Y-158612000D01*
X137730000Y-158567000D01*
X137748000Y-158524000D01*
X137768000Y-158481000D01*
X137791000Y-158440000D01*
X137815000Y-158400000D01*
X137842000Y-158361000D01*
X137871000Y-158324000D01*
X137901000Y-158288000D01*
X137934000Y-158254000D01*
X137968000Y-158221000D01*
X138004000Y-158191000D01*
X138041000Y-158162000D01*
X138080000Y-158135000D01*
X138120000Y-158111000D01*
X138161000Y-158088000D01*
X138204000Y-158068000D01*
X138247000Y-158050000D01*
X138292000Y-158034000D01*
X138337000Y-158021000D01*
X138383000Y-158010000D01*
X138429000Y-158001000D01*
X138476000Y-157995000D01*
X138523000Y-157991000D01*
X138570000Y-157990000D01*
X138617000Y-157991000D01*
G36*
X138617000Y-157991000D02*
G01*
X138664000Y-157995000D01*
X138711000Y-158001000D01*
X138757000Y-158010000D01*
X138803000Y-158021000D01*
X138848000Y-158034000D01*
X138893000Y-158050000D01*
X138936000Y-158068000D01*
X138979000Y-158088000D01*
X139020000Y-158111000D01*
X139060000Y-158135000D01*
X139099000Y-158162000D01*
X139136000Y-158191000D01*
X139172000Y-158221000D01*
X139206000Y-158254000D01*
X139239000Y-158288000D01*
X139269000Y-158324000D01*
X139298000Y-158361000D01*
X139325000Y-158400000D01*
X139349000Y-158440000D01*
X139372000Y-158481000D01*
X139392000Y-158524000D01*
X139410000Y-158567000D01*
X139426000Y-158612000D01*
X139439000Y-158657000D01*
X139450000Y-158703000D01*
X139459000Y-158749000D01*
X139465000Y-158796000D01*
X139469000Y-158843000D01*
X139470000Y-158890000D01*
X139470000Y-161390000D01*
X137670000Y-161390000D01*
X137670000Y-158890000D01*
X137671000Y-158843000D01*
X137675000Y-158796000D01*
X137681000Y-158749000D01*
X137690000Y-158703000D01*
X137701000Y-158657000D01*
X137714000Y-158612000D01*
X137730000Y-158567000D01*
X137748000Y-158524000D01*
X137768000Y-158481000D01*
X137791000Y-158440000D01*
X137815000Y-158400000D01*
X137842000Y-158361000D01*
X137871000Y-158324000D01*
X137901000Y-158288000D01*
X137934000Y-158254000D01*
X137968000Y-158221000D01*
X138004000Y-158191000D01*
X138041000Y-158162000D01*
X138080000Y-158135000D01*
X138120000Y-158111000D01*
X138161000Y-158088000D01*
X138204000Y-158068000D01*
X138247000Y-158050000D01*
X138292000Y-158034000D01*
X138337000Y-158021000D01*
X138383000Y-158010000D01*
X138429000Y-158001000D01*
X138476000Y-157995000D01*
X138523000Y-157991000D01*
X138570000Y-157990000D01*
X138617000Y-157991000D01*
G37*
X141157000Y-157991000D02*
X141204000Y-157995000D01*
X141251000Y-158001000D01*
X141297000Y-158010000D01*
X141343000Y-158021000D01*
X141388000Y-158034000D01*
X141433000Y-158050000D01*
X141476000Y-158068000D01*
X141519000Y-158088000D01*
X141560000Y-158111000D01*
X141600000Y-158135000D01*
X141639000Y-158162000D01*
X141676000Y-158191000D01*
X141712000Y-158221000D01*
X141746000Y-158254000D01*
X141779000Y-158288000D01*
X141809000Y-158324000D01*
X141838000Y-158361000D01*
X141865000Y-158400000D01*
X141889000Y-158440000D01*
X141912000Y-158481000D01*
X141932000Y-158524000D01*
X141950000Y-158567000D01*
X141966000Y-158612000D01*
X141979000Y-158657000D01*
X141990000Y-158703000D01*
X141999000Y-158749000D01*
X142005000Y-158796000D01*
X142009000Y-158843000D01*
X142010000Y-158890000D01*
X142010000Y-161390000D01*
X140210000Y-161390000D01*
X140210000Y-158890000D01*
X140211000Y-158843000D01*
X140215000Y-158796000D01*
X140221000Y-158749000D01*
X140230000Y-158703000D01*
X140241000Y-158657000D01*
X140254000Y-158612000D01*
X140270000Y-158567000D01*
X140288000Y-158524000D01*
X140308000Y-158481000D01*
X140331000Y-158440000D01*
X140355000Y-158400000D01*
X140382000Y-158361000D01*
X140411000Y-158324000D01*
X140441000Y-158288000D01*
X140474000Y-158254000D01*
X140508000Y-158221000D01*
X140544000Y-158191000D01*
X140581000Y-158162000D01*
X140620000Y-158135000D01*
X140660000Y-158111000D01*
X140701000Y-158088000D01*
X140744000Y-158068000D01*
X140787000Y-158050000D01*
X140832000Y-158034000D01*
X140877000Y-158021000D01*
X140923000Y-158010000D01*
X140969000Y-158001000D01*
X141016000Y-157995000D01*
X141063000Y-157991000D01*
X141110000Y-157990000D01*
X141157000Y-157991000D01*
G36*
X141157000Y-157991000D02*
G01*
X141204000Y-157995000D01*
X141251000Y-158001000D01*
X141297000Y-158010000D01*
X141343000Y-158021000D01*
X141388000Y-158034000D01*
X141433000Y-158050000D01*
X141476000Y-158068000D01*
X141519000Y-158088000D01*
X141560000Y-158111000D01*
X141600000Y-158135000D01*
X141639000Y-158162000D01*
X141676000Y-158191000D01*
X141712000Y-158221000D01*
X141746000Y-158254000D01*
X141779000Y-158288000D01*
X141809000Y-158324000D01*
X141838000Y-158361000D01*
X141865000Y-158400000D01*
X141889000Y-158440000D01*
X141912000Y-158481000D01*
X141932000Y-158524000D01*
X141950000Y-158567000D01*
X141966000Y-158612000D01*
X141979000Y-158657000D01*
X141990000Y-158703000D01*
X141999000Y-158749000D01*
X142005000Y-158796000D01*
X142009000Y-158843000D01*
X142010000Y-158890000D01*
X142010000Y-161390000D01*
X140210000Y-161390000D01*
X140210000Y-158890000D01*
X140211000Y-158843000D01*
X140215000Y-158796000D01*
X140221000Y-158749000D01*
X140230000Y-158703000D01*
X140241000Y-158657000D01*
X140254000Y-158612000D01*
X140270000Y-158567000D01*
X140288000Y-158524000D01*
X140308000Y-158481000D01*
X140331000Y-158440000D01*
X140355000Y-158400000D01*
X140382000Y-158361000D01*
X140411000Y-158324000D01*
X140441000Y-158288000D01*
X140474000Y-158254000D01*
X140508000Y-158221000D01*
X140544000Y-158191000D01*
X140581000Y-158162000D01*
X140620000Y-158135000D01*
X140660000Y-158111000D01*
X140701000Y-158088000D01*
X140744000Y-158068000D01*
X140787000Y-158050000D01*
X140832000Y-158034000D01*
X140877000Y-158021000D01*
X140923000Y-158010000D01*
X140969000Y-158001000D01*
X141016000Y-157995000D01*
X141063000Y-157991000D01*
X141110000Y-157990000D01*
X141157000Y-157991000D01*
G37*
X146237000Y-157991000D02*
X146284000Y-157995000D01*
X146331000Y-158001000D01*
X146377000Y-158010000D01*
X146423000Y-158021000D01*
X146468000Y-158034000D01*
X146513000Y-158050000D01*
X146556000Y-158068000D01*
X146599000Y-158088000D01*
X146640000Y-158111000D01*
X146680000Y-158135000D01*
X146719000Y-158162000D01*
X146756000Y-158191000D01*
X146792000Y-158221000D01*
X146826000Y-158254000D01*
X146859000Y-158288000D01*
X146889000Y-158324000D01*
X146918000Y-158361000D01*
X146945000Y-158400000D01*
X146969000Y-158440000D01*
X146992000Y-158481000D01*
X147012000Y-158524000D01*
X147030000Y-158567000D01*
X147046000Y-158612000D01*
X147059000Y-158657000D01*
X147070000Y-158703000D01*
X147079000Y-158749000D01*
X147085000Y-158796000D01*
X147089000Y-158843000D01*
X147090000Y-158890000D01*
X147090000Y-161390000D01*
X145290000Y-161390000D01*
X145290000Y-158890000D01*
X145291000Y-158843000D01*
X145295000Y-158796000D01*
X145301000Y-158749000D01*
X145310000Y-158703000D01*
X145321000Y-158657000D01*
X145334000Y-158612000D01*
X145350000Y-158567000D01*
X145368000Y-158524000D01*
X145388000Y-158481000D01*
X145411000Y-158440000D01*
X145435000Y-158400000D01*
X145462000Y-158361000D01*
X145491000Y-158324000D01*
X145521000Y-158288000D01*
X145554000Y-158254000D01*
X145588000Y-158221000D01*
X145624000Y-158191000D01*
X145661000Y-158162000D01*
X145700000Y-158135000D01*
X145740000Y-158111000D01*
X145781000Y-158088000D01*
X145824000Y-158068000D01*
X145867000Y-158050000D01*
X145912000Y-158034000D01*
X145957000Y-158021000D01*
X146003000Y-158010000D01*
X146049000Y-158001000D01*
X146096000Y-157995000D01*
X146143000Y-157991000D01*
X146190000Y-157990000D01*
X146237000Y-157991000D01*
G36*
X146237000Y-157991000D02*
G01*
X146284000Y-157995000D01*
X146331000Y-158001000D01*
X146377000Y-158010000D01*
X146423000Y-158021000D01*
X146468000Y-158034000D01*
X146513000Y-158050000D01*
X146556000Y-158068000D01*
X146599000Y-158088000D01*
X146640000Y-158111000D01*
X146680000Y-158135000D01*
X146719000Y-158162000D01*
X146756000Y-158191000D01*
X146792000Y-158221000D01*
X146826000Y-158254000D01*
X146859000Y-158288000D01*
X146889000Y-158324000D01*
X146918000Y-158361000D01*
X146945000Y-158400000D01*
X146969000Y-158440000D01*
X146992000Y-158481000D01*
X147012000Y-158524000D01*
X147030000Y-158567000D01*
X147046000Y-158612000D01*
X147059000Y-158657000D01*
X147070000Y-158703000D01*
X147079000Y-158749000D01*
X147085000Y-158796000D01*
X147089000Y-158843000D01*
X147090000Y-158890000D01*
X147090000Y-161390000D01*
X145290000Y-161390000D01*
X145290000Y-158890000D01*
X145291000Y-158843000D01*
X145295000Y-158796000D01*
X145301000Y-158749000D01*
X145310000Y-158703000D01*
X145321000Y-158657000D01*
X145334000Y-158612000D01*
X145350000Y-158567000D01*
X145368000Y-158524000D01*
X145388000Y-158481000D01*
X145411000Y-158440000D01*
X145435000Y-158400000D01*
X145462000Y-158361000D01*
X145491000Y-158324000D01*
X145521000Y-158288000D01*
X145554000Y-158254000D01*
X145588000Y-158221000D01*
X145624000Y-158191000D01*
X145661000Y-158162000D01*
X145700000Y-158135000D01*
X145740000Y-158111000D01*
X145781000Y-158088000D01*
X145824000Y-158068000D01*
X145867000Y-158050000D01*
X145912000Y-158034000D01*
X145957000Y-158021000D01*
X146003000Y-158010000D01*
X146049000Y-158001000D01*
X146096000Y-157995000D01*
X146143000Y-157991000D01*
X146190000Y-157990000D01*
X146237000Y-157991000D01*
G37*
X148777000Y-157991000D02*
X148824000Y-157995000D01*
X148871000Y-158001000D01*
X148917000Y-158010000D01*
X148963000Y-158021000D01*
X149008000Y-158034000D01*
X149053000Y-158050000D01*
X149096000Y-158068000D01*
X149139000Y-158088000D01*
X149180000Y-158111000D01*
X149220000Y-158135000D01*
X149259000Y-158162000D01*
X149296000Y-158191000D01*
X149332000Y-158221000D01*
X149366000Y-158254000D01*
X149399000Y-158288000D01*
X149429000Y-158324000D01*
X149458000Y-158361000D01*
X149485000Y-158400000D01*
X149509000Y-158440000D01*
X149532000Y-158481000D01*
X149552000Y-158524000D01*
X149570000Y-158567000D01*
X149586000Y-158612000D01*
X149599000Y-158657000D01*
X149610000Y-158703000D01*
X149619000Y-158749000D01*
X149625000Y-158796000D01*
X149629000Y-158843000D01*
X149630000Y-158890000D01*
X149630000Y-161390000D01*
X147830000Y-161390000D01*
X147830000Y-158890000D01*
X147831000Y-158843000D01*
X147835000Y-158796000D01*
X147841000Y-158749000D01*
X147850000Y-158703000D01*
X147861000Y-158657000D01*
X147874000Y-158612000D01*
X147890000Y-158567000D01*
X147908000Y-158524000D01*
X147928000Y-158481000D01*
X147951000Y-158440000D01*
X147975000Y-158400000D01*
X148002000Y-158361000D01*
X148031000Y-158324000D01*
X148061000Y-158288000D01*
X148094000Y-158254000D01*
X148128000Y-158221000D01*
X148164000Y-158191000D01*
X148201000Y-158162000D01*
X148240000Y-158135000D01*
X148280000Y-158111000D01*
X148321000Y-158088000D01*
X148364000Y-158068000D01*
X148407000Y-158050000D01*
X148452000Y-158034000D01*
X148497000Y-158021000D01*
X148543000Y-158010000D01*
X148589000Y-158001000D01*
X148636000Y-157995000D01*
X148683000Y-157991000D01*
X148730000Y-157990000D01*
X148777000Y-157991000D01*
G36*
X148777000Y-157991000D02*
G01*
X148824000Y-157995000D01*
X148871000Y-158001000D01*
X148917000Y-158010000D01*
X148963000Y-158021000D01*
X149008000Y-158034000D01*
X149053000Y-158050000D01*
X149096000Y-158068000D01*
X149139000Y-158088000D01*
X149180000Y-158111000D01*
X149220000Y-158135000D01*
X149259000Y-158162000D01*
X149296000Y-158191000D01*
X149332000Y-158221000D01*
X149366000Y-158254000D01*
X149399000Y-158288000D01*
X149429000Y-158324000D01*
X149458000Y-158361000D01*
X149485000Y-158400000D01*
X149509000Y-158440000D01*
X149532000Y-158481000D01*
X149552000Y-158524000D01*
X149570000Y-158567000D01*
X149586000Y-158612000D01*
X149599000Y-158657000D01*
X149610000Y-158703000D01*
X149619000Y-158749000D01*
X149625000Y-158796000D01*
X149629000Y-158843000D01*
X149630000Y-158890000D01*
X149630000Y-161390000D01*
X147830000Y-161390000D01*
X147830000Y-158890000D01*
X147831000Y-158843000D01*
X147835000Y-158796000D01*
X147841000Y-158749000D01*
X147850000Y-158703000D01*
X147861000Y-158657000D01*
X147874000Y-158612000D01*
X147890000Y-158567000D01*
X147908000Y-158524000D01*
X147928000Y-158481000D01*
X147951000Y-158440000D01*
X147975000Y-158400000D01*
X148002000Y-158361000D01*
X148031000Y-158324000D01*
X148061000Y-158288000D01*
X148094000Y-158254000D01*
X148128000Y-158221000D01*
X148164000Y-158191000D01*
X148201000Y-158162000D01*
X148240000Y-158135000D01*
X148280000Y-158111000D01*
X148321000Y-158088000D01*
X148364000Y-158068000D01*
X148407000Y-158050000D01*
X148452000Y-158034000D01*
X148497000Y-158021000D01*
X148543000Y-158010000D01*
X148589000Y-158001000D01*
X148636000Y-157995000D01*
X148683000Y-157991000D01*
X148730000Y-157990000D01*
X148777000Y-157991000D01*
G37*
X151317000Y-157991000D02*
X151364000Y-157995000D01*
X151411000Y-158001000D01*
X151457000Y-158010000D01*
X151503000Y-158021000D01*
X151548000Y-158034000D01*
X151593000Y-158050000D01*
X151636000Y-158068000D01*
X151679000Y-158088000D01*
X151720000Y-158111000D01*
X151760000Y-158135000D01*
X151799000Y-158162000D01*
X151836000Y-158191000D01*
X151872000Y-158221000D01*
X151906000Y-158254000D01*
X151939000Y-158288000D01*
X151969000Y-158324000D01*
X151998000Y-158361000D01*
X152025000Y-158400000D01*
X152049000Y-158440000D01*
X152072000Y-158481000D01*
X152092000Y-158524000D01*
X152110000Y-158567000D01*
X152126000Y-158612000D01*
X152139000Y-158657000D01*
X152150000Y-158703000D01*
X152159000Y-158749000D01*
X152165000Y-158796000D01*
X152169000Y-158843000D01*
X152170000Y-158890000D01*
X152170000Y-161390000D01*
X150370000Y-161390000D01*
X150370000Y-158890000D01*
X150371000Y-158843000D01*
X150375000Y-158796000D01*
X150381000Y-158749000D01*
X150390000Y-158703000D01*
X150401000Y-158657000D01*
X150414000Y-158612000D01*
X150430000Y-158567000D01*
X150448000Y-158524000D01*
X150468000Y-158481000D01*
X150491000Y-158440000D01*
X150515000Y-158400000D01*
X150542000Y-158361000D01*
X150571000Y-158324000D01*
X150601000Y-158288000D01*
X150634000Y-158254000D01*
X150668000Y-158221000D01*
X150704000Y-158191000D01*
X150741000Y-158162000D01*
X150780000Y-158135000D01*
X150820000Y-158111000D01*
X150861000Y-158088000D01*
X150904000Y-158068000D01*
X150947000Y-158050000D01*
X150992000Y-158034000D01*
X151037000Y-158021000D01*
X151083000Y-158010000D01*
X151129000Y-158001000D01*
X151176000Y-157995000D01*
X151223000Y-157991000D01*
X151270000Y-157990000D01*
X151317000Y-157991000D01*
G36*
X151317000Y-157991000D02*
G01*
X151364000Y-157995000D01*
X151411000Y-158001000D01*
X151457000Y-158010000D01*
X151503000Y-158021000D01*
X151548000Y-158034000D01*
X151593000Y-158050000D01*
X151636000Y-158068000D01*
X151679000Y-158088000D01*
X151720000Y-158111000D01*
X151760000Y-158135000D01*
X151799000Y-158162000D01*
X151836000Y-158191000D01*
X151872000Y-158221000D01*
X151906000Y-158254000D01*
X151939000Y-158288000D01*
X151969000Y-158324000D01*
X151998000Y-158361000D01*
X152025000Y-158400000D01*
X152049000Y-158440000D01*
X152072000Y-158481000D01*
X152092000Y-158524000D01*
X152110000Y-158567000D01*
X152126000Y-158612000D01*
X152139000Y-158657000D01*
X152150000Y-158703000D01*
X152159000Y-158749000D01*
X152165000Y-158796000D01*
X152169000Y-158843000D01*
X152170000Y-158890000D01*
X152170000Y-161390000D01*
X150370000Y-161390000D01*
X150370000Y-158890000D01*
X150371000Y-158843000D01*
X150375000Y-158796000D01*
X150381000Y-158749000D01*
X150390000Y-158703000D01*
X150401000Y-158657000D01*
X150414000Y-158612000D01*
X150430000Y-158567000D01*
X150448000Y-158524000D01*
X150468000Y-158481000D01*
X150491000Y-158440000D01*
X150515000Y-158400000D01*
X150542000Y-158361000D01*
X150571000Y-158324000D01*
X150601000Y-158288000D01*
X150634000Y-158254000D01*
X150668000Y-158221000D01*
X150704000Y-158191000D01*
X150741000Y-158162000D01*
X150780000Y-158135000D01*
X150820000Y-158111000D01*
X150861000Y-158088000D01*
X150904000Y-158068000D01*
X150947000Y-158050000D01*
X150992000Y-158034000D01*
X151037000Y-158021000D01*
X151083000Y-158010000D01*
X151129000Y-158001000D01*
X151176000Y-157995000D01*
X151223000Y-157991000D01*
X151270000Y-157990000D01*
X151317000Y-157991000D01*
G37*
X153857000Y-157991000D02*
X153904000Y-157995000D01*
X153951000Y-158001000D01*
X153997000Y-158010000D01*
X154043000Y-158021000D01*
X154088000Y-158034000D01*
X154133000Y-158050000D01*
X154176000Y-158068000D01*
X154219000Y-158088000D01*
X154260000Y-158111000D01*
X154300000Y-158135000D01*
X154339000Y-158162000D01*
X154376000Y-158191000D01*
X154412000Y-158221000D01*
X154446000Y-158254000D01*
X154479000Y-158288000D01*
X154509000Y-158324000D01*
X154538000Y-158361000D01*
X154565000Y-158400000D01*
X154589000Y-158440000D01*
X154612000Y-158481000D01*
X154632000Y-158524000D01*
X154650000Y-158567000D01*
X154666000Y-158612000D01*
X154679000Y-158657000D01*
X154690000Y-158703000D01*
X154699000Y-158749000D01*
X154705000Y-158796000D01*
X154709000Y-158843000D01*
X154710000Y-158890000D01*
X154710000Y-161390000D01*
X152910000Y-161390000D01*
X152910000Y-158890000D01*
X152911000Y-158843000D01*
X152915000Y-158796000D01*
X152921000Y-158749000D01*
X152930000Y-158703000D01*
X152941000Y-158657000D01*
X152954000Y-158612000D01*
X152970000Y-158567000D01*
X152988000Y-158524000D01*
X153008000Y-158481000D01*
X153031000Y-158440000D01*
X153055000Y-158400000D01*
X153082000Y-158361000D01*
X153111000Y-158324000D01*
X153141000Y-158288000D01*
X153174000Y-158254000D01*
X153208000Y-158221000D01*
X153244000Y-158191000D01*
X153281000Y-158162000D01*
X153320000Y-158135000D01*
X153360000Y-158111000D01*
X153401000Y-158088000D01*
X153444000Y-158068000D01*
X153487000Y-158050000D01*
X153532000Y-158034000D01*
X153577000Y-158021000D01*
X153623000Y-158010000D01*
X153669000Y-158001000D01*
X153716000Y-157995000D01*
X153763000Y-157991000D01*
X153810000Y-157990000D01*
X153857000Y-157991000D01*
G36*
X153857000Y-157991000D02*
G01*
X153904000Y-157995000D01*
X153951000Y-158001000D01*
X153997000Y-158010000D01*
X154043000Y-158021000D01*
X154088000Y-158034000D01*
X154133000Y-158050000D01*
X154176000Y-158068000D01*
X154219000Y-158088000D01*
X154260000Y-158111000D01*
X154300000Y-158135000D01*
X154339000Y-158162000D01*
X154376000Y-158191000D01*
X154412000Y-158221000D01*
X154446000Y-158254000D01*
X154479000Y-158288000D01*
X154509000Y-158324000D01*
X154538000Y-158361000D01*
X154565000Y-158400000D01*
X154589000Y-158440000D01*
X154612000Y-158481000D01*
X154632000Y-158524000D01*
X154650000Y-158567000D01*
X154666000Y-158612000D01*
X154679000Y-158657000D01*
X154690000Y-158703000D01*
X154699000Y-158749000D01*
X154705000Y-158796000D01*
X154709000Y-158843000D01*
X154710000Y-158890000D01*
X154710000Y-161390000D01*
X152910000Y-161390000D01*
X152910000Y-158890000D01*
X152911000Y-158843000D01*
X152915000Y-158796000D01*
X152921000Y-158749000D01*
X152930000Y-158703000D01*
X152941000Y-158657000D01*
X152954000Y-158612000D01*
X152970000Y-158567000D01*
X152988000Y-158524000D01*
X153008000Y-158481000D01*
X153031000Y-158440000D01*
X153055000Y-158400000D01*
X153082000Y-158361000D01*
X153111000Y-158324000D01*
X153141000Y-158288000D01*
X153174000Y-158254000D01*
X153208000Y-158221000D01*
X153244000Y-158191000D01*
X153281000Y-158162000D01*
X153320000Y-158135000D01*
X153360000Y-158111000D01*
X153401000Y-158088000D01*
X153444000Y-158068000D01*
X153487000Y-158050000D01*
X153532000Y-158034000D01*
X153577000Y-158021000D01*
X153623000Y-158010000D01*
X153669000Y-158001000D01*
X153716000Y-157995000D01*
X153763000Y-157991000D01*
X153810000Y-157990000D01*
X153857000Y-157991000D01*
G37*
X158937000Y-157991000D02*
X158984000Y-157995000D01*
X159031000Y-158001000D01*
X159077000Y-158010000D01*
X159123000Y-158021000D01*
X159168000Y-158034000D01*
X159213000Y-158050000D01*
X159256000Y-158068000D01*
X159299000Y-158088000D01*
X159340000Y-158111000D01*
X159380000Y-158135000D01*
X159419000Y-158162000D01*
X159456000Y-158191000D01*
X159492000Y-158221000D01*
X159526000Y-158254000D01*
X159559000Y-158288000D01*
X159589000Y-158324000D01*
X159618000Y-158361000D01*
X159645000Y-158400000D01*
X159669000Y-158440000D01*
X159692000Y-158481000D01*
X159712000Y-158524000D01*
X159730000Y-158567000D01*
X159746000Y-158612000D01*
X159759000Y-158657000D01*
X159770000Y-158703000D01*
X159779000Y-158749000D01*
X159785000Y-158796000D01*
X159789000Y-158843000D01*
X159790000Y-158890000D01*
X159790000Y-161390000D01*
X157990000Y-161390000D01*
X157990000Y-158890000D01*
X157991000Y-158843000D01*
X157995000Y-158796000D01*
X158001000Y-158749000D01*
X158010000Y-158703000D01*
X158021000Y-158657000D01*
X158034000Y-158612000D01*
X158050000Y-158567000D01*
X158068000Y-158524000D01*
X158088000Y-158481000D01*
X158111000Y-158440000D01*
X158135000Y-158400000D01*
X158162000Y-158361000D01*
X158191000Y-158324000D01*
X158221000Y-158288000D01*
X158254000Y-158254000D01*
X158288000Y-158221000D01*
X158324000Y-158191000D01*
X158361000Y-158162000D01*
X158400000Y-158135000D01*
X158440000Y-158111000D01*
X158481000Y-158088000D01*
X158524000Y-158068000D01*
X158567000Y-158050000D01*
X158612000Y-158034000D01*
X158657000Y-158021000D01*
X158703000Y-158010000D01*
X158749000Y-158001000D01*
X158796000Y-157995000D01*
X158843000Y-157991000D01*
X158890000Y-157990000D01*
X158937000Y-157991000D01*
G36*
X158937000Y-157991000D02*
G01*
X158984000Y-157995000D01*
X159031000Y-158001000D01*
X159077000Y-158010000D01*
X159123000Y-158021000D01*
X159168000Y-158034000D01*
X159213000Y-158050000D01*
X159256000Y-158068000D01*
X159299000Y-158088000D01*
X159340000Y-158111000D01*
X159380000Y-158135000D01*
X159419000Y-158162000D01*
X159456000Y-158191000D01*
X159492000Y-158221000D01*
X159526000Y-158254000D01*
X159559000Y-158288000D01*
X159589000Y-158324000D01*
X159618000Y-158361000D01*
X159645000Y-158400000D01*
X159669000Y-158440000D01*
X159692000Y-158481000D01*
X159712000Y-158524000D01*
X159730000Y-158567000D01*
X159746000Y-158612000D01*
X159759000Y-158657000D01*
X159770000Y-158703000D01*
X159779000Y-158749000D01*
X159785000Y-158796000D01*
X159789000Y-158843000D01*
X159790000Y-158890000D01*
X159790000Y-161390000D01*
X157990000Y-161390000D01*
X157990000Y-158890000D01*
X157991000Y-158843000D01*
X157995000Y-158796000D01*
X158001000Y-158749000D01*
X158010000Y-158703000D01*
X158021000Y-158657000D01*
X158034000Y-158612000D01*
X158050000Y-158567000D01*
X158068000Y-158524000D01*
X158088000Y-158481000D01*
X158111000Y-158440000D01*
X158135000Y-158400000D01*
X158162000Y-158361000D01*
X158191000Y-158324000D01*
X158221000Y-158288000D01*
X158254000Y-158254000D01*
X158288000Y-158221000D01*
X158324000Y-158191000D01*
X158361000Y-158162000D01*
X158400000Y-158135000D01*
X158440000Y-158111000D01*
X158481000Y-158088000D01*
X158524000Y-158068000D01*
X158567000Y-158050000D01*
X158612000Y-158034000D01*
X158657000Y-158021000D01*
X158703000Y-158010000D01*
X158749000Y-158001000D01*
X158796000Y-157995000D01*
X158843000Y-157991000D01*
X158890000Y-157990000D01*
X158937000Y-157991000D01*
G37*
X161477000Y-157991000D02*
X161524000Y-157995000D01*
X161571000Y-158001000D01*
X161617000Y-158010000D01*
X161663000Y-158021000D01*
X161708000Y-158034000D01*
X161753000Y-158050000D01*
X161796000Y-158068000D01*
X161839000Y-158088000D01*
X161880000Y-158111000D01*
X161920000Y-158135000D01*
X161959000Y-158162000D01*
X161996000Y-158191000D01*
X162032000Y-158221000D01*
X162066000Y-158254000D01*
X162099000Y-158288000D01*
X162129000Y-158324000D01*
X162158000Y-158361000D01*
X162185000Y-158400000D01*
X162209000Y-158440000D01*
X162232000Y-158481000D01*
X162252000Y-158524000D01*
X162270000Y-158567000D01*
X162286000Y-158612000D01*
X162299000Y-158657000D01*
X162310000Y-158703000D01*
X162319000Y-158749000D01*
X162325000Y-158796000D01*
X162329000Y-158843000D01*
X162330000Y-158890000D01*
X162330000Y-161390000D01*
X160530000Y-161390000D01*
X160530000Y-158890000D01*
X160531000Y-158843000D01*
X160535000Y-158796000D01*
X160541000Y-158749000D01*
X160550000Y-158703000D01*
X160561000Y-158657000D01*
X160574000Y-158612000D01*
X160590000Y-158567000D01*
X160608000Y-158524000D01*
X160628000Y-158481000D01*
X160651000Y-158440000D01*
X160675000Y-158400000D01*
X160702000Y-158361000D01*
X160731000Y-158324000D01*
X160761000Y-158288000D01*
X160794000Y-158254000D01*
X160828000Y-158221000D01*
X160864000Y-158191000D01*
X160901000Y-158162000D01*
X160940000Y-158135000D01*
X160980000Y-158111000D01*
X161021000Y-158088000D01*
X161064000Y-158068000D01*
X161107000Y-158050000D01*
X161152000Y-158034000D01*
X161197000Y-158021000D01*
X161243000Y-158010000D01*
X161289000Y-158001000D01*
X161336000Y-157995000D01*
X161383000Y-157991000D01*
X161430000Y-157990000D01*
X161477000Y-157991000D01*
G36*
X161477000Y-157991000D02*
G01*
X161524000Y-157995000D01*
X161571000Y-158001000D01*
X161617000Y-158010000D01*
X161663000Y-158021000D01*
X161708000Y-158034000D01*
X161753000Y-158050000D01*
X161796000Y-158068000D01*
X161839000Y-158088000D01*
X161880000Y-158111000D01*
X161920000Y-158135000D01*
X161959000Y-158162000D01*
X161996000Y-158191000D01*
X162032000Y-158221000D01*
X162066000Y-158254000D01*
X162099000Y-158288000D01*
X162129000Y-158324000D01*
X162158000Y-158361000D01*
X162185000Y-158400000D01*
X162209000Y-158440000D01*
X162232000Y-158481000D01*
X162252000Y-158524000D01*
X162270000Y-158567000D01*
X162286000Y-158612000D01*
X162299000Y-158657000D01*
X162310000Y-158703000D01*
X162319000Y-158749000D01*
X162325000Y-158796000D01*
X162329000Y-158843000D01*
X162330000Y-158890000D01*
X162330000Y-161390000D01*
X160530000Y-161390000D01*
X160530000Y-158890000D01*
X160531000Y-158843000D01*
X160535000Y-158796000D01*
X160541000Y-158749000D01*
X160550000Y-158703000D01*
X160561000Y-158657000D01*
X160574000Y-158612000D01*
X160590000Y-158567000D01*
X160608000Y-158524000D01*
X160628000Y-158481000D01*
X160651000Y-158440000D01*
X160675000Y-158400000D01*
X160702000Y-158361000D01*
X160731000Y-158324000D01*
X160761000Y-158288000D01*
X160794000Y-158254000D01*
X160828000Y-158221000D01*
X160864000Y-158191000D01*
X160901000Y-158162000D01*
X160940000Y-158135000D01*
X160980000Y-158111000D01*
X161021000Y-158088000D01*
X161064000Y-158068000D01*
X161107000Y-158050000D01*
X161152000Y-158034000D01*
X161197000Y-158021000D01*
X161243000Y-158010000D01*
X161289000Y-158001000D01*
X161336000Y-157995000D01*
X161383000Y-157991000D01*
X161430000Y-157990000D01*
X161477000Y-157991000D01*
G37*
X164017000Y-157991000D02*
X164064000Y-157995000D01*
X164111000Y-158001000D01*
X164157000Y-158010000D01*
X164203000Y-158021000D01*
X164248000Y-158034000D01*
X164293000Y-158050000D01*
X164336000Y-158068000D01*
X164379000Y-158088000D01*
X164420000Y-158111000D01*
X164460000Y-158135000D01*
X164499000Y-158162000D01*
X164536000Y-158191000D01*
X164572000Y-158221000D01*
X164606000Y-158254000D01*
X164639000Y-158288000D01*
X164669000Y-158324000D01*
X164698000Y-158361000D01*
X164725000Y-158400000D01*
X164749000Y-158440000D01*
X164772000Y-158481000D01*
X164792000Y-158524000D01*
X164810000Y-158567000D01*
X164826000Y-158612000D01*
X164839000Y-158657000D01*
X164850000Y-158703000D01*
X164859000Y-158749000D01*
X164865000Y-158796000D01*
X164869000Y-158843000D01*
X164870000Y-158890000D01*
X164870000Y-161390000D01*
X163070000Y-161390000D01*
X163070000Y-158890000D01*
X163071000Y-158843000D01*
X163075000Y-158796000D01*
X163081000Y-158749000D01*
X163090000Y-158703000D01*
X163101000Y-158657000D01*
X163114000Y-158612000D01*
X163130000Y-158567000D01*
X163148000Y-158524000D01*
X163168000Y-158481000D01*
X163191000Y-158440000D01*
X163215000Y-158400000D01*
X163242000Y-158361000D01*
X163271000Y-158324000D01*
X163301000Y-158288000D01*
X163334000Y-158254000D01*
X163368000Y-158221000D01*
X163404000Y-158191000D01*
X163441000Y-158162000D01*
X163480000Y-158135000D01*
X163520000Y-158111000D01*
X163561000Y-158088000D01*
X163604000Y-158068000D01*
X163647000Y-158050000D01*
X163692000Y-158034000D01*
X163737000Y-158021000D01*
X163783000Y-158010000D01*
X163829000Y-158001000D01*
X163876000Y-157995000D01*
X163923000Y-157991000D01*
X163970000Y-157990000D01*
X164017000Y-157991000D01*
G36*
X164017000Y-157991000D02*
G01*
X164064000Y-157995000D01*
X164111000Y-158001000D01*
X164157000Y-158010000D01*
X164203000Y-158021000D01*
X164248000Y-158034000D01*
X164293000Y-158050000D01*
X164336000Y-158068000D01*
X164379000Y-158088000D01*
X164420000Y-158111000D01*
X164460000Y-158135000D01*
X164499000Y-158162000D01*
X164536000Y-158191000D01*
X164572000Y-158221000D01*
X164606000Y-158254000D01*
X164639000Y-158288000D01*
X164669000Y-158324000D01*
X164698000Y-158361000D01*
X164725000Y-158400000D01*
X164749000Y-158440000D01*
X164772000Y-158481000D01*
X164792000Y-158524000D01*
X164810000Y-158567000D01*
X164826000Y-158612000D01*
X164839000Y-158657000D01*
X164850000Y-158703000D01*
X164859000Y-158749000D01*
X164865000Y-158796000D01*
X164869000Y-158843000D01*
X164870000Y-158890000D01*
X164870000Y-161390000D01*
X163070000Y-161390000D01*
X163070000Y-158890000D01*
X163071000Y-158843000D01*
X163075000Y-158796000D01*
X163081000Y-158749000D01*
X163090000Y-158703000D01*
X163101000Y-158657000D01*
X163114000Y-158612000D01*
X163130000Y-158567000D01*
X163148000Y-158524000D01*
X163168000Y-158481000D01*
X163191000Y-158440000D01*
X163215000Y-158400000D01*
X163242000Y-158361000D01*
X163271000Y-158324000D01*
X163301000Y-158288000D01*
X163334000Y-158254000D01*
X163368000Y-158221000D01*
X163404000Y-158191000D01*
X163441000Y-158162000D01*
X163480000Y-158135000D01*
X163520000Y-158111000D01*
X163561000Y-158088000D01*
X163604000Y-158068000D01*
X163647000Y-158050000D01*
X163692000Y-158034000D01*
X163737000Y-158021000D01*
X163783000Y-158010000D01*
X163829000Y-158001000D01*
X163876000Y-157995000D01*
X163923000Y-157991000D01*
X163970000Y-157990000D01*
X164017000Y-157991000D01*
G37*
X166557000Y-157991000D02*
X166604000Y-157995000D01*
X166651000Y-158001000D01*
X166697000Y-158010000D01*
X166743000Y-158021000D01*
X166788000Y-158034000D01*
X166833000Y-158050000D01*
X166876000Y-158068000D01*
X166919000Y-158088000D01*
X166960000Y-158111000D01*
X167000000Y-158135000D01*
X167039000Y-158162000D01*
X167076000Y-158191000D01*
X167112000Y-158221000D01*
X167146000Y-158254000D01*
X167179000Y-158288000D01*
X167209000Y-158324000D01*
X167238000Y-158361000D01*
X167265000Y-158400000D01*
X167289000Y-158440000D01*
X167312000Y-158481000D01*
X167332000Y-158524000D01*
X167350000Y-158567000D01*
X167366000Y-158612000D01*
X167379000Y-158657000D01*
X167390000Y-158703000D01*
X167399000Y-158749000D01*
X167405000Y-158796000D01*
X167409000Y-158843000D01*
X167410000Y-158890000D01*
X167410000Y-161390000D01*
X165610000Y-161390000D01*
X165610000Y-158890000D01*
X165611000Y-158843000D01*
X165615000Y-158796000D01*
X165621000Y-158749000D01*
X165630000Y-158703000D01*
X165641000Y-158657000D01*
X165654000Y-158612000D01*
X165670000Y-158567000D01*
X165688000Y-158524000D01*
X165708000Y-158481000D01*
X165731000Y-158440000D01*
X165755000Y-158400000D01*
X165782000Y-158361000D01*
X165811000Y-158324000D01*
X165841000Y-158288000D01*
X165874000Y-158254000D01*
X165908000Y-158221000D01*
X165944000Y-158191000D01*
X165981000Y-158162000D01*
X166020000Y-158135000D01*
X166060000Y-158111000D01*
X166101000Y-158088000D01*
X166144000Y-158068000D01*
X166187000Y-158050000D01*
X166232000Y-158034000D01*
X166277000Y-158021000D01*
X166323000Y-158010000D01*
X166369000Y-158001000D01*
X166416000Y-157995000D01*
X166463000Y-157991000D01*
X166510000Y-157990000D01*
X166557000Y-157991000D01*
G36*
X166557000Y-157991000D02*
G01*
X166604000Y-157995000D01*
X166651000Y-158001000D01*
X166697000Y-158010000D01*
X166743000Y-158021000D01*
X166788000Y-158034000D01*
X166833000Y-158050000D01*
X166876000Y-158068000D01*
X166919000Y-158088000D01*
X166960000Y-158111000D01*
X167000000Y-158135000D01*
X167039000Y-158162000D01*
X167076000Y-158191000D01*
X167112000Y-158221000D01*
X167146000Y-158254000D01*
X167179000Y-158288000D01*
X167209000Y-158324000D01*
X167238000Y-158361000D01*
X167265000Y-158400000D01*
X167289000Y-158440000D01*
X167312000Y-158481000D01*
X167332000Y-158524000D01*
X167350000Y-158567000D01*
X167366000Y-158612000D01*
X167379000Y-158657000D01*
X167390000Y-158703000D01*
X167399000Y-158749000D01*
X167405000Y-158796000D01*
X167409000Y-158843000D01*
X167410000Y-158890000D01*
X167410000Y-161390000D01*
X165610000Y-161390000D01*
X165610000Y-158890000D01*
X165611000Y-158843000D01*
X165615000Y-158796000D01*
X165621000Y-158749000D01*
X165630000Y-158703000D01*
X165641000Y-158657000D01*
X165654000Y-158612000D01*
X165670000Y-158567000D01*
X165688000Y-158524000D01*
X165708000Y-158481000D01*
X165731000Y-158440000D01*
X165755000Y-158400000D01*
X165782000Y-158361000D01*
X165811000Y-158324000D01*
X165841000Y-158288000D01*
X165874000Y-158254000D01*
X165908000Y-158221000D01*
X165944000Y-158191000D01*
X165981000Y-158162000D01*
X166020000Y-158135000D01*
X166060000Y-158111000D01*
X166101000Y-158088000D01*
X166144000Y-158068000D01*
X166187000Y-158050000D01*
X166232000Y-158034000D01*
X166277000Y-158021000D01*
X166323000Y-158010000D01*
X166369000Y-158001000D01*
X166416000Y-157995000D01*
X166463000Y-157991000D01*
X166510000Y-157990000D01*
X166557000Y-157991000D01*
G37*
X171637000Y-157991000D02*
X171684000Y-157995000D01*
X171731000Y-158001000D01*
X171777000Y-158010000D01*
X171823000Y-158021000D01*
X171868000Y-158034000D01*
X171913000Y-158050000D01*
X171956000Y-158068000D01*
X171999000Y-158088000D01*
X172040000Y-158111000D01*
X172080000Y-158135000D01*
X172119000Y-158162000D01*
X172156000Y-158191000D01*
X172192000Y-158221000D01*
X172226000Y-158254000D01*
X172259000Y-158288000D01*
X172289000Y-158324000D01*
X172318000Y-158361000D01*
X172345000Y-158400000D01*
X172369000Y-158440000D01*
X172392000Y-158481000D01*
X172412000Y-158524000D01*
X172430000Y-158567000D01*
X172446000Y-158612000D01*
X172459000Y-158657000D01*
X172470000Y-158703000D01*
X172479000Y-158749000D01*
X172485000Y-158796000D01*
X172489000Y-158843000D01*
X172490000Y-158890000D01*
X172490000Y-161390000D01*
X170690000Y-161390000D01*
X170690000Y-158890000D01*
X170691000Y-158843000D01*
X170695000Y-158796000D01*
X170701000Y-158749000D01*
X170710000Y-158703000D01*
X170721000Y-158657000D01*
X170734000Y-158612000D01*
X170750000Y-158567000D01*
X170768000Y-158524000D01*
X170788000Y-158481000D01*
X170811000Y-158440000D01*
X170835000Y-158400000D01*
X170862000Y-158361000D01*
X170891000Y-158324000D01*
X170921000Y-158288000D01*
X170954000Y-158254000D01*
X170988000Y-158221000D01*
X171024000Y-158191000D01*
X171061000Y-158162000D01*
X171100000Y-158135000D01*
X171140000Y-158111000D01*
X171181000Y-158088000D01*
X171224000Y-158068000D01*
X171267000Y-158050000D01*
X171312000Y-158034000D01*
X171357000Y-158021000D01*
X171403000Y-158010000D01*
X171449000Y-158001000D01*
X171496000Y-157995000D01*
X171543000Y-157991000D01*
X171590000Y-157990000D01*
X171637000Y-157991000D01*
G36*
X171637000Y-157991000D02*
G01*
X171684000Y-157995000D01*
X171731000Y-158001000D01*
X171777000Y-158010000D01*
X171823000Y-158021000D01*
X171868000Y-158034000D01*
X171913000Y-158050000D01*
X171956000Y-158068000D01*
X171999000Y-158088000D01*
X172040000Y-158111000D01*
X172080000Y-158135000D01*
X172119000Y-158162000D01*
X172156000Y-158191000D01*
X172192000Y-158221000D01*
X172226000Y-158254000D01*
X172259000Y-158288000D01*
X172289000Y-158324000D01*
X172318000Y-158361000D01*
X172345000Y-158400000D01*
X172369000Y-158440000D01*
X172392000Y-158481000D01*
X172412000Y-158524000D01*
X172430000Y-158567000D01*
X172446000Y-158612000D01*
X172459000Y-158657000D01*
X172470000Y-158703000D01*
X172479000Y-158749000D01*
X172485000Y-158796000D01*
X172489000Y-158843000D01*
X172490000Y-158890000D01*
X172490000Y-161390000D01*
X170690000Y-161390000D01*
X170690000Y-158890000D01*
X170691000Y-158843000D01*
X170695000Y-158796000D01*
X170701000Y-158749000D01*
X170710000Y-158703000D01*
X170721000Y-158657000D01*
X170734000Y-158612000D01*
X170750000Y-158567000D01*
X170768000Y-158524000D01*
X170788000Y-158481000D01*
X170811000Y-158440000D01*
X170835000Y-158400000D01*
X170862000Y-158361000D01*
X170891000Y-158324000D01*
X170921000Y-158288000D01*
X170954000Y-158254000D01*
X170988000Y-158221000D01*
X171024000Y-158191000D01*
X171061000Y-158162000D01*
X171100000Y-158135000D01*
X171140000Y-158111000D01*
X171181000Y-158088000D01*
X171224000Y-158068000D01*
X171267000Y-158050000D01*
X171312000Y-158034000D01*
X171357000Y-158021000D01*
X171403000Y-158010000D01*
X171449000Y-158001000D01*
X171496000Y-157995000D01*
X171543000Y-157991000D01*
X171590000Y-157990000D01*
X171637000Y-157991000D01*
G37*
X174177000Y-157991000D02*
X174224000Y-157995000D01*
X174271000Y-158001000D01*
X174317000Y-158010000D01*
X174363000Y-158021000D01*
X174408000Y-158034000D01*
X174453000Y-158050000D01*
X174496000Y-158068000D01*
X174539000Y-158088000D01*
X174580000Y-158111000D01*
X174620000Y-158135000D01*
X174659000Y-158162000D01*
X174696000Y-158191000D01*
X174732000Y-158221000D01*
X174766000Y-158254000D01*
X174799000Y-158288000D01*
X174829000Y-158324000D01*
X174858000Y-158361000D01*
X174885000Y-158400000D01*
X174909000Y-158440000D01*
X174932000Y-158481000D01*
X174952000Y-158524000D01*
X174970000Y-158567000D01*
X174986000Y-158612000D01*
X174999000Y-158657000D01*
X175010000Y-158703000D01*
X175019000Y-158749000D01*
X175025000Y-158796000D01*
X175029000Y-158843000D01*
X175030000Y-158890000D01*
X175030000Y-161390000D01*
X173230000Y-161390000D01*
X173230000Y-158890000D01*
X173231000Y-158843000D01*
X173235000Y-158796000D01*
X173241000Y-158749000D01*
X173250000Y-158703000D01*
X173261000Y-158657000D01*
X173274000Y-158612000D01*
X173290000Y-158567000D01*
X173308000Y-158524000D01*
X173328000Y-158481000D01*
X173351000Y-158440000D01*
X173375000Y-158400000D01*
X173402000Y-158361000D01*
X173431000Y-158324000D01*
X173461000Y-158288000D01*
X173494000Y-158254000D01*
X173528000Y-158221000D01*
X173564000Y-158191000D01*
X173601000Y-158162000D01*
X173640000Y-158135000D01*
X173680000Y-158111000D01*
X173721000Y-158088000D01*
X173764000Y-158068000D01*
X173807000Y-158050000D01*
X173852000Y-158034000D01*
X173897000Y-158021000D01*
X173943000Y-158010000D01*
X173989000Y-158001000D01*
X174036000Y-157995000D01*
X174083000Y-157991000D01*
X174130000Y-157990000D01*
X174177000Y-157991000D01*
G36*
X174177000Y-157991000D02*
G01*
X174224000Y-157995000D01*
X174271000Y-158001000D01*
X174317000Y-158010000D01*
X174363000Y-158021000D01*
X174408000Y-158034000D01*
X174453000Y-158050000D01*
X174496000Y-158068000D01*
X174539000Y-158088000D01*
X174580000Y-158111000D01*
X174620000Y-158135000D01*
X174659000Y-158162000D01*
X174696000Y-158191000D01*
X174732000Y-158221000D01*
X174766000Y-158254000D01*
X174799000Y-158288000D01*
X174829000Y-158324000D01*
X174858000Y-158361000D01*
X174885000Y-158400000D01*
X174909000Y-158440000D01*
X174932000Y-158481000D01*
X174952000Y-158524000D01*
X174970000Y-158567000D01*
X174986000Y-158612000D01*
X174999000Y-158657000D01*
X175010000Y-158703000D01*
X175019000Y-158749000D01*
X175025000Y-158796000D01*
X175029000Y-158843000D01*
X175030000Y-158890000D01*
X175030000Y-161390000D01*
X173230000Y-161390000D01*
X173230000Y-158890000D01*
X173231000Y-158843000D01*
X173235000Y-158796000D01*
X173241000Y-158749000D01*
X173250000Y-158703000D01*
X173261000Y-158657000D01*
X173274000Y-158612000D01*
X173290000Y-158567000D01*
X173308000Y-158524000D01*
X173328000Y-158481000D01*
X173351000Y-158440000D01*
X173375000Y-158400000D01*
X173402000Y-158361000D01*
X173431000Y-158324000D01*
X173461000Y-158288000D01*
X173494000Y-158254000D01*
X173528000Y-158221000D01*
X173564000Y-158191000D01*
X173601000Y-158162000D01*
X173640000Y-158135000D01*
X173680000Y-158111000D01*
X173721000Y-158088000D01*
X173764000Y-158068000D01*
X173807000Y-158050000D01*
X173852000Y-158034000D01*
X173897000Y-158021000D01*
X173943000Y-158010000D01*
X173989000Y-158001000D01*
X174036000Y-157995000D01*
X174083000Y-157991000D01*
X174130000Y-157990000D01*
X174177000Y-157991000D01*
G37*
X126147000Y-151641000D02*
X126194000Y-151645000D01*
X126241000Y-151651000D01*
X126287000Y-151660000D01*
X126333000Y-151671000D01*
X126378000Y-151684000D01*
X126423000Y-151700000D01*
X126466000Y-151718000D01*
X126509000Y-151738000D01*
X126550000Y-151761000D01*
X126590000Y-151785000D01*
X126629000Y-151812000D01*
X126666000Y-151841000D01*
X126702000Y-151871000D01*
X126736000Y-151904000D01*
X126769000Y-151938000D01*
X126799000Y-151974000D01*
X126828000Y-152011000D01*
X126855000Y-152050000D01*
X126879000Y-152090000D01*
X126902000Y-152131000D01*
X126922000Y-152174000D01*
X126940000Y-152217000D01*
X126956000Y-152262000D01*
X126969000Y-152307000D01*
X126980000Y-152353000D01*
X126989000Y-152399000D01*
X126995000Y-152446000D01*
X126999000Y-152493000D01*
X127000000Y-152540000D01*
X126999000Y-152587000D01*
X126995000Y-152634000D01*
X126989000Y-152681000D01*
X126980000Y-152727000D01*
X126969000Y-152773000D01*
X126956000Y-152818000D01*
X126940000Y-152863000D01*
X126922000Y-152906000D01*
X126902000Y-152949000D01*
X126879000Y-152990000D01*
X126855000Y-153030000D01*
X126828000Y-153069000D01*
X126799000Y-153106000D01*
X126769000Y-153142000D01*
X126736000Y-153176000D01*
X126702000Y-153209000D01*
X126666000Y-153239000D01*
X126629000Y-153268000D01*
X126590000Y-153295000D01*
X126550000Y-153319000D01*
X126509000Y-153342000D01*
X126466000Y-153362000D01*
X126423000Y-153380000D01*
X126378000Y-153396000D01*
X126333000Y-153409000D01*
X126287000Y-153420000D01*
X126241000Y-153429000D01*
X126194000Y-153435000D01*
X126147000Y-153439000D01*
X126100000Y-153440000D01*
X123600000Y-153440000D01*
X123600000Y-151640000D01*
X126100000Y-151640000D01*
X126147000Y-151641000D01*
G36*
X126147000Y-151641000D02*
G01*
X126194000Y-151645000D01*
X126241000Y-151651000D01*
X126287000Y-151660000D01*
X126333000Y-151671000D01*
X126378000Y-151684000D01*
X126423000Y-151700000D01*
X126466000Y-151718000D01*
X126509000Y-151738000D01*
X126550000Y-151761000D01*
X126590000Y-151785000D01*
X126629000Y-151812000D01*
X126666000Y-151841000D01*
X126702000Y-151871000D01*
X126736000Y-151904000D01*
X126769000Y-151938000D01*
X126799000Y-151974000D01*
X126828000Y-152011000D01*
X126855000Y-152050000D01*
X126879000Y-152090000D01*
X126902000Y-152131000D01*
X126922000Y-152174000D01*
X126940000Y-152217000D01*
X126956000Y-152262000D01*
X126969000Y-152307000D01*
X126980000Y-152353000D01*
X126989000Y-152399000D01*
X126995000Y-152446000D01*
X126999000Y-152493000D01*
X127000000Y-152540000D01*
X126999000Y-152587000D01*
X126995000Y-152634000D01*
X126989000Y-152681000D01*
X126980000Y-152727000D01*
X126969000Y-152773000D01*
X126956000Y-152818000D01*
X126940000Y-152863000D01*
X126922000Y-152906000D01*
X126902000Y-152949000D01*
X126879000Y-152990000D01*
X126855000Y-153030000D01*
X126828000Y-153069000D01*
X126799000Y-153106000D01*
X126769000Y-153142000D01*
X126736000Y-153176000D01*
X126702000Y-153209000D01*
X126666000Y-153239000D01*
X126629000Y-153268000D01*
X126590000Y-153295000D01*
X126550000Y-153319000D01*
X126509000Y-153342000D01*
X126466000Y-153362000D01*
X126423000Y-153380000D01*
X126378000Y-153396000D01*
X126333000Y-153409000D01*
X126287000Y-153420000D01*
X126241000Y-153429000D01*
X126194000Y-153435000D01*
X126147000Y-153439000D01*
X126100000Y-153440000D01*
X123600000Y-153440000D01*
X123600000Y-151640000D01*
X126100000Y-151640000D01*
X126147000Y-151641000D01*
G37*
X126147000Y-146561000D02*
X126194000Y-146565000D01*
X126241000Y-146571000D01*
X126287000Y-146580000D01*
X126333000Y-146591000D01*
X126378000Y-146604000D01*
X126423000Y-146620000D01*
X126466000Y-146638000D01*
X126509000Y-146658000D01*
X126550000Y-146681000D01*
X126590000Y-146705000D01*
X126629000Y-146732000D01*
X126666000Y-146761000D01*
X126702000Y-146791000D01*
X126736000Y-146824000D01*
X126769000Y-146858000D01*
X126799000Y-146894000D01*
X126828000Y-146931000D01*
X126855000Y-146970000D01*
X126879000Y-147010000D01*
X126902000Y-147051000D01*
X126922000Y-147094000D01*
X126940000Y-147137000D01*
X126956000Y-147182000D01*
X126969000Y-147227000D01*
X126980000Y-147273000D01*
X126989000Y-147319000D01*
X126995000Y-147366000D01*
X126999000Y-147413000D01*
X127000000Y-147460000D01*
X126999000Y-147507000D01*
X126995000Y-147554000D01*
X126989000Y-147601000D01*
X126980000Y-147647000D01*
X126969000Y-147693000D01*
X126956000Y-147738000D01*
X126940000Y-147783000D01*
X126922000Y-147826000D01*
X126902000Y-147869000D01*
X126879000Y-147910000D01*
X126855000Y-147950000D01*
X126828000Y-147989000D01*
X126799000Y-148026000D01*
X126769000Y-148062000D01*
X126736000Y-148096000D01*
X126702000Y-148129000D01*
X126666000Y-148159000D01*
X126629000Y-148188000D01*
X126590000Y-148215000D01*
X126550000Y-148239000D01*
X126509000Y-148262000D01*
X126466000Y-148282000D01*
X126423000Y-148300000D01*
X126378000Y-148316000D01*
X126333000Y-148329000D01*
X126287000Y-148340000D01*
X126241000Y-148349000D01*
X126194000Y-148355000D01*
X126147000Y-148359000D01*
X126100000Y-148360000D01*
X123600000Y-148360000D01*
X123600000Y-146560000D01*
X126100000Y-146560000D01*
X126147000Y-146561000D01*
G36*
X126147000Y-146561000D02*
G01*
X126194000Y-146565000D01*
X126241000Y-146571000D01*
X126287000Y-146580000D01*
X126333000Y-146591000D01*
X126378000Y-146604000D01*
X126423000Y-146620000D01*
X126466000Y-146638000D01*
X126509000Y-146658000D01*
X126550000Y-146681000D01*
X126590000Y-146705000D01*
X126629000Y-146732000D01*
X126666000Y-146761000D01*
X126702000Y-146791000D01*
X126736000Y-146824000D01*
X126769000Y-146858000D01*
X126799000Y-146894000D01*
X126828000Y-146931000D01*
X126855000Y-146970000D01*
X126879000Y-147010000D01*
X126902000Y-147051000D01*
X126922000Y-147094000D01*
X126940000Y-147137000D01*
X126956000Y-147182000D01*
X126969000Y-147227000D01*
X126980000Y-147273000D01*
X126989000Y-147319000D01*
X126995000Y-147366000D01*
X126999000Y-147413000D01*
X127000000Y-147460000D01*
X126999000Y-147507000D01*
X126995000Y-147554000D01*
X126989000Y-147601000D01*
X126980000Y-147647000D01*
X126969000Y-147693000D01*
X126956000Y-147738000D01*
X126940000Y-147783000D01*
X126922000Y-147826000D01*
X126902000Y-147869000D01*
X126879000Y-147910000D01*
X126855000Y-147950000D01*
X126828000Y-147989000D01*
X126799000Y-148026000D01*
X126769000Y-148062000D01*
X126736000Y-148096000D01*
X126702000Y-148129000D01*
X126666000Y-148159000D01*
X126629000Y-148188000D01*
X126590000Y-148215000D01*
X126550000Y-148239000D01*
X126509000Y-148262000D01*
X126466000Y-148282000D01*
X126423000Y-148300000D01*
X126378000Y-148316000D01*
X126333000Y-148329000D01*
X126287000Y-148340000D01*
X126241000Y-148349000D01*
X126194000Y-148355000D01*
X126147000Y-148359000D01*
X126100000Y-148360000D01*
X123600000Y-148360000D01*
X123600000Y-146560000D01*
X126100000Y-146560000D01*
X126147000Y-146561000D01*
G37*
X126770000Y-141110000D02*
X126769000Y-141157000D01*
X126765000Y-141204000D01*
X126759000Y-141251000D01*
X126750000Y-141297000D01*
X126739000Y-141343000D01*
X126726000Y-141388000D01*
X126710000Y-141433000D01*
X126692000Y-141476000D01*
X126672000Y-141519000D01*
X126649000Y-141560000D01*
X126625000Y-141600000D01*
X126598000Y-141639000D01*
X126569000Y-141676000D01*
X126539000Y-141712000D01*
X126506000Y-141746000D01*
X126472000Y-141779000D01*
X126436000Y-141809000D01*
X126399000Y-141838000D01*
X126360000Y-141865000D01*
X126320000Y-141889000D01*
X126279000Y-141912000D01*
X126236000Y-141932000D01*
X126193000Y-141950000D01*
X126148000Y-141966000D01*
X126103000Y-141979000D01*
X126057000Y-141990000D01*
X126011000Y-141999000D01*
X125964000Y-142005000D01*
X125917000Y-142009000D01*
X125870000Y-142010000D01*
X125823000Y-142009000D01*
X125776000Y-142005000D01*
X125729000Y-141999000D01*
X125683000Y-141990000D01*
X125637000Y-141979000D01*
X125592000Y-141966000D01*
X125547000Y-141950000D01*
X125504000Y-141932000D01*
X125461000Y-141912000D01*
X125420000Y-141889000D01*
X125380000Y-141865000D01*
X125341000Y-141838000D01*
X125304000Y-141809000D01*
X125268000Y-141779000D01*
X125234000Y-141746000D01*
X125201000Y-141712000D01*
X125171000Y-141676000D01*
X125142000Y-141639000D01*
X125115000Y-141600000D01*
X125091000Y-141560000D01*
X125068000Y-141519000D01*
X125048000Y-141476000D01*
X125030000Y-141433000D01*
X125014000Y-141388000D01*
X125001000Y-141343000D01*
X124990000Y-141297000D01*
X124981000Y-141251000D01*
X124975000Y-141204000D01*
X124971000Y-141157000D01*
X124970000Y-141110000D01*
X124970000Y-138610000D01*
X126770000Y-138610000D01*
X126770000Y-141110000D01*
G36*
X126770000Y-141110000D02*
G01*
X126769000Y-141157000D01*
X126765000Y-141204000D01*
X126759000Y-141251000D01*
X126750000Y-141297000D01*
X126739000Y-141343000D01*
X126726000Y-141388000D01*
X126710000Y-141433000D01*
X126692000Y-141476000D01*
X126672000Y-141519000D01*
X126649000Y-141560000D01*
X126625000Y-141600000D01*
X126598000Y-141639000D01*
X126569000Y-141676000D01*
X126539000Y-141712000D01*
X126506000Y-141746000D01*
X126472000Y-141779000D01*
X126436000Y-141809000D01*
X126399000Y-141838000D01*
X126360000Y-141865000D01*
X126320000Y-141889000D01*
X126279000Y-141912000D01*
X126236000Y-141932000D01*
X126193000Y-141950000D01*
X126148000Y-141966000D01*
X126103000Y-141979000D01*
X126057000Y-141990000D01*
X126011000Y-141999000D01*
X125964000Y-142005000D01*
X125917000Y-142009000D01*
X125870000Y-142010000D01*
X125823000Y-142009000D01*
X125776000Y-142005000D01*
X125729000Y-141999000D01*
X125683000Y-141990000D01*
X125637000Y-141979000D01*
X125592000Y-141966000D01*
X125547000Y-141950000D01*
X125504000Y-141932000D01*
X125461000Y-141912000D01*
X125420000Y-141889000D01*
X125380000Y-141865000D01*
X125341000Y-141838000D01*
X125304000Y-141809000D01*
X125268000Y-141779000D01*
X125234000Y-141746000D01*
X125201000Y-141712000D01*
X125171000Y-141676000D01*
X125142000Y-141639000D01*
X125115000Y-141600000D01*
X125091000Y-141560000D01*
X125068000Y-141519000D01*
X125048000Y-141476000D01*
X125030000Y-141433000D01*
X125014000Y-141388000D01*
X125001000Y-141343000D01*
X124990000Y-141297000D01*
X124981000Y-141251000D01*
X124975000Y-141204000D01*
X124971000Y-141157000D01*
X124970000Y-141110000D01*
X124970000Y-138610000D01*
X126770000Y-138610000D01*
X126770000Y-141110000D01*
G37*
X129310000Y-141110000D02*
X129309000Y-141157000D01*
X129305000Y-141204000D01*
X129299000Y-141251000D01*
X129290000Y-141297000D01*
X129279000Y-141343000D01*
X129266000Y-141388000D01*
X129250000Y-141433000D01*
X129232000Y-141476000D01*
X129212000Y-141519000D01*
X129189000Y-141560000D01*
X129165000Y-141600000D01*
X129138000Y-141639000D01*
X129109000Y-141676000D01*
X129079000Y-141712000D01*
X129046000Y-141746000D01*
X129012000Y-141779000D01*
X128976000Y-141809000D01*
X128939000Y-141838000D01*
X128900000Y-141865000D01*
X128860000Y-141889000D01*
X128819000Y-141912000D01*
X128776000Y-141932000D01*
X128733000Y-141950000D01*
X128688000Y-141966000D01*
X128643000Y-141979000D01*
X128597000Y-141990000D01*
X128551000Y-141999000D01*
X128504000Y-142005000D01*
X128457000Y-142009000D01*
X128410000Y-142010000D01*
X128363000Y-142009000D01*
X128316000Y-142005000D01*
X128269000Y-141999000D01*
X128223000Y-141990000D01*
X128177000Y-141979000D01*
X128132000Y-141966000D01*
X128087000Y-141950000D01*
X128044000Y-141932000D01*
X128001000Y-141912000D01*
X127960000Y-141889000D01*
X127920000Y-141865000D01*
X127881000Y-141838000D01*
X127844000Y-141809000D01*
X127808000Y-141779000D01*
X127774000Y-141746000D01*
X127741000Y-141712000D01*
X127711000Y-141676000D01*
X127682000Y-141639000D01*
X127655000Y-141600000D01*
X127631000Y-141560000D01*
X127608000Y-141519000D01*
X127588000Y-141476000D01*
X127570000Y-141433000D01*
X127554000Y-141388000D01*
X127541000Y-141343000D01*
X127530000Y-141297000D01*
X127521000Y-141251000D01*
X127515000Y-141204000D01*
X127511000Y-141157000D01*
X127510000Y-141110000D01*
X127510000Y-138610000D01*
X129310000Y-138610000D01*
X129310000Y-141110000D01*
G36*
X129310000Y-141110000D02*
G01*
X129309000Y-141157000D01*
X129305000Y-141204000D01*
X129299000Y-141251000D01*
X129290000Y-141297000D01*
X129279000Y-141343000D01*
X129266000Y-141388000D01*
X129250000Y-141433000D01*
X129232000Y-141476000D01*
X129212000Y-141519000D01*
X129189000Y-141560000D01*
X129165000Y-141600000D01*
X129138000Y-141639000D01*
X129109000Y-141676000D01*
X129079000Y-141712000D01*
X129046000Y-141746000D01*
X129012000Y-141779000D01*
X128976000Y-141809000D01*
X128939000Y-141838000D01*
X128900000Y-141865000D01*
X128860000Y-141889000D01*
X128819000Y-141912000D01*
X128776000Y-141932000D01*
X128733000Y-141950000D01*
X128688000Y-141966000D01*
X128643000Y-141979000D01*
X128597000Y-141990000D01*
X128551000Y-141999000D01*
X128504000Y-142005000D01*
X128457000Y-142009000D01*
X128410000Y-142010000D01*
X128363000Y-142009000D01*
X128316000Y-142005000D01*
X128269000Y-141999000D01*
X128223000Y-141990000D01*
X128177000Y-141979000D01*
X128132000Y-141966000D01*
X128087000Y-141950000D01*
X128044000Y-141932000D01*
X128001000Y-141912000D01*
X127960000Y-141889000D01*
X127920000Y-141865000D01*
X127881000Y-141838000D01*
X127844000Y-141809000D01*
X127808000Y-141779000D01*
X127774000Y-141746000D01*
X127741000Y-141712000D01*
X127711000Y-141676000D01*
X127682000Y-141639000D01*
X127655000Y-141600000D01*
X127631000Y-141560000D01*
X127608000Y-141519000D01*
X127588000Y-141476000D01*
X127570000Y-141433000D01*
X127554000Y-141388000D01*
X127541000Y-141343000D01*
X127530000Y-141297000D01*
X127521000Y-141251000D01*
X127515000Y-141204000D01*
X127511000Y-141157000D01*
X127510000Y-141110000D01*
X127510000Y-138610000D01*
X129310000Y-138610000D01*
X129310000Y-141110000D01*
G37*
X134390000Y-141110000D02*
X134389000Y-141157000D01*
X134385000Y-141204000D01*
X134379000Y-141251000D01*
X134370000Y-141297000D01*
X134359000Y-141343000D01*
X134346000Y-141388000D01*
X134330000Y-141433000D01*
X134312000Y-141476000D01*
X134292000Y-141519000D01*
X134269000Y-141560000D01*
X134245000Y-141600000D01*
X134218000Y-141639000D01*
X134189000Y-141676000D01*
X134159000Y-141712000D01*
X134126000Y-141746000D01*
X134092000Y-141779000D01*
X134056000Y-141809000D01*
X134019000Y-141838000D01*
X133980000Y-141865000D01*
X133940000Y-141889000D01*
X133899000Y-141912000D01*
X133856000Y-141932000D01*
X133813000Y-141950000D01*
X133768000Y-141966000D01*
X133723000Y-141979000D01*
X133677000Y-141990000D01*
X133631000Y-141999000D01*
X133584000Y-142005000D01*
X133537000Y-142009000D01*
X133490000Y-142010000D01*
X133443000Y-142009000D01*
X133396000Y-142005000D01*
X133349000Y-141999000D01*
X133303000Y-141990000D01*
X133257000Y-141979000D01*
X133212000Y-141966000D01*
X133167000Y-141950000D01*
X133124000Y-141932000D01*
X133081000Y-141912000D01*
X133040000Y-141889000D01*
X133000000Y-141865000D01*
X132961000Y-141838000D01*
X132924000Y-141809000D01*
X132888000Y-141779000D01*
X132854000Y-141746000D01*
X132821000Y-141712000D01*
X132791000Y-141676000D01*
X132762000Y-141639000D01*
X132735000Y-141600000D01*
X132711000Y-141560000D01*
X132688000Y-141519000D01*
X132668000Y-141476000D01*
X132650000Y-141433000D01*
X132634000Y-141388000D01*
X132621000Y-141343000D01*
X132610000Y-141297000D01*
X132601000Y-141251000D01*
X132595000Y-141204000D01*
X132591000Y-141157000D01*
X132590000Y-141110000D01*
X132590000Y-138610000D01*
X134390000Y-138610000D01*
X134390000Y-141110000D01*
G36*
X134390000Y-141110000D02*
G01*
X134389000Y-141157000D01*
X134385000Y-141204000D01*
X134379000Y-141251000D01*
X134370000Y-141297000D01*
X134359000Y-141343000D01*
X134346000Y-141388000D01*
X134330000Y-141433000D01*
X134312000Y-141476000D01*
X134292000Y-141519000D01*
X134269000Y-141560000D01*
X134245000Y-141600000D01*
X134218000Y-141639000D01*
X134189000Y-141676000D01*
X134159000Y-141712000D01*
X134126000Y-141746000D01*
X134092000Y-141779000D01*
X134056000Y-141809000D01*
X134019000Y-141838000D01*
X133980000Y-141865000D01*
X133940000Y-141889000D01*
X133899000Y-141912000D01*
X133856000Y-141932000D01*
X133813000Y-141950000D01*
X133768000Y-141966000D01*
X133723000Y-141979000D01*
X133677000Y-141990000D01*
X133631000Y-141999000D01*
X133584000Y-142005000D01*
X133537000Y-142009000D01*
X133490000Y-142010000D01*
X133443000Y-142009000D01*
X133396000Y-142005000D01*
X133349000Y-141999000D01*
X133303000Y-141990000D01*
X133257000Y-141979000D01*
X133212000Y-141966000D01*
X133167000Y-141950000D01*
X133124000Y-141932000D01*
X133081000Y-141912000D01*
X133040000Y-141889000D01*
X133000000Y-141865000D01*
X132961000Y-141838000D01*
X132924000Y-141809000D01*
X132888000Y-141779000D01*
X132854000Y-141746000D01*
X132821000Y-141712000D01*
X132791000Y-141676000D01*
X132762000Y-141639000D01*
X132735000Y-141600000D01*
X132711000Y-141560000D01*
X132688000Y-141519000D01*
X132668000Y-141476000D01*
X132650000Y-141433000D01*
X132634000Y-141388000D01*
X132621000Y-141343000D01*
X132610000Y-141297000D01*
X132601000Y-141251000D01*
X132595000Y-141204000D01*
X132591000Y-141157000D01*
X132590000Y-141110000D01*
X132590000Y-138610000D01*
X134390000Y-138610000D01*
X134390000Y-141110000D01*
G37*
X136930000Y-141110000D02*
X136929000Y-141157000D01*
X136925000Y-141204000D01*
X136919000Y-141251000D01*
X136910000Y-141297000D01*
X136899000Y-141343000D01*
X136886000Y-141388000D01*
X136870000Y-141433000D01*
X136852000Y-141476000D01*
X136832000Y-141519000D01*
X136809000Y-141560000D01*
X136785000Y-141600000D01*
X136758000Y-141639000D01*
X136729000Y-141676000D01*
X136699000Y-141712000D01*
X136666000Y-141746000D01*
X136632000Y-141779000D01*
X136596000Y-141809000D01*
X136559000Y-141838000D01*
X136520000Y-141865000D01*
X136480000Y-141889000D01*
X136439000Y-141912000D01*
X136396000Y-141932000D01*
X136353000Y-141950000D01*
X136308000Y-141966000D01*
X136263000Y-141979000D01*
X136217000Y-141990000D01*
X136171000Y-141999000D01*
X136124000Y-142005000D01*
X136077000Y-142009000D01*
X136030000Y-142010000D01*
X135983000Y-142009000D01*
X135936000Y-142005000D01*
X135889000Y-141999000D01*
X135843000Y-141990000D01*
X135797000Y-141979000D01*
X135752000Y-141966000D01*
X135707000Y-141950000D01*
X135664000Y-141932000D01*
X135621000Y-141912000D01*
X135580000Y-141889000D01*
X135540000Y-141865000D01*
X135501000Y-141838000D01*
X135464000Y-141809000D01*
X135428000Y-141779000D01*
X135394000Y-141746000D01*
X135361000Y-141712000D01*
X135331000Y-141676000D01*
X135302000Y-141639000D01*
X135275000Y-141600000D01*
X135251000Y-141560000D01*
X135228000Y-141519000D01*
X135208000Y-141476000D01*
X135190000Y-141433000D01*
X135174000Y-141388000D01*
X135161000Y-141343000D01*
X135150000Y-141297000D01*
X135141000Y-141251000D01*
X135135000Y-141204000D01*
X135131000Y-141157000D01*
X135130000Y-141110000D01*
X135130000Y-138610000D01*
X136930000Y-138610000D01*
X136930000Y-141110000D01*
G36*
X136930000Y-141110000D02*
G01*
X136929000Y-141157000D01*
X136925000Y-141204000D01*
X136919000Y-141251000D01*
X136910000Y-141297000D01*
X136899000Y-141343000D01*
X136886000Y-141388000D01*
X136870000Y-141433000D01*
X136852000Y-141476000D01*
X136832000Y-141519000D01*
X136809000Y-141560000D01*
X136785000Y-141600000D01*
X136758000Y-141639000D01*
X136729000Y-141676000D01*
X136699000Y-141712000D01*
X136666000Y-141746000D01*
X136632000Y-141779000D01*
X136596000Y-141809000D01*
X136559000Y-141838000D01*
X136520000Y-141865000D01*
X136480000Y-141889000D01*
X136439000Y-141912000D01*
X136396000Y-141932000D01*
X136353000Y-141950000D01*
X136308000Y-141966000D01*
X136263000Y-141979000D01*
X136217000Y-141990000D01*
X136171000Y-141999000D01*
X136124000Y-142005000D01*
X136077000Y-142009000D01*
X136030000Y-142010000D01*
X135983000Y-142009000D01*
X135936000Y-142005000D01*
X135889000Y-141999000D01*
X135843000Y-141990000D01*
X135797000Y-141979000D01*
X135752000Y-141966000D01*
X135707000Y-141950000D01*
X135664000Y-141932000D01*
X135621000Y-141912000D01*
X135580000Y-141889000D01*
X135540000Y-141865000D01*
X135501000Y-141838000D01*
X135464000Y-141809000D01*
X135428000Y-141779000D01*
X135394000Y-141746000D01*
X135361000Y-141712000D01*
X135331000Y-141676000D01*
X135302000Y-141639000D01*
X135275000Y-141600000D01*
X135251000Y-141560000D01*
X135228000Y-141519000D01*
X135208000Y-141476000D01*
X135190000Y-141433000D01*
X135174000Y-141388000D01*
X135161000Y-141343000D01*
X135150000Y-141297000D01*
X135141000Y-141251000D01*
X135135000Y-141204000D01*
X135131000Y-141157000D01*
X135130000Y-141110000D01*
X135130000Y-138610000D01*
X136930000Y-138610000D01*
X136930000Y-141110000D01*
G37*
X139470000Y-141110000D02*
X139469000Y-141157000D01*
X139465000Y-141204000D01*
X139459000Y-141251000D01*
X139450000Y-141297000D01*
X139439000Y-141343000D01*
X139426000Y-141388000D01*
X139410000Y-141433000D01*
X139392000Y-141476000D01*
X139372000Y-141519000D01*
X139349000Y-141560000D01*
X139325000Y-141600000D01*
X139298000Y-141639000D01*
X139269000Y-141676000D01*
X139239000Y-141712000D01*
X139206000Y-141746000D01*
X139172000Y-141779000D01*
X139136000Y-141809000D01*
X139099000Y-141838000D01*
X139060000Y-141865000D01*
X139020000Y-141889000D01*
X138979000Y-141912000D01*
X138936000Y-141932000D01*
X138893000Y-141950000D01*
X138848000Y-141966000D01*
X138803000Y-141979000D01*
X138757000Y-141990000D01*
X138711000Y-141999000D01*
X138664000Y-142005000D01*
X138617000Y-142009000D01*
X138570000Y-142010000D01*
X138523000Y-142009000D01*
X138476000Y-142005000D01*
X138429000Y-141999000D01*
X138383000Y-141990000D01*
X138337000Y-141979000D01*
X138292000Y-141966000D01*
X138247000Y-141950000D01*
X138204000Y-141932000D01*
X138161000Y-141912000D01*
X138120000Y-141889000D01*
X138080000Y-141865000D01*
X138041000Y-141838000D01*
X138004000Y-141809000D01*
X137968000Y-141779000D01*
X137934000Y-141746000D01*
X137901000Y-141712000D01*
X137871000Y-141676000D01*
X137842000Y-141639000D01*
X137815000Y-141600000D01*
X137791000Y-141560000D01*
X137768000Y-141519000D01*
X137748000Y-141476000D01*
X137730000Y-141433000D01*
X137714000Y-141388000D01*
X137701000Y-141343000D01*
X137690000Y-141297000D01*
X137681000Y-141251000D01*
X137675000Y-141204000D01*
X137671000Y-141157000D01*
X137670000Y-141110000D01*
X137670000Y-138610000D01*
X139470000Y-138610000D01*
X139470000Y-141110000D01*
G36*
X139470000Y-141110000D02*
G01*
X139469000Y-141157000D01*
X139465000Y-141204000D01*
X139459000Y-141251000D01*
X139450000Y-141297000D01*
X139439000Y-141343000D01*
X139426000Y-141388000D01*
X139410000Y-141433000D01*
X139392000Y-141476000D01*
X139372000Y-141519000D01*
X139349000Y-141560000D01*
X139325000Y-141600000D01*
X139298000Y-141639000D01*
X139269000Y-141676000D01*
X139239000Y-141712000D01*
X139206000Y-141746000D01*
X139172000Y-141779000D01*
X139136000Y-141809000D01*
X139099000Y-141838000D01*
X139060000Y-141865000D01*
X139020000Y-141889000D01*
X138979000Y-141912000D01*
X138936000Y-141932000D01*
X138893000Y-141950000D01*
X138848000Y-141966000D01*
X138803000Y-141979000D01*
X138757000Y-141990000D01*
X138711000Y-141999000D01*
X138664000Y-142005000D01*
X138617000Y-142009000D01*
X138570000Y-142010000D01*
X138523000Y-142009000D01*
X138476000Y-142005000D01*
X138429000Y-141999000D01*
X138383000Y-141990000D01*
X138337000Y-141979000D01*
X138292000Y-141966000D01*
X138247000Y-141950000D01*
X138204000Y-141932000D01*
X138161000Y-141912000D01*
X138120000Y-141889000D01*
X138080000Y-141865000D01*
X138041000Y-141838000D01*
X138004000Y-141809000D01*
X137968000Y-141779000D01*
X137934000Y-141746000D01*
X137901000Y-141712000D01*
X137871000Y-141676000D01*
X137842000Y-141639000D01*
X137815000Y-141600000D01*
X137791000Y-141560000D01*
X137768000Y-141519000D01*
X137748000Y-141476000D01*
X137730000Y-141433000D01*
X137714000Y-141388000D01*
X137701000Y-141343000D01*
X137690000Y-141297000D01*
X137681000Y-141251000D01*
X137675000Y-141204000D01*
X137671000Y-141157000D01*
X137670000Y-141110000D01*
X137670000Y-138610000D01*
X139470000Y-138610000D01*
X139470000Y-141110000D01*
G37*
X142010000Y-141110000D02*
X142009000Y-141157000D01*
X142005000Y-141204000D01*
X141999000Y-141251000D01*
X141990000Y-141297000D01*
X141979000Y-141343000D01*
X141966000Y-141388000D01*
X141950000Y-141433000D01*
X141932000Y-141476000D01*
X141912000Y-141519000D01*
X141889000Y-141560000D01*
X141865000Y-141600000D01*
X141838000Y-141639000D01*
X141809000Y-141676000D01*
X141779000Y-141712000D01*
X141746000Y-141746000D01*
X141712000Y-141779000D01*
X141676000Y-141809000D01*
X141639000Y-141838000D01*
X141600000Y-141865000D01*
X141560000Y-141889000D01*
X141519000Y-141912000D01*
X141476000Y-141932000D01*
X141433000Y-141950000D01*
X141388000Y-141966000D01*
X141343000Y-141979000D01*
X141297000Y-141990000D01*
X141251000Y-141999000D01*
X141204000Y-142005000D01*
X141157000Y-142009000D01*
X141110000Y-142010000D01*
X141063000Y-142009000D01*
X141016000Y-142005000D01*
X140969000Y-141999000D01*
X140923000Y-141990000D01*
X140877000Y-141979000D01*
X140832000Y-141966000D01*
X140787000Y-141950000D01*
X140744000Y-141932000D01*
X140701000Y-141912000D01*
X140660000Y-141889000D01*
X140620000Y-141865000D01*
X140581000Y-141838000D01*
X140544000Y-141809000D01*
X140508000Y-141779000D01*
X140474000Y-141746000D01*
X140441000Y-141712000D01*
X140411000Y-141676000D01*
X140382000Y-141639000D01*
X140355000Y-141600000D01*
X140331000Y-141560000D01*
X140308000Y-141519000D01*
X140288000Y-141476000D01*
X140270000Y-141433000D01*
X140254000Y-141388000D01*
X140241000Y-141343000D01*
X140230000Y-141297000D01*
X140221000Y-141251000D01*
X140215000Y-141204000D01*
X140211000Y-141157000D01*
X140210000Y-141110000D01*
X140210000Y-138610000D01*
X142010000Y-138610000D01*
X142010000Y-141110000D01*
G36*
X142010000Y-141110000D02*
G01*
X142009000Y-141157000D01*
X142005000Y-141204000D01*
X141999000Y-141251000D01*
X141990000Y-141297000D01*
X141979000Y-141343000D01*
X141966000Y-141388000D01*
X141950000Y-141433000D01*
X141932000Y-141476000D01*
X141912000Y-141519000D01*
X141889000Y-141560000D01*
X141865000Y-141600000D01*
X141838000Y-141639000D01*
X141809000Y-141676000D01*
X141779000Y-141712000D01*
X141746000Y-141746000D01*
X141712000Y-141779000D01*
X141676000Y-141809000D01*
X141639000Y-141838000D01*
X141600000Y-141865000D01*
X141560000Y-141889000D01*
X141519000Y-141912000D01*
X141476000Y-141932000D01*
X141433000Y-141950000D01*
X141388000Y-141966000D01*
X141343000Y-141979000D01*
X141297000Y-141990000D01*
X141251000Y-141999000D01*
X141204000Y-142005000D01*
X141157000Y-142009000D01*
X141110000Y-142010000D01*
X141063000Y-142009000D01*
X141016000Y-142005000D01*
X140969000Y-141999000D01*
X140923000Y-141990000D01*
X140877000Y-141979000D01*
X140832000Y-141966000D01*
X140787000Y-141950000D01*
X140744000Y-141932000D01*
X140701000Y-141912000D01*
X140660000Y-141889000D01*
X140620000Y-141865000D01*
X140581000Y-141838000D01*
X140544000Y-141809000D01*
X140508000Y-141779000D01*
X140474000Y-141746000D01*
X140441000Y-141712000D01*
X140411000Y-141676000D01*
X140382000Y-141639000D01*
X140355000Y-141600000D01*
X140331000Y-141560000D01*
X140308000Y-141519000D01*
X140288000Y-141476000D01*
X140270000Y-141433000D01*
X140254000Y-141388000D01*
X140241000Y-141343000D01*
X140230000Y-141297000D01*
X140221000Y-141251000D01*
X140215000Y-141204000D01*
X140211000Y-141157000D01*
X140210000Y-141110000D01*
X140210000Y-138610000D01*
X142010000Y-138610000D01*
X142010000Y-141110000D01*
G37*
X147090000Y-141110000D02*
X147089000Y-141157000D01*
X147085000Y-141204000D01*
X147079000Y-141251000D01*
X147070000Y-141297000D01*
X147059000Y-141343000D01*
X147046000Y-141388000D01*
X147030000Y-141433000D01*
X147012000Y-141476000D01*
X146992000Y-141519000D01*
X146969000Y-141560000D01*
X146945000Y-141600000D01*
X146918000Y-141639000D01*
X146889000Y-141676000D01*
X146859000Y-141712000D01*
X146826000Y-141746000D01*
X146792000Y-141779000D01*
X146756000Y-141809000D01*
X146719000Y-141838000D01*
X146680000Y-141865000D01*
X146640000Y-141889000D01*
X146599000Y-141912000D01*
X146556000Y-141932000D01*
X146513000Y-141950000D01*
X146468000Y-141966000D01*
X146423000Y-141979000D01*
X146377000Y-141990000D01*
X146331000Y-141999000D01*
X146284000Y-142005000D01*
X146237000Y-142009000D01*
X146190000Y-142010000D01*
X146143000Y-142009000D01*
X146096000Y-142005000D01*
X146049000Y-141999000D01*
X146003000Y-141990000D01*
X145957000Y-141979000D01*
X145912000Y-141966000D01*
X145867000Y-141950000D01*
X145824000Y-141932000D01*
X145781000Y-141912000D01*
X145740000Y-141889000D01*
X145700000Y-141865000D01*
X145661000Y-141838000D01*
X145624000Y-141809000D01*
X145588000Y-141779000D01*
X145554000Y-141746000D01*
X145521000Y-141712000D01*
X145491000Y-141676000D01*
X145462000Y-141639000D01*
X145435000Y-141600000D01*
X145411000Y-141560000D01*
X145388000Y-141519000D01*
X145368000Y-141476000D01*
X145350000Y-141433000D01*
X145334000Y-141388000D01*
X145321000Y-141343000D01*
X145310000Y-141297000D01*
X145301000Y-141251000D01*
X145295000Y-141204000D01*
X145291000Y-141157000D01*
X145290000Y-141110000D01*
X145290000Y-138610000D01*
X147090000Y-138610000D01*
X147090000Y-141110000D01*
G36*
X147090000Y-141110000D02*
G01*
X147089000Y-141157000D01*
X147085000Y-141204000D01*
X147079000Y-141251000D01*
X147070000Y-141297000D01*
X147059000Y-141343000D01*
X147046000Y-141388000D01*
X147030000Y-141433000D01*
X147012000Y-141476000D01*
X146992000Y-141519000D01*
X146969000Y-141560000D01*
X146945000Y-141600000D01*
X146918000Y-141639000D01*
X146889000Y-141676000D01*
X146859000Y-141712000D01*
X146826000Y-141746000D01*
X146792000Y-141779000D01*
X146756000Y-141809000D01*
X146719000Y-141838000D01*
X146680000Y-141865000D01*
X146640000Y-141889000D01*
X146599000Y-141912000D01*
X146556000Y-141932000D01*
X146513000Y-141950000D01*
X146468000Y-141966000D01*
X146423000Y-141979000D01*
X146377000Y-141990000D01*
X146331000Y-141999000D01*
X146284000Y-142005000D01*
X146237000Y-142009000D01*
X146190000Y-142010000D01*
X146143000Y-142009000D01*
X146096000Y-142005000D01*
X146049000Y-141999000D01*
X146003000Y-141990000D01*
X145957000Y-141979000D01*
X145912000Y-141966000D01*
X145867000Y-141950000D01*
X145824000Y-141932000D01*
X145781000Y-141912000D01*
X145740000Y-141889000D01*
X145700000Y-141865000D01*
X145661000Y-141838000D01*
X145624000Y-141809000D01*
X145588000Y-141779000D01*
X145554000Y-141746000D01*
X145521000Y-141712000D01*
X145491000Y-141676000D01*
X145462000Y-141639000D01*
X145435000Y-141600000D01*
X145411000Y-141560000D01*
X145388000Y-141519000D01*
X145368000Y-141476000D01*
X145350000Y-141433000D01*
X145334000Y-141388000D01*
X145321000Y-141343000D01*
X145310000Y-141297000D01*
X145301000Y-141251000D01*
X145295000Y-141204000D01*
X145291000Y-141157000D01*
X145290000Y-141110000D01*
X145290000Y-138610000D01*
X147090000Y-138610000D01*
X147090000Y-141110000D01*
G37*
X149630000Y-141110000D02*
X149629000Y-141157000D01*
X149625000Y-141204000D01*
X149619000Y-141251000D01*
X149610000Y-141297000D01*
X149599000Y-141343000D01*
X149586000Y-141388000D01*
X149570000Y-141433000D01*
X149552000Y-141476000D01*
X149532000Y-141519000D01*
X149509000Y-141560000D01*
X149485000Y-141600000D01*
X149458000Y-141639000D01*
X149429000Y-141676000D01*
X149399000Y-141712000D01*
X149366000Y-141746000D01*
X149332000Y-141779000D01*
X149296000Y-141809000D01*
X149259000Y-141838000D01*
X149220000Y-141865000D01*
X149180000Y-141889000D01*
X149139000Y-141912000D01*
X149096000Y-141932000D01*
X149053000Y-141950000D01*
X149008000Y-141966000D01*
X148963000Y-141979000D01*
X148917000Y-141990000D01*
X148871000Y-141999000D01*
X148824000Y-142005000D01*
X148777000Y-142009000D01*
X148730000Y-142010000D01*
X148683000Y-142009000D01*
X148636000Y-142005000D01*
X148589000Y-141999000D01*
X148543000Y-141990000D01*
X148497000Y-141979000D01*
X148452000Y-141966000D01*
X148407000Y-141950000D01*
X148364000Y-141932000D01*
X148321000Y-141912000D01*
X148280000Y-141889000D01*
X148240000Y-141865000D01*
X148201000Y-141838000D01*
X148164000Y-141809000D01*
X148128000Y-141779000D01*
X148094000Y-141746000D01*
X148061000Y-141712000D01*
X148031000Y-141676000D01*
X148002000Y-141639000D01*
X147975000Y-141600000D01*
X147951000Y-141560000D01*
X147928000Y-141519000D01*
X147908000Y-141476000D01*
X147890000Y-141433000D01*
X147874000Y-141388000D01*
X147861000Y-141343000D01*
X147850000Y-141297000D01*
X147841000Y-141251000D01*
X147835000Y-141204000D01*
X147831000Y-141157000D01*
X147830000Y-141110000D01*
X147830000Y-138610000D01*
X149630000Y-138610000D01*
X149630000Y-141110000D01*
G36*
X149630000Y-141110000D02*
G01*
X149629000Y-141157000D01*
X149625000Y-141204000D01*
X149619000Y-141251000D01*
X149610000Y-141297000D01*
X149599000Y-141343000D01*
X149586000Y-141388000D01*
X149570000Y-141433000D01*
X149552000Y-141476000D01*
X149532000Y-141519000D01*
X149509000Y-141560000D01*
X149485000Y-141600000D01*
X149458000Y-141639000D01*
X149429000Y-141676000D01*
X149399000Y-141712000D01*
X149366000Y-141746000D01*
X149332000Y-141779000D01*
X149296000Y-141809000D01*
X149259000Y-141838000D01*
X149220000Y-141865000D01*
X149180000Y-141889000D01*
X149139000Y-141912000D01*
X149096000Y-141932000D01*
X149053000Y-141950000D01*
X149008000Y-141966000D01*
X148963000Y-141979000D01*
X148917000Y-141990000D01*
X148871000Y-141999000D01*
X148824000Y-142005000D01*
X148777000Y-142009000D01*
X148730000Y-142010000D01*
X148683000Y-142009000D01*
X148636000Y-142005000D01*
X148589000Y-141999000D01*
X148543000Y-141990000D01*
X148497000Y-141979000D01*
X148452000Y-141966000D01*
X148407000Y-141950000D01*
X148364000Y-141932000D01*
X148321000Y-141912000D01*
X148280000Y-141889000D01*
X148240000Y-141865000D01*
X148201000Y-141838000D01*
X148164000Y-141809000D01*
X148128000Y-141779000D01*
X148094000Y-141746000D01*
X148061000Y-141712000D01*
X148031000Y-141676000D01*
X148002000Y-141639000D01*
X147975000Y-141600000D01*
X147951000Y-141560000D01*
X147928000Y-141519000D01*
X147908000Y-141476000D01*
X147890000Y-141433000D01*
X147874000Y-141388000D01*
X147861000Y-141343000D01*
X147850000Y-141297000D01*
X147841000Y-141251000D01*
X147835000Y-141204000D01*
X147831000Y-141157000D01*
X147830000Y-141110000D01*
X147830000Y-138610000D01*
X149630000Y-138610000D01*
X149630000Y-141110000D01*
G37*
X152170000Y-141110000D02*
X152169000Y-141157000D01*
X152165000Y-141204000D01*
X152159000Y-141251000D01*
X152150000Y-141297000D01*
X152139000Y-141343000D01*
X152126000Y-141388000D01*
X152110000Y-141433000D01*
X152092000Y-141476000D01*
X152072000Y-141519000D01*
X152049000Y-141560000D01*
X152025000Y-141600000D01*
X151998000Y-141639000D01*
X151969000Y-141676000D01*
X151939000Y-141712000D01*
X151906000Y-141746000D01*
X151872000Y-141779000D01*
X151836000Y-141809000D01*
X151799000Y-141838000D01*
X151760000Y-141865000D01*
X151720000Y-141889000D01*
X151679000Y-141912000D01*
X151636000Y-141932000D01*
X151593000Y-141950000D01*
X151548000Y-141966000D01*
X151503000Y-141979000D01*
X151457000Y-141990000D01*
X151411000Y-141999000D01*
X151364000Y-142005000D01*
X151317000Y-142009000D01*
X151270000Y-142010000D01*
X151223000Y-142009000D01*
X151176000Y-142005000D01*
X151129000Y-141999000D01*
X151083000Y-141990000D01*
X151037000Y-141979000D01*
X150992000Y-141966000D01*
X150947000Y-141950000D01*
X150904000Y-141932000D01*
X150861000Y-141912000D01*
X150820000Y-141889000D01*
X150780000Y-141865000D01*
X150741000Y-141838000D01*
X150704000Y-141809000D01*
X150668000Y-141779000D01*
X150634000Y-141746000D01*
X150601000Y-141712000D01*
X150571000Y-141676000D01*
X150542000Y-141639000D01*
X150515000Y-141600000D01*
X150491000Y-141560000D01*
X150468000Y-141519000D01*
X150448000Y-141476000D01*
X150430000Y-141433000D01*
X150414000Y-141388000D01*
X150401000Y-141343000D01*
X150390000Y-141297000D01*
X150381000Y-141251000D01*
X150375000Y-141204000D01*
X150371000Y-141157000D01*
X150370000Y-141110000D01*
X150370000Y-138610000D01*
X152170000Y-138610000D01*
X152170000Y-141110000D01*
G36*
X152170000Y-141110000D02*
G01*
X152169000Y-141157000D01*
X152165000Y-141204000D01*
X152159000Y-141251000D01*
X152150000Y-141297000D01*
X152139000Y-141343000D01*
X152126000Y-141388000D01*
X152110000Y-141433000D01*
X152092000Y-141476000D01*
X152072000Y-141519000D01*
X152049000Y-141560000D01*
X152025000Y-141600000D01*
X151998000Y-141639000D01*
X151969000Y-141676000D01*
X151939000Y-141712000D01*
X151906000Y-141746000D01*
X151872000Y-141779000D01*
X151836000Y-141809000D01*
X151799000Y-141838000D01*
X151760000Y-141865000D01*
X151720000Y-141889000D01*
X151679000Y-141912000D01*
X151636000Y-141932000D01*
X151593000Y-141950000D01*
X151548000Y-141966000D01*
X151503000Y-141979000D01*
X151457000Y-141990000D01*
X151411000Y-141999000D01*
X151364000Y-142005000D01*
X151317000Y-142009000D01*
X151270000Y-142010000D01*
X151223000Y-142009000D01*
X151176000Y-142005000D01*
X151129000Y-141999000D01*
X151083000Y-141990000D01*
X151037000Y-141979000D01*
X150992000Y-141966000D01*
X150947000Y-141950000D01*
X150904000Y-141932000D01*
X150861000Y-141912000D01*
X150820000Y-141889000D01*
X150780000Y-141865000D01*
X150741000Y-141838000D01*
X150704000Y-141809000D01*
X150668000Y-141779000D01*
X150634000Y-141746000D01*
X150601000Y-141712000D01*
X150571000Y-141676000D01*
X150542000Y-141639000D01*
X150515000Y-141600000D01*
X150491000Y-141560000D01*
X150468000Y-141519000D01*
X150448000Y-141476000D01*
X150430000Y-141433000D01*
X150414000Y-141388000D01*
X150401000Y-141343000D01*
X150390000Y-141297000D01*
X150381000Y-141251000D01*
X150375000Y-141204000D01*
X150371000Y-141157000D01*
X150370000Y-141110000D01*
X150370000Y-138610000D01*
X152170000Y-138610000D01*
X152170000Y-141110000D01*
G37*
X154710000Y-141110000D02*
X154709000Y-141157000D01*
X154705000Y-141204000D01*
X154699000Y-141251000D01*
X154690000Y-141297000D01*
X154679000Y-141343000D01*
X154666000Y-141388000D01*
X154650000Y-141433000D01*
X154632000Y-141476000D01*
X154612000Y-141519000D01*
X154589000Y-141560000D01*
X154565000Y-141600000D01*
X154538000Y-141639000D01*
X154509000Y-141676000D01*
X154479000Y-141712000D01*
X154446000Y-141746000D01*
X154412000Y-141779000D01*
X154376000Y-141809000D01*
X154339000Y-141838000D01*
X154300000Y-141865000D01*
X154260000Y-141889000D01*
X154219000Y-141912000D01*
X154176000Y-141932000D01*
X154133000Y-141950000D01*
X154088000Y-141966000D01*
X154043000Y-141979000D01*
X153997000Y-141990000D01*
X153951000Y-141999000D01*
X153904000Y-142005000D01*
X153857000Y-142009000D01*
X153810000Y-142010000D01*
X153763000Y-142009000D01*
X153716000Y-142005000D01*
X153669000Y-141999000D01*
X153623000Y-141990000D01*
X153577000Y-141979000D01*
X153532000Y-141966000D01*
X153487000Y-141950000D01*
X153444000Y-141932000D01*
X153401000Y-141912000D01*
X153360000Y-141889000D01*
X153320000Y-141865000D01*
X153281000Y-141838000D01*
X153244000Y-141809000D01*
X153208000Y-141779000D01*
X153174000Y-141746000D01*
X153141000Y-141712000D01*
X153111000Y-141676000D01*
X153082000Y-141639000D01*
X153055000Y-141600000D01*
X153031000Y-141560000D01*
X153008000Y-141519000D01*
X152988000Y-141476000D01*
X152970000Y-141433000D01*
X152954000Y-141388000D01*
X152941000Y-141343000D01*
X152930000Y-141297000D01*
X152921000Y-141251000D01*
X152915000Y-141204000D01*
X152911000Y-141157000D01*
X152910000Y-141110000D01*
X152910000Y-138610000D01*
X154710000Y-138610000D01*
X154710000Y-141110000D01*
G36*
X154710000Y-141110000D02*
G01*
X154709000Y-141157000D01*
X154705000Y-141204000D01*
X154699000Y-141251000D01*
X154690000Y-141297000D01*
X154679000Y-141343000D01*
X154666000Y-141388000D01*
X154650000Y-141433000D01*
X154632000Y-141476000D01*
X154612000Y-141519000D01*
X154589000Y-141560000D01*
X154565000Y-141600000D01*
X154538000Y-141639000D01*
X154509000Y-141676000D01*
X154479000Y-141712000D01*
X154446000Y-141746000D01*
X154412000Y-141779000D01*
X154376000Y-141809000D01*
X154339000Y-141838000D01*
X154300000Y-141865000D01*
X154260000Y-141889000D01*
X154219000Y-141912000D01*
X154176000Y-141932000D01*
X154133000Y-141950000D01*
X154088000Y-141966000D01*
X154043000Y-141979000D01*
X153997000Y-141990000D01*
X153951000Y-141999000D01*
X153904000Y-142005000D01*
X153857000Y-142009000D01*
X153810000Y-142010000D01*
X153763000Y-142009000D01*
X153716000Y-142005000D01*
X153669000Y-141999000D01*
X153623000Y-141990000D01*
X153577000Y-141979000D01*
X153532000Y-141966000D01*
X153487000Y-141950000D01*
X153444000Y-141932000D01*
X153401000Y-141912000D01*
X153360000Y-141889000D01*
X153320000Y-141865000D01*
X153281000Y-141838000D01*
X153244000Y-141809000D01*
X153208000Y-141779000D01*
X153174000Y-141746000D01*
X153141000Y-141712000D01*
X153111000Y-141676000D01*
X153082000Y-141639000D01*
X153055000Y-141600000D01*
X153031000Y-141560000D01*
X153008000Y-141519000D01*
X152988000Y-141476000D01*
X152970000Y-141433000D01*
X152954000Y-141388000D01*
X152941000Y-141343000D01*
X152930000Y-141297000D01*
X152921000Y-141251000D01*
X152915000Y-141204000D01*
X152911000Y-141157000D01*
X152910000Y-141110000D01*
X152910000Y-138610000D01*
X154710000Y-138610000D01*
X154710000Y-141110000D01*
G37*
X159790000Y-141110000D02*
X159789000Y-141157000D01*
X159785000Y-141204000D01*
X159779000Y-141251000D01*
X159770000Y-141297000D01*
X159759000Y-141343000D01*
X159746000Y-141388000D01*
X159730000Y-141433000D01*
X159712000Y-141476000D01*
X159692000Y-141519000D01*
X159669000Y-141560000D01*
X159645000Y-141600000D01*
X159618000Y-141639000D01*
X159589000Y-141676000D01*
X159559000Y-141712000D01*
X159526000Y-141746000D01*
X159492000Y-141779000D01*
X159456000Y-141809000D01*
X159419000Y-141838000D01*
X159380000Y-141865000D01*
X159340000Y-141889000D01*
X159299000Y-141912000D01*
X159256000Y-141932000D01*
X159213000Y-141950000D01*
X159168000Y-141966000D01*
X159123000Y-141979000D01*
X159077000Y-141990000D01*
X159031000Y-141999000D01*
X158984000Y-142005000D01*
X158937000Y-142009000D01*
X158890000Y-142010000D01*
X158843000Y-142009000D01*
X158796000Y-142005000D01*
X158749000Y-141999000D01*
X158703000Y-141990000D01*
X158657000Y-141979000D01*
X158612000Y-141966000D01*
X158567000Y-141950000D01*
X158524000Y-141932000D01*
X158481000Y-141912000D01*
X158440000Y-141889000D01*
X158400000Y-141865000D01*
X158361000Y-141838000D01*
X158324000Y-141809000D01*
X158288000Y-141779000D01*
X158254000Y-141746000D01*
X158221000Y-141712000D01*
X158191000Y-141676000D01*
X158162000Y-141639000D01*
X158135000Y-141600000D01*
X158111000Y-141560000D01*
X158088000Y-141519000D01*
X158068000Y-141476000D01*
X158050000Y-141433000D01*
X158034000Y-141388000D01*
X158021000Y-141343000D01*
X158010000Y-141297000D01*
X158001000Y-141251000D01*
X157995000Y-141204000D01*
X157991000Y-141157000D01*
X157990000Y-141110000D01*
X157990000Y-138610000D01*
X159790000Y-138610000D01*
X159790000Y-141110000D01*
G36*
X159790000Y-141110000D02*
G01*
X159789000Y-141157000D01*
X159785000Y-141204000D01*
X159779000Y-141251000D01*
X159770000Y-141297000D01*
X159759000Y-141343000D01*
X159746000Y-141388000D01*
X159730000Y-141433000D01*
X159712000Y-141476000D01*
X159692000Y-141519000D01*
X159669000Y-141560000D01*
X159645000Y-141600000D01*
X159618000Y-141639000D01*
X159589000Y-141676000D01*
X159559000Y-141712000D01*
X159526000Y-141746000D01*
X159492000Y-141779000D01*
X159456000Y-141809000D01*
X159419000Y-141838000D01*
X159380000Y-141865000D01*
X159340000Y-141889000D01*
X159299000Y-141912000D01*
X159256000Y-141932000D01*
X159213000Y-141950000D01*
X159168000Y-141966000D01*
X159123000Y-141979000D01*
X159077000Y-141990000D01*
X159031000Y-141999000D01*
X158984000Y-142005000D01*
X158937000Y-142009000D01*
X158890000Y-142010000D01*
X158843000Y-142009000D01*
X158796000Y-142005000D01*
X158749000Y-141999000D01*
X158703000Y-141990000D01*
X158657000Y-141979000D01*
X158612000Y-141966000D01*
X158567000Y-141950000D01*
X158524000Y-141932000D01*
X158481000Y-141912000D01*
X158440000Y-141889000D01*
X158400000Y-141865000D01*
X158361000Y-141838000D01*
X158324000Y-141809000D01*
X158288000Y-141779000D01*
X158254000Y-141746000D01*
X158221000Y-141712000D01*
X158191000Y-141676000D01*
X158162000Y-141639000D01*
X158135000Y-141600000D01*
X158111000Y-141560000D01*
X158088000Y-141519000D01*
X158068000Y-141476000D01*
X158050000Y-141433000D01*
X158034000Y-141388000D01*
X158021000Y-141343000D01*
X158010000Y-141297000D01*
X158001000Y-141251000D01*
X157995000Y-141204000D01*
X157991000Y-141157000D01*
X157990000Y-141110000D01*
X157990000Y-138610000D01*
X159790000Y-138610000D01*
X159790000Y-141110000D01*
G37*
X162330000Y-141110000D02*
X162329000Y-141157000D01*
X162325000Y-141204000D01*
X162319000Y-141251000D01*
X162310000Y-141297000D01*
X162299000Y-141343000D01*
X162286000Y-141388000D01*
X162270000Y-141433000D01*
X162252000Y-141476000D01*
X162232000Y-141519000D01*
X162209000Y-141560000D01*
X162185000Y-141600000D01*
X162158000Y-141639000D01*
X162129000Y-141676000D01*
X162099000Y-141712000D01*
X162066000Y-141746000D01*
X162032000Y-141779000D01*
X161996000Y-141809000D01*
X161959000Y-141838000D01*
X161920000Y-141865000D01*
X161880000Y-141889000D01*
X161839000Y-141912000D01*
X161796000Y-141932000D01*
X161753000Y-141950000D01*
X161708000Y-141966000D01*
X161663000Y-141979000D01*
X161617000Y-141990000D01*
X161571000Y-141999000D01*
X161524000Y-142005000D01*
X161477000Y-142009000D01*
X161430000Y-142010000D01*
X161383000Y-142009000D01*
X161336000Y-142005000D01*
X161289000Y-141999000D01*
X161243000Y-141990000D01*
X161197000Y-141979000D01*
X161152000Y-141966000D01*
X161107000Y-141950000D01*
X161064000Y-141932000D01*
X161021000Y-141912000D01*
X160980000Y-141889000D01*
X160940000Y-141865000D01*
X160901000Y-141838000D01*
X160864000Y-141809000D01*
X160828000Y-141779000D01*
X160794000Y-141746000D01*
X160761000Y-141712000D01*
X160731000Y-141676000D01*
X160702000Y-141639000D01*
X160675000Y-141600000D01*
X160651000Y-141560000D01*
X160628000Y-141519000D01*
X160608000Y-141476000D01*
X160590000Y-141433000D01*
X160574000Y-141388000D01*
X160561000Y-141343000D01*
X160550000Y-141297000D01*
X160541000Y-141251000D01*
X160535000Y-141204000D01*
X160531000Y-141157000D01*
X160530000Y-141110000D01*
X160530000Y-138610000D01*
X162330000Y-138610000D01*
X162330000Y-141110000D01*
G36*
X162330000Y-141110000D02*
G01*
X162329000Y-141157000D01*
X162325000Y-141204000D01*
X162319000Y-141251000D01*
X162310000Y-141297000D01*
X162299000Y-141343000D01*
X162286000Y-141388000D01*
X162270000Y-141433000D01*
X162252000Y-141476000D01*
X162232000Y-141519000D01*
X162209000Y-141560000D01*
X162185000Y-141600000D01*
X162158000Y-141639000D01*
X162129000Y-141676000D01*
X162099000Y-141712000D01*
X162066000Y-141746000D01*
X162032000Y-141779000D01*
X161996000Y-141809000D01*
X161959000Y-141838000D01*
X161920000Y-141865000D01*
X161880000Y-141889000D01*
X161839000Y-141912000D01*
X161796000Y-141932000D01*
X161753000Y-141950000D01*
X161708000Y-141966000D01*
X161663000Y-141979000D01*
X161617000Y-141990000D01*
X161571000Y-141999000D01*
X161524000Y-142005000D01*
X161477000Y-142009000D01*
X161430000Y-142010000D01*
X161383000Y-142009000D01*
X161336000Y-142005000D01*
X161289000Y-141999000D01*
X161243000Y-141990000D01*
X161197000Y-141979000D01*
X161152000Y-141966000D01*
X161107000Y-141950000D01*
X161064000Y-141932000D01*
X161021000Y-141912000D01*
X160980000Y-141889000D01*
X160940000Y-141865000D01*
X160901000Y-141838000D01*
X160864000Y-141809000D01*
X160828000Y-141779000D01*
X160794000Y-141746000D01*
X160761000Y-141712000D01*
X160731000Y-141676000D01*
X160702000Y-141639000D01*
X160675000Y-141600000D01*
X160651000Y-141560000D01*
X160628000Y-141519000D01*
X160608000Y-141476000D01*
X160590000Y-141433000D01*
X160574000Y-141388000D01*
X160561000Y-141343000D01*
X160550000Y-141297000D01*
X160541000Y-141251000D01*
X160535000Y-141204000D01*
X160531000Y-141157000D01*
X160530000Y-141110000D01*
X160530000Y-138610000D01*
X162330000Y-138610000D01*
X162330000Y-141110000D01*
G37*
X164870000Y-141110000D02*
X164869000Y-141157000D01*
X164865000Y-141204000D01*
X164859000Y-141251000D01*
X164850000Y-141297000D01*
X164839000Y-141343000D01*
X164826000Y-141388000D01*
X164810000Y-141433000D01*
X164792000Y-141476000D01*
X164772000Y-141519000D01*
X164749000Y-141560000D01*
X164725000Y-141600000D01*
X164698000Y-141639000D01*
X164669000Y-141676000D01*
X164639000Y-141712000D01*
X164606000Y-141746000D01*
X164572000Y-141779000D01*
X164536000Y-141809000D01*
X164499000Y-141838000D01*
X164460000Y-141865000D01*
X164420000Y-141889000D01*
X164379000Y-141912000D01*
X164336000Y-141932000D01*
X164293000Y-141950000D01*
X164248000Y-141966000D01*
X164203000Y-141979000D01*
X164157000Y-141990000D01*
X164111000Y-141999000D01*
X164064000Y-142005000D01*
X164017000Y-142009000D01*
X163970000Y-142010000D01*
X163923000Y-142009000D01*
X163876000Y-142005000D01*
X163829000Y-141999000D01*
X163783000Y-141990000D01*
X163737000Y-141979000D01*
X163692000Y-141966000D01*
X163647000Y-141950000D01*
X163604000Y-141932000D01*
X163561000Y-141912000D01*
X163520000Y-141889000D01*
X163480000Y-141865000D01*
X163441000Y-141838000D01*
X163404000Y-141809000D01*
X163368000Y-141779000D01*
X163334000Y-141746000D01*
X163301000Y-141712000D01*
X163271000Y-141676000D01*
X163242000Y-141639000D01*
X163215000Y-141600000D01*
X163191000Y-141560000D01*
X163168000Y-141519000D01*
X163148000Y-141476000D01*
X163130000Y-141433000D01*
X163114000Y-141388000D01*
X163101000Y-141343000D01*
X163090000Y-141297000D01*
X163081000Y-141251000D01*
X163075000Y-141204000D01*
X163071000Y-141157000D01*
X163070000Y-141110000D01*
X163070000Y-138610000D01*
X164870000Y-138610000D01*
X164870000Y-141110000D01*
G36*
X164870000Y-141110000D02*
G01*
X164869000Y-141157000D01*
X164865000Y-141204000D01*
X164859000Y-141251000D01*
X164850000Y-141297000D01*
X164839000Y-141343000D01*
X164826000Y-141388000D01*
X164810000Y-141433000D01*
X164792000Y-141476000D01*
X164772000Y-141519000D01*
X164749000Y-141560000D01*
X164725000Y-141600000D01*
X164698000Y-141639000D01*
X164669000Y-141676000D01*
X164639000Y-141712000D01*
X164606000Y-141746000D01*
X164572000Y-141779000D01*
X164536000Y-141809000D01*
X164499000Y-141838000D01*
X164460000Y-141865000D01*
X164420000Y-141889000D01*
X164379000Y-141912000D01*
X164336000Y-141932000D01*
X164293000Y-141950000D01*
X164248000Y-141966000D01*
X164203000Y-141979000D01*
X164157000Y-141990000D01*
X164111000Y-141999000D01*
X164064000Y-142005000D01*
X164017000Y-142009000D01*
X163970000Y-142010000D01*
X163923000Y-142009000D01*
X163876000Y-142005000D01*
X163829000Y-141999000D01*
X163783000Y-141990000D01*
X163737000Y-141979000D01*
X163692000Y-141966000D01*
X163647000Y-141950000D01*
X163604000Y-141932000D01*
X163561000Y-141912000D01*
X163520000Y-141889000D01*
X163480000Y-141865000D01*
X163441000Y-141838000D01*
X163404000Y-141809000D01*
X163368000Y-141779000D01*
X163334000Y-141746000D01*
X163301000Y-141712000D01*
X163271000Y-141676000D01*
X163242000Y-141639000D01*
X163215000Y-141600000D01*
X163191000Y-141560000D01*
X163168000Y-141519000D01*
X163148000Y-141476000D01*
X163130000Y-141433000D01*
X163114000Y-141388000D01*
X163101000Y-141343000D01*
X163090000Y-141297000D01*
X163081000Y-141251000D01*
X163075000Y-141204000D01*
X163071000Y-141157000D01*
X163070000Y-141110000D01*
X163070000Y-138610000D01*
X164870000Y-138610000D01*
X164870000Y-141110000D01*
G37*
X167410000Y-141110000D02*
X167409000Y-141157000D01*
X167405000Y-141204000D01*
X167399000Y-141251000D01*
X167390000Y-141297000D01*
X167379000Y-141343000D01*
X167366000Y-141388000D01*
X167350000Y-141433000D01*
X167332000Y-141476000D01*
X167312000Y-141519000D01*
X167289000Y-141560000D01*
X167265000Y-141600000D01*
X167238000Y-141639000D01*
X167209000Y-141676000D01*
X167179000Y-141712000D01*
X167146000Y-141746000D01*
X167112000Y-141779000D01*
X167076000Y-141809000D01*
X167039000Y-141838000D01*
X167000000Y-141865000D01*
X166960000Y-141889000D01*
X166919000Y-141912000D01*
X166876000Y-141932000D01*
X166833000Y-141950000D01*
X166788000Y-141966000D01*
X166743000Y-141979000D01*
X166697000Y-141990000D01*
X166651000Y-141999000D01*
X166604000Y-142005000D01*
X166557000Y-142009000D01*
X166510000Y-142010000D01*
X166463000Y-142009000D01*
X166416000Y-142005000D01*
X166369000Y-141999000D01*
X166323000Y-141990000D01*
X166277000Y-141979000D01*
X166232000Y-141966000D01*
X166187000Y-141950000D01*
X166144000Y-141932000D01*
X166101000Y-141912000D01*
X166060000Y-141889000D01*
X166020000Y-141865000D01*
X165981000Y-141838000D01*
X165944000Y-141809000D01*
X165908000Y-141779000D01*
X165874000Y-141746000D01*
X165841000Y-141712000D01*
X165811000Y-141676000D01*
X165782000Y-141639000D01*
X165755000Y-141600000D01*
X165731000Y-141560000D01*
X165708000Y-141519000D01*
X165688000Y-141476000D01*
X165670000Y-141433000D01*
X165654000Y-141388000D01*
X165641000Y-141343000D01*
X165630000Y-141297000D01*
X165621000Y-141251000D01*
X165615000Y-141204000D01*
X165611000Y-141157000D01*
X165610000Y-141110000D01*
X165610000Y-138610000D01*
X167410000Y-138610000D01*
X167410000Y-141110000D01*
G36*
X167410000Y-141110000D02*
G01*
X167409000Y-141157000D01*
X167405000Y-141204000D01*
X167399000Y-141251000D01*
X167390000Y-141297000D01*
X167379000Y-141343000D01*
X167366000Y-141388000D01*
X167350000Y-141433000D01*
X167332000Y-141476000D01*
X167312000Y-141519000D01*
X167289000Y-141560000D01*
X167265000Y-141600000D01*
X167238000Y-141639000D01*
X167209000Y-141676000D01*
X167179000Y-141712000D01*
X167146000Y-141746000D01*
X167112000Y-141779000D01*
X167076000Y-141809000D01*
X167039000Y-141838000D01*
X167000000Y-141865000D01*
X166960000Y-141889000D01*
X166919000Y-141912000D01*
X166876000Y-141932000D01*
X166833000Y-141950000D01*
X166788000Y-141966000D01*
X166743000Y-141979000D01*
X166697000Y-141990000D01*
X166651000Y-141999000D01*
X166604000Y-142005000D01*
X166557000Y-142009000D01*
X166510000Y-142010000D01*
X166463000Y-142009000D01*
X166416000Y-142005000D01*
X166369000Y-141999000D01*
X166323000Y-141990000D01*
X166277000Y-141979000D01*
X166232000Y-141966000D01*
X166187000Y-141950000D01*
X166144000Y-141932000D01*
X166101000Y-141912000D01*
X166060000Y-141889000D01*
X166020000Y-141865000D01*
X165981000Y-141838000D01*
X165944000Y-141809000D01*
X165908000Y-141779000D01*
X165874000Y-141746000D01*
X165841000Y-141712000D01*
X165811000Y-141676000D01*
X165782000Y-141639000D01*
X165755000Y-141600000D01*
X165731000Y-141560000D01*
X165708000Y-141519000D01*
X165688000Y-141476000D01*
X165670000Y-141433000D01*
X165654000Y-141388000D01*
X165641000Y-141343000D01*
X165630000Y-141297000D01*
X165621000Y-141251000D01*
X165615000Y-141204000D01*
X165611000Y-141157000D01*
X165610000Y-141110000D01*
X165610000Y-138610000D01*
X167410000Y-138610000D01*
X167410000Y-141110000D01*
G37*
X172490000Y-141110000D02*
X172489000Y-141157000D01*
X172485000Y-141204000D01*
X172479000Y-141251000D01*
X172470000Y-141297000D01*
X172459000Y-141343000D01*
X172446000Y-141388000D01*
X172430000Y-141433000D01*
X172412000Y-141476000D01*
X172392000Y-141519000D01*
X172369000Y-141560000D01*
X172345000Y-141600000D01*
X172318000Y-141639000D01*
X172289000Y-141676000D01*
X172259000Y-141712000D01*
X172226000Y-141746000D01*
X172192000Y-141779000D01*
X172156000Y-141809000D01*
X172119000Y-141838000D01*
X172080000Y-141865000D01*
X172040000Y-141889000D01*
X171999000Y-141912000D01*
X171956000Y-141932000D01*
X171913000Y-141950000D01*
X171868000Y-141966000D01*
X171823000Y-141979000D01*
X171777000Y-141990000D01*
X171731000Y-141999000D01*
X171684000Y-142005000D01*
X171637000Y-142009000D01*
X171590000Y-142010000D01*
X171543000Y-142009000D01*
X171496000Y-142005000D01*
X171449000Y-141999000D01*
X171403000Y-141990000D01*
X171357000Y-141979000D01*
X171312000Y-141966000D01*
X171267000Y-141950000D01*
X171224000Y-141932000D01*
X171181000Y-141912000D01*
X171140000Y-141889000D01*
X171100000Y-141865000D01*
X171061000Y-141838000D01*
X171024000Y-141809000D01*
X170988000Y-141779000D01*
X170954000Y-141746000D01*
X170921000Y-141712000D01*
X170891000Y-141676000D01*
X170862000Y-141639000D01*
X170835000Y-141600000D01*
X170811000Y-141560000D01*
X170788000Y-141519000D01*
X170768000Y-141476000D01*
X170750000Y-141433000D01*
X170734000Y-141388000D01*
X170721000Y-141343000D01*
X170710000Y-141297000D01*
X170701000Y-141251000D01*
X170695000Y-141204000D01*
X170691000Y-141157000D01*
X170690000Y-141110000D01*
X170690000Y-138610000D01*
X172490000Y-138610000D01*
X172490000Y-141110000D01*
G36*
X172490000Y-141110000D02*
G01*
X172489000Y-141157000D01*
X172485000Y-141204000D01*
X172479000Y-141251000D01*
X172470000Y-141297000D01*
X172459000Y-141343000D01*
X172446000Y-141388000D01*
X172430000Y-141433000D01*
X172412000Y-141476000D01*
X172392000Y-141519000D01*
X172369000Y-141560000D01*
X172345000Y-141600000D01*
X172318000Y-141639000D01*
X172289000Y-141676000D01*
X172259000Y-141712000D01*
X172226000Y-141746000D01*
X172192000Y-141779000D01*
X172156000Y-141809000D01*
X172119000Y-141838000D01*
X172080000Y-141865000D01*
X172040000Y-141889000D01*
X171999000Y-141912000D01*
X171956000Y-141932000D01*
X171913000Y-141950000D01*
X171868000Y-141966000D01*
X171823000Y-141979000D01*
X171777000Y-141990000D01*
X171731000Y-141999000D01*
X171684000Y-142005000D01*
X171637000Y-142009000D01*
X171590000Y-142010000D01*
X171543000Y-142009000D01*
X171496000Y-142005000D01*
X171449000Y-141999000D01*
X171403000Y-141990000D01*
X171357000Y-141979000D01*
X171312000Y-141966000D01*
X171267000Y-141950000D01*
X171224000Y-141932000D01*
X171181000Y-141912000D01*
X171140000Y-141889000D01*
X171100000Y-141865000D01*
X171061000Y-141838000D01*
X171024000Y-141809000D01*
X170988000Y-141779000D01*
X170954000Y-141746000D01*
X170921000Y-141712000D01*
X170891000Y-141676000D01*
X170862000Y-141639000D01*
X170835000Y-141600000D01*
X170811000Y-141560000D01*
X170788000Y-141519000D01*
X170768000Y-141476000D01*
X170750000Y-141433000D01*
X170734000Y-141388000D01*
X170721000Y-141343000D01*
X170710000Y-141297000D01*
X170701000Y-141251000D01*
X170695000Y-141204000D01*
X170691000Y-141157000D01*
X170690000Y-141110000D01*
X170690000Y-138610000D01*
X172490000Y-138610000D01*
X172490000Y-141110000D01*
G37*
X175030000Y-141110000D02*
X175029000Y-141157000D01*
X175025000Y-141204000D01*
X175019000Y-141251000D01*
X175010000Y-141297000D01*
X174999000Y-141343000D01*
X174986000Y-141388000D01*
X174970000Y-141433000D01*
X174952000Y-141476000D01*
X174932000Y-141519000D01*
X174909000Y-141560000D01*
X174885000Y-141600000D01*
X174858000Y-141639000D01*
X174829000Y-141676000D01*
X174799000Y-141712000D01*
X174766000Y-141746000D01*
X174732000Y-141779000D01*
X174696000Y-141809000D01*
X174659000Y-141838000D01*
X174620000Y-141865000D01*
X174580000Y-141889000D01*
X174539000Y-141912000D01*
X174496000Y-141932000D01*
X174453000Y-141950000D01*
X174408000Y-141966000D01*
X174363000Y-141979000D01*
X174317000Y-141990000D01*
X174271000Y-141999000D01*
X174224000Y-142005000D01*
X174177000Y-142009000D01*
X174130000Y-142010000D01*
X174083000Y-142009000D01*
X174036000Y-142005000D01*
X173989000Y-141999000D01*
X173943000Y-141990000D01*
X173897000Y-141979000D01*
X173852000Y-141966000D01*
X173807000Y-141950000D01*
X173764000Y-141932000D01*
X173721000Y-141912000D01*
X173680000Y-141889000D01*
X173640000Y-141865000D01*
X173601000Y-141838000D01*
X173564000Y-141809000D01*
X173528000Y-141779000D01*
X173494000Y-141746000D01*
X173461000Y-141712000D01*
X173431000Y-141676000D01*
X173402000Y-141639000D01*
X173375000Y-141600000D01*
X173351000Y-141560000D01*
X173328000Y-141519000D01*
X173308000Y-141476000D01*
X173290000Y-141433000D01*
X173274000Y-141388000D01*
X173261000Y-141343000D01*
X173250000Y-141297000D01*
X173241000Y-141251000D01*
X173235000Y-141204000D01*
X173231000Y-141157000D01*
X173230000Y-141110000D01*
X173230000Y-138610000D01*
X175030000Y-138610000D01*
X175030000Y-141110000D01*
G36*
X175030000Y-141110000D02*
G01*
X175029000Y-141157000D01*
X175025000Y-141204000D01*
X175019000Y-141251000D01*
X175010000Y-141297000D01*
X174999000Y-141343000D01*
X174986000Y-141388000D01*
X174970000Y-141433000D01*
X174952000Y-141476000D01*
X174932000Y-141519000D01*
X174909000Y-141560000D01*
X174885000Y-141600000D01*
X174858000Y-141639000D01*
X174829000Y-141676000D01*
X174799000Y-141712000D01*
X174766000Y-141746000D01*
X174732000Y-141779000D01*
X174696000Y-141809000D01*
X174659000Y-141838000D01*
X174620000Y-141865000D01*
X174580000Y-141889000D01*
X174539000Y-141912000D01*
X174496000Y-141932000D01*
X174453000Y-141950000D01*
X174408000Y-141966000D01*
X174363000Y-141979000D01*
X174317000Y-141990000D01*
X174271000Y-141999000D01*
X174224000Y-142005000D01*
X174177000Y-142009000D01*
X174130000Y-142010000D01*
X174083000Y-142009000D01*
X174036000Y-142005000D01*
X173989000Y-141999000D01*
X173943000Y-141990000D01*
X173897000Y-141979000D01*
X173852000Y-141966000D01*
X173807000Y-141950000D01*
X173764000Y-141932000D01*
X173721000Y-141912000D01*
X173680000Y-141889000D01*
X173640000Y-141865000D01*
X173601000Y-141838000D01*
X173564000Y-141809000D01*
X173528000Y-141779000D01*
X173494000Y-141746000D01*
X173461000Y-141712000D01*
X173431000Y-141676000D01*
X173402000Y-141639000D01*
X173375000Y-141600000D01*
X173351000Y-141560000D01*
X173328000Y-141519000D01*
X173308000Y-141476000D01*
X173290000Y-141433000D01*
X173274000Y-141388000D01*
X173261000Y-141343000D01*
X173250000Y-141297000D01*
X173241000Y-141251000D01*
X173235000Y-141204000D01*
X173231000Y-141157000D01*
X173230000Y-141110000D01*
X173230000Y-138610000D01*
X175030000Y-138610000D01*
X175030000Y-141110000D01*
G37*
X131581000Y-157992000D02*
X131597000Y-157994000D01*
X131612000Y-157997000D01*
X131628000Y-158000000D01*
X131643000Y-158005000D01*
X131658000Y-158010000D01*
X131672000Y-158016000D01*
X131686000Y-158023000D01*
X131700000Y-158030000D01*
X131713000Y-158038000D01*
X131726000Y-158047000D01*
X131739000Y-158057000D01*
X131751000Y-158067000D01*
X131762000Y-158078000D01*
X131773000Y-158089000D01*
X131783000Y-158101000D01*
X131793000Y-158114000D01*
X131802000Y-158127000D01*
X131810000Y-158140000D01*
X131817000Y-158154000D01*
X131824000Y-158168000D01*
X131830000Y-158182000D01*
X131835000Y-158197000D01*
X131840000Y-158212000D01*
X131843000Y-158228000D01*
X131846000Y-158243000D01*
X131848000Y-158259000D01*
X131850000Y-158274000D01*
X131850000Y-158290000D01*
X131850000Y-161390000D01*
X130050000Y-161390000D01*
X130050000Y-158290000D01*
X130050000Y-158274000D01*
X130052000Y-158259000D01*
X130054000Y-158243000D01*
X130057000Y-158228000D01*
X130060000Y-158212000D01*
X130065000Y-158197000D01*
X130070000Y-158182000D01*
X130076000Y-158168000D01*
X130083000Y-158154000D01*
X130090000Y-158140000D01*
X130098000Y-158127000D01*
X130107000Y-158114000D01*
X130117000Y-158101000D01*
X130127000Y-158089000D01*
X130138000Y-158078000D01*
X130149000Y-158067000D01*
X130161000Y-158057000D01*
X130174000Y-158047000D01*
X130187000Y-158038000D01*
X130200000Y-158030000D01*
X130214000Y-158023000D01*
X130228000Y-158016000D01*
X130242000Y-158010000D01*
X130257000Y-158005000D01*
X130272000Y-158000000D01*
X130288000Y-157997000D01*
X130303000Y-157994000D01*
X130319000Y-157992000D01*
X130334000Y-157990000D01*
X130350000Y-157990000D01*
X131550000Y-157990000D01*
X131566000Y-157990000D01*
X131581000Y-157992000D01*
G36*
X131581000Y-157992000D02*
G01*
X131597000Y-157994000D01*
X131612000Y-157997000D01*
X131628000Y-158000000D01*
X131643000Y-158005000D01*
X131658000Y-158010000D01*
X131672000Y-158016000D01*
X131686000Y-158023000D01*
X131700000Y-158030000D01*
X131713000Y-158038000D01*
X131726000Y-158047000D01*
X131739000Y-158057000D01*
X131751000Y-158067000D01*
X131762000Y-158078000D01*
X131773000Y-158089000D01*
X131783000Y-158101000D01*
X131793000Y-158114000D01*
X131802000Y-158127000D01*
X131810000Y-158140000D01*
X131817000Y-158154000D01*
X131824000Y-158168000D01*
X131830000Y-158182000D01*
X131835000Y-158197000D01*
X131840000Y-158212000D01*
X131843000Y-158228000D01*
X131846000Y-158243000D01*
X131848000Y-158259000D01*
X131850000Y-158274000D01*
X131850000Y-158290000D01*
X131850000Y-161390000D01*
X130050000Y-161390000D01*
X130050000Y-158290000D01*
X130050000Y-158274000D01*
X130052000Y-158259000D01*
X130054000Y-158243000D01*
X130057000Y-158228000D01*
X130060000Y-158212000D01*
X130065000Y-158197000D01*
X130070000Y-158182000D01*
X130076000Y-158168000D01*
X130083000Y-158154000D01*
X130090000Y-158140000D01*
X130098000Y-158127000D01*
X130107000Y-158114000D01*
X130117000Y-158101000D01*
X130127000Y-158089000D01*
X130138000Y-158078000D01*
X130149000Y-158067000D01*
X130161000Y-158057000D01*
X130174000Y-158047000D01*
X130187000Y-158038000D01*
X130200000Y-158030000D01*
X130214000Y-158023000D01*
X130228000Y-158016000D01*
X130242000Y-158010000D01*
X130257000Y-158005000D01*
X130272000Y-158000000D01*
X130288000Y-157997000D01*
X130303000Y-157994000D01*
X130319000Y-157992000D01*
X130334000Y-157990000D01*
X130350000Y-157990000D01*
X131550000Y-157990000D01*
X131566000Y-157990000D01*
X131581000Y-157992000D01*
G37*
X144281000Y-157992000D02*
X144297000Y-157994000D01*
X144312000Y-157997000D01*
X144328000Y-158000000D01*
X144343000Y-158005000D01*
X144358000Y-158010000D01*
X144372000Y-158016000D01*
X144386000Y-158023000D01*
X144400000Y-158030000D01*
X144413000Y-158038000D01*
X144426000Y-158047000D01*
X144439000Y-158057000D01*
X144451000Y-158067000D01*
X144462000Y-158078000D01*
X144473000Y-158089000D01*
X144483000Y-158101000D01*
X144493000Y-158114000D01*
X144502000Y-158127000D01*
X144510000Y-158140000D01*
X144517000Y-158154000D01*
X144524000Y-158168000D01*
X144530000Y-158182000D01*
X144535000Y-158197000D01*
X144540000Y-158212000D01*
X144543000Y-158228000D01*
X144546000Y-158243000D01*
X144548000Y-158259000D01*
X144550000Y-158274000D01*
X144550000Y-158290000D01*
X144550000Y-161390000D01*
X142750000Y-161390000D01*
X142750000Y-158290000D01*
X142750000Y-158274000D01*
X142752000Y-158259000D01*
X142754000Y-158243000D01*
X142757000Y-158228000D01*
X142760000Y-158212000D01*
X142765000Y-158197000D01*
X142770000Y-158182000D01*
X142776000Y-158168000D01*
X142783000Y-158154000D01*
X142790000Y-158140000D01*
X142798000Y-158127000D01*
X142807000Y-158114000D01*
X142817000Y-158101000D01*
X142827000Y-158089000D01*
X142838000Y-158078000D01*
X142849000Y-158067000D01*
X142861000Y-158057000D01*
X142874000Y-158047000D01*
X142887000Y-158038000D01*
X142900000Y-158030000D01*
X142914000Y-158023000D01*
X142928000Y-158016000D01*
X142942000Y-158010000D01*
X142957000Y-158005000D01*
X142972000Y-158000000D01*
X142988000Y-157997000D01*
X143003000Y-157994000D01*
X143019000Y-157992000D01*
X143034000Y-157990000D01*
X143050000Y-157990000D01*
X144250000Y-157990000D01*
X144266000Y-157990000D01*
X144281000Y-157992000D01*
G36*
X144281000Y-157992000D02*
G01*
X144297000Y-157994000D01*
X144312000Y-157997000D01*
X144328000Y-158000000D01*
X144343000Y-158005000D01*
X144358000Y-158010000D01*
X144372000Y-158016000D01*
X144386000Y-158023000D01*
X144400000Y-158030000D01*
X144413000Y-158038000D01*
X144426000Y-158047000D01*
X144439000Y-158057000D01*
X144451000Y-158067000D01*
X144462000Y-158078000D01*
X144473000Y-158089000D01*
X144483000Y-158101000D01*
X144493000Y-158114000D01*
X144502000Y-158127000D01*
X144510000Y-158140000D01*
X144517000Y-158154000D01*
X144524000Y-158168000D01*
X144530000Y-158182000D01*
X144535000Y-158197000D01*
X144540000Y-158212000D01*
X144543000Y-158228000D01*
X144546000Y-158243000D01*
X144548000Y-158259000D01*
X144550000Y-158274000D01*
X144550000Y-158290000D01*
X144550000Y-161390000D01*
X142750000Y-161390000D01*
X142750000Y-158290000D01*
X142750000Y-158274000D01*
X142752000Y-158259000D01*
X142754000Y-158243000D01*
X142757000Y-158228000D01*
X142760000Y-158212000D01*
X142765000Y-158197000D01*
X142770000Y-158182000D01*
X142776000Y-158168000D01*
X142783000Y-158154000D01*
X142790000Y-158140000D01*
X142798000Y-158127000D01*
X142807000Y-158114000D01*
X142817000Y-158101000D01*
X142827000Y-158089000D01*
X142838000Y-158078000D01*
X142849000Y-158067000D01*
X142861000Y-158057000D01*
X142874000Y-158047000D01*
X142887000Y-158038000D01*
X142900000Y-158030000D01*
X142914000Y-158023000D01*
X142928000Y-158016000D01*
X142942000Y-158010000D01*
X142957000Y-158005000D01*
X142972000Y-158000000D01*
X142988000Y-157997000D01*
X143003000Y-157994000D01*
X143019000Y-157992000D01*
X143034000Y-157990000D01*
X143050000Y-157990000D01*
X144250000Y-157990000D01*
X144266000Y-157990000D01*
X144281000Y-157992000D01*
G37*
X156981000Y-157992000D02*
X156997000Y-157994000D01*
X157012000Y-157997000D01*
X157028000Y-158000000D01*
X157043000Y-158005000D01*
X157058000Y-158010000D01*
X157072000Y-158016000D01*
X157086000Y-158023000D01*
X157100000Y-158030000D01*
X157113000Y-158038000D01*
X157126000Y-158047000D01*
X157139000Y-158057000D01*
X157151000Y-158067000D01*
X157162000Y-158078000D01*
X157173000Y-158089000D01*
X157183000Y-158101000D01*
X157193000Y-158114000D01*
X157202000Y-158127000D01*
X157210000Y-158140000D01*
X157217000Y-158154000D01*
X157224000Y-158168000D01*
X157230000Y-158182000D01*
X157235000Y-158197000D01*
X157240000Y-158212000D01*
X157243000Y-158228000D01*
X157246000Y-158243000D01*
X157248000Y-158259000D01*
X157250000Y-158274000D01*
X157250000Y-158290000D01*
X157250000Y-161390000D01*
X155450000Y-161390000D01*
X155450000Y-158290000D01*
X155450000Y-158274000D01*
X155452000Y-158259000D01*
X155454000Y-158243000D01*
X155457000Y-158228000D01*
X155460000Y-158212000D01*
X155465000Y-158197000D01*
X155470000Y-158182000D01*
X155476000Y-158168000D01*
X155483000Y-158154000D01*
X155490000Y-158140000D01*
X155498000Y-158127000D01*
X155507000Y-158114000D01*
X155517000Y-158101000D01*
X155527000Y-158089000D01*
X155538000Y-158078000D01*
X155549000Y-158067000D01*
X155561000Y-158057000D01*
X155574000Y-158047000D01*
X155587000Y-158038000D01*
X155600000Y-158030000D01*
X155614000Y-158023000D01*
X155628000Y-158016000D01*
X155642000Y-158010000D01*
X155657000Y-158005000D01*
X155672000Y-158000000D01*
X155688000Y-157997000D01*
X155703000Y-157994000D01*
X155719000Y-157992000D01*
X155734000Y-157990000D01*
X155750000Y-157990000D01*
X156950000Y-157990000D01*
X156966000Y-157990000D01*
X156981000Y-157992000D01*
G36*
X156981000Y-157992000D02*
G01*
X156997000Y-157994000D01*
X157012000Y-157997000D01*
X157028000Y-158000000D01*
X157043000Y-158005000D01*
X157058000Y-158010000D01*
X157072000Y-158016000D01*
X157086000Y-158023000D01*
X157100000Y-158030000D01*
X157113000Y-158038000D01*
X157126000Y-158047000D01*
X157139000Y-158057000D01*
X157151000Y-158067000D01*
X157162000Y-158078000D01*
X157173000Y-158089000D01*
X157183000Y-158101000D01*
X157193000Y-158114000D01*
X157202000Y-158127000D01*
X157210000Y-158140000D01*
X157217000Y-158154000D01*
X157224000Y-158168000D01*
X157230000Y-158182000D01*
X157235000Y-158197000D01*
X157240000Y-158212000D01*
X157243000Y-158228000D01*
X157246000Y-158243000D01*
X157248000Y-158259000D01*
X157250000Y-158274000D01*
X157250000Y-158290000D01*
X157250000Y-161390000D01*
X155450000Y-161390000D01*
X155450000Y-158290000D01*
X155450000Y-158274000D01*
X155452000Y-158259000D01*
X155454000Y-158243000D01*
X155457000Y-158228000D01*
X155460000Y-158212000D01*
X155465000Y-158197000D01*
X155470000Y-158182000D01*
X155476000Y-158168000D01*
X155483000Y-158154000D01*
X155490000Y-158140000D01*
X155498000Y-158127000D01*
X155507000Y-158114000D01*
X155517000Y-158101000D01*
X155527000Y-158089000D01*
X155538000Y-158078000D01*
X155549000Y-158067000D01*
X155561000Y-158057000D01*
X155574000Y-158047000D01*
X155587000Y-158038000D01*
X155600000Y-158030000D01*
X155614000Y-158023000D01*
X155628000Y-158016000D01*
X155642000Y-158010000D01*
X155657000Y-158005000D01*
X155672000Y-158000000D01*
X155688000Y-157997000D01*
X155703000Y-157994000D01*
X155719000Y-157992000D01*
X155734000Y-157990000D01*
X155750000Y-157990000D01*
X156950000Y-157990000D01*
X156966000Y-157990000D01*
X156981000Y-157992000D01*
G37*
X169681000Y-157992000D02*
X169697000Y-157994000D01*
X169712000Y-157997000D01*
X169728000Y-158000000D01*
X169743000Y-158005000D01*
X169758000Y-158010000D01*
X169772000Y-158016000D01*
X169786000Y-158023000D01*
X169800000Y-158030000D01*
X169813000Y-158038000D01*
X169826000Y-158047000D01*
X169839000Y-158057000D01*
X169851000Y-158067000D01*
X169862000Y-158078000D01*
X169873000Y-158089000D01*
X169883000Y-158101000D01*
X169893000Y-158114000D01*
X169902000Y-158127000D01*
X169910000Y-158140000D01*
X169917000Y-158154000D01*
X169924000Y-158168000D01*
X169930000Y-158182000D01*
X169935000Y-158197000D01*
X169940000Y-158212000D01*
X169943000Y-158228000D01*
X169946000Y-158243000D01*
X169948000Y-158259000D01*
X169950000Y-158274000D01*
X169950000Y-158290000D01*
X169950000Y-161390000D01*
X168150000Y-161390000D01*
X168150000Y-158290000D01*
X168150000Y-158274000D01*
X168152000Y-158259000D01*
X168154000Y-158243000D01*
X168157000Y-158228000D01*
X168160000Y-158212000D01*
X168165000Y-158197000D01*
X168170000Y-158182000D01*
X168176000Y-158168000D01*
X168183000Y-158154000D01*
X168190000Y-158140000D01*
X168198000Y-158127000D01*
X168207000Y-158114000D01*
X168217000Y-158101000D01*
X168227000Y-158089000D01*
X168238000Y-158078000D01*
X168249000Y-158067000D01*
X168261000Y-158057000D01*
X168274000Y-158047000D01*
X168287000Y-158038000D01*
X168300000Y-158030000D01*
X168314000Y-158023000D01*
X168328000Y-158016000D01*
X168342000Y-158010000D01*
X168357000Y-158005000D01*
X168372000Y-158000000D01*
X168388000Y-157997000D01*
X168403000Y-157994000D01*
X168419000Y-157992000D01*
X168434000Y-157990000D01*
X168450000Y-157990000D01*
X169650000Y-157990000D01*
X169666000Y-157990000D01*
X169681000Y-157992000D01*
G36*
X169681000Y-157992000D02*
G01*
X169697000Y-157994000D01*
X169712000Y-157997000D01*
X169728000Y-158000000D01*
X169743000Y-158005000D01*
X169758000Y-158010000D01*
X169772000Y-158016000D01*
X169786000Y-158023000D01*
X169800000Y-158030000D01*
X169813000Y-158038000D01*
X169826000Y-158047000D01*
X169839000Y-158057000D01*
X169851000Y-158067000D01*
X169862000Y-158078000D01*
X169873000Y-158089000D01*
X169883000Y-158101000D01*
X169893000Y-158114000D01*
X169902000Y-158127000D01*
X169910000Y-158140000D01*
X169917000Y-158154000D01*
X169924000Y-158168000D01*
X169930000Y-158182000D01*
X169935000Y-158197000D01*
X169940000Y-158212000D01*
X169943000Y-158228000D01*
X169946000Y-158243000D01*
X169948000Y-158259000D01*
X169950000Y-158274000D01*
X169950000Y-158290000D01*
X169950000Y-161390000D01*
X168150000Y-161390000D01*
X168150000Y-158290000D01*
X168150000Y-158274000D01*
X168152000Y-158259000D01*
X168154000Y-158243000D01*
X168157000Y-158228000D01*
X168160000Y-158212000D01*
X168165000Y-158197000D01*
X168170000Y-158182000D01*
X168176000Y-158168000D01*
X168183000Y-158154000D01*
X168190000Y-158140000D01*
X168198000Y-158127000D01*
X168207000Y-158114000D01*
X168217000Y-158101000D01*
X168227000Y-158089000D01*
X168238000Y-158078000D01*
X168249000Y-158067000D01*
X168261000Y-158057000D01*
X168274000Y-158047000D01*
X168287000Y-158038000D01*
X168300000Y-158030000D01*
X168314000Y-158023000D01*
X168328000Y-158016000D01*
X168342000Y-158010000D01*
X168357000Y-158005000D01*
X168372000Y-158000000D01*
X168388000Y-157997000D01*
X168403000Y-157994000D01*
X168419000Y-157992000D01*
X168434000Y-157990000D01*
X168450000Y-157990000D01*
X169650000Y-157990000D01*
X169666000Y-157990000D01*
X169681000Y-157992000D01*
G37*
X126731000Y-149102000D02*
X126747000Y-149104000D01*
X126762000Y-149107000D01*
X126778000Y-149110000D01*
X126793000Y-149115000D01*
X126808000Y-149120000D01*
X126822000Y-149126000D01*
X126836000Y-149133000D01*
X126850000Y-149140000D01*
X126863000Y-149148000D01*
X126876000Y-149157000D01*
X126889000Y-149167000D01*
X126901000Y-149177000D01*
X126912000Y-149188000D01*
X126923000Y-149199000D01*
X126933000Y-149211000D01*
X126943000Y-149224000D01*
X126952000Y-149237000D01*
X126960000Y-149250000D01*
X126967000Y-149264000D01*
X126974000Y-149278000D01*
X126980000Y-149292000D01*
X126985000Y-149307000D01*
X126990000Y-149322000D01*
X126993000Y-149338000D01*
X126996000Y-149353000D01*
X126998000Y-149369000D01*
X127000000Y-149384000D01*
X127000000Y-149400000D01*
X127000000Y-150600000D01*
X127000000Y-150616000D01*
X126998000Y-150631000D01*
X126996000Y-150647000D01*
X126993000Y-150662000D01*
X126990000Y-150678000D01*
X126985000Y-150693000D01*
X126980000Y-150708000D01*
X126974000Y-150722000D01*
X126967000Y-150736000D01*
X126960000Y-150750000D01*
X126952000Y-150763000D01*
X126943000Y-150776000D01*
X126933000Y-150789000D01*
X126923000Y-150801000D01*
X126912000Y-150812000D01*
X126901000Y-150823000D01*
X126889000Y-150833000D01*
X126876000Y-150843000D01*
X126863000Y-150852000D01*
X126850000Y-150860000D01*
X126836000Y-150867000D01*
X126822000Y-150874000D01*
X126808000Y-150880000D01*
X126793000Y-150885000D01*
X126778000Y-150890000D01*
X126762000Y-150893000D01*
X126747000Y-150896000D01*
X126731000Y-150898000D01*
X126716000Y-150900000D01*
X126700000Y-150900000D01*
X123600000Y-150900000D01*
X123600000Y-149100000D01*
X126700000Y-149100000D01*
X126716000Y-149100000D01*
X126731000Y-149102000D01*
G36*
X126731000Y-149102000D02*
G01*
X126747000Y-149104000D01*
X126762000Y-149107000D01*
X126778000Y-149110000D01*
X126793000Y-149115000D01*
X126808000Y-149120000D01*
X126822000Y-149126000D01*
X126836000Y-149133000D01*
X126850000Y-149140000D01*
X126863000Y-149148000D01*
X126876000Y-149157000D01*
X126889000Y-149167000D01*
X126901000Y-149177000D01*
X126912000Y-149188000D01*
X126923000Y-149199000D01*
X126933000Y-149211000D01*
X126943000Y-149224000D01*
X126952000Y-149237000D01*
X126960000Y-149250000D01*
X126967000Y-149264000D01*
X126974000Y-149278000D01*
X126980000Y-149292000D01*
X126985000Y-149307000D01*
X126990000Y-149322000D01*
X126993000Y-149338000D01*
X126996000Y-149353000D01*
X126998000Y-149369000D01*
X127000000Y-149384000D01*
X127000000Y-149400000D01*
X127000000Y-150600000D01*
X127000000Y-150616000D01*
X126998000Y-150631000D01*
X126996000Y-150647000D01*
X126993000Y-150662000D01*
X126990000Y-150678000D01*
X126985000Y-150693000D01*
X126980000Y-150708000D01*
X126974000Y-150722000D01*
X126967000Y-150736000D01*
X126960000Y-150750000D01*
X126952000Y-150763000D01*
X126943000Y-150776000D01*
X126933000Y-150789000D01*
X126923000Y-150801000D01*
X126912000Y-150812000D01*
X126901000Y-150823000D01*
X126889000Y-150833000D01*
X126876000Y-150843000D01*
X126863000Y-150852000D01*
X126850000Y-150860000D01*
X126836000Y-150867000D01*
X126822000Y-150874000D01*
X126808000Y-150880000D01*
X126793000Y-150885000D01*
X126778000Y-150890000D01*
X126762000Y-150893000D01*
X126747000Y-150896000D01*
X126731000Y-150898000D01*
X126716000Y-150900000D01*
X126700000Y-150900000D01*
X123600000Y-150900000D01*
X123600000Y-149100000D01*
X126700000Y-149100000D01*
X126716000Y-149100000D01*
X126731000Y-149102000D01*
G37*
X131850000Y-141710000D02*
X131850000Y-141726000D01*
X131848000Y-141741000D01*
X131846000Y-141757000D01*
X131843000Y-141772000D01*
X131840000Y-141788000D01*
X131835000Y-141803000D01*
X131830000Y-141818000D01*
X131824000Y-141832000D01*
X131817000Y-141846000D01*
X131810000Y-141860000D01*
X131802000Y-141873000D01*
X131793000Y-141886000D01*
X131783000Y-141899000D01*
X131773000Y-141911000D01*
X131762000Y-141922000D01*
X131751000Y-141933000D01*
X131739000Y-141943000D01*
X131726000Y-141953000D01*
X131713000Y-141962000D01*
X131700000Y-141970000D01*
X131686000Y-141977000D01*
X131672000Y-141984000D01*
X131658000Y-141990000D01*
X131643000Y-141995000D01*
X131628000Y-142000000D01*
X131612000Y-142003000D01*
X131597000Y-142006000D01*
X131581000Y-142008000D01*
X131566000Y-142010000D01*
X131550000Y-142010000D01*
X130350000Y-142010000D01*
X130334000Y-142010000D01*
X130319000Y-142008000D01*
X130303000Y-142006000D01*
X130288000Y-142003000D01*
X130272000Y-142000000D01*
X130257000Y-141995000D01*
X130242000Y-141990000D01*
X130228000Y-141984000D01*
X130214000Y-141977000D01*
X130200000Y-141970000D01*
X130187000Y-141962000D01*
X130174000Y-141953000D01*
X130161000Y-141943000D01*
X130149000Y-141933000D01*
X130138000Y-141922000D01*
X130127000Y-141911000D01*
X130117000Y-141899000D01*
X130107000Y-141886000D01*
X130098000Y-141873000D01*
X130090000Y-141860000D01*
X130083000Y-141846000D01*
X130076000Y-141832000D01*
X130070000Y-141818000D01*
X130065000Y-141803000D01*
X130060000Y-141788000D01*
X130057000Y-141772000D01*
X130054000Y-141757000D01*
X130052000Y-141741000D01*
X130050000Y-141726000D01*
X130050000Y-141710000D01*
X130050000Y-138610000D01*
X131850000Y-138610000D01*
X131850000Y-141710000D01*
G36*
X131850000Y-141710000D02*
G01*
X131850000Y-141726000D01*
X131848000Y-141741000D01*
X131846000Y-141757000D01*
X131843000Y-141772000D01*
X131840000Y-141788000D01*
X131835000Y-141803000D01*
X131830000Y-141818000D01*
X131824000Y-141832000D01*
X131817000Y-141846000D01*
X131810000Y-141860000D01*
X131802000Y-141873000D01*
X131793000Y-141886000D01*
X131783000Y-141899000D01*
X131773000Y-141911000D01*
X131762000Y-141922000D01*
X131751000Y-141933000D01*
X131739000Y-141943000D01*
X131726000Y-141953000D01*
X131713000Y-141962000D01*
X131700000Y-141970000D01*
X131686000Y-141977000D01*
X131672000Y-141984000D01*
X131658000Y-141990000D01*
X131643000Y-141995000D01*
X131628000Y-142000000D01*
X131612000Y-142003000D01*
X131597000Y-142006000D01*
X131581000Y-142008000D01*
X131566000Y-142010000D01*
X131550000Y-142010000D01*
X130350000Y-142010000D01*
X130334000Y-142010000D01*
X130319000Y-142008000D01*
X130303000Y-142006000D01*
X130288000Y-142003000D01*
X130272000Y-142000000D01*
X130257000Y-141995000D01*
X130242000Y-141990000D01*
X130228000Y-141984000D01*
X130214000Y-141977000D01*
X130200000Y-141970000D01*
X130187000Y-141962000D01*
X130174000Y-141953000D01*
X130161000Y-141943000D01*
X130149000Y-141933000D01*
X130138000Y-141922000D01*
X130127000Y-141911000D01*
X130117000Y-141899000D01*
X130107000Y-141886000D01*
X130098000Y-141873000D01*
X130090000Y-141860000D01*
X130083000Y-141846000D01*
X130076000Y-141832000D01*
X130070000Y-141818000D01*
X130065000Y-141803000D01*
X130060000Y-141788000D01*
X130057000Y-141772000D01*
X130054000Y-141757000D01*
X130052000Y-141741000D01*
X130050000Y-141726000D01*
X130050000Y-141710000D01*
X130050000Y-138610000D01*
X131850000Y-138610000D01*
X131850000Y-141710000D01*
G37*
X144550000Y-141710000D02*
X144550000Y-141726000D01*
X144548000Y-141741000D01*
X144546000Y-141757000D01*
X144543000Y-141772000D01*
X144540000Y-141788000D01*
X144535000Y-141803000D01*
X144530000Y-141818000D01*
X144524000Y-141832000D01*
X144517000Y-141846000D01*
X144510000Y-141860000D01*
X144502000Y-141873000D01*
X144493000Y-141886000D01*
X144483000Y-141899000D01*
X144473000Y-141911000D01*
X144462000Y-141922000D01*
X144451000Y-141933000D01*
X144439000Y-141943000D01*
X144426000Y-141953000D01*
X144413000Y-141962000D01*
X144400000Y-141970000D01*
X144386000Y-141977000D01*
X144372000Y-141984000D01*
X144358000Y-141990000D01*
X144343000Y-141995000D01*
X144328000Y-142000000D01*
X144312000Y-142003000D01*
X144297000Y-142006000D01*
X144281000Y-142008000D01*
X144266000Y-142010000D01*
X144250000Y-142010000D01*
X143050000Y-142010000D01*
X143034000Y-142010000D01*
X143019000Y-142008000D01*
X143003000Y-142006000D01*
X142988000Y-142003000D01*
X142972000Y-142000000D01*
X142957000Y-141995000D01*
X142942000Y-141990000D01*
X142928000Y-141984000D01*
X142914000Y-141977000D01*
X142900000Y-141970000D01*
X142887000Y-141962000D01*
X142874000Y-141953000D01*
X142861000Y-141943000D01*
X142849000Y-141933000D01*
X142838000Y-141922000D01*
X142827000Y-141911000D01*
X142817000Y-141899000D01*
X142807000Y-141886000D01*
X142798000Y-141873000D01*
X142790000Y-141860000D01*
X142783000Y-141846000D01*
X142776000Y-141832000D01*
X142770000Y-141818000D01*
X142765000Y-141803000D01*
X142760000Y-141788000D01*
X142757000Y-141772000D01*
X142754000Y-141757000D01*
X142752000Y-141741000D01*
X142750000Y-141726000D01*
X142750000Y-141710000D01*
X142750000Y-138610000D01*
X144550000Y-138610000D01*
X144550000Y-141710000D01*
G36*
X144550000Y-141710000D02*
G01*
X144550000Y-141726000D01*
X144548000Y-141741000D01*
X144546000Y-141757000D01*
X144543000Y-141772000D01*
X144540000Y-141788000D01*
X144535000Y-141803000D01*
X144530000Y-141818000D01*
X144524000Y-141832000D01*
X144517000Y-141846000D01*
X144510000Y-141860000D01*
X144502000Y-141873000D01*
X144493000Y-141886000D01*
X144483000Y-141899000D01*
X144473000Y-141911000D01*
X144462000Y-141922000D01*
X144451000Y-141933000D01*
X144439000Y-141943000D01*
X144426000Y-141953000D01*
X144413000Y-141962000D01*
X144400000Y-141970000D01*
X144386000Y-141977000D01*
X144372000Y-141984000D01*
X144358000Y-141990000D01*
X144343000Y-141995000D01*
X144328000Y-142000000D01*
X144312000Y-142003000D01*
X144297000Y-142006000D01*
X144281000Y-142008000D01*
X144266000Y-142010000D01*
X144250000Y-142010000D01*
X143050000Y-142010000D01*
X143034000Y-142010000D01*
X143019000Y-142008000D01*
X143003000Y-142006000D01*
X142988000Y-142003000D01*
X142972000Y-142000000D01*
X142957000Y-141995000D01*
X142942000Y-141990000D01*
X142928000Y-141984000D01*
X142914000Y-141977000D01*
X142900000Y-141970000D01*
X142887000Y-141962000D01*
X142874000Y-141953000D01*
X142861000Y-141943000D01*
X142849000Y-141933000D01*
X142838000Y-141922000D01*
X142827000Y-141911000D01*
X142817000Y-141899000D01*
X142807000Y-141886000D01*
X142798000Y-141873000D01*
X142790000Y-141860000D01*
X142783000Y-141846000D01*
X142776000Y-141832000D01*
X142770000Y-141818000D01*
X142765000Y-141803000D01*
X142760000Y-141788000D01*
X142757000Y-141772000D01*
X142754000Y-141757000D01*
X142752000Y-141741000D01*
X142750000Y-141726000D01*
X142750000Y-141710000D01*
X142750000Y-138610000D01*
X144550000Y-138610000D01*
X144550000Y-141710000D01*
G37*
X157250000Y-141710000D02*
X157250000Y-141726000D01*
X157248000Y-141741000D01*
X157246000Y-141757000D01*
X157243000Y-141772000D01*
X157240000Y-141788000D01*
X157235000Y-141803000D01*
X157230000Y-141818000D01*
X157224000Y-141832000D01*
X157217000Y-141846000D01*
X157210000Y-141860000D01*
X157202000Y-141873000D01*
X157193000Y-141886000D01*
X157183000Y-141899000D01*
X157173000Y-141911000D01*
X157162000Y-141922000D01*
X157151000Y-141933000D01*
X157139000Y-141943000D01*
X157126000Y-141953000D01*
X157113000Y-141962000D01*
X157100000Y-141970000D01*
X157086000Y-141977000D01*
X157072000Y-141984000D01*
X157058000Y-141990000D01*
X157043000Y-141995000D01*
X157028000Y-142000000D01*
X157012000Y-142003000D01*
X156997000Y-142006000D01*
X156981000Y-142008000D01*
X156966000Y-142010000D01*
X156950000Y-142010000D01*
X155750000Y-142010000D01*
X155734000Y-142010000D01*
X155719000Y-142008000D01*
X155703000Y-142006000D01*
X155688000Y-142003000D01*
X155672000Y-142000000D01*
X155657000Y-141995000D01*
X155642000Y-141990000D01*
X155628000Y-141984000D01*
X155614000Y-141977000D01*
X155600000Y-141970000D01*
X155587000Y-141962000D01*
X155574000Y-141953000D01*
X155561000Y-141943000D01*
X155549000Y-141933000D01*
X155538000Y-141922000D01*
X155527000Y-141911000D01*
X155517000Y-141899000D01*
X155507000Y-141886000D01*
X155498000Y-141873000D01*
X155490000Y-141860000D01*
X155483000Y-141846000D01*
X155476000Y-141832000D01*
X155470000Y-141818000D01*
X155465000Y-141803000D01*
X155460000Y-141788000D01*
X155457000Y-141772000D01*
X155454000Y-141757000D01*
X155452000Y-141741000D01*
X155450000Y-141726000D01*
X155450000Y-141710000D01*
X155450000Y-138610000D01*
X157250000Y-138610000D01*
X157250000Y-141710000D01*
G36*
X157250000Y-141710000D02*
G01*
X157250000Y-141726000D01*
X157248000Y-141741000D01*
X157246000Y-141757000D01*
X157243000Y-141772000D01*
X157240000Y-141788000D01*
X157235000Y-141803000D01*
X157230000Y-141818000D01*
X157224000Y-141832000D01*
X157217000Y-141846000D01*
X157210000Y-141860000D01*
X157202000Y-141873000D01*
X157193000Y-141886000D01*
X157183000Y-141899000D01*
X157173000Y-141911000D01*
X157162000Y-141922000D01*
X157151000Y-141933000D01*
X157139000Y-141943000D01*
X157126000Y-141953000D01*
X157113000Y-141962000D01*
X157100000Y-141970000D01*
X157086000Y-141977000D01*
X157072000Y-141984000D01*
X157058000Y-141990000D01*
X157043000Y-141995000D01*
X157028000Y-142000000D01*
X157012000Y-142003000D01*
X156997000Y-142006000D01*
X156981000Y-142008000D01*
X156966000Y-142010000D01*
X156950000Y-142010000D01*
X155750000Y-142010000D01*
X155734000Y-142010000D01*
X155719000Y-142008000D01*
X155703000Y-142006000D01*
X155688000Y-142003000D01*
X155672000Y-142000000D01*
X155657000Y-141995000D01*
X155642000Y-141990000D01*
X155628000Y-141984000D01*
X155614000Y-141977000D01*
X155600000Y-141970000D01*
X155587000Y-141962000D01*
X155574000Y-141953000D01*
X155561000Y-141943000D01*
X155549000Y-141933000D01*
X155538000Y-141922000D01*
X155527000Y-141911000D01*
X155517000Y-141899000D01*
X155507000Y-141886000D01*
X155498000Y-141873000D01*
X155490000Y-141860000D01*
X155483000Y-141846000D01*
X155476000Y-141832000D01*
X155470000Y-141818000D01*
X155465000Y-141803000D01*
X155460000Y-141788000D01*
X155457000Y-141772000D01*
X155454000Y-141757000D01*
X155452000Y-141741000D01*
X155450000Y-141726000D01*
X155450000Y-141710000D01*
X155450000Y-138610000D01*
X157250000Y-138610000D01*
X157250000Y-141710000D01*
G37*
X169950000Y-141710000D02*
X169950000Y-141726000D01*
X169948000Y-141741000D01*
X169946000Y-141757000D01*
X169943000Y-141772000D01*
X169940000Y-141788000D01*
X169935000Y-141803000D01*
X169930000Y-141818000D01*
X169924000Y-141832000D01*
X169917000Y-141846000D01*
X169910000Y-141860000D01*
X169902000Y-141873000D01*
X169893000Y-141886000D01*
X169883000Y-141899000D01*
X169873000Y-141911000D01*
X169862000Y-141922000D01*
X169851000Y-141933000D01*
X169839000Y-141943000D01*
X169826000Y-141953000D01*
X169813000Y-141962000D01*
X169800000Y-141970000D01*
X169786000Y-141977000D01*
X169772000Y-141984000D01*
X169758000Y-141990000D01*
X169743000Y-141995000D01*
X169728000Y-142000000D01*
X169712000Y-142003000D01*
X169697000Y-142006000D01*
X169681000Y-142008000D01*
X169666000Y-142010000D01*
X169650000Y-142010000D01*
X168450000Y-142010000D01*
X168434000Y-142010000D01*
X168419000Y-142008000D01*
X168403000Y-142006000D01*
X168388000Y-142003000D01*
X168372000Y-142000000D01*
X168357000Y-141995000D01*
X168342000Y-141990000D01*
X168328000Y-141984000D01*
X168314000Y-141977000D01*
X168300000Y-141970000D01*
X168287000Y-141962000D01*
X168274000Y-141953000D01*
X168261000Y-141943000D01*
X168249000Y-141933000D01*
X168238000Y-141922000D01*
X168227000Y-141911000D01*
X168217000Y-141899000D01*
X168207000Y-141886000D01*
X168198000Y-141873000D01*
X168190000Y-141860000D01*
X168183000Y-141846000D01*
X168176000Y-141832000D01*
X168170000Y-141818000D01*
X168165000Y-141803000D01*
X168160000Y-141788000D01*
X168157000Y-141772000D01*
X168154000Y-141757000D01*
X168152000Y-141741000D01*
X168150000Y-141726000D01*
X168150000Y-141710000D01*
X168150000Y-138610000D01*
X169950000Y-138610000D01*
X169950000Y-141710000D01*
G36*
X169950000Y-141710000D02*
G01*
X169950000Y-141726000D01*
X169948000Y-141741000D01*
X169946000Y-141757000D01*
X169943000Y-141772000D01*
X169940000Y-141788000D01*
X169935000Y-141803000D01*
X169930000Y-141818000D01*
X169924000Y-141832000D01*
X169917000Y-141846000D01*
X169910000Y-141860000D01*
X169902000Y-141873000D01*
X169893000Y-141886000D01*
X169883000Y-141899000D01*
X169873000Y-141911000D01*
X169862000Y-141922000D01*
X169851000Y-141933000D01*
X169839000Y-141943000D01*
X169826000Y-141953000D01*
X169813000Y-141962000D01*
X169800000Y-141970000D01*
X169786000Y-141977000D01*
X169772000Y-141984000D01*
X169758000Y-141990000D01*
X169743000Y-141995000D01*
X169728000Y-142000000D01*
X169712000Y-142003000D01*
X169697000Y-142006000D01*
X169681000Y-142008000D01*
X169666000Y-142010000D01*
X169650000Y-142010000D01*
X168450000Y-142010000D01*
X168434000Y-142010000D01*
X168419000Y-142008000D01*
X168403000Y-142006000D01*
X168388000Y-142003000D01*
X168372000Y-142000000D01*
X168357000Y-141995000D01*
X168342000Y-141990000D01*
X168328000Y-141984000D01*
X168314000Y-141977000D01*
X168300000Y-141970000D01*
X168287000Y-141962000D01*
X168274000Y-141953000D01*
X168261000Y-141943000D01*
X168249000Y-141933000D01*
X168238000Y-141922000D01*
X168227000Y-141911000D01*
X168217000Y-141899000D01*
X168207000Y-141886000D01*
X168198000Y-141873000D01*
X168190000Y-141860000D01*
X168183000Y-141846000D01*
X168176000Y-141832000D01*
X168170000Y-141818000D01*
X168165000Y-141803000D01*
X168160000Y-141788000D01*
X168157000Y-141772000D01*
X168154000Y-141757000D01*
X168152000Y-141741000D01*
X168150000Y-141726000D01*
X168150000Y-141710000D01*
X168150000Y-138610000D01*
X169950000Y-138610000D01*
X169950000Y-141710000D01*
G37*
%TD*%
D11*
%TO.C,J1*%
X193969580Y-170522881D03*
X195737347Y-168755114D03*
X197505114Y-166987347D03*
D12*
X199272881Y-165219580D03*
%TD*%
D13*
%TO.C,U2*%
X187161605Y-142813028D03*
X187806044Y-142728186D03*
X188450483Y-142643344D03*
X189094922Y-142558502D03*
X189739361Y-142473660D03*
X190383801Y-142388818D03*
X191028240Y-142303976D03*
X191778765Y-148004784D03*
X191134326Y-148089626D03*
X190489887Y-148174468D03*
X189845448Y-148259310D03*
X189201009Y-148344152D03*
X188556569Y-148428994D03*
X187912130Y-148513836D03*
%TD*%
D14*
%TO.C,LED18*%
X94728987Y-163956860D03*
D15*
X95293523Y-166063737D03*
%TD*%
D16*
%TO.C,R65*%
X128500000Y-162950000D03*
X128500000Y-165050000D03*
%TD*%
D17*
%TO.C,U3*%
X174804903Y-178589408D03*
X175200598Y-179105088D03*
X175596293Y-179620767D03*
X175991988Y-180136447D03*
X176387683Y-180652127D03*
X176783378Y-181167806D03*
X177179073Y-181683486D03*
X172617291Y-185183864D03*
X172221596Y-184668184D03*
X171825901Y-184152505D03*
X171430206Y-183636825D03*
X171034511Y-183121145D03*
X170638816Y-182605466D03*
X170243121Y-182089786D03*
%TD*%
D18*
%TO.C,R11*%
X182646281Y-200145018D03*
X181596281Y-198326364D03*
%TD*%
D16*
%TO.C,R54*%
X158750000Y-162950000D03*
X158750000Y-165050000D03*
%TD*%
D19*
%TO.C,A2*%
X164804699Y-91850336D03*
X166253587Y-92238564D03*
%TD*%
D20*
%TO.C,LED13*%
X149176100Y-207000000D03*
D21*
X151357300Y-207000000D03*
%TD*%
D22*
%TO.C,R105*%
X117384430Y-154108176D03*
X119203084Y-153058176D03*
%TD*%
D23*
%TO.C,R84*%
X159082376Y-206305367D03*
X159839422Y-209130701D03*
%TD*%
D24*
%TO.C,R8*%
X208542289Y-162373475D03*
X206513845Y-161829955D03*
%TD*%
D16*
%TO.C,R72*%
X141000000Y-137050000D03*
X141000000Y-134950000D03*
%TD*%
D25*
%TO.C,LED9*%
X198951498Y-179213518D03*
D26*
X200042098Y-177324544D03*
%TD*%
D27*
%TO.C,R141*%
X131965856Y-120034144D03*
X134034144Y-117965856D03*
%TD*%
D28*
%TO.C,LED15*%
X120786482Y-198951498D03*
D29*
X122675456Y-200042098D03*
%TD*%
D30*
%TO.C,R24*%
X131444599Y-93114153D03*
X131988119Y-95142597D03*
%TD*%
D31*
%TO.C,R75*%
X183391697Y-103763883D03*
X184854197Y-101230759D03*
%TD*%
D32*
%TO.C,R5*%
X200145018Y-117353719D03*
X198326364Y-118403719D03*
%TD*%
D16*
%TO.C,C2*%
X169200000Y-137250000D03*
X171300000Y-137250000D03*
%TD*%
%TO.C,R64*%
X133500000Y-162950000D03*
X133500000Y-165050000D03*
%TD*%
D22*
%TO.C,R100*%
X181796916Y-148673875D03*
X183615570Y-147623875D03*
%TD*%
D33*
%TO.C,R147*%
X164962500Y-129000000D03*
X162037500Y-129000000D03*
%TD*%
D34*
%TO.C,R48*%
X138170045Y-93486155D03*
X137626525Y-91457711D03*
%TD*%
D35*
%TO.C,A24*%
X133746413Y-92238564D03*
X135195301Y-91850336D03*
%TD*%
D33*
%TO.C,R140*%
X132962500Y-175000000D03*
X130037500Y-175000000D03*
%TD*%
D36*
%TO.C,LED23*%
X122213518Y-100224602D03*
D37*
X120324544Y-101315202D03*
%TD*%
D16*
%TO.C,R70*%
X136000000Y-137050000D03*
X136000000Y-134950000D03*
%TD*%
D38*
%TO.C,R139*%
X160284144Y-178215856D03*
X158215856Y-180284144D03*
%TD*%
D16*
%TO.C,R98*%
X164750000Y-121800000D03*
X164750000Y-119700000D03*
%TD*%
D39*
%TO.C,A13*%
X150750000Y-210000000D03*
X149250000Y-210000000D03*
%TD*%
D40*
%TO.C,R95*%
X126654197Y-97963883D03*
X125191697Y-95430759D03*
%TD*%
D41*
%TO.C,LED17*%
X100224602Y-177786482D03*
D42*
X101315202Y-179675456D03*
%TD*%
D43*
%TO.C,R45*%
X101673636Y-118403719D03*
X99854982Y-117353719D03*
%TD*%
D44*
%TO.C,R18*%
X93114153Y-168555401D03*
X95142597Y-168011881D03*
%TD*%
D45*
%TO.C,R6*%
X206885847Y-131444599D03*
X204857403Y-131988119D03*
%TD*%
D46*
%TO.C,R74*%
X170287115Y-96696934D03*
X171044161Y-93871600D03*
%TD*%
D47*
%TO.C,R83*%
X173345803Y-202036117D03*
X174808303Y-204569241D03*
%TD*%
D48*
%TO.C,R114*%
X153325000Y-132500000D03*
X151675000Y-132500000D03*
%TD*%
D43*
%TO.C,R9*%
X203345018Y-177103719D03*
X201526364Y-176053719D03*
%TD*%
D16*
%TO.C,R104*%
X135250000Y-178200000D03*
X135250000Y-180300000D03*
%TD*%
D22*
%TO.C,R17*%
X99854982Y-182646281D03*
X101673636Y-181596281D03*
%TD*%
D49*
%TO.C,LED11*%
X177786482Y-199775398D03*
D50*
X179675456Y-198684798D03*
%TD*%
D51*
%TO.C,A15*%
X120649519Y-202336524D03*
X119350481Y-201586524D03*
%TD*%
D16*
%TO.C,R62*%
X138550000Y-162950000D03*
X138550000Y-165050000D03*
%TD*%
D52*
%TO.C,R80*%
X203303066Y-170287115D03*
X206128400Y-171044161D03*
%TD*%
D53*
%TO.C,R78*%
X206305367Y-140917624D03*
X209130701Y-140160578D03*
%TD*%
D16*
%TO.C,R59*%
X148750000Y-162950000D03*
X148750000Y-165050000D03*
%TD*%
D54*
%TO.C,R4*%
X189986888Y-105487628D03*
X188501964Y-106972552D03*
%TD*%
D30*
%TO.C,R36*%
X161829955Y-206513845D03*
X162373475Y-208542289D03*
%TD*%
D55*
%TO.C,A17*%
X98413476Y-180649519D03*
X97663476Y-179350481D03*
%TD*%
D56*
%TO.C,R96*%
X140917624Y-93694633D03*
X140160578Y-90869299D03*
%TD*%
D16*
%TO.C,R71*%
X138500000Y-137050000D03*
X138500000Y-134950000D03*
%TD*%
D57*
%TO.C,LED2*%
X165548512Y-95155469D03*
D58*
X163441635Y-94590933D03*
%TD*%
D16*
%TO.C,R61*%
X141250000Y-162950000D03*
X141250000Y-165050000D03*
%TD*%
D32*
%TO.C,R41*%
X98473636Y-176053719D03*
X96654982Y-177103719D03*
%TD*%
D59*
%TO.C,A12*%
X166253587Y-207761436D03*
X164804699Y-208149664D03*
%TD*%
D48*
%TO.C,R113*%
X150825000Y-131000000D03*
X149175000Y-131000000D03*
%TD*%
D60*
%TO.C,R137*%
X107965292Y-174268750D03*
X105432168Y-175731250D03*
%TD*%
D61*
%TO.C,R15*%
X122896281Y-203345018D03*
X123946281Y-201526364D03*
%TD*%
D16*
%TO.C,R52*%
X159000000Y-137050000D03*
X159000000Y-134950000D03*
%TD*%
D62*
%TO.C,R102*%
X167046916Y-176873875D03*
X168865570Y-177923875D03*
%TD*%
D16*
%TO.C,R58*%
X151250000Y-162950000D03*
X151250000Y-165050000D03*
%TD*%
D63*
%TO.C,R22*%
X105487628Y-110013112D03*
X106972552Y-111498036D03*
%TD*%
D64*
%TO.C,R92*%
X96696934Y-129712885D03*
X93871600Y-128955839D03*
%TD*%
D27*
%TO.C,R76*%
X194220690Y-113981749D03*
X196288978Y-111913461D03*
%TD*%
D65*
%TO.C,R94*%
X113981749Y-105779310D03*
X111913461Y-103711022D03*
%TD*%
D66*
%TO.C,LED3*%
X179213518Y-101048502D03*
D67*
X177324544Y-99957902D03*
%TD*%
D48*
%TO.C,R110*%
X140825000Y-132500000D03*
X139175000Y-132500000D03*
%TD*%
D68*
%TO.C,A21*%
X97663476Y-120649519D03*
X98413476Y-119350481D03*
%TD*%
D69*
%TO.C,R82*%
X186018251Y-194220690D03*
X188086539Y-196288978D03*
%TD*%
D70*
%TO.C,R73*%
X155800000Y-93262500D03*
X155800000Y-90337500D03*
%TD*%
D32*
%TO.C,R106*%
X118203084Y-151326125D03*
X116384430Y-152376125D03*
%TD*%
D71*
%TO.C,LED14*%
X134451488Y-204844531D03*
D72*
X136558365Y-205409067D03*
%TD*%
D73*
%TO.C,LED12*%
X163956860Y-205271013D03*
D74*
X166063737Y-204706477D03*
%TD*%
D75*
%TO.C,R93*%
X103763883Y-116608303D03*
X101230759Y-115145803D03*
%TD*%
D54*
%TO.C,R40*%
X106972552Y-188501964D03*
X105487628Y-189986888D03*
%TD*%
D60*
%TO.C,R89*%
X97963883Y-173345803D03*
X95430759Y-174808303D03*
%TD*%
D76*
%TO.C,U4*%
X137643298Y-185776380D03*
X137394554Y-186376901D03*
X137145810Y-186977423D03*
X136897066Y-187577945D03*
X136648321Y-188178467D03*
X136399577Y-188778988D03*
X136150833Y-189379510D03*
X130838526Y-187179080D03*
X131087270Y-186578559D03*
X131336014Y-185978037D03*
X131584758Y-185377515D03*
X131833503Y-184776993D03*
X132082247Y-184176472D03*
X132330991Y-183575950D03*
%TD*%
D77*
%TO.C,R20*%
X91457711Y-137626525D03*
X93486155Y-138170045D03*
%TD*%
D78*
%TO.C,R23*%
X117353719Y-99854982D03*
X118403719Y-101673636D03*
%TD*%
D16*
%TO.C,R53*%
X161500000Y-162950000D03*
X161500000Y-165050000D03*
%TD*%
D79*
%TO.C,LED6*%
X205271013Y-136043140D03*
D80*
X204706477Y-133936263D03*
%TD*%
D16*
%TO.C,R66*%
X125750000Y-162950000D03*
X125750000Y-165050000D03*
%TD*%
%TO.C,R1*%
X146800000Y-90250000D03*
X146800000Y-92350000D03*
%TD*%
D81*
%TO.C,A3*%
X179350481Y-97663476D03*
X180649519Y-98413476D03*
%TD*%
D62*
%TO.C,R107*%
X130134430Y-123808176D03*
X131953084Y-124858176D03*
%TD*%
D82*
%TO.C,R14*%
X137626525Y-208542289D03*
X138170045Y-206513845D03*
%TD*%
D16*
%TO.C,R69*%
X133500000Y-137050000D03*
X133500000Y-134950000D03*
%TD*%
D33*
%TO.C,R91*%
X93262500Y-144200000D03*
X90337500Y-144200000D03*
%TD*%
D16*
%TO.C,R19*%
X90250000Y-153200000D03*
X92350000Y-153200000D03*
%TD*%
D48*
%TO.C,R127*%
X164325000Y-132500000D03*
X162675000Y-132500000D03*
%TD*%
D83*
%TO.C,R134*%
X192034708Y-125731250D03*
X194567832Y-124268750D03*
%TD*%
D48*
%TO.C,R117*%
X133325000Y-169000000D03*
X131675000Y-169000000D03*
%TD*%
%TO.C,R119*%
X140825000Y-169000000D03*
X139175000Y-169000000D03*
%TD*%
D84*
%TO.C,LED22*%
X110277498Y-109112328D03*
D85*
X108735157Y-110654669D03*
%TD*%
D22*
%TO.C,R29*%
X201526364Y-123946281D03*
X203345018Y-122896281D03*
%TD*%
D24*
%TO.C,R44*%
X95142597Y-131988119D03*
X93114153Y-131444599D03*
%TD*%
D86*
%TO.C,A16*%
X108103923Y-192956737D03*
X107043263Y-191896077D03*
%TD*%
D87*
%TO.C,A4*%
X191896077Y-107043263D03*
X192956737Y-108103923D03*
%TD*%
D16*
%TO.C,R25*%
X153200000Y-92350000D03*
X153200000Y-90250000D03*
%TD*%
%TO.C,R57*%
X153750000Y-162950000D03*
X153750000Y-165050000D03*
%TD*%
D88*
%TO.C,LED8*%
X204844531Y-165548512D03*
D89*
X205409067Y-163441635D03*
%TD*%
D48*
%TO.C,R123*%
X155825000Y-169000000D03*
X154175000Y-169000000D03*
%TD*%
D90*
%TO.C,U7*%
X174000000Y-152725000D03*
X174000000Y-147275000D03*
D91*
X170970000Y-152425000D03*
X170970000Y-147575000D03*
D92*
X171000000Y-150000000D03*
X174300000Y-149000000D03*
X174300000Y-151000000D03*
X167500000Y-152500000D03*
X165000000Y-152500000D03*
X162500000Y-152500000D03*
%TD*%
D16*
%TO.C,R43*%
X92350000Y-146800000D03*
X90250000Y-146800000D03*
%TD*%
D93*
%TO.C,R135*%
X192034708Y-174268750D03*
X194567832Y-175731250D03*
%TD*%
D61*
%TO.C,R27*%
X181596281Y-101673636D03*
X182646281Y-99854982D03*
%TD*%
D94*
%TO.C,LED21*%
X101048502Y-120786482D03*
D95*
X99957902Y-122675456D03*
%TD*%
D34*
%TO.C,R12*%
X168555401Y-206885847D03*
X168011881Y-204857403D03*
%TD*%
D96*
%TO.C,U6*%
X125195097Y-121410592D03*
X124799402Y-120894912D03*
X124403707Y-120379233D03*
X124008012Y-119863553D03*
X123612317Y-119347873D03*
X123216622Y-118832194D03*
X122820927Y-118316514D03*
X127382709Y-114816136D03*
X127778404Y-115331816D03*
X128174099Y-115847495D03*
X128569794Y-116363175D03*
X128965489Y-116878855D03*
X129361184Y-117394534D03*
X129756879Y-117910214D03*
%TD*%
D97*
%TO.C,A9*%
X202336524Y-179350481D03*
X201586524Y-180649519D03*
%TD*%
D98*
%TO.C,R3*%
X177103719Y-96654982D03*
X176053719Y-98473636D03*
%TD*%
D62*
%TO.C,R33*%
X198326364Y-181596281D03*
X200145018Y-182646281D03*
%TD*%
D39*
%TO.C,A1*%
X149250000Y-90000000D03*
X150750000Y-90000000D03*
%TD*%
D99*
%TO.C,LED20*%
X95155469Y-134451488D03*
D100*
X94590933Y-136558365D03*
%TD*%
D48*
%TO.C,R115*%
X157325000Y-132500000D03*
X155675000Y-132500000D03*
%TD*%
D101*
%TO.C,LED7*%
X207000000Y-150823900D03*
D102*
X207000000Y-148642700D03*
%TD*%
D103*
%TO.C,R79*%
X206737500Y-155800000D03*
X209662500Y-155800000D03*
%TD*%
D104*
%TO.C,R2*%
X162373475Y-91457711D03*
X161829955Y-93486155D03*
%TD*%
D16*
%TO.C,R56*%
X166500000Y-162950000D03*
X166500000Y-165050000D03*
%TD*%
%TO.C,R37*%
X146800000Y-207650000D03*
X146800000Y-209750000D03*
%TD*%
%TO.C,R7*%
X209750000Y-146800000D03*
X207650000Y-146800000D03*
%TD*%
%TO.C,R67*%
X128500000Y-137050000D03*
X128500000Y-134950000D03*
%TD*%
D105*
%TO.C,R87*%
X116608303Y-196236117D03*
X115145803Y-198769241D03*
%TD*%
D18*
%TO.C,R47*%
X123946281Y-98473636D03*
X122896281Y-96654982D03*
%TD*%
D16*
%TO.C,R31*%
X207650000Y-153200000D03*
X209750000Y-153200000D03*
%TD*%
D70*
%TO.C,R133*%
X150000000Y-101462500D03*
X150000000Y-98537500D03*
%TD*%
D106*
%TO.C,R86*%
X129712885Y-203303066D03*
X128955839Y-206128400D03*
%TD*%
D107*
%TO.C,A23*%
X119350481Y-98413476D03*
X120649519Y-97663476D03*
%TD*%
D45*
%TO.C,R42*%
X93486155Y-161829955D03*
X91457711Y-162373475D03*
%TD*%
D16*
%TO.C,R63*%
X136000000Y-162950000D03*
X136000000Y-165050000D03*
%TD*%
%TO.C,R49*%
X146250000Y-137050000D03*
X146250000Y-134950000D03*
%TD*%
D108*
%TO.C,R28*%
X193027448Y-111498036D03*
X194512372Y-110013112D03*
%TD*%
D109*
%TO.C,R10*%
X194512372Y-189986888D03*
X193027448Y-188501964D03*
%TD*%
D16*
%TO.C,R13*%
X153200000Y-209750000D03*
X153200000Y-207650000D03*
%TD*%
D110*
%TO.C,A20*%
X91850336Y-135195301D03*
X92238564Y-133746413D03*
%TD*%
D48*
%TO.C,R112*%
X135825000Y-132500000D03*
X134175000Y-132500000D03*
%TD*%
D111*
%TO.C,A5*%
X201586524Y-119350481D03*
X202336524Y-120649519D03*
%TD*%
D63*
%TO.C,R34*%
X188501964Y-193027448D03*
X189986888Y-194512372D03*
%TD*%
D112*
%TO.C,A8*%
X208149664Y-164804699D03*
X207761436Y-166253587D03*
%TD*%
D78*
%TO.C,R35*%
X176053719Y-201526364D03*
X177103719Y-203345018D03*
%TD*%
D113*
%TO.C,A11*%
X180649519Y-201586524D03*
X179350481Y-202336524D03*
%TD*%
D48*
%TO.C,R120*%
X148325000Y-167500000D03*
X146675000Y-167500000D03*
%TD*%
D77*
%TO.C,R32*%
X204857403Y-168011881D03*
X206885847Y-168555401D03*
%TD*%
D114*
%TO.C,U5*%
X112838395Y-157186972D03*
X112193956Y-157271814D03*
X111549517Y-157356656D03*
X110905078Y-157441498D03*
X110260639Y-157526340D03*
X109616199Y-157611182D03*
X108971760Y-157696024D03*
X108221235Y-151995216D03*
X108865674Y-151910374D03*
X109510113Y-151825532D03*
X110154552Y-151740690D03*
X110798991Y-151655848D03*
X111443431Y-151571006D03*
X112087870Y-151486164D03*
%TD*%
D93*
%TO.C,R81*%
X196236117Y-183391697D03*
X198769241Y-184854197D03*
%TD*%
D16*
%TO.C,R97*%
X162750000Y-119700000D03*
X162750000Y-121800000D03*
%TD*%
D48*
%TO.C,R118*%
X138075000Y-167500000D03*
X136425000Y-167500000D03*
%TD*%
D109*
%TO.C,R46*%
X111498036Y-106972552D03*
X110013112Y-105487628D03*
%TD*%
D20*
%TO.C,LED1*%
X150823900Y-93000000D03*
D21*
X148642700Y-93000000D03*
%TD*%
D16*
%TO.C,R51*%
X153750000Y-137050000D03*
X153750000Y-134950000D03*
%TD*%
D82*
%TO.C,R26*%
X168011881Y-95142597D03*
X168555401Y-93114153D03*
%TD*%
D39*
%TO.C,A19*%
X90000000Y-150750000D03*
X90000000Y-149250000D03*
%TD*%
D101*
%TO.C,LED19*%
X93000000Y-149176100D03*
D102*
X93000000Y-151357300D03*
%TD*%
D115*
%TO.C,R85*%
X144200000Y-206737500D03*
X144200000Y-209662500D03*
%TD*%
D44*
%TO.C,R30*%
X206513845Y-138170045D03*
X208542289Y-137626525D03*
%TD*%
D48*
%TO.C,R122*%
X153325000Y-167500000D03*
X151675000Y-167500000D03*
%TD*%
D16*
%TO.C,R50*%
X151300000Y-137050000D03*
X151300000Y-134950000D03*
%TD*%
D104*
%TO.C,R38*%
X131988119Y-204857403D03*
X131444599Y-206885847D03*
%TD*%
D39*
%TO.C,A7*%
X210000000Y-149250000D03*
X210000000Y-150750000D03*
%TD*%
D83*
%TO.C,R77*%
X202036117Y-126654197D03*
X204569241Y-125191697D03*
%TD*%
D48*
%TO.C,R128*%
X133075000Y-131000000D03*
X131425000Y-131000000D03*
%TD*%
%TO.C,R116*%
X131825000Y-167500000D03*
X130175000Y-167500000D03*
%TD*%
D116*
%TO.C,LED5*%
X199775398Y-122213518D03*
D117*
X198684798Y-120324544D03*
%TD*%
D118*
%TO.C,A6*%
X207761436Y-133746413D03*
X208149664Y-135195301D03*
%TD*%
D98*
%TO.C,R39*%
X118403719Y-198326364D03*
X117353719Y-200145018D03*
%TD*%
D48*
%TO.C,R111*%
X138325000Y-131000000D03*
X136675000Y-131000000D03*
%TD*%
D32*
%TO.C,R99*%
X182615570Y-145891824D03*
X180796916Y-146941824D03*
%TD*%
D119*
%TO.C,LED24*%
X136043140Y-94728987D03*
D120*
X133936263Y-95293523D03*
%TD*%
D115*
%TO.C,R136*%
X150000000Y-198537500D03*
X150000000Y-201462500D03*
%TD*%
D121*
%TO.C,U1*%
X162356702Y-114223620D03*
X162605446Y-113623099D03*
X162854190Y-113022577D03*
X163102934Y-112422055D03*
X163351679Y-111821533D03*
X163600423Y-111221012D03*
X163849167Y-110620490D03*
X169161474Y-112820920D03*
X168912730Y-113421441D03*
X168663986Y-114021963D03*
X168415242Y-114622485D03*
X168166497Y-115223007D03*
X167917753Y-115823528D03*
X167669009Y-116424050D03*
%TD*%
D122*
%TO.C,LED16*%
X109112328Y-189722502D03*
D123*
X110654669Y-191264843D03*
%TD*%
D75*
%TO.C,R138*%
X107965292Y-125731250D03*
X105432168Y-124268750D03*
%TD*%
D124*
%TO.C,A10*%
X192956737Y-191896077D03*
X191896077Y-192956737D03*
%TD*%
D16*
%TO.C,R68*%
X125750000Y-137050000D03*
X125750000Y-134950000D03*
%TD*%
D62*
%TO.C,R21*%
X96654982Y-122896281D03*
X98473636Y-123946281D03*
%TD*%
D125*
%TO.C,R90*%
X93694633Y-159082376D03*
X90869299Y-159839422D03*
%TD*%
D43*
%TO.C,R101*%
X169865570Y-176191824D03*
X168046916Y-175141824D03*
%TD*%
D48*
%TO.C,R121*%
X150825000Y-169000000D03*
X149175000Y-169000000D03*
%TD*%
D126*
%TO.C,LED10*%
X189722502Y-190887672D03*
D127*
X191264843Y-189345331D03*
%TD*%
D128*
%TO.C,A22*%
X107043263Y-108103923D03*
X108103923Y-107043263D03*
%TD*%
D129*
%TO.C,C1*%
X169770000Y-135750000D03*
X170730000Y-135750000D03*
%TD*%
D108*
%TO.C,R16*%
X110013112Y-194512372D03*
X111498036Y-193027448D03*
%TD*%
D38*
%TO.C,R88*%
X105779310Y-186018251D03*
X103711022Y-188086539D03*
%TD*%
D130*
%TO.C,LED4*%
X190887672Y-110277498D03*
D131*
X189345331Y-108735157D03*
%TD*%
D43*
%TO.C,R108*%
X132953084Y-123126125D03*
X131134430Y-122076125D03*
%TD*%
D16*
%TO.C,R60*%
X146250000Y-162950000D03*
X146250000Y-165050000D03*
%TD*%
D132*
%TO.C,A18*%
X92238564Y-166253587D03*
X91850336Y-164804699D03*
%TD*%
D16*
%TO.C,R55*%
X164000000Y-162950000D03*
X164000000Y-165050000D03*
%TD*%
D133*
%TO.C,A14*%
X135195301Y-208149664D03*
X133746413Y-207761436D03*
%TD*%
D16*
%TO.C,R103*%
X137250000Y-180300000D03*
X137250000Y-178200000D03*
%TD*%
M02*
