%TF.GenerationSoftware,KiCad,Pcbnew,(6.0.9)*%
%TF.CreationDate,2023-04-13T12:37:54+10:00*%
%TF.ProjectId,Dpadleft,44706164-6c65-4667-942e-6b696361645f,rev?*%
%TF.SameCoordinates,PX6bc3e40PY700e860*%
%TF.FileFunction,Copper,L2,Bot*%
%TF.FilePolarity,Positive*%
%FSLAX46Y46*%
G04 Gerber Fmt 4.6, Leading zero omitted, Abs format (unit mm)*
G04 Created by KiCad (PCBNEW (6.0.9)) date 2023-04-13 12:37:54*
%MOMM*%
%LPD*%
G01*
G04 APERTURE LIST*
G04 Aperture macros list*
%AMHorizOval*
0 Thick line with rounded ends*
0 $1 width*
0 $2 $3 position (X,Y) of the first rounded end (center of the circle)*
0 $4 $5 position (X,Y) of the second rounded end (center of the circle)*
0 Add line between two ends*
20,1,$1,$2,$3,$4,$5,0*
0 Add two circle primitives to create the rounded ends*
1,1,$1,$2,$3*
1,1,$1,$4,$5*%
%AMRotRect*
0 Rectangle, with rotation*
0 The origin of the aperture is its center*
0 $1 length*
0 $2 width*
0 $3 Rotation angle, in degrees counterclockwise*
0 Add horizontal line*
21,1,$1,$2,0,0,$3*%
G04 Aperture macros list end*
%TA.AperFunction,ComponentPad*%
%ADD10RotRect,1.700000X1.700000X135.000000*%
%TD*%
%TA.AperFunction,ComponentPad*%
%ADD11HorizOval,1.700000X0.000000X0.000000X0.000000X0.000000X0*%
%TD*%
%TA.AperFunction,ComponentPad*%
%ADD12RotRect,2.200000X2.200000X45.000000*%
%TD*%
%TA.AperFunction,ComponentPad*%
%ADD13C,2.200000*%
%TD*%
%TA.AperFunction,ComponentPad*%
%ADD14C,1.524000*%
%TD*%
G04 APERTURE END LIST*
D10*
%TO.P,J3,1,Pin_1*%
%TO.N,Net-(J3-Pad1)*%
X23259872Y-12490129D03*
D11*
%TO.P,J3,2,Pin_2*%
%TO.N,Net-(J3-Pad2)*%
X25055923Y-10694078D03*
%TO.P,J3,3,Pin_3*%
%TO.N,Net-(J3-Pad3)*%
X26851974Y-8898027D03*
%TO.P,J3,4,Pin_4*%
%TO.N,Net-(J3-Pad4)*%
X28648026Y-7101975D03*
%TO.P,J3,5,Pin_5*%
%TO.N,Net-(J3-Pad5)*%
X30444077Y-5305924D03*
%TO.P,J3,6,Pin_6*%
%TO.N,GND*%
X32240128Y-3509873D03*
%TD*%
D12*
%TO.P,U3,1,1*%
%TO.N,Net-(J3-Pad1)*%
X7110913Y-707107D03*
D13*
%TO.P,U3,2,2*%
%TO.N,unconnected-(U3-Pad2)*%
X11707107Y3889087D03*
%TO.P,U3,3,3*%
%TO.N,unconnected-(U3-Pad3)*%
X10292893Y-3889087D03*
%TO.P,U3,4,4*%
%TO.N,Net-(J3-Pad3)*%
X14889087Y707107D03*
D14*
%TO.P,U3,5,A*%
%TO.N,Net-(R2-Pad1)*%
X8737258Y-2262742D03*
%TO.P,U3,6,K*%
%TO.N,GND*%
X13262742Y2262742D03*
%TD*%
D12*
%TO.P,U2,1,1*%
%TO.N,Net-(J3-Pad1)*%
X15610913Y7792893D03*
D13*
%TO.P,U2,2,2*%
%TO.N,unconnected-(U2-Pad2)*%
X20207107Y12389087D03*
%TO.P,U2,3,3*%
%TO.N,unconnected-(U2-Pad3)*%
X18792893Y4610913D03*
%TO.P,U2,4,4*%
%TO.N,Net-(J3-Pad2)*%
X23389087Y9207107D03*
D14*
%TO.P,U2,5,A*%
%TO.N,Net-(R1-Pad1)*%
X17237258Y6237258D03*
%TO.P,U2,6,K*%
%TO.N,GND*%
X21762742Y10762742D03*
%TD*%
D12*
%TO.P,U5,1,1*%
%TO.N,Net-(J3-Pad1)*%
X24110913Y-707107D03*
D13*
%TO.P,U5,2,2*%
%TO.N,unconnected-(U5-Pad2)*%
X28707107Y3889087D03*
%TO.P,U5,3,3*%
%TO.N,unconnected-(U5-Pad3)*%
X27292893Y-3889087D03*
%TO.P,U5,4,4*%
%TO.N,Net-(J3-Pad5)*%
X31889087Y707107D03*
D14*
%TO.P,U5,5,A*%
%TO.N,Net-(R4-Pad1)*%
X25737258Y-2262742D03*
%TO.P,U5,6,K*%
%TO.N,GND*%
X30262742Y2262742D03*
%TD*%
D12*
%TO.P,U4,1,1*%
%TO.N,Net-(J3-Pad1)*%
X15610913Y-9207107D03*
D13*
%TO.P,U4,2,2*%
%TO.N,unconnected-(U4-Pad2)*%
X20207107Y-4610913D03*
%TO.P,U4,3,3*%
%TO.N,unconnected-(U4-Pad3)*%
X18792893Y-12389087D03*
%TO.P,U4,4,4*%
%TO.N,Net-(J3-Pad4)*%
X23389087Y-7792893D03*
D14*
%TO.P,U4,5,A*%
%TO.N,Net-(R3-Pad1)*%
X17237258Y-10762742D03*
%TO.P,U4,6,K*%
%TO.N,GND*%
X21762742Y-6237258D03*
%TD*%
%TA.AperFunction,Conductor*%
%TO.N,Net-(J3-Pad1)*%
G36*
X18010690Y17187396D02*
G01*
X18067526Y17144849D01*
X18092337Y17078329D01*
X18083067Y17021123D01*
X18060895Y16967594D01*
X18059740Y16962782D01*
X18013420Y16769845D01*
X18005465Y16736711D01*
X17987308Y16506005D01*
X17986835Y16500000D01*
X18005465Y16263289D01*
X18006619Y16258482D01*
X18006620Y16258476D01*
X18036601Y16133599D01*
X18060895Y16032406D01*
X18151760Y15813037D01*
X18154346Y15808817D01*
X18273241Y15614798D01*
X18273245Y15614792D01*
X18275824Y15610584D01*
X18430031Y15430031D01*
X18610584Y15275824D01*
X18614792Y15273245D01*
X18614798Y15273241D01*
X18808817Y15154346D01*
X18813037Y15151760D01*
X18817607Y15149867D01*
X18817611Y15149865D01*
X19027833Y15062789D01*
X19032406Y15060895D01*
X19112609Y15041640D01*
X19258476Y15006620D01*
X19258482Y15006619D01*
X19263289Y15005465D01*
X19500000Y14986835D01*
X19736711Y15005465D01*
X19741518Y15006619D01*
X19741524Y15006620D01*
X19887391Y15041640D01*
X19967594Y15060895D01*
X19972167Y15062789D01*
X20182389Y15149865D01*
X20182393Y15149867D01*
X20186963Y15151760D01*
X20191183Y15154346D01*
X20385202Y15273241D01*
X20385208Y15273245D01*
X20389416Y15275824D01*
X20569969Y15430031D01*
X20724176Y15610584D01*
X20726755Y15614792D01*
X20726759Y15614798D01*
X20845654Y15808817D01*
X20848240Y15813037D01*
X20939105Y16032406D01*
X20963399Y16133599D01*
X20993380Y16258476D01*
X20993381Y16258482D01*
X20994535Y16263289D01*
X21013165Y16500000D01*
X20994535Y16736711D01*
X20986581Y16769845D01*
X20940260Y16962782D01*
X20939105Y16967594D01*
X20916933Y17021122D01*
X20909344Y17091712D01*
X20941123Y17155199D01*
X21002181Y17191426D01*
X21073133Y17188892D01*
X21122437Y17158435D01*
X36658435Y1622437D01*
X36692461Y1560125D01*
X36687396Y1489310D01*
X36644849Y1432474D01*
X36578329Y1407663D01*
X36521122Y1416933D01*
X36472167Y1437211D01*
X36472165Y1437212D01*
X36467594Y1439105D01*
X36387391Y1458360D01*
X36241524Y1493380D01*
X36241518Y1493381D01*
X36236711Y1494535D01*
X36000000Y1513165D01*
X35763289Y1494535D01*
X35758482Y1493381D01*
X35758476Y1493380D01*
X35612609Y1458360D01*
X35532406Y1439105D01*
X35527835Y1437212D01*
X35527833Y1437211D01*
X35317611Y1350135D01*
X35317607Y1350133D01*
X35313037Y1348240D01*
X35308817Y1345654D01*
X35114798Y1226759D01*
X35114792Y1226755D01*
X35110584Y1224176D01*
X34930031Y1069969D01*
X34775824Y889416D01*
X34773245Y885208D01*
X34773241Y885202D01*
X34757695Y859833D01*
X34651760Y686963D01*
X34649867Y682393D01*
X34649865Y682389D01*
X34583067Y521122D01*
X34560895Y467594D01*
X34556645Y449891D01*
X34507452Y244986D01*
X34505465Y236711D01*
X34487308Y6005D01*
X34486835Y0D01*
X34487223Y-4930D01*
X34487223Y-4933D01*
X34490300Y-44032D01*
X34505465Y-236711D01*
X34506619Y-241518D01*
X34506620Y-241524D01*
X34536601Y-366401D01*
X34560895Y-467594D01*
X34562788Y-472165D01*
X34562789Y-472167D01*
X34639944Y-658436D01*
X34651760Y-686963D01*
X34654346Y-691183D01*
X34773241Y-885202D01*
X34773245Y-885208D01*
X34775824Y-889416D01*
X34930031Y-1069969D01*
X34933787Y-1073177D01*
X34954618Y-1090968D01*
X35110584Y-1224176D01*
X35114792Y-1226755D01*
X35114798Y-1226759D01*
X35308817Y-1345654D01*
X35313037Y-1348240D01*
X35317607Y-1350133D01*
X35317611Y-1350135D01*
X35527833Y-1437211D01*
X35532406Y-1439105D01*
X35612609Y-1458360D01*
X35758476Y-1493380D01*
X35758482Y-1493381D01*
X35763289Y-1494535D01*
X36000000Y-1513165D01*
X36236711Y-1494535D01*
X36241518Y-1493381D01*
X36241524Y-1493380D01*
X36387391Y-1458360D01*
X36467594Y-1439105D01*
X36472172Y-1437209D01*
X36521122Y-1416933D01*
X36591712Y-1409344D01*
X36655199Y-1441123D01*
X36691426Y-1502181D01*
X36688892Y-1573133D01*
X36658435Y-1622437D01*
X21122437Y-17158436D01*
X21060125Y-17192462D01*
X20989310Y-17187397D01*
X20932474Y-17144850D01*
X20907663Y-17078330D01*
X20916933Y-17021124D01*
X20937209Y-16972172D01*
X20937210Y-16972169D01*
X20939105Y-16967594D01*
X20963399Y-16866401D01*
X20993380Y-16741524D01*
X20993381Y-16741518D01*
X20994535Y-16736711D01*
X21013165Y-16500000D01*
X20994535Y-16263289D01*
X20986581Y-16230155D01*
X20940260Y-16037218D01*
X20939105Y-16032406D01*
X20848240Y-15813037D01*
X20845654Y-15808817D01*
X20726759Y-15614798D01*
X20726755Y-15614792D01*
X20724176Y-15610584D01*
X20569969Y-15430031D01*
X20389416Y-15275824D01*
X20385208Y-15273245D01*
X20385202Y-15273241D01*
X20191183Y-15154346D01*
X20186963Y-15151760D01*
X20182393Y-15149867D01*
X20182389Y-15149865D01*
X19972167Y-15062789D01*
X19972165Y-15062788D01*
X19967594Y-15060895D01*
X19887391Y-15041640D01*
X19741524Y-15006620D01*
X19741518Y-15006619D01*
X19736711Y-15005465D01*
X19500000Y-14986835D01*
X19263289Y-15005465D01*
X19258482Y-15006619D01*
X19258476Y-15006620D01*
X19112609Y-15041640D01*
X19032406Y-15060895D01*
X19027835Y-15062788D01*
X19027833Y-15062789D01*
X18817611Y-15149865D01*
X18817607Y-15149867D01*
X18813037Y-15151760D01*
X18808817Y-15154346D01*
X18614798Y-15273241D01*
X18614792Y-15273245D01*
X18610584Y-15275824D01*
X18430031Y-15430031D01*
X18275824Y-15610584D01*
X18273245Y-15614792D01*
X18273241Y-15614798D01*
X18154346Y-15808817D01*
X18151760Y-15813037D01*
X18060895Y-16032406D01*
X18059740Y-16037218D01*
X18013420Y-16230155D01*
X18005465Y-16263289D01*
X17987308Y-16493995D01*
X17986835Y-16500000D01*
X18005465Y-16736711D01*
X18006619Y-16741518D01*
X18006620Y-16741524D01*
X18036601Y-16866401D01*
X18060895Y-16967594D01*
X18062790Y-16972169D01*
X18062791Y-16972172D01*
X18083067Y-17021124D01*
X18090656Y-17091714D01*
X18058876Y-17155200D01*
X17997818Y-17191427D01*
X17926866Y-17188893D01*
X17877563Y-17158436D01*
X11243998Y-10524871D01*
X14658689Y-10524871D01*
X14658820Y-10526704D01*
X14663071Y-10533319D01*
X15283287Y-11153535D01*
X15288371Y-11158097D01*
X15328244Y-11190157D01*
X15341594Y-11198379D01*
X15458699Y-11251623D01*
X15475754Y-11256610D01*
X15602024Y-11274693D01*
X15619802Y-11274693D01*
X15746072Y-11256610D01*
X15763127Y-11251623D01*
X15880236Y-11198377D01*
X15882763Y-11196821D01*
X15885003Y-11196210D01*
X15887424Y-11195109D01*
X15887602Y-11195501D01*
X15951255Y-11178131D01*
X16018979Y-11199439D01*
X16063029Y-11250858D01*
X16130444Y-11395431D01*
X16130447Y-11395436D01*
X16132770Y-11400418D01*
X16135926Y-11404925D01*
X16135927Y-11404927D01*
X16256811Y-11577567D01*
X16260281Y-11582523D01*
X16417477Y-11739719D01*
X16421985Y-11742876D01*
X16421988Y-11742878D01*
X16497753Y-11795929D01*
X16599581Y-11867230D01*
X16604563Y-11869553D01*
X16604568Y-11869556D01*
X16720072Y-11923416D01*
X16801062Y-11961182D01*
X16806370Y-11962604D01*
X16806372Y-11962605D01*
X16872207Y-11980245D01*
X17015795Y-12018720D01*
X17053710Y-12022037D01*
X17082820Y-12024584D01*
X17148938Y-12050448D01*
X17190578Y-12107951D01*
X17197450Y-12159989D01*
X17179419Y-12389087D01*
X17199284Y-12641490D01*
X17200438Y-12646297D01*
X17200439Y-12646303D01*
X17230808Y-12772798D01*
X17258388Y-12887678D01*
X17355277Y-13121589D01*
X17487565Y-13337463D01*
X17651995Y-13529985D01*
X17844517Y-13694415D01*
X18060391Y-13826703D01*
X18064961Y-13828596D01*
X18064965Y-13828598D01*
X18289729Y-13921698D01*
X18294302Y-13923592D01*
X18378925Y-13943908D01*
X18535677Y-13981541D01*
X18535683Y-13981542D01*
X18540490Y-13982696D01*
X18792893Y-14002561D01*
X19045296Y-13982696D01*
X19050103Y-13981542D01*
X19050109Y-13981541D01*
X19206861Y-13943908D01*
X19291484Y-13923592D01*
X19296057Y-13921698D01*
X19520821Y-13828598D01*
X19520825Y-13828596D01*
X19525395Y-13826703D01*
X19741269Y-13694415D01*
X19815382Y-13631116D01*
X22484425Y-13631116D01*
X22484556Y-13632949D01*
X22488807Y-13639564D01*
X22932246Y-14083003D01*
X22937330Y-14087565D01*
X22977203Y-14119625D01*
X22990553Y-14127847D01*
X23107658Y-14181091D01*
X23124713Y-14186078D01*
X23250983Y-14204161D01*
X23268761Y-14204161D01*
X23395031Y-14186078D01*
X23412086Y-14181091D01*
X23529195Y-14127845D01*
X23542539Y-14119628D01*
X23582416Y-14087565D01*
X23587494Y-14083009D01*
X24027706Y-13642797D01*
X24035320Y-13628853D01*
X24035189Y-13627020D01*
X24030938Y-13620405D01*
X23272684Y-12862151D01*
X23258740Y-12854537D01*
X23256907Y-12854668D01*
X23250292Y-12858919D01*
X22492039Y-13617172D01*
X22484425Y-13631116D01*
X19815382Y-13631116D01*
X19933791Y-13529985D01*
X20098221Y-13337463D01*
X20230509Y-13121589D01*
X20327398Y-12887678D01*
X20354978Y-12772798D01*
X20385347Y-12646303D01*
X20385348Y-12646297D01*
X20386502Y-12641490D01*
X20397715Y-12499018D01*
X21545840Y-12499018D01*
X21563923Y-12625288D01*
X21568910Y-12642343D01*
X21622156Y-12759452D01*
X21630373Y-12772796D01*
X21662436Y-12812673D01*
X21666992Y-12817751D01*
X22107204Y-13257963D01*
X22121148Y-13265577D01*
X22122981Y-13265446D01*
X22129596Y-13261195D01*
X22887850Y-12502941D01*
X22895464Y-12488997D01*
X22895333Y-12487164D01*
X22891082Y-12480549D01*
X22132829Y-11722296D01*
X22118885Y-11714682D01*
X22117052Y-11714813D01*
X22110437Y-11719064D01*
X21666998Y-12162503D01*
X21662436Y-12167587D01*
X21630376Y-12207460D01*
X21622154Y-12220810D01*
X21568910Y-12337915D01*
X21563923Y-12354970D01*
X21545840Y-12481240D01*
X21545840Y-12499018D01*
X20397715Y-12499018D01*
X20406367Y-12389087D01*
X20386502Y-12136684D01*
X20376624Y-12095536D01*
X20328553Y-11895308D01*
X20327398Y-11890496D01*
X20325504Y-11885923D01*
X20232404Y-11661159D01*
X20232402Y-11661155D01*
X20230509Y-11656585D01*
X20098221Y-11440711D01*
X20021946Y-11351405D01*
X22484424Y-11351405D01*
X22484555Y-11353238D01*
X22488806Y-11359853D01*
X24386915Y-13257962D01*
X24400859Y-13265576D01*
X24402692Y-13265445D01*
X24409307Y-13261194D01*
X24852746Y-12817755D01*
X24857308Y-12812671D01*
X24889368Y-12772798D01*
X24897590Y-12759448D01*
X24950834Y-12642343D01*
X24955821Y-12625288D01*
X24973904Y-12499018D01*
X24973904Y-12481240D01*
X24955821Y-12354970D01*
X24950834Y-12337915D01*
X24901931Y-12230358D01*
X24891945Y-12160067D01*
X24921545Y-12095536D01*
X24981336Y-12057252D01*
X25021249Y-12052292D01*
X25028888Y-12052572D01*
X25112596Y-12055642D01*
X25112600Y-12055642D01*
X25117760Y-12055831D01*
X25122880Y-12055175D01*
X25122882Y-12055175D01*
X25334211Y-12028103D01*
X25334212Y-12028103D01*
X25339339Y-12027446D01*
X25344289Y-12025961D01*
X25548352Y-11964739D01*
X25548357Y-11964737D01*
X25553307Y-11963252D01*
X25753917Y-11864974D01*
X25935783Y-11735251D01*
X25948784Y-11722296D01*
X26085135Y-11586420D01*
X26094019Y-11577567D01*
X26224376Y-11396155D01*
X26242318Y-11359853D01*
X26321059Y-11200531D01*
X26321060Y-11200529D01*
X26323353Y-11195889D01*
X26388293Y-10982147D01*
X26417452Y-10760668D01*
X26419079Y-10694078D01*
X26400775Y-10471439D01*
X26375716Y-10371675D01*
X26378520Y-10300733D01*
X26419233Y-10242570D01*
X26484928Y-10215651D01*
X26523038Y-10217509D01*
X26690571Y-10251594D01*
X26695746Y-10251784D01*
X26695748Y-10251784D01*
X26908647Y-10259591D01*
X26908651Y-10259591D01*
X26913811Y-10259780D01*
X26918931Y-10259124D01*
X26918933Y-10259124D01*
X27130262Y-10232052D01*
X27130263Y-10232052D01*
X27135390Y-10231395D01*
X27145456Y-10228375D01*
X27344403Y-10168688D01*
X27344408Y-10168686D01*
X27349358Y-10167201D01*
X27549968Y-10068923D01*
X27731834Y-9939200D01*
X27890070Y-9781516D01*
X27969047Y-9671608D01*
X28017409Y-9604304D01*
X28020427Y-9600104D01*
X28033205Y-9574251D01*
X28117110Y-9404480D01*
X28117111Y-9404478D01*
X28119404Y-9399838D01*
X28184344Y-9186096D01*
X28213503Y-8964617D01*
X28213585Y-8961267D01*
X28215048Y-8901392D01*
X28215048Y-8901388D01*
X28215130Y-8898027D01*
X28196826Y-8675388D01*
X28189880Y-8647734D01*
X28171767Y-8575622D01*
X28174571Y-8504681D01*
X28215284Y-8446518D01*
X28280980Y-8419599D01*
X28319091Y-8421457D01*
X28486623Y-8455542D01*
X28491798Y-8455732D01*
X28491800Y-8455732D01*
X28704699Y-8463539D01*
X28704703Y-8463539D01*
X28709863Y-8463728D01*
X28714983Y-8463072D01*
X28714985Y-8463072D01*
X28926314Y-8436000D01*
X28926315Y-8436000D01*
X28931442Y-8435343D01*
X28973793Y-8422637D01*
X29140455Y-8372636D01*
X29140460Y-8372634D01*
X29145410Y-8371149D01*
X29346020Y-8272871D01*
X29527886Y-8143148D01*
X29686122Y-7985464D01*
X29816479Y-7804052D01*
X29845895Y-7744534D01*
X29913162Y-7608428D01*
X29913163Y-7608426D01*
X29915456Y-7603786D01*
X29980396Y-7390044D01*
X30009555Y-7168565D01*
X30011182Y-7101975D01*
X29992878Y-6879336D01*
X29967819Y-6779572D01*
X29970623Y-6708630D01*
X30011336Y-6650467D01*
X30077031Y-6623548D01*
X30115141Y-6625406D01*
X30282674Y-6659491D01*
X30287849Y-6659681D01*
X30287851Y-6659681D01*
X30500750Y-6667488D01*
X30500754Y-6667488D01*
X30505914Y-6667677D01*
X30511034Y-6667021D01*
X30511036Y-6667021D01*
X30722365Y-6639949D01*
X30722366Y-6639949D01*
X30727493Y-6639292D01*
X30737559Y-6636272D01*
X30936506Y-6576585D01*
X30936511Y-6576583D01*
X30941461Y-6575098D01*
X31142071Y-6476820D01*
X31323937Y-6347097D01*
X31344107Y-6326998D01*
X31414116Y-6257233D01*
X31482173Y-6189413D01*
X31489355Y-6179419D01*
X31609512Y-6012201D01*
X31612530Y-6008001D01*
X31640412Y-5951587D01*
X31709213Y-5812377D01*
X31709214Y-5812375D01*
X31711507Y-5807735D01*
X31776447Y-5593993D01*
X31805606Y-5372514D01*
X31806679Y-5328598D01*
X31807151Y-5309289D01*
X31807151Y-5309285D01*
X31807233Y-5305924D01*
X31788929Y-5083285D01*
X31763870Y-4983521D01*
X31766674Y-4912579D01*
X31807387Y-4854416D01*
X31873082Y-4827497D01*
X31911192Y-4829355D01*
X32078725Y-4863440D01*
X32083900Y-4863630D01*
X32083902Y-4863630D01*
X32296801Y-4871437D01*
X32296805Y-4871437D01*
X32301965Y-4871626D01*
X32307085Y-4870970D01*
X32307087Y-4870970D01*
X32518416Y-4843898D01*
X32518417Y-4843898D01*
X32523544Y-4843241D01*
X32542803Y-4837463D01*
X32732557Y-4780534D01*
X32732562Y-4780532D01*
X32737512Y-4779047D01*
X32938122Y-4680769D01*
X33119988Y-4551046D01*
X33278224Y-4393362D01*
X33282309Y-4387678D01*
X33405563Y-4216150D01*
X33408581Y-4211950D01*
X33436463Y-4155536D01*
X33505264Y-4016326D01*
X33505265Y-4016324D01*
X33507558Y-4011684D01*
X33572498Y-3797942D01*
X33601657Y-3576463D01*
X33602293Y-3550448D01*
X33603202Y-3513238D01*
X33603202Y-3513234D01*
X33603284Y-3509873D01*
X33584980Y-3287234D01*
X33530559Y-3070575D01*
X33441482Y-2865713D01*
X33402034Y-2804735D01*
X33322950Y-2682490D01*
X33322948Y-2682487D01*
X33320142Y-2678150D01*
X33169798Y-2512924D01*
X33165747Y-2509725D01*
X33165743Y-2509721D01*
X32998542Y-2377673D01*
X32998538Y-2377671D01*
X32994487Y-2374471D01*
X32798917Y-2266511D01*
X32794048Y-2264787D01*
X32794044Y-2264785D01*
X32593215Y-2193668D01*
X32593211Y-2193667D01*
X32588340Y-2191942D01*
X32583247Y-2191035D01*
X32583244Y-2191034D01*
X32373501Y-2153673D01*
X32373495Y-2153672D01*
X32368412Y-2152767D01*
X32294580Y-2151865D01*
X32150209Y-2150101D01*
X32150207Y-2150101D01*
X32145039Y-2150038D01*
X31924219Y-2183828D01*
X31711884Y-2253230D01*
X31681571Y-2269010D01*
X31519408Y-2353427D01*
X31513735Y-2356380D01*
X31509602Y-2359483D01*
X31509599Y-2359485D01*
X31339228Y-2487403D01*
X31335093Y-2490508D01*
X31180757Y-2652011D01*
X31177843Y-2656283D01*
X31177842Y-2656284D01*
X31148404Y-2699439D01*
X31054871Y-2836553D01*
X31039131Y-2870463D01*
X30970970Y-3017304D01*
X30960816Y-3039178D01*
X30901117Y-3254443D01*
X30877379Y-3476568D01*
X30877676Y-3481721D01*
X30877676Y-3481724D01*
X30887885Y-3658778D01*
X30890238Y-3699588D01*
X30891375Y-3704634D01*
X30891376Y-3704640D01*
X30920355Y-3833226D01*
X30915819Y-3904078D01*
X30873697Y-3961229D01*
X30807364Y-3986535D01*
X30775342Y-3984974D01*
X30577450Y-3949724D01*
X30577444Y-3949723D01*
X30572361Y-3948818D01*
X30498529Y-3947916D01*
X30354158Y-3946152D01*
X30354156Y-3946152D01*
X30348988Y-3946089D01*
X30128168Y-3979879D01*
X29915833Y-4049281D01*
X29911241Y-4051671D01*
X29911242Y-4051671D01*
X29748180Y-4136556D01*
X29717684Y-4152431D01*
X29713551Y-4155534D01*
X29713548Y-4155536D01*
X29638412Y-4211950D01*
X29539042Y-4286559D01*
X29384706Y-4448062D01*
X29258820Y-4632604D01*
X29256641Y-4637299D01*
X29167492Y-4829355D01*
X29164765Y-4835229D01*
X29105066Y-5050494D01*
X29081328Y-5272619D01*
X29081625Y-5277772D01*
X29081625Y-5277775D01*
X29089680Y-5417477D01*
X29094187Y-5495639D01*
X29095324Y-5500685D01*
X29095325Y-5500691D01*
X29124304Y-5629277D01*
X29119768Y-5700129D01*
X29077646Y-5757280D01*
X29011313Y-5782586D01*
X28979291Y-5781025D01*
X28781399Y-5745775D01*
X28781393Y-5745774D01*
X28776310Y-5744869D01*
X28702478Y-5743967D01*
X28558107Y-5742203D01*
X28558105Y-5742203D01*
X28552937Y-5742140D01*
X28332117Y-5775930D01*
X28119782Y-5845332D01*
X28115190Y-5847722D01*
X28115191Y-5847722D01*
X27989736Y-5913030D01*
X27921633Y-5948482D01*
X27917500Y-5951585D01*
X27917497Y-5951587D01*
X27747126Y-6079505D01*
X27742991Y-6082610D01*
X27739419Y-6086348D01*
X27607506Y-6224387D01*
X27588655Y-6244113D01*
X27462769Y-6428655D01*
X27460590Y-6433350D01*
X27371441Y-6625406D01*
X27368714Y-6631280D01*
X27309015Y-6846545D01*
X27285277Y-7068670D01*
X27285574Y-7073823D01*
X27285574Y-7073826D01*
X27291037Y-7168565D01*
X27298136Y-7291690D01*
X27299273Y-7296736D01*
X27299274Y-7296742D01*
X27328253Y-7425330D01*
X27323717Y-7496182D01*
X27281595Y-7553333D01*
X27215262Y-7578639D01*
X27183244Y-7577078D01*
X27049939Y-7553333D01*
X26985346Y-7541827D01*
X26985342Y-7541827D01*
X26980258Y-7540921D01*
X26906426Y-7540019D01*
X26762055Y-7538255D01*
X26762053Y-7538255D01*
X26756885Y-7538192D01*
X26536065Y-7571982D01*
X26323730Y-7641384D01*
X26125581Y-7744534D01*
X26121448Y-7747637D01*
X26121445Y-7747639D01*
X26046310Y-7804052D01*
X25946939Y-7878662D01*
X25943367Y-7882400D01*
X25844877Y-7985464D01*
X25792603Y-8040165D01*
X25666717Y-8224707D01*
X25649176Y-8262497D01*
X25576252Y-8419599D01*
X25572662Y-8427332D01*
X25512963Y-8642597D01*
X25489225Y-8864722D01*
X25489522Y-8869875D01*
X25489522Y-8869878D01*
X25494985Y-8964617D01*
X25502084Y-9087742D01*
X25503221Y-9092788D01*
X25503222Y-9092794D01*
X25532201Y-9221380D01*
X25527665Y-9292232D01*
X25485543Y-9349383D01*
X25419210Y-9374689D01*
X25387188Y-9373128D01*
X25189296Y-9337878D01*
X25189290Y-9337877D01*
X25184207Y-9336972D01*
X25110375Y-9336070D01*
X24966004Y-9334306D01*
X24966002Y-9334306D01*
X24960834Y-9334243D01*
X24740014Y-9368033D01*
X24527679Y-9437435D01*
X24523087Y-9439825D01*
X24523088Y-9439825D01*
X24340793Y-9534722D01*
X24329530Y-9540585D01*
X24325397Y-9543688D01*
X24325394Y-9543690D01*
X24155023Y-9671608D01*
X24150888Y-9674713D01*
X23996552Y-9836216D01*
X23993638Y-9840488D01*
X23993637Y-9840489D01*
X23920658Y-9947472D01*
X23870666Y-10020758D01*
X23868487Y-10025453D01*
X23779338Y-10217509D01*
X23776611Y-10223383D01*
X23716912Y-10438648D01*
X23693174Y-10660773D01*
X23693471Y-10665926D01*
X23693471Y-10665930D01*
X23696924Y-10725816D01*
X23680876Y-10794975D01*
X23629986Y-10844479D01*
X23560410Y-10858611D01*
X23518982Y-10847769D01*
X23412087Y-10799167D01*
X23395031Y-10794180D01*
X23268761Y-10776097D01*
X23250983Y-10776097D01*
X23124713Y-10794180D01*
X23107658Y-10799167D01*
X22990549Y-10852413D01*
X22977205Y-10860630D01*
X22937328Y-10892693D01*
X22932250Y-10897249D01*
X22492038Y-11337461D01*
X22484424Y-11351405D01*
X20021946Y-11351405D01*
X19933791Y-11248189D01*
X19741269Y-11083759D01*
X19525395Y-10951471D01*
X19520825Y-10949578D01*
X19520821Y-10949576D01*
X19296057Y-10856476D01*
X19296055Y-10856475D01*
X19291484Y-10854582D01*
X19206861Y-10834266D01*
X19050109Y-10796633D01*
X19050103Y-10796632D01*
X19045296Y-10795478D01*
X18792893Y-10775613D01*
X18787963Y-10776001D01*
X18640167Y-10787633D01*
X18570687Y-10773037D01*
X18520127Y-10723195D01*
X18504760Y-10673002D01*
X18493715Y-10546758D01*
X18493236Y-10541279D01*
X18435698Y-10326546D01*
X18423661Y-10300733D01*
X18344072Y-10130053D01*
X18344069Y-10130048D01*
X18341746Y-10125066D01*
X18304029Y-10071200D01*
X18217394Y-9947472D01*
X18217392Y-9947469D01*
X18214235Y-9942961D01*
X18057039Y-9785765D01*
X18052531Y-9782608D01*
X18052528Y-9782606D01*
X17903779Y-9678451D01*
X17874935Y-9658254D01*
X17869953Y-9655931D01*
X17869948Y-9655928D01*
X17694790Y-9574251D01*
X17641505Y-9527334D01*
X17622044Y-9459056D01*
X17633339Y-9407905D01*
X17655429Y-9359321D01*
X17660416Y-9342266D01*
X17678499Y-9215996D01*
X17678499Y-9198218D01*
X17660416Y-9071948D01*
X17655429Y-9054893D01*
X17602186Y-8937790D01*
X17593963Y-8924437D01*
X17561897Y-8884556D01*
X17557353Y-8879492D01*
X16940353Y-8262493D01*
X16926415Y-8254882D01*
X16924579Y-8255014D01*
X16917967Y-8259263D01*
X14666303Y-10510927D01*
X14658689Y-10524871D01*
X11243998Y-10524871D01*
X9935123Y-9215996D01*
X13543327Y-9215996D01*
X13561410Y-9342266D01*
X13566397Y-9359321D01*
X13619640Y-9476424D01*
X13627863Y-9489777D01*
X13659929Y-9529658D01*
X13664473Y-9534722D01*
X14281473Y-10151721D01*
X14295411Y-10159332D01*
X14297247Y-10159200D01*
X14303859Y-10154951D01*
X15238891Y-9219919D01*
X15246505Y-9205975D01*
X15246374Y-9204142D01*
X15242123Y-9197527D01*
X14307093Y-8262497D01*
X14293149Y-8254883D01*
X14291316Y-8255014D01*
X14284701Y-8259265D01*
X13664485Y-8879481D01*
X13659923Y-8884565D01*
X13627863Y-8924438D01*
X13619641Y-8937788D01*
X13566397Y-9054893D01*
X13561410Y-9071948D01*
X13543327Y-9198218D01*
X13543327Y-9215996D01*
X9935123Y-9215996D01*
X8610732Y-7891605D01*
X14658688Y-7891605D01*
X14658820Y-7893441D01*
X14663069Y-7900053D01*
X15598101Y-8835085D01*
X15612045Y-8842699D01*
X15613878Y-8842568D01*
X15620493Y-8838317D01*
X16555523Y-7903287D01*
X16563137Y-7889343D01*
X16563006Y-7887510D01*
X16558755Y-7880895D01*
X15938539Y-7260679D01*
X15933455Y-7256117D01*
X15893582Y-7224057D01*
X15880232Y-7215835D01*
X15763127Y-7162591D01*
X15746072Y-7157604D01*
X15619802Y-7139521D01*
X15602024Y-7139521D01*
X15475754Y-7157604D01*
X15458699Y-7162591D01*
X15341596Y-7215834D01*
X15328243Y-7224057D01*
X15288362Y-7256123D01*
X15283298Y-7260667D01*
X14666299Y-7877667D01*
X14658688Y-7891605D01*
X8610732Y-7891605D01*
X2743998Y-2024871D01*
X6158689Y-2024871D01*
X6158820Y-2026704D01*
X6163071Y-2033319D01*
X6783287Y-2653535D01*
X6788371Y-2658097D01*
X6828244Y-2690157D01*
X6841594Y-2698379D01*
X6958699Y-2751623D01*
X6975754Y-2756610D01*
X7102024Y-2774693D01*
X7119802Y-2774693D01*
X7246072Y-2756610D01*
X7263127Y-2751623D01*
X7380236Y-2698377D01*
X7382763Y-2696821D01*
X7385003Y-2696210D01*
X7387424Y-2695109D01*
X7387602Y-2695501D01*
X7451255Y-2678131D01*
X7518979Y-2699439D01*
X7563029Y-2750858D01*
X7630444Y-2895431D01*
X7630447Y-2895436D01*
X7632770Y-2900418D01*
X7635926Y-2904925D01*
X7635927Y-2904927D01*
X7755429Y-3075593D01*
X7760281Y-3082523D01*
X7917477Y-3239719D01*
X7921985Y-3242876D01*
X7921988Y-3242878D01*
X7931390Y-3249461D01*
X8099581Y-3367230D01*
X8104563Y-3369553D01*
X8104568Y-3369556D01*
X8296080Y-3458859D01*
X8301062Y-3461182D01*
X8306370Y-3462604D01*
X8306372Y-3462605D01*
X8334027Y-3470015D01*
X8515795Y-3518720D01*
X8553710Y-3522037D01*
X8582820Y-3524584D01*
X8648938Y-3550448D01*
X8690578Y-3607951D01*
X8697450Y-3659989D01*
X8679419Y-3889087D01*
X8699284Y-4141490D01*
X8700438Y-4146297D01*
X8700439Y-4146303D01*
X8702656Y-4155536D01*
X8758388Y-4387678D01*
X8760281Y-4392249D01*
X8760282Y-4392251D01*
X8850855Y-4610913D01*
X8855277Y-4621589D01*
X8987565Y-4837463D01*
X9151995Y-5029985D01*
X9344517Y-5194415D01*
X9560391Y-5326703D01*
X9564961Y-5328596D01*
X9564965Y-5328598D01*
X9779539Y-5417477D01*
X9794302Y-5423592D01*
X9878925Y-5443908D01*
X10035677Y-5481541D01*
X10035683Y-5481542D01*
X10040490Y-5482696D01*
X10292893Y-5502561D01*
X10545296Y-5482696D01*
X10550103Y-5481542D01*
X10550109Y-5481541D01*
X10706861Y-5443908D01*
X10791484Y-5423592D01*
X10806247Y-5417477D01*
X11020821Y-5328598D01*
X11020825Y-5328596D01*
X11025395Y-5326703D01*
X11241269Y-5194415D01*
X11433791Y-5029985D01*
X11598221Y-4837463D01*
X11730509Y-4621589D01*
X11734932Y-4610913D01*
X18593633Y-4610913D01*
X18613498Y-4863316D01*
X18614652Y-4868123D01*
X18614653Y-4868129D01*
X18641703Y-4980801D01*
X18672602Y-5109504D01*
X18674495Y-5114075D01*
X18674496Y-5114077D01*
X18763354Y-5328598D01*
X18769491Y-5343415D01*
X18901779Y-5559289D01*
X19066209Y-5751811D01*
X19258731Y-5916241D01*
X19474605Y-6048529D01*
X19479175Y-6050422D01*
X19479179Y-6050424D01*
X19678565Y-6133012D01*
X19708516Y-6145418D01*
X19793139Y-6165734D01*
X19949891Y-6203367D01*
X19949897Y-6203368D01*
X19954704Y-6204522D01*
X20207107Y-6224387D01*
X20212037Y-6223999D01*
X20359833Y-6212367D01*
X20429313Y-6226963D01*
X20479873Y-6276805D01*
X20495240Y-6326998D01*
X20506764Y-6458721D01*
X20508188Y-6464034D01*
X20560612Y-6659681D01*
X20564302Y-6673454D01*
X20566624Y-6678435D01*
X20566625Y-6678436D01*
X20655928Y-6869947D01*
X20655931Y-6869952D01*
X20658254Y-6874934D01*
X20785765Y-7057039D01*
X20942961Y-7214235D01*
X20947469Y-7217392D01*
X20947472Y-7217394D01*
X21009290Y-7260679D01*
X21125065Y-7341746D01*
X21130047Y-7344069D01*
X21130052Y-7344072D01*
X21321564Y-7433375D01*
X21326546Y-7435698D01*
X21331854Y-7437120D01*
X21331856Y-7437121D01*
X21397691Y-7454761D01*
X21541279Y-7493236D01*
X21662933Y-7503879D01*
X21673002Y-7504760D01*
X21739121Y-7530623D01*
X21780760Y-7588127D01*
X21787633Y-7640167D01*
X21775613Y-7792893D01*
X21795478Y-8045296D01*
X21854582Y-8291484D01*
X21856475Y-8296055D01*
X21856476Y-8296057D01*
X21925928Y-8463728D01*
X21951471Y-8525395D01*
X22083759Y-8741269D01*
X22248189Y-8933791D01*
X22440711Y-9098221D01*
X22656585Y-9230509D01*
X22661155Y-9232402D01*
X22661159Y-9232404D01*
X22838030Y-9305666D01*
X22890496Y-9327398D01*
X22975119Y-9347714D01*
X23131871Y-9385347D01*
X23131877Y-9385348D01*
X23136684Y-9386502D01*
X23389087Y-9406367D01*
X23641490Y-9386502D01*
X23646297Y-9385348D01*
X23646303Y-9385347D01*
X23803055Y-9347714D01*
X23887678Y-9327398D01*
X23940144Y-9305666D01*
X24117015Y-9232404D01*
X24117019Y-9232402D01*
X24121589Y-9230509D01*
X24337463Y-9098221D01*
X24529985Y-8933791D01*
X24694415Y-8741269D01*
X24826703Y-8525395D01*
X24852247Y-8463728D01*
X24921698Y-8296057D01*
X24921699Y-8296055D01*
X24923592Y-8291484D01*
X24982696Y-8045296D01*
X25002561Y-7792893D01*
X24982696Y-7540490D01*
X24980328Y-7530623D01*
X24924747Y-7299114D01*
X24923592Y-7294302D01*
X24921698Y-7289729D01*
X24828598Y-7064965D01*
X24828596Y-7064961D01*
X24826703Y-7060391D01*
X24694415Y-6844517D01*
X24539108Y-6662677D01*
X24533193Y-6655751D01*
X24529985Y-6651995D01*
X24337463Y-6487565D01*
X24121589Y-6355277D01*
X24117019Y-6353384D01*
X24117015Y-6353382D01*
X23892251Y-6260282D01*
X23892249Y-6260281D01*
X23887678Y-6258388D01*
X23803055Y-6238072D01*
X23646303Y-6200439D01*
X23646297Y-6200438D01*
X23641490Y-6199284D01*
X23389087Y-6179419D01*
X23159990Y-6197450D01*
X23090511Y-6182854D01*
X23039952Y-6133012D01*
X23024584Y-6082820D01*
X23022037Y-6053710D01*
X23018720Y-6015795D01*
X22961182Y-5801062D01*
X22958859Y-5796080D01*
X22869556Y-5604569D01*
X22869553Y-5604564D01*
X22867230Y-5599582D01*
X22863317Y-5593993D01*
X22742878Y-5421988D01*
X22742876Y-5421985D01*
X22739719Y-5417477D01*
X22582523Y-5260281D01*
X22578015Y-5257124D01*
X22578012Y-5257122D01*
X22483871Y-5191204D01*
X22400419Y-5132770D01*
X22395437Y-5130447D01*
X22395432Y-5130444D01*
X22203920Y-5041141D01*
X22203919Y-5041140D01*
X22198938Y-5038818D01*
X22193630Y-5037396D01*
X22193628Y-5037395D01*
X22127793Y-5019755D01*
X21984205Y-4981280D01*
X21946290Y-4977963D01*
X21917180Y-4975416D01*
X21851062Y-4949552D01*
X21809422Y-4892049D01*
X21802550Y-4840009D01*
X21802751Y-4837463D01*
X21820581Y-4610913D01*
X21800716Y-4358510D01*
X21783443Y-4286559D01*
X21749770Y-4146303D01*
X21741612Y-4112322D01*
X21701849Y-4016326D01*
X21646618Y-3882985D01*
X21646616Y-3882981D01*
X21644723Y-3878411D01*
X21512435Y-3662537D01*
X21368147Y-3493598D01*
X21351213Y-3473771D01*
X21348005Y-3470015D01*
X21155483Y-3305585D01*
X20939609Y-3173297D01*
X20935039Y-3171404D01*
X20935035Y-3171402D01*
X20710271Y-3078302D01*
X20710269Y-3078301D01*
X20705698Y-3076408D01*
X20621075Y-3056092D01*
X20464323Y-3018459D01*
X20464317Y-3018458D01*
X20459510Y-3017304D01*
X20207107Y-2997439D01*
X19954704Y-3017304D01*
X19949897Y-3018458D01*
X19949891Y-3018459D01*
X19793139Y-3056092D01*
X19708516Y-3076408D01*
X19703945Y-3078301D01*
X19703943Y-3078302D01*
X19479179Y-3171402D01*
X19479175Y-3171404D01*
X19474605Y-3173297D01*
X19258731Y-3305585D01*
X19066209Y-3470015D01*
X19063001Y-3473771D01*
X19046067Y-3493598D01*
X18901779Y-3662537D01*
X18769491Y-3878411D01*
X18767598Y-3882981D01*
X18767596Y-3882985D01*
X18712365Y-4016326D01*
X18672602Y-4112322D01*
X18664444Y-4146303D01*
X18630772Y-4286559D01*
X18613498Y-4358510D01*
X18593633Y-4610913D01*
X11734932Y-4610913D01*
X11825504Y-4392251D01*
X11825505Y-4392249D01*
X11827398Y-4387678D01*
X11883130Y-4155536D01*
X11885347Y-4146303D01*
X11885348Y-4146297D01*
X11886502Y-4141490D01*
X11906367Y-3889087D01*
X11886502Y-3636684D01*
X11872045Y-3576463D01*
X11828553Y-3395308D01*
X11827398Y-3390496D01*
X11825504Y-3385923D01*
X11732404Y-3161159D01*
X11732402Y-3161155D01*
X11730509Y-3156585D01*
X11598221Y-2940711D01*
X11433791Y-2748189D01*
X11241269Y-2583759D01*
X11025395Y-2451471D01*
X11020825Y-2449578D01*
X11020821Y-2449576D01*
X10796057Y-2356476D01*
X10796055Y-2356475D01*
X10791484Y-2354582D01*
X10706861Y-2334266D01*
X10550109Y-2296633D01*
X10550103Y-2296632D01*
X10545296Y-2295478D01*
X10292893Y-2275613D01*
X10287963Y-2276001D01*
X10140167Y-2287633D01*
X10070687Y-2273037D01*
X10020127Y-2223195D01*
X10004760Y-2173002D01*
X9993715Y-2046758D01*
X9993236Y-2041279D01*
X9988839Y-2024871D01*
X23158689Y-2024871D01*
X23158820Y-2026704D01*
X23163071Y-2033319D01*
X23783287Y-2653535D01*
X23788371Y-2658097D01*
X23828244Y-2690157D01*
X23841594Y-2698379D01*
X23958699Y-2751623D01*
X23975754Y-2756610D01*
X24102024Y-2774693D01*
X24119802Y-2774693D01*
X24246072Y-2756610D01*
X24263127Y-2751623D01*
X24380236Y-2698377D01*
X24382763Y-2696821D01*
X24385003Y-2696210D01*
X24387424Y-2695109D01*
X24387602Y-2695501D01*
X24451255Y-2678131D01*
X24518979Y-2699439D01*
X24563029Y-2750858D01*
X24630444Y-2895431D01*
X24630447Y-2895436D01*
X24632770Y-2900418D01*
X24635926Y-2904925D01*
X24635927Y-2904927D01*
X24755429Y-3075593D01*
X24760281Y-3082523D01*
X24917477Y-3239719D01*
X24921985Y-3242876D01*
X24921988Y-3242878D01*
X24931390Y-3249461D01*
X25099581Y-3367230D01*
X25104563Y-3369553D01*
X25104568Y-3369556D01*
X25296080Y-3458859D01*
X25301062Y-3461182D01*
X25306370Y-3462604D01*
X25306372Y-3462605D01*
X25334027Y-3470015D01*
X25515795Y-3518720D01*
X25553710Y-3522037D01*
X25582820Y-3524584D01*
X25648938Y-3550448D01*
X25690578Y-3607951D01*
X25697450Y-3659989D01*
X25679419Y-3889087D01*
X25699284Y-4141490D01*
X25700438Y-4146297D01*
X25700439Y-4146303D01*
X25702656Y-4155536D01*
X25758388Y-4387678D01*
X25760281Y-4392249D01*
X25760282Y-4392251D01*
X25850855Y-4610913D01*
X25855277Y-4621589D01*
X25987565Y-4837463D01*
X26151995Y-5029985D01*
X26344517Y-5194415D01*
X26560391Y-5326703D01*
X26564961Y-5328596D01*
X26564965Y-5328598D01*
X26779539Y-5417477D01*
X26794302Y-5423592D01*
X26878925Y-5443908D01*
X27035677Y-5481541D01*
X27035683Y-5481542D01*
X27040490Y-5482696D01*
X27292893Y-5502561D01*
X27545296Y-5482696D01*
X27550103Y-5481542D01*
X27550109Y-5481541D01*
X27706861Y-5443908D01*
X27791484Y-5423592D01*
X27806247Y-5417477D01*
X28020821Y-5328598D01*
X28020825Y-5328596D01*
X28025395Y-5326703D01*
X28241269Y-5194415D01*
X28433791Y-5029985D01*
X28598221Y-4837463D01*
X28730509Y-4621589D01*
X28734932Y-4610913D01*
X28825504Y-4392251D01*
X28825505Y-4392249D01*
X28827398Y-4387678D01*
X28883130Y-4155536D01*
X28885347Y-4146303D01*
X28885348Y-4146297D01*
X28886502Y-4141490D01*
X28906367Y-3889087D01*
X28886502Y-3636684D01*
X28872045Y-3576463D01*
X28828553Y-3395308D01*
X28827398Y-3390496D01*
X28825504Y-3385923D01*
X28732404Y-3161159D01*
X28732402Y-3161155D01*
X28730509Y-3156585D01*
X28598221Y-2940711D01*
X28433791Y-2748189D01*
X28241269Y-2583759D01*
X28025395Y-2451471D01*
X28020825Y-2449578D01*
X28020821Y-2449576D01*
X27796057Y-2356476D01*
X27796055Y-2356475D01*
X27791484Y-2354582D01*
X27706861Y-2334266D01*
X27550109Y-2296633D01*
X27550103Y-2296632D01*
X27545296Y-2295478D01*
X27292893Y-2275613D01*
X27287963Y-2276001D01*
X27140167Y-2287633D01*
X27070687Y-2273037D01*
X27020127Y-2223195D01*
X27004760Y-2173002D01*
X26993715Y-2046758D01*
X26993236Y-2041279D01*
X26935698Y-1826546D01*
X26855682Y-1654951D01*
X26844072Y-1630053D01*
X26844069Y-1630048D01*
X26841746Y-1625066D01*
X26796274Y-1560125D01*
X26717394Y-1447472D01*
X26717392Y-1447469D01*
X26714235Y-1442961D01*
X26557039Y-1285765D01*
X26552531Y-1282608D01*
X26552528Y-1282606D01*
X26464495Y-1220965D01*
X26374935Y-1158254D01*
X26369953Y-1155931D01*
X26369948Y-1155928D01*
X26194790Y-1074251D01*
X26141505Y-1027334D01*
X26122044Y-959056D01*
X26133339Y-907905D01*
X26155429Y-859321D01*
X26160416Y-842266D01*
X26178499Y-715996D01*
X26178499Y-698218D01*
X26160416Y-571948D01*
X26155429Y-554893D01*
X26102186Y-437790D01*
X26093963Y-424437D01*
X26061897Y-384556D01*
X26057353Y-379492D01*
X25440353Y237507D01*
X25426415Y245118D01*
X25424579Y244986D01*
X25417967Y240737D01*
X23166303Y-2010927D01*
X23158689Y-2024871D01*
X9988839Y-2024871D01*
X9935698Y-1826546D01*
X9855682Y-1654951D01*
X9844072Y-1630053D01*
X9844069Y-1630048D01*
X9841746Y-1625066D01*
X9796274Y-1560125D01*
X9717394Y-1447472D01*
X9717392Y-1447469D01*
X9714235Y-1442961D01*
X9557039Y-1285765D01*
X9552531Y-1282608D01*
X9552528Y-1282606D01*
X9464495Y-1220965D01*
X9374935Y-1158254D01*
X9369953Y-1155931D01*
X9369948Y-1155928D01*
X9194790Y-1074251D01*
X9141505Y-1027334D01*
X9122044Y-959056D01*
X9133339Y-907905D01*
X9155429Y-859321D01*
X9160416Y-842266D01*
X9178499Y-715996D01*
X9178499Y-698218D01*
X9160416Y-571948D01*
X9155429Y-554893D01*
X9102186Y-437790D01*
X9093963Y-424437D01*
X9061897Y-384556D01*
X9057353Y-379492D01*
X8440353Y237507D01*
X8426415Y245118D01*
X8424579Y244986D01*
X8417967Y240737D01*
X6166303Y-2010927D01*
X6158689Y-2024871D01*
X2743998Y-2024871D01*
X2341564Y-1622437D01*
X2307538Y-1560125D01*
X2312603Y-1489310D01*
X2355150Y-1432474D01*
X2421670Y-1407663D01*
X2478876Y-1416933D01*
X2527828Y-1437209D01*
X2527831Y-1437210D01*
X2532406Y-1439105D01*
X2612609Y-1458360D01*
X2758476Y-1493380D01*
X2758482Y-1493381D01*
X2763289Y-1494535D01*
X3000000Y-1513165D01*
X3236711Y-1494535D01*
X3241518Y-1493381D01*
X3241524Y-1493380D01*
X3387391Y-1458360D01*
X3467594Y-1439105D01*
X3472167Y-1437211D01*
X3682389Y-1350135D01*
X3682393Y-1350133D01*
X3686963Y-1348240D01*
X3691183Y-1345654D01*
X3885202Y-1226759D01*
X3885208Y-1226755D01*
X3889416Y-1224176D01*
X4045382Y-1090968D01*
X4066213Y-1073177D01*
X4069969Y-1069969D01*
X4224176Y-889416D01*
X4226755Y-885208D01*
X4226759Y-885202D01*
X4330449Y-715996D01*
X5043327Y-715996D01*
X5061410Y-842266D01*
X5066397Y-859321D01*
X5119640Y-976424D01*
X5127863Y-989777D01*
X5159929Y-1029658D01*
X5164473Y-1034722D01*
X5781473Y-1651721D01*
X5795411Y-1659332D01*
X5797247Y-1659200D01*
X5803859Y-1654951D01*
X6738891Y-719919D01*
X6746505Y-705975D01*
X6746374Y-704142D01*
X6742123Y-697527D01*
X5807093Y237503D01*
X5793149Y245117D01*
X5791316Y244986D01*
X5784701Y240735D01*
X5164485Y-379481D01*
X5159923Y-384565D01*
X5127863Y-424438D01*
X5119641Y-437788D01*
X5066397Y-554893D01*
X5061410Y-571948D01*
X5043327Y-698218D01*
X5043327Y-715996D01*
X4330449Y-715996D01*
X4345654Y-691183D01*
X4348240Y-686963D01*
X4360057Y-658436D01*
X4437211Y-472167D01*
X4437212Y-472165D01*
X4439105Y-467594D01*
X4463399Y-366401D01*
X4493380Y-241524D01*
X4493381Y-241518D01*
X4494535Y-236711D01*
X4513165Y0D01*
X4494535Y236711D01*
X4492549Y244986D01*
X4443355Y449891D01*
X4439105Y467594D01*
X4416933Y521122D01*
X4380784Y608395D01*
X6158688Y608395D01*
X6158820Y606559D01*
X6163069Y599947D01*
X7098101Y-335085D01*
X7112045Y-342699D01*
X7113878Y-342568D01*
X7120493Y-338317D01*
X8055523Y596713D01*
X8063137Y610657D01*
X8063006Y612490D01*
X8058755Y619105D01*
X7438539Y1239321D01*
X7433455Y1243883D01*
X7393582Y1275943D01*
X7380232Y1284165D01*
X7263127Y1337409D01*
X7246072Y1342396D01*
X7119802Y1360479D01*
X7102024Y1360479D01*
X6975754Y1342396D01*
X6958699Y1337409D01*
X6841596Y1284166D01*
X6828243Y1275943D01*
X6788362Y1243877D01*
X6783298Y1239333D01*
X6166299Y622333D01*
X6158688Y608395D01*
X4380784Y608395D01*
X4350135Y682389D01*
X4350133Y682393D01*
X4348240Y686963D01*
X4242305Y859833D01*
X4226759Y885202D01*
X4226755Y885208D01*
X4224176Y889416D01*
X4069969Y1069969D01*
X3889416Y1224176D01*
X3885208Y1226755D01*
X3885202Y1226759D01*
X3691183Y1345654D01*
X3686963Y1348240D01*
X3682393Y1350133D01*
X3682389Y1350135D01*
X3472167Y1437211D01*
X3472165Y1437212D01*
X3467594Y1439105D01*
X3387391Y1458360D01*
X3241524Y1493380D01*
X3241518Y1493381D01*
X3236711Y1494535D01*
X3000000Y1513165D01*
X2763289Y1494535D01*
X2758482Y1493381D01*
X2758476Y1493380D01*
X2612609Y1458360D01*
X2532406Y1439105D01*
X2527831Y1437210D01*
X2527828Y1437209D01*
X2478876Y1416933D01*
X2408286Y1409344D01*
X2344800Y1441124D01*
X2308573Y1502182D01*
X2311107Y1573134D01*
X2341564Y1622437D01*
X4608214Y3889087D01*
X10093633Y3889087D01*
X10113498Y3636684D01*
X10114652Y3631877D01*
X10114653Y3631871D01*
X10141703Y3519199D01*
X10172602Y3390496D01*
X10174495Y3385925D01*
X10174496Y3385923D01*
X10263354Y3171402D01*
X10269491Y3156585D01*
X10401779Y2940711D01*
X10566209Y2748189D01*
X10758731Y2583759D01*
X10974605Y2451471D01*
X10979175Y2449578D01*
X10979179Y2449576D01*
X11178565Y2366988D01*
X11208516Y2354582D01*
X11293139Y2334266D01*
X11449891Y2296633D01*
X11449897Y2296632D01*
X11454704Y2295478D01*
X11707107Y2275613D01*
X11712037Y2276001D01*
X11859833Y2287633D01*
X11929313Y2273037D01*
X11979873Y2223195D01*
X11995240Y2173002D01*
X12006764Y2041279D01*
X12064302Y1826546D01*
X12066624Y1821565D01*
X12066625Y1821564D01*
X12155928Y1630053D01*
X12155931Y1630048D01*
X12158254Y1625066D01*
X12161410Y1620559D01*
X12161411Y1620557D01*
X12249653Y1494535D01*
X12285765Y1442961D01*
X12442961Y1285765D01*
X12447469Y1282608D01*
X12447472Y1282606D01*
X12509290Y1239321D01*
X12625065Y1158254D01*
X12630047Y1155931D01*
X12630052Y1155928D01*
X12807513Y1073177D01*
X12826546Y1064302D01*
X12831854Y1062880D01*
X12831856Y1062879D01*
X12897691Y1045239D01*
X13041279Y1006764D01*
X13162933Y996121D01*
X13173002Y995240D01*
X13239121Y969377D01*
X13280760Y911873D01*
X13287633Y859833D01*
X13275613Y707107D01*
X13295478Y454704D01*
X13296632Y449897D01*
X13296633Y449891D01*
X13306402Y409200D01*
X13354582Y208516D01*
X13356475Y203945D01*
X13356476Y203943D01*
X13438465Y6005D01*
X13451471Y-25395D01*
X13583759Y-241269D01*
X13748189Y-433791D01*
X13940711Y-598221D01*
X14156585Y-730509D01*
X14161155Y-732402D01*
X14161159Y-732404D01*
X14385923Y-825504D01*
X14390496Y-827398D01*
X14475119Y-847714D01*
X14631871Y-885347D01*
X14631877Y-885348D01*
X14636684Y-886502D01*
X14889087Y-906367D01*
X15141490Y-886502D01*
X15146297Y-885348D01*
X15146303Y-885347D01*
X15303055Y-847714D01*
X15387678Y-827398D01*
X15392251Y-825504D01*
X15617015Y-732404D01*
X15617019Y-732402D01*
X15621589Y-730509D01*
X15645272Y-715996D01*
X22043327Y-715996D01*
X22061410Y-842266D01*
X22066397Y-859321D01*
X22119640Y-976424D01*
X22127863Y-989777D01*
X22159929Y-1029658D01*
X22164473Y-1034722D01*
X22781473Y-1651721D01*
X22795411Y-1659332D01*
X22797247Y-1659200D01*
X22803859Y-1654951D01*
X23738891Y-719919D01*
X23746505Y-705975D01*
X23746374Y-704142D01*
X23742123Y-697527D01*
X22807093Y237503D01*
X22793149Y245117D01*
X22791316Y244986D01*
X22784701Y240735D01*
X22164485Y-379481D01*
X22159923Y-384565D01*
X22127863Y-424438D01*
X22119641Y-437788D01*
X22066397Y-554893D01*
X22061410Y-571948D01*
X22043327Y-698218D01*
X22043327Y-715996D01*
X15645272Y-715996D01*
X15837463Y-598221D01*
X16029985Y-433791D01*
X16194415Y-241269D01*
X16326703Y-25395D01*
X16339710Y6005D01*
X16421698Y203943D01*
X16421699Y203945D01*
X16423592Y208516D01*
X16471772Y409200D01*
X16481541Y449891D01*
X16481542Y449897D01*
X16482696Y454704D01*
X16494792Y608395D01*
X23158688Y608395D01*
X23158820Y606559D01*
X23163069Y599947D01*
X24098101Y-335085D01*
X24112045Y-342699D01*
X24113878Y-342568D01*
X24120493Y-338317D01*
X25055523Y596713D01*
X25063137Y610657D01*
X25063006Y612490D01*
X25058755Y619105D01*
X24438539Y1239321D01*
X24433455Y1243883D01*
X24393582Y1275943D01*
X24380232Y1284165D01*
X24263127Y1337409D01*
X24246072Y1342396D01*
X24119802Y1360479D01*
X24102024Y1360479D01*
X23975754Y1342396D01*
X23958699Y1337409D01*
X23841596Y1284166D01*
X23828243Y1275943D01*
X23788362Y1243877D01*
X23783298Y1239333D01*
X23166299Y622333D01*
X23158688Y608395D01*
X16494792Y608395D01*
X16502561Y707107D01*
X16482696Y959510D01*
X16480328Y969377D01*
X16424747Y1200886D01*
X16423592Y1205698D01*
X16366970Y1342396D01*
X16328598Y1435035D01*
X16328596Y1435039D01*
X16326703Y1439609D01*
X16194415Y1655483D01*
X16029985Y1848005D01*
X15837463Y2012435D01*
X15621589Y2144723D01*
X15617019Y2146616D01*
X15617015Y2146618D01*
X15392251Y2239718D01*
X15392249Y2239719D01*
X15387678Y2241612D01*
X15303055Y2261928D01*
X15146303Y2299561D01*
X15146297Y2299562D01*
X15141490Y2300716D01*
X14889087Y2320581D01*
X14659990Y2302550D01*
X14590511Y2317146D01*
X14539952Y2366988D01*
X14524584Y2417180D01*
X14522037Y2446290D01*
X14518720Y2484205D01*
X14461182Y2698938D01*
X14438216Y2748189D01*
X14369556Y2895431D01*
X14369553Y2895436D01*
X14367230Y2900418D01*
X14336066Y2944925D01*
X14242878Y3078012D01*
X14242876Y3078015D01*
X14239719Y3082523D01*
X14082523Y3239719D01*
X14078015Y3242876D01*
X14078012Y3242878D01*
X13983871Y3308796D01*
X13900419Y3367230D01*
X13895437Y3369553D01*
X13895432Y3369556D01*
X13703920Y3458859D01*
X13703919Y3458860D01*
X13698938Y3461182D01*
X13693630Y3462604D01*
X13693628Y3462605D01*
X13627793Y3480245D01*
X13484205Y3518720D01*
X13446290Y3522037D01*
X13417180Y3524584D01*
X13351062Y3550448D01*
X13309422Y3607951D01*
X13302550Y3659991D01*
X13302751Y3662537D01*
X13320581Y3889087D01*
X13300716Y4141490D01*
X13241612Y4387678D01*
X13239718Y4392251D01*
X13146618Y4617015D01*
X13146616Y4617019D01*
X13144723Y4621589D01*
X13012435Y4837463D01*
X12848005Y5029985D01*
X12655483Y5194415D01*
X12439609Y5326703D01*
X12435039Y5328596D01*
X12435035Y5328598D01*
X12210271Y5421698D01*
X12210269Y5421699D01*
X12205698Y5423592D01*
X12121075Y5443908D01*
X11964323Y5481541D01*
X11964317Y5481542D01*
X11959510Y5482696D01*
X11707107Y5502561D01*
X11454704Y5482696D01*
X11449897Y5481542D01*
X11449891Y5481541D01*
X11293139Y5443908D01*
X11208516Y5423592D01*
X11203945Y5421699D01*
X11203943Y5421698D01*
X10979179Y5328598D01*
X10979175Y5328596D01*
X10974605Y5326703D01*
X10758731Y5194415D01*
X10566209Y5029985D01*
X10401779Y4837463D01*
X10269491Y4621589D01*
X10267598Y4617019D01*
X10267596Y4617015D01*
X10174496Y4392251D01*
X10172602Y4387678D01*
X10113498Y4141490D01*
X10093633Y3889087D01*
X4608214Y3889087D01*
X7194256Y6475129D01*
X14658689Y6475129D01*
X14658820Y6473296D01*
X14663071Y6466681D01*
X15283287Y5846465D01*
X15288371Y5841903D01*
X15328244Y5809843D01*
X15341594Y5801621D01*
X15458699Y5748377D01*
X15475754Y5743390D01*
X15602024Y5725307D01*
X15619802Y5725307D01*
X15746072Y5743390D01*
X15763127Y5748377D01*
X15880236Y5801623D01*
X15882763Y5803179D01*
X15885003Y5803790D01*
X15887424Y5804891D01*
X15887602Y5804499D01*
X15951255Y5821869D01*
X16018979Y5800561D01*
X16063029Y5749142D01*
X16130444Y5604569D01*
X16130447Y5604564D01*
X16132770Y5599582D01*
X16135926Y5595075D01*
X16135927Y5595073D01*
X16255191Y5424747D01*
X16260281Y5417477D01*
X16417477Y5260281D01*
X16421985Y5257124D01*
X16421988Y5257122D01*
X16497753Y5204071D01*
X16599581Y5132770D01*
X16604563Y5130447D01*
X16604568Y5130444D01*
X16796080Y5041141D01*
X16801062Y5038818D01*
X16806370Y5037396D01*
X16806372Y5037395D01*
X16834027Y5029985D01*
X17015795Y4981280D01*
X17053710Y4977963D01*
X17082820Y4975416D01*
X17148938Y4949552D01*
X17190578Y4892049D01*
X17197450Y4840011D01*
X17179419Y4610913D01*
X17199284Y4358510D01*
X17258388Y4112322D01*
X17260281Y4107751D01*
X17260282Y4107749D01*
X17350855Y3889087D01*
X17355277Y3878411D01*
X17487565Y3662537D01*
X17651995Y3470015D01*
X17844517Y3305585D01*
X18060391Y3173297D01*
X18064961Y3171404D01*
X18064965Y3171402D01*
X18279539Y3082523D01*
X18294302Y3076408D01*
X18378925Y3056092D01*
X18535677Y3018459D01*
X18535683Y3018458D01*
X18540490Y3017304D01*
X18792893Y2997439D01*
X19045296Y3017304D01*
X19050103Y3018458D01*
X19050109Y3018459D01*
X19206861Y3056092D01*
X19291484Y3076408D01*
X19306247Y3082523D01*
X19520821Y3171402D01*
X19520825Y3171404D01*
X19525395Y3173297D01*
X19741269Y3305585D01*
X19933791Y3470015D01*
X20098221Y3662537D01*
X20230509Y3878411D01*
X20234932Y3889087D01*
X27093633Y3889087D01*
X27113498Y3636684D01*
X27114652Y3631877D01*
X27114653Y3631871D01*
X27141703Y3519199D01*
X27172602Y3390496D01*
X27174495Y3385925D01*
X27174496Y3385923D01*
X27263354Y3171402D01*
X27269491Y3156585D01*
X27401779Y2940711D01*
X27566209Y2748189D01*
X27758731Y2583759D01*
X27974605Y2451471D01*
X27979175Y2449578D01*
X27979179Y2449576D01*
X28178565Y2366988D01*
X28208516Y2354582D01*
X28293139Y2334266D01*
X28449891Y2296633D01*
X28449897Y2296632D01*
X28454704Y2295478D01*
X28707107Y2275613D01*
X28712037Y2276001D01*
X28859833Y2287633D01*
X28929313Y2273037D01*
X28979873Y2223195D01*
X28995240Y2173002D01*
X29006764Y2041279D01*
X29064302Y1826546D01*
X29066624Y1821565D01*
X29066625Y1821564D01*
X29155928Y1630053D01*
X29155931Y1630048D01*
X29158254Y1625066D01*
X29161410Y1620559D01*
X29161411Y1620557D01*
X29249653Y1494535D01*
X29285765Y1442961D01*
X29442961Y1285765D01*
X29447469Y1282608D01*
X29447472Y1282606D01*
X29509290Y1239321D01*
X29625065Y1158254D01*
X29630047Y1155931D01*
X29630052Y1155928D01*
X29807513Y1073177D01*
X29826546Y1064302D01*
X29831854Y1062880D01*
X29831856Y1062879D01*
X29897691Y1045239D01*
X30041279Y1006764D01*
X30162933Y996121D01*
X30173002Y995240D01*
X30239121Y969377D01*
X30280760Y911873D01*
X30287633Y859833D01*
X30275613Y707107D01*
X30295478Y454704D01*
X30296632Y449897D01*
X30296633Y449891D01*
X30306402Y409200D01*
X30354582Y208516D01*
X30356475Y203945D01*
X30356476Y203943D01*
X30438465Y6005D01*
X30451471Y-25395D01*
X30583759Y-241269D01*
X30748189Y-433791D01*
X30940711Y-598221D01*
X31156585Y-730509D01*
X31161155Y-732402D01*
X31161159Y-732404D01*
X31385923Y-825504D01*
X31390496Y-827398D01*
X31475119Y-847714D01*
X31631871Y-885347D01*
X31631877Y-885348D01*
X31636684Y-886502D01*
X31889087Y-906367D01*
X32141490Y-886502D01*
X32146297Y-885348D01*
X32146303Y-885347D01*
X32303055Y-847714D01*
X32387678Y-827398D01*
X32392251Y-825504D01*
X32617015Y-732404D01*
X32617019Y-732402D01*
X32621589Y-730509D01*
X32837463Y-598221D01*
X33029985Y-433791D01*
X33194415Y-241269D01*
X33326703Y-25395D01*
X33339710Y6005D01*
X33421698Y203943D01*
X33421699Y203945D01*
X33423592Y208516D01*
X33471772Y409200D01*
X33481541Y449891D01*
X33481542Y449897D01*
X33482696Y454704D01*
X33502561Y707107D01*
X33482696Y959510D01*
X33480328Y969377D01*
X33424747Y1200886D01*
X33423592Y1205698D01*
X33366970Y1342396D01*
X33328598Y1435035D01*
X33328596Y1435039D01*
X33326703Y1439609D01*
X33194415Y1655483D01*
X33029985Y1848005D01*
X32837463Y2012435D01*
X32621589Y2144723D01*
X32617019Y2146616D01*
X32617015Y2146618D01*
X32392251Y2239718D01*
X32392249Y2239719D01*
X32387678Y2241612D01*
X32303055Y2261928D01*
X32146303Y2299561D01*
X32146297Y2299562D01*
X32141490Y2300716D01*
X31889087Y2320581D01*
X31659990Y2302550D01*
X31590511Y2317146D01*
X31539952Y2366988D01*
X31524584Y2417180D01*
X31522037Y2446290D01*
X31518720Y2484205D01*
X31461182Y2698938D01*
X31438216Y2748189D01*
X31369556Y2895431D01*
X31369553Y2895436D01*
X31367230Y2900418D01*
X31336066Y2944925D01*
X31242878Y3078012D01*
X31242876Y3078015D01*
X31239719Y3082523D01*
X31082523Y3239719D01*
X31078015Y3242876D01*
X31078012Y3242878D01*
X30983871Y3308796D01*
X30900419Y3367230D01*
X30895437Y3369553D01*
X30895432Y3369556D01*
X30703920Y3458859D01*
X30703919Y3458860D01*
X30698938Y3461182D01*
X30693630Y3462604D01*
X30693628Y3462605D01*
X30627793Y3480245D01*
X30484205Y3518720D01*
X30446290Y3522037D01*
X30417180Y3524584D01*
X30351062Y3550448D01*
X30309422Y3607951D01*
X30302550Y3659991D01*
X30302751Y3662537D01*
X30320581Y3889087D01*
X30300716Y4141490D01*
X30241612Y4387678D01*
X30239718Y4392251D01*
X30146618Y4617015D01*
X30146616Y4617019D01*
X30144723Y4621589D01*
X30012435Y4837463D01*
X29848005Y5029985D01*
X29655483Y5194415D01*
X29439609Y5326703D01*
X29435039Y5328596D01*
X29435035Y5328598D01*
X29210271Y5421698D01*
X29210269Y5421699D01*
X29205698Y5423592D01*
X29121075Y5443908D01*
X28964323Y5481541D01*
X28964317Y5481542D01*
X28959510Y5482696D01*
X28707107Y5502561D01*
X28454704Y5482696D01*
X28449897Y5481542D01*
X28449891Y5481541D01*
X28293139Y5443908D01*
X28208516Y5423592D01*
X28203945Y5421699D01*
X28203943Y5421698D01*
X27979179Y5328598D01*
X27979175Y5328596D01*
X27974605Y5326703D01*
X27758731Y5194415D01*
X27566209Y5029985D01*
X27401779Y4837463D01*
X27269491Y4621589D01*
X27267598Y4617019D01*
X27267596Y4617015D01*
X27174496Y4392251D01*
X27172602Y4387678D01*
X27113498Y4141490D01*
X27093633Y3889087D01*
X20234932Y3889087D01*
X20325504Y4107749D01*
X20325505Y4107751D01*
X20327398Y4112322D01*
X20386502Y4358510D01*
X20406367Y4610913D01*
X20386502Y4863316D01*
X20359590Y4975416D01*
X20328553Y5104692D01*
X20327398Y5109504D01*
X20325504Y5114077D01*
X20232404Y5338841D01*
X20232402Y5338845D01*
X20230509Y5343415D01*
X20098221Y5559289D01*
X19933791Y5751811D01*
X19741269Y5916241D01*
X19525395Y6048529D01*
X19520825Y6050422D01*
X19520821Y6050424D01*
X19296057Y6143524D01*
X19296055Y6143525D01*
X19291484Y6145418D01*
X19206861Y6165734D01*
X19050109Y6203367D01*
X19050103Y6203368D01*
X19045296Y6204522D01*
X18792893Y6224387D01*
X18787963Y6223999D01*
X18640167Y6212367D01*
X18570687Y6226963D01*
X18520127Y6276805D01*
X18504760Y6326998D01*
X18493715Y6453242D01*
X18493236Y6458721D01*
X18435698Y6673454D01*
X18355682Y6845049D01*
X18344072Y6869947D01*
X18344069Y6869952D01*
X18341746Y6874934D01*
X18214235Y7057039D01*
X18057039Y7214235D01*
X18052531Y7217392D01*
X18052528Y7217394D01*
X17976763Y7270445D01*
X17874935Y7341746D01*
X17869953Y7344069D01*
X17869948Y7344072D01*
X17694790Y7425749D01*
X17641505Y7472666D01*
X17622044Y7540944D01*
X17633339Y7592095D01*
X17655429Y7640679D01*
X17660416Y7657734D01*
X17678499Y7784004D01*
X17678499Y7801782D01*
X17660416Y7928052D01*
X17655429Y7945107D01*
X17602186Y8062210D01*
X17593963Y8075563D01*
X17561897Y8115444D01*
X17557353Y8120508D01*
X16940353Y8737507D01*
X16926415Y8745118D01*
X16924579Y8744986D01*
X16917967Y8740737D01*
X14666303Y6489073D01*
X14658689Y6475129D01*
X7194256Y6475129D01*
X8503131Y7784004D01*
X13543327Y7784004D01*
X13561410Y7657734D01*
X13566397Y7640679D01*
X13619640Y7523576D01*
X13627863Y7510223D01*
X13659929Y7470342D01*
X13664473Y7465278D01*
X14281473Y6848279D01*
X14295411Y6840668D01*
X14297247Y6840800D01*
X14303859Y6845049D01*
X15238891Y7780081D01*
X15246505Y7794025D01*
X15246374Y7795858D01*
X15242123Y7802473D01*
X14307093Y8737503D01*
X14293149Y8745117D01*
X14291316Y8744986D01*
X14284701Y8740735D01*
X13664485Y8120519D01*
X13659923Y8115435D01*
X13627863Y8075562D01*
X13619641Y8062212D01*
X13566397Y7945107D01*
X13561410Y7928052D01*
X13543327Y7801782D01*
X13543327Y7784004D01*
X8503131Y7784004D01*
X9827522Y9108395D01*
X14658688Y9108395D01*
X14658820Y9106559D01*
X14663069Y9099947D01*
X15598101Y8164915D01*
X15612045Y8157301D01*
X15613878Y8157432D01*
X15620493Y8161683D01*
X16555523Y9096713D01*
X16563137Y9110657D01*
X16563006Y9112490D01*
X16558755Y9119105D01*
X15938539Y9739321D01*
X15933455Y9743883D01*
X15893582Y9775943D01*
X15880232Y9784165D01*
X15763127Y9837409D01*
X15746072Y9842396D01*
X15619802Y9860479D01*
X15602024Y9860479D01*
X15475754Y9842396D01*
X15458699Y9837409D01*
X15341596Y9784166D01*
X15328243Y9775943D01*
X15288362Y9743877D01*
X15283298Y9739333D01*
X14666299Y9122333D01*
X14658688Y9108395D01*
X9827522Y9108395D01*
X13108214Y12389087D01*
X18593633Y12389087D01*
X18613498Y12136684D01*
X18614652Y12131877D01*
X18614653Y12131871D01*
X18641703Y12019199D01*
X18672602Y11890496D01*
X18674495Y11885925D01*
X18674496Y11885923D01*
X18735056Y11739719D01*
X18769491Y11656585D01*
X18901779Y11440711D01*
X19066209Y11248189D01*
X19258731Y11083759D01*
X19474605Y10951471D01*
X19479175Y10949578D01*
X19479179Y10949576D01*
X19678565Y10866988D01*
X19708516Y10854582D01*
X19793139Y10834266D01*
X19949891Y10796633D01*
X19949897Y10796632D01*
X19954704Y10795478D01*
X20207107Y10775613D01*
X20212037Y10776001D01*
X20359833Y10787633D01*
X20429313Y10773037D01*
X20479873Y10723195D01*
X20495240Y10673002D01*
X20506764Y10541279D01*
X20564302Y10326546D01*
X20566624Y10321565D01*
X20566625Y10321564D01*
X20655928Y10130053D01*
X20655931Y10130048D01*
X20658254Y10125066D01*
X20785765Y9942961D01*
X20942961Y9785765D01*
X20947469Y9782608D01*
X20947472Y9782606D01*
X21009290Y9739321D01*
X21125065Y9658254D01*
X21130047Y9655931D01*
X21130052Y9655928D01*
X21321564Y9566625D01*
X21326546Y9564302D01*
X21331854Y9562880D01*
X21331856Y9562879D01*
X21397691Y9545239D01*
X21541279Y9506764D01*
X21662933Y9496121D01*
X21673002Y9495240D01*
X21739121Y9469377D01*
X21780760Y9411873D01*
X21787633Y9359833D01*
X21775613Y9207107D01*
X21795478Y8954704D01*
X21854582Y8708516D01*
X21951471Y8474605D01*
X22083759Y8258731D01*
X22248189Y8066209D01*
X22440711Y7901779D01*
X22656585Y7769491D01*
X22661155Y7767598D01*
X22661159Y7767596D01*
X22885923Y7674496D01*
X22890496Y7672602D01*
X22975119Y7652286D01*
X23131871Y7614653D01*
X23131877Y7614652D01*
X23136684Y7613498D01*
X23389087Y7593633D01*
X23641490Y7613498D01*
X23646297Y7614652D01*
X23646303Y7614653D01*
X23803055Y7652286D01*
X23887678Y7672602D01*
X23892251Y7674496D01*
X24117015Y7767596D01*
X24117019Y7767598D01*
X24121589Y7769491D01*
X24337463Y7901779D01*
X24529985Y8066209D01*
X24694415Y8258731D01*
X24826703Y8474605D01*
X24923592Y8708516D01*
X24982696Y8954704D01*
X25002561Y9207107D01*
X24982696Y9459510D01*
X24980328Y9469377D01*
X24924747Y9700886D01*
X24923592Y9705698D01*
X24826703Y9939609D01*
X24694415Y10155483D01*
X24529985Y10348005D01*
X24337463Y10512435D01*
X24121589Y10644723D01*
X24117019Y10646616D01*
X24117015Y10646618D01*
X23892251Y10739718D01*
X23892249Y10739719D01*
X23887678Y10741612D01*
X23803055Y10761928D01*
X23646303Y10799561D01*
X23646297Y10799562D01*
X23641490Y10800716D01*
X23389087Y10820581D01*
X23159990Y10802550D01*
X23090511Y10817146D01*
X23039952Y10866988D01*
X23024584Y10917180D01*
X23022037Y10946290D01*
X23018720Y10984205D01*
X22961182Y11198938D01*
X22938216Y11248189D01*
X22869556Y11395431D01*
X22869553Y11395436D01*
X22867230Y11400418D01*
X22739719Y11582523D01*
X22582523Y11739719D01*
X22578015Y11742876D01*
X22578012Y11742878D01*
X22502247Y11795929D01*
X22400419Y11867230D01*
X22395437Y11869553D01*
X22395432Y11869556D01*
X22203920Y11958859D01*
X22203919Y11958860D01*
X22198938Y11961182D01*
X22193630Y11962604D01*
X22193628Y11962605D01*
X22127793Y11980245D01*
X21984205Y12018720D01*
X21946290Y12022037D01*
X21917180Y12024584D01*
X21851062Y12050448D01*
X21809422Y12107951D01*
X21802550Y12159991D01*
X21820193Y12384157D01*
X21820581Y12389087D01*
X21800716Y12641490D01*
X21741612Y12887678D01*
X21644723Y13121589D01*
X21512435Y13337463D01*
X21348005Y13529985D01*
X21155483Y13694415D01*
X20939609Y13826703D01*
X20935039Y13828596D01*
X20935035Y13828598D01*
X20710271Y13921698D01*
X20710269Y13921699D01*
X20705698Y13923592D01*
X20621075Y13943908D01*
X20464323Y13981541D01*
X20464317Y13981542D01*
X20459510Y13982696D01*
X20207107Y14002561D01*
X19954704Y13982696D01*
X19949897Y13981542D01*
X19949891Y13981541D01*
X19793139Y13943908D01*
X19708516Y13923592D01*
X19703945Y13921699D01*
X19703943Y13921698D01*
X19479179Y13828598D01*
X19479175Y13828596D01*
X19474605Y13826703D01*
X19258731Y13694415D01*
X19066209Y13529985D01*
X18901779Y13337463D01*
X18769491Y13121589D01*
X18672602Y12887678D01*
X18613498Y12641490D01*
X18593633Y12389087D01*
X13108214Y12389087D01*
X17877563Y17158435D01*
X17939875Y17192461D01*
X18010690Y17187396D01*
G37*
%TD.AperFunction*%
%TD*%
M02*
