%TF.GenerationSoftware,KiCad,Pcbnew,(6.0.9)*%
%TF.CreationDate,2023-04-13T12:37:54+10:00*%
%TF.ProjectId,Dpadleft,44706164-6c65-4667-942e-6b696361645f,rev?*%
%TF.SameCoordinates,PX6bc3e40PY700e860*%
%TF.FileFunction,Legend,Top*%
%TF.FilePolarity,Positive*%
%FSLAX46Y46*%
G04 Gerber Fmt 4.6, Leading zero omitted, Abs format (unit mm)*
G04 Created by KiCad (PCBNEW (6.0.9)) date 2023-04-13 12:37:54*
%MOMM*%
%LPD*%
G01*
G04 APERTURE LIST*
%ADD10C,0.150000*%
%ADD11C,0.120000*%
%ADD12C,0.100000*%
G04 APERTURE END LIST*
D10*
%TO.C,R12*%
X30774451Y5615313D02*
X30673436Y5042894D01*
X31178512Y5211252D02*
X30471405Y4504146D01*
X30202031Y4773520D01*
X30168359Y4874535D01*
X30168359Y4941878D01*
X30202031Y5042894D01*
X30303046Y5143909D01*
X30404062Y5177581D01*
X30471405Y5177581D01*
X30572420Y5143909D01*
X30841794Y4874535D01*
X30101016Y6288749D02*
X30505077Y5884688D01*
X30303046Y6086718D02*
X29595939Y5379611D01*
X29764298Y5413283D01*
X29898985Y5413283D01*
X30000001Y5379611D01*
X29191878Y5918359D02*
X29124535Y5918359D01*
X29023520Y5952031D01*
X28855161Y6120390D01*
X28821489Y6221405D01*
X28821489Y6288749D01*
X28855161Y6389764D01*
X28922504Y6457107D01*
X29057191Y6524451D01*
X29865313Y6524451D01*
X29427581Y6962184D01*
%TO.C,R9*%
X22437732Y13952031D02*
X22336717Y13379611D01*
X22841793Y13547970D02*
X22134687Y12840863D01*
X21865312Y13110237D01*
X21831641Y13211252D01*
X21831641Y13278596D01*
X21865312Y13379611D01*
X21966328Y13480626D01*
X22067343Y13514298D01*
X22134687Y13514298D01*
X22235702Y13480626D01*
X22505076Y13211252D01*
X22101015Y14288749D02*
X21966328Y14423436D01*
X21865312Y14457107D01*
X21797969Y14457107D01*
X21629610Y14423436D01*
X21461251Y14322420D01*
X21191877Y14053046D01*
X21158206Y13952031D01*
X21158206Y13884688D01*
X21191877Y13783672D01*
X21326564Y13648985D01*
X21427580Y13615313D01*
X21494923Y13615313D01*
X21595938Y13648985D01*
X21764297Y13817344D01*
X21797969Y13918359D01*
X21797969Y13985703D01*
X21764297Y14086718D01*
X21629610Y14221405D01*
X21528595Y14255077D01*
X21461251Y14255077D01*
X21360236Y14221405D01*
%TO.C,J3*%
X21460790Y-14760615D02*
X21965866Y-14255539D01*
X22100553Y-14188195D01*
X22235240Y-14188195D01*
X22369927Y-14255539D01*
X22437270Y-14322882D01*
X21191416Y-14491241D02*
X20753683Y-14053508D01*
X21258759Y-14019836D01*
X21157744Y-13918821D01*
X21124072Y-13817806D01*
X21124072Y-13750462D01*
X21157744Y-13649447D01*
X21326103Y-13481088D01*
X21427118Y-13447417D01*
X21494461Y-13447417D01*
X21595477Y-13481088D01*
X21797507Y-13683119D01*
X21831179Y-13784134D01*
X21831179Y-13851478D01*
%TO.C,R10*%
X13774451Y5615313D02*
X13673436Y5042894D01*
X14178512Y5211252D02*
X13471405Y4504146D01*
X13202031Y4773520D01*
X13168359Y4874535D01*
X13168359Y4941878D01*
X13202031Y5042894D01*
X13303046Y5143909D01*
X13404062Y5177581D01*
X13471405Y5177581D01*
X13572420Y5143909D01*
X13841794Y4874535D01*
X13101016Y6288749D02*
X13505077Y5884688D01*
X13303046Y6086718D02*
X12595939Y5379611D01*
X12764298Y5413283D01*
X12898985Y5413283D01*
X13000001Y5379611D01*
X11956176Y6019375D02*
X11888833Y6086718D01*
X11855161Y6187733D01*
X11855161Y6255077D01*
X11888833Y6356092D01*
X11989848Y6524451D01*
X12158207Y6692810D01*
X12326565Y6793825D01*
X12427581Y6827497D01*
X12494924Y6827497D01*
X12595939Y6793825D01*
X12663283Y6726481D01*
X12696955Y6625466D01*
X12696955Y6558123D01*
X12663283Y6457107D01*
X12562268Y6288749D01*
X12393909Y6120390D01*
X12225550Y6019375D01*
X12124535Y5985703D01*
X12057191Y5985703D01*
X11956176Y6019375D01*
%TO.C,U3*%
X7074026Y2848478D02*
X7646446Y2276058D01*
X7747461Y2242386D01*
X7814805Y2242386D01*
X7915820Y2276058D01*
X8050507Y2410745D01*
X8084179Y2511760D01*
X8084179Y2579104D01*
X8050507Y2680119D01*
X7478087Y3252539D01*
X7747461Y3521913D02*
X8185194Y3959645D01*
X8218866Y3454569D01*
X8319881Y3555584D01*
X8420896Y3589256D01*
X8488240Y3589256D01*
X8589255Y3555584D01*
X8757614Y3387226D01*
X8791286Y3286210D01*
X8791286Y3218867D01*
X8757614Y3117852D01*
X8555583Y2915821D01*
X8454568Y2882149D01*
X8387225Y2882149D01*
%TO.C,R3*%
X14687732Y-10547969D02*
X14586717Y-11120389D01*
X15091793Y-10952030D02*
X14384687Y-11659137D01*
X14115312Y-11389763D01*
X14081641Y-11288748D01*
X14081641Y-11221404D01*
X14115312Y-11120389D01*
X14216328Y-11019374D01*
X14317343Y-10985702D01*
X14384687Y-10985702D01*
X14485702Y-11019374D01*
X14755076Y-11288748D01*
X13744923Y-11019374D02*
X13307190Y-10581641D01*
X13812267Y-10547969D01*
X13711251Y-10446954D01*
X13677580Y-10345938D01*
X13677580Y-10278595D01*
X13711251Y-10177580D01*
X13879610Y-10009221D01*
X13980625Y-9975549D01*
X14047969Y-9975549D01*
X14148984Y-10009221D01*
X14351015Y-10211251D01*
X14384687Y-10312267D01*
X14384687Y-10379610D01*
%TO.C,R4*%
X22437732Y-3047969D02*
X22336717Y-3620389D01*
X22841793Y-3452030D02*
X22134687Y-4159137D01*
X21865312Y-3889763D01*
X21831641Y-3788748D01*
X21831641Y-3721404D01*
X21865312Y-3620389D01*
X21966328Y-3519374D01*
X22067343Y-3485702D01*
X22134687Y-3485702D01*
X22235702Y-3519374D01*
X22505076Y-3788748D01*
X21360236Y-2913282D02*
X21831641Y-2441877D01*
X21259221Y-3351015D02*
X21932656Y-3014297D01*
X21494923Y-2576564D01*
%TO.C,U2*%
X15574026Y11348478D02*
X16146446Y10776058D01*
X16247461Y10742386D01*
X16314805Y10742386D01*
X16415820Y10776058D01*
X16550507Y10910745D01*
X16584179Y11011760D01*
X16584179Y11079104D01*
X16550507Y11180119D01*
X15978087Y11752539D01*
X16348477Y11988241D02*
X16348477Y12055584D01*
X16382148Y12156600D01*
X16550507Y12324958D01*
X16651522Y12358630D01*
X16718866Y12358630D01*
X16819881Y12324958D01*
X16887225Y12257615D01*
X16954568Y12122928D01*
X16954568Y11314806D01*
X17392301Y11752539D01*
%TO.C,R1*%
X14687732Y6452031D02*
X14586717Y5879611D01*
X15091793Y6047970D02*
X14384687Y5340863D01*
X14115312Y5610237D01*
X14081641Y5711252D01*
X14081641Y5778596D01*
X14115312Y5879611D01*
X14216328Y5980626D01*
X14317343Y6014298D01*
X14384687Y6014298D01*
X14485702Y5980626D01*
X14755076Y5711252D01*
X14014297Y7125466D02*
X14418358Y6721405D01*
X14216328Y6923436D02*
X13509221Y6216329D01*
X13677580Y6250000D01*
X13812267Y6250000D01*
X13913282Y6216329D01*
%TO.C,U5*%
X23824026Y2848478D02*
X24396446Y2276058D01*
X24497461Y2242386D01*
X24564805Y2242386D01*
X24665820Y2276058D01*
X24800507Y2410745D01*
X24834179Y2511760D01*
X24834179Y2579104D01*
X24800507Y2680119D01*
X24228087Y3252539D01*
X24901522Y3925974D02*
X24564805Y3589256D01*
X24867851Y3218867D01*
X24867851Y3286210D01*
X24901522Y3387226D01*
X25069881Y3555584D01*
X25170896Y3589256D01*
X25238240Y3589256D01*
X25339255Y3555584D01*
X25507614Y3387226D01*
X25541286Y3286210D01*
X25541286Y3218867D01*
X25507614Y3117852D01*
X25339255Y2949493D01*
X25238240Y2915821D01*
X25170896Y2915821D01*
%TO.C,R11*%
X23274450Y-2134687D02*
X23173435Y-2707106D01*
X23678511Y-2538748D02*
X22971404Y-3245854D01*
X22702030Y-2976480D01*
X22668358Y-2875465D01*
X22668358Y-2808122D01*
X22702030Y-2707106D01*
X22803045Y-2606091D01*
X22904061Y-2572419D01*
X22971404Y-2572419D01*
X23072419Y-2606091D01*
X23341793Y-2875465D01*
X22601015Y-1461251D02*
X23005076Y-1865312D01*
X22803045Y-1663282D02*
X22095938Y-2370389D01*
X22264297Y-2336717D01*
X22398984Y-2336717D01*
X22500000Y-2370389D01*
X21927580Y-787816D02*
X22331641Y-1191877D01*
X22129610Y-989847D02*
X21422503Y-1696954D01*
X21590862Y-1663282D01*
X21725549Y-1663282D01*
X21826564Y-1696954D01*
%TO.C,R2*%
X6187732Y-2047969D02*
X6086717Y-2620389D01*
X6591793Y-2452030D02*
X5884687Y-3159137D01*
X5615312Y-2889763D01*
X5581641Y-2788748D01*
X5581641Y-2721404D01*
X5615312Y-2620389D01*
X5716328Y-2519374D01*
X5817343Y-2485702D01*
X5884687Y-2485702D01*
X5985702Y-2519374D01*
X6255076Y-2788748D01*
X5278595Y-2418358D02*
X5211251Y-2418358D01*
X5110236Y-2384687D01*
X4941877Y-2216328D01*
X4908206Y-2115312D01*
X4908206Y-2047969D01*
X4941877Y-1946954D01*
X5009221Y-1879610D01*
X5143908Y-1812267D01*
X5952030Y-1812267D01*
X5514297Y-1374534D01*
%TO.C,U4*%
X15574026Y-5651522D02*
X16146446Y-6223942D01*
X16247461Y-6257614D01*
X16314805Y-6257614D01*
X16415820Y-6223942D01*
X16550507Y-6089255D01*
X16584179Y-5988240D01*
X16584179Y-5920896D01*
X16550507Y-5819881D01*
X15978087Y-5247461D01*
X16853553Y-4843400D02*
X17324957Y-5314805D01*
X16415820Y-4742385D02*
X16752538Y-5415820D01*
X17190270Y-4978087D01*
D11*
%TO.C,R12*%
X31372659Y3589940D02*
X31589940Y3372659D01*
X31910060Y4127341D02*
X32127341Y3910060D01*
%TO.C,R9*%
X23410060Y12627341D02*
X23627341Y12410060D01*
X22872659Y12089940D02*
X23089940Y11872659D01*
%TO.C,J3*%
X25098350Y-12532555D02*
X23217446Y-10651651D01*
X24200324Y-13430581D02*
X23259872Y-14371033D01*
X25098350Y-12532555D02*
X34121032Y-3509873D01*
X23259872Y-14371033D02*
X22319420Y-13430581D01*
X34121032Y-3509873D02*
X32240128Y-1628969D01*
X23217446Y-10651651D02*
X32240128Y-1628969D01*
%TO.C,R10*%
X14372659Y3589940D02*
X14589940Y3372659D01*
X14910060Y4127341D02*
X15127341Y3910060D01*
D12*
%TO.C,U3*%
X12424113Y2902249D02*
X13905643Y1420719D01*
X8098741Y-1407567D02*
X9589463Y-2898289D01*
X15211104Y-473620D02*
X11461599Y-4209265D01*
X7223060Y877802D02*
X10523410Y4178153D01*
X8103408Y-1412234D02*
X7926631Y-1589010D01*
D11*
%TO.C,R3*%
X16127341Y-12089940D02*
X15910060Y-11872659D01*
X15589940Y-12627341D02*
X15372659Y-12410060D01*
%TO.C,R4*%
X24627341Y-3589940D02*
X24410060Y-3372659D01*
X24089940Y-4127341D02*
X23872659Y-3910060D01*
D12*
%TO.C,U2*%
X23711104Y8026380D02*
X19961599Y4290735D01*
X15723060Y9377802D02*
X19023410Y12678153D01*
X16598741Y7092433D02*
X18089463Y5601711D01*
X16603408Y7087766D02*
X16426631Y6910990D01*
X20924113Y11402249D02*
X22405643Y9920719D01*
D11*
%TO.C,R1*%
X16127341Y4910060D02*
X15910060Y5127341D01*
X15589940Y4372659D02*
X15372659Y4589940D01*
D12*
%TO.C,U5*%
X25098741Y-1407567D02*
X26589463Y-2898289D01*
X25103408Y-1412234D02*
X24926631Y-1589010D01*
X24223060Y877802D02*
X27523410Y4178153D01*
X32211104Y-473620D02*
X28461599Y-4209265D01*
X29424113Y2902249D02*
X30905643Y1420719D01*
D11*
%TO.C,R11*%
X22872659Y-4910060D02*
X23089940Y-5127341D01*
X23410060Y-4372659D02*
X23627341Y-4589940D01*
%TO.C,R2*%
X7089940Y-4127341D02*
X6872659Y-3910060D01*
X7627341Y-3589940D02*
X7410060Y-3372659D01*
D12*
%TO.C,U4*%
X23711104Y-8973620D02*
X19961599Y-12709265D01*
X15723060Y-7622198D02*
X19023410Y-4321847D01*
X16598741Y-9907567D02*
X18089463Y-11398289D01*
X16603408Y-9912234D02*
X16426631Y-10089010D01*
X20924113Y-5597751D02*
X22405643Y-7079281D01*
%TD*%
M02*
