0
SECTION
2
HEADER
9
$INSUNITS
70
4
9
$ACADVER
1
AC1014
9
$HANDSEED
5
FFFF
0
ENDSEC
0
SECTION
2
TABLES
0
TABLE
2
VPORT
5
8
100
AcDbSymbolTable
0
ENDTAB
0
TABLE
2
LTYPE
5
5
100
AcDbSymbolTable
0
LTYPE
5
14
100
AcDbSymbolTableRecord
100
AcDbLinetypeTableRecord
2
BYBLOCK
70
0
0
LTYPE
5
15
100
AcDbSymbolTableRecord
100
AcDbLinetypeTableRecord
2
BYLAYER
70
0
0
ENDTAB
0
TABLE
2
LAYER
5
2
100
AcDbSymbolTable
70
2
0
LAYER
5
50
100
AcDbSymbolTableRecord
100
AcDbLayerTableRecord
2
0
70
0
6
CONTINUOUS
0
ENDTAB
0
TABLE
2
STYLE
5
3
100
AcDbSymbolTable
70
1
0
STYLE
5
11
100
AcDbSymbolTableRecord
100
AcDbTextStyleTableRecord
2
STANDARD
70
0
0
ENDTAB
0
TABLE
2
VIEW
5
6
100
AcDbSymbolTable
70
0
0
ENDTAB
0
TABLE
2
UCS
5
7
100
AcDbSymbolTable
70
0
0
ENDTAB
0
TABLE
2
APPID
5
9
100
AcDbSymbolTable
70
2
0
APPID
5
12
100
AcDbSymbolTableRecord
100
AcDbRegAppTableRecord
2
ACAD
70
0
0
ENDTAB
0
TABLE
2
DIMSTYLE
5
A
100
AcDbSymbolTable
70
1
0
ENDTAB
0
TABLE
2
BLOCK_RECORD
5
1
100
AcDbSymbolTable
70
1
0
BLOCK_RECORD
5
1F
100
AcDbSymbolTableRecord
100
AcDbBlockTableRecord
2
*MODEL_SPACE
0
BLOCK_RECORD
5
1B
100
AcDbSymbolTableRecord
100
AcDbBlockTableRecord
2
*PAPER_SPACE
0
ENDTAB
0
ENDSEC
0
SECTION
2
BLOCKS
0
BLOCK
5
20
100
AcDbEntity
100
AcDbBlockBegin
2
*MODEL_SPACE
0
ENDBLK
5
21
100
AcDbEntity
100
AcDbBlockEnd
0
BLOCK
5
1C
100
AcDbEntity
100
AcDbBlockBegin
2
*PAPER_SPACE
0
ENDBLK
5
1D
100
AcDbEntity
100
AcDbBlockEnd
0
ENDSEC
0
SECTION
2
ENTITIES
0
CIRCLE
5
100
100
AcDbEntity
8
0
100
AcDbCircle
10
-24.500000000001588
20
-15.407999999999959
30
0
40
0.99999999999999778
210
-3.9443045261044136e-31
220
-1.97215226305253e-31
230
1
0
CIRCLE
5
101
100
AcDbEntity
8
0
100
AcDbCircle
10
24.499999999999819
20
-15.407999999999959
30
-4.4408920985006262e-15
40
0.99999999999999778
210
-3.9443045261044136e-31
220
-1.97215226305253e-31
230
1
0
CIRCLE
5
102
100
AcDbEntity
8
0
100
AcDbCircle
10
24.499999999999659
20
-41.499999999999851
30
0
40
0.99999999999999778
210
-3.9443045261044136e-31
220
-1.97215226305253e-31
230
1
0
LWPOLYLINE
5
103
100
AcDbEntity
8
0
100
AcDbPolyline
90
13
70
1
43
0.0
10
-24.499999999999559
20
-11.676015853882131
42
0.41421356237309737
10
-26.999999999999559
20
-14.176015853882106
10
-26.999999999999581
20
-17.311283788986628
42
0.41421356237309948
10
-24.499999999999602
20
-19.811283788986646
10
-23.624999999999623
20
-19.811283788986643
10
-23.625000000000721
20
-19.8110158538821
10
-22.625000000000732
20
-19.811015853882108
10
-22.625000000000899
20
-49.176015853882014
42
0.41421356237309609
10
-20.125000000000917
20
-51.676015853882014
10
24.49999999999886
20
-51.676015853882276
42
0.41421356237309814
10
26.99999999999886
20
-49.176015853882291
10
26.999999999999073
20
-14.176015853882419
42
0.41421356237309709
10
24.499999999999087
20
-11.676015853882419
0
CIRCLE
5
104
100
AcDbEntity
8
0
100
AcDbCircle
10
18.849999999999095
20
-18.376015853882354
30
0
40
0.49999999999999845
210
3.2008955675711862e-31
220
-2.9582283945788118e-31
230
1
0
CIRCLE
5
105
100
AcDbEntity
8
0
100
AcDbCircle
10
18.849999999999078
20
-20.916015853882367
30
4.4408920985006262e-15
40
0.49999999999999845
210
3.2008955675711862e-31
220
-2.9582283945788118e-31
230
1
0
CIRCLE
5
106
100
AcDbEntity
8
0
100
AcDbCircle
10
15.59999999999912
20
-13.411015853882377
30
-4.4408920985006262e-15
40
0.49999999999999845
210
3.2008955675711862e-31
220
-2.9582283945788118e-31
230
1
0
CIRCLE
5
107
100
AcDbEntity
8
0
100
AcDbCircle
10
15.599999999999103
20
-15.951015853882375
30
0
40
0.49999999999999845
210
3.2008955675711862e-31
220
-2.9582283945788118e-31
230
1
0
CIRCLE
5
108
100
AcDbEntity
8
0
100
AcDbCircle
10
15.599999999999103
20
-18.491015853882335
30
0
40
0.49999999999999845
210
3.2008955675711862e-31
220
-2.9582283945788118e-31
230
1
0
CIRCLE
5
109
100
AcDbEntity
8
0
100
AcDbCircle
10
15.599999999999085
20
-21.03101585388233
30
0
40
0.49999999999999845
210
3.2008955675711862e-31
220
-2.9582283945788118e-31
230
1
0
CIRCLE
5
110
100
AcDbEntity
8
0
100
AcDbCircle
10
18.84999999999906
20
-23.456015853882345
30
0
40
0.49999999999999845
210
3.2008955675711862e-31
220
-2.9582283945788118e-31
230
1
0
CIRCLE
5
111
100
AcDbEntity
8
0
100
AcDbCircle
10
18.849999999999042
20
-25.996015853882287
30
0
40
0.49999999999999845
210
3.2008955675711862e-31
220
-2.9582283945788118e-31
230
1
0
CIRCLE
5
112
100
AcDbEntity
8
0
100
AcDbCircle
10
17.134999999999042
20
-29.566015853882281
30
0
40
0.49999999999999845
210
3.2008955675711862e-31
220
-2.9582283945788118e-31
230
1
0
CIRCLE
5
113
100
AcDbEntity
8
0
100
AcDbCircle
10
15.599999999999067
20
-23.571015853882344
30
0
40
0.49999999999999845
210
3.2008955675711862e-31
220
-2.9582283945788118e-31
230
1
0
CIRCLE
5
114
100
AcDbEntity
8
0
100
AcDbCircle
10
15.599999999999049
20
-26.111015853882304
30
0
40
0.49999999999999845
210
3.2008955675711862e-31
220
-2.9582283945788118e-31
230
1
0
CIRCLE
5
115
100
AcDbEntity
8
0
100
AcDbCircle
10
14.594999999999045
20
-29.566015853882281
30
0
40
0.49999999999999845
210
3.2008955675711862e-31
220
-2.9582283945788118e-31
230
1
0
CIRCLE
5
116
100
AcDbEntity
8
0
100
AcDbCircle
10
12.054999999999049
20
-29.566015853882245
30
0
40
0.49999999999999845
210
3.2008955675711862e-31
220
-2.9582283945788118e-31
230
1
0
CIRCLE
5
117
100
AcDbEntity
8
0
100
AcDbCircle
10
9.5149999999990715
20
-29.566015853882245
30
0
40
0.49999999999999845
210
3.2008955675711862e-31
220
-2.9582283945788118e-31
230
1
0
CIRCLE
5
118
100
AcDbEntity
8
0
100
AcDbCircle
10
6.9749999999990751
20
-29.56601585388221
30
0
40
0.49999999999999845
210
3.2008955675711862e-31
220
-2.9582283945788118e-31
230
1
0
CIRCLE
5
119
100
AcDbEntity
8
0
100
AcDbCircle
10
4.4349999999990795
20
-29.56601585388221
30
-4.4408920985006262e-15
40
0.49999999999999845
210
3.2008955675711862e-31
220
-2.9582283945788118e-31
230
1
0
CIRCLE
5
120
100
AcDbEntity
8
0
100
AcDbCircle
10
1.8949999999991012
20
-29.56601585388221
30
-4.4408920985006262e-15
40
0.49999999999999845
210
3.2008955675711862e-31
220
-2.9582283945788118e-31
230
1
0
CIRCLE
5
121
100
AcDbEntity
8
0
100
AcDbCircle
10
17.134999999998954
20
-44.806015853882258
30
4.4408920985006262e-15
40
0.49999999999999845
210
3.2008955675711862e-31
220
-2.9582283945788118e-31
230
1
0
CIRCLE
5
122
100
AcDbEntity
8
0
100
AcDbCircle
10
16.474999999998929
20
-48.426015853882241
30
0
40
0.49999999999999845
210
3.2008955675711862e-31
220
-2.9582283945788118e-31
230
1
0
CIRCLE
5
123
100
AcDbEntity
8
0
100
AcDbCircle
10
14.594999999998956
20
-44.806015853882258
30
4.4408920985006262e-15
40
0.49999999999999845
210
3.2008955675711862e-31
220
-2.9582283945788118e-31
230
1
0
CIRCLE
5
124
100
AcDbEntity
8
0
100
AcDbCircle
10
12.054999999998961
20
-44.806015853882222
30
4.4408920985006262e-15
40
0.49999999999999845
210
3.2008955675711862e-31
220
-2.9582283945788118e-31
230
1
0
CIRCLE
5
125
100
AcDbEntity
8
0
100
AcDbCircle
10
13.934999999998949
20
-48.426015853882241
30
0
40
0.49999999999999845
210
3.2008955675711862e-31
220
-2.9582283945788118e-31
230
1
0
CIRCLE
5
126
100
AcDbEntity
8
0
100
AcDbCircle
10
11.394999999998953
20
-48.426015853882205
30
0
40
0.49999999999999845
210
3.2008955675711862e-31
220
-2.9582283945788118e-31
230
1
0
CIRCLE
5
127
100
AcDbEntity
8
0
100
AcDbCircle
10
9.5149999999989827
20
-44.806015853882222
30
0
40
0.49999999999999845
210
3.2008955675711862e-31
220
-2.9582283945788118e-31
230
1
0
CIRCLE
5
128
100
AcDbEntity
8
0
100
AcDbCircle
10
6.9749999999989862
20
-44.806015853882187
30
0
40
0.49999999999999845
210
3.2008955675711862e-31
220
-2.9582283945788118e-31
230
1
0
CIRCLE
5
129
100
AcDbEntity
8
0
100
AcDbCircle
10
8.8549999999989577
20
-48.426015853882205
30
0
40
0.49999999999999845
210
3.2008955675711862e-31
220
-2.9582283945788118e-31
230
1
0
CIRCLE
5
130
100
AcDbEntity
8
0
100
AcDbCircle
10
6.314999999998979
20
-48.42601585388217
30
-4.4408920985006262e-15
40
0.49999999999999845
210
3.2008955675711862e-31
220
-2.9582283945788118e-31
230
1
0
CIRCLE
5
131
100
AcDbEntity
8
0
100
AcDbCircle
10
4.4349999999989906
20
-44.806015853882187
30
0
40
0.49999999999999845
210
3.2008955675711862e-31
220
-2.9582283945788118e-31
230
1
0
CIRCLE
5
132
100
AcDbEntity
8
0
100
AcDbCircle
10
1.8949999999990124
20
-44.806015853882187
30
0
40
0.49999999999999845
210
3.2008955675711862e-31
220
-2.9582283945788118e-31
230
1
0
CIRCLE
5
133
100
AcDbEntity
8
0
100
AcDbCircle
10
3.7749999999990012
20
-48.42601585388217
30
-4.4408920985006262e-15
40
0.49999999999999845
210
3.2008955675711862e-31
220
-2.9582283945788118e-31
230
1
0
CIRCLE
5
134
100
AcDbEntity
8
0
100
AcDbCircle
10
-0.040000000000794962
20
-13.421015853882283
30
0
40
0.49999999999999845
210
3.2008955675711862e-31
220
-2.9582283945788118e-31
230
1
0
CIRCLE
5
135
100
AcDbEntity
8
0
100
AcDbCircle
10
-0.040000000000812726
20
-15.961015853882262
30
0
40
0.49999999999999845
210
3.2008955675711862e-31
220
-2.9582283945788118e-31
230
1
0
CIRCLE
5
136
100
AcDbEntity
8
0
100
AcDbCircle
10
-5.1250000000007754
20
-13.926015853882243
30
-4.4408920985006262e-15
40
0.49999999999999845
210
3.2008955675711862e-31
220
-2.9582283945788118e-31
230
1
0
CIRCLE
5
137
100
AcDbEntity
8
0
100
AcDbCircle
10
-0.040000000000812726
20
-18.50101585388224
30
0
40
0.49999999999999845
210
3.2008955675711862e-31
220
-2.9582283945788118e-31
230
1
0
CIRCLE
5
138
100
AcDbEntity
8
0
100
AcDbCircle
10
-0.040000000000830489
20
-21.041015853882271
30
0
40
0.49999999999999845
210
3.2008955675711862e-31
220
-2.9582283945788118e-31
230
1
0
CIRCLE
5
139
100
AcDbEntity
8
0
100
AcDbCircle
10
-7.6650000000007807
20
-13.926015853882225
30
-4.4408920985006262e-15
40
0.49999999999999845
210
3.2008955675711862e-31
220
-2.9582283945788118e-31
230
1
0
CIRCLE
5
140
100
AcDbEntity
8
0
100
AcDbCircle
10
-0.040000000000848253
20
-23.581015853882231
30
0
40
0.49999999999999845
210
3.2008955675711862e-31
220
-2.9582283945788118e-31
230
1
0
CIRCLE
5
141
100
AcDbEntity
8
0
100
AcDbCircle
10
-0.040000000000866016
20
-26.121015853882209
30
0
40
0.49999999999999845
210
3.2008955675711862e-31
220
-2.9582283945788118e-31
230
1
0
CIRCLE
5
142
100
AcDbEntity
8
0
100
AcDbCircle
10
-0.6450000000008772
20
-29.566015853882174
30
-4.4408920985006262e-15
40
0.49999999999999845
210
3.2008955675711862e-31
220
-2.9582283945788118e-31
230
1
0
CIRCLE
5
143
100
AcDbEntity
8
0
100
AcDbCircle
10
-3.1850000000008731
20
-29.566015853882174
30
-4.4408920985006262e-15
40
0.49999999999999845
210
3.2008955675711862e-31
220
-2.9582283945788118e-31
230
1
0
CIRCLE
5
144
100
AcDbEntity
8
0
100
AcDbCircle
10
-5.7250000000008692
20
-29.566015853882138
30
-4.4408920985006262e-15
40
0.49999999999999845
210
3.2008955675711862e-31
220
-2.9582283945788118e-31
230
1
0
CIRCLE
5
145
100
AcDbEntity
8
0
100
AcDbCircle
10
-8.2650000000008479
20
-29.566015853882138
30
0
40
0.49999999999999845
210
3.2008955675711862e-31
220
-2.9582283945788118e-31
230
1
0
CIRCLE
5
146
100
AcDbEntity
8
0
100
AcDbCircle
10
-11.625000000000744
20
-13.926015853882207
30
0
40
0.49999999999999845
210
3.2008955675711862e-31
220
-2.9582283945788118e-31
230
1
0
CIRCLE
5
147
100
AcDbEntity
8
0
100
AcDbCircle
10
-14.16500000000074
20
-13.926015853882189
30
0
40
0.49999999999999845
210
3.2008955675711862e-31
220
-2.9582283945788118e-31
230
1
0
CIRCLE
5
148
100
AcDbEntity
8
0
100
AcDbCircle
10
-10.805000000000852
20
-29.566015853882138
30
0
40
0.49999999999999845
210
3.2008955675711862e-31
220
-2.9582283945788118e-31
230
1
0
CIRCLE
5
149
100
AcDbEntity
8
0
100
AcDbCircle
10
-13.34500000000083
20
-29.566015853882103
30
0
40
0.49999999999999845
210
3.2008955675711862e-31
220
-2.9582283945788118e-31
230
1
0
CIRCLE
5
150
100
AcDbEntity
8
0
100
AcDbCircle
10
-15.885000000000819
20
-29.566015853882103
30
0
40
0.49999999999999845
210
3.2008955675711862e-31
220
-2.9582283945788118e-31
230
1
0
CIRCLE
5
151
100
AcDbEntity
8
0
100
AcDbCircle
10
-18.425000000000807
20
-29.566015853882067
30
0
40
0.49999999999999845
210
3.2008955675711862e-31
220
-2.9582283945788118e-31
230
1
0
CIRCLE
5
152
100
AcDbEntity
8
0
100
AcDbCircle
10
-0.64500000000096602
20
-44.806015853882151
30
0
40
0.49999999999999845
210
3.2008955675711862e-31
220
-2.9582283945788118e-31
230
1
0
CIRCLE
5
153
100
AcDbEntity
8
0
100
AcDbCircle
10
-3.185000000000962
20
-44.806015853882151
30
0
40
0.49999999999999845
210
3.2008955675711862e-31
220
-2.9582283945788118e-31
230
1
0
CIRCLE
5
154
100
AcDbEntity
8
0
100
AcDbCircle
10
-1.015000000000992
20
-48.556015853882116
30
-4.4408920985006262e-15
40
1.2949999999999959
210
3.2008955675711884e-31
220
-1.972152263052547e-31
230
1
0
CIRCLE
5
155
100
AcDbEntity
8
0
100
AcDbCircle
10
-5.725000000000958
20
-44.806015853882116
30
0
40
0.49999999999999845
210
3.2008955675711862e-31
220
-2.9582283945788118e-31
230
1
0
CIRCLE
5
156
100
AcDbEntity
8
0
100
AcDbCircle
10
-8.2650000000009278
20
-44.806015853882116
30
4.4408920985006262e-15
40
0.49999999999999845
210
3.2008955675711862e-31
220
-2.9582283945788118e-31
230
1
0
CIRCLE
5
157
100
AcDbEntity
8
0
100
AcDbCircle
10
-6.0950000000009661
20
-48.55601585388208
30
0
40
1.2949999999999959
210
3.2008955675711884e-31
220
-1.972152263052547e-31
230
1
0
CIRCLE
5
158
100
AcDbEntity
8
0
100
AcDbCircle
10
-10.155000000000946
20
-48.55601585388208
30
-4.4408920985006262e-15
40
1.2949999999999959
210
3.2008955675711884e-31
220
-1.972152263052547e-31
230
1
0
CIRCLE
5
159
100
AcDbEntity
8
0
100
AcDbCircle
10
-10.805000000000932
20
-44.806015853882116
30
4.4408920985006262e-15
40
0.49999999999999845
210
3.2008955675711862e-31
220
-2.9582283945788118e-31
230
1
0
CIRCLE
5
160
100
AcDbEntity
8
0
100
AcDbCircle
10
-13.34500000000091
20
-44.80601585388208
30
4.4408920985006262e-15
40
0.49999999999999845
210
3.2008955675711862e-31
220
-2.9582283945788118e-31
230
1
0
CIRCLE
5
161
100
AcDbEntity
8
0
100
AcDbCircle
10
-15.23500000000093
20
-48.556015853882045
30
0
40
1.2949999999999959
210
3.2008955675711884e-31
220
-1.972152263052547e-31
230
1
0
CIRCLE
5
162
100
AcDbEntity
8
0
100
AcDbCircle
10
-15.8850000000009
20
-44.80601585388208
30
0
40
0.49999999999999845
210
3.2008955675711862e-31
220
-2.9582283945788118e-31
230
1
0
CIRCLE
5
163
100
AcDbEntity
8
0
100
AcDbCircle
10
-18.425000000000885
20
-44.806015853882045
30
0
40
0.49999999999999845
210
3.2008955675711862e-31
220
-2.9582283945788118e-31
230
1
0
CIRCLE
5
164
100
AcDbEntity
8
0
100
AcDbCircle
10
-20.125000000000909
20
-49.176015853882035
30
-2.0800524079821503e-45
40
0.99999999999999689
210
3.2008955675711862e-31
220
-2.9582283945788118e-31
230
1
0
ENDSEC
0
SECTION
2
OBJECTS
0
DICTIONARY
5
C
100
AcDbDictionary
3
ACAD_GROUP
350
D
3
ACAD_MLINESTYLE
350
17
0
DICTIONARY
5
D
100
AcDbDictionary
0
DICTIONARY
5
1A
330
C
100
AcDbDictionary
0
DICTIONARY
5
17
100
AcDbDictionary
0
ENDSEC
0
EOF
