%TF.GenerationSoftware,KiCad,Pcbnew,8.0.5*%
%TF.CreationDate,2024-09-19T11:27:23+10:00*%
%TF.ProjectId,SBR2.1,53425232-2e31-42e6-9b69-6361645f7063,rev?*%
%TF.SameCoordinates,Original*%
%TF.FileFunction,Copper,L2,Bot*%
%TF.FilePolarity,Positive*%
%FSLAX46Y46*%
G04 Gerber Fmt 4.6, Leading zero omitted, Abs format (unit mm)*
G04 Created by KiCad (PCBNEW 8.0.5) date 2024-09-19 11:27:23*
%MOMM*%
%LPD*%
G01*
G04 APERTURE LIST*
G04 Aperture macros list*
%AMRoundRect*
0 Rectangle with rounded corners*
0 $1 Rounding radius*
0 $2 $3 $4 $5 $6 $7 $8 $9 X,Y pos of 4 corners*
0 Add a 4 corners polygon primitive as box body*
4,1,4,$2,$3,$4,$5,$6,$7,$8,$9,$2,$3,0*
0 Add four circle primitives for the rounded corners*
1,1,$1+$1,$2,$3*
1,1,$1+$1,$4,$5*
1,1,$1+$1,$6,$7*
1,1,$1+$1,$8,$9*
0 Add four rect primitives between the rounded corners*
20,1,$1+$1,$2,$3,$4,$5,0*
20,1,$1+$1,$4,$5,$6,$7,0*
20,1,$1+$1,$6,$7,$8,$9,0*
20,1,$1+$1,$8,$9,$2,$3,0*%
G04 Aperture macros list end*
%TA.AperFunction,ComponentPad*%
%ADD10RoundRect,0.250000X0.600000X0.725000X-0.600000X0.725000X-0.600000X-0.725000X0.600000X-0.725000X0*%
%TD*%
%TA.AperFunction,ComponentPad*%
%ADD11O,1.700000X1.950000*%
%TD*%
%TA.AperFunction,ComponentPad*%
%ADD12R,1.600000X1.600000*%
%TD*%
%TA.AperFunction,ComponentPad*%
%ADD13C,1.600000*%
%TD*%
%TA.AperFunction,ComponentPad*%
%ADD14R,1.530000X1.530000*%
%TD*%
%TA.AperFunction,ComponentPad*%
%ADD15C,1.530000*%
%TD*%
%TA.AperFunction,ComponentPad*%
%ADD16R,1.800000X1.800000*%
%TD*%
%TA.AperFunction,ComponentPad*%
%ADD17C,1.800000*%
%TD*%
%TA.AperFunction,ComponentPad*%
%ADD18R,1.700000X1.700000*%
%TD*%
%TA.AperFunction,ComponentPad*%
%ADD19O,1.700000X1.700000*%
%TD*%
%TA.AperFunction,ComponentPad*%
%ADD20C,1.778000*%
%TD*%
%TA.AperFunction,ComponentPad*%
%ADD21C,1.930400*%
%TD*%
%TA.AperFunction,ComponentPad*%
%ADD22O,1.600000X1.600000*%
%TD*%
%TA.AperFunction,ComponentPad*%
%ADD23R,3.800000X3.800000*%
%TD*%
%TA.AperFunction,ComponentPad*%
%ADD24C,3.800000*%
%TD*%
%TA.AperFunction,ComponentPad*%
%ADD25RoundRect,0.250000X0.725000X-0.600000X0.725000X0.600000X-0.725000X0.600000X-0.725000X-0.600000X0*%
%TD*%
%TA.AperFunction,ComponentPad*%
%ADD26O,1.950000X1.700000*%
%TD*%
%TA.AperFunction,ViaPad*%
%ADD27C,0.600000*%
%TD*%
%TA.AperFunction,Conductor*%
%ADD28C,0.200000*%
%TD*%
%TA.AperFunction,Conductor*%
%ADD29C,2.000000*%
%TD*%
%TA.AperFunction,Conductor*%
%ADD30C,1.000000*%
%TD*%
G04 APERTURE END LIST*
D10*
%TO.P,J4,1,Pin_1*%
%TO.N,+15V*%
X130750000Y-82475000D03*
D11*
%TO.P,J4,2,Pin_2*%
%TO.N,+5V*%
X128250000Y-82475000D03*
%TO.P,J4,3,Pin_3*%
%TO.N,Net-(J1-Pin_2)*%
X125750000Y-82475000D03*
%TO.P,J4,4,Pin_4*%
%TO.N,GND*%
X123250000Y-82475000D03*
%TD*%
D12*
%TO.P,C4,1*%
%TO.N,+15V*%
X165317621Y-83500000D03*
D13*
%TO.P,C4,2*%
%TO.N,GND*%
X167817621Y-83500000D03*
%TD*%
D14*
%TO.P,U2,1,~{ENABLE}*%
%TO.N,unconnected-(U2-~{ENABLE}-Pad1)*%
X141650000Y-39610000D03*
D15*
%TO.P,U2,2,MS1*%
%TO.N,+5V*%
X141650000Y-42150000D03*
%TO.P,U2,3,MS2*%
X141650000Y-44690000D03*
%TO.P,U2,4,MS3*%
X141650000Y-47230000D03*
%TO.P,U2,5,~{RESET}*%
%TO.N,Net-(U2-~{RESET})*%
X141650000Y-49770000D03*
%TO.P,U2,6,~{SLEEP}*%
X141650000Y-52310000D03*
%TO.P,U2,7,STEP*%
%TO.N,/M2STEP*%
X141650000Y-54850000D03*
%TO.P,U2,8,DIR*%
%TO.N,/M2DIR*%
X141650000Y-57390000D03*
%TO.P,U2,9,GND*%
%TO.N,GND*%
X154350000Y-57390000D03*
%TO.P,U2,10,VDD*%
%TO.N,+5V*%
X154350000Y-54850000D03*
%TO.P,U2,11,1B*%
%TO.N,Net-(J3-Pin_1)*%
X154350000Y-52310000D03*
%TO.P,U2,12,1A*%
%TO.N,Net-(J3-Pin_2)*%
X154350000Y-49770000D03*
%TO.P,U2,13,2A*%
%TO.N,Net-(J3-Pin_3)*%
X154350000Y-47230000D03*
%TO.P,U2,14,2B*%
%TO.N,Net-(J3-Pin_4)*%
X154350000Y-44690000D03*
%TO.P,U2,15,GND__1*%
%TO.N,GND*%
X154350000Y-42150000D03*
%TO.P,U2,16,VMOT*%
%TO.N,+15V*%
X154350000Y-39610000D03*
%TD*%
D16*
%TO.P,D2,1,K*%
%TO.N,GND*%
X166500000Y-74025000D03*
D17*
%TO.P,D2,2,A*%
%TO.N,Net-(D2-A)*%
X166500000Y-71485000D03*
%TD*%
D18*
%TO.P,J9,1,Pin_1*%
%TO.N,+5V*%
X146980000Y-99925000D03*
D19*
%TO.P,J9,2,Pin_2*%
%TO.N,GND*%
X149520000Y-99925000D03*
%TO.P,J9,3,Pin_3*%
%TO.N,unconnected-(J9-Pin_3-Pad3)*%
X152060000Y-99925000D03*
%TO.P,J9,4,Pin_4*%
%TO.N,/CS1*%
X154600000Y-99925000D03*
%TO.P,J9,5,Pin_5*%
%TO.N,/CLK*%
X157140000Y-99925000D03*
%TD*%
D20*
%TO.P,U6,1,VIN*%
%TO.N,+5V*%
X120650000Y-74120000D03*
%TO.P,U6,2,3VO*%
%TO.N,unconnected-(U6-3VO-Pad2)*%
X123190000Y-74120000D03*
%TO.P,U6,3,GND*%
%TO.N,GND*%
X125730000Y-74120000D03*
%TO.P,U6,4,SCL*%
%TO.N,/SCL*%
X128270000Y-74120000D03*
%TO.P,U6,5,SDA*%
%TO.N,/SDA*%
X130810000Y-74120000D03*
%TO.P,U6,6,RST*%
%TO.N,unconnected-(U6-RST-Pad6)*%
X133350000Y-74120000D03*
D21*
%TO.P,U6,7,INT*%
%TO.N,unconnected-(U6-INT-Pad7)*%
X123190000Y-58880000D03*
%TO.P,U6,8,ADR*%
%TO.N,unconnected-(U6-ADR-Pad8)*%
X125730000Y-58880000D03*
%TO.P,U6,9,PS0*%
%TO.N,unconnected-(U6-PS0-Pad9)*%
X128270000Y-58880000D03*
%TO.P,U6,10,PS1*%
%TO.N,unconnected-(U6-PS1-Pad10)*%
X130810000Y-58880000D03*
%TD*%
D14*
%TO.P,U3,1,3V3*%
%TO.N,+3V3*%
X112427500Y-86200000D03*
D15*
%TO.P,U3,2,EN*%
%TO.N,unconnected-(U3-EN-Pad2)*%
X112427500Y-83660000D03*
%TO.P,U3,3,SENSOR_VP*%
%TO.N,unconnected-(U3-SENSOR_VP-Pad3)*%
X112427500Y-81120000D03*
%TO.P,U3,4,SENSOR_VN*%
%TO.N,unconnected-(U3-SENSOR_VN-Pad4)*%
X112427500Y-78580000D03*
%TO.P,U3,5,IO34*%
%TO.N,unconnected-(U3-IO34-Pad5)*%
X112427500Y-76040000D03*
%TO.P,U3,6,IO35*%
%TO.N,unconnected-(U3-IO35-Pad6)*%
X112427500Y-73500000D03*
%TO.P,U3,7,IO32*%
%TO.N,unconnected-(U3-IO32-Pad7)*%
X112427500Y-70960000D03*
%TO.P,U3,8,IO33*%
%TO.N,unconnected-(U3-IO33-Pad8)*%
X112427500Y-68420000D03*
%TO.P,U3,9,IO25*%
%TO.N,unconnected-(U3-IO25-Pad9)*%
X112427500Y-65880000D03*
%TO.P,U3,10,IO26*%
%TO.N,unconnected-(U3-IO26-Pad10)*%
X112427500Y-63340000D03*
%TO.P,U3,11,IO27*%
%TO.N,unconnected-(U3-IO27-Pad11)*%
X112427500Y-60800000D03*
%TO.P,U3,12,IO14*%
%TO.N,unconnected-(U3-IO14-Pad12)*%
X112427500Y-58260000D03*
%TO.P,U3,13,IO12*%
%TO.N,unconnected-(U3-IO12-Pad13)*%
X112427500Y-55720000D03*
%TO.P,U3,14,GND1*%
%TO.N,GND*%
X112427500Y-53180000D03*
%TO.P,U3,15,IO13*%
%TO.N,unconnected-(U3-IO13-Pad15)*%
X112427500Y-50640000D03*
%TO.P,U3,16,SD2*%
%TO.N,unconnected-(U3-SD2-Pad16)*%
X112427500Y-48100000D03*
%TO.P,U3,17,SD3*%
%TO.N,unconnected-(U3-SD3-Pad17)*%
X112427500Y-45560000D03*
%TO.P,U3,18,CMD*%
%TO.N,unconnected-(U3-CMD-Pad18)*%
X112427500Y-43020000D03*
%TO.P,U3,19,EXT_5V*%
%TO.N,+5V*%
X112427500Y-40480000D03*
%TO.P,U3,20,CLK*%
%TO.N,unconnected-(U3-CLK-Pad20)*%
X87027500Y-40480000D03*
%TO.P,U3,21,SD0*%
%TO.N,unconnected-(U3-SD0-Pad21)*%
X87027500Y-43020000D03*
%TO.P,U3,22,SD1*%
%TO.N,unconnected-(U3-SD1-Pad22)*%
X87027500Y-45560000D03*
%TO.P,U3,23,IO15*%
%TO.N,/M2DIR*%
X87027500Y-48100000D03*
%TO.P,U3,24,IO2*%
%TO.N,/M2STEP*%
X87027500Y-50640000D03*
%TO.P,U3,25,IO0*%
%TO.N,/M1DIR*%
X87027500Y-53180000D03*
%TO.P,U3,26,IO4*%
%TO.N,/M1STEP*%
X87027500Y-55720000D03*
%TO.P,U3,27,IO16*%
%TO.N,unconnected-(U3-IO16-Pad27)*%
X87027500Y-58260000D03*
%TO.P,U3,28,IO17*%
%TO.N,/CS1*%
X87027500Y-60800000D03*
%TO.P,U3,29,IO5*%
%TO.N,unconnected-(U3-IO5-Pad29)*%
X87027500Y-63340000D03*
%TO.P,U3,30,IO18*%
%TO.N,/CLK*%
X87027500Y-65880000D03*
%TO.P,U3,31,IO19*%
%TO.N,unconnected-(U3-IO19-Pad31)*%
X87027500Y-68420000D03*
%TO.P,U3,32,GND2*%
%TO.N,GND*%
X87027500Y-70960000D03*
%TO.P,U3,33,IO21*%
%TO.N,/SDA*%
X87027500Y-73500000D03*
%TO.P,U3,34,RXD0*%
%TO.N,unconnected-(U3-RXD0-Pad34)*%
X87027500Y-76040000D03*
%TO.P,U3,35,TXD0*%
%TO.N,unconnected-(U3-TXD0-Pad35)*%
X87027500Y-78580000D03*
%TO.P,U3,36,IO22*%
%TO.N,/SCL*%
X87027500Y-81120000D03*
%TO.P,U3,37,IO23*%
%TO.N,/DIN*%
X87027500Y-83660000D03*
%TO.P,U3,38,GND3*%
%TO.N,GND*%
X87027500Y-86200000D03*
%TD*%
D12*
%TO.P,D1,1,K*%
%TO.N,+15V*%
X166500000Y-56670000D03*
D22*
%TO.P,D1,2,A*%
%TO.N,Net-(D1-A)*%
X166500000Y-66830000D03*
%TD*%
D18*
%TO.P,J8,1,Pin_1*%
%TO.N,+5V*%
X96890000Y-99975000D03*
D19*
%TO.P,J8,2,Pin_2*%
%TO.N,GND*%
X99430000Y-99975000D03*
%TO.P,J8,3,Pin_3*%
%TO.N,/DIN*%
X101970000Y-99975000D03*
%TO.P,J8,4,Pin_4*%
%TO.N,/CS1*%
X104510000Y-99975000D03*
%TO.P,J8,5,Pin_5*%
%TO.N,/CLK*%
X107050000Y-99975000D03*
%TD*%
D12*
%TO.P,C3,1*%
%TO.N,+15V*%
X167682380Y-49500000D03*
D13*
%TO.P,C3,2*%
%TO.N,GND*%
X165182380Y-49500000D03*
%TD*%
D23*
%TO.P,J1,1,Pin_1*%
%TO.N,GND*%
X159750000Y-63500000D03*
D24*
%TO.P,J1,2,Pin_2*%
%TO.N,Net-(J1-Pin_2)*%
X159750000Y-68500000D03*
%TD*%
D14*
%TO.P,U1,1,~{ENABLE}*%
%TO.N,unconnected-(U1-~{ENABLE}-Pad1)*%
X141650000Y-73110000D03*
D15*
%TO.P,U1,2,MS1*%
%TO.N,+5V*%
X141650000Y-75650000D03*
%TO.P,U1,3,MS2*%
X141650000Y-78190000D03*
%TO.P,U1,4,MS3*%
X141650000Y-80730000D03*
%TO.P,U1,5,~{RESET}*%
%TO.N,Net-(U1-~{RESET})*%
X141650000Y-83270000D03*
%TO.P,U1,6,~{SLEEP}*%
X141650000Y-85810000D03*
%TO.P,U1,7,STEP*%
%TO.N,/M1STEP*%
X141650000Y-88350000D03*
%TO.P,U1,8,DIR*%
%TO.N,/M1DIR*%
X141650000Y-90890000D03*
%TO.P,U1,9,GND*%
%TO.N,GND*%
X154350000Y-90890000D03*
%TO.P,U1,10,VDD*%
%TO.N,+5V*%
X154350000Y-88350000D03*
%TO.P,U1,11,1B*%
%TO.N,Net-(J2-Pin_1)*%
X154350000Y-85810000D03*
%TO.P,U1,12,1A*%
%TO.N,Net-(J2-Pin_2)*%
X154350000Y-83270000D03*
%TO.P,U1,13,2A*%
%TO.N,Net-(J2-Pin_3)*%
X154350000Y-80730000D03*
%TO.P,U1,14,2B*%
%TO.N,Net-(J2-Pin_4)*%
X154350000Y-78190000D03*
%TO.P,U1,15,GND__1*%
%TO.N,GND*%
X154350000Y-75650000D03*
%TO.P,U1,16,VMOT*%
%TO.N,+15V*%
X154350000Y-73110000D03*
%TD*%
D25*
%TO.P,J3,1,Pin_1*%
%TO.N,Net-(J3-Pin_1)*%
X160025000Y-52250000D03*
D26*
%TO.P,J3,2,Pin_2*%
%TO.N,Net-(J3-Pin_2)*%
X160025000Y-49750000D03*
%TO.P,J3,3,Pin_3*%
%TO.N,Net-(J3-Pin_3)*%
X160025000Y-47250000D03*
%TO.P,J3,4,Pin_4*%
%TO.N,Net-(J3-Pin_4)*%
X160025000Y-44750000D03*
%TD*%
D25*
%TO.P,J2,1,Pin_1*%
%TO.N,Net-(J2-Pin_1)*%
X160000000Y-88250000D03*
D26*
%TO.P,J2,2,Pin_2*%
%TO.N,Net-(J2-Pin_2)*%
X160000000Y-85750000D03*
%TO.P,J2,3,Pin_3*%
%TO.N,Net-(J2-Pin_3)*%
X160000000Y-83250000D03*
%TO.P,J2,4,Pin_4*%
%TO.N,Net-(J2-Pin_4)*%
X160000000Y-80750000D03*
%TD*%
D27*
%TO.N,+5V*%
X136500000Y-67000000D03*
%TO.N,GND*%
X147000000Y-59250000D03*
X153000000Y-59250000D03*
X153750000Y-59250000D03*
X150000000Y-59250000D03*
X149250000Y-59250000D03*
X151500000Y-59250000D03*
X150750000Y-59250000D03*
X148500000Y-59250000D03*
X147750000Y-59250000D03*
X152250000Y-59250000D03*
X153750000Y-71500000D03*
X153000000Y-71500000D03*
X152250000Y-71500000D03*
X151500000Y-71500000D03*
X150750000Y-71500000D03*
X150000000Y-71500000D03*
X149250000Y-71500000D03*
X148500000Y-71500000D03*
X147750000Y-71500000D03*
X147000000Y-71500000D03*
%TO.N,+15V*%
X145875000Y-62125000D03*
X145250000Y-62750000D03*
%TO.N,/SDA*%
X111500000Y-84750000D03*
%TO.N,/SCL*%
X110350000Y-85750000D03*
%TD*%
D28*
%TO.N,/M2STEP*%
X90887500Y-54500000D02*
X87027500Y-50640000D01*
X141650000Y-54850000D02*
X141300000Y-54500000D01*
X141300000Y-54500000D02*
X90887500Y-54500000D01*
%TO.N,/M2DIR*%
X85962500Y-49165000D02*
X87027500Y-48100000D01*
X87468638Y-51705000D02*
X86586362Y-51705000D01*
X86586362Y-51705000D02*
X85962500Y-51081138D01*
X113000000Y-59500000D02*
X95263638Y-59500000D01*
X95263638Y-59500000D02*
X87468638Y-51705000D01*
X85962500Y-51081138D02*
X85962500Y-49165000D01*
X115110000Y-57390000D02*
X113000000Y-59500000D01*
X141650000Y-57390000D02*
X115110000Y-57390000D01*
%TO.N,+5V*%
X147480000Y-54850000D02*
X154350000Y-54850000D01*
X136500000Y-65830000D02*
X147480000Y-54850000D01*
X136500000Y-67000000D02*
X136500000Y-65830000D01*
X146730000Y-47230000D02*
X141650000Y-47230000D01*
X154350000Y-54850000D02*
X146730000Y-47230000D01*
X141650000Y-42150000D02*
X141650000Y-47230000D01*
D29*
%TO.N,+15V*%
X145875000Y-62125000D02*
X146500000Y-61500000D01*
X135439000Y-72561000D02*
X143750000Y-64250000D01*
X143750000Y-64250000D02*
X145875000Y-62125000D01*
X158880000Y-56670000D02*
X166500000Y-56670000D01*
X135439000Y-75061000D02*
X135439000Y-72561000D01*
X146500000Y-61500000D02*
X154050000Y-61500000D01*
X130750000Y-82475000D02*
X130750000Y-79750000D01*
X130750000Y-79750000D02*
X135439000Y-75061000D01*
X154050000Y-61500000D02*
X158880000Y-56670000D01*
D30*
%TO.N,+5V*%
X96890000Y-98025000D02*
X96890000Y-99975000D01*
X102915000Y-92000000D02*
X96890000Y-98025000D01*
X110250000Y-92000000D02*
X102915000Y-92000000D01*
X121475000Y-80775000D02*
X110250000Y-92000000D01*
X127512500Y-81737500D02*
X126550000Y-80775000D01*
X126550000Y-80775000D02*
X121475000Y-80775000D01*
D29*
%TO.N,Net-(J1-Pin_2)*%
X125750000Y-84000000D02*
X125750000Y-82475000D01*
X135500000Y-84750000D02*
X133925000Y-86325000D01*
X135500000Y-82500000D02*
X135500000Y-84750000D01*
X133925000Y-86325000D02*
X128075000Y-86325000D01*
X143000000Y-68500000D02*
X138000000Y-73500000D01*
X138000000Y-80000000D02*
X135500000Y-82500000D01*
X138000000Y-73500000D02*
X138000000Y-80000000D01*
X159000000Y-68500000D02*
X143000000Y-68500000D01*
X128075000Y-86325000D02*
X125750000Y-84000000D01*
D30*
%TO.N,+5V*%
X127512500Y-80982500D02*
X120650000Y-74120000D01*
X127512500Y-81737500D02*
X127512500Y-80982500D01*
X128250000Y-82475000D02*
X127512500Y-81737500D01*
D29*
%TO.N,+15V*%
X163500000Y-77000000D02*
X165317621Y-78817621D01*
X166500000Y-56670000D02*
X166500000Y-60500000D01*
X154350000Y-39610000D02*
X159701190Y-39610000D01*
X159701190Y-39610000D02*
X167682380Y-47591190D01*
X164000000Y-72600000D02*
X163600000Y-73000000D01*
X167682380Y-47591190D02*
X167682380Y-49500000D01*
X158500000Y-77000000D02*
X163500000Y-77000000D01*
X164000000Y-63000000D02*
X164000000Y-72600000D01*
X165317621Y-78817621D02*
X165317621Y-83500000D01*
X154500000Y-73000000D02*
X158500000Y-77000000D01*
X166500000Y-60500000D02*
X164000000Y-63000000D01*
X163600000Y-73000000D02*
X154500000Y-73000000D01*
D28*
%TO.N,/SDA*%
X99750000Y-73500000D02*
X87027500Y-73500000D01*
X111000000Y-84750000D02*
X99750000Y-73500000D01*
X111500000Y-84750000D02*
X111000000Y-84750000D01*
%TO.N,/SCL*%
X91657500Y-85750000D02*
X87027500Y-81120000D01*
X110350000Y-85750000D02*
X91657500Y-85750000D01*
%TO.N,/CS1*%
X154600000Y-99925000D02*
X152425000Y-97750000D01*
X152425000Y-97750000D02*
X106735000Y-97750000D01*
X106735000Y-97750000D02*
X104510000Y-99975000D01*
%TD*%
%TA.AperFunction,Conductor*%
%TO.N,GND*%
G36*
X140709100Y-38520185D02*
G01*
X140754855Y-38572989D01*
X140764799Y-38642147D01*
X140745163Y-38693391D01*
X140696132Y-38766769D01*
X140696131Y-38766770D01*
X140684500Y-38825247D01*
X140684500Y-40394752D01*
X140696131Y-40453229D01*
X140696132Y-40453230D01*
X140740447Y-40519552D01*
X140806769Y-40563867D01*
X140806770Y-40563868D01*
X140865247Y-40575499D01*
X140865250Y-40575500D01*
X140865252Y-40575500D01*
X142434750Y-40575500D01*
X142434751Y-40575499D01*
X142449568Y-40572552D01*
X142493229Y-40563868D01*
X142493229Y-40563867D01*
X142493231Y-40563867D01*
X142559552Y-40519552D01*
X142603867Y-40453231D01*
X142603867Y-40453229D01*
X142603868Y-40453229D01*
X142615499Y-40394752D01*
X142615500Y-40394750D01*
X142615500Y-38825249D01*
X142615499Y-38825247D01*
X142603868Y-38766770D01*
X142603867Y-38766769D01*
X142554837Y-38693391D01*
X142533959Y-38626714D01*
X142552443Y-38559334D01*
X142604422Y-38512643D01*
X142657939Y-38500500D01*
X153462375Y-38500500D01*
X153529414Y-38520185D01*
X153575169Y-38572989D01*
X153585113Y-38642147D01*
X153556088Y-38705703D01*
X153550056Y-38712181D01*
X153434312Y-38827924D01*
X153434312Y-38827925D01*
X153434310Y-38827927D01*
X153386610Y-38893579D01*
X153323240Y-38980800D01*
X153237454Y-39149163D01*
X153179059Y-39328881D01*
X153149500Y-39515513D01*
X153149500Y-39704486D01*
X153179059Y-39891118D01*
X153237454Y-40070836D01*
X153323240Y-40239199D01*
X153434310Y-40392073D01*
X153567927Y-40525690D01*
X153720801Y-40636760D01*
X153784604Y-40669269D01*
X153889163Y-40722545D01*
X153889165Y-40722545D01*
X153889168Y-40722547D01*
X153985497Y-40753846D01*
X154068881Y-40780940D01*
X154255514Y-40810500D01*
X154255519Y-40810500D01*
X159152564Y-40810500D01*
X159219603Y-40830185D01*
X159240245Y-40846819D01*
X166445561Y-48052135D01*
X166479046Y-48113458D01*
X166481880Y-48139816D01*
X166481880Y-49457549D01*
X166469558Y-49499512D01*
X166479708Y-49519345D01*
X166481880Y-49542450D01*
X166481880Y-49594486D01*
X166511439Y-49781118D01*
X166569834Y-49960836D01*
X166633696Y-50086171D01*
X166655620Y-50129199D01*
X166658194Y-50132742D01*
X166681677Y-50198546D01*
X166681880Y-50205632D01*
X166681880Y-50319752D01*
X166693511Y-50378229D01*
X166693512Y-50378230D01*
X166737827Y-50444552D01*
X166804149Y-50488867D01*
X166804150Y-50488868D01*
X166862627Y-50500499D01*
X166862630Y-50500500D01*
X166862632Y-50500500D01*
X166976747Y-50500500D01*
X167043786Y-50520185D01*
X167049634Y-50524183D01*
X167053179Y-50526759D01*
X167221543Y-50612545D01*
X167221545Y-50612545D01*
X167221548Y-50612547D01*
X167306039Y-50640000D01*
X167401261Y-50670940D01*
X167587894Y-50700500D01*
X167587899Y-50700500D01*
X167776866Y-50700500D01*
X167963498Y-50670940D01*
X168143212Y-50612547D01*
X168311579Y-50526760D01*
X168315126Y-50524183D01*
X168380932Y-50500702D01*
X168388013Y-50500500D01*
X168502130Y-50500500D01*
X168502131Y-50500499D01*
X168516948Y-50497552D01*
X168560609Y-50488868D01*
X168560609Y-50488867D01*
X168560611Y-50488867D01*
X168626932Y-50444552D01*
X168671247Y-50378231D01*
X168671247Y-50378229D01*
X168671248Y-50378229D01*
X168679932Y-50334568D01*
X168682880Y-50319748D01*
X168682880Y-50205632D01*
X168702565Y-50138593D01*
X168706557Y-50132753D01*
X168709140Y-50129199D01*
X168794927Y-49960832D01*
X168853320Y-49781118D01*
X168857264Y-49756218D01*
X168882880Y-49594486D01*
X168882880Y-47496703D01*
X168853320Y-47310071D01*
X168800812Y-47148470D01*
X168794927Y-47130358D01*
X168794925Y-47130355D01*
X168794925Y-47130353D01*
X168723177Y-46989541D01*
X168709140Y-46961991D01*
X168703989Y-46954901D01*
X168634119Y-46858732D01*
X168634116Y-46858729D01*
X168598070Y-46809116D01*
X163167665Y-41378711D01*
X165649500Y-41378711D01*
X165649500Y-41621288D01*
X165681161Y-41861785D01*
X165743947Y-42096104D01*
X165836773Y-42320205D01*
X165836777Y-42320214D01*
X165847780Y-42339271D01*
X165958064Y-42530289D01*
X165958066Y-42530292D01*
X165958067Y-42530293D01*
X166105733Y-42722736D01*
X166105739Y-42722743D01*
X166277256Y-42894260D01*
X166277262Y-42894265D01*
X166469711Y-43041936D01*
X166679788Y-43163224D01*
X166903900Y-43256054D01*
X167138211Y-43318838D01*
X167318586Y-43342584D01*
X167378711Y-43350500D01*
X167378712Y-43350500D01*
X167621289Y-43350500D01*
X167669388Y-43344167D01*
X167861789Y-43318838D01*
X168096100Y-43256054D01*
X168320212Y-43163224D01*
X168530289Y-43041936D01*
X168722738Y-42894265D01*
X168894265Y-42722738D01*
X169041936Y-42530289D01*
X169163224Y-42320212D01*
X169256054Y-42096100D01*
X169318838Y-41861789D01*
X169350500Y-41621288D01*
X169350500Y-41378712D01*
X169318838Y-41138211D01*
X169256054Y-40903900D01*
X169163224Y-40679788D01*
X169041936Y-40469711D01*
X168981018Y-40390321D01*
X168894266Y-40277263D01*
X168894260Y-40277256D01*
X168722743Y-40105739D01*
X168722736Y-40105733D01*
X168530293Y-39958067D01*
X168530292Y-39958066D01*
X168530289Y-39958064D01*
X168334912Y-39845263D01*
X168320214Y-39836777D01*
X168320205Y-39836773D01*
X168096104Y-39743947D01*
X167861785Y-39681161D01*
X167621289Y-39649500D01*
X167621288Y-39649500D01*
X167378712Y-39649500D01*
X167378711Y-39649500D01*
X167138214Y-39681161D01*
X166903895Y-39743947D01*
X166679794Y-39836773D01*
X166679785Y-39836777D01*
X166469706Y-39958067D01*
X166277263Y-40105733D01*
X166277256Y-40105739D01*
X166105739Y-40277256D01*
X166105733Y-40277263D01*
X165958067Y-40469706D01*
X165836777Y-40679785D01*
X165836773Y-40679794D01*
X165743947Y-40903895D01*
X165681161Y-41138214D01*
X165649500Y-41378711D01*
X163167665Y-41378711D01*
X160501135Y-38712181D01*
X160467650Y-38650858D01*
X160472634Y-38581166D01*
X160514506Y-38525233D01*
X160579970Y-38500816D01*
X160588816Y-38500500D01*
X167934108Y-38500500D01*
X167996249Y-38500500D01*
X168003736Y-38500726D01*
X168293796Y-38518271D01*
X168308657Y-38520075D01*
X168590798Y-38571780D01*
X168605335Y-38575363D01*
X168879172Y-38660695D01*
X168893163Y-38666000D01*
X169154743Y-38783727D01*
X169167989Y-38790680D01*
X169413465Y-38939075D01*
X169425776Y-38947573D01*
X169468189Y-38980801D01*
X169651573Y-39124473D01*
X169662781Y-39134403D01*
X169865596Y-39337218D01*
X169875526Y-39348426D01*
X170016581Y-39528470D01*
X170052422Y-39574217D01*
X170060926Y-39586537D01*
X170118128Y-39681161D01*
X170209316Y-39832004D01*
X170216275Y-39845263D01*
X170333997Y-40106831D01*
X170339306Y-40120832D01*
X170424635Y-40394663D01*
X170428219Y-40409201D01*
X170479923Y-40691340D01*
X170481728Y-40706205D01*
X170499274Y-40996263D01*
X170499500Y-41003750D01*
X170499501Y-96934109D01*
X170499501Y-96996250D01*
X170499275Y-97003737D01*
X170481729Y-97293795D01*
X170479924Y-97308660D01*
X170428220Y-97590798D01*
X170424636Y-97605336D01*
X170339305Y-97879175D01*
X170333995Y-97893177D01*
X170216278Y-98154731D01*
X170209320Y-98167988D01*
X170060929Y-98413459D01*
X170052423Y-98425783D01*
X169875526Y-98651574D01*
X169865596Y-98662782D01*
X169662782Y-98865596D01*
X169651574Y-98875526D01*
X169425783Y-99052423D01*
X169413459Y-99060929D01*
X169167988Y-99209320D01*
X169154731Y-99216278D01*
X168893177Y-99333995D01*
X168879175Y-99339305D01*
X168605336Y-99424636D01*
X168590798Y-99428220D01*
X168308660Y-99479924D01*
X168293795Y-99481729D01*
X168014455Y-99498625D01*
X168003736Y-99499274D01*
X167996251Y-99499500D01*
X158934108Y-99499500D01*
X158806812Y-99533608D01*
X158692686Y-99599500D01*
X158692683Y-99599502D01*
X158599502Y-99692683D01*
X158599500Y-99692686D01*
X158533608Y-99806812D01*
X158499500Y-99934108D01*
X158499500Y-101375500D01*
X158479815Y-101442539D01*
X158427011Y-101488294D01*
X158375500Y-101499500D01*
X145624500Y-101499500D01*
X145557461Y-101479815D01*
X145511706Y-101427011D01*
X145500500Y-101375500D01*
X145500500Y-99934110D01*
X145500500Y-99934108D01*
X145466392Y-99806814D01*
X145400500Y-99692686D01*
X145307314Y-99599500D01*
X145233368Y-99556807D01*
X145193187Y-99533608D01*
X145129539Y-99516554D01*
X145065892Y-99499500D01*
X109065892Y-99499500D01*
X108934108Y-99499500D01*
X108806812Y-99533608D01*
X108692686Y-99599500D01*
X108692683Y-99599502D01*
X108599502Y-99692683D01*
X108599500Y-99692686D01*
X108533608Y-99806812D01*
X108499500Y-99934108D01*
X108499500Y-101375500D01*
X108479815Y-101442539D01*
X108427011Y-101488294D01*
X108375500Y-101499500D01*
X95624500Y-101499500D01*
X95557461Y-101479815D01*
X95511706Y-101427011D01*
X95500500Y-101375500D01*
X95500500Y-99934110D01*
X95500500Y-99934108D01*
X95466392Y-99806814D01*
X95400500Y-99692686D01*
X95307314Y-99599500D01*
X95233368Y-99556807D01*
X95193187Y-99533608D01*
X95129539Y-99516554D01*
X95065892Y-99499500D01*
X95065891Y-99499500D01*
X86003734Y-99499500D01*
X85996247Y-99499274D01*
X85706205Y-99481729D01*
X85691340Y-99479924D01*
X85409201Y-99428220D01*
X85394663Y-99424636D01*
X85120832Y-99339307D01*
X85106831Y-99333998D01*
X84845263Y-99216276D01*
X84832004Y-99209317D01*
X84781174Y-99178589D01*
X84659851Y-99105247D01*
X95839500Y-99105247D01*
X95839500Y-100844752D01*
X95851131Y-100903229D01*
X95851132Y-100903230D01*
X95895447Y-100969552D01*
X95961769Y-101013867D01*
X95961770Y-101013868D01*
X96020247Y-101025499D01*
X96020250Y-101025500D01*
X96020252Y-101025500D01*
X97759750Y-101025500D01*
X97759751Y-101025499D01*
X97783950Y-101020686D01*
X97818229Y-101013868D01*
X97818229Y-101013867D01*
X97818231Y-101013867D01*
X97884552Y-100969552D01*
X97928867Y-100903231D01*
X97928867Y-100903229D01*
X97928868Y-100903229D01*
X97940499Y-100844752D01*
X97940500Y-100844750D01*
X97940500Y-99849999D01*
X98336869Y-99849999D01*
X98336870Y-99850000D01*
X98945856Y-99850000D01*
X98930000Y-99909174D01*
X98930000Y-100040826D01*
X98945856Y-100100000D01*
X98336870Y-100100000D01*
X98344097Y-100177989D01*
X98344097Y-100177992D01*
X98399883Y-100374063D01*
X98399886Y-100374069D01*
X98490754Y-100556556D01*
X98613608Y-100719242D01*
X98764260Y-100856578D01*
X98937584Y-100963897D01*
X99127678Y-101037539D01*
X99305000Y-101070686D01*
X99305000Y-100459144D01*
X99364174Y-100475000D01*
X99495826Y-100475000D01*
X99555000Y-100459144D01*
X99555000Y-101070686D01*
X99732321Y-101037539D01*
X99922415Y-100963897D01*
X100095739Y-100856578D01*
X100246391Y-100719242D01*
X100369245Y-100556556D01*
X100460113Y-100374069D01*
X100460116Y-100374063D01*
X100515902Y-100177992D01*
X100515902Y-100177989D01*
X100523130Y-100100000D01*
X99914144Y-100100000D01*
X99930000Y-100040826D01*
X99930000Y-99975000D01*
X100914417Y-99975000D01*
X100934699Y-100180932D01*
X100964734Y-100279944D01*
X100994768Y-100378954D01*
X101092315Y-100561450D01*
X101092317Y-100561452D01*
X101223589Y-100721410D01*
X101312953Y-100794748D01*
X101383550Y-100852685D01*
X101566046Y-100950232D01*
X101764066Y-101010300D01*
X101764065Y-101010300D01*
X101782529Y-101012118D01*
X101970000Y-101030583D01*
X102175934Y-101010300D01*
X102373954Y-100950232D01*
X102556450Y-100852685D01*
X102716410Y-100721410D01*
X102847685Y-100561450D01*
X102945232Y-100378954D01*
X103005300Y-100180934D01*
X103025583Y-99975000D01*
X103454417Y-99975000D01*
X103474699Y-100180932D01*
X103504734Y-100279944D01*
X103534768Y-100378954D01*
X103632315Y-100561450D01*
X103632317Y-100561452D01*
X103763589Y-100721410D01*
X103852953Y-100794748D01*
X103923550Y-100852685D01*
X104106046Y-100950232D01*
X104304066Y-101010300D01*
X104304065Y-101010300D01*
X104322529Y-101012118D01*
X104510000Y-101030583D01*
X104715934Y-101010300D01*
X104913954Y-100950232D01*
X105096450Y-100852685D01*
X105256410Y-100721410D01*
X105387685Y-100561450D01*
X105485232Y-100378954D01*
X105545300Y-100180934D01*
X105565583Y-99975000D01*
X105994417Y-99975000D01*
X106014699Y-100180932D01*
X106044734Y-100279944D01*
X106074768Y-100378954D01*
X106172315Y-100561450D01*
X106172317Y-100561452D01*
X106303589Y-100721410D01*
X106392953Y-100794748D01*
X106463550Y-100852685D01*
X106646046Y-100950232D01*
X106844066Y-101010300D01*
X106844065Y-101010300D01*
X106862529Y-101012118D01*
X107050000Y-101030583D01*
X107255934Y-101010300D01*
X107453954Y-100950232D01*
X107636450Y-100852685D01*
X107796410Y-100721410D01*
X107927685Y-100561450D01*
X108025232Y-100378954D01*
X108085300Y-100180934D01*
X108105583Y-99975000D01*
X108085300Y-99769066D01*
X108025232Y-99571046D01*
X107927685Y-99388550D01*
X107875702Y-99325209D01*
X107796410Y-99228589D01*
X107646121Y-99105252D01*
X107636450Y-99097315D01*
X107557747Y-99055247D01*
X145929500Y-99055247D01*
X145929500Y-100794752D01*
X145941131Y-100853229D01*
X145941132Y-100853230D01*
X145985447Y-100919552D01*
X146051769Y-100963867D01*
X146051770Y-100963868D01*
X146110247Y-100975499D01*
X146110250Y-100975500D01*
X146110252Y-100975500D01*
X147849750Y-100975500D01*
X147849751Y-100975499D01*
X147864568Y-100972552D01*
X147908229Y-100963868D01*
X147908229Y-100963867D01*
X147908231Y-100963867D01*
X147974552Y-100919552D01*
X148018867Y-100853231D01*
X148018867Y-100853229D01*
X148018868Y-100853229D01*
X148030499Y-100794752D01*
X148030500Y-100794750D01*
X148030500Y-99799999D01*
X148426869Y-99799999D01*
X148426870Y-99800000D01*
X149035856Y-99800000D01*
X149020000Y-99859174D01*
X149020000Y-99990826D01*
X149035856Y-100050000D01*
X148426870Y-100050000D01*
X148434097Y-100127989D01*
X148434097Y-100127992D01*
X148489883Y-100324063D01*
X148489886Y-100324069D01*
X148580754Y-100506556D01*
X148703608Y-100669242D01*
X148854260Y-100806578D01*
X149027584Y-100913897D01*
X149217678Y-100987539D01*
X149395000Y-101020686D01*
X149395000Y-100409144D01*
X149454174Y-100425000D01*
X149585826Y-100425000D01*
X149645000Y-100409144D01*
X149645000Y-101020686D01*
X149822321Y-100987539D01*
X150012415Y-100913897D01*
X150185739Y-100806578D01*
X150336391Y-100669242D01*
X150459245Y-100506556D01*
X150550113Y-100324069D01*
X150550116Y-100324063D01*
X150605902Y-100127992D01*
X150605902Y-100127989D01*
X150613130Y-100050000D01*
X150004144Y-100050000D01*
X150020000Y-99990826D01*
X150020000Y-99925000D01*
X151004417Y-99925000D01*
X151024699Y-100130932D01*
X151039867Y-100180934D01*
X151084768Y-100328954D01*
X151182315Y-100511450D01*
X151182317Y-100511452D01*
X151313589Y-100671410D01*
X151410209Y-100750702D01*
X151473550Y-100802685D01*
X151656046Y-100900232D01*
X151854066Y-100960300D01*
X151854065Y-100960300D01*
X151872529Y-100962118D01*
X152060000Y-100980583D01*
X152265934Y-100960300D01*
X152463954Y-100900232D01*
X152646450Y-100802685D01*
X152806410Y-100671410D01*
X152937685Y-100511450D01*
X153035232Y-100328954D01*
X153095300Y-100130934D01*
X153115583Y-99925000D01*
X153095300Y-99719066D01*
X153035232Y-99521046D01*
X152937685Y-99338550D01*
X152834812Y-99213198D01*
X152806410Y-99178589D01*
X152656121Y-99055252D01*
X152646450Y-99047315D01*
X152463954Y-98949768D01*
X152265934Y-98889700D01*
X152265932Y-98889699D01*
X152265934Y-98889699D01*
X152060000Y-98869417D01*
X151854067Y-98889699D01*
X151656043Y-98949769D01*
X151548264Y-99007379D01*
X151473550Y-99047315D01*
X151473548Y-99047316D01*
X151473547Y-99047317D01*
X151313589Y-99178589D01*
X151183526Y-99337074D01*
X151182315Y-99338550D01*
X151155591Y-99388547D01*
X151084769Y-99521043D01*
X151084768Y-99521045D01*
X151084768Y-99521046D01*
X151083285Y-99525936D01*
X151024699Y-99719067D01*
X151004417Y-99925000D01*
X150020000Y-99925000D01*
X150020000Y-99859174D01*
X150004144Y-99800000D01*
X150613130Y-99800000D01*
X150613130Y-99799999D01*
X150605902Y-99722010D01*
X150605902Y-99722007D01*
X150550116Y-99525936D01*
X150550113Y-99525930D01*
X150459245Y-99343443D01*
X150336391Y-99180757D01*
X150185739Y-99043421D01*
X150012415Y-98936102D01*
X149822321Y-98862460D01*
X149645000Y-98829312D01*
X149645000Y-99440855D01*
X149585826Y-99425000D01*
X149454174Y-99425000D01*
X149395000Y-99440855D01*
X149395000Y-98829312D01*
X149217678Y-98862460D01*
X149027584Y-98936102D01*
X148854260Y-99043421D01*
X148703608Y-99180757D01*
X148580754Y-99343443D01*
X148489886Y-99525930D01*
X148489883Y-99525936D01*
X148434097Y-99722007D01*
X148434097Y-99722010D01*
X148426869Y-99799999D01*
X148030500Y-99799999D01*
X148030500Y-99055249D01*
X148030499Y-99055247D01*
X148018868Y-98996770D01*
X148018867Y-98996769D01*
X147974552Y-98930447D01*
X147908230Y-98886132D01*
X147908229Y-98886131D01*
X147849752Y-98874500D01*
X147849748Y-98874500D01*
X146110252Y-98874500D01*
X146110247Y-98874500D01*
X146051770Y-98886131D01*
X146051769Y-98886132D01*
X145985447Y-98930447D01*
X145941132Y-98996769D01*
X145941131Y-98996770D01*
X145929500Y-99055247D01*
X107557747Y-99055247D01*
X107453954Y-98999768D01*
X107255934Y-98939700D01*
X107255932Y-98939699D01*
X107255934Y-98939699D01*
X107050000Y-98919417D01*
X106844067Y-98939699D01*
X106709736Y-98980448D01*
X106655933Y-98996769D01*
X106646043Y-98999769D01*
X106547536Y-99052423D01*
X106463550Y-99097315D01*
X106463548Y-99097316D01*
X106463547Y-99097317D01*
X106303589Y-99228589D01*
X106172317Y-99388547D01*
X106172315Y-99388550D01*
X106151111Y-99428220D01*
X106074769Y-99571043D01*
X106074768Y-99571045D01*
X106074768Y-99571046D01*
X106073285Y-99575936D01*
X106014699Y-99769067D01*
X105994417Y-99975000D01*
X105565583Y-99975000D01*
X105545300Y-99769066D01*
X105485232Y-99571046D01*
X105477620Y-99556806D01*
X105463379Y-99488404D01*
X105488379Y-99423160D01*
X105499298Y-99410672D01*
X106823152Y-98086819D01*
X106884475Y-98053334D01*
X106910833Y-98050500D01*
X152249167Y-98050500D01*
X152316206Y-98070185D01*
X152336848Y-98086819D01*
X153610701Y-99360672D01*
X153644186Y-99421995D01*
X153639202Y-99491687D01*
X153632381Y-99506800D01*
X153624770Y-99521039D01*
X153564699Y-99719067D01*
X153544417Y-99925000D01*
X153564699Y-100130932D01*
X153579867Y-100180934D01*
X153624768Y-100328954D01*
X153722315Y-100511450D01*
X153722317Y-100511452D01*
X153853589Y-100671410D01*
X153950209Y-100750702D01*
X154013550Y-100802685D01*
X154196046Y-100900232D01*
X154394066Y-100960300D01*
X154394065Y-100960300D01*
X154412529Y-100962118D01*
X154600000Y-100980583D01*
X154805934Y-100960300D01*
X155003954Y-100900232D01*
X155186450Y-100802685D01*
X155346410Y-100671410D01*
X155477685Y-100511450D01*
X155575232Y-100328954D01*
X155635300Y-100130934D01*
X155655583Y-99925000D01*
X156084417Y-99925000D01*
X156104699Y-100130932D01*
X156119867Y-100180934D01*
X156164768Y-100328954D01*
X156262315Y-100511450D01*
X156262317Y-100511452D01*
X156393589Y-100671410D01*
X156490209Y-100750702D01*
X156553550Y-100802685D01*
X156736046Y-100900232D01*
X156934066Y-100960300D01*
X156934065Y-100960300D01*
X156952529Y-100962118D01*
X157140000Y-100980583D01*
X157345934Y-100960300D01*
X157543954Y-100900232D01*
X157726450Y-100802685D01*
X157886410Y-100671410D01*
X158017685Y-100511450D01*
X158115232Y-100328954D01*
X158175300Y-100130934D01*
X158195583Y-99925000D01*
X158175300Y-99719066D01*
X158115232Y-99521046D01*
X158017685Y-99338550D01*
X157914812Y-99213198D01*
X157886410Y-99178589D01*
X157736121Y-99055252D01*
X157726450Y-99047315D01*
X157543954Y-98949768D01*
X157345934Y-98889700D01*
X157345932Y-98889699D01*
X157345934Y-98889699D01*
X157140000Y-98869417D01*
X156934067Y-98889699D01*
X156736043Y-98949769D01*
X156628264Y-99007379D01*
X156553550Y-99047315D01*
X156553548Y-99047316D01*
X156553547Y-99047317D01*
X156393589Y-99178589D01*
X156263526Y-99337074D01*
X156262315Y-99338550D01*
X156235591Y-99388547D01*
X156164769Y-99521043D01*
X156164768Y-99521045D01*
X156164768Y-99521046D01*
X156163285Y-99525936D01*
X156104699Y-99719067D01*
X156084417Y-99925000D01*
X155655583Y-99925000D01*
X155635300Y-99719066D01*
X155575232Y-99521046D01*
X155477685Y-99338550D01*
X155374812Y-99213198D01*
X155346410Y-99178589D01*
X155196121Y-99055252D01*
X155186450Y-99047315D01*
X155003954Y-98949768D01*
X154805934Y-98889700D01*
X154805932Y-98889699D01*
X154805934Y-98889699D01*
X154600000Y-98869417D01*
X154394067Y-98889699D01*
X154196039Y-98949770D01*
X154181800Y-98957381D01*
X154113397Y-98971620D01*
X154048154Y-98946616D01*
X154035672Y-98935701D01*
X152609513Y-97509542D01*
X152609511Y-97509540D01*
X152593855Y-97500501D01*
X152540991Y-97469980D01*
X152540990Y-97469979D01*
X152515513Y-97463152D01*
X152464562Y-97449500D01*
X106695438Y-97449500D01*
X106657224Y-97459739D01*
X106619009Y-97469979D01*
X106619008Y-97469980D01*
X106566145Y-97500501D01*
X106550492Y-97509538D01*
X106550486Y-97509542D01*
X105074326Y-98985701D01*
X105013003Y-99019186D01*
X104943311Y-99014202D01*
X104928193Y-99007379D01*
X104913956Y-98999769D01*
X104913955Y-98999768D01*
X104913954Y-98999768D01*
X104715934Y-98939700D01*
X104715932Y-98939699D01*
X104715934Y-98939699D01*
X104510000Y-98919417D01*
X104304067Y-98939699D01*
X104169736Y-98980448D01*
X104115933Y-98996769D01*
X104106043Y-98999769D01*
X104007536Y-99052423D01*
X103923550Y-99097315D01*
X103923548Y-99097316D01*
X103923547Y-99097317D01*
X103763589Y-99228589D01*
X103632317Y-99388547D01*
X103632315Y-99388550D01*
X103611111Y-99428220D01*
X103534769Y-99571043D01*
X103534768Y-99571045D01*
X103534768Y-99571046D01*
X103533285Y-99575936D01*
X103474699Y-99769067D01*
X103454417Y-99975000D01*
X103025583Y-99975000D01*
X103005300Y-99769066D01*
X102945232Y-99571046D01*
X102847685Y-99388550D01*
X102795702Y-99325209D01*
X102716410Y-99228589D01*
X102566121Y-99105252D01*
X102556450Y-99097315D01*
X102373954Y-98999768D01*
X102175934Y-98939700D01*
X102175932Y-98939699D01*
X102175934Y-98939699D01*
X101970000Y-98919417D01*
X101764067Y-98939699D01*
X101629736Y-98980448D01*
X101575933Y-98996769D01*
X101566043Y-98999769D01*
X101467536Y-99052423D01*
X101383550Y-99097315D01*
X101383548Y-99097316D01*
X101383547Y-99097317D01*
X101223589Y-99228589D01*
X101092317Y-99388547D01*
X101092315Y-99388550D01*
X101071111Y-99428220D01*
X100994769Y-99571043D01*
X100994768Y-99571045D01*
X100994768Y-99571046D01*
X100993285Y-99575936D01*
X100934699Y-99769067D01*
X100914417Y-99975000D01*
X99930000Y-99975000D01*
X99930000Y-99909174D01*
X99914144Y-99850000D01*
X100523130Y-99850000D01*
X100523130Y-99849999D01*
X100515902Y-99772010D01*
X100515902Y-99772007D01*
X100460116Y-99575936D01*
X100460113Y-99575930D01*
X100369245Y-99393443D01*
X100246391Y-99230757D01*
X100095739Y-99093421D01*
X99922415Y-98986102D01*
X99732321Y-98912460D01*
X99555000Y-98879312D01*
X99555000Y-99490855D01*
X99495826Y-99475000D01*
X99364174Y-99475000D01*
X99305000Y-99490855D01*
X99305000Y-98879312D01*
X99127678Y-98912460D01*
X98937584Y-98986102D01*
X98764260Y-99093421D01*
X98613608Y-99230757D01*
X98490754Y-99393443D01*
X98399886Y-99575930D01*
X98399883Y-99575936D01*
X98344097Y-99772007D01*
X98344097Y-99772010D01*
X98336869Y-99849999D01*
X97940500Y-99849999D01*
X97940500Y-99105249D01*
X97940499Y-99105247D01*
X97928868Y-99046770D01*
X97928867Y-99046769D01*
X97884552Y-98980447D01*
X97818230Y-98936132D01*
X97818229Y-98936131D01*
X97759752Y-98924500D01*
X97759748Y-98924500D01*
X97714500Y-98924500D01*
X97647461Y-98904815D01*
X97601706Y-98852011D01*
X97590500Y-98800500D01*
X97590500Y-98366519D01*
X97610185Y-98299480D01*
X97626819Y-98278838D01*
X99526946Y-96378711D01*
X165649500Y-96378711D01*
X165649500Y-96621288D01*
X165681161Y-96861785D01*
X165743947Y-97096104D01*
X165775372Y-97171970D01*
X165836776Y-97320212D01*
X165958064Y-97530289D01*
X165958066Y-97530292D01*
X165958067Y-97530293D01*
X166105733Y-97722736D01*
X166105739Y-97722743D01*
X166277256Y-97894260D01*
X166277262Y-97894265D01*
X166469711Y-98041936D01*
X166679788Y-98163224D01*
X166903900Y-98256054D01*
X167138211Y-98318838D01*
X167318586Y-98342584D01*
X167378711Y-98350500D01*
X167378712Y-98350500D01*
X167621289Y-98350500D01*
X167669388Y-98344167D01*
X167861789Y-98318838D01*
X168096100Y-98256054D01*
X168320212Y-98163224D01*
X168530289Y-98041936D01*
X168722738Y-97894265D01*
X168894265Y-97722738D01*
X169041936Y-97530289D01*
X169163224Y-97320212D01*
X169256054Y-97096100D01*
X169318838Y-96861789D01*
X169350500Y-96621288D01*
X169350500Y-96378712D01*
X169318838Y-96138211D01*
X169256054Y-95903900D01*
X169163224Y-95679788D01*
X169041936Y-95469711D01*
X168894265Y-95277262D01*
X168894260Y-95277256D01*
X168722743Y-95105739D01*
X168722736Y-95105733D01*
X168530293Y-94958067D01*
X168530292Y-94958066D01*
X168530289Y-94958064D01*
X168320212Y-94836776D01*
X168320205Y-94836773D01*
X168096104Y-94743947D01*
X167861785Y-94681161D01*
X167621289Y-94649500D01*
X167621288Y-94649500D01*
X167378712Y-94649500D01*
X167378711Y-94649500D01*
X167138214Y-94681161D01*
X166903895Y-94743947D01*
X166679794Y-94836773D01*
X166679785Y-94836777D01*
X166469706Y-94958067D01*
X166277263Y-95105733D01*
X166277256Y-95105739D01*
X166105739Y-95277256D01*
X166105733Y-95277263D01*
X165958067Y-95469706D01*
X165836777Y-95679785D01*
X165836773Y-95679794D01*
X165743947Y-95903895D01*
X165681161Y-96138214D01*
X165649500Y-96378711D01*
X99526946Y-96378711D01*
X103168838Y-92736819D01*
X103230161Y-92703334D01*
X103256519Y-92700500D01*
X110318996Y-92700500D01*
X110410040Y-92682389D01*
X110454328Y-92673580D01*
X110518069Y-92647177D01*
X110581807Y-92620777D01*
X110581808Y-92620776D01*
X110581811Y-92620775D01*
X110696543Y-92544114D01*
X112350657Y-90890000D01*
X140679828Y-90890000D01*
X140698469Y-91079269D01*
X140729638Y-91182020D01*
X140753678Y-91261269D01*
X140827831Y-91400000D01*
X140843332Y-91429000D01*
X140963984Y-91576015D01*
X141066291Y-91659976D01*
X141111001Y-91696669D01*
X141278731Y-91786322D01*
X141460729Y-91841530D01*
X141460728Y-91841530D01*
X141477698Y-91843201D01*
X141650000Y-91860172D01*
X141839271Y-91841530D01*
X142021269Y-91786322D01*
X142188999Y-91696669D01*
X142336015Y-91576015D01*
X142456669Y-91428999D01*
X142546322Y-91261269D01*
X142601530Y-91079271D01*
X142620172Y-90890000D01*
X153330089Y-90890000D01*
X153349685Y-91088972D01*
X153407727Y-91280308D01*
X153501971Y-91456626D01*
X153501975Y-91456632D01*
X153549131Y-91514092D01*
X153911949Y-91151274D01*
X153941898Y-91203147D01*
X154036853Y-91298102D01*
X154088724Y-91328050D01*
X153725906Y-91690867D01*
X153725907Y-91690868D01*
X153783366Y-91738023D01*
X153783373Y-91738028D01*
X153959691Y-91832272D01*
X154151027Y-91890314D01*
X154350000Y-91909910D01*
X154548972Y-91890314D01*
X154740306Y-91832273D01*
X154916630Y-91738025D01*
X154916633Y-91738023D01*
X154974091Y-91690868D01*
X154974091Y-91690867D01*
X154611275Y-91328050D01*
X154663147Y-91298102D01*
X154758102Y-91203147D01*
X154788050Y-91151274D01*
X155150867Y-91514091D01*
X155150868Y-91514091D01*
X155198023Y-91456633D01*
X155198025Y-91456630D01*
X155292273Y-91280306D01*
X155350314Y-91088972D01*
X155369910Y-90890000D01*
X155350314Y-90691027D01*
X155292272Y-90499691D01*
X155198028Y-90323373D01*
X155198023Y-90323366D01*
X155150868Y-90265907D01*
X155150867Y-90265906D01*
X154788050Y-90628724D01*
X154758102Y-90576853D01*
X154663147Y-90481898D01*
X154611274Y-90451949D01*
X154974092Y-90089131D01*
X154974092Y-90089130D01*
X154916632Y-90041975D01*
X154916626Y-90041971D01*
X154740308Y-89947727D01*
X154548972Y-89889685D01*
X154350000Y-89870089D01*
X154151027Y-89889685D01*
X153959691Y-89947727D01*
X153783374Y-90041970D01*
X153783362Y-90041979D01*
X153725907Y-90089129D01*
X153725907Y-90089132D01*
X154088725Y-90451949D01*
X154036853Y-90481898D01*
X153941898Y-90576853D01*
X153911949Y-90628724D01*
X153549132Y-90265907D01*
X153549129Y-90265907D01*
X153501979Y-90323362D01*
X153501970Y-90323374D01*
X153407727Y-90499691D01*
X153349685Y-90691027D01*
X153330089Y-90890000D01*
X142620172Y-90890000D01*
X142601530Y-90700729D01*
X142546322Y-90518731D01*
X142456669Y-90351001D01*
X142386833Y-90265906D01*
X142336015Y-90203984D01*
X142189000Y-90083332D01*
X142188999Y-90083331D01*
X142021269Y-89993678D01*
X141839271Y-89938470D01*
X141839269Y-89938469D01*
X141839271Y-89938469D01*
X141650000Y-89919828D01*
X141460730Y-89938469D01*
X141278731Y-89993678D01*
X141110999Y-90083332D01*
X140963984Y-90203984D01*
X140843332Y-90350999D01*
X140753678Y-90518731D01*
X140698469Y-90700730D01*
X140679828Y-90890000D01*
X112350657Y-90890000D01*
X113474429Y-89766228D01*
X157149500Y-89766228D01*
X157149500Y-89933771D01*
X157182182Y-90098074D01*
X157182184Y-90098082D01*
X157246295Y-90252860D01*
X157339373Y-90392162D01*
X157457837Y-90510626D01*
X157550494Y-90572537D01*
X157597137Y-90603703D01*
X157751918Y-90667816D01*
X157868609Y-90691027D01*
X157916228Y-90700499D01*
X157916232Y-90700500D01*
X157916233Y-90700500D01*
X158083768Y-90700500D01*
X158083769Y-90700499D01*
X158248082Y-90667816D01*
X158402863Y-90603703D01*
X158542162Y-90510626D01*
X158660626Y-90392162D01*
X158753703Y-90252863D01*
X158817816Y-90098082D01*
X158850500Y-89933767D01*
X158850500Y-89766233D01*
X158817816Y-89601918D01*
X158753703Y-89447137D01*
X158722537Y-89400494D01*
X158660626Y-89307837D01*
X158542162Y-89189373D01*
X158402860Y-89096295D01*
X158248082Y-89032184D01*
X158248074Y-89032182D01*
X158083771Y-88999500D01*
X158083767Y-88999500D01*
X157916233Y-88999500D01*
X157916228Y-88999500D01*
X157751925Y-89032182D01*
X157751917Y-89032184D01*
X157597139Y-89096295D01*
X157457837Y-89189373D01*
X157339373Y-89307837D01*
X157246295Y-89447139D01*
X157182184Y-89601917D01*
X157182182Y-89601925D01*
X157149500Y-89766228D01*
X113474429Y-89766228D01*
X114890657Y-88350000D01*
X140679828Y-88350000D01*
X140698469Y-88539269D01*
X140698470Y-88539271D01*
X140753678Y-88721269D01*
X140843331Y-88888999D01*
X140843332Y-88889000D01*
X140963984Y-89036015D01*
X141037438Y-89096297D01*
X141111001Y-89156669D01*
X141278731Y-89246322D01*
X141460729Y-89301530D01*
X141460728Y-89301530D01*
X141477698Y-89303201D01*
X141650000Y-89320172D01*
X141839271Y-89301530D01*
X142021269Y-89246322D01*
X142188999Y-89156669D01*
X142336015Y-89036015D01*
X142456669Y-88888999D01*
X142546322Y-88721269D01*
X142601530Y-88539271D01*
X142620172Y-88350000D01*
X153379828Y-88350000D01*
X153398469Y-88539269D01*
X153398470Y-88539271D01*
X153453678Y-88721269D01*
X153543331Y-88888999D01*
X153543332Y-88889000D01*
X153663984Y-89036015D01*
X153737438Y-89096297D01*
X153811001Y-89156669D01*
X153978731Y-89246322D01*
X154160729Y-89301530D01*
X154160728Y-89301530D01*
X154177698Y-89303201D01*
X154350000Y-89320172D01*
X154539271Y-89301530D01*
X154721269Y-89246322D01*
X154888999Y-89156669D01*
X155036015Y-89036015D01*
X155156669Y-88888999D01*
X155246322Y-88721269D01*
X155301530Y-88539271D01*
X155320172Y-88350000D01*
X155301530Y-88160729D01*
X155246322Y-87978731D01*
X155156669Y-87811001D01*
X155119976Y-87766291D01*
X155036015Y-87663984D01*
X154952847Y-87595730D01*
X158824500Y-87595730D01*
X158824500Y-88904269D01*
X158827353Y-88934699D01*
X158827353Y-88934701D01*
X158872206Y-89062880D01*
X158872207Y-89062882D01*
X158952850Y-89172150D01*
X159062118Y-89252793D01*
X159104845Y-89267744D01*
X159190299Y-89297646D01*
X159220730Y-89300500D01*
X159220734Y-89300500D01*
X160779270Y-89300500D01*
X160809699Y-89297646D01*
X160809701Y-89297646D01*
X160873790Y-89275219D01*
X160937882Y-89252793D01*
X161047150Y-89172150D01*
X161127793Y-89062882D01*
X161150219Y-88998790D01*
X161172646Y-88934701D01*
X161172646Y-88934699D01*
X161175500Y-88904269D01*
X161175500Y-87595730D01*
X161172646Y-87565300D01*
X161172646Y-87565298D01*
X161139006Y-87469163D01*
X161127793Y-87437118D01*
X161047150Y-87327850D01*
X160937882Y-87247207D01*
X160937880Y-87247206D01*
X160809700Y-87202353D01*
X160779270Y-87199500D01*
X160779266Y-87199500D01*
X159220734Y-87199500D01*
X159220730Y-87199500D01*
X159190300Y-87202353D01*
X159190298Y-87202353D01*
X159062119Y-87247206D01*
X159062117Y-87247207D01*
X158952850Y-87327850D01*
X158872207Y-87437117D01*
X158872206Y-87437119D01*
X158827353Y-87565298D01*
X158827353Y-87565300D01*
X158824500Y-87595730D01*
X154952847Y-87595730D01*
X154889000Y-87543332D01*
X154888999Y-87543331D01*
X154721269Y-87453678D01*
X154539271Y-87398470D01*
X154539269Y-87398469D01*
X154539271Y-87398469D01*
X154350000Y-87379828D01*
X154160730Y-87398469D01*
X153978731Y-87453678D01*
X153810999Y-87543332D01*
X153663984Y-87663984D01*
X153543332Y-87810999D01*
X153453678Y-87978731D01*
X153398469Y-88160730D01*
X153379828Y-88350000D01*
X142620172Y-88350000D01*
X142601530Y-88160729D01*
X142546322Y-87978731D01*
X142456669Y-87811001D01*
X142419976Y-87766291D01*
X142336015Y-87663984D01*
X142189000Y-87543332D01*
X142188999Y-87543331D01*
X142021269Y-87453678D01*
X141839271Y-87398470D01*
X141839269Y-87398469D01*
X141839271Y-87398469D01*
X141650000Y-87379828D01*
X141460730Y-87398469D01*
X141278731Y-87453678D01*
X141110999Y-87543332D01*
X140963984Y-87663984D01*
X140843332Y-87810999D01*
X140753678Y-87978731D01*
X140698469Y-88160730D01*
X140679828Y-88350000D01*
X114890657Y-88350000D01*
X121728838Y-81511819D01*
X121790161Y-81478334D01*
X121816519Y-81475500D01*
X122282323Y-81475500D01*
X122349362Y-81495185D01*
X122395117Y-81547989D01*
X122405061Y-81617147D01*
X122382641Y-81672385D01*
X122309198Y-81773471D01*
X122230591Y-81927742D01*
X122177085Y-82092415D01*
X122150000Y-82263428D01*
X122150000Y-82350000D01*
X122791737Y-82350000D01*
X122775000Y-82412465D01*
X122775000Y-82537535D01*
X122791737Y-82600000D01*
X122150000Y-82600000D01*
X122150000Y-82686571D01*
X122177085Y-82857584D01*
X122230591Y-83022257D01*
X122309195Y-83176524D01*
X122410967Y-83316602D01*
X122533397Y-83439032D01*
X122673475Y-83540804D01*
X122827744Y-83619408D01*
X122992415Y-83672913D01*
X123125000Y-83693913D01*
X123125000Y-82933262D01*
X123187465Y-82950000D01*
X123312535Y-82950000D01*
X123375000Y-82933262D01*
X123375000Y-83693912D01*
X123507584Y-83672913D01*
X123672255Y-83619408D01*
X123826524Y-83540804D01*
X123966602Y-83439032D01*
X124089032Y-83316602D01*
X124190804Y-83176524D01*
X124269408Y-83022255D01*
X124307569Y-82904812D01*
X124347007Y-82847136D01*
X124411365Y-82819938D01*
X124480212Y-82831853D01*
X124531687Y-82879097D01*
X124549500Y-82943130D01*
X124549500Y-84094486D01*
X124579059Y-84281118D01*
X124637454Y-84460836D01*
X124687355Y-84558771D01*
X124723240Y-84629199D01*
X124834310Y-84782074D01*
X127292927Y-87240690D01*
X127445801Y-87351760D01*
X127500888Y-87379828D01*
X127614163Y-87437545D01*
X127614165Y-87437545D01*
X127614168Y-87437547D01*
X127663814Y-87453678D01*
X127793881Y-87495940D01*
X127980514Y-87525500D01*
X127980519Y-87525500D01*
X134019486Y-87525500D01*
X134206118Y-87495940D01*
X134385832Y-87437547D01*
X134554199Y-87351760D01*
X134707074Y-87240690D01*
X136137764Y-85810000D01*
X140679828Y-85810000D01*
X140698469Y-85999269D01*
X140705781Y-86023373D01*
X140753678Y-86181269D01*
X140843331Y-86348999D01*
X140843332Y-86349000D01*
X140963984Y-86496015D01*
X141049231Y-86565975D01*
X141111001Y-86616669D01*
X141278731Y-86706322D01*
X141460729Y-86761530D01*
X141460728Y-86761530D01*
X141477698Y-86763201D01*
X141650000Y-86780172D01*
X141839271Y-86761530D01*
X142021269Y-86706322D01*
X142188999Y-86616669D01*
X142336015Y-86496015D01*
X142456669Y-86348999D01*
X142546322Y-86181269D01*
X142601530Y-85999271D01*
X142620172Y-85810000D01*
X153379828Y-85810000D01*
X153398469Y-85999269D01*
X153405781Y-86023373D01*
X153453678Y-86181269D01*
X153543331Y-86348999D01*
X153543332Y-86349000D01*
X153663984Y-86496015D01*
X153749231Y-86565975D01*
X153811001Y-86616669D01*
X153978731Y-86706322D01*
X154160729Y-86761530D01*
X154160728Y-86761530D01*
X154177698Y-86763201D01*
X154350000Y-86780172D01*
X154539271Y-86761530D01*
X154721269Y-86706322D01*
X154888999Y-86616669D01*
X155036015Y-86496015D01*
X155156669Y-86348999D01*
X155246322Y-86181269D01*
X155301530Y-85999271D01*
X155320172Y-85810000D01*
X155304071Y-85646530D01*
X158824500Y-85646530D01*
X158824500Y-85853469D01*
X158859619Y-86030022D01*
X158864870Y-86056420D01*
X158944059Y-86247598D01*
X159001541Y-86333626D01*
X159059024Y-86419657D01*
X159205342Y-86565975D01*
X159205345Y-86565977D01*
X159377402Y-86680941D01*
X159568580Y-86760130D01*
X159771530Y-86800499D01*
X159771534Y-86800500D01*
X159771535Y-86800500D01*
X160228466Y-86800500D01*
X160228467Y-86800499D01*
X160431420Y-86760130D01*
X160622598Y-86680941D01*
X160794655Y-86565977D01*
X160940977Y-86419655D01*
X161055941Y-86247598D01*
X161135130Y-86056420D01*
X161175500Y-85853465D01*
X161175500Y-85646535D01*
X161135130Y-85443580D01*
X161055941Y-85252402D01*
X160940977Y-85080345D01*
X160940975Y-85080342D01*
X160794657Y-84934024D01*
X160681581Y-84858470D01*
X160622598Y-84819059D01*
X160431420Y-84739870D01*
X160431412Y-84739868D01*
X160228469Y-84699500D01*
X160228465Y-84699500D01*
X159771535Y-84699500D01*
X159771530Y-84699500D01*
X159568587Y-84739868D01*
X159568579Y-84739870D01*
X159377403Y-84819058D01*
X159205342Y-84934024D01*
X159059024Y-85080342D01*
X158944058Y-85252403D01*
X158864870Y-85443579D01*
X158864868Y-85443587D01*
X158824500Y-85646530D01*
X155304071Y-85646530D01*
X155301530Y-85620729D01*
X155246322Y-85438731D01*
X155156669Y-85271001D01*
X155082059Y-85180089D01*
X155036015Y-85123984D01*
X154888999Y-85003331D01*
X154850687Y-84982853D01*
X154721269Y-84913678D01*
X154539271Y-84858470D01*
X154539269Y-84858469D01*
X154539271Y-84858469D01*
X154350000Y-84839828D01*
X154160730Y-84858469D01*
X153978731Y-84913678D01*
X153811001Y-85003331D01*
X153810999Y-85003331D01*
X153663984Y-85123984D01*
X153543332Y-85270999D01*
X153453678Y-85438731D01*
X153398469Y-85620730D01*
X153379828Y-85810000D01*
X142620172Y-85810000D01*
X142601530Y-85620729D01*
X142546322Y-85438731D01*
X142456669Y-85271001D01*
X142382059Y-85180089D01*
X142336015Y-85123984D01*
X142188999Y-85003331D01*
X142150687Y-84982853D01*
X142021269Y-84913678D01*
X141839271Y-84858470D01*
X141839269Y-84858469D01*
X141839271Y-84858469D01*
X141650000Y-84839828D01*
X141460730Y-84858469D01*
X141278731Y-84913678D01*
X141111001Y-85003331D01*
X141110999Y-85003331D01*
X140963984Y-85123984D01*
X140843332Y-85270999D01*
X140753678Y-85438731D01*
X140698469Y-85620730D01*
X140679828Y-85810000D01*
X136137764Y-85810000D01*
X136415690Y-85532074D01*
X136526760Y-85379199D01*
X136612547Y-85210832D01*
X136670940Y-85031118D01*
X136673151Y-85017162D01*
X136675341Y-85003332D01*
X136675341Y-85003331D01*
X136700500Y-84844486D01*
X136700500Y-83270000D01*
X140679828Y-83270000D01*
X140698469Y-83459269D01*
X140723702Y-83542450D01*
X140753678Y-83641269D01*
X140843331Y-83808999D01*
X140847742Y-83814374D01*
X140963984Y-83956015D01*
X141055680Y-84031268D01*
X141111001Y-84076669D01*
X141278731Y-84166322D01*
X141460729Y-84221530D01*
X141460728Y-84221530D01*
X141477698Y-84223201D01*
X141650000Y-84240172D01*
X141839271Y-84221530D01*
X142021269Y-84166322D01*
X142188999Y-84076669D01*
X142336015Y-83956015D01*
X142456669Y-83808999D01*
X142546322Y-83641269D01*
X142601530Y-83459271D01*
X142620172Y-83270000D01*
X153379828Y-83270000D01*
X153398469Y-83459269D01*
X153423702Y-83542450D01*
X153453678Y-83641269D01*
X153543331Y-83808999D01*
X153547742Y-83814374D01*
X153663984Y-83956015D01*
X153755680Y-84031268D01*
X153811001Y-84076669D01*
X153978731Y-84166322D01*
X154160729Y-84221530D01*
X154160728Y-84221530D01*
X154177698Y-84223201D01*
X154350000Y-84240172D01*
X154539271Y-84221530D01*
X154721269Y-84166322D01*
X154888999Y-84076669D01*
X155036015Y-83956015D01*
X155156669Y-83808999D01*
X155246322Y-83641269D01*
X155301530Y-83459271D01*
X155320172Y-83270000D01*
X155308011Y-83146530D01*
X158824500Y-83146530D01*
X158824500Y-83353469D01*
X158864868Y-83556412D01*
X158864870Y-83556420D01*
X158944058Y-83747596D01*
X159059024Y-83919657D01*
X159205342Y-84065975D01*
X159205345Y-84065977D01*
X159377402Y-84180941D01*
X159568580Y-84260130D01*
X159713997Y-84289055D01*
X159771530Y-84300499D01*
X159771534Y-84300500D01*
X159771535Y-84300500D01*
X160228466Y-84300500D01*
X160228467Y-84300499D01*
X160431420Y-84260130D01*
X160622598Y-84180941D01*
X160794655Y-84065977D01*
X160940977Y-83919655D01*
X161055941Y-83747598D01*
X161135130Y-83556420D01*
X161175500Y-83353465D01*
X161175500Y-83146535D01*
X161135130Y-82943580D01*
X161055941Y-82752402D01*
X160940977Y-82580345D01*
X160940975Y-82580342D01*
X160794657Y-82434024D01*
X160668905Y-82350000D01*
X160622598Y-82319059D01*
X160431420Y-82239870D01*
X160431412Y-82239868D01*
X160228469Y-82199500D01*
X160228465Y-82199500D01*
X159771535Y-82199500D01*
X159771530Y-82199500D01*
X159568587Y-82239868D01*
X159568579Y-82239870D01*
X159377403Y-82319058D01*
X159205342Y-82434024D01*
X159059024Y-82580342D01*
X158944058Y-82752403D01*
X158864870Y-82943579D01*
X158864868Y-82943587D01*
X158824500Y-83146530D01*
X155308011Y-83146530D01*
X155301530Y-83080729D01*
X155246322Y-82898731D01*
X155156669Y-82731001D01*
X155110103Y-82674261D01*
X155036015Y-82583984D01*
X154901999Y-82474000D01*
X154888999Y-82463331D01*
X154721269Y-82373678D01*
X154539271Y-82318470D01*
X154539269Y-82318469D01*
X154539271Y-82318469D01*
X154350000Y-82299828D01*
X154160730Y-82318469D01*
X153978731Y-82373678D01*
X153810999Y-82463332D01*
X153663984Y-82583984D01*
X153543332Y-82730999D01*
X153453678Y-82898731D01*
X153398469Y-83080730D01*
X153379828Y-83270000D01*
X142620172Y-83270000D01*
X142601530Y-83080729D01*
X142546322Y-82898731D01*
X142456669Y-82731001D01*
X142410103Y-82674261D01*
X142336015Y-82583984D01*
X142201999Y-82474000D01*
X142188999Y-82463331D01*
X142021269Y-82373678D01*
X141839271Y-82318470D01*
X141839269Y-82318469D01*
X141839271Y-82318469D01*
X141650000Y-82299828D01*
X141460730Y-82318469D01*
X141278731Y-82373678D01*
X141110999Y-82463332D01*
X140963984Y-82583984D01*
X140843332Y-82730999D01*
X140753678Y-82898731D01*
X140698469Y-83080730D01*
X140679828Y-83270000D01*
X136700500Y-83270000D01*
X136700500Y-83048625D01*
X136720185Y-82981586D01*
X136736819Y-82960944D01*
X137771096Y-81926667D01*
X138915690Y-80782073D01*
X138953523Y-80730000D01*
X140679828Y-80730000D01*
X140698469Y-80919269D01*
X140701946Y-80930730D01*
X140753678Y-81101269D01*
X140831891Y-81247596D01*
X140843332Y-81269000D01*
X140963984Y-81416015D01*
X141036467Y-81475500D01*
X141111001Y-81536669D01*
X141278731Y-81626322D01*
X141460729Y-81681530D01*
X141460728Y-81681530D01*
X141477698Y-81683201D01*
X141650000Y-81700172D01*
X141839271Y-81681530D01*
X142021269Y-81626322D01*
X142188999Y-81536669D01*
X142336015Y-81416015D01*
X142456669Y-81268999D01*
X142546322Y-81101269D01*
X142601530Y-80919271D01*
X142620172Y-80730000D01*
X153379828Y-80730000D01*
X153398469Y-80919269D01*
X153401946Y-80930730D01*
X153453678Y-81101269D01*
X153531891Y-81247596D01*
X153543332Y-81269000D01*
X153663984Y-81416015D01*
X153736467Y-81475500D01*
X153811001Y-81536669D01*
X153978731Y-81626322D01*
X154160729Y-81681530D01*
X154160728Y-81681530D01*
X154177698Y-81683201D01*
X154350000Y-81700172D01*
X154539271Y-81681530D01*
X154721269Y-81626322D01*
X154888999Y-81536669D01*
X155036015Y-81416015D01*
X155156669Y-81268999D01*
X155246322Y-81101269D01*
X155301530Y-80919271D01*
X155320172Y-80730000D01*
X155311951Y-80646530D01*
X158824500Y-80646530D01*
X158824500Y-80853469D01*
X158864868Y-81056412D01*
X158864870Y-81056420D01*
X158935531Y-81227011D01*
X158944059Y-81247598D01*
X158965586Y-81279815D01*
X159059024Y-81419657D01*
X159205342Y-81565975D01*
X159205345Y-81565977D01*
X159377402Y-81680941D01*
X159568580Y-81760130D01*
X159771530Y-81800499D01*
X159771534Y-81800500D01*
X159771535Y-81800500D01*
X160228466Y-81800500D01*
X160228467Y-81800499D01*
X160431420Y-81760130D01*
X160622598Y-81680941D01*
X160794655Y-81565977D01*
X160940977Y-81419655D01*
X161055941Y-81247598D01*
X161135130Y-81056420D01*
X161175500Y-80853465D01*
X161175500Y-80646535D01*
X161135130Y-80443580D01*
X161055941Y-80252402D01*
X160940977Y-80080345D01*
X160940975Y-80080342D01*
X160794657Y-79934024D01*
X160644477Y-79833678D01*
X160622598Y-79819059D01*
X160431420Y-79739870D01*
X160431412Y-79739868D01*
X160228469Y-79699500D01*
X160228465Y-79699500D01*
X159771535Y-79699500D01*
X159771530Y-79699500D01*
X159568587Y-79739868D01*
X159568579Y-79739870D01*
X159377403Y-79819058D01*
X159205342Y-79934024D01*
X159059024Y-80080342D01*
X158944058Y-80252403D01*
X158864870Y-80443579D01*
X158864868Y-80443587D01*
X158824500Y-80646530D01*
X155311951Y-80646530D01*
X155301530Y-80540729D01*
X155246322Y-80358731D01*
X155156669Y-80191001D01*
X155083151Y-80101420D01*
X155036015Y-80043984D01*
X154889000Y-79923332D01*
X154888999Y-79923331D01*
X154721269Y-79833678D01*
X154539271Y-79778470D01*
X154539269Y-79778469D01*
X154539271Y-79778469D01*
X154350000Y-79759828D01*
X154160730Y-79778469D01*
X153978731Y-79833678D01*
X153810999Y-79923332D01*
X153663984Y-80043984D01*
X153543332Y-80190999D01*
X153453678Y-80358731D01*
X153398469Y-80540730D01*
X153379828Y-80730000D01*
X142620172Y-80730000D01*
X142601530Y-80540729D01*
X142546322Y-80358731D01*
X142456669Y-80191001D01*
X142383151Y-80101420D01*
X142336015Y-80043984D01*
X142189000Y-79923332D01*
X142188999Y-79923331D01*
X142021269Y-79833678D01*
X141839271Y-79778470D01*
X141839269Y-79778469D01*
X141839271Y-79778469D01*
X141650000Y-79759828D01*
X141460730Y-79778469D01*
X141278731Y-79833678D01*
X141110999Y-79923332D01*
X140963984Y-80043984D01*
X140843332Y-80190999D01*
X140753678Y-80358731D01*
X140698469Y-80540730D01*
X140679828Y-80730000D01*
X138953523Y-80730000D01*
X139026760Y-80629199D01*
X139112547Y-80460832D01*
X139170940Y-80281118D01*
X139178896Y-80230886D01*
X139200500Y-80094486D01*
X139200500Y-78190000D01*
X140679828Y-78190000D01*
X140698469Y-78379269D01*
X140701946Y-78390730D01*
X140753678Y-78561269D01*
X140843331Y-78728999D01*
X140843332Y-78729000D01*
X140963984Y-78876015D01*
X141055680Y-78951268D01*
X141111001Y-78996669D01*
X141278731Y-79086322D01*
X141460729Y-79141530D01*
X141460728Y-79141530D01*
X141477698Y-79143201D01*
X141650000Y-79160172D01*
X141839271Y-79141530D01*
X142021269Y-79086322D01*
X142188999Y-78996669D01*
X142336015Y-78876015D01*
X142456669Y-78728999D01*
X142546322Y-78561269D01*
X142601530Y-78379271D01*
X142620172Y-78190000D01*
X153379828Y-78190000D01*
X153398469Y-78379269D01*
X153401946Y-78390730D01*
X153453678Y-78561269D01*
X153543331Y-78728999D01*
X153543332Y-78729000D01*
X153663984Y-78876015D01*
X153755680Y-78951268D01*
X153811001Y-78996669D01*
X153978731Y-79086322D01*
X154160729Y-79141530D01*
X154160728Y-79141530D01*
X154177698Y-79143201D01*
X154350000Y-79160172D01*
X154539271Y-79141530D01*
X154721269Y-79086322D01*
X154888999Y-78996669D01*
X155036015Y-78876015D01*
X155156669Y-78728999D01*
X155246322Y-78561269D01*
X155301530Y-78379271D01*
X155320172Y-78190000D01*
X155301530Y-78000729D01*
X155246322Y-77818731D01*
X155156669Y-77651001D01*
X155119976Y-77606291D01*
X155036015Y-77503984D01*
X154889000Y-77383332D01*
X154888999Y-77383331D01*
X154721269Y-77293678D01*
X154539271Y-77238470D01*
X154539269Y-77238469D01*
X154539271Y-77238469D01*
X154350000Y-77219828D01*
X154160730Y-77238469D01*
X153978731Y-77293678D01*
X153810999Y-77383332D01*
X153663984Y-77503984D01*
X153543332Y-77650999D01*
X153453678Y-77818731D01*
X153398469Y-78000730D01*
X153379828Y-78190000D01*
X142620172Y-78190000D01*
X142601530Y-78000729D01*
X142546322Y-77818731D01*
X142456669Y-77651001D01*
X142419976Y-77606291D01*
X142336015Y-77503984D01*
X142189000Y-77383332D01*
X142188999Y-77383331D01*
X142021269Y-77293678D01*
X141839271Y-77238470D01*
X141839269Y-77238469D01*
X141839271Y-77238469D01*
X141650000Y-77219828D01*
X141460730Y-77238469D01*
X141278731Y-77293678D01*
X141110999Y-77383332D01*
X140963984Y-77503984D01*
X140843332Y-77650999D01*
X140753678Y-77818731D01*
X140698469Y-78000730D01*
X140679828Y-78190000D01*
X139200500Y-78190000D01*
X139200500Y-75650000D01*
X140679828Y-75650000D01*
X140698469Y-75839269D01*
X140701946Y-75850730D01*
X140753678Y-76021269D01*
X140773366Y-76058102D01*
X140843332Y-76189000D01*
X140963984Y-76336015D01*
X141055680Y-76411268D01*
X141111001Y-76456669D01*
X141278731Y-76546322D01*
X141460729Y-76601530D01*
X141460728Y-76601530D01*
X141477698Y-76603201D01*
X141650000Y-76620172D01*
X141839271Y-76601530D01*
X142021269Y-76546322D01*
X142188999Y-76456669D01*
X142336015Y-76336015D01*
X142456669Y-76188999D01*
X142546322Y-76021269D01*
X142601530Y-75839271D01*
X142620172Y-75650000D01*
X142601530Y-75460729D01*
X142546322Y-75278731D01*
X142456669Y-75111001D01*
X142419976Y-75066291D01*
X142336015Y-74963984D01*
X142189000Y-74843332D01*
X142188999Y-74843331D01*
X142021269Y-74753678D01*
X141839271Y-74698470D01*
X141839269Y-74698469D01*
X141839271Y-74698469D01*
X141650000Y-74679828D01*
X141460730Y-74698469D01*
X141278731Y-74753678D01*
X141110999Y-74843332D01*
X140963984Y-74963984D01*
X140843332Y-75110999D01*
X140753678Y-75278731D01*
X140698469Y-75460730D01*
X140679828Y-75650000D01*
X139200500Y-75650000D01*
X139200500Y-74048625D01*
X139220185Y-73981586D01*
X139236819Y-73960944D01*
X140472819Y-72724944D01*
X140534142Y-72691459D01*
X140603834Y-72696443D01*
X140659767Y-72738315D01*
X140684184Y-72803779D01*
X140684500Y-72812625D01*
X140684500Y-73894752D01*
X140696131Y-73953229D01*
X140696132Y-73953230D01*
X140740447Y-74019552D01*
X140806769Y-74063867D01*
X140806770Y-74063868D01*
X140865247Y-74075499D01*
X140865250Y-74075500D01*
X140865252Y-74075500D01*
X142434750Y-74075500D01*
X142434751Y-74075499D01*
X142449568Y-74072552D01*
X142493229Y-74063868D01*
X142493229Y-74063867D01*
X142493231Y-74063867D01*
X142559552Y-74019552D01*
X142603867Y-73953231D01*
X142603867Y-73953229D01*
X142603868Y-73953229D01*
X142615499Y-73894752D01*
X142615500Y-73894750D01*
X142615500Y-72325249D01*
X142615499Y-72325247D01*
X142603868Y-72266770D01*
X142603867Y-72266769D01*
X142559552Y-72200447D01*
X142493230Y-72156132D01*
X142493229Y-72156131D01*
X142434752Y-72144500D01*
X142434748Y-72144500D01*
X141352626Y-72144500D01*
X141285587Y-72124815D01*
X141239832Y-72072011D01*
X141229888Y-72002853D01*
X141258913Y-71939297D01*
X141264945Y-71932819D01*
X143460944Y-69736819D01*
X143522267Y-69703334D01*
X143548625Y-69700500D01*
X157962067Y-69700500D01*
X158029106Y-69720185D01*
X158063371Y-69752992D01*
X158116808Y-69828695D01*
X158116811Y-69828698D01*
X158312947Y-70038708D01*
X158535853Y-70220055D01*
X158781382Y-70369365D01*
X158967025Y-70450000D01*
X159044942Y-70483844D01*
X159321642Y-70561371D01*
X159571920Y-70595771D01*
X159606321Y-70600500D01*
X159606322Y-70600500D01*
X159893679Y-70600500D01*
X159924370Y-70596281D01*
X160178358Y-70561371D01*
X160455058Y-70483844D01*
X160568015Y-70434779D01*
X160718617Y-70369365D01*
X160718620Y-70369363D01*
X160718625Y-70369361D01*
X160964147Y-70220055D01*
X161187053Y-70038708D01*
X161383189Y-69828698D01*
X161548901Y-69593936D01*
X161681104Y-69338797D01*
X161777334Y-69068032D01*
X161835798Y-68786686D01*
X161855408Y-68500000D01*
X161835798Y-68213314D01*
X161777334Y-67931968D01*
X161681105Y-67661206D01*
X161681106Y-67661206D01*
X161548901Y-67406064D01*
X161383187Y-67171299D01*
X161247609Y-67026132D01*
X161187053Y-66961292D01*
X160964147Y-66779945D01*
X160964146Y-66779944D01*
X160718617Y-66630634D01*
X160455063Y-66516158D01*
X160455061Y-66516157D01*
X160455058Y-66516156D01*
X160325578Y-66479877D01*
X160178364Y-66438630D01*
X160178359Y-66438629D01*
X160178358Y-66438629D01*
X160035541Y-66418999D01*
X159893679Y-66399500D01*
X159893678Y-66399500D01*
X159606322Y-66399500D01*
X159606321Y-66399500D01*
X159321642Y-66438629D01*
X159321635Y-66438630D01*
X159113861Y-66496845D01*
X159044942Y-66516156D01*
X159044939Y-66516156D01*
X159044936Y-66516158D01*
X159044935Y-66516158D01*
X158781382Y-66630634D01*
X158535853Y-66779944D01*
X158312950Y-66961289D01*
X158116808Y-67171304D01*
X158063371Y-67247008D01*
X158008629Y-67290426D01*
X157962067Y-67299500D01*
X142905514Y-67299500D01*
X142718880Y-67329060D01*
X142691374Y-67337997D01*
X142621533Y-67339991D01*
X142561701Y-67303909D01*
X142530874Y-67241208D01*
X142538839Y-67171794D01*
X142565374Y-67132387D01*
X144525005Y-65172756D01*
X144525012Y-65172751D01*
X144532071Y-65165691D01*
X144532074Y-65165690D01*
X146650005Y-63047756D01*
X146650012Y-63047751D01*
X146657072Y-63040690D01*
X146657074Y-63040690D01*
X146960945Y-62736819D01*
X147022268Y-62703334D01*
X147048626Y-62700500D01*
X154144486Y-62700500D01*
X154331118Y-62670940D01*
X154510832Y-62612547D01*
X154679199Y-62526760D01*
X154832074Y-62415690D01*
X155672393Y-61575371D01*
X157600000Y-61575371D01*
X157600000Y-63375000D01*
X158402970Y-63375000D01*
X158400000Y-63393753D01*
X158400000Y-63606247D01*
X158402970Y-63625000D01*
X157600000Y-63625000D01*
X157600000Y-65424628D01*
X157614503Y-65497540D01*
X157614505Y-65497544D01*
X157669760Y-65580239D01*
X157752455Y-65635494D01*
X157752459Y-65635496D01*
X157825371Y-65649999D01*
X157825374Y-65650000D01*
X159625000Y-65650000D01*
X159625000Y-64847029D01*
X159643753Y-64850000D01*
X159856247Y-64850000D01*
X159875000Y-64847029D01*
X159875000Y-65650000D01*
X161674626Y-65650000D01*
X161674628Y-65649999D01*
X161747540Y-65635496D01*
X161747544Y-65635494D01*
X161830239Y-65580239D01*
X161885494Y-65497544D01*
X161885496Y-65497540D01*
X161899999Y-65424628D01*
X161900000Y-65424626D01*
X161900000Y-63625000D01*
X161097030Y-63625000D01*
X161100000Y-63606247D01*
X161100000Y-63393753D01*
X161097030Y-63375000D01*
X161900000Y-63375000D01*
X161900000Y-61575373D01*
X161899999Y-61575371D01*
X161885496Y-61502459D01*
X161885494Y-61502455D01*
X161830239Y-61419760D01*
X161747544Y-61364505D01*
X161747540Y-61364503D01*
X161674627Y-61350000D01*
X159875000Y-61350000D01*
X159875000Y-62152970D01*
X159856247Y-62150000D01*
X159643753Y-62150000D01*
X159625000Y-62152970D01*
X159625000Y-61350000D01*
X157825373Y-61350000D01*
X157752459Y-61364503D01*
X157752455Y-61364505D01*
X157669760Y-61419760D01*
X157614505Y-61502455D01*
X157614503Y-61502459D01*
X157600000Y-61575371D01*
X155672393Y-61575371D01*
X159340944Y-57906818D01*
X159402267Y-57873334D01*
X159428625Y-57870500D01*
X165175500Y-57870500D01*
X165242539Y-57890185D01*
X165288294Y-57942989D01*
X165299500Y-57994500D01*
X165299500Y-59951374D01*
X165279815Y-60018413D01*
X165263181Y-60039055D01*
X163084308Y-62217927D01*
X163084306Y-62217929D01*
X163053024Y-62260987D01*
X163048324Y-62267457D01*
X163010782Y-62319129D01*
X162973240Y-62370800D01*
X162887454Y-62539163D01*
X162829059Y-62718881D01*
X162799500Y-62905513D01*
X162799500Y-71675500D01*
X162779815Y-71742539D01*
X162727011Y-71788294D01*
X162675500Y-71799500D01*
X154405514Y-71799500D01*
X154218881Y-71829059D01*
X154039163Y-71887454D01*
X153870800Y-71973240D01*
X153717923Y-72084312D01*
X153584312Y-72217923D01*
X153473240Y-72370800D01*
X153387454Y-72539163D01*
X153329059Y-72718881D01*
X153299500Y-72905513D01*
X153299500Y-73094486D01*
X153329059Y-73281118D01*
X153387454Y-73460836D01*
X153445624Y-73575000D01*
X153473240Y-73629199D01*
X153584310Y-73782074D01*
X153584312Y-73782076D01*
X154239557Y-74437321D01*
X154273042Y-74498644D01*
X154268058Y-74568336D01*
X154226186Y-74624269D01*
X154164031Y-74648405D01*
X154151027Y-74649685D01*
X153959691Y-74707727D01*
X153783374Y-74801970D01*
X153783362Y-74801979D01*
X153725907Y-74849129D01*
X153725907Y-74849132D01*
X154088725Y-75211949D01*
X154036853Y-75241898D01*
X153941898Y-75336853D01*
X153911949Y-75388724D01*
X153549132Y-75025907D01*
X153549129Y-75025907D01*
X153501979Y-75083362D01*
X153501970Y-75083374D01*
X153407727Y-75259691D01*
X153349685Y-75451027D01*
X153330089Y-75650000D01*
X153349685Y-75848972D01*
X153407727Y-76040308D01*
X153501971Y-76216626D01*
X153501975Y-76216632D01*
X153549131Y-76274092D01*
X153911949Y-75911274D01*
X153941898Y-75963147D01*
X154036853Y-76058102D01*
X154088724Y-76088050D01*
X153725906Y-76450867D01*
X153725907Y-76450868D01*
X153783366Y-76498023D01*
X153783373Y-76498028D01*
X153959691Y-76592272D01*
X154151027Y-76650314D01*
X154350000Y-76669910D01*
X154548972Y-76650314D01*
X154740306Y-76592273D01*
X154916630Y-76498025D01*
X154916633Y-76498023D01*
X154974091Y-76450868D01*
X154974091Y-76450867D01*
X154611275Y-76088050D01*
X154663147Y-76058102D01*
X154758102Y-75963147D01*
X154788050Y-75911274D01*
X155150867Y-76274091D01*
X155150868Y-76274091D01*
X155198023Y-76216633D01*
X155198025Y-76216630D01*
X155292273Y-76040306D01*
X155350313Y-75848975D01*
X155351593Y-75835976D01*
X155377751Y-75771187D01*
X155434783Y-75730825D01*
X155504583Y-75727704D01*
X155562678Y-75760442D01*
X157717926Y-77915690D01*
X157870801Y-78026760D01*
X158039168Y-78112547D01*
X158218882Y-78170940D01*
X158288870Y-78182025D01*
X158405513Y-78200500D01*
X158405518Y-78200500D01*
X158405519Y-78200500D01*
X162951374Y-78200500D01*
X163018413Y-78220185D01*
X163039055Y-78236819D01*
X164080802Y-79278566D01*
X164114287Y-79339889D01*
X164117121Y-79366247D01*
X164117121Y-83594486D01*
X164146680Y-83781118D01*
X164205075Y-83960836D01*
X164290860Y-84129198D01*
X164290861Y-84129199D01*
X164293435Y-84132742D01*
X164316918Y-84198546D01*
X164317121Y-84205632D01*
X164317121Y-84319752D01*
X164328752Y-84378229D01*
X164328753Y-84378230D01*
X164373068Y-84444552D01*
X164439390Y-84488867D01*
X164439391Y-84488868D01*
X164497868Y-84500499D01*
X164497871Y-84500500D01*
X164497873Y-84500500D01*
X164611988Y-84500500D01*
X164679027Y-84520185D01*
X164684875Y-84524183D01*
X164688420Y-84526759D01*
X164856784Y-84612545D01*
X164856786Y-84612545D01*
X164856789Y-84612547D01*
X164911030Y-84630171D01*
X165036502Y-84670940D01*
X165223135Y-84700500D01*
X165223140Y-84700500D01*
X165412107Y-84700500D01*
X165598739Y-84670940D01*
X165778453Y-84612547D01*
X165946820Y-84526760D01*
X165950367Y-84524183D01*
X166016173Y-84500702D01*
X166023254Y-84500500D01*
X166137371Y-84500500D01*
X166137372Y-84500499D01*
X166152189Y-84497552D01*
X166195850Y-84488868D01*
X166195850Y-84488867D01*
X166195852Y-84488867D01*
X166262173Y-84444552D01*
X166306488Y-84378231D01*
X166306488Y-84378229D01*
X166306489Y-84378229D01*
X166315173Y-84334568D01*
X166318121Y-84319748D01*
X166318121Y-84205632D01*
X166337806Y-84138593D01*
X166341798Y-84132753D01*
X166344381Y-84129199D01*
X166430168Y-83960832D01*
X166488561Y-83781118D01*
X166493870Y-83747596D01*
X166518121Y-83594486D01*
X166518121Y-83542450D01*
X166530442Y-83500486D01*
X166528736Y-83497153D01*
X166754439Y-83497153D01*
X166761098Y-83507515D01*
X166765524Y-83530296D01*
X166782812Y-83705834D01*
X166842854Y-83903766D01*
X166940349Y-84086165D01*
X166940353Y-84086171D01*
X166991882Y-84148960D01*
X166991883Y-84148960D01*
X167460095Y-83680748D01*
X167497541Y-83745606D01*
X167572015Y-83820080D01*
X167636872Y-83857525D01*
X167168658Y-84325737D01*
X167231449Y-84377267D01*
X167231455Y-84377271D01*
X167413854Y-84474766D01*
X167611786Y-84534808D01*
X167817621Y-84555080D01*
X168023455Y-84534808D01*
X168221387Y-84474766D01*
X168403787Y-84377271D01*
X168403794Y-84377267D01*
X168466581Y-84325738D01*
X168466582Y-84325737D01*
X167998370Y-83857525D01*
X168063227Y-83820080D01*
X168137701Y-83745606D01*
X168175146Y-83680748D01*
X168643358Y-84148961D01*
X168643359Y-84148960D01*
X168694888Y-84086173D01*
X168694892Y-84086166D01*
X168792387Y-83903766D01*
X168852429Y-83705834D01*
X168872701Y-83500000D01*
X168852429Y-83294165D01*
X168792387Y-83096233D01*
X168694892Y-82913834D01*
X168694888Y-82913828D01*
X168643358Y-82851037D01*
X168175145Y-83319250D01*
X168137701Y-83254394D01*
X168063227Y-83179920D01*
X167998369Y-83142474D01*
X168466581Y-82674262D01*
X168466581Y-82674261D01*
X168403792Y-82622732D01*
X168403786Y-82622728D01*
X168221387Y-82525233D01*
X168023455Y-82465191D01*
X167817621Y-82444919D01*
X167611786Y-82465191D01*
X167413854Y-82525233D01*
X167231448Y-82622731D01*
X167168659Y-82674260D01*
X167168659Y-82674261D01*
X167636872Y-83142474D01*
X167572015Y-83179920D01*
X167497541Y-83254394D01*
X167460095Y-83319251D01*
X166991882Y-82851038D01*
X166991881Y-82851038D01*
X166940352Y-82913827D01*
X166842854Y-83096233D01*
X166782812Y-83294165D01*
X166765524Y-83469703D01*
X166754439Y-83497153D01*
X166528736Y-83497153D01*
X166520293Y-83480654D01*
X166518121Y-83457549D01*
X166518121Y-78723140D01*
X166507313Y-78654903D01*
X166507313Y-78654902D01*
X166488561Y-78536505D01*
X166488561Y-78536503D01*
X166430168Y-78356789D01*
X166430166Y-78356786D01*
X166430166Y-78356784D01*
X166344380Y-78188421D01*
X166233311Y-78035547D01*
X164282074Y-76084310D01*
X164129199Y-75973240D01*
X163960836Y-75887454D01*
X163781118Y-75829059D01*
X163594486Y-75799500D01*
X163594481Y-75799500D01*
X159048626Y-75799500D01*
X158981587Y-75779815D01*
X158960945Y-75763181D01*
X157609945Y-74412181D01*
X157576460Y-74350858D01*
X157581444Y-74281166D01*
X157623316Y-74225233D01*
X157688780Y-74200816D01*
X157697626Y-74200500D01*
X163694486Y-74200500D01*
X163881118Y-74170940D01*
X164060832Y-74112547D01*
X164229199Y-74026760D01*
X164382074Y-73915690D01*
X164915690Y-73382074D01*
X165026760Y-73229199D01*
X165112547Y-73060832D01*
X165112546Y-73060832D01*
X165114759Y-73056491D01*
X165116417Y-73057336D01*
X165136568Y-73032322D01*
X165315347Y-73032322D01*
X165336875Y-73055437D01*
X165350000Y-73110960D01*
X165350000Y-73900000D01*
X166067619Y-73900000D01*
X166050000Y-73965756D01*
X166050000Y-74084244D01*
X166067619Y-74150000D01*
X165350000Y-74150000D01*
X165350000Y-74949628D01*
X165364503Y-75022540D01*
X165364505Y-75022544D01*
X165419760Y-75105239D01*
X165502455Y-75160494D01*
X165502459Y-75160496D01*
X165575371Y-75174999D01*
X165575374Y-75175000D01*
X166375000Y-75175000D01*
X166375000Y-74457380D01*
X166440756Y-74475000D01*
X166559244Y-74475000D01*
X166625000Y-74457380D01*
X166625000Y-75175000D01*
X167424626Y-75175000D01*
X167424628Y-75174999D01*
X167497540Y-75160496D01*
X167497544Y-75160494D01*
X167580239Y-75105239D01*
X167635494Y-75022544D01*
X167635496Y-75022540D01*
X167649999Y-74949628D01*
X167650000Y-74949626D01*
X167650000Y-74150000D01*
X166932381Y-74150000D01*
X166950000Y-74084244D01*
X166950000Y-73965756D01*
X166932381Y-73900000D01*
X167650000Y-73900000D01*
X167650000Y-73100373D01*
X167649999Y-73100371D01*
X167635496Y-73027459D01*
X167635494Y-73027455D01*
X167580239Y-72944760D01*
X167497544Y-72889505D01*
X167497540Y-72889503D01*
X167424627Y-72875000D01*
X166625000Y-72875000D01*
X166625000Y-73592619D01*
X166559244Y-73575000D01*
X166440756Y-73575000D01*
X166375000Y-73592619D01*
X166375000Y-72875000D01*
X165575373Y-72875000D01*
X165502459Y-72889503D01*
X165502455Y-72889505D01*
X165419759Y-72944760D01*
X165393225Y-72984471D01*
X165339613Y-73029275D01*
X165315347Y-73032322D01*
X165136568Y-73032322D01*
X165155263Y-73009116D01*
X165199049Y-72994534D01*
X165170542Y-72948383D01*
X165171650Y-72886312D01*
X165169800Y-72885868D01*
X165170936Y-72881129D01*
X165170940Y-72881118D01*
X165179661Y-72826053D01*
X165200500Y-72694481D01*
X165200500Y-71828027D01*
X165220185Y-71760988D01*
X165272989Y-71715233D01*
X165342147Y-71705289D01*
X165405703Y-71734314D01*
X165443477Y-71793092D01*
X165443735Y-71793986D01*
X165447730Y-71808025D01*
X165469417Y-71884247D01*
X165469422Y-71884260D01*
X165560327Y-72066821D01*
X165683237Y-72229581D01*
X165833958Y-72366980D01*
X165833960Y-72366982D01*
X165933141Y-72428392D01*
X166007363Y-72474348D01*
X166197544Y-72548024D01*
X166398024Y-72585500D01*
X166398026Y-72585500D01*
X166601974Y-72585500D01*
X166601976Y-72585500D01*
X166802456Y-72548024D01*
X166992637Y-72474348D01*
X167166041Y-72366981D01*
X167316764Y-72229579D01*
X167439673Y-72066821D01*
X167530582Y-71884250D01*
X167586397Y-71688083D01*
X167605215Y-71485000D01*
X167586397Y-71281917D01*
X167530582Y-71085750D01*
X167501399Y-71027143D01*
X167467966Y-70959999D01*
X167439673Y-70903179D01*
X167316764Y-70740421D01*
X167316762Y-70740418D01*
X167166041Y-70603019D01*
X167166039Y-70603017D01*
X166992642Y-70495655D01*
X166992635Y-70495651D01*
X166874795Y-70450000D01*
X166802456Y-70421976D01*
X166601976Y-70384500D01*
X166398024Y-70384500D01*
X166197544Y-70421976D01*
X166197541Y-70421976D01*
X166197541Y-70421977D01*
X166007364Y-70495651D01*
X166007357Y-70495655D01*
X165833960Y-70603017D01*
X165833958Y-70603019D01*
X165683237Y-70740418D01*
X165560327Y-70903178D01*
X165469422Y-71085739D01*
X165469418Y-71085750D01*
X165451345Y-71149271D01*
X165443766Y-71175907D01*
X165406487Y-71235000D01*
X165343177Y-71264557D01*
X165273937Y-71255195D01*
X165220751Y-71209885D01*
X165200504Y-71143013D01*
X165200500Y-71141972D01*
X165200500Y-66830000D01*
X165494659Y-66830000D01*
X165513975Y-67026129D01*
X165571188Y-67214733D01*
X165664086Y-67388532D01*
X165664090Y-67388539D01*
X165789116Y-67540883D01*
X165941460Y-67665909D01*
X165941467Y-67665913D01*
X166115266Y-67758811D01*
X166115269Y-67758811D01*
X166115273Y-67758814D01*
X166303868Y-67816024D01*
X166500000Y-67835341D01*
X166696132Y-67816024D01*
X166884727Y-67758814D01*
X167058538Y-67665910D01*
X167210883Y-67540883D01*
X167335910Y-67388538D01*
X167397468Y-67273371D01*
X167428811Y-67214733D01*
X167428811Y-67214732D01*
X167428814Y-67214727D01*
X167486024Y-67026132D01*
X167505341Y-66830000D01*
X167486024Y-66633868D01*
X167428814Y-66445273D01*
X167428811Y-66445269D01*
X167428811Y-66445266D01*
X167335913Y-66271467D01*
X167335909Y-66271460D01*
X167210883Y-66119116D01*
X167058539Y-65994090D01*
X167058532Y-65994086D01*
X166884733Y-65901188D01*
X166884727Y-65901186D01*
X166696132Y-65843976D01*
X166696129Y-65843975D01*
X166500000Y-65824659D01*
X166303870Y-65843975D01*
X166115266Y-65901188D01*
X165941467Y-65994086D01*
X165941460Y-65994090D01*
X165789116Y-66119116D01*
X165664090Y-66271460D01*
X165664086Y-66271467D01*
X165571188Y-66445266D01*
X165513975Y-66633870D01*
X165494659Y-66830000D01*
X165200500Y-66830000D01*
X165200500Y-63548625D01*
X165220185Y-63481586D01*
X165236819Y-63460944D01*
X166309294Y-62388469D01*
X167415690Y-61282073D01*
X167526760Y-61129199D01*
X167612547Y-60960832D01*
X167670940Y-60781118D01*
X167700500Y-60594486D01*
X167700500Y-56575513D01*
X167670940Y-56388881D01*
X167643846Y-56305497D01*
X167612547Y-56209168D01*
X167612545Y-56209165D01*
X167612545Y-56209163D01*
X167565565Y-56116962D01*
X167526760Y-56040801D01*
X167526758Y-56040798D01*
X167526757Y-56040796D01*
X167524179Y-56037247D01*
X167500702Y-55971439D01*
X167500500Y-55964366D01*
X167500500Y-55850249D01*
X167500499Y-55850247D01*
X167488868Y-55791770D01*
X167488867Y-55791769D01*
X167444552Y-55725447D01*
X167378230Y-55681132D01*
X167378229Y-55681131D01*
X167319752Y-55669500D01*
X167319748Y-55669500D01*
X167205633Y-55669500D01*
X167138594Y-55649815D01*
X167132746Y-55645817D01*
X167129200Y-55643240D01*
X166960836Y-55557454D01*
X166781118Y-55499059D01*
X166594486Y-55469500D01*
X166594481Y-55469500D01*
X158974482Y-55469500D01*
X158785519Y-55469500D01*
X158785514Y-55469500D01*
X158598881Y-55499059D01*
X158419163Y-55557454D01*
X158250800Y-55643240D01*
X158198647Y-55681132D01*
X158097927Y-55754310D01*
X158097925Y-55754312D01*
X158097924Y-55754312D01*
X153589055Y-60263181D01*
X153527732Y-60296666D01*
X153501374Y-60299500D01*
X146405514Y-60299500D01*
X146218881Y-60329059D01*
X146039163Y-60387454D01*
X145870799Y-60473240D01*
X145783578Y-60536610D01*
X145717926Y-60584310D01*
X145717924Y-60584312D01*
X145717923Y-60584312D01*
X134523306Y-71778929D01*
X134486886Y-71829059D01*
X134486886Y-71829060D01*
X134412240Y-71931800D01*
X134326454Y-72100163D01*
X134268059Y-72279881D01*
X134238500Y-72466513D01*
X134238500Y-73174868D01*
X134218815Y-73241907D01*
X134166011Y-73287662D01*
X134096853Y-73297606D01*
X134033297Y-73268581D01*
X134030963Y-73266506D01*
X134009383Y-73246834D01*
X134009382Y-73246833D01*
X133837716Y-73140542D01*
X133837710Y-73140539D01*
X133649436Y-73067602D01*
X133649435Y-73067601D01*
X133649433Y-73067601D01*
X133450957Y-73030500D01*
X133249043Y-73030500D01*
X133050567Y-73067601D01*
X133050565Y-73067601D01*
X133050563Y-73067602D01*
X132862289Y-73140539D01*
X132862283Y-73140542D01*
X132690617Y-73246833D01*
X132690617Y-73246834D01*
X132541406Y-73382857D01*
X132541402Y-73382861D01*
X132419720Y-73543994D01*
X132329719Y-73724737D01*
X132274461Y-73918947D01*
X132255832Y-74119999D01*
X132255832Y-74120000D01*
X132274461Y-74321052D01*
X132329719Y-74515262D01*
X132396018Y-74648405D01*
X132419720Y-74696005D01*
X132535353Y-74849129D01*
X132541402Y-74857138D01*
X132541406Y-74857142D01*
X132690615Y-74993164D01*
X132690617Y-74993166D01*
X132862283Y-75099457D01*
X132862289Y-75099460D01*
X132892075Y-75110999D01*
X133050567Y-75172399D01*
X133249043Y-75209500D01*
X133249046Y-75209500D01*
X133293373Y-75209500D01*
X133360412Y-75229185D01*
X133406167Y-75281989D01*
X133416111Y-75351147D01*
X133387086Y-75414703D01*
X133381054Y-75421181D01*
X129834312Y-78967923D01*
X129834307Y-78967929D01*
X129739269Y-79098739D01*
X129739268Y-79098741D01*
X129723240Y-79120799D01*
X129637454Y-79289163D01*
X129579059Y-79468881D01*
X129549500Y-79655513D01*
X129549500Y-82569486D01*
X129579059Y-82756118D01*
X129637454Y-82935836D01*
X129685985Y-83031081D01*
X129699500Y-83087376D01*
X129699500Y-83254269D01*
X129702353Y-83284699D01*
X129702353Y-83284701D01*
X129747206Y-83412880D01*
X129747207Y-83412882D01*
X129827850Y-83522150D01*
X129937118Y-83602793D01*
X129958089Y-83610131D01*
X130065299Y-83647646D01*
X130095730Y-83650500D01*
X130095734Y-83650500D01*
X130487916Y-83650500D01*
X130507314Y-83652027D01*
X130655514Y-83675500D01*
X130655519Y-83675500D01*
X130844486Y-83675500D01*
X130992686Y-83652027D01*
X131012084Y-83650500D01*
X131404270Y-83650500D01*
X131434699Y-83647646D01*
X131434701Y-83647646D01*
X131500847Y-83624500D01*
X131562882Y-83602793D01*
X131672150Y-83522150D01*
X131752793Y-83412882D01*
X131794334Y-83294165D01*
X131797646Y-83284701D01*
X131797646Y-83284699D01*
X131800500Y-83254269D01*
X131800500Y-83087376D01*
X131814015Y-83031081D01*
X131862545Y-82935836D01*
X131862545Y-82935835D01*
X131862547Y-82935832D01*
X131920940Y-82756118D01*
X131924918Y-82731001D01*
X131950500Y-82569486D01*
X131950500Y-80298626D01*
X131970185Y-80231587D01*
X131986819Y-80210945D01*
X134162220Y-78035544D01*
X136354690Y-75843074D01*
X136465760Y-75690199D01*
X136551547Y-75521832D01*
X136557569Y-75503295D01*
X136597006Y-75445622D01*
X136661365Y-75418423D01*
X136730211Y-75430337D01*
X136781687Y-75477581D01*
X136799500Y-75541615D01*
X136799500Y-79451374D01*
X136779815Y-79518413D01*
X136763181Y-79539055D01*
X134584308Y-81717927D01*
X134584304Y-81717931D01*
X134486609Y-81852400D01*
X134486608Y-81852401D01*
X134473242Y-81870796D01*
X134473241Y-81870798D01*
X134387454Y-82039163D01*
X134329059Y-82218881D01*
X134299500Y-82405513D01*
X134299500Y-84201374D01*
X134279815Y-84268413D01*
X134263181Y-84289055D01*
X133464055Y-85088181D01*
X133402732Y-85121666D01*
X133376374Y-85124500D01*
X133170893Y-85124500D01*
X133103854Y-85104815D01*
X133058099Y-85052011D01*
X133048155Y-84982853D01*
X133067791Y-84931610D01*
X133086787Y-84903178D01*
X133103703Y-84877863D01*
X133167816Y-84723082D01*
X133200500Y-84558767D01*
X133200500Y-84391233D01*
X133167816Y-84226918D01*
X133105580Y-84076669D01*
X133103704Y-84072139D01*
X133100302Y-84067048D01*
X133029334Y-83960836D01*
X133010626Y-83932837D01*
X132892162Y-83814373D01*
X132752860Y-83721295D01*
X132598082Y-83657184D01*
X132598074Y-83657182D01*
X132433771Y-83624500D01*
X132433767Y-83624500D01*
X132266233Y-83624500D01*
X132266228Y-83624500D01*
X132101925Y-83657182D01*
X132101917Y-83657184D01*
X131947139Y-83721295D01*
X131807837Y-83814373D01*
X131689373Y-83932837D01*
X131596295Y-84072139D01*
X131532184Y-84226917D01*
X131532182Y-84226925D01*
X131499500Y-84391228D01*
X131499500Y-84558771D01*
X131532182Y-84723074D01*
X131532184Y-84723082D01*
X131596296Y-84877861D01*
X131596298Y-84877865D01*
X131632209Y-84931610D01*
X131653087Y-84998287D01*
X131634602Y-85065667D01*
X131582623Y-85112357D01*
X131529107Y-85124500D01*
X128623625Y-85124500D01*
X128556586Y-85104815D01*
X128535944Y-85088181D01*
X126986819Y-83539055D01*
X126953334Y-83477732D01*
X126950500Y-83451374D01*
X126950500Y-82465519D01*
X126970185Y-82398480D01*
X127022989Y-82352725D01*
X127092147Y-82342781D01*
X127155703Y-82371806D01*
X127162181Y-82377838D01*
X127163181Y-82378838D01*
X127196666Y-82440161D01*
X127199500Y-82466519D01*
X127199500Y-82703469D01*
X127239868Y-82906412D01*
X127239870Y-82906420D01*
X127318493Y-83096233D01*
X127319059Y-83097598D01*
X127371795Y-83176524D01*
X127434024Y-83269657D01*
X127580342Y-83415975D01*
X127580345Y-83415977D01*
X127752402Y-83530941D01*
X127943580Y-83610130D01*
X128132187Y-83647646D01*
X128146530Y-83650499D01*
X128146534Y-83650500D01*
X128146535Y-83650500D01*
X128353466Y-83650500D01*
X128353467Y-83650499D01*
X128556420Y-83610130D01*
X128747598Y-83530941D01*
X128919655Y-83415977D01*
X129065977Y-83269655D01*
X129180941Y-83097598D01*
X129260130Y-82906420D01*
X129300500Y-82703465D01*
X129300500Y-82246535D01*
X129260130Y-82043580D01*
X129180941Y-81852402D01*
X129065977Y-81680345D01*
X129065975Y-81680342D01*
X128919657Y-81534024D01*
X128832069Y-81475500D01*
X128747598Y-81419059D01*
X128740249Y-81416015D01*
X128556420Y-81339870D01*
X128556412Y-81339868D01*
X128353469Y-81299500D01*
X128353465Y-81299500D01*
X128337000Y-81299500D01*
X128269961Y-81279815D01*
X128224206Y-81227011D01*
X128213000Y-81175500D01*
X128213000Y-80913506D01*
X128206243Y-80879541D01*
X128206243Y-80879538D01*
X128186081Y-80778179D01*
X128186080Y-80778172D01*
X128166127Y-80730000D01*
X128133277Y-80650692D01*
X128056612Y-80535954D01*
X128056611Y-80535953D01*
X122930794Y-75410137D01*
X122897309Y-75348814D01*
X122902293Y-75279122D01*
X122944165Y-75223189D01*
X123009629Y-75198772D01*
X123041252Y-75200566D01*
X123089043Y-75209500D01*
X123089047Y-75209500D01*
X123290954Y-75209500D01*
X123290957Y-75209500D01*
X123489433Y-75172399D01*
X123677713Y-75099459D01*
X123849384Y-74993165D01*
X123998600Y-74857136D01*
X124120280Y-74696005D01*
X124183852Y-74568336D01*
X124210280Y-74515262D01*
X124221736Y-74475000D01*
X124265538Y-74321053D01*
X124284168Y-74120000D01*
X124284168Y-74119999D01*
X124586120Y-74119999D01*
X124586120Y-74120000D01*
X124605596Y-74330186D01*
X124605597Y-74330189D01*
X124663361Y-74533212D01*
X124663364Y-74533218D01*
X124757454Y-74722175D01*
X124840748Y-74832474D01*
X125299270Y-74373952D01*
X125329901Y-74427007D01*
X125422993Y-74520099D01*
X125476046Y-74550729D01*
X125016218Y-75010557D01*
X125040658Y-75032835D01*
X125040660Y-75032837D01*
X125220125Y-75143957D01*
X125220131Y-75143959D01*
X125416963Y-75220212D01*
X125624458Y-75259000D01*
X125835542Y-75259000D01*
X126043035Y-75220212D01*
X126043036Y-75220212D01*
X126239868Y-75143959D01*
X126239874Y-75143957D01*
X126419335Y-75032840D01*
X126419340Y-75032836D01*
X126443780Y-75010556D01*
X125983953Y-74550729D01*
X126037007Y-74520099D01*
X126130099Y-74427007D01*
X126160729Y-74373953D01*
X126619250Y-74832474D01*
X126702544Y-74722177D01*
X126702549Y-74722169D01*
X126796635Y-74533218D01*
X126796638Y-74533212D01*
X126854402Y-74330189D01*
X126854403Y-74330186D01*
X126873880Y-74120000D01*
X126873880Y-74119999D01*
X127175832Y-74119999D01*
X127175832Y-74120000D01*
X127194461Y-74321052D01*
X127249719Y-74515262D01*
X127316018Y-74648405D01*
X127339720Y-74696005D01*
X127455353Y-74849129D01*
X127461402Y-74857138D01*
X127461406Y-74857142D01*
X127610615Y-74993164D01*
X127610617Y-74993166D01*
X127782283Y-75099457D01*
X127782289Y-75099460D01*
X127812075Y-75110999D01*
X127970567Y-75172399D01*
X128169043Y-75209500D01*
X128169046Y-75209500D01*
X128370954Y-75209500D01*
X128370957Y-75209500D01*
X128569433Y-75172399D01*
X128757713Y-75099459D01*
X128929384Y-74993165D01*
X129078600Y-74857136D01*
X129200280Y-74696005D01*
X129263852Y-74568336D01*
X129290280Y-74515262D01*
X129301736Y-74475000D01*
X129345538Y-74321053D01*
X129364168Y-74120000D01*
X129364168Y-74119999D01*
X129715832Y-74119999D01*
X129715832Y-74120000D01*
X129734461Y-74321052D01*
X129789719Y-74515262D01*
X129856018Y-74648405D01*
X129879720Y-74696005D01*
X129995353Y-74849129D01*
X130001402Y-74857138D01*
X130001406Y-74857142D01*
X130150615Y-74993164D01*
X130150617Y-74993166D01*
X130322283Y-75099457D01*
X130322289Y-75099460D01*
X130352075Y-75110999D01*
X130510567Y-75172399D01*
X130709043Y-75209500D01*
X130709046Y-75209500D01*
X130910954Y-75209500D01*
X130910957Y-75209500D01*
X131109433Y-75172399D01*
X131297713Y-75099459D01*
X131469384Y-74993165D01*
X131618600Y-74857136D01*
X131740280Y-74696005D01*
X131803852Y-74568336D01*
X131830280Y-74515262D01*
X131841736Y-74475000D01*
X131885538Y-74321053D01*
X131904168Y-74120000D01*
X131900044Y-74075499D01*
X131885538Y-73918947D01*
X131830280Y-73724737D01*
X131770527Y-73604739D01*
X131740280Y-73543995D01*
X131618600Y-73382864D01*
X131618597Y-73382861D01*
X131618593Y-73382857D01*
X131469383Y-73246834D01*
X131469382Y-73246833D01*
X131297716Y-73140542D01*
X131297710Y-73140539D01*
X131109436Y-73067602D01*
X131109435Y-73067601D01*
X131109433Y-73067601D01*
X130910957Y-73030500D01*
X130709043Y-73030500D01*
X130510567Y-73067601D01*
X130510565Y-73067601D01*
X130510563Y-73067602D01*
X130322289Y-73140539D01*
X130322283Y-73140542D01*
X130150617Y-73246833D01*
X130150617Y-73246834D01*
X130001406Y-73382857D01*
X130001402Y-73382861D01*
X129879720Y-73543994D01*
X129789719Y-73724737D01*
X129734461Y-73918947D01*
X129715832Y-74119999D01*
X129364168Y-74119999D01*
X129360044Y-74075499D01*
X129345538Y-73918947D01*
X129290280Y-73724737D01*
X129230527Y-73604739D01*
X129200280Y-73543995D01*
X129078600Y-73382864D01*
X129078597Y-73382861D01*
X129078593Y-73382857D01*
X128929383Y-73246834D01*
X128929382Y-73246833D01*
X128757716Y-73140542D01*
X128757710Y-73140539D01*
X128569436Y-73067602D01*
X128569435Y-73067601D01*
X128569433Y-73067601D01*
X128370957Y-73030500D01*
X128169043Y-73030500D01*
X127970567Y-73067601D01*
X127970565Y-73067601D01*
X127970563Y-73067602D01*
X127782289Y-73140539D01*
X127782283Y-73140542D01*
X127610617Y-73246833D01*
X127610617Y-73246834D01*
X127461406Y-73382857D01*
X127461402Y-73382861D01*
X127339720Y-73543994D01*
X127249719Y-73724737D01*
X127194461Y-73918947D01*
X127175832Y-74119999D01*
X126873880Y-74119999D01*
X126854403Y-73909813D01*
X126854402Y-73909810D01*
X126796638Y-73706787D01*
X126796635Y-73706781D01*
X126702545Y-73517824D01*
X126619250Y-73407524D01*
X126160729Y-73866046D01*
X126130099Y-73812993D01*
X126037007Y-73719901D01*
X125983952Y-73689270D01*
X126443779Y-73229442D01*
X126443779Y-73229441D01*
X126419344Y-73207165D01*
X126239874Y-73096042D01*
X126239868Y-73096040D01*
X126043036Y-73019787D01*
X125835542Y-72981000D01*
X125624458Y-72981000D01*
X125416964Y-73019787D01*
X125416963Y-73019787D01*
X125220131Y-73096040D01*
X125220125Y-73096042D01*
X125040661Y-73207161D01*
X125040656Y-73207164D01*
X125016219Y-73229441D01*
X125016218Y-73229442D01*
X125476046Y-73689270D01*
X125422993Y-73719901D01*
X125329901Y-73812993D01*
X125299270Y-73866046D01*
X124840748Y-73407524D01*
X124757454Y-73517824D01*
X124757450Y-73517831D01*
X124663364Y-73706781D01*
X124663361Y-73706787D01*
X124605597Y-73909810D01*
X124605596Y-73909813D01*
X124586120Y-74119999D01*
X124284168Y-74119999D01*
X124280044Y-74075499D01*
X124265538Y-73918947D01*
X124210280Y-73724737D01*
X124150527Y-73604739D01*
X124120280Y-73543995D01*
X123998600Y-73382864D01*
X123998597Y-73382861D01*
X123998593Y-73382857D01*
X123849383Y-73246834D01*
X123849382Y-73246833D01*
X123677716Y-73140542D01*
X123677710Y-73140539D01*
X123489436Y-73067602D01*
X123489435Y-73067601D01*
X123489433Y-73067601D01*
X123290957Y-73030500D01*
X123089043Y-73030500D01*
X122890567Y-73067601D01*
X122890565Y-73067601D01*
X122890563Y-73067602D01*
X122702289Y-73140539D01*
X122702283Y-73140542D01*
X122530617Y-73246833D01*
X122530617Y-73246834D01*
X122381406Y-73382857D01*
X122381402Y-73382861D01*
X122259720Y-73543994D01*
X122169719Y-73724737D01*
X122114461Y-73918947D01*
X122095832Y-74119999D01*
X122095832Y-74120000D01*
X122110630Y-74279698D01*
X122097215Y-74348268D01*
X122048858Y-74398699D01*
X121980912Y-74414982D01*
X121914949Y-74391945D01*
X121899478Y-74378821D01*
X121841709Y-74321052D01*
X121776548Y-74255891D01*
X121743065Y-74194571D01*
X121740760Y-74156772D01*
X121744168Y-74120000D01*
X121725538Y-73918947D01*
X121702170Y-73836819D01*
X121670280Y-73724737D01*
X121610527Y-73604739D01*
X121580280Y-73543995D01*
X121458600Y-73382864D01*
X121458597Y-73382861D01*
X121458593Y-73382857D01*
X121309383Y-73246834D01*
X121309382Y-73246833D01*
X121137716Y-73140542D01*
X121137710Y-73140539D01*
X120949436Y-73067602D01*
X120949435Y-73067601D01*
X120949433Y-73067601D01*
X120750957Y-73030500D01*
X120549043Y-73030500D01*
X120350567Y-73067601D01*
X120350565Y-73067601D01*
X120350563Y-73067602D01*
X120162289Y-73140539D01*
X120162283Y-73140542D01*
X119990617Y-73246833D01*
X119990617Y-73246834D01*
X119841406Y-73382857D01*
X119841402Y-73382861D01*
X119719720Y-73543994D01*
X119629719Y-73724737D01*
X119574461Y-73918947D01*
X119555832Y-74119999D01*
X119555832Y-74120000D01*
X119574461Y-74321052D01*
X119629719Y-74515262D01*
X119696018Y-74648405D01*
X119719720Y-74696005D01*
X119835353Y-74849129D01*
X119841402Y-74857138D01*
X119841406Y-74857142D01*
X119990615Y-74993164D01*
X119990617Y-74993166D01*
X120162283Y-75099457D01*
X120162289Y-75099460D01*
X120192075Y-75110999D01*
X120350567Y-75172399D01*
X120549043Y-75209500D01*
X120697481Y-75209500D01*
X120764520Y-75229185D01*
X120785162Y-75245819D01*
X125402162Y-79862819D01*
X125435647Y-79924142D01*
X125430663Y-79993834D01*
X125388791Y-80049767D01*
X125323327Y-80074184D01*
X125314481Y-80074500D01*
X121406003Y-80074500D01*
X121297590Y-80096065D01*
X121297589Y-80096065D01*
X121270671Y-80101420D01*
X121143190Y-80154224D01*
X121028454Y-80230887D01*
X121028453Y-80230888D01*
X109996162Y-91263181D01*
X109934839Y-91296666D01*
X109908481Y-91299500D01*
X102846004Y-91299500D01*
X102710677Y-91326418D01*
X102710667Y-91326421D01*
X102583192Y-91379222D01*
X102468454Y-91455887D01*
X96345887Y-97578454D01*
X96269223Y-97693192D01*
X96216421Y-97820668D01*
X96216418Y-97820678D01*
X96203358Y-97886337D01*
X96189500Y-97956004D01*
X96189500Y-98800500D01*
X96169815Y-98867539D01*
X96117011Y-98913294D01*
X96065500Y-98924500D01*
X96020247Y-98924500D01*
X95961770Y-98936131D01*
X95961769Y-98936132D01*
X95895447Y-98980447D01*
X95851132Y-99046769D01*
X95851131Y-99046770D01*
X95839500Y-99105247D01*
X84659851Y-99105247D01*
X84586537Y-99060927D01*
X84574217Y-99052423D01*
X84567001Y-99046770D01*
X84366515Y-98889699D01*
X84348426Y-98875527D01*
X84337218Y-98865597D01*
X84134403Y-98662782D01*
X84124473Y-98651574D01*
X83947572Y-98425777D01*
X83939074Y-98413466D01*
X83790678Y-98167988D01*
X83783726Y-98154744D01*
X83665999Y-97893164D01*
X83660692Y-97879168D01*
X83575363Y-97605336D01*
X83571779Y-97590798D01*
X83556888Y-97509540D01*
X83520074Y-97308658D01*
X83518270Y-97293795D01*
X83500726Y-97003753D01*
X83500500Y-96996266D01*
X83500500Y-96378711D01*
X84649500Y-96378711D01*
X84649500Y-96621288D01*
X84681161Y-96861785D01*
X84743947Y-97096104D01*
X84775372Y-97171970D01*
X84836776Y-97320212D01*
X84958064Y-97530289D01*
X84958066Y-97530292D01*
X84958067Y-97530293D01*
X85105733Y-97722736D01*
X85105739Y-97722743D01*
X85277256Y-97894260D01*
X85277262Y-97894265D01*
X85469711Y-98041936D01*
X85679788Y-98163224D01*
X85903900Y-98256054D01*
X86138211Y-98318838D01*
X86318586Y-98342584D01*
X86378711Y-98350500D01*
X86378712Y-98350500D01*
X86621289Y-98350500D01*
X86669388Y-98344167D01*
X86861789Y-98318838D01*
X87096100Y-98256054D01*
X87320212Y-98163224D01*
X87530289Y-98041936D01*
X87722738Y-97894265D01*
X87894265Y-97722738D01*
X88041936Y-97530289D01*
X88163224Y-97320212D01*
X88256054Y-97096100D01*
X88318838Y-96861789D01*
X88350500Y-96621288D01*
X88350500Y-96378712D01*
X88318838Y-96138211D01*
X88256054Y-95903900D01*
X88163224Y-95679788D01*
X88041936Y-95469711D01*
X87894265Y-95277262D01*
X87894260Y-95277256D01*
X87722743Y-95105739D01*
X87722736Y-95105733D01*
X87530293Y-94958067D01*
X87530292Y-94958066D01*
X87530289Y-94958064D01*
X87320212Y-94836776D01*
X87320205Y-94836773D01*
X87096104Y-94743947D01*
X86861785Y-94681161D01*
X86621289Y-94649500D01*
X86621288Y-94649500D01*
X86378712Y-94649500D01*
X86378711Y-94649500D01*
X86138214Y-94681161D01*
X85903895Y-94743947D01*
X85679794Y-94836773D01*
X85679785Y-94836777D01*
X85469706Y-94958067D01*
X85277263Y-95105733D01*
X85277256Y-95105739D01*
X85105739Y-95277256D01*
X85105733Y-95277263D01*
X84958067Y-95469706D01*
X84836777Y-95679785D01*
X84836773Y-95679794D01*
X84743947Y-95903895D01*
X84681161Y-96138214D01*
X84649500Y-96378711D01*
X83500500Y-96378711D01*
X83500500Y-86200000D01*
X86007589Y-86200000D01*
X86027185Y-86398972D01*
X86085227Y-86590308D01*
X86179471Y-86766626D01*
X86179475Y-86766632D01*
X86226631Y-86824092D01*
X86589448Y-86461274D01*
X86619398Y-86513147D01*
X86714353Y-86608102D01*
X86766224Y-86638050D01*
X86403406Y-87000867D01*
X86403407Y-87000868D01*
X86460866Y-87048023D01*
X86460873Y-87048028D01*
X86637191Y-87142272D01*
X86828527Y-87200314D01*
X87027500Y-87219910D01*
X87226472Y-87200314D01*
X87417806Y-87142273D01*
X87594130Y-87048025D01*
X87594133Y-87048023D01*
X87651591Y-87000868D01*
X87651591Y-87000867D01*
X87288775Y-86638050D01*
X87340647Y-86608102D01*
X87435602Y-86513147D01*
X87465550Y-86461274D01*
X87828367Y-86824091D01*
X87828368Y-86824091D01*
X87875523Y-86766633D01*
X87875525Y-86766630D01*
X87969773Y-86590306D01*
X88027814Y-86398972D01*
X88047410Y-86200000D01*
X88027814Y-86001027D01*
X87969772Y-85809691D01*
X87875528Y-85633373D01*
X87875523Y-85633366D01*
X87828368Y-85575907D01*
X87828367Y-85575906D01*
X87465550Y-85938724D01*
X87435602Y-85886853D01*
X87340647Y-85791898D01*
X87288774Y-85761949D01*
X87651592Y-85399131D01*
X87651592Y-85399130D01*
X87594132Y-85351975D01*
X87594126Y-85351971D01*
X87417808Y-85257727D01*
X87226472Y-85199685D01*
X87027500Y-85180089D01*
X86828527Y-85199685D01*
X86637191Y-85257727D01*
X86460874Y-85351970D01*
X86460862Y-85351979D01*
X86403407Y-85399129D01*
X86403407Y-85399132D01*
X86766225Y-85761949D01*
X86714353Y-85791898D01*
X86619398Y-85886853D01*
X86589449Y-85938724D01*
X86226632Y-85575907D01*
X86226629Y-85575907D01*
X86179479Y-85633362D01*
X86179470Y-85633374D01*
X86085227Y-85809691D01*
X86027185Y-86001027D01*
X86007589Y-86200000D01*
X83500500Y-86200000D01*
X83500500Y-83660000D01*
X86057328Y-83660000D01*
X86075969Y-83849269D01*
X86107138Y-83952020D01*
X86131178Y-84031269D01*
X86203365Y-84166322D01*
X86220832Y-84199000D01*
X86341484Y-84346015D01*
X86443791Y-84429976D01*
X86488501Y-84466669D01*
X86656231Y-84556322D01*
X86838229Y-84611530D01*
X86838228Y-84611530D01*
X86855198Y-84613201D01*
X87027500Y-84630172D01*
X87216771Y-84611530D01*
X87398769Y-84556322D01*
X87566499Y-84466669D01*
X87713515Y-84346015D01*
X87834169Y-84198999D01*
X87923822Y-84031269D01*
X87979030Y-83849271D01*
X87997672Y-83660000D01*
X87979030Y-83470729D01*
X87923822Y-83288731D01*
X87834169Y-83121001D01*
X87760373Y-83031081D01*
X87713515Y-82973984D01*
X87566500Y-82853332D01*
X87566499Y-82853331D01*
X87398769Y-82763678D01*
X87216771Y-82708470D01*
X87216769Y-82708469D01*
X87216771Y-82708469D01*
X87027500Y-82689828D01*
X86838230Y-82708469D01*
X86656231Y-82763678D01*
X86488499Y-82853332D01*
X86341484Y-82973984D01*
X86220832Y-83120999D01*
X86131178Y-83288731D01*
X86075969Y-83470730D01*
X86057328Y-83660000D01*
X83500500Y-83660000D01*
X83500500Y-81120000D01*
X86057328Y-81120000D01*
X86075969Y-81309269D01*
X86075970Y-81309271D01*
X86131178Y-81491269D01*
X86203365Y-81626322D01*
X86220832Y-81659000D01*
X86341484Y-81806015D01*
X86420426Y-81870801D01*
X86488501Y-81926669D01*
X86656231Y-82016322D01*
X86838229Y-82071530D01*
X86838228Y-82071530D01*
X86855198Y-82073201D01*
X87027500Y-82090172D01*
X87216771Y-82071530D01*
X87398769Y-82016322D01*
X87398775Y-82016318D01*
X87404434Y-82014602D01*
X87474301Y-82013979D01*
X87528111Y-82045582D01*
X91472989Y-85990460D01*
X91541512Y-86030022D01*
X91617938Y-86050500D01*
X109891499Y-86050500D01*
X109958538Y-86070185D01*
X109985211Y-86093296D01*
X110018872Y-86132143D01*
X110139947Y-86209953D01*
X110139950Y-86209954D01*
X110139949Y-86209954D01*
X110278036Y-86250499D01*
X110278038Y-86250500D01*
X110278039Y-86250500D01*
X110421962Y-86250500D01*
X110421962Y-86250499D01*
X110560053Y-86209953D01*
X110681128Y-86132143D01*
X110775377Y-86023373D01*
X110835165Y-85892457D01*
X110855647Y-85750000D01*
X110835165Y-85607543D01*
X110775377Y-85476627D01*
X110681128Y-85367857D01*
X110560053Y-85290047D01*
X110560051Y-85290046D01*
X110560049Y-85290045D01*
X110560050Y-85290045D01*
X110421963Y-85249500D01*
X110421961Y-85249500D01*
X110278039Y-85249500D01*
X110278036Y-85249500D01*
X110139949Y-85290045D01*
X110018873Y-85367856D01*
X109985212Y-85406703D01*
X109926433Y-85444477D01*
X109891499Y-85449500D01*
X91833333Y-85449500D01*
X91766294Y-85429815D01*
X91745652Y-85413181D01*
X87953082Y-81620611D01*
X87919597Y-81559288D01*
X87922102Y-81496934D01*
X87923818Y-81491275D01*
X87923822Y-81491269D01*
X87979030Y-81309271D01*
X87997672Y-81120000D01*
X87979030Y-80930729D01*
X87923822Y-80748731D01*
X87834169Y-80581001D01*
X87797199Y-80535953D01*
X87713515Y-80433984D01*
X87566500Y-80313332D01*
X87566499Y-80313331D01*
X87398769Y-80223678D01*
X87216771Y-80168470D01*
X87216769Y-80168469D01*
X87216771Y-80168469D01*
X87027500Y-80149828D01*
X86838230Y-80168469D01*
X86656231Y-80223678D01*
X86488499Y-80313332D01*
X86341484Y-80433984D01*
X86220832Y-80580999D01*
X86131178Y-80748731D01*
X86075969Y-80930730D01*
X86057328Y-81120000D01*
X83500500Y-81120000D01*
X83500500Y-78580000D01*
X86057328Y-78580000D01*
X86075969Y-78769269D01*
X86075970Y-78769271D01*
X86131178Y-78951269D01*
X86203365Y-79086322D01*
X86220832Y-79119000D01*
X86341484Y-79266015D01*
X86431500Y-79339889D01*
X86488501Y-79386669D01*
X86656231Y-79476322D01*
X86838229Y-79531530D01*
X86838228Y-79531530D01*
X86855198Y-79533201D01*
X87027500Y-79550172D01*
X87216771Y-79531530D01*
X87398769Y-79476322D01*
X87566499Y-79386669D01*
X87713515Y-79266015D01*
X87834169Y-79118999D01*
X87923822Y-78951269D01*
X87979030Y-78769271D01*
X87997672Y-78580000D01*
X87979030Y-78390729D01*
X87923822Y-78208731D01*
X87834169Y-78041001D01*
X87797476Y-77996291D01*
X87713515Y-77893984D01*
X87566500Y-77773332D01*
X87566499Y-77773331D01*
X87398769Y-77683678D01*
X87216771Y-77628470D01*
X87216769Y-77628469D01*
X87216771Y-77628469D01*
X87027500Y-77609828D01*
X86838230Y-77628469D01*
X86656231Y-77683678D01*
X86488499Y-77773332D01*
X86341484Y-77893984D01*
X86220832Y-78040999D01*
X86131178Y-78208731D01*
X86075969Y-78390730D01*
X86057328Y-78580000D01*
X83500500Y-78580000D01*
X83500500Y-76040000D01*
X86057328Y-76040000D01*
X86075969Y-76229269D01*
X86075970Y-76229271D01*
X86131178Y-76411269D01*
X86203365Y-76546322D01*
X86220832Y-76579000D01*
X86341484Y-76726015D01*
X86443791Y-76809976D01*
X86488501Y-76846669D01*
X86656231Y-76936322D01*
X86838229Y-76991530D01*
X86838228Y-76991530D01*
X86855198Y-76993201D01*
X87027500Y-77010172D01*
X87216771Y-76991530D01*
X87398769Y-76936322D01*
X87566499Y-76846669D01*
X87713515Y-76726015D01*
X87834169Y-76578999D01*
X87923822Y-76411269D01*
X87979030Y-76229271D01*
X87997672Y-76040000D01*
X87979030Y-75850729D01*
X87923822Y-75668731D01*
X87834169Y-75501001D01*
X87768662Y-75421181D01*
X87713515Y-75353984D01*
X87588853Y-75251677D01*
X87566499Y-75233331D01*
X87398769Y-75143678D01*
X87216771Y-75088470D01*
X87216769Y-75088469D01*
X87216771Y-75088469D01*
X87027500Y-75069828D01*
X86838230Y-75088469D01*
X86656231Y-75143678D01*
X86488499Y-75233332D01*
X86341484Y-75353984D01*
X86220832Y-75500999D01*
X86131178Y-75668731D01*
X86075969Y-75850730D01*
X86057328Y-76040000D01*
X83500500Y-76040000D01*
X83500500Y-73500000D01*
X86057328Y-73500000D01*
X86075969Y-73689269D01*
X86104121Y-73782074D01*
X86131178Y-73871269D01*
X86220830Y-74038997D01*
X86220832Y-74039000D01*
X86341484Y-74186015D01*
X86426632Y-74255894D01*
X86488501Y-74306669D01*
X86656231Y-74396322D01*
X86838229Y-74451530D01*
X86838228Y-74451530D01*
X86855198Y-74453201D01*
X87027500Y-74470172D01*
X87216771Y-74451530D01*
X87398769Y-74396322D01*
X87566499Y-74306669D01*
X87713515Y-74186015D01*
X87834169Y-74038999D01*
X87923822Y-73871269D01*
X87923822Y-73871266D01*
X87926612Y-73866048D01*
X87975574Y-73816203D01*
X88035971Y-73800500D01*
X99574167Y-73800500D01*
X99641206Y-73820185D01*
X99661848Y-73836819D01*
X110815489Y-84990460D01*
X110884012Y-85030022D01*
X110960438Y-85050500D01*
X111041499Y-85050500D01*
X111108538Y-85070185D01*
X111135211Y-85093296D01*
X111168872Y-85132143D01*
X111289947Y-85209953D01*
X111289950Y-85209954D01*
X111289949Y-85209954D01*
X111382281Y-85237065D01*
X111441060Y-85274839D01*
X111470085Y-85338394D01*
X111468965Y-85380230D01*
X111462000Y-85415249D01*
X111462000Y-86984752D01*
X111473631Y-87043229D01*
X111473632Y-87043230D01*
X111517947Y-87109552D01*
X111584269Y-87153867D01*
X111584270Y-87153868D01*
X111642747Y-87165499D01*
X111642750Y-87165500D01*
X111642752Y-87165500D01*
X113212250Y-87165500D01*
X113212251Y-87165499D01*
X113227068Y-87162552D01*
X113270729Y-87153868D01*
X113270729Y-87153867D01*
X113270731Y-87153867D01*
X113337052Y-87109552D01*
X113381367Y-87043231D01*
X113381367Y-87043229D01*
X113381368Y-87043229D01*
X113392999Y-86984752D01*
X113393000Y-86984750D01*
X113393000Y-85415249D01*
X113392999Y-85415247D01*
X113381368Y-85356770D01*
X113381367Y-85356769D01*
X113337052Y-85290447D01*
X113270730Y-85246132D01*
X113270729Y-85246131D01*
X113212252Y-85234500D01*
X113212248Y-85234500D01*
X112013957Y-85234500D01*
X111946918Y-85214815D01*
X111901163Y-85162011D01*
X111891219Y-85092853D01*
X111920243Y-85029299D01*
X111925374Y-85023377D01*
X111925374Y-85023375D01*
X111925377Y-85023373D01*
X111985165Y-84892457D01*
X112005647Y-84750000D01*
X112001954Y-84724314D01*
X112011898Y-84655156D01*
X112057653Y-84602353D01*
X112124692Y-84582668D01*
X112160685Y-84588007D01*
X112225086Y-84607543D01*
X112238226Y-84611529D01*
X112238228Y-84611530D01*
X112255198Y-84613201D01*
X112427500Y-84630172D01*
X112616771Y-84611530D01*
X112798769Y-84556322D01*
X112966499Y-84466669D01*
X113113515Y-84346015D01*
X113234169Y-84198999D01*
X113323822Y-84031269D01*
X113379030Y-83849271D01*
X113397672Y-83660000D01*
X113379030Y-83470729D01*
X113323822Y-83288731D01*
X113234169Y-83121001D01*
X113160373Y-83031081D01*
X113113515Y-82973984D01*
X112966500Y-82853332D01*
X112966499Y-82853331D01*
X112798769Y-82763678D01*
X112616771Y-82708470D01*
X112616769Y-82708469D01*
X112616771Y-82708469D01*
X112427500Y-82689828D01*
X112238230Y-82708469D01*
X112056231Y-82763678D01*
X111888499Y-82853332D01*
X111741484Y-82973984D01*
X111620832Y-83120999D01*
X111531178Y-83288731D01*
X111475969Y-83470730D01*
X111457328Y-83660000D01*
X111475969Y-83849269D01*
X111531179Y-84031271D01*
X111550302Y-84067048D01*
X111564543Y-84135451D01*
X111539542Y-84200695D01*
X111483236Y-84242064D01*
X111440943Y-84249500D01*
X111428036Y-84249500D01*
X111289949Y-84290045D01*
X111176202Y-84363146D01*
X111109162Y-84382830D01*
X111042123Y-84363145D01*
X111021482Y-84346511D01*
X107794971Y-81120000D01*
X111457328Y-81120000D01*
X111475969Y-81309269D01*
X111475970Y-81309271D01*
X111531178Y-81491269D01*
X111603365Y-81626322D01*
X111620832Y-81659000D01*
X111741484Y-81806015D01*
X111820426Y-81870801D01*
X111888501Y-81926669D01*
X112056231Y-82016322D01*
X112238229Y-82071530D01*
X112238228Y-82071530D01*
X112255198Y-82073201D01*
X112427500Y-82090172D01*
X112616771Y-82071530D01*
X112798769Y-82016322D01*
X112966499Y-81926669D01*
X113113515Y-81806015D01*
X113234169Y-81658999D01*
X113323822Y-81491269D01*
X113379030Y-81309271D01*
X113397672Y-81120000D01*
X113379030Y-80930729D01*
X113323822Y-80748731D01*
X113234169Y-80581001D01*
X113197199Y-80535953D01*
X113113515Y-80433984D01*
X112966500Y-80313332D01*
X112966499Y-80313331D01*
X112798769Y-80223678D01*
X112616771Y-80168470D01*
X112616769Y-80168469D01*
X112616771Y-80168469D01*
X112427500Y-80149828D01*
X112238230Y-80168469D01*
X112056231Y-80223678D01*
X111888499Y-80313332D01*
X111741484Y-80433984D01*
X111620832Y-80580999D01*
X111531178Y-80748731D01*
X111475969Y-80930730D01*
X111457328Y-81120000D01*
X107794971Y-81120000D01*
X105254971Y-78580000D01*
X111457328Y-78580000D01*
X111475969Y-78769269D01*
X111475970Y-78769271D01*
X111531178Y-78951269D01*
X111603365Y-79086322D01*
X111620832Y-79119000D01*
X111741484Y-79266015D01*
X111831500Y-79339889D01*
X111888501Y-79386669D01*
X112056231Y-79476322D01*
X112238229Y-79531530D01*
X112238228Y-79531530D01*
X112255198Y-79533201D01*
X112427500Y-79550172D01*
X112616771Y-79531530D01*
X112798769Y-79476322D01*
X112966499Y-79386669D01*
X113113515Y-79266015D01*
X113234169Y-79118999D01*
X113323822Y-78951269D01*
X113379030Y-78769271D01*
X113397672Y-78580000D01*
X113379030Y-78390729D01*
X113323822Y-78208731D01*
X113234169Y-78041001D01*
X113197476Y-77996291D01*
X113113515Y-77893984D01*
X112966500Y-77773332D01*
X112966499Y-77773331D01*
X112798769Y-77683678D01*
X112616771Y-77628470D01*
X112616769Y-77628469D01*
X112616771Y-77628469D01*
X112427500Y-77609828D01*
X112238230Y-77628469D01*
X112056231Y-77683678D01*
X111888499Y-77773332D01*
X111741484Y-77893984D01*
X111620832Y-78040999D01*
X111531178Y-78208731D01*
X111475969Y-78390730D01*
X111457328Y-78580000D01*
X105254971Y-78580000D01*
X102714971Y-76040000D01*
X111457328Y-76040000D01*
X111475969Y-76229269D01*
X111475970Y-76229271D01*
X111531178Y-76411269D01*
X111603365Y-76546322D01*
X111620832Y-76579000D01*
X111741484Y-76726015D01*
X111843791Y-76809976D01*
X111888501Y-76846669D01*
X112056231Y-76936322D01*
X112238229Y-76991530D01*
X112238228Y-76991530D01*
X112255198Y-76993201D01*
X112427500Y-77010172D01*
X112616771Y-76991530D01*
X112798769Y-76936322D01*
X112966499Y-76846669D01*
X113113515Y-76726015D01*
X113234169Y-76578999D01*
X113323822Y-76411269D01*
X113379030Y-76229271D01*
X113397672Y-76040000D01*
X113379030Y-75850729D01*
X113323822Y-75668731D01*
X113234169Y-75501001D01*
X113168662Y-75421181D01*
X113113515Y-75353984D01*
X112988853Y-75251677D01*
X112966499Y-75233331D01*
X112798769Y-75143678D01*
X112616771Y-75088470D01*
X112616769Y-75088469D01*
X112616771Y-75088469D01*
X112427500Y-75069828D01*
X112238230Y-75088469D01*
X112056231Y-75143678D01*
X111888499Y-75233332D01*
X111741484Y-75353984D01*
X111620832Y-75500999D01*
X111531178Y-75668731D01*
X111475969Y-75850730D01*
X111457328Y-76040000D01*
X102714971Y-76040000D01*
X100174971Y-73500000D01*
X111457328Y-73500000D01*
X111475969Y-73689269D01*
X111504121Y-73782074D01*
X111531178Y-73871269D01*
X111620830Y-74038997D01*
X111620832Y-74039000D01*
X111741484Y-74186015D01*
X111826632Y-74255894D01*
X111888501Y-74306669D01*
X112056231Y-74396322D01*
X112238229Y-74451530D01*
X112238228Y-74451530D01*
X112255198Y-74453201D01*
X112427500Y-74470172D01*
X112616771Y-74451530D01*
X112798769Y-74396322D01*
X112966499Y-74306669D01*
X113113515Y-74186015D01*
X113234169Y-74038999D01*
X113323822Y-73871269D01*
X113379030Y-73689271D01*
X113397672Y-73500000D01*
X113379030Y-73310729D01*
X113323822Y-73128731D01*
X113234169Y-72961001D01*
X113172873Y-72886312D01*
X113113515Y-72813984D01*
X112966500Y-72693332D01*
X112966499Y-72693331D01*
X112798769Y-72603678D01*
X112616771Y-72548470D01*
X112616769Y-72548469D01*
X112616771Y-72548469D01*
X112427500Y-72529828D01*
X112238230Y-72548469D01*
X112056231Y-72603678D01*
X111888499Y-72693332D01*
X111741484Y-72813984D01*
X111620832Y-72960999D01*
X111531178Y-73128731D01*
X111475969Y-73310730D01*
X111457328Y-73500000D01*
X100174971Y-73500000D01*
X99934512Y-73259541D01*
X99934507Y-73259537D01*
X99912505Y-73246834D01*
X99912503Y-73246834D01*
X99886498Y-73231820D01*
X99865990Y-73219979D01*
X99840513Y-73213152D01*
X99789562Y-73199500D01*
X99789560Y-73199500D01*
X88035971Y-73199500D01*
X87968932Y-73179815D01*
X87926612Y-73133952D01*
X87923822Y-73128733D01*
X87923822Y-73128731D01*
X87834169Y-72961001D01*
X87834168Y-72960999D01*
X87713515Y-72813984D01*
X87566500Y-72693332D01*
X87566499Y-72693331D01*
X87398769Y-72603678D01*
X87216771Y-72548470D01*
X87216769Y-72548469D01*
X87216771Y-72548469D01*
X87027500Y-72529828D01*
X86838230Y-72548469D01*
X86656231Y-72603678D01*
X86488499Y-72693332D01*
X86341484Y-72813984D01*
X86220832Y-72960999D01*
X86131178Y-73128731D01*
X86075969Y-73310730D01*
X86057328Y-73500000D01*
X83500500Y-73500000D01*
X83500500Y-70960000D01*
X86007589Y-70960000D01*
X86027185Y-71158972D01*
X86085227Y-71350308D01*
X86179471Y-71526626D01*
X86179475Y-71526632D01*
X86226631Y-71584092D01*
X86589448Y-71221274D01*
X86619398Y-71273147D01*
X86714353Y-71368102D01*
X86766224Y-71398050D01*
X86403406Y-71760867D01*
X86403407Y-71760868D01*
X86460866Y-71808023D01*
X86460873Y-71808028D01*
X86637191Y-71902272D01*
X86828527Y-71960314D01*
X87027500Y-71979910D01*
X87226472Y-71960314D01*
X87417806Y-71902273D01*
X87594130Y-71808025D01*
X87594133Y-71808023D01*
X87651591Y-71760868D01*
X87651591Y-71760867D01*
X87288775Y-71398050D01*
X87340647Y-71368102D01*
X87435602Y-71273147D01*
X87465550Y-71221274D01*
X87828367Y-71584091D01*
X87828368Y-71584091D01*
X87875523Y-71526633D01*
X87875525Y-71526630D01*
X87969773Y-71350306D01*
X88027814Y-71158972D01*
X88047410Y-70960000D01*
X111457328Y-70960000D01*
X111475969Y-71149269D01*
X111484050Y-71175907D01*
X111531178Y-71331269D01*
X111620831Y-71498999D01*
X111620832Y-71499000D01*
X111741484Y-71646015D01*
X111843791Y-71729976D01*
X111888501Y-71766669D01*
X112056231Y-71856322D01*
X112238229Y-71911530D01*
X112238228Y-71911530D01*
X112255198Y-71913201D01*
X112427500Y-71930172D01*
X112616771Y-71911530D01*
X112798769Y-71856322D01*
X112966499Y-71766669D01*
X113113515Y-71646015D01*
X113234169Y-71498999D01*
X113323822Y-71331269D01*
X113379030Y-71149271D01*
X113397672Y-70960000D01*
X113379030Y-70770729D01*
X113323822Y-70588731D01*
X113234169Y-70421001D01*
X113164333Y-70335906D01*
X113113515Y-70273984D01*
X112966500Y-70153332D01*
X112966499Y-70153331D01*
X112798769Y-70063678D01*
X112616771Y-70008470D01*
X112616769Y-70008469D01*
X112616771Y-70008469D01*
X112427500Y-69989828D01*
X112238230Y-70008469D01*
X112056231Y-70063678D01*
X111888499Y-70153332D01*
X111741484Y-70273984D01*
X111620832Y-70420999D01*
X111531178Y-70588731D01*
X111475969Y-70770730D01*
X111457328Y-70960000D01*
X88047410Y-70960000D01*
X88027814Y-70761027D01*
X87969772Y-70569691D01*
X87875528Y-70393373D01*
X87875523Y-70393366D01*
X87828368Y-70335907D01*
X87828367Y-70335906D01*
X87465550Y-70698724D01*
X87435602Y-70646853D01*
X87340647Y-70551898D01*
X87288774Y-70521949D01*
X87651592Y-70159131D01*
X87651592Y-70159130D01*
X87594132Y-70111975D01*
X87594126Y-70111971D01*
X87417808Y-70017727D01*
X87226472Y-69959685D01*
X87027500Y-69940089D01*
X86828527Y-69959685D01*
X86637191Y-70017727D01*
X86460874Y-70111970D01*
X86460862Y-70111979D01*
X86403407Y-70159129D01*
X86403407Y-70159132D01*
X86766225Y-70521949D01*
X86714353Y-70551898D01*
X86619398Y-70646853D01*
X86589449Y-70698724D01*
X86226632Y-70335907D01*
X86226629Y-70335907D01*
X86179479Y-70393362D01*
X86179470Y-70393374D01*
X86085227Y-70569691D01*
X86027185Y-70761027D01*
X86007589Y-70960000D01*
X83500500Y-70960000D01*
X83500500Y-68420000D01*
X86057328Y-68420000D01*
X86075969Y-68609269D01*
X86075970Y-68609271D01*
X86131178Y-68791269D01*
X86220831Y-68958999D01*
X86220832Y-68959000D01*
X86341484Y-69106015D01*
X86443791Y-69189976D01*
X86488501Y-69226669D01*
X86656231Y-69316322D01*
X86838229Y-69371530D01*
X86838228Y-69371530D01*
X86855198Y-69373201D01*
X87027500Y-69390172D01*
X87216771Y-69371530D01*
X87398769Y-69316322D01*
X87566499Y-69226669D01*
X87713515Y-69106015D01*
X87834169Y-68958999D01*
X87923822Y-68791269D01*
X87979030Y-68609271D01*
X87997672Y-68420000D01*
X111457328Y-68420000D01*
X111475969Y-68609269D01*
X111475970Y-68609271D01*
X111531178Y-68791269D01*
X111620831Y-68958999D01*
X111620832Y-68959000D01*
X111741484Y-69106015D01*
X111843791Y-69189976D01*
X111888501Y-69226669D01*
X112056231Y-69316322D01*
X112238229Y-69371530D01*
X112238228Y-69371530D01*
X112255198Y-69373201D01*
X112427500Y-69390172D01*
X112616771Y-69371530D01*
X112798769Y-69316322D01*
X112966499Y-69226669D01*
X113113515Y-69106015D01*
X113234169Y-68958999D01*
X113323822Y-68791269D01*
X113379030Y-68609271D01*
X113397672Y-68420000D01*
X113379030Y-68230729D01*
X113323822Y-68048731D01*
X113234169Y-67881001D01*
X113133892Y-67758814D01*
X113113515Y-67733984D01*
X112966500Y-67613332D01*
X112966499Y-67613331D01*
X112798769Y-67523678D01*
X112616771Y-67468470D01*
X112616769Y-67468469D01*
X112616771Y-67468469D01*
X112427500Y-67449828D01*
X112238230Y-67468469D01*
X112056231Y-67523678D01*
X111888499Y-67613332D01*
X111741484Y-67733984D01*
X111620832Y-67880999D01*
X111531178Y-68048731D01*
X111475969Y-68230730D01*
X111457328Y-68420000D01*
X87997672Y-68420000D01*
X87979030Y-68230729D01*
X87923822Y-68048731D01*
X87834169Y-67881001D01*
X87733892Y-67758814D01*
X87713515Y-67733984D01*
X87566500Y-67613332D01*
X87566499Y-67613331D01*
X87398769Y-67523678D01*
X87216771Y-67468470D01*
X87216769Y-67468469D01*
X87216771Y-67468469D01*
X87027500Y-67449828D01*
X86838230Y-67468469D01*
X86656231Y-67523678D01*
X86488499Y-67613332D01*
X86341484Y-67733984D01*
X86220832Y-67880999D01*
X86131178Y-68048731D01*
X86075969Y-68230730D01*
X86057328Y-68420000D01*
X83500500Y-68420000D01*
X83500500Y-67000000D01*
X135994353Y-67000000D01*
X136014834Y-67142456D01*
X136062582Y-67247008D01*
X136074623Y-67273373D01*
X136168872Y-67382143D01*
X136289947Y-67459953D01*
X136289950Y-67459954D01*
X136289949Y-67459954D01*
X136428036Y-67500499D01*
X136428038Y-67500500D01*
X136428039Y-67500500D01*
X136571962Y-67500500D01*
X136571962Y-67500499D01*
X136710053Y-67459953D01*
X136831128Y-67382143D01*
X136925377Y-67273373D01*
X136985165Y-67142457D01*
X137005647Y-67000000D01*
X136985165Y-66857543D01*
X136925377Y-66726627D01*
X136925375Y-66726625D01*
X136925374Y-66726622D01*
X136830787Y-66617462D01*
X136801762Y-66553906D01*
X136800500Y-66536260D01*
X136800500Y-66005833D01*
X136820185Y-65938794D01*
X136836819Y-65918152D01*
X145364971Y-57390000D01*
X153330089Y-57390000D01*
X153349685Y-57588972D01*
X153407727Y-57780308D01*
X153501971Y-57956626D01*
X153501975Y-57956632D01*
X153549131Y-58014092D01*
X153911949Y-57651274D01*
X153941898Y-57703147D01*
X154036853Y-57798102D01*
X154088724Y-57828050D01*
X153725906Y-58190867D01*
X153725907Y-58190868D01*
X153783366Y-58238023D01*
X153783373Y-58238028D01*
X153959691Y-58332272D01*
X154151027Y-58390314D01*
X154350000Y-58409910D01*
X154548972Y-58390314D01*
X154740306Y-58332273D01*
X154916630Y-58238025D01*
X154916633Y-58238023D01*
X154974091Y-58190868D01*
X154974091Y-58190867D01*
X154611275Y-57828050D01*
X154663147Y-57798102D01*
X154758102Y-57703147D01*
X154788050Y-57651274D01*
X155150867Y-58014091D01*
X155150868Y-58014091D01*
X155198023Y-57956633D01*
X155198025Y-57956630D01*
X155292273Y-57780306D01*
X155350314Y-57588972D01*
X155369910Y-57390000D01*
X155350314Y-57191027D01*
X155292272Y-56999691D01*
X155198028Y-56823373D01*
X155198023Y-56823366D01*
X155150868Y-56765907D01*
X155150867Y-56765906D01*
X154788050Y-57128724D01*
X154758102Y-57076853D01*
X154663147Y-56981898D01*
X154611274Y-56951949D01*
X154974092Y-56589131D01*
X154974092Y-56589130D01*
X154916632Y-56541975D01*
X154916626Y-56541971D01*
X154740308Y-56447727D01*
X154548972Y-56389685D01*
X154350000Y-56370089D01*
X154151027Y-56389685D01*
X153959691Y-56447727D01*
X153783374Y-56541970D01*
X153783362Y-56541979D01*
X153725907Y-56589129D01*
X153725907Y-56589132D01*
X154088725Y-56951949D01*
X154036853Y-56981898D01*
X153941898Y-57076853D01*
X153911949Y-57128724D01*
X153549132Y-56765907D01*
X153549129Y-56765907D01*
X153501979Y-56823362D01*
X153501970Y-56823374D01*
X153407727Y-56999691D01*
X153349685Y-57191027D01*
X153330089Y-57390000D01*
X145364971Y-57390000D01*
X147568152Y-55186819D01*
X147629475Y-55153334D01*
X147655833Y-55150500D01*
X153341529Y-55150500D01*
X153408568Y-55170185D01*
X153450888Y-55216048D01*
X153453677Y-55221266D01*
X153453678Y-55221269D01*
X153489420Y-55288138D01*
X153543329Y-55388997D01*
X153543331Y-55389000D01*
X153663984Y-55536015D01*
X153690108Y-55557454D01*
X153811001Y-55656669D01*
X153978731Y-55746322D01*
X154160729Y-55801530D01*
X154160728Y-55801530D01*
X154177698Y-55803201D01*
X154350000Y-55820172D01*
X154539271Y-55801530D01*
X154721269Y-55746322D01*
X154888999Y-55656669D01*
X155036015Y-55536015D01*
X155156669Y-55388999D01*
X155246322Y-55221269D01*
X155301530Y-55039271D01*
X155320172Y-54850000D01*
X155301530Y-54660729D01*
X155246322Y-54478731D01*
X155156669Y-54311001D01*
X155108956Y-54252863D01*
X155036015Y-54163984D01*
X154889000Y-54043332D01*
X154888999Y-54043331D01*
X154721269Y-53953678D01*
X154539271Y-53898470D01*
X154539269Y-53898469D01*
X154539271Y-53898469D01*
X154350000Y-53879828D01*
X154160730Y-53898469D01*
X153973064Y-53955397D01*
X153903197Y-53956020D01*
X153849388Y-53924417D01*
X153691199Y-53766228D01*
X157174500Y-53766228D01*
X157174500Y-53933771D01*
X157207182Y-54098074D01*
X157207184Y-54098082D01*
X157271295Y-54252860D01*
X157364373Y-54392162D01*
X157482837Y-54510626D01*
X157571667Y-54569980D01*
X157622137Y-54603703D01*
X157776918Y-54667816D01*
X157941228Y-54700499D01*
X157941232Y-54700500D01*
X157941233Y-54700500D01*
X158108768Y-54700500D01*
X158108769Y-54700499D01*
X158273082Y-54667816D01*
X158427863Y-54603703D01*
X158567162Y-54510626D01*
X158685626Y-54392162D01*
X158778703Y-54252863D01*
X158842816Y-54098082D01*
X158875500Y-53933767D01*
X158875500Y-53766233D01*
X158842816Y-53601918D01*
X158778703Y-53447137D01*
X158747537Y-53400494D01*
X158685626Y-53307837D01*
X158567162Y-53189373D01*
X158427860Y-53096295D01*
X158273082Y-53032184D01*
X158273074Y-53032182D01*
X158108771Y-52999500D01*
X158108767Y-52999500D01*
X157941233Y-52999500D01*
X157941228Y-52999500D01*
X157776925Y-53032182D01*
X157776917Y-53032184D01*
X157622139Y-53096295D01*
X157482837Y-53189373D01*
X157364373Y-53307837D01*
X157271295Y-53447139D01*
X157207184Y-53601917D01*
X157207182Y-53601925D01*
X157174500Y-53766228D01*
X153691199Y-53766228D01*
X152234971Y-52310000D01*
X153379828Y-52310000D01*
X153398469Y-52499269D01*
X153398470Y-52499271D01*
X153453678Y-52681269D01*
X153537369Y-52837844D01*
X153543332Y-52849000D01*
X153663984Y-52996015D01*
X153745462Y-53062882D01*
X153811001Y-53116669D01*
X153978731Y-53206322D01*
X154160729Y-53261530D01*
X154160728Y-53261530D01*
X154177698Y-53263201D01*
X154350000Y-53280172D01*
X154539271Y-53261530D01*
X154721269Y-53206322D01*
X154888999Y-53116669D01*
X155036015Y-52996015D01*
X155156669Y-52848999D01*
X155246322Y-52681269D01*
X155301530Y-52499271D01*
X155320172Y-52310000D01*
X155301530Y-52120729D01*
X155246322Y-51938731D01*
X155156669Y-51771001D01*
X155119976Y-51726291D01*
X155036015Y-51623984D01*
X155001587Y-51595730D01*
X158849500Y-51595730D01*
X158849500Y-52904269D01*
X158852353Y-52934699D01*
X158852353Y-52934701D01*
X158886465Y-53032184D01*
X158897207Y-53062882D01*
X158977850Y-53172150D01*
X159087118Y-53252793D01*
X159112087Y-53261530D01*
X159215299Y-53297646D01*
X159245730Y-53300500D01*
X159245734Y-53300500D01*
X160804270Y-53300500D01*
X160834699Y-53297646D01*
X160834701Y-53297646D01*
X160898790Y-53275219D01*
X160962882Y-53252793D01*
X161072150Y-53172150D01*
X161152793Y-53062882D01*
X161178041Y-52990726D01*
X161197646Y-52934701D01*
X161197646Y-52934699D01*
X161200500Y-52904269D01*
X161200500Y-51595730D01*
X161197646Y-51565300D01*
X161197646Y-51565298D01*
X161152793Y-51437119D01*
X161152792Y-51437117D01*
X161072150Y-51327850D01*
X160962882Y-51247207D01*
X160962880Y-51247206D01*
X160834700Y-51202353D01*
X160804270Y-51199500D01*
X160804266Y-51199500D01*
X159245734Y-51199500D01*
X159245730Y-51199500D01*
X159215300Y-51202353D01*
X159215298Y-51202353D01*
X159087119Y-51247206D01*
X159087117Y-51247207D01*
X158977850Y-51327850D01*
X158897207Y-51437117D01*
X158897206Y-51437119D01*
X158852353Y-51565298D01*
X158852353Y-51565300D01*
X158849500Y-51595730D01*
X155001587Y-51595730D01*
X154889000Y-51503332D01*
X154888999Y-51503331D01*
X154721269Y-51413678D01*
X154539271Y-51358470D01*
X154539269Y-51358469D01*
X154539271Y-51358469D01*
X154350000Y-51339828D01*
X154160730Y-51358469D01*
X153978731Y-51413678D01*
X153810999Y-51503332D01*
X153663984Y-51623984D01*
X153543332Y-51770999D01*
X153453678Y-51938731D01*
X153398469Y-52120730D01*
X153379828Y-52310000D01*
X152234971Y-52310000D01*
X149694971Y-49770000D01*
X153379828Y-49770000D01*
X153398469Y-49959269D01*
X153425876Y-50049618D01*
X153453678Y-50141269D01*
X153543331Y-50308999D01*
X153561677Y-50331353D01*
X153663984Y-50456015D01*
X153747047Y-50524183D01*
X153811001Y-50576669D01*
X153978731Y-50666322D01*
X154160729Y-50721530D01*
X154160728Y-50721530D01*
X154177698Y-50723201D01*
X154350000Y-50740172D01*
X154539271Y-50721530D01*
X154721269Y-50666322D01*
X154888999Y-50576669D01*
X155036015Y-50456015D01*
X155156669Y-50308999D01*
X155246322Y-50141269D01*
X155301530Y-49959271D01*
X155320172Y-49770000D01*
X155308011Y-49646530D01*
X158849500Y-49646530D01*
X158849500Y-49853469D01*
X158889868Y-50056412D01*
X158889870Y-50056420D01*
X158969058Y-50247596D01*
X159084024Y-50419657D01*
X159230342Y-50565975D01*
X159230345Y-50565977D01*
X159402402Y-50680941D01*
X159593580Y-50760130D01*
X159796530Y-50800499D01*
X159796534Y-50800500D01*
X159796535Y-50800500D01*
X160253466Y-50800500D01*
X160253467Y-50800499D01*
X160456420Y-50760130D01*
X160647598Y-50680941D01*
X160819655Y-50565977D01*
X160965977Y-50419655D01*
X161080941Y-50247598D01*
X161160130Y-50056420D01*
X161200500Y-49853465D01*
X161200500Y-49646535D01*
X161171353Y-49500000D01*
X164127299Y-49500000D01*
X164147571Y-49705834D01*
X164207613Y-49903766D01*
X164305108Y-50086165D01*
X164305112Y-50086171D01*
X164356641Y-50148960D01*
X164356642Y-50148960D01*
X164824854Y-49680748D01*
X164862300Y-49745606D01*
X164936774Y-49820080D01*
X165001631Y-49857525D01*
X164533417Y-50325737D01*
X164596208Y-50377267D01*
X164596214Y-50377271D01*
X164778613Y-50474766D01*
X164976545Y-50534808D01*
X165182380Y-50555080D01*
X165388214Y-50534808D01*
X165586146Y-50474766D01*
X165768546Y-50377271D01*
X165768553Y-50377267D01*
X165831340Y-50325738D01*
X165831341Y-50325737D01*
X165363129Y-49857525D01*
X165427986Y-49820080D01*
X165502460Y-49745606D01*
X165539905Y-49680749D01*
X166008117Y-50148961D01*
X166008118Y-50148960D01*
X166059647Y-50086173D01*
X166059651Y-50086166D01*
X166157146Y-49903766D01*
X166217188Y-49705834D01*
X166234477Y-49530296D01*
X166245561Y-49502845D01*
X166238903Y-49492484D01*
X166234477Y-49469703D01*
X166217188Y-49294165D01*
X166157146Y-49096233D01*
X166059651Y-48913834D01*
X166059647Y-48913828D01*
X166008117Y-48851037D01*
X165539904Y-49319250D01*
X165502460Y-49254394D01*
X165427986Y-49179920D01*
X165363128Y-49142474D01*
X165831340Y-48674262D01*
X165831340Y-48674261D01*
X165768551Y-48622732D01*
X165768545Y-48622728D01*
X165586146Y-48525233D01*
X165388214Y-48465191D01*
X165182380Y-48444919D01*
X164976545Y-48465191D01*
X164778613Y-48525233D01*
X164596207Y-48622731D01*
X164533418Y-48674260D01*
X164533418Y-48674261D01*
X165001631Y-49142474D01*
X164936774Y-49179920D01*
X164862300Y-49254394D01*
X164824854Y-49319251D01*
X164356641Y-48851038D01*
X164356640Y-48851038D01*
X164305111Y-48913827D01*
X164207613Y-49096233D01*
X164147571Y-49294165D01*
X164127299Y-49500000D01*
X161171353Y-49500000D01*
X161160130Y-49443580D01*
X161080941Y-49252402D01*
X160965977Y-49080345D01*
X160965975Y-49080342D01*
X160819657Y-48934024D01*
X160695457Y-48851037D01*
X160647598Y-48819059D01*
X160456420Y-48739870D01*
X160456412Y-48739868D01*
X160253469Y-48699500D01*
X160253465Y-48699500D01*
X159796535Y-48699500D01*
X159796530Y-48699500D01*
X159593587Y-48739868D01*
X159593579Y-48739870D01*
X159402403Y-48819058D01*
X159230342Y-48934024D01*
X159084024Y-49080342D01*
X158969058Y-49252403D01*
X158889870Y-49443579D01*
X158889868Y-49443587D01*
X158849500Y-49646530D01*
X155308011Y-49646530D01*
X155301530Y-49580729D01*
X155246322Y-49398731D01*
X155156669Y-49231001D01*
X155114748Y-49179920D01*
X155036015Y-49083984D01*
X154889000Y-48963332D01*
X154888999Y-48963331D01*
X154721269Y-48873678D01*
X154539271Y-48818470D01*
X154539269Y-48818469D01*
X154539271Y-48818469D01*
X154350000Y-48799828D01*
X154160730Y-48818469D01*
X153978731Y-48873678D01*
X153810999Y-48963332D01*
X153663984Y-49083984D01*
X153543332Y-49230999D01*
X153453678Y-49398731D01*
X153398469Y-49580730D01*
X153379828Y-49770000D01*
X149694971Y-49770000D01*
X147154971Y-47230000D01*
X153379828Y-47230000D01*
X153398469Y-47419269D01*
X153421960Y-47496709D01*
X153453678Y-47601269D01*
X153531891Y-47747596D01*
X153543332Y-47769000D01*
X153663984Y-47916015D01*
X153766291Y-47999976D01*
X153811001Y-48036669D01*
X153978731Y-48126322D01*
X154160729Y-48181530D01*
X154160728Y-48181530D01*
X154177698Y-48183201D01*
X154350000Y-48200172D01*
X154539271Y-48181530D01*
X154721269Y-48126322D01*
X154888999Y-48036669D01*
X155036015Y-47916015D01*
X155156669Y-47768999D01*
X155246322Y-47601269D01*
X155301530Y-47419271D01*
X155320172Y-47230000D01*
X155311951Y-47146530D01*
X158849500Y-47146530D01*
X158849500Y-47353469D01*
X158889868Y-47556412D01*
X158889870Y-47556420D01*
X158969059Y-47747598D01*
X159026541Y-47833626D01*
X159084024Y-47919657D01*
X159230342Y-48065975D01*
X159230345Y-48065977D01*
X159402402Y-48180941D01*
X159593580Y-48260130D01*
X159740073Y-48289269D01*
X159796530Y-48300499D01*
X159796534Y-48300500D01*
X159796535Y-48300500D01*
X160253466Y-48300500D01*
X160253467Y-48300499D01*
X160456420Y-48260130D01*
X160647598Y-48180941D01*
X160819655Y-48065977D01*
X160965977Y-47919655D01*
X161080941Y-47747598D01*
X161160130Y-47556420D01*
X161200500Y-47353465D01*
X161200500Y-47146535D01*
X161160130Y-46943580D01*
X161080941Y-46752402D01*
X160965977Y-46580345D01*
X160965975Y-46580342D01*
X160819657Y-46434024D01*
X160665298Y-46330886D01*
X160647598Y-46319059D01*
X160631063Y-46312210D01*
X160456420Y-46239870D01*
X160456412Y-46239868D01*
X160253469Y-46199500D01*
X160253465Y-46199500D01*
X159796535Y-46199500D01*
X159796530Y-46199500D01*
X159593587Y-46239868D01*
X159593579Y-46239870D01*
X159402403Y-46319058D01*
X159230342Y-46434024D01*
X159084024Y-46580342D01*
X158969058Y-46752403D01*
X158889870Y-46943579D01*
X158889868Y-46943587D01*
X158849500Y-47146530D01*
X155311951Y-47146530D01*
X155301530Y-47040729D01*
X155246322Y-46858731D01*
X155156669Y-46691001D01*
X155119976Y-46646291D01*
X155036015Y-46543984D01*
X154889000Y-46423332D01*
X154888999Y-46423331D01*
X154721269Y-46333678D01*
X154539271Y-46278470D01*
X154539269Y-46278469D01*
X154539271Y-46278469D01*
X154350000Y-46259828D01*
X154160730Y-46278469D01*
X153978731Y-46333678D01*
X153810999Y-46423332D01*
X153663984Y-46543984D01*
X153543332Y-46690999D01*
X153543331Y-46691001D01*
X153453678Y-46858731D01*
X153438182Y-46909815D01*
X153398469Y-47040730D01*
X153379828Y-47230000D01*
X147154971Y-47230000D01*
X146914512Y-46989541D01*
X146914504Y-46989535D01*
X146866795Y-46961990D01*
X146866795Y-46961991D01*
X146854783Y-46955056D01*
X146845989Y-46949979D01*
X146769562Y-46929500D01*
X146769560Y-46929500D01*
X142658471Y-46929500D01*
X142591432Y-46909815D01*
X142549112Y-46863952D01*
X142546322Y-46858732D01*
X142546322Y-46858731D01*
X142456669Y-46691001D01*
X142456668Y-46690999D01*
X142336015Y-46543984D01*
X142189000Y-46423331D01*
X142188993Y-46423327D01*
X142016047Y-46330886D01*
X141966203Y-46281924D01*
X141950500Y-46221528D01*
X141950500Y-45698471D01*
X141970185Y-45631432D01*
X142016048Y-45589112D01*
X142021266Y-45586322D01*
X142021269Y-45586322D01*
X142188999Y-45496669D01*
X142336015Y-45376015D01*
X142456669Y-45228999D01*
X142546322Y-45061269D01*
X142601530Y-44879271D01*
X142620172Y-44690000D01*
X153379828Y-44690000D01*
X153398469Y-44879269D01*
X153398470Y-44879271D01*
X153453678Y-45061269D01*
X153543331Y-45228999D01*
X153543332Y-45229000D01*
X153663984Y-45376015D01*
X153717160Y-45419655D01*
X153811001Y-45496669D01*
X153978731Y-45586322D01*
X154160729Y-45641530D01*
X154160728Y-45641530D01*
X154177698Y-45643201D01*
X154350000Y-45660172D01*
X154539271Y-45641530D01*
X154721269Y-45586322D01*
X154888999Y-45496669D01*
X155036015Y-45376015D01*
X155156669Y-45228999D01*
X155246322Y-45061269D01*
X155301530Y-44879271D01*
X155320172Y-44690000D01*
X155315890Y-44646530D01*
X158849500Y-44646530D01*
X158849500Y-44853469D01*
X158889868Y-45056412D01*
X158889870Y-45056420D01*
X158969058Y-45247596D01*
X159084024Y-45419657D01*
X159230342Y-45565975D01*
X159230345Y-45565977D01*
X159402402Y-45680941D01*
X159593580Y-45760130D01*
X159796530Y-45800499D01*
X159796534Y-45800500D01*
X159796535Y-45800500D01*
X160253466Y-45800500D01*
X160253467Y-45800499D01*
X160456420Y-45760130D01*
X160647598Y-45680941D01*
X160819655Y-45565977D01*
X160965977Y-45419655D01*
X161080941Y-45247598D01*
X161160130Y-45056420D01*
X161200500Y-44853465D01*
X161200500Y-44646535D01*
X161160130Y-44443580D01*
X161080941Y-44252402D01*
X160965977Y-44080345D01*
X160965975Y-44080342D01*
X160819657Y-43934024D01*
X160658984Y-43826667D01*
X160647598Y-43819059D01*
X160456420Y-43739870D01*
X160456412Y-43739868D01*
X160253469Y-43699500D01*
X160253465Y-43699500D01*
X159796535Y-43699500D01*
X159796530Y-43699500D01*
X159593587Y-43739868D01*
X159593579Y-43739870D01*
X159402403Y-43819058D01*
X159230342Y-43934024D01*
X159084024Y-44080342D01*
X158969058Y-44252403D01*
X158889870Y-44443579D01*
X158889868Y-44443587D01*
X158849500Y-44646530D01*
X155315890Y-44646530D01*
X155301530Y-44500729D01*
X155246322Y-44318731D01*
X155156669Y-44151001D01*
X155098680Y-44080342D01*
X155036015Y-44003984D01*
X154889000Y-43883332D01*
X154888999Y-43883331D01*
X154721269Y-43793678D01*
X154539271Y-43738470D01*
X154539269Y-43738469D01*
X154539271Y-43738469D01*
X154350000Y-43719828D01*
X154160730Y-43738469D01*
X153978731Y-43793678D01*
X153810999Y-43883332D01*
X153663984Y-44003984D01*
X153543332Y-44150999D01*
X153453678Y-44318731D01*
X153398469Y-44500730D01*
X153379828Y-44690000D01*
X142620172Y-44690000D01*
X142601530Y-44500729D01*
X142546322Y-44318731D01*
X142456669Y-44151001D01*
X142398680Y-44080342D01*
X142336015Y-44003984D01*
X142189000Y-43883331D01*
X142188993Y-43883327D01*
X142016047Y-43790886D01*
X141966203Y-43741924D01*
X141950500Y-43681528D01*
X141950500Y-43158471D01*
X141970185Y-43091432D01*
X142016048Y-43049112D01*
X142021266Y-43046322D01*
X142021269Y-43046322D01*
X142188999Y-42956669D01*
X142336015Y-42836015D01*
X142456669Y-42688999D01*
X142546322Y-42521269D01*
X142601530Y-42339271D01*
X142620172Y-42150000D01*
X153330089Y-42150000D01*
X153349685Y-42348972D01*
X153407727Y-42540308D01*
X153501971Y-42716626D01*
X153501975Y-42716632D01*
X153549131Y-42774092D01*
X153911949Y-42411274D01*
X153941898Y-42463147D01*
X154036853Y-42558102D01*
X154088724Y-42588050D01*
X153725906Y-42950867D01*
X153725907Y-42950868D01*
X153783366Y-42998023D01*
X153783373Y-42998028D01*
X153959691Y-43092272D01*
X154151027Y-43150314D01*
X154350000Y-43169910D01*
X154548972Y-43150314D01*
X154740306Y-43092273D01*
X154916630Y-42998025D01*
X154916633Y-42998023D01*
X154974091Y-42950868D01*
X154974091Y-42950867D01*
X154611275Y-42588050D01*
X154663147Y-42558102D01*
X154758102Y-42463147D01*
X154788050Y-42411274D01*
X155150867Y-42774091D01*
X155150868Y-42774091D01*
X155198023Y-42716633D01*
X155198025Y-42716630D01*
X155292273Y-42540306D01*
X155350314Y-42348972D01*
X155369910Y-42150000D01*
X155350314Y-41951027D01*
X155292272Y-41759691D01*
X155198028Y-41583373D01*
X155198023Y-41583366D01*
X155150868Y-41525907D01*
X155150867Y-41525906D01*
X154788050Y-41888724D01*
X154758102Y-41836853D01*
X154663147Y-41741898D01*
X154611274Y-41711949D01*
X154974092Y-41349131D01*
X154974092Y-41349130D01*
X154916632Y-41301975D01*
X154916626Y-41301971D01*
X154740308Y-41207727D01*
X154548972Y-41149685D01*
X154350000Y-41130089D01*
X154151027Y-41149685D01*
X153959691Y-41207727D01*
X153783374Y-41301970D01*
X153783362Y-41301979D01*
X153725907Y-41349129D01*
X153725907Y-41349132D01*
X154088725Y-41711949D01*
X154036853Y-41741898D01*
X153941898Y-41836853D01*
X153911949Y-41888724D01*
X153549132Y-41525907D01*
X153549129Y-41525907D01*
X153501979Y-41583362D01*
X153501970Y-41583374D01*
X153407727Y-41759691D01*
X153349685Y-41951027D01*
X153330089Y-42150000D01*
X142620172Y-42150000D01*
X142601530Y-41960729D01*
X142546322Y-41778731D01*
X142456669Y-41611001D01*
X142386833Y-41525906D01*
X142336015Y-41463984D01*
X142189000Y-41343332D01*
X142188999Y-41343331D01*
X142021269Y-41253678D01*
X141839271Y-41198470D01*
X141839269Y-41198469D01*
X141839271Y-41198469D01*
X141650000Y-41179828D01*
X141460730Y-41198469D01*
X141278731Y-41253678D01*
X141110999Y-41343332D01*
X140963984Y-41463984D01*
X140843332Y-41610999D01*
X140753678Y-41778731D01*
X140698469Y-41960730D01*
X140679828Y-42150000D01*
X140698469Y-42339269D01*
X140729638Y-42442020D01*
X140753678Y-42521269D01*
X140827831Y-42660000D01*
X140843332Y-42689000D01*
X140963984Y-42836015D01*
X141110999Y-42956668D01*
X141111002Y-42956670D01*
X141182188Y-42994719D01*
X141278731Y-43046322D01*
X141278733Y-43046322D01*
X141283952Y-43049112D01*
X141333797Y-43098074D01*
X141349500Y-43158471D01*
X141349500Y-43681528D01*
X141329815Y-43748567D01*
X141283953Y-43790886D01*
X141111006Y-43883327D01*
X141110999Y-43883331D01*
X140963984Y-44003984D01*
X140843332Y-44150999D01*
X140753678Y-44318731D01*
X140698469Y-44500730D01*
X140679828Y-44690000D01*
X140698469Y-44879269D01*
X140698470Y-44879271D01*
X140753678Y-45061269D01*
X140843331Y-45228999D01*
X140843332Y-45229000D01*
X140963984Y-45376015D01*
X141110999Y-45496668D01*
X141111002Y-45496670D01*
X141182188Y-45534719D01*
X141278731Y-45586322D01*
X141278733Y-45586322D01*
X141283952Y-45589112D01*
X141333797Y-45638074D01*
X141349500Y-45698471D01*
X141349500Y-46221528D01*
X141329815Y-46288567D01*
X141283953Y-46330886D01*
X141111006Y-46423327D01*
X141110999Y-46423331D01*
X140963984Y-46543984D01*
X140843332Y-46690999D01*
X140843331Y-46691001D01*
X140753678Y-46858731D01*
X140738182Y-46909815D01*
X140698469Y-47040730D01*
X140679828Y-47230000D01*
X140698469Y-47419269D01*
X140721960Y-47496709D01*
X140753678Y-47601269D01*
X140831891Y-47747596D01*
X140843332Y-47769000D01*
X140963984Y-47916015D01*
X141066291Y-47999976D01*
X141111001Y-48036669D01*
X141278731Y-48126322D01*
X141460729Y-48181530D01*
X141460728Y-48181530D01*
X141477698Y-48183201D01*
X141650000Y-48200172D01*
X141839271Y-48181530D01*
X142021269Y-48126322D01*
X142188999Y-48036669D01*
X142336015Y-47916015D01*
X142456669Y-47768999D01*
X142546322Y-47601269D01*
X142546322Y-47601266D01*
X142549112Y-47596048D01*
X142598074Y-47546203D01*
X142658471Y-47530500D01*
X146554167Y-47530500D01*
X146621206Y-47550185D01*
X146641848Y-47566819D01*
X153412848Y-54337819D01*
X153446333Y-54399142D01*
X153441349Y-54468834D01*
X153399477Y-54524767D01*
X153334013Y-54549184D01*
X153325167Y-54549500D01*
X147440438Y-54549500D01*
X147402224Y-54559739D01*
X147364009Y-54569979D01*
X147364008Y-54569980D01*
X147305601Y-54603701D01*
X147305599Y-54603703D01*
X147295489Y-54609540D01*
X147295486Y-54609542D01*
X136259541Y-65645487D01*
X136259535Y-65645495D01*
X136219982Y-65714004D01*
X136219979Y-65714009D01*
X136199500Y-65790439D01*
X136199500Y-66536260D01*
X136179815Y-66603299D01*
X136169213Y-66617462D01*
X136074625Y-66726622D01*
X136074622Y-66726628D01*
X136014834Y-66857543D01*
X135994353Y-67000000D01*
X83500500Y-67000000D01*
X83500500Y-65880000D01*
X86057328Y-65880000D01*
X86075969Y-66069269D01*
X86075970Y-66069271D01*
X86131178Y-66251269D01*
X86210409Y-66399500D01*
X86220832Y-66419000D01*
X86341484Y-66566015D01*
X86404654Y-66617857D01*
X86488501Y-66686669D01*
X86656231Y-66776322D01*
X86838229Y-66831530D01*
X86838228Y-66831530D01*
X86855198Y-66833201D01*
X87027500Y-66850172D01*
X87216771Y-66831530D01*
X87398769Y-66776322D01*
X87566499Y-66686669D01*
X87713515Y-66566015D01*
X87834169Y-66418999D01*
X87923822Y-66251269D01*
X87979030Y-66069271D01*
X87997672Y-65880000D01*
X111457328Y-65880000D01*
X111475969Y-66069269D01*
X111475970Y-66069271D01*
X111531178Y-66251269D01*
X111610409Y-66399500D01*
X111620832Y-66419000D01*
X111741484Y-66566015D01*
X111804654Y-66617857D01*
X111888501Y-66686669D01*
X112056231Y-66776322D01*
X112238229Y-66831530D01*
X112238228Y-66831530D01*
X112255198Y-66833201D01*
X112427500Y-66850172D01*
X112616771Y-66831530D01*
X112798769Y-66776322D01*
X112966499Y-66686669D01*
X113113515Y-66566015D01*
X113234169Y-66418999D01*
X113323822Y-66251269D01*
X113379030Y-66069271D01*
X113397672Y-65880000D01*
X113379030Y-65690729D01*
X113323822Y-65508731D01*
X113234169Y-65341001D01*
X113197476Y-65296291D01*
X113113515Y-65193984D01*
X112966500Y-65073332D01*
X112966499Y-65073331D01*
X112798769Y-64983678D01*
X112616771Y-64928470D01*
X112616769Y-64928469D01*
X112616771Y-64928469D01*
X112427500Y-64909828D01*
X112238230Y-64928469D01*
X112056231Y-64983678D01*
X111888499Y-65073332D01*
X111741484Y-65193984D01*
X111620832Y-65340999D01*
X111531178Y-65508731D01*
X111475969Y-65690730D01*
X111457328Y-65880000D01*
X87997672Y-65880000D01*
X87979030Y-65690729D01*
X87923822Y-65508731D01*
X87834169Y-65341001D01*
X87797476Y-65296291D01*
X87713515Y-65193984D01*
X87566500Y-65073332D01*
X87566499Y-65073331D01*
X87398769Y-64983678D01*
X87216771Y-64928470D01*
X87216769Y-64928469D01*
X87216771Y-64928469D01*
X87027500Y-64909828D01*
X86838230Y-64928469D01*
X86656231Y-64983678D01*
X86488499Y-65073332D01*
X86341484Y-65193984D01*
X86220832Y-65340999D01*
X86131178Y-65508731D01*
X86075969Y-65690730D01*
X86057328Y-65880000D01*
X83500500Y-65880000D01*
X83500500Y-63340000D01*
X86057328Y-63340000D01*
X86075969Y-63529269D01*
X86075970Y-63529271D01*
X86131178Y-63711269D01*
X86187225Y-63816126D01*
X86220832Y-63879000D01*
X86341484Y-64026015D01*
X86443791Y-64109976D01*
X86488501Y-64146669D01*
X86656231Y-64236322D01*
X86838229Y-64291530D01*
X86838228Y-64291530D01*
X86855198Y-64293201D01*
X87027500Y-64310172D01*
X87216771Y-64291530D01*
X87398769Y-64236322D01*
X87566499Y-64146669D01*
X87713515Y-64026015D01*
X87834169Y-63878999D01*
X87923822Y-63711269D01*
X87979030Y-63529271D01*
X87997672Y-63340000D01*
X111457328Y-63340000D01*
X111475969Y-63529269D01*
X111475970Y-63529271D01*
X111531178Y-63711269D01*
X111587225Y-63816126D01*
X111620832Y-63879000D01*
X111741484Y-64026015D01*
X111843791Y-64109976D01*
X111888501Y-64146669D01*
X112056231Y-64236322D01*
X112238229Y-64291530D01*
X112238228Y-64291530D01*
X112255198Y-64293201D01*
X112427500Y-64310172D01*
X112616771Y-64291530D01*
X112798769Y-64236322D01*
X112966499Y-64146669D01*
X113113515Y-64026015D01*
X113234169Y-63878999D01*
X113323822Y-63711269D01*
X113379030Y-63529271D01*
X113397672Y-63340000D01*
X113379030Y-63150729D01*
X113323822Y-62968731D01*
X113234169Y-62801001D01*
X113166775Y-62718882D01*
X113113515Y-62653984D01*
X112966500Y-62533332D01*
X112966499Y-62533331D01*
X112798769Y-62443678D01*
X112616771Y-62388470D01*
X112616769Y-62388469D01*
X112616771Y-62388469D01*
X112427500Y-62369828D01*
X112238230Y-62388469D01*
X112056231Y-62443678D01*
X111888499Y-62533332D01*
X111741484Y-62653984D01*
X111620832Y-62800999D01*
X111531178Y-62968731D01*
X111475969Y-63150730D01*
X111457328Y-63340000D01*
X87997672Y-63340000D01*
X87979030Y-63150729D01*
X87923822Y-62968731D01*
X87834169Y-62801001D01*
X87766775Y-62718882D01*
X87713515Y-62653984D01*
X87566500Y-62533332D01*
X87566499Y-62533331D01*
X87398769Y-62443678D01*
X87216771Y-62388470D01*
X87216769Y-62388469D01*
X87216771Y-62388469D01*
X87027500Y-62369828D01*
X86838230Y-62388469D01*
X86656231Y-62443678D01*
X86488499Y-62533332D01*
X86341484Y-62653984D01*
X86220832Y-62800999D01*
X86131178Y-62968731D01*
X86075969Y-63150730D01*
X86057328Y-63340000D01*
X83500500Y-63340000D01*
X83500500Y-60800000D01*
X86057328Y-60800000D01*
X86075969Y-60989269D01*
X86075970Y-60989271D01*
X86131178Y-61171269D01*
X86190405Y-61282075D01*
X86220832Y-61339000D01*
X86341484Y-61486015D01*
X86443791Y-61569976D01*
X86488501Y-61606669D01*
X86656231Y-61696322D01*
X86838229Y-61751530D01*
X86838228Y-61751530D01*
X86855198Y-61753201D01*
X87027500Y-61770172D01*
X87216771Y-61751530D01*
X87398769Y-61696322D01*
X87566499Y-61606669D01*
X87713515Y-61486015D01*
X87834169Y-61338999D01*
X87923822Y-61171269D01*
X87979030Y-60989271D01*
X87997672Y-60800000D01*
X87979030Y-60610729D01*
X87923822Y-60428731D01*
X87834169Y-60261001D01*
X87797476Y-60216291D01*
X87713515Y-60113984D01*
X87581941Y-60006004D01*
X87566499Y-59993331D01*
X87398769Y-59903678D01*
X87216771Y-59848470D01*
X87216769Y-59848469D01*
X87216771Y-59848469D01*
X87027500Y-59829828D01*
X86838230Y-59848469D01*
X86656231Y-59903678D01*
X86488499Y-59993332D01*
X86341484Y-60113984D01*
X86220832Y-60260999D01*
X86131178Y-60428731D01*
X86075969Y-60610730D01*
X86057328Y-60800000D01*
X83500500Y-60800000D01*
X83500500Y-58260000D01*
X86057328Y-58260000D01*
X86075969Y-58449269D01*
X86093300Y-58506402D01*
X86131178Y-58631269D01*
X86149145Y-58664883D01*
X86220832Y-58799000D01*
X86341484Y-58946015D01*
X86382465Y-58979647D01*
X86488501Y-59066669D01*
X86656231Y-59156322D01*
X86838229Y-59211530D01*
X86838228Y-59211530D01*
X86855198Y-59213201D01*
X87027500Y-59230172D01*
X87216771Y-59211530D01*
X87398769Y-59156322D01*
X87566499Y-59066669D01*
X87713515Y-58946015D01*
X87834169Y-58798999D01*
X87923822Y-58631269D01*
X87979030Y-58449271D01*
X87997672Y-58260000D01*
X87979030Y-58070729D01*
X87923822Y-57888731D01*
X87834169Y-57721001D01*
X87724076Y-57586853D01*
X87713515Y-57573984D01*
X87566500Y-57453332D01*
X87566499Y-57453331D01*
X87398769Y-57363678D01*
X87216771Y-57308470D01*
X87216769Y-57308469D01*
X87216771Y-57308469D01*
X87027500Y-57289828D01*
X86838230Y-57308469D01*
X86656231Y-57363678D01*
X86488499Y-57453332D01*
X86341484Y-57573984D01*
X86220832Y-57720999D01*
X86131178Y-57888731D01*
X86075969Y-58070730D01*
X86057328Y-58260000D01*
X83500500Y-58260000D01*
X83500500Y-55720000D01*
X86057328Y-55720000D01*
X86075969Y-55909269D01*
X86075970Y-55909271D01*
X86131178Y-56091269D01*
X86194196Y-56209168D01*
X86220832Y-56259000D01*
X86341484Y-56406015D01*
X86443791Y-56489976D01*
X86488501Y-56526669D01*
X86656231Y-56616322D01*
X86838229Y-56671530D01*
X86838228Y-56671530D01*
X86855198Y-56673201D01*
X87027500Y-56690172D01*
X87216771Y-56671530D01*
X87398769Y-56616322D01*
X87566499Y-56526669D01*
X87713515Y-56406015D01*
X87834169Y-56258999D01*
X87923822Y-56091269D01*
X87979030Y-55909271D01*
X87997672Y-55720000D01*
X87979030Y-55530729D01*
X87923822Y-55348731D01*
X87834169Y-55181001D01*
X87797476Y-55136291D01*
X87713515Y-55033984D01*
X87566500Y-54913332D01*
X87566499Y-54913331D01*
X87398769Y-54823678D01*
X87216771Y-54768470D01*
X87216769Y-54768469D01*
X87216771Y-54768469D01*
X87027500Y-54749828D01*
X86838230Y-54768469D01*
X86656231Y-54823678D01*
X86488499Y-54913332D01*
X86341484Y-55033984D01*
X86220832Y-55180999D01*
X86131178Y-55348731D01*
X86075969Y-55530730D01*
X86057328Y-55720000D01*
X83500500Y-55720000D01*
X83500500Y-49125438D01*
X85662000Y-49125438D01*
X85662000Y-51120700D01*
X85672239Y-51158913D01*
X85682479Y-51197129D01*
X85682481Y-51197132D01*
X85711392Y-51247206D01*
X85711393Y-51247207D01*
X85720093Y-51262277D01*
X85722041Y-51265651D01*
X86047921Y-51591530D01*
X86345902Y-51889511D01*
X86401851Y-51945460D01*
X86401853Y-51945461D01*
X86401857Y-51945464D01*
X86470366Y-51985017D01*
X86470373Y-51985021D01*
X86546800Y-52005500D01*
X86625924Y-52005500D01*
X86737322Y-52005500D01*
X86804361Y-52025185D01*
X86850116Y-52077989D01*
X86860060Y-52147147D01*
X86831035Y-52210703D01*
X86773317Y-52248160D01*
X86656231Y-52283678D01*
X86488499Y-52373332D01*
X86341484Y-52493984D01*
X86220832Y-52640999D01*
X86131178Y-52808731D01*
X86075969Y-52990730D01*
X86057328Y-53180000D01*
X86075969Y-53369269D01*
X86099590Y-53447137D01*
X86131178Y-53551269D01*
X86186754Y-53655245D01*
X86220832Y-53719000D01*
X86341484Y-53866015D01*
X86424045Y-53933771D01*
X86488501Y-53986669D01*
X86656231Y-54076322D01*
X86838229Y-54131530D01*
X86838228Y-54131530D01*
X86855198Y-54133201D01*
X87027500Y-54150172D01*
X87216771Y-54131530D01*
X87398769Y-54076322D01*
X87566499Y-53986669D01*
X87713515Y-53866015D01*
X87834169Y-53718999D01*
X87923822Y-53551269D01*
X87979030Y-53369271D01*
X87997672Y-53180000D01*
X87979030Y-52990729D01*
X87970170Y-52961521D01*
X87969546Y-52891654D01*
X88006793Y-52832541D01*
X88070087Y-52802950D01*
X88139332Y-52812275D01*
X88176511Y-52837844D01*
X95079127Y-59740460D01*
X95138467Y-59774720D01*
X95147646Y-59780020D01*
X95147650Y-59780022D01*
X95224076Y-59800500D01*
X95224078Y-59800500D01*
X111776909Y-59800500D01*
X111843948Y-59820185D01*
X111889703Y-59872989D01*
X111899647Y-59942147D01*
X111870622Y-60005703D01*
X111855574Y-60020353D01*
X111741484Y-60113984D01*
X111620832Y-60260999D01*
X111531178Y-60428731D01*
X111475969Y-60610730D01*
X111457328Y-60800000D01*
X111475969Y-60989269D01*
X111475970Y-60989271D01*
X111531178Y-61171269D01*
X111590405Y-61282075D01*
X111620832Y-61339000D01*
X111741484Y-61486015D01*
X111843791Y-61569976D01*
X111888501Y-61606669D01*
X112056231Y-61696322D01*
X112238229Y-61751530D01*
X112238228Y-61751530D01*
X112255198Y-61753201D01*
X112427500Y-61770172D01*
X112616771Y-61751530D01*
X112798769Y-61696322D01*
X112966499Y-61606669D01*
X113113515Y-61486015D01*
X113234169Y-61338999D01*
X113323822Y-61171269D01*
X113379030Y-60989271D01*
X113397672Y-60800000D01*
X113379030Y-60610729D01*
X113323822Y-60428731D01*
X113234169Y-60261001D01*
X113197476Y-60216291D01*
X113113515Y-60113984D01*
X112993960Y-60015867D01*
X112954626Y-59958121D01*
X112952755Y-59888276D01*
X112988943Y-59828508D01*
X113040528Y-59800241D01*
X113115989Y-59780021D01*
X113184511Y-59740460D01*
X113240460Y-59684511D01*
X115198152Y-57726819D01*
X115259475Y-57693334D01*
X115285833Y-57690500D01*
X122460953Y-57690500D01*
X122527992Y-57710185D01*
X122573747Y-57762989D01*
X122583691Y-57832147D01*
X122554666Y-57895703D01*
X122526230Y-57919927D01*
X122484502Y-57945763D01*
X122324846Y-58091309D01*
X122194657Y-58263706D01*
X122194652Y-58263714D01*
X122098360Y-58457095D01*
X122098357Y-58457101D01*
X122039239Y-58664883D01*
X122039238Y-58664886D01*
X122019306Y-58879999D01*
X122019306Y-58880000D01*
X122039238Y-59095113D01*
X122039239Y-59095116D01*
X122098357Y-59302898D01*
X122098360Y-59302904D01*
X122194652Y-59496285D01*
X122194657Y-59496293D01*
X122324846Y-59668690D01*
X122324847Y-59668691D01*
X122484499Y-59814234D01*
X122668177Y-59927962D01*
X122869624Y-60006004D01*
X123081982Y-60045700D01*
X123081985Y-60045700D01*
X123298015Y-60045700D01*
X123298018Y-60045700D01*
X123510376Y-60006004D01*
X123711823Y-59927962D01*
X123895501Y-59814234D01*
X124055153Y-59668691D01*
X124185344Y-59496291D01*
X124281640Y-59302903D01*
X124340734Y-59095206D01*
X124378013Y-59036116D01*
X124441322Y-59006558D01*
X124510562Y-59015920D01*
X124563748Y-59061229D01*
X124579264Y-59095203D01*
X124638359Y-59302898D01*
X124638361Y-59302906D01*
X124734652Y-59496285D01*
X124734657Y-59496293D01*
X124864846Y-59668690D01*
X124864847Y-59668691D01*
X125024499Y-59814234D01*
X125208177Y-59927962D01*
X125409624Y-60006004D01*
X125621982Y-60045700D01*
X125621985Y-60045700D01*
X125838015Y-60045700D01*
X125838018Y-60045700D01*
X126050376Y-60006004D01*
X126251823Y-59927962D01*
X126435501Y-59814234D01*
X126595153Y-59668691D01*
X126725344Y-59496291D01*
X126821640Y-59302903D01*
X126880734Y-59095206D01*
X126918013Y-59036116D01*
X126981322Y-59006558D01*
X127050562Y-59015920D01*
X127103748Y-59061229D01*
X127119264Y-59095203D01*
X127178359Y-59302898D01*
X127178361Y-59302906D01*
X127274652Y-59496285D01*
X127274657Y-59496293D01*
X127404846Y-59668690D01*
X127404847Y-59668691D01*
X127564499Y-59814234D01*
X127748177Y-59927962D01*
X127949624Y-60006004D01*
X128161982Y-60045700D01*
X128161985Y-60045700D01*
X128378015Y-60045700D01*
X128378018Y-60045700D01*
X128590376Y-60006004D01*
X128791823Y-59927962D01*
X128975501Y-59814234D01*
X129135153Y-59668691D01*
X129265344Y-59496291D01*
X129361640Y-59302903D01*
X129420734Y-59095206D01*
X129458013Y-59036116D01*
X129521322Y-59006558D01*
X129590562Y-59015920D01*
X129643748Y-59061229D01*
X129659264Y-59095203D01*
X129718359Y-59302898D01*
X129718361Y-59302906D01*
X129814652Y-59496285D01*
X129814657Y-59496293D01*
X129944846Y-59668690D01*
X129944847Y-59668691D01*
X130104499Y-59814234D01*
X130288177Y-59927962D01*
X130489624Y-60006004D01*
X130701982Y-60045700D01*
X130701985Y-60045700D01*
X130918015Y-60045700D01*
X130918018Y-60045700D01*
X131130376Y-60006004D01*
X131331823Y-59927962D01*
X131515501Y-59814234D01*
X131675153Y-59668691D01*
X131805344Y-59496291D01*
X131901640Y-59302903D01*
X131901640Y-59302900D01*
X131901642Y-59302898D01*
X131935493Y-59183920D01*
X131960761Y-59095114D01*
X131980694Y-58880000D01*
X131960761Y-58664886D01*
X131917087Y-58511386D01*
X131901642Y-58457101D01*
X131901639Y-58457095D01*
X131805347Y-58263714D01*
X131805342Y-58263706D01*
X131675153Y-58091309D01*
X131652578Y-58070729D01*
X131515501Y-57945766D01*
X131515498Y-57945764D01*
X131515497Y-57945763D01*
X131473770Y-57919927D01*
X131427134Y-57867899D01*
X131416030Y-57798918D01*
X131443983Y-57734883D01*
X131502118Y-57696127D01*
X131539047Y-57690500D01*
X140641529Y-57690500D01*
X140708568Y-57710185D01*
X140750888Y-57756048D01*
X140753677Y-57761266D01*
X140753678Y-57761269D01*
X140773366Y-57798102D01*
X140843329Y-57928997D01*
X140843331Y-57929000D01*
X140963984Y-58076015D01*
X141066291Y-58159976D01*
X141111001Y-58196669D01*
X141278731Y-58286322D01*
X141460729Y-58341530D01*
X141460728Y-58341530D01*
X141477698Y-58343201D01*
X141650000Y-58360172D01*
X141839271Y-58341530D01*
X142021269Y-58286322D01*
X142188999Y-58196669D01*
X142336015Y-58076015D01*
X142456669Y-57928999D01*
X142546322Y-57761269D01*
X142601530Y-57579271D01*
X142620172Y-57390000D01*
X142601530Y-57200729D01*
X142546322Y-57018731D01*
X142456669Y-56851001D01*
X142386833Y-56765906D01*
X142336015Y-56703984D01*
X142189000Y-56583332D01*
X142188999Y-56583331D01*
X142021269Y-56493678D01*
X141839271Y-56438470D01*
X141839269Y-56438469D01*
X141839271Y-56438469D01*
X141650000Y-56419828D01*
X141460730Y-56438469D01*
X141278731Y-56493678D01*
X141110999Y-56583332D01*
X140963984Y-56703984D01*
X140843331Y-56850999D01*
X140843329Y-56851002D01*
X140779754Y-56969944D01*
X140753678Y-57018731D01*
X140753677Y-57018733D01*
X140750888Y-57023952D01*
X140701926Y-57073797D01*
X140641529Y-57089500D01*
X115070438Y-57089500D01*
X114994010Y-57109978D01*
X114925489Y-57149540D01*
X114925486Y-57149542D01*
X113597127Y-58477901D01*
X113535804Y-58511386D01*
X113466112Y-58506402D01*
X113410179Y-58464530D01*
X113385762Y-58399066D01*
X113386043Y-58378065D01*
X113397672Y-58260000D01*
X113379030Y-58070729D01*
X113323822Y-57888731D01*
X113234169Y-57721001D01*
X113124076Y-57586853D01*
X113113515Y-57573984D01*
X112966500Y-57453332D01*
X112966499Y-57453331D01*
X112798769Y-57363678D01*
X112616771Y-57308470D01*
X112616769Y-57308469D01*
X112616771Y-57308469D01*
X112427500Y-57289828D01*
X112238230Y-57308469D01*
X112056231Y-57363678D01*
X111888499Y-57453332D01*
X111741484Y-57573984D01*
X111620832Y-57720999D01*
X111531178Y-57888731D01*
X111475969Y-58070730D01*
X111457328Y-58260000D01*
X111475969Y-58449269D01*
X111493300Y-58506402D01*
X111531178Y-58631269D01*
X111549145Y-58664883D01*
X111620832Y-58799000D01*
X111741484Y-58946015D01*
X111782465Y-58979647D01*
X111821799Y-59037392D01*
X111823670Y-59107237D01*
X111787482Y-59167005D01*
X111724727Y-59197721D01*
X111703800Y-59199500D01*
X95439471Y-59199500D01*
X95372432Y-59179815D01*
X95351790Y-59163181D01*
X91200790Y-55012181D01*
X91167305Y-54950858D01*
X91172289Y-54881166D01*
X91214161Y-54825233D01*
X91279625Y-54800816D01*
X91288471Y-54800500D01*
X111679430Y-54800500D01*
X111746469Y-54820185D01*
X111792224Y-54872989D01*
X111802168Y-54942147D01*
X111773143Y-55005703D01*
X111758095Y-55020353D01*
X111741484Y-55033984D01*
X111620832Y-55180999D01*
X111531178Y-55348731D01*
X111475969Y-55530730D01*
X111457328Y-55720000D01*
X111475969Y-55909269D01*
X111475970Y-55909271D01*
X111531178Y-56091269D01*
X111594196Y-56209168D01*
X111620832Y-56259000D01*
X111741484Y-56406015D01*
X111843791Y-56489976D01*
X111888501Y-56526669D01*
X112056231Y-56616322D01*
X112238229Y-56671530D01*
X112238228Y-56671530D01*
X112255198Y-56673201D01*
X112427500Y-56690172D01*
X112616771Y-56671530D01*
X112798769Y-56616322D01*
X112966499Y-56526669D01*
X113113515Y-56406015D01*
X113234169Y-56258999D01*
X113323822Y-56091269D01*
X113379030Y-55909271D01*
X113397672Y-55720000D01*
X113379030Y-55530729D01*
X113323822Y-55348731D01*
X113234169Y-55181001D01*
X113197476Y-55136291D01*
X113113515Y-55033984D01*
X113096905Y-55020353D01*
X113057571Y-54962608D01*
X113055700Y-54892763D01*
X113091887Y-54832995D01*
X113154643Y-54802279D01*
X113175570Y-54800500D01*
X140562566Y-54800500D01*
X140629605Y-54820185D01*
X140675360Y-54872989D01*
X140685969Y-54912346D01*
X140698469Y-55039269D01*
X140698470Y-55039271D01*
X140753678Y-55221269D01*
X140843330Y-55388997D01*
X140843332Y-55389000D01*
X140963984Y-55536015D01*
X140990108Y-55557454D01*
X141111001Y-55656669D01*
X141278731Y-55746322D01*
X141460729Y-55801530D01*
X141460728Y-55801530D01*
X141477698Y-55803201D01*
X141650000Y-55820172D01*
X141839271Y-55801530D01*
X142021269Y-55746322D01*
X142188999Y-55656669D01*
X142336015Y-55536015D01*
X142456669Y-55388999D01*
X142546322Y-55221269D01*
X142601530Y-55039271D01*
X142620172Y-54850000D01*
X142601530Y-54660729D01*
X142546322Y-54478731D01*
X142456669Y-54311001D01*
X142408956Y-54252863D01*
X142336015Y-54163984D01*
X142189000Y-54043332D01*
X142188999Y-54043331D01*
X142021269Y-53953678D01*
X141839271Y-53898470D01*
X141839269Y-53898469D01*
X141839271Y-53898469D01*
X141650000Y-53879828D01*
X141460730Y-53898469D01*
X141278731Y-53953678D01*
X141110999Y-54043332D01*
X140959276Y-54167849D01*
X140958336Y-54166703D01*
X140903465Y-54196666D01*
X140877107Y-54199500D01*
X113131745Y-54199500D01*
X113064706Y-54179815D01*
X113018951Y-54127011D01*
X113009007Y-54057853D01*
X113038032Y-53994297D01*
X113051579Y-53981107D01*
X113051591Y-53980867D01*
X112688775Y-53618050D01*
X112740647Y-53588102D01*
X112835602Y-53493147D01*
X112865550Y-53441274D01*
X113228367Y-53804091D01*
X113228368Y-53804091D01*
X113275523Y-53746633D01*
X113275525Y-53746630D01*
X113369773Y-53570306D01*
X113427814Y-53378972D01*
X113447410Y-53180000D01*
X113427814Y-52981027D01*
X113369772Y-52789691D01*
X113275528Y-52613373D01*
X113275523Y-52613366D01*
X113228368Y-52555907D01*
X113228367Y-52555906D01*
X112865550Y-52918724D01*
X112835602Y-52866853D01*
X112740647Y-52771898D01*
X112688774Y-52741949D01*
X113051592Y-52379131D01*
X113051592Y-52379130D01*
X112994132Y-52331975D01*
X112994126Y-52331971D01*
X112953021Y-52310000D01*
X140679828Y-52310000D01*
X140698469Y-52499269D01*
X140698470Y-52499271D01*
X140753678Y-52681269D01*
X140837369Y-52837844D01*
X140843332Y-52849000D01*
X140963984Y-52996015D01*
X141045462Y-53062882D01*
X141111001Y-53116669D01*
X141278731Y-53206322D01*
X141460729Y-53261530D01*
X141460728Y-53261530D01*
X141477698Y-53263201D01*
X141650000Y-53280172D01*
X141839271Y-53261530D01*
X142021269Y-53206322D01*
X142188999Y-53116669D01*
X142336015Y-52996015D01*
X142456669Y-52848999D01*
X142546322Y-52681269D01*
X142601530Y-52499271D01*
X142620172Y-52310000D01*
X142601530Y-52120729D01*
X142546322Y-51938731D01*
X142456669Y-51771001D01*
X142419976Y-51726291D01*
X142336015Y-51623984D01*
X142189000Y-51503332D01*
X142188999Y-51503331D01*
X142021269Y-51413678D01*
X141839271Y-51358470D01*
X141839269Y-51358469D01*
X141839271Y-51358469D01*
X141650000Y-51339828D01*
X141460730Y-51358469D01*
X141278731Y-51413678D01*
X141110999Y-51503332D01*
X140963984Y-51623984D01*
X140843332Y-51770999D01*
X140753678Y-51938731D01*
X140698469Y-52120730D01*
X140679828Y-52310000D01*
X112953021Y-52310000D01*
X112817808Y-52237727D01*
X112626472Y-52179685D01*
X112427500Y-52160089D01*
X112228527Y-52179685D01*
X112037191Y-52237727D01*
X111860874Y-52331970D01*
X111860862Y-52331979D01*
X111803407Y-52379129D01*
X111803407Y-52379132D01*
X112166225Y-52741949D01*
X112114353Y-52771898D01*
X112019398Y-52866853D01*
X111989449Y-52918724D01*
X111626632Y-52555907D01*
X111626629Y-52555907D01*
X111579479Y-52613362D01*
X111579470Y-52613374D01*
X111485227Y-52789691D01*
X111427185Y-52981027D01*
X111407589Y-53180000D01*
X111427185Y-53378972D01*
X111485227Y-53570308D01*
X111579471Y-53746626D01*
X111579475Y-53746632D01*
X111626631Y-53804092D01*
X111989449Y-53441274D01*
X112019398Y-53493147D01*
X112114353Y-53588102D01*
X112166224Y-53618050D01*
X111803406Y-53980867D01*
X111803458Y-53981907D01*
X111841252Y-54037393D01*
X111843123Y-54107237D01*
X111806935Y-54167006D01*
X111744179Y-54197721D01*
X111723253Y-54199500D01*
X91063333Y-54199500D01*
X90996294Y-54179815D01*
X90975652Y-54163181D01*
X87953082Y-51140611D01*
X87919597Y-51079288D01*
X87922102Y-51016934D01*
X87923818Y-51011275D01*
X87923822Y-51011269D01*
X87979030Y-50829271D01*
X87997672Y-50640000D01*
X111457328Y-50640000D01*
X111475969Y-50829269D01*
X111475970Y-50829271D01*
X111531178Y-51011269D01*
X111620831Y-51178999D01*
X111620832Y-51179000D01*
X111741484Y-51326015D01*
X111781031Y-51358470D01*
X111888501Y-51446669D01*
X112056231Y-51536322D01*
X112238229Y-51591530D01*
X112238228Y-51591530D01*
X112255198Y-51593201D01*
X112427500Y-51610172D01*
X112616771Y-51591530D01*
X112798769Y-51536322D01*
X112966499Y-51446669D01*
X113113515Y-51326015D01*
X113234169Y-51178999D01*
X113323822Y-51011269D01*
X113379030Y-50829271D01*
X113397672Y-50640000D01*
X113379030Y-50450729D01*
X113323822Y-50268731D01*
X113234169Y-50101001D01*
X113119138Y-49960836D01*
X113113515Y-49953984D01*
X112966500Y-49833332D01*
X112966499Y-49833331D01*
X112848014Y-49770000D01*
X140679828Y-49770000D01*
X140698469Y-49959269D01*
X140725876Y-50049618D01*
X140753678Y-50141269D01*
X140843331Y-50308999D01*
X140861677Y-50331353D01*
X140963984Y-50456015D01*
X141047047Y-50524183D01*
X141111001Y-50576669D01*
X141278731Y-50666322D01*
X141460729Y-50721530D01*
X141460728Y-50721530D01*
X141477698Y-50723201D01*
X141650000Y-50740172D01*
X141839271Y-50721530D01*
X142021269Y-50666322D01*
X142188999Y-50576669D01*
X142336015Y-50456015D01*
X142456669Y-50308999D01*
X142546322Y-50141269D01*
X142601530Y-49959271D01*
X142620172Y-49770000D01*
X142601530Y-49580729D01*
X142546322Y-49398731D01*
X142456669Y-49231001D01*
X142414748Y-49179920D01*
X142336015Y-49083984D01*
X142189000Y-48963332D01*
X142188999Y-48963331D01*
X142021269Y-48873678D01*
X141839271Y-48818470D01*
X141839269Y-48818469D01*
X141839271Y-48818469D01*
X141650000Y-48799828D01*
X141460730Y-48818469D01*
X141278731Y-48873678D01*
X141110999Y-48963332D01*
X140963984Y-49083984D01*
X140843332Y-49230999D01*
X140753678Y-49398731D01*
X140698469Y-49580730D01*
X140679828Y-49770000D01*
X112848014Y-49770000D01*
X112798769Y-49743678D01*
X112616771Y-49688470D01*
X112616769Y-49688469D01*
X112616771Y-49688469D01*
X112427500Y-49669828D01*
X112238230Y-49688469D01*
X112056231Y-49743678D01*
X111888499Y-49833332D01*
X111741484Y-49953984D01*
X111620832Y-50100999D01*
X111531178Y-50268731D01*
X111475969Y-50450730D01*
X111457328Y-50640000D01*
X87997672Y-50640000D01*
X87979030Y-50450729D01*
X87923822Y-50268731D01*
X87834169Y-50101001D01*
X87719138Y-49960836D01*
X87713515Y-49953984D01*
X87566500Y-49833332D01*
X87566499Y-49833331D01*
X87398769Y-49743678D01*
X87216771Y-49688470D01*
X87216769Y-49688469D01*
X87216771Y-49688469D01*
X87027500Y-49669828D01*
X86838230Y-49688469D01*
X86656231Y-49743678D01*
X86488499Y-49833331D01*
X86465664Y-49852072D01*
X86401353Y-49879384D01*
X86332486Y-49867592D01*
X86280926Y-49820439D01*
X86263000Y-49756218D01*
X86263000Y-49340832D01*
X86282685Y-49273793D01*
X86299315Y-49253155D01*
X86526889Y-49025580D01*
X86588210Y-48992097D01*
X86650563Y-48994602D01*
X86656228Y-48996320D01*
X86656231Y-48996322D01*
X86838229Y-49051530D01*
X86838228Y-49051530D01*
X86855198Y-49053201D01*
X87027500Y-49070172D01*
X87216771Y-49051530D01*
X87398769Y-48996322D01*
X87566499Y-48906669D01*
X87713515Y-48786015D01*
X87834169Y-48638999D01*
X87923822Y-48471269D01*
X87979030Y-48289271D01*
X87997672Y-48100000D01*
X111457328Y-48100000D01*
X111475969Y-48289269D01*
X111475970Y-48289271D01*
X111531178Y-48471269D01*
X111620831Y-48638999D01*
X111620832Y-48639000D01*
X111741484Y-48786015D01*
X111820714Y-48851037D01*
X111888501Y-48906669D01*
X112056231Y-48996322D01*
X112238229Y-49051530D01*
X112238228Y-49051530D01*
X112255198Y-49053201D01*
X112427500Y-49070172D01*
X112616771Y-49051530D01*
X112798769Y-48996322D01*
X112966499Y-48906669D01*
X113113515Y-48786015D01*
X113234169Y-48638999D01*
X113323822Y-48471269D01*
X113379030Y-48289271D01*
X113397672Y-48100000D01*
X113379030Y-47910729D01*
X113323822Y-47728731D01*
X113234169Y-47561001D01*
X113197476Y-47516291D01*
X113113515Y-47413984D01*
X112966500Y-47293332D01*
X112966499Y-47293331D01*
X112798769Y-47203678D01*
X112616771Y-47148470D01*
X112616769Y-47148469D01*
X112616771Y-47148469D01*
X112427500Y-47129828D01*
X112238230Y-47148469D01*
X112056231Y-47203678D01*
X111888499Y-47293332D01*
X111741484Y-47413984D01*
X111620832Y-47560999D01*
X111531178Y-47728731D01*
X111475969Y-47910730D01*
X111457328Y-48100000D01*
X87997672Y-48100000D01*
X87979030Y-47910729D01*
X87923822Y-47728731D01*
X87834169Y-47561001D01*
X87797476Y-47516291D01*
X87713515Y-47413984D01*
X87566500Y-47293332D01*
X87566499Y-47293331D01*
X87398769Y-47203678D01*
X87216771Y-47148470D01*
X87216769Y-47148469D01*
X87216771Y-47148469D01*
X87027500Y-47129828D01*
X86838230Y-47148469D01*
X86656231Y-47203678D01*
X86488499Y-47293332D01*
X86341484Y-47413984D01*
X86220832Y-47560999D01*
X86131178Y-47728731D01*
X86075969Y-47910730D01*
X86057328Y-48100000D01*
X86075969Y-48289269D01*
X86075970Y-48289271D01*
X86131178Y-48471269D01*
X86131179Y-48471271D01*
X86132897Y-48476934D01*
X86133520Y-48546801D01*
X86101917Y-48600610D01*
X85777989Y-48924540D01*
X85722041Y-48980487D01*
X85722035Y-48980495D01*
X85682482Y-49049004D01*
X85682479Y-49049009D01*
X85669826Y-49096233D01*
X85662000Y-49125438D01*
X83500500Y-49125438D01*
X83500500Y-45560000D01*
X86057328Y-45560000D01*
X86075969Y-45749269D01*
X86079264Y-45760130D01*
X86131178Y-45931269D01*
X86220831Y-46098999D01*
X86220832Y-46099000D01*
X86341484Y-46246015D01*
X86443791Y-46329976D01*
X86488501Y-46366669D01*
X86656231Y-46456322D01*
X86838229Y-46511530D01*
X86838228Y-46511530D01*
X86855198Y-46513201D01*
X87027500Y-46530172D01*
X87216771Y-46511530D01*
X87398769Y-46456322D01*
X87566499Y-46366669D01*
X87713515Y-46246015D01*
X87834169Y-46098999D01*
X87923822Y-45931269D01*
X87979030Y-45749271D01*
X87997672Y-45560000D01*
X111457328Y-45560000D01*
X111475969Y-45749269D01*
X111479264Y-45760130D01*
X111531178Y-45931269D01*
X111620831Y-46098999D01*
X111620832Y-46099000D01*
X111741484Y-46246015D01*
X111843791Y-46329976D01*
X111888501Y-46366669D01*
X112056231Y-46456322D01*
X112238229Y-46511530D01*
X112238228Y-46511530D01*
X112255198Y-46513201D01*
X112427500Y-46530172D01*
X112616771Y-46511530D01*
X112798769Y-46456322D01*
X112966499Y-46366669D01*
X113113515Y-46246015D01*
X113234169Y-46098999D01*
X113323822Y-45931269D01*
X113379030Y-45749271D01*
X113397672Y-45560000D01*
X113379030Y-45370729D01*
X113323822Y-45188731D01*
X113234169Y-45021001D01*
X113197476Y-44976291D01*
X113113515Y-44873984D01*
X112966500Y-44753332D01*
X112966499Y-44753331D01*
X112798769Y-44663678D01*
X112616771Y-44608470D01*
X112616769Y-44608469D01*
X112616771Y-44608469D01*
X112427500Y-44589828D01*
X112238230Y-44608469D01*
X112056231Y-44663678D01*
X111888499Y-44753332D01*
X111741484Y-44873984D01*
X111620832Y-45020999D01*
X111531178Y-45188731D01*
X111475969Y-45370730D01*
X111457328Y-45560000D01*
X87997672Y-45560000D01*
X87979030Y-45370729D01*
X87923822Y-45188731D01*
X87834169Y-45021001D01*
X87797476Y-44976291D01*
X87713515Y-44873984D01*
X87566500Y-44753332D01*
X87566499Y-44753331D01*
X87398769Y-44663678D01*
X87216771Y-44608470D01*
X87216769Y-44608469D01*
X87216771Y-44608469D01*
X87027500Y-44589828D01*
X86838230Y-44608469D01*
X86656231Y-44663678D01*
X86488499Y-44753332D01*
X86341484Y-44873984D01*
X86220832Y-45020999D01*
X86131178Y-45188731D01*
X86075969Y-45370730D01*
X86057328Y-45560000D01*
X83500500Y-45560000D01*
X83500500Y-43020000D01*
X86057328Y-43020000D01*
X86075969Y-43209269D01*
X86075970Y-43209271D01*
X86131178Y-43391269D01*
X86220831Y-43558999D01*
X86220832Y-43559000D01*
X86341484Y-43706015D01*
X86393334Y-43748567D01*
X86488501Y-43826669D01*
X86656231Y-43916322D01*
X86838229Y-43971530D01*
X86838228Y-43971530D01*
X86855198Y-43973201D01*
X87027500Y-43990172D01*
X87216771Y-43971530D01*
X87398769Y-43916322D01*
X87566499Y-43826669D01*
X87713515Y-43706015D01*
X87834169Y-43558999D01*
X87923822Y-43391269D01*
X87979030Y-43209271D01*
X87997672Y-43020000D01*
X111457328Y-43020000D01*
X111475969Y-43209269D01*
X111475970Y-43209271D01*
X111531178Y-43391269D01*
X111620831Y-43558999D01*
X111620832Y-43559000D01*
X111741484Y-43706015D01*
X111793334Y-43748567D01*
X111888501Y-43826669D01*
X112056231Y-43916322D01*
X112238229Y-43971530D01*
X112238228Y-43971530D01*
X112255198Y-43973201D01*
X112427500Y-43990172D01*
X112616771Y-43971530D01*
X112798769Y-43916322D01*
X112966499Y-43826669D01*
X113113515Y-43706015D01*
X113234169Y-43558999D01*
X113323822Y-43391269D01*
X113379030Y-43209271D01*
X113397672Y-43020000D01*
X113379030Y-42830729D01*
X113323822Y-42648731D01*
X113234169Y-42481001D01*
X113124076Y-42346853D01*
X113113515Y-42333984D01*
X112966500Y-42213332D01*
X112966499Y-42213331D01*
X112798769Y-42123678D01*
X112616771Y-42068470D01*
X112616769Y-42068469D01*
X112616771Y-42068469D01*
X112427500Y-42049828D01*
X112238230Y-42068469D01*
X112056231Y-42123678D01*
X111888499Y-42213332D01*
X111741484Y-42333984D01*
X111620832Y-42480999D01*
X111531178Y-42648731D01*
X111475969Y-42830730D01*
X111457328Y-43020000D01*
X87997672Y-43020000D01*
X87979030Y-42830729D01*
X87923822Y-42648731D01*
X87834169Y-42481001D01*
X87724076Y-42346853D01*
X87713515Y-42333984D01*
X87566500Y-42213332D01*
X87566499Y-42213331D01*
X87398769Y-42123678D01*
X87216771Y-42068470D01*
X87216769Y-42068469D01*
X87216771Y-42068469D01*
X87027500Y-42049828D01*
X86838230Y-42068469D01*
X86656231Y-42123678D01*
X86488499Y-42213332D01*
X86341484Y-42333984D01*
X86220832Y-42480999D01*
X86131178Y-42648731D01*
X86075969Y-42830730D01*
X86057328Y-43020000D01*
X83500500Y-43020000D01*
X83500500Y-41003750D01*
X83500726Y-40996263D01*
X83509496Y-40851269D01*
X83518271Y-40706201D01*
X83520076Y-40691340D01*
X83524121Y-40669271D01*
X83558805Y-40480000D01*
X86057328Y-40480000D01*
X86075969Y-40669269D01*
X86092130Y-40722545D01*
X86131178Y-40851269D01*
X86220831Y-41018999D01*
X86220832Y-41019000D01*
X86341484Y-41166015D01*
X86443791Y-41249976D01*
X86488501Y-41286669D01*
X86656231Y-41376322D01*
X86838229Y-41431530D01*
X86838228Y-41431530D01*
X86855198Y-41433201D01*
X87027500Y-41450172D01*
X87216771Y-41431530D01*
X87398769Y-41376322D01*
X87566499Y-41286669D01*
X87713515Y-41166015D01*
X87834169Y-41018999D01*
X87923822Y-40851269D01*
X87979030Y-40669271D01*
X87997672Y-40480000D01*
X111457328Y-40480000D01*
X111475969Y-40669269D01*
X111492130Y-40722545D01*
X111531178Y-40851269D01*
X111620831Y-41018999D01*
X111620832Y-41019000D01*
X111741484Y-41166015D01*
X111843791Y-41249976D01*
X111888501Y-41286669D01*
X112056231Y-41376322D01*
X112238229Y-41431530D01*
X112238228Y-41431530D01*
X112255198Y-41433201D01*
X112427500Y-41450172D01*
X112616771Y-41431530D01*
X112790893Y-41378711D01*
X125149500Y-41378711D01*
X125149500Y-41621288D01*
X125181161Y-41861785D01*
X125243947Y-42096104D01*
X125336773Y-42320205D01*
X125336777Y-42320214D01*
X125347780Y-42339271D01*
X125458064Y-42530289D01*
X125458066Y-42530292D01*
X125458067Y-42530293D01*
X125605733Y-42722736D01*
X125605739Y-42722743D01*
X125777256Y-42894260D01*
X125777262Y-42894265D01*
X125969711Y-43041936D01*
X126179788Y-43163224D01*
X126403900Y-43256054D01*
X126638211Y-43318838D01*
X126818586Y-43342584D01*
X126878711Y-43350500D01*
X126878712Y-43350500D01*
X127121289Y-43350500D01*
X127169388Y-43344167D01*
X127361789Y-43318838D01*
X127596100Y-43256054D01*
X127820212Y-43163224D01*
X128030289Y-43041936D01*
X128222738Y-42894265D01*
X128394265Y-42722738D01*
X128541936Y-42530289D01*
X128663224Y-42320212D01*
X128756054Y-42096100D01*
X128818838Y-41861789D01*
X128850500Y-41621288D01*
X128850500Y-41378712D01*
X128818838Y-41138211D01*
X128756054Y-40903900D01*
X128663224Y-40679788D01*
X128541936Y-40469711D01*
X128481018Y-40390321D01*
X128394266Y-40277263D01*
X128394260Y-40277256D01*
X128222743Y-40105739D01*
X128222736Y-40105733D01*
X128030293Y-39958067D01*
X128030292Y-39958066D01*
X128030289Y-39958064D01*
X127834912Y-39845263D01*
X127820214Y-39836777D01*
X127820205Y-39836773D01*
X127596104Y-39743947D01*
X127361785Y-39681161D01*
X127121289Y-39649500D01*
X127121288Y-39649500D01*
X126878712Y-39649500D01*
X126878711Y-39649500D01*
X126638214Y-39681161D01*
X126403895Y-39743947D01*
X126179794Y-39836773D01*
X126179785Y-39836777D01*
X125969706Y-39958067D01*
X125777263Y-40105733D01*
X125777256Y-40105739D01*
X125605739Y-40277256D01*
X125605733Y-40277263D01*
X125458067Y-40469706D01*
X125336777Y-40679785D01*
X125336773Y-40679794D01*
X125243947Y-40903895D01*
X125181161Y-41138214D01*
X125149500Y-41378711D01*
X112790893Y-41378711D01*
X112798769Y-41376322D01*
X112966499Y-41286669D01*
X113113515Y-41166015D01*
X113234169Y-41018999D01*
X113323822Y-40851269D01*
X113379030Y-40669271D01*
X113397672Y-40480000D01*
X113379030Y-40290729D01*
X113323822Y-40108731D01*
X113234169Y-39941001D01*
X113193231Y-39891118D01*
X113113515Y-39793984D01*
X112966500Y-39673332D01*
X112966499Y-39673331D01*
X112798769Y-39583678D01*
X112616771Y-39528470D01*
X112616769Y-39528469D01*
X112616771Y-39528469D01*
X112427500Y-39509828D01*
X112238230Y-39528469D01*
X112056231Y-39583678D01*
X111888499Y-39673332D01*
X111741484Y-39793984D01*
X111620832Y-39940999D01*
X111531178Y-40108731D01*
X111475969Y-40290730D01*
X111457328Y-40480000D01*
X87997672Y-40480000D01*
X87979030Y-40290729D01*
X87923822Y-40108731D01*
X87834169Y-39941001D01*
X87793231Y-39891118D01*
X87713515Y-39793984D01*
X87566500Y-39673332D01*
X87566499Y-39673331D01*
X87398769Y-39583678D01*
X87216771Y-39528470D01*
X87216769Y-39528469D01*
X87216771Y-39528469D01*
X87027500Y-39509828D01*
X86838230Y-39528469D01*
X86656231Y-39583678D01*
X86488499Y-39673332D01*
X86341484Y-39793984D01*
X86220832Y-39940999D01*
X86131178Y-40108731D01*
X86075969Y-40290730D01*
X86057328Y-40480000D01*
X83558805Y-40480000D01*
X83571780Y-40409197D01*
X83575364Y-40394663D01*
X83660696Y-40120822D01*
X83665998Y-40106841D01*
X83783731Y-39845249D01*
X83790676Y-39832016D01*
X83939080Y-39586526D01*
X83947567Y-39574230D01*
X84124480Y-39348417D01*
X84134395Y-39337226D01*
X84337226Y-39134395D01*
X84348417Y-39124480D01*
X84574230Y-38947567D01*
X84586526Y-38939080D01*
X84832016Y-38790676D01*
X84845249Y-38783731D01*
X85106841Y-38665998D01*
X85120822Y-38660696D01*
X85394668Y-38575362D01*
X85409197Y-38571780D01*
X85691344Y-38520075D01*
X85706201Y-38518271D01*
X85996264Y-38500726D01*
X86003751Y-38500500D01*
X86065892Y-38500500D01*
X140642061Y-38500500D01*
X140709100Y-38520185D01*
G37*
%TD.AperFunction*%
%TD*%
M02*
