%TF.GenerationSoftware,KiCad,Pcbnew,7.0.8*%
%TF.CreationDate,2023-11-22T21:49:45+11:00*%
%TF.ProjectId,Line 4.3,4c696e65-2034-42e3-932e-6b696361645f,rev?*%
%TF.SameCoordinates,Original*%
%TF.FileFunction,Legend,Top*%
%TF.FilePolarity,Positive*%
%FSLAX46Y46*%
G04 Gerber Fmt 4.6, Leading zero omitted, Abs format (unit mm)*
G04 Created by KiCad (PCBNEW 7.0.8) date 2023-11-22 21:49:45*
%MOMM*%
%LPD*%
G01*
G04 APERTURE LIST*
%ADD10C,0.300000*%
%ADD11C,0.100000*%
%ADD12C,0.150000*%
%ADD13C,0.120000*%
%ADD14C,0.127000*%
%ADD15C,0.200000*%
G04 APERTURE END LIST*
D10*
X129142857Y-190678328D02*
X129142857Y-189178328D01*
X129142857Y-189178328D02*
X129500000Y-189178328D01*
X129500000Y-189178328D02*
X129714286Y-189249757D01*
X129714286Y-189249757D02*
X129857143Y-189392614D01*
X129857143Y-189392614D02*
X129928572Y-189535471D01*
X129928572Y-189535471D02*
X130000000Y-189821185D01*
X130000000Y-189821185D02*
X130000000Y-190035471D01*
X130000000Y-190035471D02*
X129928572Y-190321185D01*
X129928572Y-190321185D02*
X129857143Y-190464042D01*
X129857143Y-190464042D02*
X129714286Y-190606900D01*
X129714286Y-190606900D02*
X129500000Y-190678328D01*
X129500000Y-190678328D02*
X129142857Y-190678328D01*
X131214286Y-190606900D02*
X131071429Y-190678328D01*
X131071429Y-190678328D02*
X130785715Y-190678328D01*
X130785715Y-190678328D02*
X130642857Y-190606900D01*
X130642857Y-190606900D02*
X130571429Y-190464042D01*
X130571429Y-190464042D02*
X130571429Y-189892614D01*
X130571429Y-189892614D02*
X130642857Y-189749757D01*
X130642857Y-189749757D02*
X130785715Y-189678328D01*
X130785715Y-189678328D02*
X131071429Y-189678328D01*
X131071429Y-189678328D02*
X131214286Y-189749757D01*
X131214286Y-189749757D02*
X131285715Y-189892614D01*
X131285715Y-189892614D02*
X131285715Y-190035471D01*
X131285715Y-190035471D02*
X130571429Y-190178328D01*
X131857143Y-190606900D02*
X132000000Y-190678328D01*
X132000000Y-190678328D02*
X132285714Y-190678328D01*
X132285714Y-190678328D02*
X132428571Y-190606900D01*
X132428571Y-190606900D02*
X132500000Y-190464042D01*
X132500000Y-190464042D02*
X132500000Y-190392614D01*
X132500000Y-190392614D02*
X132428571Y-190249757D01*
X132428571Y-190249757D02*
X132285714Y-190178328D01*
X132285714Y-190178328D02*
X132071429Y-190178328D01*
X132071429Y-190178328D02*
X131928571Y-190106900D01*
X131928571Y-190106900D02*
X131857143Y-189964042D01*
X131857143Y-189964042D02*
X131857143Y-189892614D01*
X131857143Y-189892614D02*
X131928571Y-189749757D01*
X131928571Y-189749757D02*
X132071429Y-189678328D01*
X132071429Y-189678328D02*
X132285714Y-189678328D01*
X132285714Y-189678328D02*
X132428571Y-189749757D01*
X133142857Y-190678328D02*
X133142857Y-189678328D01*
X133142857Y-189178328D02*
X133071429Y-189249757D01*
X133071429Y-189249757D02*
X133142857Y-189321185D01*
X133142857Y-189321185D02*
X133214286Y-189249757D01*
X133214286Y-189249757D02*
X133142857Y-189178328D01*
X133142857Y-189178328D02*
X133142857Y-189321185D01*
X134500001Y-189678328D02*
X134500001Y-190892614D01*
X134500001Y-190892614D02*
X134428572Y-191035471D01*
X134428572Y-191035471D02*
X134357143Y-191106900D01*
X134357143Y-191106900D02*
X134214286Y-191178328D01*
X134214286Y-191178328D02*
X134000001Y-191178328D01*
X134000001Y-191178328D02*
X133857143Y-191106900D01*
X134500001Y-190606900D02*
X134357143Y-190678328D01*
X134357143Y-190678328D02*
X134071429Y-190678328D01*
X134071429Y-190678328D02*
X133928572Y-190606900D01*
X133928572Y-190606900D02*
X133857143Y-190535471D01*
X133857143Y-190535471D02*
X133785715Y-190392614D01*
X133785715Y-190392614D02*
X133785715Y-189964042D01*
X133785715Y-189964042D02*
X133857143Y-189821185D01*
X133857143Y-189821185D02*
X133928572Y-189749757D01*
X133928572Y-189749757D02*
X134071429Y-189678328D01*
X134071429Y-189678328D02*
X134357143Y-189678328D01*
X134357143Y-189678328D02*
X134500001Y-189749757D01*
X135214286Y-189678328D02*
X135214286Y-190678328D01*
X135214286Y-189821185D02*
X135285715Y-189749757D01*
X135285715Y-189749757D02*
X135428572Y-189678328D01*
X135428572Y-189678328D02*
X135642858Y-189678328D01*
X135642858Y-189678328D02*
X135785715Y-189749757D01*
X135785715Y-189749757D02*
X135857144Y-189892614D01*
X135857144Y-189892614D02*
X135857144Y-190678328D01*
X137142858Y-190606900D02*
X137000001Y-190678328D01*
X137000001Y-190678328D02*
X136714287Y-190678328D01*
X136714287Y-190678328D02*
X136571429Y-190606900D01*
X136571429Y-190606900D02*
X136500001Y-190464042D01*
X136500001Y-190464042D02*
X136500001Y-189892614D01*
X136500001Y-189892614D02*
X136571429Y-189749757D01*
X136571429Y-189749757D02*
X136714287Y-189678328D01*
X136714287Y-189678328D02*
X137000001Y-189678328D01*
X137000001Y-189678328D02*
X137142858Y-189749757D01*
X137142858Y-189749757D02*
X137214287Y-189892614D01*
X137214287Y-189892614D02*
X137214287Y-190035471D01*
X137214287Y-190035471D02*
X136500001Y-190178328D01*
X138500001Y-190678328D02*
X138500001Y-189178328D01*
X138500001Y-190606900D02*
X138357143Y-190678328D01*
X138357143Y-190678328D02*
X138071429Y-190678328D01*
X138071429Y-190678328D02*
X137928572Y-190606900D01*
X137928572Y-190606900D02*
X137857143Y-190535471D01*
X137857143Y-190535471D02*
X137785715Y-190392614D01*
X137785715Y-190392614D02*
X137785715Y-189964042D01*
X137785715Y-189964042D02*
X137857143Y-189821185D01*
X137857143Y-189821185D02*
X137928572Y-189749757D01*
X137928572Y-189749757D02*
X138071429Y-189678328D01*
X138071429Y-189678328D02*
X138357143Y-189678328D01*
X138357143Y-189678328D02*
X138500001Y-189749757D01*
X140357143Y-190678328D02*
X140357143Y-189178328D01*
X140357143Y-189749757D02*
X140500001Y-189678328D01*
X140500001Y-189678328D02*
X140785715Y-189678328D01*
X140785715Y-189678328D02*
X140928572Y-189749757D01*
X140928572Y-189749757D02*
X141000001Y-189821185D01*
X141000001Y-189821185D02*
X141071429Y-189964042D01*
X141071429Y-189964042D02*
X141071429Y-190392614D01*
X141071429Y-190392614D02*
X141000001Y-190535471D01*
X141000001Y-190535471D02*
X140928572Y-190606900D01*
X140928572Y-190606900D02*
X140785715Y-190678328D01*
X140785715Y-190678328D02*
X140500001Y-190678328D01*
X140500001Y-190678328D02*
X140357143Y-190606900D01*
X141571429Y-189678328D02*
X141928572Y-190678328D01*
X142285715Y-189678328D02*
X141928572Y-190678328D01*
X141928572Y-190678328D02*
X141785715Y-191035471D01*
X141785715Y-191035471D02*
X141714286Y-191106900D01*
X141714286Y-191106900D02*
X141571429Y-191178328D01*
X144000000Y-190678328D02*
X144000000Y-189178328D01*
X144000000Y-189892614D02*
X144857143Y-189892614D01*
X144857143Y-190678328D02*
X144857143Y-189178328D01*
X146214287Y-189678328D02*
X146214287Y-190678328D01*
X145571429Y-189678328D02*
X145571429Y-190464042D01*
X145571429Y-190464042D02*
X145642858Y-190606900D01*
X145642858Y-190606900D02*
X145785715Y-190678328D01*
X145785715Y-190678328D02*
X146000001Y-190678328D01*
X146000001Y-190678328D02*
X146142858Y-190606900D01*
X146142858Y-190606900D02*
X146214287Y-190535471D01*
X147571430Y-189678328D02*
X147571430Y-190892614D01*
X147571430Y-190892614D02*
X147500001Y-191035471D01*
X147500001Y-191035471D02*
X147428572Y-191106900D01*
X147428572Y-191106900D02*
X147285715Y-191178328D01*
X147285715Y-191178328D02*
X147071430Y-191178328D01*
X147071430Y-191178328D02*
X146928572Y-191106900D01*
X147571430Y-190606900D02*
X147428572Y-190678328D01*
X147428572Y-190678328D02*
X147142858Y-190678328D01*
X147142858Y-190678328D02*
X147000001Y-190606900D01*
X147000001Y-190606900D02*
X146928572Y-190535471D01*
X146928572Y-190535471D02*
X146857144Y-190392614D01*
X146857144Y-190392614D02*
X146857144Y-189964042D01*
X146857144Y-189964042D02*
X146928572Y-189821185D01*
X146928572Y-189821185D02*
X147000001Y-189749757D01*
X147000001Y-189749757D02*
X147142858Y-189678328D01*
X147142858Y-189678328D02*
X147428572Y-189678328D01*
X147428572Y-189678328D02*
X147571430Y-189749757D01*
X148285715Y-190678328D02*
X148285715Y-189178328D01*
X148928573Y-190678328D02*
X148928573Y-189892614D01*
X148928573Y-189892614D02*
X148857144Y-189749757D01*
X148857144Y-189749757D02*
X148714287Y-189678328D01*
X148714287Y-189678328D02*
X148500001Y-189678328D01*
X148500001Y-189678328D02*
X148357144Y-189749757D01*
X148357144Y-189749757D02*
X148285715Y-189821185D01*
X150785715Y-190678328D02*
X150785715Y-189178328D01*
X150785715Y-189178328D02*
X151357144Y-189178328D01*
X151357144Y-189178328D02*
X151500001Y-189249757D01*
X151500001Y-189249757D02*
X151571430Y-189321185D01*
X151571430Y-189321185D02*
X151642858Y-189464042D01*
X151642858Y-189464042D02*
X151642858Y-189678328D01*
X151642858Y-189678328D02*
X151571430Y-189821185D01*
X151571430Y-189821185D02*
X151500001Y-189892614D01*
X151500001Y-189892614D02*
X151357144Y-189964042D01*
X151357144Y-189964042D02*
X150785715Y-189964042D01*
X152285715Y-190678328D02*
X152285715Y-189178328D01*
X152928573Y-190678328D02*
X152928573Y-189892614D01*
X152928573Y-189892614D02*
X152857144Y-189749757D01*
X152857144Y-189749757D02*
X152714287Y-189678328D01*
X152714287Y-189678328D02*
X152500001Y-189678328D01*
X152500001Y-189678328D02*
X152357144Y-189749757D01*
X152357144Y-189749757D02*
X152285715Y-189821185D01*
X154285716Y-190678328D02*
X154285716Y-189892614D01*
X154285716Y-189892614D02*
X154214287Y-189749757D01*
X154214287Y-189749757D02*
X154071430Y-189678328D01*
X154071430Y-189678328D02*
X153785716Y-189678328D01*
X153785716Y-189678328D02*
X153642858Y-189749757D01*
X154285716Y-190606900D02*
X154142858Y-190678328D01*
X154142858Y-190678328D02*
X153785716Y-190678328D01*
X153785716Y-190678328D02*
X153642858Y-190606900D01*
X153642858Y-190606900D02*
X153571430Y-190464042D01*
X153571430Y-190464042D02*
X153571430Y-190321185D01*
X153571430Y-190321185D02*
X153642858Y-190178328D01*
X153642858Y-190178328D02*
X153785716Y-190106900D01*
X153785716Y-190106900D02*
X154142858Y-190106900D01*
X154142858Y-190106900D02*
X154285716Y-190035471D01*
X155000001Y-189678328D02*
X155000001Y-190678328D01*
X155000001Y-189821185D02*
X155071430Y-189749757D01*
X155071430Y-189749757D02*
X155214287Y-189678328D01*
X155214287Y-189678328D02*
X155428573Y-189678328D01*
X155428573Y-189678328D02*
X155571430Y-189749757D01*
X155571430Y-189749757D02*
X155642859Y-189892614D01*
X155642859Y-189892614D02*
X155642859Y-190678328D01*
X157500001Y-190106900D02*
X158642859Y-190106900D01*
X160785716Y-189178328D02*
X161071430Y-189178328D01*
X161071430Y-189178328D02*
X161214287Y-189249757D01*
X161214287Y-189249757D02*
X161357144Y-189392614D01*
X161357144Y-189392614D02*
X161428573Y-189678328D01*
X161428573Y-189678328D02*
X161428573Y-190178328D01*
X161428573Y-190178328D02*
X161357144Y-190464042D01*
X161357144Y-190464042D02*
X161214287Y-190606900D01*
X161214287Y-190606900D02*
X161071430Y-190678328D01*
X161071430Y-190678328D02*
X160785716Y-190678328D01*
X160785716Y-190678328D02*
X160642859Y-190606900D01*
X160642859Y-190606900D02*
X160500001Y-190464042D01*
X160500001Y-190464042D02*
X160428573Y-190178328D01*
X160428573Y-190178328D02*
X160428573Y-189678328D01*
X160428573Y-189678328D02*
X160500001Y-189392614D01*
X160500001Y-189392614D02*
X160642859Y-189249757D01*
X160642859Y-189249757D02*
X160785716Y-189178328D01*
X162928573Y-190535471D02*
X162857145Y-190606900D01*
X162857145Y-190606900D02*
X162642859Y-190678328D01*
X162642859Y-190678328D02*
X162500002Y-190678328D01*
X162500002Y-190678328D02*
X162285716Y-190606900D01*
X162285716Y-190606900D02*
X162142859Y-190464042D01*
X162142859Y-190464042D02*
X162071430Y-190321185D01*
X162071430Y-190321185D02*
X162000002Y-190035471D01*
X162000002Y-190035471D02*
X162000002Y-189821185D01*
X162000002Y-189821185D02*
X162071430Y-189535471D01*
X162071430Y-189535471D02*
X162142859Y-189392614D01*
X162142859Y-189392614D02*
X162285716Y-189249757D01*
X162285716Y-189249757D02*
X162500002Y-189178328D01*
X162500002Y-189178328D02*
X162642859Y-189178328D01*
X162642859Y-189178328D02*
X162857145Y-189249757D01*
X162857145Y-189249757D02*
X162928573Y-189321185D01*
X163357145Y-189178328D02*
X164214288Y-189178328D01*
X163785716Y-190678328D02*
X163785716Y-189178328D01*
X165785716Y-189321185D02*
X165857144Y-189249757D01*
X165857144Y-189249757D02*
X166000002Y-189178328D01*
X166000002Y-189178328D02*
X166357144Y-189178328D01*
X166357144Y-189178328D02*
X166500002Y-189249757D01*
X166500002Y-189249757D02*
X166571430Y-189321185D01*
X166571430Y-189321185D02*
X166642859Y-189464042D01*
X166642859Y-189464042D02*
X166642859Y-189606900D01*
X166642859Y-189606900D02*
X166571430Y-189821185D01*
X166571430Y-189821185D02*
X165714287Y-190678328D01*
X165714287Y-190678328D02*
X166642859Y-190678328D01*
X167571430Y-189178328D02*
X167714287Y-189178328D01*
X167714287Y-189178328D02*
X167857144Y-189249757D01*
X167857144Y-189249757D02*
X167928573Y-189321185D01*
X167928573Y-189321185D02*
X168000001Y-189464042D01*
X168000001Y-189464042D02*
X168071430Y-189749757D01*
X168071430Y-189749757D02*
X168071430Y-190106900D01*
X168071430Y-190106900D02*
X168000001Y-190392614D01*
X168000001Y-190392614D02*
X167928573Y-190535471D01*
X167928573Y-190535471D02*
X167857144Y-190606900D01*
X167857144Y-190606900D02*
X167714287Y-190678328D01*
X167714287Y-190678328D02*
X167571430Y-190678328D01*
X167571430Y-190678328D02*
X167428573Y-190606900D01*
X167428573Y-190606900D02*
X167357144Y-190535471D01*
X167357144Y-190535471D02*
X167285715Y-190392614D01*
X167285715Y-190392614D02*
X167214287Y-190106900D01*
X167214287Y-190106900D02*
X167214287Y-189749757D01*
X167214287Y-189749757D02*
X167285715Y-189464042D01*
X167285715Y-189464042D02*
X167357144Y-189321185D01*
X167357144Y-189321185D02*
X167428573Y-189249757D01*
X167428573Y-189249757D02*
X167571430Y-189178328D01*
X168642858Y-189321185D02*
X168714286Y-189249757D01*
X168714286Y-189249757D02*
X168857144Y-189178328D01*
X168857144Y-189178328D02*
X169214286Y-189178328D01*
X169214286Y-189178328D02*
X169357144Y-189249757D01*
X169357144Y-189249757D02*
X169428572Y-189321185D01*
X169428572Y-189321185D02*
X169500001Y-189464042D01*
X169500001Y-189464042D02*
X169500001Y-189606900D01*
X169500001Y-189606900D02*
X169428572Y-189821185D01*
X169428572Y-189821185D02*
X168571429Y-190678328D01*
X168571429Y-190678328D02*
X169500001Y-190678328D01*
X170000000Y-189178328D02*
X170928572Y-189178328D01*
X170928572Y-189178328D02*
X170428572Y-189749757D01*
X170428572Y-189749757D02*
X170642857Y-189749757D01*
X170642857Y-189749757D02*
X170785715Y-189821185D01*
X170785715Y-189821185D02*
X170857143Y-189892614D01*
X170857143Y-189892614D02*
X170928572Y-190035471D01*
X170928572Y-190035471D02*
X170928572Y-190392614D01*
X170928572Y-190392614D02*
X170857143Y-190535471D01*
X170857143Y-190535471D02*
X170785715Y-190606900D01*
X170785715Y-190606900D02*
X170642857Y-190678328D01*
X170642857Y-190678328D02*
X170214286Y-190678328D01*
X170214286Y-190678328D02*
X170071429Y-190606900D01*
X170071429Y-190606900D02*
X170000000Y-190535471D01*
X146428571Y-123428328D02*
X145714285Y-123428328D01*
X145714285Y-123428328D02*
X145714285Y-121928328D01*
X146928571Y-123428328D02*
X146928571Y-122428328D01*
X146928571Y-121928328D02*
X146857143Y-121999757D01*
X146857143Y-121999757D02*
X146928571Y-122071185D01*
X146928571Y-122071185D02*
X147000000Y-121999757D01*
X147000000Y-121999757D02*
X146928571Y-121928328D01*
X146928571Y-121928328D02*
X146928571Y-122071185D01*
X147642857Y-122428328D02*
X147642857Y-123428328D01*
X147642857Y-122571185D02*
X147714286Y-122499757D01*
X147714286Y-122499757D02*
X147857143Y-122428328D01*
X147857143Y-122428328D02*
X148071429Y-122428328D01*
X148071429Y-122428328D02*
X148214286Y-122499757D01*
X148214286Y-122499757D02*
X148285715Y-122642614D01*
X148285715Y-122642614D02*
X148285715Y-123428328D01*
X149571429Y-123356900D02*
X149428572Y-123428328D01*
X149428572Y-123428328D02*
X149142858Y-123428328D01*
X149142858Y-123428328D02*
X149000000Y-123356900D01*
X149000000Y-123356900D02*
X148928572Y-123214042D01*
X148928572Y-123214042D02*
X148928572Y-122642614D01*
X148928572Y-122642614D02*
X149000000Y-122499757D01*
X149000000Y-122499757D02*
X149142858Y-122428328D01*
X149142858Y-122428328D02*
X149428572Y-122428328D01*
X149428572Y-122428328D02*
X149571429Y-122499757D01*
X149571429Y-122499757D02*
X149642858Y-122642614D01*
X149642858Y-122642614D02*
X149642858Y-122785471D01*
X149642858Y-122785471D02*
X148928572Y-122928328D01*
X152071429Y-122428328D02*
X152071429Y-123428328D01*
X151714286Y-121856900D02*
X151357143Y-122928328D01*
X151357143Y-122928328D02*
X152285714Y-122928328D01*
X152857142Y-123285471D02*
X152928571Y-123356900D01*
X152928571Y-123356900D02*
X152857142Y-123428328D01*
X152857142Y-123428328D02*
X152785714Y-123356900D01*
X152785714Y-123356900D02*
X152857142Y-123285471D01*
X152857142Y-123285471D02*
X152857142Y-123428328D01*
X153428571Y-121928328D02*
X154357143Y-121928328D01*
X154357143Y-121928328D02*
X153857143Y-122499757D01*
X153857143Y-122499757D02*
X154071428Y-122499757D01*
X154071428Y-122499757D02*
X154214286Y-122571185D01*
X154214286Y-122571185D02*
X154285714Y-122642614D01*
X154285714Y-122642614D02*
X154357143Y-122785471D01*
X154357143Y-122785471D02*
X154357143Y-123142614D01*
X154357143Y-123142614D02*
X154285714Y-123285471D01*
X154285714Y-123285471D02*
X154214286Y-123356900D01*
X154214286Y-123356900D02*
X154071428Y-123428328D01*
X154071428Y-123428328D02*
X153642857Y-123428328D01*
X153642857Y-123428328D02*
X153500000Y-123356900D01*
X153500000Y-123356900D02*
X153428571Y-123285471D01*
X131142857Y-109348328D02*
X131142857Y-109634042D01*
X131714285Y-109348328D02*
X131714285Y-109634042D01*
X132142857Y-109348328D02*
X133000000Y-109348328D01*
X132571428Y-110848328D02*
X132571428Y-109348328D01*
X133499999Y-110848328D02*
X133499999Y-109348328D01*
X134142857Y-110848328D02*
X134142857Y-110062614D01*
X134142857Y-110062614D02*
X134071428Y-109919757D01*
X134071428Y-109919757D02*
X133928571Y-109848328D01*
X133928571Y-109848328D02*
X133714285Y-109848328D01*
X133714285Y-109848328D02*
X133571428Y-109919757D01*
X133571428Y-109919757D02*
X133499999Y-109991185D01*
X135428571Y-110776900D02*
X135285714Y-110848328D01*
X135285714Y-110848328D02*
X135000000Y-110848328D01*
X135000000Y-110848328D02*
X134857142Y-110776900D01*
X134857142Y-110776900D02*
X134785714Y-110634042D01*
X134785714Y-110634042D02*
X134785714Y-110062614D01*
X134785714Y-110062614D02*
X134857142Y-109919757D01*
X134857142Y-109919757D02*
X135000000Y-109848328D01*
X135000000Y-109848328D02*
X135285714Y-109848328D01*
X135285714Y-109848328D02*
X135428571Y-109919757D01*
X135428571Y-109919757D02*
X135500000Y-110062614D01*
X135500000Y-110062614D02*
X135500000Y-110205471D01*
X135500000Y-110205471D02*
X134785714Y-110348328D01*
X136142856Y-110848328D02*
X136142856Y-109848328D01*
X136142856Y-110134042D02*
X136214285Y-109991185D01*
X136214285Y-109991185D02*
X136285714Y-109919757D01*
X136285714Y-109919757D02*
X136428571Y-109848328D01*
X136428571Y-109848328D02*
X136571428Y-109848328D01*
X137642856Y-110776900D02*
X137499999Y-110848328D01*
X137499999Y-110848328D02*
X137214285Y-110848328D01*
X137214285Y-110848328D02*
X137071427Y-110776900D01*
X137071427Y-110776900D02*
X136999999Y-110634042D01*
X136999999Y-110634042D02*
X136999999Y-110062614D01*
X136999999Y-110062614D02*
X137071427Y-109919757D01*
X137071427Y-109919757D02*
X137214285Y-109848328D01*
X137214285Y-109848328D02*
X137499999Y-109848328D01*
X137499999Y-109848328D02*
X137642856Y-109919757D01*
X137642856Y-109919757D02*
X137714285Y-110062614D01*
X137714285Y-110062614D02*
X137714285Y-110205471D01*
X137714285Y-110205471D02*
X136999999Y-110348328D01*
X139499998Y-110848328D02*
X139499998Y-109848328D01*
X139499998Y-109348328D02*
X139428570Y-109419757D01*
X139428570Y-109419757D02*
X139499998Y-109491185D01*
X139499998Y-109491185D02*
X139571427Y-109419757D01*
X139571427Y-109419757D02*
X139499998Y-109348328D01*
X139499998Y-109348328D02*
X139499998Y-109491185D01*
X140142856Y-110776900D02*
X140285713Y-110848328D01*
X140285713Y-110848328D02*
X140571427Y-110848328D01*
X140571427Y-110848328D02*
X140714284Y-110776900D01*
X140714284Y-110776900D02*
X140785713Y-110634042D01*
X140785713Y-110634042D02*
X140785713Y-110562614D01*
X140785713Y-110562614D02*
X140714284Y-110419757D01*
X140714284Y-110419757D02*
X140571427Y-110348328D01*
X140571427Y-110348328D02*
X140357142Y-110348328D01*
X140357142Y-110348328D02*
X140214284Y-110276900D01*
X140214284Y-110276900D02*
X140142856Y-110134042D01*
X140142856Y-110134042D02*
X140142856Y-110062614D01*
X140142856Y-110062614D02*
X140214284Y-109919757D01*
X140214284Y-109919757D02*
X140357142Y-109848328D01*
X140357142Y-109848328D02*
X140571427Y-109848328D01*
X140571427Y-109848328D02*
X140714284Y-109919757D01*
X142571427Y-109848328D02*
X142571427Y-110848328D01*
X142571427Y-109991185D02*
X142642856Y-109919757D01*
X142642856Y-109919757D02*
X142785713Y-109848328D01*
X142785713Y-109848328D02*
X142999999Y-109848328D01*
X142999999Y-109848328D02*
X143142856Y-109919757D01*
X143142856Y-109919757D02*
X143214285Y-110062614D01*
X143214285Y-110062614D02*
X143214285Y-110848328D01*
X144142856Y-110848328D02*
X143999999Y-110776900D01*
X143999999Y-110776900D02*
X143928570Y-110705471D01*
X143928570Y-110705471D02*
X143857142Y-110562614D01*
X143857142Y-110562614D02*
X143857142Y-110134042D01*
X143857142Y-110134042D02*
X143928570Y-109991185D01*
X143928570Y-109991185D02*
X143999999Y-109919757D01*
X143999999Y-109919757D02*
X144142856Y-109848328D01*
X144142856Y-109848328D02*
X144357142Y-109848328D01*
X144357142Y-109848328D02*
X144499999Y-109919757D01*
X144499999Y-109919757D02*
X144571428Y-109991185D01*
X144571428Y-109991185D02*
X144642856Y-110134042D01*
X144642856Y-110134042D02*
X144642856Y-110562614D01*
X144642856Y-110562614D02*
X144571428Y-110705471D01*
X144571428Y-110705471D02*
X144499999Y-110776900D01*
X144499999Y-110776900D02*
X144357142Y-110848328D01*
X144357142Y-110848328D02*
X144142856Y-110848328D01*
X146428570Y-110848328D02*
X146428570Y-109848328D01*
X146428570Y-109991185D02*
X146499999Y-109919757D01*
X146499999Y-109919757D02*
X146642856Y-109848328D01*
X146642856Y-109848328D02*
X146857142Y-109848328D01*
X146857142Y-109848328D02*
X146999999Y-109919757D01*
X146999999Y-109919757D02*
X147071428Y-110062614D01*
X147071428Y-110062614D02*
X147071428Y-110848328D01*
X147071428Y-110062614D02*
X147142856Y-109919757D01*
X147142856Y-109919757D02*
X147285713Y-109848328D01*
X147285713Y-109848328D02*
X147499999Y-109848328D01*
X147499999Y-109848328D02*
X147642856Y-109919757D01*
X147642856Y-109919757D02*
X147714285Y-110062614D01*
X147714285Y-110062614D02*
X147714285Y-110848328D01*
X148642856Y-110848328D02*
X148499999Y-110776900D01*
X148499999Y-110776900D02*
X148428570Y-110705471D01*
X148428570Y-110705471D02*
X148357142Y-110562614D01*
X148357142Y-110562614D02*
X148357142Y-110134042D01*
X148357142Y-110134042D02*
X148428570Y-109991185D01*
X148428570Y-109991185D02*
X148499999Y-109919757D01*
X148499999Y-109919757D02*
X148642856Y-109848328D01*
X148642856Y-109848328D02*
X148857142Y-109848328D01*
X148857142Y-109848328D02*
X148999999Y-109919757D01*
X148999999Y-109919757D02*
X149071428Y-109991185D01*
X149071428Y-109991185D02*
X149142856Y-110134042D01*
X149142856Y-110134042D02*
X149142856Y-110562614D01*
X149142856Y-110562614D02*
X149071428Y-110705471D01*
X149071428Y-110705471D02*
X148999999Y-110776900D01*
X148999999Y-110776900D02*
X148857142Y-110848328D01*
X148857142Y-110848328D02*
X148642856Y-110848328D01*
X149785713Y-110848328D02*
X149785713Y-109848328D01*
X149785713Y-110134042D02*
X149857142Y-109991185D01*
X149857142Y-109991185D02*
X149928571Y-109919757D01*
X149928571Y-109919757D02*
X150071428Y-109848328D01*
X150071428Y-109848328D02*
X150214285Y-109848328D01*
X151285713Y-110776900D02*
X151142856Y-110848328D01*
X151142856Y-110848328D02*
X150857142Y-110848328D01*
X150857142Y-110848328D02*
X150714284Y-110776900D01*
X150714284Y-110776900D02*
X150642856Y-110634042D01*
X150642856Y-110634042D02*
X150642856Y-110062614D01*
X150642856Y-110062614D02*
X150714284Y-109919757D01*
X150714284Y-109919757D02*
X150857142Y-109848328D01*
X150857142Y-109848328D02*
X151142856Y-109848328D01*
X151142856Y-109848328D02*
X151285713Y-109919757D01*
X151285713Y-109919757D02*
X151357142Y-110062614D01*
X151357142Y-110062614D02*
X151357142Y-110205471D01*
X151357142Y-110205471D02*
X150642856Y-110348328D01*
X152928570Y-109848328D02*
X153499998Y-109848328D01*
X153142855Y-109348328D02*
X153142855Y-110634042D01*
X153142855Y-110634042D02*
X153214284Y-110776900D01*
X153214284Y-110776900D02*
X153357141Y-110848328D01*
X153357141Y-110848328D02*
X153499998Y-110848328D01*
X153999998Y-110848328D02*
X153999998Y-109848328D01*
X153999998Y-109348328D02*
X153928570Y-109419757D01*
X153928570Y-109419757D02*
X153999998Y-109491185D01*
X153999998Y-109491185D02*
X154071427Y-109419757D01*
X154071427Y-109419757D02*
X153999998Y-109348328D01*
X153999998Y-109348328D02*
X153999998Y-109491185D01*
X154714284Y-110848328D02*
X154714284Y-109848328D01*
X154714284Y-109991185D02*
X154785713Y-109919757D01*
X154785713Y-109919757D02*
X154928570Y-109848328D01*
X154928570Y-109848328D02*
X155142856Y-109848328D01*
X155142856Y-109848328D02*
X155285713Y-109919757D01*
X155285713Y-109919757D02*
X155357142Y-110062614D01*
X155357142Y-110062614D02*
X155357142Y-110848328D01*
X155357142Y-110062614D02*
X155428570Y-109919757D01*
X155428570Y-109919757D02*
X155571427Y-109848328D01*
X155571427Y-109848328D02*
X155785713Y-109848328D01*
X155785713Y-109848328D02*
X155928570Y-109919757D01*
X155928570Y-109919757D02*
X155999999Y-110062614D01*
X155999999Y-110062614D02*
X155999999Y-110848328D01*
X157285713Y-110776900D02*
X157142856Y-110848328D01*
X157142856Y-110848328D02*
X156857142Y-110848328D01*
X156857142Y-110848328D02*
X156714284Y-110776900D01*
X156714284Y-110776900D02*
X156642856Y-110634042D01*
X156642856Y-110634042D02*
X156642856Y-110062614D01*
X156642856Y-110062614D02*
X156714284Y-109919757D01*
X156714284Y-109919757D02*
X156857142Y-109848328D01*
X156857142Y-109848328D02*
X157142856Y-109848328D01*
X157142856Y-109848328D02*
X157285713Y-109919757D01*
X157285713Y-109919757D02*
X157357142Y-110062614D01*
X157357142Y-110062614D02*
X157357142Y-110205471D01*
X157357142Y-110205471D02*
X156642856Y-110348328D01*
X158928570Y-109848328D02*
X159499998Y-109848328D01*
X159142855Y-109348328D02*
X159142855Y-110634042D01*
X159142855Y-110634042D02*
X159214284Y-110776900D01*
X159214284Y-110776900D02*
X159357141Y-110848328D01*
X159357141Y-110848328D02*
X159499998Y-110848328D01*
X160214284Y-110848328D02*
X160071427Y-110776900D01*
X160071427Y-110776900D02*
X159999998Y-110705471D01*
X159999998Y-110705471D02*
X159928570Y-110562614D01*
X159928570Y-110562614D02*
X159928570Y-110134042D01*
X159928570Y-110134042D02*
X159999998Y-109991185D01*
X159999998Y-109991185D02*
X160071427Y-109919757D01*
X160071427Y-109919757D02*
X160214284Y-109848328D01*
X160214284Y-109848328D02*
X160428570Y-109848328D01*
X160428570Y-109848328D02*
X160571427Y-109919757D01*
X160571427Y-109919757D02*
X160642856Y-109991185D01*
X160642856Y-109991185D02*
X160714284Y-110134042D01*
X160714284Y-110134042D02*
X160714284Y-110562614D01*
X160714284Y-110562614D02*
X160642856Y-110705471D01*
X160642856Y-110705471D02*
X160571427Y-110776900D01*
X160571427Y-110776900D02*
X160428570Y-110848328D01*
X160428570Y-110848328D02*
X160214284Y-110848328D01*
X162357141Y-109848328D02*
X162642856Y-110848328D01*
X162642856Y-110848328D02*
X162928570Y-110134042D01*
X162928570Y-110134042D02*
X163214284Y-110848328D01*
X163214284Y-110848328D02*
X163499998Y-109848328D01*
X164714285Y-110848328D02*
X164714285Y-110062614D01*
X164714285Y-110062614D02*
X164642856Y-109919757D01*
X164642856Y-109919757D02*
X164499999Y-109848328D01*
X164499999Y-109848328D02*
X164214285Y-109848328D01*
X164214285Y-109848328D02*
X164071427Y-109919757D01*
X164714285Y-110776900D02*
X164571427Y-110848328D01*
X164571427Y-110848328D02*
X164214285Y-110848328D01*
X164214285Y-110848328D02*
X164071427Y-110776900D01*
X164071427Y-110776900D02*
X163999999Y-110634042D01*
X163999999Y-110634042D02*
X163999999Y-110491185D01*
X163999999Y-110491185D02*
X164071427Y-110348328D01*
X164071427Y-110348328D02*
X164214285Y-110276900D01*
X164214285Y-110276900D02*
X164571427Y-110276900D01*
X164571427Y-110276900D02*
X164714285Y-110205471D01*
X165357142Y-110776900D02*
X165499999Y-110848328D01*
X165499999Y-110848328D02*
X165785713Y-110848328D01*
X165785713Y-110848328D02*
X165928570Y-110776900D01*
X165928570Y-110776900D02*
X165999999Y-110634042D01*
X165999999Y-110634042D02*
X165999999Y-110562614D01*
X165999999Y-110562614D02*
X165928570Y-110419757D01*
X165928570Y-110419757D02*
X165785713Y-110348328D01*
X165785713Y-110348328D02*
X165571428Y-110348328D01*
X165571428Y-110348328D02*
X165428570Y-110276900D01*
X165428570Y-110276900D02*
X165357142Y-110134042D01*
X165357142Y-110134042D02*
X165357142Y-110062614D01*
X165357142Y-110062614D02*
X165428570Y-109919757D01*
X165428570Y-109919757D02*
X165571428Y-109848328D01*
X165571428Y-109848328D02*
X165785713Y-109848328D01*
X165785713Y-109848328D02*
X165928570Y-109919757D01*
X166428571Y-109848328D02*
X166999999Y-109848328D01*
X166642856Y-109348328D02*
X166642856Y-110634042D01*
X166642856Y-110634042D02*
X166714285Y-110776900D01*
X166714285Y-110776900D02*
X166857142Y-110848328D01*
X166857142Y-110848328D02*
X166999999Y-110848328D01*
X168071428Y-110776900D02*
X167928571Y-110848328D01*
X167928571Y-110848328D02*
X167642857Y-110848328D01*
X167642857Y-110848328D02*
X167499999Y-110776900D01*
X167499999Y-110776900D02*
X167428571Y-110634042D01*
X167428571Y-110634042D02*
X167428571Y-110062614D01*
X167428571Y-110062614D02*
X167499999Y-109919757D01*
X167499999Y-109919757D02*
X167642857Y-109848328D01*
X167642857Y-109848328D02*
X167928571Y-109848328D01*
X167928571Y-109848328D02*
X168071428Y-109919757D01*
X168071428Y-109919757D02*
X168142857Y-110062614D01*
X168142857Y-110062614D02*
X168142857Y-110205471D01*
X168142857Y-110205471D02*
X167428571Y-110348328D01*
X168785713Y-110705471D02*
X168857142Y-110776900D01*
X168857142Y-110776900D02*
X168785713Y-110848328D01*
X168785713Y-110848328D02*
X168714285Y-110776900D01*
X168714285Y-110776900D02*
X168785713Y-110705471D01*
X168785713Y-110705471D02*
X168785713Y-110848328D01*
X120321428Y-113263328D02*
X120321428Y-111763328D01*
X120321428Y-112477614D02*
X121178571Y-112477614D01*
X121178571Y-113263328D02*
X121178571Y-111763328D01*
X122107143Y-113263328D02*
X121964286Y-113191900D01*
X121964286Y-113191900D02*
X121892857Y-113120471D01*
X121892857Y-113120471D02*
X121821429Y-112977614D01*
X121821429Y-112977614D02*
X121821429Y-112549042D01*
X121821429Y-112549042D02*
X121892857Y-112406185D01*
X121892857Y-112406185D02*
X121964286Y-112334757D01*
X121964286Y-112334757D02*
X122107143Y-112263328D01*
X122107143Y-112263328D02*
X122321429Y-112263328D01*
X122321429Y-112263328D02*
X122464286Y-112334757D01*
X122464286Y-112334757D02*
X122535715Y-112406185D01*
X122535715Y-112406185D02*
X122607143Y-112549042D01*
X122607143Y-112549042D02*
X122607143Y-112977614D01*
X122607143Y-112977614D02*
X122535715Y-113120471D01*
X122535715Y-113120471D02*
X122464286Y-113191900D01*
X122464286Y-113191900D02*
X122321429Y-113263328D01*
X122321429Y-113263328D02*
X122107143Y-113263328D01*
X123892858Y-112263328D02*
X123892858Y-113263328D01*
X123250000Y-112263328D02*
X123250000Y-113049042D01*
X123250000Y-113049042D02*
X123321429Y-113191900D01*
X123321429Y-113191900D02*
X123464286Y-113263328D01*
X123464286Y-113263328D02*
X123678572Y-113263328D01*
X123678572Y-113263328D02*
X123821429Y-113191900D01*
X123821429Y-113191900D02*
X123892858Y-113120471D01*
X124607143Y-113263328D02*
X124607143Y-112263328D01*
X124607143Y-112549042D02*
X124678572Y-112406185D01*
X124678572Y-112406185D02*
X124750001Y-112334757D01*
X124750001Y-112334757D02*
X124892858Y-112263328D01*
X124892858Y-112263328D02*
X125035715Y-112263328D01*
X125464286Y-113191900D02*
X125607143Y-113263328D01*
X125607143Y-113263328D02*
X125892857Y-113263328D01*
X125892857Y-113263328D02*
X126035714Y-113191900D01*
X126035714Y-113191900D02*
X126107143Y-113049042D01*
X126107143Y-113049042D02*
X126107143Y-112977614D01*
X126107143Y-112977614D02*
X126035714Y-112834757D01*
X126035714Y-112834757D02*
X125892857Y-112763328D01*
X125892857Y-112763328D02*
X125678572Y-112763328D01*
X125678572Y-112763328D02*
X125535714Y-112691900D01*
X125535714Y-112691900D02*
X125464286Y-112549042D01*
X125464286Y-112549042D02*
X125464286Y-112477614D01*
X125464286Y-112477614D02*
X125535714Y-112334757D01*
X125535714Y-112334757D02*
X125678572Y-112263328D01*
X125678572Y-112263328D02*
X125892857Y-112263328D01*
X125892857Y-112263328D02*
X126035714Y-112334757D01*
X128535715Y-113263328D02*
X128535715Y-112477614D01*
X128535715Y-112477614D02*
X128464286Y-112334757D01*
X128464286Y-112334757D02*
X128321429Y-112263328D01*
X128321429Y-112263328D02*
X128035715Y-112263328D01*
X128035715Y-112263328D02*
X127892857Y-112334757D01*
X128535715Y-113191900D02*
X128392857Y-113263328D01*
X128392857Y-113263328D02*
X128035715Y-113263328D01*
X128035715Y-113263328D02*
X127892857Y-113191900D01*
X127892857Y-113191900D02*
X127821429Y-113049042D01*
X127821429Y-113049042D02*
X127821429Y-112906185D01*
X127821429Y-112906185D02*
X127892857Y-112763328D01*
X127892857Y-112763328D02*
X128035715Y-112691900D01*
X128035715Y-112691900D02*
X128392857Y-112691900D01*
X128392857Y-112691900D02*
X128535715Y-112620471D01*
X129250000Y-112263328D02*
X129250000Y-113263328D01*
X129250000Y-112406185D02*
X129321429Y-112334757D01*
X129321429Y-112334757D02*
X129464286Y-112263328D01*
X129464286Y-112263328D02*
X129678572Y-112263328D01*
X129678572Y-112263328D02*
X129821429Y-112334757D01*
X129821429Y-112334757D02*
X129892858Y-112477614D01*
X129892858Y-112477614D02*
X129892858Y-113263328D01*
X131250001Y-113263328D02*
X131250001Y-111763328D01*
X131250001Y-113191900D02*
X131107143Y-113263328D01*
X131107143Y-113263328D02*
X130821429Y-113263328D01*
X130821429Y-113263328D02*
X130678572Y-113191900D01*
X130678572Y-113191900D02*
X130607143Y-113120471D01*
X130607143Y-113120471D02*
X130535715Y-112977614D01*
X130535715Y-112977614D02*
X130535715Y-112549042D01*
X130535715Y-112549042D02*
X130607143Y-112406185D01*
X130607143Y-112406185D02*
X130678572Y-112334757D01*
X130678572Y-112334757D02*
X130821429Y-112263328D01*
X130821429Y-112263328D02*
X131107143Y-112263328D01*
X131107143Y-112263328D02*
X131250001Y-112334757D01*
X133750001Y-113263328D02*
X133750001Y-111763328D01*
X133750001Y-113191900D02*
X133607143Y-113263328D01*
X133607143Y-113263328D02*
X133321429Y-113263328D01*
X133321429Y-113263328D02*
X133178572Y-113191900D01*
X133178572Y-113191900D02*
X133107143Y-113120471D01*
X133107143Y-113120471D02*
X133035715Y-112977614D01*
X133035715Y-112977614D02*
X133035715Y-112549042D01*
X133035715Y-112549042D02*
X133107143Y-112406185D01*
X133107143Y-112406185D02*
X133178572Y-112334757D01*
X133178572Y-112334757D02*
X133321429Y-112263328D01*
X133321429Y-112263328D02*
X133607143Y-112263328D01*
X133607143Y-112263328D02*
X133750001Y-112334757D01*
X135107144Y-113263328D02*
X135107144Y-112477614D01*
X135107144Y-112477614D02*
X135035715Y-112334757D01*
X135035715Y-112334757D02*
X134892858Y-112263328D01*
X134892858Y-112263328D02*
X134607144Y-112263328D01*
X134607144Y-112263328D02*
X134464286Y-112334757D01*
X135107144Y-113191900D02*
X134964286Y-113263328D01*
X134964286Y-113263328D02*
X134607144Y-113263328D01*
X134607144Y-113263328D02*
X134464286Y-113191900D01*
X134464286Y-113191900D02*
X134392858Y-113049042D01*
X134392858Y-113049042D02*
X134392858Y-112906185D01*
X134392858Y-112906185D02*
X134464286Y-112763328D01*
X134464286Y-112763328D02*
X134607144Y-112691900D01*
X134607144Y-112691900D02*
X134964286Y-112691900D01*
X134964286Y-112691900D02*
X135107144Y-112620471D01*
X135678572Y-112263328D02*
X136035715Y-113263328D01*
X136392858Y-112263328D02*
X136035715Y-113263328D01*
X136035715Y-113263328D02*
X135892858Y-113620471D01*
X135892858Y-113620471D02*
X135821429Y-113691900D01*
X135821429Y-113691900D02*
X135678572Y-113763328D01*
X136892858Y-113191900D02*
X137035715Y-113263328D01*
X137035715Y-113263328D02*
X137321429Y-113263328D01*
X137321429Y-113263328D02*
X137464286Y-113191900D01*
X137464286Y-113191900D02*
X137535715Y-113049042D01*
X137535715Y-113049042D02*
X137535715Y-112977614D01*
X137535715Y-112977614D02*
X137464286Y-112834757D01*
X137464286Y-112834757D02*
X137321429Y-112763328D01*
X137321429Y-112763328D02*
X137107144Y-112763328D01*
X137107144Y-112763328D02*
X136964286Y-112691900D01*
X136964286Y-112691900D02*
X136892858Y-112549042D01*
X136892858Y-112549042D02*
X136892858Y-112477614D01*
X136892858Y-112477614D02*
X136964286Y-112334757D01*
X136964286Y-112334757D02*
X137107144Y-112263328D01*
X137107144Y-112263328D02*
X137321429Y-112263328D01*
X137321429Y-112263328D02*
X137464286Y-112334757D01*
X139892858Y-113191900D02*
X139750001Y-113263328D01*
X139750001Y-113263328D02*
X139464287Y-113263328D01*
X139464287Y-113263328D02*
X139321429Y-113191900D01*
X139321429Y-113191900D02*
X139250001Y-113049042D01*
X139250001Y-113049042D02*
X139250001Y-112477614D01*
X139250001Y-112477614D02*
X139321429Y-112334757D01*
X139321429Y-112334757D02*
X139464287Y-112263328D01*
X139464287Y-112263328D02*
X139750001Y-112263328D01*
X139750001Y-112263328D02*
X139892858Y-112334757D01*
X139892858Y-112334757D02*
X139964287Y-112477614D01*
X139964287Y-112477614D02*
X139964287Y-112620471D01*
X139964287Y-112620471D02*
X139250001Y-112763328D01*
X140464286Y-112263328D02*
X140821429Y-113263328D01*
X140821429Y-113263328D02*
X141178572Y-112263328D01*
X142392858Y-113263328D02*
X142392858Y-112477614D01*
X142392858Y-112477614D02*
X142321429Y-112334757D01*
X142321429Y-112334757D02*
X142178572Y-112263328D01*
X142178572Y-112263328D02*
X141892858Y-112263328D01*
X141892858Y-112263328D02*
X141750000Y-112334757D01*
X142392858Y-113191900D02*
X142250000Y-113263328D01*
X142250000Y-113263328D02*
X141892858Y-113263328D01*
X141892858Y-113263328D02*
X141750000Y-113191900D01*
X141750000Y-113191900D02*
X141678572Y-113049042D01*
X141678572Y-113049042D02*
X141678572Y-112906185D01*
X141678572Y-112906185D02*
X141750000Y-112763328D01*
X141750000Y-112763328D02*
X141892858Y-112691900D01*
X141892858Y-112691900D02*
X142250000Y-112691900D01*
X142250000Y-112691900D02*
X142392858Y-112620471D01*
X143107143Y-112263328D02*
X143107143Y-113763328D01*
X143107143Y-112334757D02*
X143250001Y-112263328D01*
X143250001Y-112263328D02*
X143535715Y-112263328D01*
X143535715Y-112263328D02*
X143678572Y-112334757D01*
X143678572Y-112334757D02*
X143750001Y-112406185D01*
X143750001Y-112406185D02*
X143821429Y-112549042D01*
X143821429Y-112549042D02*
X143821429Y-112977614D01*
X143821429Y-112977614D02*
X143750001Y-113120471D01*
X143750001Y-113120471D02*
X143678572Y-113191900D01*
X143678572Y-113191900D02*
X143535715Y-113263328D01*
X143535715Y-113263328D02*
X143250001Y-113263328D01*
X143250001Y-113263328D02*
X143107143Y-113191900D01*
X144678572Y-113263328D02*
X144535715Y-113191900D01*
X144535715Y-113191900D02*
X144464286Y-113120471D01*
X144464286Y-113120471D02*
X144392858Y-112977614D01*
X144392858Y-112977614D02*
X144392858Y-112549042D01*
X144392858Y-112549042D02*
X144464286Y-112406185D01*
X144464286Y-112406185D02*
X144535715Y-112334757D01*
X144535715Y-112334757D02*
X144678572Y-112263328D01*
X144678572Y-112263328D02*
X144892858Y-112263328D01*
X144892858Y-112263328D02*
X145035715Y-112334757D01*
X145035715Y-112334757D02*
X145107144Y-112406185D01*
X145107144Y-112406185D02*
X145178572Y-112549042D01*
X145178572Y-112549042D02*
X145178572Y-112977614D01*
X145178572Y-112977614D02*
X145107144Y-113120471D01*
X145107144Y-113120471D02*
X145035715Y-113191900D01*
X145035715Y-113191900D02*
X144892858Y-113263328D01*
X144892858Y-113263328D02*
X144678572Y-113263328D01*
X145821429Y-113263328D02*
X145821429Y-112263328D01*
X145821429Y-112549042D02*
X145892858Y-112406185D01*
X145892858Y-112406185D02*
X145964287Y-112334757D01*
X145964287Y-112334757D02*
X146107144Y-112263328D01*
X146107144Y-112263328D02*
X146250001Y-112263328D01*
X147392858Y-113263328D02*
X147392858Y-112477614D01*
X147392858Y-112477614D02*
X147321429Y-112334757D01*
X147321429Y-112334757D02*
X147178572Y-112263328D01*
X147178572Y-112263328D02*
X146892858Y-112263328D01*
X146892858Y-112263328D02*
X146750000Y-112334757D01*
X147392858Y-113191900D02*
X147250000Y-113263328D01*
X147250000Y-113263328D02*
X146892858Y-113263328D01*
X146892858Y-113263328D02*
X146750000Y-113191900D01*
X146750000Y-113191900D02*
X146678572Y-113049042D01*
X146678572Y-113049042D02*
X146678572Y-112906185D01*
X146678572Y-112906185D02*
X146750000Y-112763328D01*
X146750000Y-112763328D02*
X146892858Y-112691900D01*
X146892858Y-112691900D02*
X147250000Y-112691900D01*
X147250000Y-112691900D02*
X147392858Y-112620471D01*
X147892858Y-112263328D02*
X148464286Y-112263328D01*
X148107143Y-111763328D02*
X148107143Y-113049042D01*
X148107143Y-113049042D02*
X148178572Y-113191900D01*
X148178572Y-113191900D02*
X148321429Y-113263328D01*
X148321429Y-113263328D02*
X148464286Y-113263328D01*
X149535715Y-113191900D02*
X149392858Y-113263328D01*
X149392858Y-113263328D02*
X149107144Y-113263328D01*
X149107144Y-113263328D02*
X148964286Y-113191900D01*
X148964286Y-113191900D02*
X148892858Y-113049042D01*
X148892858Y-113049042D02*
X148892858Y-112477614D01*
X148892858Y-112477614D02*
X148964286Y-112334757D01*
X148964286Y-112334757D02*
X149107144Y-112263328D01*
X149107144Y-112263328D02*
X149392858Y-112263328D01*
X149392858Y-112263328D02*
X149535715Y-112334757D01*
X149535715Y-112334757D02*
X149607144Y-112477614D01*
X149607144Y-112477614D02*
X149607144Y-112620471D01*
X149607144Y-112620471D02*
X148892858Y-112763328D01*
X151607143Y-113263328D02*
X151464286Y-113191900D01*
X151464286Y-113191900D02*
X151392857Y-113049042D01*
X151392857Y-113049042D02*
X151392857Y-111763328D01*
X152178571Y-113263328D02*
X152178571Y-112263328D01*
X152178571Y-111763328D02*
X152107143Y-111834757D01*
X152107143Y-111834757D02*
X152178571Y-111906185D01*
X152178571Y-111906185D02*
X152250000Y-111834757D01*
X152250000Y-111834757D02*
X152178571Y-111763328D01*
X152178571Y-111763328D02*
X152178571Y-111906185D01*
X152892857Y-113263328D02*
X152892857Y-111763328D01*
X153035715Y-112691900D02*
X153464286Y-113263328D01*
X153464286Y-112263328D02*
X152892857Y-112834757D01*
X154678572Y-113191900D02*
X154535715Y-113263328D01*
X154535715Y-113263328D02*
X154250001Y-113263328D01*
X154250001Y-113263328D02*
X154107143Y-113191900D01*
X154107143Y-113191900D02*
X154035715Y-113049042D01*
X154035715Y-113049042D02*
X154035715Y-112477614D01*
X154035715Y-112477614D02*
X154107143Y-112334757D01*
X154107143Y-112334757D02*
X154250001Y-112263328D01*
X154250001Y-112263328D02*
X154535715Y-112263328D01*
X154535715Y-112263328D02*
X154678572Y-112334757D01*
X154678572Y-112334757D02*
X154750001Y-112477614D01*
X154750001Y-112477614D02*
X154750001Y-112620471D01*
X154750001Y-112620471D02*
X154035715Y-112763328D01*
X157178572Y-113191900D02*
X157035714Y-113263328D01*
X157035714Y-113263328D02*
X156750000Y-113263328D01*
X156750000Y-113263328D02*
X156607143Y-113191900D01*
X156607143Y-113191900D02*
X156535714Y-113120471D01*
X156535714Y-113120471D02*
X156464286Y-112977614D01*
X156464286Y-112977614D02*
X156464286Y-112549042D01*
X156464286Y-112549042D02*
X156535714Y-112406185D01*
X156535714Y-112406185D02*
X156607143Y-112334757D01*
X156607143Y-112334757D02*
X156750000Y-112263328D01*
X156750000Y-112263328D02*
X157035714Y-112263328D01*
X157035714Y-112263328D02*
X157178572Y-112334757D01*
X157821428Y-113263328D02*
X157821428Y-112263328D01*
X157821428Y-112549042D02*
X157892857Y-112406185D01*
X157892857Y-112406185D02*
X157964286Y-112334757D01*
X157964286Y-112334757D02*
X158107143Y-112263328D01*
X158107143Y-112263328D02*
X158250000Y-112263328D01*
X159321428Y-113191900D02*
X159178571Y-113263328D01*
X159178571Y-113263328D02*
X158892857Y-113263328D01*
X158892857Y-113263328D02*
X158749999Y-113191900D01*
X158749999Y-113191900D02*
X158678571Y-113049042D01*
X158678571Y-113049042D02*
X158678571Y-112477614D01*
X158678571Y-112477614D02*
X158749999Y-112334757D01*
X158749999Y-112334757D02*
X158892857Y-112263328D01*
X158892857Y-112263328D02*
X159178571Y-112263328D01*
X159178571Y-112263328D02*
X159321428Y-112334757D01*
X159321428Y-112334757D02*
X159392857Y-112477614D01*
X159392857Y-112477614D02*
X159392857Y-112620471D01*
X159392857Y-112620471D02*
X158678571Y-112763328D01*
X160607142Y-113191900D02*
X160464285Y-113263328D01*
X160464285Y-113263328D02*
X160178571Y-113263328D01*
X160178571Y-113263328D02*
X160035713Y-113191900D01*
X160035713Y-113191900D02*
X159964285Y-113049042D01*
X159964285Y-113049042D02*
X159964285Y-112477614D01*
X159964285Y-112477614D02*
X160035713Y-112334757D01*
X160035713Y-112334757D02*
X160178571Y-112263328D01*
X160178571Y-112263328D02*
X160464285Y-112263328D01*
X160464285Y-112263328D02*
X160607142Y-112334757D01*
X160607142Y-112334757D02*
X160678571Y-112477614D01*
X160678571Y-112477614D02*
X160678571Y-112620471D01*
X160678571Y-112620471D02*
X159964285Y-112763328D01*
X161321427Y-113263328D02*
X161321427Y-111763328D01*
X161464285Y-112691900D02*
X161892856Y-113263328D01*
X161892856Y-112263328D02*
X161321427Y-112834757D01*
X162464285Y-113191900D02*
X162607142Y-113263328D01*
X162607142Y-113263328D02*
X162892856Y-113263328D01*
X162892856Y-113263328D02*
X163035713Y-113191900D01*
X163035713Y-113191900D02*
X163107142Y-113049042D01*
X163107142Y-113049042D02*
X163107142Y-112977614D01*
X163107142Y-112977614D02*
X163035713Y-112834757D01*
X163035713Y-112834757D02*
X162892856Y-112763328D01*
X162892856Y-112763328D02*
X162678571Y-112763328D01*
X162678571Y-112763328D02*
X162535713Y-112691900D01*
X162535713Y-112691900D02*
X162464285Y-112549042D01*
X162464285Y-112549042D02*
X162464285Y-112477614D01*
X162464285Y-112477614D02*
X162535713Y-112334757D01*
X162535713Y-112334757D02*
X162678571Y-112263328D01*
X162678571Y-112263328D02*
X162892856Y-112263328D01*
X162892856Y-112263328D02*
X163035713Y-112334757D01*
X164892856Y-113263328D02*
X164892856Y-112263328D01*
X164892856Y-111763328D02*
X164821428Y-111834757D01*
X164821428Y-111834757D02*
X164892856Y-111906185D01*
X164892856Y-111906185D02*
X164964285Y-111834757D01*
X164964285Y-111834757D02*
X164892856Y-111763328D01*
X164892856Y-111763328D02*
X164892856Y-111906185D01*
X165607142Y-112263328D02*
X165607142Y-113263328D01*
X165607142Y-112406185D02*
X165678571Y-112334757D01*
X165678571Y-112334757D02*
X165821428Y-112263328D01*
X165821428Y-112263328D02*
X166035714Y-112263328D01*
X166035714Y-112263328D02*
X166178571Y-112334757D01*
X166178571Y-112334757D02*
X166250000Y-112477614D01*
X166250000Y-112477614D02*
X166250000Y-113263328D01*
X167892857Y-112263328D02*
X168464285Y-112263328D01*
X168107142Y-111763328D02*
X168107142Y-113049042D01*
X168107142Y-113049042D02*
X168178571Y-113191900D01*
X168178571Y-113191900D02*
X168321428Y-113263328D01*
X168321428Y-113263328D02*
X168464285Y-113263328D01*
X168964285Y-113263328D02*
X168964285Y-111763328D01*
X169607143Y-113263328D02*
X169607143Y-112477614D01*
X169607143Y-112477614D02*
X169535714Y-112334757D01*
X169535714Y-112334757D02*
X169392857Y-112263328D01*
X169392857Y-112263328D02*
X169178571Y-112263328D01*
X169178571Y-112263328D02*
X169035714Y-112334757D01*
X169035714Y-112334757D02*
X168964285Y-112406185D01*
X170892857Y-113191900D02*
X170750000Y-113263328D01*
X170750000Y-113263328D02*
X170464286Y-113263328D01*
X170464286Y-113263328D02*
X170321428Y-113191900D01*
X170321428Y-113191900D02*
X170250000Y-113049042D01*
X170250000Y-113049042D02*
X170250000Y-112477614D01*
X170250000Y-112477614D02*
X170321428Y-112334757D01*
X170321428Y-112334757D02*
X170464286Y-112263328D01*
X170464286Y-112263328D02*
X170750000Y-112263328D01*
X170750000Y-112263328D02*
X170892857Y-112334757D01*
X170892857Y-112334757D02*
X170964286Y-112477614D01*
X170964286Y-112477614D02*
X170964286Y-112620471D01*
X170964286Y-112620471D02*
X170250000Y-112763328D01*
X173392857Y-113263328D02*
X173392857Y-111763328D01*
X173392857Y-113191900D02*
X173249999Y-113263328D01*
X173249999Y-113263328D02*
X172964285Y-113263328D01*
X172964285Y-113263328D02*
X172821428Y-113191900D01*
X172821428Y-113191900D02*
X172749999Y-113120471D01*
X172749999Y-113120471D02*
X172678571Y-112977614D01*
X172678571Y-112977614D02*
X172678571Y-112549042D01*
X172678571Y-112549042D02*
X172749999Y-112406185D01*
X172749999Y-112406185D02*
X172821428Y-112334757D01*
X172821428Y-112334757D02*
X172964285Y-112263328D01*
X172964285Y-112263328D02*
X173249999Y-112263328D01*
X173249999Y-112263328D02*
X173392857Y-112334757D01*
X174678571Y-113191900D02*
X174535714Y-113263328D01*
X174535714Y-113263328D02*
X174250000Y-113263328D01*
X174250000Y-113263328D02*
X174107142Y-113191900D01*
X174107142Y-113191900D02*
X174035714Y-113049042D01*
X174035714Y-113049042D02*
X174035714Y-112477614D01*
X174035714Y-112477614D02*
X174107142Y-112334757D01*
X174107142Y-112334757D02*
X174250000Y-112263328D01*
X174250000Y-112263328D02*
X174535714Y-112263328D01*
X174535714Y-112263328D02*
X174678571Y-112334757D01*
X174678571Y-112334757D02*
X174750000Y-112477614D01*
X174750000Y-112477614D02*
X174750000Y-112620471D01*
X174750000Y-112620471D02*
X174035714Y-112763328D01*
X175321428Y-113191900D02*
X175464285Y-113263328D01*
X175464285Y-113263328D02*
X175749999Y-113263328D01*
X175749999Y-113263328D02*
X175892856Y-113191900D01*
X175892856Y-113191900D02*
X175964285Y-113049042D01*
X175964285Y-113049042D02*
X175964285Y-112977614D01*
X175964285Y-112977614D02*
X175892856Y-112834757D01*
X175892856Y-112834757D02*
X175749999Y-112763328D01*
X175749999Y-112763328D02*
X175535714Y-112763328D01*
X175535714Y-112763328D02*
X175392856Y-112691900D01*
X175392856Y-112691900D02*
X175321428Y-112549042D01*
X175321428Y-112549042D02*
X175321428Y-112477614D01*
X175321428Y-112477614D02*
X175392856Y-112334757D01*
X175392856Y-112334757D02*
X175535714Y-112263328D01*
X175535714Y-112263328D02*
X175749999Y-112263328D01*
X175749999Y-112263328D02*
X175892856Y-112334757D01*
X177178571Y-113191900D02*
X177035714Y-113263328D01*
X177035714Y-113263328D02*
X176750000Y-113263328D01*
X176750000Y-113263328D02*
X176607142Y-113191900D01*
X176607142Y-113191900D02*
X176535714Y-113049042D01*
X176535714Y-113049042D02*
X176535714Y-112477614D01*
X176535714Y-112477614D02*
X176607142Y-112334757D01*
X176607142Y-112334757D02*
X176750000Y-112263328D01*
X176750000Y-112263328D02*
X177035714Y-112263328D01*
X177035714Y-112263328D02*
X177178571Y-112334757D01*
X177178571Y-112334757D02*
X177250000Y-112477614D01*
X177250000Y-112477614D02*
X177250000Y-112620471D01*
X177250000Y-112620471D02*
X176535714Y-112763328D01*
X177892856Y-113263328D02*
X177892856Y-112263328D01*
X177892856Y-112549042D02*
X177964285Y-112406185D01*
X177964285Y-112406185D02*
X178035714Y-112334757D01*
X178035714Y-112334757D02*
X178178571Y-112263328D01*
X178178571Y-112263328D02*
X178321428Y-112263328D01*
X178607142Y-112263328D02*
X179178570Y-112263328D01*
X178821427Y-111763328D02*
X178821427Y-113049042D01*
X178821427Y-113049042D02*
X178892856Y-113191900D01*
X178892856Y-113191900D02*
X179035713Y-113263328D01*
X179035713Y-113263328D02*
X179178570Y-113263328D01*
X179678570Y-113120471D02*
X179749999Y-113191900D01*
X179749999Y-113191900D02*
X179678570Y-113263328D01*
X179678570Y-113263328D02*
X179607142Y-113191900D01*
X179607142Y-113191900D02*
X179678570Y-113120471D01*
X179678570Y-113120471D02*
X179678570Y-113263328D01*
X120250000Y-114178328D02*
X121107143Y-114178328D01*
X120678571Y-115678328D02*
X120678571Y-114178328D01*
X121607142Y-115678328D02*
X121607142Y-114178328D01*
X122250000Y-115678328D02*
X122250000Y-114892614D01*
X122250000Y-114892614D02*
X122178571Y-114749757D01*
X122178571Y-114749757D02*
X122035714Y-114678328D01*
X122035714Y-114678328D02*
X121821428Y-114678328D01*
X121821428Y-114678328D02*
X121678571Y-114749757D01*
X121678571Y-114749757D02*
X121607142Y-114821185D01*
X123607143Y-115678328D02*
X123607143Y-114892614D01*
X123607143Y-114892614D02*
X123535714Y-114749757D01*
X123535714Y-114749757D02*
X123392857Y-114678328D01*
X123392857Y-114678328D02*
X123107143Y-114678328D01*
X123107143Y-114678328D02*
X122964285Y-114749757D01*
X123607143Y-115606900D02*
X123464285Y-115678328D01*
X123464285Y-115678328D02*
X123107143Y-115678328D01*
X123107143Y-115678328D02*
X122964285Y-115606900D01*
X122964285Y-115606900D02*
X122892857Y-115464042D01*
X122892857Y-115464042D02*
X122892857Y-115321185D01*
X122892857Y-115321185D02*
X122964285Y-115178328D01*
X122964285Y-115178328D02*
X123107143Y-115106900D01*
X123107143Y-115106900D02*
X123464285Y-115106900D01*
X123464285Y-115106900D02*
X123607143Y-115035471D01*
X124107143Y-114678328D02*
X124678571Y-114678328D01*
X124321428Y-114178328D02*
X124321428Y-115464042D01*
X124321428Y-115464042D02*
X124392857Y-115606900D01*
X124392857Y-115606900D02*
X124535714Y-115678328D01*
X124535714Y-115678328D02*
X124678571Y-115678328D01*
X125250000Y-114178328D02*
X125107143Y-114464042D01*
X125821429Y-115606900D02*
X125964286Y-115678328D01*
X125964286Y-115678328D02*
X126250000Y-115678328D01*
X126250000Y-115678328D02*
X126392857Y-115606900D01*
X126392857Y-115606900D02*
X126464286Y-115464042D01*
X126464286Y-115464042D02*
X126464286Y-115392614D01*
X126464286Y-115392614D02*
X126392857Y-115249757D01*
X126392857Y-115249757D02*
X126250000Y-115178328D01*
X126250000Y-115178328D02*
X126035715Y-115178328D01*
X126035715Y-115178328D02*
X125892857Y-115106900D01*
X125892857Y-115106900D02*
X125821429Y-114964042D01*
X125821429Y-114964042D02*
X125821429Y-114892614D01*
X125821429Y-114892614D02*
X125892857Y-114749757D01*
X125892857Y-114749757D02*
X126035715Y-114678328D01*
X126035715Y-114678328D02*
X126250000Y-114678328D01*
X126250000Y-114678328D02*
X126392857Y-114749757D01*
X128107143Y-114678328D02*
X128392858Y-115678328D01*
X128392858Y-115678328D02*
X128678572Y-114964042D01*
X128678572Y-114964042D02*
X128964286Y-115678328D01*
X128964286Y-115678328D02*
X129250000Y-114678328D01*
X129821429Y-115678328D02*
X129821429Y-114178328D01*
X130464287Y-115678328D02*
X130464287Y-114892614D01*
X130464287Y-114892614D02*
X130392858Y-114749757D01*
X130392858Y-114749757D02*
X130250001Y-114678328D01*
X130250001Y-114678328D02*
X130035715Y-114678328D01*
X130035715Y-114678328D02*
X129892858Y-114749757D01*
X129892858Y-114749757D02*
X129821429Y-114821185D01*
X131035715Y-114678328D02*
X131392858Y-115678328D01*
X131750001Y-114678328D02*
X131392858Y-115678328D01*
X131392858Y-115678328D02*
X131250001Y-116035471D01*
X131250001Y-116035471D02*
X131178572Y-116106900D01*
X131178572Y-116106900D02*
X131035715Y-116178328D01*
X133464286Y-115678328D02*
X133464286Y-114678328D01*
X133464286Y-114178328D02*
X133392858Y-114249757D01*
X133392858Y-114249757D02*
X133464286Y-114321185D01*
X133464286Y-114321185D02*
X133535715Y-114249757D01*
X133535715Y-114249757D02*
X133464286Y-114178328D01*
X133464286Y-114178328D02*
X133464286Y-114321185D01*
X133964287Y-114678328D02*
X134535715Y-114678328D01*
X134178572Y-114178328D02*
X134178572Y-115464042D01*
X134178572Y-115464042D02*
X134250001Y-115606900D01*
X134250001Y-115606900D02*
X134392858Y-115678328D01*
X134392858Y-115678328D02*
X134535715Y-115678328D01*
X135107144Y-114178328D02*
X134964287Y-114464042D01*
X135678573Y-115606900D02*
X135821430Y-115678328D01*
X135821430Y-115678328D02*
X136107144Y-115678328D01*
X136107144Y-115678328D02*
X136250001Y-115606900D01*
X136250001Y-115606900D02*
X136321430Y-115464042D01*
X136321430Y-115464042D02*
X136321430Y-115392614D01*
X136321430Y-115392614D02*
X136250001Y-115249757D01*
X136250001Y-115249757D02*
X136107144Y-115178328D01*
X136107144Y-115178328D02*
X135892859Y-115178328D01*
X135892859Y-115178328D02*
X135750001Y-115106900D01*
X135750001Y-115106900D02*
X135678573Y-114964042D01*
X135678573Y-114964042D02*
X135678573Y-114892614D01*
X135678573Y-114892614D02*
X135750001Y-114749757D01*
X135750001Y-114749757D02*
X135892859Y-114678328D01*
X135892859Y-114678328D02*
X136107144Y-114678328D01*
X136107144Y-114678328D02*
X136250001Y-114749757D01*
X138321430Y-115678328D02*
X138178573Y-115606900D01*
X138178573Y-115606900D02*
X138107144Y-115535471D01*
X138107144Y-115535471D02*
X138035716Y-115392614D01*
X138035716Y-115392614D02*
X138035716Y-114964042D01*
X138035716Y-114964042D02*
X138107144Y-114821185D01*
X138107144Y-114821185D02*
X138178573Y-114749757D01*
X138178573Y-114749757D02*
X138321430Y-114678328D01*
X138321430Y-114678328D02*
X138535716Y-114678328D01*
X138535716Y-114678328D02*
X138678573Y-114749757D01*
X138678573Y-114749757D02*
X138750002Y-114821185D01*
X138750002Y-114821185D02*
X138821430Y-114964042D01*
X138821430Y-114964042D02*
X138821430Y-115392614D01*
X138821430Y-115392614D02*
X138750002Y-115535471D01*
X138750002Y-115535471D02*
X138678573Y-115606900D01*
X138678573Y-115606900D02*
X138535716Y-115678328D01*
X138535716Y-115678328D02*
X138321430Y-115678328D01*
X139464287Y-115678328D02*
X139464287Y-114178328D01*
X139607145Y-115106900D02*
X140035716Y-115678328D01*
X140035716Y-114678328D02*
X139464287Y-115249757D01*
X141321431Y-115678328D02*
X141321431Y-114892614D01*
X141321431Y-114892614D02*
X141250002Y-114749757D01*
X141250002Y-114749757D02*
X141107145Y-114678328D01*
X141107145Y-114678328D02*
X140821431Y-114678328D01*
X140821431Y-114678328D02*
X140678573Y-114749757D01*
X141321431Y-115606900D02*
X141178573Y-115678328D01*
X141178573Y-115678328D02*
X140821431Y-115678328D01*
X140821431Y-115678328D02*
X140678573Y-115606900D01*
X140678573Y-115606900D02*
X140607145Y-115464042D01*
X140607145Y-115464042D02*
X140607145Y-115321185D01*
X140607145Y-115321185D02*
X140678573Y-115178328D01*
X140678573Y-115178328D02*
X140821431Y-115106900D01*
X140821431Y-115106900D02*
X141178573Y-115106900D01*
X141178573Y-115106900D02*
X141321431Y-115035471D01*
X141892859Y-114678328D02*
X142250002Y-115678328D01*
X142607145Y-114678328D02*
X142250002Y-115678328D01*
X142250002Y-115678328D02*
X142107145Y-116035471D01*
X142107145Y-116035471D02*
X142035716Y-116106900D01*
X142035716Y-116106900D02*
X141892859Y-116178328D01*
X144107145Y-114678328D02*
X144678573Y-114678328D01*
X144321430Y-114178328D02*
X144321430Y-115464042D01*
X144321430Y-115464042D02*
X144392859Y-115606900D01*
X144392859Y-115606900D02*
X144535716Y-115678328D01*
X144535716Y-115678328D02*
X144678573Y-115678328D01*
X145392859Y-115678328D02*
X145250002Y-115606900D01*
X145250002Y-115606900D02*
X145178573Y-115535471D01*
X145178573Y-115535471D02*
X145107145Y-115392614D01*
X145107145Y-115392614D02*
X145107145Y-114964042D01*
X145107145Y-114964042D02*
X145178573Y-114821185D01*
X145178573Y-114821185D02*
X145250002Y-114749757D01*
X145250002Y-114749757D02*
X145392859Y-114678328D01*
X145392859Y-114678328D02*
X145607145Y-114678328D01*
X145607145Y-114678328D02*
X145750002Y-114749757D01*
X145750002Y-114749757D02*
X145821431Y-114821185D01*
X145821431Y-114821185D02*
X145892859Y-114964042D01*
X145892859Y-114964042D02*
X145892859Y-115392614D01*
X145892859Y-115392614D02*
X145821431Y-115535471D01*
X145821431Y-115535471D02*
X145750002Y-115606900D01*
X145750002Y-115606900D02*
X145607145Y-115678328D01*
X145607145Y-115678328D02*
X145392859Y-115678328D01*
X147678573Y-115678328D02*
X147678573Y-114178328D01*
X147678573Y-114749757D02*
X147821431Y-114678328D01*
X147821431Y-114678328D02*
X148107145Y-114678328D01*
X148107145Y-114678328D02*
X148250002Y-114749757D01*
X148250002Y-114749757D02*
X148321431Y-114821185D01*
X148321431Y-114821185D02*
X148392859Y-114964042D01*
X148392859Y-114964042D02*
X148392859Y-115392614D01*
X148392859Y-115392614D02*
X148321431Y-115535471D01*
X148321431Y-115535471D02*
X148250002Y-115606900D01*
X148250002Y-115606900D02*
X148107145Y-115678328D01*
X148107145Y-115678328D02*
X147821431Y-115678328D01*
X147821431Y-115678328D02*
X147678573Y-115606900D01*
X149607145Y-115606900D02*
X149464288Y-115678328D01*
X149464288Y-115678328D02*
X149178574Y-115678328D01*
X149178574Y-115678328D02*
X149035716Y-115606900D01*
X149035716Y-115606900D02*
X148964288Y-115464042D01*
X148964288Y-115464042D02*
X148964288Y-114892614D01*
X148964288Y-114892614D02*
X149035716Y-114749757D01*
X149035716Y-114749757D02*
X149178574Y-114678328D01*
X149178574Y-114678328D02*
X149464288Y-114678328D01*
X149464288Y-114678328D02*
X149607145Y-114749757D01*
X149607145Y-114749757D02*
X149678574Y-114892614D01*
X149678574Y-114892614D02*
X149678574Y-115035471D01*
X149678574Y-115035471D02*
X148964288Y-115178328D01*
X152107145Y-115606900D02*
X151964287Y-115678328D01*
X151964287Y-115678328D02*
X151678573Y-115678328D01*
X151678573Y-115678328D02*
X151535716Y-115606900D01*
X151535716Y-115606900D02*
X151464287Y-115535471D01*
X151464287Y-115535471D02*
X151392859Y-115392614D01*
X151392859Y-115392614D02*
X151392859Y-114964042D01*
X151392859Y-114964042D02*
X151464287Y-114821185D01*
X151464287Y-114821185D02*
X151535716Y-114749757D01*
X151535716Y-114749757D02*
X151678573Y-114678328D01*
X151678573Y-114678328D02*
X151964287Y-114678328D01*
X151964287Y-114678328D02*
X152107145Y-114749757D01*
X152750001Y-115678328D02*
X152750001Y-114678328D01*
X152750001Y-114964042D02*
X152821430Y-114821185D01*
X152821430Y-114821185D02*
X152892859Y-114749757D01*
X152892859Y-114749757D02*
X153035716Y-114678328D01*
X153035716Y-114678328D02*
X153178573Y-114678328D01*
X154321430Y-114678328D02*
X154321430Y-115678328D01*
X153678572Y-114678328D02*
X153678572Y-115464042D01*
X153678572Y-115464042D02*
X153750001Y-115606900D01*
X153750001Y-115606900D02*
X153892858Y-115678328D01*
X153892858Y-115678328D02*
X154107144Y-115678328D01*
X154107144Y-115678328D02*
X154250001Y-115606900D01*
X154250001Y-115606900D02*
X154321430Y-115535471D01*
X155607144Y-115606900D02*
X155464287Y-115678328D01*
X155464287Y-115678328D02*
X155178573Y-115678328D01*
X155178573Y-115678328D02*
X155035715Y-115606900D01*
X155035715Y-115606900D02*
X154964287Y-115464042D01*
X154964287Y-115464042D02*
X154964287Y-114892614D01*
X154964287Y-114892614D02*
X155035715Y-114749757D01*
X155035715Y-114749757D02*
X155178573Y-114678328D01*
X155178573Y-114678328D02*
X155464287Y-114678328D01*
X155464287Y-114678328D02*
X155607144Y-114749757D01*
X155607144Y-114749757D02*
X155678573Y-114892614D01*
X155678573Y-114892614D02*
X155678573Y-115035471D01*
X155678573Y-115035471D02*
X154964287Y-115178328D01*
X156535715Y-115678328D02*
X156392858Y-115606900D01*
X156392858Y-115606900D02*
X156321429Y-115464042D01*
X156321429Y-115464042D02*
X156321429Y-114178328D01*
X158035715Y-114678328D02*
X158607143Y-114678328D01*
X158250000Y-114178328D02*
X158250000Y-115464042D01*
X158250000Y-115464042D02*
X158321429Y-115606900D01*
X158321429Y-115606900D02*
X158464286Y-115678328D01*
X158464286Y-115678328D02*
X158607143Y-115678328D01*
X159321429Y-115678328D02*
X159178572Y-115606900D01*
X159178572Y-115606900D02*
X159107143Y-115535471D01*
X159107143Y-115535471D02*
X159035715Y-115392614D01*
X159035715Y-115392614D02*
X159035715Y-114964042D01*
X159035715Y-114964042D02*
X159107143Y-114821185D01*
X159107143Y-114821185D02*
X159178572Y-114749757D01*
X159178572Y-114749757D02*
X159321429Y-114678328D01*
X159321429Y-114678328D02*
X159535715Y-114678328D01*
X159535715Y-114678328D02*
X159678572Y-114749757D01*
X159678572Y-114749757D02*
X159750001Y-114821185D01*
X159750001Y-114821185D02*
X159821429Y-114964042D01*
X159821429Y-114964042D02*
X159821429Y-115392614D01*
X159821429Y-115392614D02*
X159750001Y-115535471D01*
X159750001Y-115535471D02*
X159678572Y-115606900D01*
X159678572Y-115606900D02*
X159535715Y-115678328D01*
X159535715Y-115678328D02*
X159321429Y-115678328D01*
X161464286Y-114678328D02*
X161821429Y-115678328D01*
X162178572Y-114678328D02*
X161821429Y-115678328D01*
X161821429Y-115678328D02*
X161678572Y-116035471D01*
X161678572Y-116035471D02*
X161607143Y-116106900D01*
X161607143Y-116106900D02*
X161464286Y-116178328D01*
X162964286Y-115678328D02*
X162821429Y-115606900D01*
X162821429Y-115606900D02*
X162750000Y-115535471D01*
X162750000Y-115535471D02*
X162678572Y-115392614D01*
X162678572Y-115392614D02*
X162678572Y-114964042D01*
X162678572Y-114964042D02*
X162750000Y-114821185D01*
X162750000Y-114821185D02*
X162821429Y-114749757D01*
X162821429Y-114749757D02*
X162964286Y-114678328D01*
X162964286Y-114678328D02*
X163178572Y-114678328D01*
X163178572Y-114678328D02*
X163321429Y-114749757D01*
X163321429Y-114749757D02*
X163392858Y-114821185D01*
X163392858Y-114821185D02*
X163464286Y-114964042D01*
X163464286Y-114964042D02*
X163464286Y-115392614D01*
X163464286Y-115392614D02*
X163392858Y-115535471D01*
X163392858Y-115535471D02*
X163321429Y-115606900D01*
X163321429Y-115606900D02*
X163178572Y-115678328D01*
X163178572Y-115678328D02*
X162964286Y-115678328D01*
X164750001Y-114678328D02*
X164750001Y-115678328D01*
X164107143Y-114678328D02*
X164107143Y-115464042D01*
X164107143Y-115464042D02*
X164178572Y-115606900D01*
X164178572Y-115606900D02*
X164321429Y-115678328D01*
X164321429Y-115678328D02*
X164535715Y-115678328D01*
X164535715Y-115678328D02*
X164678572Y-115606900D01*
X164678572Y-115606900D02*
X164750001Y-115535471D01*
X165464286Y-115678328D02*
X165464286Y-114678328D01*
X165464286Y-114964042D02*
X165535715Y-114821185D01*
X165535715Y-114821185D02*
X165607144Y-114749757D01*
X165607144Y-114749757D02*
X165750001Y-114678328D01*
X165750001Y-114678328D02*
X165892858Y-114678328D01*
X166321429Y-115606900D02*
X166464286Y-115678328D01*
X166464286Y-115678328D02*
X166750000Y-115678328D01*
X166750000Y-115678328D02*
X166892857Y-115606900D01*
X166892857Y-115606900D02*
X166964286Y-115464042D01*
X166964286Y-115464042D02*
X166964286Y-115392614D01*
X166964286Y-115392614D02*
X166892857Y-115249757D01*
X166892857Y-115249757D02*
X166750000Y-115178328D01*
X166750000Y-115178328D02*
X166535715Y-115178328D01*
X166535715Y-115178328D02*
X166392857Y-115106900D01*
X166392857Y-115106900D02*
X166321429Y-114964042D01*
X166321429Y-114964042D02*
X166321429Y-114892614D01*
X166321429Y-114892614D02*
X166392857Y-114749757D01*
X166392857Y-114749757D02*
X166535715Y-114678328D01*
X166535715Y-114678328D02*
X166750000Y-114678328D01*
X166750000Y-114678328D02*
X166892857Y-114749757D01*
X168178572Y-115606900D02*
X168035715Y-115678328D01*
X168035715Y-115678328D02*
X167750001Y-115678328D01*
X167750001Y-115678328D02*
X167607143Y-115606900D01*
X167607143Y-115606900D02*
X167535715Y-115464042D01*
X167535715Y-115464042D02*
X167535715Y-114892614D01*
X167535715Y-114892614D02*
X167607143Y-114749757D01*
X167607143Y-114749757D02*
X167750001Y-114678328D01*
X167750001Y-114678328D02*
X168035715Y-114678328D01*
X168035715Y-114678328D02*
X168178572Y-114749757D01*
X168178572Y-114749757D02*
X168250001Y-114892614D01*
X168250001Y-114892614D02*
X168250001Y-115035471D01*
X168250001Y-115035471D02*
X167535715Y-115178328D01*
X169107143Y-115678328D02*
X168964286Y-115606900D01*
X168964286Y-115606900D02*
X168892857Y-115464042D01*
X168892857Y-115464042D02*
X168892857Y-114178328D01*
X169464286Y-114678328D02*
X170035714Y-114678328D01*
X169678571Y-115678328D02*
X169678571Y-114392614D01*
X169678571Y-114392614D02*
X169750000Y-114249757D01*
X169750000Y-114249757D02*
X169892857Y-114178328D01*
X169892857Y-114178328D02*
X170035714Y-114178328D01*
X172321429Y-115678328D02*
X172321429Y-114892614D01*
X172321429Y-114892614D02*
X172250000Y-114749757D01*
X172250000Y-114749757D02*
X172107143Y-114678328D01*
X172107143Y-114678328D02*
X171821429Y-114678328D01*
X171821429Y-114678328D02*
X171678571Y-114749757D01*
X172321429Y-115606900D02*
X172178571Y-115678328D01*
X172178571Y-115678328D02*
X171821429Y-115678328D01*
X171821429Y-115678328D02*
X171678571Y-115606900D01*
X171678571Y-115606900D02*
X171607143Y-115464042D01*
X171607143Y-115464042D02*
X171607143Y-115321185D01*
X171607143Y-115321185D02*
X171678571Y-115178328D01*
X171678571Y-115178328D02*
X171821429Y-115106900D01*
X171821429Y-115106900D02*
X172178571Y-115106900D01*
X172178571Y-115106900D02*
X172321429Y-115035471D01*
X172964286Y-115606900D02*
X173107143Y-115678328D01*
X173107143Y-115678328D02*
X173392857Y-115678328D01*
X173392857Y-115678328D02*
X173535714Y-115606900D01*
X173535714Y-115606900D02*
X173607143Y-115464042D01*
X173607143Y-115464042D02*
X173607143Y-115392614D01*
X173607143Y-115392614D02*
X173535714Y-115249757D01*
X173535714Y-115249757D02*
X173392857Y-115178328D01*
X173392857Y-115178328D02*
X173178572Y-115178328D01*
X173178572Y-115178328D02*
X173035714Y-115106900D01*
X173035714Y-115106900D02*
X172964286Y-114964042D01*
X172964286Y-114964042D02*
X172964286Y-114892614D01*
X172964286Y-114892614D02*
X173035714Y-114749757D01*
X173035714Y-114749757D02*
X173178572Y-114678328D01*
X173178572Y-114678328D02*
X173392857Y-114678328D01*
X173392857Y-114678328D02*
X173535714Y-114749757D01*
X175607143Y-115678328D02*
X175464286Y-115606900D01*
X175464286Y-115606900D02*
X175392857Y-115464042D01*
X175392857Y-115464042D02*
X175392857Y-114178328D01*
X176392857Y-115678328D02*
X176250000Y-115606900D01*
X176250000Y-115606900D02*
X176178571Y-115535471D01*
X176178571Y-115535471D02*
X176107143Y-115392614D01*
X176107143Y-115392614D02*
X176107143Y-114964042D01*
X176107143Y-114964042D02*
X176178571Y-114821185D01*
X176178571Y-114821185D02*
X176250000Y-114749757D01*
X176250000Y-114749757D02*
X176392857Y-114678328D01*
X176392857Y-114678328D02*
X176607143Y-114678328D01*
X176607143Y-114678328D02*
X176750000Y-114749757D01*
X176750000Y-114749757D02*
X176821429Y-114821185D01*
X176821429Y-114821185D02*
X176892857Y-114964042D01*
X176892857Y-114964042D02*
X176892857Y-115392614D01*
X176892857Y-115392614D02*
X176821429Y-115535471D01*
X176821429Y-115535471D02*
X176750000Y-115606900D01*
X176750000Y-115606900D02*
X176607143Y-115678328D01*
X176607143Y-115678328D02*
X176392857Y-115678328D01*
X177535714Y-114678328D02*
X177535714Y-115678328D01*
X177535714Y-114821185D02*
X177607143Y-114749757D01*
X177607143Y-114749757D02*
X177750000Y-114678328D01*
X177750000Y-114678328D02*
X177964286Y-114678328D01*
X177964286Y-114678328D02*
X178107143Y-114749757D01*
X178107143Y-114749757D02*
X178178572Y-114892614D01*
X178178572Y-114892614D02*
X178178572Y-115678328D01*
X179535715Y-114678328D02*
X179535715Y-115892614D01*
X179535715Y-115892614D02*
X179464286Y-116035471D01*
X179464286Y-116035471D02*
X179392857Y-116106900D01*
X179392857Y-116106900D02*
X179250000Y-116178328D01*
X179250000Y-116178328D02*
X179035715Y-116178328D01*
X179035715Y-116178328D02*
X178892857Y-116106900D01*
X179535715Y-115606900D02*
X179392857Y-115678328D01*
X179392857Y-115678328D02*
X179107143Y-115678328D01*
X179107143Y-115678328D02*
X178964286Y-115606900D01*
X178964286Y-115606900D02*
X178892857Y-115535471D01*
X178892857Y-115535471D02*
X178821429Y-115392614D01*
X178821429Y-115392614D02*
X178821429Y-114964042D01*
X178821429Y-114964042D02*
X178892857Y-114821185D01*
X178892857Y-114821185D02*
X178964286Y-114749757D01*
X178964286Y-114749757D02*
X179107143Y-114678328D01*
X179107143Y-114678328D02*
X179392857Y-114678328D01*
X179392857Y-114678328D02*
X179535715Y-114749757D01*
X122571429Y-118093328D02*
X122571429Y-117307614D01*
X122571429Y-117307614D02*
X122500000Y-117164757D01*
X122500000Y-117164757D02*
X122357143Y-117093328D01*
X122357143Y-117093328D02*
X122071429Y-117093328D01*
X122071429Y-117093328D02*
X121928571Y-117164757D01*
X122571429Y-118021900D02*
X122428571Y-118093328D01*
X122428571Y-118093328D02*
X122071429Y-118093328D01*
X122071429Y-118093328D02*
X121928571Y-118021900D01*
X121928571Y-118021900D02*
X121857143Y-117879042D01*
X121857143Y-117879042D02*
X121857143Y-117736185D01*
X121857143Y-117736185D02*
X121928571Y-117593328D01*
X121928571Y-117593328D02*
X122071429Y-117521900D01*
X122071429Y-117521900D02*
X122428571Y-117521900D01*
X122428571Y-117521900D02*
X122571429Y-117450471D01*
X123214286Y-118021900D02*
X123357143Y-118093328D01*
X123357143Y-118093328D02*
X123642857Y-118093328D01*
X123642857Y-118093328D02*
X123785714Y-118021900D01*
X123785714Y-118021900D02*
X123857143Y-117879042D01*
X123857143Y-117879042D02*
X123857143Y-117807614D01*
X123857143Y-117807614D02*
X123785714Y-117664757D01*
X123785714Y-117664757D02*
X123642857Y-117593328D01*
X123642857Y-117593328D02*
X123428572Y-117593328D01*
X123428572Y-117593328D02*
X123285714Y-117521900D01*
X123285714Y-117521900D02*
X123214286Y-117379042D01*
X123214286Y-117379042D02*
X123214286Y-117307614D01*
X123214286Y-117307614D02*
X123285714Y-117164757D01*
X123285714Y-117164757D02*
X123428572Y-117093328D01*
X123428572Y-117093328D02*
X123642857Y-117093328D01*
X123642857Y-117093328D02*
X123785714Y-117164757D01*
X125500000Y-117093328D02*
X125857143Y-118093328D01*
X126214286Y-117093328D02*
X125857143Y-118093328D01*
X125857143Y-118093328D02*
X125714286Y-118450471D01*
X125714286Y-118450471D02*
X125642857Y-118521900D01*
X125642857Y-118521900D02*
X125500000Y-118593328D01*
X127000000Y-118093328D02*
X126857143Y-118021900D01*
X126857143Y-118021900D02*
X126785714Y-117950471D01*
X126785714Y-117950471D02*
X126714286Y-117807614D01*
X126714286Y-117807614D02*
X126714286Y-117379042D01*
X126714286Y-117379042D02*
X126785714Y-117236185D01*
X126785714Y-117236185D02*
X126857143Y-117164757D01*
X126857143Y-117164757D02*
X127000000Y-117093328D01*
X127000000Y-117093328D02*
X127214286Y-117093328D01*
X127214286Y-117093328D02*
X127357143Y-117164757D01*
X127357143Y-117164757D02*
X127428572Y-117236185D01*
X127428572Y-117236185D02*
X127500000Y-117379042D01*
X127500000Y-117379042D02*
X127500000Y-117807614D01*
X127500000Y-117807614D02*
X127428572Y-117950471D01*
X127428572Y-117950471D02*
X127357143Y-118021900D01*
X127357143Y-118021900D02*
X127214286Y-118093328D01*
X127214286Y-118093328D02*
X127000000Y-118093328D01*
X128785715Y-117093328D02*
X128785715Y-118093328D01*
X128142857Y-117093328D02*
X128142857Y-117879042D01*
X128142857Y-117879042D02*
X128214286Y-118021900D01*
X128214286Y-118021900D02*
X128357143Y-118093328D01*
X128357143Y-118093328D02*
X128571429Y-118093328D01*
X128571429Y-118093328D02*
X128714286Y-118021900D01*
X128714286Y-118021900D02*
X128785715Y-117950471D01*
X130642857Y-118093328D02*
X130642857Y-117093328D01*
X130642857Y-117379042D02*
X130714286Y-117236185D01*
X130714286Y-117236185D02*
X130785715Y-117164757D01*
X130785715Y-117164757D02*
X130928572Y-117093328D01*
X130928572Y-117093328D02*
X131071429Y-117093328D01*
X132142857Y-118021900D02*
X132000000Y-118093328D01*
X132000000Y-118093328D02*
X131714286Y-118093328D01*
X131714286Y-118093328D02*
X131571428Y-118021900D01*
X131571428Y-118021900D02*
X131500000Y-117879042D01*
X131500000Y-117879042D02*
X131500000Y-117307614D01*
X131500000Y-117307614D02*
X131571428Y-117164757D01*
X131571428Y-117164757D02*
X131714286Y-117093328D01*
X131714286Y-117093328D02*
X132000000Y-117093328D01*
X132000000Y-117093328D02*
X132142857Y-117164757D01*
X132142857Y-117164757D02*
X132214286Y-117307614D01*
X132214286Y-117307614D02*
X132214286Y-117450471D01*
X132214286Y-117450471D02*
X131500000Y-117593328D01*
X133500000Y-118093328D02*
X133500000Y-117307614D01*
X133500000Y-117307614D02*
X133428571Y-117164757D01*
X133428571Y-117164757D02*
X133285714Y-117093328D01*
X133285714Y-117093328D02*
X133000000Y-117093328D01*
X133000000Y-117093328D02*
X132857142Y-117164757D01*
X133500000Y-118021900D02*
X133357142Y-118093328D01*
X133357142Y-118093328D02*
X133000000Y-118093328D01*
X133000000Y-118093328D02*
X132857142Y-118021900D01*
X132857142Y-118021900D02*
X132785714Y-117879042D01*
X132785714Y-117879042D02*
X132785714Y-117736185D01*
X132785714Y-117736185D02*
X132857142Y-117593328D01*
X132857142Y-117593328D02*
X133000000Y-117521900D01*
X133000000Y-117521900D02*
X133357142Y-117521900D01*
X133357142Y-117521900D02*
X133500000Y-117450471D01*
X134428571Y-118093328D02*
X134285714Y-118021900D01*
X134285714Y-118021900D02*
X134214285Y-117879042D01*
X134214285Y-117879042D02*
X134214285Y-116593328D01*
X134999999Y-118093328D02*
X134999999Y-117093328D01*
X134999999Y-116593328D02*
X134928571Y-116664757D01*
X134928571Y-116664757D02*
X134999999Y-116736185D01*
X134999999Y-116736185D02*
X135071428Y-116664757D01*
X135071428Y-116664757D02*
X134999999Y-116593328D01*
X134999999Y-116593328D02*
X134999999Y-116736185D01*
X135571428Y-117093328D02*
X136357143Y-117093328D01*
X136357143Y-117093328D02*
X135571428Y-118093328D01*
X135571428Y-118093328D02*
X136357143Y-118093328D01*
X137500000Y-118021900D02*
X137357143Y-118093328D01*
X137357143Y-118093328D02*
X137071429Y-118093328D01*
X137071429Y-118093328D02*
X136928571Y-118021900D01*
X136928571Y-118021900D02*
X136857143Y-117879042D01*
X136857143Y-117879042D02*
X136857143Y-117307614D01*
X136857143Y-117307614D02*
X136928571Y-117164757D01*
X136928571Y-117164757D02*
X137071429Y-117093328D01*
X137071429Y-117093328D02*
X137357143Y-117093328D01*
X137357143Y-117093328D02*
X137500000Y-117164757D01*
X137500000Y-117164757D02*
X137571429Y-117307614D01*
X137571429Y-117307614D02*
X137571429Y-117450471D01*
X137571429Y-117450471D02*
X136857143Y-117593328D01*
X139214285Y-117093328D02*
X139571428Y-118093328D01*
X139928571Y-117093328D02*
X139571428Y-118093328D01*
X139571428Y-118093328D02*
X139428571Y-118450471D01*
X139428571Y-118450471D02*
X139357142Y-118521900D01*
X139357142Y-118521900D02*
X139214285Y-118593328D01*
X140714285Y-118093328D02*
X140571428Y-118021900D01*
X140571428Y-118021900D02*
X140499999Y-117950471D01*
X140499999Y-117950471D02*
X140428571Y-117807614D01*
X140428571Y-117807614D02*
X140428571Y-117379042D01*
X140428571Y-117379042D02*
X140499999Y-117236185D01*
X140499999Y-117236185D02*
X140571428Y-117164757D01*
X140571428Y-117164757D02*
X140714285Y-117093328D01*
X140714285Y-117093328D02*
X140928571Y-117093328D01*
X140928571Y-117093328D02*
X141071428Y-117164757D01*
X141071428Y-117164757D02*
X141142857Y-117236185D01*
X141142857Y-117236185D02*
X141214285Y-117379042D01*
X141214285Y-117379042D02*
X141214285Y-117807614D01*
X141214285Y-117807614D02*
X141142857Y-117950471D01*
X141142857Y-117950471D02*
X141071428Y-118021900D01*
X141071428Y-118021900D02*
X140928571Y-118093328D01*
X140928571Y-118093328D02*
X140714285Y-118093328D01*
X142500000Y-117093328D02*
X142500000Y-118093328D01*
X141857142Y-117093328D02*
X141857142Y-117879042D01*
X141857142Y-117879042D02*
X141928571Y-118021900D01*
X141928571Y-118021900D02*
X142071428Y-118093328D01*
X142071428Y-118093328D02*
X142285714Y-118093328D01*
X142285714Y-118093328D02*
X142428571Y-118021900D01*
X142428571Y-118021900D02*
X142500000Y-117950471D01*
X143285714Y-116593328D02*
X143142857Y-116879042D01*
X143928571Y-118093328D02*
X143928571Y-117093328D01*
X143928571Y-117379042D02*
X144000000Y-117236185D01*
X144000000Y-117236185D02*
X144071429Y-117164757D01*
X144071429Y-117164757D02*
X144214286Y-117093328D01*
X144214286Y-117093328D02*
X144357143Y-117093328D01*
X145428571Y-118021900D02*
X145285714Y-118093328D01*
X145285714Y-118093328D02*
X145000000Y-118093328D01*
X145000000Y-118093328D02*
X144857142Y-118021900D01*
X144857142Y-118021900D02*
X144785714Y-117879042D01*
X144785714Y-117879042D02*
X144785714Y-117307614D01*
X144785714Y-117307614D02*
X144857142Y-117164757D01*
X144857142Y-117164757D02*
X145000000Y-117093328D01*
X145000000Y-117093328D02*
X145285714Y-117093328D01*
X145285714Y-117093328D02*
X145428571Y-117164757D01*
X145428571Y-117164757D02*
X145500000Y-117307614D01*
X145500000Y-117307614D02*
X145500000Y-117450471D01*
X145500000Y-117450471D02*
X144785714Y-117593328D01*
X147928571Y-118093328D02*
X147928571Y-116593328D01*
X147928571Y-118021900D02*
X147785713Y-118093328D01*
X147785713Y-118093328D02*
X147499999Y-118093328D01*
X147499999Y-118093328D02*
X147357142Y-118021900D01*
X147357142Y-118021900D02*
X147285713Y-117950471D01*
X147285713Y-117950471D02*
X147214285Y-117807614D01*
X147214285Y-117807614D02*
X147214285Y-117379042D01*
X147214285Y-117379042D02*
X147285713Y-117236185D01*
X147285713Y-117236185D02*
X147357142Y-117164757D01*
X147357142Y-117164757D02*
X147499999Y-117093328D01*
X147499999Y-117093328D02*
X147785713Y-117093328D01*
X147785713Y-117093328D02*
X147928571Y-117164757D01*
X148857142Y-118093328D02*
X148714285Y-118021900D01*
X148714285Y-118021900D02*
X148642856Y-117950471D01*
X148642856Y-117950471D02*
X148571428Y-117807614D01*
X148571428Y-117807614D02*
X148571428Y-117379042D01*
X148571428Y-117379042D02*
X148642856Y-117236185D01*
X148642856Y-117236185D02*
X148714285Y-117164757D01*
X148714285Y-117164757D02*
X148857142Y-117093328D01*
X148857142Y-117093328D02*
X149071428Y-117093328D01*
X149071428Y-117093328D02*
X149214285Y-117164757D01*
X149214285Y-117164757D02*
X149285714Y-117236185D01*
X149285714Y-117236185D02*
X149357142Y-117379042D01*
X149357142Y-117379042D02*
X149357142Y-117807614D01*
X149357142Y-117807614D02*
X149285714Y-117950471D01*
X149285714Y-117950471D02*
X149214285Y-118021900D01*
X149214285Y-118021900D02*
X149071428Y-118093328D01*
X149071428Y-118093328D02*
X148857142Y-118093328D01*
X149999999Y-118093328D02*
X149999999Y-117093328D01*
X149999999Y-116593328D02*
X149928571Y-116664757D01*
X149928571Y-116664757D02*
X149999999Y-116736185D01*
X149999999Y-116736185D02*
X150071428Y-116664757D01*
X150071428Y-116664757D02*
X149999999Y-116593328D01*
X149999999Y-116593328D02*
X149999999Y-116736185D01*
X150714285Y-117093328D02*
X150714285Y-118093328D01*
X150714285Y-117236185D02*
X150785714Y-117164757D01*
X150785714Y-117164757D02*
X150928571Y-117093328D01*
X150928571Y-117093328D02*
X151142857Y-117093328D01*
X151142857Y-117093328D02*
X151285714Y-117164757D01*
X151285714Y-117164757D02*
X151357143Y-117307614D01*
X151357143Y-117307614D02*
X151357143Y-118093328D01*
X152714286Y-117093328D02*
X152714286Y-118307614D01*
X152714286Y-118307614D02*
X152642857Y-118450471D01*
X152642857Y-118450471D02*
X152571428Y-118521900D01*
X152571428Y-118521900D02*
X152428571Y-118593328D01*
X152428571Y-118593328D02*
X152214286Y-118593328D01*
X152214286Y-118593328D02*
X152071428Y-118521900D01*
X152714286Y-118021900D02*
X152571428Y-118093328D01*
X152571428Y-118093328D02*
X152285714Y-118093328D01*
X152285714Y-118093328D02*
X152142857Y-118021900D01*
X152142857Y-118021900D02*
X152071428Y-117950471D01*
X152071428Y-117950471D02*
X152000000Y-117807614D01*
X152000000Y-117807614D02*
X152000000Y-117379042D01*
X152000000Y-117379042D02*
X152071428Y-117236185D01*
X152071428Y-117236185D02*
X152142857Y-117164757D01*
X152142857Y-117164757D02*
X152285714Y-117093328D01*
X152285714Y-117093328D02*
X152571428Y-117093328D01*
X152571428Y-117093328D02*
X152714286Y-117164757D01*
X154571428Y-118093328D02*
X154571428Y-117093328D01*
X154571428Y-116593328D02*
X154500000Y-116664757D01*
X154500000Y-116664757D02*
X154571428Y-116736185D01*
X154571428Y-116736185D02*
X154642857Y-116664757D01*
X154642857Y-116664757D02*
X154571428Y-116593328D01*
X154571428Y-116593328D02*
X154571428Y-116736185D01*
X155071429Y-117093328D02*
X155642857Y-117093328D01*
X155285714Y-116593328D02*
X155285714Y-117879042D01*
X155285714Y-117879042D02*
X155357143Y-118021900D01*
X155357143Y-118021900D02*
X155500000Y-118093328D01*
X155500000Y-118093328D02*
X155642857Y-118093328D01*
X157071429Y-117093328D02*
X157642857Y-117093328D01*
X157285714Y-116593328D02*
X157285714Y-117879042D01*
X157285714Y-117879042D02*
X157357143Y-118021900D01*
X157357143Y-118021900D02*
X157500000Y-118093328D01*
X157500000Y-118093328D02*
X157642857Y-118093328D01*
X158357143Y-118093328D02*
X158214286Y-118021900D01*
X158214286Y-118021900D02*
X158142857Y-117950471D01*
X158142857Y-117950471D02*
X158071429Y-117807614D01*
X158071429Y-117807614D02*
X158071429Y-117379042D01*
X158071429Y-117379042D02*
X158142857Y-117236185D01*
X158142857Y-117236185D02*
X158214286Y-117164757D01*
X158214286Y-117164757D02*
X158357143Y-117093328D01*
X158357143Y-117093328D02*
X158571429Y-117093328D01*
X158571429Y-117093328D02*
X158714286Y-117164757D01*
X158714286Y-117164757D02*
X158785715Y-117236185D01*
X158785715Y-117236185D02*
X158857143Y-117379042D01*
X158857143Y-117379042D02*
X158857143Y-117807614D01*
X158857143Y-117807614D02*
X158785715Y-117950471D01*
X158785715Y-117950471D02*
X158714286Y-118021900D01*
X158714286Y-118021900D02*
X158571429Y-118093328D01*
X158571429Y-118093328D02*
X158357143Y-118093328D01*
X160642857Y-118093328D02*
X160642857Y-116593328D01*
X160642857Y-117164757D02*
X160785715Y-117093328D01*
X160785715Y-117093328D02*
X161071429Y-117093328D01*
X161071429Y-117093328D02*
X161214286Y-117164757D01*
X161214286Y-117164757D02*
X161285715Y-117236185D01*
X161285715Y-117236185D02*
X161357143Y-117379042D01*
X161357143Y-117379042D02*
X161357143Y-117807614D01*
X161357143Y-117807614D02*
X161285715Y-117950471D01*
X161285715Y-117950471D02*
X161214286Y-118021900D01*
X161214286Y-118021900D02*
X161071429Y-118093328D01*
X161071429Y-118093328D02*
X160785715Y-118093328D01*
X160785715Y-118093328D02*
X160642857Y-118021900D01*
X162571429Y-118021900D02*
X162428572Y-118093328D01*
X162428572Y-118093328D02*
X162142858Y-118093328D01*
X162142858Y-118093328D02*
X162000000Y-118021900D01*
X162000000Y-118021900D02*
X161928572Y-117879042D01*
X161928572Y-117879042D02*
X161928572Y-117307614D01*
X161928572Y-117307614D02*
X162000000Y-117164757D01*
X162000000Y-117164757D02*
X162142858Y-117093328D01*
X162142858Y-117093328D02*
X162428572Y-117093328D01*
X162428572Y-117093328D02*
X162571429Y-117164757D01*
X162571429Y-117164757D02*
X162642858Y-117307614D01*
X162642858Y-117307614D02*
X162642858Y-117450471D01*
X162642858Y-117450471D02*
X161928572Y-117593328D01*
X163928572Y-118021900D02*
X163785714Y-118093328D01*
X163785714Y-118093328D02*
X163500000Y-118093328D01*
X163500000Y-118093328D02*
X163357143Y-118021900D01*
X163357143Y-118021900D02*
X163285714Y-117950471D01*
X163285714Y-117950471D02*
X163214286Y-117807614D01*
X163214286Y-117807614D02*
X163214286Y-117379042D01*
X163214286Y-117379042D02*
X163285714Y-117236185D01*
X163285714Y-117236185D02*
X163357143Y-117164757D01*
X163357143Y-117164757D02*
X163500000Y-117093328D01*
X163500000Y-117093328D02*
X163785714Y-117093328D01*
X163785714Y-117093328D02*
X163928572Y-117164757D01*
X164785714Y-118093328D02*
X164642857Y-118021900D01*
X164642857Y-118021900D02*
X164571428Y-117950471D01*
X164571428Y-117950471D02*
X164500000Y-117807614D01*
X164500000Y-117807614D02*
X164500000Y-117379042D01*
X164500000Y-117379042D02*
X164571428Y-117236185D01*
X164571428Y-117236185D02*
X164642857Y-117164757D01*
X164642857Y-117164757D02*
X164785714Y-117093328D01*
X164785714Y-117093328D02*
X165000000Y-117093328D01*
X165000000Y-117093328D02*
X165142857Y-117164757D01*
X165142857Y-117164757D02*
X165214286Y-117236185D01*
X165214286Y-117236185D02*
X165285714Y-117379042D01*
X165285714Y-117379042D02*
X165285714Y-117807614D01*
X165285714Y-117807614D02*
X165214286Y-117950471D01*
X165214286Y-117950471D02*
X165142857Y-118021900D01*
X165142857Y-118021900D02*
X165000000Y-118093328D01*
X165000000Y-118093328D02*
X164785714Y-118093328D01*
X165928571Y-118093328D02*
X165928571Y-117093328D01*
X165928571Y-117236185D02*
X166000000Y-117164757D01*
X166000000Y-117164757D02*
X166142857Y-117093328D01*
X166142857Y-117093328D02*
X166357143Y-117093328D01*
X166357143Y-117093328D02*
X166500000Y-117164757D01*
X166500000Y-117164757D02*
X166571429Y-117307614D01*
X166571429Y-117307614D02*
X166571429Y-118093328D01*
X166571429Y-117307614D02*
X166642857Y-117164757D01*
X166642857Y-117164757D02*
X166785714Y-117093328D01*
X166785714Y-117093328D02*
X167000000Y-117093328D01*
X167000000Y-117093328D02*
X167142857Y-117164757D01*
X167142857Y-117164757D02*
X167214286Y-117307614D01*
X167214286Y-117307614D02*
X167214286Y-118093328D01*
X168500000Y-118021900D02*
X168357143Y-118093328D01*
X168357143Y-118093328D02*
X168071429Y-118093328D01*
X168071429Y-118093328D02*
X167928571Y-118021900D01*
X167928571Y-118021900D02*
X167857143Y-117879042D01*
X167857143Y-117879042D02*
X167857143Y-117307614D01*
X167857143Y-117307614D02*
X167928571Y-117164757D01*
X167928571Y-117164757D02*
X168071429Y-117093328D01*
X168071429Y-117093328D02*
X168357143Y-117093328D01*
X168357143Y-117093328D02*
X168500000Y-117164757D01*
X168500000Y-117164757D02*
X168571429Y-117307614D01*
X168571429Y-117307614D02*
X168571429Y-117450471D01*
X168571429Y-117450471D02*
X167857143Y-117593328D01*
X170357142Y-118093328D02*
X170357142Y-116593328D01*
X170357142Y-117164757D02*
X170500000Y-117093328D01*
X170500000Y-117093328D02*
X170785714Y-117093328D01*
X170785714Y-117093328D02*
X170928571Y-117164757D01*
X170928571Y-117164757D02*
X171000000Y-117236185D01*
X171000000Y-117236185D02*
X171071428Y-117379042D01*
X171071428Y-117379042D02*
X171071428Y-117807614D01*
X171071428Y-117807614D02*
X171000000Y-117950471D01*
X171000000Y-117950471D02*
X170928571Y-118021900D01*
X170928571Y-118021900D02*
X170785714Y-118093328D01*
X170785714Y-118093328D02*
X170500000Y-118093328D01*
X170500000Y-118093328D02*
X170357142Y-118021900D01*
X172285714Y-118021900D02*
X172142857Y-118093328D01*
X172142857Y-118093328D02*
X171857143Y-118093328D01*
X171857143Y-118093328D02*
X171714285Y-118021900D01*
X171714285Y-118021900D02*
X171642857Y-117879042D01*
X171642857Y-117879042D02*
X171642857Y-117307614D01*
X171642857Y-117307614D02*
X171714285Y-117164757D01*
X171714285Y-117164757D02*
X171857143Y-117093328D01*
X171857143Y-117093328D02*
X172142857Y-117093328D01*
X172142857Y-117093328D02*
X172285714Y-117164757D01*
X172285714Y-117164757D02*
X172357143Y-117307614D01*
X172357143Y-117307614D02*
X172357143Y-117450471D01*
X172357143Y-117450471D02*
X171642857Y-117593328D01*
X172785714Y-117093328D02*
X173357142Y-117093328D01*
X172999999Y-116593328D02*
X172999999Y-117879042D01*
X172999999Y-117879042D02*
X173071428Y-118021900D01*
X173071428Y-118021900D02*
X173214285Y-118093328D01*
X173214285Y-118093328D02*
X173357142Y-118093328D01*
X173642857Y-117093328D02*
X174214285Y-117093328D01*
X173857142Y-116593328D02*
X173857142Y-117879042D01*
X173857142Y-117879042D02*
X173928571Y-118021900D01*
X173928571Y-118021900D02*
X174071428Y-118093328D01*
X174071428Y-118093328D02*
X174214285Y-118093328D01*
X175285714Y-118021900D02*
X175142857Y-118093328D01*
X175142857Y-118093328D02*
X174857143Y-118093328D01*
X174857143Y-118093328D02*
X174714285Y-118021900D01*
X174714285Y-118021900D02*
X174642857Y-117879042D01*
X174642857Y-117879042D02*
X174642857Y-117307614D01*
X174642857Y-117307614D02*
X174714285Y-117164757D01*
X174714285Y-117164757D02*
X174857143Y-117093328D01*
X174857143Y-117093328D02*
X175142857Y-117093328D01*
X175142857Y-117093328D02*
X175285714Y-117164757D01*
X175285714Y-117164757D02*
X175357143Y-117307614D01*
X175357143Y-117307614D02*
X175357143Y-117450471D01*
X175357143Y-117450471D02*
X174642857Y-117593328D01*
X175999999Y-118093328D02*
X175999999Y-117093328D01*
X175999999Y-117379042D02*
X176071428Y-117236185D01*
X176071428Y-117236185D02*
X176142857Y-117164757D01*
X176142857Y-117164757D02*
X176285714Y-117093328D01*
X176285714Y-117093328D02*
X176428571Y-117093328D01*
X176928570Y-117950471D02*
X176999999Y-118021900D01*
X176999999Y-118021900D02*
X176928570Y-118093328D01*
X176928570Y-118093328D02*
X176857142Y-118021900D01*
X176857142Y-118021900D02*
X176928570Y-117950471D01*
X176928570Y-117950471D02*
X176928570Y-118093328D01*
X177571428Y-116593328D02*
X177571428Y-116879042D01*
X178142856Y-116593328D02*
X178142856Y-116879042D01*
X140821427Y-119936900D02*
X141964285Y-119936900D01*
X143821427Y-120508328D02*
X143821427Y-119008328D01*
X143821427Y-119008328D02*
X144178570Y-119008328D01*
X144178570Y-119008328D02*
X144392856Y-119079757D01*
X144392856Y-119079757D02*
X144535713Y-119222614D01*
X144535713Y-119222614D02*
X144607142Y-119365471D01*
X144607142Y-119365471D02*
X144678570Y-119651185D01*
X144678570Y-119651185D02*
X144678570Y-119865471D01*
X144678570Y-119865471D02*
X144607142Y-120151185D01*
X144607142Y-120151185D02*
X144535713Y-120294042D01*
X144535713Y-120294042D02*
X144392856Y-120436900D01*
X144392856Y-120436900D02*
X144178570Y-120508328D01*
X144178570Y-120508328D02*
X143821427Y-120508328D01*
X145964285Y-120508328D02*
X145964285Y-119722614D01*
X145964285Y-119722614D02*
X145892856Y-119579757D01*
X145892856Y-119579757D02*
X145749999Y-119508328D01*
X145749999Y-119508328D02*
X145464285Y-119508328D01*
X145464285Y-119508328D02*
X145321427Y-119579757D01*
X145964285Y-120436900D02*
X145821427Y-120508328D01*
X145821427Y-120508328D02*
X145464285Y-120508328D01*
X145464285Y-120508328D02*
X145321427Y-120436900D01*
X145321427Y-120436900D02*
X145249999Y-120294042D01*
X145249999Y-120294042D02*
X145249999Y-120151185D01*
X145249999Y-120151185D02*
X145321427Y-120008328D01*
X145321427Y-120008328D02*
X145464285Y-119936900D01*
X145464285Y-119936900D02*
X145821427Y-119936900D01*
X145821427Y-119936900D02*
X145964285Y-119865471D01*
X146535713Y-119508328D02*
X146892856Y-120508328D01*
X146892856Y-120508328D02*
X147249999Y-119508328D01*
X147821427Y-120508328D02*
X147821427Y-119508328D01*
X147821427Y-119008328D02*
X147749999Y-119079757D01*
X147749999Y-119079757D02*
X147821427Y-119151185D01*
X147821427Y-119151185D02*
X147892856Y-119079757D01*
X147892856Y-119079757D02*
X147821427Y-119008328D01*
X147821427Y-119008328D02*
X147821427Y-119151185D01*
X149178571Y-120508328D02*
X149178571Y-119008328D01*
X149178571Y-120436900D02*
X149035713Y-120508328D01*
X149035713Y-120508328D02*
X148749999Y-120508328D01*
X148749999Y-120508328D02*
X148607142Y-120436900D01*
X148607142Y-120436900D02*
X148535713Y-120365471D01*
X148535713Y-120365471D02*
X148464285Y-120222614D01*
X148464285Y-120222614D02*
X148464285Y-119794042D01*
X148464285Y-119794042D02*
X148535713Y-119651185D01*
X148535713Y-119651185D02*
X148607142Y-119579757D01*
X148607142Y-119579757D02*
X148749999Y-119508328D01*
X148749999Y-119508328D02*
X149035713Y-119508328D01*
X149035713Y-119508328D02*
X149178571Y-119579757D01*
X151821428Y-119079757D02*
X151678571Y-119008328D01*
X151678571Y-119008328D02*
X151464285Y-119008328D01*
X151464285Y-119008328D02*
X151249999Y-119079757D01*
X151249999Y-119079757D02*
X151107142Y-119222614D01*
X151107142Y-119222614D02*
X151035713Y-119365471D01*
X151035713Y-119365471D02*
X150964285Y-119651185D01*
X150964285Y-119651185D02*
X150964285Y-119865471D01*
X150964285Y-119865471D02*
X151035713Y-120151185D01*
X151035713Y-120151185D02*
X151107142Y-120294042D01*
X151107142Y-120294042D02*
X151249999Y-120436900D01*
X151249999Y-120436900D02*
X151464285Y-120508328D01*
X151464285Y-120508328D02*
X151607142Y-120508328D01*
X151607142Y-120508328D02*
X151821428Y-120436900D01*
X151821428Y-120436900D02*
X151892856Y-120365471D01*
X151892856Y-120365471D02*
X151892856Y-119865471D01*
X151892856Y-119865471D02*
X151607142Y-119865471D01*
X152749999Y-120508328D02*
X152607142Y-120436900D01*
X152607142Y-120436900D02*
X152535713Y-120365471D01*
X152535713Y-120365471D02*
X152464285Y-120222614D01*
X152464285Y-120222614D02*
X152464285Y-119794042D01*
X152464285Y-119794042D02*
X152535713Y-119651185D01*
X152535713Y-119651185D02*
X152607142Y-119579757D01*
X152607142Y-119579757D02*
X152749999Y-119508328D01*
X152749999Y-119508328D02*
X152964285Y-119508328D01*
X152964285Y-119508328D02*
X153107142Y-119579757D01*
X153107142Y-119579757D02*
X153178571Y-119651185D01*
X153178571Y-119651185D02*
X153249999Y-119794042D01*
X153249999Y-119794042D02*
X153249999Y-120222614D01*
X153249999Y-120222614D02*
X153178571Y-120365471D01*
X153178571Y-120365471D02*
X153107142Y-120436900D01*
X153107142Y-120436900D02*
X152964285Y-120508328D01*
X152964285Y-120508328D02*
X152749999Y-120508328D01*
X154535714Y-119508328D02*
X154535714Y-120722614D01*
X154535714Y-120722614D02*
X154464285Y-120865471D01*
X154464285Y-120865471D02*
X154392856Y-120936900D01*
X154392856Y-120936900D02*
X154249999Y-121008328D01*
X154249999Y-121008328D02*
X154035714Y-121008328D01*
X154035714Y-121008328D02*
X153892856Y-120936900D01*
X154535714Y-120436900D02*
X154392856Y-120508328D01*
X154392856Y-120508328D02*
X154107142Y-120508328D01*
X154107142Y-120508328D02*
X153964285Y-120436900D01*
X153964285Y-120436900D02*
X153892856Y-120365471D01*
X153892856Y-120365471D02*
X153821428Y-120222614D01*
X153821428Y-120222614D02*
X153821428Y-119794042D01*
X153821428Y-119794042D02*
X153892856Y-119651185D01*
X153892856Y-119651185D02*
X153964285Y-119579757D01*
X153964285Y-119579757D02*
X154107142Y-119508328D01*
X154107142Y-119508328D02*
X154392856Y-119508328D01*
X154392856Y-119508328D02*
X154535714Y-119579757D01*
X155892857Y-119508328D02*
X155892857Y-120722614D01*
X155892857Y-120722614D02*
X155821428Y-120865471D01*
X155821428Y-120865471D02*
X155749999Y-120936900D01*
X155749999Y-120936900D02*
X155607142Y-121008328D01*
X155607142Y-121008328D02*
X155392857Y-121008328D01*
X155392857Y-121008328D02*
X155249999Y-120936900D01*
X155892857Y-120436900D02*
X155749999Y-120508328D01*
X155749999Y-120508328D02*
X155464285Y-120508328D01*
X155464285Y-120508328D02*
X155321428Y-120436900D01*
X155321428Y-120436900D02*
X155249999Y-120365471D01*
X155249999Y-120365471D02*
X155178571Y-120222614D01*
X155178571Y-120222614D02*
X155178571Y-119794042D01*
X155178571Y-119794042D02*
X155249999Y-119651185D01*
X155249999Y-119651185D02*
X155321428Y-119579757D01*
X155321428Y-119579757D02*
X155464285Y-119508328D01*
X155464285Y-119508328D02*
X155749999Y-119508328D01*
X155749999Y-119508328D02*
X155892857Y-119579757D01*
X156607142Y-120508328D02*
X156607142Y-119508328D01*
X156607142Y-119008328D02*
X156535714Y-119079757D01*
X156535714Y-119079757D02*
X156607142Y-119151185D01*
X156607142Y-119151185D02*
X156678571Y-119079757D01*
X156678571Y-119079757D02*
X156607142Y-119008328D01*
X156607142Y-119008328D02*
X156607142Y-119151185D01*
X157321428Y-119508328D02*
X157321428Y-120508328D01*
X157321428Y-119651185D02*
X157392857Y-119579757D01*
X157392857Y-119579757D02*
X157535714Y-119508328D01*
X157535714Y-119508328D02*
X157750000Y-119508328D01*
X157750000Y-119508328D02*
X157892857Y-119579757D01*
X157892857Y-119579757D02*
X157964286Y-119722614D01*
X157964286Y-119722614D02*
X157964286Y-120508328D01*
X158607143Y-120436900D02*
X158750000Y-120508328D01*
X158750000Y-120508328D02*
X159035714Y-120508328D01*
X159035714Y-120508328D02*
X159178571Y-120436900D01*
X159178571Y-120436900D02*
X159250000Y-120294042D01*
X159250000Y-120294042D02*
X159250000Y-120222614D01*
X159250000Y-120222614D02*
X159178571Y-120079757D01*
X159178571Y-120079757D02*
X159035714Y-120008328D01*
X159035714Y-120008328D02*
X158821429Y-120008328D01*
X158821429Y-120008328D02*
X158678571Y-119936900D01*
X158678571Y-119936900D02*
X158607143Y-119794042D01*
X158607143Y-119794042D02*
X158607143Y-119722614D01*
X158607143Y-119722614D02*
X158678571Y-119579757D01*
X158678571Y-119579757D02*
X158821429Y-119508328D01*
X158821429Y-119508328D02*
X159035714Y-119508328D01*
X159035714Y-119508328D02*
X159178571Y-119579757D01*
D11*
X110476109Y-130081428D02*
X110238014Y-130248094D01*
X110476109Y-130367142D02*
X109976109Y-130367142D01*
X109976109Y-130367142D02*
X109976109Y-130176666D01*
X109976109Y-130176666D02*
X109999919Y-130129047D01*
X109999919Y-130129047D02*
X110023728Y-130105237D01*
X110023728Y-130105237D02*
X110071347Y-130081428D01*
X110071347Y-130081428D02*
X110142776Y-130081428D01*
X110142776Y-130081428D02*
X110190395Y-130105237D01*
X110190395Y-130105237D02*
X110214204Y-130129047D01*
X110214204Y-130129047D02*
X110238014Y-130176666D01*
X110238014Y-130176666D02*
X110238014Y-130367142D01*
X109976109Y-129914761D02*
X109976109Y-129581428D01*
X109976109Y-129581428D02*
X110476109Y-129795713D01*
X110142776Y-129176666D02*
X110476109Y-129176666D01*
X109952300Y-129295714D02*
X110309442Y-129414761D01*
X110309442Y-129414761D02*
X110309442Y-129105238D01*
X191416666Y-159928490D02*
X191392857Y-159952300D01*
X191392857Y-159952300D02*
X191321428Y-159976109D01*
X191321428Y-159976109D02*
X191273809Y-159976109D01*
X191273809Y-159976109D02*
X191202381Y-159952300D01*
X191202381Y-159952300D02*
X191154762Y-159904680D01*
X191154762Y-159904680D02*
X191130952Y-159857061D01*
X191130952Y-159857061D02*
X191107143Y-159761823D01*
X191107143Y-159761823D02*
X191107143Y-159690395D01*
X191107143Y-159690395D02*
X191130952Y-159595157D01*
X191130952Y-159595157D02*
X191154762Y-159547538D01*
X191154762Y-159547538D02*
X191202381Y-159499919D01*
X191202381Y-159499919D02*
X191273809Y-159476109D01*
X191273809Y-159476109D02*
X191321428Y-159476109D01*
X191321428Y-159476109D02*
X191392857Y-159499919D01*
X191392857Y-159499919D02*
X191416666Y-159523728D01*
X191607143Y-159523728D02*
X191630952Y-159499919D01*
X191630952Y-159499919D02*
X191678571Y-159476109D01*
X191678571Y-159476109D02*
X191797619Y-159476109D01*
X191797619Y-159476109D02*
X191845238Y-159499919D01*
X191845238Y-159499919D02*
X191869047Y-159523728D01*
X191869047Y-159523728D02*
X191892857Y-159571347D01*
X191892857Y-159571347D02*
X191892857Y-159618966D01*
X191892857Y-159618966D02*
X191869047Y-159690395D01*
X191869047Y-159690395D02*
X191583333Y-159976109D01*
X191583333Y-159976109D02*
X191892857Y-159976109D01*
D12*
X101738095Y-124454819D02*
X101738095Y-125264342D01*
X101738095Y-125264342D02*
X101785714Y-125359580D01*
X101785714Y-125359580D02*
X101833333Y-125407200D01*
X101833333Y-125407200D02*
X101928571Y-125454819D01*
X101928571Y-125454819D02*
X102119047Y-125454819D01*
X102119047Y-125454819D02*
X102214285Y-125407200D01*
X102214285Y-125407200D02*
X102261904Y-125359580D01*
X102261904Y-125359580D02*
X102309523Y-125264342D01*
X102309523Y-125264342D02*
X102309523Y-124454819D01*
X102833333Y-125454819D02*
X103023809Y-125454819D01*
X103023809Y-125454819D02*
X103119047Y-125407200D01*
X103119047Y-125407200D02*
X103166666Y-125359580D01*
X103166666Y-125359580D02*
X103261904Y-125216723D01*
X103261904Y-125216723D02*
X103309523Y-125026247D01*
X103309523Y-125026247D02*
X103309523Y-124645295D01*
X103309523Y-124645295D02*
X103261904Y-124550057D01*
X103261904Y-124550057D02*
X103214285Y-124502438D01*
X103214285Y-124502438D02*
X103119047Y-124454819D01*
X103119047Y-124454819D02*
X102928571Y-124454819D01*
X102928571Y-124454819D02*
X102833333Y-124502438D01*
X102833333Y-124502438D02*
X102785714Y-124550057D01*
X102785714Y-124550057D02*
X102738095Y-124645295D01*
X102738095Y-124645295D02*
X102738095Y-124883390D01*
X102738095Y-124883390D02*
X102785714Y-124978628D01*
X102785714Y-124978628D02*
X102833333Y-125026247D01*
X102833333Y-125026247D02*
X102928571Y-125073866D01*
X102928571Y-125073866D02*
X103119047Y-125073866D01*
X103119047Y-125073866D02*
X103214285Y-125026247D01*
X103214285Y-125026247D02*
X103261904Y-124978628D01*
X103261904Y-124978628D02*
X103309523Y-124883390D01*
D11*
X187416666Y-159928490D02*
X187392857Y-159952300D01*
X187392857Y-159952300D02*
X187321428Y-159976109D01*
X187321428Y-159976109D02*
X187273809Y-159976109D01*
X187273809Y-159976109D02*
X187202381Y-159952300D01*
X187202381Y-159952300D02*
X187154762Y-159904680D01*
X187154762Y-159904680D02*
X187130952Y-159857061D01*
X187130952Y-159857061D02*
X187107143Y-159761823D01*
X187107143Y-159761823D02*
X187107143Y-159690395D01*
X187107143Y-159690395D02*
X187130952Y-159595157D01*
X187130952Y-159595157D02*
X187154762Y-159547538D01*
X187154762Y-159547538D02*
X187202381Y-159499919D01*
X187202381Y-159499919D02*
X187273809Y-159476109D01*
X187273809Y-159476109D02*
X187321428Y-159476109D01*
X187321428Y-159476109D02*
X187392857Y-159499919D01*
X187392857Y-159499919D02*
X187416666Y-159523728D01*
X187583333Y-159476109D02*
X187892857Y-159476109D01*
X187892857Y-159476109D02*
X187726190Y-159666585D01*
X187726190Y-159666585D02*
X187797619Y-159666585D01*
X187797619Y-159666585D02*
X187845238Y-159690395D01*
X187845238Y-159690395D02*
X187869047Y-159714204D01*
X187869047Y-159714204D02*
X187892857Y-159761823D01*
X187892857Y-159761823D02*
X187892857Y-159880871D01*
X187892857Y-159880871D02*
X187869047Y-159928490D01*
X187869047Y-159928490D02*
X187845238Y-159952300D01*
X187845238Y-159952300D02*
X187797619Y-159976109D01*
X187797619Y-159976109D02*
X187654762Y-159976109D01*
X187654762Y-159976109D02*
X187607143Y-159952300D01*
X187607143Y-159952300D02*
X187583333Y-159928490D01*
D12*
X195833333Y-155454819D02*
X195357143Y-155454819D01*
X195357143Y-155454819D02*
X195357143Y-154454819D01*
X196690476Y-155454819D02*
X196119048Y-155454819D01*
X196404762Y-155454819D02*
X196404762Y-154454819D01*
X196404762Y-154454819D02*
X196309524Y-154597676D01*
X196309524Y-154597676D02*
X196214286Y-154692914D01*
X196214286Y-154692914D02*
X196119048Y-154740533D01*
D11*
X185416666Y-159928490D02*
X185392857Y-159952300D01*
X185392857Y-159952300D02*
X185321428Y-159976109D01*
X185321428Y-159976109D02*
X185273809Y-159976109D01*
X185273809Y-159976109D02*
X185202381Y-159952300D01*
X185202381Y-159952300D02*
X185154762Y-159904680D01*
X185154762Y-159904680D02*
X185130952Y-159857061D01*
X185130952Y-159857061D02*
X185107143Y-159761823D01*
X185107143Y-159761823D02*
X185107143Y-159690395D01*
X185107143Y-159690395D02*
X185130952Y-159595157D01*
X185130952Y-159595157D02*
X185154762Y-159547538D01*
X185154762Y-159547538D02*
X185202381Y-159499919D01*
X185202381Y-159499919D02*
X185273809Y-159476109D01*
X185273809Y-159476109D02*
X185321428Y-159476109D01*
X185321428Y-159476109D02*
X185392857Y-159499919D01*
X185392857Y-159499919D02*
X185416666Y-159523728D01*
X185845238Y-159642776D02*
X185845238Y-159976109D01*
X185726190Y-159452300D02*
X185607143Y-159809442D01*
X185607143Y-159809442D02*
X185916666Y-159809442D01*
X110476109Y-137701428D02*
X110238014Y-137868094D01*
X110476109Y-137987142D02*
X109976109Y-137987142D01*
X109976109Y-137987142D02*
X109976109Y-137796666D01*
X109976109Y-137796666D02*
X109999919Y-137749047D01*
X109999919Y-137749047D02*
X110023728Y-137725237D01*
X110023728Y-137725237D02*
X110071347Y-137701428D01*
X110071347Y-137701428D02*
X110142776Y-137701428D01*
X110142776Y-137701428D02*
X110190395Y-137725237D01*
X110190395Y-137725237D02*
X110214204Y-137749047D01*
X110214204Y-137749047D02*
X110238014Y-137796666D01*
X110238014Y-137796666D02*
X110238014Y-137987142D01*
X109976109Y-137534761D02*
X109976109Y-137201428D01*
X109976109Y-137201428D02*
X110476109Y-137415713D01*
X110023728Y-137034761D02*
X109999919Y-137010952D01*
X109999919Y-137010952D02*
X109976109Y-136963333D01*
X109976109Y-136963333D02*
X109976109Y-136844285D01*
X109976109Y-136844285D02*
X109999919Y-136796666D01*
X109999919Y-136796666D02*
X110023728Y-136772857D01*
X110023728Y-136772857D02*
X110071347Y-136749047D01*
X110071347Y-136749047D02*
X110118966Y-136749047D01*
X110118966Y-136749047D02*
X110190395Y-136772857D01*
X110190395Y-136772857D02*
X110476109Y-137058571D01*
X110476109Y-137058571D02*
X110476109Y-136749047D01*
X110476109Y-135161428D02*
X110238014Y-135328094D01*
X110476109Y-135447142D02*
X109976109Y-135447142D01*
X109976109Y-135447142D02*
X109976109Y-135256666D01*
X109976109Y-135256666D02*
X109999919Y-135209047D01*
X109999919Y-135209047D02*
X110023728Y-135185237D01*
X110023728Y-135185237D02*
X110071347Y-135161428D01*
X110071347Y-135161428D02*
X110142776Y-135161428D01*
X110142776Y-135161428D02*
X110190395Y-135185237D01*
X110190395Y-135185237D02*
X110214204Y-135209047D01*
X110214204Y-135209047D02*
X110238014Y-135256666D01*
X110238014Y-135256666D02*
X110238014Y-135447142D01*
X109976109Y-134994761D02*
X109976109Y-134661428D01*
X109976109Y-134661428D02*
X110476109Y-134875713D01*
X109976109Y-134518571D02*
X109976109Y-134209047D01*
X109976109Y-134209047D02*
X110166585Y-134375714D01*
X110166585Y-134375714D02*
X110166585Y-134304285D01*
X110166585Y-134304285D02*
X110190395Y-134256666D01*
X110190395Y-134256666D02*
X110214204Y-134232857D01*
X110214204Y-134232857D02*
X110261823Y-134209047D01*
X110261823Y-134209047D02*
X110380871Y-134209047D01*
X110380871Y-134209047D02*
X110428490Y-134232857D01*
X110428490Y-134232857D02*
X110452300Y-134256666D01*
X110452300Y-134256666D02*
X110476109Y-134304285D01*
X110476109Y-134304285D02*
X110476109Y-134447142D01*
X110476109Y-134447142D02*
X110452300Y-134494761D01*
X110452300Y-134494761D02*
X110428490Y-134518571D01*
X189416666Y-159928490D02*
X189392857Y-159952300D01*
X189392857Y-159952300D02*
X189321428Y-159976109D01*
X189321428Y-159976109D02*
X189273809Y-159976109D01*
X189273809Y-159976109D02*
X189202381Y-159952300D01*
X189202381Y-159952300D02*
X189154762Y-159904680D01*
X189154762Y-159904680D02*
X189130952Y-159857061D01*
X189130952Y-159857061D02*
X189107143Y-159761823D01*
X189107143Y-159761823D02*
X189107143Y-159690395D01*
X189107143Y-159690395D02*
X189130952Y-159595157D01*
X189130952Y-159595157D02*
X189154762Y-159547538D01*
X189154762Y-159547538D02*
X189202381Y-159499919D01*
X189202381Y-159499919D02*
X189273809Y-159476109D01*
X189273809Y-159476109D02*
X189321428Y-159476109D01*
X189321428Y-159476109D02*
X189392857Y-159499919D01*
X189392857Y-159499919D02*
X189416666Y-159523728D01*
X189869047Y-159476109D02*
X189630952Y-159476109D01*
X189630952Y-159476109D02*
X189607143Y-159714204D01*
X189607143Y-159714204D02*
X189630952Y-159690395D01*
X189630952Y-159690395D02*
X189678571Y-159666585D01*
X189678571Y-159666585D02*
X189797619Y-159666585D01*
X189797619Y-159666585D02*
X189845238Y-159690395D01*
X189845238Y-159690395D02*
X189869047Y-159714204D01*
X189869047Y-159714204D02*
X189892857Y-159761823D01*
X189892857Y-159761823D02*
X189892857Y-159880871D01*
X189892857Y-159880871D02*
X189869047Y-159928490D01*
X189869047Y-159928490D02*
X189845238Y-159952300D01*
X189845238Y-159952300D02*
X189797619Y-159976109D01*
X189797619Y-159976109D02*
X189678571Y-159976109D01*
X189678571Y-159976109D02*
X189630952Y-159952300D01*
X189630952Y-159952300D02*
X189607143Y-159928490D01*
X197916666Y-159928490D02*
X197892857Y-159952300D01*
X197892857Y-159952300D02*
X197821428Y-159976109D01*
X197821428Y-159976109D02*
X197773809Y-159976109D01*
X197773809Y-159976109D02*
X197702381Y-159952300D01*
X197702381Y-159952300D02*
X197654762Y-159904680D01*
X197654762Y-159904680D02*
X197630952Y-159857061D01*
X197630952Y-159857061D02*
X197607143Y-159761823D01*
X197607143Y-159761823D02*
X197607143Y-159690395D01*
X197607143Y-159690395D02*
X197630952Y-159595157D01*
X197630952Y-159595157D02*
X197654762Y-159547538D01*
X197654762Y-159547538D02*
X197702381Y-159499919D01*
X197702381Y-159499919D02*
X197773809Y-159476109D01*
X197773809Y-159476109D02*
X197821428Y-159476109D01*
X197821428Y-159476109D02*
X197892857Y-159499919D01*
X197892857Y-159499919D02*
X197916666Y-159523728D01*
X198392857Y-159976109D02*
X198107143Y-159976109D01*
X198250000Y-159976109D02*
X198250000Y-159476109D01*
X198250000Y-159476109D02*
X198202381Y-159547538D01*
X198202381Y-159547538D02*
X198154762Y-159595157D01*
X198154762Y-159595157D02*
X198107143Y-159618966D01*
X194369047Y-159476109D02*
X194369047Y-159880871D01*
X194369047Y-159880871D02*
X194392857Y-159928490D01*
X194392857Y-159928490D02*
X194416666Y-159952300D01*
X194416666Y-159952300D02*
X194464285Y-159976109D01*
X194464285Y-159976109D02*
X194559523Y-159976109D01*
X194559523Y-159976109D02*
X194607142Y-159952300D01*
X194607142Y-159952300D02*
X194630952Y-159928490D01*
X194630952Y-159928490D02*
X194654761Y-159880871D01*
X194654761Y-159880871D02*
X194654761Y-159476109D01*
X195154762Y-159976109D02*
X194869048Y-159976109D01*
X195011905Y-159976109D02*
X195011905Y-159476109D01*
X195011905Y-159476109D02*
X194964286Y-159547538D01*
X194964286Y-159547538D02*
X194916667Y-159595157D01*
X194916667Y-159595157D02*
X194869048Y-159618966D01*
X110476109Y-145321428D02*
X110238014Y-145488094D01*
X110476109Y-145607142D02*
X109976109Y-145607142D01*
X109976109Y-145607142D02*
X109976109Y-145416666D01*
X109976109Y-145416666D02*
X109999919Y-145369047D01*
X109999919Y-145369047D02*
X110023728Y-145345237D01*
X110023728Y-145345237D02*
X110071347Y-145321428D01*
X110071347Y-145321428D02*
X110142776Y-145321428D01*
X110142776Y-145321428D02*
X110190395Y-145345237D01*
X110190395Y-145345237D02*
X110214204Y-145369047D01*
X110214204Y-145369047D02*
X110238014Y-145416666D01*
X110238014Y-145416666D02*
X110238014Y-145607142D01*
X109976109Y-145154761D02*
X109976109Y-144821428D01*
X109976109Y-144821428D02*
X110476109Y-145035713D01*
X110476109Y-144369047D02*
X110476109Y-144654761D01*
X110476109Y-144511904D02*
X109976109Y-144511904D01*
X109976109Y-144511904D02*
X110047538Y-144559523D01*
X110047538Y-144559523D02*
X110095157Y-144607142D01*
X110095157Y-144607142D02*
X110118966Y-144654761D01*
D12*
X177404761Y-157454819D02*
X177071428Y-156978628D01*
X176833333Y-157454819D02*
X176833333Y-156454819D01*
X176833333Y-156454819D02*
X177214285Y-156454819D01*
X177214285Y-156454819D02*
X177309523Y-156502438D01*
X177309523Y-156502438D02*
X177357142Y-156550057D01*
X177357142Y-156550057D02*
X177404761Y-156645295D01*
X177404761Y-156645295D02*
X177404761Y-156788152D01*
X177404761Y-156788152D02*
X177357142Y-156883390D01*
X177357142Y-156883390D02*
X177309523Y-156931009D01*
X177309523Y-156931009D02*
X177214285Y-156978628D01*
X177214285Y-156978628D02*
X176833333Y-156978628D01*
X177690476Y-156454819D02*
X178023809Y-157454819D01*
X178023809Y-157454819D02*
X178357142Y-156454819D01*
X179214285Y-157454819D02*
X178642857Y-157454819D01*
X178928571Y-157454819D02*
X178928571Y-156454819D01*
X178928571Y-156454819D02*
X178833333Y-156597676D01*
X178833333Y-156597676D02*
X178738095Y-156692914D01*
X178738095Y-156692914D02*
X178642857Y-156740533D01*
X204704819Y-153083333D02*
X205419104Y-153083333D01*
X205419104Y-153083333D02*
X205561961Y-153130952D01*
X205561961Y-153130952D02*
X205657200Y-153226190D01*
X205657200Y-153226190D02*
X205704819Y-153369047D01*
X205704819Y-153369047D02*
X205704819Y-153464285D01*
X205704819Y-152083333D02*
X205704819Y-152654761D01*
X205704819Y-152369047D02*
X204704819Y-152369047D01*
X204704819Y-152369047D02*
X204847676Y-152464285D01*
X204847676Y-152464285D02*
X204942914Y-152559523D01*
X204942914Y-152559523D02*
X204990533Y-152654761D01*
D13*
%TO.C,R74*%
X107902936Y-128955000D02*
X108357064Y-128955000D01*
X107902936Y-130425000D02*
X108357064Y-130425000D01*
%TO.C,C2*%
X192235000Y-157488748D02*
X192235000Y-158011252D01*
X190765000Y-157488748D02*
X190765000Y-158011252D01*
D14*
%TO.C,U9*%
X78300000Y-125900000D02*
X78300000Y-174100000D01*
X78300000Y-174100000D02*
X88180000Y-174100000D01*
X83250000Y-119700000D02*
X101250000Y-119700000D01*
X83250000Y-125900000D02*
X78300000Y-125900000D01*
X83250000Y-125900000D02*
X83250000Y-119700000D01*
X88180000Y-174100000D02*
X88180000Y-175000000D01*
X88180000Y-175000000D02*
X96310000Y-175000000D01*
X96310000Y-174100000D02*
X106200000Y-174100000D01*
X96310000Y-175000000D02*
X96310000Y-174100000D01*
X101250000Y-119700000D02*
X101250000Y-125900000D01*
X106200000Y-125900000D02*
X101250000Y-125900000D01*
X106200000Y-174100000D02*
X106200000Y-125900000D01*
D15*
X77780000Y-127030000D02*
G75*
G03*
X77780000Y-127030000I-100000J0D01*
G01*
D13*
%TO.C,C3*%
X186765000Y-158011252D02*
X186765000Y-157488748D01*
X188235000Y-158011252D02*
X188235000Y-157488748D01*
%TO.C,L1*%
X191800000Y-155650000D02*
X187700000Y-155650000D01*
X191800000Y-147350000D02*
X193900000Y-149450000D01*
X187700000Y-155650000D02*
X185600000Y-153550000D01*
X187700000Y-147350000D02*
X191800000Y-147350000D01*
X187700000Y-147350000D02*
X185600000Y-149450000D01*
%TO.C,C4*%
X184765000Y-158011252D02*
X184765000Y-157488748D01*
X186235000Y-158011252D02*
X186235000Y-157488748D01*
%TO.C,R72*%
X107902936Y-136575000D02*
X108357064Y-136575000D01*
X107902936Y-138045000D02*
X108357064Y-138045000D01*
%TO.C,R73*%
X107902936Y-134035000D02*
X108357064Y-134035000D01*
X107902936Y-135505000D02*
X108357064Y-135505000D01*
%TO.C,C5*%
X188765000Y-158011252D02*
X188765000Y-157488748D01*
X190235000Y-158011252D02*
X190235000Y-157488748D01*
%TO.C,C1*%
X197265000Y-158011252D02*
X197265000Y-157488748D01*
X198735000Y-158011252D02*
X198735000Y-157488748D01*
%TO.C,U1*%
X194750000Y-159310000D02*
X196550000Y-159310000D01*
X194750000Y-159310000D02*
X193950000Y-159310000D01*
X194750000Y-156190000D02*
X195550000Y-156190000D01*
X194750000Y-156190000D02*
X193950000Y-156190000D01*
%TO.C,R71*%
X107902936Y-144195000D02*
X108357064Y-144195000D01*
X107902936Y-145665000D02*
X108357064Y-145665000D01*
%TO.C,RV1*%
X172826001Y-148994000D02*
G75*
G03*
X172885610Y-151274881I5173999J-1006000D01*
G01*
X183113999Y-148726000D02*
G75*
G03*
X173963379Y-146611526I-5113999J-1274000D01*
G01*
X174209000Y-153661000D02*
G75*
G03*
X178092030Y-155269357I3791000J3661000D01*
G01*
X178000000Y-155269999D02*
G75*
G03*
X183039725Y-151540799I0J5269999D01*
G01*
%TO.C,J1*%
X199225000Y-166850000D02*
X200475000Y-166850000D01*
X199515000Y-166560000D02*
X205485000Y-166560000D01*
X205485000Y-166560000D02*
X205485000Y-153940000D01*
X199525000Y-166550000D02*
X200275000Y-166550000D01*
X200275000Y-166550000D02*
X200275000Y-164750000D01*
X201775000Y-166550000D02*
X201775000Y-165800000D01*
X201775000Y-165800000D02*
X204725000Y-165800000D01*
X204725000Y-165800000D02*
X204725000Y-160250000D01*
X199225000Y-165600000D02*
X199225000Y-166850000D01*
X199525000Y-164750000D02*
X199525000Y-166550000D01*
X200275000Y-164750000D02*
X199525000Y-164750000D01*
X199525000Y-163250000D02*
X200275000Y-163250000D01*
X200275000Y-163250000D02*
X200275000Y-157250000D01*
X199525000Y-157250000D02*
X199525000Y-163250000D01*
X200275000Y-157250000D02*
X199525000Y-157250000D01*
X199525000Y-155750000D02*
X200275000Y-155750000D01*
X200275000Y-155750000D02*
X200275000Y-153950000D01*
X201775000Y-154700000D02*
X204725000Y-154700000D01*
X204725000Y-154700000D02*
X204725000Y-160250000D01*
X199525000Y-153950000D02*
X199525000Y-155750000D01*
X200275000Y-153950000D02*
X199525000Y-153950000D01*
X201775000Y-153950000D02*
X201775000Y-154700000D01*
X199515000Y-153940000D02*
X199515000Y-166560000D01*
X205485000Y-153940000D02*
X199515000Y-153940000D01*
%TD*%
M02*
