%TF.GenerationSoftware,KiCad,Pcbnew,(6.0.9)*%
%TF.CreationDate,2023-07-24T19:50:03+10:00*%
%TF.ProjectId,Joysticks2.1,4a6f7973-7469-4636-9b73-322e312e6b69,rev?*%
%TF.SameCoordinates,PX3d09000PY568bc30*%
%TF.FileFunction,Soldermask,Bot*%
%TF.FilePolarity,Negative*%
%FSLAX46Y46*%
G04 Gerber Fmt 4.6, Leading zero omitted, Abs format (unit mm)*
G04 Created by KiCad (PCBNEW (6.0.9)) date 2023-07-24 19:50:03*
%MOMM*%
%LPD*%
G01*
G04 APERTURE LIST*
%ADD10C,1.950000*%
%ADD11C,2.400000*%
%ADD12R,1.650000X1.650000*%
%ADD13C,1.650000*%
%ADD14C,1.700000*%
%ADD15C,3.987800*%
%ADD16C,1.508000*%
%ADD17C,2.250000*%
%ADD18R,1.600000X1.600000*%
%ADD19O,1.600000X1.600000*%
%ADD20R,1.700000X1.700000*%
%ADD21O,1.700000X1.700000*%
%ADD22R,1.000000X2.286000*%
G04 APERTURE END LIST*
D10*
%TO.C,U1*%
X8750000Y-24000000D03*
X15250000Y-24000000D03*
X8750000Y-28500000D03*
X15250000Y-28500000D03*
D11*
X18325000Y-13250000D03*
X5675000Y-13250000D03*
X5675000Y-23250000D03*
X18325000Y-23250000D03*
D12*
X20730000Y-20750000D03*
D13*
X20730000Y-18250000D03*
X20730000Y-15750000D03*
X14500000Y-9520000D03*
X12000000Y-9520000D03*
X9500000Y-9520000D03*
%TD*%
D10*
%TO.C,U11*%
X56750000Y-24000000D03*
X63250000Y-24000000D03*
X56750000Y-28500000D03*
X63250000Y-28500000D03*
D11*
X66325000Y-13250000D03*
X53675000Y-13250000D03*
X53675000Y-23250000D03*
X66325000Y-23250000D03*
D12*
X68730000Y-20750000D03*
D13*
X68730000Y-18250000D03*
X68730000Y-15750000D03*
X62500000Y-9520000D03*
X60000000Y-9520000D03*
X57500000Y-9520000D03*
%TD*%
D14*
%TO.C,U2*%
X57000000Y10750000D03*
X67000000Y10750000D03*
D15*
X62000000Y10750000D03*
D16*
X58190000Y5670000D03*
X65810000Y5670000D03*
D17*
X64510000Y15830000D03*
X58190000Y13290000D03*
%TD*%
D14*
%TO.C,U3*%
X-17000000Y-3500000D03*
X-7000000Y-3500000D03*
D15*
X-12000000Y-3500000D03*
D16*
X-15810000Y-8580000D03*
X-8190000Y-8580000D03*
D17*
X-9490000Y1580000D03*
X-15810000Y-960000D03*
%TD*%
D18*
%TO.C,A1*%
X28390000Y-2950000D03*
D19*
X28390000Y-5490000D03*
X28390000Y-8030000D03*
X28390000Y-10570000D03*
X28390000Y-13110000D03*
X28390000Y-15650000D03*
X28390000Y-18190000D03*
X28390000Y-20730000D03*
X28390000Y-23270000D03*
X28390000Y-25810000D03*
X28390000Y-28350000D03*
X28390000Y-30890000D03*
X28390000Y-33430000D03*
X28390000Y-35970000D03*
X28390000Y-38510000D03*
X43630000Y-38510000D03*
X43630000Y-35970000D03*
X43630000Y-33430000D03*
X43630000Y-30890000D03*
X43630000Y-28350000D03*
X43630000Y-25810000D03*
X43630000Y-23270000D03*
X43630000Y-20730000D03*
X43630000Y-18190000D03*
X43630000Y-15650000D03*
X43630000Y-13110000D03*
X43630000Y-10570000D03*
X43630000Y-8030000D03*
X43630000Y-5490000D03*
X43630000Y-2950000D03*
%TD*%
D15*
%TO.C,U4*%
X84000000Y-3250000D03*
D14*
X89000000Y-3250000D03*
X79000000Y-3250000D03*
D16*
X80190000Y-8330000D03*
X87810000Y-8330000D03*
D17*
X86510000Y1830000D03*
X80190000Y-710000D03*
%TD*%
D14*
%TO.C,U5*%
X5000000Y10750000D03*
X15000000Y10750000D03*
D15*
X10000000Y10750000D03*
D16*
X6190000Y5670000D03*
X13810000Y5670000D03*
D17*
X12510000Y15830000D03*
X6190000Y13290000D03*
%TD*%
D20*
%TO.C,J1*%
X48750000Y13750000D03*
D21*
X51290000Y13750000D03*
%TD*%
D20*
%TO.C,J4*%
X32200000Y17525000D03*
D21*
X34740000Y17525000D03*
X37280000Y17525000D03*
X39820000Y17525000D03*
%TD*%
D22*
%TO.C,U6*%
X39220000Y-4500000D03*
X40490000Y-4500000D03*
X37950000Y-4500000D03*
X36680000Y-4500000D03*
X35410000Y-4500000D03*
X34140000Y-4500000D03*
X32870000Y-4500000D03*
X31600000Y-4500000D03*
%TD*%
M02*
