%TF.GenerationSoftware,KiCad,Pcbnew,(6.0.9)*%
%TF.CreationDate,2023-07-18T19:51:58+10:00*%
%TF.ProjectId,VisorPlate2.0,5669736f-7250-46c6-9174-65322e302e6b,rev?*%
%TF.SameCoordinates,Original*%
%TF.FileFunction,Plated,1,2,PTH,Drill*%
%TF.FilePolarity,Positive*%
%FSLAX46Y46*%
G04 Gerber Fmt 4.6, Leading zero omitted, Abs format (unit mm)*
G04 Created by KiCad (PCBNEW (6.0.9)) date 2023-07-18 19:51:58*
%MOMM*%
%LPD*%
G01*
G04 APERTURE LIST*
%TA.AperFunction,ViaDrill*%
%ADD10C,0.300000*%
%TD*%
%TA.AperFunction,ComponentDrill*%
%ADD11C,0.762000*%
%TD*%
%TA.AperFunction,ComponentDrill*%
%ADD12C,1.000000*%
%TD*%
G04 APERTURE END LIST*
D10*
X111200000Y-109000000D03*
X113000000Y-104000000D03*
X113000000Y-109000000D03*
X114400000Y-103000000D03*
X115812299Y-108524500D03*
X116274500Y-112250000D03*
X117229107Y-108487322D03*
X118750000Y-112624500D03*
X119612299Y-108812299D03*
X120401424Y-102998576D03*
X121800000Y-103000000D03*
X122000000Y-108800000D03*
X125250000Y-108250000D03*
X127200000Y-98600000D03*
X127854799Y-94895201D03*
X128750000Y-95750000D03*
X129200000Y-98600000D03*
X135500000Y-99000000D03*
X136750000Y-95000000D03*
X137000000Y-97500000D03*
X137500000Y-110750000D03*
X140750000Y-108250000D03*
X143275500Y-108862250D03*
X144000000Y-103200000D03*
X144600000Y-96800000D03*
X145377532Y-112352028D03*
X146500000Y-108724500D03*
X147895000Y-112294771D03*
X147900000Y-103000000D03*
X148487701Y-109012299D03*
X149100000Y-107500000D03*
X149337685Y-105775500D03*
X150422701Y-105047299D03*
X150435000Y-102835000D03*
X152100000Y-99700000D03*
X152511444Y-104088597D03*
X152966968Y-112313972D03*
X154200000Y-109000000D03*
X155400000Y-103000000D03*
X155500000Y-108700000D03*
D11*
%TO.C,U2*%
X107520000Y-98500000D03*
X107520000Y-113500000D03*
X110020000Y-98500000D03*
X110020000Y-113500000D03*
X112520000Y-98500000D03*
X112520000Y-113500000D03*
X115020000Y-98500000D03*
X115020000Y-113500000D03*
X117520000Y-98500000D03*
X117520000Y-113500000D03*
X120020000Y-98500000D03*
X120020000Y-113500000D03*
X122520000Y-98500000D03*
X122520000Y-113500000D03*
X125020000Y-98500000D03*
X125020000Y-113500000D03*
%TO.C,U4*%
X141080000Y-98500000D03*
X141080000Y-113500000D03*
X143580000Y-98500000D03*
X143580000Y-113500000D03*
X146080000Y-98500000D03*
X146080000Y-113500000D03*
X148580000Y-98500000D03*
X148580000Y-113500000D03*
X151080000Y-98500000D03*
X151080000Y-113500000D03*
X153580000Y-98500000D03*
X153580000Y-113500000D03*
X156080000Y-98500000D03*
X156080000Y-113500000D03*
X158580000Y-98500000D03*
X158580000Y-113500000D03*
D12*
%TO.C,J1*%
X127920000Y-93275000D03*
X130460000Y-93275000D03*
X133000000Y-93275000D03*
X135540000Y-93275000D03*
X138080000Y-93275000D03*
M02*
