%TF.GenerationSoftware,KiCad,Pcbnew,(6.0.9)*%
%TF.CreationDate,2023-05-29T15:26:25+10:00*%
%TF.ProjectId,SumoNyxPCB2.2,53756d6f-4e79-4785-9043-42322e322e6b,rev?*%
%TF.SameCoordinates,Original*%
%TF.FileFunction,Drillmap*%
%TF.FilePolarity,Positive*%
%FSLAX45Y45*%
G04 Gerber Fmt 4.5, Leading zero omitted, Abs format (unit mm)*
G04 Created by KiCad (PCBNEW (6.0.9)) date 2023-05-29 15:26:25*
%MOMM*%
%LPD*%
G01*
G04 APERTURE LIST*
%ADD10C,0.010000*%
%ADD11C,0.200000*%
%ADD12C,0.030000*%
%ADD13C,0.100000*%
G04 APERTURE END LIST*
D10*
X15912500Y-7188527D02*
X15912500Y-7188500D01*
X20975000Y-6625000D02*
G75*
G03*
X20725000Y-6375000I-250000J0D01*
G01*
X20725000Y-6375000D02*
X15825000Y-6375000D01*
X20825000Y-9357398D02*
G75*
G03*
X20825000Y-9357398I-100000J0D01*
G01*
X16012500Y-10125000D02*
G75*
G03*
X16262500Y-10375000I250000J0D01*
G01*
X15925000Y-6748198D02*
G75*
G03*
X15925000Y-6748198I-100000J0D01*
G01*
X16362500Y-10125000D02*
G75*
G03*
X16362500Y-10125000I-100000J0D01*
G01*
X20825000Y-6748198D02*
G75*
G03*
X20825000Y-6748198I-100000J0D01*
G01*
X15912500Y-7188500D02*
X16012500Y-7188500D01*
X16262500Y-10375000D02*
X20175000Y-10375000D01*
X15825000Y-7188527D02*
X15912500Y-7188527D01*
X20175000Y-10375000D02*
G75*
G03*
X20975000Y-9575000I0J800000D01*
G01*
X20975000Y-9575000D02*
X20975000Y-6625000D01*
X15575003Y-6938527D02*
G75*
G03*
X15825000Y-7188527I249997J-3D01*
G01*
X16012500Y-7188500D02*
X16012500Y-10125000D01*
X15825000Y-6375000D02*
G75*
G03*
X15575000Y-6625000I0J-250000D01*
G01*
X15575000Y-6625000D02*
X15575000Y-6938527D01*
D11*
D12*
X17171730Y-7146730D02*
X17201730Y-7176730D01*
X17201730Y-7146730D02*
X17171730Y-7176730D01*
X17171730Y-7491450D02*
X17201730Y-7521450D01*
X17201730Y-7491450D02*
X17171730Y-7521450D01*
X17285000Y-7710000D02*
X17315000Y-7740000D01*
X17315000Y-7710000D02*
X17285000Y-7740000D01*
X17510000Y-6885000D02*
X17540000Y-6915000D01*
X17540000Y-6885000D02*
X17510000Y-6915000D01*
X17510000Y-7085000D02*
X17540000Y-7115000D01*
X17540000Y-7085000D02*
X17510000Y-7115000D01*
X18101000Y-6919000D02*
X18131000Y-6949000D01*
X18131000Y-6919000D02*
X18101000Y-6949000D01*
D13*
X16224000Y-8162000D02*
G75*
G03*
X16224000Y-8162000I-50000J0D01*
G01*
X16224000Y-9686000D02*
G75*
G03*
X16224000Y-9686000I-50000J0D01*
G01*
X16478000Y-8162000D02*
G75*
G03*
X16478000Y-8162000I-50000J0D01*
G01*
X16478000Y-9686000D02*
G75*
G03*
X16478000Y-9686000I-50000J0D01*
G01*
X16690000Y-6575000D02*
G75*
G03*
X16690000Y-6575000I-50000J0D01*
G01*
X16732000Y-8162000D02*
G75*
G03*
X16732000Y-8162000I-50000J0D01*
G01*
X16732000Y-9686000D02*
G75*
G03*
X16732000Y-9686000I-50000J0D01*
G01*
X16897000Y-10075000D02*
G75*
G03*
X16897000Y-10075000I-50000J0D01*
G01*
X16944000Y-6575000D02*
G75*
G03*
X16944000Y-6575000I-50000J0D01*
G01*
X16986000Y-8162000D02*
G75*
G03*
X16986000Y-8162000I-50000J0D01*
G01*
X16986000Y-9686000D02*
G75*
G03*
X16986000Y-9686000I-50000J0D01*
G01*
X17151000Y-10075000D02*
G75*
G03*
X17151000Y-10075000I-50000J0D01*
G01*
X17198000Y-6575000D02*
G75*
G03*
X17198000Y-6575000I-50000J0D01*
G01*
X17240000Y-8162000D02*
G75*
G03*
X17240000Y-8162000I-50000J0D01*
G01*
X17240000Y-9686000D02*
G75*
G03*
X17240000Y-9686000I-50000J0D01*
G01*
X17452000Y-6575000D02*
G75*
G03*
X17452000Y-6575000I-50000J0D01*
G01*
X17494000Y-8162000D02*
G75*
G03*
X17494000Y-8162000I-50000J0D01*
G01*
X17494000Y-9686000D02*
G75*
G03*
X17494000Y-9686000I-50000J0D01*
G01*
X17706000Y-6575000D02*
G75*
G03*
X17706000Y-6575000I-50000J0D01*
G01*
X17748000Y-8162000D02*
G75*
G03*
X17748000Y-8162000I-50000J0D01*
G01*
X17748000Y-9686000D02*
G75*
G03*
X17748000Y-9686000I-50000J0D01*
G01*
X17960000Y-6575000D02*
G75*
G03*
X17960000Y-6575000I-50000J0D01*
G01*
X18002000Y-8162000D02*
G75*
G03*
X18002000Y-8162000I-50000J0D01*
G01*
X18002000Y-9686000D02*
G75*
G03*
X18002000Y-9686000I-50000J0D01*
G01*
X18256000Y-8162000D02*
G75*
G03*
X18256000Y-8162000I-50000J0D01*
G01*
X18256000Y-9686000D02*
G75*
G03*
X18256000Y-9686000I-50000J0D01*
G01*
X18283500Y-6555500D02*
G75*
G03*
X18283500Y-6555500I-50000J0D01*
G01*
X18283500Y-6809500D02*
G75*
G03*
X18283500Y-6809500I-50000J0D01*
G01*
X18283500Y-7063500D02*
G75*
G03*
X18283500Y-7063500I-50000J0D01*
G01*
X18283500Y-7317500D02*
G75*
G03*
X18283500Y-7317500I-50000J0D01*
G01*
X18283500Y-7571500D02*
G75*
G03*
X18283500Y-7571500I-50000J0D01*
G01*
X18283500Y-7825500D02*
G75*
G03*
X18283500Y-7825500I-50000J0D01*
G01*
X18396000Y-10075000D02*
G75*
G03*
X18396000Y-10075000I-50000J0D01*
G01*
X18510000Y-8162000D02*
G75*
G03*
X18510000Y-8162000I-50000J0D01*
G01*
X18510000Y-9686000D02*
G75*
G03*
X18510000Y-9686000I-50000J0D01*
G01*
X18650000Y-10075000D02*
G75*
G03*
X18650000Y-10075000I-50000J0D01*
G01*
X18764000Y-8162000D02*
G75*
G03*
X18764000Y-8162000I-50000J0D01*
G01*
X18764000Y-9686000D02*
G75*
G03*
X18764000Y-9686000I-50000J0D01*
G01*
X19018000Y-8162000D02*
G75*
G03*
X19018000Y-8162000I-50000J0D01*
G01*
X19018000Y-9686000D02*
G75*
G03*
X19018000Y-9686000I-50000J0D01*
G01*
X19272000Y-8162000D02*
G75*
G03*
X19272000Y-8162000I-50000J0D01*
G01*
X19272000Y-9686000D02*
G75*
G03*
X19272000Y-9686000I-50000J0D01*
G01*
X19526000Y-8162000D02*
G75*
G03*
X19526000Y-8162000I-50000J0D01*
G01*
X19526000Y-9686000D02*
G75*
G03*
X19526000Y-9686000I-50000J0D01*
G01*
X19780000Y-8162000D02*
G75*
G03*
X19780000Y-8162000I-50000J0D01*
G01*
X19780000Y-9686000D02*
G75*
G03*
X19780000Y-9686000I-50000J0D01*
G01*
X19847500Y-6556500D02*
G75*
G03*
X19847500Y-6556500I-50000J0D01*
G01*
X19847500Y-6810500D02*
G75*
G03*
X19847500Y-6810500I-50000J0D01*
G01*
X19847500Y-7064500D02*
G75*
G03*
X19847500Y-7064500I-50000J0D01*
G01*
X19847500Y-7318500D02*
G75*
G03*
X19847500Y-7318500I-50000J0D01*
G01*
X19847500Y-7572500D02*
G75*
G03*
X19847500Y-7572500I-50000J0D01*
G01*
X19847500Y-7826500D02*
G75*
G03*
X19847500Y-7826500I-50000J0D01*
G01*
X20197500Y-6818000D02*
G75*
G03*
X20197500Y-6818000I-50000J0D01*
G01*
X20197500Y-7072000D02*
G75*
G03*
X20197500Y-7072000I-50000J0D01*
G01*
X20197500Y-7326000D02*
G75*
G03*
X20197500Y-7326000I-50000J0D01*
G01*
X20197500Y-7580000D02*
G75*
G03*
X20197500Y-7580000I-50000J0D01*
G01*
D11*
X15832119Y-10685976D02*
X15832119Y-10485976D01*
X15879738Y-10485976D01*
X15908309Y-10495500D01*
X15927357Y-10514548D01*
X15936881Y-10533595D01*
X15946405Y-10571690D01*
X15946405Y-10600262D01*
X15936881Y-10638357D01*
X15927357Y-10657405D01*
X15908309Y-10676452D01*
X15879738Y-10685976D01*
X15832119Y-10685976D01*
X16032119Y-10685976D02*
X16032119Y-10552643D01*
X16032119Y-10590738D02*
X16041643Y-10571690D01*
X16051167Y-10562167D01*
X16070214Y-10552643D01*
X16089262Y-10552643D01*
X16155928Y-10685976D02*
X16155928Y-10552643D01*
X16155928Y-10485976D02*
X16146405Y-10495500D01*
X16155928Y-10505024D01*
X16165452Y-10495500D01*
X16155928Y-10485976D01*
X16155928Y-10505024D01*
X16279738Y-10685976D02*
X16260690Y-10676452D01*
X16251167Y-10657405D01*
X16251167Y-10485976D01*
X16384500Y-10685976D02*
X16365452Y-10676452D01*
X16355928Y-10657405D01*
X16355928Y-10485976D01*
X16613071Y-10685976D02*
X16613071Y-10485976D01*
X16679738Y-10628833D01*
X16746405Y-10485976D01*
X16746405Y-10685976D01*
X16927357Y-10685976D02*
X16927357Y-10581214D01*
X16917833Y-10562167D01*
X16898786Y-10552643D01*
X16860690Y-10552643D01*
X16841643Y-10562167D01*
X16927357Y-10676452D02*
X16908310Y-10685976D01*
X16860690Y-10685976D01*
X16841643Y-10676452D01*
X16832119Y-10657405D01*
X16832119Y-10638357D01*
X16841643Y-10619310D01*
X16860690Y-10609786D01*
X16908310Y-10609786D01*
X16927357Y-10600262D01*
X17022595Y-10552643D02*
X17022595Y-10752643D01*
X17022595Y-10562167D02*
X17041643Y-10552643D01*
X17079738Y-10552643D01*
X17098786Y-10562167D01*
X17108310Y-10571690D01*
X17117833Y-10590738D01*
X17117833Y-10647881D01*
X17108310Y-10666929D01*
X17098786Y-10676452D01*
X17079738Y-10685976D01*
X17041643Y-10685976D01*
X17022595Y-10676452D01*
X17203548Y-10666929D02*
X17213071Y-10676452D01*
X17203548Y-10685976D01*
X17194024Y-10676452D01*
X17203548Y-10666929D01*
X17203548Y-10685976D01*
X17203548Y-10562167D02*
X17213071Y-10571690D01*
X17203548Y-10581214D01*
X17194024Y-10571690D01*
X17203548Y-10562167D01*
X17203548Y-10581214D01*
D12*
X15544500Y-11000500D02*
X15574500Y-11030500D01*
X15574500Y-11000500D02*
X15544500Y-11030500D01*
D11*
X15870214Y-10905976D02*
X15889262Y-10905976D01*
X15908309Y-10915500D01*
X15917833Y-10925024D01*
X15927357Y-10944071D01*
X15936881Y-10982167D01*
X15936881Y-11029786D01*
X15927357Y-11067881D01*
X15917833Y-11086929D01*
X15908309Y-11096452D01*
X15889262Y-11105976D01*
X15870214Y-11105976D01*
X15851167Y-11096452D01*
X15841643Y-11086929D01*
X15832119Y-11067881D01*
X15822595Y-11029786D01*
X15822595Y-10982167D01*
X15832119Y-10944071D01*
X15841643Y-10925024D01*
X15851167Y-10915500D01*
X15870214Y-10905976D01*
X16022595Y-11086929D02*
X16032119Y-11096452D01*
X16022595Y-11105976D01*
X16013071Y-11096452D01*
X16022595Y-11086929D01*
X16022595Y-11105976D01*
X16098786Y-10905976D02*
X16222595Y-10905976D01*
X16155928Y-10982167D01*
X16184500Y-10982167D01*
X16203548Y-10991690D01*
X16213071Y-11001214D01*
X16222595Y-11020262D01*
X16222595Y-11067881D01*
X16213071Y-11086929D01*
X16203548Y-11096452D01*
X16184500Y-11105976D01*
X16127357Y-11105976D01*
X16108309Y-11096452D01*
X16098786Y-11086929D01*
X16346405Y-10905976D02*
X16365452Y-10905976D01*
X16384500Y-10915500D01*
X16394024Y-10925024D01*
X16403548Y-10944071D01*
X16413071Y-10982167D01*
X16413071Y-11029786D01*
X16403548Y-11067881D01*
X16394024Y-11086929D01*
X16384500Y-11096452D01*
X16365452Y-11105976D01*
X16346405Y-11105976D01*
X16327357Y-11096452D01*
X16317833Y-11086929D01*
X16308309Y-11067881D01*
X16298786Y-11029786D01*
X16298786Y-10982167D01*
X16308309Y-10944071D01*
X16317833Y-10925024D01*
X16327357Y-10915500D01*
X16346405Y-10905976D01*
X16536881Y-10905976D02*
X16555928Y-10905976D01*
X16574976Y-10915500D01*
X16584500Y-10925024D01*
X16594024Y-10944071D01*
X16603548Y-10982167D01*
X16603548Y-11029786D01*
X16594024Y-11067881D01*
X16584500Y-11086929D01*
X16574976Y-11096452D01*
X16555928Y-11105976D01*
X16536881Y-11105976D01*
X16517833Y-11096452D01*
X16508309Y-11086929D01*
X16498786Y-11067881D01*
X16489262Y-11029786D01*
X16489262Y-10982167D01*
X16498786Y-10944071D01*
X16508309Y-10925024D01*
X16517833Y-10915500D01*
X16536881Y-10905976D01*
X16689262Y-11105976D02*
X16689262Y-10972643D01*
X16689262Y-10991690D02*
X16698786Y-10982167D01*
X16717833Y-10972643D01*
X16746405Y-10972643D01*
X16765452Y-10982167D01*
X16774976Y-11001214D01*
X16774976Y-11105976D01*
X16774976Y-11001214D02*
X16784500Y-10982167D01*
X16803548Y-10972643D01*
X16832119Y-10972643D01*
X16851167Y-10982167D01*
X16860690Y-11001214D01*
X16860690Y-11105976D01*
X16955929Y-11105976D02*
X16955929Y-10972643D01*
X16955929Y-10991690D02*
X16965452Y-10982167D01*
X16984500Y-10972643D01*
X17013071Y-10972643D01*
X17032119Y-10982167D01*
X17041643Y-11001214D01*
X17041643Y-11105976D01*
X17041643Y-11001214D02*
X17051167Y-10982167D01*
X17070214Y-10972643D01*
X17098786Y-10972643D01*
X17117833Y-10982167D01*
X17127357Y-11001214D01*
X17127357Y-11105976D01*
X17517833Y-10896452D02*
X17346405Y-11153595D01*
X17774976Y-10905976D02*
X17794024Y-10905976D01*
X17813071Y-10915500D01*
X17822595Y-10925024D01*
X17832119Y-10944071D01*
X17841643Y-10982167D01*
X17841643Y-11029786D01*
X17832119Y-11067881D01*
X17822595Y-11086929D01*
X17813071Y-11096452D01*
X17794024Y-11105976D01*
X17774976Y-11105976D01*
X17755929Y-11096452D01*
X17746405Y-11086929D01*
X17736881Y-11067881D01*
X17727357Y-11029786D01*
X17727357Y-10982167D01*
X17736881Y-10944071D01*
X17746405Y-10925024D01*
X17755929Y-10915500D01*
X17774976Y-10905976D01*
X17927357Y-11086929D02*
X17936881Y-11096452D01*
X17927357Y-11105976D01*
X17917833Y-11096452D01*
X17927357Y-11086929D01*
X17927357Y-11105976D01*
X18060690Y-10905976D02*
X18079738Y-10905976D01*
X18098786Y-10915500D01*
X18108310Y-10925024D01*
X18117833Y-10944071D01*
X18127357Y-10982167D01*
X18127357Y-11029786D01*
X18117833Y-11067881D01*
X18108310Y-11086929D01*
X18098786Y-11096452D01*
X18079738Y-11105976D01*
X18060690Y-11105976D01*
X18041643Y-11096452D01*
X18032119Y-11086929D01*
X18022595Y-11067881D01*
X18013071Y-11029786D01*
X18013071Y-10982167D01*
X18022595Y-10944071D01*
X18032119Y-10925024D01*
X18041643Y-10915500D01*
X18060690Y-10905976D01*
X18317833Y-11105976D02*
X18203548Y-11105976D01*
X18260690Y-11105976D02*
X18260690Y-10905976D01*
X18241643Y-10934548D01*
X18222595Y-10953595D01*
X18203548Y-10963119D01*
X18508310Y-11105976D02*
X18394024Y-11105976D01*
X18451167Y-11105976D02*
X18451167Y-10905976D01*
X18432119Y-10934548D01*
X18413071Y-10953595D01*
X18394024Y-10963119D01*
X18622595Y-10991690D02*
X18603548Y-10982167D01*
X18594024Y-10972643D01*
X18584500Y-10953595D01*
X18584500Y-10944071D01*
X18594024Y-10925024D01*
X18603548Y-10915500D01*
X18622595Y-10905976D01*
X18660690Y-10905976D01*
X18679738Y-10915500D01*
X18689262Y-10925024D01*
X18698786Y-10944071D01*
X18698786Y-10953595D01*
X18689262Y-10972643D01*
X18679738Y-10982167D01*
X18660690Y-10991690D01*
X18622595Y-10991690D01*
X18603548Y-11001214D01*
X18594024Y-11010738D01*
X18584500Y-11029786D01*
X18584500Y-11067881D01*
X18594024Y-11086929D01*
X18603548Y-11096452D01*
X18622595Y-11105976D01*
X18660690Y-11105976D01*
X18679738Y-11096452D01*
X18689262Y-11086929D01*
X18698786Y-11067881D01*
X18698786Y-11029786D01*
X18689262Y-11010738D01*
X18679738Y-11001214D01*
X18660690Y-10991690D01*
X18774976Y-10905976D02*
X18774976Y-10944071D01*
X18851167Y-10905976D02*
X18851167Y-10944071D01*
X19146405Y-11182167D02*
X19136881Y-11172643D01*
X19117833Y-11144071D01*
X19108310Y-11125024D01*
X19098786Y-11096452D01*
X19089262Y-11048833D01*
X19089262Y-11010738D01*
X19098786Y-10963119D01*
X19108310Y-10934548D01*
X19117833Y-10915500D01*
X19136881Y-10886929D01*
X19146405Y-10877405D01*
X19308310Y-10905976D02*
X19270214Y-10905976D01*
X19251167Y-10915500D01*
X19241643Y-10925024D01*
X19222595Y-10953595D01*
X19213071Y-10991690D01*
X19213071Y-11067881D01*
X19222595Y-11086929D01*
X19232119Y-11096452D01*
X19251167Y-11105976D01*
X19289262Y-11105976D01*
X19308310Y-11096452D01*
X19317833Y-11086929D01*
X19327357Y-11067881D01*
X19327357Y-11020262D01*
X19317833Y-11001214D01*
X19308310Y-10991690D01*
X19289262Y-10982167D01*
X19251167Y-10982167D01*
X19232119Y-10991690D01*
X19222595Y-11001214D01*
X19213071Y-11020262D01*
X19565452Y-11105976D02*
X19565452Y-10905976D01*
X19651167Y-11105976D02*
X19651167Y-11001214D01*
X19641643Y-10982167D01*
X19622595Y-10972643D01*
X19594024Y-10972643D01*
X19574976Y-10982167D01*
X19565452Y-10991690D01*
X19774976Y-11105976D02*
X19755929Y-11096452D01*
X19746405Y-11086929D01*
X19736881Y-11067881D01*
X19736881Y-11010738D01*
X19746405Y-10991690D01*
X19755929Y-10982167D01*
X19774976Y-10972643D01*
X19803548Y-10972643D01*
X19822595Y-10982167D01*
X19832119Y-10991690D01*
X19841643Y-11010738D01*
X19841643Y-11067881D01*
X19832119Y-11086929D01*
X19822595Y-11096452D01*
X19803548Y-11105976D01*
X19774976Y-11105976D01*
X19955929Y-11105976D02*
X19936881Y-11096452D01*
X19927357Y-11077405D01*
X19927357Y-10905976D01*
X20108310Y-11096452D02*
X20089262Y-11105976D01*
X20051167Y-11105976D01*
X20032119Y-11096452D01*
X20022595Y-11077405D01*
X20022595Y-11001214D01*
X20032119Y-10982167D01*
X20051167Y-10972643D01*
X20089262Y-10972643D01*
X20108310Y-10982167D01*
X20117833Y-11001214D01*
X20117833Y-11020262D01*
X20022595Y-11039310D01*
X20194024Y-11096452D02*
X20213071Y-11105976D01*
X20251167Y-11105976D01*
X20270214Y-11096452D01*
X20279738Y-11077405D01*
X20279738Y-11067881D01*
X20270214Y-11048833D01*
X20251167Y-11039310D01*
X20222595Y-11039310D01*
X20203548Y-11029786D01*
X20194024Y-11010738D01*
X20194024Y-11001214D01*
X20203548Y-10982167D01*
X20222595Y-10972643D01*
X20251167Y-10972643D01*
X20270214Y-10982167D01*
X20346405Y-11182167D02*
X20355929Y-11172643D01*
X20374976Y-11144071D01*
X20384500Y-11125024D01*
X20394024Y-11096452D01*
X20403548Y-11048833D01*
X20403548Y-11010738D01*
X20394024Y-10963119D01*
X20384500Y-10934548D01*
X20374976Y-10915500D01*
X20355929Y-10886929D01*
X20346405Y-10877405D01*
D13*
X15574500Y-11279500D02*
G75*
G03*
X15574500Y-11279500I-50000J0D01*
G01*
D11*
X15936881Y-11369976D02*
X15822595Y-11369976D01*
X15879738Y-11369976D02*
X15879738Y-11169976D01*
X15860690Y-11198548D01*
X15841643Y-11217595D01*
X15822595Y-11227119D01*
X16022595Y-11350928D02*
X16032119Y-11360452D01*
X16022595Y-11369976D01*
X16013071Y-11360452D01*
X16022595Y-11350928D01*
X16022595Y-11369976D01*
X16155928Y-11169976D02*
X16174976Y-11169976D01*
X16194024Y-11179500D01*
X16203548Y-11189024D01*
X16213071Y-11208071D01*
X16222595Y-11246167D01*
X16222595Y-11293786D01*
X16213071Y-11331881D01*
X16203548Y-11350928D01*
X16194024Y-11360452D01*
X16174976Y-11369976D01*
X16155928Y-11369976D01*
X16136881Y-11360452D01*
X16127357Y-11350928D01*
X16117833Y-11331881D01*
X16108309Y-11293786D01*
X16108309Y-11246167D01*
X16117833Y-11208071D01*
X16127357Y-11189024D01*
X16136881Y-11179500D01*
X16155928Y-11169976D01*
X16346405Y-11169976D02*
X16365452Y-11169976D01*
X16384500Y-11179500D01*
X16394024Y-11189024D01*
X16403548Y-11208071D01*
X16413071Y-11246167D01*
X16413071Y-11293786D01*
X16403548Y-11331881D01*
X16394024Y-11350928D01*
X16384500Y-11360452D01*
X16365452Y-11369976D01*
X16346405Y-11369976D01*
X16327357Y-11360452D01*
X16317833Y-11350928D01*
X16308309Y-11331881D01*
X16298786Y-11293786D01*
X16298786Y-11246167D01*
X16308309Y-11208071D01*
X16317833Y-11189024D01*
X16327357Y-11179500D01*
X16346405Y-11169976D01*
X16536881Y-11169976D02*
X16555928Y-11169976D01*
X16574976Y-11179500D01*
X16584500Y-11189024D01*
X16594024Y-11208071D01*
X16603548Y-11246167D01*
X16603548Y-11293786D01*
X16594024Y-11331881D01*
X16584500Y-11350928D01*
X16574976Y-11360452D01*
X16555928Y-11369976D01*
X16536881Y-11369976D01*
X16517833Y-11360452D01*
X16508309Y-11350928D01*
X16498786Y-11331881D01*
X16489262Y-11293786D01*
X16489262Y-11246167D01*
X16498786Y-11208071D01*
X16508309Y-11189024D01*
X16517833Y-11179500D01*
X16536881Y-11169976D01*
X16689262Y-11369976D02*
X16689262Y-11236643D01*
X16689262Y-11255690D02*
X16698786Y-11246167D01*
X16717833Y-11236643D01*
X16746405Y-11236643D01*
X16765452Y-11246167D01*
X16774976Y-11265214D01*
X16774976Y-11369976D01*
X16774976Y-11265214D02*
X16784500Y-11246167D01*
X16803548Y-11236643D01*
X16832119Y-11236643D01*
X16851167Y-11246167D01*
X16860690Y-11265214D01*
X16860690Y-11369976D01*
X16955929Y-11369976D02*
X16955929Y-11236643D01*
X16955929Y-11255690D02*
X16965452Y-11246167D01*
X16984500Y-11236643D01*
X17013071Y-11236643D01*
X17032119Y-11246167D01*
X17041643Y-11265214D01*
X17041643Y-11369976D01*
X17041643Y-11265214D02*
X17051167Y-11246167D01*
X17070214Y-11236643D01*
X17098786Y-11236643D01*
X17117833Y-11246167D01*
X17127357Y-11265214D01*
X17127357Y-11369976D01*
X17517833Y-11160452D02*
X17346405Y-11417595D01*
X17774976Y-11169976D02*
X17794024Y-11169976D01*
X17813071Y-11179500D01*
X17822595Y-11189024D01*
X17832119Y-11208071D01*
X17841643Y-11246167D01*
X17841643Y-11293786D01*
X17832119Y-11331881D01*
X17822595Y-11350928D01*
X17813071Y-11360452D01*
X17794024Y-11369976D01*
X17774976Y-11369976D01*
X17755929Y-11360452D01*
X17746405Y-11350928D01*
X17736881Y-11331881D01*
X17727357Y-11293786D01*
X17727357Y-11246167D01*
X17736881Y-11208071D01*
X17746405Y-11189024D01*
X17755929Y-11179500D01*
X17774976Y-11169976D01*
X17927357Y-11350928D02*
X17936881Y-11360452D01*
X17927357Y-11369976D01*
X17917833Y-11360452D01*
X17927357Y-11350928D01*
X17927357Y-11369976D01*
X18060690Y-11169976D02*
X18079738Y-11169976D01*
X18098786Y-11179500D01*
X18108310Y-11189024D01*
X18117833Y-11208071D01*
X18127357Y-11246167D01*
X18127357Y-11293786D01*
X18117833Y-11331881D01*
X18108310Y-11350928D01*
X18098786Y-11360452D01*
X18079738Y-11369976D01*
X18060690Y-11369976D01*
X18041643Y-11360452D01*
X18032119Y-11350928D01*
X18022595Y-11331881D01*
X18013071Y-11293786D01*
X18013071Y-11246167D01*
X18022595Y-11208071D01*
X18032119Y-11189024D01*
X18041643Y-11179500D01*
X18060690Y-11169976D01*
X18194024Y-11169976D02*
X18317833Y-11169976D01*
X18251167Y-11246167D01*
X18279738Y-11246167D01*
X18298786Y-11255690D01*
X18308310Y-11265214D01*
X18317833Y-11284262D01*
X18317833Y-11331881D01*
X18308310Y-11350928D01*
X18298786Y-11360452D01*
X18279738Y-11369976D01*
X18222595Y-11369976D01*
X18203548Y-11360452D01*
X18194024Y-11350928D01*
X18413071Y-11369976D02*
X18451167Y-11369976D01*
X18470214Y-11360452D01*
X18479738Y-11350928D01*
X18498786Y-11322357D01*
X18508310Y-11284262D01*
X18508310Y-11208071D01*
X18498786Y-11189024D01*
X18489262Y-11179500D01*
X18470214Y-11169976D01*
X18432119Y-11169976D01*
X18413071Y-11179500D01*
X18403548Y-11189024D01*
X18394024Y-11208071D01*
X18394024Y-11255690D01*
X18403548Y-11274738D01*
X18413071Y-11284262D01*
X18432119Y-11293786D01*
X18470214Y-11293786D01*
X18489262Y-11284262D01*
X18498786Y-11274738D01*
X18508310Y-11255690D01*
X18679738Y-11236643D02*
X18679738Y-11369976D01*
X18632119Y-11160452D02*
X18584500Y-11303309D01*
X18708310Y-11303309D01*
X18774976Y-11169976D02*
X18774976Y-11208071D01*
X18851167Y-11169976D02*
X18851167Y-11208071D01*
X19146405Y-11446167D02*
X19136881Y-11436643D01*
X19117833Y-11408071D01*
X19108310Y-11389024D01*
X19098786Y-11360452D01*
X19089262Y-11312833D01*
X19089262Y-11274738D01*
X19098786Y-11227119D01*
X19108310Y-11198548D01*
X19117833Y-11179500D01*
X19136881Y-11150929D01*
X19146405Y-11141405D01*
X19317833Y-11169976D02*
X19222595Y-11169976D01*
X19213071Y-11265214D01*
X19222595Y-11255690D01*
X19241643Y-11246167D01*
X19289262Y-11246167D01*
X19308310Y-11255690D01*
X19317833Y-11265214D01*
X19327357Y-11284262D01*
X19327357Y-11331881D01*
X19317833Y-11350928D01*
X19308310Y-11360452D01*
X19289262Y-11369976D01*
X19241643Y-11369976D01*
X19222595Y-11360452D01*
X19213071Y-11350928D01*
X19498786Y-11169976D02*
X19460690Y-11169976D01*
X19441643Y-11179500D01*
X19432119Y-11189024D01*
X19413071Y-11217595D01*
X19403548Y-11255690D01*
X19403548Y-11331881D01*
X19413071Y-11350928D01*
X19422595Y-11360452D01*
X19441643Y-11369976D01*
X19479738Y-11369976D01*
X19498786Y-11360452D01*
X19508310Y-11350928D01*
X19517833Y-11331881D01*
X19517833Y-11284262D01*
X19508310Y-11265214D01*
X19498786Y-11255690D01*
X19479738Y-11246167D01*
X19441643Y-11246167D01*
X19422595Y-11255690D01*
X19413071Y-11265214D01*
X19403548Y-11284262D01*
X19755929Y-11369976D02*
X19755929Y-11169976D01*
X19841643Y-11369976D02*
X19841643Y-11265214D01*
X19832119Y-11246167D01*
X19813071Y-11236643D01*
X19784500Y-11236643D01*
X19765452Y-11246167D01*
X19755929Y-11255690D01*
X19965452Y-11369976D02*
X19946405Y-11360452D01*
X19936881Y-11350928D01*
X19927357Y-11331881D01*
X19927357Y-11274738D01*
X19936881Y-11255690D01*
X19946405Y-11246167D01*
X19965452Y-11236643D01*
X19994024Y-11236643D01*
X20013071Y-11246167D01*
X20022595Y-11255690D01*
X20032119Y-11274738D01*
X20032119Y-11331881D01*
X20022595Y-11350928D01*
X20013071Y-11360452D01*
X19994024Y-11369976D01*
X19965452Y-11369976D01*
X20146405Y-11369976D02*
X20127357Y-11360452D01*
X20117833Y-11341405D01*
X20117833Y-11169976D01*
X20298786Y-11360452D02*
X20279738Y-11369976D01*
X20241643Y-11369976D01*
X20222595Y-11360452D01*
X20213071Y-11341405D01*
X20213071Y-11265214D01*
X20222595Y-11246167D01*
X20241643Y-11236643D01*
X20279738Y-11236643D01*
X20298786Y-11246167D01*
X20308310Y-11265214D01*
X20308310Y-11284262D01*
X20213071Y-11303309D01*
X20384500Y-11360452D02*
X20403548Y-11369976D01*
X20441643Y-11369976D01*
X20460690Y-11360452D01*
X20470214Y-11341405D01*
X20470214Y-11331881D01*
X20460690Y-11312833D01*
X20441643Y-11303309D01*
X20413071Y-11303309D01*
X20394024Y-11293786D01*
X20384500Y-11274738D01*
X20384500Y-11265214D01*
X20394024Y-11246167D01*
X20413071Y-11236643D01*
X20441643Y-11236643D01*
X20460690Y-11246167D01*
X20536881Y-11446167D02*
X20546405Y-11436643D01*
X20565452Y-11408071D01*
X20574976Y-11389024D01*
X20584500Y-11360452D01*
X20594024Y-11312833D01*
X20594024Y-11274738D01*
X20584500Y-11227119D01*
X20574976Y-11198548D01*
X20565452Y-11179500D01*
X20546405Y-11150929D01*
X20536881Y-11141405D01*
M02*
