%TF.GenerationSoftware,KiCad,Pcbnew,7.0.6-0*%
%TF.CreationDate,2023-09-14T10:32:23+10:00*%
%TF.ProjectId,Line 3.1,4c696e65-2033-42e3-912e-6b696361645f,rev?*%
%TF.SameCoordinates,Original*%
%TF.FileFunction,Soldermask,Top*%
%TF.FilePolarity,Negative*%
%FSLAX46Y46*%
G04 Gerber Fmt 4.6, Leading zero omitted, Abs format (unit mm)*
G04 Created by KiCad (PCBNEW 7.0.6-0) date 2023-09-14 10:32:23*
%MOMM*%
%LPD*%
G01*
G04 APERTURE LIST*
G04 Aperture macros list*
%AMRoundRect*
0 Rectangle with rounded corners*
0 $1 Rounding radius*
0 $2 $3 $4 $5 $6 $7 $8 $9 X,Y pos of 4 corners*
0 Add a 4 corners polygon primitive as box body*
4,1,4,$2,$3,$4,$5,$6,$7,$8,$9,$2,$3,0*
0 Add four circle primitives for the rounded corners*
1,1,$1+$1,$2,$3*
1,1,$1+$1,$4,$5*
1,1,$1+$1,$6,$7*
1,1,$1+$1,$8,$9*
0 Add four rect primitives between the rounded corners*
20,1,$1+$1,$2,$3,$4,$5,0*
20,1,$1+$1,$4,$5,$6,$7,0*
20,1,$1+$1,$6,$7,$8,$9,0*
20,1,$1+$1,$8,$9,$2,$3,0*%
G04 Aperture macros list end*
%ADD10R,3.800000X3.800000*%
%ADD11C,4.000000*%
%ADD12RoundRect,0.250000X-0.475000X0.250000X-0.475000X-0.250000X0.475000X-0.250000X0.475000X0.250000X0*%
%ADD13RoundRect,0.250000X0.250000X0.475000X-0.250000X0.475000X-0.250000X-0.475000X0.250000X-0.475000X0*%
%ADD14R,1.700000X1.700000*%
%ADD15O,1.700000X1.700000*%
%ADD16C,1.308000*%
%ADD17C,1.258000*%
%ADD18C,1.208000*%
%ADD19C,2.000000*%
G04 APERTURE END LIST*
D10*
%TO.C,J2*%
X78750000Y-124500000D03*
D11*
X83750000Y-124500000D03*
%TD*%
D10*
%TO.C,J4*%
X78750000Y-175500000D03*
D11*
X83750000Y-175500000D03*
%TD*%
D12*
%TO.C,C1*%
X94500000Y-146550000D03*
X94500000Y-148450000D03*
%TD*%
D13*
%TO.C,C2*%
X82200000Y-130250000D03*
X80300000Y-130250000D03*
%TD*%
D14*
%TO.C,J11*%
X161000000Y-247220000D03*
D15*
X161000000Y-244680000D03*
X161000000Y-242140000D03*
X161000000Y-239600000D03*
X161000000Y-237060000D03*
X161000000Y-234520000D03*
X161000000Y-231980000D03*
X161000000Y-229440000D03*
X161000000Y-226900000D03*
X161000000Y-224360000D03*
X161000000Y-221820000D03*
X161000000Y-219280000D03*
X161000000Y-216740000D03*
X161000000Y-214200000D03*
X161000000Y-211660000D03*
X161000000Y-209120000D03*
X161000000Y-206580000D03*
X161000000Y-204040000D03*
X161000000Y-201500000D03*
X161000000Y-198960000D03*
X161000000Y-196420000D03*
X161000000Y-193880000D03*
X161000000Y-191340000D03*
X161000000Y-188800000D03*
%TD*%
D14*
%TO.C,J12*%
X139000000Y-247220000D03*
D15*
X139000000Y-244680000D03*
X139000000Y-242140000D03*
X139000000Y-239600000D03*
X139000000Y-237060000D03*
X139000000Y-234520000D03*
X139000000Y-231980000D03*
X139000000Y-229440000D03*
X139000000Y-226900000D03*
X139000000Y-224360000D03*
X139000000Y-221820000D03*
X139000000Y-219280000D03*
X139000000Y-216740000D03*
X139000000Y-214200000D03*
X139000000Y-211660000D03*
X139000000Y-209120000D03*
X139000000Y-206580000D03*
X139000000Y-204040000D03*
X139000000Y-201500000D03*
X139000000Y-198960000D03*
X139000000Y-196420000D03*
X139000000Y-193880000D03*
X139000000Y-191340000D03*
X139000000Y-188800000D03*
%TD*%
D16*
%TO.C,U8*%
X157620000Y-244680000D03*
X157620000Y-242140000D03*
X157620000Y-239600000D03*
X157620000Y-237060000D03*
X157620000Y-211660000D03*
X142380000Y-242140000D03*
X152540000Y-201500000D03*
X157620000Y-234520000D03*
X157620000Y-231980000D03*
D17*
X154570000Y-240870000D03*
D16*
X157620000Y-229440000D03*
X157620000Y-226900000D03*
X157620000Y-224360000D03*
X157620000Y-221820000D03*
X157620000Y-219280000D03*
X157620000Y-216740000D03*
X157620000Y-214200000D03*
X142380000Y-214200000D03*
X142380000Y-216740000D03*
X142380000Y-219280000D03*
X142380000Y-221820000D03*
X142380000Y-224360000D03*
X142380000Y-226900000D03*
X142380000Y-229440000D03*
X142380000Y-231980000D03*
X142380000Y-234520000D03*
X142380000Y-237060000D03*
X142380000Y-239600000D03*
X157620000Y-209120000D03*
X157620000Y-206580000D03*
X157620000Y-204040000D03*
X157620000Y-201500000D03*
X157620000Y-198960000D03*
X157620000Y-196420000D03*
X157620000Y-193880000D03*
X157620000Y-191340000D03*
X157620000Y-188800000D03*
X142380000Y-188800000D03*
X142380000Y-191340000D03*
X142380000Y-193880000D03*
X142380000Y-196420000D03*
X142380000Y-198960000D03*
X142380000Y-201500000D03*
X142380000Y-204040000D03*
X142380000Y-206580000D03*
X142380000Y-209120000D03*
D17*
X154570000Y-235790000D03*
X154570000Y-238330000D03*
D16*
X157620000Y-247220000D03*
X142380000Y-211660000D03*
X142380000Y-244680000D03*
X150000000Y-201500000D03*
D18*
X146830000Y-232250000D03*
X146830000Y-234250000D03*
D16*
X144920000Y-201500000D03*
X147460000Y-201500000D03*
D18*
X144830000Y-234250000D03*
X144830000Y-232250000D03*
X148830000Y-232250000D03*
X148830000Y-234250000D03*
D17*
X154570000Y-233250000D03*
X154570000Y-230710000D03*
D16*
X155080000Y-201500000D03*
X142380000Y-247220000D03*
X144920000Y-244680000D03*
%TD*%
D14*
%TO.C,J13*%
X144925000Y-183500000D03*
D15*
X147465000Y-183500000D03*
X150005000Y-183500000D03*
X152545000Y-183500000D03*
X155085000Y-183500000D03*
%TD*%
D19*
%TO.C,U1*%
X91080000Y-153810000D03*
X91080000Y-151270000D03*
X91080000Y-148730000D03*
X91080000Y-146190000D03*
%TD*%
M02*
