%TF.GenerationSoftware,KiCad,Pcbnew,7.0.6-0*%
%TF.CreationDate,2023-09-14T10:32:23+10:00*%
%TF.ProjectId,Line 3.1,4c696e65-2033-42e3-912e-6b696361645f,rev?*%
%TF.SameCoordinates,Original*%
%TF.FileFunction,Profile,NP*%
%FSLAX46Y46*%
G04 Gerber Fmt 4.6, Leading zero omitted, Abs format (unit mm)*
G04 Created by KiCad (PCBNEW 7.0.6-0) date 2023-09-14 10:32:23*
%MOMM*%
%LPD*%
G01*
G04 APERTURE LIST*
%TA.AperFunction,Profile*%
%ADD10C,0.050000*%
%TD*%
G04 APERTURE END LIST*
D10*
X182712672Y-64193532D02*
X181919048Y-65000200D01*
X108810930Y-230221464D02*
G75*
G03*
X108810930Y-223150396I-3535530J3535534D01*
G01*
X108810930Y-76850004D02*
X76849704Y-108811230D01*
X171999900Y-64733513D02*
X127999900Y-64733513D01*
X63391460Y-108460808D02*
G75*
G03*
X63391460Y-108460808I-1600000J0D01*
G01*
X110060508Y-238208640D02*
G75*
G03*
X110060508Y-238208640I-1600000J0D01*
G01*
X191188870Y-69778936D02*
X200652264Y-60315541D01*
X179241103Y-67722161D02*
G75*
G03*
X171999900Y-64733513I-7241203J-7278039D01*
G01*
X63391460Y-191539592D02*
G75*
G03*
X63391460Y-191539592I-1600000J0D01*
G01*
X76849704Y-191189170D02*
G75*
G03*
X69778636Y-191189170I-3535534J-3535534D01*
G01*
X223150096Y-108811230D02*
X191188870Y-76850004D01*
X239684559Y-99347836D02*
X230221164Y-108811230D01*
X108822158Y-55589431D02*
G75*
G03*
X99347536Y-60315542I41177042J-94409369D01*
G01*
X191177642Y-55589430D02*
X182712672Y-64193532D01*
X76849704Y-191189170D02*
X108810930Y-223150396D01*
X191188870Y-69778936D02*
G75*
G03*
X191188870Y-76850004I3535530J-3535534D01*
G01*
X118080752Y-65000200D02*
X117287128Y-64193532D01*
X110060508Y-61791760D02*
G75*
G03*
X110060508Y-61791760I-1600000J0D01*
G01*
X239684559Y-200652564D02*
G75*
G03*
X239684559Y-99347836I-89684659J50652364D01*
G01*
X191188870Y-223150396D02*
G75*
G03*
X191188870Y-230221464I3535530J-3535534D01*
G01*
X60315241Y-99347836D02*
G75*
G03*
X60315241Y-200652564I89684659J-50652364D01*
G01*
X99347536Y-60315542D02*
X108810930Y-69778936D01*
X223150096Y-108811230D02*
G75*
G03*
X230221164Y-108811230I3535534J3535534D01*
G01*
X108810930Y-230221464D02*
X99347536Y-239684859D01*
X191188870Y-223150396D02*
X223150096Y-191189170D01*
X200652264Y-239684859D02*
X191188870Y-230221464D01*
X230221164Y-191189170D02*
G75*
G03*
X223150096Y-191189170I-3535534J-3535534D01*
G01*
X239808340Y-191539592D02*
G75*
G03*
X239808340Y-191539592I-1600000J0D01*
G01*
X127999900Y-64733513D02*
G75*
G03*
X120758697Y-67722161I0J-10266687D01*
G01*
X69778636Y-108811230D02*
G75*
G03*
X76849704Y-108811230I3535534J3535534D01*
G01*
X117287128Y-64193532D02*
X108822158Y-55589430D01*
X120758697Y-67722161D02*
X118080752Y-65000200D01*
X230221164Y-191189170D02*
X239684559Y-200652564D01*
X239808340Y-108460808D02*
G75*
G03*
X239808340Y-108460808I-1600000J0D01*
G01*
X60315241Y-200652564D02*
X69778636Y-191189170D01*
X99347536Y-239684859D02*
G75*
G03*
X200652264Y-239684859I50652364J89684660D01*
G01*
X193139292Y-61791760D02*
G75*
G03*
X193139292Y-61791760I-1600000J0D01*
G01*
X69778636Y-108811230D02*
X60315241Y-99347836D01*
X193139292Y-238208640D02*
G75*
G03*
X193139292Y-238208640I-1600000J0D01*
G01*
X108810930Y-76850004D02*
G75*
G03*
X108810930Y-69778936I-3535530J3535534D01*
G01*
X200652264Y-60315542D02*
G75*
G03*
X191177642Y-55589430I-50652264J-89684458D01*
G01*
X181919048Y-65000200D02*
X179241103Y-67722161D01*
M02*
