M48
; DRILL file {KiCad 7.0.6-0} date 2023 September 14, Thursday 10:32:25
; FORMAT={-:-/ absolute / inch / decimal}
; #@! TF.CreationDate,2023-09-14T10:32:25+10:00
; #@! TF.GenerationSoftware,Kicad,Pcbnew,7.0.6-0
; #@! TF.FileFunction,Plated,1,2,PTH
FMAT,2
INCH
; #@! TA.AperFunction,Plated,PTH,ViaDrill
T1C0.0118
; #@! TA.AperFunction,Plated,PTH,ViaDrill
T2C0.0157
; #@! TA.AperFunction,Plated,PTH,ComponentDrill
T3C0.0276
; #@! TA.AperFunction,Plated,PTH,ComponentDrill
T4C0.0295
; #@! TA.AperFunction,Plated,PTH,ComponentDrill
T5C0.0315
; #@! TA.AperFunction,Plated,PTH,ComponentDrill
T6C0.0394
; #@! TA.AperFunction,Plated,PTH,ComponentDrill
T7C0.0433
; #@! TA.AperFunction,Plated,PTH,ComponentDrill
T8C0.1063
%
G90
G05
T1
X2.7559Y-5.8366
X3.937Y-5.8366
X4.8327Y-9.252
X4.9163Y-5.6201
X5.0689Y-9.1831
X5.1181Y-5.8366
X5.1673Y-5.748
X5.2722Y-6.3161
X5.3Y-6.4136
X5.3975Y-5.3
X5.4949Y-5.2722
X5.748Y-6.6437
X5.748Y-7.8547
X5.748Y-9.0325
X5.8366Y-6.6929
X5.8366Y-7.874
X5.8366Y-9.0551
X5.9744Y-2.7559
X5.9744Y-3.937
X5.9744Y-5.1181
X6.063Y-5.1673
X6.3161Y-6.5388
X6.4136Y-6.511
X6.511Y-5.3975
X6.5388Y-5.4949
X6.6437Y-6.063
X6.6929Y-5.9744
X6.814Y-6.063
X7.874Y-5.9744
X7.9134Y-5.9744
X7.9134Y-6.25
X9.0551Y-5.9744
T2
X6.1095Y-4.0637
T3
X5.702Y-9.1437
X5.702Y-9.2224
X5.7807Y-9.1437
X5.7807Y-9.2224
X5.8594Y-9.1437
X5.8594Y-9.2224
T4
X6.0854Y-9.0831
X6.0854Y-9.1831
X6.0854Y-9.2831
X6.0854Y-9.3831
X6.0854Y-9.4831
T5
X5.6055Y-7.4331
X5.6055Y-7.5331
X5.6055Y-7.6331
X5.6055Y-7.7331
X5.6055Y-7.8331
X5.6055Y-7.9331
X5.6055Y-8.0331
X5.6055Y-8.1331
X5.6055Y-8.2331
X5.6055Y-8.3331
X5.6055Y-8.4331
X5.6055Y-8.5331
X5.6055Y-8.6331
X5.6055Y-8.7331
X5.6055Y-8.8331
X5.6055Y-8.9331
X5.6055Y-9.0331
X5.6055Y-9.1331
X5.6055Y-9.2331
X5.6055Y-9.3331
X5.6055Y-9.4331
X5.6055Y-9.5331
X5.6055Y-9.6331
X5.6055Y-9.7331
X5.7055Y-7.9331
X5.7055Y-9.6331
X5.8055Y-7.9331
X5.9055Y-7.9331
X6.0055Y-7.9331
X6.1055Y-7.9331
X6.2055Y-7.4331
X6.2055Y-7.5331
X6.2055Y-7.6331
X6.2055Y-7.7331
X6.2055Y-7.8331
X6.2055Y-7.9331
X6.2055Y-8.0331
X6.2055Y-8.1331
X6.2055Y-8.2331
X6.2055Y-8.3331
X6.2055Y-8.4331
X6.2055Y-8.5331
X6.2055Y-8.6331
X6.2055Y-8.7331
X6.2055Y-8.8331
X6.2055Y-8.9331
X6.2055Y-9.0331
X6.2055Y-9.1331
X6.2055Y-9.2331
X6.2055Y-9.3331
X6.2055Y-9.4331
X6.2055Y-9.5331
X6.2055Y-9.6331
X6.2055Y-9.7331
T6
X5.4724Y-7.4331
X5.4724Y-7.5331
X5.4724Y-7.6331
X5.4724Y-7.7331
X5.4724Y-7.8331
X5.4724Y-7.9331
X5.4724Y-8.0331
X5.4724Y-8.1331
X5.4724Y-8.2331
X5.4724Y-8.3331
X5.4724Y-8.4331
X5.4724Y-8.5331
X5.4724Y-8.6331
X5.4724Y-8.7331
X5.4724Y-8.8331
X5.4724Y-8.9331
X5.4724Y-9.0331
X5.4724Y-9.1331
X5.4724Y-9.2331
X5.4724Y-9.3331
X5.4724Y-9.4331
X5.4724Y-9.5331
X5.4724Y-9.6331
X5.4724Y-9.7331
X5.7057Y-7.2244
X5.8057Y-7.2244
X5.9057Y-7.2244
X6.0057Y-7.2244
X6.1057Y-7.2244
X6.3386Y-7.4331
X6.3386Y-7.5331
X6.3386Y-7.6331
X6.3386Y-7.7331
X6.3386Y-7.8331
X6.3386Y-7.9331
X6.3386Y-8.0331
X6.3386Y-8.1331
X6.3386Y-8.2331
X6.3386Y-8.3331
X6.3386Y-8.4331
X6.3386Y-8.5331
X6.3386Y-8.6331
X6.3386Y-8.7331
X6.3386Y-8.8331
X6.3386Y-8.9331
X6.3386Y-9.0331
X6.3386Y-9.1331
X6.3386Y-9.2331
X6.3386Y-9.3331
X6.3386Y-9.4331
X6.3386Y-9.5331
X6.3386Y-9.6331
X6.3386Y-9.7331
T7
X3.5858Y-5.7555
X3.5858Y-5.8555
X3.5858Y-5.9555
X3.5858Y-6.0555
T8
X3.1004Y-4.9016
X3.1004Y-6.9094
X3.2972Y-4.9016
X3.2972Y-6.9094
T0
M30
