%TF.GenerationSoftware,KiCad,Pcbnew,7.0.6-0*%
%TF.CreationDate,2023-09-14T10:32:25+10:00*%
%TF.ProjectId,Line 3.1,4c696e65-2033-42e3-912e-6b696361645f,rev?*%
%TF.SameCoordinates,Original*%
%TF.FileFunction,Drillmap*%
%TF.FilePolarity,Positive*%
%FSLAX45Y45*%
G04 Gerber Fmt 4.5, Leading zero omitted, Abs format (unit mm)*
G04 Created by KiCad (PCBNEW 7.0.6-0) date 2023-09-14 10:32:25*
%MOMM*%
%LPD*%
G01*
G04 APERTURE LIST*
%ADD10C,0.050000*%
%ADD11C,0.200000*%
%ADD12C,0.030000*%
%ADD13C,0.040000*%
%ADD14C,0.070000*%
%ADD15C,0.075000*%
%ADD16C,0.080000*%
%ADD17C,0.100000*%
%ADD18C,0.110000*%
%ADD19C,0.270000*%
G04 APERTURE END LIST*
D10*
X18271267Y-6419353D02*
X18191905Y-6500020D01*
X10881093Y-23022146D02*
G75*
G03*
X10881093Y-22315040I-353553J353553D01*
G01*
X10881093Y-7685000D02*
X7684970Y-10881123D01*
X17199990Y-6473351D02*
X12799990Y-6473351D01*
X6339146Y-10846081D02*
G75*
G03*
X6339146Y-10846081I-160000J0D01*
G01*
X11006051Y-23820864D02*
G75*
G03*
X11006051Y-23820864I-160000J0D01*
G01*
X19118887Y-6977894D02*
X20065226Y-6031554D01*
X17924110Y-6772216D02*
G75*
G03*
X17199990Y-6473351I-724120J-727804D01*
G01*
X6339146Y-19153959D02*
G75*
G03*
X6339146Y-19153959I-160000J0D01*
G01*
X7684970Y-19118917D02*
G75*
G03*
X6977864Y-19118917I-353553J-353553D01*
G01*
X22315010Y-10881123D02*
X19118887Y-7685000D01*
X23968456Y-9934784D02*
X23022116Y-10881123D01*
X10882216Y-5558943D02*
G75*
G03*
X9934754Y-6031554I4117704J-9440937D01*
G01*
X19117764Y-5558943D02*
X18271267Y-6419353D01*
X7684970Y-19118917D02*
X10881093Y-22315040D01*
X19118887Y-6977894D02*
G75*
G03*
X19118887Y-7685000I353553J-353553D01*
G01*
X11808075Y-6500020D02*
X11728713Y-6419353D01*
X11006051Y-6179176D02*
G75*
G03*
X11006051Y-6179176I-160000J0D01*
G01*
X23968456Y-20065256D02*
G75*
G03*
X23968456Y-9934784I-8968466J5065236D01*
G01*
X19118887Y-22315040D02*
G75*
G03*
X19118887Y-23022146I353553J-353553D01*
G01*
X6031524Y-9934784D02*
G75*
G03*
X6031524Y-20065256I8968466J-5065236D01*
G01*
X9934754Y-6031554D02*
X10881093Y-6977894D01*
X22315010Y-10881123D02*
G75*
G03*
X23022116Y-10881123I353553J353553D01*
G01*
X10881093Y-23022146D02*
X9934754Y-23968486D01*
X19118887Y-22315040D02*
X22315010Y-19118917D01*
X20065226Y-23968486D02*
X19118887Y-23022146D01*
X23022116Y-19118917D02*
G75*
G03*
X22315010Y-19118917I-353553J-353553D01*
G01*
X23980834Y-19153959D02*
G75*
G03*
X23980834Y-19153959I-160000J0D01*
G01*
X12799990Y-6473351D02*
G75*
G03*
X12075870Y-6772216I0J-1026669D01*
G01*
X6977864Y-10881123D02*
G75*
G03*
X7684970Y-10881123I353553J353553D01*
G01*
X11728713Y-6419353D02*
X10882216Y-5558943D01*
X12075870Y-6772216D02*
X11808075Y-6500020D01*
X23022116Y-19118917D02*
X23968456Y-20065256D01*
X23980834Y-10846081D02*
G75*
G03*
X23980834Y-10846081I-160000J0D01*
G01*
X6031524Y-20065256D02*
X6977864Y-19118917D01*
X9934754Y-23968486D02*
G75*
G03*
X20065226Y-23968486I5065236J8968466D01*
G01*
X19313929Y-6179176D02*
G75*
G03*
X19313929Y-6179176I-160000J0D01*
G01*
X6977864Y-10881123D02*
X6031524Y-9934784D01*
X19313929Y-23820864D02*
G75*
G03*
X19313929Y-23820864I-160000J0D01*
G01*
X10881093Y-7685000D02*
G75*
G03*
X10881093Y-6977894I-353553J353553D01*
G01*
X20065226Y-6031554D02*
G75*
G03*
X19117764Y-5558943I-5065226J-8968446D01*
G01*
X18191905Y-6500020D02*
X17924110Y-6772216D01*
D11*
D12*
X6985000Y-14810000D02*
X7015000Y-14840000D01*
X7015000Y-14810000D02*
X6985000Y-14840000D01*
X9985000Y-14810000D02*
X10015000Y-14840000D01*
X10015000Y-14810000D02*
X9985000Y-14840000D01*
X12260000Y-23485000D02*
X12290000Y-23515000D01*
X12290000Y-23485000D02*
X12260000Y-23515000D01*
X12472500Y-14260000D02*
X12502500Y-14290000D01*
X12502500Y-14260000D02*
X12472500Y-14290000D01*
X12860000Y-23310000D02*
X12890000Y-23340000D01*
X12890000Y-23310000D02*
X12860000Y-23340000D01*
X12985000Y-14810000D02*
X13015000Y-14840000D01*
X13015000Y-14810000D02*
X12985000Y-14840000D01*
X13110000Y-14585000D02*
X13140000Y-14615000D01*
X13140000Y-14585000D02*
X13110000Y-14615000D01*
X13376332Y-16027982D02*
X13406332Y-16057982D01*
X13406332Y-16027982D02*
X13376332Y-16057982D01*
X13447043Y-16275470D02*
X13477043Y-16305470D01*
X13477043Y-16275470D02*
X13447043Y-16305470D01*
X13694530Y-13447043D02*
X13724530Y-13477043D01*
X13724530Y-13447043D02*
X13694530Y-13477043D01*
X13942017Y-13376332D02*
X13972017Y-13406332D01*
X13972017Y-13376332D02*
X13942017Y-13406332D01*
X14585000Y-16860000D02*
X14615000Y-16890000D01*
X14615000Y-16860000D02*
X14585000Y-16890000D01*
X14585000Y-19936000D02*
X14615000Y-19966000D01*
X14615000Y-19936000D02*
X14585000Y-19966000D01*
X14585000Y-22927451D02*
X14615000Y-22957451D01*
X14615000Y-22927451D02*
X14585000Y-22957451D01*
X14810000Y-16985000D02*
X14840000Y-17015000D01*
X14840000Y-16985000D02*
X14810000Y-17015000D01*
X14810000Y-19985000D02*
X14840000Y-20015000D01*
X14840000Y-19985000D02*
X14810000Y-20015000D01*
X14810000Y-22985000D02*
X14840000Y-23015000D01*
X14840000Y-22985000D02*
X14810000Y-23015000D01*
X15160000Y-6985000D02*
X15190000Y-7015000D01*
X15190000Y-6985000D02*
X15160000Y-7015000D01*
X15160000Y-9985000D02*
X15190000Y-10015000D01*
X15190000Y-9985000D02*
X15160000Y-10015000D01*
X15160000Y-12985000D02*
X15190000Y-13015000D01*
X15190000Y-12985000D02*
X15160000Y-13015000D01*
X15385000Y-13110000D02*
X15415000Y-13140000D01*
X15415000Y-13110000D02*
X15385000Y-13140000D01*
X16027982Y-16593668D02*
X16057982Y-16623668D01*
X16057982Y-16593668D02*
X16027982Y-16623668D01*
X16275470Y-16522957D02*
X16305470Y-16552957D01*
X16305470Y-16522957D02*
X16275470Y-16552957D01*
X16522957Y-13694530D02*
X16552957Y-13724530D01*
X16552957Y-13694530D02*
X16522957Y-13724530D01*
X16593668Y-13942017D02*
X16623668Y-13972017D01*
X16623668Y-13942017D02*
X16593668Y-13972017D01*
X16860000Y-15385000D02*
X16890000Y-15415000D01*
X16890000Y-15385000D02*
X16860000Y-15415000D01*
X16985000Y-15160000D02*
X17015000Y-15190000D01*
X17015000Y-15160000D02*
X16985000Y-15190000D01*
X17292450Y-15385000D02*
X17322450Y-15415000D01*
X17322450Y-15385000D02*
X17292450Y-15415000D01*
X19985000Y-15160000D02*
X20015000Y-15190000D01*
X20015000Y-15160000D02*
X19985000Y-15190000D01*
X20085000Y-15160000D02*
X20115000Y-15190000D01*
X20115000Y-15160000D02*
X20085000Y-15190000D01*
X20085000Y-15860000D02*
X20115000Y-15890000D01*
X20115000Y-15860000D02*
X20085000Y-15890000D01*
X22985000Y-15160000D02*
X23015000Y-15190000D01*
X23015000Y-15160000D02*
X22985000Y-15190000D01*
D13*
X15538188Y-10321872D02*
G75*
G03*
X15538188Y-10321872I-20000J0D01*
G01*
D14*
X14483000Y-23190000D02*
X14483000Y-23260000D01*
X14448000Y-23225000D02*
X14518000Y-23225000D01*
X14483000Y-23390000D02*
X14483000Y-23460000D01*
X14448000Y-23425000D02*
X14518000Y-23425000D01*
X14683000Y-23190000D02*
X14683000Y-23260000D01*
X14648000Y-23225000D02*
X14718000Y-23225000D01*
X14683000Y-23390000D02*
X14683000Y-23460000D01*
X14648000Y-23425000D02*
X14718000Y-23425000D01*
X14883000Y-23190000D02*
X14883000Y-23260000D01*
X14848000Y-23225000D02*
X14918000Y-23225000D01*
X14883000Y-23390000D02*
X14883000Y-23460000D01*
X14848000Y-23425000D02*
X14918000Y-23425000D01*
D15*
X15483517Y-23097517D02*
X15483517Y-23044483D01*
X15430483Y-23044483D01*
X15430483Y-23097517D01*
X15483517Y-23097517D01*
X15483517Y-23351517D02*
X15483517Y-23298483D01*
X15430483Y-23298483D01*
X15430483Y-23351517D01*
X15483517Y-23351517D01*
X15483517Y-23605517D02*
X15483517Y-23552483D01*
X15430483Y-23552483D01*
X15430483Y-23605517D01*
X15483517Y-23605517D01*
X15483517Y-23859517D02*
X15483517Y-23806483D01*
X15430483Y-23806483D01*
X15430483Y-23859517D01*
X15483517Y-23859517D01*
X15483517Y-24113517D02*
X15483517Y-24060483D01*
X15430483Y-24060483D01*
X15430483Y-24113517D01*
X15483517Y-24113517D01*
D16*
X14238000Y-18920000D02*
X14278000Y-18880000D01*
X14238000Y-18840000D01*
X14198000Y-18880000D01*
X14238000Y-18920000D01*
X14238000Y-19174000D02*
X14278000Y-19134000D01*
X14238000Y-19094000D01*
X14198000Y-19134000D01*
X14238000Y-19174000D01*
X14238000Y-19428000D02*
X14278000Y-19388000D01*
X14238000Y-19348000D01*
X14198000Y-19388000D01*
X14238000Y-19428000D01*
X14238000Y-19682000D02*
X14278000Y-19642000D01*
X14238000Y-19602000D01*
X14198000Y-19642000D01*
X14238000Y-19682000D01*
X14238000Y-19936000D02*
X14278000Y-19896000D01*
X14238000Y-19856000D01*
X14198000Y-19896000D01*
X14238000Y-19936000D01*
X14238000Y-20190000D02*
X14278000Y-20150000D01*
X14238000Y-20110000D01*
X14198000Y-20150000D01*
X14238000Y-20190000D01*
X14238000Y-20444000D02*
X14278000Y-20404000D01*
X14238000Y-20364000D01*
X14198000Y-20404000D01*
X14238000Y-20444000D01*
X14238000Y-20698000D02*
X14278000Y-20658000D01*
X14238000Y-20618000D01*
X14198000Y-20658000D01*
X14238000Y-20698000D01*
X14238000Y-20952000D02*
X14278000Y-20912000D01*
X14238000Y-20872000D01*
X14198000Y-20912000D01*
X14238000Y-20952000D01*
X14238000Y-21206000D02*
X14278000Y-21166000D01*
X14238000Y-21126000D01*
X14198000Y-21166000D01*
X14238000Y-21206000D01*
X14238000Y-21460000D02*
X14278000Y-21420000D01*
X14238000Y-21380000D01*
X14198000Y-21420000D01*
X14238000Y-21460000D01*
X14238000Y-21714000D02*
X14278000Y-21674000D01*
X14238000Y-21634000D01*
X14198000Y-21674000D01*
X14238000Y-21714000D01*
X14238000Y-21968000D02*
X14278000Y-21928000D01*
X14238000Y-21888000D01*
X14198000Y-21928000D01*
X14238000Y-21968000D01*
X14238000Y-22222000D02*
X14278000Y-22182000D01*
X14238000Y-22142000D01*
X14198000Y-22182000D01*
X14238000Y-22222000D01*
X14238000Y-22476000D02*
X14278000Y-22436000D01*
X14238000Y-22396000D01*
X14198000Y-22436000D01*
X14238000Y-22476000D01*
X14238000Y-22730000D02*
X14278000Y-22690000D01*
X14238000Y-22650000D01*
X14198000Y-22690000D01*
X14238000Y-22730000D01*
X14238000Y-22984000D02*
X14278000Y-22944000D01*
X14238000Y-22904000D01*
X14198000Y-22944000D01*
X14238000Y-22984000D01*
X14238000Y-23238000D02*
X14278000Y-23198000D01*
X14238000Y-23158000D01*
X14198000Y-23198000D01*
X14238000Y-23238000D01*
X14238000Y-23492000D02*
X14278000Y-23452000D01*
X14238000Y-23412000D01*
X14198000Y-23452000D01*
X14238000Y-23492000D01*
X14238000Y-23746000D02*
X14278000Y-23706000D01*
X14238000Y-23666000D01*
X14198000Y-23706000D01*
X14238000Y-23746000D01*
X14238000Y-24000000D02*
X14278000Y-23960000D01*
X14238000Y-23920000D01*
X14198000Y-23960000D01*
X14238000Y-24000000D01*
X14238000Y-24254000D02*
X14278000Y-24214000D01*
X14238000Y-24174000D01*
X14198000Y-24214000D01*
X14238000Y-24254000D01*
X14238000Y-24508000D02*
X14278000Y-24468000D01*
X14238000Y-24428000D01*
X14198000Y-24468000D01*
X14238000Y-24508000D01*
X14238000Y-24762000D02*
X14278000Y-24722000D01*
X14238000Y-24682000D01*
X14198000Y-24722000D01*
X14238000Y-24762000D01*
X14492000Y-20190000D02*
X14532000Y-20150000D01*
X14492000Y-20110000D01*
X14452000Y-20150000D01*
X14492000Y-20190000D01*
X14492000Y-24508000D02*
X14532000Y-24468000D01*
X14492000Y-24428000D01*
X14452000Y-24468000D01*
X14492000Y-24508000D01*
X14746000Y-20190000D02*
X14786000Y-20150000D01*
X14746000Y-20110000D01*
X14706000Y-20150000D01*
X14746000Y-20190000D01*
X15000000Y-20190000D02*
X15040000Y-20150000D01*
X15000000Y-20110000D01*
X14960000Y-20150000D01*
X15000000Y-20190000D01*
X15254000Y-20190000D02*
X15294000Y-20150000D01*
X15254000Y-20110000D01*
X15214000Y-20150000D01*
X15254000Y-20190000D01*
X15508000Y-20190000D02*
X15548000Y-20150000D01*
X15508000Y-20110000D01*
X15468000Y-20150000D01*
X15508000Y-20190000D01*
X15762000Y-18920000D02*
X15802000Y-18880000D01*
X15762000Y-18840000D01*
X15722000Y-18880000D01*
X15762000Y-18920000D01*
X15762000Y-19174000D02*
X15802000Y-19134000D01*
X15762000Y-19094000D01*
X15722000Y-19134000D01*
X15762000Y-19174000D01*
X15762000Y-19428000D02*
X15802000Y-19388000D01*
X15762000Y-19348000D01*
X15722000Y-19388000D01*
X15762000Y-19428000D01*
X15762000Y-19682000D02*
X15802000Y-19642000D01*
X15762000Y-19602000D01*
X15722000Y-19642000D01*
X15762000Y-19682000D01*
X15762000Y-19936000D02*
X15802000Y-19896000D01*
X15762000Y-19856000D01*
X15722000Y-19896000D01*
X15762000Y-19936000D01*
X15762000Y-20190000D02*
X15802000Y-20150000D01*
X15762000Y-20110000D01*
X15722000Y-20150000D01*
X15762000Y-20190000D01*
X15762000Y-20444000D02*
X15802000Y-20404000D01*
X15762000Y-20364000D01*
X15722000Y-20404000D01*
X15762000Y-20444000D01*
X15762000Y-20698000D02*
X15802000Y-20658000D01*
X15762000Y-20618000D01*
X15722000Y-20658000D01*
X15762000Y-20698000D01*
X15762000Y-20952000D02*
X15802000Y-20912000D01*
X15762000Y-20872000D01*
X15722000Y-20912000D01*
X15762000Y-20952000D01*
X15762000Y-21206000D02*
X15802000Y-21166000D01*
X15762000Y-21126000D01*
X15722000Y-21166000D01*
X15762000Y-21206000D01*
X15762000Y-21460000D02*
X15802000Y-21420000D01*
X15762000Y-21380000D01*
X15722000Y-21420000D01*
X15762000Y-21460000D01*
X15762000Y-21714000D02*
X15802000Y-21674000D01*
X15762000Y-21634000D01*
X15722000Y-21674000D01*
X15762000Y-21714000D01*
X15762000Y-21968000D02*
X15802000Y-21928000D01*
X15762000Y-21888000D01*
X15722000Y-21928000D01*
X15762000Y-21968000D01*
X15762000Y-22222000D02*
X15802000Y-22182000D01*
X15762000Y-22142000D01*
X15722000Y-22182000D01*
X15762000Y-22222000D01*
X15762000Y-22476000D02*
X15802000Y-22436000D01*
X15762000Y-22396000D01*
X15722000Y-22436000D01*
X15762000Y-22476000D01*
X15762000Y-22730000D02*
X15802000Y-22690000D01*
X15762000Y-22650000D01*
X15722000Y-22690000D01*
X15762000Y-22730000D01*
X15762000Y-22984000D02*
X15802000Y-22944000D01*
X15762000Y-22904000D01*
X15722000Y-22944000D01*
X15762000Y-22984000D01*
X15762000Y-23238000D02*
X15802000Y-23198000D01*
X15762000Y-23158000D01*
X15722000Y-23198000D01*
X15762000Y-23238000D01*
X15762000Y-23492000D02*
X15802000Y-23452000D01*
X15762000Y-23412000D01*
X15722000Y-23452000D01*
X15762000Y-23492000D01*
X15762000Y-23746000D02*
X15802000Y-23706000D01*
X15762000Y-23666000D01*
X15722000Y-23706000D01*
X15762000Y-23746000D01*
X15762000Y-24000000D02*
X15802000Y-23960000D01*
X15762000Y-23920000D01*
X15722000Y-23960000D01*
X15762000Y-24000000D01*
X15762000Y-24254000D02*
X15802000Y-24214000D01*
X15762000Y-24174000D01*
X15722000Y-24214000D01*
X15762000Y-24254000D01*
X15762000Y-24508000D02*
X15802000Y-24468000D01*
X15762000Y-24428000D01*
X15722000Y-24468000D01*
X15762000Y-24508000D01*
X15762000Y-24762000D02*
X15802000Y-24722000D01*
X15762000Y-24682000D01*
X15722000Y-24722000D01*
X15762000Y-24762000D01*
D17*
X13850000Y-18830000D02*
X13950000Y-18930000D01*
X13950000Y-18830000D02*
X13850000Y-18930000D01*
X13950000Y-18880000D02*
G75*
G03*
X13950000Y-18880000I-50000J0D01*
G01*
X13850000Y-19084000D02*
X13950000Y-19184000D01*
X13950000Y-19084000D02*
X13850000Y-19184000D01*
X13950000Y-19134000D02*
G75*
G03*
X13950000Y-19134000I-50000J0D01*
G01*
X13850000Y-19338000D02*
X13950000Y-19438000D01*
X13950000Y-19338000D02*
X13850000Y-19438000D01*
X13950000Y-19388000D02*
G75*
G03*
X13950000Y-19388000I-50000J0D01*
G01*
X13850000Y-19592000D02*
X13950000Y-19692000D01*
X13950000Y-19592000D02*
X13850000Y-19692000D01*
X13950000Y-19642000D02*
G75*
G03*
X13950000Y-19642000I-50000J0D01*
G01*
X13850000Y-19846000D02*
X13950000Y-19946000D01*
X13950000Y-19846000D02*
X13850000Y-19946000D01*
X13950000Y-19896000D02*
G75*
G03*
X13950000Y-19896000I-50000J0D01*
G01*
X13850000Y-20100000D02*
X13950000Y-20200000D01*
X13950000Y-20100000D02*
X13850000Y-20200000D01*
X13950000Y-20150000D02*
G75*
G03*
X13950000Y-20150000I-50000J0D01*
G01*
X13850000Y-20354000D02*
X13950000Y-20454000D01*
X13950000Y-20354000D02*
X13850000Y-20454000D01*
X13950000Y-20404000D02*
G75*
G03*
X13950000Y-20404000I-50000J0D01*
G01*
X13850000Y-20608000D02*
X13950000Y-20708000D01*
X13950000Y-20608000D02*
X13850000Y-20708000D01*
X13950000Y-20658000D02*
G75*
G03*
X13950000Y-20658000I-50000J0D01*
G01*
X13850000Y-20862000D02*
X13950000Y-20962000D01*
X13950000Y-20862000D02*
X13850000Y-20962000D01*
X13950000Y-20912000D02*
G75*
G03*
X13950000Y-20912000I-50000J0D01*
G01*
X13850000Y-21116000D02*
X13950000Y-21216000D01*
X13950000Y-21116000D02*
X13850000Y-21216000D01*
X13950000Y-21166000D02*
G75*
G03*
X13950000Y-21166000I-50000J0D01*
G01*
X13850000Y-21370000D02*
X13950000Y-21470000D01*
X13950000Y-21370000D02*
X13850000Y-21470000D01*
X13950000Y-21420000D02*
G75*
G03*
X13950000Y-21420000I-50000J0D01*
G01*
X13850000Y-21624000D02*
X13950000Y-21724000D01*
X13950000Y-21624000D02*
X13850000Y-21724000D01*
X13950000Y-21674000D02*
G75*
G03*
X13950000Y-21674000I-50000J0D01*
G01*
X13850000Y-21878000D02*
X13950000Y-21978000D01*
X13950000Y-21878000D02*
X13850000Y-21978000D01*
X13950000Y-21928000D02*
G75*
G03*
X13950000Y-21928000I-50000J0D01*
G01*
X13850000Y-22132000D02*
X13950000Y-22232000D01*
X13950000Y-22132000D02*
X13850000Y-22232000D01*
X13950000Y-22182000D02*
G75*
G03*
X13950000Y-22182000I-50000J0D01*
G01*
X13850000Y-22386000D02*
X13950000Y-22486000D01*
X13950000Y-22386000D02*
X13850000Y-22486000D01*
X13950000Y-22436000D02*
G75*
G03*
X13950000Y-22436000I-50000J0D01*
G01*
X13850000Y-22640000D02*
X13950000Y-22740000D01*
X13950000Y-22640000D02*
X13850000Y-22740000D01*
X13950000Y-22690000D02*
G75*
G03*
X13950000Y-22690000I-50000J0D01*
G01*
X13850000Y-22894000D02*
X13950000Y-22994000D01*
X13950000Y-22894000D02*
X13850000Y-22994000D01*
X13950000Y-22944000D02*
G75*
G03*
X13950000Y-22944000I-50000J0D01*
G01*
X13850000Y-23148000D02*
X13950000Y-23248000D01*
X13950000Y-23148000D02*
X13850000Y-23248000D01*
X13950000Y-23198000D02*
G75*
G03*
X13950000Y-23198000I-50000J0D01*
G01*
X13850000Y-23402000D02*
X13950000Y-23502000D01*
X13950000Y-23402000D02*
X13850000Y-23502000D01*
X13950000Y-23452000D02*
G75*
G03*
X13950000Y-23452000I-50000J0D01*
G01*
X13850000Y-23656000D02*
X13950000Y-23756000D01*
X13950000Y-23656000D02*
X13850000Y-23756000D01*
X13950000Y-23706000D02*
G75*
G03*
X13950000Y-23706000I-50000J0D01*
G01*
X13850000Y-23910000D02*
X13950000Y-24010000D01*
X13950000Y-23910000D02*
X13850000Y-24010000D01*
X13950000Y-23960000D02*
G75*
G03*
X13950000Y-23960000I-50000J0D01*
G01*
X13850000Y-24164000D02*
X13950000Y-24264000D01*
X13950000Y-24164000D02*
X13850000Y-24264000D01*
X13950000Y-24214000D02*
G75*
G03*
X13950000Y-24214000I-50000J0D01*
G01*
X13850000Y-24418000D02*
X13950000Y-24518000D01*
X13950000Y-24418000D02*
X13850000Y-24518000D01*
X13950000Y-24468000D02*
G75*
G03*
X13950000Y-24468000I-50000J0D01*
G01*
X13850000Y-24672000D02*
X13950000Y-24772000D01*
X13950000Y-24672000D02*
X13850000Y-24772000D01*
X13950000Y-24722000D02*
G75*
G03*
X13950000Y-24722000I-50000J0D01*
G01*
X14442500Y-18300000D02*
X14542500Y-18400000D01*
X14542500Y-18300000D02*
X14442500Y-18400000D01*
X14542500Y-18350000D02*
G75*
G03*
X14542500Y-18350000I-50000J0D01*
G01*
X14696500Y-18300000D02*
X14796500Y-18400000D01*
X14796500Y-18300000D02*
X14696500Y-18400000D01*
X14796500Y-18350000D02*
G75*
G03*
X14796500Y-18350000I-50000J0D01*
G01*
X14950500Y-18300000D02*
X15050500Y-18400000D01*
X15050500Y-18300000D02*
X14950500Y-18400000D01*
X15050500Y-18350000D02*
G75*
G03*
X15050500Y-18350000I-50000J0D01*
G01*
X15204500Y-18300000D02*
X15304500Y-18400000D01*
X15304500Y-18300000D02*
X15204500Y-18400000D01*
X15304500Y-18350000D02*
G75*
G03*
X15304500Y-18350000I-50000J0D01*
G01*
X15458500Y-18300000D02*
X15558500Y-18400000D01*
X15558500Y-18300000D02*
X15458500Y-18400000D01*
X15558500Y-18350000D02*
G75*
G03*
X15558500Y-18350000I-50000J0D01*
G01*
X16050000Y-18830000D02*
X16150000Y-18930000D01*
X16150000Y-18830000D02*
X16050000Y-18930000D01*
X16150000Y-18880000D02*
G75*
G03*
X16150000Y-18880000I-50000J0D01*
G01*
X16050000Y-19084000D02*
X16150000Y-19184000D01*
X16150000Y-19084000D02*
X16050000Y-19184000D01*
X16150000Y-19134000D02*
G75*
G03*
X16150000Y-19134000I-50000J0D01*
G01*
X16050000Y-19338000D02*
X16150000Y-19438000D01*
X16150000Y-19338000D02*
X16050000Y-19438000D01*
X16150000Y-19388000D02*
G75*
G03*
X16150000Y-19388000I-50000J0D01*
G01*
X16050000Y-19592000D02*
X16150000Y-19692000D01*
X16150000Y-19592000D02*
X16050000Y-19692000D01*
X16150000Y-19642000D02*
G75*
G03*
X16150000Y-19642000I-50000J0D01*
G01*
X16050000Y-19846000D02*
X16150000Y-19946000D01*
X16150000Y-19846000D02*
X16050000Y-19946000D01*
X16150000Y-19896000D02*
G75*
G03*
X16150000Y-19896000I-50000J0D01*
G01*
X16050000Y-20100000D02*
X16150000Y-20200000D01*
X16150000Y-20100000D02*
X16050000Y-20200000D01*
X16150000Y-20150000D02*
G75*
G03*
X16150000Y-20150000I-50000J0D01*
G01*
X16050000Y-20354000D02*
X16150000Y-20454000D01*
X16150000Y-20354000D02*
X16050000Y-20454000D01*
X16150000Y-20404000D02*
G75*
G03*
X16150000Y-20404000I-50000J0D01*
G01*
X16050000Y-20608000D02*
X16150000Y-20708000D01*
X16150000Y-20608000D02*
X16050000Y-20708000D01*
X16150000Y-20658000D02*
G75*
G03*
X16150000Y-20658000I-50000J0D01*
G01*
X16050000Y-20862000D02*
X16150000Y-20962000D01*
X16150000Y-20862000D02*
X16050000Y-20962000D01*
X16150000Y-20912000D02*
G75*
G03*
X16150000Y-20912000I-50000J0D01*
G01*
X16050000Y-21116000D02*
X16150000Y-21216000D01*
X16150000Y-21116000D02*
X16050000Y-21216000D01*
X16150000Y-21166000D02*
G75*
G03*
X16150000Y-21166000I-50000J0D01*
G01*
X16050000Y-21370000D02*
X16150000Y-21470000D01*
X16150000Y-21370000D02*
X16050000Y-21470000D01*
X16150000Y-21420000D02*
G75*
G03*
X16150000Y-21420000I-50000J0D01*
G01*
X16050000Y-21624000D02*
X16150000Y-21724000D01*
X16150000Y-21624000D02*
X16050000Y-21724000D01*
X16150000Y-21674000D02*
G75*
G03*
X16150000Y-21674000I-50000J0D01*
G01*
X16050000Y-21878000D02*
X16150000Y-21978000D01*
X16150000Y-21878000D02*
X16050000Y-21978000D01*
X16150000Y-21928000D02*
G75*
G03*
X16150000Y-21928000I-50000J0D01*
G01*
X16050000Y-22132000D02*
X16150000Y-22232000D01*
X16150000Y-22132000D02*
X16050000Y-22232000D01*
X16150000Y-22182000D02*
G75*
G03*
X16150000Y-22182000I-50000J0D01*
G01*
X16050000Y-22386000D02*
X16150000Y-22486000D01*
X16150000Y-22386000D02*
X16050000Y-22486000D01*
X16150000Y-22436000D02*
G75*
G03*
X16150000Y-22436000I-50000J0D01*
G01*
X16050000Y-22640000D02*
X16150000Y-22740000D01*
X16150000Y-22640000D02*
X16050000Y-22740000D01*
X16150000Y-22690000D02*
G75*
G03*
X16150000Y-22690000I-50000J0D01*
G01*
X16050000Y-22894000D02*
X16150000Y-22994000D01*
X16150000Y-22894000D02*
X16050000Y-22994000D01*
X16150000Y-22944000D02*
G75*
G03*
X16150000Y-22944000I-50000J0D01*
G01*
X16050000Y-23148000D02*
X16150000Y-23248000D01*
X16150000Y-23148000D02*
X16050000Y-23248000D01*
X16150000Y-23198000D02*
G75*
G03*
X16150000Y-23198000I-50000J0D01*
G01*
X16050000Y-23402000D02*
X16150000Y-23502000D01*
X16150000Y-23402000D02*
X16050000Y-23502000D01*
X16150000Y-23452000D02*
G75*
G03*
X16150000Y-23452000I-50000J0D01*
G01*
X16050000Y-23656000D02*
X16150000Y-23756000D01*
X16150000Y-23656000D02*
X16050000Y-23756000D01*
X16150000Y-23706000D02*
G75*
G03*
X16150000Y-23706000I-50000J0D01*
G01*
X16050000Y-23910000D02*
X16150000Y-24010000D01*
X16150000Y-23910000D02*
X16050000Y-24010000D01*
X16150000Y-23960000D02*
G75*
G03*
X16150000Y-23960000I-50000J0D01*
G01*
X16050000Y-24164000D02*
X16150000Y-24264000D01*
X16150000Y-24164000D02*
X16050000Y-24264000D01*
X16150000Y-24214000D02*
G75*
G03*
X16150000Y-24214000I-50000J0D01*
G01*
X16050000Y-24418000D02*
X16150000Y-24518000D01*
X16150000Y-24418000D02*
X16050000Y-24518000D01*
X16150000Y-24468000D02*
G75*
G03*
X16150000Y-24468000I-50000J0D01*
G01*
X16050000Y-24672000D02*
X16150000Y-24772000D01*
X16150000Y-24672000D02*
X16050000Y-24772000D01*
X16150000Y-24722000D02*
G75*
G03*
X16150000Y-24722000I-50000J0D01*
G01*
D18*
X9053000Y-14564000D02*
X9163000Y-14674000D01*
X9163000Y-14564000D02*
X9053000Y-14674000D01*
X9108000Y-14564000D02*
X9108000Y-14674000D01*
X9053000Y-14619000D02*
X9163000Y-14619000D01*
X9053000Y-14818000D02*
X9163000Y-14928000D01*
X9163000Y-14818000D02*
X9053000Y-14928000D01*
X9108000Y-14818000D02*
X9108000Y-14928000D01*
X9053000Y-14873000D02*
X9163000Y-14873000D01*
X9053000Y-15072000D02*
X9163000Y-15182000D01*
X9163000Y-15072000D02*
X9053000Y-15182000D01*
X9108000Y-15072000D02*
X9108000Y-15182000D01*
X9053000Y-15127000D02*
X9163000Y-15127000D01*
X9053000Y-15326000D02*
X9163000Y-15436000D01*
X9163000Y-15326000D02*
X9053000Y-15436000D01*
X9108000Y-15326000D02*
X9108000Y-15436000D01*
X9053000Y-15381000D02*
X9163000Y-15381000D01*
D19*
X7740000Y-12315000D02*
X8010000Y-12585000D01*
X8010000Y-12315000D02*
X7740000Y-12585000D01*
X7970460Y-12545460D02*
X7970460Y-12354540D01*
X7779540Y-12354540D01*
X7779540Y-12545460D01*
X7970460Y-12545460D01*
X7740000Y-17415000D02*
X8010000Y-17685000D01*
X8010000Y-17415000D02*
X7740000Y-17685000D01*
X7970460Y-17645460D02*
X7970460Y-17454540D01*
X7779540Y-17454540D01*
X7779540Y-17645460D01*
X7970460Y-17645460D01*
X8240000Y-12315000D02*
X8510000Y-12585000D01*
X8510000Y-12315000D02*
X8240000Y-12585000D01*
X8470460Y-12545460D02*
X8470460Y-12354540D01*
X8279540Y-12354540D01*
X8279540Y-12545460D01*
X8470460Y-12545460D01*
X8240000Y-17415000D02*
X8510000Y-17685000D01*
X8510000Y-17415000D02*
X8240000Y-17685000D01*
X8470460Y-17645460D02*
X8470460Y-17454540D01*
X8279540Y-17454540D01*
X8279540Y-17645460D01*
X8470460Y-17645460D01*
D11*
X4958267Y-25614004D02*
X4958267Y-25414004D01*
X4958267Y-25414004D02*
X5005886Y-25414004D01*
X5005886Y-25414004D02*
X5034457Y-25423528D01*
X5034457Y-25423528D02*
X5053505Y-25442575D01*
X5053505Y-25442575D02*
X5063029Y-25461623D01*
X5063029Y-25461623D02*
X5072553Y-25499718D01*
X5072553Y-25499718D02*
X5072553Y-25528289D01*
X5072553Y-25528289D02*
X5063029Y-25566385D01*
X5063029Y-25566385D02*
X5053505Y-25585432D01*
X5053505Y-25585432D02*
X5034457Y-25604480D01*
X5034457Y-25604480D02*
X5005886Y-25614004D01*
X5005886Y-25614004D02*
X4958267Y-25614004D01*
X5158267Y-25614004D02*
X5158267Y-25480670D01*
X5158267Y-25518766D02*
X5167791Y-25499718D01*
X5167791Y-25499718D02*
X5177314Y-25490194D01*
X5177314Y-25490194D02*
X5196362Y-25480670D01*
X5196362Y-25480670D02*
X5215410Y-25480670D01*
X5282076Y-25614004D02*
X5282076Y-25480670D01*
X5282076Y-25414004D02*
X5272553Y-25423528D01*
X5272553Y-25423528D02*
X5282076Y-25433051D01*
X5282076Y-25433051D02*
X5291600Y-25423528D01*
X5291600Y-25423528D02*
X5282076Y-25414004D01*
X5282076Y-25414004D02*
X5282076Y-25433051D01*
X5405886Y-25614004D02*
X5386838Y-25604480D01*
X5386838Y-25604480D02*
X5377314Y-25585432D01*
X5377314Y-25585432D02*
X5377314Y-25414004D01*
X5510648Y-25614004D02*
X5491600Y-25604480D01*
X5491600Y-25604480D02*
X5482076Y-25585432D01*
X5482076Y-25585432D02*
X5482076Y-25414004D01*
X5739219Y-25614004D02*
X5739219Y-25414004D01*
X5739219Y-25414004D02*
X5805886Y-25556861D01*
X5805886Y-25556861D02*
X5872552Y-25414004D01*
X5872552Y-25414004D02*
X5872552Y-25614004D01*
X6053505Y-25614004D02*
X6053505Y-25509242D01*
X6053505Y-25509242D02*
X6043981Y-25490194D01*
X6043981Y-25490194D02*
X6024933Y-25480670D01*
X6024933Y-25480670D02*
X5986838Y-25480670D01*
X5986838Y-25480670D02*
X5967791Y-25490194D01*
X6053505Y-25604480D02*
X6034457Y-25614004D01*
X6034457Y-25614004D02*
X5986838Y-25614004D01*
X5986838Y-25614004D02*
X5967791Y-25604480D01*
X5967791Y-25604480D02*
X5958267Y-25585432D01*
X5958267Y-25585432D02*
X5958267Y-25566385D01*
X5958267Y-25566385D02*
X5967791Y-25547337D01*
X5967791Y-25547337D02*
X5986838Y-25537813D01*
X5986838Y-25537813D02*
X6034457Y-25537813D01*
X6034457Y-25537813D02*
X6053505Y-25528289D01*
X6148743Y-25480670D02*
X6148743Y-25680670D01*
X6148743Y-25490194D02*
X6167791Y-25480670D01*
X6167791Y-25480670D02*
X6205886Y-25480670D01*
X6205886Y-25480670D02*
X6224933Y-25490194D01*
X6224933Y-25490194D02*
X6234457Y-25499718D01*
X6234457Y-25499718D02*
X6243981Y-25518766D01*
X6243981Y-25518766D02*
X6243981Y-25575908D01*
X6243981Y-25575908D02*
X6234457Y-25594956D01*
X6234457Y-25594956D02*
X6224933Y-25604480D01*
X6224933Y-25604480D02*
X6205886Y-25614004D01*
X6205886Y-25614004D02*
X6167791Y-25614004D01*
X6167791Y-25614004D02*
X6148743Y-25604480D01*
X6329695Y-25594956D02*
X6339219Y-25604480D01*
X6339219Y-25604480D02*
X6329695Y-25614004D01*
X6329695Y-25614004D02*
X6320172Y-25604480D01*
X6320172Y-25604480D02*
X6329695Y-25594956D01*
X6329695Y-25594956D02*
X6329695Y-25614004D01*
X6329695Y-25490194D02*
X6339219Y-25499718D01*
X6339219Y-25499718D02*
X6329695Y-25509242D01*
X6329695Y-25509242D02*
X6320172Y-25499718D01*
X6320172Y-25499718D02*
X6329695Y-25490194D01*
X6329695Y-25490194D02*
X6329695Y-25509242D01*
D12*
X4667490Y-25927520D02*
X4697490Y-25957520D01*
X4697490Y-25927520D02*
X4667490Y-25957520D01*
D11*
X4996362Y-25834004D02*
X5015410Y-25834004D01*
X5015410Y-25834004D02*
X5034457Y-25843528D01*
X5034457Y-25843528D02*
X5043981Y-25853051D01*
X5043981Y-25853051D02*
X5053505Y-25872099D01*
X5053505Y-25872099D02*
X5063029Y-25910194D01*
X5063029Y-25910194D02*
X5063029Y-25957813D01*
X5063029Y-25957813D02*
X5053505Y-25995908D01*
X5053505Y-25995908D02*
X5043981Y-26014956D01*
X5043981Y-26014956D02*
X5034457Y-26024480D01*
X5034457Y-26024480D02*
X5015410Y-26034004D01*
X5015410Y-26034004D02*
X4996362Y-26034004D01*
X4996362Y-26034004D02*
X4977314Y-26024480D01*
X4977314Y-26024480D02*
X4967791Y-26014956D01*
X4967791Y-26014956D02*
X4958267Y-25995908D01*
X4958267Y-25995908D02*
X4948743Y-25957813D01*
X4948743Y-25957813D02*
X4948743Y-25910194D01*
X4948743Y-25910194D02*
X4958267Y-25872099D01*
X4958267Y-25872099D02*
X4967791Y-25853051D01*
X4967791Y-25853051D02*
X4977314Y-25843528D01*
X4977314Y-25843528D02*
X4996362Y-25834004D01*
X5148743Y-26014956D02*
X5158267Y-26024480D01*
X5158267Y-26024480D02*
X5148743Y-26034004D01*
X5148743Y-26034004D02*
X5139219Y-26024480D01*
X5139219Y-26024480D02*
X5148743Y-26014956D01*
X5148743Y-26014956D02*
X5148743Y-26034004D01*
X5224934Y-25834004D02*
X5348743Y-25834004D01*
X5348743Y-25834004D02*
X5282076Y-25910194D01*
X5282076Y-25910194D02*
X5310648Y-25910194D01*
X5310648Y-25910194D02*
X5329695Y-25919718D01*
X5329695Y-25919718D02*
X5339219Y-25929242D01*
X5339219Y-25929242D02*
X5348743Y-25948289D01*
X5348743Y-25948289D02*
X5348743Y-25995908D01*
X5348743Y-25995908D02*
X5339219Y-26014956D01*
X5339219Y-26014956D02*
X5329695Y-26024480D01*
X5329695Y-26024480D02*
X5310648Y-26034004D01*
X5310648Y-26034004D02*
X5253505Y-26034004D01*
X5253505Y-26034004D02*
X5234457Y-26024480D01*
X5234457Y-26024480D02*
X5224934Y-26014956D01*
X5472553Y-25834004D02*
X5491600Y-25834004D01*
X5491600Y-25834004D02*
X5510648Y-25843528D01*
X5510648Y-25843528D02*
X5520172Y-25853051D01*
X5520172Y-25853051D02*
X5529695Y-25872099D01*
X5529695Y-25872099D02*
X5539219Y-25910194D01*
X5539219Y-25910194D02*
X5539219Y-25957813D01*
X5539219Y-25957813D02*
X5529695Y-25995908D01*
X5529695Y-25995908D02*
X5520172Y-26014956D01*
X5520172Y-26014956D02*
X5510648Y-26024480D01*
X5510648Y-26024480D02*
X5491600Y-26034004D01*
X5491600Y-26034004D02*
X5472553Y-26034004D01*
X5472553Y-26034004D02*
X5453505Y-26024480D01*
X5453505Y-26024480D02*
X5443981Y-26014956D01*
X5443981Y-26014956D02*
X5434457Y-25995908D01*
X5434457Y-25995908D02*
X5424934Y-25957813D01*
X5424934Y-25957813D02*
X5424934Y-25910194D01*
X5424934Y-25910194D02*
X5434457Y-25872099D01*
X5434457Y-25872099D02*
X5443981Y-25853051D01*
X5443981Y-25853051D02*
X5453505Y-25843528D01*
X5453505Y-25843528D02*
X5472553Y-25834004D01*
X5663029Y-25834004D02*
X5682076Y-25834004D01*
X5682076Y-25834004D02*
X5701124Y-25843528D01*
X5701124Y-25843528D02*
X5710648Y-25853051D01*
X5710648Y-25853051D02*
X5720172Y-25872099D01*
X5720172Y-25872099D02*
X5729695Y-25910194D01*
X5729695Y-25910194D02*
X5729695Y-25957813D01*
X5729695Y-25957813D02*
X5720172Y-25995908D01*
X5720172Y-25995908D02*
X5710648Y-26014956D01*
X5710648Y-26014956D02*
X5701124Y-26024480D01*
X5701124Y-26024480D02*
X5682076Y-26034004D01*
X5682076Y-26034004D02*
X5663029Y-26034004D01*
X5663029Y-26034004D02*
X5643981Y-26024480D01*
X5643981Y-26024480D02*
X5634457Y-26014956D01*
X5634457Y-26014956D02*
X5624933Y-25995908D01*
X5624933Y-25995908D02*
X5615410Y-25957813D01*
X5615410Y-25957813D02*
X5615410Y-25910194D01*
X5615410Y-25910194D02*
X5624933Y-25872099D01*
X5624933Y-25872099D02*
X5634457Y-25853051D01*
X5634457Y-25853051D02*
X5643981Y-25843528D01*
X5643981Y-25843528D02*
X5663029Y-25834004D01*
X5815410Y-26034004D02*
X5815410Y-25900670D01*
X5815410Y-25919718D02*
X5824933Y-25910194D01*
X5824933Y-25910194D02*
X5843981Y-25900670D01*
X5843981Y-25900670D02*
X5872553Y-25900670D01*
X5872553Y-25900670D02*
X5891600Y-25910194D01*
X5891600Y-25910194D02*
X5901124Y-25929242D01*
X5901124Y-25929242D02*
X5901124Y-26034004D01*
X5901124Y-25929242D02*
X5910648Y-25910194D01*
X5910648Y-25910194D02*
X5929695Y-25900670D01*
X5929695Y-25900670D02*
X5958267Y-25900670D01*
X5958267Y-25900670D02*
X5977314Y-25910194D01*
X5977314Y-25910194D02*
X5986838Y-25929242D01*
X5986838Y-25929242D02*
X5986838Y-26034004D01*
X6082076Y-26034004D02*
X6082076Y-25900670D01*
X6082076Y-25919718D02*
X6091600Y-25910194D01*
X6091600Y-25910194D02*
X6110648Y-25900670D01*
X6110648Y-25900670D02*
X6139219Y-25900670D01*
X6139219Y-25900670D02*
X6158267Y-25910194D01*
X6158267Y-25910194D02*
X6167791Y-25929242D01*
X6167791Y-25929242D02*
X6167791Y-26034004D01*
X6167791Y-25929242D02*
X6177314Y-25910194D01*
X6177314Y-25910194D02*
X6196362Y-25900670D01*
X6196362Y-25900670D02*
X6224933Y-25900670D01*
X6224933Y-25900670D02*
X6243981Y-25910194D01*
X6243981Y-25910194D02*
X6253505Y-25929242D01*
X6253505Y-25929242D02*
X6253505Y-26034004D01*
X6643981Y-25824480D02*
X6472553Y-26081623D01*
X6901124Y-25834004D02*
X6920172Y-25834004D01*
X6920172Y-25834004D02*
X6939219Y-25843528D01*
X6939219Y-25843528D02*
X6948743Y-25853051D01*
X6948743Y-25853051D02*
X6958267Y-25872099D01*
X6958267Y-25872099D02*
X6967791Y-25910194D01*
X6967791Y-25910194D02*
X6967791Y-25957813D01*
X6967791Y-25957813D02*
X6958267Y-25995908D01*
X6958267Y-25995908D02*
X6948743Y-26014956D01*
X6948743Y-26014956D02*
X6939219Y-26024480D01*
X6939219Y-26024480D02*
X6920172Y-26034004D01*
X6920172Y-26034004D02*
X6901124Y-26034004D01*
X6901124Y-26034004D02*
X6882076Y-26024480D01*
X6882076Y-26024480D02*
X6872553Y-26014956D01*
X6872553Y-26014956D02*
X6863029Y-25995908D01*
X6863029Y-25995908D02*
X6853505Y-25957813D01*
X6853505Y-25957813D02*
X6853505Y-25910194D01*
X6853505Y-25910194D02*
X6863029Y-25872099D01*
X6863029Y-25872099D02*
X6872553Y-25853051D01*
X6872553Y-25853051D02*
X6882076Y-25843528D01*
X6882076Y-25843528D02*
X6901124Y-25834004D01*
X7053505Y-26014956D02*
X7063029Y-26024480D01*
X7063029Y-26024480D02*
X7053505Y-26034004D01*
X7053505Y-26034004D02*
X7043981Y-26024480D01*
X7043981Y-26024480D02*
X7053505Y-26014956D01*
X7053505Y-26014956D02*
X7053505Y-26034004D01*
X7186838Y-25834004D02*
X7205886Y-25834004D01*
X7205886Y-25834004D02*
X7224934Y-25843528D01*
X7224934Y-25843528D02*
X7234457Y-25853051D01*
X7234457Y-25853051D02*
X7243981Y-25872099D01*
X7243981Y-25872099D02*
X7253505Y-25910194D01*
X7253505Y-25910194D02*
X7253505Y-25957813D01*
X7253505Y-25957813D02*
X7243981Y-25995908D01*
X7243981Y-25995908D02*
X7234457Y-26014956D01*
X7234457Y-26014956D02*
X7224934Y-26024480D01*
X7224934Y-26024480D02*
X7205886Y-26034004D01*
X7205886Y-26034004D02*
X7186838Y-26034004D01*
X7186838Y-26034004D02*
X7167791Y-26024480D01*
X7167791Y-26024480D02*
X7158267Y-26014956D01*
X7158267Y-26014956D02*
X7148743Y-25995908D01*
X7148743Y-25995908D02*
X7139219Y-25957813D01*
X7139219Y-25957813D02*
X7139219Y-25910194D01*
X7139219Y-25910194D02*
X7148743Y-25872099D01*
X7148743Y-25872099D02*
X7158267Y-25853051D01*
X7158267Y-25853051D02*
X7167791Y-25843528D01*
X7167791Y-25843528D02*
X7186838Y-25834004D01*
X7443981Y-26034004D02*
X7329696Y-26034004D01*
X7386838Y-26034004D02*
X7386838Y-25834004D01*
X7386838Y-25834004D02*
X7367791Y-25862575D01*
X7367791Y-25862575D02*
X7348743Y-25881623D01*
X7348743Y-25881623D02*
X7329696Y-25891147D01*
X7634457Y-26034004D02*
X7520172Y-26034004D01*
X7577315Y-26034004D02*
X7577315Y-25834004D01*
X7577315Y-25834004D02*
X7558267Y-25862575D01*
X7558267Y-25862575D02*
X7539219Y-25881623D01*
X7539219Y-25881623D02*
X7520172Y-25891147D01*
X7748743Y-25919718D02*
X7729696Y-25910194D01*
X7729696Y-25910194D02*
X7720172Y-25900670D01*
X7720172Y-25900670D02*
X7710648Y-25881623D01*
X7710648Y-25881623D02*
X7710648Y-25872099D01*
X7710648Y-25872099D02*
X7720172Y-25853051D01*
X7720172Y-25853051D02*
X7729696Y-25843528D01*
X7729696Y-25843528D02*
X7748743Y-25834004D01*
X7748743Y-25834004D02*
X7786838Y-25834004D01*
X7786838Y-25834004D02*
X7805886Y-25843528D01*
X7805886Y-25843528D02*
X7815410Y-25853051D01*
X7815410Y-25853051D02*
X7824934Y-25872099D01*
X7824934Y-25872099D02*
X7824934Y-25881623D01*
X7824934Y-25881623D02*
X7815410Y-25900670D01*
X7815410Y-25900670D02*
X7805886Y-25910194D01*
X7805886Y-25910194D02*
X7786838Y-25919718D01*
X7786838Y-25919718D02*
X7748743Y-25919718D01*
X7748743Y-25919718D02*
X7729696Y-25929242D01*
X7729696Y-25929242D02*
X7720172Y-25938766D01*
X7720172Y-25938766D02*
X7710648Y-25957813D01*
X7710648Y-25957813D02*
X7710648Y-25995908D01*
X7710648Y-25995908D02*
X7720172Y-26014956D01*
X7720172Y-26014956D02*
X7729696Y-26024480D01*
X7729696Y-26024480D02*
X7748743Y-26034004D01*
X7748743Y-26034004D02*
X7786838Y-26034004D01*
X7786838Y-26034004D02*
X7805886Y-26024480D01*
X7805886Y-26024480D02*
X7815410Y-26014956D01*
X7815410Y-26014956D02*
X7824934Y-25995908D01*
X7824934Y-25995908D02*
X7824934Y-25957813D01*
X7824934Y-25957813D02*
X7815410Y-25938766D01*
X7815410Y-25938766D02*
X7805886Y-25929242D01*
X7805886Y-25929242D02*
X7786838Y-25919718D01*
X7901124Y-25834004D02*
X7901124Y-25872099D01*
X7977315Y-25834004D02*
X7977315Y-25872099D01*
X8272553Y-26110194D02*
X8263029Y-26100670D01*
X8263029Y-26100670D02*
X8243981Y-26072099D01*
X8243981Y-26072099D02*
X8234458Y-26053051D01*
X8234458Y-26053051D02*
X8224934Y-26024480D01*
X8224934Y-26024480D02*
X8215410Y-25976861D01*
X8215410Y-25976861D02*
X8215410Y-25938766D01*
X8215410Y-25938766D02*
X8224934Y-25891147D01*
X8224934Y-25891147D02*
X8234458Y-25862575D01*
X8234458Y-25862575D02*
X8243981Y-25843528D01*
X8243981Y-25843528D02*
X8263029Y-25814956D01*
X8263029Y-25814956D02*
X8272553Y-25805432D01*
X8329696Y-25834004D02*
X8453505Y-25834004D01*
X8453505Y-25834004D02*
X8386838Y-25910194D01*
X8386838Y-25910194D02*
X8415410Y-25910194D01*
X8415410Y-25910194D02*
X8434458Y-25919718D01*
X8434458Y-25919718D02*
X8443981Y-25929242D01*
X8443981Y-25929242D02*
X8453505Y-25948289D01*
X8453505Y-25948289D02*
X8453505Y-25995908D01*
X8453505Y-25995908D02*
X8443981Y-26014956D01*
X8443981Y-26014956D02*
X8434458Y-26024480D01*
X8434458Y-26024480D02*
X8415410Y-26034004D01*
X8415410Y-26034004D02*
X8358267Y-26034004D01*
X8358267Y-26034004D02*
X8339219Y-26024480D01*
X8339219Y-26024480D02*
X8329696Y-26014956D01*
X8529696Y-25853051D02*
X8539220Y-25843528D01*
X8539220Y-25843528D02*
X8558267Y-25834004D01*
X8558267Y-25834004D02*
X8605886Y-25834004D01*
X8605886Y-25834004D02*
X8624934Y-25843528D01*
X8624934Y-25843528D02*
X8634458Y-25853051D01*
X8634458Y-25853051D02*
X8643981Y-25872099D01*
X8643981Y-25872099D02*
X8643981Y-25891147D01*
X8643981Y-25891147D02*
X8634458Y-25919718D01*
X8634458Y-25919718D02*
X8520172Y-26034004D01*
X8520172Y-26034004D02*
X8643981Y-26034004D01*
X8882077Y-26034004D02*
X8882077Y-25834004D01*
X8967791Y-26034004D02*
X8967791Y-25929242D01*
X8967791Y-25929242D02*
X8958267Y-25910194D01*
X8958267Y-25910194D02*
X8939220Y-25900670D01*
X8939220Y-25900670D02*
X8910648Y-25900670D01*
X8910648Y-25900670D02*
X8891601Y-25910194D01*
X8891601Y-25910194D02*
X8882077Y-25919718D01*
X9091601Y-26034004D02*
X9072553Y-26024480D01*
X9072553Y-26024480D02*
X9063029Y-26014956D01*
X9063029Y-26014956D02*
X9053505Y-25995908D01*
X9053505Y-25995908D02*
X9053505Y-25938766D01*
X9053505Y-25938766D02*
X9063029Y-25919718D01*
X9063029Y-25919718D02*
X9072553Y-25910194D01*
X9072553Y-25910194D02*
X9091601Y-25900670D01*
X9091601Y-25900670D02*
X9120172Y-25900670D01*
X9120172Y-25900670D02*
X9139220Y-25910194D01*
X9139220Y-25910194D02*
X9148743Y-25919718D01*
X9148743Y-25919718D02*
X9158267Y-25938766D01*
X9158267Y-25938766D02*
X9158267Y-25995908D01*
X9158267Y-25995908D02*
X9148743Y-26014956D01*
X9148743Y-26014956D02*
X9139220Y-26024480D01*
X9139220Y-26024480D02*
X9120172Y-26034004D01*
X9120172Y-26034004D02*
X9091601Y-26034004D01*
X9272553Y-26034004D02*
X9253505Y-26024480D01*
X9253505Y-26024480D02*
X9243982Y-26005432D01*
X9243982Y-26005432D02*
X9243982Y-25834004D01*
X9424934Y-26024480D02*
X9405886Y-26034004D01*
X9405886Y-26034004D02*
X9367791Y-26034004D01*
X9367791Y-26034004D02*
X9348743Y-26024480D01*
X9348743Y-26024480D02*
X9339220Y-26005432D01*
X9339220Y-26005432D02*
X9339220Y-25929242D01*
X9339220Y-25929242D02*
X9348743Y-25910194D01*
X9348743Y-25910194D02*
X9367791Y-25900670D01*
X9367791Y-25900670D02*
X9405886Y-25900670D01*
X9405886Y-25900670D02*
X9424934Y-25910194D01*
X9424934Y-25910194D02*
X9434458Y-25929242D01*
X9434458Y-25929242D02*
X9434458Y-25948289D01*
X9434458Y-25948289D02*
X9339220Y-25967337D01*
X9510648Y-26024480D02*
X9529696Y-26034004D01*
X9529696Y-26034004D02*
X9567791Y-26034004D01*
X9567791Y-26034004D02*
X9586839Y-26024480D01*
X9586839Y-26024480D02*
X9596363Y-26005432D01*
X9596363Y-26005432D02*
X9596363Y-25995908D01*
X9596363Y-25995908D02*
X9586839Y-25976861D01*
X9586839Y-25976861D02*
X9567791Y-25967337D01*
X9567791Y-25967337D02*
X9539220Y-25967337D01*
X9539220Y-25967337D02*
X9520172Y-25957813D01*
X9520172Y-25957813D02*
X9510648Y-25938766D01*
X9510648Y-25938766D02*
X9510648Y-25929242D01*
X9510648Y-25929242D02*
X9520172Y-25910194D01*
X9520172Y-25910194D02*
X9539220Y-25900670D01*
X9539220Y-25900670D02*
X9567791Y-25900670D01*
X9567791Y-25900670D02*
X9586839Y-25910194D01*
X9663029Y-26110194D02*
X9672553Y-26100670D01*
X9672553Y-26100670D02*
X9691601Y-26072099D01*
X9691601Y-26072099D02*
X9701124Y-26053051D01*
X9701124Y-26053051D02*
X9710648Y-26024480D01*
X9710648Y-26024480D02*
X9720172Y-25976861D01*
X9720172Y-25976861D02*
X9720172Y-25938766D01*
X9720172Y-25938766D02*
X9710648Y-25891147D01*
X9710648Y-25891147D02*
X9701124Y-25862575D01*
X9701124Y-25862575D02*
X9691601Y-25843528D01*
X9691601Y-25843528D02*
X9672553Y-25814956D01*
X9672553Y-25814956D02*
X9663029Y-25805432D01*
D13*
X4697490Y-26206520D02*
G75*
G03*
X4697490Y-26206520I-20000J0D01*
G01*
D11*
X4996362Y-26098004D02*
X5015410Y-26098004D01*
X5015410Y-26098004D02*
X5034457Y-26107528D01*
X5034457Y-26107528D02*
X5043981Y-26117051D01*
X5043981Y-26117051D02*
X5053505Y-26136099D01*
X5053505Y-26136099D02*
X5063029Y-26174194D01*
X5063029Y-26174194D02*
X5063029Y-26221813D01*
X5063029Y-26221813D02*
X5053505Y-26259908D01*
X5053505Y-26259908D02*
X5043981Y-26278956D01*
X5043981Y-26278956D02*
X5034457Y-26288480D01*
X5034457Y-26288480D02*
X5015410Y-26298004D01*
X5015410Y-26298004D02*
X4996362Y-26298004D01*
X4996362Y-26298004D02*
X4977314Y-26288480D01*
X4977314Y-26288480D02*
X4967791Y-26278956D01*
X4967791Y-26278956D02*
X4958267Y-26259908D01*
X4958267Y-26259908D02*
X4948743Y-26221813D01*
X4948743Y-26221813D02*
X4948743Y-26174194D01*
X4948743Y-26174194D02*
X4958267Y-26136099D01*
X4958267Y-26136099D02*
X4967791Y-26117051D01*
X4967791Y-26117051D02*
X4977314Y-26107528D01*
X4977314Y-26107528D02*
X4996362Y-26098004D01*
X5148743Y-26278956D02*
X5158267Y-26288480D01*
X5158267Y-26288480D02*
X5148743Y-26298004D01*
X5148743Y-26298004D02*
X5139219Y-26288480D01*
X5139219Y-26288480D02*
X5148743Y-26278956D01*
X5148743Y-26278956D02*
X5148743Y-26298004D01*
X5329695Y-26164670D02*
X5329695Y-26298004D01*
X5282076Y-26088480D02*
X5234457Y-26231337D01*
X5234457Y-26231337D02*
X5358267Y-26231337D01*
X5472553Y-26098004D02*
X5491600Y-26098004D01*
X5491600Y-26098004D02*
X5510648Y-26107528D01*
X5510648Y-26107528D02*
X5520172Y-26117051D01*
X5520172Y-26117051D02*
X5529695Y-26136099D01*
X5529695Y-26136099D02*
X5539219Y-26174194D01*
X5539219Y-26174194D02*
X5539219Y-26221813D01*
X5539219Y-26221813D02*
X5529695Y-26259908D01*
X5529695Y-26259908D02*
X5520172Y-26278956D01*
X5520172Y-26278956D02*
X5510648Y-26288480D01*
X5510648Y-26288480D02*
X5491600Y-26298004D01*
X5491600Y-26298004D02*
X5472553Y-26298004D01*
X5472553Y-26298004D02*
X5453505Y-26288480D01*
X5453505Y-26288480D02*
X5443981Y-26278956D01*
X5443981Y-26278956D02*
X5434457Y-26259908D01*
X5434457Y-26259908D02*
X5424934Y-26221813D01*
X5424934Y-26221813D02*
X5424934Y-26174194D01*
X5424934Y-26174194D02*
X5434457Y-26136099D01*
X5434457Y-26136099D02*
X5443981Y-26117051D01*
X5443981Y-26117051D02*
X5453505Y-26107528D01*
X5453505Y-26107528D02*
X5472553Y-26098004D01*
X5663029Y-26098004D02*
X5682076Y-26098004D01*
X5682076Y-26098004D02*
X5701124Y-26107528D01*
X5701124Y-26107528D02*
X5710648Y-26117051D01*
X5710648Y-26117051D02*
X5720172Y-26136099D01*
X5720172Y-26136099D02*
X5729695Y-26174194D01*
X5729695Y-26174194D02*
X5729695Y-26221813D01*
X5729695Y-26221813D02*
X5720172Y-26259908D01*
X5720172Y-26259908D02*
X5710648Y-26278956D01*
X5710648Y-26278956D02*
X5701124Y-26288480D01*
X5701124Y-26288480D02*
X5682076Y-26298004D01*
X5682076Y-26298004D02*
X5663029Y-26298004D01*
X5663029Y-26298004D02*
X5643981Y-26288480D01*
X5643981Y-26288480D02*
X5634457Y-26278956D01*
X5634457Y-26278956D02*
X5624933Y-26259908D01*
X5624933Y-26259908D02*
X5615410Y-26221813D01*
X5615410Y-26221813D02*
X5615410Y-26174194D01*
X5615410Y-26174194D02*
X5624933Y-26136099D01*
X5624933Y-26136099D02*
X5634457Y-26117051D01*
X5634457Y-26117051D02*
X5643981Y-26107528D01*
X5643981Y-26107528D02*
X5663029Y-26098004D01*
X5815410Y-26298004D02*
X5815410Y-26164670D01*
X5815410Y-26183718D02*
X5824933Y-26174194D01*
X5824933Y-26174194D02*
X5843981Y-26164670D01*
X5843981Y-26164670D02*
X5872553Y-26164670D01*
X5872553Y-26164670D02*
X5891600Y-26174194D01*
X5891600Y-26174194D02*
X5901124Y-26193242D01*
X5901124Y-26193242D02*
X5901124Y-26298004D01*
X5901124Y-26193242D02*
X5910648Y-26174194D01*
X5910648Y-26174194D02*
X5929695Y-26164670D01*
X5929695Y-26164670D02*
X5958267Y-26164670D01*
X5958267Y-26164670D02*
X5977314Y-26174194D01*
X5977314Y-26174194D02*
X5986838Y-26193242D01*
X5986838Y-26193242D02*
X5986838Y-26298004D01*
X6082076Y-26298004D02*
X6082076Y-26164670D01*
X6082076Y-26183718D02*
X6091600Y-26174194D01*
X6091600Y-26174194D02*
X6110648Y-26164670D01*
X6110648Y-26164670D02*
X6139219Y-26164670D01*
X6139219Y-26164670D02*
X6158267Y-26174194D01*
X6158267Y-26174194D02*
X6167791Y-26193242D01*
X6167791Y-26193242D02*
X6167791Y-26298004D01*
X6167791Y-26193242D02*
X6177314Y-26174194D01*
X6177314Y-26174194D02*
X6196362Y-26164670D01*
X6196362Y-26164670D02*
X6224933Y-26164670D01*
X6224933Y-26164670D02*
X6243981Y-26174194D01*
X6243981Y-26174194D02*
X6253505Y-26193242D01*
X6253505Y-26193242D02*
X6253505Y-26298004D01*
X6643981Y-26088480D02*
X6472553Y-26345623D01*
X6901124Y-26098004D02*
X6920172Y-26098004D01*
X6920172Y-26098004D02*
X6939219Y-26107528D01*
X6939219Y-26107528D02*
X6948743Y-26117051D01*
X6948743Y-26117051D02*
X6958267Y-26136099D01*
X6958267Y-26136099D02*
X6967791Y-26174194D01*
X6967791Y-26174194D02*
X6967791Y-26221813D01*
X6967791Y-26221813D02*
X6958267Y-26259908D01*
X6958267Y-26259908D02*
X6948743Y-26278956D01*
X6948743Y-26278956D02*
X6939219Y-26288480D01*
X6939219Y-26288480D02*
X6920172Y-26298004D01*
X6920172Y-26298004D02*
X6901124Y-26298004D01*
X6901124Y-26298004D02*
X6882076Y-26288480D01*
X6882076Y-26288480D02*
X6872553Y-26278956D01*
X6872553Y-26278956D02*
X6863029Y-26259908D01*
X6863029Y-26259908D02*
X6853505Y-26221813D01*
X6853505Y-26221813D02*
X6853505Y-26174194D01*
X6853505Y-26174194D02*
X6863029Y-26136099D01*
X6863029Y-26136099D02*
X6872553Y-26117051D01*
X6872553Y-26117051D02*
X6882076Y-26107528D01*
X6882076Y-26107528D02*
X6901124Y-26098004D01*
X7053505Y-26278956D02*
X7063029Y-26288480D01*
X7063029Y-26288480D02*
X7053505Y-26298004D01*
X7053505Y-26298004D02*
X7043981Y-26288480D01*
X7043981Y-26288480D02*
X7053505Y-26278956D01*
X7053505Y-26278956D02*
X7053505Y-26298004D01*
X7186838Y-26098004D02*
X7205886Y-26098004D01*
X7205886Y-26098004D02*
X7224934Y-26107528D01*
X7224934Y-26107528D02*
X7234457Y-26117051D01*
X7234457Y-26117051D02*
X7243981Y-26136099D01*
X7243981Y-26136099D02*
X7253505Y-26174194D01*
X7253505Y-26174194D02*
X7253505Y-26221813D01*
X7253505Y-26221813D02*
X7243981Y-26259908D01*
X7243981Y-26259908D02*
X7234457Y-26278956D01*
X7234457Y-26278956D02*
X7224934Y-26288480D01*
X7224934Y-26288480D02*
X7205886Y-26298004D01*
X7205886Y-26298004D02*
X7186838Y-26298004D01*
X7186838Y-26298004D02*
X7167791Y-26288480D01*
X7167791Y-26288480D02*
X7158267Y-26278956D01*
X7158267Y-26278956D02*
X7148743Y-26259908D01*
X7148743Y-26259908D02*
X7139219Y-26221813D01*
X7139219Y-26221813D02*
X7139219Y-26174194D01*
X7139219Y-26174194D02*
X7148743Y-26136099D01*
X7148743Y-26136099D02*
X7158267Y-26117051D01*
X7158267Y-26117051D02*
X7167791Y-26107528D01*
X7167791Y-26107528D02*
X7186838Y-26098004D01*
X7443981Y-26298004D02*
X7329696Y-26298004D01*
X7386838Y-26298004D02*
X7386838Y-26098004D01*
X7386838Y-26098004D02*
X7367791Y-26126575D01*
X7367791Y-26126575D02*
X7348743Y-26145623D01*
X7348743Y-26145623D02*
X7329696Y-26155147D01*
X7624934Y-26098004D02*
X7529696Y-26098004D01*
X7529696Y-26098004D02*
X7520172Y-26193242D01*
X7520172Y-26193242D02*
X7529696Y-26183718D01*
X7529696Y-26183718D02*
X7548743Y-26174194D01*
X7548743Y-26174194D02*
X7596362Y-26174194D01*
X7596362Y-26174194D02*
X7615410Y-26183718D01*
X7615410Y-26183718D02*
X7624934Y-26193242D01*
X7624934Y-26193242D02*
X7634457Y-26212289D01*
X7634457Y-26212289D02*
X7634457Y-26259908D01*
X7634457Y-26259908D02*
X7624934Y-26278956D01*
X7624934Y-26278956D02*
X7615410Y-26288480D01*
X7615410Y-26288480D02*
X7596362Y-26298004D01*
X7596362Y-26298004D02*
X7548743Y-26298004D01*
X7548743Y-26298004D02*
X7529696Y-26288480D01*
X7529696Y-26288480D02*
X7520172Y-26278956D01*
X7701124Y-26098004D02*
X7834457Y-26098004D01*
X7834457Y-26098004D02*
X7748743Y-26298004D01*
X7901124Y-26098004D02*
X7901124Y-26136099D01*
X7977315Y-26098004D02*
X7977315Y-26136099D01*
X8272553Y-26374194D02*
X8263029Y-26364670D01*
X8263029Y-26364670D02*
X8243981Y-26336099D01*
X8243981Y-26336099D02*
X8234458Y-26317051D01*
X8234458Y-26317051D02*
X8224934Y-26288480D01*
X8224934Y-26288480D02*
X8215410Y-26240861D01*
X8215410Y-26240861D02*
X8215410Y-26202766D01*
X8215410Y-26202766D02*
X8224934Y-26155147D01*
X8224934Y-26155147D02*
X8234458Y-26126575D01*
X8234458Y-26126575D02*
X8243981Y-26107528D01*
X8243981Y-26107528D02*
X8263029Y-26078956D01*
X8263029Y-26078956D02*
X8272553Y-26069432D01*
X8453505Y-26298004D02*
X8339219Y-26298004D01*
X8396362Y-26298004D02*
X8396362Y-26098004D01*
X8396362Y-26098004D02*
X8377315Y-26126575D01*
X8377315Y-26126575D02*
X8358267Y-26145623D01*
X8358267Y-26145623D02*
X8339219Y-26155147D01*
X8691601Y-26298004D02*
X8691601Y-26098004D01*
X8777315Y-26298004D02*
X8777315Y-26193242D01*
X8777315Y-26193242D02*
X8767791Y-26174194D01*
X8767791Y-26174194D02*
X8748743Y-26164670D01*
X8748743Y-26164670D02*
X8720172Y-26164670D01*
X8720172Y-26164670D02*
X8701124Y-26174194D01*
X8701124Y-26174194D02*
X8691601Y-26183718D01*
X8901124Y-26298004D02*
X8882077Y-26288480D01*
X8882077Y-26288480D02*
X8872553Y-26278956D01*
X8872553Y-26278956D02*
X8863029Y-26259908D01*
X8863029Y-26259908D02*
X8863029Y-26202766D01*
X8863029Y-26202766D02*
X8872553Y-26183718D01*
X8872553Y-26183718D02*
X8882077Y-26174194D01*
X8882077Y-26174194D02*
X8901124Y-26164670D01*
X8901124Y-26164670D02*
X8929696Y-26164670D01*
X8929696Y-26164670D02*
X8948743Y-26174194D01*
X8948743Y-26174194D02*
X8958267Y-26183718D01*
X8958267Y-26183718D02*
X8967791Y-26202766D01*
X8967791Y-26202766D02*
X8967791Y-26259908D01*
X8967791Y-26259908D02*
X8958267Y-26278956D01*
X8958267Y-26278956D02*
X8948743Y-26288480D01*
X8948743Y-26288480D02*
X8929696Y-26298004D01*
X8929696Y-26298004D02*
X8901124Y-26298004D01*
X9082077Y-26298004D02*
X9063029Y-26288480D01*
X9063029Y-26288480D02*
X9053505Y-26269432D01*
X9053505Y-26269432D02*
X9053505Y-26098004D01*
X9234458Y-26288480D02*
X9215410Y-26298004D01*
X9215410Y-26298004D02*
X9177315Y-26298004D01*
X9177315Y-26298004D02*
X9158267Y-26288480D01*
X9158267Y-26288480D02*
X9148743Y-26269432D01*
X9148743Y-26269432D02*
X9148743Y-26193242D01*
X9148743Y-26193242D02*
X9158267Y-26174194D01*
X9158267Y-26174194D02*
X9177315Y-26164670D01*
X9177315Y-26164670D02*
X9215410Y-26164670D01*
X9215410Y-26164670D02*
X9234458Y-26174194D01*
X9234458Y-26174194D02*
X9243982Y-26193242D01*
X9243982Y-26193242D02*
X9243982Y-26212289D01*
X9243982Y-26212289D02*
X9148743Y-26231337D01*
X9310648Y-26374194D02*
X9320172Y-26364670D01*
X9320172Y-26364670D02*
X9339220Y-26336099D01*
X9339220Y-26336099D02*
X9348743Y-26317051D01*
X9348743Y-26317051D02*
X9358267Y-26288480D01*
X9358267Y-26288480D02*
X9367791Y-26240861D01*
X9367791Y-26240861D02*
X9367791Y-26202766D01*
X9367791Y-26202766D02*
X9358267Y-26155147D01*
X9358267Y-26155147D02*
X9348743Y-26126575D01*
X9348743Y-26126575D02*
X9339220Y-26107528D01*
X9339220Y-26107528D02*
X9320172Y-26078956D01*
X9320172Y-26078956D02*
X9310648Y-26069432D01*
D14*
X4662490Y-26435520D02*
X4662490Y-26505520D01*
X4627490Y-26470520D02*
X4697490Y-26470520D01*
D11*
X4996362Y-26362004D02*
X5015410Y-26362004D01*
X5015410Y-26362004D02*
X5034457Y-26371528D01*
X5034457Y-26371528D02*
X5043981Y-26381051D01*
X5043981Y-26381051D02*
X5053505Y-26400099D01*
X5053505Y-26400099D02*
X5063029Y-26438194D01*
X5063029Y-26438194D02*
X5063029Y-26485813D01*
X5063029Y-26485813D02*
X5053505Y-26523908D01*
X5053505Y-26523908D02*
X5043981Y-26542956D01*
X5043981Y-26542956D02*
X5034457Y-26552480D01*
X5034457Y-26552480D02*
X5015410Y-26562004D01*
X5015410Y-26562004D02*
X4996362Y-26562004D01*
X4996362Y-26562004D02*
X4977314Y-26552480D01*
X4977314Y-26552480D02*
X4967791Y-26542956D01*
X4967791Y-26542956D02*
X4958267Y-26523908D01*
X4958267Y-26523908D02*
X4948743Y-26485813D01*
X4948743Y-26485813D02*
X4948743Y-26438194D01*
X4948743Y-26438194D02*
X4958267Y-26400099D01*
X4958267Y-26400099D02*
X4967791Y-26381051D01*
X4967791Y-26381051D02*
X4977314Y-26371528D01*
X4977314Y-26371528D02*
X4996362Y-26362004D01*
X5148743Y-26542956D02*
X5158267Y-26552480D01*
X5158267Y-26552480D02*
X5148743Y-26562004D01*
X5148743Y-26562004D02*
X5139219Y-26552480D01*
X5139219Y-26552480D02*
X5148743Y-26542956D01*
X5148743Y-26542956D02*
X5148743Y-26562004D01*
X5224934Y-26362004D02*
X5358267Y-26362004D01*
X5358267Y-26362004D02*
X5272553Y-26562004D01*
X5472553Y-26362004D02*
X5491600Y-26362004D01*
X5491600Y-26362004D02*
X5510648Y-26371528D01*
X5510648Y-26371528D02*
X5520172Y-26381051D01*
X5520172Y-26381051D02*
X5529695Y-26400099D01*
X5529695Y-26400099D02*
X5539219Y-26438194D01*
X5539219Y-26438194D02*
X5539219Y-26485813D01*
X5539219Y-26485813D02*
X5529695Y-26523908D01*
X5529695Y-26523908D02*
X5520172Y-26542956D01*
X5520172Y-26542956D02*
X5510648Y-26552480D01*
X5510648Y-26552480D02*
X5491600Y-26562004D01*
X5491600Y-26562004D02*
X5472553Y-26562004D01*
X5472553Y-26562004D02*
X5453505Y-26552480D01*
X5453505Y-26552480D02*
X5443981Y-26542956D01*
X5443981Y-26542956D02*
X5434457Y-26523908D01*
X5434457Y-26523908D02*
X5424934Y-26485813D01*
X5424934Y-26485813D02*
X5424934Y-26438194D01*
X5424934Y-26438194D02*
X5434457Y-26400099D01*
X5434457Y-26400099D02*
X5443981Y-26381051D01*
X5443981Y-26381051D02*
X5453505Y-26371528D01*
X5453505Y-26371528D02*
X5472553Y-26362004D01*
X5663029Y-26362004D02*
X5682076Y-26362004D01*
X5682076Y-26362004D02*
X5701124Y-26371528D01*
X5701124Y-26371528D02*
X5710648Y-26381051D01*
X5710648Y-26381051D02*
X5720172Y-26400099D01*
X5720172Y-26400099D02*
X5729695Y-26438194D01*
X5729695Y-26438194D02*
X5729695Y-26485813D01*
X5729695Y-26485813D02*
X5720172Y-26523908D01*
X5720172Y-26523908D02*
X5710648Y-26542956D01*
X5710648Y-26542956D02*
X5701124Y-26552480D01*
X5701124Y-26552480D02*
X5682076Y-26562004D01*
X5682076Y-26562004D02*
X5663029Y-26562004D01*
X5663029Y-26562004D02*
X5643981Y-26552480D01*
X5643981Y-26552480D02*
X5634457Y-26542956D01*
X5634457Y-26542956D02*
X5624933Y-26523908D01*
X5624933Y-26523908D02*
X5615410Y-26485813D01*
X5615410Y-26485813D02*
X5615410Y-26438194D01*
X5615410Y-26438194D02*
X5624933Y-26400099D01*
X5624933Y-26400099D02*
X5634457Y-26381051D01*
X5634457Y-26381051D02*
X5643981Y-26371528D01*
X5643981Y-26371528D02*
X5663029Y-26362004D01*
X5815410Y-26562004D02*
X5815410Y-26428670D01*
X5815410Y-26447718D02*
X5824933Y-26438194D01*
X5824933Y-26438194D02*
X5843981Y-26428670D01*
X5843981Y-26428670D02*
X5872553Y-26428670D01*
X5872553Y-26428670D02*
X5891600Y-26438194D01*
X5891600Y-26438194D02*
X5901124Y-26457242D01*
X5901124Y-26457242D02*
X5901124Y-26562004D01*
X5901124Y-26457242D02*
X5910648Y-26438194D01*
X5910648Y-26438194D02*
X5929695Y-26428670D01*
X5929695Y-26428670D02*
X5958267Y-26428670D01*
X5958267Y-26428670D02*
X5977314Y-26438194D01*
X5977314Y-26438194D02*
X5986838Y-26457242D01*
X5986838Y-26457242D02*
X5986838Y-26562004D01*
X6082076Y-26562004D02*
X6082076Y-26428670D01*
X6082076Y-26447718D02*
X6091600Y-26438194D01*
X6091600Y-26438194D02*
X6110648Y-26428670D01*
X6110648Y-26428670D02*
X6139219Y-26428670D01*
X6139219Y-26428670D02*
X6158267Y-26438194D01*
X6158267Y-26438194D02*
X6167791Y-26457242D01*
X6167791Y-26457242D02*
X6167791Y-26562004D01*
X6167791Y-26457242D02*
X6177314Y-26438194D01*
X6177314Y-26438194D02*
X6196362Y-26428670D01*
X6196362Y-26428670D02*
X6224933Y-26428670D01*
X6224933Y-26428670D02*
X6243981Y-26438194D01*
X6243981Y-26438194D02*
X6253505Y-26457242D01*
X6253505Y-26457242D02*
X6253505Y-26562004D01*
X6643981Y-26352480D02*
X6472553Y-26609623D01*
X6901124Y-26362004D02*
X6920172Y-26362004D01*
X6920172Y-26362004D02*
X6939219Y-26371528D01*
X6939219Y-26371528D02*
X6948743Y-26381051D01*
X6948743Y-26381051D02*
X6958267Y-26400099D01*
X6958267Y-26400099D02*
X6967791Y-26438194D01*
X6967791Y-26438194D02*
X6967791Y-26485813D01*
X6967791Y-26485813D02*
X6958267Y-26523908D01*
X6958267Y-26523908D02*
X6948743Y-26542956D01*
X6948743Y-26542956D02*
X6939219Y-26552480D01*
X6939219Y-26552480D02*
X6920172Y-26562004D01*
X6920172Y-26562004D02*
X6901124Y-26562004D01*
X6901124Y-26562004D02*
X6882076Y-26552480D01*
X6882076Y-26552480D02*
X6872553Y-26542956D01*
X6872553Y-26542956D02*
X6863029Y-26523908D01*
X6863029Y-26523908D02*
X6853505Y-26485813D01*
X6853505Y-26485813D02*
X6853505Y-26438194D01*
X6853505Y-26438194D02*
X6863029Y-26400099D01*
X6863029Y-26400099D02*
X6872553Y-26381051D01*
X6872553Y-26381051D02*
X6882076Y-26371528D01*
X6882076Y-26371528D02*
X6901124Y-26362004D01*
X7053505Y-26542956D02*
X7063029Y-26552480D01*
X7063029Y-26552480D02*
X7053505Y-26562004D01*
X7053505Y-26562004D02*
X7043981Y-26552480D01*
X7043981Y-26552480D02*
X7053505Y-26542956D01*
X7053505Y-26542956D02*
X7053505Y-26562004D01*
X7186838Y-26362004D02*
X7205886Y-26362004D01*
X7205886Y-26362004D02*
X7224934Y-26371528D01*
X7224934Y-26371528D02*
X7234457Y-26381051D01*
X7234457Y-26381051D02*
X7243981Y-26400099D01*
X7243981Y-26400099D02*
X7253505Y-26438194D01*
X7253505Y-26438194D02*
X7253505Y-26485813D01*
X7253505Y-26485813D02*
X7243981Y-26523908D01*
X7243981Y-26523908D02*
X7234457Y-26542956D01*
X7234457Y-26542956D02*
X7224934Y-26552480D01*
X7224934Y-26552480D02*
X7205886Y-26562004D01*
X7205886Y-26562004D02*
X7186838Y-26562004D01*
X7186838Y-26562004D02*
X7167791Y-26552480D01*
X7167791Y-26552480D02*
X7158267Y-26542956D01*
X7158267Y-26542956D02*
X7148743Y-26523908D01*
X7148743Y-26523908D02*
X7139219Y-26485813D01*
X7139219Y-26485813D02*
X7139219Y-26438194D01*
X7139219Y-26438194D02*
X7148743Y-26400099D01*
X7148743Y-26400099D02*
X7158267Y-26381051D01*
X7158267Y-26381051D02*
X7167791Y-26371528D01*
X7167791Y-26371528D02*
X7186838Y-26362004D01*
X7329696Y-26381051D02*
X7339219Y-26371528D01*
X7339219Y-26371528D02*
X7358267Y-26362004D01*
X7358267Y-26362004D02*
X7405886Y-26362004D01*
X7405886Y-26362004D02*
X7424934Y-26371528D01*
X7424934Y-26371528D02*
X7434457Y-26381051D01*
X7434457Y-26381051D02*
X7443981Y-26400099D01*
X7443981Y-26400099D02*
X7443981Y-26419147D01*
X7443981Y-26419147D02*
X7434457Y-26447718D01*
X7434457Y-26447718D02*
X7320172Y-26562004D01*
X7320172Y-26562004D02*
X7443981Y-26562004D01*
X7510648Y-26362004D02*
X7643981Y-26362004D01*
X7643981Y-26362004D02*
X7558267Y-26562004D01*
X7805886Y-26362004D02*
X7767791Y-26362004D01*
X7767791Y-26362004D02*
X7748743Y-26371528D01*
X7748743Y-26371528D02*
X7739219Y-26381051D01*
X7739219Y-26381051D02*
X7720172Y-26409623D01*
X7720172Y-26409623D02*
X7710648Y-26447718D01*
X7710648Y-26447718D02*
X7710648Y-26523908D01*
X7710648Y-26523908D02*
X7720172Y-26542956D01*
X7720172Y-26542956D02*
X7729696Y-26552480D01*
X7729696Y-26552480D02*
X7748743Y-26562004D01*
X7748743Y-26562004D02*
X7786838Y-26562004D01*
X7786838Y-26562004D02*
X7805886Y-26552480D01*
X7805886Y-26552480D02*
X7815410Y-26542956D01*
X7815410Y-26542956D02*
X7824934Y-26523908D01*
X7824934Y-26523908D02*
X7824934Y-26476289D01*
X7824934Y-26476289D02*
X7815410Y-26457242D01*
X7815410Y-26457242D02*
X7805886Y-26447718D01*
X7805886Y-26447718D02*
X7786838Y-26438194D01*
X7786838Y-26438194D02*
X7748743Y-26438194D01*
X7748743Y-26438194D02*
X7729696Y-26447718D01*
X7729696Y-26447718D02*
X7720172Y-26457242D01*
X7720172Y-26457242D02*
X7710648Y-26476289D01*
X7901124Y-26362004D02*
X7901124Y-26400099D01*
X7977315Y-26362004D02*
X7977315Y-26400099D01*
X8272553Y-26638194D02*
X8263029Y-26628670D01*
X8263029Y-26628670D02*
X8243981Y-26600099D01*
X8243981Y-26600099D02*
X8234458Y-26581051D01*
X8234458Y-26581051D02*
X8224934Y-26552480D01*
X8224934Y-26552480D02*
X8215410Y-26504861D01*
X8215410Y-26504861D02*
X8215410Y-26466766D01*
X8215410Y-26466766D02*
X8224934Y-26419147D01*
X8224934Y-26419147D02*
X8234458Y-26390575D01*
X8234458Y-26390575D02*
X8243981Y-26371528D01*
X8243981Y-26371528D02*
X8263029Y-26342956D01*
X8263029Y-26342956D02*
X8272553Y-26333432D01*
X8434458Y-26362004D02*
X8396362Y-26362004D01*
X8396362Y-26362004D02*
X8377315Y-26371528D01*
X8377315Y-26371528D02*
X8367791Y-26381051D01*
X8367791Y-26381051D02*
X8348743Y-26409623D01*
X8348743Y-26409623D02*
X8339219Y-26447718D01*
X8339219Y-26447718D02*
X8339219Y-26523908D01*
X8339219Y-26523908D02*
X8348743Y-26542956D01*
X8348743Y-26542956D02*
X8358267Y-26552480D01*
X8358267Y-26552480D02*
X8377315Y-26562004D01*
X8377315Y-26562004D02*
X8415410Y-26562004D01*
X8415410Y-26562004D02*
X8434458Y-26552480D01*
X8434458Y-26552480D02*
X8443981Y-26542956D01*
X8443981Y-26542956D02*
X8453505Y-26523908D01*
X8453505Y-26523908D02*
X8453505Y-26476289D01*
X8453505Y-26476289D02*
X8443981Y-26457242D01*
X8443981Y-26457242D02*
X8434458Y-26447718D01*
X8434458Y-26447718D02*
X8415410Y-26438194D01*
X8415410Y-26438194D02*
X8377315Y-26438194D01*
X8377315Y-26438194D02*
X8358267Y-26447718D01*
X8358267Y-26447718D02*
X8348743Y-26457242D01*
X8348743Y-26457242D02*
X8339219Y-26476289D01*
X8691601Y-26562004D02*
X8691601Y-26362004D01*
X8777315Y-26562004D02*
X8777315Y-26457242D01*
X8777315Y-26457242D02*
X8767791Y-26438194D01*
X8767791Y-26438194D02*
X8748743Y-26428670D01*
X8748743Y-26428670D02*
X8720172Y-26428670D01*
X8720172Y-26428670D02*
X8701124Y-26438194D01*
X8701124Y-26438194D02*
X8691601Y-26447718D01*
X8901124Y-26562004D02*
X8882077Y-26552480D01*
X8882077Y-26552480D02*
X8872553Y-26542956D01*
X8872553Y-26542956D02*
X8863029Y-26523908D01*
X8863029Y-26523908D02*
X8863029Y-26466766D01*
X8863029Y-26466766D02*
X8872553Y-26447718D01*
X8872553Y-26447718D02*
X8882077Y-26438194D01*
X8882077Y-26438194D02*
X8901124Y-26428670D01*
X8901124Y-26428670D02*
X8929696Y-26428670D01*
X8929696Y-26428670D02*
X8948743Y-26438194D01*
X8948743Y-26438194D02*
X8958267Y-26447718D01*
X8958267Y-26447718D02*
X8967791Y-26466766D01*
X8967791Y-26466766D02*
X8967791Y-26523908D01*
X8967791Y-26523908D02*
X8958267Y-26542956D01*
X8958267Y-26542956D02*
X8948743Y-26552480D01*
X8948743Y-26552480D02*
X8929696Y-26562004D01*
X8929696Y-26562004D02*
X8901124Y-26562004D01*
X9082077Y-26562004D02*
X9063029Y-26552480D01*
X9063029Y-26552480D02*
X9053505Y-26533432D01*
X9053505Y-26533432D02*
X9053505Y-26362004D01*
X9234458Y-26552480D02*
X9215410Y-26562004D01*
X9215410Y-26562004D02*
X9177315Y-26562004D01*
X9177315Y-26562004D02*
X9158267Y-26552480D01*
X9158267Y-26552480D02*
X9148743Y-26533432D01*
X9148743Y-26533432D02*
X9148743Y-26457242D01*
X9148743Y-26457242D02*
X9158267Y-26438194D01*
X9158267Y-26438194D02*
X9177315Y-26428670D01*
X9177315Y-26428670D02*
X9215410Y-26428670D01*
X9215410Y-26428670D02*
X9234458Y-26438194D01*
X9234458Y-26438194D02*
X9243982Y-26457242D01*
X9243982Y-26457242D02*
X9243982Y-26476289D01*
X9243982Y-26476289D02*
X9148743Y-26495337D01*
X9320172Y-26552480D02*
X9339220Y-26562004D01*
X9339220Y-26562004D02*
X9377315Y-26562004D01*
X9377315Y-26562004D02*
X9396363Y-26552480D01*
X9396363Y-26552480D02*
X9405886Y-26533432D01*
X9405886Y-26533432D02*
X9405886Y-26523908D01*
X9405886Y-26523908D02*
X9396363Y-26504861D01*
X9396363Y-26504861D02*
X9377315Y-26495337D01*
X9377315Y-26495337D02*
X9348743Y-26495337D01*
X9348743Y-26495337D02*
X9329696Y-26485813D01*
X9329696Y-26485813D02*
X9320172Y-26466766D01*
X9320172Y-26466766D02*
X9320172Y-26457242D01*
X9320172Y-26457242D02*
X9329696Y-26438194D01*
X9329696Y-26438194D02*
X9348743Y-26428670D01*
X9348743Y-26428670D02*
X9377315Y-26428670D01*
X9377315Y-26428670D02*
X9396363Y-26438194D01*
X9472553Y-26638194D02*
X9482077Y-26628670D01*
X9482077Y-26628670D02*
X9501124Y-26600099D01*
X9501124Y-26600099D02*
X9510648Y-26581051D01*
X9510648Y-26581051D02*
X9520172Y-26552480D01*
X9520172Y-26552480D02*
X9529696Y-26504861D01*
X9529696Y-26504861D02*
X9529696Y-26466766D01*
X9529696Y-26466766D02*
X9520172Y-26419147D01*
X9520172Y-26419147D02*
X9510648Y-26390575D01*
X9510648Y-26390575D02*
X9501124Y-26371528D01*
X9501124Y-26371528D02*
X9482077Y-26342956D01*
X9482077Y-26342956D02*
X9472553Y-26333432D01*
D15*
X4686507Y-26761037D02*
X4686507Y-26708003D01*
X4633473Y-26708003D01*
X4633473Y-26761037D01*
X4686507Y-26761037D01*
D11*
X4996362Y-26626004D02*
X5015410Y-26626004D01*
X5015410Y-26626004D02*
X5034457Y-26635528D01*
X5034457Y-26635528D02*
X5043981Y-26645051D01*
X5043981Y-26645051D02*
X5053505Y-26664099D01*
X5053505Y-26664099D02*
X5063029Y-26702194D01*
X5063029Y-26702194D02*
X5063029Y-26749813D01*
X5063029Y-26749813D02*
X5053505Y-26787908D01*
X5053505Y-26787908D02*
X5043981Y-26806956D01*
X5043981Y-26806956D02*
X5034457Y-26816480D01*
X5034457Y-26816480D02*
X5015410Y-26826004D01*
X5015410Y-26826004D02*
X4996362Y-26826004D01*
X4996362Y-26826004D02*
X4977314Y-26816480D01*
X4977314Y-26816480D02*
X4967791Y-26806956D01*
X4967791Y-26806956D02*
X4958267Y-26787908D01*
X4958267Y-26787908D02*
X4948743Y-26749813D01*
X4948743Y-26749813D02*
X4948743Y-26702194D01*
X4948743Y-26702194D02*
X4958267Y-26664099D01*
X4958267Y-26664099D02*
X4967791Y-26645051D01*
X4967791Y-26645051D02*
X4977314Y-26635528D01*
X4977314Y-26635528D02*
X4996362Y-26626004D01*
X5148743Y-26806956D02*
X5158267Y-26816480D01*
X5158267Y-26816480D02*
X5148743Y-26826004D01*
X5148743Y-26826004D02*
X5139219Y-26816480D01*
X5139219Y-26816480D02*
X5148743Y-26806956D01*
X5148743Y-26806956D02*
X5148743Y-26826004D01*
X5224934Y-26626004D02*
X5358267Y-26626004D01*
X5358267Y-26626004D02*
X5272553Y-26826004D01*
X5529695Y-26626004D02*
X5434457Y-26626004D01*
X5434457Y-26626004D02*
X5424934Y-26721242D01*
X5424934Y-26721242D02*
X5434457Y-26711718D01*
X5434457Y-26711718D02*
X5453505Y-26702194D01*
X5453505Y-26702194D02*
X5501124Y-26702194D01*
X5501124Y-26702194D02*
X5520172Y-26711718D01*
X5520172Y-26711718D02*
X5529695Y-26721242D01*
X5529695Y-26721242D02*
X5539219Y-26740289D01*
X5539219Y-26740289D02*
X5539219Y-26787908D01*
X5539219Y-26787908D02*
X5529695Y-26806956D01*
X5529695Y-26806956D02*
X5520172Y-26816480D01*
X5520172Y-26816480D02*
X5501124Y-26826004D01*
X5501124Y-26826004D02*
X5453505Y-26826004D01*
X5453505Y-26826004D02*
X5434457Y-26816480D01*
X5434457Y-26816480D02*
X5424934Y-26806956D01*
X5663029Y-26626004D02*
X5682076Y-26626004D01*
X5682076Y-26626004D02*
X5701124Y-26635528D01*
X5701124Y-26635528D02*
X5710648Y-26645051D01*
X5710648Y-26645051D02*
X5720172Y-26664099D01*
X5720172Y-26664099D02*
X5729695Y-26702194D01*
X5729695Y-26702194D02*
X5729695Y-26749813D01*
X5729695Y-26749813D02*
X5720172Y-26787908D01*
X5720172Y-26787908D02*
X5710648Y-26806956D01*
X5710648Y-26806956D02*
X5701124Y-26816480D01*
X5701124Y-26816480D02*
X5682076Y-26826004D01*
X5682076Y-26826004D02*
X5663029Y-26826004D01*
X5663029Y-26826004D02*
X5643981Y-26816480D01*
X5643981Y-26816480D02*
X5634457Y-26806956D01*
X5634457Y-26806956D02*
X5624933Y-26787908D01*
X5624933Y-26787908D02*
X5615410Y-26749813D01*
X5615410Y-26749813D02*
X5615410Y-26702194D01*
X5615410Y-26702194D02*
X5624933Y-26664099D01*
X5624933Y-26664099D02*
X5634457Y-26645051D01*
X5634457Y-26645051D02*
X5643981Y-26635528D01*
X5643981Y-26635528D02*
X5663029Y-26626004D01*
X5815410Y-26826004D02*
X5815410Y-26692670D01*
X5815410Y-26711718D02*
X5824933Y-26702194D01*
X5824933Y-26702194D02*
X5843981Y-26692670D01*
X5843981Y-26692670D02*
X5872553Y-26692670D01*
X5872553Y-26692670D02*
X5891600Y-26702194D01*
X5891600Y-26702194D02*
X5901124Y-26721242D01*
X5901124Y-26721242D02*
X5901124Y-26826004D01*
X5901124Y-26721242D02*
X5910648Y-26702194D01*
X5910648Y-26702194D02*
X5929695Y-26692670D01*
X5929695Y-26692670D02*
X5958267Y-26692670D01*
X5958267Y-26692670D02*
X5977314Y-26702194D01*
X5977314Y-26702194D02*
X5986838Y-26721242D01*
X5986838Y-26721242D02*
X5986838Y-26826004D01*
X6082076Y-26826004D02*
X6082076Y-26692670D01*
X6082076Y-26711718D02*
X6091600Y-26702194D01*
X6091600Y-26702194D02*
X6110648Y-26692670D01*
X6110648Y-26692670D02*
X6139219Y-26692670D01*
X6139219Y-26692670D02*
X6158267Y-26702194D01*
X6158267Y-26702194D02*
X6167791Y-26721242D01*
X6167791Y-26721242D02*
X6167791Y-26826004D01*
X6167791Y-26721242D02*
X6177314Y-26702194D01*
X6177314Y-26702194D02*
X6196362Y-26692670D01*
X6196362Y-26692670D02*
X6224933Y-26692670D01*
X6224933Y-26692670D02*
X6243981Y-26702194D01*
X6243981Y-26702194D02*
X6253505Y-26721242D01*
X6253505Y-26721242D02*
X6253505Y-26826004D01*
X6643981Y-26616480D02*
X6472553Y-26873623D01*
X6901124Y-26626004D02*
X6920172Y-26626004D01*
X6920172Y-26626004D02*
X6939219Y-26635528D01*
X6939219Y-26635528D02*
X6948743Y-26645051D01*
X6948743Y-26645051D02*
X6958267Y-26664099D01*
X6958267Y-26664099D02*
X6967791Y-26702194D01*
X6967791Y-26702194D02*
X6967791Y-26749813D01*
X6967791Y-26749813D02*
X6958267Y-26787908D01*
X6958267Y-26787908D02*
X6948743Y-26806956D01*
X6948743Y-26806956D02*
X6939219Y-26816480D01*
X6939219Y-26816480D02*
X6920172Y-26826004D01*
X6920172Y-26826004D02*
X6901124Y-26826004D01*
X6901124Y-26826004D02*
X6882076Y-26816480D01*
X6882076Y-26816480D02*
X6872553Y-26806956D01*
X6872553Y-26806956D02*
X6863029Y-26787908D01*
X6863029Y-26787908D02*
X6853505Y-26749813D01*
X6853505Y-26749813D02*
X6853505Y-26702194D01*
X6853505Y-26702194D02*
X6863029Y-26664099D01*
X6863029Y-26664099D02*
X6872553Y-26645051D01*
X6872553Y-26645051D02*
X6882076Y-26635528D01*
X6882076Y-26635528D02*
X6901124Y-26626004D01*
X7053505Y-26806956D02*
X7063029Y-26816480D01*
X7063029Y-26816480D02*
X7053505Y-26826004D01*
X7053505Y-26826004D02*
X7043981Y-26816480D01*
X7043981Y-26816480D02*
X7053505Y-26806956D01*
X7053505Y-26806956D02*
X7053505Y-26826004D01*
X7186838Y-26626004D02*
X7205886Y-26626004D01*
X7205886Y-26626004D02*
X7224934Y-26635528D01*
X7224934Y-26635528D02*
X7234457Y-26645051D01*
X7234457Y-26645051D02*
X7243981Y-26664099D01*
X7243981Y-26664099D02*
X7253505Y-26702194D01*
X7253505Y-26702194D02*
X7253505Y-26749813D01*
X7253505Y-26749813D02*
X7243981Y-26787908D01*
X7243981Y-26787908D02*
X7234457Y-26806956D01*
X7234457Y-26806956D02*
X7224934Y-26816480D01*
X7224934Y-26816480D02*
X7205886Y-26826004D01*
X7205886Y-26826004D02*
X7186838Y-26826004D01*
X7186838Y-26826004D02*
X7167791Y-26816480D01*
X7167791Y-26816480D02*
X7158267Y-26806956D01*
X7158267Y-26806956D02*
X7148743Y-26787908D01*
X7148743Y-26787908D02*
X7139219Y-26749813D01*
X7139219Y-26749813D02*
X7139219Y-26702194D01*
X7139219Y-26702194D02*
X7148743Y-26664099D01*
X7148743Y-26664099D02*
X7158267Y-26645051D01*
X7158267Y-26645051D02*
X7167791Y-26635528D01*
X7167791Y-26635528D02*
X7186838Y-26626004D01*
X7329696Y-26645051D02*
X7339219Y-26635528D01*
X7339219Y-26635528D02*
X7358267Y-26626004D01*
X7358267Y-26626004D02*
X7405886Y-26626004D01*
X7405886Y-26626004D02*
X7424934Y-26635528D01*
X7424934Y-26635528D02*
X7434457Y-26645051D01*
X7434457Y-26645051D02*
X7443981Y-26664099D01*
X7443981Y-26664099D02*
X7443981Y-26683147D01*
X7443981Y-26683147D02*
X7434457Y-26711718D01*
X7434457Y-26711718D02*
X7320172Y-26826004D01*
X7320172Y-26826004D02*
X7443981Y-26826004D01*
X7539219Y-26826004D02*
X7577315Y-26826004D01*
X7577315Y-26826004D02*
X7596362Y-26816480D01*
X7596362Y-26816480D02*
X7605886Y-26806956D01*
X7605886Y-26806956D02*
X7624934Y-26778385D01*
X7624934Y-26778385D02*
X7634457Y-26740289D01*
X7634457Y-26740289D02*
X7634457Y-26664099D01*
X7634457Y-26664099D02*
X7624934Y-26645051D01*
X7624934Y-26645051D02*
X7615410Y-26635528D01*
X7615410Y-26635528D02*
X7596362Y-26626004D01*
X7596362Y-26626004D02*
X7558267Y-26626004D01*
X7558267Y-26626004D02*
X7539219Y-26635528D01*
X7539219Y-26635528D02*
X7529696Y-26645051D01*
X7529696Y-26645051D02*
X7520172Y-26664099D01*
X7520172Y-26664099D02*
X7520172Y-26711718D01*
X7520172Y-26711718D02*
X7529696Y-26730766D01*
X7529696Y-26730766D02*
X7539219Y-26740289D01*
X7539219Y-26740289D02*
X7558267Y-26749813D01*
X7558267Y-26749813D02*
X7596362Y-26749813D01*
X7596362Y-26749813D02*
X7615410Y-26740289D01*
X7615410Y-26740289D02*
X7624934Y-26730766D01*
X7624934Y-26730766D02*
X7634457Y-26711718D01*
X7815410Y-26626004D02*
X7720172Y-26626004D01*
X7720172Y-26626004D02*
X7710648Y-26721242D01*
X7710648Y-26721242D02*
X7720172Y-26711718D01*
X7720172Y-26711718D02*
X7739219Y-26702194D01*
X7739219Y-26702194D02*
X7786838Y-26702194D01*
X7786838Y-26702194D02*
X7805886Y-26711718D01*
X7805886Y-26711718D02*
X7815410Y-26721242D01*
X7815410Y-26721242D02*
X7824934Y-26740289D01*
X7824934Y-26740289D02*
X7824934Y-26787908D01*
X7824934Y-26787908D02*
X7815410Y-26806956D01*
X7815410Y-26806956D02*
X7805886Y-26816480D01*
X7805886Y-26816480D02*
X7786838Y-26826004D01*
X7786838Y-26826004D02*
X7739219Y-26826004D01*
X7739219Y-26826004D02*
X7720172Y-26816480D01*
X7720172Y-26816480D02*
X7710648Y-26806956D01*
X7901124Y-26626004D02*
X7901124Y-26664099D01*
X7977315Y-26626004D02*
X7977315Y-26664099D01*
X8272553Y-26902194D02*
X8263029Y-26892670D01*
X8263029Y-26892670D02*
X8243981Y-26864099D01*
X8243981Y-26864099D02*
X8234458Y-26845051D01*
X8234458Y-26845051D02*
X8224934Y-26816480D01*
X8224934Y-26816480D02*
X8215410Y-26768861D01*
X8215410Y-26768861D02*
X8215410Y-26730766D01*
X8215410Y-26730766D02*
X8224934Y-26683147D01*
X8224934Y-26683147D02*
X8234458Y-26654575D01*
X8234458Y-26654575D02*
X8243981Y-26635528D01*
X8243981Y-26635528D02*
X8263029Y-26606956D01*
X8263029Y-26606956D02*
X8272553Y-26597432D01*
X8443981Y-26626004D02*
X8348743Y-26626004D01*
X8348743Y-26626004D02*
X8339219Y-26721242D01*
X8339219Y-26721242D02*
X8348743Y-26711718D01*
X8348743Y-26711718D02*
X8367791Y-26702194D01*
X8367791Y-26702194D02*
X8415410Y-26702194D01*
X8415410Y-26702194D02*
X8434458Y-26711718D01*
X8434458Y-26711718D02*
X8443981Y-26721242D01*
X8443981Y-26721242D02*
X8453505Y-26740289D01*
X8453505Y-26740289D02*
X8453505Y-26787908D01*
X8453505Y-26787908D02*
X8443981Y-26806956D01*
X8443981Y-26806956D02*
X8434458Y-26816480D01*
X8434458Y-26816480D02*
X8415410Y-26826004D01*
X8415410Y-26826004D02*
X8367791Y-26826004D01*
X8367791Y-26826004D02*
X8348743Y-26816480D01*
X8348743Y-26816480D02*
X8339219Y-26806956D01*
X8691601Y-26826004D02*
X8691601Y-26626004D01*
X8777315Y-26826004D02*
X8777315Y-26721242D01*
X8777315Y-26721242D02*
X8767791Y-26702194D01*
X8767791Y-26702194D02*
X8748743Y-26692670D01*
X8748743Y-26692670D02*
X8720172Y-26692670D01*
X8720172Y-26692670D02*
X8701124Y-26702194D01*
X8701124Y-26702194D02*
X8691601Y-26711718D01*
X8901124Y-26826004D02*
X8882077Y-26816480D01*
X8882077Y-26816480D02*
X8872553Y-26806956D01*
X8872553Y-26806956D02*
X8863029Y-26787908D01*
X8863029Y-26787908D02*
X8863029Y-26730766D01*
X8863029Y-26730766D02*
X8872553Y-26711718D01*
X8872553Y-26711718D02*
X8882077Y-26702194D01*
X8882077Y-26702194D02*
X8901124Y-26692670D01*
X8901124Y-26692670D02*
X8929696Y-26692670D01*
X8929696Y-26692670D02*
X8948743Y-26702194D01*
X8948743Y-26702194D02*
X8958267Y-26711718D01*
X8958267Y-26711718D02*
X8967791Y-26730766D01*
X8967791Y-26730766D02*
X8967791Y-26787908D01*
X8967791Y-26787908D02*
X8958267Y-26806956D01*
X8958267Y-26806956D02*
X8948743Y-26816480D01*
X8948743Y-26816480D02*
X8929696Y-26826004D01*
X8929696Y-26826004D02*
X8901124Y-26826004D01*
X9082077Y-26826004D02*
X9063029Y-26816480D01*
X9063029Y-26816480D02*
X9053505Y-26797432D01*
X9053505Y-26797432D02*
X9053505Y-26626004D01*
X9234458Y-26816480D02*
X9215410Y-26826004D01*
X9215410Y-26826004D02*
X9177315Y-26826004D01*
X9177315Y-26826004D02*
X9158267Y-26816480D01*
X9158267Y-26816480D02*
X9148743Y-26797432D01*
X9148743Y-26797432D02*
X9148743Y-26721242D01*
X9148743Y-26721242D02*
X9158267Y-26702194D01*
X9158267Y-26702194D02*
X9177315Y-26692670D01*
X9177315Y-26692670D02*
X9215410Y-26692670D01*
X9215410Y-26692670D02*
X9234458Y-26702194D01*
X9234458Y-26702194D02*
X9243982Y-26721242D01*
X9243982Y-26721242D02*
X9243982Y-26740289D01*
X9243982Y-26740289D02*
X9148743Y-26759337D01*
X9320172Y-26816480D02*
X9339220Y-26826004D01*
X9339220Y-26826004D02*
X9377315Y-26826004D01*
X9377315Y-26826004D02*
X9396363Y-26816480D01*
X9396363Y-26816480D02*
X9405886Y-26797432D01*
X9405886Y-26797432D02*
X9405886Y-26787908D01*
X9405886Y-26787908D02*
X9396363Y-26768861D01*
X9396363Y-26768861D02*
X9377315Y-26759337D01*
X9377315Y-26759337D02*
X9348743Y-26759337D01*
X9348743Y-26759337D02*
X9329696Y-26749813D01*
X9329696Y-26749813D02*
X9320172Y-26730766D01*
X9320172Y-26730766D02*
X9320172Y-26721242D01*
X9320172Y-26721242D02*
X9329696Y-26702194D01*
X9329696Y-26702194D02*
X9348743Y-26692670D01*
X9348743Y-26692670D02*
X9377315Y-26692670D01*
X9377315Y-26692670D02*
X9396363Y-26702194D01*
X9472553Y-26902194D02*
X9482077Y-26892670D01*
X9482077Y-26892670D02*
X9501124Y-26864099D01*
X9501124Y-26864099D02*
X9510648Y-26845051D01*
X9510648Y-26845051D02*
X9520172Y-26816480D01*
X9520172Y-26816480D02*
X9529696Y-26768861D01*
X9529696Y-26768861D02*
X9529696Y-26730766D01*
X9529696Y-26730766D02*
X9520172Y-26683147D01*
X9520172Y-26683147D02*
X9510648Y-26654575D01*
X9510648Y-26654575D02*
X9501124Y-26635528D01*
X9501124Y-26635528D02*
X9482077Y-26606956D01*
X9482077Y-26606956D02*
X9472553Y-26597432D01*
D16*
X4657490Y-27038520D02*
X4697490Y-26998520D01*
X4657490Y-26958520D01*
X4617490Y-26998520D01*
X4657490Y-27038520D01*
D11*
X4996362Y-26890004D02*
X5015410Y-26890004D01*
X5015410Y-26890004D02*
X5034457Y-26899528D01*
X5034457Y-26899528D02*
X5043981Y-26909051D01*
X5043981Y-26909051D02*
X5053505Y-26928099D01*
X5053505Y-26928099D02*
X5063029Y-26966194D01*
X5063029Y-26966194D02*
X5063029Y-27013813D01*
X5063029Y-27013813D02*
X5053505Y-27051908D01*
X5053505Y-27051908D02*
X5043981Y-27070956D01*
X5043981Y-27070956D02*
X5034457Y-27080480D01*
X5034457Y-27080480D02*
X5015410Y-27090004D01*
X5015410Y-27090004D02*
X4996362Y-27090004D01*
X4996362Y-27090004D02*
X4977314Y-27080480D01*
X4977314Y-27080480D02*
X4967791Y-27070956D01*
X4967791Y-27070956D02*
X4958267Y-27051908D01*
X4958267Y-27051908D02*
X4948743Y-27013813D01*
X4948743Y-27013813D02*
X4948743Y-26966194D01*
X4948743Y-26966194D02*
X4958267Y-26928099D01*
X4958267Y-26928099D02*
X4967791Y-26909051D01*
X4967791Y-26909051D02*
X4977314Y-26899528D01*
X4977314Y-26899528D02*
X4996362Y-26890004D01*
X5148743Y-27070956D02*
X5158267Y-27080480D01*
X5158267Y-27080480D02*
X5148743Y-27090004D01*
X5148743Y-27090004D02*
X5139219Y-27080480D01*
X5139219Y-27080480D02*
X5148743Y-27070956D01*
X5148743Y-27070956D02*
X5148743Y-27090004D01*
X5272553Y-26975718D02*
X5253505Y-26966194D01*
X5253505Y-26966194D02*
X5243981Y-26956670D01*
X5243981Y-26956670D02*
X5234457Y-26937623D01*
X5234457Y-26937623D02*
X5234457Y-26928099D01*
X5234457Y-26928099D02*
X5243981Y-26909051D01*
X5243981Y-26909051D02*
X5253505Y-26899528D01*
X5253505Y-26899528D02*
X5272553Y-26890004D01*
X5272553Y-26890004D02*
X5310648Y-26890004D01*
X5310648Y-26890004D02*
X5329695Y-26899528D01*
X5329695Y-26899528D02*
X5339219Y-26909051D01*
X5339219Y-26909051D02*
X5348743Y-26928099D01*
X5348743Y-26928099D02*
X5348743Y-26937623D01*
X5348743Y-26937623D02*
X5339219Y-26956670D01*
X5339219Y-26956670D02*
X5329695Y-26966194D01*
X5329695Y-26966194D02*
X5310648Y-26975718D01*
X5310648Y-26975718D02*
X5272553Y-26975718D01*
X5272553Y-26975718D02*
X5253505Y-26985242D01*
X5253505Y-26985242D02*
X5243981Y-26994766D01*
X5243981Y-26994766D02*
X5234457Y-27013813D01*
X5234457Y-27013813D02*
X5234457Y-27051908D01*
X5234457Y-27051908D02*
X5243981Y-27070956D01*
X5243981Y-27070956D02*
X5253505Y-27080480D01*
X5253505Y-27080480D02*
X5272553Y-27090004D01*
X5272553Y-27090004D02*
X5310648Y-27090004D01*
X5310648Y-27090004D02*
X5329695Y-27080480D01*
X5329695Y-27080480D02*
X5339219Y-27070956D01*
X5339219Y-27070956D02*
X5348743Y-27051908D01*
X5348743Y-27051908D02*
X5348743Y-27013813D01*
X5348743Y-27013813D02*
X5339219Y-26994766D01*
X5339219Y-26994766D02*
X5329695Y-26985242D01*
X5329695Y-26985242D02*
X5310648Y-26975718D01*
X5472553Y-26890004D02*
X5491600Y-26890004D01*
X5491600Y-26890004D02*
X5510648Y-26899528D01*
X5510648Y-26899528D02*
X5520172Y-26909051D01*
X5520172Y-26909051D02*
X5529695Y-26928099D01*
X5529695Y-26928099D02*
X5539219Y-26966194D01*
X5539219Y-26966194D02*
X5539219Y-27013813D01*
X5539219Y-27013813D02*
X5529695Y-27051908D01*
X5529695Y-27051908D02*
X5520172Y-27070956D01*
X5520172Y-27070956D02*
X5510648Y-27080480D01*
X5510648Y-27080480D02*
X5491600Y-27090004D01*
X5491600Y-27090004D02*
X5472553Y-27090004D01*
X5472553Y-27090004D02*
X5453505Y-27080480D01*
X5453505Y-27080480D02*
X5443981Y-27070956D01*
X5443981Y-27070956D02*
X5434457Y-27051908D01*
X5434457Y-27051908D02*
X5424934Y-27013813D01*
X5424934Y-27013813D02*
X5424934Y-26966194D01*
X5424934Y-26966194D02*
X5434457Y-26928099D01*
X5434457Y-26928099D02*
X5443981Y-26909051D01*
X5443981Y-26909051D02*
X5453505Y-26899528D01*
X5453505Y-26899528D02*
X5472553Y-26890004D01*
X5663029Y-26890004D02*
X5682076Y-26890004D01*
X5682076Y-26890004D02*
X5701124Y-26899528D01*
X5701124Y-26899528D02*
X5710648Y-26909051D01*
X5710648Y-26909051D02*
X5720172Y-26928099D01*
X5720172Y-26928099D02*
X5729695Y-26966194D01*
X5729695Y-26966194D02*
X5729695Y-27013813D01*
X5729695Y-27013813D02*
X5720172Y-27051908D01*
X5720172Y-27051908D02*
X5710648Y-27070956D01*
X5710648Y-27070956D02*
X5701124Y-27080480D01*
X5701124Y-27080480D02*
X5682076Y-27090004D01*
X5682076Y-27090004D02*
X5663029Y-27090004D01*
X5663029Y-27090004D02*
X5643981Y-27080480D01*
X5643981Y-27080480D02*
X5634457Y-27070956D01*
X5634457Y-27070956D02*
X5624933Y-27051908D01*
X5624933Y-27051908D02*
X5615410Y-27013813D01*
X5615410Y-27013813D02*
X5615410Y-26966194D01*
X5615410Y-26966194D02*
X5624933Y-26928099D01*
X5624933Y-26928099D02*
X5634457Y-26909051D01*
X5634457Y-26909051D02*
X5643981Y-26899528D01*
X5643981Y-26899528D02*
X5663029Y-26890004D01*
X5815410Y-27090004D02*
X5815410Y-26956670D01*
X5815410Y-26975718D02*
X5824933Y-26966194D01*
X5824933Y-26966194D02*
X5843981Y-26956670D01*
X5843981Y-26956670D02*
X5872553Y-26956670D01*
X5872553Y-26956670D02*
X5891600Y-26966194D01*
X5891600Y-26966194D02*
X5901124Y-26985242D01*
X5901124Y-26985242D02*
X5901124Y-27090004D01*
X5901124Y-26985242D02*
X5910648Y-26966194D01*
X5910648Y-26966194D02*
X5929695Y-26956670D01*
X5929695Y-26956670D02*
X5958267Y-26956670D01*
X5958267Y-26956670D02*
X5977314Y-26966194D01*
X5977314Y-26966194D02*
X5986838Y-26985242D01*
X5986838Y-26985242D02*
X5986838Y-27090004D01*
X6082076Y-27090004D02*
X6082076Y-26956670D01*
X6082076Y-26975718D02*
X6091600Y-26966194D01*
X6091600Y-26966194D02*
X6110648Y-26956670D01*
X6110648Y-26956670D02*
X6139219Y-26956670D01*
X6139219Y-26956670D02*
X6158267Y-26966194D01*
X6158267Y-26966194D02*
X6167791Y-26985242D01*
X6167791Y-26985242D02*
X6167791Y-27090004D01*
X6167791Y-26985242D02*
X6177314Y-26966194D01*
X6177314Y-26966194D02*
X6196362Y-26956670D01*
X6196362Y-26956670D02*
X6224933Y-26956670D01*
X6224933Y-26956670D02*
X6243981Y-26966194D01*
X6243981Y-26966194D02*
X6253505Y-26985242D01*
X6253505Y-26985242D02*
X6253505Y-27090004D01*
X6643981Y-26880480D02*
X6472553Y-27137623D01*
X6901124Y-26890004D02*
X6920172Y-26890004D01*
X6920172Y-26890004D02*
X6939219Y-26899528D01*
X6939219Y-26899528D02*
X6948743Y-26909051D01*
X6948743Y-26909051D02*
X6958267Y-26928099D01*
X6958267Y-26928099D02*
X6967791Y-26966194D01*
X6967791Y-26966194D02*
X6967791Y-27013813D01*
X6967791Y-27013813D02*
X6958267Y-27051908D01*
X6958267Y-27051908D02*
X6948743Y-27070956D01*
X6948743Y-27070956D02*
X6939219Y-27080480D01*
X6939219Y-27080480D02*
X6920172Y-27090004D01*
X6920172Y-27090004D02*
X6901124Y-27090004D01*
X6901124Y-27090004D02*
X6882076Y-27080480D01*
X6882076Y-27080480D02*
X6872553Y-27070956D01*
X6872553Y-27070956D02*
X6863029Y-27051908D01*
X6863029Y-27051908D02*
X6853505Y-27013813D01*
X6853505Y-27013813D02*
X6853505Y-26966194D01*
X6853505Y-26966194D02*
X6863029Y-26928099D01*
X6863029Y-26928099D02*
X6872553Y-26909051D01*
X6872553Y-26909051D02*
X6882076Y-26899528D01*
X6882076Y-26899528D02*
X6901124Y-26890004D01*
X7053505Y-27070956D02*
X7063029Y-27080480D01*
X7063029Y-27080480D02*
X7053505Y-27090004D01*
X7053505Y-27090004D02*
X7043981Y-27080480D01*
X7043981Y-27080480D02*
X7053505Y-27070956D01*
X7053505Y-27070956D02*
X7053505Y-27090004D01*
X7186838Y-26890004D02*
X7205886Y-26890004D01*
X7205886Y-26890004D02*
X7224934Y-26899528D01*
X7224934Y-26899528D02*
X7234457Y-26909051D01*
X7234457Y-26909051D02*
X7243981Y-26928099D01*
X7243981Y-26928099D02*
X7253505Y-26966194D01*
X7253505Y-26966194D02*
X7253505Y-27013813D01*
X7253505Y-27013813D02*
X7243981Y-27051908D01*
X7243981Y-27051908D02*
X7234457Y-27070956D01*
X7234457Y-27070956D02*
X7224934Y-27080480D01*
X7224934Y-27080480D02*
X7205886Y-27090004D01*
X7205886Y-27090004D02*
X7186838Y-27090004D01*
X7186838Y-27090004D02*
X7167791Y-27080480D01*
X7167791Y-27080480D02*
X7158267Y-27070956D01*
X7158267Y-27070956D02*
X7148743Y-27051908D01*
X7148743Y-27051908D02*
X7139219Y-27013813D01*
X7139219Y-27013813D02*
X7139219Y-26966194D01*
X7139219Y-26966194D02*
X7148743Y-26928099D01*
X7148743Y-26928099D02*
X7158267Y-26909051D01*
X7158267Y-26909051D02*
X7167791Y-26899528D01*
X7167791Y-26899528D02*
X7186838Y-26890004D01*
X7320172Y-26890004D02*
X7443981Y-26890004D01*
X7443981Y-26890004D02*
X7377315Y-26966194D01*
X7377315Y-26966194D02*
X7405886Y-26966194D01*
X7405886Y-26966194D02*
X7424934Y-26975718D01*
X7424934Y-26975718D02*
X7434457Y-26985242D01*
X7434457Y-26985242D02*
X7443981Y-27004289D01*
X7443981Y-27004289D02*
X7443981Y-27051908D01*
X7443981Y-27051908D02*
X7434457Y-27070956D01*
X7434457Y-27070956D02*
X7424934Y-27080480D01*
X7424934Y-27080480D02*
X7405886Y-27090004D01*
X7405886Y-27090004D02*
X7348743Y-27090004D01*
X7348743Y-27090004D02*
X7329696Y-27080480D01*
X7329696Y-27080480D02*
X7320172Y-27070956D01*
X7634457Y-27090004D02*
X7520172Y-27090004D01*
X7577315Y-27090004D02*
X7577315Y-26890004D01*
X7577315Y-26890004D02*
X7558267Y-26918575D01*
X7558267Y-26918575D02*
X7539219Y-26937623D01*
X7539219Y-26937623D02*
X7520172Y-26947147D01*
X7815410Y-26890004D02*
X7720172Y-26890004D01*
X7720172Y-26890004D02*
X7710648Y-26985242D01*
X7710648Y-26985242D02*
X7720172Y-26975718D01*
X7720172Y-26975718D02*
X7739219Y-26966194D01*
X7739219Y-26966194D02*
X7786838Y-26966194D01*
X7786838Y-26966194D02*
X7805886Y-26975718D01*
X7805886Y-26975718D02*
X7815410Y-26985242D01*
X7815410Y-26985242D02*
X7824934Y-27004289D01*
X7824934Y-27004289D02*
X7824934Y-27051908D01*
X7824934Y-27051908D02*
X7815410Y-27070956D01*
X7815410Y-27070956D02*
X7805886Y-27080480D01*
X7805886Y-27080480D02*
X7786838Y-27090004D01*
X7786838Y-27090004D02*
X7739219Y-27090004D01*
X7739219Y-27090004D02*
X7720172Y-27080480D01*
X7720172Y-27080480D02*
X7710648Y-27070956D01*
X7901124Y-26890004D02*
X7901124Y-26928099D01*
X7977315Y-26890004D02*
X7977315Y-26928099D01*
X8272553Y-27166194D02*
X8263029Y-27156670D01*
X8263029Y-27156670D02*
X8243981Y-27128099D01*
X8243981Y-27128099D02*
X8234458Y-27109051D01*
X8234458Y-27109051D02*
X8224934Y-27080480D01*
X8224934Y-27080480D02*
X8215410Y-27032861D01*
X8215410Y-27032861D02*
X8215410Y-26994766D01*
X8215410Y-26994766D02*
X8224934Y-26947147D01*
X8224934Y-26947147D02*
X8234458Y-26918575D01*
X8234458Y-26918575D02*
X8243981Y-26899528D01*
X8243981Y-26899528D02*
X8263029Y-26870956D01*
X8263029Y-26870956D02*
X8272553Y-26861432D01*
X8443981Y-26890004D02*
X8348743Y-26890004D01*
X8348743Y-26890004D02*
X8339219Y-26985242D01*
X8339219Y-26985242D02*
X8348743Y-26975718D01*
X8348743Y-26975718D02*
X8367791Y-26966194D01*
X8367791Y-26966194D02*
X8415410Y-26966194D01*
X8415410Y-26966194D02*
X8434458Y-26975718D01*
X8434458Y-26975718D02*
X8443981Y-26985242D01*
X8443981Y-26985242D02*
X8453505Y-27004289D01*
X8453505Y-27004289D02*
X8453505Y-27051908D01*
X8453505Y-27051908D02*
X8443981Y-27070956D01*
X8443981Y-27070956D02*
X8434458Y-27080480D01*
X8434458Y-27080480D02*
X8415410Y-27090004D01*
X8415410Y-27090004D02*
X8367791Y-27090004D01*
X8367791Y-27090004D02*
X8348743Y-27080480D01*
X8348743Y-27080480D02*
X8339219Y-27070956D01*
X8624934Y-26956670D02*
X8624934Y-27090004D01*
X8577315Y-26880480D02*
X8529696Y-27023337D01*
X8529696Y-27023337D02*
X8653505Y-27023337D01*
X8882077Y-27090004D02*
X8882077Y-26890004D01*
X8967791Y-27090004D02*
X8967791Y-26985242D01*
X8967791Y-26985242D02*
X8958267Y-26966194D01*
X8958267Y-26966194D02*
X8939220Y-26956670D01*
X8939220Y-26956670D02*
X8910648Y-26956670D01*
X8910648Y-26956670D02*
X8891601Y-26966194D01*
X8891601Y-26966194D02*
X8882077Y-26975718D01*
X9091601Y-27090004D02*
X9072553Y-27080480D01*
X9072553Y-27080480D02*
X9063029Y-27070956D01*
X9063029Y-27070956D02*
X9053505Y-27051908D01*
X9053505Y-27051908D02*
X9053505Y-26994766D01*
X9053505Y-26994766D02*
X9063029Y-26975718D01*
X9063029Y-26975718D02*
X9072553Y-26966194D01*
X9072553Y-26966194D02*
X9091601Y-26956670D01*
X9091601Y-26956670D02*
X9120172Y-26956670D01*
X9120172Y-26956670D02*
X9139220Y-26966194D01*
X9139220Y-26966194D02*
X9148743Y-26975718D01*
X9148743Y-26975718D02*
X9158267Y-26994766D01*
X9158267Y-26994766D02*
X9158267Y-27051908D01*
X9158267Y-27051908D02*
X9148743Y-27070956D01*
X9148743Y-27070956D02*
X9139220Y-27080480D01*
X9139220Y-27080480D02*
X9120172Y-27090004D01*
X9120172Y-27090004D02*
X9091601Y-27090004D01*
X9272553Y-27090004D02*
X9253505Y-27080480D01*
X9253505Y-27080480D02*
X9243982Y-27061432D01*
X9243982Y-27061432D02*
X9243982Y-26890004D01*
X9424934Y-27080480D02*
X9405886Y-27090004D01*
X9405886Y-27090004D02*
X9367791Y-27090004D01*
X9367791Y-27090004D02*
X9348743Y-27080480D01*
X9348743Y-27080480D02*
X9339220Y-27061432D01*
X9339220Y-27061432D02*
X9339220Y-26985242D01*
X9339220Y-26985242D02*
X9348743Y-26966194D01*
X9348743Y-26966194D02*
X9367791Y-26956670D01*
X9367791Y-26956670D02*
X9405886Y-26956670D01*
X9405886Y-26956670D02*
X9424934Y-26966194D01*
X9424934Y-26966194D02*
X9434458Y-26985242D01*
X9434458Y-26985242D02*
X9434458Y-27004289D01*
X9434458Y-27004289D02*
X9339220Y-27023337D01*
X9510648Y-27080480D02*
X9529696Y-27090004D01*
X9529696Y-27090004D02*
X9567791Y-27090004D01*
X9567791Y-27090004D02*
X9586839Y-27080480D01*
X9586839Y-27080480D02*
X9596363Y-27061432D01*
X9596363Y-27061432D02*
X9596363Y-27051908D01*
X9596363Y-27051908D02*
X9586839Y-27032861D01*
X9586839Y-27032861D02*
X9567791Y-27023337D01*
X9567791Y-27023337D02*
X9539220Y-27023337D01*
X9539220Y-27023337D02*
X9520172Y-27013813D01*
X9520172Y-27013813D02*
X9510648Y-26994766D01*
X9510648Y-26994766D02*
X9510648Y-26985242D01*
X9510648Y-26985242D02*
X9520172Y-26966194D01*
X9520172Y-26966194D02*
X9539220Y-26956670D01*
X9539220Y-26956670D02*
X9567791Y-26956670D01*
X9567791Y-26956670D02*
X9586839Y-26966194D01*
X9663029Y-27166194D02*
X9672553Y-27156670D01*
X9672553Y-27156670D02*
X9691601Y-27128099D01*
X9691601Y-27128099D02*
X9701124Y-27109051D01*
X9701124Y-27109051D02*
X9710648Y-27080480D01*
X9710648Y-27080480D02*
X9720172Y-27032861D01*
X9720172Y-27032861D02*
X9720172Y-26994766D01*
X9720172Y-26994766D02*
X9710648Y-26947147D01*
X9710648Y-26947147D02*
X9701124Y-26918575D01*
X9701124Y-26918575D02*
X9691601Y-26899528D01*
X9691601Y-26899528D02*
X9672553Y-26870956D01*
X9672553Y-26870956D02*
X9663029Y-26861432D01*
D17*
X4597490Y-27212520D02*
X4697490Y-27312520D01*
X4697490Y-27212520D02*
X4597490Y-27312520D01*
X4697490Y-27262520D02*
G75*
G03*
X4697490Y-27262520I-50000J0D01*
G01*
D11*
X5063029Y-27354004D02*
X4948743Y-27354004D01*
X5005886Y-27354004D02*
X5005886Y-27154004D01*
X5005886Y-27154004D02*
X4986838Y-27182575D01*
X4986838Y-27182575D02*
X4967791Y-27201623D01*
X4967791Y-27201623D02*
X4948743Y-27211147D01*
X5148743Y-27334956D02*
X5158267Y-27344480D01*
X5158267Y-27344480D02*
X5148743Y-27354004D01*
X5148743Y-27354004D02*
X5139219Y-27344480D01*
X5139219Y-27344480D02*
X5148743Y-27334956D01*
X5148743Y-27334956D02*
X5148743Y-27354004D01*
X5282076Y-27154004D02*
X5301124Y-27154004D01*
X5301124Y-27154004D02*
X5320172Y-27163528D01*
X5320172Y-27163528D02*
X5329695Y-27173051D01*
X5329695Y-27173051D02*
X5339219Y-27192099D01*
X5339219Y-27192099D02*
X5348743Y-27230194D01*
X5348743Y-27230194D02*
X5348743Y-27277813D01*
X5348743Y-27277813D02*
X5339219Y-27315908D01*
X5339219Y-27315908D02*
X5329695Y-27334956D01*
X5329695Y-27334956D02*
X5320172Y-27344480D01*
X5320172Y-27344480D02*
X5301124Y-27354004D01*
X5301124Y-27354004D02*
X5282076Y-27354004D01*
X5282076Y-27354004D02*
X5263029Y-27344480D01*
X5263029Y-27344480D02*
X5253505Y-27334956D01*
X5253505Y-27334956D02*
X5243981Y-27315908D01*
X5243981Y-27315908D02*
X5234457Y-27277813D01*
X5234457Y-27277813D02*
X5234457Y-27230194D01*
X5234457Y-27230194D02*
X5243981Y-27192099D01*
X5243981Y-27192099D02*
X5253505Y-27173051D01*
X5253505Y-27173051D02*
X5263029Y-27163528D01*
X5263029Y-27163528D02*
X5282076Y-27154004D01*
X5472553Y-27154004D02*
X5491600Y-27154004D01*
X5491600Y-27154004D02*
X5510648Y-27163528D01*
X5510648Y-27163528D02*
X5520172Y-27173051D01*
X5520172Y-27173051D02*
X5529695Y-27192099D01*
X5529695Y-27192099D02*
X5539219Y-27230194D01*
X5539219Y-27230194D02*
X5539219Y-27277813D01*
X5539219Y-27277813D02*
X5529695Y-27315908D01*
X5529695Y-27315908D02*
X5520172Y-27334956D01*
X5520172Y-27334956D02*
X5510648Y-27344480D01*
X5510648Y-27344480D02*
X5491600Y-27354004D01*
X5491600Y-27354004D02*
X5472553Y-27354004D01*
X5472553Y-27354004D02*
X5453505Y-27344480D01*
X5453505Y-27344480D02*
X5443981Y-27334956D01*
X5443981Y-27334956D02*
X5434457Y-27315908D01*
X5434457Y-27315908D02*
X5424934Y-27277813D01*
X5424934Y-27277813D02*
X5424934Y-27230194D01*
X5424934Y-27230194D02*
X5434457Y-27192099D01*
X5434457Y-27192099D02*
X5443981Y-27173051D01*
X5443981Y-27173051D02*
X5453505Y-27163528D01*
X5453505Y-27163528D02*
X5472553Y-27154004D01*
X5663029Y-27154004D02*
X5682076Y-27154004D01*
X5682076Y-27154004D02*
X5701124Y-27163528D01*
X5701124Y-27163528D02*
X5710648Y-27173051D01*
X5710648Y-27173051D02*
X5720172Y-27192099D01*
X5720172Y-27192099D02*
X5729695Y-27230194D01*
X5729695Y-27230194D02*
X5729695Y-27277813D01*
X5729695Y-27277813D02*
X5720172Y-27315908D01*
X5720172Y-27315908D02*
X5710648Y-27334956D01*
X5710648Y-27334956D02*
X5701124Y-27344480D01*
X5701124Y-27344480D02*
X5682076Y-27354004D01*
X5682076Y-27354004D02*
X5663029Y-27354004D01*
X5663029Y-27354004D02*
X5643981Y-27344480D01*
X5643981Y-27344480D02*
X5634457Y-27334956D01*
X5634457Y-27334956D02*
X5624933Y-27315908D01*
X5624933Y-27315908D02*
X5615410Y-27277813D01*
X5615410Y-27277813D02*
X5615410Y-27230194D01*
X5615410Y-27230194D02*
X5624933Y-27192099D01*
X5624933Y-27192099D02*
X5634457Y-27173051D01*
X5634457Y-27173051D02*
X5643981Y-27163528D01*
X5643981Y-27163528D02*
X5663029Y-27154004D01*
X5815410Y-27354004D02*
X5815410Y-27220670D01*
X5815410Y-27239718D02*
X5824933Y-27230194D01*
X5824933Y-27230194D02*
X5843981Y-27220670D01*
X5843981Y-27220670D02*
X5872553Y-27220670D01*
X5872553Y-27220670D02*
X5891600Y-27230194D01*
X5891600Y-27230194D02*
X5901124Y-27249242D01*
X5901124Y-27249242D02*
X5901124Y-27354004D01*
X5901124Y-27249242D02*
X5910648Y-27230194D01*
X5910648Y-27230194D02*
X5929695Y-27220670D01*
X5929695Y-27220670D02*
X5958267Y-27220670D01*
X5958267Y-27220670D02*
X5977314Y-27230194D01*
X5977314Y-27230194D02*
X5986838Y-27249242D01*
X5986838Y-27249242D02*
X5986838Y-27354004D01*
X6082076Y-27354004D02*
X6082076Y-27220670D01*
X6082076Y-27239718D02*
X6091600Y-27230194D01*
X6091600Y-27230194D02*
X6110648Y-27220670D01*
X6110648Y-27220670D02*
X6139219Y-27220670D01*
X6139219Y-27220670D02*
X6158267Y-27230194D01*
X6158267Y-27230194D02*
X6167791Y-27249242D01*
X6167791Y-27249242D02*
X6167791Y-27354004D01*
X6167791Y-27249242D02*
X6177314Y-27230194D01*
X6177314Y-27230194D02*
X6196362Y-27220670D01*
X6196362Y-27220670D02*
X6224933Y-27220670D01*
X6224933Y-27220670D02*
X6243981Y-27230194D01*
X6243981Y-27230194D02*
X6253505Y-27249242D01*
X6253505Y-27249242D02*
X6253505Y-27354004D01*
X6643981Y-27144480D02*
X6472553Y-27401623D01*
X6901124Y-27154004D02*
X6920172Y-27154004D01*
X6920172Y-27154004D02*
X6939219Y-27163528D01*
X6939219Y-27163528D02*
X6948743Y-27173051D01*
X6948743Y-27173051D02*
X6958267Y-27192099D01*
X6958267Y-27192099D02*
X6967791Y-27230194D01*
X6967791Y-27230194D02*
X6967791Y-27277813D01*
X6967791Y-27277813D02*
X6958267Y-27315908D01*
X6958267Y-27315908D02*
X6948743Y-27334956D01*
X6948743Y-27334956D02*
X6939219Y-27344480D01*
X6939219Y-27344480D02*
X6920172Y-27354004D01*
X6920172Y-27354004D02*
X6901124Y-27354004D01*
X6901124Y-27354004D02*
X6882076Y-27344480D01*
X6882076Y-27344480D02*
X6872553Y-27334956D01*
X6872553Y-27334956D02*
X6863029Y-27315908D01*
X6863029Y-27315908D02*
X6853505Y-27277813D01*
X6853505Y-27277813D02*
X6853505Y-27230194D01*
X6853505Y-27230194D02*
X6863029Y-27192099D01*
X6863029Y-27192099D02*
X6872553Y-27173051D01*
X6872553Y-27173051D02*
X6882076Y-27163528D01*
X6882076Y-27163528D02*
X6901124Y-27154004D01*
X7053505Y-27334956D02*
X7063029Y-27344480D01*
X7063029Y-27344480D02*
X7053505Y-27354004D01*
X7053505Y-27354004D02*
X7043981Y-27344480D01*
X7043981Y-27344480D02*
X7053505Y-27334956D01*
X7053505Y-27334956D02*
X7053505Y-27354004D01*
X7186838Y-27154004D02*
X7205886Y-27154004D01*
X7205886Y-27154004D02*
X7224934Y-27163528D01*
X7224934Y-27163528D02*
X7234457Y-27173051D01*
X7234457Y-27173051D02*
X7243981Y-27192099D01*
X7243981Y-27192099D02*
X7253505Y-27230194D01*
X7253505Y-27230194D02*
X7253505Y-27277813D01*
X7253505Y-27277813D02*
X7243981Y-27315908D01*
X7243981Y-27315908D02*
X7234457Y-27334956D01*
X7234457Y-27334956D02*
X7224934Y-27344480D01*
X7224934Y-27344480D02*
X7205886Y-27354004D01*
X7205886Y-27354004D02*
X7186838Y-27354004D01*
X7186838Y-27354004D02*
X7167791Y-27344480D01*
X7167791Y-27344480D02*
X7158267Y-27334956D01*
X7158267Y-27334956D02*
X7148743Y-27315908D01*
X7148743Y-27315908D02*
X7139219Y-27277813D01*
X7139219Y-27277813D02*
X7139219Y-27230194D01*
X7139219Y-27230194D02*
X7148743Y-27192099D01*
X7148743Y-27192099D02*
X7158267Y-27173051D01*
X7158267Y-27173051D02*
X7167791Y-27163528D01*
X7167791Y-27163528D02*
X7186838Y-27154004D01*
X7320172Y-27154004D02*
X7443981Y-27154004D01*
X7443981Y-27154004D02*
X7377315Y-27230194D01*
X7377315Y-27230194D02*
X7405886Y-27230194D01*
X7405886Y-27230194D02*
X7424934Y-27239718D01*
X7424934Y-27239718D02*
X7434457Y-27249242D01*
X7434457Y-27249242D02*
X7443981Y-27268289D01*
X7443981Y-27268289D02*
X7443981Y-27315908D01*
X7443981Y-27315908D02*
X7434457Y-27334956D01*
X7434457Y-27334956D02*
X7424934Y-27344480D01*
X7424934Y-27344480D02*
X7405886Y-27354004D01*
X7405886Y-27354004D02*
X7348743Y-27354004D01*
X7348743Y-27354004D02*
X7329696Y-27344480D01*
X7329696Y-27344480D02*
X7320172Y-27334956D01*
X7539219Y-27354004D02*
X7577315Y-27354004D01*
X7577315Y-27354004D02*
X7596362Y-27344480D01*
X7596362Y-27344480D02*
X7605886Y-27334956D01*
X7605886Y-27334956D02*
X7624934Y-27306385D01*
X7624934Y-27306385D02*
X7634457Y-27268289D01*
X7634457Y-27268289D02*
X7634457Y-27192099D01*
X7634457Y-27192099D02*
X7624934Y-27173051D01*
X7624934Y-27173051D02*
X7615410Y-27163528D01*
X7615410Y-27163528D02*
X7596362Y-27154004D01*
X7596362Y-27154004D02*
X7558267Y-27154004D01*
X7558267Y-27154004D02*
X7539219Y-27163528D01*
X7539219Y-27163528D02*
X7529696Y-27173051D01*
X7529696Y-27173051D02*
X7520172Y-27192099D01*
X7520172Y-27192099D02*
X7520172Y-27239718D01*
X7520172Y-27239718D02*
X7529696Y-27258766D01*
X7529696Y-27258766D02*
X7539219Y-27268289D01*
X7539219Y-27268289D02*
X7558267Y-27277813D01*
X7558267Y-27277813D02*
X7596362Y-27277813D01*
X7596362Y-27277813D02*
X7615410Y-27268289D01*
X7615410Y-27268289D02*
X7624934Y-27258766D01*
X7624934Y-27258766D02*
X7634457Y-27239718D01*
X7805886Y-27220670D02*
X7805886Y-27354004D01*
X7758267Y-27144480D02*
X7710648Y-27287337D01*
X7710648Y-27287337D02*
X7834457Y-27287337D01*
X7901124Y-27154004D02*
X7901124Y-27192099D01*
X7977315Y-27154004D02*
X7977315Y-27192099D01*
X8272553Y-27430194D02*
X8263029Y-27420670D01*
X8263029Y-27420670D02*
X8243981Y-27392099D01*
X8243981Y-27392099D02*
X8234458Y-27373051D01*
X8234458Y-27373051D02*
X8224934Y-27344480D01*
X8224934Y-27344480D02*
X8215410Y-27296861D01*
X8215410Y-27296861D02*
X8215410Y-27258766D01*
X8215410Y-27258766D02*
X8224934Y-27211147D01*
X8224934Y-27211147D02*
X8234458Y-27182575D01*
X8234458Y-27182575D02*
X8243981Y-27163528D01*
X8243981Y-27163528D02*
X8263029Y-27134956D01*
X8263029Y-27134956D02*
X8272553Y-27125432D01*
X8443981Y-27154004D02*
X8348743Y-27154004D01*
X8348743Y-27154004D02*
X8339219Y-27249242D01*
X8339219Y-27249242D02*
X8348743Y-27239718D01*
X8348743Y-27239718D02*
X8367791Y-27230194D01*
X8367791Y-27230194D02*
X8415410Y-27230194D01*
X8415410Y-27230194D02*
X8434458Y-27239718D01*
X8434458Y-27239718D02*
X8443981Y-27249242D01*
X8443981Y-27249242D02*
X8453505Y-27268289D01*
X8453505Y-27268289D02*
X8453505Y-27315908D01*
X8453505Y-27315908D02*
X8443981Y-27334956D01*
X8443981Y-27334956D02*
X8434458Y-27344480D01*
X8434458Y-27344480D02*
X8415410Y-27354004D01*
X8415410Y-27354004D02*
X8367791Y-27354004D01*
X8367791Y-27354004D02*
X8348743Y-27344480D01*
X8348743Y-27344480D02*
X8339219Y-27334956D01*
X8520172Y-27154004D02*
X8643981Y-27154004D01*
X8643981Y-27154004D02*
X8577315Y-27230194D01*
X8577315Y-27230194D02*
X8605886Y-27230194D01*
X8605886Y-27230194D02*
X8624934Y-27239718D01*
X8624934Y-27239718D02*
X8634458Y-27249242D01*
X8634458Y-27249242D02*
X8643981Y-27268289D01*
X8643981Y-27268289D02*
X8643981Y-27315908D01*
X8643981Y-27315908D02*
X8634458Y-27334956D01*
X8634458Y-27334956D02*
X8624934Y-27344480D01*
X8624934Y-27344480D02*
X8605886Y-27354004D01*
X8605886Y-27354004D02*
X8548743Y-27354004D01*
X8548743Y-27354004D02*
X8529696Y-27344480D01*
X8529696Y-27344480D02*
X8520172Y-27334956D01*
X8882077Y-27354004D02*
X8882077Y-27154004D01*
X8967791Y-27354004D02*
X8967791Y-27249242D01*
X8967791Y-27249242D02*
X8958267Y-27230194D01*
X8958267Y-27230194D02*
X8939220Y-27220670D01*
X8939220Y-27220670D02*
X8910648Y-27220670D01*
X8910648Y-27220670D02*
X8891601Y-27230194D01*
X8891601Y-27230194D02*
X8882077Y-27239718D01*
X9091601Y-27354004D02*
X9072553Y-27344480D01*
X9072553Y-27344480D02*
X9063029Y-27334956D01*
X9063029Y-27334956D02*
X9053505Y-27315908D01*
X9053505Y-27315908D02*
X9053505Y-27258766D01*
X9053505Y-27258766D02*
X9063029Y-27239718D01*
X9063029Y-27239718D02*
X9072553Y-27230194D01*
X9072553Y-27230194D02*
X9091601Y-27220670D01*
X9091601Y-27220670D02*
X9120172Y-27220670D01*
X9120172Y-27220670D02*
X9139220Y-27230194D01*
X9139220Y-27230194D02*
X9148743Y-27239718D01*
X9148743Y-27239718D02*
X9158267Y-27258766D01*
X9158267Y-27258766D02*
X9158267Y-27315908D01*
X9158267Y-27315908D02*
X9148743Y-27334956D01*
X9148743Y-27334956D02*
X9139220Y-27344480D01*
X9139220Y-27344480D02*
X9120172Y-27354004D01*
X9120172Y-27354004D02*
X9091601Y-27354004D01*
X9272553Y-27354004D02*
X9253505Y-27344480D01*
X9253505Y-27344480D02*
X9243982Y-27325432D01*
X9243982Y-27325432D02*
X9243982Y-27154004D01*
X9424934Y-27344480D02*
X9405886Y-27354004D01*
X9405886Y-27354004D02*
X9367791Y-27354004D01*
X9367791Y-27354004D02*
X9348743Y-27344480D01*
X9348743Y-27344480D02*
X9339220Y-27325432D01*
X9339220Y-27325432D02*
X9339220Y-27249242D01*
X9339220Y-27249242D02*
X9348743Y-27230194D01*
X9348743Y-27230194D02*
X9367791Y-27220670D01*
X9367791Y-27220670D02*
X9405886Y-27220670D01*
X9405886Y-27220670D02*
X9424934Y-27230194D01*
X9424934Y-27230194D02*
X9434458Y-27249242D01*
X9434458Y-27249242D02*
X9434458Y-27268289D01*
X9434458Y-27268289D02*
X9339220Y-27287337D01*
X9510648Y-27344480D02*
X9529696Y-27354004D01*
X9529696Y-27354004D02*
X9567791Y-27354004D01*
X9567791Y-27354004D02*
X9586839Y-27344480D01*
X9586839Y-27344480D02*
X9596363Y-27325432D01*
X9596363Y-27325432D02*
X9596363Y-27315908D01*
X9596363Y-27315908D02*
X9586839Y-27296861D01*
X9586839Y-27296861D02*
X9567791Y-27287337D01*
X9567791Y-27287337D02*
X9539220Y-27287337D01*
X9539220Y-27287337D02*
X9520172Y-27277813D01*
X9520172Y-27277813D02*
X9510648Y-27258766D01*
X9510648Y-27258766D02*
X9510648Y-27249242D01*
X9510648Y-27249242D02*
X9520172Y-27230194D01*
X9520172Y-27230194D02*
X9539220Y-27220670D01*
X9539220Y-27220670D02*
X9567791Y-27220670D01*
X9567791Y-27220670D02*
X9586839Y-27230194D01*
X9663029Y-27430194D02*
X9672553Y-27420670D01*
X9672553Y-27420670D02*
X9691601Y-27392099D01*
X9691601Y-27392099D02*
X9701124Y-27373051D01*
X9701124Y-27373051D02*
X9710648Y-27344480D01*
X9710648Y-27344480D02*
X9720172Y-27296861D01*
X9720172Y-27296861D02*
X9720172Y-27258766D01*
X9720172Y-27258766D02*
X9710648Y-27211147D01*
X9710648Y-27211147D02*
X9701124Y-27182575D01*
X9701124Y-27182575D02*
X9691601Y-27163528D01*
X9691601Y-27163528D02*
X9672553Y-27134956D01*
X9672553Y-27134956D02*
X9663029Y-27125432D01*
D18*
X4587490Y-27471520D02*
X4697490Y-27581520D01*
X4697490Y-27471520D02*
X4587490Y-27581520D01*
X4642490Y-27471520D02*
X4642490Y-27581520D01*
X4587490Y-27526520D02*
X4697490Y-27526520D01*
D11*
X5063029Y-27618004D02*
X4948743Y-27618004D01*
X5005886Y-27618004D02*
X5005886Y-27418004D01*
X5005886Y-27418004D02*
X4986838Y-27446575D01*
X4986838Y-27446575D02*
X4967791Y-27465623D01*
X4967791Y-27465623D02*
X4948743Y-27475147D01*
X5148743Y-27598956D02*
X5158267Y-27608480D01*
X5158267Y-27608480D02*
X5148743Y-27618004D01*
X5148743Y-27618004D02*
X5139219Y-27608480D01*
X5139219Y-27608480D02*
X5148743Y-27598956D01*
X5148743Y-27598956D02*
X5148743Y-27618004D01*
X5348743Y-27618004D02*
X5234457Y-27618004D01*
X5291600Y-27618004D02*
X5291600Y-27418004D01*
X5291600Y-27418004D02*
X5272553Y-27446575D01*
X5272553Y-27446575D02*
X5253505Y-27465623D01*
X5253505Y-27465623D02*
X5234457Y-27475147D01*
X5472553Y-27418004D02*
X5491600Y-27418004D01*
X5491600Y-27418004D02*
X5510648Y-27427528D01*
X5510648Y-27427528D02*
X5520172Y-27437051D01*
X5520172Y-27437051D02*
X5529695Y-27456099D01*
X5529695Y-27456099D02*
X5539219Y-27494194D01*
X5539219Y-27494194D02*
X5539219Y-27541813D01*
X5539219Y-27541813D02*
X5529695Y-27579908D01*
X5529695Y-27579908D02*
X5520172Y-27598956D01*
X5520172Y-27598956D02*
X5510648Y-27608480D01*
X5510648Y-27608480D02*
X5491600Y-27618004D01*
X5491600Y-27618004D02*
X5472553Y-27618004D01*
X5472553Y-27618004D02*
X5453505Y-27608480D01*
X5453505Y-27608480D02*
X5443981Y-27598956D01*
X5443981Y-27598956D02*
X5434457Y-27579908D01*
X5434457Y-27579908D02*
X5424934Y-27541813D01*
X5424934Y-27541813D02*
X5424934Y-27494194D01*
X5424934Y-27494194D02*
X5434457Y-27456099D01*
X5434457Y-27456099D02*
X5443981Y-27437051D01*
X5443981Y-27437051D02*
X5453505Y-27427528D01*
X5453505Y-27427528D02*
X5472553Y-27418004D01*
X5663029Y-27418004D02*
X5682076Y-27418004D01*
X5682076Y-27418004D02*
X5701124Y-27427528D01*
X5701124Y-27427528D02*
X5710648Y-27437051D01*
X5710648Y-27437051D02*
X5720172Y-27456099D01*
X5720172Y-27456099D02*
X5729695Y-27494194D01*
X5729695Y-27494194D02*
X5729695Y-27541813D01*
X5729695Y-27541813D02*
X5720172Y-27579908D01*
X5720172Y-27579908D02*
X5710648Y-27598956D01*
X5710648Y-27598956D02*
X5701124Y-27608480D01*
X5701124Y-27608480D02*
X5682076Y-27618004D01*
X5682076Y-27618004D02*
X5663029Y-27618004D01*
X5663029Y-27618004D02*
X5643981Y-27608480D01*
X5643981Y-27608480D02*
X5634457Y-27598956D01*
X5634457Y-27598956D02*
X5624933Y-27579908D01*
X5624933Y-27579908D02*
X5615410Y-27541813D01*
X5615410Y-27541813D02*
X5615410Y-27494194D01*
X5615410Y-27494194D02*
X5624933Y-27456099D01*
X5624933Y-27456099D02*
X5634457Y-27437051D01*
X5634457Y-27437051D02*
X5643981Y-27427528D01*
X5643981Y-27427528D02*
X5663029Y-27418004D01*
X5815410Y-27618004D02*
X5815410Y-27484670D01*
X5815410Y-27503718D02*
X5824933Y-27494194D01*
X5824933Y-27494194D02*
X5843981Y-27484670D01*
X5843981Y-27484670D02*
X5872553Y-27484670D01*
X5872553Y-27484670D02*
X5891600Y-27494194D01*
X5891600Y-27494194D02*
X5901124Y-27513242D01*
X5901124Y-27513242D02*
X5901124Y-27618004D01*
X5901124Y-27513242D02*
X5910648Y-27494194D01*
X5910648Y-27494194D02*
X5929695Y-27484670D01*
X5929695Y-27484670D02*
X5958267Y-27484670D01*
X5958267Y-27484670D02*
X5977314Y-27494194D01*
X5977314Y-27494194D02*
X5986838Y-27513242D01*
X5986838Y-27513242D02*
X5986838Y-27618004D01*
X6082076Y-27618004D02*
X6082076Y-27484670D01*
X6082076Y-27503718D02*
X6091600Y-27494194D01*
X6091600Y-27494194D02*
X6110648Y-27484670D01*
X6110648Y-27484670D02*
X6139219Y-27484670D01*
X6139219Y-27484670D02*
X6158267Y-27494194D01*
X6158267Y-27494194D02*
X6167791Y-27513242D01*
X6167791Y-27513242D02*
X6167791Y-27618004D01*
X6167791Y-27513242D02*
X6177314Y-27494194D01*
X6177314Y-27494194D02*
X6196362Y-27484670D01*
X6196362Y-27484670D02*
X6224933Y-27484670D01*
X6224933Y-27484670D02*
X6243981Y-27494194D01*
X6243981Y-27494194D02*
X6253505Y-27513242D01*
X6253505Y-27513242D02*
X6253505Y-27618004D01*
X6643981Y-27408480D02*
X6472553Y-27665623D01*
X6901124Y-27418004D02*
X6920172Y-27418004D01*
X6920172Y-27418004D02*
X6939219Y-27427528D01*
X6939219Y-27427528D02*
X6948743Y-27437051D01*
X6948743Y-27437051D02*
X6958267Y-27456099D01*
X6958267Y-27456099D02*
X6967791Y-27494194D01*
X6967791Y-27494194D02*
X6967791Y-27541813D01*
X6967791Y-27541813D02*
X6958267Y-27579908D01*
X6958267Y-27579908D02*
X6948743Y-27598956D01*
X6948743Y-27598956D02*
X6939219Y-27608480D01*
X6939219Y-27608480D02*
X6920172Y-27618004D01*
X6920172Y-27618004D02*
X6901124Y-27618004D01*
X6901124Y-27618004D02*
X6882076Y-27608480D01*
X6882076Y-27608480D02*
X6872553Y-27598956D01*
X6872553Y-27598956D02*
X6863029Y-27579908D01*
X6863029Y-27579908D02*
X6853505Y-27541813D01*
X6853505Y-27541813D02*
X6853505Y-27494194D01*
X6853505Y-27494194D02*
X6863029Y-27456099D01*
X6863029Y-27456099D02*
X6872553Y-27437051D01*
X6872553Y-27437051D02*
X6882076Y-27427528D01*
X6882076Y-27427528D02*
X6901124Y-27418004D01*
X7053505Y-27598956D02*
X7063029Y-27608480D01*
X7063029Y-27608480D02*
X7053505Y-27618004D01*
X7053505Y-27618004D02*
X7043981Y-27608480D01*
X7043981Y-27608480D02*
X7053505Y-27598956D01*
X7053505Y-27598956D02*
X7053505Y-27618004D01*
X7186838Y-27418004D02*
X7205886Y-27418004D01*
X7205886Y-27418004D02*
X7224934Y-27427528D01*
X7224934Y-27427528D02*
X7234457Y-27437051D01*
X7234457Y-27437051D02*
X7243981Y-27456099D01*
X7243981Y-27456099D02*
X7253505Y-27494194D01*
X7253505Y-27494194D02*
X7253505Y-27541813D01*
X7253505Y-27541813D02*
X7243981Y-27579908D01*
X7243981Y-27579908D02*
X7234457Y-27598956D01*
X7234457Y-27598956D02*
X7224934Y-27608480D01*
X7224934Y-27608480D02*
X7205886Y-27618004D01*
X7205886Y-27618004D02*
X7186838Y-27618004D01*
X7186838Y-27618004D02*
X7167791Y-27608480D01*
X7167791Y-27608480D02*
X7158267Y-27598956D01*
X7158267Y-27598956D02*
X7148743Y-27579908D01*
X7148743Y-27579908D02*
X7139219Y-27541813D01*
X7139219Y-27541813D02*
X7139219Y-27494194D01*
X7139219Y-27494194D02*
X7148743Y-27456099D01*
X7148743Y-27456099D02*
X7158267Y-27437051D01*
X7158267Y-27437051D02*
X7167791Y-27427528D01*
X7167791Y-27427528D02*
X7186838Y-27418004D01*
X7424934Y-27484670D02*
X7424934Y-27618004D01*
X7377315Y-27408480D02*
X7329696Y-27551337D01*
X7329696Y-27551337D02*
X7453505Y-27551337D01*
X7510648Y-27418004D02*
X7634457Y-27418004D01*
X7634457Y-27418004D02*
X7567791Y-27494194D01*
X7567791Y-27494194D02*
X7596362Y-27494194D01*
X7596362Y-27494194D02*
X7615410Y-27503718D01*
X7615410Y-27503718D02*
X7624934Y-27513242D01*
X7624934Y-27513242D02*
X7634457Y-27532289D01*
X7634457Y-27532289D02*
X7634457Y-27579908D01*
X7634457Y-27579908D02*
X7624934Y-27598956D01*
X7624934Y-27598956D02*
X7615410Y-27608480D01*
X7615410Y-27608480D02*
X7596362Y-27618004D01*
X7596362Y-27618004D02*
X7539219Y-27618004D01*
X7539219Y-27618004D02*
X7520172Y-27608480D01*
X7520172Y-27608480D02*
X7510648Y-27598956D01*
X7701124Y-27418004D02*
X7824934Y-27418004D01*
X7824934Y-27418004D02*
X7758267Y-27494194D01*
X7758267Y-27494194D02*
X7786838Y-27494194D01*
X7786838Y-27494194D02*
X7805886Y-27503718D01*
X7805886Y-27503718D02*
X7815410Y-27513242D01*
X7815410Y-27513242D02*
X7824934Y-27532289D01*
X7824934Y-27532289D02*
X7824934Y-27579908D01*
X7824934Y-27579908D02*
X7815410Y-27598956D01*
X7815410Y-27598956D02*
X7805886Y-27608480D01*
X7805886Y-27608480D02*
X7786838Y-27618004D01*
X7786838Y-27618004D02*
X7729696Y-27618004D01*
X7729696Y-27618004D02*
X7710648Y-27608480D01*
X7710648Y-27608480D02*
X7701124Y-27598956D01*
X7901124Y-27418004D02*
X7901124Y-27456099D01*
X7977315Y-27418004D02*
X7977315Y-27456099D01*
X8272553Y-27694194D02*
X8263029Y-27684670D01*
X8263029Y-27684670D02*
X8243981Y-27656099D01*
X8243981Y-27656099D02*
X8234458Y-27637051D01*
X8234458Y-27637051D02*
X8224934Y-27608480D01*
X8224934Y-27608480D02*
X8215410Y-27560861D01*
X8215410Y-27560861D02*
X8215410Y-27522766D01*
X8215410Y-27522766D02*
X8224934Y-27475147D01*
X8224934Y-27475147D02*
X8234458Y-27446575D01*
X8234458Y-27446575D02*
X8243981Y-27427528D01*
X8243981Y-27427528D02*
X8263029Y-27398956D01*
X8263029Y-27398956D02*
X8272553Y-27389432D01*
X8434458Y-27484670D02*
X8434458Y-27618004D01*
X8386838Y-27408480D02*
X8339219Y-27551337D01*
X8339219Y-27551337D02*
X8463029Y-27551337D01*
X8691601Y-27618004D02*
X8691601Y-27418004D01*
X8777315Y-27618004D02*
X8777315Y-27513242D01*
X8777315Y-27513242D02*
X8767791Y-27494194D01*
X8767791Y-27494194D02*
X8748743Y-27484670D01*
X8748743Y-27484670D02*
X8720172Y-27484670D01*
X8720172Y-27484670D02*
X8701124Y-27494194D01*
X8701124Y-27494194D02*
X8691601Y-27503718D01*
X8901124Y-27618004D02*
X8882077Y-27608480D01*
X8882077Y-27608480D02*
X8872553Y-27598956D01*
X8872553Y-27598956D02*
X8863029Y-27579908D01*
X8863029Y-27579908D02*
X8863029Y-27522766D01*
X8863029Y-27522766D02*
X8872553Y-27503718D01*
X8872553Y-27503718D02*
X8882077Y-27494194D01*
X8882077Y-27494194D02*
X8901124Y-27484670D01*
X8901124Y-27484670D02*
X8929696Y-27484670D01*
X8929696Y-27484670D02*
X8948743Y-27494194D01*
X8948743Y-27494194D02*
X8958267Y-27503718D01*
X8958267Y-27503718D02*
X8967791Y-27522766D01*
X8967791Y-27522766D02*
X8967791Y-27579908D01*
X8967791Y-27579908D02*
X8958267Y-27598956D01*
X8958267Y-27598956D02*
X8948743Y-27608480D01*
X8948743Y-27608480D02*
X8929696Y-27618004D01*
X8929696Y-27618004D02*
X8901124Y-27618004D01*
X9082077Y-27618004D02*
X9063029Y-27608480D01*
X9063029Y-27608480D02*
X9053505Y-27589432D01*
X9053505Y-27589432D02*
X9053505Y-27418004D01*
X9234458Y-27608480D02*
X9215410Y-27618004D01*
X9215410Y-27618004D02*
X9177315Y-27618004D01*
X9177315Y-27618004D02*
X9158267Y-27608480D01*
X9158267Y-27608480D02*
X9148743Y-27589432D01*
X9148743Y-27589432D02*
X9148743Y-27513242D01*
X9148743Y-27513242D02*
X9158267Y-27494194D01*
X9158267Y-27494194D02*
X9177315Y-27484670D01*
X9177315Y-27484670D02*
X9215410Y-27484670D01*
X9215410Y-27484670D02*
X9234458Y-27494194D01*
X9234458Y-27494194D02*
X9243982Y-27513242D01*
X9243982Y-27513242D02*
X9243982Y-27532289D01*
X9243982Y-27532289D02*
X9148743Y-27551337D01*
X9320172Y-27608480D02*
X9339220Y-27618004D01*
X9339220Y-27618004D02*
X9377315Y-27618004D01*
X9377315Y-27618004D02*
X9396363Y-27608480D01*
X9396363Y-27608480D02*
X9405886Y-27589432D01*
X9405886Y-27589432D02*
X9405886Y-27579908D01*
X9405886Y-27579908D02*
X9396363Y-27560861D01*
X9396363Y-27560861D02*
X9377315Y-27551337D01*
X9377315Y-27551337D02*
X9348743Y-27551337D01*
X9348743Y-27551337D02*
X9329696Y-27541813D01*
X9329696Y-27541813D02*
X9320172Y-27522766D01*
X9320172Y-27522766D02*
X9320172Y-27513242D01*
X9320172Y-27513242D02*
X9329696Y-27494194D01*
X9329696Y-27494194D02*
X9348743Y-27484670D01*
X9348743Y-27484670D02*
X9377315Y-27484670D01*
X9377315Y-27484670D02*
X9396363Y-27494194D01*
X9472553Y-27694194D02*
X9482077Y-27684670D01*
X9482077Y-27684670D02*
X9501124Y-27656099D01*
X9501124Y-27656099D02*
X9510648Y-27637051D01*
X9510648Y-27637051D02*
X9520172Y-27608480D01*
X9520172Y-27608480D02*
X9529696Y-27560861D01*
X9529696Y-27560861D02*
X9529696Y-27522766D01*
X9529696Y-27522766D02*
X9520172Y-27475147D01*
X9520172Y-27475147D02*
X9510648Y-27446575D01*
X9510648Y-27446575D02*
X9501124Y-27427528D01*
X9501124Y-27427528D02*
X9482077Y-27398956D01*
X9482077Y-27398956D02*
X9472553Y-27389432D01*
X4497490Y-27690520D02*
X4697490Y-27890520D01*
X4697490Y-27690520D02*
X4497490Y-27890520D01*
X4668201Y-27861231D02*
X4668201Y-27719809D01*
X4526779Y-27719809D01*
X4526779Y-27861231D01*
X4668201Y-27861231D01*
X4948743Y-27701051D02*
X4958267Y-27691528D01*
X4958267Y-27691528D02*
X4977314Y-27682004D01*
X4977314Y-27682004D02*
X5024934Y-27682004D01*
X5024934Y-27682004D02*
X5043981Y-27691528D01*
X5043981Y-27691528D02*
X5053505Y-27701051D01*
X5053505Y-27701051D02*
X5063029Y-27720099D01*
X5063029Y-27720099D02*
X5063029Y-27739147D01*
X5063029Y-27739147D02*
X5053505Y-27767718D01*
X5053505Y-27767718D02*
X4939219Y-27882004D01*
X4939219Y-27882004D02*
X5063029Y-27882004D01*
X5148743Y-27862956D02*
X5158267Y-27872480D01*
X5158267Y-27872480D02*
X5148743Y-27882004D01*
X5148743Y-27882004D02*
X5139219Y-27872480D01*
X5139219Y-27872480D02*
X5148743Y-27862956D01*
X5148743Y-27862956D02*
X5148743Y-27882004D01*
X5224934Y-27682004D02*
X5358267Y-27682004D01*
X5358267Y-27682004D02*
X5272553Y-27882004D01*
X5472553Y-27682004D02*
X5491600Y-27682004D01*
X5491600Y-27682004D02*
X5510648Y-27691528D01*
X5510648Y-27691528D02*
X5520172Y-27701051D01*
X5520172Y-27701051D02*
X5529695Y-27720099D01*
X5529695Y-27720099D02*
X5539219Y-27758194D01*
X5539219Y-27758194D02*
X5539219Y-27805813D01*
X5539219Y-27805813D02*
X5529695Y-27843908D01*
X5529695Y-27843908D02*
X5520172Y-27862956D01*
X5520172Y-27862956D02*
X5510648Y-27872480D01*
X5510648Y-27872480D02*
X5491600Y-27882004D01*
X5491600Y-27882004D02*
X5472553Y-27882004D01*
X5472553Y-27882004D02*
X5453505Y-27872480D01*
X5453505Y-27872480D02*
X5443981Y-27862956D01*
X5443981Y-27862956D02*
X5434457Y-27843908D01*
X5434457Y-27843908D02*
X5424934Y-27805813D01*
X5424934Y-27805813D02*
X5424934Y-27758194D01*
X5424934Y-27758194D02*
X5434457Y-27720099D01*
X5434457Y-27720099D02*
X5443981Y-27701051D01*
X5443981Y-27701051D02*
X5453505Y-27691528D01*
X5453505Y-27691528D02*
X5472553Y-27682004D01*
X5663029Y-27682004D02*
X5682076Y-27682004D01*
X5682076Y-27682004D02*
X5701124Y-27691528D01*
X5701124Y-27691528D02*
X5710648Y-27701051D01*
X5710648Y-27701051D02*
X5720172Y-27720099D01*
X5720172Y-27720099D02*
X5729695Y-27758194D01*
X5729695Y-27758194D02*
X5729695Y-27805813D01*
X5729695Y-27805813D02*
X5720172Y-27843908D01*
X5720172Y-27843908D02*
X5710648Y-27862956D01*
X5710648Y-27862956D02*
X5701124Y-27872480D01*
X5701124Y-27872480D02*
X5682076Y-27882004D01*
X5682076Y-27882004D02*
X5663029Y-27882004D01*
X5663029Y-27882004D02*
X5643981Y-27872480D01*
X5643981Y-27872480D02*
X5634457Y-27862956D01*
X5634457Y-27862956D02*
X5624933Y-27843908D01*
X5624933Y-27843908D02*
X5615410Y-27805813D01*
X5615410Y-27805813D02*
X5615410Y-27758194D01*
X5615410Y-27758194D02*
X5624933Y-27720099D01*
X5624933Y-27720099D02*
X5634457Y-27701051D01*
X5634457Y-27701051D02*
X5643981Y-27691528D01*
X5643981Y-27691528D02*
X5663029Y-27682004D01*
X5815410Y-27882004D02*
X5815410Y-27748670D01*
X5815410Y-27767718D02*
X5824933Y-27758194D01*
X5824933Y-27758194D02*
X5843981Y-27748670D01*
X5843981Y-27748670D02*
X5872553Y-27748670D01*
X5872553Y-27748670D02*
X5891600Y-27758194D01*
X5891600Y-27758194D02*
X5901124Y-27777242D01*
X5901124Y-27777242D02*
X5901124Y-27882004D01*
X5901124Y-27777242D02*
X5910648Y-27758194D01*
X5910648Y-27758194D02*
X5929695Y-27748670D01*
X5929695Y-27748670D02*
X5958267Y-27748670D01*
X5958267Y-27748670D02*
X5977314Y-27758194D01*
X5977314Y-27758194D02*
X5986838Y-27777242D01*
X5986838Y-27777242D02*
X5986838Y-27882004D01*
X6082076Y-27882004D02*
X6082076Y-27748670D01*
X6082076Y-27767718D02*
X6091600Y-27758194D01*
X6091600Y-27758194D02*
X6110648Y-27748670D01*
X6110648Y-27748670D02*
X6139219Y-27748670D01*
X6139219Y-27748670D02*
X6158267Y-27758194D01*
X6158267Y-27758194D02*
X6167791Y-27777242D01*
X6167791Y-27777242D02*
X6167791Y-27882004D01*
X6167791Y-27777242D02*
X6177314Y-27758194D01*
X6177314Y-27758194D02*
X6196362Y-27748670D01*
X6196362Y-27748670D02*
X6224933Y-27748670D01*
X6224933Y-27748670D02*
X6243981Y-27758194D01*
X6243981Y-27758194D02*
X6253505Y-27777242D01*
X6253505Y-27777242D02*
X6253505Y-27882004D01*
X6643981Y-27672480D02*
X6472553Y-27929623D01*
X6901124Y-27682004D02*
X6920172Y-27682004D01*
X6920172Y-27682004D02*
X6939219Y-27691528D01*
X6939219Y-27691528D02*
X6948743Y-27701051D01*
X6948743Y-27701051D02*
X6958267Y-27720099D01*
X6958267Y-27720099D02*
X6967791Y-27758194D01*
X6967791Y-27758194D02*
X6967791Y-27805813D01*
X6967791Y-27805813D02*
X6958267Y-27843908D01*
X6958267Y-27843908D02*
X6948743Y-27862956D01*
X6948743Y-27862956D02*
X6939219Y-27872480D01*
X6939219Y-27872480D02*
X6920172Y-27882004D01*
X6920172Y-27882004D02*
X6901124Y-27882004D01*
X6901124Y-27882004D02*
X6882076Y-27872480D01*
X6882076Y-27872480D02*
X6872553Y-27862956D01*
X6872553Y-27862956D02*
X6863029Y-27843908D01*
X6863029Y-27843908D02*
X6853505Y-27805813D01*
X6853505Y-27805813D02*
X6853505Y-27758194D01*
X6853505Y-27758194D02*
X6863029Y-27720099D01*
X6863029Y-27720099D02*
X6872553Y-27701051D01*
X6872553Y-27701051D02*
X6882076Y-27691528D01*
X6882076Y-27691528D02*
X6901124Y-27682004D01*
X7053505Y-27862956D02*
X7063029Y-27872480D01*
X7063029Y-27872480D02*
X7053505Y-27882004D01*
X7053505Y-27882004D02*
X7043981Y-27872480D01*
X7043981Y-27872480D02*
X7053505Y-27862956D01*
X7053505Y-27862956D02*
X7053505Y-27882004D01*
X7253505Y-27882004D02*
X7139219Y-27882004D01*
X7196362Y-27882004D02*
X7196362Y-27682004D01*
X7196362Y-27682004D02*
X7177315Y-27710575D01*
X7177315Y-27710575D02*
X7158267Y-27729623D01*
X7158267Y-27729623D02*
X7139219Y-27739147D01*
X7377315Y-27682004D02*
X7396362Y-27682004D01*
X7396362Y-27682004D02*
X7415410Y-27691528D01*
X7415410Y-27691528D02*
X7424934Y-27701051D01*
X7424934Y-27701051D02*
X7434457Y-27720099D01*
X7434457Y-27720099D02*
X7443981Y-27758194D01*
X7443981Y-27758194D02*
X7443981Y-27805813D01*
X7443981Y-27805813D02*
X7434457Y-27843908D01*
X7434457Y-27843908D02*
X7424934Y-27862956D01*
X7424934Y-27862956D02*
X7415410Y-27872480D01*
X7415410Y-27872480D02*
X7396362Y-27882004D01*
X7396362Y-27882004D02*
X7377315Y-27882004D01*
X7377315Y-27882004D02*
X7358267Y-27872480D01*
X7358267Y-27872480D02*
X7348743Y-27862956D01*
X7348743Y-27862956D02*
X7339219Y-27843908D01*
X7339219Y-27843908D02*
X7329696Y-27805813D01*
X7329696Y-27805813D02*
X7329696Y-27758194D01*
X7329696Y-27758194D02*
X7339219Y-27720099D01*
X7339219Y-27720099D02*
X7348743Y-27701051D01*
X7348743Y-27701051D02*
X7358267Y-27691528D01*
X7358267Y-27691528D02*
X7377315Y-27682004D01*
X7615410Y-27682004D02*
X7577315Y-27682004D01*
X7577315Y-27682004D02*
X7558267Y-27691528D01*
X7558267Y-27691528D02*
X7548743Y-27701051D01*
X7548743Y-27701051D02*
X7529696Y-27729623D01*
X7529696Y-27729623D02*
X7520172Y-27767718D01*
X7520172Y-27767718D02*
X7520172Y-27843908D01*
X7520172Y-27843908D02*
X7529696Y-27862956D01*
X7529696Y-27862956D02*
X7539219Y-27872480D01*
X7539219Y-27872480D02*
X7558267Y-27882004D01*
X7558267Y-27882004D02*
X7596362Y-27882004D01*
X7596362Y-27882004D02*
X7615410Y-27872480D01*
X7615410Y-27872480D02*
X7624934Y-27862956D01*
X7624934Y-27862956D02*
X7634457Y-27843908D01*
X7634457Y-27843908D02*
X7634457Y-27796289D01*
X7634457Y-27796289D02*
X7624934Y-27777242D01*
X7624934Y-27777242D02*
X7615410Y-27767718D01*
X7615410Y-27767718D02*
X7596362Y-27758194D01*
X7596362Y-27758194D02*
X7558267Y-27758194D01*
X7558267Y-27758194D02*
X7539219Y-27767718D01*
X7539219Y-27767718D02*
X7529696Y-27777242D01*
X7529696Y-27777242D02*
X7520172Y-27796289D01*
X7701124Y-27682004D02*
X7824934Y-27682004D01*
X7824934Y-27682004D02*
X7758267Y-27758194D01*
X7758267Y-27758194D02*
X7786838Y-27758194D01*
X7786838Y-27758194D02*
X7805886Y-27767718D01*
X7805886Y-27767718D02*
X7815410Y-27777242D01*
X7815410Y-27777242D02*
X7824934Y-27796289D01*
X7824934Y-27796289D02*
X7824934Y-27843908D01*
X7824934Y-27843908D02*
X7815410Y-27862956D01*
X7815410Y-27862956D02*
X7805886Y-27872480D01*
X7805886Y-27872480D02*
X7786838Y-27882004D01*
X7786838Y-27882004D02*
X7729696Y-27882004D01*
X7729696Y-27882004D02*
X7710648Y-27872480D01*
X7710648Y-27872480D02*
X7701124Y-27862956D01*
X7901124Y-27682004D02*
X7901124Y-27720099D01*
X7977315Y-27682004D02*
X7977315Y-27720099D01*
X8272553Y-27958194D02*
X8263029Y-27948670D01*
X8263029Y-27948670D02*
X8243981Y-27920099D01*
X8243981Y-27920099D02*
X8234458Y-27901051D01*
X8234458Y-27901051D02*
X8224934Y-27872480D01*
X8224934Y-27872480D02*
X8215410Y-27824861D01*
X8215410Y-27824861D02*
X8215410Y-27786766D01*
X8215410Y-27786766D02*
X8224934Y-27739147D01*
X8224934Y-27739147D02*
X8234458Y-27710575D01*
X8234458Y-27710575D02*
X8243981Y-27691528D01*
X8243981Y-27691528D02*
X8263029Y-27662956D01*
X8263029Y-27662956D02*
X8272553Y-27653432D01*
X8434458Y-27748670D02*
X8434458Y-27882004D01*
X8386838Y-27672480D02*
X8339219Y-27815337D01*
X8339219Y-27815337D02*
X8463029Y-27815337D01*
X8691601Y-27882004D02*
X8691601Y-27682004D01*
X8777315Y-27882004D02*
X8777315Y-27777242D01*
X8777315Y-27777242D02*
X8767791Y-27758194D01*
X8767791Y-27758194D02*
X8748743Y-27748670D01*
X8748743Y-27748670D02*
X8720172Y-27748670D01*
X8720172Y-27748670D02*
X8701124Y-27758194D01*
X8701124Y-27758194D02*
X8691601Y-27767718D01*
X8901124Y-27882004D02*
X8882077Y-27872480D01*
X8882077Y-27872480D02*
X8872553Y-27862956D01*
X8872553Y-27862956D02*
X8863029Y-27843908D01*
X8863029Y-27843908D02*
X8863029Y-27786766D01*
X8863029Y-27786766D02*
X8872553Y-27767718D01*
X8872553Y-27767718D02*
X8882077Y-27758194D01*
X8882077Y-27758194D02*
X8901124Y-27748670D01*
X8901124Y-27748670D02*
X8929696Y-27748670D01*
X8929696Y-27748670D02*
X8948743Y-27758194D01*
X8948743Y-27758194D02*
X8958267Y-27767718D01*
X8958267Y-27767718D02*
X8967791Y-27786766D01*
X8967791Y-27786766D02*
X8967791Y-27843908D01*
X8967791Y-27843908D02*
X8958267Y-27862956D01*
X8958267Y-27862956D02*
X8948743Y-27872480D01*
X8948743Y-27872480D02*
X8929696Y-27882004D01*
X8929696Y-27882004D02*
X8901124Y-27882004D01*
X9082077Y-27882004D02*
X9063029Y-27872480D01*
X9063029Y-27872480D02*
X9053505Y-27853432D01*
X9053505Y-27853432D02*
X9053505Y-27682004D01*
X9234458Y-27872480D02*
X9215410Y-27882004D01*
X9215410Y-27882004D02*
X9177315Y-27882004D01*
X9177315Y-27882004D02*
X9158267Y-27872480D01*
X9158267Y-27872480D02*
X9148743Y-27853432D01*
X9148743Y-27853432D02*
X9148743Y-27777242D01*
X9148743Y-27777242D02*
X9158267Y-27758194D01*
X9158267Y-27758194D02*
X9177315Y-27748670D01*
X9177315Y-27748670D02*
X9215410Y-27748670D01*
X9215410Y-27748670D02*
X9234458Y-27758194D01*
X9234458Y-27758194D02*
X9243982Y-27777242D01*
X9243982Y-27777242D02*
X9243982Y-27796289D01*
X9243982Y-27796289D02*
X9148743Y-27815337D01*
X9320172Y-27872480D02*
X9339220Y-27882004D01*
X9339220Y-27882004D02*
X9377315Y-27882004D01*
X9377315Y-27882004D02*
X9396363Y-27872480D01*
X9396363Y-27872480D02*
X9405886Y-27853432D01*
X9405886Y-27853432D02*
X9405886Y-27843908D01*
X9405886Y-27843908D02*
X9396363Y-27824861D01*
X9396363Y-27824861D02*
X9377315Y-27815337D01*
X9377315Y-27815337D02*
X9348743Y-27815337D01*
X9348743Y-27815337D02*
X9329696Y-27805813D01*
X9329696Y-27805813D02*
X9320172Y-27786766D01*
X9320172Y-27786766D02*
X9320172Y-27777242D01*
X9320172Y-27777242D02*
X9329696Y-27758194D01*
X9329696Y-27758194D02*
X9348743Y-27748670D01*
X9348743Y-27748670D02*
X9377315Y-27748670D01*
X9377315Y-27748670D02*
X9396363Y-27758194D01*
X9472553Y-27958194D02*
X9482077Y-27948670D01*
X9482077Y-27948670D02*
X9501124Y-27920099D01*
X9501124Y-27920099D02*
X9510648Y-27901051D01*
X9510648Y-27901051D02*
X9520172Y-27872480D01*
X9520172Y-27872480D02*
X9529696Y-27824861D01*
X9529696Y-27824861D02*
X9529696Y-27786766D01*
X9529696Y-27786766D02*
X9520172Y-27739147D01*
X9520172Y-27739147D02*
X9510648Y-27710575D01*
X9510648Y-27710575D02*
X9501124Y-27691528D01*
X9501124Y-27691528D02*
X9482077Y-27662956D01*
X9482077Y-27662956D02*
X9472553Y-27653432D01*
M02*
