%TF.GenerationSoftware,KiCad,Pcbnew,(6.0.9)*%
%TF.CreationDate,2023-07-18T19:51:59+10:00*%
%TF.ProjectId,VisorPlate2.0,5669736f-7250-46c6-9174-65322e302e6b,rev?*%
%TF.SameCoordinates,Original*%
%TF.FileFunction,Drillmap*%
%TF.FilePolarity,Positive*%
%FSLAX45Y45*%
G04 Gerber Fmt 4.5, Leading zero omitted, Abs format (unit mm)*
G04 Created by KiCad (PCBNEW (6.0.9)) date 2023-07-18 19:51:59*
%MOMM*%
%LPD*%
G01*
G04 APERTURE LIST*
%ADD10C,0.010000*%
%ADD11C,0.100000*%
%ADD12C,0.200000*%
G04 APERTURE END LIST*
D10*
X10844000Y-9146000D02*
X15756000Y-9146000D01*
X10617000Y-9600000D02*
X10617000Y-9373000D01*
X15983000Y-11611000D02*
X15983000Y-9600000D01*
X15983000Y-9373000D02*
X15983000Y-9600000D01*
D11*
X10944000Y-9373000D02*
G75*
G03*
X10944000Y-9373000I-100000J0D01*
G01*
D10*
X15983000Y-9373000D02*
G75*
G03*
X15756000Y-9146000I-227000J0D01*
G01*
X10617000Y-11611000D02*
X15983000Y-11611000D01*
X10844000Y-9146000D02*
G75*
G03*
X10617000Y-9373000I0J-227000D01*
G01*
X10617000Y-9600000D02*
X10617000Y-11611000D01*
D11*
X15856000Y-9373000D02*
G75*
G03*
X15856000Y-9373000I-100000J0D01*
G01*
D12*
X10874119Y-11921976D02*
X10874119Y-11721976D01*
X10921738Y-11721976D01*
X10950310Y-11731500D01*
X10969357Y-11750548D01*
X10978881Y-11769595D01*
X10988405Y-11807690D01*
X10988405Y-11836262D01*
X10978881Y-11874357D01*
X10969357Y-11893405D01*
X10950310Y-11912452D01*
X10921738Y-11921976D01*
X10874119Y-11921976D01*
X11074119Y-11921976D02*
X11074119Y-11788643D01*
X11074119Y-11826738D02*
X11083643Y-11807690D01*
X11093167Y-11798167D01*
X11112214Y-11788643D01*
X11131262Y-11788643D01*
X11197928Y-11921976D02*
X11197928Y-11788643D01*
X11197928Y-11721976D02*
X11188405Y-11731500D01*
X11197928Y-11741024D01*
X11207452Y-11731500D01*
X11197928Y-11721976D01*
X11197928Y-11741024D01*
X11321738Y-11921976D02*
X11302690Y-11912452D01*
X11293167Y-11893405D01*
X11293167Y-11721976D01*
X11426500Y-11921976D02*
X11407452Y-11912452D01*
X11397928Y-11893405D01*
X11397928Y-11721976D01*
X11655071Y-11921976D02*
X11655071Y-11721976D01*
X11721738Y-11864833D01*
X11788405Y-11721976D01*
X11788405Y-11921976D01*
X11969357Y-11921976D02*
X11969357Y-11817214D01*
X11959833Y-11798167D01*
X11940786Y-11788643D01*
X11902690Y-11788643D01*
X11883643Y-11798167D01*
X11969357Y-11912452D02*
X11950309Y-11921976D01*
X11902690Y-11921976D01*
X11883643Y-11912452D01*
X11874119Y-11893405D01*
X11874119Y-11874357D01*
X11883643Y-11855309D01*
X11902690Y-11845786D01*
X11950309Y-11845786D01*
X11969357Y-11836262D01*
X12064595Y-11788643D02*
X12064595Y-11988643D01*
X12064595Y-11798167D02*
X12083643Y-11788643D01*
X12121738Y-11788643D01*
X12140786Y-11798167D01*
X12150309Y-11807690D01*
X12159833Y-11826738D01*
X12159833Y-11883881D01*
X12150309Y-11902928D01*
X12140786Y-11912452D01*
X12121738Y-11921976D01*
X12083643Y-11921976D01*
X12064595Y-11912452D01*
X12245548Y-11902928D02*
X12255071Y-11912452D01*
X12245548Y-11921976D01*
X12236024Y-11912452D01*
X12245548Y-11902928D01*
X12245548Y-11921976D01*
X12245548Y-11798167D02*
X12255071Y-11807690D01*
X12245548Y-11817214D01*
X12236024Y-11807690D01*
X12245548Y-11798167D01*
X12245548Y-11817214D01*
M02*
