%TF.GenerationSoftware,KiCad,Pcbnew,(6.0.9)*%
%TF.CreationDate,2023-06-09T10:32:01+10:00*%
%TF.ProjectId,Joysticks2.0,4a6f7973-7469-4636-9b73-322e302e6b69,rev?*%
%TF.SameCoordinates,PX3d09000PY568bc30*%
%TF.FileFunction,Plated,1,2,PTH,Drill*%
%TF.FilePolarity,Positive*%
%FSLAX46Y46*%
G04 Gerber Fmt 4.6, Leading zero omitted, Abs format (unit mm)*
G04 Created by KiCad (PCBNEW (6.0.9)) date 2023-06-09 10:32:01*
%MOMM*%
%LPD*%
G01*
G04 APERTURE LIST*
%TA.AperFunction,ViaDrill*%
%ADD10C,0.300000*%
%TD*%
%TA.AperFunction,ViaDrill*%
%ADD11C,0.400000*%
%TD*%
%TA.AperFunction,ComponentDrill*%
%ADD12C,1.000000*%
%TD*%
%TA.AperFunction,ComponentDrill*%
%ADD13C,1.100000*%
%TD*%
%TA.AperFunction,ComponentDrill*%
%ADD14C,1.300000*%
%TD*%
%TA.AperFunction,ComponentDrill*%
%ADD15C,1.500000*%
%TD*%
%TA.AperFunction,ComponentDrill*%
%ADD16C,1.600000*%
%TD*%
G04 APERTURE END LIST*
D10*
X18750000Y-7250000D03*
X20250000Y-8750000D03*
X21250000Y-13000000D03*
X22525500Y-22500000D03*
X23683411Y-10683411D03*
X24242915Y-14492916D03*
X24750000Y-27750000D03*
X25250000Y-13250000D03*
X25250000Y-16750000D03*
X25250000Y-19250000D03*
X25250000Y-21750000D03*
X25250000Y-24250000D03*
X25250000Y-32000000D03*
X25250000Y-34500000D03*
X26500000Y-11125500D03*
X34000000Y-10750000D03*
X35000000Y-11750000D03*
X36750000Y-7250000D03*
X37750000Y-9250000D03*
X40500000Y-7000000D03*
X46138411Y-14888411D03*
X46250000Y-9000000D03*
X47125500Y-13000000D03*
X47750000Y-11000000D03*
X48000000Y-4500000D03*
X48250000Y-15374500D03*
X49533118Y-14033118D03*
X50250000Y-13250000D03*
X50250000Y-29750000D03*
X52000000Y-750000D03*
X52000000Y-26750000D03*
X53000000Y-750000D03*
D11*
X30750000Y15250000D03*
D12*
%TO.C,U3*%
X-15810000Y-8580000D03*
X-8190000Y-8580000D03*
%TO.C,U5*%
X6190000Y5670000D03*
X13810000Y5670000D03*
%TO.C,A1*%
X28390000Y-2950000D03*
X28390000Y-5490000D03*
X28390000Y-8030000D03*
X28390000Y-10570000D03*
X28390000Y-13110000D03*
X28390000Y-15650000D03*
X28390000Y-18190000D03*
X28390000Y-20730000D03*
X28390000Y-23270000D03*
X28390000Y-25810000D03*
X28390000Y-28350000D03*
X28390000Y-30890000D03*
X28390000Y-33430000D03*
X28390000Y-35970000D03*
X28390000Y-38510000D03*
%TO.C,J4*%
X32200000Y17525000D03*
X34740000Y17525000D03*
X37280000Y17525000D03*
X39820000Y17525000D03*
%TO.C,A1*%
X43630000Y-2950000D03*
X43630000Y-5490000D03*
X43630000Y-8030000D03*
X43630000Y-10570000D03*
X43630000Y-13110000D03*
X43630000Y-15650000D03*
X43630000Y-18190000D03*
X43630000Y-20730000D03*
X43630000Y-23270000D03*
X43630000Y-25810000D03*
X43630000Y-28350000D03*
X43630000Y-30890000D03*
X43630000Y-33430000D03*
X43630000Y-35970000D03*
X43630000Y-38510000D03*
%TO.C,J1*%
X48750000Y13750000D03*
X51290000Y13750000D03*
%TO.C,U2*%
X58190000Y5670000D03*
X65810000Y5670000D03*
%TO.C,U4*%
X80190000Y-8330000D03*
X87810000Y-8330000D03*
D13*
%TO.C,U1*%
X9500000Y-9520000D03*
X12000000Y-9520000D03*
X14500000Y-9520000D03*
X20730000Y-15750000D03*
X20730000Y-18250000D03*
X20730000Y-20750000D03*
%TO.C,U11*%
X57500000Y-9520000D03*
X60000000Y-9520000D03*
X62500000Y-9520000D03*
X68730000Y-15750000D03*
X68730000Y-18250000D03*
X68730000Y-20750000D03*
D14*
%TO.C,U1*%
X8750000Y-24000000D03*
X8750000Y-28500000D03*
X15250000Y-24000000D03*
X15250000Y-28500000D03*
%TO.C,U11*%
X56750000Y-24000000D03*
X56750000Y-28500000D03*
X63250000Y-24000000D03*
X63250000Y-28500000D03*
D15*
%TO.C,U3*%
X-15810000Y-960000D03*
X-9490000Y1580000D03*
%TO.C,U5*%
X6190000Y13290000D03*
X12510000Y15830000D03*
%TO.C,U2*%
X58190000Y13290000D03*
X64510000Y15830000D03*
%TO.C,U4*%
X80190000Y-710000D03*
X86510000Y1830000D03*
D16*
%TO.C,U1*%
X5675000Y-13250000D03*
X5675000Y-23250000D03*
X18325000Y-13250000D03*
X18325000Y-23250000D03*
%TO.C,U11*%
X53675000Y-13250000D03*
X53675000Y-23250000D03*
X66325000Y-13250000D03*
X66325000Y-23250000D03*
M02*
