0
SECTION
2
HEADER
9
$INSUNITS
70
4
9
$ACADVER
1
AC1014
9
$HANDSEED
5
FFFF
0
ENDSEC
0
SECTION
2
TABLES
0
TABLE
2
VPORT
5
8
100
AcDbSymbolTable
0
ENDTAB
0
TABLE
2
LTYPE
5
5
100
AcDbSymbolTable
0
LTYPE
5
14
100
AcDbSymbolTableRecord
100
AcDbLinetypeTableRecord
2
BYBLOCK
70
0
0
LTYPE
5
15
100
AcDbSymbolTableRecord
100
AcDbLinetypeTableRecord
2
BYLAYER
70
0
0
ENDTAB
0
TABLE
2
LAYER
5
2
100
AcDbSymbolTable
70
2
0
LAYER
5
50
100
AcDbSymbolTableRecord
100
AcDbLayerTableRecord
2
0
70
0
6
CONTINUOUS
0
ENDTAB
0
TABLE
2
STYLE
5
3
100
AcDbSymbolTable
70
1
0
STYLE
5
11
100
AcDbSymbolTableRecord
100
AcDbTextStyleTableRecord
2
STANDARD
70
0
0
ENDTAB
0
TABLE
2
VIEW
5
6
100
AcDbSymbolTable
70
0
0
ENDTAB
0
TABLE
2
UCS
5
7
100
AcDbSymbolTable
70
0
0
ENDTAB
0
TABLE
2
APPID
5
9
100
AcDbSymbolTable
70
2
0
APPID
5
12
100
AcDbSymbolTableRecord
100
AcDbRegAppTableRecord
2
ACAD
70
0
0
ENDTAB
0
TABLE
2
DIMSTYLE
5
A
100
AcDbSymbolTable
70
1
0
ENDTAB
0
TABLE
2
BLOCK_RECORD
5
1
100
AcDbSymbolTable
70
1
0
BLOCK_RECORD
5
1F
100
AcDbSymbolTableRecord
100
AcDbBlockTableRecord
2
*MODEL_SPACE
0
BLOCK_RECORD
5
1B
100
AcDbSymbolTableRecord
100
AcDbBlockTableRecord
2
*PAPER_SPACE
0
ENDTAB
0
ENDSEC
0
SECTION
2
BLOCKS
0
BLOCK
5
20
100
AcDbEntity
100
AcDbBlockBegin
2
*MODEL_SPACE
0
ENDBLK
5
21
100
AcDbEntity
100
AcDbBlockEnd
0
BLOCK
5
1C
100
AcDbEntity
100
AcDbBlockBegin
2
*PAPER_SPACE
0
ENDBLK
5
1D
100
AcDbEntity
100
AcDbBlockEnd
0
ENDSEC
0
SECTION
2
ENTITIES
0
CIRCLE
5
100
100
AcDbEntity
8
0
100
AcDbCircle
10
-42.211697822991013
20
56.772414899477269
30
0
40
1.6000000000000014
210
-3.8659031432583051e-33
220
-4.2909013345228381e-49
230
1
0
CIRCLE
5
101
100
AcDbEntity
8
0
100
AcDbCircle
10
-53.550456822991009
20
27.266956899477254
30
-4.4408920985006262e-15
40
1.6000000000000014
210
-3.8659031432583051e-33
220
-4.2909013345228381e-49
230
1
0
CIRCLE
5
102
100
AcDbEntity
8
0
100
AcDbCircle
10
-57.555914822991021
20
41.428197899477262
30
0
40
1.6000000000000014
210
-3.8659031432583051e-33
220
-4.2909013345228381e-49
230
1
0
CIRCLE
5
103
100
AcDbEntity
8
0
100
AcDbCircle
10
-44.085530822991011
20
27.957813899477252
30
-4.4408920985006262e-15
40
1.6000000000000014
210
-3.8659031432583051e-33
220
-4.2909013345228381e-49
230
1
0
CIRCLE
5
104
100
AcDbEntity
8
0
100
AcDbCircle
10
-9.7682698229910194
20
41.529273899477261
30
0
40
1.6000000000000014
210
-3.8659031432583051e-33
220
-4.2909013345228381e-49
230
1
0
CIRCLE
5
105
100
AcDbEntity
8
0
100
AcDbCircle
10
-19.761056822991019
20
34.321774899477262
30
0
40
1.6000000000000014
210
-3.8659031432583051e-33
220
-4.2909013345228381e-49
230
1
0
CIRCLE
5
106
100
AcDbEntity
8
0
100
AcDbCircle
10
41.488937177008978
20
87.475396899477289
30
0
40
1.6000000000000014
210
-3.8659031432583051e-33
220
-4.2909013345228381e-49
230
1
0
CIRCLE
5
107
100
AcDbEntity
8
0
100
AcDbCircle
10
9.7317301770089824
20
59.529273899477275
30
0
40
1.6000000000000003
210
-3.8659031432583044e-33
220
-1.2325951644078309e-32
230
1
0
CIRCLE
5
108
100
AcDbEntity
8
0
100
AcDbCircle
10
9.7317301770089806
20
41.529273899477261
30
4.4408920985006262e-15
40
1.6000000000000014
210
-3.8659031432583051e-33
220
-4.2909013345228381e-49
230
1
0
CIRCLE
5
109
100
AcDbEntity
8
0
100
AcDbCircle
10
-19.761056822991023
20
-35.787863100522785
30
-4.4408920985006262e-15
40
1.6000000000000014
210
-3.8659031432583051e-33
220
-4.2909013345228381e-49
230
1
0
CIRCLE
5
110
100
AcDbEntity
8
0
100
AcDbCircle
10
88.157984177008956
20
40.80634889947725
30
4.4408920985006262e-15
40
1.6000000000000014
210
-3.8659031432583051e-33
220
-4.2909013345228381e-49
230
1
0
CIRCLE
5
111
100
AcDbEntity
8
0
100
AcDbCircle
10
43.984619177008987
20
27.957813899477244
30
0
40
1.6000000000000014
210
-3.8659031432583051e-33
220
-4.2909013345228381e-49
230
1
0
CIRCLE
5
112
100
AcDbEntity
8
0
100
AcDbCircle
10
42.11078617700899
20
56.772414899477255
30
0
40
1.6000000000000014
210
-3.8659031432583051e-33
220
-4.2909013345228381e-49
230
1
0
CIRCLE
5
113
100
AcDbEntity
8
0
100
AcDbCircle
10
19.660146177008983
20
34.321774899477248
30
4.4408920985006262e-15
40
1.6000000000000036
210
-3.8659031432583044e-33
220
-4.2909013345228366e-49
230
1
0
CIRCLE
5
114
100
AcDbEntity
8
0
100
AcDbCircle
10
57.45500317700899
20
41.428197899477233
30
4.4408920985006262e-15
40
1.6000000000000014
210
-3.8659031432583051e-33
220
-4.2909013345228381e-49
230
1
0
CIRCLE
5
115
100
AcDbEntity
8
0
100
AcDbCircle
10
-44.085530822991032
20
-29.423902100522788
30
0
40
1.6000000000000014
210
-3.8659031432583051e-33
220
-4.2909013345228381e-49
230
1
0
CIRCLE
5
116
100
AcDbEntity
8
0
100
AcDbCircle
10
53.449545177008986
20
27.266956899477243
30
0
40
1.6000000000000014
210
-3.8659031432583051e-33
220
-4.2909013345228381e-49
230
1
0
CIRCLE
5
117
100
AcDbEntity
8
0
100
AcDbCircle
10
-42.211697822991034
20
-58.238503100522799
30
0
40
1.6000000000000014
210
-3.8659031432583051e-33
220
-4.2909013345228381e-49
230
1
0
CIRCLE
5
118
100
AcDbEntity
8
0
100
AcDbCircle
10
-9.7682698229910176
20
59.529273899477275
30
0
40
1.6000000000000014
210
-3.8659031432583051e-33
220
-4.2909013345228381e-49
230
1
0
CIRCLE
5
119
100
AcDbEntity
8
0
100
AcDbCircle
10
-88.258895822991036
20
-42.272435100522799
30
-4.4408920985006262e-15
40
1.6000000000000014
210
-3.8659031432583051e-33
220
-4.2909013345228381e-49
230
1
0
CIRCLE
5
120
100
AcDbEntity
8
0
100
AcDbCircle
10
-41.589847822991018
20
87.475396899477289
30
0
40
1.6000000000000014
210
-3.8659031432583051e-33
220
-4.2909013345228381e-49
230
1
0
CIRCLE
5
121
100
AcDbEntity
8
0
100
AcDbCircle
10
-53.55045682299103
20
-28.733044100522779
30
0
40
1.6000000000000014
210
-3.8659031432583051e-33
220
-4.2909013345228381e-49
230
1
0
CIRCLE
5
122
100
AcDbEntity
8
0
100
AcDbCircle
10
-88.258895822991036
20
40.806348899477257
30
0
40
1.6000000000000014
210
-3.8659031432583051e-33
220
-4.2909013345228381e-49
230
1
0
CIRCLE
5
123
100
AcDbEntity
8
0
100
AcDbCircle
10
-57.555914822991035
20
-42.894286100522798
30
-4.4408920985006262e-15
40
1.6000000000000014
210
-3.8659031432583051e-33
220
-4.2909013345228381e-49
230
1
0
CIRCLE
5
124
100
AcDbEntity
8
0
100
AcDbCircle
10
53.449545177008972
20
-28.733044100522793
30
4.4408920985006262e-15
40
1.6000000000000014
210
-3.8659031432583051e-33
220
-4.2909013345228381e-49
230
1
0
CIRCLE
5
125
100
AcDbEntity
8
0
100
AcDbCircle
10
19.660146177008979
20
-35.787863100522799
30
0
40
1.5999999999999992
210
-3.8659031432583051e-33
220
-4.2909013345228381e-49
230
1
0
CIRCLE
5
126
100
AcDbEntity
8
0
100
AcDbCircle
10
-41.589847822991018
20
-88.941483100522817
30
0
40
1.6000000000000014
210
-3.8659031432583051e-33
220
-4.2909013345228381e-49
230
1
0
CIRCLE
5
127
100
AcDbEntity
8
0
100
AcDbCircle
10
43.984619177008966
20
-29.423902100522792
30
4.4408920985006262e-15
40
1.6000000000000014
210
-3.8659031432583051e-33
220
-4.2909013345228381e-49
230
1
0
CIRCLE
5
128
100
AcDbEntity
8
0
100
AcDbCircle
10
88.157984177008956
20
-42.272435100522813
30
0
40
1.6000000000000014
210
-3.8659031432583051e-33
220
-4.2909013345228381e-49
230
1
0
CIRCLE
5
129
100
AcDbEntity
8
0
100
AcDbCircle
10
41.488937177008978
20
-88.941483100522817
30
0
40
1.6000000000000014
210
-3.8659031432583051e-33
220
-4.2909013345228381e-49
230
1
0
CIRCLE
5
130
100
AcDbEntity
8
0
100
AcDbCircle
10
57.455003177008976
20
-42.894286100522827
30
0
40
1.6000000000000014
210
-3.8659031432583051e-33
220
-4.2909013345228381e-49
230
1
0
CIRCLE
5
131
100
AcDbEntity
8
0
100
AcDbCircle
10
42.110786177008976
20
-58.23850310052282
30
0
40
1.6000000000000014
210
-3.8659031432583051e-33
220
-4.2909013345228381e-49
230
1
0
ELLIPSE
5
132
100
AcDbEntity
8
0
100
AcDbEllipse
10
18.446315883461331
20
47.330918917589869
30
4.4408920985006262e-15
11
1.1098351063269964
21
-1.28773721471101
31
0.0
40
0.99999981014062089
41
0
42
6.2831853071795862
0
ELLIPSE
5
133
100
AcDbEntity
8
0
100
AcDbEllipse
10
26.943281730676372
20
71.065222624062457
30
0
11
1.1098351063270395
21
-1.2877372147109722
31
0.0
40
0.99999981014062111
41
0
42
6.2831853071795862
0
ELLIPSE
5
134
100
AcDbEntity
8
0
100
AcDbEllipse
10
14.550164830624155
20
71.066021430064325
30
0
11
1.1098351063269964
21
-1.28773721471101
31
0.0
40
0.99999981014062089
41
0
42
6.2831853071795862
0
ELLIPSE
5
135
100
AcDbEntity
8
0
100
AcDbEllipse
10
-18.534814981531433
20
47.333302559214104
30
0
11
1.1098351063270993
21
-1.2877372147109205
31
0.0
40
0.99999981014062123
41
0
42
6.2831853071795862
0
ELLIPSE
5
136
100
AcDbEntity
8
0
100
AcDbEllipse
10
-27.028730053797993
20
71.068701423407532
30
0
11
1.1098351063270504
21
-1.2877372147109627
31
0.0
40
0.99999981014062089
41
0
42
6.2831853071795862
0
LWPOLYLINE
5
137
100
AcDbEntity
8
0
100
AcDbPolyline
90
329
70
1
43
0.0
10
46.870798177008986
20
90.958811899477311
10
44.975071177008978
20
91.904433899477297
10
43.060297177008991
20
92.81086689947729
10
41.127286177008983
20
93.677726899477307
10
26.949237177008982
20
79.266643899477302
10
9.9495441770089865
20
79.266643899477288
10
9.9495441770089847
20
74.266957899477276
10
-10.050455822991015
20
74.266957899477276
10
-10.050455822991015
20
79.266643899477288
10
-27.050148822991016
20
79.266643899477288
10
-41.228197822991021
20
93.677726899477292
10
-43.161208822991028
20
92.810865899477321
10
-45.075982822991023
20
91.9044328994773
10
-46.971708822991019
20
90.958810899477299
10
-48.847585822991029
20
89.974399899477291
10
-50.702819822991017
20
88.951615899477304
10
-41.239425822991009
20
79.488220899477284
10
-40.944737822991002
20
79.166624899477284
10
-40.679198822991012
20
78.820568899477308
10
-40.44483182299102
20
78.452686899477285
10
-40.243419822991022
20
78.065778899477294
10
-40.076495822991021
20
77.662787899477308
10
-39.94532982299102
20
77.246781899477284
10
-39.850919822991017
20
76.820927899477297
10
-39.793985822991019
20
76.388465899477296
10
-39.774958822991017
20
75.952686899477285
10
-39.793985822991019
20
75.516907899477289
10
-39.850919822991017
20
75.084445899477288
10
-39.945329822991013
20
74.658591899477287
10
-40.076495822991021
20
74.242585899477291
10
-40.243419822991022
20
73.839594899477291
10
-40.44483182299102
20
73.452686899477285
10
-40.679198822991012
20
73.084804899477291
10
-40.944737822991009
20
72.738748899477287
10
-41.239425822991009
20
72.417152899477287
10
-73.200651822991006
20
40.455926899477262
10
-73.522247822991005
20
40.161238899477269
10
-73.86830382299101
20
39.895700899477255
10
-74.236185822991018
20
39.66133389947727
10
-74.623094822991021
20
39.45992189947728
10
-75.02608482299101
20
39.292997899477278
10
-75.44209082299102
20
39.161831899477271
10
-75.867944822991007
20
39.067421899477267
10
-76.300406822991008
20
39.010486899477272
10
-76.736185822991018
20
38.991460899477268
10
-77.171964822991029
20
39.010486899477272
10
-77.604426822991016
20
39.067421899477267
10
-78.030280822991017
20
39.161831899477271
10
-78.446286822991013
20
39.292997899477278
10
-78.849276822991015
20
39.45992189947728
10
-79.236185822991018
20
39.66133389947727
10
-79.604067822991013
20
39.895700899477269
10
-79.950123822991031
20
40.161238899477276
10
-80.271719822991017
20
40.455926899477255
10
-89.735113822991053
20
49.91932089947727
10
-90.719111822991039
20
48.136116899477273
10
-91.667658822991044
20
46.333804899477265
10
-92.580382822991041
20
44.513089899477265
10
-93.456928822991046
20
42.674683899477259
10
-94.296953822991043
20
40.819305899477257
10
-95.100127822991055
20
38.947680899477263
10
-95.866137822991035
20
37.060541899477279
10
-96.594684822991042
20
35.158624899477275
10
-97.28548382299104
20
33.242673899477268
10
-97.938263822991047
20
31.313438899477269
10
-98.552770822991036
20
29.37167489947727
10
-99.128762822991035
20
27.41813889947727
10
-99.666016822991054
20
25.453596899477265
10
-100.16432082299104
20
23.478814899477264
10
-100.62348082299104
20
21.494566899477267
10
-101.04331782299106
20
19.501627899477256
10
-101.42366682299105
20
17.500776899477252
10
-101.76437882299105
20
15.49279689947725
10
-102.06532182299105
20
13.478472899477252
10
-102.32637682299105
20
11.458591899477248
10
-102.54744282299106
20
9.4339438994772529
10
-102.72843282299105
20
7.4053208994772488
10
-102.86927682299105
20
5.3735158994772467
10
-102.96991882299103
20
3.3393228994772448
10
-103.03031982299105
20
1.3035378994772455
10
-103.05045582299104
20
-0.73304310052275579
10
-103.03031982299105
20
-2.769624100522758
10
-102.96991882299103
20
-4.8054091005227564
10
-102.86927682299105
20
-6.8396021005227592
10
-102.72843282299105
20
-8.8714071005227595
10
-102.54744282299106
20
-10.900030100522766
10
-102.32637682299105
20
-12.924678100522771
10
-102.06532082299105
20
-14.944559100522774
10
-101.76437882299105
20
-16.958883100522772
10
-101.42366582299104
20
-18.966863100522772
10
-101.04331682299105
20
-20.96771410052277
10
-100.62348082299104
20
-22.960653100522769
10
-100.16432082299104
20
-24.944901100522774
10
-99.666015822991056
20
-26.91968210052277
10
-99.128762822991035
20
-28.88422510052278
10
-98.552769822991038
20
-30.837760100522775
10
-97.938263822991047
20
-32.77952510052279
10
-97.285482822991042
20
-34.708760100522781
10
-96.594684822991042
20
-36.624710100522776
10
-95.866137822991035
20
-38.526627100522774
10
-95.100126822991044
20
-40.413767100522776
10
-94.296952822991059
20
-42.285392100522813
10
-93.456928822991046
20
-44.140770100522801
10
-92.580382822991041
20
-45.979176100522793
10
-91.66765782299106
20
-47.799891100522785
10
-90.719111822991039
20
-49.6022031005228
10
-89.735113822991053
20
-51.385407100522812
10
-80.271719822991059
20
-41.922013100522818
10
-79.95012382299106
20
-41.627325100522796
10
-79.604067822991041
20
-41.36178710052279
10
-79.236185822991047
20
-41.127420100522798
10
-78.849276822991044
20
-40.926008100522786
10
-78.446286822991041
20
-40.759084100522784
10
-78.030280822991045
20
-40.627918100522784
10
-77.60442682299103
20
-40.533508100522781
10
-77.171964822991043
20
-40.476573100522785
10
-76.736185822991047
20
-40.457547100522802
10
-76.300406822991022
20
-40.476573100522785
10
-75.867944822991035
20
-40.533508100522795
10
-75.442090822991034
20
-40.627918100522784
10
-75.026084822991038
20
-40.759084100522784
10
-74.623094822991035
20
-40.926008100522786
10
-74.236185822991047
20
-41.127420100522798
10
-73.868303822991038
20
-41.36178710052279
10
-73.522247822991019
20
-41.627325100522796
10
-73.20065182299102
20
-41.922013100522797
10
-41.239425822991038
20
-73.883239100522815
10
-40.94473782299103
20
-74.2048351005228
10
-40.679198822991026
20
-74.550891100522819
10
-40.444831822991034
20
-74.918773100522827
10
-40.243419822991044
20
-75.305681100522804
10
-40.076495822991035
20
-75.708672100522818
10
-39.945329822991027
20
-76.124678100522814
10
-39.850919822991024
20
-76.550532100522815
10
-39.793985822991026
20
-76.982994100522802
10
-39.774958822991024
20
-77.418773100522827
10
-39.793985822991026
20
-77.854552100522824
10
-39.850919822991024
20
-78.287014100522825
10
-39.945329822991027
20
-78.712868100522826
10
-40.076495822991035
20
-79.128874100522808
10
-40.243419822991044
20
-79.531865100522822
10
-40.444831822991034
20
-79.918773100522827
10
-40.679198822991019
20
-80.286655100522836
10
-40.944737822991009
20
-80.632711100522826
10
-41.239425822991009
20
-80.954307100522826
10
-50.702819822991017
20
-90.417702100522803
10
-48.919615822991027
20
-91.401699100522805
10
-47.117303822991026
20
-92.35024610052281
10
-45.296588822991026
20
-93.262971100522819
10
-43.458182822991027
20
-94.139516100522812
10
-41.602804822991018
20
-94.979541100522837
10
-39.731179822991024
20
-95.782715100522836
10
-37.844039822991029
20
-96.548726100522828
10
-35.942122822991024
20
-97.27727210052285
10
-34.026172822991029
20
-97.968071100522835
10
-32.096937822991023
20
-98.620851100522842
10
-30.155172822991027
20
-99.235358100522845
10
-28.201637822991028
20
-99.811350100522844
10
-26.237094822991025
20
-100.34860410052283
10
-24.262313822991025
20
-100.84690810052285
10
-22.278065822991024
20
-101.30606810052284
10
-20.285126822991025
20
-101.72590510052285
10
-18.284275822991027
20
-102.10625410052285
10
-16.276295822991031
20
-102.44696610052286
10
-14.261971822991022
20
-102.74790910052283
10
-12.242090822991027
20
-103.00896410052283
10
-10.217442822991023
20
-103.23003010052284
10
-8.188819822991027
20
-103.41102010052283
10
-6.1570148229910258
20
-103.55186410052282
10
-4.1228218229910238
20
-103.65250610052284
10
-2.0870368229910259
20
-103.71290710052284
10
-0.050455822991023469
20
-103.73304310052282
10
1.9861251770089783
20
-103.71290710052284
10
4.0219101770089773
20
-103.65250610052284
10
6.0561031770089695
20
-103.55186410052282
10
8.0879081770089716
20
-103.41102010052283
10
10.116531177008978
20
-103.23003010052284
10
12.141179177008974
20
-103.00896410052283
10
14.161060177008977
20
-102.74790910052283
10
16.175384177008976
20
-102.44696610052286
10
18.183364177008976
20
-102.10625410052285
10
20.184215177008973
20
-101.72590510052285
10
22.177154177008973
20
-101.30606810052284
10
24.161402177008966
20
-100.84690810052285
10
26.136183177008974
20
-100.34860410052283
10
28.100726177008973
20
-99.811350100522844
10
30.054261177008968
20
-99.235358100522845
10
31.996026177008972
20
-98.620851100522842
10
33.92526117700897
20
-97.968071100522835
10
35.841211177008965
20
-97.27727210052285
10
37.743128177008984
20
-96.548726100522828
10
39.630268177008972
20
-95.782715100522836
10
41.501893177008988
20
-94.979541100522837
10
43.357271177008975
20
-94.139516100522826
10
45.195677177008974
20
-93.262971100522833
10
47.016392177008981
20
-92.35024610052281
10
48.818704177008982
20
-91.401699100522805
10
50.601908177008987
20
-90.417702100522803
10
41.138514177008972
20
-80.954307100522826
10
40.843827177008983
20
-80.632710100522829
10
40.578289177008983
20
-80.286654100522838
10
40.343923177008982
20
-79.91877210052283
10
40.142511177008977
20
-79.531863100522827
10
39.975587177008975
20
-79.128873100522839
10
39.844421177008982
20
-78.71286810052284
10
39.750011177008979
20
-78.287013100522827
10
39.693077177008973
20
-77.854551100522841
10
39.674050177008972
20
-77.418773100522827
10
39.693076177008983
20
-76.982994100522845
10
39.750011177008979
20
-76.550532100522858
10
39.844421177008982
20
-76.124678100522857
10
39.975586177008971
20
-75.708672100522833
10
40.142510177008973
20
-75.305682100522858
10
40.343922177008977
20
-74.918773100522827
10
40.578288177008957
20
-74.550891100522833
10
40.843826177008964
20
-74.204835100522843
10
41.138514177008965
20
-73.883239100522843
10
73.099740177008968
20
-41.922013100522818
10
73.421336177008968
20
-41.62732510052281
10
73.767392177008958
20
-41.361787100522832
10
74.135274177008981
20
-41.127420100522812
10
74.522183177008969
20
-40.926008100522807
10
74.925173177008958
20
-40.759084100522799
10
75.341179177008968
20
-40.627918100522805
10
75.767033177008969
20
-40.533508100522809
10
76.19949517700897
20
-40.476573100522813
10
76.635274177008981
20
-40.457547100522824
10
77.071053177008991
20
-40.476573100522813
10
77.503515177008978
20
-40.533508100522809
10
77.929369177008979
20
-40.627918100522805
10
78.345375177008961
20
-40.759084100522799
10
78.748365177008978
20
-40.926008100522807
10
79.135274177008981
20
-41.127420100522812
10
79.503156177008961
20
-41.361787100522832
10
79.849212177008994
20
-41.62732510052281
10
80.170808177008979
20
-41.922013100522818
10
89.634203177008942
20
-51.385407100522826
10
90.618200177008958
20
-49.602202100522831
10
91.56674617700898
20
-47.799890100522816
10
92.479471177008961
20
-45.979175100522824
10
93.356017177008965
20
-44.140770100522801
10
94.196041177008965
20
-42.285392100522813
10
94.999215177008949
20
-40.413767100522819
10
95.765226177008955
20
-38.526627100522823
10
96.493773177008961
20
-36.624710100522805
10
97.184571177008962
20
-34.708760100522809
10
97.837352177008967
20
-32.779525100522818
10
98.451858177008944
20
-30.837760100522811
10
99.027851177008941
20
-28.884224100522804
10
99.565104177008976
20
-26.919682100522806
10
100.06340817700895
20
-24.944900100522798
10
100.52256817700896
20
-22.9606521005228
10
100.94240517700896
20
-20.967713100522793
10
101.32275417700896
20
-18.966863100522797
10
101.66346617700896
20
-16.95888310052279
10
101.96440917700897
20
-14.944558100522798
10
102.22546517700894
20
-12.924678100522797
10
102.44653117700895
20
-10.900030100522793
10
102.62752117700896
20
-8.8714071005227879
10
102.76836417700895
20
-6.8396021005227849
10
102.86900617700894
20
-4.805409100522783
10
102.92940717700894
20
-2.7696241005227846
10
102.94954417700896
20
-0.73304310052278276
10
102.92940717700894
20
1.3035378994772189
10
102.86900617700894
20
3.3393228994772182
10
102.76836517700897
20
5.3735158994772192
10
102.62752117700896
20
7.4053208994772222
10
102.44653117700895
20
9.433943899477228
10
102.22546517700894
20
11.458591899477231
10
101.96440917700897
20
13.478472899477225
10
101.66346717700897
20
15.492796899477224
10
101.32275417700896
20
17.500776899477231
10
100.94240517700896
20
19.501627899477228
10
100.52256917700895
20
21.494566899477231
10
100.06340917700896
20
23.478814899477229
10
99.565105177008945
20
25.453595899477236
10
99.027851177008941
20
27.418138899477235
10
98.451859177008956
20
29.371673899477237
10
97.837352177008967
20
31.313438899477237
10
97.184572177008945
20
33.242673899477239
10
96.493773177008961
20
35.158623899477242
10
95.765226177008955
20
37.060540899477239
10
94.999216177008947
20
38.947680899477241
10
94.196042177008962
20
40.81930589947725
10
93.356017177008965
20
42.674683899477245
10
92.479471177008961
20
44.513089899477251
10
91.566747177008949
20
46.333804899477251
10
90.618200177008958
20
48.136116899477265
10
89.634203177008942
20
49.919320899477256
10
80.170808177008979
20
40.455926899477248
10
79.84921217700898
20
40.16123889947724
10
79.503156177009004
20
39.895700899477241
10
79.135274177008995
20
39.661333899477256
10
78.748365177008992
20
39.459921899477258
10
78.345375177009004
20
39.292997899477257
10
77.929369177008994
20
39.161831899477249
10
77.503515177008993
20
39.067421899477253
10
77.071053177008991
20
39.010486899477257
10
76.635274177008995
20
38.991460899477254
10
76.19949517700897
20
39.010486899477257
10
75.767033177008983
20
39.067421899477253
10
75.341179177008982
20
39.161831899477249
10
74.925173177009
20
39.292997899477257
10
74.522183177008984
20
39.459921899477258
10
74.135274177008995
20
39.661333899477256
10
73.767392177009
20
39.895700899477248
10
73.421336177008968
20
40.161238899477247
10
73.099740177008968
20
40.455926899477241
10
41.138514177008986
20
72.417152899477259
10
40.843826177008978
20
72.738749899477256
10
40.578288177009
20
73.084804899477277
10
40.34392117700898
20
73.452686899477271
10
40.142509177008989
20
73.839595899477274
10
39.975585177008988
20
74.242586899477274
10
39.84441817700899
20
74.658591899477273
10
39.750009177008977
20
75.084445899477274
10
39.693074177008981
20
75.516908899477272
10
39.674047177009001
20
75.952686899477271
10
39.693074177008981
20
76.388465899477282
10
39.750008177008986
20
76.820927899477283
10
39.84441817700899
20
77.246782899477282
10
39.975584177008997
20
77.66278789947728
10
40.142508177008992
20
78.06577889947728
10
40.343920177008989
20
78.452686899477271
10
40.578287177008988
20
78.82056889947728
10
40.843825177008988
20
79.16662489947727
10
41.138514177008986
20
79.48822089947727
10
50.60190817700898
20
88.951615899477275
10
48.746675177008967
20
89.974400899477288
0
ENDSEC
0
SECTION
2
OBJECTS
0
DICTIONARY
5
C
100
AcDbDictionary
3
ACAD_GROUP
350
D
3
ACAD_MLINESTYLE
350
17
0
DICTIONARY
5
D
100
AcDbDictionary
0
DICTIONARY
5
1A
330
C
100
AcDbDictionary
0
DICTIONARY
5
17
100
AcDbDictionary
0
ENDSEC
0
EOF
