0
SECTION
2
HEADER
9
$INSUNITS
70
4
9
$ACADVER
1
AC1014
9
$HANDSEED
5
FFFF
0
ENDSEC
0
SECTION
2
TABLES
0
TABLE
2
VPORT
5
8
100
AcDbSymbolTable
0
ENDTAB
0
TABLE
2
LTYPE
5
5
100
AcDbSymbolTable
0
LTYPE
5
14
100
AcDbSymbolTableRecord
100
AcDbLinetypeTableRecord
2
BYBLOCK
70
0
0
LTYPE
5
15
100
AcDbSymbolTableRecord
100
AcDbLinetypeTableRecord
2
BYLAYER
70
0
0
ENDTAB
0
TABLE
2
LAYER
5
2
100
AcDbSymbolTable
70
2
0
LAYER
5
50
100
AcDbSymbolTableRecord
100
AcDbLayerTableRecord
2
0
70
0
6
CONTINUOUS
0
ENDTAB
0
TABLE
2
STYLE
5
3
100
AcDbSymbolTable
70
1
0
STYLE
5
11
100
AcDbSymbolTableRecord
100
AcDbTextStyleTableRecord
2
STANDARD
70
0
0
ENDTAB
0
TABLE
2
VIEW
5
6
100
AcDbSymbolTable
70
0
0
ENDTAB
0
TABLE
2
UCS
5
7
100
AcDbSymbolTable
70
0
0
ENDTAB
0
TABLE
2
APPID
5
9
100
AcDbSymbolTable
70
2
0
APPID
5
12
100
AcDbSymbolTableRecord
100
AcDbRegAppTableRecord
2
ACAD
70
0
0
ENDTAB
0
TABLE
2
DIMSTYLE
5
A
100
AcDbSymbolTable
70
1
0
ENDTAB
0
TABLE
2
BLOCK_RECORD
5
1
100
AcDbSymbolTable
70
1
0
BLOCK_RECORD
5
1F
100
AcDbSymbolTableRecord
100
AcDbBlockTableRecord
2
*MODEL_SPACE
0
BLOCK_RECORD
5
1B
100
AcDbSymbolTableRecord
100
AcDbBlockTableRecord
2
*PAPER_SPACE
0
ENDTAB
0
ENDSEC
0
SECTION
2
BLOCKS
0
BLOCK
5
20
100
AcDbEntity
100
AcDbBlockBegin
2
*MODEL_SPACE
0
ENDBLK
5
21
100
AcDbEntity
100
AcDbBlockEnd
0
BLOCK
5
1C
100
AcDbEntity
100
AcDbBlockBegin
2
*PAPER_SPACE
0
ENDBLK
5
1D
100
AcDbEntity
100
AcDbBlockEnd
0
ENDSEC
0
SECTION
2
ENTITIES
0
LWPOLYLINE
5
100
100
AcDbEntity
8
0
100
AcDbPolyline
90
32
70
1
43
0.0
10
-10.050455972002638
20
74.266959017064309
10
-10.050455972002638
20
79.266645275372923
10
-27.050148972131982
20
79.266645275372923
10
-41.228197962310929
20
93.677728218904662
42
0.02571589250144107
10
-50.702820118547997
20
88.95161651660186
10
-41.23942556817515
20
79.488221966158662
42
-0.41421356237309542
10
-41.239425568175136
20
72.417154154293172
10
-73.200652077808954
20
40.455927644659333
42
-0.41421356237299678
10
-80.271719889673236
20
40.455927644658153
10
-89.735114440112483
20
49.919322195039811
42
0.26287699632698319
10
-89.735114440115638
20
-51.385406396079759
10
-80.271719889672568
20
-41.922011845706791
42
-0.41421356237309509
10
-73.200652077807064
20
-41.922011845706777
10
-41.239425568175101
20
-73.883238355338761
42
-0.41421356237309431
10
-41.239425568175122
20
-80.954306167204265
10
-50.702820118553646
20
-90.41770071764418
42
0.26287699632698752
10
50.60190847256596
20
-90.417700717647335
10
41.13851392219307
20
-80.954306167204237
42
-0.41421356237309537
10
41.138513922193063
20
-73.883238355338761
10
73.099740431825012
20
-41.922011845706763
42
-0.41421356237309398
10
80.170808243690473
20
-41.922011845706741
10
89.634202794120185
20
-51.38540639610347
42
0.26287699632704054
10
89.634202794133586
20
49.919322195034198
10
80.170808243691226
20
40.455927644658175
42
-0.41421356237299495
10
73.099740431826959
20
40.45592764465934
10
41.138513922193098
20
72.4171541542932
42
-0.41421356237309281
10
41.138513922193091
20
79.488221966158648
10
50.601908472571786
20
88.951616516598534
42
0.025715892493114276
10
41.127286319477648
20
93.677728217531325
10
26.949237323113021
20
79.266645275372923
10
9.9495441754905229
20
79.266645275372923
10
9.9495441754905194
20
74.266959017064309
0
CIRCLE
5
101
100
AcDbEntity
8
0
100
AcDbCircle
10
-19.761056822991026
20
34.321775899477259
30
-4.4408920985006262e-15
40
1.6000000000000014
210
-2.4651128136301998e-32
220
-1.3677143163716639e-48
230
1
0
CIRCLE
5
102
100
AcDbEntity
8
0
100
AcDbCircle
10
-42.211697822991027
20
56.772415899477274
30
0
40
1.6000000000000014
210
-2.4651128136301998e-32
220
-1.3677143163716639e-48
230
1
0
CIRCLE
5
103
100
AcDbEntity
8
0
100
AcDbCircle
10
42.110786177008983
20
-58.238502100522815
30
0
40
1.6000000000000014
210
-2.4651128136301998e-32
220
-1.3677143163716639e-48
230
1
0
CIRCLE
5
104
100
AcDbEntity
8
0
100
AcDbCircle
10
19.660146177008983
20
-35.787862100522794
30
4.4408920985006262e-15
40
1.6000000000000014
210
-2.4651128136301998e-32
220
-1.3677143163716639e-48
230
1
0
CIRCLE
5
105
100
AcDbEntity
8
0
100
AcDbCircle
10
-44.085530822991032
20
-29.42390110052278
30
0
40
1.6000000000000014
210
-2.4651128136301998e-32
220
-1.3677143163716639e-48
230
1
0
CIRCLE
5
106
100
AcDbEntity
8
0
100
AcDbCircle
10
-57.555914822991042
20
-42.894285100522787
30
-4.4408920985006262e-15
40
1.6000000000000014
210
-2.4651128136301998e-32
220
-1.3677143163716639e-48
230
1
0
CIRCLE
5
107
100
AcDbEntity
8
0
100
AcDbCircle
10
-42.211697822991042
20
-58.238502100522794
30
0
40
1.6000000000000014
210
-2.4651128136301998e-32
220
-1.3677143163716639e-48
230
1
0
CIRCLE
5
108
100
AcDbEntity
8
0
100
AcDbCircle
10
-19.76105682299103
20
-35.787862100522787
30
0
40
1.6000000000000014
210
-2.4651128136301998e-32
220
-1.3677143163716639e-48
230
1
0
CIRCLE
5
109
100
AcDbEntity
8
0
100
AcDbCircle
10
43.984619177008987
20
-29.423901100522791
30
0
40
1.6000000000000014
210
-2.4651128136301998e-32
220
-1.3677143163716639e-48
230
1
0
CIRCLE
5
110
100
AcDbEntity
8
0
100
AcDbCircle
10
57.455003177008983
20
-42.894285100522808
30
0
40
1.6000000000000014
210
-2.4651128136301998e-32
220
-1.3677143163716639e-48
230
1
0
CIRCLE
5
111
100
AcDbEntity
8
0
100
AcDbCircle
10
-57.555914822991028
20
41.428198899477266
30
0
40
1.6000000000000014
210
-2.4651128136301998e-32
220
-1.3677143163716639e-48
230
1
0
CIRCLE
5
112
100
AcDbEntity
8
0
100
AcDbCircle
10
-44.085530822991032
20
27.957814899477256
30
0
40
1.6000000000000014
210
-2.4651128136301998e-32
220
-1.3677143163716639e-48
230
1
0
CIRCLE
5
113
100
AcDbEntity
8
0
100
AcDbCircle
10
43.984619177008987
20
27.957814899477249
30
0
40
1.6000000000000014
210
-2.4651128136301998e-32
220
-1.3677143163716639e-48
230
1
0
CIRCLE
5
114
100
AcDbEntity
8
0
100
AcDbCircle
10
57.455003177009004
20
41.428198899477245
30
4.4408920985006262e-15
40
1.6000000000000014
210
-2.4651128136301998e-32
220
-1.3677143163716639e-48
230
1
0
CIRCLE
5
115
100
AcDbEntity
8
0
100
AcDbCircle
10
-9.768269822991023
20
59.529274899477272
30
0
40
1.6000000000000014
210
-2.4651128136301998e-32
220
-1.3677143163716639e-48
230
1
0
CIRCLE
5
116
100
AcDbEntity
8
0
100
AcDbCircle
10
9.7317301770089806
20
59.529274899477272
30
0
40
1.6000000000000014
210
-2.4651128136301998e-32
220
-1.3677143163716639e-48
230
1
0
CIRCLE
5
117
100
AcDbEntity
8
0
100
AcDbCircle
10
9.7317301770089806
20
41.529274899477258
30
4.4408920985006262e-15
40
1.6000000000000014
210
-2.4651128136301998e-32
220
-1.3677143163716639e-48
230
1
0
CIRCLE
5
118
100
AcDbEntity
8
0
100
AcDbCircle
10
19.660146177008986
20
34.321775899477252
30
0
40
1.6000000000000014
210
-2.4651128136301998e-32
220
-1.3677143163716639e-48
230
1
0
CIRCLE
5
119
100
AcDbEntity
8
0
100
AcDbCircle
10
42.110786177008997
20
56.772415899477259
30
0
40
1.6000000000000014
210
-2.4651128136301998e-32
220
-1.3677143163716639e-48
230
1
0
CIRCLE
5
120
100
AcDbEntity
8
0
100
AcDbCircle
10
-41.589848219752945
20
-88.941482055593696
30
0
40
1.6000000000000059
210
7.7515185461754159e-37
220
4.3007617463202291e-53
230
1
0
CIRCLE
5
121
100
AcDbEntity
8
0
100
AcDbCircle
10
41.488936573769706
20
87.475397854551233
30
0
40
1.6000000000000103
210
-2.4651128136302001e-32
220
-1.3677143163716653e-48
230
1
0
CIRCLE
5
122
100
AcDbEntity
8
0
100
AcDbCircle
10
88.157984132081253
20
40.806350296238485
30
4.4408920985006262e-15
40
1.6000000000000014
210
-2.4651128136302001e-32
220
-1.3677143163716653e-48
230
1
0
CIRCLE
5
123
100
AcDbEntity
8
0
100
AcDbCircle
10
-88.258895778064513
20
-42.272434497280955
30
-4.4408920985006262e-15
40
1.6000000000000014
210
-2.4651128136302001e-32
220
-1.3677143163716653e-48
230
1
0
CIRCLE
5
124
100
AcDbEntity
8
0
100
AcDbCircle
10
41.488936573768115
20
-88.941482055594108
30
0
40
1.6000000000000014
210
-2.4651128136302001e-32
220
-1.3677143163716653e-48
230
1
0
CIRCLE
5
125
100
AcDbEntity
8
0
100
AcDbCircle
10
-41.58984821975136
20
87.47539785455163
30
0
40
1.6000000000000014
210
-2.4651128136302001e-32
220
-1.3677143163716653e-48
230
1
0
CIRCLE
5
126
100
AcDbEntity
8
0
100
AcDbCircle
10
88.157984132080841
20
-42.272434497282561
30
0
40
1.6000000000000014
210
-2.4651128136302001e-32
220
-1.3677143163716653e-48
230
1
0
CIRCLE
5
127
100
AcDbEntity
8
0
100
AcDbCircle
10
-88.258895778064101
20
40.806350296240083
30
0
40
1.6000000000000014
210
-2.4651128136302001e-32
220
-1.3677143163716653e-48
230
1
0
CIRCLE
5
128
100
AcDbEntity
8
0
100
AcDbCircle
10
-53.550456568049015
20
-28.73304254755773
30
0
40
1.6000000000000014
210
-2.4651903288156619e-32
220
-1.3681005550041452e-48
230
1
0
CIRCLE
5
129
100
AcDbEntity
8
0
100
AcDbCircle
10
53.449544922067105
20
-28.733042547557361
30
4.4408920985006262e-15
40
1.6000000000000014
210
-2.4651903288156619e-32
220
-1.3681005550041452e-48
230
1
0
CIRCLE
5
130
100
AcDbEntity
8
0
100
AcDbCircle
10
-53.550456568049007
20
27.266958346512205
30
-4.4408920985006262e-15
40
1.6000000000000014
210
-2.4651903288156619e-32
220
-1.3681005550041452e-48
230
1
0
CIRCLE
5
131
100
AcDbEntity
8
0
100
AcDbCircle
10
53.449544922067112
20
27.266958346511828
30
0
40
1.6000000000000014
210
-2.4651903288156619e-32
220
-1.3681005550041452e-48
230
1
0
CIRCLE
5
132
100
AcDbEntity
8
0
100
AcDbCircle
10
-9.7682698229910283
20
41.529274899477258
30
0
40
1.6000000000000014
210
-9.8606838000771847e-32
220
-5.4709862883390375e-48
230
1
0
ENDSEC
0
SECTION
2
OBJECTS
0
DICTIONARY
5
C
100
AcDbDictionary
3
ACAD_GROUP
350
D
3
ACAD_MLINESTYLE
350
17
0
DICTIONARY
5
D
100
AcDbDictionary
0
DICTIONARY
5
1A
330
C
100
AcDbDictionary
0
DICTIONARY
5
17
100
AcDbDictionary
0
ENDSEC
0
EOF
