0
SECTION
2
HEADER
9
$INSUNITS
70
4
9
$ACADVER
1
AC1014
9
$HANDSEED
5
FFFF
0
ENDSEC
0
SECTION
2
TABLES
0
TABLE
2
VPORT
5
8
100
AcDbSymbolTable
0
ENDTAB
0
TABLE
2
LTYPE
5
5
100
AcDbSymbolTable
0
LTYPE
5
14
100
AcDbSymbolTableRecord
100
AcDbLinetypeTableRecord
2
BYBLOCK
70
0
0
LTYPE
5
15
100
AcDbSymbolTableRecord
100
AcDbLinetypeTableRecord
2
BYLAYER
70
0
0
ENDTAB
0
TABLE
2
LAYER
5
2
100
AcDbSymbolTable
70
2
0
LAYER
5
50
100
AcDbSymbolTableRecord
100
AcDbLayerTableRecord
2
0
70
0
6
CONTINUOUS
0
ENDTAB
0
TABLE
2
STYLE
5
3
100
AcDbSymbolTable
70
1
0
STYLE
5
11
100
AcDbSymbolTableRecord
100
AcDbTextStyleTableRecord
2
STANDARD
70
0
0
ENDTAB
0
TABLE
2
VIEW
5
6
100
AcDbSymbolTable
70
0
0
ENDTAB
0
TABLE
2
UCS
5
7
100
AcDbSymbolTable
70
0
0
ENDTAB
0
TABLE
2
APPID
5
9
100
AcDbSymbolTable
70
2
0
APPID
5
12
100
AcDbSymbolTableRecord
100
AcDbRegAppTableRecord
2
ACAD
70
0
0
ENDTAB
0
TABLE
2
DIMSTYLE
5
A
100
AcDbSymbolTable
70
1
0
ENDTAB
0
TABLE
2
BLOCK_RECORD
5
1
100
AcDbSymbolTable
70
1
0
BLOCK_RECORD
5
1F
100
AcDbSymbolTableRecord
100
AcDbBlockTableRecord
2
*MODEL_SPACE
0
BLOCK_RECORD
5
1B
100
AcDbSymbolTableRecord
100
AcDbBlockTableRecord
2
*PAPER_SPACE
0
ENDTAB
0
ENDSEC
0
SECTION
2
BLOCKS
0
BLOCK
5
20
100
AcDbEntity
100
AcDbBlockBegin
2
*MODEL_SPACE
0
ENDBLK
5
21
100
AcDbEntity
100
AcDbBlockEnd
0
BLOCK
5
1C
100
AcDbEntity
100
AcDbBlockBegin
2
*PAPER_SPACE
0
ENDBLK
5
1D
100
AcDbEntity
100
AcDbBlockEnd
0
ENDSEC
0
SECTION
2
ENTITIES
0
CIRCLE
5
100
100
AcDbEntity
8
0
100
AcDbCircle
10
-27.029051392557392
20
66.068700889397178
30
-4.4408920985006262e-15
40
1.6000000000000014
210
-1.998042278797727e-49
220
-1.1088485617517394e-65
230
1
0
CIRCLE
5
101
100
AcDbEntity
8
0
100
AcDbCircle
10
18.445994544701971
20
42.330918383579515
30
0
40
1.6000000000000036
210
-1.998042278797724e-49
220
-1.1088485617517377e-65
230
1
0
CIRCLE
5
102
100
AcDbEntity
8
0
100
AcDbCircle
10
14.549843491864799
20
66.066020896053971
30
0
40
1.5999999999999992
210
-1.6155871338926322e-27
220
-8.9659837972969027e-44
230
1
0
CIRCLE
5
103
100
AcDbEntity
8
0
100
AcDbCircle
10
-18.535136320290842
20
42.333302025203785
30
4.4408920985006262e-15
40
1.6000000000000036
210
-1.998042278797724e-49
220
-1.1088485617517377e-65
230
1
0
CIRCLE
5
104
100
AcDbEntity
8
0
100
AcDbCircle
10
26.942952346073671
20
66.065231425611756
30
-4.4408920985006262e-15
40
1.6000000000000014
210
-1.998042278797727e-49
220
-1.1088485617517394e-65
230
1
0
CIRCLE
5
105
100
AcDbEntity
8
0
100
AcDbCircle
10
-44.085439822547784
20
27.957643899782166
30
-4.4408920985006262e-15
40
1.6000000000000014
210
1.318581000353818e-27
220
-8.474234010188576e-32
230
1
0
CIRCLE
5
106
100
AcDbEntity
8
0
100
AcDbCircle
10
-41.589756822547812
20
-88.941653100217877
30
0
40
1.6000000000000014
210
1.318581000353818e-27
220
-8.474234010188576e-32
230
1
0
CIRCLE
5
107
100
AcDbEntity
8
0
100
AcDbCircle
10
42.110877177452231
20
-58.238673100217888
30
0
40
1.6000000000000014
210
1.318581000353818e-27
220
-8.474234010188576e-32
230
1
0
CIRCLE
5
108
100
AcDbEntity
8
0
100
AcDbCircle
10
-19.760965822547796
20
34.321604899782173
30
0
40
1.6000000000000014
210
1.318581000353818e-27
220
-8.474234010188576e-32
230
1
0
CIRCLE
5
109
100
AcDbEntity
8
0
100
AcDbCircle
10
41.489028177452241
20
-88.941653100217877
30
-4.4408920985006262e-15
40
1.6000000000000014
210
1.318581000353818e-27
220
-8.474234010188576e-32
230
1
0
CIRCLE
5
110
100
AcDbEntity
8
0
100
AcDbCircle
10
-88.25880482254783
20
40.806178899782175
30
0
40
1.6000000000000014
210
1.318581000353818e-27
220
-8.474234010188576e-32
230
1
0
CIRCLE
5
111
100
AcDbEntity
8
0
100
AcDbCircle
10
57.455094177452246
20
-42.89445610021788
30
4.4408920985006262e-15
40
1.6000000000000014
210
1.318581000353818e-27
220
-8.474234010188576e-32
230
1
0
CIRCLE
5
112
100
AcDbEntity
8
0
100
AcDbCircle
10
-9.7681788225477852
20
41.529103899782172
30
0
40
1.6000000000000014
210
1.318581000353818e-27
220
-8.474234010188576e-32
230
1
0
CIRCLE
5
113
100
AcDbEntity
8
0
100
AcDbCircle
10
-42.211606822547822
20
-58.238673100217888
30
0
40
1.6000000000000014
210
1.318581000353818e-27
220
-8.474234010188576e-32
230
1
0
CIRCLE
5
114
100
AcDbEntity
8
0
100
AcDbCircle
10
19.66023717745221
20
-35.788033100217866
30
0
40
1.6000000000000014
210
1.318581000353818e-27
220
-8.474234010188576e-32
230
1
0
CIRCLE
5
115
100
AcDbEntity
8
0
100
AcDbCircle
10
-42.2116068225478
20
56.772244899782159
30
0
40
1.6000000000000014
210
1.318581000353818e-27
220
-8.474234010188576e-32
230
1
0
CIRCLE
5
116
100
AcDbEntity
8
0
100
AcDbCircle
10
88.158075177452218
20
-42.272605100217895
30
0
40
1.6000000000000014
210
1.318581000353818e-27
220
-8.474234010188576e-32
230
1
0
CIRCLE
5
117
100
AcDbEntity
8
0
100
AcDbCircle
10
43.984710177452222
20
-29.424072100217877
30
0
40
1.6000000000000014
210
1.318581000353818e-27
220
-8.474234010188576e-32
230
1
0
CIRCLE
5
118
100
AcDbEntity
8
0
100
AcDbCircle
10
53.449636177452234
20
-28.733214100217872
30
0
40
1.6000000000000014
210
1.318581000353818e-27
220
-8.474234010188576e-32
230
1
0
CIRCLE
5
119
100
AcDbEntity
8
0
100
AcDbCircle
10
-57.555823822547801
20
41.428027899782158
30
0
40
1.6000000000000014
210
1.318581000353818e-27
220
-8.474234010188576e-32
230
1
0
CIRCLE
5
120
100
AcDbEntity
8
0
100
AcDbCircle
10
41.489028177452248
20
87.475226899782172
30
-4.4408920985006262e-15
40
1.6000000000000014
210
1.318581000353818e-27
220
-8.474234010188576e-32
230
1
0
CIRCLE
5
121
100
AcDbEntity
8
0
100
AcDbCircle
10
-57.555823822547822
20
-42.894456100217873
30
4.4408920985006262e-15
40
1.6000000000000014
210
1.318581000353818e-27
220
-8.474234010188576e-32
230
1
0
CIRCLE
5
122
100
AcDbEntity
8
0
100
AcDbCircle
10
-19.760965822547803
20
-35.788033100217845
30
0
40
1.6000000000000014
210
1.318581000353818e-27
220
-8.474234010188576e-32
230
1
0
CIRCLE
5
123
100
AcDbEntity
8
0
100
AcDbCircle
10
-88.258804822547859
20
-42.272605100217859
30
0
40
1.6000000000000014
210
1.318581000353818e-27
220
-8.474234010188576e-32
230
1
0
CIRCLE
5
124
100
AcDbEntity
8
0
100
AcDbCircle
10
9.7318211774522254
20
59.529103899782157
30
0
40
1.6000000000000014
210
1.318581000353818e-27
220
-8.474234010188576e-32
230
1
0
CIRCLE
5
125
100
AcDbEntity
8
0
100
AcDbCircle
10
-44.085439822547812
20
-29.424072100217884
30
0
40
1.6000000000000014
210
1.318581000353818e-27
220
-8.474234010188576e-32
230
1
0
CIRCLE
5
126
100
AcDbEntity
8
0
100
AcDbCircle
10
-53.550365822547818
20
-28.733214100217861
30
0
40
1.6000000000000014
210
1.318581000353818e-27
220
-8.474234010188576e-32
230
1
0
CIRCLE
5
127
100
AcDbEntity
8
0
100
AcDbCircle
10
42.110877177452259
20
56.772244899782137
30
0
40
1.6000000000000014
210
1.318581000353818e-27
220
-8.474234010188576e-32
230
1
0
CIRCLE
5
128
100
AcDbEntity
8
0
100
AcDbCircle
10
9.7318211774522219
20
41.529103899782164
30
0
40
1.6000000000000014
210
1.318581000353818e-27
220
-8.474234010188576e-32
230
1
0
CIRCLE
5
129
100
AcDbEntity
8
0
100
AcDbCircle
10
43.984710177452236
20
27.957643899782152
30
0
40
1.6000000000000014
210
1.318581000353818e-27
220
-8.474234010188576e-32
230
1
0
CIRCLE
5
130
100
AcDbEntity
8
0
100
AcDbCircle
10
19.660237177452224
20
34.321604899782159
30
4.4408920985006262e-15
40
1.6000000000000014
210
1.318581000353818e-27
220
-8.474234010188576e-32
230
1
0
CIRCLE
5
131
100
AcDbEntity
8
0
100
AcDbCircle
10
57.455094177452253
20
41.428027899782137
30
0
40
1.6000000000000014
210
1.318581000353818e-27
220
-8.474234010188576e-32
230
1
0
CIRCLE
5
132
100
AcDbEntity
8
0
100
AcDbCircle
10
-53.550365822547796
20
27.266786899782161
30
0
40
1.6000000000000014
210
1.318581000353818e-27
220
-8.474234010188576e-32
230
1
0
CIRCLE
5
133
100
AcDbEntity
8
0
100
AcDbCircle
10
53.449636177452234
20
27.266786899782147
30
0
40
1.6000000000000014
210
1.318581000353818e-27
220
-8.474234010188576e-32
230
1
0
CIRCLE
5
134
100
AcDbEntity
8
0
100
AcDbCircle
10
88.158075177452261
20
40.806178899782147
30
0
40
1.6000000000000014
210
1.318581000353818e-27
220
-8.474234010188576e-32
230
1
0
CIRCLE
5
135
100
AcDbEntity
8
0
100
AcDbCircle
10
-41.589756822547812
20
87.475226899782186
30
-4.4408920985006262e-15
40
1.6000000000000014
210
1.318581000353818e-27
220
-8.474234010188576e-32
230
1
0
CIRCLE
5
136
100
AcDbEntity
8
0
100
AcDbCircle
10
-9.7681788225477835
20
59.52910389978215
30
0
40
1.6000000000000014
210
1.318581000353818e-27
220
-8.474234010188576e-32
230
1
0
LWPOLYLINE
5
137
100
AcDbEntity
8
0
100
AcDbPolyline
90
329
70
1
43
0.0
10
46.870889177452248
20
90.958641899782151
10
44.975162177452255
20
91.904263899782151
10
43.060388177452261
20
92.810696899782172
10
41.127377177452253
20
93.677556899782161
10
26.949328177452237
20
79.26647389978217
10
9.9496351774522296
20
79.266473899782156
10
9.9496351774522278
20
74.266787899782145
10
-10.050364822547781
20
74.266787899782145
10
-10.050364822547786
20
79.266473899782142
10
-27.050057822547799
20
79.26647389978217
10
-41.228106822547801
20
93.677556899782175
10
-43.161117822547787
20
92.810695899782175
10
-45.075891822547788
20
91.904262899782182
10
-46.971617822547806
20
90.958640899782182
10
-48.847494822547802
20
89.974229899782188
10
-50.702728822547805
20
88.951445899782172
10
-41.239334822547804
20
79.488050899782166
10
-40.944646822547782
20
79.166454899782153
10
-40.679107822547785
20
78.820398899782163
10
-40.444740822547807
20
78.452516899782154
10
-40.243328822547809
20
78.065608899782163
10
-40.076404822547801
20
77.662617899782177
10
-39.9452388225478
20
77.246611899782152
10
-39.850828822547797
20
76.820757899782151
10
-39.793894822547806
20
76.388295899782165
10
-39.774867822547805
20
75.952516899782168
10
-39.793894822547806
20
75.516737899782186
10
-39.850828822547797
20
75.084275899782142
10
-39.945238822547807
20
74.658421899782155
10
-40.076404822547801
20
74.242415899782188
10
-40.243328822547795
20
73.839424899782159
10
-40.444740822547793
20
73.452516899782168
10
-40.679107822547813
20
73.084634899782174
10
-40.944646822547782
20
72.738578899782155
10
-41.239334822547768
20
72.416982899782141
10
-73.200560822547814
20
40.455756899782152
10
-73.522156822547814
20
40.161068899782173
10
-73.868212822547818
20
39.895530899782166
10
-74.236094822547813
20
39.661163899782167
10
-74.623003822547815
20
39.459751899782177
10
-75.025993822547832
20
39.292827899782175
10
-75.441999822547814
20
39.161661899782175
10
-75.867853822547815
20
39.067251899782178
10
-76.300315822547802
20
39.010316899782175
10
-76.736094822547813
20
38.991290899782179
10
-77.171873822547809
20
39.010316899782175
10
-77.604335822547796
20
39.067251899782178
10
-78.030189822547811
20
39.161661899782189
10
-78.446195822547821
20
39.292827899782182
10
-78.849185822547824
20
39.459751899782169
10
-79.236094822547813
20
39.661163899782174
10
-79.603976822547821
20
39.895530899782187
10
-79.950032822547811
20
40.161068899782194
10
-80.271628822547839
20
40.455756899782159
10
-89.735022822547833
20
49.919150899782153
10
-90.719020822547819
20
48.135946899782169
10
-91.667567822547824
20
46.333634899782169
10
-92.580291822547849
20
44.512919899782176
10
-93.456837822547826
20
42.674513899782184
10
-94.296862822547851
20
40.819135899782168
10
-95.100036822547793
20
38.947510899782174
10
-95.866046822547801
20
37.060371899782176
10
-96.594593822547822
20
35.158454899782186
10
-97.285392822547863
20
33.242503899782179
10
-97.938172822547841
20
31.313268899782184
10
-98.552679822547859
20
29.371504899782181
10
-99.128671822547801
20
27.417968899782174
10
-99.665925822547877
20
25.453426899782169
10
-100.16422982254782
20
23.478644899782175
10
-100.62338982254784
20
21.494396899782174
10
-101.04322682254787
20
19.501457899782174
10
-101.42357582254787
20
17.500606899782174
10
-101.76428782254783
20
15.492626899782172
10
-102.06523082254785
20
13.478302899782168
10
-102.32628582254787
20
11.45842189978217
10
-102.54735182254788
20
9.4337738997821692
10
-102.72834182254789
20
7.4051508997821696
10
-102.86918582254785
20
5.3733458997821684
10
-102.96982782254781
20
3.3391528997821682
10
-103.03022882254783
20
1.3033678997821667
10
-103.05036482254785
20
-0.73321310021783304
10
-103.03022882254783
20
-2.7697941002178372
10
-102.96982782254784
20
-4.805579100217833
10
-102.86918582254785
20
-6.8397721002178375
10
-102.72834182254786
20
-8.8715771002178343
10
-102.5473518225479
20
-10.90020010021783
10
-102.32628582254785
20
-12.924848100217833
10
-102.06522982254788
20
-14.944729100217833
10
-101.76428782254783
20
-16.95905310021783
10
-101.42357482254786
20
-18.967033100217833
10
-101.04322582254787
20
-20.967884100217837
10
-100.62338982254784
20
-22.960823100217837
10
-100.16422982254782
20
-24.945071100217842
10
-99.665924822547851
20
-26.919852100217845
10
-99.12867182254783
20
-28.88439510021783
10
-98.552678822547804
20
-30.837930100217868
10
-97.938172822547855
20
-32.77969510021785
10
-97.285391822547851
20
-34.70893010021787
10
-96.594593822547836
20
-36.624880100217851
10
-95.866046822547844
20
-38.526797100217848
10
-95.100035822547852
20
-40.413937100217865
10
-94.296861822547839
20
-42.285562100217852
10
-93.456837822547826
20
-44.140940100217854
10
-92.580291822547849
20
-45.979346100217853
10
-91.66756682254784
20
-47.800061100217867
10
-90.719020822547833
20
-49.602373100217875
10
-89.735022822547833
20
-51.385577100217887
10
-80.271628822547839
20
-41.922183100217858
10
-79.95003282254784
20
-41.627495100217864
10
-79.603976822547821
20
-41.361957100217872
10
-79.236094822547827
20
-41.127590100217873
10
-78.849185822547838
20
-40.926178100217868
10
-78.44619582254785
20
-40.759254100217859
10
-78.030189822547825
20
-40.628088100217859
10
-77.604335822547824
20
-40.533678100217863
10
-77.171873822547838
20
-40.476743100217874
10
-76.736094822547813
20
-40.457717100217856
10
-76.300315822547816
20
-40.47674310021786
10
-75.867853822547829
20
-40.533678100217891
10
-75.441999822547814
20
-40.62808810021788
10
-75.025993822547832
20
-40.759254100217873
10
-74.62300382254783
20
-40.926178100217868
10
-74.236094822547827
20
-41.127590100217887
10
-73.868212822547832
20
-41.36195710021785
10
-73.522156822547814
20
-41.627495100217885
10
-73.200560822547828
20
-41.922183100217858
10
-41.239334822547811
20
-73.883409100217847
10
-40.944646822547817
20
-74.205005100217903
10
-40.67910782254782
20
-74.551061100217908
10
-40.444740822547814
20
-74.91894310021793
10
-40.243328822547824
20
-75.305851100217865
10
-40.076404822547829
20
-75.708842100217865
10
-39.945238822547815
20
-76.124848100217875
10
-39.850828822547825
20
-76.550702100217862
10
-39.793894822547827
20
-76.98316410021792
10
-39.774867822547812
20
-77.418943100217859
10
-39.79389482254782
20
-77.854722100217913
10
-39.850828822547818
20
-78.287184100217871
10
-39.945238822547815
20
-78.713038100217901
10
-40.076404822547829
20
-79.129044100217854
10
-40.243328822547824
20
-79.532035100217854
10
-40.444740822547807
20
-79.918943100217859
10
-40.67910782254782
20
-80.28682510021784
10
-40.944646822547803
20
-80.632881100217858
10
-41.239334822547804
20
-80.954477100217872
10
-50.702728822547812
20
-90.417872100217878
10
-48.919524822547814
20
-91.401869100217837
10
-47.117212822547827
20
-92.350416100217885
10
-45.296497822547821
20
-93.263141100217894
10
-43.458091822547821
20
-94.139686100217887
10
-41.602713822547827
20
-94.979711100217855
10
-39.731088822547797
20
-95.782885100217868
10
-37.843948822547816
20
-96.54889610021786
10
-35.942031822547818
20
-97.277442100217883
10
-34.026081822547816
20
-97.968241100217867
10
-32.096846822547818
20
-98.621021100217874
10
-30.155081822547825
20
-99.235528100217877
10
-28.201546822547819
20
-99.811520100217876
10
-26.237003822547813
20
-100.34877410021787
10
-24.262222822547812
20
-100.84707810021786
10
-22.277974822547808
20
-101.30623810021787
10
-20.285035822547812
20
-101.72607510021786
10
-18.284184822547807
20
-102.10642410021789
10
-16.276204822547808
20
-102.44713610021789
10
-14.261880822547809
20
-102.74807910021789
10
-12.241999822547807
20
-103.00913410021792
10
-10.217351822547808
20
-103.23020010021786
10
-8.1887288225478052
20
-103.41119010021788
10
-6.156923822547804
20
-103.55203410021787
10
-4.122730822547803
20
-103.65267610021787
10
-2.086945822547801
20
-103.7130771002179
10
-0.050364822547799282
20
-103.73321310021787
10
1.9862161774522005
20
-103.71307710021787
10
4.0220011774522026
20
-103.65267610021787
10
6.0561941774522055
20
-103.55203410021788
10
8.0879991774522058
20
-103.41119010021788
10
10.116622177452204
20
-103.23020010021793
10
12.141270177452201
20
-103.00913410021795
10
14.161151177452208
20
-102.74807910021794
10
16.175475177452206
20
-102.44713610021789
10
18.183455177452206
20
-102.10642410021791
10
20.184306177452203
20
-101.72607510021788
10
22.17724517745221
20
-101.30623810021787
10
24.161493177452222
20
-100.84707810021786
10
26.136274177452211
20
-100.3487741002179
10
28.100817177452214
20
-99.811520100217905
10
30.054352177452209
20
-99.235528100217877
10
31.99611717745222
20
-98.62102110021786
10
33.925352177452211
20
-97.968241100217867
10
35.841302177452221
20
-97.277442100217897
10
37.743219177452218
20
-96.548896100217888
10
39.630359177452227
20
-95.782885100217896
10
41.501984177452222
20
-94.979711100217855
10
43.357362177452217
20
-94.139686100217858
10
45.195768177452244
20
-93.263141100217894
10
47.016483177452237
20
-92.350416100217871
10
48.818795177452252
20
-91.401869100217894
10
50.601999177452235
20
-90.417872100217878
10
41.138605177452227
20
-80.954477100217872
10
40.843918177452245
20
-80.632880100217903
10
40.578380177452232
20
-80.286824100217899
10
40.34401417745223
20
-79.918942100217905
10
40.14260217745224
20
-79.532033100217902
10
39.975678177452224
20
-79.129043100217885
10
39.844512177452224
20
-78.713038100217886
10
39.750102177452234
20
-78.287183100217874
10
39.693168177452222
20
-77.854721100217844
10
39.674141177452221
20
-77.418943100217902
10
39.693167177452224
20
-76.983164100217877
10
39.750102177452227
20
-76.550702100217919
10
39.844512177452216
20
-76.124848100217918
10
39.975677177452212
20
-75.708842100217865
10
40.142601177452235
20
-75.305852100217876
10
40.344013177452226
20
-74.918943100217874
10
40.578379177452241
20
-74.551061100217865
10
40.843917177452226
20
-74.205005100217875
10
41.138605177452227
20
-73.883409100217875
10
73.099831177452273
20
-41.922183100217893
10
73.421427177452244
20
-41.627495100217914
10
73.767483177452235
20
-41.361957100217886
10
74.135365177452258
20
-41.127590100217887
10
74.522274177452246
20
-40.926178100217896
10
74.925264177452235
20
-40.759254100217895
10
75.341270177452259
20
-40.628088100217894
10
75.76712417745226
20
-40.533678100217912
10
76.199586177452233
20
-40.476743100217888
10
76.635365177452258
20
-40.457717100217891
10
77.071144177452254
20
-40.476743100217902
10
77.503606177452241
20
-40.533678100217884
10
77.929460177452242
20
-40.628088100217894
10
78.345466177452238
20
-40.759254100217895
10
78.748456177452255
20
-40.926178100217896
10
79.135365177452258
20
-41.127590100217901
10
79.503247177452238
20
-41.361957100217893
10
79.849303177452256
20
-41.627495100217892
10
80.17089917745227
20
-41.9221831002179
10
89.634294177452233
20
-51.385577100217901
10
90.618291177452264
20
-49.602372100217892
10
91.566837177452257
20
-47.800060100217905
10
92.479562177452209
20
-45.979345100217884
10
93.356108177452256
20
-44.140940100217904
10
94.196132177452228
20
-42.285562100217895
10
94.999306177452269
20
-40.413937100217893
10
95.765317177452275
20
-38.526797100217898
10
96.493864177452267
20
-36.624880100217901
10
97.184662177452239
20
-34.708930100217891
10
97.837443177452229
20
-32.779695100217872
10
98.451949177452235
20
-30.837930100217896
10
99.02794217745226
20
-28.884394100217897
10
99.565195177452239
20
-26.919852100217874
10
100.06349917745224
20
-24.945070100217876
10
100.52265917745225
20
-22.960822100217875
10
100.94249617745226
20
-20.967883100217868
10
101.32284517745222
20
-18.967033100217879
10
101.66355717745222
20
-16.959053100217865
10
101.96450017745227
20
-14.944728100217874
10
102.22555617745223
20
-12.924848100217869
10
102.44662217745227
20
-10.900200100217869
10
102.62761217745228
20
-8.8715771002178734
10
102.7684551774523
20
-6.8397721002178713
10
102.86909717745225
20
-4.8055791002178712
10
102.92949817745227
20
-2.7697941002178679
10
102.94963517745228
20
-0.73321310021787045
10
102.9294981774523
20
1.303367899782131
10
102.86909717745225
20
3.339152899782134
10
102.76845617745226
20
5.373345899782132
10
102.62761217745225
20
7.4051508997821314
10
102.44662217745228
20
9.4337738997821319
10
102.22555617745228
20
11.458421899782135
10
101.96450017745224
20
13.478302899782133
10
101.66355817745227
20
15.492626899782136
10
101.32284517745228
20
17.500606899782134
10
100.94249617745228
20
19.501457899782135
10
100.52266017745227
20
21.494396899782132
10
100.06350017745223
20
23.47864489978214
10
99.565196177452307
20
25.453425899782136
10
99.02794217745226
20
27.417968899782139
10
98.451950177452233
20
29.371503899782141
10
97.837443177452286
20
31.313268899782145
10
97.184663177452265
20
33.24250389978215
10
96.493864177452252
20
35.158453899782138
10
95.76531717745226
20
37.060370899782143
10
94.999307177452266
20
38.947510899782152
10
94.196133177452239
20
40.819135899782147
10
93.356108177452256
20
42.674513899782141
10
92.479562177452294
20
44.512919899782148
10
91.566838177452254
20
46.333634899782126
10
90.618291177452264
20
48.135946899782141
10
89.634294177452233
20
49.919150899782139
10
80.170899177452256
20
40.455756899782138
10
79.849303177452256
20
40.161068899782144
10
79.503247177452266
20
39.895530899782152
10
79.135365177452272
20
39.661163899782153
10
78.748456177452283
20
39.459751899782148
10
78.345466177452266
20
39.292827899782154
10
77.92946017745227
20
39.161661899782146
10
77.503606177452269
20
39.06725189978215
10
77.071144177452268
20
39.010316899782147
10
76.635365177452286
20
38.991290899782157
10
76.199586177452261
20
39.01031689978214
10
75.767124177452288
20
39.06725189978215
10
75.341270177452259
20
39.161661899782146
10
74.925264177452263
20
39.292827899782154
10
74.52227417745226
20
39.459751899782162
10
74.135365177452272
20
39.661163899782146
10
73.767483177452263
20
39.895530899782159
10
73.421427177452273
20
40.161068899782165
10
73.099831177452273
20
40.455756899782145
10
41.138605177452263
20
72.416982899782155
10
40.843917177452255
20
72.738579899782138
10
40.578379177452241
20
73.084634899782145
10
40.344012177452242
20
73.45251689978214
10
40.142600177452252
20
73.839425899782142
10
39.975676177452257
20
74.242416899782143
10
39.844509177452252
20
74.658421899782155
10
39.750100177452239
20
75.084275899782142
10
39.693165177452244
20
75.51673889978214
10
39.674138177452242
20
75.95251689978214
10
39.693165177452244
20
76.38829589978215
10
39.750099177452249
20
76.820757899782137
10
39.844509177452238
20
77.246612899782136
10
39.975675177452239
20
77.662617899782163
10
40.142599177452247
20
78.065608899782134
10
40.344011177452266
20
78.452516899782154
10
40.578378177452251
20
78.820398899782148
10
40.84391617745225
20
79.166454899782167
10
41.138605177452263
20
79.488050899782152
10
50.601999177452242
20
88.951445899782158
10
48.746766177452244
20
89.974230899782157
0
ENDSEC
0
SECTION
2
OBJECTS
0
DICTIONARY
5
C
100
AcDbDictionary
3
ACAD_GROUP
350
D
3
ACAD_MLINESTYLE
350
17
0
DICTIONARY
5
D
100
AcDbDictionary
0
DICTIONARY
5
1A
330
C
100
AcDbDictionary
0
DICTIONARY
5
17
100
AcDbDictionary
0
ENDSEC
0
EOF
