0
SECTION
2
HEADER
9
$INSUNITS
70
4
9
$ACADVER
1
AC1014
9
$HANDSEED
5
FFFF
0
ENDSEC
0
SECTION
2
TABLES
0
TABLE
2
VPORT
5
8
100
AcDbSymbolTable
0
ENDTAB
0
TABLE
2
LTYPE
5
5
100
AcDbSymbolTable
0
LTYPE
5
14
100
AcDbSymbolTableRecord
100
AcDbLinetypeTableRecord
2
BYBLOCK
70
0
0
LTYPE
5
15
100
AcDbSymbolTableRecord
100
AcDbLinetypeTableRecord
2
BYLAYER
70
0
0
ENDTAB
0
TABLE
2
LAYER
5
2
100
AcDbSymbolTable
70
2
0
LAYER
5
50
100
AcDbSymbolTableRecord
100
AcDbLayerTableRecord
2
0
70
0
6
CONTINUOUS
0
ENDTAB
0
TABLE
2
STYLE
5
3
100
AcDbSymbolTable
70
1
0
STYLE
5
11
100
AcDbSymbolTableRecord
100
AcDbTextStyleTableRecord
2
STANDARD
70
0
0
ENDTAB
0
TABLE
2
VIEW
5
6
100
AcDbSymbolTable
70
0
0
ENDTAB
0
TABLE
2
UCS
5
7
100
AcDbSymbolTable
70
0
0
ENDTAB
0
TABLE
2
APPID
5
9
100
AcDbSymbolTable
70
2
0
APPID
5
12
100
AcDbSymbolTableRecord
100
AcDbRegAppTableRecord
2
ACAD
70
0
0
ENDTAB
0
TABLE
2
DIMSTYLE
5
A
100
AcDbSymbolTable
70
1
0
ENDTAB
0
TABLE
2
BLOCK_RECORD
5
1
100
AcDbSymbolTable
70
1
0
BLOCK_RECORD
5
1F
100
AcDbSymbolTableRecord
100
AcDbBlockTableRecord
2
*MODEL_SPACE
0
BLOCK_RECORD
5
1B
100
AcDbSymbolTableRecord
100
AcDbBlockTableRecord
2
*PAPER_SPACE
0
ENDTAB
0
ENDSEC
0
SECTION
2
BLOCKS
0
BLOCK
5
20
100
AcDbEntity
100
AcDbBlockBegin
2
*MODEL_SPACE
0
ENDBLK
5
21
100
AcDbEntity
100
AcDbBlockEnd
0
BLOCK
5
1C
100
AcDbEntity
100
AcDbBlockBegin
2
*PAPER_SPACE
0
ENDBLK
5
1D
100
AcDbEntity
100
AcDbBlockEnd
0
ENDSEC
0
SECTION
2
ENTITIES
0
CIRCLE
5
100
100
AcDbEntity
8
0
100
AcDbCircle
10
35.303420000000024
20
-87.063636000000045
30
0
40
2.0999999999999996
210
8.2417910674053743e-62
220
3.0677586847296796e-107
230
1
0
CIRCLE
5
101
100
AcDbEntity
8
0
100
AcDbCircle
10
-35.054819000000023
20
19.710602000000009
30
0
40
1.4999999999999991
210
8.2851993771002767e-62
220
3.0839161216225674e-107
230
1
0
CIRCLE
5
102
100
AcDbEntity
8
0
100
AcDbCircle
10
-19.710602000000009
20
35.054819000000023
30
0
40
1.4999999999999991
210
8.2851993771002767e-62
220
3.0839161216225674e-107
230
1
0
CIRCLE
5
103
100
AcDbEntity
8
0
100
AcDbCircle
10
9.5000000000000053
20
63.800000000000026
30
0
40
1.5000000000000002
210
8.0826272651907355e-62
220
-2.4651903288156619e-32
230
1
0
CIRCLE
5
104
100
AcDbEntity
8
0
100
AcDbCircle
10
57.50545900000003
20
42.161242000000023
30
0
40
1.5000000000000036
210
8.285199377100275e-62
220
3.038564413951647e-107
230
1
0
CIRCLE
5
105
100
AcDbEntity
8
0
100
AcDbCircle
10
9.5000000000000053
20
45.800000000000018
30
0
40
1.5000000000000002
210
8.1231416875726451e-62
220
-2.4651903288156619e-32
230
1
0
CIRCLE
5
106
100
AcDbEntity
8
0
100
AcDbCircle
10
42.161242000000023
20
57.50545900000003
30
-3.3087224502121107e-23
40
1.5000000000000036
210
8.285199377100275e-62
220
3.038564413951647e-107
230
1
0
CIRCLE
5
107
100
AcDbEntity
8
0
100
AcDbCircle
10
35.054819000000023
20
-19.710602000000009
30
0
40
1.4999999999999991
210
8.2851993771002767e-62
220
3.0839161216225674e-107
230
1
0
CIRCLE
5
108
100
AcDbEntity
8
0
100
AcDbCircle
10
19.710602000000009
20
-35.054819000000023
30
0
40
1.5000000000000013
210
8.285199377100275e-62
220
3.038564413951647e-107
230
1
0
CIRCLE
5
109
100
AcDbEntity
8
0
100
AcDbCircle
10
-57.50545900000003
20
42.161242000000023
30
0
40
1.5000000000000036
210
8.285199377100275e-62
220
3.038564413951647e-107
230
1
0
CIRCLE
5
110
100
AcDbEntity
8
0
100
AcDbCircle
10
42.161242000000023
20
-57.50545900000003
30
0
40
1.5000000000000036
210
8.285199377100275e-62
220
3.038564413951647e-107
230
1
0
CIRCLE
5
111
100
AcDbEntity
8
0
100
AcDbCircle
10
57.50545900000003
20
-42.161242000000023
30
0
40
1.5000000000000036
210
8.285199377100275e-62
220
3.038564413951647e-107
230
1
0
CIRCLE
5
112
100
AcDbEntity
8
0
100
AcDbCircle
10
-42.161242000000023
20
57.50545900000003
30
0
40
1.5000000000000036
210
8.285199377100275e-62
220
3.038564413951647e-107
230
1
0
CIRCLE
5
113
100
AcDbEntity
8
0
100
AcDbCircle
10
-9.5000000000000053
20
45.800000000000018
30
0
40
1.5000000000000002
210
8.0826272651907355e-62
220
-2.4651903288156619e-32
230
1
0
CIRCLE
5
114
100
AcDbEntity
8
0
100
AcDbCircle
10
87.063636000000045
20
-35.303420000000024
30
0
40
2.1000000000000085
210
8.2417910674053708e-62
220
2.4651903288156619e-32
230
1
0
CIRCLE
5
115
100
AcDbEntity
8
0
100
AcDbCircle
10
-9.5000000000000053
20
63.800000000000026
30
3.3087224502121107e-23
40
1.5000000000000002
210
8.0826272651907355e-62
220
-2.4651903288156619e-32
230
1
0
CIRCLE
5
116
100
AcDbEntity
8
0
100
AcDbCircle
10
39.956409643453149
20
86.05001834548861
30
0
40
2.0999999999999996
210
8.2475788420313599e-62
220
3.0699130096487309e-107
230
1
0
CIRCLE
5
117
100
AcDbEntity
8
0
100
AcDbCircle
10
-39.956409643453142
20
86.05001834548861
30
0
40
2.0999999999999996
210
8.2649421659093219e-62
220
3.0763759844058865e-107
230
1
0
CIRCLE
5
118
100
AcDbEntity
8
0
100
AcDbCircle
10
-87.063636000000045
20
35.303420000000024
30
0
40
2.1000000000000085
210
8.2417910674053708e-62
220
2.4651903288156619e-32
230
1
0
CIRCLE
5
119
100
AcDbEntity
8
0
100
AcDbCircle
10
-87.063636000000045
20
-35.303420000000024
30
0
40
2.1000000000000085
210
8.2417910674053708e-62
220
2.4651903288156619e-32
230
1
0
CIRCLE
5
120
100
AcDbEntity
8
0
100
AcDbCircle
10
87.063636000000045
20
35.303420000000024
30
0
40
2.1000000000000085
210
8.2417910674053708e-62
220
2.4651903288156619e-32
230
1
0
CIRCLE
5
121
100
AcDbEntity
8
0
100
AcDbCircle
10
-57.50545900000003
20
-42.161242000000023
30
0
40
1.5000000000000036
210
8.285199377100275e-62
220
3.038564413951647e-107
230
1
0
CIRCLE
5
122
100
AcDbEntity
8
0
100
AcDbCircle
10
-42.161242000000023
20
-57.50545900000003
30
3.3087224502121107e-23
40
1.5000000000000036
210
8.285199377100275e-62
220
3.038564413951647e-107
230
1
0
CIRCLE
5
123
100
AcDbEntity
8
0
100
AcDbCircle
10
35.054819000000023
20
19.710602000000009
30
0
40
1.4999999999999991
210
8.2851993771002767e-62
220
3.0839161216225674e-107
230
1
0
CIRCLE
5
124
100
AcDbEntity
8
0
100
AcDbCircle
10
19.710602000000009
20
35.054819000000023
30
0
40
1.5000000000000013
210
8.285199377100275e-62
220
3.038564413951647e-107
230
1
0
CIRCLE
5
125
100
AcDbEntity
8
0
100
AcDbCircle
10
-35.054819000000023
20
-19.710602000000009
30
0
40
1.4999999999999991
210
8.2851993771002767e-62
220
3.0839161216225674e-107
230
1
0
CIRCLE
5
126
100
AcDbEntity
8
0
100
AcDbCircle
10
-35.303420000000024
20
-87.063636000000045
30
0
40
2.0999999999999996
210
8.2417910674053743e-62
220
3.0677586847296796e-107
230
1
0
CIRCLE
5
127
100
AcDbEntity
8
0
100
AcDbCircle
10
-19.710602000000009
20
-35.054819000000023
30
0
40
1.4999999999999991
210
8.2851993771002767e-62
220
3.0839161216225674e-107
230
1
0
LWPOLYLINE
5
128
100
AcDbEntity
8
0
100
AcDbPolyline
90
186
70
1
43
0.0
10
-50.648783499304166
20
-89.68107782080142
10
-49.624051000000023
20
-90.257706000000027
10
-47.835234000000014
20
-91.218366000000032
10
-46.027828000000014
20
-92.143578000000034
10
-44.202535000000019
20
-93.032982000000032
10
-42.36006500000002
20
-93.886233000000047
10
-40.501134000000015
20
-94.702999000000034
10
-38.626463000000022
20
-95.482963000000041
10
-36.736782000000012
20
-96.225822000000036
10
-34.832825000000014
20
-96.931286000000057
10
-32.915331000000016
20
-97.599082000000038
10
-30.985046000000015
20
-98.228951000000038
10
-29.042721000000014
20
-98.820647000000037
10
-27.089109000000015
20
-99.373941000000045
10
-25.124970000000012
20
-99.888617000000067
10
-23.151067000000012
20
-100.36447600000005
10
-21.168168000000009
20
-100.80133200000006
10
-19.177042000000007
20
-101.19901700000005
10
-17.178465000000006
20
-101.55737400000005
10
-15.173211000000009
20
-101.87626600000007
10
-13.162061000000005
20
-102.15556800000007
10
-11.145796000000006
20
-102.39517200000007
10
-9.1252000000000049
20
-102.59498400000005
10
-7.1010580000000036
20
-102.75492600000005
10
-5.074156000000003
20
-102.87493800000006
10
-3.0452830000000013
20
-102.95497200000005
10
-1.0152260000000006
20
-102.99499600000006
10
1.0152260000000004
20
-102.99499600000006
10
3.0452830000000022
20
-102.95497200000005
10
5.074156000000003
20
-102.87493800000006
10
7.1010580000000036
20
-102.75492600000005
10
9.1252000000000031
20
-102.59498400000005
10
11.145796000000008
20
-102.39517200000007
10
13.162061000000007
20
-102.15556800000007
10
15.173211000000009
20
-101.87626600000007
10
17.17846500000001
20
-101.55737400000005
10
19.177042000000011
20
-101.19901700000005
10
21.168168000000009
20
-100.80133200000006
10
23.151067000000015
20
-100.36447600000004
10
25.124970000000015
20
-99.888617000000039
10
27.089109000000015
20
-99.373941000000045
10
29.042721000000014
20
-98.820647000000037
10
30.985046000000015
20
-98.228951000000038
10
32.915331000000016
20
-97.599082000000038
10
34.832825000000021
20
-96.931286000000057
10
36.736782000000019
20
-96.225822000000036
10
38.626463000000022
20
-95.482963000000041
10
40.501134000000015
20
-94.702999000000034
10
42.36006500000002
20
-93.886233000000047
10
44.202535000000019
20
-93.032982000000032
10
46.027828000000014
20
-92.143578000000034
10
47.835234000000014
20
-91.218366000000032
10
49.624051000000037
20
-90.257706000000027
10
50.64878349930342
20
-89.681077820800951
10
37.653436000000021
20
-76.685730000000049
10
76.685730000000035
20
-37.653436000000021
10
89.683313207896461
20
-50.651018886399129
10
90.567512000000022
20
-49.056353000000016
10
91.516921000000039
20
-47.261539000000013
10
92.430766000000034
20
-45.448360000000022
10
93.308692000000036
20
-43.617518000000011
10
94.15035800000004
20
-41.769727000000017
10
94.955436000000049
20
-39.905704000000021
10
95.723613000000043
20
-38.026173000000021
10
96.454592000000048
20
-36.131865000000012
10
97.14808800000003
20
-34.223515000000013
10
97.803831000000059
20
-32.301866000000011
10
98.421567000000039
20
-30.367665000000017
10
99.001056000000048
20
-28.421662000000016
10
99.542072000000061
20
-26.464615000000009
10
100.04440500000007
20
-24.49728300000001
10
100.50786100000008
20
-22.520431000000009
10
100.93225800000006
20
-20.534828000000012
10
101.31743300000005
20
-18.541245000000007
10
101.66323400000007
20
-16.540456000000006
10
101.96952900000005
20
-14.533240000000006
10
102.23619800000007
20
-12.520376000000006
10
102.46313700000007
20
-10.502647000000005
10
102.65025700000007
20
-8.4808360000000054
10
102.79748800000006
20
-6.4557290000000034
10
102.90477000000007
20
-4.4281140000000017
10
102.97206300000006
20
-2.3987780000000014
10
102.99934000000006
20
-0.36850899999999992
10
102.98659100000008
20
1.6619020000000009
10
102.93382100000005
20
3.6916680000000013
10
102.84105000000005
20
5.7199990000000023
10
102.70831400000006
20
7.7461070000000039
10
102.53566500000005
20
9.769205000000003
10
102.32317000000008
20
11.788507000000006
10
102.07091100000005
20
13.803227000000007
10
101.77898700000006
20
15.81258400000001
10
101.44751000000005
20
17.81579600000001
10
101.07661100000007
20
19.812084000000006
10
100.66643200000007
20
21.80067300000001
10
100.21713400000004
20
23.780790000000014
10
99.728891000000047
20
25.751666000000014
10
99.201892000000043
20
27.712535000000017
10
98.636343000000039
20
29.662634000000018
10
98.032462000000038
20
31.601206000000019
10
97.390486000000038
20
33.527498000000023
10
96.710663000000039
20
35.440761000000023
10
95.99325800000004
20
37.340251000000023
10
95.238549000000049
20
39.225231000000022
10
94.446830000000048
20
41.094967000000018
10
93.618408000000045
20
42.948733000000018
10
92.753605000000036
20
44.785810000000019
10
91.85275700000004
20
46.605482000000016
10
90.916215000000037
20
48.40704300000003
10
89.944342000000034
20
50.189793000000037
10
89.681827144266379
20
50.649532822768748
10
76.685730000000049
20
37.653436000000021
10
37.653436000000021
20
76.685730000000035
10
50.649873806576117
20
89.682168128073329
10
50.26861700000002
20
89.900312000000042
10
48.48672000000002
20
90.873747000000037
10
46.685981000000012
20
91.811868000000047
10
44.867099000000017
20
92.71431000000004
10
43.030782000000023
20
93.580723000000049
10
41.177742000000023
20
94.410770000000042
10
31.919148000000014
20
85.000000000000028
10
-31.919148000000014
20
85.000000000000028
10
-41.177742000000023
20
94.410770000000042
10
-43.030782000000023
20
93.580723000000049
10
-44.867099000000017
20
92.71431000000004
10
-46.685981000000012
20
91.811868000000047
10
-48.486720000000034
20
90.873747000000037
10
-50.268617000000035
20
89.900312000000042
10
-50.649873806575208
20
89.682168128072917
10
-37.653436000000021
20
76.685730000000049
10
-76.685730000000035
20
37.653436000000021
10
-89.68182714426581
20
50.649532822768634
10
-89.944342000000034
20
50.189793000000023
10
-90.916215000000037
20
48.407043000000023
10
-91.85275700000004
20
46.605482000000016
10
-92.753605000000036
20
44.785810000000019
10
-93.618408000000045
20
42.948733000000018
10
-94.446830000000048
20
41.094967000000018
10
-95.238549000000049
20
39.225231000000022
10
-95.99325800000004
20
37.340251000000023
10
-96.710663000000039
20
35.440761000000016
10
-97.390486000000038
20
33.527498000000016
10
-98.032462000000038
20
31.601206000000019
10
-98.636343000000039
20
29.662634000000018
10
-99.201892000000043
20
27.712535000000017
10
-99.728891000000061
20
25.751666000000011
10
-100.21713400000007
20
23.78079000000001
10
-100.66643200000007
20
21.80067300000001
10
-101.07661100000007
20
19.812084000000006
10
-101.44751000000005
20
17.815796000000006
10
-101.77898700000006
20
15.812584000000008
10
-102.07091100000005
20
13.803227000000005
10
-102.32317000000008
20
11.788507000000003
10
-102.53566500000005
20
9.7692050000000048
10
-102.70831400000006
20
7.7461070000000039
10
-102.84105000000005
20
5.7199990000000023
10
-102.93382100000005
20
3.6916680000000017
10
-102.98659100000008
20
1.6619020000000007
10
-102.99934000000006
20
-0.3685090000000002
10
-102.97206300000006
20
-2.3987780000000019
10
-102.90477000000007
20
-4.4281140000000025
10
-102.79748800000006
20
-6.4557290000000025
10
-102.65025700000007
20
-8.4808360000000036
10
-102.46313700000007
20
-10.502647000000007
10
-102.23619800000007
20
-12.520376000000009
10
-101.96952900000005
20
-14.533240000000006
10
-101.66323400000007
20
-16.540456000000006
10
-101.31743300000005
20
-18.541245000000011
10
-100.93225800000006
20
-20.534828000000012
10
-100.50786100000008
20
-22.520431000000009
10
-100.04440500000004
20
-24.497283000000017
10
-99.542072000000047
20
-26.464615000000013
10
-99.001056000000048
20
-28.421662000000016
10
-98.421567000000039
20
-30.367665000000017
10
-97.803831000000059
20
-32.301866000000011
10
-97.14808800000003
20
-34.22351500000002
10
-96.454592000000048
20
-36.131865000000019
10
-95.723613000000043
20
-38.026173000000021
10
-94.955436000000049
20
-39.905704000000021
10
-94.15035800000004
20
-41.769727000000017
10
-93.308692000000036
20
-43.617518000000011
10
-92.430766000000034
20
-45.448360000000022
10
-91.516921000000039
20
-47.261539000000013
10
-90.567512000000022
20
-49.05635300000003
10
-89.683313207896532
20
-50.651018886398944
10
-76.685730000000049
20
-37.653436000000021
10
-37.653436000000021
20
-76.685730000000035
0
ENDSEC
0
SECTION
2
OBJECTS
0
DICTIONARY
5
C
100
AcDbDictionary
3
ACAD_GROUP
350
D
3
ACAD_MLINESTYLE
350
17
0
DICTIONARY
5
D
100
AcDbDictionary
0
DICTIONARY
5
1A
330
C
100
AcDbDictionary
0
DICTIONARY
5
17
100
AcDbDictionary
0
ENDSEC
0
EOF
