0
SECTION
2
HEADER
9
$INSUNITS
70
4
9
$ACADVER
1
AC1014
9
$HANDSEED
5
FFFF
0
ENDSEC
0
SECTION
2
TABLES
0
TABLE
2
VPORT
5
8
100
AcDbSymbolTable
0
ENDTAB
0
TABLE
2
LTYPE
5
5
100
AcDbSymbolTable
0
LTYPE
5
14
100
AcDbSymbolTableRecord
100
AcDbLinetypeTableRecord
2
BYBLOCK
70
0
0
LTYPE
5
15
100
AcDbSymbolTableRecord
100
AcDbLinetypeTableRecord
2
BYLAYER
70
0
0
ENDTAB
0
TABLE
2
LAYER
5
2
100
AcDbSymbolTable
70
2
0
LAYER
5
50
100
AcDbSymbolTableRecord
100
AcDbLayerTableRecord
2
0
70
0
6
CONTINUOUS
0
ENDTAB
0
TABLE
2
STYLE
5
3
100
AcDbSymbolTable
70
1
0
STYLE
5
11
100
AcDbSymbolTableRecord
100
AcDbTextStyleTableRecord
2
STANDARD
70
0
0
ENDTAB
0
TABLE
2
VIEW
5
6
100
AcDbSymbolTable
70
0
0
ENDTAB
0
TABLE
2
UCS
5
7
100
AcDbSymbolTable
70
0
0
ENDTAB
0
TABLE
2
APPID
5
9
100
AcDbSymbolTable
70
2
0
APPID
5
12
100
AcDbSymbolTableRecord
100
AcDbRegAppTableRecord
2
ACAD
70
0
0
ENDTAB
0
TABLE
2
DIMSTYLE
5
A
100
AcDbSymbolTable
70
1
0
ENDTAB
0
TABLE
2
BLOCK_RECORD
5
1
100
AcDbSymbolTable
70
1
0
BLOCK_RECORD
5
1F
100
AcDbSymbolTableRecord
100
AcDbBlockTableRecord
2
*MODEL_SPACE
0
BLOCK_RECORD
5
1B
100
AcDbSymbolTableRecord
100
AcDbBlockTableRecord
2
*PAPER_SPACE
0
ENDTAB
0
ENDSEC
0
SECTION
2
BLOCKS
0
BLOCK
5
20
100
AcDbEntity
100
AcDbBlockBegin
2
*MODEL_SPACE
0
ENDBLK
5
21
100
AcDbEntity
100
AcDbBlockEnd
0
BLOCK
5
1C
100
AcDbEntity
100
AcDbBlockBegin
2
*PAPER_SPACE
0
ENDBLK
5
1D
100
AcDbEntity
100
AcDbBlockEnd
0
ENDSEC
0
SECTION
2
ENTITIES
0
CIRCLE
5
100
100
AcDbEntity
8
0
100
AcDbCircle
10
53.550456568049015
20
-28.73304254755773
30
0
40
1.6000000000000014
210
-2.4651903288156619e-32
220
1.3681005550041452e-48
230
1
0
CIRCLE
5
101
100
AcDbEntity
8
0
100
AcDbCircle
10
-53.449544922067105
20
-28.733042547557361
30
-4.4408920985006262e-15
40
1.6000000000000014
210
-2.4651903288156619e-32
220
1.3681005550041452e-48
230
1
0
CIRCLE
5
102
100
AcDbEntity
8
0
100
AcDbCircle
10
53.550456568049007
20
27.266958346512205
30
4.4408920985006262e-15
40
1.6000000000000014
210
-2.4651903288156619e-32
220
1.3681005550041452e-48
230
1
0
CIRCLE
5
103
100
AcDbEntity
8
0
100
AcDbCircle
10
-53.449544922067112
20
27.266958346511828
30
0
40
1.6000000000000014
210
-2.4651903288156619e-32
220
1.3681005550041452e-48
230
1
0
LWPOLYLINE
5
104
100
AcDbEntity
8
0
100
AcDbPolyline
90
78
70
1
43
0.0
10
-36.489287094823936
20
-21.292171763521598
10
-36.171089043289996
20
-21.610369815055549
42
0.9999999925494194
10
-33.837636665374376
20
-19.2769174371399
10
-34.155834716908316
20
-18.958719385605974
42
-0.4142135623730962
10
-34.155834716908323
20
-17.261663110758267
10
-32.179471263491934
20
-15.285299657341884
42
-0.4142135623730967
10
-24.995266366636578
20
-15.285299657341858
10
-14.50180173382822
20
-25.778764290150214
42
-0.41421356237309603
10
-14.50180173382816
20
-32.962969187005562
10
-16.47816518724461
20
-34.939332640421952
42
-0.4142135623730962
10
-18.17522146209232
20
-34.939332640421945
10
-18.493419513626257
20
-34.621134588888026
42
0.99999999999999989
10
-20.826871891541849
20
-36.954586966803618
10
-20.508673840007944
20
-37.272785018337579
42
-0.41421356237308893
10
-20.508673840007951
20
-38.969841293185262
10
-20.968293247779201
20
-39.429460700956518
42
-0.41421356237308277
10
-22.665349522626883
20
-39.42946070095654
10
-22.983547574160813
20
-39.111262649422592
42
1.0000000105367119
10
-25.316999952076451
20
-41.444715027338212
10
-24.998801900542489
20
-41.76291307887216
42
-0.41421356237308737
10
-24.998801900542521
20
-43.459969353719856
10
-25.458421308313753
20
-43.919588761491099
42
-0.41421356237310425
10
-27.155477583161485
20
-43.91958876149112
10
-27.473675634695422
20
-43.60139070995713
42
0.99999999999999989
10
-29.807128012611003
20
-45.934843087872778
10
-29.488929961077091
20
-46.253041139406733
42
-0.41421356237309581
10
-29.488929961077062
20
-47.950097414254422
10
-29.948549368848308
20
-48.409716822025679
42
-0.41421356237310658
10
-31.645605643696058
20
-48.409716822025722
10
-31.963803695229991
20
-48.091518770491732
42
0.99999999999999989
10
-34.297256073145604
20
-50.424971148407352
10
-33.979058021611628
20
-50.743169199941292
42
-0.41421356237308277
10
-33.979058021611678
20
-52.44022547478896
10
-34.438677429382906
20
-52.899844882560245
42
-0.4142135623730942
10
-36.135733704230631
20
-52.899844882560252
10
-36.453931755764557
20
-52.581646831026333
42
1.0000000105367119
10
-38.787384133680185
20
-54.915099208941925
10
-38.469186082146201
20
-55.233297260475894
42
-0.41421356237308277
10
-38.469186082146251
20
-56.930353535323562
10
-38.928805489917487
20
-57.389972943094847
42
-0.41421356237310036
10
-40.625861764765226
20
-57.38997294309484
10
-40.944059816299152
20
-57.071774891560892
42
0.9999999925494194
10
-43.277512194214751
20
-59.405227269476512
10
-42.959314142680824
20
-59.72342532101046
42
-0.41421356237308277
10
-42.959314142680782
20
-61.420481595858135
10
-45.816025538674445
20
-64.277192991851834
10
-63.493695068338155
20
-46.599523462188102
10
-60.636983672344506
20
-43.742812066194496
42
-0.41421356237308277
10
-58.939927397496803
20
-43.742812066194475
10
-58.621729345962848
20
-44.061010117728401
42
0.99999999999999989
10
-56.288276968047242
20
-41.727557739812809
10
-56.606475019581175
20
-41.409359688278869
42
-0.41421356237310658
10
-56.606475019581175
20
-39.712303413431144
10
-56.146855611809954
20
-39.252684005659894
42
-0.41421356237309731
10
-54.449799336962215
20
-39.252684005659908
10
-54.13160128542826
20
-39.570882057193863
42
0.99999999999999989
10
-51.798148907512683
20
-37.237429679278243
10
-52.116346959046595
20
-36.919231627744267
42
-0.41421356237309198
10
-52.116346959046624
20
-35.222175352896571
10
-51.656727551275367
20
-34.762555945125349
42
-0.41421356237310497
10
-49.959671276427628
20
-34.762555945125342
10
-49.64147322489368
20
-35.080753996659261
42
0.99999999999999989
10
-47.308020846978081
20
-32.74730161874367
10
-47.626218898512036
20
-32.429103567209701
42
-0.41421356237310114
10
-47.62621889851205
20
-30.732047292361987
10
-47.166599490740779
20
-30.272427884590751
42
-0.41421356237309342
10
-45.469543215893083
20
-30.272427884590755
10
-45.151345164359135
20
-30.590625936124699
42
0.99999999999999989
10
-42.817892786443501
20
-28.257173558209079
10
-43.136090837977441
20
-27.938975506675135
42
-0.41421356237310036
10
-43.136090837977441
20
-26.241919231827431
10
-42.676471430206192
20
-25.782299824056174
42
-0.41421356237308815
10
-40.97941515535851
20
-25.78229982405616
10
-40.661217103824555
20
-26.100497875590086
42
0.99999999999999989
10
-38.327764725908942
20
-23.767045497674495
10
-38.645962777442911
20
-23.448847446140558
42
-0.41421356237308893
10
-38.645962777442911
20
-21.751791171292854
10
-38.18634336967164
20
-21.292171763521594
42
-0.41421356237309509
0
LWPOLYLINE
5
105
100
AcDbEntity
8
0
100
AcDbPolyline
90
78
70
1
43
0.0
10
36.590198740805789
20
19.826087562476534
10
36.272000689271856
20
20.144285614010467
42
0.99999999999999989
10
33.938548311356236
20
17.810833236094826
10
34.256746362890176
20
17.492635184560896
42
-0.41421356237309509
10
34.256746362890176
20
15.795578909713196
10
32.280382909473801
20
13.819215456296783
42
-0.41421356237309492
10
25.096178012618473
20
13.81921545629675
10
14.602713379810083
20
24.312680089105143
42
-0.41421356237309553
10
14.602713379810046
20
31.496884985960463
10
16.57907683322648
20
33.47324843937686
42
-0.41421356237309509
10
18.276133108074188
20
33.473248439376874
10
18.594331159608135
20
33.155050387842934
42
0.99999999999999989
10
20.927783537523755
20
35.488502765758547
10
20.609585485989797
20
35.80670081729248
42
-0.41421356237309964
10
20.609585485989804
20
37.503757092140198
10
21.069204893761061
20
37.963376499911455
42
-0.41421356237308893
10
22.766261168608747
20
37.963376499911455
10
23.084459220142715
20
37.645178448377536
42
1.0000000074505804
10
25.417911598058339
20
39.97863082629312
10
25.099713546524374
20
40.296828877827053
42
-0.41421356237310114
10
25.099713546524377
20
41.993885152674792
10
25.559332954295613
20
42.453504560446035
42
-0.4142135623730851
10
27.256389229143313
20
42.453504560446042
10
27.574587280677285
20
42.13530650891208
42
0.99999999999999989
10
29.908039658592887
20
44.468758886827715
10
29.589841607058958
20
44.786956938361662
42
-0.41421356237309509
10
29.58984160705894
20
46.484013213209366
10
30.049461014830197
20
46.943632620980615
42
-0.41421356237310114
10
31.746517289677918
20
46.943632620980637
10
32.064715341211851
20
46.625434569446682
42
0.9999999925494194
10
34.398167719127485
20
48.958886947362295
10
34.079969667593502
20
49.277084998896242
42
-0.41421356237309581
10
34.079969667593517
20
50.974141273743932
10
34.539589075364745
20
51.433760681515217
42
-0.41421356237309659
10
36.23664535021247
20
51.433760681515189
10
36.554843401746439
20
51.115562629981255
42
0.99999999999999989
10
38.888295779662045
20
53.449015007896875
10
38.570097728128076
20
53.767213059430851
42
-0.41421356237309115
10
38.570097728128111
20
55.464269334278534
10
39.029717135899347
20
55.92388874204979
42
-0.41421356237309509
10
40.726773410747057
20
55.923888742049783
10
41.044971462280998
20
55.60569069051585
42
1.0000000074505804
10
43.378423840196604
20
57.939143068431456
10
43.060225788662677
20
58.257341119965389
42
-0.41421356237309509
10
43.060225788662628
20
59.9543973948131
10
45.916937184656291
20
62.811108790806792
10
63.594606714320022
20
45.133439261143089
10
60.737895318326387
20
42.276727865149446
42
-0.41421356237310114
10
59.040839043478677
20
42.276727865149439
10
58.722640991944729
20
42.594925916683366
42
0.9999999925494194
10
56.389188614029131
20
40.261473538767767
10
56.707386665563043
20
39.943275487233841
42
-0.41421356237309115
10
56.707386665563043
20
38.246219212386116
10
56.247767257791793
20
37.786599804614866
42
-0.41421356237309964
10
54.550710982944082
20
37.78659980461488
10
54.232512931410142
20
38.104797856148835
42
0.9999999925494194
10
51.899060553494543
20
35.771345478233215
10
52.217258605028476
20
35.453147426699232
42
-0.41421356237309115
10
52.217258605028491
20
33.756091151851521
10
51.757639197257234
20
33.296471744080272
42
-0.41421356237310802
10
50.06058292240948
20
33.296471744080286
10
49.742384870875554
20
33.614669795614233
42
0.99999999999999989
10
47.408932492959948
20
31.281217417698638
10
47.727130544493889
20
30.963019366164666
42
-0.41421356237310353
10
47.727130544493917
20
29.26596309131693
10
47.267511136722646
20
28.806343683545705
42
-0.41421356237309342
10
45.570454861874936
20
28.806343683545705
10
45.252256810341009
20
29.124541735079635
42
1.0000000074505804
10
42.918804432425404
20
26.791089357164026
10
43.237002483959316
20
26.472891305630071
42
-0.4142135623730942
10
43.23700248395933
20
24.775835030782357
10
42.77738307618808
20
24.316215623011107
42
-0.41421356237309342
10
41.080326801340391
20
24.316215623011082
10
40.762128749806422
20
24.634413674545034
42
0.9999999925494194
10
38.428676371890809
20
22.300961296629445
10
38.74687442342475
20
21.982763245095516
42
-0.41421356237310425
10
38.746874423424764
20
20.285706970247766
10
38.287255015653507
20
19.826087562476509
42
-0.41421356237309659
0
LWPOLYLINE
5
106
100
AcDbEntity
8
0
100
AcDbPolyline
90
4
70
1
43
0.0
10
12.54980704111658
20
30.96695825833185
10
-12.450192958883415
20
30.966958258331854
10
-12.450192958883406
20
68.029457861029655
10
12.549807041116591
20
68.029457861029641
0
CIRCLE
5
107
100
AcDbEntity
8
0
100
AcDbCircle
10
-57.455003177009004
20
41.428198899477245
30
-4.4408920985006262e-15
40
1.6000000000000014
210
-2.4651128136301998e-32
220
1.3677143163716639e-48
230
1
0
CIRCLE
5
108
100
AcDbEntity
8
0
100
AcDbCircle
10
44.085530822991032
20
27.957814899477256
30
0
40
1.6000000000000014
210
-2.4651128136301998e-32
220
1.3677143163716639e-48
230
1
0
CIRCLE
5
109
100
AcDbEntity
8
0
100
AcDbCircle
10
19.76105682299103
20
-35.787862100522787
30
0
40
1.6000000000000014
210
-2.4651128136301998e-32
220
1.3677143163716639e-48
230
1
0
CIRCLE
5
110
100
AcDbEntity
8
0
100
AcDbCircle
10
42.211697822991042
20
-58.238502100522794
30
0
40
1.6000000000000014
210
-2.4651128136301998e-32
220
1.3677143163716639e-48
230
1
0
CIRCLE
5
111
100
AcDbEntity
8
0
100
AcDbCircle
10
-57.455003177008983
20
-42.894285100522808
30
0
40
1.6000000000000014
210
-2.4651128136301998e-32
220
1.3677143163716639e-48
230
1
0
CIRCLE
5
112
100
AcDbEntity
8
0
100
AcDbCircle
10
-42.110786177008997
20
56.772415899477259
30
0
40
1.6000000000000014
210
-2.4651128136301998e-32
220
1.3677143163716639e-48
230
1
0
CIRCLE
5
113
100
AcDbEntity
8
0
100
AcDbCircle
10
-19.660146177008986
20
34.321775899477252
30
0
40
1.6000000000000014
210
-2.4651128136301998e-32
220
1.3677143163716639e-48
230
1
0
CIRCLE
5
114
100
AcDbEntity
8
0
100
AcDbCircle
10
42.211697822991027
20
56.772415899477274
30
0
40
1.6000000000000014
210
-2.4651128136301998e-32
220
1.3677143163716639e-48
230
1
0
CIRCLE
5
115
100
AcDbEntity
8
0
100
AcDbCircle
10
-43.984619177008987
20
-29.423901100522791
30
0
40
1.6000000000000014
210
-2.4651128136301998e-32
220
1.3677143163716639e-48
230
1
0
CIRCLE
5
116
100
AcDbEntity
8
0
100
AcDbCircle
10
-19.660146177008983
20
-35.787862100522794
30
-4.4408920985006262e-15
40
1.6000000000000014
210
-2.4651128136301998e-32
220
1.3677143163716639e-48
230
1
0
CIRCLE
5
117
100
AcDbEntity
8
0
100
AcDbCircle
10
44.085530822991032
20
-29.42390110052278
30
0
40
1.6000000000000014
210
-2.4651128136301998e-32
220
1.3677143163716639e-48
230
1
0
CIRCLE
5
118
100
AcDbEntity
8
0
100
AcDbCircle
10
57.555914822991042
20
-42.894285100522787
30
4.4408920985006262e-15
40
1.6000000000000014
210
-2.4651128136301998e-32
220
1.3677143163716639e-48
230
1
0
CIRCLE
5
119
100
AcDbEntity
8
0
100
AcDbCircle
10
-42.110786177008983
20
-58.238502100522815
30
0
40
1.6000000000000014
210
-2.4651128136301998e-32
220
1.3677143163716639e-48
230
1
0
CIRCLE
5
120
100
AcDbEntity
8
0
100
AcDbCircle
10
57.555914822991028
20
41.428198899477266
30
0
40
1.6000000000000014
210
-2.4651128136301998e-32
220
1.3677143163716639e-48
230
1
0
CIRCLE
5
121
100
AcDbEntity
8
0
100
AcDbCircle
10
19.761056822991026
20
34.321775899477259
30
4.4408920985006262e-15
40
1.6000000000000014
210
-2.4651128136301998e-32
220
1.3677143163716639e-48
230
1
0
CIRCLE
5
122
100
AcDbEntity
8
0
100
AcDbCircle
10
-43.984619177008987
20
27.957814899477249
30
0
40
1.6000000000000014
210
-2.4651128136301998e-32
220
1.3677143163716639e-48
230
1
0
LWPOLYLINE
5
123
100
AcDbEntity
8
0
100
AcDbPolyline
90
38
70
1
43
0.0
10
48.027650667565887
20
65.628929054902414
10
45.906330373688036
20
63.507608761024549
10
35.14698123523543
20
74.266957899477219
10
10.240358734193213
20
74.266957899477276
10
10.240358734086774
20
79.266645275372923
10
10.050455972002638
20
79.266645275372923
10
10.050455972002638
20
74.266959017064309
10
-9.9495441754905212
20
74.266959017064309
10
-9.9495441754905212
20
79.266645275372923
10
-10.139447088104729
20
79.266645275372923
10
-10.13944708821117
20
74.266957899477319
10
-35.046069589253378
20
74.266957899477219
10
-45.805418727706062
20
63.507608761024493
10
-47.92673902158392
20
65.628929054902358
10
-66.311515332434141
20
47.24415274405213
10
-64.190195038556297
20
45.122832450174279
10
-75.877915074558757
20
33.435112414171833
10
-90.732456760049416
20
33.435112414171819
42
0.18195561057550882
10
-90.732456760049416
20
-34.901196615217252
10
-75.877915074558857
20
-34.901196615217273
10
-64.19019503855634
20
-46.588916651219776
10
-66.311515332434212
20
-48.710236945097648
10
-47.92673902158397
20
-67.09501325594789
10
-45.80541872770609
20
-64.973692962070018
10
-34.117698691703481
20
-76.66141299807262
10
-34.117698691703467
20
-91.515954683563308
42
0.18195561057550844
10
34.218610337685462
20
-91.515954683563251
10
34.218610337685519
20
-76.66141299807262
10
45.906330373688043
20
-64.973692962070089
10
48.027650667565936
20
-67.095013255947975
10
66.41242697841615
20
-48.710236945097748
10
64.291106684538292
20
-46.588916651219883
10
75.978826720540908
20
-34.901196615217273
10
90.833368406031525
20
-34.901196615217259
42
0.1819556105755088
10
90.833368406031411
20
33.43511241417179
10
75.978826720540809
20
33.435112414171833
10
64.291106684538306
20
45.122832450174322
10
66.412426978416136
20
47.244152744052137
0
LWPOLYLINE
5
124
100
AcDbEntity
8
0
100
AcDbPolyline
90
78
70
1
43
0.0
10
20.609585485989953
20
-37.272785018337387
10
20.927783537523897
20
-36.954586966803454
42
1.0000000074505804
10
18.594331159608256
20
-34.621134588887813
10
18.276133108074312
20
-34.93933264042176
42
-0.41421356237309809
10
16.579076833226601
20
-34.939332640421775
10
14.602713379810201
20
-32.962969187005378
42
-0.41421356237309531
10
14.60271337981019
20
-25.778764290150043
10
25.096178012618566
20
-15.285299657341664
42
-0.41421356237309337
10
32.280382909473872
20
-15.285299657341646
10
34.256746362890283
20
-17.261663110758072
42
-0.41421356237308932
10
34.256746362890254
20
-18.958719385605761
10
33.938548311356335
20
-19.276917437139716
42
0.9999999925494194
10
36.272000689271934
20
-21.610369815055321
10
36.59019874080586
20
-21.292171763521381
42
-0.4142135623731073
10
38.287255015653606
20
-21.292171763521392
10
38.746874423424877
20
-21.751791171292652
42
-0.41421356237308737
10
38.74687442342487
20
-23.448847446140334
10
38.428676371890923
20
-23.767045497674278
42
0.99999999999999989
10
40.762128749806521
20
-26.100497875589905
10
41.080326801340476
20
-25.782299824055961
42
-0.4142135623731043
10
42.777383076188201
20
-25.782299824055976
10
43.237002483959458
20
-26.24191923182719
42
-0.41421356237308204
10
43.237002483959436
20
-27.938975506674879
10
42.918804432425489
20
-28.257173558208862
42
0.99999999999999989
10
45.252256810341095
20
-30.590625936124432
10
45.570454861875064
20
-30.272427884590535
42
-0.41421356237309348
10
47.267511136722788
20
-30.272427884590517
10
47.727130544494031
20
-30.732047292361781
42
-0.41421356237308815
10
47.72713054449401
20
-32.429103567209488
10
47.408932492960076
20
-32.747301618743428
42
0.99999999999999989
10
49.742384870875689
20
-35.080753996659048
10
50.060582922409637
20
-34.762555945125079
42
-0.41421356237308737
10
51.757639197257326
20
-34.762555945125094
10
52.217258605028604
20
-35.22217535289635
42
-0.41421356237308588
10
52.217258605028583
20
-36.919231627744054
10
51.899060553494643
20
-37.237429679277994
42
0.99999999999999989
10
54.23251293141027
20
-39.570882057193614
10
54.550710982944238
20
-39.252684005659653
42
-0.41421356237308588
10
56.247767257791928
20
-39.252684005659681
10
56.707386665563206
20
-39.712303413430938
42
-0.4142135623730866
10
56.707386665563185
20
-41.409359688278641
10
56.389188614029244
20
-41.727557739812582
42
0.99999999999999989
10
58.722640991944843
20
-44.061010117728195
10
59.040839043478769
20
-43.742812066194233
42
-0.41421356237309509
10
60.737895318326494
20
-43.742812066194226
10
63.594606714320193
20
-46.599523462187889
10
45.916937184656476
20
-64.277192991851621
10
43.060225788662862
20
-61.42048159585795
42
-0.41421356237308277
10
43.060225788662841
20
-59.723425321010247
10
43.378423840196767
20
-59.405227269476306
42
0.99999999999999989
10
41.044971462281168
20
-57.071774891560693
10
40.726773410747235
20
-57.389972943094627
42
-0.41421356237310497
10
39.029717135899475
20
-57.389972943094627
10
38.570097728128232
20
-56.930353535323384
42
-0.41421356237309731
10
38.570097728128246
20
-55.233297260475652
10
38.888295779662208
20
-54.915099208941704
42
0.99999999999999989
10
36.554843401746588
20
-52.581646831026141
10
36.236645350212633
20
-52.899844882560046
42
-0.41421356237309509
10
34.539589075364901
20
-52.89984488256006
10
34.079969667593673
20
-52.440225474788811
42
-0.41421356237310802
10
34.079969667593652
20
-50.743169199941065
10
34.398167719127606
20
-50.424971148407138
42
0.99999999999999989
10
32.064715341212001
20
-48.091518770491533
10
31.74651728967806
20
-48.409716822025509
42
-0.41421356237308582
10
30.049461014830356
20
-48.409716822025494
10
29.589841607059086
20
-47.950097414254238
42
-0.41421356237309115
10
29.589841607059103
20
-46.253041139406534
10
29.908039658593061
20
-45.934843087872594
42
0.99999999999999989
10
27.574587280677413
20
-43.601390709956945
10
27.256389229143466
20
-43.9195887614909
42
-0.41421356237309198
10
25.559332954295748
20
-43.919588761490914
10
25.099713546524512
20
-43.459969353719643
42
-0.41421356237308815
10
25.099713546524512
20
-41.762913078871961
10
25.417911598058438
20
-41.44471502733802
42
0.99999999999999989
10
23.084459220142829
20
-39.111262649422393
10
22.766261168608914
20
-39.429460700956355
42
-0.4142135623731073
10
21.069204893761171
20
-39.429460700956326
10
20.609585485989964
20
-38.969841293185063
42
-0.41421356237310114
0
LWPOLYLINE
5
125
100
AcDbEntity
8
0
100
AcDbPolyline
90
78
70
1
43
0.0
10
-20.508673840008051
20
35.806700817292267
10
-20.826871891541998
20
35.488502765758327
42
0.99999999999999989
10
-18.493419513626375
20
33.155050387842721
10
-18.175221462092427
20
33.473248439376661
42
-0.41421356237310114
10
-16.478165187244702
20
33.473248439376661
10
-14.501801733828312
20
31.496884985960271
42
-0.41421356237309509
10
-14.501801733828277
20
24.312680089104937
10
-24.995266366636653
20
13.819215456296572
42
-0.41421356237309431
10
-32.179471263491976
20
13.81921545629654
10
-34.155834716908387
20
15.795578909712962
42
-0.41421356237309509
10
-34.155834716908387
20
17.492635184560662
10
-33.837636665374468
20
17.810833236094602
42
0.99999999999999989
10
-36.171089043290067
20
20.144285614010208
10
-36.489287094823993
20
19.826087562476282
42
-0.41421356237310458
10
-38.186343369671725
20
19.826087562476296
10
-38.645962777442982
20
20.285706970247539
42
-0.4142135623730851
10
-38.645962777442982
20
21.982763245095231
10
-38.327764725909056
20
22.300961296629197
42
0.99999999999999989
10
-40.661217103824647
20
24.63441367454481
10
-40.979415155358581
20
24.316215623010873
42
-0.41421356237309964
10
-42.676471430206306
20
24.316215623010848
10
-43.136090837977548
20
24.775835030782105
42
-0.41421356237309509
10
-43.136090837977562
20
26.472891305629798
10
-42.817892786443608
20
26.791089357163766
42
0.99999999999999989
10
-45.151345164359228
20
29.124541735079355
10
-45.469543215893168
20
28.806343683545421
42
-0.4142135623731043
10
-47.166599490740886
20
28.806343683545421
10
-47.626218898512121
20
29.265963091316678
42
-0.41421356237309731
10
-47.626218898512143
20
30.963019366164396
10
-47.308020846978202
20
31.281217417698322
42
1.0000000074505804
10
-49.641473224893801
20
33.614669795613963
10
-49.959671276427727
20
33.29647174407998
42
-0.41421356237309581
10
-51.656727551275445
20
33.296471744079973
10
-52.116346959046716
20
33.756091151851237
42
-0.41421356237309198
10
-52.116346959046716
20
35.453147426698962
10
-51.798148907512768
20
35.771345478232909
42
0.99999999999999989
10
-54.131601285428388
20
38.104797856148522
10
-54.44979933696235
20
37.786599804614539
42
-0.41421356237308971
10
-56.146855611810047
20
37.786599804614561
10
-56.60647501958131
20
38.246219212385824
42
-0.41421356237308893
10
-56.606475019581318
20
39.943275487233535
10
-56.288276968047377
20
40.261473538767483
42
0.9999999925494194
10
-58.621729345962976
20
42.594925916683096
10
-58.939927397496916
20
42.276727865149148
42
-0.41421356237307971
10
-60.636983672344613
20
42.27672786514912
10
-63.493695068338312
20
45.133439261142776
10
-45.816025538674594
20
62.811108790806493
10
-42.959314142680959
20
59.954397394812851
42
-0.41421356237308893
10
-42.959314142680952
20
58.25734111996514
10
-43.277512194214879
20
57.939143068431207
42
0.99999999999999989
10
-40.944059816299294
20
55.605690690515601
10
-40.625861764765354
20
55.923888742049527
42
-0.4142135623731073
10
-38.928805489917622
20
55.923888742049513
10
-38.469186082146365
20
55.464269334278299
42
-0.41421356237309659
10
-38.469186082146372
20
53.767213059430574
10
-38.787384133680341
20
53.44901500789662
42
0.99999999999999989
10
-36.453931755764721
20
51.115562629981028
10
-36.135733704230752
20
51.433760681514933
42
-0.41421356237310353
10
-34.438677429383034
20
51.43376068151494
10
-33.979058021611792
20
50.974141273743712
42
-0.41421356237310497
10
-33.979058021611792
20
49.277084998895972
10
-34.297256073145739
20
48.958886947362046
42
1.0000000074505804
10
-31.963803695230133
20
46.62543456944644
10
-31.645605643696172
20
46.943632620980381
42
-0.4142135623730942
10
-29.948549368848454
20
46.943632620980402
10
-29.488929961077215
20
46.484013213209117
42
-0.41421356237309115
10
-29.488929961077215
20
44.786956938361413
10
-29.807128012611162
20
44.468758886827473
42
0.99999999999999989
10
-27.473675634695532
20
42.135306508911867
10
-27.155477583161595
20
42.453504560445793
42
-0.41421356237309886
10
-25.458421308313881
20
42.453504560445801
10
-24.998801900542613
20
41.993885152674537
42
-0.41421356237309198
10
-24.998801900542613
20
40.296828877826847
10
-25.316999952076547
20
39.9786308262929
42
0.99999999999999989
10
-22.983547574160959
20
37.645178448377294
10
-22.665349522627022
20
37.963376499911249
42
-0.41421356237309198
10
-20.968293247779314
20
37.963376499911249
10
-20.508673840008026
20
37.503757092139999
42
-0.41421356237309731
0
ENDSEC
0
SECTION
2
OBJECTS
0
DICTIONARY
5
C
100
AcDbDictionary
3
ACAD_GROUP
350
D
3
ACAD_MLINESTYLE
350
17
0
DICTIONARY
5
D
100
AcDbDictionary
0
DICTIONARY
5
1A
330
C
100
AcDbDictionary
0
DICTIONARY
5
17
100
AcDbDictionary
0
ENDSEC
0
EOF
