0
SECTION
2
HEADER
9
$INSUNITS
70
4
9
$ACADVER
1
AC1014
9
$HANDSEED
5
FFFF
0
ENDSEC
0
SECTION
2
TABLES
0
TABLE
2
VPORT
5
8
100
AcDbSymbolTable
0
ENDTAB
0
TABLE
2
LTYPE
5
5
100
AcDbSymbolTable
0
LTYPE
5
14
100
AcDbSymbolTableRecord
100
AcDbLinetypeTableRecord
2
BYBLOCK
70
0
0
LTYPE
5
15
100
AcDbSymbolTableRecord
100
AcDbLinetypeTableRecord
2
BYLAYER
70
0
0
ENDTAB
0
TABLE
2
LAYER
5
2
100
AcDbSymbolTable
70
2
0
LAYER
5
50
100
AcDbSymbolTableRecord
100
AcDbLayerTableRecord
2
0
70
0
6
CONTINUOUS
0
ENDTAB
0
TABLE
2
STYLE
5
3
100
AcDbSymbolTable
70
1
0
STYLE
5
11
100
AcDbSymbolTableRecord
100
AcDbTextStyleTableRecord
2
STANDARD
70
0
0
ENDTAB
0
TABLE
2
VIEW
5
6
100
AcDbSymbolTable
70
0
0
ENDTAB
0
TABLE
2
UCS
5
7
100
AcDbSymbolTable
70
0
0
ENDTAB
0
TABLE
2
APPID
5
9
100
AcDbSymbolTable
70
2
0
APPID
5
12
100
AcDbSymbolTableRecord
100
AcDbRegAppTableRecord
2
ACAD
70
0
0
ENDTAB
0
TABLE
2
DIMSTYLE
5
A
100
AcDbSymbolTable
70
1
0
ENDTAB
0
TABLE
2
BLOCK_RECORD
5
1
100
AcDbSymbolTable
70
1
0
BLOCK_RECORD
5
1F
100
AcDbSymbolTableRecord
100
AcDbBlockTableRecord
2
*MODEL_SPACE
0
BLOCK_RECORD
5
1B
100
AcDbSymbolTableRecord
100
AcDbBlockTableRecord
2
*PAPER_SPACE
0
ENDTAB
0
ENDSEC
0
SECTION
2
BLOCKS
0
BLOCK
5
20
100
AcDbEntity
100
AcDbBlockBegin
2
*MODEL_SPACE
0
ENDBLK
5
21
100
AcDbEntity
100
AcDbBlockEnd
0
BLOCK
5
1C
100
AcDbEntity
100
AcDbBlockBegin
2
*PAPER_SPACE
0
ENDBLK
5
1D
100
AcDbEntity
100
AcDbBlockEnd
0
ENDSEC
0
SECTION
2
ENTITIES
0
LWPOLYLINE
5
100
100
AcDbEntity
8
0
100
AcDbPolyline
90
4
70
1
43
0.0
10
-46.499999999999972
20
90.47000000000024
10
-46.499999999999972
20
91.070000000000221
10
-45.89999999999997
20
91.070000000000206
10
-45.899999999999963
20
90.47000000000024
0
LWPOLYLINE
5
101
100
AcDbEntity
8
0
100
AcDbPolyline
90
4
70
1
43
0.0
10
-46.499999999999972
20
87.929999999999978
10
-46.499999999999972
20
88.529999999999973
10
-45.899999999999949
20
88.530000000000115
10
-45.899999999999935
20
87.930000000000121
0
LWPOLYLINE
5
102
100
AcDbEntity
8
0
100
AcDbPolyline
90
4
70
1
43
0.0
10
46.499999999999972
20
91.070000000000221
10
46.499999999999972
20
90.47000000000024
10
45.899999999999963
20
90.47000000000024
10
45.89999999999997
20
91.070000000000206
0
LWPOLYLINE
5
103
100
AcDbEntity
8
0
100
AcDbPolyline
90
4
70
1
43
0.0
10
46.499999999999972
20
88.529999999999973
10
46.499999999999972
20
87.929999999999978
10
45.899999999999935
20
87.930000000000121
10
45.899999999999949
20
88.530000000000115
0
CIRCLE
5
104
100
AcDbEntity
8
0
100
AcDbCircle
10
-53.500000745057989
20
28.000000447034985
30
0
40
1.6000000000000014
210
-3.879533138008383e-37
220
-5.4015143625403301e-57
230
1
0
CIRCLE
5
105
100
AcDbEntity
8
0
100
AcDbCircle
10
-42.161242000000001
20
57.505458000000054
30
0
40
1.6000000000000014
210
-3.879533138008383e-37
220
-5.4015143625403301e-57
230
1
0
CIRCLE
5
106
100
AcDbEntity
8
0
100
AcDbCircle
10
-9.7178140000000042
20
42.262317000000039
30
0
40
1.6000000000000014
210
-3.879533138008383e-37
220
-5.4015143625403301e-57
230
1
0
CIRCLE
5
107
100
AcDbEntity
8
0
100
AcDbCircle
10
53.500000745058131
20
-28.000000447034587
30
0
40
1.6000000000000014
210
-3.879533138008383e-37
220
-5.4015143625403301e-57
230
1
0
CIRCLE
5
108
100
AcDbEntity
8
0
100
AcDbCircle
10
19.710602000000009
20
35.054818000000026
30
0
40
1.6000000000000036
210
-3.879533138008383e-37
220
-5.4015143625403301e-57
230
1
0
CIRCLE
5
109
100
AcDbEntity
8
0
100
AcDbCircle
10
-9.7178139999999988
20
60.262317000000053
30
0
40
1.6000000000000014
210
-3.879533138008383e-37
220
-5.4015143625403301e-57
230
1
0
CIRCLE
5
110
100
AcDbEntity
8
0
100
AcDbCircle
10
-88.208439955073487
20
-41.539392396758174
30
0
40
1.6000000000000014
210
-3.879533138008383e-37
220
-5.4015143625403301e-57
230
1
0
CIRCLE
5
111
100
AcDbEntity
8
0
100
AcDbCircle
10
88.208439955072251
20
41.539392396761265
30
0
40
1.6000000000000014
210
-3.879533138008383e-37
220
-5.4015143625403301e-57
230
1
0
CIRCLE
5
112
100
AcDbEntity
8
0
100
AcDbCircle
10
41.539392396760732
20
88.208439955074013
30
0
40
1.6000000000000103
210
-3.8795331380083839e-37
220
-5.4015143625403313e-57
230
1
0
CIRCLE
5
113
100
AcDbEntity
8
0
100
AcDbCircle
10
57.505459000000023
20
42.161241000000025
30
-4.4408920985006262e-15
40
1.6000000000000014
210
-3.879533138008383e-37
220
-5.4015143625403301e-57
230
1
0
CIRCLE
5
114
100
AcDbEntity
8
0
100
AcDbCircle
10
88.208439955071867
20
-41.53939239675978
30
0
40
1.6000000000000014
210
-3.879533138008383e-37
220
-5.4015143625403301e-57
230
1
0
CIRCLE
5
115
100
AcDbEntity
8
0
100
AcDbCircle
10
-19.710601
20
35.05481800000004
30
0
40
1.6000000000000014
210
-3.879533138008383e-37
220
-5.4015143625403301e-57
230
1
0
CIRCLE
5
116
100
AcDbEntity
8
0
100
AcDbCircle
10
44.035075000000006
20
28.69085700000003
30
-4.4408920985006262e-15
40
1.6000000000000014
210
-3.879533138008383e-37
220
-5.4015143625403301e-57
230
1
0
CIRCLE
5
117
100
AcDbEntity
8
0
100
AcDbCircle
10
44.035075000000006
20
-28.69085900000001
30
0
40
1.6000000000000014
210
-3.879533138008383e-37
220
-5.4015143625403301e-57
230
1
0
CIRCLE
5
118
100
AcDbEntity
8
0
100
AcDbCircle
10
-53.500000745057996
20
-28.00000044703495
30
4.4408920985006262e-15
40
1.6000000000000014
210
-3.879533138008383e-37
220
-5.4015143625403301e-57
230
1
0
CIRCLE
5
119
100
AcDbEntity
8
0
100
AcDbCircle
10
-41.539392396760341
20
88.208439955074425
30
4.4408920985006262e-15
40
1.6000000000000014
210
-3.879533138008383e-37
220
-5.4015143625403301e-57
230
1
0
CIRCLE
5
120
100
AcDbEntity
8
0
100
AcDbCircle
10
-57.505459000000002
20
42.161241000000047
30
0
40
1.6000000000000014
210
-3.879533138008383e-37
220
-5.4015143625403301e-57
230
1
0
CIRCLE
5
121
100
AcDbEntity
8
0
100
AcDbCircle
10
53.500000745058138
20
28.000000447034601
30
-4.4408920985006262e-15
40
1.6000000000000014
210
-3.879533138008383e-37
220
-5.4015143625403301e-57
230
1
0
CIRCLE
5
122
100
AcDbEntity
8
0
100
AcDbCircle
10
41.539392396759141
20
-88.208439955071327
30
-4.4408920985006262e-15
40
1.6000000000000014
210
-3.879533138008383e-37
220
-5.4015143625403301e-57
230
1
0
CIRCLE
5
123
100
AcDbEntity
8
0
100
AcDbCircle
10
-57.505459000000023
20
-42.161243000000006
30
4.4408920985006262e-15
40
1.6000000000000014
210
-3.879533138008383e-37
220
-5.4015143625403301e-57
230
1
0
CIRCLE
5
124
100
AcDbEntity
8
0
100
AcDbCircle
10
-41.539392396761919
20
-88.208439955070915
30
0
40
1.6000000000000059
210
-3.879533138008383e-37
220
-5.4015143625403301e-57
230
1
0
CIRCLE
5
125
100
AcDbEntity
8
0
100
AcDbCircle
10
-19.710601000000004
20
-35.054820000000007
30
0
40
1.6000000000000014
210
-3.879533138008383e-37
220
-5.4015143625403301e-57
230
1
0
CIRCLE
5
126
100
AcDbEntity
8
0
100
AcDbCircle
10
57.505459000000002
20
-42.161243000000027
30
0
40
1.6000000000000014
210
-3.879533138008383e-37
220
-5.4015143625403301e-57
230
1
0
CIRCLE
5
127
100
AcDbEntity
8
0
100
AcDbCircle
10
-42.161242000000023
20
-57.505460000000014
30
4.4408920985006262e-15
40
1.6000000000000014
210
-3.879533138008383e-37
220
-5.4015143625403301e-57
230
1
0
CIRCLE
5
128
100
AcDbEntity
8
0
100
AcDbCircle
10
-44.035075000000006
20
-28.690859
30
4.4408920985006262e-15
40
1.6000000000000014
210
-3.879533138008383e-37
220
-5.4015143625403301e-57
230
1
0
CIRCLE
5
129
100
AcDbEntity
8
0
100
AcDbCircle
10
42.161242000000001
20
-57.505460000000035
30
0
40
1.6000000000000014
210
-3.879533138008383e-37
220
-5.4015143625403301e-57
230
1
0
CIRCLE
5
130
100
AcDbEntity
8
0
100
AcDbCircle
10
19.710602000000005
20
-35.054820000000014
30
0
40
1.5999999999999992
210
-3.879533138008383e-37
220
-5.4015143625403301e-57
230
1
0
CIRCLE
5
131
100
AcDbEntity
8
0
100
AcDbCircle
10
9.7821860000000047
20
42.262317000000039
30
0
40
1.6000000000000025
210
-3.879533138008383e-37
220
-5.4015143625403301e-57
230
1
0
CIRCLE
5
132
100
AcDbEntity
8
0
100
AcDbCircle
10
-88.208439955073104
20
41.539392396762864
30
0
40
1.6000000000000014
210
-3.879533138008383e-37
220
-5.4015143625403301e-57
230
1
0
CIRCLE
5
133
100
AcDbEntity
8
0
100
AcDbCircle
10
42.161242000000023
20
57.50545800000004
30
-4.4408920985006262e-15
40
1.6000000000000014
210
-3.879533138008383e-37
220
-5.4015143625403301e-57
230
1
0
CIRCLE
5
134
100
AcDbEntity
8
0
100
AcDbCircle
10
9.7821860000000065
20
60.262317000000053
30
0
40
1.6000000000000014
210
-3.879533138008383e-37
220
-5.4015143625403301e-57
230
1
0
CIRCLE
5
135
100
AcDbEntity
8
0
100
AcDbCircle
10
-44.035075000000006
20
28.690857000000037
30
0
40
1.6000000000000014
210
-3.879533138008383e-37
220
-5.4015143625403301e-57
230
1
0
LWPOLYLINE
5
136
100
AcDbEntity
8
0
100
AcDbPolyline
90
32
70
1
43
0.0
10
41.188969745184124
20
80.221264066681428
10
50.652364295562805
20
89.684658617121315
42
0.025715892493114276
10
41.177742142468645
20
94.410770318053977
10
26.999693146104047
20
79.999687375895704
10
9.9999999984815435
20
79.999687375895704
10
9.9999999984815453
20
75.00000111758709
10
-10.00000014901161
20
75.00000111758709
10
-10.00000014901161
20
79.999687375895704
10
-26.99969314914096
20
79.999687375895704
10
-41.177742139319911
20
94.410770319427428
42
0.025715892501441337
10
-50.652364295556971
20
89.684658617124612
10
-41.18896974518411
20
80.221264066681428
42
-0.41421356237309465
10
-41.18896974518411
20
73.150196254815953
10
-73.150196254817928
20
41.188969745182121
42
-0.41421356237299717
10
-80.22126406668221
20
41.188969745180934
10
-89.684658617121485
20
50.652364295562613
42
0.26287699632698314
10
-89.68465861712545
20
-50.652364295557447
10
-80.221264066681556
20
-41.188969745184032
42
-0.41421356237309681
10
-73.150196254816052
20
-41.188969745183996
10
-41.188969745184082
20
-73.150196254815967
42
-0.41421356237309248
10
-41.188969745184103
20
-80.221264066681499
10
-50.65236429556262
20
-89.6846586171214
42
0.26287699632698741
10
50.652364295557263
20
-89.68465861712518
10
41.188969745184103
20
-80.221264066681471
42
-0.41421356237309725
10
41.188969745184096
20
-73.150196254815981
10
73.150196254816052
20
-41.188969745183961
42
-0.41421356237309243
10
80.221264066681499
20
-41.188969745183961
10
89.684658617111225
20
-50.652364295580696
42
0.26287699632704059
10
89.684658617123745
20
50.652364295556524
10
80.221264066682238
20
41.188969745180955
42
-0.41421356237299495
10
73.150196254817985
20
41.188969745182121
10
41.188969745184131
20
73.150196254815981
42
-0.41421356237309248
0
ENDSEC
0
SECTION
2
OBJECTS
0
DICTIONARY
5
C
100
AcDbDictionary
3
ACAD_GROUP
350
D
3
ACAD_MLINESTYLE
350
17
0
DICTIONARY
5
D
100
AcDbDictionary
0
DICTIONARY
5
1A
330
C
100
AcDbDictionary
0
DICTIONARY
5
17
100
AcDbDictionary
0
ENDSEC
0
EOF
