0
SECTION
2
HEADER
9
$INSUNITS
70
4
9
$ACADVER
1
AC1014
9
$HANDSEED
5
FFFF
0
ENDSEC
0
SECTION
2
TABLES
0
TABLE
2
VPORT
5
8
100
AcDbSymbolTable
0
ENDTAB
0
TABLE
2
LTYPE
5
5
100
AcDbSymbolTable
0
LTYPE
5
14
100
AcDbSymbolTableRecord
100
AcDbLinetypeTableRecord
2
BYBLOCK
70
0
0
LTYPE
5
15
100
AcDbSymbolTableRecord
100
AcDbLinetypeTableRecord
2
BYLAYER
70
0
0
ENDTAB
0
TABLE
2
LAYER
5
2
100
AcDbSymbolTable
70
2
0
LAYER
5
50
100
AcDbSymbolTableRecord
100
AcDbLayerTableRecord
2
0
70
0
6
CONTINUOUS
0
ENDTAB
0
TABLE
2
STYLE
5
3
100
AcDbSymbolTable
70
1
0
STYLE
5
11
100
AcDbSymbolTableRecord
100
AcDbTextStyleTableRecord
2
STANDARD
70
0
0
ENDTAB
0
TABLE
2
VIEW
5
6
100
AcDbSymbolTable
70
0
0
ENDTAB
0
TABLE
2
UCS
5
7
100
AcDbSymbolTable
70
0
0
ENDTAB
0
TABLE
2
APPID
5
9
100
AcDbSymbolTable
70
2
0
APPID
5
12
100
AcDbSymbolTableRecord
100
AcDbRegAppTableRecord
2
ACAD
70
0
0
ENDTAB
0
TABLE
2
DIMSTYLE
5
A
100
AcDbSymbolTable
70
1
0
ENDTAB
0
TABLE
2
BLOCK_RECORD
5
1
100
AcDbSymbolTable
70
1
0
BLOCK_RECORD
5
1F
100
AcDbSymbolTableRecord
100
AcDbBlockTableRecord
2
*MODEL_SPACE
0
BLOCK_RECORD
5
1B
100
AcDbSymbolTableRecord
100
AcDbBlockTableRecord
2
*PAPER_SPACE
0
ENDTAB
0
ENDSEC
0
SECTION
2
BLOCKS
0
BLOCK
5
20
100
AcDbEntity
100
AcDbBlockBegin
2
*MODEL_SPACE
0
ENDBLK
5
21
100
AcDbEntity
100
AcDbBlockEnd
0
BLOCK
5
1C
100
AcDbEntity
100
AcDbBlockBegin
2
*PAPER_SPACE
0
ENDBLK
5
1D
100
AcDbEntity
100
AcDbBlockEnd
0
ENDSEC
0
SECTION
2
ENTITIES
0
LWPOLYLINE
5
100
100
AcDbEntity
8
0
100
AcDbPolyline
90
56
70
1
43
0.0
10
47.729704905832513
20
65.407375927950099
10
46.315491343459385
20
63.993162365577007
10
46.350832913734493
20
63.957820795301885
10
42.908979963483247
20
60.515967845050689
42
0.48148254080819897
10
43.083801533132096
20
58.962295972699685
42
-1.2535758512816952
10
40.739756018538451
20
56.618250458106061
42
0.48148254080820829
10
39.186084146187412
20
56.793072027754945
10
38.418851902948617
20
56.025839784516137
42
0.48148254080819697
10
38.593673472597473
20
54.472167912165133
42
-1.253575851281691
10
36.249627958003792
20
52.128122397571516
42
0.4814825408081943
10
34.695956085652824
20
52.302943967220386
10
33.928723842414016
20
51.535711723981592
42
0.48148254080820091
10
34.103545412062857
20
49.982039851630603
42
-1.2535758512817019
10
31.759499897469212
20
47.637994337036957
42
0.4814825408081993
10
30.205828025118201
20
47.812815906685827
10
29.438595781879378
20
47.045583663447026
42
0.48148254080819308
10
29.61341735152822
20
45.491911791096051
42
-1.2535758512817081
10
27.269371836934585
20
43.147866276502398
42
0.48148254080820169
10
25.715699964583578
20
43.322687846151275
10
24.948467721344805
20
42.555455602912488
42
0.48148254080821246
10
25.123289290993604
20
41.001783730561471
42
-1.2535758512817008
10
22.779243776399941
20
38.657738215967839
42
0.48148254080820185
10
21.225571904048959
20
38.832559785616731
10
20.458339660810143
20
38.065327542377929
42
0.48148254080819675
10
20.633161230458995
20
36.511655670026919
42
-1.2535758512816917
10
18.289115715865325
20
34.167610155433287
42
0.48148254080819902
10
16.735443843514346
20
34.342431725082172
10
12.610892211392029
20
30.217880092959895
42
0.28495414665766067
10
12.610892211391961
20
26.987083378989514
10
27.169025735044336
20
12.428949855336956
42
0.34802580881166068
10
30.813724673732786
20
13.136056636523435
10
34.350332133162638
20
16.672664095953298
42
0.45763972142720488
10
34.239970544245097
20
18.182201668862035
42
-1.1577522630181301
10
36.61856971703002
20
20.560800841646977
42
0.45763972142720838
10
38.128107289938754
20
20.450439252729314
10
38.840460193697254
20
21.162792156487832
42
0.45763972142719445
10
38.73009860477967
20
22.672329729396566
42
-1.1577522630181185
10
41.108697777564615
20
25.050928902181493
42
0.45763972142720455
10
42.61823535047337
20
24.940567313263877
10
43.330588254231877
20
25.652920217022412
42
0.45763972142719805
10
43.220226665314314
20
27.162457789931146
42
-1.1577522630181143
10
45.598825838099266
20
29.54105696271607
42
0.45763972142720366
10
47.108363411008021
20
29.430695373798446
10
47.820716314766507
20
30.143048277556936
42
0.45763972142720283
10
47.710354725848909
20
31.652585850465659
42
-1.1577522630181121
10
50.088953898633861
20
34.031185023250586
42
0.45763972142719583
10
51.598491471542602
20
33.920823434332981
10
52.310844375301137
20
34.633176338091467
42
0.45763972142720111
10
52.200482786383546
20
36.142713911000207
42
-1.1577522630181176
10
54.579081959168491
20
38.521313083785152
42
0.45763972142720227
10
56.088619532077225
20
38.410951494867518
10
56.800972435835746
20
39.12330439862604
42
0.45763972142719705
10
56.690610846918176
20
40.632841971534759
42
-1.1577522630181176
10
59.069210019703114
20
43.011441144319704
42
0.45763972142719739
10
60.578747592611847
20
42.901079555402085
10
65.407374435496081
20
47.729706398286218
0
CIRCLE
5
101
100
AcDbEntity
8
0
100
AcDbCircle
10
29.683387892651897
20
29.50144553659683
30
7.8886090522101181e-30
40
1.6500000000000068
210
-1.394522238736837e-31
220
3.4863055968422134e-32
230
1
0
CIRCLE
5
102
100
AcDbEntity
8
0
100
AcDbCircle
10
34.173515953186524
20
33.991573597131378
30
0
40
1.6500000000000068
210
-1.394522238736837e-31
220
3.4863055968422134e-32
230
1
0
CIRCLE
5
103
100
AcDbEntity
8
0
100
AcDbCircle
10
38.663644013721161
20
38.48170165766593
30
7.8886090522101181e-30
40
1.6500000000000028
210
-8.715763992105233e-32
220
1.743152798421122e-32
230
1
0
CIRCLE
5
104
100
AcDbEntity
8
0
100
AcDbCircle
10
43.15377207425577
20
42.971829718200482
30
7.8886090522101181e-30
40
1.6500000000000028
210
-8.715763992105233e-32
220
1.743152798421122e-32
230
1
0
CIRCLE
5
105
100
AcDbEntity
8
0
100
AcDbCircle
10
47.643900134790407
20
47.461957778735034
30
-7.8886090522101181e-30
40
1.6500000000000039
210
-6.9726111936841728e-32
220
3.4863055968421565e-32
230
1
0
CIRCLE
5
106
100
AcDbEntity
8
0
100
AcDbCircle
10
52.134028195325016
20
51.952085839269593
30
0
40
1.6500000000000035
210
-6.9726111936841739e-32
220
3.4863055968421565e-32
230
1
0
CIRCLE
5
107
100
AcDbEntity
8
0
100
AcDbCircle
10
25.193259832117313
20
25.011317476062295
30
0
40
1.6500000000000068
210
-1.394522238736837e-31
220
3.4863055968422134e-32
230
1
0
ENDSEC
0
SECTION
2
OBJECTS
0
DICTIONARY
5
C
100
AcDbDictionary
3
ACAD_GROUP
350
D
3
ACAD_MLINESTYLE
350
17
0
DICTIONARY
5
D
100
AcDbDictionary
0
DICTIONARY
5
1A
330
C
100
AcDbDictionary
0
DICTIONARY
5
17
100
AcDbDictionary
0
ENDSEC
0
EOF
