0
SECTION
2
HEADER
9
$INSUNITS
70
4
9
$ACADVER
1
AC1014
9
$HANDSEED
5
FFFF
0
ENDSEC
0
SECTION
2
TABLES
0
TABLE
2
VPORT
5
8
100
AcDbSymbolTable
0
ENDTAB
0
TABLE
2
LTYPE
5
5
100
AcDbSymbolTable
0
LTYPE
5
14
100
AcDbSymbolTableRecord
100
AcDbLinetypeTableRecord
2
BYBLOCK
70
0
0
LTYPE
5
15
100
AcDbSymbolTableRecord
100
AcDbLinetypeTableRecord
2
BYLAYER
70
0
0
ENDTAB
0
TABLE
2
LAYER
5
2
100
AcDbSymbolTable
70
2
0
LAYER
5
50
100
AcDbSymbolTableRecord
100
AcDbLayerTableRecord
2
0
70
0
6
CONTINUOUS
0
ENDTAB
0
TABLE
2
STYLE
5
3
100
AcDbSymbolTable
70
1
0
STYLE
5
11
100
AcDbSymbolTableRecord
100
AcDbTextStyleTableRecord
2
STANDARD
70
0
0
ENDTAB
0
TABLE
2
VIEW
5
6
100
AcDbSymbolTable
70
0
0
ENDTAB
0
TABLE
2
UCS
5
7
100
AcDbSymbolTable
70
0
0
ENDTAB
0
TABLE
2
APPID
5
9
100
AcDbSymbolTable
70
2
0
APPID
5
12
100
AcDbSymbolTableRecord
100
AcDbRegAppTableRecord
2
ACAD
70
0
0
ENDTAB
0
TABLE
2
DIMSTYLE
5
A
100
AcDbSymbolTable
70
1
0
ENDTAB
0
TABLE
2
BLOCK_RECORD
5
1
100
AcDbSymbolTable
70
1
0
BLOCK_RECORD
5
1F
100
AcDbSymbolTableRecord
100
AcDbBlockTableRecord
2
*MODEL_SPACE
0
BLOCK_RECORD
5
1B
100
AcDbSymbolTableRecord
100
AcDbBlockTableRecord
2
*PAPER_SPACE
0
ENDTAB
0
ENDSEC
0
SECTION
2
BLOCKS
0
BLOCK
5
20
100
AcDbEntity
100
AcDbBlockBegin
2
*MODEL_SPACE
0
ENDBLK
5
21
100
AcDbEntity
100
AcDbBlockEnd
0
BLOCK
5
1C
100
AcDbEntity
100
AcDbBlockBegin
2
*PAPER_SPACE
0
ENDBLK
5
1D
100
AcDbEntity
100
AcDbBlockEnd
0
ENDSEC
0
SECTION
2
ENTITIES
0
LWPOLYLINE
5
100
100
AcDbEntity
8
0
100
AcDbPolyline
90
56
70
1
43
0.0
10
-65.407376291884219
20
47.729706765335237
10
-63.993162729511127
20
46.315493202962116
10
-63.957821159236012
20
46.350834773237239
10
-60.515968208984788
20
42.908981822985986
42
0.48148254080819697
10
-58.962296336633806
20
43.083803392634849
42
-1.2535758512816972
10
-56.618250822040167
20
40.739757878041189
42
0.48148254080820185
10
-56.793072391689037
20
39.186086005690179
10
-56.025840148450222
20
38.418853762451384
42
0.48148254080819913
10
-54.472168276099218
20
38.593675332100247
42
-1.2535758512816972
10
-52.128122761505594
20
36.249629817506587
42
0.48148254080819591
10
-52.302944331154464
20
34.695957945155598
10
-51.535712087915655
20
33.92872570191679
42
0.48148254080819503
10
-49.982040215564652
20
34.103547271565631
42
-1.2535758512817112
10
-47.637994700971021
20
31.759501756971989
42
0.48148254080819669
10
-47.812816270619891
20
30.205829884620996
10
-47.045584027381082
20
29.438597641382174
42
0.48148254080819719
10
-45.491912155030086
20
29.613419211031015
42
-1.2535758512817108
10
-43.147866640436455
20
27.269373696437384
42
0.48148254080819353
10
-43.322688210085303
20
25.715701824086384
10
-42.555455966846523
20
24.948469580847608
42
0.48148254080821246
10
-41.001784094495505
20
25.123291150496406
42
-1.2535758512817028
10
-38.65773857990186
20
22.779245635902772
42
0.48148254080820185
10
-38.832560149550737
20
21.225573763551779
10
-38.065327906311943
20
20.45834152031297
42
0.48148254080819891
10
-36.511656033960918
20
20.633163089961819
42
-1.2535758512816877
10
-34.16761051936728
20
18.289117575368149
42
0.48148254080819708
10
-34.342432089016157
20
16.735445703017184
10
-30.217880456893866
20
12.610894070894872
42
0.28495414665766006
10
-26.987083742923481
20
12.61089407089483
10
-12.428950219270991
20
27.169027594547252
42
0.34802580881166018
10
-13.136057000457493
20
30.813726533235698
10
-16.672664459887361
20
34.350333992665554
42
0.45763972142720249
10
-18.182202032796113
20
34.239972403747984
42
-1.1577522630181305
10
-20.560801205581058
20
36.618571576532901
42
0.45763972142720705
10
-20.450439616663413
20
38.128109149441642
10
-21.16279252042192
20
38.840462053200149
42
0.45763972142719517
10
-22.672330093330668
20
38.730100464282565
42
-1.1577522630181174
10
-25.050929266115595
20
41.108699637067502
42
0.4576397214271975
10
-24.940567677197993
20
42.618237209976229
10
-25.652920580956522
20
43.330590113734772
42
0.45763972142719639
10
-27.162458153865259
20
43.220228524817173
42
-1.1577522630181145
10
-29.541057326650183
20
45.598827697602133
42
0.45763972142719445
10
-29.430695737732584
20
47.108365270510859
10
-30.14304864149107
20
47.820718174269373
42
0.45763972142720211
10
-31.652586214399797
20
47.710356585351747
42
-1.1577522630181079
10
-34.031185387184728
20
50.088955758136713
42
0.45763972142719495
10
-33.920823798267136
20
51.598493331045454
10
-34.633176702025629
20
52.310846234803982
42
0.45763972142720016
10
-36.142714274934377
20
52.200484645886398
42
-1.157752263018117
10
-38.521313447719315
20
54.579083818671322
42
0.45763972142720194
10
-38.410951858801702
20
56.08862139158007
10
-39.123304762560217
20
56.800974295338577
42
0.45763972142720166
10
-40.632842335468943
20
56.690612706420978
42
-1.1577522630181123
10
-43.011441508253874
20
59.069211879205923
42
0.45763972142719506
10
-42.901079919336276
20
60.578749452114664
10
-47.729706762220438
20
65.407376294998869
0
CIRCLE
5
101
100
AcDbEntity
8
0
100
AcDbCircle
10
-29.501445900530886
20
29.683389752154746
30
-3.944304526105059e-30
40
1.6500000000000075
210
-2.0046257181842085e-31
220
-4.3578819960525492e-32
230
1
0
CIRCLE
5
102
100
AcDbEntity
8
0
100
AcDbCircle
10
-33.991573961065448
20
34.173517812689376
30
3.944304526105059e-30
40
1.6500000000000075
210
-2.0046257181842085e-31
220
-4.3578819960525492e-32
230
1
0
CIRCLE
5
103
100
AcDbEntity
8
0
100
AcDbCircle
10
-38.481702021600022
20
38.663645873223984
30
-3.944304526105059e-30
40
1.6500000000000037
210
-1.8303104383421037e-31
220
-5.2294583952630798e-32
230
1
0
CIRCLE
5
104
100
AcDbEntity
8
0
100
AcDbCircle
10
-42.971830082134588
20
43.153773933758586
30
0
40
1.6500000000000037
210
-1.8303104383421037e-31
220
-5.2294583952630798e-32
230
1
0
CIRCLE
5
105
100
AcDbEntity
8
0
100
AcDbCircle
10
-47.461958142669175
20
47.643901994293209
30
3.944304526105059e-30
40
1.650000000000005
210
-2.0046257181842072e-31
220
-8.71576399210454e-33
230
1
0
CIRCLE
5
106
100
AcDbEntity
8
0
100
AcDbCircle
10
-51.952086203203756
20
52.134030054827804
30
-3.944304526105059e-30
40
1.6500000000000044
210
-1.612416338539471e-31
220
-4.3578819960520346e-33
230
1
0
CIRCLE
5
107
100
AcDbEntity
8
0
100
AcDbCircle
10
-25.011317839996327
20
25.193261691620176
30
-3.944304526105059e-30
40
1.6500000000000075
210
-2.0046257181842085e-31
220
-4.3578819960525492e-32
230
1
0
ENDSEC
0
SECTION
2
OBJECTS
0
DICTIONARY
5
C
100
AcDbDictionary
3
ACAD_GROUP
350
D
3
ACAD_MLINESTYLE
350
17
0
DICTIONARY
5
D
100
AcDbDictionary
0
DICTIONARY
5
1A
330
C
100
AcDbDictionary
0
DICTIONARY
5
17
100
AcDbDictionary
0
ENDSEC
0
EOF
