0
SECTION
2
HEADER
9
$INSUNITS
70
4
9
$ACADVER
1
AC1014
9
$HANDSEED
5
FFFF
0
ENDSEC
0
SECTION
2
TABLES
0
TABLE
2
VPORT
5
8
100
AcDbSymbolTable
0
ENDTAB
0
TABLE
2
LTYPE
5
5
100
AcDbSymbolTable
0
LTYPE
5
14
100
AcDbSymbolTableRecord
100
AcDbLinetypeTableRecord
2
BYBLOCK
70
0
0
LTYPE
5
15
100
AcDbSymbolTableRecord
100
AcDbLinetypeTableRecord
2
BYLAYER
70
0
0
ENDTAB
0
TABLE
2
LAYER
5
2
100
AcDbSymbolTable
70
2
0
LAYER
5
50
100
AcDbSymbolTableRecord
100
AcDbLayerTableRecord
2
0
70
0
6
CONTINUOUS
0
ENDTAB
0
TABLE
2
STYLE
5
3
100
AcDbSymbolTable
70
1
0
STYLE
5
11
100
AcDbSymbolTableRecord
100
AcDbTextStyleTableRecord
2
STANDARD
70
0
0
ENDTAB
0
TABLE
2
VIEW
5
6
100
AcDbSymbolTable
70
0
0
ENDTAB
0
TABLE
2
UCS
5
7
100
AcDbSymbolTable
70
0
0
ENDTAB
0
TABLE
2
APPID
5
9
100
AcDbSymbolTable
70
2
0
APPID
5
12
100
AcDbSymbolTableRecord
100
AcDbRegAppTableRecord
2
ACAD
70
0
0
ENDTAB
0
TABLE
2
DIMSTYLE
5
A
100
AcDbSymbolTable
70
1
0
ENDTAB
0
TABLE
2
BLOCK_RECORD
5
1
100
AcDbSymbolTable
70
1
0
BLOCK_RECORD
5
1F
100
AcDbSymbolTableRecord
100
AcDbBlockTableRecord
2
*MODEL_SPACE
0
BLOCK_RECORD
5
1B
100
AcDbSymbolTableRecord
100
AcDbBlockTableRecord
2
*PAPER_SPACE
0
ENDTAB
0
ENDSEC
0
SECTION
2
BLOCKS
0
BLOCK
5
20
100
AcDbEntity
100
AcDbBlockBegin
2
*MODEL_SPACE
0
ENDBLK
5
21
100
AcDbEntity
100
AcDbBlockEnd
0
BLOCK
5
1C
100
AcDbEntity
100
AcDbBlockBegin
2
*PAPER_SPACE
0
ENDBLK
5
1D
100
AcDbEntity
100
AcDbBlockEnd
0
ENDSEC
0
SECTION
2
ENTITIES
0
LWPOLYLINE
5
100
100
AcDbEntity
8
0
100
AcDbPolyline
90
56
70
1
43
0.0
10
65.407374432381062
20
-47.729707129269357
10
63.993160870007976
20
-46.315493566896237
10
63.957819299732847
20
-46.350835137171359
10
60.515966349481623
20
-42.908982186920085
42
0.48148254080819491
10
58.962294477130648
20
-43.083803756568969
42
-1.2535758512816877
10
56.618248962537017
20
-40.739758241975295
42
0.48148254080820457
10
56.793070532185894
20
-39.18608636962427
10
56.025838288947092
20
-38.418854126385476
42
0.48148254080819963
10
54.472166416596096
20
-38.593675696034346
42
-1.2535758512816937
10
52.128120902002451
20
-36.249630181440672
42
0.48148254080820185
10
52.302942471651342
20
-34.69595830908969
10
51.535710228412555
20
-33.92872606585086
42
0.48148254080820052
10
49.982038356061544
20
-34.103547635499723
42
-1.2535758512816957
10
47.637992841467906
20
-31.759502120906053
42
0.48148254080819958
10
47.81281441111679
20
-30.205830248555074
10
47.045582167877981
20
-29.438598005316244
42
0.48148254080819863
10
45.491910295527006
20
-29.613419574965086
42
-1.2535758512817041
10
43.147864780933361
20
-27.269374060371433
42
0.48148254080820019
10
43.322686350582238
20
-25.715702188020437
10
42.555454107343458
20
-24.948469944781657
42
0.48148254080821989
10
41.001782234992412
20
-25.123291514430459
42
-1.2535758512817017
10
38.657736720398781
20
-22.77924599983681
42
0.48148254080820524
10
38.832558290047679
20
-21.225574127485814
10
38.065326046808877
20
-20.458341884246998
42
0.48148254080819575
10
36.51165417445786
20
-20.633163453895854
42
-1.2535758512816899
10
34.167608659864236
20
-18.289117939302177
42
0.48148254080819736
10
34.342430229513113
20
-16.735446066951198
10
30.217878597390843
20
-12.61089443482887
42
0.28495414665765939
10
26.987081883420462
20
-12.610894434828825
10
12.428948359767913
20
-27.169027958481209
42
0.34802580881165784
10
13.13605514095439
20
-30.81372689716963
10
16.672662600384243
20
-34.350334356599518
42
0.45763972142719583
10
18.182200173292991
20
-34.239972767681934
42
-1.1577522630181261
10
20.560799346077921
20
-36.618571940466872
42
0.45763972142720655
10
20.450437757160262
20
-38.128109513375598
10
21.162790660918777
20
-38.84046241713412
42
0.45763972142719539
10
22.672328233827521
20
-38.730100828216536
42
-1.1577522630181161
10
25.050927406612445
20
-41.108700001001488
42
0.45763972142720355
10
24.940565817694818
20
-42.618237573910221
10
25.652918721453368
20
-43.330590477668764
42
0.45763972142719334
10
27.162456294362094
20
-43.220228888751166
42
-1.1577522630181112
10
29.541055467147011
20
-45.598828061536125
42
0.45763972142719778
10
29.430693878229409
20
-47.108365634444873
10
30.143046781987888
20
-47.820718538203373
42
0.45763972142719922
10
31.652584354896621
20
-47.710356949285774
42
-1.1577522630181121
10
34.03118352768152
20
-50.088956122070734
42
0.45763972142718562
10
33.92082193876395
20
-51.598493694979467
10
34.633174842522429
20
-52.31084659873801
42
0.45763972142720016
10
36.142712415431163
20
-52.200485009820412
42
-1.1577522630181136
10
38.521311588216093
20
-54.579084182605342
42
0.457639721427198
10
38.410949999298481
20
-56.088621755514083
10
39.123302903057002
20
-56.800974659272597
42
0.45763972142720083
10
40.632840475965708
20
-56.690613070355042
42
-1.1577522630181254
10
43.011439648750653
20
-59.069212243139972
42
0.45763972142719855
10
42.90107805983304
20
-60.57874981604872
10
47.729704902717174
20
-65.407376658932961
0
CIRCLE
5
101
100
AcDbEntity
8
0
100
AcDbCircle
10
29.501444041027789
20
-29.683390116088752
30
-3.944304526105059e-30
40
1.6500000000000068
210
1.1330493189736814e-31
220
-8.7157639921061931e-33
230
1
0
CIRCLE
5
102
100
AcDbEntity
8
0
100
AcDbCircle
10
33.991572101562319
20
-34.173518176623389
30
-4.9303806576313238e-30
40
1.6500000000000068
210
1.1330493189736814e-31
220
-8.7157639921061931e-33
230
1
0
CIRCLE
5
103
100
AcDbEntity
8
0
100
AcDbCircle
10
38.481700162096878
20
-38.663646237158027
30
-2.9582283945787943e-30
40
1.6500000000000028
210
1.3073645988157869e-31
220
-1.0947644252537616e-45
230
1
0
CIRCLE
5
104
100
AcDbEntity
8
0
100
AcDbCircle
10
42.971828222631444
20
-43.153774297692628
30
-7.8886090522101181e-30
40
1.6500000000000028
210
1.3073645988157869e-31
220
-1.0947644252537616e-45
230
1
0
CIRCLE
5
105
100
AcDbEntity
8
0
100
AcDbCircle
10
47.461956283165989
20
-47.643902358227265
30
-7.8886090522101181e-30
40
1.6500000000000044
210
7.8441875928946914e-32
220
-4.3578819960526865e-32
230
1
0
CIRCLE
5
106
100
AcDbEntity
8
0
100
AcDbCircle
10
51.952084343700548
20
-52.134030418761874
30
-3.944304526105059e-30
40
1.6500000000000035
210
1.0894704990131548e-31
220
-1.3073645988158786e-32
230
1
0
CIRCLE
5
107
100
AcDbEntity
8
0
100
AcDbCircle
10
25.011315980493251
20
-25.193262055554161
30
-4.9303806576313238e-30
40
1.6500000000000068
210
1.1330493189736814e-31
220
-8.7157639921061931e-33
230
1
0
ENDSEC
0
SECTION
2
OBJECTS
0
DICTIONARY
5
C
100
AcDbDictionary
3
ACAD_GROUP
350
D
3
ACAD_MLINESTYLE
350
17
0
DICTIONARY
5
D
100
AcDbDictionary
0
DICTIONARY
5
1A
330
C
100
AcDbDictionary
0
DICTIONARY
5
17
100
AcDbDictionary
0
ENDSEC
0
EOF
