0
SECTION
2
HEADER
9
$INSUNITS
70
4
9
$ACADVER
1
AC1014
9
$HANDSEED
5
FFFF
0
ENDSEC
0
SECTION
2
TABLES
0
TABLE
2
VPORT
5
8
100
AcDbSymbolTable
0
ENDTAB
0
TABLE
2
LTYPE
5
5
100
AcDbSymbolTable
0
LTYPE
5
14
100
AcDbSymbolTableRecord
100
AcDbLinetypeTableRecord
2
BYBLOCK
70
0
0
LTYPE
5
15
100
AcDbSymbolTableRecord
100
AcDbLinetypeTableRecord
2
BYLAYER
70
0
0
ENDTAB
0
TABLE
2
LAYER
5
2
100
AcDbSymbolTable
70
2
0
LAYER
5
50
100
AcDbSymbolTableRecord
100
AcDbLayerTableRecord
2
0
70
0
6
CONTINUOUS
0
ENDTAB
0
TABLE
2
STYLE
5
3
100
AcDbSymbolTable
70
1
0
STYLE
5
11
100
AcDbSymbolTableRecord
100
AcDbTextStyleTableRecord
2
STANDARD
70
0
0
ENDTAB
0
TABLE
2
VIEW
5
6
100
AcDbSymbolTable
70
0
0
ENDTAB
0
TABLE
2
UCS
5
7
100
AcDbSymbolTable
70
0
0
ENDTAB
0
TABLE
2
APPID
5
9
100
AcDbSymbolTable
70
2
0
APPID
5
12
100
AcDbSymbolTableRecord
100
AcDbRegAppTableRecord
2
ACAD
70
0
0
ENDTAB
0
TABLE
2
DIMSTYLE
5
A
100
AcDbSymbolTable
70
1
0
ENDTAB
0
TABLE
2
BLOCK_RECORD
5
1
100
AcDbSymbolTable
70
1
0
BLOCK_RECORD
5
1F
100
AcDbSymbolTableRecord
100
AcDbBlockTableRecord
2
*MODEL_SPACE
0
BLOCK_RECORD
5
1B
100
AcDbSymbolTableRecord
100
AcDbBlockTableRecord
2
*PAPER_SPACE
0
ENDTAB
0
ENDSEC
0
SECTION
2
BLOCKS
0
BLOCK
5
20
100
AcDbEntity
100
AcDbBlockBegin
2
*MODEL_SPACE
0
ENDBLK
5
21
100
AcDbEntity
100
AcDbBlockEnd
0
BLOCK
5
1C
100
AcDbEntity
100
AcDbBlockBegin
2
*PAPER_SPACE
0
ENDBLK
5
1D
100
AcDbEntity
100
AcDbBlockEnd
0
ENDSEC
0
SECTION
2
ENTITIES
0
LWPOLYLINE
5
100
100
AcDbEntity
8
0
100
AcDbPolyline
90
78
70
1
43
0.0
10
-36.539742917814706
20
-20.559129662998778
10
-36.221544866280773
20
-20.877327714532726
42
0.99999999999999989
10
-33.888092488365132
20
-18.543875336617091
10
-34.206290539899086
20
-18.225677285083165
42
-0.41421356237309809
10
-34.206290539899086
20
-16.528621010235454
10
-32.229927086482711
20
-14.552257556819052
42
-0.41421356237309592
10
-25.045722189627362
20
-14.552257556819054
10
-14.552257556819004
20
-25.045722189627426
42
-0.4142135623730942
10
-14.552257556818995
20
-32.229927086482732
10
-16.528621010235423
20
-34.206290539899136
42
-0.41421356237309043
10
-18.225677285083112
20
-34.20629053989915
10
-18.54387533661707
20
-33.888092488365217
42
0.9999999925494194
10
-20.877327714532679
20
-36.221544866280809
10
-20.559129662998732
20
-36.539742917814749
42
-0.41421356237309509
10
-20.559129662998743
20
-38.236799192662467
10
-21.018749070769999
20
-38.696418600433724
42
-0.41421356237309509
10
-22.715805345617703
20
-38.696418600433724
10
-23.03400339715165
20
-38.378220548899776
42
0.99999999999999989
10
-25.367455775067267
20
-40.711672926815396
10
-25.049257723533316
20
-41.029870978349329
42
-0.41421356237309809
10
-25.049257723533298
20
-42.726927253197047
10
-25.508877131304565
20
-43.186546660968297
42
-0.41421356237308815
10
-27.205933406152262
20
-43.186546660968297
10
-27.524131457686217
20
-42.868348609434328
42
0.99999999999999989
10
-29.857583835601822
20
-45.201800987349955
10
-29.539385784067882
20
-45.51999903888391
42
-0.41421356237309198
10
-29.539385784067875
20
-47.21705531373162
10
-29.999005191839121
20
-47.67667472150287
42
-0.41421356237310658
10
-31.696061466686874
20
-47.67667472150287
10
-32.014259518220804
20
-47.35847666996893
42
0.99999999999999989
10
-34.347711896136431
20
-49.691929047884528
10
-34.029513844602441
20
-50.010127099418483
42
-0.41421356237308971
10
-34.029513844602477
20
-51.707183374266194
10
-34.489133252373733
20
-52.16680278203745
42
-0.41421356237308893
10
-36.186189527221444
20
-52.166802782037436
10
-36.504387578755384
20
-51.848604730503496
42
0.99999999999999989
10
-38.837839956671004
20
-54.182057108419109
10
-38.519641905137043
20
-54.500255159953085
42
-0.41421356237308049
10
-38.519641905137064
20
-56.197311434800774
10
-38.979261312908321
20
-56.656930842572031
42
-0.41421356237308893
10
-40.676317587756031
20
-56.656930842572024
10
-40.994515639289972
20
-56.338732791038098
42
0.99999999999999989
10
-43.327968017205578
20
-58.672185168953689
10
-43.009769965671644
20
-58.990383220487615
42
-0.41421356237308588
10
-43.009769965671609
20
-60.687439495335326
10
-45.866481361665279
20
-63.544150891329011
10
-63.544150891328968
20
-45.866481361665272
10
-60.687439495335326
20
-43.009769965671644
42
-0.41421356237309509
10
-58.990383220487601
20
-43.009769965671644
10
-58.672185168953661
20
-43.327968017205563
42
0.99999999999999989
10
-56.338732791038055
20
-40.994515639289979
10
-56.656930842571995
20
-40.676317587756053
42
-0.41421356237309731
10
-56.656930842571981
20
-38.979261312908321
10
-56.197311434800746
20
-38.519641905137064
42
-0.41421356237310036
10
-54.500255159953028
20
-38.519641905137071
10
-54.182057108419073
20
-38.837839956671054
42
0.99999999999999989
10
-51.848604730503503
20
-36.504387578755413
10
-52.166802782037408
20
-36.186189527221472
42
-0.41421356237309809
10
-52.166802782037401
20
-34.48913325237374
10
-51.707183374266165
20
-34.029513844602505
42
-0.41421356237309509
10
-50.010127099418433
20
-34.029513844602491
10
-49.691929047884507
20
-34.347711896136452
42
0.99999999999999989
10
-47.358476669968901
20
-32.014259518220847
10
-47.676674721502827
20
-31.696061466686881
42
-0.41421356237308588
10
-47.676674721502849
20
-29.999005191839181
10
-47.217055313731571
20
-29.539385784067914
42
-0.41421356237309115
10
-45.519999038883867
20
-29.539385784067932
10
-45.201800987349905
20
-29.857583835601869
42
0.99999999999999989
10
-42.8683486094343
20
-27.524131457686252
10
-43.186546660968233
20
-27.205933406152315
42
-0.41421356237310353
10
-43.186546660968233
20
-25.508877131304594
10
-42.72692725319699
20
-25.049257723533355
42
-0.41421356237309115
10
-41.02987097834928
20
-25.049257723533337
10
-40.711672926815339
20
-25.367455775067278
42
0.99999999999999989
10
-38.378220548899733
20
-23.034003397151693
10
-38.696418600433674
20
-22.715805345617749
42
-0.41421356237309809
10
-38.696418600433667
20
-21.018749070770035
10
-38.236799192662431
20
-20.559129662998757
42
-0.41421356237309659
0
LWPOLYLINE
5
101
100
AcDbEntity
8
0
100
AcDbPolyline
90
78
70
1
43
0.0
10
36.539742917814969
20
20.559129662999084
10
36.221544866281022
20
20.877327714533031
42
0.99999999999999989
10
33.888092488365409
20
18.543875336617404
10
34.206290539899356
20
18.225677285083464
42
-0.41421356237309465
10
34.206290539899356
20
16.528621010235749
10
32.229927086482967
20
14.552257556819356
42
-0.41421356237309465
10
25.045722189627636
20
14.552257556819349
10
14.552257556819264
20
25.045722189627718
42
-0.41421356237309548
10
14.552257556819248
20
32.229927086483038
10
16.528621010235675
20
34.206290539899449
42
-0.41421356237309465
10
18.225677285083385
20
34.206290539899449
10
18.543875336617333
20
33.888092488365508
42
0.99999999999999989
10
20.877327714532949
20
36.221544866281114
10
20.559129662999002
20
36.539742917815047
42
-0.41421356237309809
10
20.559129662999005
20
38.236799192662772
10
21.018749070770259
20
38.696418600434029
42
-0.41421356237308893
10
22.715805345617955
20
38.696418600434029
10
23.03400339715191
20
38.378220548900103
42
0.99999999999999989
10
25.36745577506753
20
40.711672926815694
10
25.049257723533582
20
41.029870978349621
42
-0.41421356237309659
10
25.049257723533582
20
42.726927253197353
10
25.508877131304821
20
43.186546660968602
42
-0.41421356237309509
10
27.205933406152532
20
43.18654666096861
10
27.524131457686494
20
42.868348609434641
42
0.99999999999999989
10
29.857583835602092
20
45.201800987350261
10
29.539385784068152
20
45.519999038884215
42
-0.41421356237309198
10
29.539385784068145
20
47.217055313731926
10
29.999005191839402
20
47.676674721503183
42
-0.41421356237310036
10
31.696061466687141
20
47.676674721503176
10
32.014259518221067
20
47.358476669969235
42
0.99999999999999989
10
34.347711896136694
20
49.691929047884841
10
34.029513844602718
20
50.010127099418781
42
-0.41421356237308971
10
34.029513844602739
20
51.707183374266492
10
34.489133252373996
20
52.166802782037749
42
-0.41421356237308654
10
36.186189527221693
20
52.166802782037749
10
36.50438757875564
20
51.848604730503808
42
0.99999999999999989
10
38.83783995667126
20
54.182057108419414
10
38.519641905137306
20
54.500255159953369
42
-0.41421356237309115
10
38.519641905137327
20
56.197311434801065
10
38.979261312908584
20
56.656930842572322
42
-0.4142135623730927
10
40.676317587756287
20
56.656930842572322
10
40.994515639290228
20
56.338732791038396
42
0.99999999999999989
10
43.327968017205841
20
58.67218516895398
10
43.0097699656719
20
58.990383220487928
42
-0.41421356237309198
10
43.009769965671872
20
60.687439495335624
10
45.866481361665535
20
63.544150891329316
10
63.544150891329224
20
45.866481361665585
10
60.687439495335568
20
43.00976996567195
42
-0.41421356237309509
10
58.990383220487871
20
43.00976996567195
10
58.672185168953924
20
43.327968017205876
42
0.99999999999999989
10
56.338732791038318
20
40.994515639290292
10
56.656930842572244
20
40.676317587756337
42
-0.4142135623731073
10
56.656930842572244
20
38.979261312908619
10
56.197311434801009
20
38.51964190513737
42
-0.41421356237309731
10
54.500255159953291
20
38.519641905137384
10
54.182057108419343
20
38.837839956671345
42
1.0000000074505804
10
51.848604730503766
20
36.504387578755718
10
52.166802782037671
20
36.186189527221757
42
-0.41421356237309043
10
52.166802782037678
20
34.489133252374053
10
51.707183374266421
20
34.02951384460281
42
-0.41421356237310114
10
50.010127099418682
20
34.02951384460281
10
49.691929047884756
20
34.347711896136751
42
0.99999999999999989
10
47.358476669969164
20
32.014259518221152
10
47.676674721503105
20
31.696061466687183
42
-0.41421356237309115
10
47.676674721503112
20
29.999005191839476
10
47.217055313731819
20
29.539385784068234
42
-0.41421356237308971
10
45.519999038884123
20
29.539385784068234
10
45.201800987350182
20
29.857583835602174
42
0.99999999999999989
10
42.868348609434577
20
27.524131457686568
10
43.186546660968517
20
27.205933406152631
42
-0.4142135623730927
10
43.186546660968517
20
25.50887713130491
10
42.726927253197253
20
25.049257723533643
42
-0.41421356237308971
10
41.029870978349557
20
25.049257723533643
10
40.711672926815609
20
25.367455775067576
42
0.99999999999999989
10
38.378220548899982
20
23.034003397151992
10
38.696418600433951
20
22.715805345618058
42
-0.41421356237309659
10
38.696418600433937
20
21.018749070770333
10
38.23679919266268
20
20.559129662999073
42
-0.4142135623730942
0
LWPOLYLINE
5
102
100
AcDbEntity
8
0
100
AcDbPolyline
90
40
70
1
43
0.0
10
-47.623641491569337
20
-66.715524607794208
10
-43.381000804450053
20
-62.472883920674917
10
-29.16815451469455
20
-76.685730210430521
10
-29.168154514694553
20
-92.510641345776577
42
0.052515759463132354
10
-9.2551266562371239
20
-96.557457664216741
10
-9.2551266562442507
20
-97.842992627634118
10
9.2551266562442329
20
-97.842992627634118
10
9.2551266562406926
20
-96.557457664253718
42
0.052515759463132083
10
29.168154514694564
20
-92.510641345776548
10
29.168154514694532
20
-76.685730210430521
10
43.381000762821415
20
-62.47288396230384
10
47.623641449940699
20
-66.715524649423116
10
66.715524652538079
20
-47.623641446825786
10
62.472883965418795
20
-43.381000759706502
10
76.685730210430563
20
-29.168154514694535
10
92.510641345776577
20
-29.16815451469455
42
0.15391301674440025
10
92.510641345776577
20
29.168154514694535
10
76.685730210430577
20
29.168154514694553
10
62.472883951767095
20
43.381000773357826
10
66.715524638886379
20
47.623641460477117
10
47.623641502105997
20
66.71552459725747
10
43.38100081498672
20
62.472883910138187
10
30.853884725125098
20
75
10
12.000000000000085
20
75.000000000000128
10
12.000000000000114
20
35.800000000000132
10
5.000000074505806
20
13.000000193715096
10
-5.000000074505806
20
13.000000193715096
10
-12.099999999999891
20
35.800000000000111
10
-12.099999999999852
20
75.000000000000114
10
-30.853884725125098
20
75
10
-43.381000807564725
20
62.472883917560551
10
-47.623641494684009
20
66.715524604679842
10
-66.715524652537837
20
47.623641446826035
10
-62.472883965418546
20
43.381000759706758
10
-76.685730210430577
20
29.168154514694553
10
-92.510641345776577
20
29.168154514694553
42
0.15391301674440014
10
-92.510641345776605
20
-29.168154514694514
10
-76.685730210430577
20
-29.168154514694535
10
-62.47288391756026
20
-43.381000807564696
10
-66.715524604679544
20
-47.62364149468398
0
CIRCLE
5
103
100
AcDbEntity
8
0
100
AcDbCircle
10
87.940000000000026
20
4.8399999999999785
30
0
40
1.0922000000000054
210
-0
220
0
230
1
0
CIRCLE
5
104
100
AcDbEntity
8
0
100
AcDbCircle
10
-62.539999999999992
20
-4.8399999999999883
30
0
40
1.0922000000000054
210
0
220
-0
230
1
0
CIRCLE
5
105
100
AcDbEntity
8
0
100
AcDbCircle
10
62.539999999999992
20
-25.160000000000014
30
0
40
1.0922000000000054
210
-0
220
0
230
1
0
CIRCLE
5
106
100
AcDbEntity
8
0
100
AcDbCircle
10
-87.940000000000026
20
25.160000000000014
30
0
40
1.0922000000000054
210
0
220
-0
230
1
0
CIRCLE
5
107
100
AcDbEntity
8
0
100
AcDbCircle
10
-62.539999999999992
20
25.160000000000014
30
0
40
1.0922000000000054
210
0
220
-0
230
1
0
CIRCLE
5
108
100
AcDbEntity
8
0
100
AcDbCircle
10
87.940000000000026
20
-25.160000000000014
30
0
40
1.0922000000000054
210
-0
220
0
230
1
0
CIRCLE
5
109
100
AcDbEntity
8
0
100
AcDbCircle
10
-87.940000000000026
20
-4.8399999999999839
30
0
40
1.0922000000000054
210
0
220
-0
230
1
0
CIRCLE
5
110
100
AcDbEntity
8
0
100
AcDbCircle
10
62.539999999999992
20
4.8399999999999856
30
0
40
1.0922000000000054
210
-0
220
0
230
1
0
CIRCLE
5
111
100
AcDbEntity
8
0
100
AcDbCircle
10
35.054819029853661
20
19.710602081715763
30
0
40
1.4999999999999991
210
0
220
-0
230
1
0
CIRCLE
5
112
100
AcDbEntity
8
0
100
AcDbCircle
10
57.50545894830023
20
42.161242000162311
30
0
40
1.5000000000000002
210
0
220
-0
230
1
0
CIRCLE
5
113
100
AcDbEntity
8
0
100
AcDbCircle
10
19.710602140710673
20
35.054818970858776
30
0
40
1.5000000000000013
210
0
220
-0
230
1
0
CIRCLE
5
114
100
AcDbEntity
8
0
100
AcDbCircle
10
42.161242059157225
20
57.505458889305316
30
0
40
1.4999999999999991
210
0
220
-0
230
1
0
CIRCLE
5
115
100
AcDbEntity
8
0
100
AcDbCircle
10
42.161242000162304
20
-57.505458948300223
30
0
40
1.5000000000000036
210
0
220
-0
230
1
0
CIRCLE
5
116
100
AcDbEntity
8
0
100
AcDbCircle
10
-57.50545894830023
20
-42.161242000162318
30
0
40
1.4999999999999991
210
0
220
-0
230
1
0
CIRCLE
5
117
100
AcDbEntity
8
0
100
AcDbCircle
10
-35.054818970858783
20
19.710602140710684
30
0
40
1.5000000000000036
210
0
220
-0
230
1
0
CIRCLE
5
118
100
AcDbEntity
8
0
100
AcDbCircle
10
-19.710602081715756
20
35.054819029853675
30
0
40
1.4999999999999991
210
0
220
-0
230
1
0
CIRCLE
5
119
100
AcDbEntity
8
0
100
AcDbCircle
10
-35.054819029853668
20
-19.710602081715756
30
0
40
1.4999999999999991
210
0
220
-0
230
1
0
CIRCLE
5
120
100
AcDbEntity
8
0
100
AcDbCircle
10
19.710602081715756
20
-35.054819029853661
30
0
40
1.4999999999999991
210
0
220
-0
230
1
0
CIRCLE
5
121
100
AcDbEntity
8
0
100
AcDbCircle
10
57.505458889305302
20
-42.161242059157225
30
0
40
1.5000000000000036
210
0
220
-0
230
1
0
CIRCLE
5
122
100
AcDbEntity
8
0
100
AcDbCircle
10
-42.161242059157232
20
-57.505458889305316
30
0
40
1.4999999999999991
210
0
220
-0
230
1
0
CIRCLE
5
123
100
AcDbEntity
8
0
100
AcDbCircle
10
-57.505458889305309
20
42.161242059157232
30
0
40
1.5000000000000036
210
0
220
-0
230
1
0
CIRCLE
5
124
100
AcDbEntity
8
0
100
AcDbCircle
10
-42.161242000162311
20
57.505458948300252
30
0
40
1.5000000000000036
210
0
220
-0
230
1
0
CIRCLE
5
125
100
AcDbEntity
8
0
100
AcDbCircle
10
-19.71060214071067
20
-35.054818970858776
30
0
40
1.5000000000000013
210
0
220
-0
230
1
0
CIRCLE
5
126
100
AcDbEntity
8
0
100
AcDbCircle
10
35.054818970858783
20
-19.71060214071067
30
0
40
1.4999999999999991
210
0
220
-0
230
1
0
LWPOLYLINE
5
127
100
AcDbEntity
8
0
100
AcDbPolyline
90
78
70
1
43
0.0
10
-20.559129662998863
20
36.539742917815033
10
-20.877327714532797
20
36.221544866281093
42
0.99999999999999989
10
-18.543875336617187
20
33.888092488365466
10
-18.225677285083243
20
34.20629053989942
42
-0.41421356237309809
10
-16.528621010235529
20
34.206290539899406
10
-14.552257556819129
20
32.229927086483023
42
-0.41421356237309587
10
-14.552257556819129
20
25.045722189627682
10
-25.045722189627504
20
14.552257556819335
42
-0.41421356237309587
10
-32.229927086482832
20
14.55225755681931
10
-34.206290539899236
20
16.528621010235739
42
-0.41421356237309809
10
-34.206290539899229
20
18.225677285083449
10
-33.888092488365309
20
18.54387533661739
42
0.99999999999999989
10
-36.221544866280894
20
20.877327714533003
10
-36.53974291781482
20
20.559129662999066
42
-0.41421356237310114
10
-38.236799192662559
20
20.559129662999073
10
-38.696418600433809
20
21.018749070770323
42
-0.41421356237308588
10
-38.696418600433816
20
22.715805345618012
10
-38.378220548899876
20
23.03400339715197
42
0.99999999999999989
10
-40.711672926815496
20
25.36745577506759
10
-41.029870978349408
20
25.049257723533621
42
-0.41421356237309659
10
-42.726927253197132
20
25.049257723533643
10
-43.186546660968389
20
25.508877131304885
42
-0.4142135623730942
10
-43.186546660968389
20
27.205933406152599
10
-42.868348609434406
20
27.524131457686561
42
1.0000000105367119
10
-45.20180098735004
20
29.857583835602156
10
-45.519999038883995
20
29.53938578406823
42
-0.41421356237309731
10
-47.217055313731692
20
29.539385784068216
10
-47.676674721502941
20
29.999005191839466
42
-0.41421356237310658
10
-47.676674721502948
20
31.696061466687201
10
-47.358476669969008
20
32.014259518221138
42
0.9999999925494194
10
-49.691929047884614
20
34.347711896136765
10
-50.010127099418547
20
34.029513844602803
42
-0.41421356237309509
10
-51.707183374266265
20
34.02951384460281
10
-52.166802782037522
20
34.489133252374053
42
-0.41421356237309731
10
-52.166802782037507
20
36.186189527221778
10
-51.848604730503574
20
36.504387578755725
42
1.0000000074505804
10
-54.182057108419187
20
38.837839956671338
10
-54.500255159953156
20
38.519641905137377
42
-0.41421356237308654
10
-56.197311434800845
20
38.519641905137412
10
-56.656930842572102
20
38.979261312908648
42
-0.41421356237309509
10
-56.656930842572102
20
40.676317587756344
10
-56.338732791038176
20
40.994515639290299
42
0.99999999999999989
10
-58.672185168953774
20
43.327968017205912
10
-58.990383220487708
20
43.009769965671978
42
-0.41421356237308277
10
-60.687439495335404
20
43.009769965671936
10
-63.544150891329075
20
45.866481361665606
10
-45.86648136166535
20
63.544150891329288
10
-43.009769965671723
20
60.687439495335639
42
-0.41421356237308588
10
-43.009769965671708
20
58.990383220487956
10
-43.327968017205627
20
58.672185168954002
42
1.0000000074505804
10
-40.994515639290071
20
56.338732791038375
10
-40.676317587756117
20
56.656930842572315
42
-0.4142135623730942
10
-38.979261312908392
20
56.656930842572315
10
-38.519641905137142
20
56.197311434801087
42
-0.41421356237310425
10
-38.519641905137156
20
54.500255159953355
10
-38.837839956671118
20
54.1820571084194
42
1.0000000074505804
10
-36.504387578755491
20
51.848604730503816
10
-36.186189527221529
20
52.166802782037735
42
-0.41421356237310036
10
-34.489133252373819
20
52.166802782037735
10
-34.029513844602576
20
51.707183374266492
42
-0.41421356237310963
10
-34.029513844602576
20
50.010127099418746
10
-34.347711896136531
20
49.691929047884827
42
0.99999999999999989
10
-32.014259518220925
20
47.358476669969221
10
-31.696061466686956
20
47.676674721503154
42
-0.41421356237308893
10
-29.999005191839245
20
47.676674721503183
10
-29.539385784068003
20
47.217055313731905
42
-0.41421356237309276
10
-29.53938578406801
20
45.519999038884194
10
-29.85758383560195
20
45.201800987350246
42
1.0000000074505804
10
-27.524131457686334
20
42.868348609434634
10
-27.205933406152401
20
43.186546660968574
42
-0.41421356237310114
10
-25.508877131304679
20
43.186546660968574
10
-25.049257723533429
20
42.726927253197303
42
-0.41421356237308654
10
-25.049257723533437
20
41.029870978349621
10
-25.367455775067349
20
40.711672926815666
42
1.0000000074505804
10
-23.034003397151764
20
38.378220548900046
10
-22.715805345617834
20
38.696418600434008
42
-0.41421356237309964
10
-21.018749070770117
20
38.696418600433994
10
-20.559129662998853
20
38.236799192662744
42
-0.41421356237309509
0
LWPOLYLINE
5
128
100
AcDbEntity
8
0
100
AcDbPolyline
90
78
70
1
43
0.0
10
20.559129662999155
20
-36.539742917814721
10
20.877327714533095
20
-36.221544866280766
42
0.99999999999999989
10
18.543875336617472
20
-33.888092488365153
10
18.225677285083531
20
-34.206290539899115
42
-0.41421356237310036
10
16.52862101023581
20
-34.206290539899108
10
14.552257556819422
20
-32.229927086482718
42
-0.41421356237309531
10
14.552257556819413
20
-25.045722189627387
10
25.045722189627782
20
-14.552257556819006
42
-0.4142135623730932
10
32.229927086483102
20
-14.552257556818994
10
34.206290539899499
20
-16.528621010235437
42
-0.41421356237309387
10
34.206290539899513
20
-18.22567728508314
10
33.888092488365572
20
-18.543875336617084
42
0.9999999925494194
10
36.221544866281171
20
-20.877327714532704
10
36.539742917815104
20
-20.559129662998753
42
-0.41421356237310425
10
38.236799192662836
20
-20.559129662998753
10
38.696418600434086
20
-21.01874907077001
42
-0.41421356237309043
10
38.696418600434086
20
-22.715805345617706
10
38.37822054890016
20
-23.034003397151661
42
0.99999999999999989
10
40.711672926815758
20
-25.367455775067285
10
41.029870978349692
20
-25.049257723533334
42
-0.41421356237309659
10
42.726927253197424
20
-25.049257723533334
10
43.186546660968659
20
-25.508877131304573
42
-0.41421356237310114
10
43.186546660968681
20
-27.205933406152294
10
42.868348609434705
20
-27.524131457686245
42
0.99999999999999989
10
45.201800987350325
20
-29.857583835601833
10
45.519999038884286
20
-29.53938578406791
42
-0.41421356237309198
10
47.217055313731997
20
-29.5393857840679
10
47.676674721503247
20
-29.999005191839146
42
-0.4142135623731073
10
47.676674721503225
20
-31.696061466686885
10
47.358476669969285
20
-32.014259518220811
42
0.99999999999999989
10
49.691929047884912
20
-34.347711896136431
10
50.010127099418838
20
-34.029513844602455
42
-0.41421356237309731
10
51.707183374266556
20
-34.029513844602491
10
52.16680278203782
20
-34.489133252373733
42
-0.41421356237309509
10
52.166802782037806
20
-36.186189527221437
10
51.848604730503865
20
-36.504387578755399
42
0.99999999999999989
10
54.182057108419485
20
-38.837839956671026
10
54.500255159953433
20
-38.519641905137043
42
-0.41421356237309115
10
56.197311434801151
20
-38.519641905137071
10
56.656930842572393
20
-38.979261312908321
42
-0.41421356237309198
10
56.656930842572393
20
-40.676317587756039
10
56.33873279103846
20
-40.994515639289979
42
0.9999999925494194
10
58.672185168954059
20
-43.327968017205592
10
58.990383220487999
20
-43.009769965671644
42
-0.41421356237309198
10
60.687439495335688
20
-43.009769965671623
10
63.54415089132938
20
-45.866481361665272
10
45.866481361665656
20
-63.544150891328961
10
43.009769965672021
20
-60.687439495335333
42
-0.41421356237308588
10
43.009769965672021
20
-58.990383220487608
10
43.327968017205947
20
-58.672185168953668
42
1.0000000074505804
10
40.994515639290356
20
-56.338732791038069
10
40.676317587756436
20
-56.656930842571995
42
-0.41421356237311346
10
38.979261312908676
20
-56.656930842571995
10
38.519641905137433
20
-56.197311434800753
42
-0.41421356237310036
10
38.519641905137455
20
-54.500255159953035
10
38.837839956671417
20
-54.182057108419087
42
0.99999999999999989
10
36.504387578755804
20
-51.848604730503503
10
36.186189527221828
20
-52.166802782037422
42
-0.41421356237309509
10
34.489133252374131
20
-52.166802782037429
10
34.029513844602882
20
-51.707183374266172
42
-0.4142135623731073
10
34.029513844602882
20
-50.010127099418433
10
34.347711896136829
20
-49.6919290478845
42
1.0000000074505804
10
32.014259518221216
20
-47.358476669968894
10
31.696061466687262
20
-47.676674721502849
42
-0.41421356237310197
10
29.99900519183953
20
-47.676674721502856
10
29.539385784068287
20
-47.217055313731571
42
-0.41421356237309043
10
29.539385784068305
20
-45.519999038883874
10
29.857583835602242
20
-45.201800987349934
42
0.99999999999999989
10
27.524131457686629
20
-42.868348609434321
10
27.205933406152703
20
-43.186546660968254
42
-0.41421356237310963
10
25.508877131304963
20
-43.186546660968254
10
25.04925772353371
20
-42.726927253196997
42
-0.41421356237308971
10
25.049257723533714
20
-41.029870978349301
10
25.367455775067643
20
-40.711672926815353
42
0.9999999925494194
10
23.034003397152052
20
-38.378220548899733
10
22.715805345618115
20
-38.696418600433695
42
-0.41421356237309198
10
21.018749070770397
20
-38.696418600433674
10
20.559129662999148
20
-38.236799192662417
42
-0.4142135623730942
0
ENDSEC
0
SECTION
2
OBJECTS
0
DICTIONARY
5
C
100
AcDbDictionary
3
ACAD_GROUP
350
D
3
ACAD_MLINESTYLE
350
17
0
DICTIONARY
5
D
100
AcDbDictionary
0
DICTIONARY
5
1A
330
C
100
AcDbDictionary
0
DICTIONARY
5
17
100
AcDbDictionary
0
ENDSEC
0
EOF
