%MOIN*%
%OFA0B0*%
%FSLAX46Y46*%
%IPPOS*%
%LPD*%
%AMHorizOval0*
20,1,$1,$2,$3,$4,$5,45*
1,1,$1,$2,$3*
1,1,$1,$2,$3*%
%AMRotRect0*
21,1,$1,$2,0,0,$3*%
%AMCOMP100*
4,1,3,
0.043307086614173228,-0.043307086614173235,
0.043307086614173235,0.043307086614173228,
-0.043307086614173228,0.043307086614173235,
-0.043307086614173235,-0.043307086614173228,
0*%
%AMCOMP110*
4,1,3,
0.033464566929133861,0.033464566929133847,
-0.033464566929133847,0.033464566929133861,
-0.033464566929133861,-0.033464566929133847,
0.033464566929133847,-0.033464566929133861,
0*%
%AMCOMP120*
4,1,2,
0,0,
0,0,
0,0,
0*
4,1,19,
-0.02366302220506163,0.023663022205061633,
-0.015192595463724989,0.029817147462996563,
-0.0052350116253620533,0.033052562578971149,
0.0052350116253620576,0.033052562578971149,
0.015192595463724992,0.029817147462996556,
0.023663022205061633,0.02366302220506163,
0.029817147462996567,0.015192595463724992,
0.033052562578971142,0.0052350116253620559,
0.033052562578971149,-0.0052350116253620533,
0.029817147462996563,-0.015192595463724992,
0.023663022205061633,-0.02366302220506163,
0.015192595463724978,-0.02981714746299657,
0.0052350116253620576,-0.033052562578971149,
-0.0052350116253620533,-0.033052562578971149,
-0.015192595463724989,-0.029817147462996563,
-0.02366302220506163,-0.023663022205061633,
-0.029817147462996563,-0.015192595463724997,
-0.033052562578971142,-0.005235011625362062,
-0.033052562578971149,0.0052350116253620516,
-0.029817147462996563,0.015192595463724989,
0*
4,1,19,
-0.02366302220506163,0.023663022205061633,
-0.015192595463724989,0.029817147462996563,
-0.0052350116253620533,0.033052562578971149,
0.0052350116253620576,0.033052562578971149,
0.015192595463724992,0.029817147462996556,
0.023663022205061633,0.02366302220506163,
0.029817147462996567,0.015192595463724992,
0.033052562578971142,0.0052350116253620559,
0.033052562578971149,-0.0052350116253620533,
0.029817147462996563,-0.015192595463724992,
0.023663022205061633,-0.02366302220506163,
0.015192595463724978,-0.02981714746299657,
0.0052350116253620576,-0.033052562578971149,
-0.0052350116253620533,-0.033052562578971149,
-0.015192595463724989,-0.029817147462996563,
-0.02366302220506163,-0.023663022205061633,
-0.029817147462996563,-0.015192595463724997,
-0.033052562578971142,-0.005235011625362062,
-0.033052562578971149,0.0052350116253620516,
-0.029817147462996563,0.015192595463724989,
0*%
%AMHorizOval1*
20,1,$1,$2,$3,$4,$5,45*
1,1,$1,$2,$3*
1,1,$1,$2,$3*%
%AMRotRect1*
21,1,$1,$2,0,0,$3*%
%AMCOMP280*
4,1,3,
0.033464566929133861,0.033464566929133847,
-0.033464566929133847,0.033464566929133861,
-0.033464566929133861,-0.033464566929133847,
0.033464566929133847,-0.033464566929133861,
0*%
%AMCOMP290*
4,1,2,
0,0,
0,0,
0,0,
0*
4,1,19,
-0.02366302220506163,0.023663022205061633,
-0.015192595463724989,0.029817147462996563,
-0.0052350116253620533,0.033052562578971149,
0.0052350116253620576,0.033052562578971149,
0.015192595463724992,0.029817147462996556,
0.023663022205061633,0.02366302220506163,
0.029817147462996567,0.015192595463724992,
0.033052562578971142,0.0052350116253620559,
0.033052562578971149,-0.0052350116253620533,
0.029817147462996563,-0.015192595463724992,
0.023663022205061633,-0.02366302220506163,
0.015192595463724978,-0.02981714746299657,
0.0052350116253620576,-0.033052562578971149,
-0.0052350116253620533,-0.033052562578971149,
-0.015192595463724989,-0.029817147462996563,
-0.02366302220506163,-0.023663022205061633,
-0.029817147462996563,-0.015192595463724997,
-0.033052562578971142,-0.005235011625362062,
-0.033052562578971149,0.0052350116253620516,
-0.029817147462996563,0.015192595463724989,
0*
4,1,19,
-0.02366302220506163,0.023663022205061633,
-0.015192595463724989,0.029817147462996563,
-0.0052350116253620533,0.033052562578971149,
0.0052350116253620576,0.033052562578971149,
0.015192595463724992,0.029817147462996556,
0.023663022205061633,0.02366302220506163,
0.029817147462996567,0.015192595463724992,
0.033052562578971142,0.0052350116253620559,
0.033052562578971149,-0.0052350116253620533,
0.029817147462996563,-0.015192595463724992,
0.023663022205061633,-0.02366302220506163,
0.015192595463724978,-0.02981714746299657,
0.0052350116253620576,-0.033052562578971149,
-0.0052350116253620533,-0.033052562578971149,
-0.015192595463724989,-0.029817147462996563,
-0.02366302220506163,-0.023663022205061633,
-0.029817147462996563,-0.015192595463724997,
-0.033052562578971142,-0.005235011625362062,
-0.033052562578971149,0.0052350116253620516,
-0.029817147462996563,0.015192595463724989,
0*%
%AMCOMP300*
4,1,3,
0.043307086614173228,-0.043307086614173235,
0.043307086614173235,0.043307086614173228,
-0.043307086614173228,0.043307086614173235,
-0.043307086614173235,-0.043307086614173228,
0*%
%ADD10R,0.082677165354330714X0.082677165354330714*%
%ADD11C,0.082677165354330714*%
%ADD12R,0.066929133858267723X0.066929133858267723*%
%ADD13C,0.066929133858267723*%
%ADD14R,0.062992125984251982X0.062992125984251982*%
%ADD15O,0.062992125984251982X0.062992125984251982*%
%ADD16O,0.066929133858267723X0.066929133858267723*%
%ADD17C,0.064960629921259838*%
%ADD18R,0.064960629921259838X0.064960629921259838*%
%ADD19C,0.094488188976377951*%
%ADD20C,0.076771653543307089*%
%AMCOMP43*
4,1,3,
0.043307086614173228,-0.043307086614173235,
0.043307086614173235,0.043307086614173228,
-0.043307086614173228,0.043307086614173235,
-0.043307086614173235,-0.043307086614173228,
0*%
%ADD31COMP43,2.2X2.2X45*%
%ADD32C,0.086614173228346469*%
%ADD33C,0.060000000000000005*%
%AMCOMP44*
4,1,3,
0.033464566929133861,0.033464566929133847,
-0.033464566929133847,0.033464566929133861,
-0.033464566929133861,-0.033464566929133847,
0.033464566929133847,-0.033464566929133861,
0*%
%ADD34COMP44,1.7X1.7X135*%
%AMCOMP45*
4,1,1,
0,0,
0,0,
0*
4,1,19,
-0.02366302220506163,0.023663022205061633,
-0.015192595463724989,0.029817147462996563,
-0.0052350116253620533,0.033052562578971149,
0.0052350116253620576,0.033052562578971149,
0.015192595463724992,0.029817147462996556,
0.023663022205061633,0.02366302220506163,
0.029817147462996567,0.015192595463724992,
0.033052562578971142,0.0052350116253620559,
0.033052562578971149,-0.0052350116253620533,
0.029817147462996563,-0.015192595463724992,
0.023663022205061633,-0.02366302220506163,
0.015192595463724978,-0.02981714746299657,
0.0052350116253620576,-0.033052562578971149,
-0.0052350116253620533,-0.033052562578971149,
-0.015192595463724989,-0.029817147462996563,
-0.02366302220506163,-0.023663022205061633,
-0.029817147462996563,-0.015192595463724997,
-0.033052562578971142,-0.005235011625362062,
-0.033052562578971149,0.0052350116253620516,
-0.029817147462996563,0.015192595463724989,
0*
4,1,19,
-0.02366302220506163,0.023663022205061633,
-0.015192595463724989,0.029817147462996563,
-0.0052350116253620533,0.033052562578971149,
0.0052350116253620576,0.033052562578971149,
0.015192595463724992,0.029817147462996556,
0.023663022205061633,0.02366302220506163,
0.029817147462996567,0.015192595463724992,
0.033052562578971142,0.0052350116253620559,
0.033052562578971149,-0.0052350116253620533,
0.029817147462996563,-0.015192595463724992,
0.023663022205061633,-0.02366302220506163,
0.015192595463724978,-0.02981714746299657,
0.0052350116253620576,-0.033052562578971149,
-0.0052350116253620533,-0.033052562578971149,
-0.015192595463724989,-0.029817147462996563,
-0.02366302220506163,-0.023663022205061633,
-0.029817147462996563,-0.015192595463724997,
-0.033052562578971142,-0.005235011625362062,
-0.033052562578971149,0.0052350116253620516,
-0.029817147462996563,0.015192595463724989,
0*%
%ADD35COMP45,1.7X0X0X0X0X0*%
%AMCOMP46*
4,1,3,
0.033464566929133861,0.033464566929133847,
-0.033464566929133847,0.033464566929133861,
-0.033464566929133861,-0.033464566929133847,
0.033464566929133847,-0.033464566929133861,
0*%
%ADD36COMP46,1.7X1.7X135*%
%AMCOMP47*
4,1,1,
0,0,
0,0,
0*
4,1,19,
-0.02366302220506163,0.023663022205061633,
-0.015192595463724989,0.029817147462996563,
-0.0052350116253620533,0.033052562578971149,
0.0052350116253620576,0.033052562578971149,
0.015192595463724992,0.029817147462996556,
0.023663022205061633,0.02366302220506163,
0.029817147462996567,0.015192595463724992,
0.033052562578971142,0.0052350116253620559,
0.033052562578971149,-0.0052350116253620533,
0.029817147462996563,-0.015192595463724992,
0.023663022205061633,-0.02366302220506163,
0.015192595463724978,-0.02981714746299657,
0.0052350116253620576,-0.033052562578971149,
-0.0052350116253620533,-0.033052562578971149,
-0.015192595463724989,-0.029817147462996563,
-0.02366302220506163,-0.023663022205061633,
-0.029817147462996563,-0.015192595463724997,
-0.033052562578971142,-0.005235011625362062,
-0.033052562578971149,0.0052350116253620516,
-0.029817147462996563,0.015192595463724989,
0*
4,1,19,
-0.02366302220506163,0.023663022205061633,
-0.015192595463724989,0.029817147462996563,
-0.0052350116253620533,0.033052562578971149,
0.0052350116253620576,0.033052562578971149,
0.015192595463724992,0.029817147462996556,
0.023663022205061633,0.02366302220506163,
0.029817147462996567,0.015192595463724992,
0.033052562578971142,0.0052350116253620559,
0.033052562578971149,-0.0052350116253620533,
0.029817147462996563,-0.015192595463724992,
0.023663022205061633,-0.02366302220506163,
0.015192595463724978,-0.02981714746299657,
0.0052350116253620576,-0.033052562578971149,
-0.0052350116253620533,-0.033052562578971149,
-0.015192595463724989,-0.029817147462996563,
-0.02366302220506163,-0.023663022205061633,
-0.029817147462996563,-0.015192595463724997,
-0.033052562578971142,-0.005235011625362062,
-0.033052562578971149,0.0052350116253620516,
-0.029817147462996563,0.015192595463724989,
0*%
%ADD37COMP47,1.7X0X0X0X0X0*%
%AMCOMP50*
4,1,3,
0.043307086614173228,-0.043307086614173235,
0.043307086614173235,0.043307086614173228,
-0.043307086614173228,0.043307086614173235,
-0.043307086614173235,-0.043307086614173228,
0*%
%ADD38COMP50,2.2X2.2X45*%
%ADD39C,0.086614173228346469*%
%ADD40C,0.060000000000000005*%
G01*
D10*
X0000000000Y0002234251D02*
X0000236220Y0000670078D03*
D11*
X0000236220Y0000570078D03*
D12*
X0001515748Y0000752952D03*
D13*
X0001615748Y0000752952D03*
X0001515748Y0000652952D03*
X0001615748Y0000652952D03*
X0001515748Y0000552952D03*
X0001615748Y0000552952D03*
X0001515748Y0000452952D03*
X0001615748Y0000452952D03*
D14*
X0001382283Y0000667322D03*
D15*
X0001382283Y0000767322D03*
X0001382283Y0000867322D03*
X0001382283Y0000967322D03*
X0001382283Y0001067322D03*
X0001382283Y0001167322D03*
X0001382283Y0001267322D03*
X0001382283Y0001367322D03*
X0001382283Y0001467322D03*
X0001382283Y0001567322D03*
X0001382283Y0001667322D03*
X0001382283Y0001767322D03*
X0001382283Y0001867322D03*
X0001382283Y0001967322D03*
X0001382283Y0002067322D03*
X0000782283Y0002067322D03*
X0000782283Y0001967322D03*
X0000782283Y0001867322D03*
X0000782283Y0001767322D03*
X0000782283Y0001667322D03*
X0000782283Y0001567322D03*
X0000782283Y0001467322D03*
X0000782283Y0001367322D03*
X0000782283Y0001267322D03*
X0000782283Y0001167322D03*
X0000782283Y0001067322D03*
X0000782283Y0000967322D03*
X0000782283Y0000867322D03*
X0000782283Y0000767322D03*
X0000782283Y0000667322D03*
D12*
X0000679133Y0000295275D03*
D16*
X0000579133Y0000295275D03*
X0000479133Y0000295275D03*
X0000379133Y0000295275D03*
X0000279133Y0000295275D03*
X0000179133Y0000295275D03*
D17*
X0000216535Y0001662598D03*
X0000314960Y0001662598D03*
X0000413385Y0001662598D03*
X0000658661Y0001417322D03*
X0000658661Y0001318897D03*
D18*
X0000658661Y0001220472D03*
D19*
X0000563976Y0001122047D03*
X0000065944Y0001122047D03*
X0000065944Y0001515748D03*
X0000563976Y0001515748D03*
D20*
X0000442913Y0000915354D03*
X0000187007Y0000915354D03*
X0000442913Y0001092519D03*
X0000187007Y0001092519D03*
X0001722440Y0001092519D03*
X0001978346Y0001092519D03*
X0001722440Y0000915354D03*
X0001978346Y0000915354D03*
D19*
X0002099409Y0001515748D03*
X0001601377Y0001515748D03*
X0001601377Y0001122047D03*
X0002099409Y0001122047D03*
D18*
X0002194094Y0001220472D03*
D17*
X0002194094Y0001318897D03*
X0002194094Y0001417322D03*
X0001948818Y0001662598D03*
X0001850393Y0001662598D03*
X0001751968Y0001662598D03*
D12*
X0001361417Y0000295275D03*
D16*
X0001261417Y0000295275D03*
X0001161417Y0000295275D03*
X0001061417Y0000295275D03*
X0000961417Y0000295275D03*
X0000861417Y0000295275D03*
G04 next file*
G04 Gerber Fmt 4.6, Leading zero omitted, Abs format (unit mm)*
G04 Created by KiCad (PCBNEW (6.0.9)) date 2023-04-13 12:37:24*
G01*
G04 APERTURE LIST*
G04 Aperture macros list*
G04 Aperture macros list end*
G04 APERTURE END LIST*
D31*
X0002716535Y0001141732D02*
X0003407440Y0001320006D03*
D32*
X0003407440Y0001575912D03*
X0003584605Y0001320006D03*
X0003584605Y0001575912D03*
D33*
X0003496023Y0001321975D03*
X0003496023Y0001573943D03*
D31*
X0002934180Y0001320006D03*
D32*
X0002934180Y0001575912D03*
X0003111345Y0001320006D03*
X0003111345Y0001575912D03*
D33*
X0003022762Y0001321975D03*
X0003022762Y0001573943D03*
D31*
X0003407440Y0001793267D03*
D32*
X0003407440Y0002049172D03*
X0003584605Y0001793267D03*
X0003584605Y0002049172D03*
D33*
X0003496023Y0001795235D03*
X0003496023Y0002047204D03*
D31*
X0002934180Y0001793267D03*
D32*
X0002934180Y0002049172D03*
X0003111345Y0001793267D03*
X0003111345Y0002049172D03*
D33*
X0003022762Y0001795235D03*
X0003022762Y0002047204D03*
D34*
X0003711774Y0001441549D03*
D35*
X0003711774Y0001541549D03*
X0003711774Y0001641549D03*
X0003711774Y0001741549D03*
X0003711774Y0001841549D03*
X0003711774Y0001941549D03*
G04 next file*
G04 Gerber Fmt 4.6, Leading zero omitted, Abs format (unit mm)*
G04 Created by KiCad (PCBNEW (6.0.9)) date 2023-04-13 12:37:54*
G01*
G04 APERTURE LIST*
G04 Aperture macros list*
G04 Aperture macros list end*
G04 APERTURE END LIST*
D36*
X0002716535Y0000000000D02*
X0003711774Y0000299817D03*
D37*
X0003711774Y0000399817D03*
X0003711774Y0000499817D03*
X0003711774Y0000599817D03*
X0003711774Y0000699817D03*
X0003711774Y0000799817D03*
D38*
X0002934180Y0000178274D03*
D39*
X0002934180Y0000434180D03*
X0003111345Y0000178274D03*
X0003111345Y0000434180D03*
D40*
X0003022762Y0000180243D03*
X0003022762Y0000432211D03*
D38*
X0002934180Y0000651535D03*
D39*
X0002934180Y0000907440D03*
X0003111345Y0000651535D03*
X0003111345Y0000907440D03*
D40*
X0003022762Y0000653503D03*
X0003022762Y0000905472D03*
D38*
X0003407440Y0000651535D03*
D39*
X0003407440Y0000907440D03*
X0003584605Y0000651535D03*
X0003584605Y0000907440D03*
D40*
X0003496023Y0000653503D03*
X0003496023Y0000905472D03*
D38*
X0003407440Y0000178274D03*
D39*
X0003407440Y0000434180D03*
X0003584605Y0000178274D03*
X0003584605Y0000434180D03*
D40*
X0003496023Y0000180243D03*
X0003496023Y0000432211D03*
M02*