%MOIN*%
%OFA0B0*%
%FSLAX46Y46*%
%IPPOS*%
%LPD*%
%ADD10C,0.0039370078740157488*%
%ADD21C,0.0039370078740157488*%
%ADD22C,0.0039370078740157488*%
G01*
D10*
X0000000000Y0000846456D02*
X0000000000Y0002135826D01*
X0000000000Y0000098425D02*
X0000000000Y0000393700D01*
X0000078740Y0000492125D02*
X0000000000Y0000393700D01*
X0000078740Y0000748031D02*
X0000078740Y0000492125D01*
X0000000000Y0000846456D02*
X0000078740Y0000748031D01*
X0000157480Y0002135826D02*
G75*
G03*
X0000157480Y0002135826I-0000059055D01*
G01*
X0002519685Y0002234251D02*
X0000098425Y0002234251D01*
X0002578740Y0002135826D02*
G75*
G03*
X0002578740Y0002135826I-0000059055D01*
G01*
X0000098425Y0002234251D02*
G75*
G03*
X0000000000Y0002135826J-0000098425D01*
G01*
X0000000000Y0000098425D02*
G75*
G03*
X0000098425Y0000000000I0000098425D01*
G01*
X0002618110Y0000098425D02*
X0002618110Y0002135826D01*
X0002519685Y0000000000D02*
G75*
G03*
X0002618110Y0000098425J0000098425D01*
G01*
X0000157480Y0000098425D02*
G75*
G03*
X0000157480Y0000098425I-0000059055D01*
G01*
X0002618110Y0002135826D02*
G75*
G03*
X0002519685Y0002234251I-0000098425D01*
G01*
X0002578740Y0000098425D02*
G75*
G03*
X0002578740Y0000098425I-0000059055D01*
G01*
X0000098425Y0000000000D02*
X0002519685Y0000000000D01*
G04 next file*
G04 Gerber Fmt 4.6, Leading zero omitted, Abs format (unit mm)*
G04 Created by KiCad (PCBNEW (6.0.9)) date 2023-04-13 12:37:24*
G01*
G04 APERTURE LIST*
G04 APERTURE END LIST*
D21*
X0003746572Y0002171769D02*
G75*
G03*
X0003746572Y0002171769I-0000027838J-0000027838D01*
G01*
X0002827890Y0002171769D02*
G75*
G03*
X0002827890Y0002171769I-0000027838J-0000027838D01*
G01*
X0003802250Y0001141732D02*
X0003802250Y0002227447D01*
X0003746572Y0001253087D02*
G75*
G03*
X0003746572Y0001253087I-0000027838J-0000027838D01*
G01*
X0002827890Y0001253087D02*
G75*
G03*
X0002827890Y0001253087I-0000027838J-0000027838D01*
G01*
X0002716535Y0002227447D02*
X0002716535Y0001141732D01*
X0002716535Y0001141732D02*
X0003802250Y0001141732D01*
X0003802250Y0002227447D02*
X0002716535Y0002227447D01*
G04 next file*
G04 Gerber Fmt 4.6, Leading zero omitted, Abs format (unit mm)*
G04 Created by KiCad (PCBNEW (6.0.9)) date 2023-04-13 12:37:54*
G01*
G04 APERTURE LIST*
G04 APERTURE END LIST*
D22*
X0002827890Y0000111355D02*
G75*
G03*
X0002827890Y0000111355I-0000027838J-0000027838D01*
G01*
X0002716535Y0001085715D02*
X0002716535Y0000000000D01*
X0003746572Y0001030037D02*
G75*
G03*
X0003746572Y0001030037I-0000027838J-0000027838D01*
G01*
X0003746572Y0000111355D02*
G75*
G03*
X0003746572Y0000111355I-0000027838J-0000027838D01*
G01*
X0003802250Y0001085715D02*
X0002716535Y0001085715D01*
X0003802250Y0000000000D02*
X0003802250Y0001085715D01*
X0002716535Y0000000000D02*
X0003802250Y0000000000D01*
X0002827890Y0001030037D02*
G75*
G03*
X0002827890Y0001030037I-0000027838J-0000027838D01*
G01*
M02*