%TF.GenerationSoftware,KiCad,Pcbnew,7.0.8*%
%TF.CreationDate,2023-11-18T19:30:01+11:00*%
%TF.ProjectId,Main 4.3,4d61696e-2034-42e3-932e-6b696361645f,rev?*%
%TF.SameCoordinates,Original*%
%TF.FileFunction,Soldermask,Bot*%
%TF.FilePolarity,Negative*%
%FSLAX46Y46*%
G04 Gerber Fmt 4.6, Leading zero omitted, Abs format (unit mm)*
G04 Created by KiCad (PCBNEW 7.0.8) date 2023-11-18 19:30:01*
%MOMM*%
%LPD*%
G01*
G04 APERTURE LIST*
G04 Aperture macros list*
%AMRoundRect*
0 Rectangle with rounded corners*
0 $1 Rounding radius*
0 $2 $3 $4 $5 $6 $7 $8 $9 X,Y pos of 4 corners*
0 Add a 4 corners polygon primitive as box body*
4,1,4,$2,$3,$4,$5,$6,$7,$8,$9,$2,$3,0*
0 Add four circle primitives for the rounded corners*
1,1,$1+$1,$2,$3*
1,1,$1+$1,$4,$5*
1,1,$1+$1,$6,$7*
1,1,$1+$1,$8,$9*
0 Add four rect primitives between the rounded corners*
20,1,$1+$1,$2,$3,$4,$5,0*
20,1,$1+$1,$4,$5,$6,$7,0*
20,1,$1+$1,$6,$7,$8,$9,0*
20,1,$1+$1,$8,$9,$2,$3,0*%
G04 Aperture macros list end*
%ADD10R,3.800000X3.800000*%
%ADD11C,3.800000*%
%ADD12R,1.700000X1.700000*%
%ADD13O,1.700000X1.700000*%
%ADD14C,2.200000*%
%ADD15C,2.000000*%
%ADD16RoundRect,0.250000X-0.600000X-0.725000X0.600000X-0.725000X0.600000X0.725000X-0.600000X0.725000X0*%
%ADD17O,1.700000X1.950000*%
%ADD18C,1.879600*%
%ADD19C,2.032000*%
%ADD20RoundRect,0.250000X0.725000X-0.600000X0.725000X0.600000X-0.725000X0.600000X-0.725000X-0.600000X0*%
%ADD21O,1.950000X1.700000*%
%ADD22RoundRect,0.250000X0.600000X0.725000X-0.600000X0.725000X-0.600000X-0.725000X0.600000X-0.725000X0*%
%ADD23C,4.000000*%
%ADD24C,1.308000*%
%ADD25RoundRect,0.200000X0.275000X-0.200000X0.275000X0.200000X-0.275000X0.200000X-0.275000X-0.200000X0*%
%ADD26RoundRect,0.250000X0.600000X0.750000X-0.600000X0.750000X-0.600000X-0.750000X0.600000X-0.750000X0*%
%ADD27O,1.700000X2.000000*%
%ADD28RoundRect,0.200000X-0.275000X0.200000X-0.275000X-0.200000X0.275000X-0.200000X0.275000X0.200000X0*%
%ADD29RoundRect,0.225000X0.250000X-0.225000X0.250000X0.225000X-0.250000X0.225000X-0.250000X-0.225000X0*%
%ADD30RoundRect,0.225000X-0.250000X0.225000X-0.250000X-0.225000X0.250000X-0.225000X0.250000X0.225000X0*%
%ADD31RoundRect,0.250000X-1.950000X-1.000000X1.950000X-1.000000X1.950000X1.000000X-1.950000X1.000000X0*%
%ADD32RoundRect,0.250000X-1.075000X0.312500X-1.075000X-0.312500X1.075000X-0.312500X1.075000X0.312500X0*%
%ADD33RoundRect,0.250000X-0.725000X0.600000X-0.725000X-0.600000X0.725000X-0.600000X0.725000X0.600000X0*%
G04 APERTURE END LIST*
D10*
%TO.C,J1*%
X162500000Y-196000000D03*
D11*
X157500000Y-196000000D03*
%TD*%
D12*
%TO.C,J7*%
X213500000Y-149025000D03*
D13*
X213500000Y-146485000D03*
%TD*%
D14*
%TO.C,H6*%
X90000000Y-170500000D03*
%TD*%
D15*
%TO.C,SW2*%
X86500000Y-157000000D03*
X86500000Y-150500000D03*
X91000000Y-157000000D03*
X91000000Y-150500000D03*
%TD*%
D16*
%TO.C,J18*%
X95750000Y-168975000D03*
D17*
X98250000Y-168975000D03*
X100750000Y-168975000D03*
%TD*%
D14*
%TO.C,H9*%
X183300000Y-116000000D03*
%TD*%
D18*
%TO.C,U4*%
X202350000Y-133130000D03*
X199810000Y-133130000D03*
X197270000Y-133130000D03*
X194730000Y-133130000D03*
X192190000Y-133130000D03*
X189650000Y-133130000D03*
D19*
X199810000Y-148370000D03*
X197270000Y-148370000D03*
X194730000Y-148370000D03*
X192190000Y-148370000D03*
%TD*%
D16*
%TO.C,J16*%
X212750000Y-129975000D03*
D17*
X215250000Y-129975000D03*
X217750000Y-129975000D03*
%TD*%
D15*
%TO.C,SW1*%
X86500000Y-147500000D03*
X86500000Y-141000000D03*
X91000000Y-147500000D03*
X91000000Y-141000000D03*
%TD*%
D20*
%TO.C,J19*%
X90725000Y-135750000D03*
D21*
X90725000Y-133250000D03*
X90725000Y-130750000D03*
%TD*%
D22*
%TO.C,J17*%
X223500000Y-148025000D03*
D17*
X221000000Y-148025000D03*
X218500000Y-148025000D03*
%TD*%
D12*
%TO.C,J8*%
X129450000Y-115460000D03*
D13*
X129450000Y-118000000D03*
X131990000Y-115460000D03*
X131990000Y-118000000D03*
X134530000Y-115460000D03*
X134530000Y-118000000D03*
X137070000Y-115460000D03*
X137070000Y-118000000D03*
X139610000Y-115460000D03*
X139610000Y-118000000D03*
%TD*%
D14*
%TO.C,H1*%
X224000000Y-130000000D03*
%TD*%
D10*
%TO.C,J2*%
X142500000Y-196000000D03*
D23*
X137500000Y-196000000D03*
%TD*%
D14*
%TO.C,H3*%
X170100000Y-197500000D03*
%TD*%
D15*
%TO.C,SW3*%
X86500000Y-166500000D03*
X86500000Y-160000000D03*
X91000000Y-166500000D03*
X91000000Y-160000000D03*
%TD*%
D14*
%TO.C,H4*%
X129900000Y-197500000D03*
%TD*%
%TO.C,H8*%
X116700000Y-116000000D03*
%TD*%
D24*
%TO.C,U6*%
X222270000Y-152630000D03*
X219730000Y-152630000D03*
X217190000Y-152630000D03*
X214650000Y-152630000D03*
X189250000Y-152630000D03*
X219730000Y-167870000D03*
X212110000Y-152630000D03*
X209570000Y-152630000D03*
X207030000Y-152630000D03*
X204490000Y-152630000D03*
X201950000Y-152630000D03*
X199410000Y-152630000D03*
X196870000Y-152630000D03*
X194330000Y-152630000D03*
X191790000Y-152630000D03*
X191790000Y-167870000D03*
X194330000Y-167870000D03*
X196870000Y-167870000D03*
X199410000Y-167870000D03*
X201950000Y-167870000D03*
X204490000Y-167870000D03*
X207030000Y-167870000D03*
X209570000Y-167870000D03*
X212110000Y-167870000D03*
X214650000Y-167870000D03*
X217190000Y-167870000D03*
X186710000Y-152630000D03*
X184170000Y-152630000D03*
X181630000Y-152630000D03*
X179090000Y-152630000D03*
X176550000Y-152630000D03*
X174010000Y-152630000D03*
X171470000Y-152630000D03*
X168930000Y-152630000D03*
X166390000Y-152630000D03*
X166390000Y-167870000D03*
X168930000Y-167870000D03*
X171470000Y-167870000D03*
X174010000Y-167870000D03*
X176550000Y-167870000D03*
X179090000Y-167870000D03*
X181630000Y-167870000D03*
X184170000Y-167870000D03*
X186710000Y-167870000D03*
X224810000Y-152630000D03*
X189250000Y-167870000D03*
X222270000Y-167870000D03*
X224810000Y-167870000D03*
%TD*%
D25*
%TO.C,R14*%
X208500000Y-166325000D03*
X208500000Y-164675000D03*
%TD*%
D26*
%TO.C,D2*%
X147000000Y-116475000D03*
D27*
X144500000Y-116475000D03*
%TD*%
D28*
%TO.C,R18*%
X207000000Y-164675000D03*
X207000000Y-166325000D03*
%TD*%
D10*
%TO.C,J9*%
X136750000Y-130350000D03*
D11*
X141750000Y-130350000D03*
%TD*%
D29*
%TO.C,C23*%
X193500000Y-146250000D03*
X193500000Y-144700000D03*
%TD*%
D12*
%TO.C,U5*%
X189250000Y-148750000D03*
D13*
X189250000Y-146210000D03*
X189250000Y-143670000D03*
X189250000Y-141130000D03*
X189250000Y-138590000D03*
X189250000Y-136050000D03*
%TD*%
D28*
%TO.C,R10*%
X166500000Y-154175000D03*
X166500000Y-155825000D03*
%TD*%
D29*
%TO.C,C24*%
X224000000Y-166275000D03*
X224000000Y-164725000D03*
%TD*%
D26*
%TO.C,Q1*%
X155500000Y-116475000D03*
D27*
X153000000Y-116475000D03*
%TD*%
D10*
%TO.C,J13*%
X141900000Y-146900000D03*
D23*
X146900000Y-146900000D03*
%TD*%
D30*
%TO.C,C21*%
X203250000Y-134975000D03*
X203250000Y-136525000D03*
%TD*%
D28*
%TO.C,R17*%
X204500000Y-164675000D03*
X204500000Y-166325000D03*
%TD*%
D10*
%TO.C,J10*%
X153100000Y-141900000D03*
D23*
X153100000Y-146900000D03*
%TD*%
D28*
%TO.C,R12*%
X171500000Y-154175000D03*
X171500000Y-155825000D03*
%TD*%
D25*
%TO.C,R15*%
X203000000Y-166325000D03*
X203000000Y-164675000D03*
%TD*%
D29*
%TO.C,C22*%
X192000000Y-146250000D03*
X192000000Y-144700000D03*
%TD*%
D31*
%TO.C,C59*%
X140100000Y-187500000D03*
X148500000Y-187500000D03*
%TD*%
D32*
%TO.C,R1*%
X162500000Y-189037500D03*
X162500000Y-191962500D03*
%TD*%
D10*
%TO.C,J11*%
X158100000Y-153100000D03*
D23*
X153100000Y-153100000D03*
%TD*%
D33*
%TO.C,J5*%
X213975000Y-156500000D03*
D21*
X213975000Y-159000000D03*
X213975000Y-161500000D03*
X213975000Y-164000000D03*
%TD*%
D29*
%TO.C,C25*%
X225500000Y-166275000D03*
X225500000Y-164725000D03*
%TD*%
D30*
%TO.C,C20*%
X201500000Y-134975000D03*
X201500000Y-136525000D03*
%TD*%
D28*
%TO.C,R16*%
X181500000Y-154175000D03*
X181500000Y-155825000D03*
%TD*%
%TO.C,R11*%
X168950000Y-154175000D03*
X168950000Y-155825000D03*
%TD*%
D10*
%TO.C,J12*%
X146900000Y-158100000D03*
D23*
X146900000Y-153100000D03*
%TD*%
M02*
