%TF.GenerationSoftware,KiCad,Pcbnew,(6.0.9)*%
%TF.CreationDate,2023-05-03T14:40:21+10:00*%
%TF.ProjectId,Proj D,50726f6a-2044-42e6-9b69-6361645f7063,rev?*%
%TF.SameCoordinates,Original*%
%TF.FileFunction,Legend,Top*%
%TF.FilePolarity,Positive*%
%FSLAX46Y46*%
G04 Gerber Fmt 4.6, Leading zero omitted, Abs format (unit mm)*
G04 Created by KiCad (PCBNEW (6.0.9)) date 2023-05-03 14:40:21*
%MOMM*%
%LPD*%
G01*
G04 APERTURE LIST*
%ADD10C,0.150000*%
%ADD11C,0.127000*%
%ADD12C,0.200000*%
%ADD13C,0.120000*%
G04 APERTURE END LIST*
D10*
X139952380Y-82714285D02*
X139952380Y-83285714D01*
X139952380Y-83000000D02*
X138952380Y-83000000D01*
X139095238Y-83095238D01*
X139190476Y-83190476D01*
X139238095Y-83285714D01*
X140571428Y-139952380D02*
X140095238Y-139952380D01*
X140047619Y-140428571D01*
X140095238Y-140380952D01*
X140190476Y-140333333D01*
X140428571Y-140333333D01*
X140523809Y-140380952D01*
X140571428Y-140428571D01*
X140619047Y-140523809D01*
X140619047Y-140761904D01*
X140571428Y-140857142D01*
X140523809Y-140904761D01*
X140428571Y-140952380D01*
X140190476Y-140952380D01*
X140095238Y-140904761D01*
X140047619Y-140857142D01*
X140904761Y-139952380D02*
X141238095Y-140952380D01*
X141571428Y-139952380D01*
X141666666Y-141047619D02*
X142428571Y-141047619D01*
X142666666Y-140428571D02*
X143000000Y-140428571D01*
X143142857Y-140952380D02*
X142666666Y-140952380D01*
X142666666Y-139952380D01*
X143142857Y-139952380D01*
X143523809Y-140904761D02*
X143666666Y-140952380D01*
X143904761Y-140952380D01*
X144000000Y-140904761D01*
X144047619Y-140857142D01*
X144095238Y-140761904D01*
X144095238Y-140666666D01*
X144047619Y-140571428D01*
X144000000Y-140523809D01*
X143904761Y-140476190D01*
X143714285Y-140428571D01*
X143619047Y-140380952D01*
X143571428Y-140333333D01*
X143523809Y-140238095D01*
X143523809Y-140142857D01*
X143571428Y-140047619D01*
X143619047Y-140000000D01*
X143714285Y-139952380D01*
X143952380Y-139952380D01*
X144095238Y-140000000D01*
X144523809Y-140952380D02*
X144523809Y-139952380D01*
X144904761Y-139952380D01*
X145000000Y-140000000D01*
X145047619Y-140047619D01*
X145095238Y-140142857D01*
X145095238Y-140285714D01*
X145047619Y-140380952D01*
X145000000Y-140428571D01*
X144904761Y-140476190D01*
X144523809Y-140476190D01*
X145285714Y-141047619D02*
X146047619Y-141047619D01*
X146809523Y-140000000D02*
X146714285Y-139952380D01*
X146571428Y-139952380D01*
X146428571Y-140000000D01*
X146333333Y-140095238D01*
X146285714Y-140190476D01*
X146238095Y-140380952D01*
X146238095Y-140523809D01*
X146285714Y-140714285D01*
X146333333Y-140809523D01*
X146428571Y-140904761D01*
X146571428Y-140952380D01*
X146666666Y-140952380D01*
X146809523Y-140904761D01*
X146857142Y-140857142D01*
X146857142Y-140523809D01*
X146666666Y-140523809D01*
X147476190Y-139952380D02*
X147666666Y-139952380D01*
X147761904Y-140000000D01*
X147857142Y-140095238D01*
X147904761Y-140285714D01*
X147904761Y-140619047D01*
X147857142Y-140809523D01*
X147761904Y-140904761D01*
X147666666Y-140952380D01*
X147476190Y-140952380D01*
X147380952Y-140904761D01*
X147285714Y-140809523D01*
X147238095Y-140619047D01*
X147238095Y-140285714D01*
X147285714Y-140095238D01*
X147380952Y-140000000D01*
X147476190Y-139952380D01*
X148523809Y-139952380D02*
X148714285Y-139952380D01*
X148809523Y-140000000D01*
X148904761Y-140095238D01*
X148952380Y-140285714D01*
X148952380Y-140619047D01*
X148904761Y-140809523D01*
X148809523Y-140904761D01*
X148714285Y-140952380D01*
X148523809Y-140952380D01*
X148428571Y-140904761D01*
X148333333Y-140809523D01*
X148285714Y-140619047D01*
X148285714Y-140285714D01*
X148333333Y-140095238D01*
X148428571Y-140000000D01*
X148523809Y-139952380D01*
X149380952Y-140952380D02*
X149380952Y-139952380D01*
X149619047Y-139952380D01*
X149761904Y-140000000D01*
X149857142Y-140095238D01*
X149904761Y-140190476D01*
X149952380Y-140380952D01*
X149952380Y-140523809D01*
X149904761Y-140714285D01*
X149857142Y-140809523D01*
X149761904Y-140904761D01*
X149619047Y-140952380D01*
X149380952Y-140952380D01*
X140309523Y-74592380D02*
X140309523Y-73592380D01*
X140738095Y-74544761D02*
X140880952Y-74592380D01*
X141119047Y-74592380D01*
X141214285Y-74544761D01*
X141261904Y-74497142D01*
X141309523Y-74401904D01*
X141309523Y-74306666D01*
X141261904Y-74211428D01*
X141214285Y-74163809D01*
X141119047Y-74116190D01*
X140928571Y-74068571D01*
X140833333Y-74020952D01*
X140785714Y-73973333D01*
X140738095Y-73878095D01*
X140738095Y-73782857D01*
X140785714Y-73687619D01*
X140833333Y-73640000D01*
X140928571Y-73592380D01*
X141166666Y-73592380D01*
X141309523Y-73640000D01*
X141595238Y-73592380D02*
X142166666Y-73592380D01*
X141880952Y-74592380D02*
X141880952Y-73592380D01*
X143214285Y-74306666D02*
X143690476Y-74306666D01*
X143119047Y-74592380D02*
X143452380Y-73592380D01*
X143785714Y-74592380D01*
X143976190Y-73592380D02*
X144547619Y-73592380D01*
X144261904Y-74592380D02*
X144261904Y-73592380D01*
X145595238Y-73687619D02*
X145642857Y-73640000D01*
X145738095Y-73592380D01*
X145976190Y-73592380D01*
X146071428Y-73640000D01*
X146119047Y-73687619D01*
X146166666Y-73782857D01*
X146166666Y-73878095D01*
X146119047Y-74020952D01*
X145547619Y-74592380D01*
X146166666Y-74592380D01*
X147357142Y-74211428D02*
X148119047Y-74211428D01*
X149357142Y-74592380D02*
X149357142Y-73592380D01*
X149738095Y-73592380D01*
X149833333Y-73640000D01*
X149880952Y-73687619D01*
X149928571Y-73782857D01*
X149928571Y-73925714D01*
X149880952Y-74020952D01*
X149833333Y-74068571D01*
X149738095Y-74116190D01*
X149357142Y-74116190D01*
X150928571Y-74592380D02*
X150595238Y-74116190D01*
X150357142Y-74592380D02*
X150357142Y-73592380D01*
X150738095Y-73592380D01*
X150833333Y-73640000D01*
X150880952Y-73687619D01*
X150928571Y-73782857D01*
X150928571Y-73925714D01*
X150880952Y-74020952D01*
X150833333Y-74068571D01*
X150738095Y-74116190D01*
X150357142Y-74116190D01*
X151547619Y-73592380D02*
X151738095Y-73592380D01*
X151833333Y-73640000D01*
X151928571Y-73735238D01*
X151976190Y-73925714D01*
X151976190Y-74259047D01*
X151928571Y-74449523D01*
X151833333Y-74544761D01*
X151738095Y-74592380D01*
X151547619Y-74592380D01*
X151452380Y-74544761D01*
X151357142Y-74449523D01*
X151309523Y-74259047D01*
X151309523Y-73925714D01*
X151357142Y-73735238D01*
X151452380Y-73640000D01*
X151547619Y-73592380D01*
X152690476Y-73592380D02*
X152690476Y-74306666D01*
X152642857Y-74449523D01*
X152547619Y-74544761D01*
X152404761Y-74592380D01*
X152309523Y-74592380D01*
X153166666Y-74068571D02*
X153500000Y-74068571D01*
X153642857Y-74592380D02*
X153166666Y-74592380D01*
X153166666Y-73592380D01*
X153642857Y-73592380D01*
X154642857Y-74497142D02*
X154595238Y-74544761D01*
X154452380Y-74592380D01*
X154357142Y-74592380D01*
X154214285Y-74544761D01*
X154119047Y-74449523D01*
X154071428Y-74354285D01*
X154023809Y-74163809D01*
X154023809Y-74020952D01*
X154071428Y-73830476D01*
X154119047Y-73735238D01*
X154214285Y-73640000D01*
X154357142Y-73592380D01*
X154452380Y-73592380D01*
X154595238Y-73640000D01*
X154642857Y-73687619D01*
X154928571Y-73592380D02*
X155500000Y-73592380D01*
X155214285Y-74592380D02*
X155214285Y-73592380D01*
X156595238Y-74592380D02*
X156595238Y-73592380D01*
X156833333Y-73592380D01*
X156976190Y-73640000D01*
X157071428Y-73735238D01*
X157119047Y-73830476D01*
X157166666Y-74020952D01*
X157166666Y-74163809D01*
X157119047Y-74354285D01*
X157071428Y-74449523D01*
X156976190Y-74544761D01*
X156833333Y-74592380D01*
X156595238Y-74592380D01*
X158357142Y-74211428D02*
X159119047Y-74211428D01*
X160928571Y-74592380D02*
X160595238Y-74116190D01*
X160357142Y-74592380D02*
X160357142Y-73592380D01*
X160738095Y-73592380D01*
X160833333Y-73640000D01*
X160880952Y-73687619D01*
X160928571Y-73782857D01*
X160928571Y-73925714D01*
X160880952Y-74020952D01*
X160833333Y-74068571D01*
X160738095Y-74116190D01*
X160357142Y-74116190D01*
X161357142Y-74068571D02*
X161690476Y-74068571D01*
X161833333Y-74592380D02*
X161357142Y-74592380D01*
X161357142Y-73592380D01*
X161833333Y-73592380D01*
X162214285Y-74544761D02*
X162357142Y-74592380D01*
X162595238Y-74592380D01*
X162690476Y-74544761D01*
X162738095Y-74497142D01*
X162785714Y-74401904D01*
X162785714Y-74306666D01*
X162738095Y-74211428D01*
X162690476Y-74163809D01*
X162595238Y-74116190D01*
X162404761Y-74068571D01*
X162309523Y-74020952D01*
X162261904Y-73973333D01*
X162214285Y-73878095D01*
X162214285Y-73782857D01*
X162261904Y-73687619D01*
X162309523Y-73640000D01*
X162404761Y-73592380D01*
X162642857Y-73592380D01*
X162785714Y-73640000D01*
X163785714Y-74497142D02*
X163738095Y-74544761D01*
X163595238Y-74592380D01*
X163500000Y-74592380D01*
X163357142Y-74544761D01*
X163261904Y-74449523D01*
X163214285Y-74354285D01*
X163166666Y-74163809D01*
X163166666Y-74020952D01*
X163214285Y-73830476D01*
X163261904Y-73735238D01*
X163357142Y-73640000D01*
X163500000Y-73592380D01*
X163595238Y-73592380D01*
X163738095Y-73640000D01*
X163785714Y-73687619D01*
X164214285Y-73592380D02*
X164214285Y-74401904D01*
X164261904Y-74497142D01*
X164309523Y-74544761D01*
X164404761Y-74592380D01*
X164595238Y-74592380D01*
X164690476Y-74544761D01*
X164738095Y-74497142D01*
X164785714Y-74401904D01*
X164785714Y-73592380D01*
X165261904Y-74068571D02*
X165595238Y-74068571D01*
X165738095Y-74592380D02*
X165261904Y-74592380D01*
X165261904Y-73592380D01*
X165738095Y-73592380D01*
X167404761Y-74592380D02*
X166928571Y-74592380D01*
X166928571Y-73592380D01*
X167738095Y-74592380D02*
X167738095Y-73592380D01*
X168214285Y-74592380D02*
X168214285Y-73592380D01*
X168785714Y-74592380D01*
X168785714Y-73592380D01*
X169261904Y-74068571D02*
X169595238Y-74068571D01*
X169738095Y-74592380D02*
X169261904Y-74592380D01*
X169261904Y-73592380D01*
X169738095Y-73592380D01*
X144190476Y-76202380D02*
X144190476Y-75202380D01*
X144190476Y-75678571D02*
X144761904Y-75678571D01*
X144761904Y-76202380D02*
X144761904Y-75202380D01*
X145238095Y-75202380D02*
X145238095Y-76011904D01*
X145285714Y-76107142D01*
X145333333Y-76154761D01*
X145428571Y-76202380D01*
X145619047Y-76202380D01*
X145714285Y-76154761D01*
X145761904Y-76107142D01*
X145809523Y-76011904D01*
X145809523Y-75202380D01*
X146809523Y-75250000D02*
X146714285Y-75202380D01*
X146571428Y-75202380D01*
X146428571Y-75250000D01*
X146333333Y-75345238D01*
X146285714Y-75440476D01*
X146238095Y-75630952D01*
X146238095Y-75773809D01*
X146285714Y-75964285D01*
X146333333Y-76059523D01*
X146428571Y-76154761D01*
X146571428Y-76202380D01*
X146666666Y-76202380D01*
X146809523Y-76154761D01*
X146857142Y-76107142D01*
X146857142Y-75773809D01*
X146666666Y-75773809D01*
X147285714Y-76202380D02*
X147285714Y-75202380D01*
X147285714Y-75678571D02*
X147857142Y-75678571D01*
X147857142Y-76202380D02*
X147857142Y-75202380D01*
X149095238Y-76202380D02*
X149095238Y-75202380D01*
X149476190Y-75202380D01*
X149571428Y-75250000D01*
X149619047Y-75297619D01*
X149666666Y-75392857D01*
X149666666Y-75535714D01*
X149619047Y-75630952D01*
X149571428Y-75678571D01*
X149476190Y-75726190D01*
X149095238Y-75726190D01*
X150095238Y-76202380D02*
X150095238Y-75202380D01*
X150095238Y-75678571D02*
X150666666Y-75678571D01*
X150666666Y-76202380D02*
X150666666Y-75202380D01*
X151095238Y-75916666D02*
X151571428Y-75916666D01*
X151000000Y-76202380D02*
X151333333Y-75202380D01*
X151666666Y-76202380D01*
X152000000Y-76202380D02*
X152000000Y-75202380D01*
X152571428Y-76202380D01*
X152571428Y-75202380D01*
X154619047Y-76202380D02*
X154571428Y-76202380D01*
X154476190Y-76154761D01*
X154333333Y-76011904D01*
X154095238Y-75726190D01*
X154000000Y-75583333D01*
X153952380Y-75440476D01*
X153952380Y-75345238D01*
X154000000Y-75250000D01*
X154095238Y-75202380D01*
X154142857Y-75202380D01*
X154238095Y-75250000D01*
X154285714Y-75345238D01*
X154285714Y-75392857D01*
X154238095Y-75488095D01*
X154190476Y-75535714D01*
X153904761Y-75726190D01*
X153857142Y-75773809D01*
X153809523Y-75869047D01*
X153809523Y-76011904D01*
X153857142Y-76107142D01*
X153904761Y-76154761D01*
X154000000Y-76202380D01*
X154142857Y-76202380D01*
X154238095Y-76154761D01*
X154285714Y-76107142D01*
X154428571Y-75916666D01*
X154476190Y-75773809D01*
X154476190Y-75678571D01*
X156095238Y-75202380D02*
X156095238Y-75916666D01*
X156047619Y-76059523D01*
X155952380Y-76154761D01*
X155809523Y-76202380D01*
X155714285Y-76202380D01*
X156523809Y-75916666D02*
X157000000Y-75916666D01*
X156428571Y-76202380D02*
X156761904Y-75202380D01*
X157095238Y-76202380D01*
X158000000Y-76107142D02*
X157952380Y-76154761D01*
X157809523Y-76202380D01*
X157714285Y-76202380D01*
X157571428Y-76154761D01*
X157476190Y-76059523D01*
X157428571Y-75964285D01*
X157380952Y-75773809D01*
X157380952Y-75630952D01*
X157428571Y-75440476D01*
X157476190Y-75345238D01*
X157571428Y-75250000D01*
X157714285Y-75202380D01*
X157809523Y-75202380D01*
X157952380Y-75250000D01*
X158000000Y-75297619D01*
X158428571Y-76202380D02*
X158428571Y-75202380D01*
X159000000Y-76202380D02*
X158571428Y-75630952D01*
X159000000Y-75202380D02*
X158428571Y-75773809D01*
X160142857Y-76154761D02*
X160285714Y-76202380D01*
X160523809Y-76202380D01*
X160619047Y-76154761D01*
X160666666Y-76107142D01*
X160714285Y-76011904D01*
X160714285Y-75916666D01*
X160666666Y-75821428D01*
X160619047Y-75773809D01*
X160523809Y-75726190D01*
X160333333Y-75678571D01*
X160238095Y-75630952D01*
X160190476Y-75583333D01*
X160142857Y-75488095D01*
X160142857Y-75392857D01*
X160190476Y-75297619D01*
X160238095Y-75250000D01*
X160333333Y-75202380D01*
X160571428Y-75202380D01*
X160714285Y-75250000D01*
X161142857Y-75202380D02*
X161142857Y-76011904D01*
X161190476Y-76107142D01*
X161238095Y-76154761D01*
X161333333Y-76202380D01*
X161523809Y-76202380D01*
X161619047Y-76154761D01*
X161666666Y-76107142D01*
X161714285Y-76011904D01*
X161714285Y-75202380D01*
X162190476Y-76202380D02*
X162190476Y-75202380D01*
X162523809Y-75916666D01*
X162857142Y-75202380D01*
X162857142Y-76202380D01*
X163333333Y-76202380D02*
X163333333Y-75202380D01*
X163904761Y-76202380D01*
X163904761Y-75202380D01*
X164380952Y-75678571D02*
X164714285Y-75678571D01*
X164857142Y-76202380D02*
X164380952Y-76202380D01*
X164380952Y-75202380D01*
X164857142Y-75202380D01*
X165857142Y-76202380D02*
X165523809Y-75726190D01*
X165285714Y-76202380D02*
X165285714Y-75202380D01*
X165666666Y-75202380D01*
X165761904Y-75250000D01*
X165809523Y-75297619D01*
X165857142Y-75392857D01*
X165857142Y-75535714D01*
X165809523Y-75630952D01*
X165761904Y-75678571D01*
X165666666Y-75726190D01*
X165285714Y-75726190D01*
X152238095Y-76907619D02*
X152285714Y-76860000D01*
X152380952Y-76812380D01*
X152619047Y-76812380D01*
X152714285Y-76860000D01*
X152761904Y-76907619D01*
X152809523Y-77002857D01*
X152809523Y-77098095D01*
X152761904Y-77240952D01*
X152190476Y-77812380D01*
X152809523Y-77812380D01*
X153952380Y-76764761D02*
X153095238Y-78050476D01*
X154761904Y-76812380D02*
X154285714Y-76812380D01*
X154238095Y-77288571D01*
X154285714Y-77240952D01*
X154380952Y-77193333D01*
X154619047Y-77193333D01*
X154714285Y-77240952D01*
X154761904Y-77288571D01*
X154809523Y-77383809D01*
X154809523Y-77621904D01*
X154761904Y-77717142D01*
X154714285Y-77764761D01*
X154619047Y-77812380D01*
X154380952Y-77812380D01*
X154285714Y-77764761D01*
X154238095Y-77717142D01*
X155952380Y-76764761D02*
X155095238Y-78050476D01*
X156238095Y-76907619D02*
X156285714Y-76860000D01*
X156380952Y-76812380D01*
X156619047Y-76812380D01*
X156714285Y-76860000D01*
X156761904Y-76907619D01*
X156809523Y-77002857D01*
X156809523Y-77098095D01*
X156761904Y-77240952D01*
X156190476Y-77812380D01*
X156809523Y-77812380D01*
X157142857Y-76812380D02*
X157761904Y-76812380D01*
X157428571Y-77193333D01*
X157571428Y-77193333D01*
X157666666Y-77240952D01*
X157714285Y-77288571D01*
X157761904Y-77383809D01*
X157761904Y-77621904D01*
X157714285Y-77717142D01*
X157666666Y-77764761D01*
X157571428Y-77812380D01*
X157285714Y-77812380D01*
X157190476Y-77764761D01*
X157142857Y-77717142D01*
X108877380Y-85284523D02*
X107877380Y-85284523D01*
X108591666Y-84951190D01*
X107877380Y-84617857D01*
X108877380Y-84617857D01*
X107972619Y-84189285D02*
X107925000Y-84141666D01*
X107877380Y-84046428D01*
X107877380Y-83808333D01*
X107925000Y-83713095D01*
X107972619Y-83665476D01*
X108067857Y-83617857D01*
X108163095Y-83617857D01*
X108305952Y-83665476D01*
X108877380Y-84236904D01*
X108877380Y-83617857D01*
X108877380Y-77284523D02*
X107877380Y-77284523D01*
X108591666Y-76951190D01*
X107877380Y-76617857D01*
X108877380Y-76617857D01*
X108210714Y-75713095D02*
X108877380Y-75713095D01*
X107829761Y-75951190D02*
X108544047Y-76189285D01*
X108544047Y-75570238D01*
X139047619Y-79035714D02*
X139000000Y-78988095D01*
X138952380Y-78892857D01*
X138952380Y-78654761D01*
X139000000Y-78559523D01*
X139047619Y-78511904D01*
X139142857Y-78464285D01*
X139238095Y-78464285D01*
X139380952Y-78511904D01*
X139952380Y-79083333D01*
X139952380Y-78464285D01*
X131702380Y-85202380D02*
X131702380Y-86011904D01*
X131750000Y-86107142D01*
X131797619Y-86154761D01*
X131892857Y-86202380D01*
X132083333Y-86202380D01*
X132178571Y-86154761D01*
X132226190Y-86107142D01*
X132273809Y-86011904D01*
X132273809Y-85202380D01*
X132702380Y-86154761D02*
X132845238Y-86202380D01*
X133083333Y-86202380D01*
X133178571Y-86154761D01*
X133226190Y-86107142D01*
X133273809Y-86011904D01*
X133273809Y-85916666D01*
X133226190Y-85821428D01*
X133178571Y-85773809D01*
X133083333Y-85726190D01*
X132892857Y-85678571D01*
X132797619Y-85630952D01*
X132750000Y-85583333D01*
X132702380Y-85488095D01*
X132702380Y-85392857D01*
X132750000Y-85297619D01*
X132797619Y-85250000D01*
X132892857Y-85202380D01*
X133130952Y-85202380D01*
X133273809Y-85250000D01*
X133892857Y-85202380D02*
X134083333Y-85202380D01*
X134178571Y-85250000D01*
X134273809Y-85345238D01*
X134321428Y-85535714D01*
X134321428Y-85869047D01*
X134273809Y-86059523D01*
X134178571Y-86154761D01*
X134083333Y-86202380D01*
X133892857Y-86202380D01*
X133797619Y-86154761D01*
X133702380Y-86059523D01*
X133654761Y-85869047D01*
X133654761Y-85535714D01*
X133702380Y-85345238D01*
X133797619Y-85250000D01*
X133892857Y-85202380D01*
X134750000Y-86202380D02*
X134750000Y-85202380D01*
X135321428Y-86202380D01*
X135321428Y-85202380D01*
X135797619Y-86202380D02*
X135797619Y-85202380D01*
X136845238Y-86107142D02*
X136797619Y-86154761D01*
X136654761Y-86202380D01*
X136559523Y-86202380D01*
X136416666Y-86154761D01*
X136321428Y-86059523D01*
X136273809Y-85964285D01*
X136226190Y-85773809D01*
X136226190Y-85630952D01*
X136273809Y-85440476D01*
X136321428Y-85345238D01*
X136416666Y-85250000D01*
X136559523Y-85202380D01*
X136654761Y-85202380D01*
X136797619Y-85250000D01*
X136845238Y-85297619D01*
X132083333Y-76357142D02*
X132035714Y-76404761D01*
X131892857Y-76452380D01*
X131797619Y-76452380D01*
X131654761Y-76404761D01*
X131559523Y-76309523D01*
X131511904Y-76214285D01*
X131464285Y-76023809D01*
X131464285Y-75880952D01*
X131511904Y-75690476D01*
X131559523Y-75595238D01*
X131654761Y-75500000D01*
X131797619Y-75452380D01*
X131892857Y-75452380D01*
X132035714Y-75500000D01*
X132083333Y-75547619D01*
X132702380Y-75452380D02*
X132892857Y-75452380D01*
X132988095Y-75500000D01*
X133083333Y-75595238D01*
X133130952Y-75785714D01*
X133130952Y-76119047D01*
X133083333Y-76309523D01*
X132988095Y-76404761D01*
X132892857Y-76452380D01*
X132702380Y-76452380D01*
X132607142Y-76404761D01*
X132511904Y-76309523D01*
X132464285Y-76119047D01*
X132464285Y-75785714D01*
X132511904Y-75595238D01*
X132607142Y-75500000D01*
X132702380Y-75452380D01*
X134035714Y-76452380D02*
X133559523Y-76452380D01*
X133559523Y-75452380D01*
X134559523Y-75452380D02*
X134750000Y-75452380D01*
X134845238Y-75500000D01*
X134940476Y-75595238D01*
X134988095Y-75785714D01*
X134988095Y-76119047D01*
X134940476Y-76309523D01*
X134845238Y-76404761D01*
X134750000Y-76452380D01*
X134559523Y-76452380D01*
X134464285Y-76404761D01*
X134369047Y-76309523D01*
X134321428Y-76119047D01*
X134321428Y-75785714D01*
X134369047Y-75595238D01*
X134464285Y-75500000D01*
X134559523Y-75452380D01*
X135416666Y-75452380D02*
X135416666Y-76261904D01*
X135464285Y-76357142D01*
X135511904Y-76404761D01*
X135607142Y-76452380D01*
X135797619Y-76452380D01*
X135892857Y-76404761D01*
X135940476Y-76357142D01*
X135988095Y-76261904D01*
X135988095Y-75452380D01*
X137035714Y-76452380D02*
X136702380Y-75976190D01*
X136464285Y-76452380D02*
X136464285Y-75452380D01*
X136845238Y-75452380D01*
X136940476Y-75500000D01*
X136988095Y-75547619D01*
X137035714Y-75642857D01*
X137035714Y-75785714D01*
X136988095Y-75880952D01*
X136940476Y-75928571D01*
X136845238Y-75976190D01*
X136464285Y-75976190D01*
X108877380Y-81284523D02*
X107877380Y-81284523D01*
X108591666Y-80951190D01*
X107877380Y-80617857D01*
X108877380Y-80617857D01*
X107877380Y-80236904D02*
X107877380Y-79617857D01*
X108258333Y-79951190D01*
X108258333Y-79808333D01*
X108305952Y-79713095D01*
X108353571Y-79665476D01*
X108448809Y-79617857D01*
X108686904Y-79617857D01*
X108782142Y-79665476D01*
X108829761Y-79713095D01*
X108877380Y-79808333D01*
X108877380Y-80094047D01*
X108829761Y-80189285D01*
X108782142Y-80236904D01*
X106627380Y-86546428D02*
X105627380Y-86546428D01*
X106341666Y-86213095D01*
X105627380Y-85879761D01*
X106627380Y-85879761D01*
X105627380Y-85213095D02*
X105627380Y-85022619D01*
X105675000Y-84927380D01*
X105770238Y-84832142D01*
X105960714Y-84784523D01*
X106294047Y-84784523D01*
X106484523Y-84832142D01*
X106579761Y-84927380D01*
X106627380Y-85022619D01*
X106627380Y-85213095D01*
X106579761Y-85308333D01*
X106484523Y-85403571D01*
X106294047Y-85451190D01*
X105960714Y-85451190D01*
X105770238Y-85403571D01*
X105675000Y-85308333D01*
X105627380Y-85213095D01*
X105627380Y-84498809D02*
X105627380Y-83927380D01*
X106627380Y-84213095D02*
X105627380Y-84213095D01*
X105627380Y-83403571D02*
X105627380Y-83213095D01*
X105675000Y-83117857D01*
X105770238Y-83022619D01*
X105960714Y-82975000D01*
X106294047Y-82975000D01*
X106484523Y-83022619D01*
X106579761Y-83117857D01*
X106627380Y-83213095D01*
X106627380Y-83403571D01*
X106579761Y-83498809D01*
X106484523Y-83594047D01*
X106294047Y-83641666D01*
X105960714Y-83641666D01*
X105770238Y-83594047D01*
X105675000Y-83498809D01*
X105627380Y-83403571D01*
X106627380Y-81975000D02*
X106151190Y-82308333D01*
X106627380Y-82546428D02*
X105627380Y-82546428D01*
X105627380Y-82165476D01*
X105675000Y-82070238D01*
X105722619Y-82022619D01*
X105817857Y-81975000D01*
X105960714Y-81975000D01*
X106055952Y-82022619D01*
X106103571Y-82070238D01*
X106151190Y-82165476D01*
X106151190Y-82546428D01*
X106722619Y-81784523D02*
X106722619Y-81022619D01*
X105627380Y-80594047D02*
X105627380Y-80403571D01*
X105675000Y-80308333D01*
X105770238Y-80213095D01*
X105960714Y-80165476D01*
X106294047Y-80165476D01*
X106484523Y-80213095D01*
X106579761Y-80308333D01*
X106627380Y-80403571D01*
X106627380Y-80594047D01*
X106579761Y-80689285D01*
X106484523Y-80784523D01*
X106294047Y-80832142D01*
X105960714Y-80832142D01*
X105770238Y-80784523D01*
X105675000Y-80689285D01*
X105627380Y-80594047D01*
X105627380Y-79736904D02*
X106436904Y-79736904D01*
X106532142Y-79689285D01*
X106579761Y-79641666D01*
X106627380Y-79546428D01*
X106627380Y-79355952D01*
X106579761Y-79260714D01*
X106532142Y-79213095D01*
X106436904Y-79165476D01*
X105627380Y-79165476D01*
X105627380Y-78832142D02*
X105627380Y-78260714D01*
X106627380Y-78546428D02*
X105627380Y-78546428D01*
X140297619Y-128835119D02*
X140297619Y-128358928D01*
X139821428Y-128311309D01*
X139869047Y-128358928D01*
X139916666Y-128454166D01*
X139916666Y-128692261D01*
X139869047Y-128787500D01*
X139821428Y-128835119D01*
X139726190Y-128882738D01*
X139488095Y-128882738D01*
X139392857Y-128835119D01*
X139345238Y-128787500D01*
X139297619Y-128692261D01*
X139297619Y-128454166D01*
X139345238Y-128358928D01*
X139392857Y-128311309D01*
X140297619Y-129168452D02*
X139297619Y-129501785D01*
X140297619Y-129835119D01*
X139202380Y-129930357D02*
X139202380Y-130692261D01*
X139297619Y-131501785D02*
X139773809Y-131168452D01*
X139297619Y-130930357D02*
X140297619Y-130930357D01*
X140297619Y-131311309D01*
X140250000Y-131406547D01*
X140202380Y-131454166D01*
X140107142Y-131501785D01*
X139964285Y-131501785D01*
X139869047Y-131454166D01*
X139821428Y-131406547D01*
X139773809Y-131311309D01*
X139773809Y-130930357D01*
X139821428Y-131930357D02*
X139821428Y-132263690D01*
X139297619Y-132406547D02*
X139297619Y-131930357D01*
X140297619Y-131930357D01*
X140297619Y-132406547D01*
X140250000Y-133358928D02*
X140297619Y-133263690D01*
X140297619Y-133120833D01*
X140250000Y-132977976D01*
X140154761Y-132882738D01*
X140059523Y-132835119D01*
X139869047Y-132787500D01*
X139726190Y-132787500D01*
X139535714Y-132835119D01*
X139440476Y-132882738D01*
X139345238Y-132977976D01*
X139297619Y-133120833D01*
X139297619Y-133216071D01*
X139345238Y-133358928D01*
X139392857Y-133406547D01*
X139726190Y-133406547D01*
X139726190Y-133216071D01*
X139202380Y-133597023D02*
X139202380Y-134358928D01*
X140250000Y-135120833D02*
X140297619Y-135025595D01*
X140297619Y-134882738D01*
X140250000Y-134739880D01*
X140154761Y-134644642D01*
X140059523Y-134597023D01*
X139869047Y-134549404D01*
X139726190Y-134549404D01*
X139535714Y-134597023D01*
X139440476Y-134644642D01*
X139345238Y-134739880D01*
X139297619Y-134882738D01*
X139297619Y-134977976D01*
X139345238Y-135120833D01*
X139392857Y-135168452D01*
X139726190Y-135168452D01*
X139726190Y-134977976D01*
X140297619Y-135787500D02*
X140297619Y-135977976D01*
X140250000Y-136073214D01*
X140154761Y-136168452D01*
X139964285Y-136216071D01*
X139630952Y-136216071D01*
X139440476Y-136168452D01*
X139345238Y-136073214D01*
X139297619Y-135977976D01*
X139297619Y-135787500D01*
X139345238Y-135692261D01*
X139440476Y-135597023D01*
X139630952Y-135549404D01*
X139964285Y-135549404D01*
X140154761Y-135597023D01*
X140250000Y-135692261D01*
X140297619Y-135787500D01*
X140297619Y-136835119D02*
X140297619Y-137025595D01*
X140250000Y-137120833D01*
X140154761Y-137216071D01*
X139964285Y-137263690D01*
X139630952Y-137263690D01*
X139440476Y-137216071D01*
X139345238Y-137120833D01*
X139297619Y-137025595D01*
X139297619Y-136835119D01*
X139345238Y-136739880D01*
X139440476Y-136644642D01*
X139630952Y-136597023D01*
X139964285Y-136597023D01*
X140154761Y-136644642D01*
X140250000Y-136739880D01*
X140297619Y-136835119D01*
X139297619Y-137692261D02*
X140297619Y-137692261D01*
X140297619Y-137930357D01*
X140250000Y-138073214D01*
X140154761Y-138168452D01*
X140059523Y-138216071D01*
X139869047Y-138263690D01*
X139726190Y-138263690D01*
X139535714Y-138216071D01*
X139440476Y-138168452D01*
X139345238Y-138073214D01*
X139297619Y-137930357D01*
X139297619Y-137692261D01*
X108877380Y-89284523D02*
X107877380Y-89284523D01*
X108591666Y-88951190D01*
X107877380Y-88617857D01*
X108877380Y-88617857D01*
X108877380Y-87617857D02*
X108877380Y-88189285D01*
X108877380Y-87903571D02*
X107877380Y-87903571D01*
X108020238Y-87998809D01*
X108115476Y-88094047D01*
X108163095Y-88189285D01*
%TO.C,U4*%
X121738095Y-126952380D02*
X121738095Y-127761904D01*
X121785714Y-127857142D01*
X121833333Y-127904761D01*
X121928571Y-127952380D01*
X122119047Y-127952380D01*
X122214285Y-127904761D01*
X122261904Y-127857142D01*
X122309523Y-127761904D01*
X122309523Y-126952380D01*
X123214285Y-127285714D02*
X123214285Y-127952380D01*
X122976190Y-126904761D02*
X122738095Y-127619047D01*
X123357142Y-127619047D01*
%TO.C,U3*%
X121738095Y-117452380D02*
X121738095Y-118261904D01*
X121785714Y-118357142D01*
X121833333Y-118404761D01*
X121928571Y-118452380D01*
X122119047Y-118452380D01*
X122214285Y-118404761D01*
X122261904Y-118357142D01*
X122309523Y-118261904D01*
X122309523Y-117452380D01*
X122690476Y-117452380D02*
X123309523Y-117452380D01*
X122976190Y-117833333D01*
X123119047Y-117833333D01*
X123214285Y-117880952D01*
X123261904Y-117928571D01*
X123309523Y-118023809D01*
X123309523Y-118261904D01*
X123261904Y-118357142D01*
X123214285Y-118404761D01*
X123119047Y-118452380D01*
X122833333Y-118452380D01*
X122738095Y-118404761D01*
X122690476Y-118357142D01*
%TO.C,U2*%
X121488095Y-108952380D02*
X121488095Y-109761904D01*
X121535714Y-109857142D01*
X121583333Y-109904761D01*
X121678571Y-109952380D01*
X121869047Y-109952380D01*
X121964285Y-109904761D01*
X122011904Y-109857142D01*
X122059523Y-109761904D01*
X122059523Y-108952380D01*
X122488095Y-109047619D02*
X122535714Y-109000000D01*
X122630952Y-108952380D01*
X122869047Y-108952380D01*
X122964285Y-109000000D01*
X123011904Y-109047619D01*
X123059523Y-109142857D01*
X123059523Y-109238095D01*
X123011904Y-109380952D01*
X122440476Y-109952380D01*
X123059523Y-109952380D01*
%TO.C,U1*%
X121738095Y-98702380D02*
X121738095Y-99511904D01*
X121785714Y-99607142D01*
X121833333Y-99654761D01*
X121928571Y-99702380D01*
X122119047Y-99702380D01*
X122214285Y-99654761D01*
X122261904Y-99607142D01*
X122309523Y-99511904D01*
X122309523Y-98702380D01*
X123309523Y-99702380D02*
X122738095Y-99702380D01*
X123023809Y-99702380D02*
X123023809Y-98702380D01*
X122928571Y-98845238D01*
X122833333Y-98940476D01*
X122738095Y-98988095D01*
%TO.C,U10*%
X122952380Y-144238095D02*
X123761904Y-144238095D01*
X123857142Y-144190476D01*
X123904761Y-144142857D01*
X123952380Y-144047619D01*
X123952380Y-143857142D01*
X123904761Y-143761904D01*
X123857142Y-143714285D01*
X123761904Y-143666666D01*
X122952380Y-143666666D01*
X123952380Y-142666666D02*
X123952380Y-143238095D01*
X123952380Y-142952380D02*
X122952380Y-142952380D01*
X123095238Y-143047619D01*
X123190476Y-143142857D01*
X123238095Y-143238095D01*
X122952380Y-142047619D02*
X122952380Y-141952380D01*
X123000000Y-141857142D01*
X123047619Y-141809523D01*
X123142857Y-141761904D01*
X123333333Y-141714285D01*
X123571428Y-141714285D01*
X123761904Y-141761904D01*
X123857142Y-141809523D01*
X123904761Y-141857142D01*
X123952380Y-141952380D01*
X123952380Y-142047619D01*
X123904761Y-142142857D01*
X123857142Y-142190476D01*
X123761904Y-142238095D01*
X123571428Y-142285714D01*
X123333333Y-142285714D01*
X123142857Y-142238095D01*
X123047619Y-142190476D01*
X123000000Y-142142857D01*
X122952380Y-142047619D01*
%TO.C,C2*%
X131583333Y-125107142D02*
X131535714Y-125154761D01*
X131392857Y-125202380D01*
X131297619Y-125202380D01*
X131154761Y-125154761D01*
X131059523Y-125059523D01*
X131011904Y-124964285D01*
X130964285Y-124773809D01*
X130964285Y-124630952D01*
X131011904Y-124440476D01*
X131059523Y-124345238D01*
X131154761Y-124250000D01*
X131297619Y-124202380D01*
X131392857Y-124202380D01*
X131535714Y-124250000D01*
X131583333Y-124297619D01*
X131964285Y-124297619D02*
X132011904Y-124250000D01*
X132107142Y-124202380D01*
X132345238Y-124202380D01*
X132440476Y-124250000D01*
X132488095Y-124297619D01*
X132535714Y-124392857D01*
X132535714Y-124488095D01*
X132488095Y-124630952D01*
X131916666Y-125202380D01*
X132535714Y-125202380D01*
%TO.C,R23*%
X137607142Y-105052380D02*
X137273809Y-104576190D01*
X137035714Y-105052380D02*
X137035714Y-104052380D01*
X137416666Y-104052380D01*
X137511904Y-104100000D01*
X137559523Y-104147619D01*
X137607142Y-104242857D01*
X137607142Y-104385714D01*
X137559523Y-104480952D01*
X137511904Y-104528571D01*
X137416666Y-104576190D01*
X137035714Y-104576190D01*
X137988095Y-104147619D02*
X138035714Y-104100000D01*
X138130952Y-104052380D01*
X138369047Y-104052380D01*
X138464285Y-104100000D01*
X138511904Y-104147619D01*
X138559523Y-104242857D01*
X138559523Y-104338095D01*
X138511904Y-104480952D01*
X137940476Y-105052380D01*
X138559523Y-105052380D01*
X138892857Y-104052380D02*
X139511904Y-104052380D01*
X139178571Y-104433333D01*
X139321428Y-104433333D01*
X139416666Y-104480952D01*
X139464285Y-104528571D01*
X139511904Y-104623809D01*
X139511904Y-104861904D01*
X139464285Y-104957142D01*
X139416666Y-105004761D01*
X139321428Y-105052380D01*
X139035714Y-105052380D01*
X138940476Y-105004761D01*
X138892857Y-104957142D01*
%TO.C,C1*%
X128083333Y-125107142D02*
X128035714Y-125154761D01*
X127892857Y-125202380D01*
X127797619Y-125202380D01*
X127654761Y-125154761D01*
X127559523Y-125059523D01*
X127511904Y-124964285D01*
X127464285Y-124773809D01*
X127464285Y-124630952D01*
X127511904Y-124440476D01*
X127559523Y-124345238D01*
X127654761Y-124250000D01*
X127797619Y-124202380D01*
X127892857Y-124202380D01*
X128035714Y-124250000D01*
X128083333Y-124297619D01*
X129035714Y-125202380D02*
X128464285Y-125202380D01*
X128750000Y-125202380D02*
X128750000Y-124202380D01*
X128654761Y-124345238D01*
X128559523Y-124440476D01*
X128464285Y-124488095D01*
%TO.C,C9*%
X133583333Y-104857142D02*
X133535714Y-104904761D01*
X133392857Y-104952380D01*
X133297619Y-104952380D01*
X133154761Y-104904761D01*
X133059523Y-104809523D01*
X133011904Y-104714285D01*
X132964285Y-104523809D01*
X132964285Y-104380952D01*
X133011904Y-104190476D01*
X133059523Y-104095238D01*
X133154761Y-104000000D01*
X133297619Y-103952380D01*
X133392857Y-103952380D01*
X133535714Y-104000000D01*
X133583333Y-104047619D01*
X134059523Y-104952380D02*
X134250000Y-104952380D01*
X134345238Y-104904761D01*
X134392857Y-104857142D01*
X134488095Y-104714285D01*
X134535714Y-104523809D01*
X134535714Y-104142857D01*
X134488095Y-104047619D01*
X134440476Y-104000000D01*
X134345238Y-103952380D01*
X134154761Y-103952380D01*
X134059523Y-104000000D01*
X134011904Y-104047619D01*
X133964285Y-104142857D01*
X133964285Y-104380952D01*
X134011904Y-104476190D01*
X134059523Y-104523809D01*
X134154761Y-104571428D01*
X134345238Y-104571428D01*
X134440476Y-104523809D01*
X134488095Y-104476190D01*
X134535714Y-104380952D01*
%TO.C,R3*%
X124522380Y-96166666D02*
X124046190Y-96500000D01*
X124522380Y-96738095D02*
X123522380Y-96738095D01*
X123522380Y-96357142D01*
X123570000Y-96261904D01*
X123617619Y-96214285D01*
X123712857Y-96166666D01*
X123855714Y-96166666D01*
X123950952Y-96214285D01*
X123998571Y-96261904D01*
X124046190Y-96357142D01*
X124046190Y-96738095D01*
X123522380Y-95833333D02*
X123522380Y-95214285D01*
X123903333Y-95547619D01*
X123903333Y-95404761D01*
X123950952Y-95309523D01*
X123998571Y-95261904D01*
X124093809Y-95214285D01*
X124331904Y-95214285D01*
X124427142Y-95261904D01*
X124474761Y-95309523D01*
X124522380Y-95404761D01*
X124522380Y-95690476D01*
X124474761Y-95785714D01*
X124427142Y-95833333D01*
%TO.C,R14*%
X126857142Y-117952380D02*
X126523809Y-117476190D01*
X126285714Y-117952380D02*
X126285714Y-116952380D01*
X126666666Y-116952380D01*
X126761904Y-117000000D01*
X126809523Y-117047619D01*
X126857142Y-117142857D01*
X126857142Y-117285714D01*
X126809523Y-117380952D01*
X126761904Y-117428571D01*
X126666666Y-117476190D01*
X126285714Y-117476190D01*
X127809523Y-117952380D02*
X127238095Y-117952380D01*
X127523809Y-117952380D02*
X127523809Y-116952380D01*
X127428571Y-117095238D01*
X127333333Y-117190476D01*
X127238095Y-117238095D01*
X128666666Y-117285714D02*
X128666666Y-117952380D01*
X128428571Y-116904761D02*
X128190476Y-117619047D01*
X128809523Y-117619047D01*
%TO.C,R27*%
X133107142Y-101552380D02*
X132773809Y-101076190D01*
X132535714Y-101552380D02*
X132535714Y-100552380D01*
X132916666Y-100552380D01*
X133011904Y-100600000D01*
X133059523Y-100647619D01*
X133107142Y-100742857D01*
X133107142Y-100885714D01*
X133059523Y-100980952D01*
X133011904Y-101028571D01*
X132916666Y-101076190D01*
X132535714Y-101076190D01*
X133488095Y-100647619D02*
X133535714Y-100600000D01*
X133630952Y-100552380D01*
X133869047Y-100552380D01*
X133964285Y-100600000D01*
X134011904Y-100647619D01*
X134059523Y-100742857D01*
X134059523Y-100838095D01*
X134011904Y-100980952D01*
X133440476Y-101552380D01*
X134059523Y-101552380D01*
X134392857Y-100552380D02*
X135059523Y-100552380D01*
X134630952Y-101552380D01*
%TO.C,D1*%
X136952380Y-135988095D02*
X135952380Y-135988095D01*
X135952380Y-135750000D01*
X136000000Y-135607142D01*
X136095238Y-135511904D01*
X136190476Y-135464285D01*
X136380952Y-135416666D01*
X136523809Y-135416666D01*
X136714285Y-135464285D01*
X136809523Y-135511904D01*
X136904761Y-135607142D01*
X136952380Y-135750000D01*
X136952380Y-135988095D01*
X136952380Y-134464285D02*
X136952380Y-135035714D01*
X136952380Y-134750000D02*
X135952380Y-134750000D01*
X136095238Y-134845238D01*
X136190476Y-134940476D01*
X136238095Y-135035714D01*
%TO.C,R15*%
X126857142Y-121452380D02*
X126523809Y-120976190D01*
X126285714Y-121452380D02*
X126285714Y-120452380D01*
X126666666Y-120452380D01*
X126761904Y-120500000D01*
X126809523Y-120547619D01*
X126857142Y-120642857D01*
X126857142Y-120785714D01*
X126809523Y-120880952D01*
X126761904Y-120928571D01*
X126666666Y-120976190D01*
X126285714Y-120976190D01*
X127809523Y-121452380D02*
X127238095Y-121452380D01*
X127523809Y-121452380D02*
X127523809Y-120452380D01*
X127428571Y-120595238D01*
X127333333Y-120690476D01*
X127238095Y-120738095D01*
X128714285Y-120452380D02*
X128238095Y-120452380D01*
X128190476Y-120928571D01*
X128238095Y-120880952D01*
X128333333Y-120833333D01*
X128571428Y-120833333D01*
X128666666Y-120880952D01*
X128714285Y-120928571D01*
X128761904Y-121023809D01*
X128761904Y-121261904D01*
X128714285Y-121357142D01*
X128666666Y-121404761D01*
X128571428Y-121452380D01*
X128333333Y-121452380D01*
X128238095Y-121404761D01*
X128190476Y-121357142D01*
%TO.C,R12*%
X126857142Y-110952380D02*
X126523809Y-110476190D01*
X126285714Y-110952380D02*
X126285714Y-109952380D01*
X126666666Y-109952380D01*
X126761904Y-110000000D01*
X126809523Y-110047619D01*
X126857142Y-110142857D01*
X126857142Y-110285714D01*
X126809523Y-110380952D01*
X126761904Y-110428571D01*
X126666666Y-110476190D01*
X126285714Y-110476190D01*
X127809523Y-110952380D02*
X127238095Y-110952380D01*
X127523809Y-110952380D02*
X127523809Y-109952380D01*
X127428571Y-110095238D01*
X127333333Y-110190476D01*
X127238095Y-110238095D01*
X128190476Y-110047619D02*
X128238095Y-110000000D01*
X128333333Y-109952380D01*
X128571428Y-109952380D01*
X128666666Y-110000000D01*
X128714285Y-110047619D01*
X128761904Y-110142857D01*
X128761904Y-110238095D01*
X128714285Y-110380952D01*
X128142857Y-110952380D01*
X128761904Y-110952380D01*
%TO.C,C4*%
X110607142Y-105666666D02*
X110654761Y-105714285D01*
X110702380Y-105857142D01*
X110702380Y-105952380D01*
X110654761Y-106095238D01*
X110559523Y-106190476D01*
X110464285Y-106238095D01*
X110273809Y-106285714D01*
X110130952Y-106285714D01*
X109940476Y-106238095D01*
X109845238Y-106190476D01*
X109750000Y-106095238D01*
X109702380Y-105952380D01*
X109702380Y-105857142D01*
X109750000Y-105714285D01*
X109797619Y-105666666D01*
X110035714Y-104809523D02*
X110702380Y-104809523D01*
X109654761Y-105047619D02*
X110369047Y-105285714D01*
X110369047Y-104666666D01*
%TO.C,C5*%
X110607142Y-115166666D02*
X110654761Y-115214285D01*
X110702380Y-115357142D01*
X110702380Y-115452380D01*
X110654761Y-115595238D01*
X110559523Y-115690476D01*
X110464285Y-115738095D01*
X110273809Y-115785714D01*
X110130952Y-115785714D01*
X109940476Y-115738095D01*
X109845238Y-115690476D01*
X109750000Y-115595238D01*
X109702380Y-115452380D01*
X109702380Y-115357142D01*
X109750000Y-115214285D01*
X109797619Y-115166666D01*
X109702380Y-114261904D02*
X109702380Y-114738095D01*
X110178571Y-114785714D01*
X110130952Y-114738095D01*
X110083333Y-114642857D01*
X110083333Y-114404761D01*
X110130952Y-114309523D01*
X110178571Y-114261904D01*
X110273809Y-114214285D01*
X110511904Y-114214285D01*
X110607142Y-114261904D01*
X110654761Y-114309523D01*
X110702380Y-114404761D01*
X110702380Y-114642857D01*
X110654761Y-114738095D01*
X110607142Y-114785714D01*
%TO.C,J14*%
X139962380Y-89309523D02*
X140676666Y-89309523D01*
X140819523Y-89357142D01*
X140914761Y-89452380D01*
X140962380Y-89595238D01*
X140962380Y-89690476D01*
X140962380Y-88309523D02*
X140962380Y-88880952D01*
X140962380Y-88595238D02*
X139962380Y-88595238D01*
X140105238Y-88690476D01*
X140200476Y-88785714D01*
X140248095Y-88880952D01*
X140295714Y-87452380D02*
X140962380Y-87452380D01*
X139914761Y-87690476D02*
X140629047Y-87928571D01*
X140629047Y-87309523D01*
%TO.C,R22*%
X137607142Y-101552380D02*
X137273809Y-101076190D01*
X137035714Y-101552380D02*
X137035714Y-100552380D01*
X137416666Y-100552380D01*
X137511904Y-100600000D01*
X137559523Y-100647619D01*
X137607142Y-100742857D01*
X137607142Y-100885714D01*
X137559523Y-100980952D01*
X137511904Y-101028571D01*
X137416666Y-101076190D01*
X137035714Y-101076190D01*
X137988095Y-100647619D02*
X138035714Y-100600000D01*
X138130952Y-100552380D01*
X138369047Y-100552380D01*
X138464285Y-100600000D01*
X138511904Y-100647619D01*
X138559523Y-100742857D01*
X138559523Y-100838095D01*
X138511904Y-100980952D01*
X137940476Y-101552380D01*
X138559523Y-101552380D01*
X138940476Y-100647619D02*
X138988095Y-100600000D01*
X139083333Y-100552380D01*
X139321428Y-100552380D01*
X139416666Y-100600000D01*
X139464285Y-100647619D01*
X139511904Y-100742857D01*
X139511904Y-100838095D01*
X139464285Y-100980952D01*
X138892857Y-101552380D01*
X139511904Y-101552380D01*
%TO.C,R4*%
X124522380Y-105666666D02*
X124046190Y-106000000D01*
X124522380Y-106238095D02*
X123522380Y-106238095D01*
X123522380Y-105857142D01*
X123570000Y-105761904D01*
X123617619Y-105714285D01*
X123712857Y-105666666D01*
X123855714Y-105666666D01*
X123950952Y-105714285D01*
X123998571Y-105761904D01*
X124046190Y-105857142D01*
X124046190Y-106238095D01*
X123855714Y-104809523D02*
X124522380Y-104809523D01*
X123474761Y-105047619D02*
X124189047Y-105285714D01*
X124189047Y-104666666D01*
%TO.C,D6*%
X118511904Y-120202380D02*
X118511904Y-119202380D01*
X118750000Y-119202380D01*
X118892857Y-119250000D01*
X118988095Y-119345238D01*
X119035714Y-119440476D01*
X119083333Y-119630952D01*
X119083333Y-119773809D01*
X119035714Y-119964285D01*
X118988095Y-120059523D01*
X118892857Y-120154761D01*
X118750000Y-120202380D01*
X118511904Y-120202380D01*
X119940476Y-119202380D02*
X119750000Y-119202380D01*
X119654761Y-119250000D01*
X119607142Y-119297619D01*
X119511904Y-119440476D01*
X119464285Y-119630952D01*
X119464285Y-120011904D01*
X119511904Y-120107142D01*
X119559523Y-120154761D01*
X119654761Y-120202380D01*
X119845238Y-120202380D01*
X119940476Y-120154761D01*
X119988095Y-120107142D01*
X120035714Y-120011904D01*
X120035714Y-119773809D01*
X119988095Y-119678571D01*
X119940476Y-119630952D01*
X119845238Y-119583333D01*
X119654761Y-119583333D01*
X119559523Y-119630952D01*
X119511904Y-119678571D01*
X119464285Y-119773809D01*
%TO.C,J3*%
X125722380Y-88833333D02*
X126436666Y-88833333D01*
X126579523Y-88880952D01*
X126674761Y-88976190D01*
X126722380Y-89119047D01*
X126722380Y-89214285D01*
X125722380Y-88452380D02*
X125722380Y-87833333D01*
X126103333Y-88166666D01*
X126103333Y-88023809D01*
X126150952Y-87928571D01*
X126198571Y-87880952D01*
X126293809Y-87833333D01*
X126531904Y-87833333D01*
X126627142Y-87880952D01*
X126674761Y-87928571D01*
X126722380Y-88023809D01*
X126722380Y-88309523D01*
X126674761Y-88404761D01*
X126627142Y-88452380D01*
%TO.C,R13*%
X126857142Y-114452380D02*
X126523809Y-113976190D01*
X126285714Y-114452380D02*
X126285714Y-113452380D01*
X126666666Y-113452380D01*
X126761904Y-113500000D01*
X126809523Y-113547619D01*
X126857142Y-113642857D01*
X126857142Y-113785714D01*
X126809523Y-113880952D01*
X126761904Y-113928571D01*
X126666666Y-113976190D01*
X126285714Y-113976190D01*
X127809523Y-114452380D02*
X127238095Y-114452380D01*
X127523809Y-114452380D02*
X127523809Y-113452380D01*
X127428571Y-113595238D01*
X127333333Y-113690476D01*
X127238095Y-113738095D01*
X128142857Y-113452380D02*
X128761904Y-113452380D01*
X128428571Y-113833333D01*
X128571428Y-113833333D01*
X128666666Y-113880952D01*
X128714285Y-113928571D01*
X128761904Y-114023809D01*
X128761904Y-114261904D01*
X128714285Y-114357142D01*
X128666666Y-114404761D01*
X128571428Y-114452380D01*
X128285714Y-114452380D01*
X128190476Y-114404761D01*
X128142857Y-114357142D01*
%TO.C,C6*%
X110607142Y-124666666D02*
X110654761Y-124714285D01*
X110702380Y-124857142D01*
X110702380Y-124952380D01*
X110654761Y-125095238D01*
X110559523Y-125190476D01*
X110464285Y-125238095D01*
X110273809Y-125285714D01*
X110130952Y-125285714D01*
X109940476Y-125238095D01*
X109845238Y-125190476D01*
X109750000Y-125095238D01*
X109702380Y-124952380D01*
X109702380Y-124857142D01*
X109750000Y-124714285D01*
X109797619Y-124666666D01*
X109702380Y-123809523D02*
X109702380Y-124000000D01*
X109750000Y-124095238D01*
X109797619Y-124142857D01*
X109940476Y-124238095D01*
X110130952Y-124285714D01*
X110511904Y-124285714D01*
X110607142Y-124238095D01*
X110654761Y-124190476D01*
X110702380Y-124095238D01*
X110702380Y-123904761D01*
X110654761Y-123809523D01*
X110607142Y-123761904D01*
X110511904Y-123714285D01*
X110273809Y-123714285D01*
X110178571Y-123761904D01*
X110130952Y-123809523D01*
X110083333Y-123904761D01*
X110083333Y-124095238D01*
X110130952Y-124190476D01*
X110178571Y-124238095D01*
X110273809Y-124285714D01*
%TO.C,U5*%
X164488095Y-89452380D02*
X164488095Y-90261904D01*
X164535714Y-90357142D01*
X164583333Y-90404761D01*
X164678571Y-90452380D01*
X164869047Y-90452380D01*
X164964285Y-90404761D01*
X165011904Y-90357142D01*
X165059523Y-90261904D01*
X165059523Y-89452380D01*
X166011904Y-89452380D02*
X165535714Y-89452380D01*
X165488095Y-89928571D01*
X165535714Y-89880952D01*
X165630952Y-89833333D01*
X165869047Y-89833333D01*
X165964285Y-89880952D01*
X166011904Y-89928571D01*
X166059523Y-90023809D01*
X166059523Y-90261904D01*
X166011904Y-90357142D01*
X165964285Y-90404761D01*
X165869047Y-90452380D01*
X165630952Y-90452380D01*
X165535714Y-90404761D01*
X165488095Y-90357142D01*
%TO.C,R25*%
X114607142Y-120202380D02*
X114273809Y-119726190D01*
X114035714Y-120202380D02*
X114035714Y-119202380D01*
X114416666Y-119202380D01*
X114511904Y-119250000D01*
X114559523Y-119297619D01*
X114607142Y-119392857D01*
X114607142Y-119535714D01*
X114559523Y-119630952D01*
X114511904Y-119678571D01*
X114416666Y-119726190D01*
X114035714Y-119726190D01*
X114988095Y-119297619D02*
X115035714Y-119250000D01*
X115130952Y-119202380D01*
X115369047Y-119202380D01*
X115464285Y-119250000D01*
X115511904Y-119297619D01*
X115559523Y-119392857D01*
X115559523Y-119488095D01*
X115511904Y-119630952D01*
X114940476Y-120202380D01*
X115559523Y-120202380D01*
X116464285Y-119202380D02*
X115988095Y-119202380D01*
X115940476Y-119678571D01*
X115988095Y-119630952D01*
X116083333Y-119583333D01*
X116321428Y-119583333D01*
X116416666Y-119630952D01*
X116464285Y-119678571D01*
X116511904Y-119773809D01*
X116511904Y-120011904D01*
X116464285Y-120107142D01*
X116416666Y-120154761D01*
X116321428Y-120202380D01*
X116083333Y-120202380D01*
X115988095Y-120154761D01*
X115940476Y-120107142D01*
%TO.C,D4*%
X118511904Y-101202380D02*
X118511904Y-100202380D01*
X118750000Y-100202380D01*
X118892857Y-100250000D01*
X118988095Y-100345238D01*
X119035714Y-100440476D01*
X119083333Y-100630952D01*
X119083333Y-100773809D01*
X119035714Y-100964285D01*
X118988095Y-101059523D01*
X118892857Y-101154761D01*
X118750000Y-101202380D01*
X118511904Y-101202380D01*
X119940476Y-100535714D02*
X119940476Y-101202380D01*
X119702380Y-100154761D02*
X119464285Y-100869047D01*
X120083333Y-100869047D01*
%TO.C,J5*%
X125722380Y-80808333D02*
X126436666Y-80808333D01*
X126579523Y-80855952D01*
X126674761Y-80951190D01*
X126722380Y-81094047D01*
X126722380Y-81189285D01*
X125722380Y-79855952D02*
X125722380Y-80332142D01*
X126198571Y-80379761D01*
X126150952Y-80332142D01*
X126103333Y-80236904D01*
X126103333Y-79998809D01*
X126150952Y-79903571D01*
X126198571Y-79855952D01*
X126293809Y-79808333D01*
X126531904Y-79808333D01*
X126627142Y-79855952D01*
X126674761Y-79903571D01*
X126722380Y-79998809D01*
X126722380Y-80236904D01*
X126674761Y-80332142D01*
X126627142Y-80379761D01*
%TO.C,R5*%
X124522380Y-115166666D02*
X124046190Y-115500000D01*
X124522380Y-115738095D02*
X123522380Y-115738095D01*
X123522380Y-115357142D01*
X123570000Y-115261904D01*
X123617619Y-115214285D01*
X123712857Y-115166666D01*
X123855714Y-115166666D01*
X123950952Y-115214285D01*
X123998571Y-115261904D01*
X124046190Y-115357142D01*
X124046190Y-115738095D01*
X123522380Y-114261904D02*
X123522380Y-114738095D01*
X123998571Y-114785714D01*
X123950952Y-114738095D01*
X123903333Y-114642857D01*
X123903333Y-114404761D01*
X123950952Y-114309523D01*
X123998571Y-114261904D01*
X124093809Y-114214285D01*
X124331904Y-114214285D01*
X124427142Y-114261904D01*
X124474761Y-114309523D01*
X124522380Y-114404761D01*
X124522380Y-114642857D01*
X124474761Y-114738095D01*
X124427142Y-114785714D01*
%TO.C,D9*%
X146011904Y-144452380D02*
X146011904Y-143452380D01*
X146250000Y-143452380D01*
X146392857Y-143500000D01*
X146488095Y-143595238D01*
X146535714Y-143690476D01*
X146583333Y-143880952D01*
X146583333Y-144023809D01*
X146535714Y-144214285D01*
X146488095Y-144309523D01*
X146392857Y-144404761D01*
X146250000Y-144452380D01*
X146011904Y-144452380D01*
X147059523Y-144452380D02*
X147250000Y-144452380D01*
X147345238Y-144404761D01*
X147392857Y-144357142D01*
X147488095Y-144214285D01*
X147535714Y-144023809D01*
X147535714Y-143642857D01*
X147488095Y-143547619D01*
X147440476Y-143500000D01*
X147345238Y-143452380D01*
X147154761Y-143452380D01*
X147059523Y-143500000D01*
X147011904Y-143547619D01*
X146964285Y-143642857D01*
X146964285Y-143880952D01*
X147011904Y-143976190D01*
X147059523Y-144023809D01*
X147154761Y-144071428D01*
X147345238Y-144071428D01*
X147440476Y-144023809D01*
X147488095Y-143976190D01*
X147535714Y-143880952D01*
%TO.C,R24*%
X137607142Y-98052380D02*
X137273809Y-97576190D01*
X137035714Y-98052380D02*
X137035714Y-97052380D01*
X137416666Y-97052380D01*
X137511904Y-97100000D01*
X137559523Y-97147619D01*
X137607142Y-97242857D01*
X137607142Y-97385714D01*
X137559523Y-97480952D01*
X137511904Y-97528571D01*
X137416666Y-97576190D01*
X137035714Y-97576190D01*
X137988095Y-97147619D02*
X138035714Y-97100000D01*
X138130952Y-97052380D01*
X138369047Y-97052380D01*
X138464285Y-97100000D01*
X138511904Y-97147619D01*
X138559523Y-97242857D01*
X138559523Y-97338095D01*
X138511904Y-97480952D01*
X137940476Y-98052380D01*
X138559523Y-98052380D01*
X139416666Y-97385714D02*
X139416666Y-98052380D01*
X139178571Y-97004761D02*
X138940476Y-97719047D01*
X139559523Y-97719047D01*
%TO.C,R19*%
X114607142Y-91702380D02*
X114273809Y-91226190D01*
X114035714Y-91702380D02*
X114035714Y-90702380D01*
X114416666Y-90702380D01*
X114511904Y-90750000D01*
X114559523Y-90797619D01*
X114607142Y-90892857D01*
X114607142Y-91035714D01*
X114559523Y-91130952D01*
X114511904Y-91178571D01*
X114416666Y-91226190D01*
X114035714Y-91226190D01*
X115559523Y-91702380D02*
X114988095Y-91702380D01*
X115273809Y-91702380D02*
X115273809Y-90702380D01*
X115178571Y-90845238D01*
X115083333Y-90940476D01*
X114988095Y-90988095D01*
X116035714Y-91702380D02*
X116226190Y-91702380D01*
X116321428Y-91654761D01*
X116369047Y-91607142D01*
X116464285Y-91464285D01*
X116511904Y-91273809D01*
X116511904Y-90892857D01*
X116464285Y-90797619D01*
X116416666Y-90750000D01*
X116321428Y-90702380D01*
X116130952Y-90702380D01*
X116035714Y-90750000D01*
X115988095Y-90797619D01*
X115940476Y-90892857D01*
X115940476Y-91130952D01*
X115988095Y-91226190D01*
X116035714Y-91273809D01*
X116130952Y-91321428D01*
X116321428Y-91321428D01*
X116416666Y-91273809D01*
X116464285Y-91226190D01*
X116511904Y-91130952D01*
%TO.C,J10*%
X110952380Y-143809523D02*
X111666666Y-143809523D01*
X111809523Y-143857142D01*
X111904761Y-143952380D01*
X111952380Y-144095238D01*
X111952380Y-144190476D01*
X111952380Y-142809523D02*
X111952380Y-143380952D01*
X111952380Y-143095238D02*
X110952380Y-143095238D01*
X111095238Y-143190476D01*
X111190476Y-143285714D01*
X111238095Y-143380952D01*
X110952380Y-142190476D02*
X110952380Y-142095238D01*
X111000000Y-142000000D01*
X111047619Y-141952380D01*
X111142857Y-141904761D01*
X111333333Y-141857142D01*
X111571428Y-141857142D01*
X111761904Y-141904761D01*
X111857142Y-141952380D01*
X111904761Y-142000000D01*
X111952380Y-142095238D01*
X111952380Y-142190476D01*
X111904761Y-142285714D01*
X111857142Y-142333333D01*
X111761904Y-142380952D01*
X111571428Y-142428571D01*
X111333333Y-142428571D01*
X111142857Y-142380952D01*
X111047619Y-142333333D01*
X111000000Y-142285714D01*
X110952380Y-142190476D01*
%TO.C,R7*%
X127333333Y-100452380D02*
X127000000Y-99976190D01*
X126761904Y-100452380D02*
X126761904Y-99452380D01*
X127142857Y-99452380D01*
X127238095Y-99500000D01*
X127285714Y-99547619D01*
X127333333Y-99642857D01*
X127333333Y-99785714D01*
X127285714Y-99880952D01*
X127238095Y-99928571D01*
X127142857Y-99976190D01*
X126761904Y-99976190D01*
X127666666Y-99452380D02*
X128333333Y-99452380D01*
X127904761Y-100452380D01*
%TO.C,D2*%
X118461904Y-91702380D02*
X118461904Y-90702380D01*
X118700000Y-90702380D01*
X118842857Y-90750000D01*
X118938095Y-90845238D01*
X118985714Y-90940476D01*
X119033333Y-91130952D01*
X119033333Y-91273809D01*
X118985714Y-91464285D01*
X118938095Y-91559523D01*
X118842857Y-91654761D01*
X118700000Y-91702380D01*
X118461904Y-91702380D01*
X119414285Y-90797619D02*
X119461904Y-90750000D01*
X119557142Y-90702380D01*
X119795238Y-90702380D01*
X119890476Y-90750000D01*
X119938095Y-90797619D01*
X119985714Y-90892857D01*
X119985714Y-90988095D01*
X119938095Y-91130952D01*
X119366666Y-91702380D01*
X119985714Y-91702380D01*
%TO.C,R20*%
X114607142Y-101202380D02*
X114273809Y-100726190D01*
X114035714Y-101202380D02*
X114035714Y-100202380D01*
X114416666Y-100202380D01*
X114511904Y-100250000D01*
X114559523Y-100297619D01*
X114607142Y-100392857D01*
X114607142Y-100535714D01*
X114559523Y-100630952D01*
X114511904Y-100678571D01*
X114416666Y-100726190D01*
X114035714Y-100726190D01*
X114988095Y-100297619D02*
X115035714Y-100250000D01*
X115130952Y-100202380D01*
X115369047Y-100202380D01*
X115464285Y-100250000D01*
X115511904Y-100297619D01*
X115559523Y-100392857D01*
X115559523Y-100488095D01*
X115511904Y-100630952D01*
X114940476Y-101202380D01*
X115559523Y-101202380D01*
X116178571Y-100202380D02*
X116273809Y-100202380D01*
X116369047Y-100250000D01*
X116416666Y-100297619D01*
X116464285Y-100392857D01*
X116511904Y-100583333D01*
X116511904Y-100821428D01*
X116464285Y-101011904D01*
X116416666Y-101107142D01*
X116369047Y-101154761D01*
X116273809Y-101202380D01*
X116178571Y-101202380D01*
X116083333Y-101154761D01*
X116035714Y-101107142D01*
X115988095Y-101011904D01*
X115940476Y-100821428D01*
X115940476Y-100583333D01*
X115988095Y-100392857D01*
X116035714Y-100297619D01*
X116083333Y-100250000D01*
X116178571Y-100202380D01*
%TO.C,D5*%
X118511904Y-110702380D02*
X118511904Y-109702380D01*
X118750000Y-109702380D01*
X118892857Y-109750000D01*
X118988095Y-109845238D01*
X119035714Y-109940476D01*
X119083333Y-110130952D01*
X119083333Y-110273809D01*
X119035714Y-110464285D01*
X118988095Y-110559523D01*
X118892857Y-110654761D01*
X118750000Y-110702380D01*
X118511904Y-110702380D01*
X119988095Y-109702380D02*
X119511904Y-109702380D01*
X119464285Y-110178571D01*
X119511904Y-110130952D01*
X119607142Y-110083333D01*
X119845238Y-110083333D01*
X119940476Y-110130952D01*
X119988095Y-110178571D01*
X120035714Y-110273809D01*
X120035714Y-110511904D01*
X119988095Y-110607142D01*
X119940476Y-110654761D01*
X119845238Y-110702380D01*
X119607142Y-110702380D01*
X119511904Y-110654761D01*
X119464285Y-110607142D01*
%TO.C,R8*%
X127333333Y-103952380D02*
X127000000Y-103476190D01*
X126761904Y-103952380D02*
X126761904Y-102952380D01*
X127142857Y-102952380D01*
X127238095Y-103000000D01*
X127285714Y-103047619D01*
X127333333Y-103142857D01*
X127333333Y-103285714D01*
X127285714Y-103380952D01*
X127238095Y-103428571D01*
X127142857Y-103476190D01*
X126761904Y-103476190D01*
X127904761Y-103380952D02*
X127809523Y-103333333D01*
X127761904Y-103285714D01*
X127714285Y-103190476D01*
X127714285Y-103142857D01*
X127761904Y-103047619D01*
X127809523Y-103000000D01*
X127904761Y-102952380D01*
X128095238Y-102952380D01*
X128190476Y-103000000D01*
X128238095Y-103047619D01*
X128285714Y-103142857D01*
X128285714Y-103190476D01*
X128238095Y-103285714D01*
X128190476Y-103333333D01*
X128095238Y-103380952D01*
X127904761Y-103380952D01*
X127809523Y-103428571D01*
X127761904Y-103476190D01*
X127714285Y-103571428D01*
X127714285Y-103761904D01*
X127761904Y-103857142D01*
X127809523Y-103904761D01*
X127904761Y-103952380D01*
X128095238Y-103952380D01*
X128190476Y-103904761D01*
X128238095Y-103857142D01*
X128285714Y-103761904D01*
X128285714Y-103571428D01*
X128238095Y-103476190D01*
X128190476Y-103428571D01*
X128095238Y-103380952D01*
%TO.C,R11*%
X126857142Y-107452380D02*
X126523809Y-106976190D01*
X126285714Y-107452380D02*
X126285714Y-106452380D01*
X126666666Y-106452380D01*
X126761904Y-106500000D01*
X126809523Y-106547619D01*
X126857142Y-106642857D01*
X126857142Y-106785714D01*
X126809523Y-106880952D01*
X126761904Y-106928571D01*
X126666666Y-106976190D01*
X126285714Y-106976190D01*
X127809523Y-107452380D02*
X127238095Y-107452380D01*
X127523809Y-107452380D02*
X127523809Y-106452380D01*
X127428571Y-106595238D01*
X127333333Y-106690476D01*
X127238095Y-106738095D01*
X128761904Y-107452380D02*
X128190476Y-107452380D01*
X128476190Y-107452380D02*
X128476190Y-106452380D01*
X128380952Y-106595238D01*
X128285714Y-106690476D01*
X128190476Y-106738095D01*
%TO.C,D8*%
X133011904Y-98202380D02*
X133011904Y-97202380D01*
X133250000Y-97202380D01*
X133392857Y-97250000D01*
X133488095Y-97345238D01*
X133535714Y-97440476D01*
X133583333Y-97630952D01*
X133583333Y-97773809D01*
X133535714Y-97964285D01*
X133488095Y-98059523D01*
X133392857Y-98154761D01*
X133250000Y-98202380D01*
X133011904Y-98202380D01*
X134154761Y-97630952D02*
X134059523Y-97583333D01*
X134011904Y-97535714D01*
X133964285Y-97440476D01*
X133964285Y-97392857D01*
X134011904Y-97297619D01*
X134059523Y-97250000D01*
X134154761Y-97202380D01*
X134345238Y-97202380D01*
X134440476Y-97250000D01*
X134488095Y-97297619D01*
X134535714Y-97392857D01*
X134535714Y-97440476D01*
X134488095Y-97535714D01*
X134440476Y-97583333D01*
X134345238Y-97630952D01*
X134154761Y-97630952D01*
X134059523Y-97678571D01*
X134011904Y-97726190D01*
X133964285Y-97821428D01*
X133964285Y-98011904D01*
X134011904Y-98107142D01*
X134059523Y-98154761D01*
X134154761Y-98202380D01*
X134345238Y-98202380D01*
X134440476Y-98154761D01*
X134488095Y-98107142D01*
X134535714Y-98011904D01*
X134535714Y-97821428D01*
X134488095Y-97726190D01*
X134440476Y-97678571D01*
X134345238Y-97630952D01*
%TO.C,R29*%
X142607142Y-144702380D02*
X142273809Y-144226190D01*
X142035714Y-144702380D02*
X142035714Y-143702380D01*
X142416666Y-143702380D01*
X142511904Y-143750000D01*
X142559523Y-143797619D01*
X142607142Y-143892857D01*
X142607142Y-144035714D01*
X142559523Y-144130952D01*
X142511904Y-144178571D01*
X142416666Y-144226190D01*
X142035714Y-144226190D01*
X142988095Y-143797619D02*
X143035714Y-143750000D01*
X143130952Y-143702380D01*
X143369047Y-143702380D01*
X143464285Y-143750000D01*
X143511904Y-143797619D01*
X143559523Y-143892857D01*
X143559523Y-143988095D01*
X143511904Y-144130952D01*
X142940476Y-144702380D01*
X143559523Y-144702380D01*
X144035714Y-144702380D02*
X144226190Y-144702380D01*
X144321428Y-144654761D01*
X144369047Y-144607142D01*
X144464285Y-144464285D01*
X144511904Y-144273809D01*
X144511904Y-143892857D01*
X144464285Y-143797619D01*
X144416666Y-143750000D01*
X144321428Y-143702380D01*
X144130952Y-143702380D01*
X144035714Y-143750000D01*
X143988095Y-143797619D01*
X143940476Y-143892857D01*
X143940476Y-144130952D01*
X143988095Y-144226190D01*
X144035714Y-144273809D01*
X144130952Y-144321428D01*
X144321428Y-144321428D01*
X144416666Y-144273809D01*
X144464285Y-144226190D01*
X144511904Y-144130952D01*
%TO.C,U8*%
X134238095Y-107652380D02*
X134238095Y-108461904D01*
X134285714Y-108557142D01*
X134333333Y-108604761D01*
X134428571Y-108652380D01*
X134619047Y-108652380D01*
X134714285Y-108604761D01*
X134761904Y-108557142D01*
X134809523Y-108461904D01*
X134809523Y-107652380D01*
X135428571Y-108080952D02*
X135333333Y-108033333D01*
X135285714Y-107985714D01*
X135238095Y-107890476D01*
X135238095Y-107842857D01*
X135285714Y-107747619D01*
X135333333Y-107700000D01*
X135428571Y-107652380D01*
X135619047Y-107652380D01*
X135714285Y-107700000D01*
X135761904Y-107747619D01*
X135809523Y-107842857D01*
X135809523Y-107890476D01*
X135761904Y-107985714D01*
X135714285Y-108033333D01*
X135619047Y-108080952D01*
X135428571Y-108080952D01*
X135333333Y-108128571D01*
X135285714Y-108176190D01*
X135238095Y-108271428D01*
X135238095Y-108461904D01*
X135285714Y-108557142D01*
X135333333Y-108604761D01*
X135428571Y-108652380D01*
X135619047Y-108652380D01*
X135714285Y-108604761D01*
X135761904Y-108557142D01*
X135809523Y-108461904D01*
X135809523Y-108271428D01*
X135761904Y-108176190D01*
X135714285Y-108128571D01*
X135619047Y-108080952D01*
%TO.C,R21*%
X114607142Y-110702380D02*
X114273809Y-110226190D01*
X114035714Y-110702380D02*
X114035714Y-109702380D01*
X114416666Y-109702380D01*
X114511904Y-109750000D01*
X114559523Y-109797619D01*
X114607142Y-109892857D01*
X114607142Y-110035714D01*
X114559523Y-110130952D01*
X114511904Y-110178571D01*
X114416666Y-110226190D01*
X114035714Y-110226190D01*
X114988095Y-109797619D02*
X115035714Y-109750000D01*
X115130952Y-109702380D01*
X115369047Y-109702380D01*
X115464285Y-109750000D01*
X115511904Y-109797619D01*
X115559523Y-109892857D01*
X115559523Y-109988095D01*
X115511904Y-110130952D01*
X114940476Y-110702380D01*
X115559523Y-110702380D01*
X116511904Y-110702380D02*
X115940476Y-110702380D01*
X116226190Y-110702380D02*
X116226190Y-109702380D01*
X116130952Y-109845238D01*
X116035714Y-109940476D01*
X115940476Y-109988095D01*
%TO.C,J2*%
X137452380Y-79058333D02*
X138166666Y-79058333D01*
X138309523Y-79105952D01*
X138404761Y-79201190D01*
X138452380Y-79344047D01*
X138452380Y-79439285D01*
X137547619Y-78629761D02*
X137500000Y-78582142D01*
X137452380Y-78486904D01*
X137452380Y-78248809D01*
X137500000Y-78153571D01*
X137547619Y-78105952D01*
X137642857Y-78058333D01*
X137738095Y-78058333D01*
X137880952Y-78105952D01*
X138452380Y-78677380D01*
X138452380Y-78058333D01*
%TO.C,J1*%
X137452380Y-83308333D02*
X138166666Y-83308333D01*
X138309523Y-83355952D01*
X138404761Y-83451190D01*
X138452380Y-83594047D01*
X138452380Y-83689285D01*
X138452380Y-82308333D02*
X138452380Y-82879761D01*
X138452380Y-82594047D02*
X137452380Y-82594047D01*
X137595238Y-82689285D01*
X137690476Y-82784523D01*
X137738095Y-82879761D01*
%TO.C,R2*%
X127333333Y-96952380D02*
X127000000Y-96476190D01*
X126761904Y-96952380D02*
X126761904Y-95952380D01*
X127142857Y-95952380D01*
X127238095Y-96000000D01*
X127285714Y-96047619D01*
X127333333Y-96142857D01*
X127333333Y-96285714D01*
X127285714Y-96380952D01*
X127238095Y-96428571D01*
X127142857Y-96476190D01*
X126761904Y-96476190D01*
X127714285Y-96047619D02*
X127761904Y-96000000D01*
X127857142Y-95952380D01*
X128095238Y-95952380D01*
X128190476Y-96000000D01*
X128238095Y-96047619D01*
X128285714Y-96142857D01*
X128285714Y-96238095D01*
X128238095Y-96380952D01*
X127666666Y-96952380D01*
X128285714Y-96952380D01*
%TO.C,R18*%
X136802380Y-132392857D02*
X136326190Y-132726190D01*
X136802380Y-132964285D02*
X135802380Y-132964285D01*
X135802380Y-132583333D01*
X135850000Y-132488095D01*
X135897619Y-132440476D01*
X135992857Y-132392857D01*
X136135714Y-132392857D01*
X136230952Y-132440476D01*
X136278571Y-132488095D01*
X136326190Y-132583333D01*
X136326190Y-132964285D01*
X136802380Y-131440476D02*
X136802380Y-132011904D01*
X136802380Y-131726190D02*
X135802380Y-131726190D01*
X135945238Y-131821428D01*
X136040476Y-131916666D01*
X136088095Y-132011904D01*
X136230952Y-130869047D02*
X136183333Y-130964285D01*
X136135714Y-131011904D01*
X136040476Y-131059523D01*
X135992857Y-131059523D01*
X135897619Y-131011904D01*
X135850000Y-130964285D01*
X135802380Y-130869047D01*
X135802380Y-130678571D01*
X135850000Y-130583333D01*
X135897619Y-130535714D01*
X135992857Y-130488095D01*
X136040476Y-130488095D01*
X136135714Y-130535714D01*
X136183333Y-130583333D01*
X136230952Y-130678571D01*
X136230952Y-130869047D01*
X136278571Y-130964285D01*
X136326190Y-131011904D01*
X136421428Y-131059523D01*
X136611904Y-131059523D01*
X136707142Y-131011904D01*
X136754761Y-130964285D01*
X136802380Y-130869047D01*
X136802380Y-130678571D01*
X136754761Y-130583333D01*
X136707142Y-130535714D01*
X136611904Y-130488095D01*
X136421428Y-130488095D01*
X136326190Y-130535714D01*
X136278571Y-130583333D01*
X136230952Y-130678571D01*
%TO.C,J6*%
X125722380Y-76833333D02*
X126436666Y-76833333D01*
X126579523Y-76880952D01*
X126674761Y-76976190D01*
X126722380Y-77119047D01*
X126722380Y-77214285D01*
X125722380Y-75928571D02*
X125722380Y-76119047D01*
X125770000Y-76214285D01*
X125817619Y-76261904D01*
X125960476Y-76357142D01*
X126150952Y-76404761D01*
X126531904Y-76404761D01*
X126627142Y-76357142D01*
X126674761Y-76309523D01*
X126722380Y-76214285D01*
X126722380Y-76023809D01*
X126674761Y-75928571D01*
X126627142Y-75880952D01*
X126531904Y-75833333D01*
X126293809Y-75833333D01*
X126198571Y-75880952D01*
X126150952Y-75928571D01*
X126103333Y-76023809D01*
X126103333Y-76214285D01*
X126150952Y-76309523D01*
X126198571Y-76357142D01*
X126293809Y-76404761D01*
%TO.C,J11*%
X109190476Y-128452380D02*
X109190476Y-129166666D01*
X109142857Y-129309523D01*
X109047619Y-129404761D01*
X108904761Y-129452380D01*
X108809523Y-129452380D01*
X110190476Y-129452380D02*
X109619047Y-129452380D01*
X109904761Y-129452380D02*
X109904761Y-128452380D01*
X109809523Y-128595238D01*
X109714285Y-128690476D01*
X109619047Y-128738095D01*
X111142857Y-129452380D02*
X110571428Y-129452380D01*
X110857142Y-129452380D02*
X110857142Y-128452380D01*
X110761904Y-128595238D01*
X110666666Y-128690476D01*
X110571428Y-128738095D01*
%TO.C,J4*%
X125702380Y-84808333D02*
X126416666Y-84808333D01*
X126559523Y-84855952D01*
X126654761Y-84951190D01*
X126702380Y-85094047D01*
X126702380Y-85189285D01*
X126035714Y-83903571D02*
X126702380Y-83903571D01*
X125654761Y-84141666D02*
X126369047Y-84379761D01*
X126369047Y-83760714D01*
%TO.C,C3*%
X110607142Y-96166666D02*
X110654761Y-96214285D01*
X110702380Y-96357142D01*
X110702380Y-96452380D01*
X110654761Y-96595238D01*
X110559523Y-96690476D01*
X110464285Y-96738095D01*
X110273809Y-96785714D01*
X110130952Y-96785714D01*
X109940476Y-96738095D01*
X109845238Y-96690476D01*
X109750000Y-96595238D01*
X109702380Y-96452380D01*
X109702380Y-96357142D01*
X109750000Y-96214285D01*
X109797619Y-96166666D01*
X109702380Y-95833333D02*
X109702380Y-95214285D01*
X110083333Y-95547619D01*
X110083333Y-95404761D01*
X110130952Y-95309523D01*
X110178571Y-95261904D01*
X110273809Y-95214285D01*
X110511904Y-95214285D01*
X110607142Y-95261904D01*
X110654761Y-95309523D01*
X110702380Y-95404761D01*
X110702380Y-95690476D01*
X110654761Y-95785714D01*
X110607142Y-95833333D01*
%TO.C,R6*%
X124522380Y-124666666D02*
X124046190Y-125000000D01*
X124522380Y-125238095D02*
X123522380Y-125238095D01*
X123522380Y-124857142D01*
X123570000Y-124761904D01*
X123617619Y-124714285D01*
X123712857Y-124666666D01*
X123855714Y-124666666D01*
X123950952Y-124714285D01*
X123998571Y-124761904D01*
X124046190Y-124857142D01*
X124046190Y-125238095D01*
X123522380Y-123809523D02*
X123522380Y-124000000D01*
X123570000Y-124095238D01*
X123617619Y-124142857D01*
X123760476Y-124238095D01*
X123950952Y-124285714D01*
X124331904Y-124285714D01*
X124427142Y-124238095D01*
X124474761Y-124190476D01*
X124522380Y-124095238D01*
X124522380Y-123904761D01*
X124474761Y-123809523D01*
X124427142Y-123761904D01*
X124331904Y-123714285D01*
X124093809Y-123714285D01*
X123998571Y-123761904D01*
X123950952Y-123809523D01*
X123903333Y-123904761D01*
X123903333Y-124095238D01*
X123950952Y-124190476D01*
X123998571Y-124238095D01*
X124093809Y-124285714D01*
D11*
%TO.C,U4*%
X119200000Y-128025000D02*
X115300000Y-128025000D01*
X119200000Y-122975000D02*
X115300000Y-122975000D01*
D12*
X121420000Y-127405000D02*
G75*
G03*
X121420000Y-127405000I-100000J0D01*
G01*
D11*
%TO.C,U3*%
X119200000Y-118525000D02*
X115300000Y-118525000D01*
X119200000Y-113475000D02*
X115300000Y-113475000D01*
D12*
X121420000Y-117905000D02*
G75*
G03*
X121420000Y-117905000I-100000J0D01*
G01*
D11*
%TO.C,U2*%
X119200000Y-109025000D02*
X115300000Y-109025000D01*
X119200000Y-103975000D02*
X115300000Y-103975000D01*
D12*
X121420000Y-108405000D02*
G75*
G03*
X121420000Y-108405000I-100000J0D01*
G01*
D11*
%TO.C,U1*%
X119200000Y-99525000D02*
X115300000Y-99525000D01*
X119200000Y-94475000D02*
X115300000Y-94475000D01*
D12*
X121420000Y-98905000D02*
G75*
G03*
X121420000Y-98905000I-100000J0D01*
G01*
D13*
%TO.C,U10*%
X126610000Y-133175000D02*
X126610000Y-132075000D01*
X135200000Y-134675000D02*
X135200000Y-133175000D01*
X133390000Y-133175000D02*
X133390000Y-128050000D01*
X124800000Y-133175000D02*
X126610000Y-133175000D01*
X124800000Y-134675000D02*
X124800000Y-133175000D01*
X135200000Y-133175000D02*
X133390000Y-133175000D01*
%TO.C,C2*%
X131488748Y-127235000D02*
X132011252Y-127235000D01*
X131488748Y-125765000D02*
X132011252Y-125765000D01*
%TO.C,R23*%
X138022936Y-106985000D02*
X138477064Y-106985000D01*
X138022936Y-105515000D02*
X138477064Y-105515000D01*
%TO.C,C1*%
X127988748Y-127235000D02*
X128511252Y-127235000D01*
X127988748Y-125765000D02*
X128511252Y-125765000D01*
%TO.C,C9*%
X134011252Y-105515000D02*
X133488748Y-105515000D01*
X134011252Y-106985000D02*
X133488748Y-106985000D01*
%TO.C,R3*%
X123160000Y-95272936D02*
X123160000Y-96727064D01*
X121340000Y-95272936D02*
X121340000Y-96727064D01*
%TO.C,R14*%
X127272936Y-119985000D02*
X127727064Y-119985000D01*
X127272936Y-118515000D02*
X127727064Y-118515000D01*
%TO.C,R27*%
X133522936Y-103485000D02*
X133977064Y-103485000D01*
X133522936Y-102015000D02*
X133977064Y-102015000D01*
%TO.C,D1*%
X137265000Y-136735000D02*
X138735000Y-136735000D01*
X138735000Y-136735000D02*
X138735000Y-134450000D01*
X137265000Y-134450000D02*
X137265000Y-136735000D01*
%TO.C,R15*%
X127272936Y-122015000D02*
X127727064Y-122015000D01*
X127272936Y-123485000D02*
X127727064Y-123485000D01*
%TO.C,R12*%
X127272936Y-111515000D02*
X127727064Y-111515000D01*
X127272936Y-112985000D02*
X127727064Y-112985000D01*
%TO.C,C4*%
X111515000Y-105238748D02*
X111515000Y-105761252D01*
X112985000Y-105238748D02*
X112985000Y-105761252D01*
%TO.C,C5*%
X111515000Y-114738748D02*
X111515000Y-115261252D01*
X112985000Y-114738748D02*
X112985000Y-115261252D01*
%TO.C,J14*%
X131480000Y-89830000D02*
X139160000Y-89830000D01*
X128880000Y-89830000D02*
X128880000Y-88500000D01*
X139160000Y-89830000D02*
X139160000Y-87170000D01*
X130210000Y-89830000D02*
X128880000Y-89830000D01*
X131480000Y-87170000D02*
X139160000Y-87170000D01*
X131480000Y-89830000D02*
X131480000Y-87170000D01*
%TO.C,R22*%
X138022936Y-102015000D02*
X138477064Y-102015000D01*
X138022936Y-103485000D02*
X138477064Y-103485000D01*
%TO.C,R4*%
X121340000Y-104772936D02*
X121340000Y-106227064D01*
X123160000Y-104772936D02*
X123160000Y-106227064D01*
%TO.C,D6*%
X120735000Y-122235000D02*
X120735000Y-120765000D01*
X120735000Y-120765000D02*
X118450000Y-120765000D01*
X118450000Y-122235000D02*
X120735000Y-122235000D01*
%TO.C,J3*%
X122230000Y-87170000D02*
X122230000Y-89830000D01*
X124830000Y-89830000D02*
X123500000Y-89830000D01*
X122230000Y-87170000D02*
X109470000Y-87170000D01*
X109470000Y-87170000D02*
X109470000Y-89830000D01*
X122230000Y-89830000D02*
X109470000Y-89830000D01*
X124830000Y-88500000D02*
X124830000Y-89830000D01*
%TO.C,R13*%
X127272936Y-116485000D02*
X127727064Y-116485000D01*
X127272936Y-115015000D02*
X127727064Y-115015000D01*
%TO.C,C6*%
X111515000Y-124238748D02*
X111515000Y-124761252D01*
X112985000Y-124238748D02*
X112985000Y-124761252D01*
D11*
%TO.C,U5*%
X159060000Y-139100000D02*
X168950000Y-139100000D01*
X141050000Y-90900000D02*
X141050000Y-139100000D01*
X141050000Y-139100000D02*
X150930000Y-139100000D01*
X164000000Y-84700000D02*
X164000000Y-90900000D01*
X146000000Y-90900000D02*
X146000000Y-84700000D01*
X150930000Y-139100000D02*
X150930000Y-140000000D01*
X168950000Y-139100000D02*
X168950000Y-90900000D01*
X146000000Y-90900000D02*
X141050000Y-90900000D01*
X159060000Y-140000000D02*
X159060000Y-139100000D01*
X146000000Y-84700000D02*
X164000000Y-84700000D01*
X150930000Y-140000000D02*
X159060000Y-140000000D01*
X168950000Y-90900000D02*
X164000000Y-90900000D01*
D12*
X140530000Y-92030000D02*
G75*
G03*
X140530000Y-92030000I-100000J0D01*
G01*
D13*
%TO.C,R25*%
X115477064Y-120765000D02*
X115022936Y-120765000D01*
X115477064Y-122235000D02*
X115022936Y-122235000D01*
%TO.C,D4*%
X120735000Y-103235000D02*
X120735000Y-101765000D01*
X120735000Y-101765000D02*
X118450000Y-101765000D01*
X118450000Y-103235000D02*
X120735000Y-103235000D01*
%TO.C,J5*%
X122230000Y-81805000D02*
X109470000Y-81805000D01*
X122230000Y-79145000D02*
X109470000Y-79145000D01*
X124830000Y-80475000D02*
X124830000Y-81805000D01*
X109470000Y-79145000D02*
X109470000Y-81805000D01*
X124830000Y-81805000D02*
X123500000Y-81805000D01*
X122230000Y-79145000D02*
X122230000Y-81805000D01*
%TO.C,R5*%
X123160000Y-114272936D02*
X123160000Y-115727064D01*
X121340000Y-114272936D02*
X121340000Y-115727064D01*
%TO.C,D9*%
X147550000Y-141765000D02*
X145265000Y-141765000D01*
X145265000Y-143235000D02*
X147550000Y-143235000D01*
X145265000Y-141765000D02*
X145265000Y-143235000D01*
%TO.C,R24*%
X138022936Y-98515000D02*
X138477064Y-98515000D01*
X138022936Y-99985000D02*
X138477064Y-99985000D01*
%TO.C,R19*%
X115477064Y-93735000D02*
X115022936Y-93735000D01*
X115477064Y-92265000D02*
X115022936Y-92265000D01*
%TO.C,J10*%
X121642500Y-135500000D02*
X121642500Y-144300000D01*
X118942500Y-129600000D02*
X121642500Y-129600000D01*
X121642500Y-129600000D02*
X121642500Y-131500000D01*
X112442500Y-129600000D02*
X115042500Y-129600000D01*
X112242500Y-130450000D02*
X112242500Y-129400000D01*
X121642500Y-144300000D02*
X112442500Y-144300000D01*
X112442500Y-144300000D02*
X112442500Y-129600000D01*
X113292500Y-129400000D02*
X112242500Y-129400000D01*
%TO.C,R7*%
X127272936Y-101015000D02*
X127727064Y-101015000D01*
X127272936Y-102485000D02*
X127727064Y-102485000D01*
%TO.C,D2*%
X120735000Y-93735000D02*
X120735000Y-92265000D01*
X118450000Y-93735000D02*
X120735000Y-93735000D01*
X120735000Y-92265000D02*
X118450000Y-92265000D01*
%TO.C,R20*%
X115477064Y-101765000D02*
X115022936Y-101765000D01*
X115477064Y-103235000D02*
X115022936Y-103235000D01*
%TO.C,D5*%
X118450000Y-112735000D02*
X120735000Y-112735000D01*
X120735000Y-112735000D02*
X120735000Y-111265000D01*
X120735000Y-111265000D02*
X118450000Y-111265000D01*
%TO.C,R8*%
X127272936Y-105985000D02*
X127727064Y-105985000D01*
X127272936Y-104515000D02*
X127727064Y-104515000D01*
%TO.C,R11*%
X127272936Y-108015000D02*
X127727064Y-108015000D01*
X127272936Y-109485000D02*
X127727064Y-109485000D01*
%TO.C,D8*%
X132950000Y-99985000D02*
X135235000Y-99985000D01*
X135235000Y-98515000D02*
X132950000Y-98515000D01*
X135235000Y-99985000D02*
X135235000Y-98515000D01*
%TO.C,R29*%
X143477064Y-143235000D02*
X143022936Y-143235000D01*
X143477064Y-141765000D02*
X143022936Y-141765000D01*
%TO.C,U8*%
X135000000Y-109040000D02*
X132690000Y-109040000D01*
X132690000Y-109315000D02*
X131400000Y-109315000D01*
X135000000Y-118960000D02*
X132690000Y-118960000D01*
X135000000Y-109040000D02*
X137310000Y-109040000D01*
X132690000Y-118960000D02*
X132690000Y-118685000D01*
X135000000Y-118960000D02*
X137310000Y-118960000D01*
X137310000Y-118960000D02*
X137310000Y-118685000D01*
X137310000Y-109040000D02*
X137310000Y-109315000D01*
X132690000Y-109040000D02*
X132690000Y-109315000D01*
%TO.C,R21*%
X115477064Y-111265000D02*
X115022936Y-111265000D01*
X115477064Y-112735000D02*
X115022936Y-112735000D01*
%TO.C,J2*%
X136660000Y-80055000D02*
X136660000Y-77395000D01*
X131520000Y-80055000D02*
X136660000Y-80055000D01*
X131520000Y-77395000D02*
X136660000Y-77395000D01*
X131520000Y-80055000D02*
X131520000Y-77395000D01*
X128920000Y-78725000D02*
X128920000Y-77395000D01*
X128920000Y-77395000D02*
X130250000Y-77395000D01*
%TO.C,J1*%
X128920000Y-82975000D02*
X128920000Y-81645000D01*
X128920000Y-81645000D02*
X130250000Y-81645000D01*
X131520000Y-84305000D02*
X131520000Y-81645000D01*
X131520000Y-81645000D02*
X136660000Y-81645000D01*
X136660000Y-84305000D02*
X136660000Y-81645000D01*
X131520000Y-84305000D02*
X136660000Y-84305000D01*
%TO.C,R2*%
X127272936Y-98985000D02*
X127727064Y-98985000D01*
X127272936Y-97515000D02*
X127727064Y-97515000D01*
%TO.C,R18*%
X137265000Y-131977064D02*
X137265000Y-131522936D01*
X138735000Y-131977064D02*
X138735000Y-131522936D01*
%TO.C,J6*%
X109470000Y-75170000D02*
X109470000Y-77830000D01*
X122230000Y-75170000D02*
X109470000Y-75170000D01*
X124830000Y-77830000D02*
X123500000Y-77830000D01*
X122230000Y-77830000D02*
X109470000Y-77830000D01*
X122230000Y-75170000D02*
X122230000Y-77830000D01*
X124830000Y-76500000D02*
X124830000Y-77830000D01*
%TO.C,J11*%
X111330000Y-132745000D02*
X111330000Y-135345000D01*
X108670000Y-132745000D02*
X111330000Y-132745000D01*
X108670000Y-135345000D02*
X111330000Y-135345000D01*
X108670000Y-132745000D02*
X108670000Y-135345000D01*
X108670000Y-131475000D02*
X108670000Y-130145000D01*
X108670000Y-130145000D02*
X110000000Y-130145000D01*
%TO.C,J4*%
X123525000Y-83145000D02*
X124855000Y-83145000D01*
X109495000Y-83145000D02*
X109495000Y-85805000D01*
X124855000Y-83145000D02*
X124855000Y-84475000D01*
X122255000Y-83145000D02*
X109495000Y-83145000D01*
X122255000Y-85805000D02*
X109495000Y-85805000D01*
X122255000Y-83145000D02*
X122255000Y-85805000D01*
%TO.C,C3*%
X111515000Y-95738748D02*
X111515000Y-96261252D01*
X112985000Y-95738748D02*
X112985000Y-96261252D01*
%TO.C,R6*%
X121340000Y-123772936D02*
X121340000Y-125227064D01*
X123160000Y-123772936D02*
X123160000Y-125227064D01*
%TD*%
M02*
