%TF.GenerationSoftware,KiCad,Pcbnew,(6.0.9)*%
%TF.CreationDate,2023-05-03T14:40:20+10:00*%
%TF.ProjectId,Proj D,50726f6a-2044-42e6-9b69-6361645f7063,rev?*%
%TF.SameCoordinates,Original*%
%TF.FileFunction,Copper,L2,Bot*%
%TF.FilePolarity,Positive*%
%FSLAX46Y46*%
G04 Gerber Fmt 4.6, Leading zero omitted, Abs format (unit mm)*
G04 Created by KiCad (PCBNEW (6.0.9)) date 2023-05-03 14:40:20*
%MOMM*%
%LPD*%
G01*
G04 APERTURE LIST*
G04 Aperture macros list*
%AMRoundRect*
0 Rectangle with rounded corners*
0 $1 Rounding radius*
0 $2 $3 $4 $5 $6 $7 $8 $9 X,Y pos of 4 corners*
0 Add a 4 corners polygon primitive as box body*
4,1,4,$2,$3,$4,$5,$6,$7,$8,$9,$2,$3,0*
0 Add four circle primitives for the rounded corners*
1,1,$1+$1,$2,$3*
1,1,$1+$1,$4,$5*
1,1,$1+$1,$6,$7*
1,1,$1+$1,$8,$9*
0 Add four rect primitives between the rounded corners*
20,1,$1+$1,$2,$3,$4,$5,0*
20,1,$1+$1,$4,$5,$6,$7,0*
20,1,$1+$1,$6,$7,$8,$9,0*
20,1,$1+$1,$8,$9,$2,$3,0*%
G04 Aperture macros list end*
%TA.AperFunction,ComponentPad*%
%ADD10R,1.700000X1.700000*%
%TD*%
%TA.AperFunction,ComponentPad*%
%ADD11O,1.700000X1.700000*%
%TD*%
%TA.AperFunction,ComponentPad*%
%ADD12R,1.530000X1.530000*%
%TD*%
%TA.AperFunction,ComponentPad*%
%ADD13C,1.530000*%
%TD*%
%TA.AperFunction,ComponentPad*%
%ADD14R,3.500000X3.500000*%
%TD*%
%TA.AperFunction,ComponentPad*%
%ADD15RoundRect,0.750000X1.000000X-0.750000X1.000000X0.750000X-1.000000X0.750000X-1.000000X-0.750000X0*%
%TD*%
%TA.AperFunction,ComponentPad*%
%ADD16RoundRect,0.875000X0.875000X-0.875000X0.875000X0.875000X-0.875000X0.875000X-0.875000X-0.875000X0*%
%TD*%
%TA.AperFunction,ViaPad*%
%ADD17C,0.600000*%
%TD*%
%TA.AperFunction,Conductor*%
%ADD18C,1.000000*%
%TD*%
%TA.AperFunction,Conductor*%
%ADD19C,0.250000*%
%TD*%
G04 APERTURE END LIST*
D10*
%TO.P,J14,1,Pin_1*%
%TO.N,+5V*%
X130210000Y-88500000D03*
D11*
%TO.P,J14,2,Pin_2*%
%TO.N,/UTRIG*%
X132750000Y-88500000D03*
%TO.P,J14,3,Pin_3*%
%TO.N,/UECHO1*%
X135290000Y-88500000D03*
%TO.P,J14,4,Pin_4*%
%TO.N,GND*%
X137830000Y-88500000D03*
%TD*%
D10*
%TO.P,J3,1,Pin_1*%
%TO.N,/M1ENCB*%
X123500000Y-88500000D03*
D11*
%TO.P,J3,2,Pin_2*%
%TO.N,/M1ENCA*%
X120960000Y-88500000D03*
%TO.P,J3,3,Pin_3*%
%TO.N,+5V*%
X118420000Y-88500000D03*
%TO.P,J3,4,Pin_4*%
%TO.N,GND*%
X115880000Y-88500000D03*
%TO.P,J3,5,Pin_5*%
%TO.N,Net-(J3-Pad5)*%
X113340000Y-88500000D03*
%TO.P,J3,6,Pin_6*%
%TO.N,Net-(J3-Pad6)*%
X110800000Y-88500000D03*
%TD*%
D12*
%TO.P,U5,1,3V3*%
%TO.N,+3.3V*%
X142300000Y-92150000D03*
D13*
%TO.P,U5,2,EN*%
%TO.N,unconnected-(U5-Pad2)*%
X142300000Y-94690000D03*
%TO.P,U5,3,SENSOR_VP*%
%TO.N,unconnected-(U5-Pad3)*%
X142300000Y-97230000D03*
%TO.P,U5,4,SENSOR_VN*%
%TO.N,unconnected-(U5-Pad4)*%
X142300000Y-99770000D03*
%TO.P,U5,5,IO34*%
%TO.N,unconnected-(U5-Pad5)*%
X142300000Y-102310000D03*
%TO.P,U5,6,IO35*%
%TO.N,/UECHO1*%
X142300000Y-104850000D03*
%TO.P,U5,7,IO32*%
%TO.N,/UTRIG*%
X142300000Y-107390000D03*
%TO.P,U5,8,IO33*%
%TO.N,unconnected-(U5-Pad8)*%
X142300000Y-109930000D03*
%TO.P,U5,9,IO25*%
%TO.N,unconnected-(U5-Pad9)*%
X142300000Y-112470000D03*
%TO.P,U5,10,IO26*%
%TO.N,unconnected-(U5-Pad10)*%
X142300000Y-115010000D03*
%TO.P,U5,11,IO27*%
%TO.N,unconnected-(U5-Pad11)*%
X142300000Y-117550000D03*
%TO.P,U5,12,IO14*%
%TO.N,unconnected-(U5-Pad12)*%
X142300000Y-120090000D03*
%TO.P,U5,13,IO12*%
%TO.N,unconnected-(U5-Pad13)*%
X142300000Y-122630000D03*
%TO.P,U5,14,GND1*%
%TO.N,GND*%
X142300000Y-125170000D03*
%TO.P,U5,15,IO13*%
%TO.N,unconnected-(U5-Pad15)*%
X142300000Y-127710000D03*
%TO.P,U5,16,SD2*%
%TO.N,unconnected-(U5-Pad16)*%
X142300000Y-130250000D03*
%TO.P,U5,17,SD3*%
%TO.N,unconnected-(U5-Pad17)*%
X142300000Y-132790000D03*
%TO.P,U5,18,CMD*%
%TO.N,unconnected-(U5-Pad18)*%
X142300000Y-135330000D03*
%TO.P,U5,19,EXT_5V*%
%TO.N,+5V*%
X142300000Y-137870000D03*
%TO.P,U5,20,CLK*%
%TO.N,unconnected-(U5-Pad20)*%
X167700000Y-137870000D03*
%TO.P,U5,21,SD0*%
%TO.N,unconnected-(U5-Pad21)*%
X167700000Y-135330000D03*
%TO.P,U5,22,SD1*%
%TO.N,unconnected-(U5-Pad22)*%
X167700000Y-132790000D03*
%TO.P,U5,23,IO15*%
%TO.N,/COLOUR1*%
X167700000Y-130250000D03*
%TO.P,U5,24,IO2*%
%TO.N,/M4ENCA*%
X167700000Y-127710000D03*
%TO.P,U5,25,IO0*%
%TO.N,/M4ENCB*%
X167700000Y-125170000D03*
%TO.P,U5,26,IO4*%
%TO.N,/M3ENCA*%
X167700000Y-122630000D03*
%TO.P,U5,27,IO16*%
%TO.N,/M3ENCB*%
X167700000Y-120090000D03*
%TO.P,U5,28,IO17*%
%TO.N,/M2ENCA*%
X167700000Y-117550000D03*
%TO.P,U5,29,IO5*%
%TO.N,/M2ENCB*%
X167700000Y-115010000D03*
%TO.P,U5,30,IO18*%
%TO.N,/M1ENCA*%
X167700000Y-112470000D03*
%TO.P,U5,31,IO19*%
%TO.N,/M1ENCB*%
X167700000Y-109930000D03*
%TO.P,U5,32,GND2*%
%TO.N,GND*%
X167700000Y-107390000D03*
%TO.P,U5,33,IO21*%
%TO.N,/SDA*%
X167700000Y-104850000D03*
%TO.P,U5,34,RXD0*%
%TO.N,unconnected-(U5-Pad34)*%
X167700000Y-102310000D03*
%TO.P,U5,35,TXD0*%
%TO.N,unconnected-(U5-Pad35)*%
X167700000Y-99770000D03*
%TO.P,U5,36,IO22*%
%TO.N,/SCL*%
X167700000Y-97230000D03*
%TO.P,U5,37,IO23*%
%TO.N,/COLOUR2*%
X167700000Y-94690000D03*
%TO.P,U5,38,GND3*%
%TO.N,GND*%
X167700000Y-92150000D03*
%TD*%
D10*
%TO.P,J5,1,Pin_1*%
%TO.N,/M3ENCB*%
X123500000Y-80475000D03*
D11*
%TO.P,J5,2,Pin_2*%
%TO.N,/M3ENCA*%
X120960000Y-80475000D03*
%TO.P,J5,3,Pin_3*%
%TO.N,+5V*%
X118420000Y-80475000D03*
%TO.P,J5,4,Pin_4*%
%TO.N,GND*%
X115880000Y-80475000D03*
%TO.P,J5,5,Pin_5*%
%TO.N,Net-(J5-Pad5)*%
X113340000Y-80475000D03*
%TO.P,J5,6,Pin_6*%
%TO.N,Net-(J5-Pad6)*%
X110800000Y-80475000D03*
%TD*%
D14*
%TO.P,J10,1*%
%TO.N,+12V*%
X117042500Y-130500000D03*
D15*
%TO.P,J10,2*%
%TO.N,GND*%
X117042500Y-136500000D03*
D16*
%TO.P,J10,3*%
%TO.N,unconnected-(J10-Pad3)*%
X121742500Y-133500000D03*
%TD*%
D10*
%TO.P,J2,1,Pin_1*%
%TO.N,+5V*%
X130250000Y-78725000D03*
D11*
%TO.P,J2,2,Pin_2*%
%TO.N,GND*%
X132790000Y-78725000D03*
%TO.P,J2,3,Pin_3*%
%TO.N,/COLOUR2*%
X135330000Y-78725000D03*
%TD*%
D10*
%TO.P,J1,1,Pin_1*%
%TO.N,+5V*%
X130250000Y-82975000D03*
D11*
%TO.P,J1,2,Pin_2*%
%TO.N,GND*%
X132790000Y-82975000D03*
%TO.P,J1,3,Pin_3*%
%TO.N,/COLOUR1*%
X135330000Y-82975000D03*
%TD*%
D10*
%TO.P,J6,1,Pin_1*%
%TO.N,/M4ENCB*%
X123500000Y-76500000D03*
D11*
%TO.P,J6,2,Pin_2*%
%TO.N,/M4ENCA*%
X120960000Y-76500000D03*
%TO.P,J6,3,Pin_3*%
%TO.N,+5V*%
X118420000Y-76500000D03*
%TO.P,J6,4,Pin_4*%
%TO.N,GND*%
X115880000Y-76500000D03*
%TO.P,J6,5,Pin_5*%
%TO.N,Net-(J6-Pad5)*%
X113340000Y-76500000D03*
%TO.P,J6,6,Pin_6*%
%TO.N,Net-(J6-Pad6)*%
X110800000Y-76500000D03*
%TD*%
D10*
%TO.P,J11,1,Pin_1*%
%TO.N,+12V*%
X110000000Y-131475000D03*
D11*
%TO.P,J11,2,Pin_2*%
%TO.N,GND*%
X110000000Y-134015000D03*
%TD*%
D10*
%TO.P,J4,1,Pin_1*%
%TO.N,/M2ENCB*%
X123525000Y-84475000D03*
D11*
%TO.P,J4,2,Pin_2*%
%TO.N,/M2ENCA*%
X120985000Y-84475000D03*
%TO.P,J4,3,Pin_3*%
%TO.N,+5V*%
X118445000Y-84475000D03*
%TO.P,J4,4,Pin_4*%
%TO.N,GND*%
X115905000Y-84475000D03*
%TO.P,J4,5,Pin_5*%
%TO.N,Net-(J4-Pad5)*%
X113365000Y-84475000D03*
%TO.P,J4,6,Pin_6*%
%TO.N,Net-(J4-Pad6)*%
X110825000Y-84475000D03*
%TD*%
D17*
%TO.N,+12V*%
X112750000Y-93331250D03*
X112750000Y-102831250D03*
X112750000Y-112250000D03*
X112750000Y-121500000D03*
%TO.N,+5V*%
X135000000Y-100500000D03*
X121637299Y-86362701D03*
X124250000Y-116500000D03*
X124250000Y-107000000D03*
X139250000Y-100750000D03*
X124237701Y-125987701D03*
X124250000Y-97500000D03*
%TO.N,/COLOUR1*%
X141475000Y-82975000D03*
%TD*%
D18*
%TO.N,+12V*%
X112750000Y-122250000D02*
X112750000Y-126207500D01*
X112750000Y-93331250D02*
X112750000Y-122250000D01*
X112750000Y-126207500D02*
X117042500Y-130500000D01*
D19*
%TO.N,+5V*%
X130210000Y-88500000D02*
X130210000Y-78765000D01*
X130210000Y-78765000D02*
X130250000Y-78725000D01*
%TO.N,/COLOUR1*%
X148621396Y-91000000D02*
X168091493Y-91000000D01*
X168091493Y-91000000D02*
X168790000Y-91698507D01*
X141475000Y-82975000D02*
X141475000Y-83853604D01*
X168790000Y-129160000D02*
X167700000Y-130250000D01*
X168790000Y-91698507D02*
X168790000Y-129160000D01*
X141475000Y-83853604D02*
X148621396Y-91000000D01*
%TO.N,/COLOUR2*%
X151735000Y-94750000D02*
X167640000Y-94750000D01*
X167640000Y-94750000D02*
X167700000Y-94690000D01*
X135710000Y-78725000D02*
X151735000Y-94750000D01*
X135330000Y-78725000D02*
X135710000Y-78725000D01*
%TO.N,/M1ENCB*%
X123500000Y-90403604D02*
X141596396Y-108500000D01*
X141596396Y-108500000D02*
X166270000Y-108500000D01*
X166270000Y-108500000D02*
X167700000Y-109930000D01*
X123500000Y-88500000D02*
X123500000Y-90403604D01*
%TO.N,/M1ENCA*%
X141210000Y-110381493D02*
X142078507Y-111250000D01*
X166480000Y-111250000D02*
X167700000Y-112470000D01*
X141210000Y-108750000D02*
X141210000Y-110381493D01*
X120960000Y-88500000D02*
X141210000Y-108750000D01*
X142078507Y-111250000D02*
X166480000Y-111250000D01*
%TO.N,/M2ENCB*%
X140760000Y-108936396D02*
X140760000Y-112471493D01*
X121336994Y-85637701D02*
X119785000Y-87189695D01*
X141848507Y-113560000D02*
X166250000Y-113560000D01*
X166250000Y-113560000D02*
X167700000Y-115010000D01*
X140760000Y-112471493D02*
X141848507Y-113560000D01*
X119785000Y-87189695D02*
X119785000Y-88986701D01*
X122362299Y-85637701D02*
X121336994Y-85637701D01*
X121498604Y-89675000D02*
X140760000Y-108936396D01*
X119785000Y-88986701D02*
X120473299Y-89675000D01*
X120473299Y-89675000D02*
X121498604Y-89675000D01*
X123525000Y-84475000D02*
X122362299Y-85637701D01*
%TO.N,/M2ENCA*%
X140310000Y-109122792D02*
X140310000Y-114561493D01*
X118383299Y-90125000D02*
X121312208Y-90125000D01*
X120985000Y-84475000D02*
X120783299Y-84475000D01*
X120783299Y-84475000D02*
X117245000Y-88013299D01*
X141998507Y-116250000D02*
X166400000Y-116250000D01*
X117245000Y-88986701D02*
X118383299Y-90125000D01*
X166400000Y-116250000D02*
X167700000Y-117550000D01*
X117245000Y-88013299D02*
X117245000Y-88986701D01*
X121312208Y-90125000D02*
X140310000Y-109122792D01*
X140310000Y-114561493D02*
X141998507Y-116250000D01*
%TO.N,/M3ENCB*%
X122325000Y-81650000D02*
X119608299Y-81650000D01*
X123500000Y-80475000D02*
X122325000Y-81650000D01*
X166250000Y-118640000D02*
X167700000Y-120090000D01*
X117080000Y-85638299D02*
X114705000Y-88013299D01*
X117080000Y-84178299D02*
X117080000Y-85638299D01*
X114705000Y-88013299D02*
X114705000Y-88986701D01*
X141848507Y-118640000D02*
X166250000Y-118640000D01*
X119608299Y-81650000D02*
X117080000Y-84178299D01*
X121125812Y-90575000D02*
X139860000Y-109309188D01*
X139860000Y-109309188D02*
X139860000Y-116651493D01*
X114705000Y-88986701D02*
X116293299Y-90575000D01*
X139860000Y-116651493D02*
X141848507Y-118640000D01*
X116293299Y-90575000D02*
X121125812Y-90575000D01*
%TO.N,/M3ENCA*%
X141848507Y-121180000D02*
X166250000Y-121180000D01*
X112165000Y-88986701D02*
X114203299Y-91025000D01*
X114203299Y-91025000D02*
X120939416Y-91025000D01*
X112165000Y-88013299D02*
X112165000Y-88986701D01*
X120081701Y-80475000D02*
X117256701Y-83300000D01*
X117256701Y-83300000D02*
X115228299Y-83300000D01*
X139410000Y-109495584D02*
X139410000Y-118741493D01*
X166250000Y-121180000D02*
X167700000Y-122630000D01*
X115228299Y-83300000D02*
X114540952Y-83987347D01*
X139410000Y-118741493D02*
X141848507Y-121180000D01*
X114540952Y-85637347D02*
X112165000Y-88013299D01*
X120960000Y-80475000D02*
X120081701Y-80475000D01*
X114540952Y-83987347D02*
X114540952Y-85637347D01*
X120939416Y-91025000D02*
X139410000Y-109495584D01*
%TO.N,/M4ENCB*%
X138960000Y-109681980D02*
X138960000Y-120831493D01*
X120700000Y-79300000D02*
X117933299Y-79300000D01*
X112020951Y-84157348D02*
X112020951Y-85617348D01*
X113328299Y-82850000D02*
X112020951Y-84157348D01*
X141878507Y-123750000D02*
X166280000Y-123750000D01*
X166280000Y-123750000D02*
X167700000Y-125170000D01*
X117055000Y-81545000D02*
X115750000Y-82850000D01*
X115750000Y-82850000D02*
X113328299Y-82850000D01*
X120753020Y-91475000D02*
X138960000Y-109681980D01*
X117933299Y-79300000D02*
X117055000Y-80178299D01*
X117055000Y-80178299D02*
X117055000Y-81545000D01*
X109625000Y-88986701D02*
X112113299Y-91475000D01*
X138960000Y-120831493D02*
X141878507Y-123750000D01*
X109625000Y-88013299D02*
X109625000Y-88986701D01*
X112113299Y-91475000D02*
X120753020Y-91475000D01*
X112020951Y-85617348D02*
X109625000Y-88013299D01*
X123500000Y-76500000D02*
X120700000Y-79300000D01*
%TO.N,/M4ENCA*%
X138510000Y-122921493D02*
X141848507Y-126260000D01*
X111926903Y-91925000D02*
X120566624Y-91925000D01*
X109175000Y-84463299D02*
X109175000Y-89173097D01*
X114705000Y-79988299D02*
X114705000Y-80771701D01*
X120960000Y-76500000D02*
X118610000Y-78850000D01*
X110388299Y-83250000D02*
X109175000Y-84463299D01*
X166240000Y-126250000D02*
X167700000Y-127710000D01*
X138510000Y-109868376D02*
X138510000Y-122921493D01*
X114705000Y-80771701D02*
X112226701Y-83250000D01*
X142761493Y-126250000D02*
X166240000Y-126250000D01*
X109175000Y-89173097D02*
X111926903Y-91925000D01*
X115843299Y-78850000D02*
X114705000Y-79988299D01*
X112226701Y-83250000D02*
X110388299Y-83250000D01*
X142751493Y-126260000D02*
X142761493Y-126250000D01*
X120566624Y-91925000D02*
X138510000Y-109868376D01*
X141848507Y-126260000D02*
X142751493Y-126260000D01*
X118610000Y-78850000D02*
X115843299Y-78850000D01*
%TD*%
%TA.AperFunction,Conductor*%
%TO.N,+5V*%
G36*
X174984563Y-65302414D02*
G01*
X175000000Y-65305136D01*
X175010855Y-65303222D01*
X175016550Y-65303222D01*
X175034862Y-65302022D01*
X175404093Y-65318143D01*
X175415042Y-65319101D01*
X175810606Y-65371178D01*
X175821432Y-65373087D01*
X176210951Y-65459442D01*
X176221568Y-65462287D01*
X176396691Y-65517503D01*
X176602081Y-65582262D01*
X176612395Y-65586015D01*
X176981028Y-65738708D01*
X176990972Y-65743346D01*
X177344867Y-65927572D01*
X177354387Y-65933068D01*
X177690877Y-66147436D01*
X177699881Y-66153740D01*
X178016421Y-66396629D01*
X178024841Y-66403695D01*
X178318992Y-66673235D01*
X178326765Y-66681008D01*
X178596305Y-66975159D01*
X178603371Y-66983579D01*
X178846260Y-67300119D01*
X178852564Y-67309123D01*
X179066932Y-67645613D01*
X179072428Y-67655133D01*
X179256650Y-68009019D01*
X179261292Y-68018972D01*
X179389291Y-68327989D01*
X179413982Y-68387598D01*
X179417738Y-68397919D01*
X179431706Y-68442219D01*
X179537713Y-68778432D01*
X179540558Y-68789049D01*
X179626913Y-69178568D01*
X179628822Y-69189394D01*
X179680899Y-69584958D01*
X179681857Y-69595908D01*
X179697978Y-69965138D01*
X179696778Y-69983450D01*
X179696778Y-69989145D01*
X179694864Y-70000000D01*
X179696778Y-70010855D01*
X179697586Y-70015437D01*
X179699500Y-70037317D01*
X179699500Y-139962683D01*
X179697586Y-139984563D01*
X179694864Y-140000000D01*
X179696778Y-140010855D01*
X179696778Y-140016550D01*
X179697978Y-140034862D01*
X179681857Y-140404092D01*
X179680899Y-140415042D01*
X179628822Y-140810606D01*
X179626913Y-140821432D01*
X179540558Y-141210951D01*
X179537713Y-141221568D01*
X179515876Y-141290828D01*
X179418686Y-141599077D01*
X179417741Y-141602073D01*
X179413985Y-141612395D01*
X179334434Y-141804449D01*
X179261296Y-141981019D01*
X179256650Y-141990981D01*
X179072428Y-142344867D01*
X179066932Y-142354387D01*
X178852564Y-142690877D01*
X178846260Y-142699881D01*
X178603371Y-143016421D01*
X178596305Y-143024841D01*
X178326765Y-143318992D01*
X178318992Y-143326765D01*
X178024841Y-143596305D01*
X178016421Y-143603371D01*
X177699881Y-143846260D01*
X177690877Y-143852564D01*
X177354387Y-144066932D01*
X177344868Y-144072427D01*
X176990972Y-144256654D01*
X176981028Y-144261292D01*
X176612395Y-144413985D01*
X176602081Y-144417738D01*
X176396691Y-144482497D01*
X176221568Y-144537713D01*
X176210951Y-144540558D01*
X175821432Y-144626913D01*
X175810606Y-144628822D01*
X175415042Y-144680899D01*
X175404093Y-144681857D01*
X175034862Y-144697978D01*
X175016550Y-144696778D01*
X175010855Y-144696778D01*
X175000000Y-144694864D01*
X174989145Y-144696778D01*
X174984563Y-144697586D01*
X174962683Y-144699500D01*
X110037317Y-144699500D01*
X110015437Y-144697586D01*
X110010855Y-144696778D01*
X110000000Y-144694864D01*
X109989145Y-144696778D01*
X109983450Y-144696778D01*
X109965138Y-144697978D01*
X109595907Y-144681857D01*
X109584958Y-144680899D01*
X109189394Y-144628822D01*
X109178568Y-144626913D01*
X108789049Y-144540558D01*
X108778432Y-144537713D01*
X108603309Y-144482497D01*
X108397919Y-144417738D01*
X108387605Y-144413985D01*
X108018972Y-144261292D01*
X108009028Y-144256654D01*
X107655132Y-144072427D01*
X107645613Y-144066932D01*
X107309123Y-143852564D01*
X107300119Y-143846260D01*
X106983579Y-143603371D01*
X106975159Y-143596305D01*
X106681008Y-143326765D01*
X106673235Y-143318992D01*
X106403695Y-143024841D01*
X106396629Y-143016421D01*
X106153740Y-142699881D01*
X106147436Y-142690877D01*
X105933068Y-142354387D01*
X105927572Y-142344867D01*
X105743350Y-141990981D01*
X105738704Y-141981019D01*
X105665567Y-141804449D01*
X105586015Y-141612395D01*
X105582259Y-141602073D01*
X105581315Y-141599077D01*
X105484124Y-141290828D01*
X105462287Y-141221568D01*
X105459442Y-141210951D01*
X105373087Y-140821432D01*
X105371178Y-140810606D01*
X105319101Y-140415042D01*
X105318143Y-140404092D01*
X105302022Y-140034862D01*
X105303222Y-140016550D01*
X105303222Y-140010855D01*
X105305136Y-140000000D01*
X105302414Y-139984563D01*
X105300500Y-139962683D01*
X105300500Y-139952736D01*
X108195070Y-139952736D01*
X108195832Y-139968601D01*
X108207909Y-140220041D01*
X108260118Y-140482512D01*
X108350549Y-140734383D01*
X108352765Y-140738507D01*
X108420982Y-140865465D01*
X108477215Y-140970121D01*
X108480010Y-140973864D01*
X108480012Y-140973867D01*
X108634542Y-141180807D01*
X108637335Y-141184547D01*
X108640642Y-141187825D01*
X108640647Y-141187831D01*
X108824074Y-141369663D01*
X108827390Y-141372950D01*
X109043205Y-141531192D01*
X109047340Y-141533368D01*
X109047344Y-141533370D01*
X109176918Y-141601542D01*
X109280039Y-141655797D01*
X109284458Y-141657340D01*
X109528273Y-141742484D01*
X109528279Y-141742486D01*
X109532690Y-141744026D01*
X109795606Y-141793943D01*
X109922616Y-141798933D01*
X110058345Y-141804266D01*
X110058350Y-141804266D01*
X110063013Y-141804449D01*
X110158943Y-141793943D01*
X110324382Y-141775825D01*
X110324387Y-141775824D01*
X110329035Y-141775315D01*
X110444567Y-141744898D01*
X110583309Y-141708370D01*
X110587829Y-141707180D01*
X110712501Y-141653617D01*
X110829407Y-141603391D01*
X110829410Y-141603389D01*
X110833710Y-141601542D01*
X110837690Y-141599079D01*
X110837694Y-141599077D01*
X111057302Y-141463179D01*
X111057306Y-141463176D01*
X111061275Y-141460720D01*
X111075010Y-141449092D01*
X111261960Y-141290828D01*
X111261961Y-141290827D01*
X111265526Y-141287809D01*
X111323618Y-141221568D01*
X111438894Y-141090122D01*
X111438898Y-141090117D01*
X111441976Y-141086607D01*
X111505055Y-140988539D01*
X111584219Y-140865465D01*
X111584222Y-140865460D01*
X111586747Y-140861534D01*
X111696661Y-140617534D01*
X111769302Y-140359969D01*
X111787103Y-140220041D01*
X111802677Y-140097625D01*
X111802677Y-140097621D01*
X111803075Y-140094495D01*
X111803906Y-140062777D01*
X111805466Y-140003160D01*
X111805549Y-140000000D01*
X111802037Y-139952736D01*
X173195070Y-139952736D01*
X173195832Y-139968601D01*
X173207909Y-140220041D01*
X173260118Y-140482512D01*
X173350549Y-140734383D01*
X173352765Y-140738507D01*
X173420982Y-140865465D01*
X173477215Y-140970121D01*
X173480010Y-140973864D01*
X173480012Y-140973867D01*
X173634542Y-141180807D01*
X173637335Y-141184547D01*
X173640642Y-141187825D01*
X173640647Y-141187831D01*
X173824074Y-141369663D01*
X173827390Y-141372950D01*
X174043205Y-141531192D01*
X174047340Y-141533368D01*
X174047344Y-141533370D01*
X174176918Y-141601542D01*
X174280039Y-141655797D01*
X174284458Y-141657340D01*
X174528273Y-141742484D01*
X174528279Y-141742486D01*
X174532690Y-141744026D01*
X174795606Y-141793943D01*
X174922616Y-141798933D01*
X175058345Y-141804266D01*
X175058350Y-141804266D01*
X175063013Y-141804449D01*
X175158943Y-141793943D01*
X175324382Y-141775825D01*
X175324387Y-141775824D01*
X175329035Y-141775315D01*
X175444567Y-141744898D01*
X175583309Y-141708370D01*
X175587829Y-141707180D01*
X175712501Y-141653617D01*
X175829407Y-141603391D01*
X175829410Y-141603389D01*
X175833710Y-141601542D01*
X175837690Y-141599079D01*
X175837694Y-141599077D01*
X176057302Y-141463179D01*
X176057306Y-141463176D01*
X176061275Y-141460720D01*
X176075010Y-141449092D01*
X176261960Y-141290828D01*
X176261961Y-141290827D01*
X176265526Y-141287809D01*
X176323618Y-141221568D01*
X176438894Y-141090122D01*
X176438898Y-141090117D01*
X176441976Y-141086607D01*
X176505055Y-140988539D01*
X176584219Y-140865465D01*
X176584222Y-140865460D01*
X176586747Y-140861534D01*
X176696661Y-140617534D01*
X176769302Y-140359969D01*
X176787103Y-140220041D01*
X176802677Y-140097625D01*
X176802677Y-140097621D01*
X176803075Y-140094495D01*
X176803906Y-140062777D01*
X176805466Y-140003160D01*
X176805549Y-140000000D01*
X176789305Y-139781408D01*
X176786064Y-139737788D01*
X176786063Y-139737784D01*
X176785717Y-139733123D01*
X176775161Y-139686470D01*
X176727686Y-139476666D01*
X176726655Y-139472109D01*
X176629662Y-139222691D01*
X176615195Y-139197378D01*
X176499187Y-138994408D01*
X176496868Y-138990350D01*
X176331190Y-138780189D01*
X176136269Y-138596825D01*
X175916385Y-138444286D01*
X175912194Y-138442219D01*
X175680559Y-138327989D01*
X175680556Y-138327988D01*
X175676371Y-138325924D01*
X175629243Y-138310838D01*
X175500459Y-138269614D01*
X175421497Y-138244338D01*
X175276134Y-138220665D01*
X175161976Y-138202073D01*
X175161975Y-138202073D01*
X175157364Y-138201322D01*
X175023569Y-138199570D01*
X174894451Y-138197880D01*
X174894448Y-138197880D01*
X174889774Y-138197819D01*
X174624605Y-138233907D01*
X174620118Y-138235215D01*
X174620117Y-138235215D01*
X174588817Y-138244338D01*
X174367683Y-138308792D01*
X174363430Y-138310752D01*
X174363429Y-138310753D01*
X174311512Y-138334687D01*
X174124652Y-138420831D01*
X174120743Y-138423394D01*
X173904764Y-138564996D01*
X173904759Y-138565000D01*
X173900851Y-138567562D01*
X173701197Y-138745760D01*
X173675412Y-138776763D01*
X173552240Y-138924862D01*
X173530075Y-138951512D01*
X173527652Y-138955505D01*
X173411217Y-139147384D01*
X173391244Y-139180298D01*
X173389437Y-139184606D01*
X173389437Y-139184607D01*
X173321464Y-139346705D01*
X173287755Y-139427091D01*
X173286604Y-139431623D01*
X173286603Y-139431626D01*
X173223033Y-139681933D01*
X173221881Y-139686470D01*
X173195070Y-139952736D01*
X111802037Y-139952736D01*
X111789305Y-139781408D01*
X111786064Y-139737788D01*
X111786063Y-139737784D01*
X111785717Y-139733123D01*
X111775161Y-139686470D01*
X111727686Y-139476666D01*
X111726655Y-139472109D01*
X111629662Y-139222691D01*
X111615195Y-139197378D01*
X111499187Y-138994408D01*
X111496868Y-138990350D01*
X111450027Y-138930932D01*
X141603623Y-138930932D01*
X141612916Y-138942945D01*
X141656569Y-138973512D01*
X141666047Y-138978984D01*
X141857962Y-139068475D01*
X141868255Y-139072221D01*
X142072786Y-139127025D01*
X142083581Y-139128928D01*
X142294525Y-139147384D01*
X142305475Y-139147384D01*
X142516419Y-139128928D01*
X142527214Y-139127025D01*
X142731745Y-139072221D01*
X142742038Y-139068475D01*
X142933953Y-138978984D01*
X142943431Y-138973512D01*
X142987920Y-138942359D01*
X142996294Y-138931883D01*
X142989226Y-138918436D01*
X142312812Y-138242022D01*
X142298868Y-138234408D01*
X142297035Y-138234539D01*
X142290420Y-138238790D01*
X141610053Y-138919157D01*
X141603623Y-138930932D01*
X111450027Y-138930932D01*
X111331190Y-138780189D01*
X111136269Y-138596825D01*
X110916385Y-138444286D01*
X110912194Y-138442219D01*
X110680559Y-138327989D01*
X110680556Y-138327988D01*
X110676371Y-138325924D01*
X110629243Y-138310838D01*
X110500459Y-138269614D01*
X110421497Y-138244338D01*
X110276134Y-138220665D01*
X110161976Y-138202073D01*
X110161975Y-138202073D01*
X110157364Y-138201322D01*
X110023569Y-138199570D01*
X109894451Y-138197880D01*
X109894448Y-138197880D01*
X109889774Y-138197819D01*
X109624605Y-138233907D01*
X109620118Y-138235215D01*
X109620117Y-138235215D01*
X109588817Y-138244338D01*
X109367683Y-138308792D01*
X109363430Y-138310752D01*
X109363429Y-138310753D01*
X109311512Y-138334687D01*
X109124652Y-138420831D01*
X109120743Y-138423394D01*
X108904764Y-138564996D01*
X108904759Y-138565000D01*
X108900851Y-138567562D01*
X108701197Y-138745760D01*
X108675412Y-138776763D01*
X108552240Y-138924862D01*
X108530075Y-138951512D01*
X108527652Y-138955505D01*
X108411217Y-139147384D01*
X108391244Y-139180298D01*
X108389437Y-139184606D01*
X108389437Y-139184607D01*
X108321464Y-139346705D01*
X108287755Y-139427091D01*
X108286604Y-139431623D01*
X108286603Y-139431626D01*
X108223033Y-139681933D01*
X108221881Y-139686470D01*
X108195070Y-139952736D01*
X105300500Y-139952736D01*
X105300500Y-135649663D01*
X114992000Y-135649663D01*
X114992001Y-137350336D01*
X114992321Y-137356673D01*
X115033041Y-137558623D01*
X115112211Y-137748817D01*
X115226816Y-137920011D01*
X115372489Y-138065684D01*
X115543683Y-138180289D01*
X115733877Y-138259459D01*
X115935827Y-138300179D01*
X115940493Y-138300415D01*
X115940498Y-138300416D01*
X115940575Y-138300420D01*
X115940593Y-138300420D01*
X115942163Y-138300500D01*
X115943760Y-138300500D01*
X117047691Y-138300499D01*
X118142836Y-138300499D01*
X118144392Y-138300420D01*
X118144409Y-138300420D01*
X118144503Y-138300415D01*
X118144505Y-138300415D01*
X118149173Y-138300179D01*
X118351123Y-138259459D01*
X118541317Y-138180289D01*
X118712511Y-138065684D01*
X118858184Y-137920011D01*
X118887998Y-137875475D01*
X141022616Y-137875475D01*
X141041072Y-138086419D01*
X141042975Y-138097214D01*
X141097779Y-138301745D01*
X141101525Y-138312037D01*
X141191012Y-138503944D01*
X141196495Y-138513439D01*
X141227640Y-138557919D01*
X141238117Y-138566294D01*
X141251564Y-138559226D01*
X141927978Y-137882812D01*
X141934356Y-137871132D01*
X142664408Y-137871132D01*
X142664539Y-137872965D01*
X142668790Y-137879580D01*
X143349157Y-138559947D01*
X143360932Y-138566377D01*
X143372947Y-138557081D01*
X143403505Y-138513439D01*
X143408988Y-138503944D01*
X143498475Y-138312037D01*
X143502221Y-138301745D01*
X143557025Y-138097214D01*
X143558928Y-138086419D01*
X143577384Y-137875475D01*
X143577384Y-137864525D01*
X143576555Y-137855051D01*
X166629449Y-137855051D01*
X166646934Y-138063274D01*
X166679505Y-138176862D01*
X166699262Y-138245761D01*
X166704530Y-138264134D01*
X166707345Y-138269611D01*
X166707346Y-138269614D01*
X166737347Y-138327989D01*
X166800043Y-138449983D01*
X166803866Y-138454807D01*
X166803869Y-138454811D01*
X166892230Y-138566294D01*
X166929835Y-138613739D01*
X166934529Y-138617734D01*
X166966964Y-138645338D01*
X167088963Y-138749168D01*
X167094341Y-138752174D01*
X167094343Y-138752175D01*
X167138743Y-138776989D01*
X167271364Y-138851108D01*
X167470093Y-138915679D01*
X167677578Y-138940420D01*
X167683713Y-138939948D01*
X167683715Y-138939948D01*
X167879776Y-138924862D01*
X167879781Y-138924861D01*
X167885917Y-138924389D01*
X167891847Y-138922733D01*
X167891849Y-138922733D01*
X167986546Y-138896293D01*
X168087175Y-138868197D01*
X168092675Y-138865419D01*
X168268185Y-138776763D01*
X168268187Y-138776762D01*
X168273686Y-138773984D01*
X168438345Y-138645338D01*
X168574880Y-138487160D01*
X168678092Y-138305475D01*
X168744049Y-138107202D01*
X168767697Y-137920011D01*
X168769796Y-137903396D01*
X168769797Y-137903389D01*
X168770238Y-137899894D01*
X168770655Y-137870000D01*
X168750265Y-137662042D01*
X168689870Y-137462005D01*
X168685663Y-137454093D01*
X168594667Y-137282955D01*
X168594666Y-137282953D01*
X168591771Y-137277509D01*
X168459705Y-137115580D01*
X168298703Y-136982387D01*
X168114896Y-136883003D01*
X168015091Y-136852108D01*
X167921172Y-136823035D01*
X167921169Y-136823034D01*
X167915285Y-136821213D01*
X167909160Y-136820569D01*
X167909159Y-136820569D01*
X167713603Y-136800015D01*
X167713602Y-136800015D01*
X167707475Y-136799371D01*
X167611372Y-136808117D01*
X167505520Y-136817750D01*
X167505519Y-136817750D01*
X167499379Y-136818309D01*
X167493465Y-136820050D01*
X167493463Y-136820050D01*
X167356352Y-136860404D01*
X167298926Y-136877306D01*
X167113749Y-136974114D01*
X166950902Y-137105046D01*
X166946944Y-137109763D01*
X166946942Y-137109765D01*
X166886262Y-137182081D01*
X166816588Y-137265115D01*
X166813624Y-137270507D01*
X166813621Y-137270511D01*
X166763731Y-137361261D01*
X166715923Y-137448224D01*
X166714062Y-137454091D01*
X166714061Y-137454093D01*
X166680902Y-137558623D01*
X166652741Y-137647398D01*
X166629449Y-137855051D01*
X143576555Y-137855051D01*
X143558928Y-137653581D01*
X143557025Y-137642786D01*
X143502221Y-137438255D01*
X143498475Y-137427963D01*
X143408988Y-137236056D01*
X143403505Y-137226561D01*
X143372360Y-137182081D01*
X143361883Y-137173706D01*
X143348436Y-137180774D01*
X142672022Y-137857188D01*
X142664408Y-137871132D01*
X141934356Y-137871132D01*
X141935592Y-137868868D01*
X141935461Y-137867035D01*
X141931210Y-137860420D01*
X141250843Y-137180053D01*
X141239068Y-137173623D01*
X141227053Y-137182919D01*
X141196495Y-137226561D01*
X141191012Y-137236056D01*
X141101525Y-137427963D01*
X141097779Y-137438255D01*
X141042975Y-137642786D01*
X141041072Y-137653581D01*
X141022616Y-137864525D01*
X141022616Y-137875475D01*
X118887998Y-137875475D01*
X118972789Y-137748817D01*
X119051959Y-137558623D01*
X119092679Y-137356673D01*
X119093000Y-137350337D01*
X119092999Y-135649664D01*
X119092679Y-135643327D01*
X119051959Y-135441377D01*
X118972789Y-135251183D01*
X118858184Y-135079989D01*
X118712511Y-134934316D01*
X118541317Y-134819711D01*
X118351123Y-134740541D01*
X118149173Y-134699821D01*
X118144507Y-134699585D01*
X118144502Y-134699584D01*
X118144425Y-134699580D01*
X118144407Y-134699580D01*
X118142837Y-134699500D01*
X118141240Y-134699500D01*
X117037309Y-134699501D01*
X115942164Y-134699501D01*
X115940608Y-134699580D01*
X115940591Y-134699580D01*
X115940497Y-134699585D01*
X115940495Y-134699585D01*
X115935827Y-134699821D01*
X115733877Y-134740541D01*
X115543683Y-134819711D01*
X115372489Y-134934316D01*
X115226816Y-135079989D01*
X115112211Y-135251183D01*
X115033041Y-135441377D01*
X114992321Y-135643327D01*
X114992000Y-135649663D01*
X105300500Y-135649663D01*
X105300500Y-133984754D01*
X108844967Y-133984754D01*
X108858796Y-134195749D01*
X108860217Y-134201345D01*
X108860218Y-134201350D01*
X108882784Y-134290200D01*
X108910845Y-134400690D01*
X108913262Y-134405933D01*
X108931388Y-134445252D01*
X108999369Y-134592714D01*
X109121405Y-134765391D01*
X109272865Y-134912937D01*
X109277661Y-134916142D01*
X109277664Y-134916144D01*
X109420936Y-135011875D01*
X109448677Y-135030411D01*
X109453985Y-135032692D01*
X109453986Y-135032692D01*
X109637650Y-135111600D01*
X109637653Y-135111601D01*
X109642953Y-135113878D01*
X109648582Y-135115152D01*
X109648583Y-135115152D01*
X109843550Y-135159269D01*
X109843553Y-135159269D01*
X109849186Y-135160544D01*
X109854957Y-135160771D01*
X109854959Y-135160771D01*
X109916989Y-135163208D01*
X110060470Y-135168846D01*
X110066179Y-135168018D01*
X110066183Y-135168018D01*
X110264015Y-135139333D01*
X110264019Y-135139332D01*
X110269730Y-135138504D01*
X110326676Y-135119173D01*
X110464483Y-135072395D01*
X110464488Y-135072393D01*
X110469955Y-135070537D01*
X110474998Y-135067713D01*
X110649395Y-134970046D01*
X110649399Y-134970043D01*
X110654442Y-134967219D01*
X110817012Y-134832012D01*
X110952219Y-134669442D01*
X110955043Y-134664399D01*
X110955046Y-134664395D01*
X111052713Y-134489998D01*
X111052714Y-134489996D01*
X111055537Y-134484955D01*
X111057393Y-134479488D01*
X111057395Y-134479483D01*
X111121647Y-134290200D01*
X111123504Y-134284730D01*
X111153846Y-134075470D01*
X111155429Y-134015000D01*
X111136081Y-133804440D01*
X111127218Y-133773012D01*
X111103859Y-133690188D01*
X111078686Y-133600931D01*
X111067553Y-133578354D01*
X110987719Y-133416469D01*
X110985165Y-133411290D01*
X110858651Y-133241867D01*
X110703381Y-133098337D01*
X110599914Y-133033054D01*
X110529434Y-132988584D01*
X110529433Y-132988584D01*
X110524554Y-132985505D01*
X110328160Y-132907152D01*
X110322503Y-132906027D01*
X110322497Y-132906025D01*
X110166916Y-132875079D01*
X110104006Y-132842172D01*
X110068874Y-132780477D01*
X110072674Y-132709582D01*
X110114199Y-132651996D01*
X110180266Y-132626002D01*
X110191497Y-132625500D01*
X110894646Y-132625500D01*
X110898350Y-132625059D01*
X110898353Y-132625059D01*
X110905746Y-132624179D01*
X110920846Y-132622382D01*
X111011665Y-132582042D01*
X111012518Y-132581663D01*
X111023153Y-132576939D01*
X111032678Y-132567398D01*
X111045307Y-132554747D01*
X119692000Y-132554747D01*
X119692001Y-134445252D01*
X119692169Y-134447545D01*
X119692169Y-134447552D01*
X119695275Y-134489998D01*
X119699329Y-134545418D01*
X119749946Y-134755446D01*
X119837991Y-134952734D01*
X119841264Y-134957488D01*
X119841265Y-134957489D01*
X119948950Y-135113878D01*
X119960514Y-135130673D01*
X120113412Y-135283304D01*
X120291564Y-135405516D01*
X120442371Y-135472502D01*
X120482211Y-135490198D01*
X120489005Y-135493216D01*
X120494622Y-135494559D01*
X120494624Y-135494560D01*
X120694122Y-135542271D01*
X120694128Y-135542272D01*
X120699121Y-135543466D01*
X120736961Y-135546179D01*
X120794997Y-135550339D01*
X120795005Y-135550339D01*
X120797247Y-135550500D01*
X121734014Y-135550500D01*
X122687752Y-135550499D01*
X122690045Y-135550331D01*
X122690052Y-135550331D01*
X122782783Y-135543547D01*
X122782787Y-135543546D01*
X122787918Y-135543171D01*
X122997946Y-135492554D01*
X123195234Y-135404509D01*
X123260028Y-135359894D01*
X123325153Y-135315051D01*
X141229449Y-135315051D01*
X141229965Y-135321195D01*
X141244157Y-135490198D01*
X141246934Y-135523274D01*
X141304530Y-135724134D01*
X141400043Y-135909983D01*
X141403866Y-135914807D01*
X141403869Y-135914811D01*
X141429509Y-135947160D01*
X141529835Y-136073739D01*
X141534529Y-136077734D01*
X141566964Y-136105338D01*
X141688963Y-136209168D01*
X141694341Y-136212174D01*
X141694343Y-136212175D01*
X141780163Y-136260138D01*
X141871364Y-136311108D01*
X142067013Y-136374678D01*
X142125617Y-136414750D01*
X142153254Y-136480147D01*
X142141147Y-136550104D01*
X142093141Y-136602410D01*
X142060686Y-136616217D01*
X141868255Y-136667779D01*
X141857963Y-136671525D01*
X141666056Y-136761012D01*
X141656561Y-136766495D01*
X141612081Y-136797640D01*
X141603706Y-136808117D01*
X141610774Y-136821564D01*
X142287188Y-137497978D01*
X142301132Y-137505592D01*
X142302965Y-137505461D01*
X142309580Y-137501210D01*
X142989947Y-136820843D01*
X142996377Y-136809068D01*
X142987084Y-136797055D01*
X142943431Y-136766488D01*
X142933953Y-136761016D01*
X142742038Y-136671525D01*
X142731745Y-136667779D01*
X142533254Y-136614594D01*
X142472631Y-136577642D01*
X142441610Y-136513782D01*
X142450038Y-136443287D01*
X142495241Y-136388540D01*
X142531981Y-136371529D01*
X142681233Y-136329857D01*
X142681242Y-136329854D01*
X142687175Y-136328197D01*
X142692675Y-136325419D01*
X142868185Y-136236763D01*
X142868187Y-136236762D01*
X142873686Y-136233984D01*
X143038345Y-136105338D01*
X143174880Y-135947160D01*
X143278092Y-135765475D01*
X143344049Y-135567202D01*
X143359182Y-135447415D01*
X143369796Y-135363396D01*
X143369797Y-135363389D01*
X143370238Y-135359894D01*
X143370655Y-135330000D01*
X143369189Y-135315051D01*
X166629449Y-135315051D01*
X166629965Y-135321195D01*
X166644157Y-135490198D01*
X166646934Y-135523274D01*
X166704530Y-135724134D01*
X166800043Y-135909983D01*
X166803866Y-135914807D01*
X166803869Y-135914811D01*
X166829509Y-135947160D01*
X166929835Y-136073739D01*
X166934529Y-136077734D01*
X166966964Y-136105338D01*
X167088963Y-136209168D01*
X167094341Y-136212174D01*
X167094343Y-136212175D01*
X167180163Y-136260138D01*
X167271364Y-136311108D01*
X167470093Y-136375679D01*
X167677578Y-136400420D01*
X167683713Y-136399948D01*
X167683715Y-136399948D01*
X167879776Y-136384862D01*
X167879781Y-136384861D01*
X167885917Y-136384389D01*
X167891847Y-136382733D01*
X167891849Y-136382733D01*
X167986546Y-136356293D01*
X168087175Y-136328197D01*
X168092675Y-136325419D01*
X168268185Y-136236763D01*
X168268187Y-136236762D01*
X168273686Y-136233984D01*
X168438345Y-136105338D01*
X168574880Y-135947160D01*
X168678092Y-135765475D01*
X168744049Y-135567202D01*
X168759182Y-135447415D01*
X168769796Y-135363396D01*
X168769797Y-135363389D01*
X168770238Y-135359894D01*
X168770655Y-135330000D01*
X168750265Y-135122042D01*
X168689870Y-134922005D01*
X168682907Y-134908910D01*
X168594667Y-134742955D01*
X168594666Y-134742953D01*
X168591771Y-134737509D01*
X168523042Y-134653239D01*
X168463594Y-134580348D01*
X168463592Y-134580346D01*
X168459705Y-134575580D01*
X168298703Y-134442387D01*
X168114896Y-134343003D01*
X168015090Y-134312108D01*
X167921172Y-134283035D01*
X167921169Y-134283034D01*
X167915285Y-134281213D01*
X167909160Y-134280569D01*
X167909159Y-134280569D01*
X167713603Y-134260015D01*
X167713602Y-134260015D01*
X167707475Y-134259371D01*
X167578286Y-134271128D01*
X167505520Y-134277750D01*
X167505519Y-134277750D01*
X167499379Y-134278309D01*
X167493465Y-134280050D01*
X167493463Y-134280050D01*
X167477562Y-134284730D01*
X167298926Y-134337306D01*
X167113749Y-134434114D01*
X166950902Y-134565046D01*
X166946944Y-134569763D01*
X166946942Y-134569765D01*
X166867538Y-134664395D01*
X166816588Y-134725115D01*
X166813624Y-134730507D01*
X166813621Y-134730511D01*
X166764583Y-134819711D01*
X166715923Y-134908224D01*
X166714062Y-134914091D01*
X166714061Y-134914093D01*
X166696312Y-134970046D01*
X166652741Y-135107398D01*
X166629449Y-135315051D01*
X143369189Y-135315051D01*
X143350265Y-135122042D01*
X143289870Y-134922005D01*
X143282907Y-134908910D01*
X143194667Y-134742955D01*
X143194666Y-134742953D01*
X143191771Y-134737509D01*
X143123042Y-134653239D01*
X143063594Y-134580348D01*
X143063592Y-134580346D01*
X143059705Y-134575580D01*
X142898703Y-134442387D01*
X142714896Y-134343003D01*
X142615090Y-134312108D01*
X142521172Y-134283035D01*
X142521169Y-134283034D01*
X142515285Y-134281213D01*
X142509160Y-134280569D01*
X142509159Y-134280569D01*
X142313603Y-134260015D01*
X142313602Y-134260015D01*
X142307475Y-134259371D01*
X142178286Y-134271128D01*
X142105520Y-134277750D01*
X142105519Y-134277750D01*
X142099379Y-134278309D01*
X142093465Y-134280050D01*
X142093463Y-134280050D01*
X142077562Y-134284730D01*
X141898926Y-134337306D01*
X141713749Y-134434114D01*
X141550902Y-134565046D01*
X141546944Y-134569763D01*
X141546942Y-134569765D01*
X141467538Y-134664395D01*
X141416588Y-134725115D01*
X141413624Y-134730507D01*
X141413621Y-134730511D01*
X141364583Y-134819711D01*
X141315923Y-134908224D01*
X141314062Y-134914091D01*
X141314061Y-134914093D01*
X141296312Y-134970046D01*
X141252741Y-135107398D01*
X141229449Y-135315051D01*
X123325153Y-135315051D01*
X123368417Y-135285261D01*
X123368418Y-135285260D01*
X123373173Y-135281986D01*
X123525804Y-135129088D01*
X123648016Y-134950936D01*
X123735716Y-134753495D01*
X123748331Y-134700746D01*
X123784771Y-134548378D01*
X123784772Y-134548372D01*
X123785966Y-134543379D01*
X123793000Y-134445253D01*
X123792999Y-132775051D01*
X141229449Y-132775051D01*
X141229965Y-132781195D01*
X141240722Y-132909292D01*
X141246934Y-132983274D01*
X141304530Y-133184134D01*
X141307345Y-133189611D01*
X141307346Y-133189614D01*
X141336577Y-133246491D01*
X141400043Y-133369983D01*
X141403866Y-133374807D01*
X141403869Y-133374811D01*
X141522156Y-133524050D01*
X141529835Y-133533739D01*
X141534529Y-133537734D01*
X141566964Y-133565338D01*
X141688963Y-133669168D01*
X141694341Y-133672174D01*
X141694343Y-133672175D01*
X141780164Y-133720138D01*
X141871364Y-133771108D01*
X142070093Y-133835679D01*
X142277578Y-133860420D01*
X142283713Y-133859948D01*
X142283715Y-133859948D01*
X142479776Y-133844862D01*
X142479781Y-133844861D01*
X142485917Y-133844389D01*
X142491847Y-133842733D01*
X142491849Y-133842733D01*
X142586546Y-133816293D01*
X142687175Y-133788197D01*
X142702393Y-133780510D01*
X142868185Y-133696763D01*
X142868187Y-133696762D01*
X142873686Y-133693984D01*
X143038345Y-133565338D01*
X143174880Y-133407160D01*
X143184162Y-133390822D01*
X143268780Y-133241867D01*
X143278092Y-133225475D01*
X143344049Y-133027202D01*
X143351259Y-132970129D01*
X143369796Y-132823396D01*
X143369797Y-132823389D01*
X143370238Y-132819894D01*
X143370655Y-132790000D01*
X143369189Y-132775051D01*
X166629449Y-132775051D01*
X166629965Y-132781195D01*
X166640722Y-132909292D01*
X166646934Y-132983274D01*
X166704530Y-133184134D01*
X166707345Y-133189611D01*
X166707346Y-133189614D01*
X166736577Y-133246491D01*
X166800043Y-133369983D01*
X166803866Y-133374807D01*
X166803869Y-133374811D01*
X166922156Y-133524050D01*
X166929835Y-133533739D01*
X166934529Y-133537734D01*
X166966964Y-133565338D01*
X167088963Y-133669168D01*
X167094341Y-133672174D01*
X167094343Y-133672175D01*
X167180164Y-133720138D01*
X167271364Y-133771108D01*
X167470093Y-133835679D01*
X167677578Y-133860420D01*
X167683713Y-133859948D01*
X167683715Y-133859948D01*
X167879776Y-133844862D01*
X167879781Y-133844861D01*
X167885917Y-133844389D01*
X167891847Y-133842733D01*
X167891849Y-133842733D01*
X167986546Y-133816293D01*
X168087175Y-133788197D01*
X168102393Y-133780510D01*
X168268185Y-133696763D01*
X168268187Y-133696762D01*
X168273686Y-133693984D01*
X168438345Y-133565338D01*
X168574880Y-133407160D01*
X168584162Y-133390822D01*
X168668780Y-133241867D01*
X168678092Y-133225475D01*
X168744049Y-133027202D01*
X168751259Y-132970129D01*
X168769796Y-132823396D01*
X168769797Y-132823389D01*
X168770238Y-132819894D01*
X168770655Y-132790000D01*
X168750265Y-132582042D01*
X168689870Y-132382005D01*
X168683299Y-132369646D01*
X168594667Y-132202955D01*
X168594666Y-132202953D01*
X168591771Y-132197509D01*
X168473538Y-132052541D01*
X168463594Y-132040348D01*
X168463592Y-132040346D01*
X168459705Y-132035580D01*
X168298703Y-131902387D01*
X168114896Y-131803003D01*
X168015091Y-131772108D01*
X167921172Y-131743035D01*
X167921169Y-131743034D01*
X167915285Y-131741213D01*
X167909160Y-131740569D01*
X167909159Y-131740569D01*
X167713603Y-131720015D01*
X167713602Y-131720015D01*
X167707475Y-131719371D01*
X167578286Y-131731128D01*
X167505520Y-131737750D01*
X167505519Y-131737750D01*
X167499379Y-131738309D01*
X167493465Y-131740050D01*
X167493463Y-131740050D01*
X167356352Y-131780404D01*
X167298926Y-131797306D01*
X167113749Y-131894114D01*
X166950902Y-132025046D01*
X166946944Y-132029763D01*
X166946942Y-132029765D01*
X166858778Y-132134835D01*
X166816588Y-132185115D01*
X166813624Y-132190507D01*
X166813621Y-132190511D01*
X166756373Y-132294646D01*
X166715923Y-132368224D01*
X166714062Y-132374091D01*
X166714061Y-132374093D01*
X166676118Y-132493705D01*
X166652741Y-132567398D01*
X166629449Y-132775051D01*
X143369189Y-132775051D01*
X143350265Y-132582042D01*
X143289870Y-132382005D01*
X143283299Y-132369646D01*
X143194667Y-132202955D01*
X143194666Y-132202953D01*
X143191771Y-132197509D01*
X143073538Y-132052541D01*
X143063594Y-132040348D01*
X143063592Y-132040346D01*
X143059705Y-132035580D01*
X142898703Y-131902387D01*
X142714896Y-131803003D01*
X142615091Y-131772108D01*
X142521172Y-131743035D01*
X142521169Y-131743034D01*
X142515285Y-131741213D01*
X142509160Y-131740569D01*
X142509159Y-131740569D01*
X142313603Y-131720015D01*
X142313602Y-131720015D01*
X142307475Y-131719371D01*
X142178286Y-131731128D01*
X142105520Y-131737750D01*
X142105519Y-131737750D01*
X142099379Y-131738309D01*
X142093465Y-131740050D01*
X142093463Y-131740050D01*
X141956352Y-131780404D01*
X141898926Y-131797306D01*
X141713749Y-131894114D01*
X141550902Y-132025046D01*
X141546944Y-132029763D01*
X141546942Y-132029765D01*
X141458778Y-132134835D01*
X141416588Y-132185115D01*
X141413624Y-132190507D01*
X141413621Y-132190511D01*
X141356373Y-132294646D01*
X141315923Y-132368224D01*
X141314062Y-132374091D01*
X141314061Y-132374093D01*
X141276118Y-132493705D01*
X141252741Y-132567398D01*
X141229449Y-132775051D01*
X123792999Y-132775051D01*
X123792999Y-132554748D01*
X123792656Y-132550059D01*
X123786047Y-132459717D01*
X123786046Y-132459713D01*
X123785671Y-132454582D01*
X123735054Y-132244554D01*
X123647009Y-132047266D01*
X123643735Y-132042511D01*
X123527761Y-131874083D01*
X123527760Y-131874082D01*
X123524486Y-131869327D01*
X123371588Y-131716696D01*
X123193436Y-131594484D01*
X123042629Y-131527498D01*
X123001277Y-131509130D01*
X123001275Y-131509129D01*
X122995995Y-131506784D01*
X122990378Y-131505441D01*
X122990376Y-131505440D01*
X122790878Y-131457729D01*
X122790872Y-131457728D01*
X122785879Y-131456534D01*
X122748039Y-131453821D01*
X122690003Y-131449661D01*
X122689995Y-131449661D01*
X122687753Y-131449500D01*
X121750986Y-131449500D01*
X120797248Y-131449501D01*
X120794955Y-131449669D01*
X120794948Y-131449669D01*
X120702217Y-131456453D01*
X120702213Y-131456454D01*
X120697082Y-131456829D01*
X120487054Y-131507446D01*
X120289766Y-131595491D01*
X120111827Y-131718014D01*
X120107747Y-131722101D01*
X120107746Y-131722102D01*
X120086850Y-131743035D01*
X119959196Y-131870912D01*
X119836984Y-132049064D01*
X119749284Y-132246505D01*
X119747941Y-132252122D01*
X119747940Y-132252124D01*
X119700229Y-132451622D01*
X119700228Y-132451628D01*
X119699034Y-132456621D01*
X119698667Y-132461743D01*
X119692794Y-132543675D01*
X119692000Y-132554747D01*
X111045307Y-132554747D01*
X111093025Y-132506945D01*
X111102241Y-132497713D01*
X111118144Y-132461743D01*
X111143675Y-132403992D01*
X111147506Y-132395327D01*
X111150500Y-132369646D01*
X111150500Y-130580354D01*
X111147382Y-130554154D01*
X111120243Y-130493054D01*
X111106663Y-130462482D01*
X111101939Y-130451847D01*
X111087200Y-130437133D01*
X111030945Y-130380977D01*
X111022713Y-130372759D01*
X111012076Y-130368056D01*
X111012074Y-130368055D01*
X110952538Y-130341735D01*
X110920327Y-130327494D01*
X110894646Y-130324500D01*
X109105354Y-130324500D01*
X109101650Y-130324941D01*
X109101647Y-130324941D01*
X109094254Y-130325821D01*
X109079154Y-130327618D01*
X108976847Y-130373061D01*
X108897759Y-130452287D01*
X108893056Y-130462924D01*
X108893055Y-130462926D01*
X108882323Y-130487202D01*
X108852494Y-130554673D01*
X108849500Y-130580354D01*
X108849500Y-132369646D01*
X108852618Y-132395846D01*
X108856456Y-132404486D01*
X108856456Y-132404487D01*
X108879613Y-132456621D01*
X108898061Y-132498153D01*
X108977287Y-132577241D01*
X108987924Y-132581944D01*
X108987926Y-132581945D01*
X109047462Y-132608265D01*
X109079673Y-132622506D01*
X109105354Y-132625500D01*
X109814988Y-132625500D01*
X109883109Y-132645502D01*
X109929602Y-132699158D01*
X109939706Y-132769432D01*
X109910212Y-132834012D01*
X109850486Y-132872396D01*
X109836326Y-132875680D01*
X109706650Y-132897962D01*
X109706649Y-132897962D01*
X109700953Y-132898941D01*
X109502575Y-132972127D01*
X109497614Y-132975079D01*
X109497613Y-132975079D01*
X109480089Y-132985505D01*
X109320856Y-133080238D01*
X109161881Y-133219655D01*
X109030976Y-133385708D01*
X109028287Y-133390819D01*
X109028285Y-133390822D01*
X109014792Y-133416469D01*
X108932523Y-133572836D01*
X108869820Y-133774773D01*
X108844967Y-133984754D01*
X105300500Y-133984754D01*
X105300500Y-89240490D01*
X108749500Y-89240490D01*
X108756914Y-89263307D01*
X108761528Y-89282526D01*
X108765281Y-89306223D01*
X108769784Y-89315060D01*
X108769784Y-89315061D01*
X108776172Y-89327599D01*
X108783736Y-89345860D01*
X108788085Y-89359244D01*
X108788087Y-89359247D01*
X108791151Y-89368678D01*
X108796980Y-89376701D01*
X108805253Y-89388088D01*
X108815577Y-89404934D01*
X108826472Y-89426317D01*
X111673683Y-92273528D01*
X111695057Y-92284418D01*
X111711909Y-92294744D01*
X111731323Y-92308850D01*
X111740752Y-92311914D01*
X111740755Y-92311915D01*
X111754142Y-92316265D01*
X111772406Y-92323830D01*
X111793777Y-92334719D01*
X111803569Y-92336270D01*
X111803572Y-92336271D01*
X111817472Y-92338473D01*
X111836691Y-92343087D01*
X111850076Y-92347436D01*
X111850083Y-92347437D01*
X111859510Y-92350500D01*
X112385716Y-92350500D01*
X112453837Y-92370502D01*
X112500330Y-92424158D01*
X112510434Y-92494432D01*
X112480940Y-92559012D01*
X112426321Y-92595778D01*
X112413677Y-92600082D01*
X112413674Y-92600083D01*
X112407007Y-92602353D01*
X112401009Y-92606043D01*
X112401007Y-92606044D01*
X112330526Y-92649405D01*
X112254045Y-92696456D01*
X112249014Y-92701382D01*
X112249011Y-92701385D01*
X112241807Y-92708440D01*
X112125732Y-92822109D01*
X112121913Y-92828034D01*
X112121912Y-92828036D01*
X112076995Y-92897734D01*
X112028446Y-92973067D01*
X112026037Y-92979687D01*
X112026035Y-92979690D01*
X111969430Y-93135211D01*
X111967022Y-93141828D01*
X111963123Y-93172693D01*
X111958578Y-93208675D01*
X111949500Y-93280533D01*
X111949500Y-126198417D01*
X111949493Y-126199737D01*
X111948559Y-126288907D01*
X111957615Y-126330792D01*
X111959675Y-126343370D01*
X111964454Y-126385972D01*
X111975350Y-126417259D01*
X111979511Y-126432063D01*
X111986511Y-126464442D01*
X112004630Y-126503299D01*
X112009414Y-126515082D01*
X112023515Y-126555573D01*
X112027249Y-126561548D01*
X112041070Y-126583667D01*
X112048408Y-126597182D01*
X112062409Y-126627207D01*
X112066728Y-126632774D01*
X112066728Y-126632775D01*
X112088674Y-126661067D01*
X112095969Y-126671524D01*
X112114950Y-126701900D01*
X112118684Y-126707875D01*
X112123646Y-126712872D01*
X112123647Y-126712873D01*
X112147003Y-126736393D01*
X112147585Y-126737015D01*
X112148099Y-126737677D01*
X112173959Y-126763537D01*
X112245230Y-126835307D01*
X112246257Y-126835959D01*
X112247465Y-126837043D01*
X114955095Y-129544673D01*
X114989121Y-129606985D01*
X114992000Y-129633768D01*
X114992000Y-132294646D01*
X114995118Y-132320846D01*
X115040561Y-132423153D01*
X115119787Y-132502241D01*
X115130424Y-132506944D01*
X115130426Y-132506945D01*
X115189962Y-132533265D01*
X115222173Y-132547506D01*
X115247854Y-132550500D01*
X118837146Y-132550500D01*
X118840850Y-132550059D01*
X118840853Y-132550059D01*
X118848246Y-132549179D01*
X118863346Y-132547382D01*
X118965653Y-132501939D01*
X119044741Y-132422713D01*
X119056849Y-132395327D01*
X119086175Y-132328992D01*
X119090006Y-132320327D01*
X119093000Y-132294646D01*
X119093000Y-130235051D01*
X141229449Y-130235051D01*
X141229965Y-130241195D01*
X141241013Y-130372759D01*
X141246934Y-130443274D01*
X141304530Y-130644134D01*
X141400043Y-130829983D01*
X141403866Y-130834807D01*
X141403869Y-130834811D01*
X141429509Y-130867160D01*
X141529835Y-130993739D01*
X141534529Y-130997734D01*
X141566964Y-131025338D01*
X141688963Y-131129168D01*
X141694341Y-131132174D01*
X141694343Y-131132175D01*
X141780164Y-131180138D01*
X141871364Y-131231108D01*
X142070093Y-131295679D01*
X142277578Y-131320420D01*
X142283713Y-131319948D01*
X142283715Y-131319948D01*
X142479776Y-131304862D01*
X142479781Y-131304861D01*
X142485917Y-131304389D01*
X142491847Y-131302733D01*
X142491849Y-131302733D01*
X142586546Y-131276293D01*
X142687175Y-131248197D01*
X142692675Y-131245419D01*
X142868185Y-131156763D01*
X142868187Y-131156762D01*
X142873686Y-131153984D01*
X143038345Y-131025338D01*
X143174880Y-130867160D01*
X143278092Y-130685475D01*
X143344049Y-130487202D01*
X143358468Y-130373061D01*
X143369796Y-130283396D01*
X143369797Y-130283389D01*
X143370238Y-130279894D01*
X143370655Y-130250000D01*
X143350265Y-130042042D01*
X143289870Y-129842005D01*
X143285663Y-129834093D01*
X143194667Y-129662955D01*
X143194666Y-129662953D01*
X143191771Y-129657509D01*
X143059705Y-129495580D01*
X142898703Y-129362387D01*
X142714896Y-129263003D01*
X142567829Y-129217478D01*
X142521172Y-129203035D01*
X142521169Y-129203034D01*
X142515285Y-129201213D01*
X142509160Y-129200569D01*
X142509159Y-129200569D01*
X142313603Y-129180015D01*
X142313602Y-129180015D01*
X142307475Y-129179371D01*
X142178286Y-129191128D01*
X142105520Y-129197750D01*
X142105519Y-129197750D01*
X142099379Y-129198309D01*
X142093465Y-129200050D01*
X142093463Y-129200050D01*
X142000561Y-129227393D01*
X141898926Y-129257306D01*
X141713749Y-129354114D01*
X141550902Y-129485046D01*
X141416588Y-129645115D01*
X141413624Y-129650507D01*
X141413621Y-129650511D01*
X141409774Y-129657509D01*
X141315923Y-129828224D01*
X141314062Y-129834091D01*
X141314061Y-129834093D01*
X141283809Y-129929460D01*
X141252741Y-130027398D01*
X141229449Y-130235051D01*
X119093000Y-130235051D01*
X119093000Y-128705354D01*
X119089882Y-128679154D01*
X119059249Y-128610188D01*
X119049163Y-128587482D01*
X119044439Y-128576847D01*
X118965213Y-128497759D01*
X118954576Y-128493056D01*
X118954574Y-128493055D01*
X118871492Y-128456325D01*
X118871493Y-128456325D01*
X118862827Y-128452494D01*
X118837146Y-128449500D01*
X116176268Y-128449500D01*
X116108147Y-128429498D01*
X116087173Y-128412595D01*
X113587405Y-125912827D01*
X113553379Y-125850515D01*
X113550500Y-125823732D01*
X113550500Y-93286095D01*
X113535546Y-93152778D01*
X113476485Y-92983177D01*
X113464057Y-92963287D01*
X113385049Y-92836849D01*
X113381316Y-92830875D01*
X113285920Y-92734811D01*
X113259733Y-92708440D01*
X113259729Y-92708437D01*
X113254770Y-92703443D01*
X113243761Y-92696456D01*
X113196860Y-92666692D01*
X113103136Y-92607213D01*
X113069397Y-92595199D01*
X113011933Y-92553505D01*
X112986133Y-92487362D01*
X113000188Y-92417770D01*
X113049636Y-92366825D01*
X113111664Y-92350500D01*
X120338186Y-92350500D01*
X120406307Y-92370502D01*
X120427281Y-92387405D01*
X138047595Y-110007719D01*
X138081621Y-110070031D01*
X138084500Y-110096814D01*
X138084500Y-122988886D01*
X138091914Y-123011703D01*
X138096528Y-123030922D01*
X138100281Y-123054619D01*
X138104784Y-123063456D01*
X138104784Y-123063457D01*
X138111172Y-123075995D01*
X138118736Y-123094256D01*
X138123085Y-123107640D01*
X138123087Y-123107643D01*
X138126151Y-123117074D01*
X138131980Y-123125097D01*
X138140253Y-123136484D01*
X138150577Y-123153330D01*
X138161472Y-123174713D01*
X141595287Y-126608528D01*
X141616670Y-126619423D01*
X141633516Y-126629747D01*
X141650220Y-126641883D01*
X141650221Y-126641884D01*
X141652927Y-126643850D01*
X141652673Y-126644200D01*
X141699182Y-126688129D01*
X141716246Y-126757044D01*
X141693343Y-126824245D01*
X141669316Y-126849839D01*
X141550902Y-126945046D01*
X141416588Y-127105115D01*
X141413624Y-127110507D01*
X141413621Y-127110511D01*
X141409774Y-127117509D01*
X141315923Y-127288224D01*
X141252741Y-127487398D01*
X141229449Y-127695051D01*
X141246934Y-127903274D01*
X141304530Y-128104134D01*
X141400043Y-128289983D01*
X141403866Y-128294807D01*
X141403869Y-128294811D01*
X141510622Y-128429498D01*
X141529835Y-128453739D01*
X141534529Y-128457734D01*
X141634754Y-128543032D01*
X141688963Y-128589168D01*
X141694341Y-128592174D01*
X141694343Y-128592175D01*
X141780164Y-128640138D01*
X141871364Y-128691108D01*
X142070093Y-128755679D01*
X142277578Y-128780420D01*
X142283713Y-128779948D01*
X142283715Y-128779948D01*
X142479776Y-128764862D01*
X142479781Y-128764861D01*
X142485917Y-128764389D01*
X142491847Y-128762733D01*
X142491849Y-128762733D01*
X142599440Y-128732693D01*
X142687175Y-128708197D01*
X142692675Y-128705419D01*
X142868185Y-128616763D01*
X142868187Y-128616762D01*
X142873686Y-128613984D01*
X143038345Y-128485338D01*
X143174880Y-128327160D01*
X143278092Y-128145475D01*
X143344049Y-127947202D01*
X143370238Y-127739894D01*
X143370655Y-127710000D01*
X143350265Y-127502042D01*
X143289870Y-127302005D01*
X143285663Y-127294093D01*
X143194667Y-127122955D01*
X143194666Y-127122953D01*
X143191771Y-127117509D01*
X143059705Y-126955580D01*
X142990810Y-126898585D01*
X142951072Y-126839751D01*
X142949450Y-126768773D01*
X142986460Y-126708185D01*
X143050350Y-126677225D01*
X143071126Y-126675500D01*
X166011562Y-126675500D01*
X166079683Y-126695502D01*
X166100657Y-126712405D01*
X166652252Y-127264000D01*
X166686278Y-127326312D01*
X166683259Y-127391193D01*
X166652741Y-127487398D01*
X166629449Y-127695051D01*
X166646934Y-127903274D01*
X166704530Y-128104134D01*
X166800043Y-128289983D01*
X166803866Y-128294807D01*
X166803869Y-128294811D01*
X166910622Y-128429498D01*
X166929835Y-128453739D01*
X166934529Y-128457734D01*
X167034754Y-128543032D01*
X167088963Y-128589168D01*
X167094341Y-128592174D01*
X167094343Y-128592175D01*
X167180164Y-128640138D01*
X167271364Y-128691108D01*
X167470093Y-128755679D01*
X167677578Y-128780420D01*
X167683713Y-128779948D01*
X167683715Y-128779948D01*
X167879776Y-128764862D01*
X167879781Y-128764861D01*
X167885917Y-128764389D01*
X167891847Y-128762733D01*
X167891849Y-128762733D01*
X167999440Y-128732693D01*
X168087175Y-128708197D01*
X168181691Y-128660454D01*
X168251511Y-128647594D01*
X168317203Y-128674523D01*
X168357906Y-128732693D01*
X168364500Y-128772920D01*
X168364500Y-128931562D01*
X168344498Y-128999683D01*
X168327595Y-129020657D01*
X168146003Y-129202249D01*
X168083691Y-129236275D01*
X168019649Y-129233519D01*
X167921172Y-129203035D01*
X167921169Y-129203034D01*
X167915285Y-129201213D01*
X167909160Y-129200569D01*
X167909159Y-129200569D01*
X167713603Y-129180015D01*
X167713602Y-129180015D01*
X167707475Y-129179371D01*
X167578286Y-129191128D01*
X167505520Y-129197750D01*
X167505519Y-129197750D01*
X167499379Y-129198309D01*
X167493465Y-129200050D01*
X167493463Y-129200050D01*
X167400561Y-129227393D01*
X167298926Y-129257306D01*
X167113749Y-129354114D01*
X166950902Y-129485046D01*
X166816588Y-129645115D01*
X166813624Y-129650507D01*
X166813621Y-129650511D01*
X166809774Y-129657509D01*
X166715923Y-129828224D01*
X166714062Y-129834091D01*
X166714061Y-129834093D01*
X166683809Y-129929460D01*
X166652741Y-130027398D01*
X166629449Y-130235051D01*
X166629965Y-130241195D01*
X166641013Y-130372759D01*
X166646934Y-130443274D01*
X166704530Y-130644134D01*
X166800043Y-130829983D01*
X166803866Y-130834807D01*
X166803869Y-130834811D01*
X166829509Y-130867160D01*
X166929835Y-130993739D01*
X166934529Y-130997734D01*
X166966964Y-131025338D01*
X167088963Y-131129168D01*
X167094341Y-131132174D01*
X167094343Y-131132175D01*
X167180164Y-131180138D01*
X167271364Y-131231108D01*
X167470093Y-131295679D01*
X167677578Y-131320420D01*
X167683713Y-131319948D01*
X167683715Y-131319948D01*
X167879776Y-131304862D01*
X167879781Y-131304861D01*
X167885917Y-131304389D01*
X167891847Y-131302733D01*
X167891849Y-131302733D01*
X167986546Y-131276293D01*
X168087175Y-131248197D01*
X168092675Y-131245419D01*
X168268185Y-131156763D01*
X168268187Y-131156762D01*
X168273686Y-131153984D01*
X168438345Y-131025338D01*
X168574880Y-130867160D01*
X168678092Y-130685475D01*
X168744049Y-130487202D01*
X168758468Y-130373061D01*
X168769796Y-130283396D01*
X168769797Y-130283389D01*
X168770238Y-130279894D01*
X168770655Y-130250000D01*
X168750265Y-130042042D01*
X168716274Y-129929458D01*
X168715733Y-129858466D01*
X168747801Y-129803947D01*
X169138528Y-129413220D01*
X169149419Y-129391844D01*
X169159749Y-129374989D01*
X169168021Y-129363604D01*
X169168021Y-129363603D01*
X169173850Y-129355581D01*
X169181264Y-129332763D01*
X169188827Y-129314502D01*
X169199719Y-129293126D01*
X169201270Y-129283335D01*
X169201272Y-129283328D01*
X169203473Y-129269431D01*
X169208087Y-129250212D01*
X169212436Y-129236827D01*
X169212437Y-129236820D01*
X169215500Y-129227393D01*
X169215500Y-91631114D01*
X169208086Y-91608297D01*
X169203472Y-91589077D01*
X169201270Y-91575175D01*
X169199719Y-91565381D01*
X169195216Y-91556543D01*
X169188828Y-91544005D01*
X169181264Y-91525744D01*
X169176914Y-91512358D01*
X169176913Y-91512357D01*
X169173849Y-91502926D01*
X169159749Y-91483519D01*
X169149421Y-91466666D01*
X169138528Y-91445287D01*
X168344713Y-90651472D01*
X168323330Y-90640577D01*
X168306484Y-90630253D01*
X168295097Y-90621980D01*
X168287074Y-90616151D01*
X168277643Y-90613087D01*
X168277640Y-90613085D01*
X168264256Y-90608736D01*
X168245995Y-90601172D01*
X168233457Y-90594784D01*
X168233456Y-90594784D01*
X168224619Y-90590281D01*
X168200922Y-90586528D01*
X168181703Y-90581914D01*
X168158886Y-90574500D01*
X148849833Y-90574500D01*
X148781712Y-90554498D01*
X148760738Y-90537595D01*
X141937405Y-83714261D01*
X141903379Y-83651949D01*
X141900500Y-83625166D01*
X141900500Y-83449679D01*
X141920502Y-83381558D01*
X141926538Y-83372975D01*
X141994506Y-83284397D01*
X141994508Y-83284394D01*
X141999536Y-83277841D01*
X142060044Y-83131762D01*
X142080682Y-82975000D01*
X142060044Y-82818238D01*
X141999536Y-82672159D01*
X141903282Y-82546718D01*
X141777841Y-82450464D01*
X141631762Y-82389956D01*
X141613829Y-82387595D01*
X141553381Y-82379637D01*
X141475000Y-82369318D01*
X141396619Y-82379637D01*
X141336172Y-82387595D01*
X141318238Y-82389956D01*
X141172159Y-82450464D01*
X141046718Y-82546718D01*
X140950464Y-82672159D01*
X140889956Y-82818238D01*
X140869318Y-82975000D01*
X140870057Y-82980613D01*
X140850394Y-83047579D01*
X140796738Y-83094072D01*
X140726464Y-83104176D01*
X140661884Y-83074682D01*
X140655301Y-83068553D01*
X136514375Y-78927627D01*
X136480349Y-78865315D01*
X136478774Y-78820452D01*
X136483313Y-78789143D01*
X136483846Y-78785470D01*
X136485429Y-78725000D01*
X136466081Y-78514440D01*
X136458083Y-78486079D01*
X136441580Y-78427565D01*
X136408686Y-78310931D01*
X136397553Y-78288354D01*
X136317719Y-78126469D01*
X136315165Y-78121290D01*
X136188651Y-77951867D01*
X136059368Y-77832359D01*
X136037622Y-77812257D01*
X136037620Y-77812255D01*
X136033381Y-77808337D01*
X135854554Y-77695505D01*
X135658160Y-77617152D01*
X135652503Y-77616027D01*
X135652497Y-77616025D01*
X135456442Y-77577028D01*
X135456440Y-77577028D01*
X135450775Y-77575901D01*
X135445000Y-77575825D01*
X135444996Y-77575825D01*
X135338976Y-77574437D01*
X135239346Y-77573133D01*
X135233649Y-77574112D01*
X135233648Y-77574112D01*
X135036650Y-77607962D01*
X135036649Y-77607962D01*
X135030953Y-77608941D01*
X134832575Y-77682127D01*
X134827614Y-77685079D01*
X134827613Y-77685079D01*
X134680421Y-77772649D01*
X134650856Y-77790238D01*
X134491881Y-77929655D01*
X134360976Y-78095708D01*
X134358287Y-78100819D01*
X134358285Y-78100822D01*
X134347336Y-78121633D01*
X134262523Y-78282836D01*
X134199820Y-78484773D01*
X134199141Y-78490510D01*
X134185088Y-78609239D01*
X134157217Y-78674537D01*
X134098469Y-78714401D01*
X134027494Y-78716174D01*
X133966828Y-78679295D01*
X133935730Y-78615471D01*
X133934490Y-78605958D01*
X133926610Y-78520197D01*
X133926081Y-78514440D01*
X133918083Y-78486079D01*
X133901580Y-78427565D01*
X133868686Y-78310931D01*
X133857553Y-78288354D01*
X133777719Y-78126469D01*
X133775165Y-78121290D01*
X133648651Y-77951867D01*
X133519368Y-77832359D01*
X133497622Y-77812257D01*
X133497620Y-77812255D01*
X133493381Y-77808337D01*
X133314554Y-77695505D01*
X133118160Y-77617152D01*
X133112503Y-77616027D01*
X133112497Y-77616025D01*
X132916442Y-77577028D01*
X132916440Y-77577028D01*
X132910775Y-77575901D01*
X132905000Y-77575825D01*
X132904996Y-77575825D01*
X132798976Y-77574437D01*
X132699346Y-77573133D01*
X132693649Y-77574112D01*
X132693648Y-77574112D01*
X132496650Y-77607962D01*
X132496649Y-77607962D01*
X132490953Y-77608941D01*
X132292575Y-77682127D01*
X132287614Y-77685079D01*
X132287613Y-77685079D01*
X132140421Y-77772649D01*
X132110856Y-77790238D01*
X131951881Y-77929655D01*
X131948310Y-77934185D01*
X131832949Y-78080520D01*
X131775068Y-78121633D01*
X131704148Y-78124927D01*
X131642705Y-78089356D01*
X131610248Y-78026213D01*
X131607999Y-78002514D01*
X131607999Y-77830331D01*
X131607629Y-77823510D01*
X131602105Y-77772648D01*
X131598479Y-77757396D01*
X131553324Y-77636946D01*
X131544786Y-77621351D01*
X131468285Y-77519276D01*
X131455724Y-77506715D01*
X131353649Y-77430214D01*
X131338054Y-77421676D01*
X131217606Y-77376522D01*
X131202351Y-77372895D01*
X131151486Y-77367369D01*
X131144672Y-77367000D01*
X130522115Y-77367000D01*
X130506876Y-77371475D01*
X130505671Y-77372865D01*
X130504000Y-77380548D01*
X130504000Y-80064884D01*
X130508475Y-80080123D01*
X130509865Y-80081328D01*
X130517548Y-80082999D01*
X131144669Y-80082999D01*
X131151490Y-80082629D01*
X131202352Y-80077105D01*
X131217604Y-80073479D01*
X131338054Y-80028324D01*
X131353649Y-80019786D01*
X131455724Y-79943285D01*
X131468285Y-79930724D01*
X131544786Y-79828649D01*
X131553324Y-79813054D01*
X131598478Y-79692606D01*
X131602105Y-79677351D01*
X131607631Y-79626486D01*
X131608000Y-79619672D01*
X131608000Y-79442684D01*
X131628002Y-79374563D01*
X131681658Y-79328070D01*
X131751932Y-79317966D01*
X131816512Y-79347460D01*
X131836895Y-79369962D01*
X131911405Y-79475391D01*
X131915539Y-79479418D01*
X132022913Y-79584017D01*
X132062865Y-79622937D01*
X132067661Y-79626142D01*
X132067664Y-79626144D01*
X132175130Y-79697950D01*
X132238677Y-79740411D01*
X132243985Y-79742692D01*
X132243986Y-79742692D01*
X132427650Y-79821600D01*
X132427653Y-79821601D01*
X132432953Y-79823878D01*
X132438582Y-79825152D01*
X132438583Y-79825152D01*
X132633550Y-79869269D01*
X132633553Y-79869269D01*
X132639186Y-79870544D01*
X132644957Y-79870771D01*
X132644959Y-79870771D01*
X132706989Y-79873208D01*
X132850470Y-79878846D01*
X132856179Y-79878018D01*
X132856183Y-79878018D01*
X133054015Y-79849333D01*
X133054019Y-79849332D01*
X133059730Y-79848504D01*
X133164163Y-79813054D01*
X133254483Y-79782395D01*
X133254488Y-79782393D01*
X133259955Y-79780537D01*
X133264998Y-79777713D01*
X133439395Y-79680046D01*
X133439399Y-79680043D01*
X133444442Y-79677219D01*
X133607012Y-79542012D01*
X133742219Y-79379442D01*
X133745043Y-79374399D01*
X133745046Y-79374395D01*
X133842713Y-79199998D01*
X133842714Y-79199996D01*
X133845537Y-79194955D01*
X133847393Y-79189488D01*
X133847395Y-79189483D01*
X133911647Y-79000200D01*
X133913504Y-78994730D01*
X133914333Y-78989015D01*
X133935090Y-78845860D01*
X133964660Y-78781315D01*
X134024432Y-78743003D01*
X134095429Y-78743087D01*
X134155109Y-78781542D01*
X134184525Y-78846158D01*
X134185515Y-78855695D01*
X134188796Y-78905749D01*
X134190217Y-78911345D01*
X134190218Y-78911350D01*
X134212000Y-78997115D01*
X134240845Y-79110690D01*
X134329369Y-79302714D01*
X134451405Y-79475391D01*
X134455539Y-79479418D01*
X134562913Y-79584017D01*
X134602865Y-79622937D01*
X134607661Y-79626142D01*
X134607664Y-79626144D01*
X134715130Y-79697950D01*
X134778677Y-79740411D01*
X134783985Y-79742692D01*
X134783986Y-79742692D01*
X134967650Y-79821600D01*
X134967653Y-79821601D01*
X134972953Y-79823878D01*
X134978582Y-79825152D01*
X134978583Y-79825152D01*
X135173550Y-79869269D01*
X135173553Y-79869269D01*
X135179186Y-79870544D01*
X135184957Y-79870771D01*
X135184959Y-79870771D01*
X135246989Y-79873208D01*
X135390470Y-79878846D01*
X135396179Y-79878018D01*
X135396183Y-79878018D01*
X135594015Y-79849333D01*
X135594019Y-79849332D01*
X135599730Y-79848504D01*
X135704163Y-79813054D01*
X135794483Y-79782395D01*
X135794488Y-79782393D01*
X135799955Y-79780537D01*
X135827183Y-79765289D01*
X135949960Y-79696530D01*
X136019168Y-79680696D01*
X136085950Y-79704793D01*
X136100621Y-79717369D01*
X151481780Y-95098528D01*
X151503163Y-95109423D01*
X151520009Y-95119747D01*
X151539419Y-95133849D01*
X151548850Y-95136913D01*
X151548853Y-95136915D01*
X151562237Y-95141264D01*
X151580498Y-95148828D01*
X151593036Y-95155216D01*
X151601874Y-95159719D01*
X151625571Y-95163472D01*
X151644790Y-95168086D01*
X151667607Y-95175500D01*
X166674574Y-95175500D01*
X166742695Y-95195502D01*
X166786640Y-95243905D01*
X166797225Y-95264501D01*
X166797228Y-95264506D01*
X166800043Y-95269983D01*
X166803866Y-95274807D01*
X166803869Y-95274811D01*
X166829509Y-95307160D01*
X166929835Y-95433739D01*
X166934529Y-95437734D01*
X167034754Y-95523032D01*
X167088963Y-95569168D01*
X167094341Y-95572174D01*
X167094343Y-95572175D01*
X167180164Y-95620138D01*
X167271364Y-95671108D01*
X167470093Y-95735679D01*
X167677578Y-95760420D01*
X167683713Y-95759948D01*
X167683715Y-95759948D01*
X167879776Y-95744862D01*
X167879781Y-95744861D01*
X167885917Y-95744389D01*
X167891847Y-95742733D01*
X167891849Y-95742733D01*
X167999440Y-95712693D01*
X168087175Y-95688197D01*
X168181691Y-95640454D01*
X168251511Y-95627594D01*
X168317203Y-95654523D01*
X168357906Y-95712693D01*
X168364500Y-95752920D01*
X168364500Y-96166596D01*
X168344498Y-96234717D01*
X168290842Y-96281210D01*
X168220568Y-96291314D01*
X168178571Y-96277432D01*
X168114896Y-96243003D01*
X168015090Y-96212108D01*
X167921172Y-96183035D01*
X167921169Y-96183034D01*
X167915285Y-96181213D01*
X167909160Y-96180569D01*
X167909159Y-96180569D01*
X167713603Y-96160015D01*
X167713602Y-96160015D01*
X167707475Y-96159371D01*
X167578286Y-96171128D01*
X167505520Y-96177750D01*
X167505519Y-96177750D01*
X167499379Y-96178309D01*
X167493465Y-96180050D01*
X167493463Y-96180050D01*
X167356352Y-96220404D01*
X167298926Y-96237306D01*
X167113749Y-96334114D01*
X166950902Y-96465046D01*
X166816588Y-96625115D01*
X166813624Y-96630507D01*
X166813621Y-96630511D01*
X166809774Y-96637509D01*
X166715923Y-96808224D01*
X166652741Y-97007398D01*
X166629449Y-97215051D01*
X166646934Y-97423274D01*
X166704530Y-97624134D01*
X166800043Y-97809983D01*
X166803866Y-97814807D01*
X166803869Y-97814811D01*
X166829509Y-97847160D01*
X166929835Y-97973739D01*
X166934529Y-97977734D01*
X167034754Y-98063032D01*
X167088963Y-98109168D01*
X167094341Y-98112174D01*
X167094343Y-98112175D01*
X167180163Y-98160138D01*
X167271364Y-98211108D01*
X167470093Y-98275679D01*
X167677578Y-98300420D01*
X167683713Y-98299948D01*
X167683715Y-98299948D01*
X167879776Y-98284862D01*
X167879781Y-98284861D01*
X167885917Y-98284389D01*
X167891847Y-98282733D01*
X167891849Y-98282733D01*
X167999440Y-98252693D01*
X168087175Y-98228197D01*
X168181691Y-98180454D01*
X168251511Y-98167594D01*
X168317203Y-98194523D01*
X168357906Y-98252693D01*
X168364500Y-98292920D01*
X168364500Y-98706596D01*
X168344498Y-98774717D01*
X168290842Y-98821210D01*
X168220568Y-98831314D01*
X168178571Y-98817432D01*
X168114896Y-98783003D01*
X168015090Y-98752108D01*
X167921172Y-98723035D01*
X167921169Y-98723034D01*
X167915285Y-98721213D01*
X167909160Y-98720569D01*
X167909159Y-98720569D01*
X167713603Y-98700015D01*
X167713602Y-98700015D01*
X167707475Y-98699371D01*
X167578286Y-98711128D01*
X167505520Y-98717750D01*
X167505519Y-98717750D01*
X167499379Y-98718309D01*
X167493465Y-98720050D01*
X167493463Y-98720050D01*
X167356352Y-98760404D01*
X167298926Y-98777306D01*
X167113749Y-98874114D01*
X166950902Y-99005046D01*
X166816588Y-99165115D01*
X166813624Y-99170507D01*
X166813621Y-99170511D01*
X166809774Y-99177509D01*
X166715923Y-99348224D01*
X166652741Y-99547398D01*
X166629449Y-99755051D01*
X166646934Y-99963274D01*
X166704530Y-100164134D01*
X166800043Y-100349983D01*
X166803866Y-100354807D01*
X166803869Y-100354811D01*
X166829509Y-100387160D01*
X166929835Y-100513739D01*
X166934529Y-100517734D01*
X167034754Y-100603032D01*
X167088963Y-100649168D01*
X167094341Y-100652174D01*
X167094343Y-100652175D01*
X167180164Y-100700138D01*
X167271364Y-100751108D01*
X167470093Y-100815679D01*
X167677578Y-100840420D01*
X167683713Y-100839948D01*
X167683715Y-100839948D01*
X167879776Y-100824862D01*
X167879781Y-100824861D01*
X167885917Y-100824389D01*
X167891847Y-100822733D01*
X167891849Y-100822733D01*
X167999440Y-100792693D01*
X168087175Y-100768197D01*
X168181691Y-100720454D01*
X168251511Y-100707594D01*
X168317203Y-100734523D01*
X168357906Y-100792693D01*
X168364500Y-100832920D01*
X168364500Y-101246596D01*
X168344498Y-101314717D01*
X168290842Y-101361210D01*
X168220568Y-101371314D01*
X168178571Y-101357432D01*
X168114896Y-101323003D01*
X168015091Y-101292108D01*
X167921172Y-101263035D01*
X167921169Y-101263034D01*
X167915285Y-101261213D01*
X167909160Y-101260569D01*
X167909159Y-101260569D01*
X167713603Y-101240015D01*
X167713602Y-101240015D01*
X167707475Y-101239371D01*
X167578286Y-101251128D01*
X167505520Y-101257750D01*
X167505519Y-101257750D01*
X167499379Y-101258309D01*
X167493465Y-101260050D01*
X167493463Y-101260050D01*
X167356352Y-101300404D01*
X167298926Y-101317306D01*
X167113749Y-101414114D01*
X166950902Y-101545046D01*
X166816588Y-101705115D01*
X166813624Y-101710507D01*
X166813621Y-101710511D01*
X166809774Y-101717509D01*
X166715923Y-101888224D01*
X166652741Y-102087398D01*
X166629449Y-102295051D01*
X166646934Y-102503274D01*
X166704530Y-102704134D01*
X166800043Y-102889983D01*
X166803866Y-102894807D01*
X166803869Y-102894811D01*
X166829509Y-102927160D01*
X166929835Y-103053739D01*
X166934529Y-103057734D01*
X167034754Y-103143032D01*
X167088963Y-103189168D01*
X167094341Y-103192174D01*
X167094343Y-103192175D01*
X167180163Y-103240138D01*
X167271364Y-103291108D01*
X167470093Y-103355679D01*
X167677578Y-103380420D01*
X167683713Y-103379948D01*
X167683715Y-103379948D01*
X167879776Y-103364862D01*
X167879781Y-103364861D01*
X167885917Y-103364389D01*
X167891847Y-103362733D01*
X167891849Y-103362733D01*
X167999440Y-103332693D01*
X168087175Y-103308197D01*
X168181691Y-103260454D01*
X168251511Y-103247594D01*
X168317203Y-103274523D01*
X168357906Y-103332693D01*
X168364500Y-103372920D01*
X168364500Y-103786596D01*
X168344498Y-103854717D01*
X168290842Y-103901210D01*
X168220568Y-103911314D01*
X168178571Y-103897432D01*
X168114896Y-103863003D01*
X168015091Y-103832108D01*
X167921172Y-103803035D01*
X167921169Y-103803034D01*
X167915285Y-103801213D01*
X167909160Y-103800569D01*
X167909159Y-103800569D01*
X167713603Y-103780015D01*
X167713602Y-103780015D01*
X167707475Y-103779371D01*
X167578286Y-103791128D01*
X167505520Y-103797750D01*
X167505519Y-103797750D01*
X167499379Y-103798309D01*
X167493465Y-103800050D01*
X167493463Y-103800050D01*
X167356352Y-103840404D01*
X167298926Y-103857306D01*
X167113749Y-103954114D01*
X166950902Y-104085046D01*
X166816588Y-104245115D01*
X166813624Y-104250507D01*
X166813621Y-104250511D01*
X166809774Y-104257509D01*
X166715923Y-104428224D01*
X166652741Y-104627398D01*
X166629449Y-104835051D01*
X166646934Y-105043274D01*
X166704530Y-105244134D01*
X166800043Y-105429983D01*
X166803866Y-105434807D01*
X166803869Y-105434811D01*
X166829509Y-105467160D01*
X166929835Y-105593739D01*
X166934529Y-105597734D01*
X167034754Y-105683032D01*
X167088963Y-105729168D01*
X167094341Y-105732174D01*
X167094343Y-105732175D01*
X167180163Y-105780138D01*
X167271364Y-105831108D01*
X167470093Y-105895679D01*
X167677578Y-105920420D01*
X167683713Y-105919948D01*
X167683715Y-105919948D01*
X167879776Y-105904862D01*
X167879781Y-105904861D01*
X167885917Y-105904389D01*
X167891847Y-105902733D01*
X167891849Y-105902733D01*
X167999440Y-105872693D01*
X168087175Y-105848197D01*
X168181691Y-105800454D01*
X168251511Y-105787594D01*
X168317203Y-105814523D01*
X168357906Y-105872693D01*
X168364500Y-105912920D01*
X168364500Y-106326596D01*
X168344498Y-106394717D01*
X168290842Y-106441210D01*
X168220568Y-106451314D01*
X168178571Y-106437432D01*
X168114896Y-106403003D01*
X168015090Y-106372108D01*
X167921172Y-106343035D01*
X167921169Y-106343034D01*
X167915285Y-106341213D01*
X167909160Y-106340569D01*
X167909159Y-106340569D01*
X167713603Y-106320015D01*
X167713602Y-106320015D01*
X167707475Y-106319371D01*
X167578286Y-106331128D01*
X167505520Y-106337750D01*
X167505519Y-106337750D01*
X167499379Y-106338309D01*
X167493465Y-106340050D01*
X167493463Y-106340050D01*
X167356352Y-106380404D01*
X167298926Y-106397306D01*
X167113749Y-106494114D01*
X166950902Y-106625046D01*
X166816588Y-106785115D01*
X166813624Y-106790507D01*
X166813621Y-106790511D01*
X166809774Y-106797509D01*
X166715923Y-106968224D01*
X166652741Y-107167398D01*
X166629449Y-107375051D01*
X166646934Y-107583274D01*
X166704530Y-107784134D01*
X166707345Y-107789611D01*
X166707346Y-107789614D01*
X166797228Y-107964506D01*
X166800043Y-107969983D01*
X166803866Y-107974807D01*
X166803869Y-107974811D01*
X166907591Y-108105674D01*
X166929835Y-108133739D01*
X166934529Y-108137734D01*
X167034754Y-108223032D01*
X167088963Y-108269168D01*
X167271364Y-108371108D01*
X167470093Y-108435679D01*
X167677578Y-108460420D01*
X167683713Y-108459948D01*
X167683715Y-108459948D01*
X167879776Y-108444862D01*
X167879781Y-108444861D01*
X167885917Y-108444389D01*
X167891847Y-108442733D01*
X167891849Y-108442733D01*
X167999440Y-108412693D01*
X168087175Y-108388197D01*
X168181691Y-108340454D01*
X168251511Y-108327594D01*
X168317203Y-108354523D01*
X168357906Y-108412693D01*
X168364500Y-108452920D01*
X168364500Y-108866596D01*
X168344498Y-108934717D01*
X168290842Y-108981210D01*
X168220568Y-108991314D01*
X168178571Y-108977432D01*
X168150779Y-108962405D01*
X168114896Y-108943003D01*
X168015091Y-108912108D01*
X167921172Y-108883035D01*
X167921169Y-108883034D01*
X167915285Y-108881213D01*
X167909160Y-108880569D01*
X167909159Y-108880569D01*
X167713603Y-108860015D01*
X167713602Y-108860015D01*
X167707475Y-108859371D01*
X167578286Y-108871128D01*
X167505520Y-108877750D01*
X167505519Y-108877750D01*
X167499379Y-108878309D01*
X167493465Y-108880050D01*
X167493463Y-108880050D01*
X167378520Y-108913880D01*
X167307524Y-108913926D01*
X167253850Y-108882102D01*
X166523220Y-108151472D01*
X166501837Y-108140577D01*
X166484991Y-108130253D01*
X166473604Y-108121980D01*
X166465581Y-108116151D01*
X166456150Y-108113087D01*
X166456147Y-108113085D01*
X166442763Y-108108736D01*
X166424502Y-108101172D01*
X166411964Y-108094784D01*
X166411963Y-108094784D01*
X166403126Y-108090281D01*
X166379429Y-108086528D01*
X166360210Y-108081914D01*
X166337393Y-108074500D01*
X143353115Y-108074500D01*
X143284994Y-108054498D01*
X143238501Y-108000842D01*
X143228397Y-107930568D01*
X143243557Y-107886266D01*
X143278092Y-107825475D01*
X143344049Y-107627202D01*
X143370238Y-107419894D01*
X143370655Y-107390000D01*
X143350265Y-107182042D01*
X143289870Y-106982005D01*
X143285663Y-106974093D01*
X143194667Y-106802955D01*
X143194666Y-106802953D01*
X143191771Y-106797509D01*
X143059705Y-106635580D01*
X142898703Y-106502387D01*
X142714896Y-106403003D01*
X142615090Y-106372108D01*
X142521172Y-106343035D01*
X142521169Y-106343034D01*
X142515285Y-106341213D01*
X142509160Y-106340569D01*
X142509159Y-106340569D01*
X142313603Y-106320015D01*
X142313602Y-106320015D01*
X142307475Y-106319371D01*
X142178286Y-106331128D01*
X142105520Y-106337750D01*
X142105519Y-106337750D01*
X142099379Y-106338309D01*
X142093465Y-106340050D01*
X142093463Y-106340050D01*
X141956352Y-106380404D01*
X141898926Y-106397306D01*
X141713749Y-106494114D01*
X141550902Y-106625046D01*
X141416588Y-106785115D01*
X141413624Y-106790507D01*
X141413621Y-106790511D01*
X141409774Y-106797509D01*
X141315923Y-106968224D01*
X141252741Y-107167398D01*
X141248389Y-107206197D01*
X141242873Y-107255370D01*
X141215402Y-107320836D01*
X141156898Y-107361058D01*
X141085935Y-107363265D01*
X141028563Y-107330419D01*
X138533195Y-104835051D01*
X141229449Y-104835051D01*
X141246934Y-105043274D01*
X141304530Y-105244134D01*
X141400043Y-105429983D01*
X141403866Y-105434807D01*
X141403869Y-105434811D01*
X141429509Y-105467160D01*
X141529835Y-105593739D01*
X141534529Y-105597734D01*
X141634754Y-105683032D01*
X141688963Y-105729168D01*
X141694341Y-105732174D01*
X141694343Y-105732175D01*
X141780163Y-105780138D01*
X141871364Y-105831108D01*
X142070093Y-105895679D01*
X142277578Y-105920420D01*
X142283713Y-105919948D01*
X142283715Y-105919948D01*
X142479776Y-105904862D01*
X142479781Y-105904861D01*
X142485917Y-105904389D01*
X142491847Y-105902733D01*
X142491849Y-105902733D01*
X142599440Y-105872693D01*
X142687175Y-105848197D01*
X142692675Y-105845419D01*
X142868185Y-105756763D01*
X142868187Y-105756762D01*
X142873686Y-105753984D01*
X143038345Y-105625338D01*
X143174880Y-105467160D01*
X143278092Y-105285475D01*
X143344049Y-105087202D01*
X143370238Y-104879894D01*
X143370655Y-104850000D01*
X143350265Y-104642042D01*
X143289870Y-104442005D01*
X143285663Y-104434093D01*
X143194667Y-104262955D01*
X143194666Y-104262953D01*
X143191771Y-104257509D01*
X143059705Y-104095580D01*
X142898703Y-103962387D01*
X142714896Y-103863003D01*
X142615091Y-103832108D01*
X142521172Y-103803035D01*
X142521169Y-103803034D01*
X142515285Y-103801213D01*
X142509160Y-103800569D01*
X142509159Y-103800569D01*
X142313603Y-103780015D01*
X142313602Y-103780015D01*
X142307475Y-103779371D01*
X142178286Y-103791128D01*
X142105520Y-103797750D01*
X142105519Y-103797750D01*
X142099379Y-103798309D01*
X142093465Y-103800050D01*
X142093463Y-103800050D01*
X141956352Y-103840404D01*
X141898926Y-103857306D01*
X141713749Y-103954114D01*
X141550902Y-104085046D01*
X141416588Y-104245115D01*
X141413624Y-104250507D01*
X141413621Y-104250511D01*
X141409774Y-104257509D01*
X141315923Y-104428224D01*
X141252741Y-104627398D01*
X141229449Y-104835051D01*
X138533195Y-104835051D01*
X135993195Y-102295051D01*
X141229449Y-102295051D01*
X141246934Y-102503274D01*
X141304530Y-102704134D01*
X141400043Y-102889983D01*
X141403866Y-102894807D01*
X141403869Y-102894811D01*
X141429509Y-102927160D01*
X141529835Y-103053739D01*
X141534529Y-103057734D01*
X141634754Y-103143032D01*
X141688963Y-103189168D01*
X141694341Y-103192174D01*
X141694343Y-103192175D01*
X141780163Y-103240138D01*
X141871364Y-103291108D01*
X142070093Y-103355679D01*
X142277578Y-103380420D01*
X142283713Y-103379948D01*
X142283715Y-103379948D01*
X142479776Y-103364862D01*
X142479781Y-103364861D01*
X142485917Y-103364389D01*
X142491847Y-103362733D01*
X142491849Y-103362733D01*
X142599440Y-103332693D01*
X142687175Y-103308197D01*
X142692675Y-103305419D01*
X142868185Y-103216763D01*
X142868187Y-103216762D01*
X142873686Y-103213984D01*
X143038345Y-103085338D01*
X143174880Y-102927160D01*
X143278092Y-102745475D01*
X143344049Y-102547202D01*
X143370238Y-102339894D01*
X143370655Y-102310000D01*
X143350265Y-102102042D01*
X143289870Y-101902005D01*
X143285663Y-101894093D01*
X143194667Y-101722955D01*
X143194666Y-101722953D01*
X143191771Y-101717509D01*
X143059705Y-101555580D01*
X142898703Y-101422387D01*
X142714896Y-101323003D01*
X142615091Y-101292108D01*
X142521172Y-101263035D01*
X142521169Y-101263034D01*
X142515285Y-101261213D01*
X142509160Y-101260569D01*
X142509159Y-101260569D01*
X142313603Y-101240015D01*
X142313602Y-101240015D01*
X142307475Y-101239371D01*
X142178286Y-101251128D01*
X142105520Y-101257750D01*
X142105519Y-101257750D01*
X142099379Y-101258309D01*
X142093465Y-101260050D01*
X142093463Y-101260050D01*
X141956352Y-101300404D01*
X141898926Y-101317306D01*
X141713749Y-101414114D01*
X141550902Y-101545046D01*
X141416588Y-101705115D01*
X141413624Y-101710507D01*
X141413621Y-101710511D01*
X141409774Y-101717509D01*
X141315923Y-101888224D01*
X141252741Y-102087398D01*
X141229449Y-102295051D01*
X135993195Y-102295051D01*
X133453195Y-99755051D01*
X141229449Y-99755051D01*
X141246934Y-99963274D01*
X141304530Y-100164134D01*
X141400043Y-100349983D01*
X141403866Y-100354807D01*
X141403869Y-100354811D01*
X141429509Y-100387160D01*
X141529835Y-100513739D01*
X141534529Y-100517734D01*
X141634754Y-100603032D01*
X141688963Y-100649168D01*
X141694341Y-100652174D01*
X141694343Y-100652175D01*
X141780164Y-100700138D01*
X141871364Y-100751108D01*
X142070093Y-100815679D01*
X142277578Y-100840420D01*
X142283713Y-100839948D01*
X142283715Y-100839948D01*
X142479776Y-100824862D01*
X142479781Y-100824861D01*
X142485917Y-100824389D01*
X142491847Y-100822733D01*
X142491849Y-100822733D01*
X142599440Y-100792693D01*
X142687175Y-100768197D01*
X142692675Y-100765419D01*
X142868185Y-100676763D01*
X142868187Y-100676762D01*
X142873686Y-100673984D01*
X143038345Y-100545338D01*
X143174880Y-100387160D01*
X143278092Y-100205475D01*
X143344049Y-100007202D01*
X143370238Y-99799894D01*
X143370655Y-99770000D01*
X143350265Y-99562042D01*
X143289870Y-99362005D01*
X143285663Y-99354093D01*
X143194667Y-99182955D01*
X143194666Y-99182953D01*
X143191771Y-99177509D01*
X143059705Y-99015580D01*
X142898703Y-98882387D01*
X142714896Y-98783003D01*
X142615090Y-98752108D01*
X142521172Y-98723035D01*
X142521169Y-98723034D01*
X142515285Y-98721213D01*
X142509160Y-98720569D01*
X142509159Y-98720569D01*
X142313603Y-98700015D01*
X142313602Y-98700015D01*
X142307475Y-98699371D01*
X142178286Y-98711128D01*
X142105520Y-98717750D01*
X142105519Y-98717750D01*
X142099379Y-98718309D01*
X142093465Y-98720050D01*
X142093463Y-98720050D01*
X141956352Y-98760404D01*
X141898926Y-98777306D01*
X141713749Y-98874114D01*
X141550902Y-99005046D01*
X141416588Y-99165115D01*
X141413624Y-99170507D01*
X141413621Y-99170511D01*
X141409774Y-99177509D01*
X141315923Y-99348224D01*
X141252741Y-99547398D01*
X141229449Y-99755051D01*
X133453195Y-99755051D01*
X130913195Y-97215051D01*
X141229449Y-97215051D01*
X141246934Y-97423274D01*
X141304530Y-97624134D01*
X141400043Y-97809983D01*
X141403866Y-97814807D01*
X141403869Y-97814811D01*
X141429509Y-97847160D01*
X141529835Y-97973739D01*
X141534529Y-97977734D01*
X141634754Y-98063032D01*
X141688963Y-98109168D01*
X141694341Y-98112174D01*
X141694343Y-98112175D01*
X141780163Y-98160138D01*
X141871364Y-98211108D01*
X142070093Y-98275679D01*
X142277578Y-98300420D01*
X142283713Y-98299948D01*
X142283715Y-98299948D01*
X142479776Y-98284862D01*
X142479781Y-98284861D01*
X142485917Y-98284389D01*
X142491847Y-98282733D01*
X142491849Y-98282733D01*
X142599440Y-98252693D01*
X142687175Y-98228197D01*
X142692675Y-98225419D01*
X142868185Y-98136763D01*
X142868187Y-98136762D01*
X142873686Y-98133984D01*
X143038345Y-98005338D01*
X143174880Y-97847160D01*
X143278092Y-97665475D01*
X143344049Y-97467202D01*
X143370238Y-97259894D01*
X143370655Y-97230000D01*
X143350265Y-97022042D01*
X143289870Y-96822005D01*
X143285663Y-96814093D01*
X143194667Y-96642955D01*
X143194666Y-96642953D01*
X143191771Y-96637509D01*
X143059705Y-96475580D01*
X142898703Y-96342387D01*
X142714896Y-96243003D01*
X142615090Y-96212108D01*
X142521172Y-96183035D01*
X142521169Y-96183034D01*
X142515285Y-96181213D01*
X142509160Y-96180569D01*
X142509159Y-96180569D01*
X142313603Y-96160015D01*
X142313602Y-96160015D01*
X142307475Y-96159371D01*
X142178286Y-96171128D01*
X142105520Y-96177750D01*
X142105519Y-96177750D01*
X142099379Y-96178309D01*
X142093465Y-96180050D01*
X142093463Y-96180050D01*
X141956352Y-96220404D01*
X141898926Y-96237306D01*
X141713749Y-96334114D01*
X141550902Y-96465046D01*
X141416588Y-96625115D01*
X141413624Y-96630507D01*
X141413621Y-96630511D01*
X141409774Y-96637509D01*
X141315923Y-96808224D01*
X141252741Y-97007398D01*
X141229449Y-97215051D01*
X130913195Y-97215051D01*
X128373195Y-94675051D01*
X141229449Y-94675051D01*
X141246934Y-94883274D01*
X141304530Y-95084134D01*
X141307345Y-95089611D01*
X141307346Y-95089614D01*
X141397228Y-95264506D01*
X141400043Y-95269983D01*
X141403866Y-95274807D01*
X141403869Y-95274811D01*
X141429509Y-95307160D01*
X141529835Y-95433739D01*
X141534529Y-95437734D01*
X141634754Y-95523032D01*
X141688963Y-95569168D01*
X141694341Y-95572174D01*
X141694343Y-95572175D01*
X141780164Y-95620138D01*
X141871364Y-95671108D01*
X142070093Y-95735679D01*
X142277578Y-95760420D01*
X142283713Y-95759948D01*
X142283715Y-95759948D01*
X142479776Y-95744862D01*
X142479781Y-95744861D01*
X142485917Y-95744389D01*
X142491847Y-95742733D01*
X142491849Y-95742733D01*
X142599440Y-95712693D01*
X142687175Y-95688197D01*
X142692675Y-95685419D01*
X142868185Y-95596763D01*
X142868187Y-95596762D01*
X142873686Y-95593984D01*
X143038345Y-95465338D01*
X143174880Y-95307160D01*
X143278092Y-95125475D01*
X143344049Y-94927202D01*
X143370238Y-94719894D01*
X143370655Y-94690000D01*
X143350265Y-94482042D01*
X143289870Y-94282005D01*
X143285663Y-94274093D01*
X143194667Y-94102955D01*
X143194666Y-94102953D01*
X143191771Y-94097509D01*
X143059705Y-93935580D01*
X142898703Y-93802387D01*
X142714896Y-93703003D01*
X142615091Y-93672108D01*
X142521172Y-93643035D01*
X142521169Y-93643034D01*
X142515285Y-93641213D01*
X142509160Y-93640569D01*
X142509159Y-93640569D01*
X142313603Y-93620015D01*
X142313602Y-93620015D01*
X142307475Y-93619371D01*
X142178286Y-93631128D01*
X142105520Y-93637750D01*
X142105519Y-93637750D01*
X142099379Y-93638309D01*
X142093465Y-93640050D01*
X142093463Y-93640050D01*
X141956352Y-93680404D01*
X141898926Y-93697306D01*
X141713749Y-93794114D01*
X141550902Y-93925046D01*
X141416588Y-94085115D01*
X141413624Y-94090507D01*
X141413621Y-94090511D01*
X141409774Y-94097509D01*
X141315923Y-94268224D01*
X141314062Y-94274091D01*
X141314061Y-94274093D01*
X141298071Y-94324500D01*
X141252741Y-94467398D01*
X141229449Y-94675051D01*
X128373195Y-94675051D01*
X126657790Y-92959646D01*
X141234500Y-92959646D01*
X141237618Y-92985846D01*
X141241456Y-92994486D01*
X141241456Y-92994487D01*
X141267884Y-93053984D01*
X141283061Y-93088153D01*
X141362287Y-93167241D01*
X141372924Y-93171944D01*
X141372926Y-93171945D01*
X141432462Y-93198265D01*
X141464673Y-93212506D01*
X141490354Y-93215500D01*
X143109646Y-93215500D01*
X143113350Y-93215059D01*
X143113353Y-93215059D01*
X143120746Y-93214179D01*
X143135846Y-93212382D01*
X143177737Y-93193775D01*
X143227518Y-93171663D01*
X143238153Y-93166939D01*
X143252290Y-93152778D01*
X143309023Y-93095945D01*
X143317241Y-93087713D01*
X143341795Y-93032175D01*
X143358675Y-92993992D01*
X143362506Y-92985327D01*
X143365500Y-92959646D01*
X143365500Y-91340354D01*
X143362382Y-91314154D01*
X143316939Y-91211847D01*
X143237713Y-91132759D01*
X143227076Y-91128056D01*
X143227074Y-91128055D01*
X143167538Y-91101735D01*
X143135327Y-91087494D01*
X143109646Y-91084500D01*
X141490354Y-91084500D01*
X141486650Y-91084941D01*
X141486647Y-91084941D01*
X141479254Y-91085821D01*
X141464154Y-91087618D01*
X141361847Y-91133061D01*
X141282759Y-91212287D01*
X141237494Y-91314673D01*
X141234500Y-91340354D01*
X141234500Y-92959646D01*
X126657790Y-92959646D01*
X123962405Y-90264261D01*
X123928379Y-90201949D01*
X123925500Y-90175166D01*
X123925500Y-89776500D01*
X123945502Y-89708379D01*
X123999158Y-89661886D01*
X124051500Y-89650500D01*
X124394646Y-89650500D01*
X124398350Y-89650059D01*
X124398353Y-89650059D01*
X124405746Y-89649179D01*
X124420846Y-89647382D01*
X124503601Y-89610624D01*
X124512518Y-89606663D01*
X124523153Y-89601939D01*
X124602241Y-89522713D01*
X124647506Y-89420327D01*
X124650497Y-89394669D01*
X128852001Y-89394669D01*
X128852371Y-89401490D01*
X128857895Y-89452352D01*
X128861521Y-89467604D01*
X128906676Y-89588054D01*
X128915214Y-89603649D01*
X128991715Y-89705724D01*
X129004276Y-89718285D01*
X129106351Y-89794786D01*
X129121946Y-89803324D01*
X129242394Y-89848478D01*
X129257649Y-89852105D01*
X129308514Y-89857631D01*
X129315328Y-89858000D01*
X129937885Y-89858000D01*
X129953124Y-89853525D01*
X129954329Y-89852135D01*
X129956000Y-89844452D01*
X129956000Y-89839884D01*
X130464000Y-89839884D01*
X130468475Y-89855123D01*
X130469865Y-89856328D01*
X130477548Y-89857999D01*
X131104669Y-89857999D01*
X131111490Y-89857629D01*
X131162352Y-89852105D01*
X131177604Y-89848479D01*
X131298054Y-89803324D01*
X131313649Y-89794786D01*
X131415724Y-89718285D01*
X131428285Y-89705724D01*
X131504786Y-89603649D01*
X131513324Y-89588054D01*
X131558478Y-89467606D01*
X131562105Y-89452351D01*
X131567631Y-89401486D01*
X131568000Y-89394672D01*
X131568000Y-89217684D01*
X131588002Y-89149563D01*
X131641658Y-89103070D01*
X131711932Y-89092966D01*
X131776512Y-89122460D01*
X131796895Y-89144962D01*
X131871405Y-89250391D01*
X131909757Y-89287752D01*
X132015727Y-89390983D01*
X132022865Y-89397937D01*
X132027661Y-89401142D01*
X132027664Y-89401144D01*
X132127129Y-89467604D01*
X132198677Y-89515411D01*
X132203985Y-89517692D01*
X132203986Y-89517692D01*
X132387650Y-89596600D01*
X132387653Y-89596601D01*
X132392953Y-89598878D01*
X132398582Y-89600152D01*
X132398583Y-89600152D01*
X132593550Y-89644269D01*
X132593553Y-89644269D01*
X132599186Y-89645544D01*
X132604957Y-89645771D01*
X132604959Y-89645771D01*
X132666989Y-89648208D01*
X132810470Y-89653846D01*
X132816179Y-89653018D01*
X132816183Y-89653018D01*
X133014015Y-89624333D01*
X133014019Y-89624332D01*
X133019730Y-89623504D01*
X133098987Y-89596600D01*
X133214483Y-89557395D01*
X133214488Y-89557393D01*
X133219955Y-89555537D01*
X133224998Y-89552713D01*
X133399395Y-89455046D01*
X133399399Y-89455043D01*
X133404442Y-89452219D01*
X133567012Y-89317012D01*
X133702219Y-89154442D01*
X133705043Y-89149399D01*
X133705046Y-89149395D01*
X133802713Y-88974998D01*
X133802714Y-88974996D01*
X133805537Y-88969955D01*
X133807393Y-88964488D01*
X133807395Y-88964483D01*
X133871647Y-88775200D01*
X133873504Y-88769730D01*
X133874333Y-88764013D01*
X133895090Y-88620860D01*
X133924660Y-88556315D01*
X133984432Y-88518003D01*
X134055429Y-88518087D01*
X134115109Y-88556542D01*
X134144525Y-88621158D01*
X134145515Y-88630695D01*
X134148796Y-88680749D01*
X134150217Y-88686345D01*
X134150218Y-88686350D01*
X134172000Y-88772115D01*
X134200845Y-88885690D01*
X134289369Y-89077714D01*
X134411405Y-89250391D01*
X134449757Y-89287752D01*
X134555727Y-89390983D01*
X134562865Y-89397937D01*
X134567661Y-89401142D01*
X134567664Y-89401144D01*
X134667129Y-89467604D01*
X134738677Y-89515411D01*
X134743985Y-89517692D01*
X134743986Y-89517692D01*
X134927650Y-89596600D01*
X134927653Y-89596601D01*
X134932953Y-89598878D01*
X134938582Y-89600152D01*
X134938583Y-89600152D01*
X135133550Y-89644269D01*
X135133553Y-89644269D01*
X135139186Y-89645544D01*
X135144957Y-89645771D01*
X135144959Y-89645771D01*
X135206989Y-89648208D01*
X135350470Y-89653846D01*
X135356179Y-89653018D01*
X135356183Y-89653018D01*
X135554015Y-89624333D01*
X135554019Y-89624332D01*
X135559730Y-89623504D01*
X135638987Y-89596600D01*
X135754483Y-89557395D01*
X135754488Y-89557393D01*
X135759955Y-89555537D01*
X135764998Y-89552713D01*
X135939395Y-89455046D01*
X135939399Y-89455043D01*
X135944442Y-89452219D01*
X136107012Y-89317012D01*
X136242219Y-89154442D01*
X136245043Y-89149399D01*
X136245046Y-89149395D01*
X136342713Y-88974998D01*
X136342714Y-88974996D01*
X136345537Y-88969955D01*
X136347393Y-88964488D01*
X136347395Y-88964483D01*
X136411647Y-88775200D01*
X136413504Y-88769730D01*
X136414333Y-88764013D01*
X136435090Y-88620860D01*
X136464660Y-88556315D01*
X136524432Y-88518003D01*
X136595429Y-88518087D01*
X136655109Y-88556542D01*
X136684525Y-88621158D01*
X136685515Y-88630695D01*
X136688796Y-88680749D01*
X136690217Y-88686345D01*
X136690218Y-88686350D01*
X136712000Y-88772115D01*
X136740845Y-88885690D01*
X136829369Y-89077714D01*
X136951405Y-89250391D01*
X136989757Y-89287752D01*
X137095727Y-89390983D01*
X137102865Y-89397937D01*
X137107661Y-89401142D01*
X137107664Y-89401144D01*
X137207129Y-89467604D01*
X137278677Y-89515411D01*
X137283985Y-89517692D01*
X137283986Y-89517692D01*
X137467650Y-89596600D01*
X137467653Y-89596601D01*
X137472953Y-89598878D01*
X137478582Y-89600152D01*
X137478583Y-89600152D01*
X137673550Y-89644269D01*
X137673553Y-89644269D01*
X137679186Y-89645544D01*
X137684957Y-89645771D01*
X137684959Y-89645771D01*
X137746989Y-89648208D01*
X137890470Y-89653846D01*
X137896179Y-89653018D01*
X137896183Y-89653018D01*
X138094015Y-89624333D01*
X138094019Y-89624332D01*
X138099730Y-89623504D01*
X138178987Y-89596600D01*
X138294483Y-89557395D01*
X138294488Y-89557393D01*
X138299955Y-89555537D01*
X138304998Y-89552713D01*
X138479395Y-89455046D01*
X138479399Y-89455043D01*
X138484442Y-89452219D01*
X138647012Y-89317012D01*
X138782219Y-89154442D01*
X138785043Y-89149399D01*
X138785046Y-89149395D01*
X138882713Y-88974998D01*
X138882714Y-88974996D01*
X138885537Y-88969955D01*
X138887393Y-88964488D01*
X138887395Y-88964483D01*
X138951647Y-88775200D01*
X138953504Y-88769730D01*
X138954935Y-88759865D01*
X138983314Y-88564140D01*
X138983314Y-88564138D01*
X138983846Y-88560470D01*
X138985429Y-88500000D01*
X138966081Y-88289440D01*
X138953359Y-88244329D01*
X138910255Y-88091496D01*
X138908686Y-88085931D01*
X138897553Y-88063354D01*
X138817719Y-87901469D01*
X138815165Y-87896290D01*
X138688651Y-87726867D01*
X138561236Y-87609086D01*
X138537622Y-87587257D01*
X138537620Y-87587255D01*
X138533381Y-87583337D01*
X138452642Y-87532394D01*
X138359434Y-87473584D01*
X138359433Y-87473584D01*
X138354554Y-87470505D01*
X138158160Y-87392152D01*
X138152503Y-87391027D01*
X138152497Y-87391025D01*
X137956442Y-87352028D01*
X137956440Y-87352028D01*
X137950775Y-87350901D01*
X137945000Y-87350825D01*
X137944996Y-87350825D01*
X137838976Y-87349437D01*
X137739346Y-87348133D01*
X137733649Y-87349112D01*
X137733648Y-87349112D01*
X137536650Y-87382962D01*
X137536649Y-87382962D01*
X137530953Y-87383941D01*
X137332575Y-87457127D01*
X137327614Y-87460079D01*
X137327613Y-87460079D01*
X137180421Y-87547649D01*
X137150856Y-87565238D01*
X136991881Y-87704655D01*
X136860976Y-87870708D01*
X136858287Y-87875819D01*
X136858285Y-87875822D01*
X136847336Y-87896633D01*
X136762523Y-88057836D01*
X136699820Y-88259773D01*
X136699141Y-88265510D01*
X136685088Y-88384239D01*
X136657217Y-88449537D01*
X136598469Y-88489401D01*
X136527494Y-88491174D01*
X136466828Y-88454295D01*
X136435730Y-88390471D01*
X136434490Y-88380958D01*
X136430232Y-88334609D01*
X136426081Y-88289440D01*
X136413359Y-88244329D01*
X136370255Y-88091496D01*
X136368686Y-88085931D01*
X136357553Y-88063354D01*
X136277719Y-87901469D01*
X136275165Y-87896290D01*
X136148651Y-87726867D01*
X136021236Y-87609086D01*
X135997622Y-87587257D01*
X135997620Y-87587255D01*
X135993381Y-87583337D01*
X135912642Y-87532394D01*
X135819434Y-87473584D01*
X135819433Y-87473584D01*
X135814554Y-87470505D01*
X135618160Y-87392152D01*
X135612503Y-87391027D01*
X135612497Y-87391025D01*
X135416442Y-87352028D01*
X135416440Y-87352028D01*
X135410775Y-87350901D01*
X135405000Y-87350825D01*
X135404996Y-87350825D01*
X135298976Y-87349437D01*
X135199346Y-87348133D01*
X135193649Y-87349112D01*
X135193648Y-87349112D01*
X134996650Y-87382962D01*
X134996649Y-87382962D01*
X134990953Y-87383941D01*
X134792575Y-87457127D01*
X134787614Y-87460079D01*
X134787613Y-87460079D01*
X134640421Y-87547649D01*
X134610856Y-87565238D01*
X134451881Y-87704655D01*
X134320976Y-87870708D01*
X134318287Y-87875819D01*
X134318285Y-87875822D01*
X134307336Y-87896633D01*
X134222523Y-88057836D01*
X134159820Y-88259773D01*
X134159141Y-88265510D01*
X134145088Y-88384239D01*
X134117217Y-88449537D01*
X134058469Y-88489401D01*
X133987494Y-88491174D01*
X133926828Y-88454295D01*
X133895730Y-88390471D01*
X133894490Y-88380958D01*
X133890232Y-88334609D01*
X133886081Y-88289440D01*
X133873359Y-88244329D01*
X133830255Y-88091496D01*
X133828686Y-88085931D01*
X133817553Y-88063354D01*
X133737719Y-87901469D01*
X133735165Y-87896290D01*
X133608651Y-87726867D01*
X133481236Y-87609086D01*
X133457622Y-87587257D01*
X133457620Y-87587255D01*
X133453381Y-87583337D01*
X133372642Y-87532394D01*
X133279434Y-87473584D01*
X133279433Y-87473584D01*
X133274554Y-87470505D01*
X133078160Y-87392152D01*
X133072503Y-87391027D01*
X133072497Y-87391025D01*
X132876442Y-87352028D01*
X132876440Y-87352028D01*
X132870775Y-87350901D01*
X132865000Y-87350825D01*
X132864996Y-87350825D01*
X132758976Y-87349437D01*
X132659346Y-87348133D01*
X132653649Y-87349112D01*
X132653648Y-87349112D01*
X132456650Y-87382962D01*
X132456649Y-87382962D01*
X132450953Y-87383941D01*
X132252575Y-87457127D01*
X132247614Y-87460079D01*
X132247613Y-87460079D01*
X132100421Y-87547649D01*
X132070856Y-87565238D01*
X131911881Y-87704655D01*
X131897458Y-87722951D01*
X131792949Y-87855520D01*
X131735068Y-87896633D01*
X131664148Y-87899927D01*
X131602705Y-87864356D01*
X131570248Y-87801213D01*
X131567999Y-87777514D01*
X131567999Y-87605331D01*
X131567629Y-87598510D01*
X131562105Y-87547648D01*
X131558479Y-87532396D01*
X131513324Y-87411946D01*
X131504786Y-87396351D01*
X131428285Y-87294276D01*
X131415724Y-87281715D01*
X131313649Y-87205214D01*
X131298054Y-87196676D01*
X131177606Y-87151522D01*
X131162351Y-87147895D01*
X131111486Y-87142369D01*
X131104672Y-87142000D01*
X130482115Y-87142000D01*
X130466876Y-87146475D01*
X130465671Y-87147865D01*
X130464000Y-87155548D01*
X130464000Y-89839884D01*
X129956000Y-89839884D01*
X129956000Y-88772115D01*
X129951525Y-88756876D01*
X129950135Y-88755671D01*
X129942452Y-88754000D01*
X128870116Y-88754000D01*
X128854877Y-88758475D01*
X128853672Y-88759865D01*
X128852001Y-88767548D01*
X128852001Y-89394669D01*
X124650497Y-89394669D01*
X124650500Y-89394646D01*
X124650500Y-88227885D01*
X128852000Y-88227885D01*
X128856475Y-88243124D01*
X128857865Y-88244329D01*
X128865548Y-88246000D01*
X129937885Y-88246000D01*
X129953124Y-88241525D01*
X129954329Y-88240135D01*
X129956000Y-88232452D01*
X129956000Y-87160116D01*
X129951525Y-87144877D01*
X129950135Y-87143672D01*
X129942452Y-87142001D01*
X129315331Y-87142001D01*
X129308510Y-87142371D01*
X129257648Y-87147895D01*
X129242396Y-87151521D01*
X129121946Y-87196676D01*
X129106351Y-87205214D01*
X129004276Y-87281715D01*
X128991715Y-87294276D01*
X128915214Y-87396351D01*
X128906676Y-87411946D01*
X128861522Y-87532394D01*
X128857895Y-87547649D01*
X128852369Y-87598514D01*
X128852000Y-87605328D01*
X128852000Y-88227885D01*
X124650500Y-88227885D01*
X124650500Y-87605354D01*
X124647382Y-87579154D01*
X124601939Y-87476847D01*
X124593444Y-87468366D01*
X124561072Y-87436051D01*
X124522713Y-87397759D01*
X124512076Y-87393056D01*
X124512074Y-87393055D01*
X124434396Y-87358714D01*
X124420327Y-87352494D01*
X124394646Y-87349500D01*
X122605354Y-87349500D01*
X122601650Y-87349941D01*
X122601647Y-87349941D01*
X122597018Y-87350492D01*
X122579154Y-87352618D01*
X122570514Y-87356456D01*
X122570513Y-87356456D01*
X122492687Y-87391025D01*
X122476847Y-87398061D01*
X122397759Y-87477287D01*
X122352494Y-87579673D01*
X122349500Y-87605354D01*
X122349500Y-88299111D01*
X122329498Y-88367232D01*
X122275842Y-88413725D01*
X122205568Y-88423829D01*
X122140988Y-88394335D01*
X122102604Y-88334609D01*
X122098029Y-88310640D01*
X122096610Y-88295197D01*
X122096081Y-88289440D01*
X122083359Y-88244329D01*
X122040255Y-88091496D01*
X122038686Y-88085931D01*
X122027553Y-88063354D01*
X121947719Y-87901469D01*
X121945165Y-87896290D01*
X121818651Y-87726867D01*
X121691236Y-87609086D01*
X121667622Y-87587257D01*
X121667620Y-87587255D01*
X121663381Y-87583337D01*
X121582642Y-87532394D01*
X121489434Y-87473584D01*
X121489433Y-87473584D01*
X121484554Y-87470505D01*
X121288160Y-87392152D01*
X121282503Y-87391027D01*
X121282497Y-87391025D01*
X121086442Y-87352028D01*
X121086440Y-87352028D01*
X121080775Y-87350901D01*
X121075000Y-87350825D01*
X121074996Y-87350825D01*
X120968976Y-87349437D01*
X120869346Y-87348133D01*
X120863649Y-87349112D01*
X120863648Y-87349112D01*
X120666650Y-87382962D01*
X120666649Y-87382962D01*
X120660953Y-87383941D01*
X120466484Y-87455685D01*
X120466483Y-87455685D01*
X120462575Y-87457127D01*
X120462292Y-87456359D01*
X120396905Y-87466874D01*
X120331842Y-87438460D01*
X120292469Y-87379381D01*
X120291288Y-87308394D01*
X120323663Y-87252780D01*
X121476337Y-86100106D01*
X121538649Y-86066080D01*
X121565432Y-86063201D01*
X122429692Y-86063201D01*
X122452509Y-86055787D01*
X122471728Y-86051173D01*
X122495425Y-86047420D01*
X122504263Y-86042917D01*
X122516801Y-86036529D01*
X122535062Y-86028965D01*
X122548446Y-86024616D01*
X122548449Y-86024614D01*
X122557880Y-86021550D01*
X122577290Y-86007448D01*
X122594136Y-85997124D01*
X122615519Y-85986229D01*
X122939343Y-85662405D01*
X123001655Y-85628379D01*
X123028438Y-85625500D01*
X124419646Y-85625500D01*
X124423350Y-85625059D01*
X124423353Y-85625059D01*
X124430746Y-85624179D01*
X124445846Y-85622382D01*
X124476798Y-85608634D01*
X124537518Y-85581663D01*
X124548153Y-85576939D01*
X124573139Y-85551910D01*
X124619023Y-85505945D01*
X124627241Y-85497713D01*
X124634733Y-85480768D01*
X124658265Y-85427538D01*
X124672506Y-85395327D01*
X124675500Y-85369646D01*
X124675500Y-83869669D01*
X128892001Y-83869669D01*
X128892371Y-83876490D01*
X128897895Y-83927352D01*
X128901521Y-83942604D01*
X128946676Y-84063054D01*
X128955214Y-84078649D01*
X129031715Y-84180724D01*
X129044276Y-84193285D01*
X129146351Y-84269786D01*
X129161946Y-84278324D01*
X129282394Y-84323478D01*
X129297649Y-84327105D01*
X129348514Y-84332631D01*
X129355328Y-84333000D01*
X129977885Y-84333000D01*
X129993124Y-84328525D01*
X129994329Y-84327135D01*
X129996000Y-84319452D01*
X129996000Y-84314884D01*
X130504000Y-84314884D01*
X130508475Y-84330123D01*
X130509865Y-84331328D01*
X130517548Y-84332999D01*
X131144669Y-84332999D01*
X131151490Y-84332629D01*
X131202352Y-84327105D01*
X131217604Y-84323479D01*
X131338054Y-84278324D01*
X131353649Y-84269786D01*
X131455724Y-84193285D01*
X131468285Y-84180724D01*
X131544786Y-84078649D01*
X131553324Y-84063054D01*
X131598478Y-83942606D01*
X131602105Y-83927351D01*
X131607631Y-83876486D01*
X131608000Y-83869672D01*
X131608000Y-83692684D01*
X131628002Y-83624563D01*
X131681658Y-83578070D01*
X131751932Y-83567966D01*
X131816512Y-83597460D01*
X131836895Y-83619962D01*
X131911405Y-83725391D01*
X131915539Y-83729418D01*
X132056424Y-83866662D01*
X132062865Y-83872937D01*
X132067661Y-83876142D01*
X132067664Y-83876144D01*
X132167129Y-83942604D01*
X132238677Y-83990411D01*
X132243985Y-83992692D01*
X132243986Y-83992692D01*
X132427650Y-84071600D01*
X132427653Y-84071601D01*
X132432953Y-84073878D01*
X132438582Y-84075152D01*
X132438583Y-84075152D01*
X132633550Y-84119269D01*
X132633553Y-84119269D01*
X132639186Y-84120544D01*
X132644957Y-84120771D01*
X132644959Y-84120771D01*
X132706989Y-84123208D01*
X132850470Y-84128846D01*
X132856179Y-84128018D01*
X132856183Y-84128018D01*
X133054015Y-84099333D01*
X133054019Y-84099332D01*
X133059730Y-84098504D01*
X133185683Y-84055749D01*
X133254483Y-84032395D01*
X133254488Y-84032393D01*
X133259955Y-84030537D01*
X133264998Y-84027713D01*
X133439395Y-83930046D01*
X133439399Y-83930043D01*
X133444442Y-83927219D01*
X133607012Y-83792012D01*
X133742219Y-83629442D01*
X133745043Y-83624399D01*
X133745046Y-83624395D01*
X133842713Y-83449998D01*
X133842714Y-83449996D01*
X133845537Y-83444955D01*
X133847393Y-83439488D01*
X133847395Y-83439483D01*
X133911647Y-83250200D01*
X133913504Y-83244730D01*
X133914333Y-83239015D01*
X133935090Y-83095860D01*
X133964660Y-83031315D01*
X134024432Y-82993003D01*
X134095429Y-82993087D01*
X134155109Y-83031542D01*
X134184525Y-83096158D01*
X134185515Y-83105695D01*
X134188796Y-83155749D01*
X134190217Y-83161345D01*
X134190218Y-83161350D01*
X134232162Y-83326501D01*
X134240845Y-83360690D01*
X134243262Y-83365933D01*
X134326951Y-83547469D01*
X134329369Y-83552714D01*
X134451405Y-83725391D01*
X134455539Y-83729418D01*
X134596424Y-83866662D01*
X134602865Y-83872937D01*
X134607661Y-83876142D01*
X134607664Y-83876144D01*
X134707129Y-83942604D01*
X134778677Y-83990411D01*
X134783985Y-83992692D01*
X134783986Y-83992692D01*
X134967650Y-84071600D01*
X134967653Y-84071601D01*
X134972953Y-84073878D01*
X134978582Y-84075152D01*
X134978583Y-84075152D01*
X135173550Y-84119269D01*
X135173553Y-84119269D01*
X135179186Y-84120544D01*
X135184957Y-84120771D01*
X135184959Y-84120771D01*
X135246989Y-84123208D01*
X135390470Y-84128846D01*
X135396179Y-84128018D01*
X135396183Y-84128018D01*
X135594015Y-84099333D01*
X135594019Y-84099332D01*
X135599730Y-84098504D01*
X135725683Y-84055749D01*
X135794483Y-84032395D01*
X135794488Y-84032393D01*
X135799955Y-84030537D01*
X135804998Y-84027713D01*
X135979395Y-83930046D01*
X135979399Y-83930043D01*
X135984442Y-83927219D01*
X136147012Y-83792012D01*
X136282219Y-83629442D01*
X136285043Y-83624399D01*
X136285046Y-83624395D01*
X136382713Y-83449998D01*
X136382714Y-83449996D01*
X136385537Y-83444955D01*
X136387393Y-83439488D01*
X136387395Y-83439483D01*
X136451647Y-83250200D01*
X136453504Y-83244730D01*
X136454935Y-83234865D01*
X136483314Y-83039140D01*
X136483314Y-83039138D01*
X136483846Y-83035470D01*
X136485429Y-82975000D01*
X136466081Y-82764440D01*
X136453359Y-82719329D01*
X136410255Y-82566496D01*
X136408686Y-82560931D01*
X136404906Y-82553264D01*
X136317719Y-82376469D01*
X136315165Y-82371290D01*
X136188651Y-82201867D01*
X136057171Y-82080328D01*
X136037622Y-82062257D01*
X136037620Y-82062255D01*
X136033381Y-82058337D01*
X135938590Y-81998528D01*
X135859434Y-81948584D01*
X135859433Y-81948584D01*
X135854554Y-81945505D01*
X135658160Y-81867152D01*
X135652503Y-81866027D01*
X135652497Y-81866025D01*
X135456442Y-81827028D01*
X135456440Y-81827028D01*
X135450775Y-81825901D01*
X135445000Y-81825825D01*
X135444996Y-81825825D01*
X135338976Y-81824437D01*
X135239346Y-81823133D01*
X135233649Y-81824112D01*
X135233648Y-81824112D01*
X135036650Y-81857962D01*
X135036649Y-81857962D01*
X135030953Y-81858941D01*
X134832575Y-81932127D01*
X134827614Y-81935079D01*
X134827613Y-81935079D01*
X134671393Y-82028020D01*
X134650856Y-82040238D01*
X134491881Y-82179655D01*
X134360976Y-82345708D01*
X134358287Y-82350819D01*
X134358285Y-82350822D01*
X134347336Y-82371633D01*
X134262523Y-82532836D01*
X134199820Y-82734773D01*
X134199141Y-82740510D01*
X134185088Y-82859239D01*
X134157217Y-82924537D01*
X134098469Y-82964401D01*
X134027494Y-82966174D01*
X133966828Y-82929295D01*
X133935730Y-82865471D01*
X133934490Y-82855958D01*
X133934051Y-82851172D01*
X133926081Y-82764440D01*
X133913359Y-82719329D01*
X133870255Y-82566496D01*
X133868686Y-82560931D01*
X133864906Y-82553264D01*
X133777719Y-82376469D01*
X133775165Y-82371290D01*
X133648651Y-82201867D01*
X133517171Y-82080328D01*
X133497622Y-82062257D01*
X133497620Y-82062255D01*
X133493381Y-82058337D01*
X133398590Y-81998528D01*
X133319434Y-81948584D01*
X133319433Y-81948584D01*
X133314554Y-81945505D01*
X133118160Y-81867152D01*
X133112503Y-81866027D01*
X133112497Y-81866025D01*
X132916442Y-81827028D01*
X132916440Y-81827028D01*
X132910775Y-81825901D01*
X132905000Y-81825825D01*
X132904996Y-81825825D01*
X132798976Y-81824437D01*
X132699346Y-81823133D01*
X132693649Y-81824112D01*
X132693648Y-81824112D01*
X132496650Y-81857962D01*
X132496649Y-81857962D01*
X132490953Y-81858941D01*
X132292575Y-81932127D01*
X132287614Y-81935079D01*
X132287613Y-81935079D01*
X132131393Y-82028020D01*
X132110856Y-82040238D01*
X131951881Y-82179655D01*
X131948310Y-82184185D01*
X131832949Y-82330520D01*
X131775068Y-82371633D01*
X131704148Y-82374927D01*
X131642705Y-82339356D01*
X131610248Y-82276213D01*
X131607999Y-82252514D01*
X131607999Y-82080331D01*
X131607629Y-82073510D01*
X131602105Y-82022648D01*
X131598479Y-82007396D01*
X131553324Y-81886946D01*
X131544786Y-81871351D01*
X131468285Y-81769276D01*
X131455724Y-81756715D01*
X131353649Y-81680214D01*
X131338054Y-81671676D01*
X131217606Y-81626522D01*
X131202351Y-81622895D01*
X131151486Y-81617369D01*
X131144672Y-81617000D01*
X130522115Y-81617000D01*
X130506876Y-81621475D01*
X130505671Y-81622865D01*
X130504000Y-81630548D01*
X130504000Y-84314884D01*
X129996000Y-84314884D01*
X129996000Y-83247115D01*
X129991525Y-83231876D01*
X129990135Y-83230671D01*
X129982452Y-83229000D01*
X128910116Y-83229000D01*
X128894877Y-83233475D01*
X128893672Y-83234865D01*
X128892001Y-83242548D01*
X128892001Y-83869669D01*
X124675500Y-83869669D01*
X124675500Y-83580354D01*
X124672382Y-83554154D01*
X124626939Y-83451847D01*
X124618444Y-83443366D01*
X124578289Y-83403282D01*
X124547713Y-83372759D01*
X124537076Y-83368056D01*
X124537074Y-83368055D01*
X124467998Y-83337517D01*
X124445327Y-83327494D01*
X124419646Y-83324500D01*
X122630354Y-83324500D01*
X122626650Y-83324941D01*
X122626647Y-83324941D01*
X122622018Y-83325492D01*
X122604154Y-83327618D01*
X122595514Y-83331456D01*
X122595513Y-83331456D01*
X122529698Y-83360690D01*
X122501847Y-83373061D01*
X122493628Y-83381294D01*
X122493627Y-83381295D01*
X122490320Y-83384608D01*
X122422759Y-83452287D01*
X122418056Y-83462924D01*
X122418055Y-83462926D01*
X122408733Y-83484012D01*
X122377494Y-83554673D01*
X122374500Y-83580354D01*
X122374500Y-84274111D01*
X122354498Y-84342232D01*
X122300842Y-84388725D01*
X122230568Y-84398829D01*
X122165988Y-84369335D01*
X122127604Y-84309609D01*
X122123029Y-84285640D01*
X122121610Y-84270197D01*
X122121081Y-84264440D01*
X122116532Y-84248308D01*
X122074516Y-84099333D01*
X122063686Y-84060931D01*
X122054692Y-84042692D01*
X121972719Y-83876469D01*
X121970165Y-83871290D01*
X121843651Y-83701867D01*
X121716236Y-83584086D01*
X121692622Y-83562257D01*
X121692620Y-83562255D01*
X121688381Y-83558337D01*
X121556641Y-83475215D01*
X121514434Y-83448584D01*
X121514433Y-83448584D01*
X121509554Y-83445505D01*
X121313160Y-83367152D01*
X121307503Y-83366027D01*
X121307497Y-83366025D01*
X121111442Y-83327028D01*
X121111440Y-83327028D01*
X121105775Y-83325901D01*
X121100000Y-83325825D01*
X121099996Y-83325825D01*
X120993976Y-83324437D01*
X120894346Y-83323133D01*
X120888649Y-83324112D01*
X120888648Y-83324112D01*
X120691650Y-83357962D01*
X120691649Y-83357962D01*
X120685953Y-83358941D01*
X120487575Y-83432127D01*
X120482614Y-83435079D01*
X120482613Y-83435079D01*
X120436553Y-83462482D01*
X120305856Y-83540238D01*
X120146881Y-83679655D01*
X120015976Y-83845708D01*
X120013287Y-83850819D01*
X120013285Y-83850822D01*
X119939155Y-83991720D01*
X119889736Y-84042692D01*
X119820603Y-84058855D01*
X119753707Y-84035076D01*
X119712097Y-83983294D01*
X119647971Y-83835814D01*
X119643105Y-83826739D01*
X119527426Y-83647926D01*
X119521136Y-83639757D01*
X119377806Y-83482240D01*
X119370273Y-83475215D01*
X119203139Y-83343222D01*
X119194552Y-83337517D01*
X119008117Y-83234599D01*
X118998701Y-83230367D01*
X118914427Y-83200524D01*
X118856890Y-83158930D01*
X118830974Y-83092832D01*
X118844908Y-83023216D01*
X118867391Y-82992656D01*
X119157162Y-82702885D01*
X128892000Y-82702885D01*
X128896475Y-82718124D01*
X128897865Y-82719329D01*
X128905548Y-82721000D01*
X129977885Y-82721000D01*
X129993124Y-82716525D01*
X129994329Y-82715135D01*
X129996000Y-82707452D01*
X129996000Y-81635116D01*
X129991525Y-81619877D01*
X129990135Y-81618672D01*
X129982452Y-81617001D01*
X129355331Y-81617001D01*
X129348510Y-81617371D01*
X129297648Y-81622895D01*
X129282396Y-81626521D01*
X129161946Y-81671676D01*
X129146351Y-81680214D01*
X129044276Y-81756715D01*
X129031715Y-81769276D01*
X128955214Y-81871351D01*
X128946676Y-81886946D01*
X128901522Y-82007394D01*
X128897895Y-82022649D01*
X128892369Y-82073514D01*
X128892000Y-82080328D01*
X128892000Y-82702885D01*
X119157162Y-82702885D01*
X119747642Y-82112405D01*
X119809954Y-82078379D01*
X119836737Y-82075500D01*
X122392393Y-82075500D01*
X122415210Y-82068086D01*
X122434429Y-82063472D01*
X122458126Y-82059719D01*
X122466964Y-82055216D01*
X122479502Y-82048828D01*
X122497763Y-82041264D01*
X122511147Y-82036915D01*
X122511150Y-82036913D01*
X122520581Y-82033849D01*
X122539991Y-82019747D01*
X122556837Y-82009423D01*
X122578220Y-81998528D01*
X122914343Y-81662405D01*
X122976655Y-81628379D01*
X123003438Y-81625500D01*
X124394646Y-81625500D01*
X124398350Y-81625059D01*
X124398353Y-81625059D01*
X124405746Y-81624179D01*
X124420846Y-81622382D01*
X124432128Y-81617371D01*
X124512518Y-81581663D01*
X124523153Y-81576939D01*
X124602241Y-81497713D01*
X124647506Y-81395327D01*
X124650500Y-81369646D01*
X124650500Y-79619669D01*
X128892001Y-79619669D01*
X128892371Y-79626490D01*
X128897895Y-79677352D01*
X128901521Y-79692604D01*
X128946676Y-79813054D01*
X128955214Y-79828649D01*
X129031715Y-79930724D01*
X129044276Y-79943285D01*
X129146351Y-80019786D01*
X129161946Y-80028324D01*
X129282394Y-80073478D01*
X129297649Y-80077105D01*
X129348514Y-80082631D01*
X129355328Y-80083000D01*
X129977885Y-80083000D01*
X129993124Y-80078525D01*
X129994329Y-80077135D01*
X129996000Y-80069452D01*
X129996000Y-78997115D01*
X129991525Y-78981876D01*
X129990135Y-78980671D01*
X129982452Y-78979000D01*
X128910116Y-78979000D01*
X128894877Y-78983475D01*
X128893672Y-78984865D01*
X128892001Y-78992548D01*
X128892001Y-79619669D01*
X124650500Y-79619669D01*
X124650500Y-79580354D01*
X124647382Y-79554154D01*
X124640018Y-79537574D01*
X124606663Y-79462482D01*
X124601939Y-79451847D01*
X124593444Y-79443366D01*
X124562165Y-79412142D01*
X124522713Y-79372759D01*
X124512076Y-79368056D01*
X124512074Y-79368055D01*
X124452538Y-79341735D01*
X124420327Y-79327494D01*
X124394646Y-79324500D01*
X122605354Y-79324500D01*
X122601650Y-79324941D01*
X122601647Y-79324941D01*
X122597018Y-79325492D01*
X122579154Y-79327618D01*
X122570514Y-79331456D01*
X122570513Y-79331456D01*
X122504131Y-79360942D01*
X122476847Y-79373061D01*
X122397759Y-79452287D01*
X122393056Y-79462924D01*
X122393055Y-79462926D01*
X122385764Y-79479418D01*
X122352494Y-79554673D01*
X122349500Y-79580354D01*
X122349500Y-80274111D01*
X122329498Y-80342232D01*
X122275842Y-80388725D01*
X122205568Y-80398829D01*
X122140988Y-80369335D01*
X122102604Y-80309609D01*
X122098029Y-80285640D01*
X122096610Y-80270197D01*
X122096081Y-80264440D01*
X122038686Y-80060931D01*
X122027553Y-80038354D01*
X121947719Y-79876469D01*
X121945165Y-79871290D01*
X121818651Y-79701867D01*
X121691236Y-79584086D01*
X121667622Y-79562257D01*
X121667620Y-79562255D01*
X121663381Y-79558337D01*
X121531920Y-79475391D01*
X121489434Y-79448584D01*
X121489433Y-79448584D01*
X121484554Y-79445505D01*
X121427525Y-79422753D01*
X121371666Y-79378933D01*
X121348365Y-79311869D01*
X121365021Y-79242853D01*
X121385120Y-79216628D01*
X122148863Y-78452885D01*
X128892000Y-78452885D01*
X128896475Y-78468124D01*
X128897865Y-78469329D01*
X128905548Y-78471000D01*
X129977885Y-78471000D01*
X129993124Y-78466525D01*
X129994329Y-78465135D01*
X129996000Y-78457452D01*
X129996000Y-77385116D01*
X129991525Y-77369877D01*
X129990135Y-77368672D01*
X129982452Y-77367001D01*
X129355331Y-77367001D01*
X129348510Y-77367371D01*
X129297648Y-77372895D01*
X129282396Y-77376521D01*
X129161946Y-77421676D01*
X129146351Y-77430214D01*
X129044276Y-77506715D01*
X129031715Y-77519276D01*
X128955214Y-77621351D01*
X128946676Y-77636946D01*
X128901522Y-77757394D01*
X128897895Y-77772649D01*
X128892369Y-77823514D01*
X128892000Y-77830328D01*
X128892000Y-78452885D01*
X122148863Y-78452885D01*
X122914343Y-77687405D01*
X122976655Y-77653379D01*
X123003438Y-77650500D01*
X124394646Y-77650500D01*
X124398350Y-77650059D01*
X124398353Y-77650059D01*
X124405746Y-77649179D01*
X124420846Y-77647382D01*
X124479451Y-77621351D01*
X124512518Y-77606663D01*
X124523153Y-77601939D01*
X124602241Y-77522713D01*
X124619569Y-77483520D01*
X124633265Y-77452538D01*
X124647506Y-77420327D01*
X124650500Y-77394646D01*
X124650500Y-75605354D01*
X124647382Y-75579154D01*
X124601939Y-75476847D01*
X124593444Y-75468366D01*
X124530945Y-75405977D01*
X124522713Y-75397759D01*
X124512076Y-75393056D01*
X124512074Y-75393055D01*
X124442998Y-75362517D01*
X124420327Y-75352494D01*
X124394646Y-75349500D01*
X122605354Y-75349500D01*
X122601650Y-75349941D01*
X122601647Y-75349941D01*
X122594254Y-75350821D01*
X122579154Y-75352618D01*
X122570514Y-75356456D01*
X122570513Y-75356456D01*
X122504131Y-75385942D01*
X122476847Y-75398061D01*
X122397759Y-75477287D01*
X122393056Y-75487924D01*
X122393055Y-75487926D01*
X122366735Y-75547462D01*
X122352494Y-75579673D01*
X122349500Y-75605354D01*
X122349500Y-76299111D01*
X122329498Y-76367232D01*
X122275842Y-76413725D01*
X122205568Y-76423829D01*
X122140988Y-76394335D01*
X122102604Y-76334609D01*
X122098029Y-76310640D01*
X122096610Y-76295197D01*
X122096081Y-76289440D01*
X122038686Y-76085931D01*
X122029692Y-76067692D01*
X121947719Y-75901469D01*
X121945165Y-75896290D01*
X121818651Y-75726867D01*
X121691236Y-75609086D01*
X121667622Y-75587257D01*
X121667620Y-75587255D01*
X121663381Y-75583337D01*
X121531641Y-75500215D01*
X121489434Y-75473584D01*
X121489433Y-75473584D01*
X121484554Y-75470505D01*
X121288160Y-75392152D01*
X121282503Y-75391027D01*
X121282497Y-75391025D01*
X121086442Y-75352028D01*
X121086440Y-75352028D01*
X121080775Y-75350901D01*
X121075000Y-75350825D01*
X121074996Y-75350825D01*
X120968976Y-75349437D01*
X120869346Y-75348133D01*
X120863649Y-75349112D01*
X120863648Y-75349112D01*
X120666650Y-75382962D01*
X120666649Y-75382962D01*
X120660953Y-75383941D01*
X120462575Y-75457127D01*
X120457614Y-75460079D01*
X120457613Y-75460079D01*
X120411553Y-75487482D01*
X120280856Y-75565238D01*
X120121881Y-75704655D01*
X119990976Y-75870708D01*
X119988287Y-75875819D01*
X119988285Y-75875822D01*
X119914155Y-76016720D01*
X119864736Y-76067692D01*
X119795603Y-76083855D01*
X119728707Y-76060076D01*
X119687097Y-76008294D01*
X119622971Y-75860814D01*
X119618105Y-75851739D01*
X119502426Y-75672926D01*
X119496136Y-75664757D01*
X119352806Y-75507240D01*
X119345273Y-75500215D01*
X119178139Y-75368222D01*
X119169552Y-75362517D01*
X118983117Y-75259599D01*
X118973705Y-75255369D01*
X118772959Y-75184280D01*
X118762988Y-75181646D01*
X118691837Y-75168972D01*
X118678540Y-75170432D01*
X118674000Y-75184989D01*
X118674000Y-77818517D01*
X118678064Y-77832359D01*
X118691478Y-77834393D01*
X118703312Y-77832877D01*
X118703500Y-77834341D01*
X118767590Y-77839238D01*
X118824218Y-77882060D01*
X118848705Y-77948700D01*
X118833277Y-78018000D01*
X118812079Y-78046173D01*
X118470657Y-78387595D01*
X118408345Y-78421621D01*
X118381562Y-78424500D01*
X115775906Y-78424500D01*
X115753089Y-78431914D01*
X115733870Y-78436528D01*
X115710173Y-78440281D01*
X115701336Y-78444784D01*
X115701335Y-78444784D01*
X115688797Y-78451172D01*
X115670536Y-78458736D01*
X115657152Y-78463085D01*
X115657149Y-78463087D01*
X115647718Y-78466151D01*
X115639695Y-78471980D01*
X115628308Y-78480253D01*
X115611462Y-78490577D01*
X115590079Y-78501472D01*
X114382675Y-79708876D01*
X114320363Y-79742902D01*
X114249548Y-79737837D01*
X114200694Y-79704603D01*
X114198651Y-79701867D01*
X114192878Y-79696530D01*
X114047622Y-79562257D01*
X114047620Y-79562255D01*
X114043381Y-79558337D01*
X113911920Y-79475391D01*
X113869434Y-79448584D01*
X113869433Y-79448584D01*
X113864554Y-79445505D01*
X113668160Y-79367152D01*
X113662503Y-79366027D01*
X113662497Y-79366025D01*
X113466442Y-79327028D01*
X113466440Y-79327028D01*
X113460775Y-79325901D01*
X113455000Y-79325825D01*
X113454996Y-79325825D01*
X113348976Y-79324437D01*
X113249346Y-79323133D01*
X113243649Y-79324112D01*
X113243648Y-79324112D01*
X113046650Y-79357962D01*
X113046649Y-79357962D01*
X113040953Y-79358941D01*
X112842575Y-79432127D01*
X112837614Y-79435079D01*
X112837613Y-79435079D01*
X112763086Y-79479418D01*
X112660856Y-79540238D01*
X112501881Y-79679655D01*
X112370976Y-79845708D01*
X112368287Y-79850819D01*
X112368285Y-79850822D01*
X112353541Y-79878846D01*
X112272523Y-80032836D01*
X112209820Y-80234773D01*
X112209141Y-80240510D01*
X112195088Y-80359239D01*
X112167217Y-80424537D01*
X112108469Y-80464401D01*
X112037494Y-80466174D01*
X111976828Y-80429295D01*
X111945730Y-80365471D01*
X111944490Y-80355958D01*
X111944361Y-80354547D01*
X111936081Y-80264440D01*
X111878686Y-80060931D01*
X111867553Y-80038354D01*
X111787719Y-79876469D01*
X111785165Y-79871290D01*
X111658651Y-79701867D01*
X111531236Y-79584086D01*
X111507622Y-79562257D01*
X111507620Y-79562255D01*
X111503381Y-79558337D01*
X111371920Y-79475391D01*
X111329434Y-79448584D01*
X111329433Y-79448584D01*
X111324554Y-79445505D01*
X111128160Y-79367152D01*
X111122503Y-79366027D01*
X111122497Y-79366025D01*
X110926442Y-79327028D01*
X110926440Y-79327028D01*
X110920775Y-79325901D01*
X110915000Y-79325825D01*
X110914996Y-79325825D01*
X110808976Y-79324437D01*
X110709346Y-79323133D01*
X110703649Y-79324112D01*
X110703648Y-79324112D01*
X110506650Y-79357962D01*
X110506649Y-79357962D01*
X110500953Y-79358941D01*
X110302575Y-79432127D01*
X110297614Y-79435079D01*
X110297613Y-79435079D01*
X110223086Y-79479418D01*
X110120856Y-79540238D01*
X109961881Y-79679655D01*
X109830976Y-79845708D01*
X109828287Y-79850819D01*
X109828285Y-79850822D01*
X109813541Y-79878846D01*
X109732523Y-80032836D01*
X109669820Y-80234773D01*
X109644967Y-80444754D01*
X109658796Y-80655749D01*
X109660217Y-80661345D01*
X109660218Y-80661350D01*
X109682784Y-80750200D01*
X109710845Y-80860690D01*
X109713262Y-80865933D01*
X109786017Y-81023752D01*
X109799369Y-81052714D01*
X109921405Y-81225391D01*
X109925539Y-81229418D01*
X110065727Y-81365983D01*
X110072865Y-81372937D01*
X110077661Y-81376142D01*
X110077664Y-81376144D01*
X110220936Y-81471875D01*
X110248677Y-81490411D01*
X110253985Y-81492692D01*
X110253986Y-81492692D01*
X110437650Y-81571600D01*
X110437653Y-81571601D01*
X110442953Y-81573878D01*
X110448582Y-81575152D01*
X110448583Y-81575152D01*
X110643550Y-81619269D01*
X110643553Y-81619269D01*
X110649186Y-81620544D01*
X110654957Y-81620771D01*
X110654959Y-81620771D01*
X110709018Y-81622895D01*
X110860470Y-81628846D01*
X110866179Y-81628018D01*
X110866183Y-81628018D01*
X111064015Y-81599333D01*
X111064019Y-81599332D01*
X111069730Y-81598504D01*
X111148987Y-81571600D01*
X111264483Y-81532395D01*
X111264488Y-81532393D01*
X111269955Y-81530537D01*
X111274998Y-81527713D01*
X111449395Y-81430046D01*
X111449399Y-81430043D01*
X111454442Y-81427219D01*
X111617012Y-81292012D01*
X111752219Y-81129442D01*
X111755043Y-81124399D01*
X111755046Y-81124395D01*
X111852713Y-80949998D01*
X111852714Y-80949996D01*
X111855537Y-80944955D01*
X111857393Y-80939488D01*
X111857395Y-80939483D01*
X111921647Y-80750200D01*
X111923504Y-80744730D01*
X111935594Y-80661350D01*
X111945090Y-80595860D01*
X111974660Y-80531315D01*
X112034432Y-80493003D01*
X112105429Y-80493087D01*
X112165109Y-80531542D01*
X112194525Y-80596158D01*
X112195515Y-80605695D01*
X112198796Y-80655749D01*
X112200217Y-80661345D01*
X112200218Y-80661350D01*
X112222784Y-80750200D01*
X112250845Y-80860690D01*
X112253262Y-80865933D01*
X112326017Y-81023752D01*
X112339369Y-81052714D01*
X112461405Y-81225391D01*
X112465539Y-81229418D01*
X112605727Y-81365983D01*
X112612865Y-81372937D01*
X112617661Y-81376142D01*
X112617664Y-81376144D01*
X112760936Y-81471875D01*
X112788677Y-81490411D01*
X112793985Y-81492692D01*
X112793986Y-81492692D01*
X112977650Y-81571600D01*
X112977653Y-81571601D01*
X112982953Y-81573878D01*
X112988579Y-81575151D01*
X113019527Y-81582154D01*
X113081553Y-81616698D01*
X113115057Y-81679292D01*
X113109401Y-81750063D01*
X113080812Y-81794142D01*
X112544433Y-82330520D01*
X112087358Y-82787595D01*
X112025046Y-82821621D01*
X111998263Y-82824500D01*
X110320906Y-82824500D01*
X110298089Y-82831914D01*
X110278870Y-82836528D01*
X110255173Y-82840281D01*
X110246336Y-82844784D01*
X110246335Y-82844784D01*
X110233797Y-82851172D01*
X110215536Y-82858736D01*
X110202152Y-82863085D01*
X110202149Y-82863087D01*
X110192718Y-82866151D01*
X110184695Y-82871980D01*
X110173308Y-82880253D01*
X110156462Y-82890577D01*
X110135079Y-82901472D01*
X108826472Y-84210079D01*
X108815577Y-84231462D01*
X108805253Y-84248308D01*
X108791151Y-84267718D01*
X108788087Y-84277149D01*
X108788085Y-84277152D01*
X108783736Y-84290536D01*
X108776172Y-84308797D01*
X108769784Y-84321335D01*
X108765281Y-84330173D01*
X108763730Y-84339967D01*
X108761528Y-84353869D01*
X108756914Y-84373089D01*
X108749500Y-84395906D01*
X108749500Y-89240490D01*
X105300500Y-89240490D01*
X105300500Y-76469754D01*
X109644967Y-76469754D01*
X109658796Y-76680749D01*
X109660217Y-76686345D01*
X109660218Y-76686350D01*
X109682784Y-76775200D01*
X109710845Y-76885690D01*
X109713262Y-76890933D01*
X109786017Y-77048752D01*
X109799369Y-77077714D01*
X109921405Y-77250391D01*
X109925539Y-77254418D01*
X110065727Y-77390983D01*
X110072865Y-77397937D01*
X110077661Y-77401142D01*
X110077664Y-77401144D01*
X110164885Y-77459423D01*
X110248677Y-77515411D01*
X110253985Y-77517692D01*
X110253986Y-77517692D01*
X110437650Y-77596600D01*
X110437653Y-77596601D01*
X110442953Y-77598878D01*
X110448582Y-77600152D01*
X110448583Y-77600152D01*
X110643550Y-77644269D01*
X110643553Y-77644269D01*
X110649186Y-77645544D01*
X110654957Y-77645771D01*
X110654959Y-77645771D01*
X110716989Y-77648208D01*
X110860470Y-77653846D01*
X110866179Y-77653018D01*
X110866183Y-77653018D01*
X111064015Y-77624333D01*
X111064019Y-77624332D01*
X111069730Y-77623504D01*
X111148996Y-77596597D01*
X111264483Y-77557395D01*
X111264488Y-77557393D01*
X111269955Y-77555537D01*
X111274998Y-77552713D01*
X111449395Y-77455046D01*
X111449399Y-77455043D01*
X111454442Y-77452219D01*
X111617012Y-77317012D01*
X111752219Y-77154442D01*
X111755043Y-77149399D01*
X111755046Y-77149395D01*
X111852713Y-76974998D01*
X111852714Y-76974996D01*
X111855537Y-76969955D01*
X111857393Y-76964488D01*
X111857395Y-76964483D01*
X111921647Y-76775200D01*
X111923504Y-76769730D01*
X111935594Y-76686350D01*
X111945090Y-76620860D01*
X111974660Y-76556315D01*
X112034432Y-76518003D01*
X112105429Y-76518087D01*
X112165109Y-76556542D01*
X112194525Y-76621158D01*
X112195515Y-76630695D01*
X112198796Y-76680749D01*
X112200217Y-76686345D01*
X112200218Y-76686350D01*
X112222784Y-76775200D01*
X112250845Y-76885690D01*
X112253262Y-76890933D01*
X112326017Y-77048752D01*
X112339369Y-77077714D01*
X112461405Y-77250391D01*
X112465539Y-77254418D01*
X112605727Y-77390983D01*
X112612865Y-77397937D01*
X112617661Y-77401142D01*
X112617664Y-77401144D01*
X112704885Y-77459423D01*
X112788677Y-77515411D01*
X112793985Y-77517692D01*
X112793986Y-77517692D01*
X112977650Y-77596600D01*
X112977653Y-77596601D01*
X112982953Y-77598878D01*
X112988582Y-77600152D01*
X112988583Y-77600152D01*
X113183550Y-77644269D01*
X113183553Y-77644269D01*
X113189186Y-77645544D01*
X113194957Y-77645771D01*
X113194959Y-77645771D01*
X113256989Y-77648208D01*
X113400470Y-77653846D01*
X113406179Y-77653018D01*
X113406183Y-77653018D01*
X113604015Y-77624333D01*
X113604019Y-77624332D01*
X113609730Y-77623504D01*
X113688996Y-77596597D01*
X113804483Y-77557395D01*
X113804488Y-77557393D01*
X113809955Y-77555537D01*
X113814998Y-77552713D01*
X113989395Y-77455046D01*
X113989399Y-77455043D01*
X113994442Y-77452219D01*
X114157012Y-77317012D01*
X114292219Y-77154442D01*
X114295043Y-77149399D01*
X114295046Y-77149395D01*
X114392713Y-76974998D01*
X114392714Y-76974996D01*
X114395537Y-76969955D01*
X114397393Y-76964488D01*
X114397395Y-76964483D01*
X114461647Y-76775200D01*
X114463504Y-76769730D01*
X114475594Y-76686350D01*
X114485090Y-76620860D01*
X114514660Y-76556315D01*
X114574432Y-76518003D01*
X114645429Y-76518087D01*
X114705109Y-76556542D01*
X114734525Y-76621158D01*
X114735515Y-76630695D01*
X114738796Y-76680749D01*
X114740217Y-76686345D01*
X114740218Y-76686350D01*
X114762784Y-76775200D01*
X114790845Y-76885690D01*
X114793262Y-76890933D01*
X114866017Y-77048752D01*
X114879369Y-77077714D01*
X115001405Y-77250391D01*
X115005539Y-77254418D01*
X115145727Y-77390983D01*
X115152865Y-77397937D01*
X115157661Y-77401142D01*
X115157664Y-77401144D01*
X115244885Y-77459423D01*
X115328677Y-77515411D01*
X115333985Y-77517692D01*
X115333986Y-77517692D01*
X115517650Y-77596600D01*
X115517653Y-77596601D01*
X115522953Y-77598878D01*
X115528582Y-77600152D01*
X115528583Y-77600152D01*
X115723550Y-77644269D01*
X115723553Y-77644269D01*
X115729186Y-77645544D01*
X115734957Y-77645771D01*
X115734959Y-77645771D01*
X115796989Y-77648208D01*
X115940470Y-77653846D01*
X115946179Y-77653018D01*
X115946183Y-77653018D01*
X116144015Y-77624333D01*
X116144019Y-77624332D01*
X116149730Y-77623504D01*
X116228996Y-77596597D01*
X116344483Y-77557395D01*
X116344488Y-77557393D01*
X116349955Y-77555537D01*
X116354998Y-77552713D01*
X116529395Y-77455046D01*
X116529399Y-77455043D01*
X116534442Y-77452219D01*
X116697012Y-77317012D01*
X116832219Y-77154442D01*
X116928931Y-76981751D01*
X116979667Y-76932091D01*
X117049198Y-76917744D01*
X117115449Y-76943265D01*
X117155607Y-76995915D01*
X117201770Y-77109603D01*
X117206413Y-77118794D01*
X117317694Y-77300388D01*
X117323777Y-77308699D01*
X117463213Y-77469667D01*
X117470580Y-77476883D01*
X117634434Y-77612916D01*
X117642881Y-77618831D01*
X117826756Y-77726279D01*
X117836042Y-77730729D01*
X118035001Y-77806703D01*
X118044899Y-77809579D01*
X118148250Y-77830606D01*
X118162299Y-77829410D01*
X118166000Y-77819065D01*
X118166000Y-75183102D01*
X118162082Y-75169758D01*
X118147806Y-75167771D01*
X118109324Y-75173660D01*
X118099288Y-75176051D01*
X117896868Y-75242212D01*
X117887359Y-75246209D01*
X117698463Y-75344542D01*
X117689738Y-75350036D01*
X117519433Y-75477905D01*
X117511726Y-75484748D01*
X117364590Y-75638717D01*
X117358104Y-75646727D01*
X117238098Y-75822649D01*
X117233000Y-75831623D01*
X117150033Y-76010360D01*
X117103209Y-76063727D01*
X117034965Y-76083308D01*
X116966970Y-76062884D01*
X116922739Y-76013038D01*
X116867721Y-75901473D01*
X116867719Y-75901469D01*
X116865165Y-75896290D01*
X116738651Y-75726867D01*
X116611236Y-75609086D01*
X116587622Y-75587257D01*
X116587620Y-75587255D01*
X116583381Y-75583337D01*
X116451641Y-75500215D01*
X116409434Y-75473584D01*
X116409433Y-75473584D01*
X116404554Y-75470505D01*
X116208160Y-75392152D01*
X116202503Y-75391027D01*
X116202497Y-75391025D01*
X116006442Y-75352028D01*
X116006440Y-75352028D01*
X116000775Y-75350901D01*
X115995000Y-75350825D01*
X115994996Y-75350825D01*
X115888976Y-75349437D01*
X115789346Y-75348133D01*
X115783649Y-75349112D01*
X115783648Y-75349112D01*
X115586650Y-75382962D01*
X115586649Y-75382962D01*
X115580953Y-75383941D01*
X115382575Y-75457127D01*
X115377614Y-75460079D01*
X115377613Y-75460079D01*
X115331553Y-75487482D01*
X115200856Y-75565238D01*
X115041881Y-75704655D01*
X114910976Y-75870708D01*
X114908287Y-75875819D01*
X114908285Y-75875822D01*
X114858400Y-75970638D01*
X114812523Y-76057836D01*
X114749820Y-76259773D01*
X114749141Y-76265510D01*
X114735088Y-76384239D01*
X114707217Y-76449537D01*
X114648469Y-76489401D01*
X114577494Y-76491174D01*
X114516828Y-76454295D01*
X114485730Y-76390471D01*
X114484490Y-76380958D01*
X114480232Y-76334609D01*
X114476081Y-76289440D01*
X114418686Y-76085931D01*
X114409692Y-76067692D01*
X114327719Y-75901469D01*
X114325165Y-75896290D01*
X114198651Y-75726867D01*
X114071236Y-75609086D01*
X114047622Y-75587257D01*
X114047620Y-75587255D01*
X114043381Y-75583337D01*
X113911641Y-75500215D01*
X113869434Y-75473584D01*
X113869433Y-75473584D01*
X113864554Y-75470505D01*
X113668160Y-75392152D01*
X113662503Y-75391027D01*
X113662497Y-75391025D01*
X113466442Y-75352028D01*
X113466440Y-75352028D01*
X113460775Y-75350901D01*
X113455000Y-75350825D01*
X113454996Y-75350825D01*
X113348976Y-75349437D01*
X113249346Y-75348133D01*
X113243649Y-75349112D01*
X113243648Y-75349112D01*
X113046650Y-75382962D01*
X113046649Y-75382962D01*
X113040953Y-75383941D01*
X112842575Y-75457127D01*
X112837614Y-75460079D01*
X112837613Y-75460079D01*
X112791553Y-75487482D01*
X112660856Y-75565238D01*
X112501881Y-75704655D01*
X112370976Y-75870708D01*
X112368287Y-75875819D01*
X112368285Y-75875822D01*
X112318400Y-75970638D01*
X112272523Y-76057836D01*
X112209820Y-76259773D01*
X112209141Y-76265510D01*
X112195088Y-76384239D01*
X112167217Y-76449537D01*
X112108469Y-76489401D01*
X112037494Y-76491174D01*
X111976828Y-76454295D01*
X111945730Y-76390471D01*
X111944490Y-76380958D01*
X111940232Y-76334609D01*
X111936081Y-76289440D01*
X111878686Y-76085931D01*
X111869692Y-76067692D01*
X111787719Y-75901469D01*
X111785165Y-75896290D01*
X111658651Y-75726867D01*
X111531236Y-75609086D01*
X111507622Y-75587257D01*
X111507620Y-75587255D01*
X111503381Y-75583337D01*
X111371641Y-75500215D01*
X111329434Y-75473584D01*
X111329433Y-75473584D01*
X111324554Y-75470505D01*
X111128160Y-75392152D01*
X111122503Y-75391027D01*
X111122497Y-75391025D01*
X110926442Y-75352028D01*
X110926440Y-75352028D01*
X110920775Y-75350901D01*
X110915000Y-75350825D01*
X110914996Y-75350825D01*
X110808976Y-75349437D01*
X110709346Y-75348133D01*
X110703649Y-75349112D01*
X110703648Y-75349112D01*
X110506650Y-75382962D01*
X110506649Y-75382962D01*
X110500953Y-75383941D01*
X110302575Y-75457127D01*
X110297614Y-75460079D01*
X110297613Y-75460079D01*
X110251553Y-75487482D01*
X110120856Y-75565238D01*
X109961881Y-75704655D01*
X109830976Y-75870708D01*
X109828287Y-75875819D01*
X109828285Y-75875822D01*
X109778400Y-75970638D01*
X109732523Y-76057836D01*
X109669820Y-76259773D01*
X109644967Y-76469754D01*
X105300500Y-76469754D01*
X105300500Y-70037317D01*
X105302414Y-70015437D01*
X105303222Y-70010855D01*
X105305136Y-70000000D01*
X105303222Y-69989145D01*
X105303222Y-69983450D01*
X105302022Y-69965138D01*
X105302563Y-69952736D01*
X108195070Y-69952736D01*
X108195832Y-69968601D01*
X108207909Y-70220041D01*
X108260118Y-70482512D01*
X108350549Y-70734383D01*
X108352765Y-70738507D01*
X108420982Y-70865465D01*
X108477215Y-70970121D01*
X108480010Y-70973864D01*
X108480012Y-70973867D01*
X108634542Y-71180807D01*
X108637335Y-71184547D01*
X108640642Y-71187825D01*
X108640647Y-71187831D01*
X108824074Y-71369663D01*
X108827390Y-71372950D01*
X109043205Y-71531192D01*
X109047340Y-71533368D01*
X109047344Y-71533370D01*
X109176918Y-71601542D01*
X109280039Y-71655797D01*
X109284458Y-71657340D01*
X109528273Y-71742484D01*
X109528279Y-71742486D01*
X109532690Y-71744026D01*
X109795606Y-71793943D01*
X109922616Y-71798933D01*
X110058345Y-71804266D01*
X110058350Y-71804266D01*
X110063013Y-71804449D01*
X110158943Y-71793943D01*
X110324382Y-71775825D01*
X110324387Y-71775824D01*
X110329035Y-71775315D01*
X110444567Y-71744898D01*
X110583309Y-71708370D01*
X110587829Y-71707180D01*
X110712501Y-71653617D01*
X110829407Y-71603391D01*
X110829410Y-71603389D01*
X110833710Y-71601542D01*
X110837690Y-71599079D01*
X110837694Y-71599077D01*
X111057302Y-71463179D01*
X111057306Y-71463176D01*
X111061275Y-71460720D01*
X111075010Y-71449092D01*
X111261960Y-71290828D01*
X111261961Y-71290827D01*
X111265526Y-71287809D01*
X111433916Y-71095798D01*
X111438894Y-71090122D01*
X111438898Y-71090117D01*
X111441976Y-71086607D01*
X111505055Y-70988539D01*
X111584219Y-70865465D01*
X111584222Y-70865460D01*
X111586747Y-70861534D01*
X111696661Y-70617534D01*
X111769302Y-70359969D01*
X111787103Y-70220041D01*
X111802677Y-70097625D01*
X111802677Y-70097621D01*
X111803075Y-70094495D01*
X111803906Y-70062777D01*
X111805466Y-70003160D01*
X111805549Y-70000000D01*
X111802037Y-69952736D01*
X173195070Y-69952736D01*
X173195832Y-69968601D01*
X173207909Y-70220041D01*
X173260118Y-70482512D01*
X173350549Y-70734383D01*
X173352765Y-70738507D01*
X173420982Y-70865465D01*
X173477215Y-70970121D01*
X173480010Y-70973864D01*
X173480012Y-70973867D01*
X173634542Y-71180807D01*
X173637335Y-71184547D01*
X173640642Y-71187825D01*
X173640647Y-71187831D01*
X173824074Y-71369663D01*
X173827390Y-71372950D01*
X174043205Y-71531192D01*
X174047340Y-71533368D01*
X174047344Y-71533370D01*
X174176918Y-71601542D01*
X174280039Y-71655797D01*
X174284458Y-71657340D01*
X174528273Y-71742484D01*
X174528279Y-71742486D01*
X174532690Y-71744026D01*
X174795606Y-71793943D01*
X174922616Y-71798933D01*
X175058345Y-71804266D01*
X175058350Y-71804266D01*
X175063013Y-71804449D01*
X175158943Y-71793943D01*
X175324382Y-71775825D01*
X175324387Y-71775824D01*
X175329035Y-71775315D01*
X175444567Y-71744898D01*
X175583309Y-71708370D01*
X175587829Y-71707180D01*
X175712501Y-71653617D01*
X175829407Y-71603391D01*
X175829410Y-71603389D01*
X175833710Y-71601542D01*
X175837690Y-71599079D01*
X175837694Y-71599077D01*
X176057302Y-71463179D01*
X176057306Y-71463176D01*
X176061275Y-71460720D01*
X176075010Y-71449092D01*
X176261960Y-71290828D01*
X176261961Y-71290827D01*
X176265526Y-71287809D01*
X176433916Y-71095798D01*
X176438894Y-71090122D01*
X176438898Y-71090117D01*
X176441976Y-71086607D01*
X176505055Y-70988539D01*
X176584219Y-70865465D01*
X176584222Y-70865460D01*
X176586747Y-70861534D01*
X176696661Y-70617534D01*
X176769302Y-70359969D01*
X176787103Y-70220041D01*
X176802677Y-70097625D01*
X176802677Y-70097621D01*
X176803075Y-70094495D01*
X176803906Y-70062777D01*
X176805466Y-70003160D01*
X176805549Y-70000000D01*
X176789305Y-69781408D01*
X176786064Y-69737788D01*
X176786063Y-69737784D01*
X176785717Y-69733123D01*
X176775161Y-69686470D01*
X176727686Y-69476666D01*
X176726655Y-69472109D01*
X176629662Y-69222691D01*
X176615195Y-69197378D01*
X176499187Y-68994408D01*
X176496868Y-68990350D01*
X176331190Y-68780189D01*
X176136269Y-68596825D01*
X175916385Y-68444286D01*
X175912194Y-68442219D01*
X175680559Y-68327989D01*
X175680556Y-68327988D01*
X175676371Y-68325924D01*
X175421497Y-68244338D01*
X175276134Y-68220665D01*
X175161976Y-68202073D01*
X175161975Y-68202073D01*
X175157364Y-68201322D01*
X175023569Y-68199570D01*
X174894451Y-68197880D01*
X174894448Y-68197880D01*
X174889774Y-68197819D01*
X174624605Y-68233907D01*
X174620118Y-68235215D01*
X174620117Y-68235215D01*
X174588817Y-68244338D01*
X174367683Y-68308792D01*
X174363430Y-68310752D01*
X174363429Y-68310753D01*
X174311512Y-68334687D01*
X174124652Y-68420831D01*
X174120743Y-68423394D01*
X173904764Y-68564996D01*
X173904759Y-68565000D01*
X173900851Y-68567562D01*
X173701197Y-68745760D01*
X173530075Y-68951512D01*
X173391244Y-69180298D01*
X173389437Y-69184606D01*
X173389437Y-69184607D01*
X173321464Y-69346705D01*
X173287755Y-69427091D01*
X173286604Y-69431623D01*
X173286603Y-69431626D01*
X173244881Y-69595908D01*
X173221881Y-69686470D01*
X173195070Y-69952736D01*
X111802037Y-69952736D01*
X111789305Y-69781408D01*
X111786064Y-69737788D01*
X111786063Y-69737784D01*
X111785717Y-69733123D01*
X111775161Y-69686470D01*
X111727686Y-69476666D01*
X111726655Y-69472109D01*
X111629662Y-69222691D01*
X111615195Y-69197378D01*
X111499187Y-68994408D01*
X111496868Y-68990350D01*
X111331190Y-68780189D01*
X111136269Y-68596825D01*
X110916385Y-68444286D01*
X110912194Y-68442219D01*
X110680559Y-68327989D01*
X110680556Y-68327988D01*
X110676371Y-68325924D01*
X110421497Y-68244338D01*
X110276134Y-68220665D01*
X110161976Y-68202073D01*
X110161975Y-68202073D01*
X110157364Y-68201322D01*
X110023569Y-68199570D01*
X109894451Y-68197880D01*
X109894448Y-68197880D01*
X109889774Y-68197819D01*
X109624605Y-68233907D01*
X109620118Y-68235215D01*
X109620117Y-68235215D01*
X109588817Y-68244338D01*
X109367683Y-68308792D01*
X109363430Y-68310752D01*
X109363429Y-68310753D01*
X109311512Y-68334687D01*
X109124652Y-68420831D01*
X109120743Y-68423394D01*
X108904764Y-68564996D01*
X108904759Y-68565000D01*
X108900851Y-68567562D01*
X108701197Y-68745760D01*
X108530075Y-68951512D01*
X108391244Y-69180298D01*
X108389437Y-69184606D01*
X108389437Y-69184607D01*
X108321464Y-69346705D01*
X108287755Y-69427091D01*
X108286604Y-69431623D01*
X108286603Y-69431626D01*
X108244881Y-69595908D01*
X108221881Y-69686470D01*
X108195070Y-69952736D01*
X105302563Y-69952736D01*
X105318143Y-69595908D01*
X105319101Y-69584958D01*
X105371178Y-69189394D01*
X105373087Y-69178568D01*
X105459442Y-68789049D01*
X105462287Y-68778432D01*
X105568294Y-68442219D01*
X105582262Y-68397919D01*
X105586018Y-68387598D01*
X105610709Y-68327989D01*
X105738708Y-68018972D01*
X105743350Y-68009019D01*
X105927572Y-67655133D01*
X105933068Y-67645613D01*
X106147436Y-67309123D01*
X106153740Y-67300119D01*
X106396629Y-66983579D01*
X106403695Y-66975159D01*
X106673235Y-66681008D01*
X106681008Y-66673235D01*
X106975159Y-66403695D01*
X106983579Y-66396629D01*
X107300119Y-66153740D01*
X107309123Y-66147436D01*
X107645613Y-65933068D01*
X107655133Y-65927572D01*
X108009028Y-65743346D01*
X108018972Y-65738708D01*
X108387605Y-65586015D01*
X108397919Y-65582262D01*
X108603309Y-65517503D01*
X108778432Y-65462287D01*
X108789049Y-65459442D01*
X109178568Y-65373087D01*
X109189394Y-65371178D01*
X109584958Y-65319101D01*
X109595907Y-65318143D01*
X109965138Y-65302022D01*
X109983450Y-65303222D01*
X109989145Y-65303222D01*
X110000000Y-65305136D01*
X110015437Y-65302414D01*
X110037317Y-65300500D01*
X174962683Y-65300500D01*
X174984563Y-65302414D01*
G37*
%TD.AperFunction*%
%TA.AperFunction,Conductor*%
G36*
X118641121Y-84241002D02*
G01*
X118687614Y-84294658D01*
X118699000Y-84347000D01*
X118699000Y-85793517D01*
X118712784Y-85840459D01*
X118716907Y-85846878D01*
X118716895Y-85917875D01*
X118685100Y-85971451D01*
X116922675Y-87733876D01*
X116860363Y-87767902D01*
X116789548Y-87762837D01*
X116740694Y-87729603D01*
X116738651Y-87726867D01*
X116714623Y-87704655D01*
X116587622Y-87587257D01*
X116587620Y-87587255D01*
X116583381Y-87583337D01*
X116502642Y-87532394D01*
X116409434Y-87473584D01*
X116409433Y-87473584D01*
X116404554Y-87470505D01*
X116208160Y-87392152D01*
X116202496Y-87391025D01*
X116196955Y-87389384D01*
X116197534Y-87387430D01*
X116142670Y-87358721D01*
X116107547Y-87297021D01*
X116111357Y-87226126D01*
X116141079Y-87178967D01*
X117333216Y-85986830D01*
X117333219Y-85986828D01*
X117428528Y-85891519D01*
X117439421Y-85870140D01*
X117449749Y-85853287D01*
X117458021Y-85841902D01*
X117458022Y-85841900D01*
X117463849Y-85833880D01*
X117466914Y-85824448D01*
X117471264Y-85811062D01*
X117478828Y-85792801D01*
X117485217Y-85780261D01*
X117489719Y-85771425D01*
X117493472Y-85747728D01*
X117498086Y-85728509D01*
X117505500Y-85705692D01*
X117505500Y-85697063D01*
X117535605Y-85633558D01*
X117595874Y-85596031D01*
X117666863Y-85597045D01*
X117693212Y-85608634D01*
X117851756Y-85701279D01*
X117861042Y-85705729D01*
X118060001Y-85781703D01*
X118069899Y-85784579D01*
X118173250Y-85805606D01*
X118187299Y-85804410D01*
X118191000Y-85794065D01*
X118191000Y-84347000D01*
X118211002Y-84278879D01*
X118264658Y-84232386D01*
X118317000Y-84221000D01*
X118573000Y-84221000D01*
X118641121Y-84241002D01*
G37*
%TD.AperFunction*%
%TD*%
M02*
