%TF.GenerationSoftware,KiCad,Pcbnew,(6.0.9)*%
%TF.CreationDate,2023-07-24T19:50:03+10:00*%
%TF.ProjectId,Joysticks2.1,4a6f7973-7469-4636-9b73-322e312e6b69,rev?*%
%TF.SameCoordinates,PX3d09000PY568bc30*%
%TF.FileFunction,Legend,Bot*%
%TF.FilePolarity,Positive*%
%FSLAX46Y46*%
G04 Gerber Fmt 4.6, Leading zero omitted, Abs format (unit mm)*
G04 Created by KiCad (PCBNEW (6.0.9)) date 2023-07-24 19:50:03*
%MOMM*%
%LPD*%
G01*
G04 APERTURE LIST*
%ADD10C,0.150000*%
%ADD11C,0.120000*%
G04 APERTURE END LIST*
D10*
%TO.C,U6*%
X36761904Y15047620D02*
X36761904Y14238096D01*
X36714285Y14142858D01*
X36666666Y14095239D01*
X36571428Y14047620D01*
X36380952Y14047620D01*
X36285714Y14095239D01*
X36238095Y14142858D01*
X36190476Y14238096D01*
X36190476Y15047620D01*
X35285714Y15047620D02*
X35476190Y15047620D01*
X35571428Y15000000D01*
X35619047Y14952381D01*
X35714285Y14809524D01*
X35761904Y14619048D01*
X35761904Y14238096D01*
X35714285Y14142858D01*
X35666666Y14095239D01*
X35571428Y14047620D01*
X35380952Y14047620D01*
X35285714Y14095239D01*
X35238095Y14142858D01*
X35190476Y14238096D01*
X35190476Y14476191D01*
X35238095Y14571429D01*
X35285714Y14619048D01*
X35380952Y14666667D01*
X35571428Y14666667D01*
X35666666Y14619048D01*
X35714285Y14571429D01*
X35761904Y14476191D01*
D11*
X42000000Y-4250000D02*
X30000000Y-4250000D01*
X30000000Y-4250000D02*
X30000000Y13750000D01*
X30000000Y13750000D02*
X42000000Y13750000D01*
X42000000Y13750000D02*
X42000000Y-4250000D01*
%TD*%
M02*
