%TF.GenerationSoftware,KiCad,Pcbnew,(6.0.9)*%
%TF.CreationDate,2023-04-03T18:36:58+10:00*%
%TF.ProjectId,Chi Chi - GV2,43686920-4368-4692-902d-204756322e6b,rev?*%
%TF.SameCoordinates,Original*%
%TF.FileFunction,Plated,1,2,PTH,Drill*%
%TF.FilePolarity,Positive*%
%FSLAX46Y46*%
G04 Gerber Fmt 4.6, Leading zero omitted, Abs format (unit mm)*
G04 Created by KiCad (PCBNEW (6.0.9)) date 2023-04-03 18:36:58*
%MOMM*%
%LPD*%
G01*
G04 APERTURE LIST*
%TA.AperFunction,ViaDrill*%
%ADD10C,0.400000*%
%TD*%
%TA.AperFunction,ComponentDrill*%
%ADD11C,1.020000*%
%TD*%
%TA.AperFunction,ComponentDrill*%
%ADD12C,1.100000*%
%TD*%
G04 APERTURE END LIST*
D10*
X211287868Y-182787868D03*
X212712132Y-99787868D03*
X214000000Y-108200000D03*
X214000000Y-124700000D03*
X214000000Y-141200000D03*
X214000000Y-157700000D03*
X214000000Y-174200000D03*
X216000000Y-146000000D03*
X220200000Y-181000000D03*
X220800000Y-102000000D03*
X228500000Y-132500000D03*
X228500000Y-137500000D03*
X228500000Y-142500000D03*
X228500000Y-147500000D03*
X228500000Y-152500000D03*
X228500000Y-157500000D03*
X233500000Y-132500000D03*
X233500000Y-137500000D03*
X233500000Y-142500000D03*
X233500000Y-147500000D03*
X233500000Y-152500000D03*
X233500000Y-157500000D03*
X236700000Y-181000000D03*
X237300000Y-102000000D03*
X237500000Y-117000000D03*
X237500000Y-121500000D03*
X242500000Y-117000000D03*
X242500000Y-121500000D03*
X244250000Y-142537500D03*
X244268750Y-140481250D03*
X244500000Y-161500000D03*
X244500000Y-166000000D03*
X247500000Y-117000000D03*
X247500000Y-121500000D03*
X248000000Y-103599500D03*
X249500000Y-161500000D03*
X249500000Y-166000000D03*
X250500000Y-113750000D03*
X250750000Y-139250000D03*
X251750000Y-117000000D03*
X251750000Y-121500000D03*
X251750000Y-139250000D03*
X252250000Y-141250000D03*
X253200000Y-181000000D03*
X253422884Y-141271210D03*
X253800000Y-102000000D03*
X254500000Y-161500000D03*
X254500000Y-166000000D03*
X255000000Y-141250000D03*
X255500000Y-139250000D03*
X256750000Y-113750000D03*
X257500000Y-117000000D03*
X257500000Y-121500000D03*
X257500000Y-178250000D03*
X259082458Y-140230638D03*
X259500000Y-161500000D03*
X259500000Y-166000000D03*
X259992377Y-139817052D03*
X260000000Y-137750000D03*
X260000000Y-141363000D03*
X260075871Y-138821043D03*
X262393750Y-142401361D03*
X262500000Y-117000000D03*
X262500000Y-121500000D03*
X263465272Y-144628782D03*
X263817018Y-142087500D03*
X264137300Y-143887300D03*
X264500000Y-161500000D03*
X264500000Y-166000000D03*
X264898737Y-143125861D03*
X265640245Y-142455658D03*
X266000000Y-161500000D03*
X266000000Y-163500000D03*
X266293738Y-141699383D03*
X266984246Y-140976747D03*
X267708746Y-140250000D03*
X268444947Y-139503417D03*
X269169447Y-138750000D03*
X269500000Y-161500000D03*
X269500000Y-166000000D03*
X269700000Y-181000000D03*
X270300000Y-102000000D03*
X273500000Y-125500000D03*
X273500000Y-130500000D03*
X273500000Y-135500000D03*
X273500000Y-145500000D03*
X273500000Y-150500000D03*
X273750000Y-140500000D03*
X278000000Y-125500000D03*
X278000000Y-130500000D03*
X278000000Y-135250000D03*
X278000000Y-140500000D03*
X278000000Y-145500000D03*
X278000000Y-150500000D03*
X286200000Y-181000000D03*
X286800000Y-102000000D03*
X291000000Y-137750000D03*
X293000000Y-108800000D03*
X293000000Y-125300000D03*
X293000000Y-141800000D03*
X293000000Y-158300000D03*
X293000000Y-174500000D03*
X294712132Y-100712132D03*
X294787868Y-183212132D03*
D11*
%TO.C,J1*%
X250960000Y-150960000D03*
X250960000Y-153500000D03*
X253500000Y-150960000D03*
X253500000Y-153500000D03*
X256040000Y-150960000D03*
X256040000Y-153500000D03*
D12*
%TO.C,Q1*%
X250960000Y-132250000D03*
X253500000Y-132250000D03*
X256040000Y-132250000D03*
M02*
