%TF.GenerationSoftware,KiCad,Pcbnew,7.0.8*%
%TF.CreationDate,2023-11-12T08:49:20+11:00*%
%TF.ProjectId,Line 4.3,4c696e65-2034-42e3-932e-6b696361645f,rev?*%
%TF.SameCoordinates,Original*%
%TF.FileFunction,Paste,Bot*%
%TF.FilePolarity,Positive*%
%FSLAX46Y46*%
G04 Gerber Fmt 4.6, Leading zero omitted, Abs format (unit mm)*
G04 Created by KiCad (PCBNEW 7.0.8) date 2023-11-12 08:49:20*
%MOMM*%
%LPD*%
G01*
G04 APERTURE LIST*
G04 Aperture macros list*
%AMRoundRect*
0 Rectangle with rounded corners*
0 $1 Rounding radius*
0 $2 $3 $4 $5 $6 $7 $8 $9 X,Y pos of 4 corners*
0 Add a 4 corners polygon primitive as box body*
4,1,4,$2,$3,$4,$5,$6,$7,$8,$9,$2,$3,0*
0 Add four circle primitives for the rounded corners*
1,1,$1+$1,$2,$3*
1,1,$1+$1,$4,$5*
1,1,$1+$1,$6,$7*
1,1,$1+$1,$8,$9*
0 Add four rect primitives between the rounded corners*
20,1,$1+$1,$2,$3,$4,$5,0*
20,1,$1+$1,$4,$5,$6,$7,0*
20,1,$1+$1,$6,$7,$8,$9,0*
20,1,$1+$1,$8,$9,$2,$3,0*%
%AMRotRect*
0 Rectangle, with rotation*
0 The origin of the aperture is its center*
0 $1 length*
0 $2 width*
0 $3 Rotation angle, in degrees counterclockwise*
0 Add horizontal line*
21,1,$1,$2,0,0,$3*%
G04 Aperture macros list end*
%ADD10C,0.010000*%
%ADD11RotRect,0.350000X1.400000X7.500000*%
%ADD12RotRect,2.257400X2.108200X285.000000*%
%ADD13RotRect,1.190600X2.108200X285.000000*%
%ADD14R,1.200000X1.200000*%
%ADD15RotRect,0.350000X1.400000X307.500000*%
%ADD16RotRect,1.200000X1.200000X120.000000*%
%ADD17RotRect,0.800000X0.800000X345.000000*%
%ADD18R,2.257400X2.108200*%
%ADD19R,1.190600X2.108200*%
%ADD20RoundRect,0.250000X0.475000X-0.250000X0.475000X0.250000X-0.475000X0.250000X-0.475000X-0.250000X0*%
%ADD21RotRect,1.200000X1.200000X165.000000*%
%ADD22RoundRect,0.250000X-0.250000X-0.475000X0.250000X-0.475000X0.250000X0.475000X-0.250000X0.475000X0*%
%ADD23RotRect,2.257400X2.108200X60.000000*%
%ADD24RotRect,1.190600X2.108200X60.000000*%
%ADD25RotRect,2.257400X2.108200X330.000000*%
%ADD26RotRect,1.190600X2.108200X330.000000*%
%ADD27RotRect,1.200000X1.200000X285.000000*%
%ADD28RotRect,1.200000X1.200000X210.000000*%
%ADD29RotRect,1.200000X1.200000X105.000000*%
%ADD30RotRect,0.800000X0.800000X15.000000*%
%ADD31RotRect,2.257400X2.108200X210.000000*%
%ADD32RotRect,1.190600X2.108200X210.000000*%
%ADD33R,0.800000X0.800000*%
%ADD34RotRect,2.257400X2.108200X300.000000*%
%ADD35RotRect,1.190600X2.108200X300.000000*%
%ADD36RotRect,1.200000X1.200000X150.000000*%
%ADD37RotRect,1.200000X1.200000X15.000000*%
%ADD38RotRect,1.200000X1.200000X195.000000*%
%ADD39RoundRect,0.250000X-0.475000X0.250000X-0.475000X-0.250000X0.475000X-0.250000X0.475000X0.250000X0*%
%ADD40RotRect,1.200000X1.200000X30.000000*%
%ADD41RotRect,2.257400X2.108200X30.000000*%
%ADD42RotRect,1.190600X2.108200X30.000000*%
%ADD43RotRect,0.800000X0.800000X150.000000*%
%ADD44RotRect,1.200000X1.200000X225.000000*%
%ADD45RotRect,0.800000X0.800000X120.000000*%
%ADD46RotRect,2.257400X2.108200X165.000000*%
%ADD47RotRect,1.190600X2.108200X165.000000*%
%ADD48RotRect,0.800000X0.800000X195.000000*%
%ADD49RotRect,1.200000X1.200000X60.000000*%
%ADD50RotRect,1.200000X1.200000X315.000000*%
%ADD51RotRect,2.257400X2.108200X150.000000*%
%ADD52RotRect,1.190600X2.108200X150.000000*%
%ADD53RotRect,0.800000X0.800000X60.000000*%
%ADD54RotRect,2.257400X2.108200X345.000000*%
%ADD55RotRect,1.190600X2.108200X345.000000*%
%ADD56RotRect,2.257400X2.108200X15.000000*%
%ADD57RotRect,1.190600X2.108200X15.000000*%
%ADD58RotRect,0.350000X1.400000X247.500000*%
%ADD59RotRect,1.200000X1.200000X345.000000*%
%ADD60RotRect,1.200000X1.200000X300.000000*%
%ADD61RotRect,2.257400X2.108200X105.000000*%
%ADD62RotRect,1.190600X2.108200X105.000000*%
%ADD63RotRect,0.800000X0.800000X330.000000*%
%ADD64RotRect,1.200000X1.200000X75.000000*%
%ADD65RotRect,2.257400X2.108200X225.000000*%
%ADD66RotRect,1.190600X2.108200X225.000000*%
%ADD67RotRect,0.800000X0.800000X135.000000*%
%ADD68RotRect,0.800000X0.800000X315.000000*%
%ADD69RotRect,2.257400X2.108200X75.000000*%
%ADD70RotRect,1.190600X2.108200X75.000000*%
%ADD71O,1.800000X1.100000*%
%ADD72O,1.450000X1.050000*%
%ADD73RoundRect,0.450000X0.300000X-0.300000X0.300000X0.300000X-0.300000X0.300000X-0.300000X-0.300000X0*%
%ADD74RotRect,2.257400X2.108200X240.000000*%
%ADD75RotRect,1.190600X2.108200X240.000000*%
%ADD76RotRect,0.350000X1.400000X127.500000*%
%ADD77RotRect,0.800000X0.800000X240.000000*%
%ADD78RotRect,1.200000X1.200000X240.000000*%
%ADD79RotRect,1.200000X1.200000X330.000000*%
%ADD80RotRect,2.257400X2.108200X255.000000*%
%ADD81RotRect,1.190600X2.108200X255.000000*%
%ADD82R,2.108200X2.257400*%
%ADD83R,2.108200X1.190600*%
%ADD84RotRect,1.200000X1.200000X255.000000*%
%ADD85RotRect,0.800000X0.800000X30.000000*%
%ADD86R,1.124991X0.370002*%
%ADD87R,1.099998X0.250012*%
%ADD88R,0.434992X0.250012*%
%ADD89R,0.484994X0.250010*%
%ADD90R,0.484992X0.250010*%
%ADD91R,1.099998X2.050008*%
%ADD92R,1.099996X2.050008*%
%ADD93R,0.434992X0.250010*%
%ADD94R,0.434994X0.250010*%
%ADD95R,0.434994X0.325006*%
%ADD96R,0.250000X0.800000*%
%ADD97R,0.299999X1.520012*%
%ADD98RotRect,1.200000X1.200000X45.000000*%
%ADD99RotRect,1.200000X1.200000X135.000000*%
%ADD100RotRect,0.800000X0.800000X75.000000*%
%ADD101RotRect,0.800000X0.800000X300.000000*%
%ADD102RotRect,0.800000X0.800000X255.000000*%
%ADD103RotRect,0.800000X0.800000X210.000000*%
%ADD104RotRect,0.350000X1.400000X187.500000*%
%ADD105RotRect,2.257400X2.108200X120.000000*%
%ADD106RotRect,1.190600X2.108200X120.000000*%
%ADD107RotRect,0.800000X0.800000X285.000000*%
%ADD108RotRect,2.257400X2.108200X195.000000*%
%ADD109RotRect,1.190600X2.108200X195.000000*%
%ADD110RotRect,0.350000X1.400000X67.500000*%
%ADD111RotRect,2.257400X2.108200X315.000000*%
%ADD112RotRect,1.190600X2.108200X315.000000*%
%ADD113RotRect,0.800000X0.800000X225.000000*%
%ADD114RotRect,2.257400X2.108200X45.000000*%
%ADD115RotRect,1.190600X2.108200X45.000000*%
%ADD116RotRect,0.800000X0.800000X45.000000*%
%ADD117RoundRect,0.140000X-0.140000X-0.170000X0.140000X-0.170000X0.140000X0.170000X-0.140000X0.170000X0*%
%ADD118RotRect,2.257400X2.108200X135.000000*%
%ADD119RotRect,1.190600X2.108200X135.000000*%
%ADD120RotRect,0.800000X0.800000X105.000000*%
%ADD121RotRect,0.800000X0.800000X165.000000*%
G04 APERTURE END LIST*
%TO.C,U7*%
D10*
X125912000Y-158091000D02*
X125954000Y-158094000D01*
X125995000Y-158100000D01*
X126036000Y-158107000D01*
X126077000Y-158117000D01*
X126117000Y-158129000D01*
X126157000Y-158143000D01*
X126195000Y-158159000D01*
X126233000Y-158177000D01*
X126270000Y-158197000D01*
X126306000Y-158219000D01*
X126340000Y-158243000D01*
X126373000Y-158268000D01*
X126405000Y-158295000D01*
X126436000Y-158324000D01*
X126465000Y-158355000D01*
X126492000Y-158387000D01*
X126517000Y-158420000D01*
X126541000Y-158454000D01*
X126563000Y-158490000D01*
X126583000Y-158527000D01*
X126601000Y-158565000D01*
X126617000Y-158603000D01*
X126631000Y-158643000D01*
X126643000Y-158683000D01*
X126653000Y-158724000D01*
X126660000Y-158765000D01*
X126666000Y-158806000D01*
X126669000Y-158848000D01*
X126670000Y-158890000D01*
X126670000Y-161290000D01*
X125070000Y-161290000D01*
X125070000Y-158890000D01*
X125071000Y-158848000D01*
X125074000Y-158806000D01*
X125080000Y-158765000D01*
X125087000Y-158724000D01*
X125097000Y-158683000D01*
X125109000Y-158643000D01*
X125123000Y-158603000D01*
X125139000Y-158565000D01*
X125157000Y-158527000D01*
X125177000Y-158490000D01*
X125199000Y-158454000D01*
X125223000Y-158420000D01*
X125248000Y-158387000D01*
X125275000Y-158355000D01*
X125304000Y-158324000D01*
X125335000Y-158295000D01*
X125367000Y-158268000D01*
X125400000Y-158243000D01*
X125434000Y-158219000D01*
X125470000Y-158197000D01*
X125507000Y-158177000D01*
X125545000Y-158159000D01*
X125583000Y-158143000D01*
X125623000Y-158129000D01*
X125663000Y-158117000D01*
X125704000Y-158107000D01*
X125745000Y-158100000D01*
X125786000Y-158094000D01*
X125828000Y-158091000D01*
X125870000Y-158090000D01*
X125912000Y-158091000D01*
G36*
X125912000Y-158091000D02*
G01*
X125954000Y-158094000D01*
X125995000Y-158100000D01*
X126036000Y-158107000D01*
X126077000Y-158117000D01*
X126117000Y-158129000D01*
X126157000Y-158143000D01*
X126195000Y-158159000D01*
X126233000Y-158177000D01*
X126270000Y-158197000D01*
X126306000Y-158219000D01*
X126340000Y-158243000D01*
X126373000Y-158268000D01*
X126405000Y-158295000D01*
X126436000Y-158324000D01*
X126465000Y-158355000D01*
X126492000Y-158387000D01*
X126517000Y-158420000D01*
X126541000Y-158454000D01*
X126563000Y-158490000D01*
X126583000Y-158527000D01*
X126601000Y-158565000D01*
X126617000Y-158603000D01*
X126631000Y-158643000D01*
X126643000Y-158683000D01*
X126653000Y-158724000D01*
X126660000Y-158765000D01*
X126666000Y-158806000D01*
X126669000Y-158848000D01*
X126670000Y-158890000D01*
X126670000Y-161290000D01*
X125070000Y-161290000D01*
X125070000Y-158890000D01*
X125071000Y-158848000D01*
X125074000Y-158806000D01*
X125080000Y-158765000D01*
X125087000Y-158724000D01*
X125097000Y-158683000D01*
X125109000Y-158643000D01*
X125123000Y-158603000D01*
X125139000Y-158565000D01*
X125157000Y-158527000D01*
X125177000Y-158490000D01*
X125199000Y-158454000D01*
X125223000Y-158420000D01*
X125248000Y-158387000D01*
X125275000Y-158355000D01*
X125304000Y-158324000D01*
X125335000Y-158295000D01*
X125367000Y-158268000D01*
X125400000Y-158243000D01*
X125434000Y-158219000D01*
X125470000Y-158197000D01*
X125507000Y-158177000D01*
X125545000Y-158159000D01*
X125583000Y-158143000D01*
X125623000Y-158129000D01*
X125663000Y-158117000D01*
X125704000Y-158107000D01*
X125745000Y-158100000D01*
X125786000Y-158094000D01*
X125828000Y-158091000D01*
X125870000Y-158090000D01*
X125912000Y-158091000D01*
G37*
X128452000Y-158091000D02*
X128494000Y-158094000D01*
X128535000Y-158100000D01*
X128576000Y-158107000D01*
X128617000Y-158117000D01*
X128657000Y-158129000D01*
X128697000Y-158143000D01*
X128735000Y-158159000D01*
X128773000Y-158177000D01*
X128810000Y-158197000D01*
X128846000Y-158219000D01*
X128880000Y-158243000D01*
X128913000Y-158268000D01*
X128945000Y-158295000D01*
X128976000Y-158324000D01*
X129005000Y-158355000D01*
X129032000Y-158387000D01*
X129057000Y-158420000D01*
X129081000Y-158454000D01*
X129103000Y-158490000D01*
X129123000Y-158527000D01*
X129141000Y-158565000D01*
X129157000Y-158603000D01*
X129171000Y-158643000D01*
X129183000Y-158683000D01*
X129193000Y-158724000D01*
X129200000Y-158765000D01*
X129206000Y-158806000D01*
X129209000Y-158848000D01*
X129210000Y-158890000D01*
X129210000Y-161290000D01*
X127610000Y-161290000D01*
X127610000Y-158890000D01*
X127611000Y-158848000D01*
X127614000Y-158806000D01*
X127620000Y-158765000D01*
X127627000Y-158724000D01*
X127637000Y-158683000D01*
X127649000Y-158643000D01*
X127663000Y-158603000D01*
X127679000Y-158565000D01*
X127697000Y-158527000D01*
X127717000Y-158490000D01*
X127739000Y-158454000D01*
X127763000Y-158420000D01*
X127788000Y-158387000D01*
X127815000Y-158355000D01*
X127844000Y-158324000D01*
X127875000Y-158295000D01*
X127907000Y-158268000D01*
X127940000Y-158243000D01*
X127974000Y-158219000D01*
X128010000Y-158197000D01*
X128047000Y-158177000D01*
X128085000Y-158159000D01*
X128123000Y-158143000D01*
X128163000Y-158129000D01*
X128203000Y-158117000D01*
X128244000Y-158107000D01*
X128285000Y-158100000D01*
X128326000Y-158094000D01*
X128368000Y-158091000D01*
X128410000Y-158090000D01*
X128452000Y-158091000D01*
G36*
X128452000Y-158091000D02*
G01*
X128494000Y-158094000D01*
X128535000Y-158100000D01*
X128576000Y-158107000D01*
X128617000Y-158117000D01*
X128657000Y-158129000D01*
X128697000Y-158143000D01*
X128735000Y-158159000D01*
X128773000Y-158177000D01*
X128810000Y-158197000D01*
X128846000Y-158219000D01*
X128880000Y-158243000D01*
X128913000Y-158268000D01*
X128945000Y-158295000D01*
X128976000Y-158324000D01*
X129005000Y-158355000D01*
X129032000Y-158387000D01*
X129057000Y-158420000D01*
X129081000Y-158454000D01*
X129103000Y-158490000D01*
X129123000Y-158527000D01*
X129141000Y-158565000D01*
X129157000Y-158603000D01*
X129171000Y-158643000D01*
X129183000Y-158683000D01*
X129193000Y-158724000D01*
X129200000Y-158765000D01*
X129206000Y-158806000D01*
X129209000Y-158848000D01*
X129210000Y-158890000D01*
X129210000Y-161290000D01*
X127610000Y-161290000D01*
X127610000Y-158890000D01*
X127611000Y-158848000D01*
X127614000Y-158806000D01*
X127620000Y-158765000D01*
X127627000Y-158724000D01*
X127637000Y-158683000D01*
X127649000Y-158643000D01*
X127663000Y-158603000D01*
X127679000Y-158565000D01*
X127697000Y-158527000D01*
X127717000Y-158490000D01*
X127739000Y-158454000D01*
X127763000Y-158420000D01*
X127788000Y-158387000D01*
X127815000Y-158355000D01*
X127844000Y-158324000D01*
X127875000Y-158295000D01*
X127907000Y-158268000D01*
X127940000Y-158243000D01*
X127974000Y-158219000D01*
X128010000Y-158197000D01*
X128047000Y-158177000D01*
X128085000Y-158159000D01*
X128123000Y-158143000D01*
X128163000Y-158129000D01*
X128203000Y-158117000D01*
X128244000Y-158107000D01*
X128285000Y-158100000D01*
X128326000Y-158094000D01*
X128368000Y-158091000D01*
X128410000Y-158090000D01*
X128452000Y-158091000D01*
G37*
X133532000Y-158091000D02*
X133574000Y-158094000D01*
X133615000Y-158100000D01*
X133656000Y-158107000D01*
X133697000Y-158117000D01*
X133737000Y-158129000D01*
X133777000Y-158143000D01*
X133815000Y-158159000D01*
X133853000Y-158177000D01*
X133890000Y-158197000D01*
X133926000Y-158219000D01*
X133960000Y-158243000D01*
X133993000Y-158268000D01*
X134025000Y-158295000D01*
X134056000Y-158324000D01*
X134085000Y-158355000D01*
X134112000Y-158387000D01*
X134137000Y-158420000D01*
X134161000Y-158454000D01*
X134183000Y-158490000D01*
X134203000Y-158527000D01*
X134221000Y-158565000D01*
X134237000Y-158603000D01*
X134251000Y-158643000D01*
X134263000Y-158683000D01*
X134273000Y-158724000D01*
X134280000Y-158765000D01*
X134286000Y-158806000D01*
X134289000Y-158848000D01*
X134290000Y-158890000D01*
X134290000Y-161290000D01*
X132690000Y-161290000D01*
X132690000Y-158890000D01*
X132691000Y-158848000D01*
X132694000Y-158806000D01*
X132700000Y-158765000D01*
X132707000Y-158724000D01*
X132717000Y-158683000D01*
X132729000Y-158643000D01*
X132743000Y-158603000D01*
X132759000Y-158565000D01*
X132777000Y-158527000D01*
X132797000Y-158490000D01*
X132819000Y-158454000D01*
X132843000Y-158420000D01*
X132868000Y-158387000D01*
X132895000Y-158355000D01*
X132924000Y-158324000D01*
X132955000Y-158295000D01*
X132987000Y-158268000D01*
X133020000Y-158243000D01*
X133054000Y-158219000D01*
X133090000Y-158197000D01*
X133127000Y-158177000D01*
X133165000Y-158159000D01*
X133203000Y-158143000D01*
X133243000Y-158129000D01*
X133283000Y-158117000D01*
X133324000Y-158107000D01*
X133365000Y-158100000D01*
X133406000Y-158094000D01*
X133448000Y-158091000D01*
X133490000Y-158090000D01*
X133532000Y-158091000D01*
G36*
X133532000Y-158091000D02*
G01*
X133574000Y-158094000D01*
X133615000Y-158100000D01*
X133656000Y-158107000D01*
X133697000Y-158117000D01*
X133737000Y-158129000D01*
X133777000Y-158143000D01*
X133815000Y-158159000D01*
X133853000Y-158177000D01*
X133890000Y-158197000D01*
X133926000Y-158219000D01*
X133960000Y-158243000D01*
X133993000Y-158268000D01*
X134025000Y-158295000D01*
X134056000Y-158324000D01*
X134085000Y-158355000D01*
X134112000Y-158387000D01*
X134137000Y-158420000D01*
X134161000Y-158454000D01*
X134183000Y-158490000D01*
X134203000Y-158527000D01*
X134221000Y-158565000D01*
X134237000Y-158603000D01*
X134251000Y-158643000D01*
X134263000Y-158683000D01*
X134273000Y-158724000D01*
X134280000Y-158765000D01*
X134286000Y-158806000D01*
X134289000Y-158848000D01*
X134290000Y-158890000D01*
X134290000Y-161290000D01*
X132690000Y-161290000D01*
X132690000Y-158890000D01*
X132691000Y-158848000D01*
X132694000Y-158806000D01*
X132700000Y-158765000D01*
X132707000Y-158724000D01*
X132717000Y-158683000D01*
X132729000Y-158643000D01*
X132743000Y-158603000D01*
X132759000Y-158565000D01*
X132777000Y-158527000D01*
X132797000Y-158490000D01*
X132819000Y-158454000D01*
X132843000Y-158420000D01*
X132868000Y-158387000D01*
X132895000Y-158355000D01*
X132924000Y-158324000D01*
X132955000Y-158295000D01*
X132987000Y-158268000D01*
X133020000Y-158243000D01*
X133054000Y-158219000D01*
X133090000Y-158197000D01*
X133127000Y-158177000D01*
X133165000Y-158159000D01*
X133203000Y-158143000D01*
X133243000Y-158129000D01*
X133283000Y-158117000D01*
X133324000Y-158107000D01*
X133365000Y-158100000D01*
X133406000Y-158094000D01*
X133448000Y-158091000D01*
X133490000Y-158090000D01*
X133532000Y-158091000D01*
G37*
X136072000Y-158091000D02*
X136114000Y-158094000D01*
X136155000Y-158100000D01*
X136196000Y-158107000D01*
X136237000Y-158117000D01*
X136277000Y-158129000D01*
X136317000Y-158143000D01*
X136355000Y-158159000D01*
X136393000Y-158177000D01*
X136430000Y-158197000D01*
X136466000Y-158219000D01*
X136500000Y-158243000D01*
X136533000Y-158268000D01*
X136565000Y-158295000D01*
X136596000Y-158324000D01*
X136625000Y-158355000D01*
X136652000Y-158387000D01*
X136677000Y-158420000D01*
X136701000Y-158454000D01*
X136723000Y-158490000D01*
X136743000Y-158527000D01*
X136761000Y-158565000D01*
X136777000Y-158603000D01*
X136791000Y-158643000D01*
X136803000Y-158683000D01*
X136813000Y-158724000D01*
X136820000Y-158765000D01*
X136826000Y-158806000D01*
X136829000Y-158848000D01*
X136830000Y-158890000D01*
X136830000Y-161290000D01*
X135230000Y-161290000D01*
X135230000Y-158890000D01*
X135231000Y-158848000D01*
X135234000Y-158806000D01*
X135240000Y-158765000D01*
X135247000Y-158724000D01*
X135257000Y-158683000D01*
X135269000Y-158643000D01*
X135283000Y-158603000D01*
X135299000Y-158565000D01*
X135317000Y-158527000D01*
X135337000Y-158490000D01*
X135359000Y-158454000D01*
X135383000Y-158420000D01*
X135408000Y-158387000D01*
X135435000Y-158355000D01*
X135464000Y-158324000D01*
X135495000Y-158295000D01*
X135527000Y-158268000D01*
X135560000Y-158243000D01*
X135594000Y-158219000D01*
X135630000Y-158197000D01*
X135667000Y-158177000D01*
X135705000Y-158159000D01*
X135743000Y-158143000D01*
X135783000Y-158129000D01*
X135823000Y-158117000D01*
X135864000Y-158107000D01*
X135905000Y-158100000D01*
X135946000Y-158094000D01*
X135988000Y-158091000D01*
X136030000Y-158090000D01*
X136072000Y-158091000D01*
G36*
X136072000Y-158091000D02*
G01*
X136114000Y-158094000D01*
X136155000Y-158100000D01*
X136196000Y-158107000D01*
X136237000Y-158117000D01*
X136277000Y-158129000D01*
X136317000Y-158143000D01*
X136355000Y-158159000D01*
X136393000Y-158177000D01*
X136430000Y-158197000D01*
X136466000Y-158219000D01*
X136500000Y-158243000D01*
X136533000Y-158268000D01*
X136565000Y-158295000D01*
X136596000Y-158324000D01*
X136625000Y-158355000D01*
X136652000Y-158387000D01*
X136677000Y-158420000D01*
X136701000Y-158454000D01*
X136723000Y-158490000D01*
X136743000Y-158527000D01*
X136761000Y-158565000D01*
X136777000Y-158603000D01*
X136791000Y-158643000D01*
X136803000Y-158683000D01*
X136813000Y-158724000D01*
X136820000Y-158765000D01*
X136826000Y-158806000D01*
X136829000Y-158848000D01*
X136830000Y-158890000D01*
X136830000Y-161290000D01*
X135230000Y-161290000D01*
X135230000Y-158890000D01*
X135231000Y-158848000D01*
X135234000Y-158806000D01*
X135240000Y-158765000D01*
X135247000Y-158724000D01*
X135257000Y-158683000D01*
X135269000Y-158643000D01*
X135283000Y-158603000D01*
X135299000Y-158565000D01*
X135317000Y-158527000D01*
X135337000Y-158490000D01*
X135359000Y-158454000D01*
X135383000Y-158420000D01*
X135408000Y-158387000D01*
X135435000Y-158355000D01*
X135464000Y-158324000D01*
X135495000Y-158295000D01*
X135527000Y-158268000D01*
X135560000Y-158243000D01*
X135594000Y-158219000D01*
X135630000Y-158197000D01*
X135667000Y-158177000D01*
X135705000Y-158159000D01*
X135743000Y-158143000D01*
X135783000Y-158129000D01*
X135823000Y-158117000D01*
X135864000Y-158107000D01*
X135905000Y-158100000D01*
X135946000Y-158094000D01*
X135988000Y-158091000D01*
X136030000Y-158090000D01*
X136072000Y-158091000D01*
G37*
X138612000Y-158091000D02*
X138654000Y-158094000D01*
X138695000Y-158100000D01*
X138736000Y-158107000D01*
X138777000Y-158117000D01*
X138817000Y-158129000D01*
X138857000Y-158143000D01*
X138895000Y-158159000D01*
X138933000Y-158177000D01*
X138970000Y-158197000D01*
X139006000Y-158219000D01*
X139040000Y-158243000D01*
X139073000Y-158268000D01*
X139105000Y-158295000D01*
X139136000Y-158324000D01*
X139165000Y-158355000D01*
X139192000Y-158387000D01*
X139217000Y-158420000D01*
X139241000Y-158454000D01*
X139263000Y-158490000D01*
X139283000Y-158527000D01*
X139301000Y-158565000D01*
X139317000Y-158603000D01*
X139331000Y-158643000D01*
X139343000Y-158683000D01*
X139353000Y-158724000D01*
X139360000Y-158765000D01*
X139366000Y-158806000D01*
X139369000Y-158848000D01*
X139370000Y-158890000D01*
X139370000Y-161290000D01*
X137770000Y-161290000D01*
X137770000Y-158890000D01*
X137771000Y-158848000D01*
X137774000Y-158806000D01*
X137780000Y-158765000D01*
X137787000Y-158724000D01*
X137797000Y-158683000D01*
X137809000Y-158643000D01*
X137823000Y-158603000D01*
X137839000Y-158565000D01*
X137857000Y-158527000D01*
X137877000Y-158490000D01*
X137899000Y-158454000D01*
X137923000Y-158420000D01*
X137948000Y-158387000D01*
X137975000Y-158355000D01*
X138004000Y-158324000D01*
X138035000Y-158295000D01*
X138067000Y-158268000D01*
X138100000Y-158243000D01*
X138134000Y-158219000D01*
X138170000Y-158197000D01*
X138207000Y-158177000D01*
X138245000Y-158159000D01*
X138283000Y-158143000D01*
X138323000Y-158129000D01*
X138363000Y-158117000D01*
X138404000Y-158107000D01*
X138445000Y-158100000D01*
X138486000Y-158094000D01*
X138528000Y-158091000D01*
X138570000Y-158090000D01*
X138612000Y-158091000D01*
G36*
X138612000Y-158091000D02*
G01*
X138654000Y-158094000D01*
X138695000Y-158100000D01*
X138736000Y-158107000D01*
X138777000Y-158117000D01*
X138817000Y-158129000D01*
X138857000Y-158143000D01*
X138895000Y-158159000D01*
X138933000Y-158177000D01*
X138970000Y-158197000D01*
X139006000Y-158219000D01*
X139040000Y-158243000D01*
X139073000Y-158268000D01*
X139105000Y-158295000D01*
X139136000Y-158324000D01*
X139165000Y-158355000D01*
X139192000Y-158387000D01*
X139217000Y-158420000D01*
X139241000Y-158454000D01*
X139263000Y-158490000D01*
X139283000Y-158527000D01*
X139301000Y-158565000D01*
X139317000Y-158603000D01*
X139331000Y-158643000D01*
X139343000Y-158683000D01*
X139353000Y-158724000D01*
X139360000Y-158765000D01*
X139366000Y-158806000D01*
X139369000Y-158848000D01*
X139370000Y-158890000D01*
X139370000Y-161290000D01*
X137770000Y-161290000D01*
X137770000Y-158890000D01*
X137771000Y-158848000D01*
X137774000Y-158806000D01*
X137780000Y-158765000D01*
X137787000Y-158724000D01*
X137797000Y-158683000D01*
X137809000Y-158643000D01*
X137823000Y-158603000D01*
X137839000Y-158565000D01*
X137857000Y-158527000D01*
X137877000Y-158490000D01*
X137899000Y-158454000D01*
X137923000Y-158420000D01*
X137948000Y-158387000D01*
X137975000Y-158355000D01*
X138004000Y-158324000D01*
X138035000Y-158295000D01*
X138067000Y-158268000D01*
X138100000Y-158243000D01*
X138134000Y-158219000D01*
X138170000Y-158197000D01*
X138207000Y-158177000D01*
X138245000Y-158159000D01*
X138283000Y-158143000D01*
X138323000Y-158129000D01*
X138363000Y-158117000D01*
X138404000Y-158107000D01*
X138445000Y-158100000D01*
X138486000Y-158094000D01*
X138528000Y-158091000D01*
X138570000Y-158090000D01*
X138612000Y-158091000D01*
G37*
X141152000Y-158091000D02*
X141194000Y-158094000D01*
X141235000Y-158100000D01*
X141276000Y-158107000D01*
X141317000Y-158117000D01*
X141357000Y-158129000D01*
X141397000Y-158143000D01*
X141435000Y-158159000D01*
X141473000Y-158177000D01*
X141510000Y-158197000D01*
X141546000Y-158219000D01*
X141580000Y-158243000D01*
X141613000Y-158268000D01*
X141645000Y-158295000D01*
X141676000Y-158324000D01*
X141705000Y-158355000D01*
X141732000Y-158387000D01*
X141757000Y-158420000D01*
X141781000Y-158454000D01*
X141803000Y-158490000D01*
X141823000Y-158527000D01*
X141841000Y-158565000D01*
X141857000Y-158603000D01*
X141871000Y-158643000D01*
X141883000Y-158683000D01*
X141893000Y-158724000D01*
X141900000Y-158765000D01*
X141906000Y-158806000D01*
X141909000Y-158848000D01*
X141910000Y-158890000D01*
X141910000Y-161290000D01*
X140310000Y-161290000D01*
X140310000Y-158890000D01*
X140311000Y-158848000D01*
X140314000Y-158806000D01*
X140320000Y-158765000D01*
X140327000Y-158724000D01*
X140337000Y-158683000D01*
X140349000Y-158643000D01*
X140363000Y-158603000D01*
X140379000Y-158565000D01*
X140397000Y-158527000D01*
X140417000Y-158490000D01*
X140439000Y-158454000D01*
X140463000Y-158420000D01*
X140488000Y-158387000D01*
X140515000Y-158355000D01*
X140544000Y-158324000D01*
X140575000Y-158295000D01*
X140607000Y-158268000D01*
X140640000Y-158243000D01*
X140674000Y-158219000D01*
X140710000Y-158197000D01*
X140747000Y-158177000D01*
X140785000Y-158159000D01*
X140823000Y-158143000D01*
X140863000Y-158129000D01*
X140903000Y-158117000D01*
X140944000Y-158107000D01*
X140985000Y-158100000D01*
X141026000Y-158094000D01*
X141068000Y-158091000D01*
X141110000Y-158090000D01*
X141152000Y-158091000D01*
G36*
X141152000Y-158091000D02*
G01*
X141194000Y-158094000D01*
X141235000Y-158100000D01*
X141276000Y-158107000D01*
X141317000Y-158117000D01*
X141357000Y-158129000D01*
X141397000Y-158143000D01*
X141435000Y-158159000D01*
X141473000Y-158177000D01*
X141510000Y-158197000D01*
X141546000Y-158219000D01*
X141580000Y-158243000D01*
X141613000Y-158268000D01*
X141645000Y-158295000D01*
X141676000Y-158324000D01*
X141705000Y-158355000D01*
X141732000Y-158387000D01*
X141757000Y-158420000D01*
X141781000Y-158454000D01*
X141803000Y-158490000D01*
X141823000Y-158527000D01*
X141841000Y-158565000D01*
X141857000Y-158603000D01*
X141871000Y-158643000D01*
X141883000Y-158683000D01*
X141893000Y-158724000D01*
X141900000Y-158765000D01*
X141906000Y-158806000D01*
X141909000Y-158848000D01*
X141910000Y-158890000D01*
X141910000Y-161290000D01*
X140310000Y-161290000D01*
X140310000Y-158890000D01*
X140311000Y-158848000D01*
X140314000Y-158806000D01*
X140320000Y-158765000D01*
X140327000Y-158724000D01*
X140337000Y-158683000D01*
X140349000Y-158643000D01*
X140363000Y-158603000D01*
X140379000Y-158565000D01*
X140397000Y-158527000D01*
X140417000Y-158490000D01*
X140439000Y-158454000D01*
X140463000Y-158420000D01*
X140488000Y-158387000D01*
X140515000Y-158355000D01*
X140544000Y-158324000D01*
X140575000Y-158295000D01*
X140607000Y-158268000D01*
X140640000Y-158243000D01*
X140674000Y-158219000D01*
X140710000Y-158197000D01*
X140747000Y-158177000D01*
X140785000Y-158159000D01*
X140823000Y-158143000D01*
X140863000Y-158129000D01*
X140903000Y-158117000D01*
X140944000Y-158107000D01*
X140985000Y-158100000D01*
X141026000Y-158094000D01*
X141068000Y-158091000D01*
X141110000Y-158090000D01*
X141152000Y-158091000D01*
G37*
X146232000Y-158091000D02*
X146274000Y-158094000D01*
X146315000Y-158100000D01*
X146356000Y-158107000D01*
X146397000Y-158117000D01*
X146437000Y-158129000D01*
X146477000Y-158143000D01*
X146515000Y-158159000D01*
X146553000Y-158177000D01*
X146590000Y-158197000D01*
X146626000Y-158219000D01*
X146660000Y-158243000D01*
X146693000Y-158268000D01*
X146725000Y-158295000D01*
X146756000Y-158324000D01*
X146785000Y-158355000D01*
X146812000Y-158387000D01*
X146837000Y-158420000D01*
X146861000Y-158454000D01*
X146883000Y-158490000D01*
X146903000Y-158527000D01*
X146921000Y-158565000D01*
X146937000Y-158603000D01*
X146951000Y-158643000D01*
X146963000Y-158683000D01*
X146973000Y-158724000D01*
X146980000Y-158765000D01*
X146986000Y-158806000D01*
X146989000Y-158848000D01*
X146990000Y-158890000D01*
X146990000Y-161290000D01*
X145390000Y-161290000D01*
X145390000Y-158890000D01*
X145391000Y-158848000D01*
X145394000Y-158806000D01*
X145400000Y-158765000D01*
X145407000Y-158724000D01*
X145417000Y-158683000D01*
X145429000Y-158643000D01*
X145443000Y-158603000D01*
X145459000Y-158565000D01*
X145477000Y-158527000D01*
X145497000Y-158490000D01*
X145519000Y-158454000D01*
X145543000Y-158420000D01*
X145568000Y-158387000D01*
X145595000Y-158355000D01*
X145624000Y-158324000D01*
X145655000Y-158295000D01*
X145687000Y-158268000D01*
X145720000Y-158243000D01*
X145754000Y-158219000D01*
X145790000Y-158197000D01*
X145827000Y-158177000D01*
X145865000Y-158159000D01*
X145903000Y-158143000D01*
X145943000Y-158129000D01*
X145983000Y-158117000D01*
X146024000Y-158107000D01*
X146065000Y-158100000D01*
X146106000Y-158094000D01*
X146148000Y-158091000D01*
X146190000Y-158090000D01*
X146232000Y-158091000D01*
G36*
X146232000Y-158091000D02*
G01*
X146274000Y-158094000D01*
X146315000Y-158100000D01*
X146356000Y-158107000D01*
X146397000Y-158117000D01*
X146437000Y-158129000D01*
X146477000Y-158143000D01*
X146515000Y-158159000D01*
X146553000Y-158177000D01*
X146590000Y-158197000D01*
X146626000Y-158219000D01*
X146660000Y-158243000D01*
X146693000Y-158268000D01*
X146725000Y-158295000D01*
X146756000Y-158324000D01*
X146785000Y-158355000D01*
X146812000Y-158387000D01*
X146837000Y-158420000D01*
X146861000Y-158454000D01*
X146883000Y-158490000D01*
X146903000Y-158527000D01*
X146921000Y-158565000D01*
X146937000Y-158603000D01*
X146951000Y-158643000D01*
X146963000Y-158683000D01*
X146973000Y-158724000D01*
X146980000Y-158765000D01*
X146986000Y-158806000D01*
X146989000Y-158848000D01*
X146990000Y-158890000D01*
X146990000Y-161290000D01*
X145390000Y-161290000D01*
X145390000Y-158890000D01*
X145391000Y-158848000D01*
X145394000Y-158806000D01*
X145400000Y-158765000D01*
X145407000Y-158724000D01*
X145417000Y-158683000D01*
X145429000Y-158643000D01*
X145443000Y-158603000D01*
X145459000Y-158565000D01*
X145477000Y-158527000D01*
X145497000Y-158490000D01*
X145519000Y-158454000D01*
X145543000Y-158420000D01*
X145568000Y-158387000D01*
X145595000Y-158355000D01*
X145624000Y-158324000D01*
X145655000Y-158295000D01*
X145687000Y-158268000D01*
X145720000Y-158243000D01*
X145754000Y-158219000D01*
X145790000Y-158197000D01*
X145827000Y-158177000D01*
X145865000Y-158159000D01*
X145903000Y-158143000D01*
X145943000Y-158129000D01*
X145983000Y-158117000D01*
X146024000Y-158107000D01*
X146065000Y-158100000D01*
X146106000Y-158094000D01*
X146148000Y-158091000D01*
X146190000Y-158090000D01*
X146232000Y-158091000D01*
G37*
X148772000Y-158091000D02*
X148814000Y-158094000D01*
X148855000Y-158100000D01*
X148896000Y-158107000D01*
X148937000Y-158117000D01*
X148977000Y-158129000D01*
X149017000Y-158143000D01*
X149055000Y-158159000D01*
X149093000Y-158177000D01*
X149130000Y-158197000D01*
X149166000Y-158219000D01*
X149200000Y-158243000D01*
X149233000Y-158268000D01*
X149265000Y-158295000D01*
X149296000Y-158324000D01*
X149325000Y-158355000D01*
X149352000Y-158387000D01*
X149377000Y-158420000D01*
X149401000Y-158454000D01*
X149423000Y-158490000D01*
X149443000Y-158527000D01*
X149461000Y-158565000D01*
X149477000Y-158603000D01*
X149491000Y-158643000D01*
X149503000Y-158683000D01*
X149513000Y-158724000D01*
X149520000Y-158765000D01*
X149526000Y-158806000D01*
X149529000Y-158848000D01*
X149530000Y-158890000D01*
X149530000Y-161290000D01*
X147930000Y-161290000D01*
X147930000Y-158890000D01*
X147931000Y-158848000D01*
X147934000Y-158806000D01*
X147940000Y-158765000D01*
X147947000Y-158724000D01*
X147957000Y-158683000D01*
X147969000Y-158643000D01*
X147983000Y-158603000D01*
X147999000Y-158565000D01*
X148017000Y-158527000D01*
X148037000Y-158490000D01*
X148059000Y-158454000D01*
X148083000Y-158420000D01*
X148108000Y-158387000D01*
X148135000Y-158355000D01*
X148164000Y-158324000D01*
X148195000Y-158295000D01*
X148227000Y-158268000D01*
X148260000Y-158243000D01*
X148294000Y-158219000D01*
X148330000Y-158197000D01*
X148367000Y-158177000D01*
X148405000Y-158159000D01*
X148443000Y-158143000D01*
X148483000Y-158129000D01*
X148523000Y-158117000D01*
X148564000Y-158107000D01*
X148605000Y-158100000D01*
X148646000Y-158094000D01*
X148688000Y-158091000D01*
X148730000Y-158090000D01*
X148772000Y-158091000D01*
G36*
X148772000Y-158091000D02*
G01*
X148814000Y-158094000D01*
X148855000Y-158100000D01*
X148896000Y-158107000D01*
X148937000Y-158117000D01*
X148977000Y-158129000D01*
X149017000Y-158143000D01*
X149055000Y-158159000D01*
X149093000Y-158177000D01*
X149130000Y-158197000D01*
X149166000Y-158219000D01*
X149200000Y-158243000D01*
X149233000Y-158268000D01*
X149265000Y-158295000D01*
X149296000Y-158324000D01*
X149325000Y-158355000D01*
X149352000Y-158387000D01*
X149377000Y-158420000D01*
X149401000Y-158454000D01*
X149423000Y-158490000D01*
X149443000Y-158527000D01*
X149461000Y-158565000D01*
X149477000Y-158603000D01*
X149491000Y-158643000D01*
X149503000Y-158683000D01*
X149513000Y-158724000D01*
X149520000Y-158765000D01*
X149526000Y-158806000D01*
X149529000Y-158848000D01*
X149530000Y-158890000D01*
X149530000Y-161290000D01*
X147930000Y-161290000D01*
X147930000Y-158890000D01*
X147931000Y-158848000D01*
X147934000Y-158806000D01*
X147940000Y-158765000D01*
X147947000Y-158724000D01*
X147957000Y-158683000D01*
X147969000Y-158643000D01*
X147983000Y-158603000D01*
X147999000Y-158565000D01*
X148017000Y-158527000D01*
X148037000Y-158490000D01*
X148059000Y-158454000D01*
X148083000Y-158420000D01*
X148108000Y-158387000D01*
X148135000Y-158355000D01*
X148164000Y-158324000D01*
X148195000Y-158295000D01*
X148227000Y-158268000D01*
X148260000Y-158243000D01*
X148294000Y-158219000D01*
X148330000Y-158197000D01*
X148367000Y-158177000D01*
X148405000Y-158159000D01*
X148443000Y-158143000D01*
X148483000Y-158129000D01*
X148523000Y-158117000D01*
X148564000Y-158107000D01*
X148605000Y-158100000D01*
X148646000Y-158094000D01*
X148688000Y-158091000D01*
X148730000Y-158090000D01*
X148772000Y-158091000D01*
G37*
X151312000Y-158091000D02*
X151354000Y-158094000D01*
X151395000Y-158100000D01*
X151436000Y-158107000D01*
X151477000Y-158117000D01*
X151517000Y-158129000D01*
X151557000Y-158143000D01*
X151595000Y-158159000D01*
X151633000Y-158177000D01*
X151670000Y-158197000D01*
X151706000Y-158219000D01*
X151740000Y-158243000D01*
X151773000Y-158268000D01*
X151805000Y-158295000D01*
X151836000Y-158324000D01*
X151865000Y-158355000D01*
X151892000Y-158387000D01*
X151917000Y-158420000D01*
X151941000Y-158454000D01*
X151963000Y-158490000D01*
X151983000Y-158527000D01*
X152001000Y-158565000D01*
X152017000Y-158603000D01*
X152031000Y-158643000D01*
X152043000Y-158683000D01*
X152053000Y-158724000D01*
X152060000Y-158765000D01*
X152066000Y-158806000D01*
X152069000Y-158848000D01*
X152070000Y-158890000D01*
X152070000Y-161290000D01*
X150470000Y-161290000D01*
X150470000Y-158890000D01*
X150471000Y-158848000D01*
X150474000Y-158806000D01*
X150480000Y-158765000D01*
X150487000Y-158724000D01*
X150497000Y-158683000D01*
X150509000Y-158643000D01*
X150523000Y-158603000D01*
X150539000Y-158565000D01*
X150557000Y-158527000D01*
X150577000Y-158490000D01*
X150599000Y-158454000D01*
X150623000Y-158420000D01*
X150648000Y-158387000D01*
X150675000Y-158355000D01*
X150704000Y-158324000D01*
X150735000Y-158295000D01*
X150767000Y-158268000D01*
X150800000Y-158243000D01*
X150834000Y-158219000D01*
X150870000Y-158197000D01*
X150907000Y-158177000D01*
X150945000Y-158159000D01*
X150983000Y-158143000D01*
X151023000Y-158129000D01*
X151063000Y-158117000D01*
X151104000Y-158107000D01*
X151145000Y-158100000D01*
X151186000Y-158094000D01*
X151228000Y-158091000D01*
X151270000Y-158090000D01*
X151312000Y-158091000D01*
G36*
X151312000Y-158091000D02*
G01*
X151354000Y-158094000D01*
X151395000Y-158100000D01*
X151436000Y-158107000D01*
X151477000Y-158117000D01*
X151517000Y-158129000D01*
X151557000Y-158143000D01*
X151595000Y-158159000D01*
X151633000Y-158177000D01*
X151670000Y-158197000D01*
X151706000Y-158219000D01*
X151740000Y-158243000D01*
X151773000Y-158268000D01*
X151805000Y-158295000D01*
X151836000Y-158324000D01*
X151865000Y-158355000D01*
X151892000Y-158387000D01*
X151917000Y-158420000D01*
X151941000Y-158454000D01*
X151963000Y-158490000D01*
X151983000Y-158527000D01*
X152001000Y-158565000D01*
X152017000Y-158603000D01*
X152031000Y-158643000D01*
X152043000Y-158683000D01*
X152053000Y-158724000D01*
X152060000Y-158765000D01*
X152066000Y-158806000D01*
X152069000Y-158848000D01*
X152070000Y-158890000D01*
X152070000Y-161290000D01*
X150470000Y-161290000D01*
X150470000Y-158890000D01*
X150471000Y-158848000D01*
X150474000Y-158806000D01*
X150480000Y-158765000D01*
X150487000Y-158724000D01*
X150497000Y-158683000D01*
X150509000Y-158643000D01*
X150523000Y-158603000D01*
X150539000Y-158565000D01*
X150557000Y-158527000D01*
X150577000Y-158490000D01*
X150599000Y-158454000D01*
X150623000Y-158420000D01*
X150648000Y-158387000D01*
X150675000Y-158355000D01*
X150704000Y-158324000D01*
X150735000Y-158295000D01*
X150767000Y-158268000D01*
X150800000Y-158243000D01*
X150834000Y-158219000D01*
X150870000Y-158197000D01*
X150907000Y-158177000D01*
X150945000Y-158159000D01*
X150983000Y-158143000D01*
X151023000Y-158129000D01*
X151063000Y-158117000D01*
X151104000Y-158107000D01*
X151145000Y-158100000D01*
X151186000Y-158094000D01*
X151228000Y-158091000D01*
X151270000Y-158090000D01*
X151312000Y-158091000D01*
G37*
X153852000Y-158091000D02*
X153894000Y-158094000D01*
X153935000Y-158100000D01*
X153976000Y-158107000D01*
X154017000Y-158117000D01*
X154057000Y-158129000D01*
X154097000Y-158143000D01*
X154135000Y-158159000D01*
X154173000Y-158177000D01*
X154210000Y-158197000D01*
X154246000Y-158219000D01*
X154280000Y-158243000D01*
X154313000Y-158268000D01*
X154345000Y-158295000D01*
X154376000Y-158324000D01*
X154405000Y-158355000D01*
X154432000Y-158387000D01*
X154457000Y-158420000D01*
X154481000Y-158454000D01*
X154503000Y-158490000D01*
X154523000Y-158527000D01*
X154541000Y-158565000D01*
X154557000Y-158603000D01*
X154571000Y-158643000D01*
X154583000Y-158683000D01*
X154593000Y-158724000D01*
X154600000Y-158765000D01*
X154606000Y-158806000D01*
X154609000Y-158848000D01*
X154610000Y-158890000D01*
X154610000Y-161290000D01*
X153010000Y-161290000D01*
X153010000Y-158890000D01*
X153011000Y-158848000D01*
X153014000Y-158806000D01*
X153020000Y-158765000D01*
X153027000Y-158724000D01*
X153037000Y-158683000D01*
X153049000Y-158643000D01*
X153063000Y-158603000D01*
X153079000Y-158565000D01*
X153097000Y-158527000D01*
X153117000Y-158490000D01*
X153139000Y-158454000D01*
X153163000Y-158420000D01*
X153188000Y-158387000D01*
X153215000Y-158355000D01*
X153244000Y-158324000D01*
X153275000Y-158295000D01*
X153307000Y-158268000D01*
X153340000Y-158243000D01*
X153374000Y-158219000D01*
X153410000Y-158197000D01*
X153447000Y-158177000D01*
X153485000Y-158159000D01*
X153523000Y-158143000D01*
X153563000Y-158129000D01*
X153603000Y-158117000D01*
X153644000Y-158107000D01*
X153685000Y-158100000D01*
X153726000Y-158094000D01*
X153768000Y-158091000D01*
X153810000Y-158090000D01*
X153852000Y-158091000D01*
G36*
X153852000Y-158091000D02*
G01*
X153894000Y-158094000D01*
X153935000Y-158100000D01*
X153976000Y-158107000D01*
X154017000Y-158117000D01*
X154057000Y-158129000D01*
X154097000Y-158143000D01*
X154135000Y-158159000D01*
X154173000Y-158177000D01*
X154210000Y-158197000D01*
X154246000Y-158219000D01*
X154280000Y-158243000D01*
X154313000Y-158268000D01*
X154345000Y-158295000D01*
X154376000Y-158324000D01*
X154405000Y-158355000D01*
X154432000Y-158387000D01*
X154457000Y-158420000D01*
X154481000Y-158454000D01*
X154503000Y-158490000D01*
X154523000Y-158527000D01*
X154541000Y-158565000D01*
X154557000Y-158603000D01*
X154571000Y-158643000D01*
X154583000Y-158683000D01*
X154593000Y-158724000D01*
X154600000Y-158765000D01*
X154606000Y-158806000D01*
X154609000Y-158848000D01*
X154610000Y-158890000D01*
X154610000Y-161290000D01*
X153010000Y-161290000D01*
X153010000Y-158890000D01*
X153011000Y-158848000D01*
X153014000Y-158806000D01*
X153020000Y-158765000D01*
X153027000Y-158724000D01*
X153037000Y-158683000D01*
X153049000Y-158643000D01*
X153063000Y-158603000D01*
X153079000Y-158565000D01*
X153097000Y-158527000D01*
X153117000Y-158490000D01*
X153139000Y-158454000D01*
X153163000Y-158420000D01*
X153188000Y-158387000D01*
X153215000Y-158355000D01*
X153244000Y-158324000D01*
X153275000Y-158295000D01*
X153307000Y-158268000D01*
X153340000Y-158243000D01*
X153374000Y-158219000D01*
X153410000Y-158197000D01*
X153447000Y-158177000D01*
X153485000Y-158159000D01*
X153523000Y-158143000D01*
X153563000Y-158129000D01*
X153603000Y-158117000D01*
X153644000Y-158107000D01*
X153685000Y-158100000D01*
X153726000Y-158094000D01*
X153768000Y-158091000D01*
X153810000Y-158090000D01*
X153852000Y-158091000D01*
G37*
X158932000Y-158091000D02*
X158974000Y-158094000D01*
X159015000Y-158100000D01*
X159056000Y-158107000D01*
X159097000Y-158117000D01*
X159137000Y-158129000D01*
X159177000Y-158143000D01*
X159215000Y-158159000D01*
X159253000Y-158177000D01*
X159290000Y-158197000D01*
X159326000Y-158219000D01*
X159360000Y-158243000D01*
X159393000Y-158268000D01*
X159425000Y-158295000D01*
X159456000Y-158324000D01*
X159485000Y-158355000D01*
X159512000Y-158387000D01*
X159537000Y-158420000D01*
X159561000Y-158454000D01*
X159583000Y-158490000D01*
X159603000Y-158527000D01*
X159621000Y-158565000D01*
X159637000Y-158603000D01*
X159651000Y-158643000D01*
X159663000Y-158683000D01*
X159673000Y-158724000D01*
X159680000Y-158765000D01*
X159686000Y-158806000D01*
X159689000Y-158848000D01*
X159690000Y-158890000D01*
X159690000Y-161290000D01*
X158090000Y-161290000D01*
X158090000Y-158890000D01*
X158091000Y-158848000D01*
X158094000Y-158806000D01*
X158100000Y-158765000D01*
X158107000Y-158724000D01*
X158117000Y-158683000D01*
X158129000Y-158643000D01*
X158143000Y-158603000D01*
X158159000Y-158565000D01*
X158177000Y-158527000D01*
X158197000Y-158490000D01*
X158219000Y-158454000D01*
X158243000Y-158420000D01*
X158268000Y-158387000D01*
X158295000Y-158355000D01*
X158324000Y-158324000D01*
X158355000Y-158295000D01*
X158387000Y-158268000D01*
X158420000Y-158243000D01*
X158454000Y-158219000D01*
X158490000Y-158197000D01*
X158527000Y-158177000D01*
X158565000Y-158159000D01*
X158603000Y-158143000D01*
X158643000Y-158129000D01*
X158683000Y-158117000D01*
X158724000Y-158107000D01*
X158765000Y-158100000D01*
X158806000Y-158094000D01*
X158848000Y-158091000D01*
X158890000Y-158090000D01*
X158932000Y-158091000D01*
G36*
X158932000Y-158091000D02*
G01*
X158974000Y-158094000D01*
X159015000Y-158100000D01*
X159056000Y-158107000D01*
X159097000Y-158117000D01*
X159137000Y-158129000D01*
X159177000Y-158143000D01*
X159215000Y-158159000D01*
X159253000Y-158177000D01*
X159290000Y-158197000D01*
X159326000Y-158219000D01*
X159360000Y-158243000D01*
X159393000Y-158268000D01*
X159425000Y-158295000D01*
X159456000Y-158324000D01*
X159485000Y-158355000D01*
X159512000Y-158387000D01*
X159537000Y-158420000D01*
X159561000Y-158454000D01*
X159583000Y-158490000D01*
X159603000Y-158527000D01*
X159621000Y-158565000D01*
X159637000Y-158603000D01*
X159651000Y-158643000D01*
X159663000Y-158683000D01*
X159673000Y-158724000D01*
X159680000Y-158765000D01*
X159686000Y-158806000D01*
X159689000Y-158848000D01*
X159690000Y-158890000D01*
X159690000Y-161290000D01*
X158090000Y-161290000D01*
X158090000Y-158890000D01*
X158091000Y-158848000D01*
X158094000Y-158806000D01*
X158100000Y-158765000D01*
X158107000Y-158724000D01*
X158117000Y-158683000D01*
X158129000Y-158643000D01*
X158143000Y-158603000D01*
X158159000Y-158565000D01*
X158177000Y-158527000D01*
X158197000Y-158490000D01*
X158219000Y-158454000D01*
X158243000Y-158420000D01*
X158268000Y-158387000D01*
X158295000Y-158355000D01*
X158324000Y-158324000D01*
X158355000Y-158295000D01*
X158387000Y-158268000D01*
X158420000Y-158243000D01*
X158454000Y-158219000D01*
X158490000Y-158197000D01*
X158527000Y-158177000D01*
X158565000Y-158159000D01*
X158603000Y-158143000D01*
X158643000Y-158129000D01*
X158683000Y-158117000D01*
X158724000Y-158107000D01*
X158765000Y-158100000D01*
X158806000Y-158094000D01*
X158848000Y-158091000D01*
X158890000Y-158090000D01*
X158932000Y-158091000D01*
G37*
X161472000Y-158091000D02*
X161514000Y-158094000D01*
X161555000Y-158100000D01*
X161596000Y-158107000D01*
X161637000Y-158117000D01*
X161677000Y-158129000D01*
X161717000Y-158143000D01*
X161755000Y-158159000D01*
X161793000Y-158177000D01*
X161830000Y-158197000D01*
X161866000Y-158219000D01*
X161900000Y-158243000D01*
X161933000Y-158268000D01*
X161965000Y-158295000D01*
X161996000Y-158324000D01*
X162025000Y-158355000D01*
X162052000Y-158387000D01*
X162077000Y-158420000D01*
X162101000Y-158454000D01*
X162123000Y-158490000D01*
X162143000Y-158527000D01*
X162161000Y-158565000D01*
X162177000Y-158603000D01*
X162191000Y-158643000D01*
X162203000Y-158683000D01*
X162213000Y-158724000D01*
X162220000Y-158765000D01*
X162226000Y-158806000D01*
X162229000Y-158848000D01*
X162230000Y-158890000D01*
X162230000Y-161290000D01*
X160630000Y-161290000D01*
X160630000Y-158890000D01*
X160631000Y-158848000D01*
X160634000Y-158806000D01*
X160640000Y-158765000D01*
X160647000Y-158724000D01*
X160657000Y-158683000D01*
X160669000Y-158643000D01*
X160683000Y-158603000D01*
X160699000Y-158565000D01*
X160717000Y-158527000D01*
X160737000Y-158490000D01*
X160759000Y-158454000D01*
X160783000Y-158420000D01*
X160808000Y-158387000D01*
X160835000Y-158355000D01*
X160864000Y-158324000D01*
X160895000Y-158295000D01*
X160927000Y-158268000D01*
X160960000Y-158243000D01*
X160994000Y-158219000D01*
X161030000Y-158197000D01*
X161067000Y-158177000D01*
X161105000Y-158159000D01*
X161143000Y-158143000D01*
X161183000Y-158129000D01*
X161223000Y-158117000D01*
X161264000Y-158107000D01*
X161305000Y-158100000D01*
X161346000Y-158094000D01*
X161388000Y-158091000D01*
X161430000Y-158090000D01*
X161472000Y-158091000D01*
G36*
X161472000Y-158091000D02*
G01*
X161514000Y-158094000D01*
X161555000Y-158100000D01*
X161596000Y-158107000D01*
X161637000Y-158117000D01*
X161677000Y-158129000D01*
X161717000Y-158143000D01*
X161755000Y-158159000D01*
X161793000Y-158177000D01*
X161830000Y-158197000D01*
X161866000Y-158219000D01*
X161900000Y-158243000D01*
X161933000Y-158268000D01*
X161965000Y-158295000D01*
X161996000Y-158324000D01*
X162025000Y-158355000D01*
X162052000Y-158387000D01*
X162077000Y-158420000D01*
X162101000Y-158454000D01*
X162123000Y-158490000D01*
X162143000Y-158527000D01*
X162161000Y-158565000D01*
X162177000Y-158603000D01*
X162191000Y-158643000D01*
X162203000Y-158683000D01*
X162213000Y-158724000D01*
X162220000Y-158765000D01*
X162226000Y-158806000D01*
X162229000Y-158848000D01*
X162230000Y-158890000D01*
X162230000Y-161290000D01*
X160630000Y-161290000D01*
X160630000Y-158890000D01*
X160631000Y-158848000D01*
X160634000Y-158806000D01*
X160640000Y-158765000D01*
X160647000Y-158724000D01*
X160657000Y-158683000D01*
X160669000Y-158643000D01*
X160683000Y-158603000D01*
X160699000Y-158565000D01*
X160717000Y-158527000D01*
X160737000Y-158490000D01*
X160759000Y-158454000D01*
X160783000Y-158420000D01*
X160808000Y-158387000D01*
X160835000Y-158355000D01*
X160864000Y-158324000D01*
X160895000Y-158295000D01*
X160927000Y-158268000D01*
X160960000Y-158243000D01*
X160994000Y-158219000D01*
X161030000Y-158197000D01*
X161067000Y-158177000D01*
X161105000Y-158159000D01*
X161143000Y-158143000D01*
X161183000Y-158129000D01*
X161223000Y-158117000D01*
X161264000Y-158107000D01*
X161305000Y-158100000D01*
X161346000Y-158094000D01*
X161388000Y-158091000D01*
X161430000Y-158090000D01*
X161472000Y-158091000D01*
G37*
X164012000Y-158091000D02*
X164054000Y-158094000D01*
X164095000Y-158100000D01*
X164136000Y-158107000D01*
X164177000Y-158117000D01*
X164217000Y-158129000D01*
X164257000Y-158143000D01*
X164295000Y-158159000D01*
X164333000Y-158177000D01*
X164370000Y-158197000D01*
X164406000Y-158219000D01*
X164440000Y-158243000D01*
X164473000Y-158268000D01*
X164505000Y-158295000D01*
X164536000Y-158324000D01*
X164565000Y-158355000D01*
X164592000Y-158387000D01*
X164617000Y-158420000D01*
X164641000Y-158454000D01*
X164663000Y-158490000D01*
X164683000Y-158527000D01*
X164701000Y-158565000D01*
X164717000Y-158603000D01*
X164731000Y-158643000D01*
X164743000Y-158683000D01*
X164753000Y-158724000D01*
X164760000Y-158765000D01*
X164766000Y-158806000D01*
X164769000Y-158848000D01*
X164770000Y-158890000D01*
X164770000Y-161290000D01*
X163170000Y-161290000D01*
X163170000Y-158890000D01*
X163171000Y-158848000D01*
X163174000Y-158806000D01*
X163180000Y-158765000D01*
X163187000Y-158724000D01*
X163197000Y-158683000D01*
X163209000Y-158643000D01*
X163223000Y-158603000D01*
X163239000Y-158565000D01*
X163257000Y-158527000D01*
X163277000Y-158490000D01*
X163299000Y-158454000D01*
X163323000Y-158420000D01*
X163348000Y-158387000D01*
X163375000Y-158355000D01*
X163404000Y-158324000D01*
X163435000Y-158295000D01*
X163467000Y-158268000D01*
X163500000Y-158243000D01*
X163534000Y-158219000D01*
X163570000Y-158197000D01*
X163607000Y-158177000D01*
X163645000Y-158159000D01*
X163683000Y-158143000D01*
X163723000Y-158129000D01*
X163763000Y-158117000D01*
X163804000Y-158107000D01*
X163845000Y-158100000D01*
X163886000Y-158094000D01*
X163928000Y-158091000D01*
X163970000Y-158090000D01*
X164012000Y-158091000D01*
G36*
X164012000Y-158091000D02*
G01*
X164054000Y-158094000D01*
X164095000Y-158100000D01*
X164136000Y-158107000D01*
X164177000Y-158117000D01*
X164217000Y-158129000D01*
X164257000Y-158143000D01*
X164295000Y-158159000D01*
X164333000Y-158177000D01*
X164370000Y-158197000D01*
X164406000Y-158219000D01*
X164440000Y-158243000D01*
X164473000Y-158268000D01*
X164505000Y-158295000D01*
X164536000Y-158324000D01*
X164565000Y-158355000D01*
X164592000Y-158387000D01*
X164617000Y-158420000D01*
X164641000Y-158454000D01*
X164663000Y-158490000D01*
X164683000Y-158527000D01*
X164701000Y-158565000D01*
X164717000Y-158603000D01*
X164731000Y-158643000D01*
X164743000Y-158683000D01*
X164753000Y-158724000D01*
X164760000Y-158765000D01*
X164766000Y-158806000D01*
X164769000Y-158848000D01*
X164770000Y-158890000D01*
X164770000Y-161290000D01*
X163170000Y-161290000D01*
X163170000Y-158890000D01*
X163171000Y-158848000D01*
X163174000Y-158806000D01*
X163180000Y-158765000D01*
X163187000Y-158724000D01*
X163197000Y-158683000D01*
X163209000Y-158643000D01*
X163223000Y-158603000D01*
X163239000Y-158565000D01*
X163257000Y-158527000D01*
X163277000Y-158490000D01*
X163299000Y-158454000D01*
X163323000Y-158420000D01*
X163348000Y-158387000D01*
X163375000Y-158355000D01*
X163404000Y-158324000D01*
X163435000Y-158295000D01*
X163467000Y-158268000D01*
X163500000Y-158243000D01*
X163534000Y-158219000D01*
X163570000Y-158197000D01*
X163607000Y-158177000D01*
X163645000Y-158159000D01*
X163683000Y-158143000D01*
X163723000Y-158129000D01*
X163763000Y-158117000D01*
X163804000Y-158107000D01*
X163845000Y-158100000D01*
X163886000Y-158094000D01*
X163928000Y-158091000D01*
X163970000Y-158090000D01*
X164012000Y-158091000D01*
G37*
X166552000Y-158091000D02*
X166594000Y-158094000D01*
X166635000Y-158100000D01*
X166676000Y-158107000D01*
X166717000Y-158117000D01*
X166757000Y-158129000D01*
X166797000Y-158143000D01*
X166835000Y-158159000D01*
X166873000Y-158177000D01*
X166910000Y-158197000D01*
X166946000Y-158219000D01*
X166980000Y-158243000D01*
X167013000Y-158268000D01*
X167045000Y-158295000D01*
X167076000Y-158324000D01*
X167105000Y-158355000D01*
X167132000Y-158387000D01*
X167157000Y-158420000D01*
X167181000Y-158454000D01*
X167203000Y-158490000D01*
X167223000Y-158527000D01*
X167241000Y-158565000D01*
X167257000Y-158603000D01*
X167271000Y-158643000D01*
X167283000Y-158683000D01*
X167293000Y-158724000D01*
X167300000Y-158765000D01*
X167306000Y-158806000D01*
X167309000Y-158848000D01*
X167310000Y-158890000D01*
X167310000Y-161290000D01*
X165710000Y-161290000D01*
X165710000Y-158890000D01*
X165711000Y-158848000D01*
X165714000Y-158806000D01*
X165720000Y-158765000D01*
X165727000Y-158724000D01*
X165737000Y-158683000D01*
X165749000Y-158643000D01*
X165763000Y-158603000D01*
X165779000Y-158565000D01*
X165797000Y-158527000D01*
X165817000Y-158490000D01*
X165839000Y-158454000D01*
X165863000Y-158420000D01*
X165888000Y-158387000D01*
X165915000Y-158355000D01*
X165944000Y-158324000D01*
X165975000Y-158295000D01*
X166007000Y-158268000D01*
X166040000Y-158243000D01*
X166074000Y-158219000D01*
X166110000Y-158197000D01*
X166147000Y-158177000D01*
X166185000Y-158159000D01*
X166223000Y-158143000D01*
X166263000Y-158129000D01*
X166303000Y-158117000D01*
X166344000Y-158107000D01*
X166385000Y-158100000D01*
X166426000Y-158094000D01*
X166468000Y-158091000D01*
X166510000Y-158090000D01*
X166552000Y-158091000D01*
G36*
X166552000Y-158091000D02*
G01*
X166594000Y-158094000D01*
X166635000Y-158100000D01*
X166676000Y-158107000D01*
X166717000Y-158117000D01*
X166757000Y-158129000D01*
X166797000Y-158143000D01*
X166835000Y-158159000D01*
X166873000Y-158177000D01*
X166910000Y-158197000D01*
X166946000Y-158219000D01*
X166980000Y-158243000D01*
X167013000Y-158268000D01*
X167045000Y-158295000D01*
X167076000Y-158324000D01*
X167105000Y-158355000D01*
X167132000Y-158387000D01*
X167157000Y-158420000D01*
X167181000Y-158454000D01*
X167203000Y-158490000D01*
X167223000Y-158527000D01*
X167241000Y-158565000D01*
X167257000Y-158603000D01*
X167271000Y-158643000D01*
X167283000Y-158683000D01*
X167293000Y-158724000D01*
X167300000Y-158765000D01*
X167306000Y-158806000D01*
X167309000Y-158848000D01*
X167310000Y-158890000D01*
X167310000Y-161290000D01*
X165710000Y-161290000D01*
X165710000Y-158890000D01*
X165711000Y-158848000D01*
X165714000Y-158806000D01*
X165720000Y-158765000D01*
X165727000Y-158724000D01*
X165737000Y-158683000D01*
X165749000Y-158643000D01*
X165763000Y-158603000D01*
X165779000Y-158565000D01*
X165797000Y-158527000D01*
X165817000Y-158490000D01*
X165839000Y-158454000D01*
X165863000Y-158420000D01*
X165888000Y-158387000D01*
X165915000Y-158355000D01*
X165944000Y-158324000D01*
X165975000Y-158295000D01*
X166007000Y-158268000D01*
X166040000Y-158243000D01*
X166074000Y-158219000D01*
X166110000Y-158197000D01*
X166147000Y-158177000D01*
X166185000Y-158159000D01*
X166223000Y-158143000D01*
X166263000Y-158129000D01*
X166303000Y-158117000D01*
X166344000Y-158107000D01*
X166385000Y-158100000D01*
X166426000Y-158094000D01*
X166468000Y-158091000D01*
X166510000Y-158090000D01*
X166552000Y-158091000D01*
G37*
X171632000Y-158091000D02*
X171674000Y-158094000D01*
X171715000Y-158100000D01*
X171756000Y-158107000D01*
X171797000Y-158117000D01*
X171837000Y-158129000D01*
X171877000Y-158143000D01*
X171915000Y-158159000D01*
X171953000Y-158177000D01*
X171990000Y-158197000D01*
X172026000Y-158219000D01*
X172060000Y-158243000D01*
X172093000Y-158268000D01*
X172125000Y-158295000D01*
X172156000Y-158324000D01*
X172185000Y-158355000D01*
X172212000Y-158387000D01*
X172237000Y-158420000D01*
X172261000Y-158454000D01*
X172283000Y-158490000D01*
X172303000Y-158527000D01*
X172321000Y-158565000D01*
X172337000Y-158603000D01*
X172351000Y-158643000D01*
X172363000Y-158683000D01*
X172373000Y-158724000D01*
X172380000Y-158765000D01*
X172386000Y-158806000D01*
X172389000Y-158848000D01*
X172390000Y-158890000D01*
X172390000Y-161290000D01*
X170790000Y-161290000D01*
X170790000Y-158890000D01*
X170791000Y-158848000D01*
X170794000Y-158806000D01*
X170800000Y-158765000D01*
X170807000Y-158724000D01*
X170817000Y-158683000D01*
X170829000Y-158643000D01*
X170843000Y-158603000D01*
X170859000Y-158565000D01*
X170877000Y-158527000D01*
X170897000Y-158490000D01*
X170919000Y-158454000D01*
X170943000Y-158420000D01*
X170968000Y-158387000D01*
X170995000Y-158355000D01*
X171024000Y-158324000D01*
X171055000Y-158295000D01*
X171087000Y-158268000D01*
X171120000Y-158243000D01*
X171154000Y-158219000D01*
X171190000Y-158197000D01*
X171227000Y-158177000D01*
X171265000Y-158159000D01*
X171303000Y-158143000D01*
X171343000Y-158129000D01*
X171383000Y-158117000D01*
X171424000Y-158107000D01*
X171465000Y-158100000D01*
X171506000Y-158094000D01*
X171548000Y-158091000D01*
X171590000Y-158090000D01*
X171632000Y-158091000D01*
G36*
X171632000Y-158091000D02*
G01*
X171674000Y-158094000D01*
X171715000Y-158100000D01*
X171756000Y-158107000D01*
X171797000Y-158117000D01*
X171837000Y-158129000D01*
X171877000Y-158143000D01*
X171915000Y-158159000D01*
X171953000Y-158177000D01*
X171990000Y-158197000D01*
X172026000Y-158219000D01*
X172060000Y-158243000D01*
X172093000Y-158268000D01*
X172125000Y-158295000D01*
X172156000Y-158324000D01*
X172185000Y-158355000D01*
X172212000Y-158387000D01*
X172237000Y-158420000D01*
X172261000Y-158454000D01*
X172283000Y-158490000D01*
X172303000Y-158527000D01*
X172321000Y-158565000D01*
X172337000Y-158603000D01*
X172351000Y-158643000D01*
X172363000Y-158683000D01*
X172373000Y-158724000D01*
X172380000Y-158765000D01*
X172386000Y-158806000D01*
X172389000Y-158848000D01*
X172390000Y-158890000D01*
X172390000Y-161290000D01*
X170790000Y-161290000D01*
X170790000Y-158890000D01*
X170791000Y-158848000D01*
X170794000Y-158806000D01*
X170800000Y-158765000D01*
X170807000Y-158724000D01*
X170817000Y-158683000D01*
X170829000Y-158643000D01*
X170843000Y-158603000D01*
X170859000Y-158565000D01*
X170877000Y-158527000D01*
X170897000Y-158490000D01*
X170919000Y-158454000D01*
X170943000Y-158420000D01*
X170968000Y-158387000D01*
X170995000Y-158355000D01*
X171024000Y-158324000D01*
X171055000Y-158295000D01*
X171087000Y-158268000D01*
X171120000Y-158243000D01*
X171154000Y-158219000D01*
X171190000Y-158197000D01*
X171227000Y-158177000D01*
X171265000Y-158159000D01*
X171303000Y-158143000D01*
X171343000Y-158129000D01*
X171383000Y-158117000D01*
X171424000Y-158107000D01*
X171465000Y-158100000D01*
X171506000Y-158094000D01*
X171548000Y-158091000D01*
X171590000Y-158090000D01*
X171632000Y-158091000D01*
G37*
X174172000Y-158091000D02*
X174214000Y-158094000D01*
X174255000Y-158100000D01*
X174296000Y-158107000D01*
X174337000Y-158117000D01*
X174377000Y-158129000D01*
X174417000Y-158143000D01*
X174455000Y-158159000D01*
X174493000Y-158177000D01*
X174530000Y-158197000D01*
X174566000Y-158219000D01*
X174600000Y-158243000D01*
X174633000Y-158268000D01*
X174665000Y-158295000D01*
X174696000Y-158324000D01*
X174725000Y-158355000D01*
X174752000Y-158387000D01*
X174777000Y-158420000D01*
X174801000Y-158454000D01*
X174823000Y-158490000D01*
X174843000Y-158527000D01*
X174861000Y-158565000D01*
X174877000Y-158603000D01*
X174891000Y-158643000D01*
X174903000Y-158683000D01*
X174913000Y-158724000D01*
X174920000Y-158765000D01*
X174926000Y-158806000D01*
X174929000Y-158848000D01*
X174930000Y-158890000D01*
X174930000Y-161290000D01*
X173330000Y-161290000D01*
X173330000Y-158890000D01*
X173331000Y-158848000D01*
X173334000Y-158806000D01*
X173340000Y-158765000D01*
X173347000Y-158724000D01*
X173357000Y-158683000D01*
X173369000Y-158643000D01*
X173383000Y-158603000D01*
X173399000Y-158565000D01*
X173417000Y-158527000D01*
X173437000Y-158490000D01*
X173459000Y-158454000D01*
X173483000Y-158420000D01*
X173508000Y-158387000D01*
X173535000Y-158355000D01*
X173564000Y-158324000D01*
X173595000Y-158295000D01*
X173627000Y-158268000D01*
X173660000Y-158243000D01*
X173694000Y-158219000D01*
X173730000Y-158197000D01*
X173767000Y-158177000D01*
X173805000Y-158159000D01*
X173843000Y-158143000D01*
X173883000Y-158129000D01*
X173923000Y-158117000D01*
X173964000Y-158107000D01*
X174005000Y-158100000D01*
X174046000Y-158094000D01*
X174088000Y-158091000D01*
X174130000Y-158090000D01*
X174172000Y-158091000D01*
G36*
X174172000Y-158091000D02*
G01*
X174214000Y-158094000D01*
X174255000Y-158100000D01*
X174296000Y-158107000D01*
X174337000Y-158117000D01*
X174377000Y-158129000D01*
X174417000Y-158143000D01*
X174455000Y-158159000D01*
X174493000Y-158177000D01*
X174530000Y-158197000D01*
X174566000Y-158219000D01*
X174600000Y-158243000D01*
X174633000Y-158268000D01*
X174665000Y-158295000D01*
X174696000Y-158324000D01*
X174725000Y-158355000D01*
X174752000Y-158387000D01*
X174777000Y-158420000D01*
X174801000Y-158454000D01*
X174823000Y-158490000D01*
X174843000Y-158527000D01*
X174861000Y-158565000D01*
X174877000Y-158603000D01*
X174891000Y-158643000D01*
X174903000Y-158683000D01*
X174913000Y-158724000D01*
X174920000Y-158765000D01*
X174926000Y-158806000D01*
X174929000Y-158848000D01*
X174930000Y-158890000D01*
X174930000Y-161290000D01*
X173330000Y-161290000D01*
X173330000Y-158890000D01*
X173331000Y-158848000D01*
X173334000Y-158806000D01*
X173340000Y-158765000D01*
X173347000Y-158724000D01*
X173357000Y-158683000D01*
X173369000Y-158643000D01*
X173383000Y-158603000D01*
X173399000Y-158565000D01*
X173417000Y-158527000D01*
X173437000Y-158490000D01*
X173459000Y-158454000D01*
X173483000Y-158420000D01*
X173508000Y-158387000D01*
X173535000Y-158355000D01*
X173564000Y-158324000D01*
X173595000Y-158295000D01*
X173627000Y-158268000D01*
X173660000Y-158243000D01*
X173694000Y-158219000D01*
X173730000Y-158197000D01*
X173767000Y-158177000D01*
X173805000Y-158159000D01*
X173843000Y-158143000D01*
X173883000Y-158129000D01*
X173923000Y-158117000D01*
X173964000Y-158107000D01*
X174005000Y-158100000D01*
X174046000Y-158094000D01*
X174088000Y-158091000D01*
X174130000Y-158090000D01*
X174172000Y-158091000D01*
G37*
X126142000Y-151741000D02*
X126184000Y-151744000D01*
X126225000Y-151750000D01*
X126266000Y-151757000D01*
X126307000Y-151767000D01*
X126347000Y-151779000D01*
X126387000Y-151793000D01*
X126425000Y-151809000D01*
X126463000Y-151827000D01*
X126500000Y-151847000D01*
X126536000Y-151869000D01*
X126570000Y-151893000D01*
X126603000Y-151918000D01*
X126635000Y-151945000D01*
X126666000Y-151974000D01*
X126695000Y-152005000D01*
X126722000Y-152037000D01*
X126747000Y-152070000D01*
X126771000Y-152104000D01*
X126793000Y-152140000D01*
X126813000Y-152177000D01*
X126831000Y-152215000D01*
X126847000Y-152253000D01*
X126861000Y-152293000D01*
X126873000Y-152333000D01*
X126883000Y-152374000D01*
X126890000Y-152415000D01*
X126896000Y-152456000D01*
X126899000Y-152498000D01*
X126900000Y-152540000D01*
X126899000Y-152582000D01*
X126896000Y-152624000D01*
X126890000Y-152665000D01*
X126883000Y-152706000D01*
X126873000Y-152747000D01*
X126861000Y-152787000D01*
X126847000Y-152827000D01*
X126831000Y-152865000D01*
X126813000Y-152903000D01*
X126793000Y-152940000D01*
X126771000Y-152976000D01*
X126747000Y-153010000D01*
X126722000Y-153043000D01*
X126695000Y-153075000D01*
X126666000Y-153106000D01*
X126635000Y-153135000D01*
X126603000Y-153162000D01*
X126570000Y-153187000D01*
X126536000Y-153211000D01*
X126500000Y-153233000D01*
X126463000Y-153253000D01*
X126425000Y-153271000D01*
X126387000Y-153287000D01*
X126347000Y-153301000D01*
X126307000Y-153313000D01*
X126266000Y-153323000D01*
X126225000Y-153330000D01*
X126184000Y-153336000D01*
X126142000Y-153339000D01*
X126100000Y-153340000D01*
X123700000Y-153340000D01*
X123700000Y-151740000D01*
X126100000Y-151740000D01*
X126142000Y-151741000D01*
G36*
X126142000Y-151741000D02*
G01*
X126184000Y-151744000D01*
X126225000Y-151750000D01*
X126266000Y-151757000D01*
X126307000Y-151767000D01*
X126347000Y-151779000D01*
X126387000Y-151793000D01*
X126425000Y-151809000D01*
X126463000Y-151827000D01*
X126500000Y-151847000D01*
X126536000Y-151869000D01*
X126570000Y-151893000D01*
X126603000Y-151918000D01*
X126635000Y-151945000D01*
X126666000Y-151974000D01*
X126695000Y-152005000D01*
X126722000Y-152037000D01*
X126747000Y-152070000D01*
X126771000Y-152104000D01*
X126793000Y-152140000D01*
X126813000Y-152177000D01*
X126831000Y-152215000D01*
X126847000Y-152253000D01*
X126861000Y-152293000D01*
X126873000Y-152333000D01*
X126883000Y-152374000D01*
X126890000Y-152415000D01*
X126896000Y-152456000D01*
X126899000Y-152498000D01*
X126900000Y-152540000D01*
X126899000Y-152582000D01*
X126896000Y-152624000D01*
X126890000Y-152665000D01*
X126883000Y-152706000D01*
X126873000Y-152747000D01*
X126861000Y-152787000D01*
X126847000Y-152827000D01*
X126831000Y-152865000D01*
X126813000Y-152903000D01*
X126793000Y-152940000D01*
X126771000Y-152976000D01*
X126747000Y-153010000D01*
X126722000Y-153043000D01*
X126695000Y-153075000D01*
X126666000Y-153106000D01*
X126635000Y-153135000D01*
X126603000Y-153162000D01*
X126570000Y-153187000D01*
X126536000Y-153211000D01*
X126500000Y-153233000D01*
X126463000Y-153253000D01*
X126425000Y-153271000D01*
X126387000Y-153287000D01*
X126347000Y-153301000D01*
X126307000Y-153313000D01*
X126266000Y-153323000D01*
X126225000Y-153330000D01*
X126184000Y-153336000D01*
X126142000Y-153339000D01*
X126100000Y-153340000D01*
X123700000Y-153340000D01*
X123700000Y-151740000D01*
X126100000Y-151740000D01*
X126142000Y-151741000D01*
G37*
X126142000Y-146661000D02*
X126184000Y-146664000D01*
X126225000Y-146670000D01*
X126266000Y-146677000D01*
X126307000Y-146687000D01*
X126347000Y-146699000D01*
X126387000Y-146713000D01*
X126425000Y-146729000D01*
X126463000Y-146747000D01*
X126500000Y-146767000D01*
X126536000Y-146789000D01*
X126570000Y-146813000D01*
X126603000Y-146838000D01*
X126635000Y-146865000D01*
X126666000Y-146894000D01*
X126695000Y-146925000D01*
X126722000Y-146957000D01*
X126747000Y-146990000D01*
X126771000Y-147024000D01*
X126793000Y-147060000D01*
X126813000Y-147097000D01*
X126831000Y-147135000D01*
X126847000Y-147173000D01*
X126861000Y-147213000D01*
X126873000Y-147253000D01*
X126883000Y-147294000D01*
X126890000Y-147335000D01*
X126896000Y-147376000D01*
X126899000Y-147418000D01*
X126900000Y-147460000D01*
X126899000Y-147502000D01*
X126896000Y-147544000D01*
X126890000Y-147585000D01*
X126883000Y-147626000D01*
X126873000Y-147667000D01*
X126861000Y-147707000D01*
X126847000Y-147747000D01*
X126831000Y-147785000D01*
X126813000Y-147823000D01*
X126793000Y-147860000D01*
X126771000Y-147896000D01*
X126747000Y-147930000D01*
X126722000Y-147963000D01*
X126695000Y-147995000D01*
X126666000Y-148026000D01*
X126635000Y-148055000D01*
X126603000Y-148082000D01*
X126570000Y-148107000D01*
X126536000Y-148131000D01*
X126500000Y-148153000D01*
X126463000Y-148173000D01*
X126425000Y-148191000D01*
X126387000Y-148207000D01*
X126347000Y-148221000D01*
X126307000Y-148233000D01*
X126266000Y-148243000D01*
X126225000Y-148250000D01*
X126184000Y-148256000D01*
X126142000Y-148259000D01*
X126100000Y-148260000D01*
X123700000Y-148260000D01*
X123700000Y-146660000D01*
X126100000Y-146660000D01*
X126142000Y-146661000D01*
G36*
X126142000Y-146661000D02*
G01*
X126184000Y-146664000D01*
X126225000Y-146670000D01*
X126266000Y-146677000D01*
X126307000Y-146687000D01*
X126347000Y-146699000D01*
X126387000Y-146713000D01*
X126425000Y-146729000D01*
X126463000Y-146747000D01*
X126500000Y-146767000D01*
X126536000Y-146789000D01*
X126570000Y-146813000D01*
X126603000Y-146838000D01*
X126635000Y-146865000D01*
X126666000Y-146894000D01*
X126695000Y-146925000D01*
X126722000Y-146957000D01*
X126747000Y-146990000D01*
X126771000Y-147024000D01*
X126793000Y-147060000D01*
X126813000Y-147097000D01*
X126831000Y-147135000D01*
X126847000Y-147173000D01*
X126861000Y-147213000D01*
X126873000Y-147253000D01*
X126883000Y-147294000D01*
X126890000Y-147335000D01*
X126896000Y-147376000D01*
X126899000Y-147418000D01*
X126900000Y-147460000D01*
X126899000Y-147502000D01*
X126896000Y-147544000D01*
X126890000Y-147585000D01*
X126883000Y-147626000D01*
X126873000Y-147667000D01*
X126861000Y-147707000D01*
X126847000Y-147747000D01*
X126831000Y-147785000D01*
X126813000Y-147823000D01*
X126793000Y-147860000D01*
X126771000Y-147896000D01*
X126747000Y-147930000D01*
X126722000Y-147963000D01*
X126695000Y-147995000D01*
X126666000Y-148026000D01*
X126635000Y-148055000D01*
X126603000Y-148082000D01*
X126570000Y-148107000D01*
X126536000Y-148131000D01*
X126500000Y-148153000D01*
X126463000Y-148173000D01*
X126425000Y-148191000D01*
X126387000Y-148207000D01*
X126347000Y-148221000D01*
X126307000Y-148233000D01*
X126266000Y-148243000D01*
X126225000Y-148250000D01*
X126184000Y-148256000D01*
X126142000Y-148259000D01*
X126100000Y-148260000D01*
X123700000Y-148260000D01*
X123700000Y-146660000D01*
X126100000Y-146660000D01*
X126142000Y-146661000D01*
G37*
X126670000Y-141110000D02*
X126669000Y-141152000D01*
X126666000Y-141194000D01*
X126660000Y-141235000D01*
X126653000Y-141276000D01*
X126643000Y-141317000D01*
X126631000Y-141357000D01*
X126617000Y-141397000D01*
X126601000Y-141435000D01*
X126583000Y-141473000D01*
X126563000Y-141510000D01*
X126541000Y-141546000D01*
X126517000Y-141580000D01*
X126492000Y-141613000D01*
X126465000Y-141645000D01*
X126436000Y-141676000D01*
X126405000Y-141705000D01*
X126373000Y-141732000D01*
X126340000Y-141757000D01*
X126306000Y-141781000D01*
X126270000Y-141803000D01*
X126233000Y-141823000D01*
X126195000Y-141841000D01*
X126157000Y-141857000D01*
X126117000Y-141871000D01*
X126077000Y-141883000D01*
X126036000Y-141893000D01*
X125995000Y-141900000D01*
X125954000Y-141906000D01*
X125912000Y-141909000D01*
X125870000Y-141910000D01*
X125828000Y-141909000D01*
X125786000Y-141906000D01*
X125745000Y-141900000D01*
X125704000Y-141893000D01*
X125663000Y-141883000D01*
X125623000Y-141871000D01*
X125583000Y-141857000D01*
X125545000Y-141841000D01*
X125507000Y-141823000D01*
X125470000Y-141803000D01*
X125434000Y-141781000D01*
X125400000Y-141757000D01*
X125367000Y-141732000D01*
X125335000Y-141705000D01*
X125304000Y-141676000D01*
X125275000Y-141645000D01*
X125248000Y-141613000D01*
X125223000Y-141580000D01*
X125199000Y-141546000D01*
X125177000Y-141510000D01*
X125157000Y-141473000D01*
X125139000Y-141435000D01*
X125123000Y-141397000D01*
X125109000Y-141357000D01*
X125097000Y-141317000D01*
X125087000Y-141276000D01*
X125080000Y-141235000D01*
X125074000Y-141194000D01*
X125071000Y-141152000D01*
X125070000Y-141110000D01*
X125070000Y-138710000D01*
X126670000Y-138710000D01*
X126670000Y-141110000D01*
G36*
X126670000Y-141110000D02*
G01*
X126669000Y-141152000D01*
X126666000Y-141194000D01*
X126660000Y-141235000D01*
X126653000Y-141276000D01*
X126643000Y-141317000D01*
X126631000Y-141357000D01*
X126617000Y-141397000D01*
X126601000Y-141435000D01*
X126583000Y-141473000D01*
X126563000Y-141510000D01*
X126541000Y-141546000D01*
X126517000Y-141580000D01*
X126492000Y-141613000D01*
X126465000Y-141645000D01*
X126436000Y-141676000D01*
X126405000Y-141705000D01*
X126373000Y-141732000D01*
X126340000Y-141757000D01*
X126306000Y-141781000D01*
X126270000Y-141803000D01*
X126233000Y-141823000D01*
X126195000Y-141841000D01*
X126157000Y-141857000D01*
X126117000Y-141871000D01*
X126077000Y-141883000D01*
X126036000Y-141893000D01*
X125995000Y-141900000D01*
X125954000Y-141906000D01*
X125912000Y-141909000D01*
X125870000Y-141910000D01*
X125828000Y-141909000D01*
X125786000Y-141906000D01*
X125745000Y-141900000D01*
X125704000Y-141893000D01*
X125663000Y-141883000D01*
X125623000Y-141871000D01*
X125583000Y-141857000D01*
X125545000Y-141841000D01*
X125507000Y-141823000D01*
X125470000Y-141803000D01*
X125434000Y-141781000D01*
X125400000Y-141757000D01*
X125367000Y-141732000D01*
X125335000Y-141705000D01*
X125304000Y-141676000D01*
X125275000Y-141645000D01*
X125248000Y-141613000D01*
X125223000Y-141580000D01*
X125199000Y-141546000D01*
X125177000Y-141510000D01*
X125157000Y-141473000D01*
X125139000Y-141435000D01*
X125123000Y-141397000D01*
X125109000Y-141357000D01*
X125097000Y-141317000D01*
X125087000Y-141276000D01*
X125080000Y-141235000D01*
X125074000Y-141194000D01*
X125071000Y-141152000D01*
X125070000Y-141110000D01*
X125070000Y-138710000D01*
X126670000Y-138710000D01*
X126670000Y-141110000D01*
G37*
X129210000Y-141110000D02*
X129209000Y-141152000D01*
X129206000Y-141194000D01*
X129200000Y-141235000D01*
X129193000Y-141276000D01*
X129183000Y-141317000D01*
X129171000Y-141357000D01*
X129157000Y-141397000D01*
X129141000Y-141435000D01*
X129123000Y-141473000D01*
X129103000Y-141510000D01*
X129081000Y-141546000D01*
X129057000Y-141580000D01*
X129032000Y-141613000D01*
X129005000Y-141645000D01*
X128976000Y-141676000D01*
X128945000Y-141705000D01*
X128913000Y-141732000D01*
X128880000Y-141757000D01*
X128846000Y-141781000D01*
X128810000Y-141803000D01*
X128773000Y-141823000D01*
X128735000Y-141841000D01*
X128697000Y-141857000D01*
X128657000Y-141871000D01*
X128617000Y-141883000D01*
X128576000Y-141893000D01*
X128535000Y-141900000D01*
X128494000Y-141906000D01*
X128452000Y-141909000D01*
X128410000Y-141910000D01*
X128368000Y-141909000D01*
X128326000Y-141906000D01*
X128285000Y-141900000D01*
X128244000Y-141893000D01*
X128203000Y-141883000D01*
X128163000Y-141871000D01*
X128123000Y-141857000D01*
X128085000Y-141841000D01*
X128047000Y-141823000D01*
X128010000Y-141803000D01*
X127974000Y-141781000D01*
X127940000Y-141757000D01*
X127907000Y-141732000D01*
X127875000Y-141705000D01*
X127844000Y-141676000D01*
X127815000Y-141645000D01*
X127788000Y-141613000D01*
X127763000Y-141580000D01*
X127739000Y-141546000D01*
X127717000Y-141510000D01*
X127697000Y-141473000D01*
X127679000Y-141435000D01*
X127663000Y-141397000D01*
X127649000Y-141357000D01*
X127637000Y-141317000D01*
X127627000Y-141276000D01*
X127620000Y-141235000D01*
X127614000Y-141194000D01*
X127611000Y-141152000D01*
X127610000Y-141110000D01*
X127610000Y-138710000D01*
X129210000Y-138710000D01*
X129210000Y-141110000D01*
G36*
X129210000Y-141110000D02*
G01*
X129209000Y-141152000D01*
X129206000Y-141194000D01*
X129200000Y-141235000D01*
X129193000Y-141276000D01*
X129183000Y-141317000D01*
X129171000Y-141357000D01*
X129157000Y-141397000D01*
X129141000Y-141435000D01*
X129123000Y-141473000D01*
X129103000Y-141510000D01*
X129081000Y-141546000D01*
X129057000Y-141580000D01*
X129032000Y-141613000D01*
X129005000Y-141645000D01*
X128976000Y-141676000D01*
X128945000Y-141705000D01*
X128913000Y-141732000D01*
X128880000Y-141757000D01*
X128846000Y-141781000D01*
X128810000Y-141803000D01*
X128773000Y-141823000D01*
X128735000Y-141841000D01*
X128697000Y-141857000D01*
X128657000Y-141871000D01*
X128617000Y-141883000D01*
X128576000Y-141893000D01*
X128535000Y-141900000D01*
X128494000Y-141906000D01*
X128452000Y-141909000D01*
X128410000Y-141910000D01*
X128368000Y-141909000D01*
X128326000Y-141906000D01*
X128285000Y-141900000D01*
X128244000Y-141893000D01*
X128203000Y-141883000D01*
X128163000Y-141871000D01*
X128123000Y-141857000D01*
X128085000Y-141841000D01*
X128047000Y-141823000D01*
X128010000Y-141803000D01*
X127974000Y-141781000D01*
X127940000Y-141757000D01*
X127907000Y-141732000D01*
X127875000Y-141705000D01*
X127844000Y-141676000D01*
X127815000Y-141645000D01*
X127788000Y-141613000D01*
X127763000Y-141580000D01*
X127739000Y-141546000D01*
X127717000Y-141510000D01*
X127697000Y-141473000D01*
X127679000Y-141435000D01*
X127663000Y-141397000D01*
X127649000Y-141357000D01*
X127637000Y-141317000D01*
X127627000Y-141276000D01*
X127620000Y-141235000D01*
X127614000Y-141194000D01*
X127611000Y-141152000D01*
X127610000Y-141110000D01*
X127610000Y-138710000D01*
X129210000Y-138710000D01*
X129210000Y-141110000D01*
G37*
X134290000Y-141110000D02*
X134289000Y-141152000D01*
X134286000Y-141194000D01*
X134280000Y-141235000D01*
X134273000Y-141276000D01*
X134263000Y-141317000D01*
X134251000Y-141357000D01*
X134237000Y-141397000D01*
X134221000Y-141435000D01*
X134203000Y-141473000D01*
X134183000Y-141510000D01*
X134161000Y-141546000D01*
X134137000Y-141580000D01*
X134112000Y-141613000D01*
X134085000Y-141645000D01*
X134056000Y-141676000D01*
X134025000Y-141705000D01*
X133993000Y-141732000D01*
X133960000Y-141757000D01*
X133926000Y-141781000D01*
X133890000Y-141803000D01*
X133853000Y-141823000D01*
X133815000Y-141841000D01*
X133777000Y-141857000D01*
X133737000Y-141871000D01*
X133697000Y-141883000D01*
X133656000Y-141893000D01*
X133615000Y-141900000D01*
X133574000Y-141906000D01*
X133532000Y-141909000D01*
X133490000Y-141910000D01*
X133448000Y-141909000D01*
X133406000Y-141906000D01*
X133365000Y-141900000D01*
X133324000Y-141893000D01*
X133283000Y-141883000D01*
X133243000Y-141871000D01*
X133203000Y-141857000D01*
X133165000Y-141841000D01*
X133127000Y-141823000D01*
X133090000Y-141803000D01*
X133054000Y-141781000D01*
X133020000Y-141757000D01*
X132987000Y-141732000D01*
X132955000Y-141705000D01*
X132924000Y-141676000D01*
X132895000Y-141645000D01*
X132868000Y-141613000D01*
X132843000Y-141580000D01*
X132819000Y-141546000D01*
X132797000Y-141510000D01*
X132777000Y-141473000D01*
X132759000Y-141435000D01*
X132743000Y-141397000D01*
X132729000Y-141357000D01*
X132717000Y-141317000D01*
X132707000Y-141276000D01*
X132700000Y-141235000D01*
X132694000Y-141194000D01*
X132691000Y-141152000D01*
X132690000Y-141110000D01*
X132690000Y-138710000D01*
X134290000Y-138710000D01*
X134290000Y-141110000D01*
G36*
X134290000Y-141110000D02*
G01*
X134289000Y-141152000D01*
X134286000Y-141194000D01*
X134280000Y-141235000D01*
X134273000Y-141276000D01*
X134263000Y-141317000D01*
X134251000Y-141357000D01*
X134237000Y-141397000D01*
X134221000Y-141435000D01*
X134203000Y-141473000D01*
X134183000Y-141510000D01*
X134161000Y-141546000D01*
X134137000Y-141580000D01*
X134112000Y-141613000D01*
X134085000Y-141645000D01*
X134056000Y-141676000D01*
X134025000Y-141705000D01*
X133993000Y-141732000D01*
X133960000Y-141757000D01*
X133926000Y-141781000D01*
X133890000Y-141803000D01*
X133853000Y-141823000D01*
X133815000Y-141841000D01*
X133777000Y-141857000D01*
X133737000Y-141871000D01*
X133697000Y-141883000D01*
X133656000Y-141893000D01*
X133615000Y-141900000D01*
X133574000Y-141906000D01*
X133532000Y-141909000D01*
X133490000Y-141910000D01*
X133448000Y-141909000D01*
X133406000Y-141906000D01*
X133365000Y-141900000D01*
X133324000Y-141893000D01*
X133283000Y-141883000D01*
X133243000Y-141871000D01*
X133203000Y-141857000D01*
X133165000Y-141841000D01*
X133127000Y-141823000D01*
X133090000Y-141803000D01*
X133054000Y-141781000D01*
X133020000Y-141757000D01*
X132987000Y-141732000D01*
X132955000Y-141705000D01*
X132924000Y-141676000D01*
X132895000Y-141645000D01*
X132868000Y-141613000D01*
X132843000Y-141580000D01*
X132819000Y-141546000D01*
X132797000Y-141510000D01*
X132777000Y-141473000D01*
X132759000Y-141435000D01*
X132743000Y-141397000D01*
X132729000Y-141357000D01*
X132717000Y-141317000D01*
X132707000Y-141276000D01*
X132700000Y-141235000D01*
X132694000Y-141194000D01*
X132691000Y-141152000D01*
X132690000Y-141110000D01*
X132690000Y-138710000D01*
X134290000Y-138710000D01*
X134290000Y-141110000D01*
G37*
X136830000Y-141110000D02*
X136829000Y-141152000D01*
X136826000Y-141194000D01*
X136820000Y-141235000D01*
X136813000Y-141276000D01*
X136803000Y-141317000D01*
X136791000Y-141357000D01*
X136777000Y-141397000D01*
X136761000Y-141435000D01*
X136743000Y-141473000D01*
X136723000Y-141510000D01*
X136701000Y-141546000D01*
X136677000Y-141580000D01*
X136652000Y-141613000D01*
X136625000Y-141645000D01*
X136596000Y-141676000D01*
X136565000Y-141705000D01*
X136533000Y-141732000D01*
X136500000Y-141757000D01*
X136466000Y-141781000D01*
X136430000Y-141803000D01*
X136393000Y-141823000D01*
X136355000Y-141841000D01*
X136317000Y-141857000D01*
X136277000Y-141871000D01*
X136237000Y-141883000D01*
X136196000Y-141893000D01*
X136155000Y-141900000D01*
X136114000Y-141906000D01*
X136072000Y-141909000D01*
X136030000Y-141910000D01*
X135988000Y-141909000D01*
X135946000Y-141906000D01*
X135905000Y-141900000D01*
X135864000Y-141893000D01*
X135823000Y-141883000D01*
X135783000Y-141871000D01*
X135743000Y-141857000D01*
X135705000Y-141841000D01*
X135667000Y-141823000D01*
X135630000Y-141803000D01*
X135594000Y-141781000D01*
X135560000Y-141757000D01*
X135527000Y-141732000D01*
X135495000Y-141705000D01*
X135464000Y-141676000D01*
X135435000Y-141645000D01*
X135408000Y-141613000D01*
X135383000Y-141580000D01*
X135359000Y-141546000D01*
X135337000Y-141510000D01*
X135317000Y-141473000D01*
X135299000Y-141435000D01*
X135283000Y-141397000D01*
X135269000Y-141357000D01*
X135257000Y-141317000D01*
X135247000Y-141276000D01*
X135240000Y-141235000D01*
X135234000Y-141194000D01*
X135231000Y-141152000D01*
X135230000Y-141110000D01*
X135230000Y-138710000D01*
X136830000Y-138710000D01*
X136830000Y-141110000D01*
G36*
X136830000Y-141110000D02*
G01*
X136829000Y-141152000D01*
X136826000Y-141194000D01*
X136820000Y-141235000D01*
X136813000Y-141276000D01*
X136803000Y-141317000D01*
X136791000Y-141357000D01*
X136777000Y-141397000D01*
X136761000Y-141435000D01*
X136743000Y-141473000D01*
X136723000Y-141510000D01*
X136701000Y-141546000D01*
X136677000Y-141580000D01*
X136652000Y-141613000D01*
X136625000Y-141645000D01*
X136596000Y-141676000D01*
X136565000Y-141705000D01*
X136533000Y-141732000D01*
X136500000Y-141757000D01*
X136466000Y-141781000D01*
X136430000Y-141803000D01*
X136393000Y-141823000D01*
X136355000Y-141841000D01*
X136317000Y-141857000D01*
X136277000Y-141871000D01*
X136237000Y-141883000D01*
X136196000Y-141893000D01*
X136155000Y-141900000D01*
X136114000Y-141906000D01*
X136072000Y-141909000D01*
X136030000Y-141910000D01*
X135988000Y-141909000D01*
X135946000Y-141906000D01*
X135905000Y-141900000D01*
X135864000Y-141893000D01*
X135823000Y-141883000D01*
X135783000Y-141871000D01*
X135743000Y-141857000D01*
X135705000Y-141841000D01*
X135667000Y-141823000D01*
X135630000Y-141803000D01*
X135594000Y-141781000D01*
X135560000Y-141757000D01*
X135527000Y-141732000D01*
X135495000Y-141705000D01*
X135464000Y-141676000D01*
X135435000Y-141645000D01*
X135408000Y-141613000D01*
X135383000Y-141580000D01*
X135359000Y-141546000D01*
X135337000Y-141510000D01*
X135317000Y-141473000D01*
X135299000Y-141435000D01*
X135283000Y-141397000D01*
X135269000Y-141357000D01*
X135257000Y-141317000D01*
X135247000Y-141276000D01*
X135240000Y-141235000D01*
X135234000Y-141194000D01*
X135231000Y-141152000D01*
X135230000Y-141110000D01*
X135230000Y-138710000D01*
X136830000Y-138710000D01*
X136830000Y-141110000D01*
G37*
X139370000Y-141110000D02*
X139369000Y-141152000D01*
X139366000Y-141194000D01*
X139360000Y-141235000D01*
X139353000Y-141276000D01*
X139343000Y-141317000D01*
X139331000Y-141357000D01*
X139317000Y-141397000D01*
X139301000Y-141435000D01*
X139283000Y-141473000D01*
X139263000Y-141510000D01*
X139241000Y-141546000D01*
X139217000Y-141580000D01*
X139192000Y-141613000D01*
X139165000Y-141645000D01*
X139136000Y-141676000D01*
X139105000Y-141705000D01*
X139073000Y-141732000D01*
X139040000Y-141757000D01*
X139006000Y-141781000D01*
X138970000Y-141803000D01*
X138933000Y-141823000D01*
X138895000Y-141841000D01*
X138857000Y-141857000D01*
X138817000Y-141871000D01*
X138777000Y-141883000D01*
X138736000Y-141893000D01*
X138695000Y-141900000D01*
X138654000Y-141906000D01*
X138612000Y-141909000D01*
X138570000Y-141910000D01*
X138528000Y-141909000D01*
X138486000Y-141906000D01*
X138445000Y-141900000D01*
X138404000Y-141893000D01*
X138363000Y-141883000D01*
X138323000Y-141871000D01*
X138283000Y-141857000D01*
X138245000Y-141841000D01*
X138207000Y-141823000D01*
X138170000Y-141803000D01*
X138134000Y-141781000D01*
X138100000Y-141757000D01*
X138067000Y-141732000D01*
X138035000Y-141705000D01*
X138004000Y-141676000D01*
X137975000Y-141645000D01*
X137948000Y-141613000D01*
X137923000Y-141580000D01*
X137899000Y-141546000D01*
X137877000Y-141510000D01*
X137857000Y-141473000D01*
X137839000Y-141435000D01*
X137823000Y-141397000D01*
X137809000Y-141357000D01*
X137797000Y-141317000D01*
X137787000Y-141276000D01*
X137780000Y-141235000D01*
X137774000Y-141194000D01*
X137771000Y-141152000D01*
X137770000Y-141110000D01*
X137770000Y-138710000D01*
X139370000Y-138710000D01*
X139370000Y-141110000D01*
G36*
X139370000Y-141110000D02*
G01*
X139369000Y-141152000D01*
X139366000Y-141194000D01*
X139360000Y-141235000D01*
X139353000Y-141276000D01*
X139343000Y-141317000D01*
X139331000Y-141357000D01*
X139317000Y-141397000D01*
X139301000Y-141435000D01*
X139283000Y-141473000D01*
X139263000Y-141510000D01*
X139241000Y-141546000D01*
X139217000Y-141580000D01*
X139192000Y-141613000D01*
X139165000Y-141645000D01*
X139136000Y-141676000D01*
X139105000Y-141705000D01*
X139073000Y-141732000D01*
X139040000Y-141757000D01*
X139006000Y-141781000D01*
X138970000Y-141803000D01*
X138933000Y-141823000D01*
X138895000Y-141841000D01*
X138857000Y-141857000D01*
X138817000Y-141871000D01*
X138777000Y-141883000D01*
X138736000Y-141893000D01*
X138695000Y-141900000D01*
X138654000Y-141906000D01*
X138612000Y-141909000D01*
X138570000Y-141910000D01*
X138528000Y-141909000D01*
X138486000Y-141906000D01*
X138445000Y-141900000D01*
X138404000Y-141893000D01*
X138363000Y-141883000D01*
X138323000Y-141871000D01*
X138283000Y-141857000D01*
X138245000Y-141841000D01*
X138207000Y-141823000D01*
X138170000Y-141803000D01*
X138134000Y-141781000D01*
X138100000Y-141757000D01*
X138067000Y-141732000D01*
X138035000Y-141705000D01*
X138004000Y-141676000D01*
X137975000Y-141645000D01*
X137948000Y-141613000D01*
X137923000Y-141580000D01*
X137899000Y-141546000D01*
X137877000Y-141510000D01*
X137857000Y-141473000D01*
X137839000Y-141435000D01*
X137823000Y-141397000D01*
X137809000Y-141357000D01*
X137797000Y-141317000D01*
X137787000Y-141276000D01*
X137780000Y-141235000D01*
X137774000Y-141194000D01*
X137771000Y-141152000D01*
X137770000Y-141110000D01*
X137770000Y-138710000D01*
X139370000Y-138710000D01*
X139370000Y-141110000D01*
G37*
X141910000Y-141110000D02*
X141909000Y-141152000D01*
X141906000Y-141194000D01*
X141900000Y-141235000D01*
X141893000Y-141276000D01*
X141883000Y-141317000D01*
X141871000Y-141357000D01*
X141857000Y-141397000D01*
X141841000Y-141435000D01*
X141823000Y-141473000D01*
X141803000Y-141510000D01*
X141781000Y-141546000D01*
X141757000Y-141580000D01*
X141732000Y-141613000D01*
X141705000Y-141645000D01*
X141676000Y-141676000D01*
X141645000Y-141705000D01*
X141613000Y-141732000D01*
X141580000Y-141757000D01*
X141546000Y-141781000D01*
X141510000Y-141803000D01*
X141473000Y-141823000D01*
X141435000Y-141841000D01*
X141397000Y-141857000D01*
X141357000Y-141871000D01*
X141317000Y-141883000D01*
X141276000Y-141893000D01*
X141235000Y-141900000D01*
X141194000Y-141906000D01*
X141152000Y-141909000D01*
X141110000Y-141910000D01*
X141068000Y-141909000D01*
X141026000Y-141906000D01*
X140985000Y-141900000D01*
X140944000Y-141893000D01*
X140903000Y-141883000D01*
X140863000Y-141871000D01*
X140823000Y-141857000D01*
X140785000Y-141841000D01*
X140747000Y-141823000D01*
X140710000Y-141803000D01*
X140674000Y-141781000D01*
X140640000Y-141757000D01*
X140607000Y-141732000D01*
X140575000Y-141705000D01*
X140544000Y-141676000D01*
X140515000Y-141645000D01*
X140488000Y-141613000D01*
X140463000Y-141580000D01*
X140439000Y-141546000D01*
X140417000Y-141510000D01*
X140397000Y-141473000D01*
X140379000Y-141435000D01*
X140363000Y-141397000D01*
X140349000Y-141357000D01*
X140337000Y-141317000D01*
X140327000Y-141276000D01*
X140320000Y-141235000D01*
X140314000Y-141194000D01*
X140311000Y-141152000D01*
X140310000Y-141110000D01*
X140310000Y-138710000D01*
X141910000Y-138710000D01*
X141910000Y-141110000D01*
G36*
X141910000Y-141110000D02*
G01*
X141909000Y-141152000D01*
X141906000Y-141194000D01*
X141900000Y-141235000D01*
X141893000Y-141276000D01*
X141883000Y-141317000D01*
X141871000Y-141357000D01*
X141857000Y-141397000D01*
X141841000Y-141435000D01*
X141823000Y-141473000D01*
X141803000Y-141510000D01*
X141781000Y-141546000D01*
X141757000Y-141580000D01*
X141732000Y-141613000D01*
X141705000Y-141645000D01*
X141676000Y-141676000D01*
X141645000Y-141705000D01*
X141613000Y-141732000D01*
X141580000Y-141757000D01*
X141546000Y-141781000D01*
X141510000Y-141803000D01*
X141473000Y-141823000D01*
X141435000Y-141841000D01*
X141397000Y-141857000D01*
X141357000Y-141871000D01*
X141317000Y-141883000D01*
X141276000Y-141893000D01*
X141235000Y-141900000D01*
X141194000Y-141906000D01*
X141152000Y-141909000D01*
X141110000Y-141910000D01*
X141068000Y-141909000D01*
X141026000Y-141906000D01*
X140985000Y-141900000D01*
X140944000Y-141893000D01*
X140903000Y-141883000D01*
X140863000Y-141871000D01*
X140823000Y-141857000D01*
X140785000Y-141841000D01*
X140747000Y-141823000D01*
X140710000Y-141803000D01*
X140674000Y-141781000D01*
X140640000Y-141757000D01*
X140607000Y-141732000D01*
X140575000Y-141705000D01*
X140544000Y-141676000D01*
X140515000Y-141645000D01*
X140488000Y-141613000D01*
X140463000Y-141580000D01*
X140439000Y-141546000D01*
X140417000Y-141510000D01*
X140397000Y-141473000D01*
X140379000Y-141435000D01*
X140363000Y-141397000D01*
X140349000Y-141357000D01*
X140337000Y-141317000D01*
X140327000Y-141276000D01*
X140320000Y-141235000D01*
X140314000Y-141194000D01*
X140311000Y-141152000D01*
X140310000Y-141110000D01*
X140310000Y-138710000D01*
X141910000Y-138710000D01*
X141910000Y-141110000D01*
G37*
X146990000Y-141110000D02*
X146989000Y-141152000D01*
X146986000Y-141194000D01*
X146980000Y-141235000D01*
X146973000Y-141276000D01*
X146963000Y-141317000D01*
X146951000Y-141357000D01*
X146937000Y-141397000D01*
X146921000Y-141435000D01*
X146903000Y-141473000D01*
X146883000Y-141510000D01*
X146861000Y-141546000D01*
X146837000Y-141580000D01*
X146812000Y-141613000D01*
X146785000Y-141645000D01*
X146756000Y-141676000D01*
X146725000Y-141705000D01*
X146693000Y-141732000D01*
X146660000Y-141757000D01*
X146626000Y-141781000D01*
X146590000Y-141803000D01*
X146553000Y-141823000D01*
X146515000Y-141841000D01*
X146477000Y-141857000D01*
X146437000Y-141871000D01*
X146397000Y-141883000D01*
X146356000Y-141893000D01*
X146315000Y-141900000D01*
X146274000Y-141906000D01*
X146232000Y-141909000D01*
X146190000Y-141910000D01*
X146148000Y-141909000D01*
X146106000Y-141906000D01*
X146065000Y-141900000D01*
X146024000Y-141893000D01*
X145983000Y-141883000D01*
X145943000Y-141871000D01*
X145903000Y-141857000D01*
X145865000Y-141841000D01*
X145827000Y-141823000D01*
X145790000Y-141803000D01*
X145754000Y-141781000D01*
X145720000Y-141757000D01*
X145687000Y-141732000D01*
X145655000Y-141705000D01*
X145624000Y-141676000D01*
X145595000Y-141645000D01*
X145568000Y-141613000D01*
X145543000Y-141580000D01*
X145519000Y-141546000D01*
X145497000Y-141510000D01*
X145477000Y-141473000D01*
X145459000Y-141435000D01*
X145443000Y-141397000D01*
X145429000Y-141357000D01*
X145417000Y-141317000D01*
X145407000Y-141276000D01*
X145400000Y-141235000D01*
X145394000Y-141194000D01*
X145391000Y-141152000D01*
X145390000Y-141110000D01*
X145390000Y-138710000D01*
X146990000Y-138710000D01*
X146990000Y-141110000D01*
G36*
X146990000Y-141110000D02*
G01*
X146989000Y-141152000D01*
X146986000Y-141194000D01*
X146980000Y-141235000D01*
X146973000Y-141276000D01*
X146963000Y-141317000D01*
X146951000Y-141357000D01*
X146937000Y-141397000D01*
X146921000Y-141435000D01*
X146903000Y-141473000D01*
X146883000Y-141510000D01*
X146861000Y-141546000D01*
X146837000Y-141580000D01*
X146812000Y-141613000D01*
X146785000Y-141645000D01*
X146756000Y-141676000D01*
X146725000Y-141705000D01*
X146693000Y-141732000D01*
X146660000Y-141757000D01*
X146626000Y-141781000D01*
X146590000Y-141803000D01*
X146553000Y-141823000D01*
X146515000Y-141841000D01*
X146477000Y-141857000D01*
X146437000Y-141871000D01*
X146397000Y-141883000D01*
X146356000Y-141893000D01*
X146315000Y-141900000D01*
X146274000Y-141906000D01*
X146232000Y-141909000D01*
X146190000Y-141910000D01*
X146148000Y-141909000D01*
X146106000Y-141906000D01*
X146065000Y-141900000D01*
X146024000Y-141893000D01*
X145983000Y-141883000D01*
X145943000Y-141871000D01*
X145903000Y-141857000D01*
X145865000Y-141841000D01*
X145827000Y-141823000D01*
X145790000Y-141803000D01*
X145754000Y-141781000D01*
X145720000Y-141757000D01*
X145687000Y-141732000D01*
X145655000Y-141705000D01*
X145624000Y-141676000D01*
X145595000Y-141645000D01*
X145568000Y-141613000D01*
X145543000Y-141580000D01*
X145519000Y-141546000D01*
X145497000Y-141510000D01*
X145477000Y-141473000D01*
X145459000Y-141435000D01*
X145443000Y-141397000D01*
X145429000Y-141357000D01*
X145417000Y-141317000D01*
X145407000Y-141276000D01*
X145400000Y-141235000D01*
X145394000Y-141194000D01*
X145391000Y-141152000D01*
X145390000Y-141110000D01*
X145390000Y-138710000D01*
X146990000Y-138710000D01*
X146990000Y-141110000D01*
G37*
X149530000Y-141110000D02*
X149529000Y-141152000D01*
X149526000Y-141194000D01*
X149520000Y-141235000D01*
X149513000Y-141276000D01*
X149503000Y-141317000D01*
X149491000Y-141357000D01*
X149477000Y-141397000D01*
X149461000Y-141435000D01*
X149443000Y-141473000D01*
X149423000Y-141510000D01*
X149401000Y-141546000D01*
X149377000Y-141580000D01*
X149352000Y-141613000D01*
X149325000Y-141645000D01*
X149296000Y-141676000D01*
X149265000Y-141705000D01*
X149233000Y-141732000D01*
X149200000Y-141757000D01*
X149166000Y-141781000D01*
X149130000Y-141803000D01*
X149093000Y-141823000D01*
X149055000Y-141841000D01*
X149017000Y-141857000D01*
X148977000Y-141871000D01*
X148937000Y-141883000D01*
X148896000Y-141893000D01*
X148855000Y-141900000D01*
X148814000Y-141906000D01*
X148772000Y-141909000D01*
X148730000Y-141910000D01*
X148688000Y-141909000D01*
X148646000Y-141906000D01*
X148605000Y-141900000D01*
X148564000Y-141893000D01*
X148523000Y-141883000D01*
X148483000Y-141871000D01*
X148443000Y-141857000D01*
X148405000Y-141841000D01*
X148367000Y-141823000D01*
X148330000Y-141803000D01*
X148294000Y-141781000D01*
X148260000Y-141757000D01*
X148227000Y-141732000D01*
X148195000Y-141705000D01*
X148164000Y-141676000D01*
X148135000Y-141645000D01*
X148108000Y-141613000D01*
X148083000Y-141580000D01*
X148059000Y-141546000D01*
X148037000Y-141510000D01*
X148017000Y-141473000D01*
X147999000Y-141435000D01*
X147983000Y-141397000D01*
X147969000Y-141357000D01*
X147957000Y-141317000D01*
X147947000Y-141276000D01*
X147940000Y-141235000D01*
X147934000Y-141194000D01*
X147931000Y-141152000D01*
X147930000Y-141110000D01*
X147930000Y-138710000D01*
X149530000Y-138710000D01*
X149530000Y-141110000D01*
G36*
X149530000Y-141110000D02*
G01*
X149529000Y-141152000D01*
X149526000Y-141194000D01*
X149520000Y-141235000D01*
X149513000Y-141276000D01*
X149503000Y-141317000D01*
X149491000Y-141357000D01*
X149477000Y-141397000D01*
X149461000Y-141435000D01*
X149443000Y-141473000D01*
X149423000Y-141510000D01*
X149401000Y-141546000D01*
X149377000Y-141580000D01*
X149352000Y-141613000D01*
X149325000Y-141645000D01*
X149296000Y-141676000D01*
X149265000Y-141705000D01*
X149233000Y-141732000D01*
X149200000Y-141757000D01*
X149166000Y-141781000D01*
X149130000Y-141803000D01*
X149093000Y-141823000D01*
X149055000Y-141841000D01*
X149017000Y-141857000D01*
X148977000Y-141871000D01*
X148937000Y-141883000D01*
X148896000Y-141893000D01*
X148855000Y-141900000D01*
X148814000Y-141906000D01*
X148772000Y-141909000D01*
X148730000Y-141910000D01*
X148688000Y-141909000D01*
X148646000Y-141906000D01*
X148605000Y-141900000D01*
X148564000Y-141893000D01*
X148523000Y-141883000D01*
X148483000Y-141871000D01*
X148443000Y-141857000D01*
X148405000Y-141841000D01*
X148367000Y-141823000D01*
X148330000Y-141803000D01*
X148294000Y-141781000D01*
X148260000Y-141757000D01*
X148227000Y-141732000D01*
X148195000Y-141705000D01*
X148164000Y-141676000D01*
X148135000Y-141645000D01*
X148108000Y-141613000D01*
X148083000Y-141580000D01*
X148059000Y-141546000D01*
X148037000Y-141510000D01*
X148017000Y-141473000D01*
X147999000Y-141435000D01*
X147983000Y-141397000D01*
X147969000Y-141357000D01*
X147957000Y-141317000D01*
X147947000Y-141276000D01*
X147940000Y-141235000D01*
X147934000Y-141194000D01*
X147931000Y-141152000D01*
X147930000Y-141110000D01*
X147930000Y-138710000D01*
X149530000Y-138710000D01*
X149530000Y-141110000D01*
G37*
X152070000Y-141110000D02*
X152069000Y-141152000D01*
X152066000Y-141194000D01*
X152060000Y-141235000D01*
X152053000Y-141276000D01*
X152043000Y-141317000D01*
X152031000Y-141357000D01*
X152017000Y-141397000D01*
X152001000Y-141435000D01*
X151983000Y-141473000D01*
X151963000Y-141510000D01*
X151941000Y-141546000D01*
X151917000Y-141580000D01*
X151892000Y-141613000D01*
X151865000Y-141645000D01*
X151836000Y-141676000D01*
X151805000Y-141705000D01*
X151773000Y-141732000D01*
X151740000Y-141757000D01*
X151706000Y-141781000D01*
X151670000Y-141803000D01*
X151633000Y-141823000D01*
X151595000Y-141841000D01*
X151557000Y-141857000D01*
X151517000Y-141871000D01*
X151477000Y-141883000D01*
X151436000Y-141893000D01*
X151395000Y-141900000D01*
X151354000Y-141906000D01*
X151312000Y-141909000D01*
X151270000Y-141910000D01*
X151228000Y-141909000D01*
X151186000Y-141906000D01*
X151145000Y-141900000D01*
X151104000Y-141893000D01*
X151063000Y-141883000D01*
X151023000Y-141871000D01*
X150983000Y-141857000D01*
X150945000Y-141841000D01*
X150907000Y-141823000D01*
X150870000Y-141803000D01*
X150834000Y-141781000D01*
X150800000Y-141757000D01*
X150767000Y-141732000D01*
X150735000Y-141705000D01*
X150704000Y-141676000D01*
X150675000Y-141645000D01*
X150648000Y-141613000D01*
X150623000Y-141580000D01*
X150599000Y-141546000D01*
X150577000Y-141510000D01*
X150557000Y-141473000D01*
X150539000Y-141435000D01*
X150523000Y-141397000D01*
X150509000Y-141357000D01*
X150497000Y-141317000D01*
X150487000Y-141276000D01*
X150480000Y-141235000D01*
X150474000Y-141194000D01*
X150471000Y-141152000D01*
X150470000Y-141110000D01*
X150470000Y-138710000D01*
X152070000Y-138710000D01*
X152070000Y-141110000D01*
G36*
X152070000Y-141110000D02*
G01*
X152069000Y-141152000D01*
X152066000Y-141194000D01*
X152060000Y-141235000D01*
X152053000Y-141276000D01*
X152043000Y-141317000D01*
X152031000Y-141357000D01*
X152017000Y-141397000D01*
X152001000Y-141435000D01*
X151983000Y-141473000D01*
X151963000Y-141510000D01*
X151941000Y-141546000D01*
X151917000Y-141580000D01*
X151892000Y-141613000D01*
X151865000Y-141645000D01*
X151836000Y-141676000D01*
X151805000Y-141705000D01*
X151773000Y-141732000D01*
X151740000Y-141757000D01*
X151706000Y-141781000D01*
X151670000Y-141803000D01*
X151633000Y-141823000D01*
X151595000Y-141841000D01*
X151557000Y-141857000D01*
X151517000Y-141871000D01*
X151477000Y-141883000D01*
X151436000Y-141893000D01*
X151395000Y-141900000D01*
X151354000Y-141906000D01*
X151312000Y-141909000D01*
X151270000Y-141910000D01*
X151228000Y-141909000D01*
X151186000Y-141906000D01*
X151145000Y-141900000D01*
X151104000Y-141893000D01*
X151063000Y-141883000D01*
X151023000Y-141871000D01*
X150983000Y-141857000D01*
X150945000Y-141841000D01*
X150907000Y-141823000D01*
X150870000Y-141803000D01*
X150834000Y-141781000D01*
X150800000Y-141757000D01*
X150767000Y-141732000D01*
X150735000Y-141705000D01*
X150704000Y-141676000D01*
X150675000Y-141645000D01*
X150648000Y-141613000D01*
X150623000Y-141580000D01*
X150599000Y-141546000D01*
X150577000Y-141510000D01*
X150557000Y-141473000D01*
X150539000Y-141435000D01*
X150523000Y-141397000D01*
X150509000Y-141357000D01*
X150497000Y-141317000D01*
X150487000Y-141276000D01*
X150480000Y-141235000D01*
X150474000Y-141194000D01*
X150471000Y-141152000D01*
X150470000Y-141110000D01*
X150470000Y-138710000D01*
X152070000Y-138710000D01*
X152070000Y-141110000D01*
G37*
X154610000Y-141110000D02*
X154609000Y-141152000D01*
X154606000Y-141194000D01*
X154600000Y-141235000D01*
X154593000Y-141276000D01*
X154583000Y-141317000D01*
X154571000Y-141357000D01*
X154557000Y-141397000D01*
X154541000Y-141435000D01*
X154523000Y-141473000D01*
X154503000Y-141510000D01*
X154481000Y-141546000D01*
X154457000Y-141580000D01*
X154432000Y-141613000D01*
X154405000Y-141645000D01*
X154376000Y-141676000D01*
X154345000Y-141705000D01*
X154313000Y-141732000D01*
X154280000Y-141757000D01*
X154246000Y-141781000D01*
X154210000Y-141803000D01*
X154173000Y-141823000D01*
X154135000Y-141841000D01*
X154097000Y-141857000D01*
X154057000Y-141871000D01*
X154017000Y-141883000D01*
X153976000Y-141893000D01*
X153935000Y-141900000D01*
X153894000Y-141906000D01*
X153852000Y-141909000D01*
X153810000Y-141910000D01*
X153768000Y-141909000D01*
X153726000Y-141906000D01*
X153685000Y-141900000D01*
X153644000Y-141893000D01*
X153603000Y-141883000D01*
X153563000Y-141871000D01*
X153523000Y-141857000D01*
X153485000Y-141841000D01*
X153447000Y-141823000D01*
X153410000Y-141803000D01*
X153374000Y-141781000D01*
X153340000Y-141757000D01*
X153307000Y-141732000D01*
X153275000Y-141705000D01*
X153244000Y-141676000D01*
X153215000Y-141645000D01*
X153188000Y-141613000D01*
X153163000Y-141580000D01*
X153139000Y-141546000D01*
X153117000Y-141510000D01*
X153097000Y-141473000D01*
X153079000Y-141435000D01*
X153063000Y-141397000D01*
X153049000Y-141357000D01*
X153037000Y-141317000D01*
X153027000Y-141276000D01*
X153020000Y-141235000D01*
X153014000Y-141194000D01*
X153011000Y-141152000D01*
X153010000Y-141110000D01*
X153010000Y-138710000D01*
X154610000Y-138710000D01*
X154610000Y-141110000D01*
G36*
X154610000Y-141110000D02*
G01*
X154609000Y-141152000D01*
X154606000Y-141194000D01*
X154600000Y-141235000D01*
X154593000Y-141276000D01*
X154583000Y-141317000D01*
X154571000Y-141357000D01*
X154557000Y-141397000D01*
X154541000Y-141435000D01*
X154523000Y-141473000D01*
X154503000Y-141510000D01*
X154481000Y-141546000D01*
X154457000Y-141580000D01*
X154432000Y-141613000D01*
X154405000Y-141645000D01*
X154376000Y-141676000D01*
X154345000Y-141705000D01*
X154313000Y-141732000D01*
X154280000Y-141757000D01*
X154246000Y-141781000D01*
X154210000Y-141803000D01*
X154173000Y-141823000D01*
X154135000Y-141841000D01*
X154097000Y-141857000D01*
X154057000Y-141871000D01*
X154017000Y-141883000D01*
X153976000Y-141893000D01*
X153935000Y-141900000D01*
X153894000Y-141906000D01*
X153852000Y-141909000D01*
X153810000Y-141910000D01*
X153768000Y-141909000D01*
X153726000Y-141906000D01*
X153685000Y-141900000D01*
X153644000Y-141893000D01*
X153603000Y-141883000D01*
X153563000Y-141871000D01*
X153523000Y-141857000D01*
X153485000Y-141841000D01*
X153447000Y-141823000D01*
X153410000Y-141803000D01*
X153374000Y-141781000D01*
X153340000Y-141757000D01*
X153307000Y-141732000D01*
X153275000Y-141705000D01*
X153244000Y-141676000D01*
X153215000Y-141645000D01*
X153188000Y-141613000D01*
X153163000Y-141580000D01*
X153139000Y-141546000D01*
X153117000Y-141510000D01*
X153097000Y-141473000D01*
X153079000Y-141435000D01*
X153063000Y-141397000D01*
X153049000Y-141357000D01*
X153037000Y-141317000D01*
X153027000Y-141276000D01*
X153020000Y-141235000D01*
X153014000Y-141194000D01*
X153011000Y-141152000D01*
X153010000Y-141110000D01*
X153010000Y-138710000D01*
X154610000Y-138710000D01*
X154610000Y-141110000D01*
G37*
X159690000Y-141110000D02*
X159689000Y-141152000D01*
X159686000Y-141194000D01*
X159680000Y-141235000D01*
X159673000Y-141276000D01*
X159663000Y-141317000D01*
X159651000Y-141357000D01*
X159637000Y-141397000D01*
X159621000Y-141435000D01*
X159603000Y-141473000D01*
X159583000Y-141510000D01*
X159561000Y-141546000D01*
X159537000Y-141580000D01*
X159512000Y-141613000D01*
X159485000Y-141645000D01*
X159456000Y-141676000D01*
X159425000Y-141705000D01*
X159393000Y-141732000D01*
X159360000Y-141757000D01*
X159326000Y-141781000D01*
X159290000Y-141803000D01*
X159253000Y-141823000D01*
X159215000Y-141841000D01*
X159177000Y-141857000D01*
X159137000Y-141871000D01*
X159097000Y-141883000D01*
X159056000Y-141893000D01*
X159015000Y-141900000D01*
X158974000Y-141906000D01*
X158932000Y-141909000D01*
X158890000Y-141910000D01*
X158848000Y-141909000D01*
X158806000Y-141906000D01*
X158765000Y-141900000D01*
X158724000Y-141893000D01*
X158683000Y-141883000D01*
X158643000Y-141871000D01*
X158603000Y-141857000D01*
X158565000Y-141841000D01*
X158527000Y-141823000D01*
X158490000Y-141803000D01*
X158454000Y-141781000D01*
X158420000Y-141757000D01*
X158387000Y-141732000D01*
X158355000Y-141705000D01*
X158324000Y-141676000D01*
X158295000Y-141645000D01*
X158268000Y-141613000D01*
X158243000Y-141580000D01*
X158219000Y-141546000D01*
X158197000Y-141510000D01*
X158177000Y-141473000D01*
X158159000Y-141435000D01*
X158143000Y-141397000D01*
X158129000Y-141357000D01*
X158117000Y-141317000D01*
X158107000Y-141276000D01*
X158100000Y-141235000D01*
X158094000Y-141194000D01*
X158091000Y-141152000D01*
X158090000Y-141110000D01*
X158090000Y-138710000D01*
X159690000Y-138710000D01*
X159690000Y-141110000D01*
G36*
X159690000Y-141110000D02*
G01*
X159689000Y-141152000D01*
X159686000Y-141194000D01*
X159680000Y-141235000D01*
X159673000Y-141276000D01*
X159663000Y-141317000D01*
X159651000Y-141357000D01*
X159637000Y-141397000D01*
X159621000Y-141435000D01*
X159603000Y-141473000D01*
X159583000Y-141510000D01*
X159561000Y-141546000D01*
X159537000Y-141580000D01*
X159512000Y-141613000D01*
X159485000Y-141645000D01*
X159456000Y-141676000D01*
X159425000Y-141705000D01*
X159393000Y-141732000D01*
X159360000Y-141757000D01*
X159326000Y-141781000D01*
X159290000Y-141803000D01*
X159253000Y-141823000D01*
X159215000Y-141841000D01*
X159177000Y-141857000D01*
X159137000Y-141871000D01*
X159097000Y-141883000D01*
X159056000Y-141893000D01*
X159015000Y-141900000D01*
X158974000Y-141906000D01*
X158932000Y-141909000D01*
X158890000Y-141910000D01*
X158848000Y-141909000D01*
X158806000Y-141906000D01*
X158765000Y-141900000D01*
X158724000Y-141893000D01*
X158683000Y-141883000D01*
X158643000Y-141871000D01*
X158603000Y-141857000D01*
X158565000Y-141841000D01*
X158527000Y-141823000D01*
X158490000Y-141803000D01*
X158454000Y-141781000D01*
X158420000Y-141757000D01*
X158387000Y-141732000D01*
X158355000Y-141705000D01*
X158324000Y-141676000D01*
X158295000Y-141645000D01*
X158268000Y-141613000D01*
X158243000Y-141580000D01*
X158219000Y-141546000D01*
X158197000Y-141510000D01*
X158177000Y-141473000D01*
X158159000Y-141435000D01*
X158143000Y-141397000D01*
X158129000Y-141357000D01*
X158117000Y-141317000D01*
X158107000Y-141276000D01*
X158100000Y-141235000D01*
X158094000Y-141194000D01*
X158091000Y-141152000D01*
X158090000Y-141110000D01*
X158090000Y-138710000D01*
X159690000Y-138710000D01*
X159690000Y-141110000D01*
G37*
X162230000Y-141110000D02*
X162229000Y-141152000D01*
X162226000Y-141194000D01*
X162220000Y-141235000D01*
X162213000Y-141276000D01*
X162203000Y-141317000D01*
X162191000Y-141357000D01*
X162177000Y-141397000D01*
X162161000Y-141435000D01*
X162143000Y-141473000D01*
X162123000Y-141510000D01*
X162101000Y-141546000D01*
X162077000Y-141580000D01*
X162052000Y-141613000D01*
X162025000Y-141645000D01*
X161996000Y-141676000D01*
X161965000Y-141705000D01*
X161933000Y-141732000D01*
X161900000Y-141757000D01*
X161866000Y-141781000D01*
X161830000Y-141803000D01*
X161793000Y-141823000D01*
X161755000Y-141841000D01*
X161717000Y-141857000D01*
X161677000Y-141871000D01*
X161637000Y-141883000D01*
X161596000Y-141893000D01*
X161555000Y-141900000D01*
X161514000Y-141906000D01*
X161472000Y-141909000D01*
X161430000Y-141910000D01*
X161388000Y-141909000D01*
X161346000Y-141906000D01*
X161305000Y-141900000D01*
X161264000Y-141893000D01*
X161223000Y-141883000D01*
X161183000Y-141871000D01*
X161143000Y-141857000D01*
X161105000Y-141841000D01*
X161067000Y-141823000D01*
X161030000Y-141803000D01*
X160994000Y-141781000D01*
X160960000Y-141757000D01*
X160927000Y-141732000D01*
X160895000Y-141705000D01*
X160864000Y-141676000D01*
X160835000Y-141645000D01*
X160808000Y-141613000D01*
X160783000Y-141580000D01*
X160759000Y-141546000D01*
X160737000Y-141510000D01*
X160717000Y-141473000D01*
X160699000Y-141435000D01*
X160683000Y-141397000D01*
X160669000Y-141357000D01*
X160657000Y-141317000D01*
X160647000Y-141276000D01*
X160640000Y-141235000D01*
X160634000Y-141194000D01*
X160631000Y-141152000D01*
X160630000Y-141110000D01*
X160630000Y-138710000D01*
X162230000Y-138710000D01*
X162230000Y-141110000D01*
G36*
X162230000Y-141110000D02*
G01*
X162229000Y-141152000D01*
X162226000Y-141194000D01*
X162220000Y-141235000D01*
X162213000Y-141276000D01*
X162203000Y-141317000D01*
X162191000Y-141357000D01*
X162177000Y-141397000D01*
X162161000Y-141435000D01*
X162143000Y-141473000D01*
X162123000Y-141510000D01*
X162101000Y-141546000D01*
X162077000Y-141580000D01*
X162052000Y-141613000D01*
X162025000Y-141645000D01*
X161996000Y-141676000D01*
X161965000Y-141705000D01*
X161933000Y-141732000D01*
X161900000Y-141757000D01*
X161866000Y-141781000D01*
X161830000Y-141803000D01*
X161793000Y-141823000D01*
X161755000Y-141841000D01*
X161717000Y-141857000D01*
X161677000Y-141871000D01*
X161637000Y-141883000D01*
X161596000Y-141893000D01*
X161555000Y-141900000D01*
X161514000Y-141906000D01*
X161472000Y-141909000D01*
X161430000Y-141910000D01*
X161388000Y-141909000D01*
X161346000Y-141906000D01*
X161305000Y-141900000D01*
X161264000Y-141893000D01*
X161223000Y-141883000D01*
X161183000Y-141871000D01*
X161143000Y-141857000D01*
X161105000Y-141841000D01*
X161067000Y-141823000D01*
X161030000Y-141803000D01*
X160994000Y-141781000D01*
X160960000Y-141757000D01*
X160927000Y-141732000D01*
X160895000Y-141705000D01*
X160864000Y-141676000D01*
X160835000Y-141645000D01*
X160808000Y-141613000D01*
X160783000Y-141580000D01*
X160759000Y-141546000D01*
X160737000Y-141510000D01*
X160717000Y-141473000D01*
X160699000Y-141435000D01*
X160683000Y-141397000D01*
X160669000Y-141357000D01*
X160657000Y-141317000D01*
X160647000Y-141276000D01*
X160640000Y-141235000D01*
X160634000Y-141194000D01*
X160631000Y-141152000D01*
X160630000Y-141110000D01*
X160630000Y-138710000D01*
X162230000Y-138710000D01*
X162230000Y-141110000D01*
G37*
X164770000Y-141110000D02*
X164769000Y-141152000D01*
X164766000Y-141194000D01*
X164760000Y-141235000D01*
X164753000Y-141276000D01*
X164743000Y-141317000D01*
X164731000Y-141357000D01*
X164717000Y-141397000D01*
X164701000Y-141435000D01*
X164683000Y-141473000D01*
X164663000Y-141510000D01*
X164641000Y-141546000D01*
X164617000Y-141580000D01*
X164592000Y-141613000D01*
X164565000Y-141645000D01*
X164536000Y-141676000D01*
X164505000Y-141705000D01*
X164473000Y-141732000D01*
X164440000Y-141757000D01*
X164406000Y-141781000D01*
X164370000Y-141803000D01*
X164333000Y-141823000D01*
X164295000Y-141841000D01*
X164257000Y-141857000D01*
X164217000Y-141871000D01*
X164177000Y-141883000D01*
X164136000Y-141893000D01*
X164095000Y-141900000D01*
X164054000Y-141906000D01*
X164012000Y-141909000D01*
X163970000Y-141910000D01*
X163928000Y-141909000D01*
X163886000Y-141906000D01*
X163845000Y-141900000D01*
X163804000Y-141893000D01*
X163763000Y-141883000D01*
X163723000Y-141871000D01*
X163683000Y-141857000D01*
X163645000Y-141841000D01*
X163607000Y-141823000D01*
X163570000Y-141803000D01*
X163534000Y-141781000D01*
X163500000Y-141757000D01*
X163467000Y-141732000D01*
X163435000Y-141705000D01*
X163404000Y-141676000D01*
X163375000Y-141645000D01*
X163348000Y-141613000D01*
X163323000Y-141580000D01*
X163299000Y-141546000D01*
X163277000Y-141510000D01*
X163257000Y-141473000D01*
X163239000Y-141435000D01*
X163223000Y-141397000D01*
X163209000Y-141357000D01*
X163197000Y-141317000D01*
X163187000Y-141276000D01*
X163180000Y-141235000D01*
X163174000Y-141194000D01*
X163171000Y-141152000D01*
X163170000Y-141110000D01*
X163170000Y-138710000D01*
X164770000Y-138710000D01*
X164770000Y-141110000D01*
G36*
X164770000Y-141110000D02*
G01*
X164769000Y-141152000D01*
X164766000Y-141194000D01*
X164760000Y-141235000D01*
X164753000Y-141276000D01*
X164743000Y-141317000D01*
X164731000Y-141357000D01*
X164717000Y-141397000D01*
X164701000Y-141435000D01*
X164683000Y-141473000D01*
X164663000Y-141510000D01*
X164641000Y-141546000D01*
X164617000Y-141580000D01*
X164592000Y-141613000D01*
X164565000Y-141645000D01*
X164536000Y-141676000D01*
X164505000Y-141705000D01*
X164473000Y-141732000D01*
X164440000Y-141757000D01*
X164406000Y-141781000D01*
X164370000Y-141803000D01*
X164333000Y-141823000D01*
X164295000Y-141841000D01*
X164257000Y-141857000D01*
X164217000Y-141871000D01*
X164177000Y-141883000D01*
X164136000Y-141893000D01*
X164095000Y-141900000D01*
X164054000Y-141906000D01*
X164012000Y-141909000D01*
X163970000Y-141910000D01*
X163928000Y-141909000D01*
X163886000Y-141906000D01*
X163845000Y-141900000D01*
X163804000Y-141893000D01*
X163763000Y-141883000D01*
X163723000Y-141871000D01*
X163683000Y-141857000D01*
X163645000Y-141841000D01*
X163607000Y-141823000D01*
X163570000Y-141803000D01*
X163534000Y-141781000D01*
X163500000Y-141757000D01*
X163467000Y-141732000D01*
X163435000Y-141705000D01*
X163404000Y-141676000D01*
X163375000Y-141645000D01*
X163348000Y-141613000D01*
X163323000Y-141580000D01*
X163299000Y-141546000D01*
X163277000Y-141510000D01*
X163257000Y-141473000D01*
X163239000Y-141435000D01*
X163223000Y-141397000D01*
X163209000Y-141357000D01*
X163197000Y-141317000D01*
X163187000Y-141276000D01*
X163180000Y-141235000D01*
X163174000Y-141194000D01*
X163171000Y-141152000D01*
X163170000Y-141110000D01*
X163170000Y-138710000D01*
X164770000Y-138710000D01*
X164770000Y-141110000D01*
G37*
X167310000Y-141110000D02*
X167309000Y-141152000D01*
X167306000Y-141194000D01*
X167300000Y-141235000D01*
X167293000Y-141276000D01*
X167283000Y-141317000D01*
X167271000Y-141357000D01*
X167257000Y-141397000D01*
X167241000Y-141435000D01*
X167223000Y-141473000D01*
X167203000Y-141510000D01*
X167181000Y-141546000D01*
X167157000Y-141580000D01*
X167132000Y-141613000D01*
X167105000Y-141645000D01*
X167076000Y-141676000D01*
X167045000Y-141705000D01*
X167013000Y-141732000D01*
X166980000Y-141757000D01*
X166946000Y-141781000D01*
X166910000Y-141803000D01*
X166873000Y-141823000D01*
X166835000Y-141841000D01*
X166797000Y-141857000D01*
X166757000Y-141871000D01*
X166717000Y-141883000D01*
X166676000Y-141893000D01*
X166635000Y-141900000D01*
X166594000Y-141906000D01*
X166552000Y-141909000D01*
X166510000Y-141910000D01*
X166468000Y-141909000D01*
X166426000Y-141906000D01*
X166385000Y-141900000D01*
X166344000Y-141893000D01*
X166303000Y-141883000D01*
X166263000Y-141871000D01*
X166223000Y-141857000D01*
X166185000Y-141841000D01*
X166147000Y-141823000D01*
X166110000Y-141803000D01*
X166074000Y-141781000D01*
X166040000Y-141757000D01*
X166007000Y-141732000D01*
X165975000Y-141705000D01*
X165944000Y-141676000D01*
X165915000Y-141645000D01*
X165888000Y-141613000D01*
X165863000Y-141580000D01*
X165839000Y-141546000D01*
X165817000Y-141510000D01*
X165797000Y-141473000D01*
X165779000Y-141435000D01*
X165763000Y-141397000D01*
X165749000Y-141357000D01*
X165737000Y-141317000D01*
X165727000Y-141276000D01*
X165720000Y-141235000D01*
X165714000Y-141194000D01*
X165711000Y-141152000D01*
X165710000Y-141110000D01*
X165710000Y-138710000D01*
X167310000Y-138710000D01*
X167310000Y-141110000D01*
G36*
X167310000Y-141110000D02*
G01*
X167309000Y-141152000D01*
X167306000Y-141194000D01*
X167300000Y-141235000D01*
X167293000Y-141276000D01*
X167283000Y-141317000D01*
X167271000Y-141357000D01*
X167257000Y-141397000D01*
X167241000Y-141435000D01*
X167223000Y-141473000D01*
X167203000Y-141510000D01*
X167181000Y-141546000D01*
X167157000Y-141580000D01*
X167132000Y-141613000D01*
X167105000Y-141645000D01*
X167076000Y-141676000D01*
X167045000Y-141705000D01*
X167013000Y-141732000D01*
X166980000Y-141757000D01*
X166946000Y-141781000D01*
X166910000Y-141803000D01*
X166873000Y-141823000D01*
X166835000Y-141841000D01*
X166797000Y-141857000D01*
X166757000Y-141871000D01*
X166717000Y-141883000D01*
X166676000Y-141893000D01*
X166635000Y-141900000D01*
X166594000Y-141906000D01*
X166552000Y-141909000D01*
X166510000Y-141910000D01*
X166468000Y-141909000D01*
X166426000Y-141906000D01*
X166385000Y-141900000D01*
X166344000Y-141893000D01*
X166303000Y-141883000D01*
X166263000Y-141871000D01*
X166223000Y-141857000D01*
X166185000Y-141841000D01*
X166147000Y-141823000D01*
X166110000Y-141803000D01*
X166074000Y-141781000D01*
X166040000Y-141757000D01*
X166007000Y-141732000D01*
X165975000Y-141705000D01*
X165944000Y-141676000D01*
X165915000Y-141645000D01*
X165888000Y-141613000D01*
X165863000Y-141580000D01*
X165839000Y-141546000D01*
X165817000Y-141510000D01*
X165797000Y-141473000D01*
X165779000Y-141435000D01*
X165763000Y-141397000D01*
X165749000Y-141357000D01*
X165737000Y-141317000D01*
X165727000Y-141276000D01*
X165720000Y-141235000D01*
X165714000Y-141194000D01*
X165711000Y-141152000D01*
X165710000Y-141110000D01*
X165710000Y-138710000D01*
X167310000Y-138710000D01*
X167310000Y-141110000D01*
G37*
X172390000Y-141110000D02*
X172389000Y-141152000D01*
X172386000Y-141194000D01*
X172380000Y-141235000D01*
X172373000Y-141276000D01*
X172363000Y-141317000D01*
X172351000Y-141357000D01*
X172337000Y-141397000D01*
X172321000Y-141435000D01*
X172303000Y-141473000D01*
X172283000Y-141510000D01*
X172261000Y-141546000D01*
X172237000Y-141580000D01*
X172212000Y-141613000D01*
X172185000Y-141645000D01*
X172156000Y-141676000D01*
X172125000Y-141705000D01*
X172093000Y-141732000D01*
X172060000Y-141757000D01*
X172026000Y-141781000D01*
X171990000Y-141803000D01*
X171953000Y-141823000D01*
X171915000Y-141841000D01*
X171877000Y-141857000D01*
X171837000Y-141871000D01*
X171797000Y-141883000D01*
X171756000Y-141893000D01*
X171715000Y-141900000D01*
X171674000Y-141906000D01*
X171632000Y-141909000D01*
X171590000Y-141910000D01*
X171548000Y-141909000D01*
X171506000Y-141906000D01*
X171465000Y-141900000D01*
X171424000Y-141893000D01*
X171383000Y-141883000D01*
X171343000Y-141871000D01*
X171303000Y-141857000D01*
X171265000Y-141841000D01*
X171227000Y-141823000D01*
X171190000Y-141803000D01*
X171154000Y-141781000D01*
X171120000Y-141757000D01*
X171087000Y-141732000D01*
X171055000Y-141705000D01*
X171024000Y-141676000D01*
X170995000Y-141645000D01*
X170968000Y-141613000D01*
X170943000Y-141580000D01*
X170919000Y-141546000D01*
X170897000Y-141510000D01*
X170877000Y-141473000D01*
X170859000Y-141435000D01*
X170843000Y-141397000D01*
X170829000Y-141357000D01*
X170817000Y-141317000D01*
X170807000Y-141276000D01*
X170800000Y-141235000D01*
X170794000Y-141194000D01*
X170791000Y-141152000D01*
X170790000Y-141110000D01*
X170790000Y-138710000D01*
X172390000Y-138710000D01*
X172390000Y-141110000D01*
G36*
X172390000Y-141110000D02*
G01*
X172389000Y-141152000D01*
X172386000Y-141194000D01*
X172380000Y-141235000D01*
X172373000Y-141276000D01*
X172363000Y-141317000D01*
X172351000Y-141357000D01*
X172337000Y-141397000D01*
X172321000Y-141435000D01*
X172303000Y-141473000D01*
X172283000Y-141510000D01*
X172261000Y-141546000D01*
X172237000Y-141580000D01*
X172212000Y-141613000D01*
X172185000Y-141645000D01*
X172156000Y-141676000D01*
X172125000Y-141705000D01*
X172093000Y-141732000D01*
X172060000Y-141757000D01*
X172026000Y-141781000D01*
X171990000Y-141803000D01*
X171953000Y-141823000D01*
X171915000Y-141841000D01*
X171877000Y-141857000D01*
X171837000Y-141871000D01*
X171797000Y-141883000D01*
X171756000Y-141893000D01*
X171715000Y-141900000D01*
X171674000Y-141906000D01*
X171632000Y-141909000D01*
X171590000Y-141910000D01*
X171548000Y-141909000D01*
X171506000Y-141906000D01*
X171465000Y-141900000D01*
X171424000Y-141893000D01*
X171383000Y-141883000D01*
X171343000Y-141871000D01*
X171303000Y-141857000D01*
X171265000Y-141841000D01*
X171227000Y-141823000D01*
X171190000Y-141803000D01*
X171154000Y-141781000D01*
X171120000Y-141757000D01*
X171087000Y-141732000D01*
X171055000Y-141705000D01*
X171024000Y-141676000D01*
X170995000Y-141645000D01*
X170968000Y-141613000D01*
X170943000Y-141580000D01*
X170919000Y-141546000D01*
X170897000Y-141510000D01*
X170877000Y-141473000D01*
X170859000Y-141435000D01*
X170843000Y-141397000D01*
X170829000Y-141357000D01*
X170817000Y-141317000D01*
X170807000Y-141276000D01*
X170800000Y-141235000D01*
X170794000Y-141194000D01*
X170791000Y-141152000D01*
X170790000Y-141110000D01*
X170790000Y-138710000D01*
X172390000Y-138710000D01*
X172390000Y-141110000D01*
G37*
X174930000Y-141110000D02*
X174929000Y-141152000D01*
X174926000Y-141194000D01*
X174920000Y-141235000D01*
X174913000Y-141276000D01*
X174903000Y-141317000D01*
X174891000Y-141357000D01*
X174877000Y-141397000D01*
X174861000Y-141435000D01*
X174843000Y-141473000D01*
X174823000Y-141510000D01*
X174801000Y-141546000D01*
X174777000Y-141580000D01*
X174752000Y-141613000D01*
X174725000Y-141645000D01*
X174696000Y-141676000D01*
X174665000Y-141705000D01*
X174633000Y-141732000D01*
X174600000Y-141757000D01*
X174566000Y-141781000D01*
X174530000Y-141803000D01*
X174493000Y-141823000D01*
X174455000Y-141841000D01*
X174417000Y-141857000D01*
X174377000Y-141871000D01*
X174337000Y-141883000D01*
X174296000Y-141893000D01*
X174255000Y-141900000D01*
X174214000Y-141906000D01*
X174172000Y-141909000D01*
X174130000Y-141910000D01*
X174088000Y-141909000D01*
X174046000Y-141906000D01*
X174005000Y-141900000D01*
X173964000Y-141893000D01*
X173923000Y-141883000D01*
X173883000Y-141871000D01*
X173843000Y-141857000D01*
X173805000Y-141841000D01*
X173767000Y-141823000D01*
X173730000Y-141803000D01*
X173694000Y-141781000D01*
X173660000Y-141757000D01*
X173627000Y-141732000D01*
X173595000Y-141705000D01*
X173564000Y-141676000D01*
X173535000Y-141645000D01*
X173508000Y-141613000D01*
X173483000Y-141580000D01*
X173459000Y-141546000D01*
X173437000Y-141510000D01*
X173417000Y-141473000D01*
X173399000Y-141435000D01*
X173383000Y-141397000D01*
X173369000Y-141357000D01*
X173357000Y-141317000D01*
X173347000Y-141276000D01*
X173340000Y-141235000D01*
X173334000Y-141194000D01*
X173331000Y-141152000D01*
X173330000Y-141110000D01*
X173330000Y-138710000D01*
X174930000Y-138710000D01*
X174930000Y-141110000D01*
G36*
X174930000Y-141110000D02*
G01*
X174929000Y-141152000D01*
X174926000Y-141194000D01*
X174920000Y-141235000D01*
X174913000Y-141276000D01*
X174903000Y-141317000D01*
X174891000Y-141357000D01*
X174877000Y-141397000D01*
X174861000Y-141435000D01*
X174843000Y-141473000D01*
X174823000Y-141510000D01*
X174801000Y-141546000D01*
X174777000Y-141580000D01*
X174752000Y-141613000D01*
X174725000Y-141645000D01*
X174696000Y-141676000D01*
X174665000Y-141705000D01*
X174633000Y-141732000D01*
X174600000Y-141757000D01*
X174566000Y-141781000D01*
X174530000Y-141803000D01*
X174493000Y-141823000D01*
X174455000Y-141841000D01*
X174417000Y-141857000D01*
X174377000Y-141871000D01*
X174337000Y-141883000D01*
X174296000Y-141893000D01*
X174255000Y-141900000D01*
X174214000Y-141906000D01*
X174172000Y-141909000D01*
X174130000Y-141910000D01*
X174088000Y-141909000D01*
X174046000Y-141906000D01*
X174005000Y-141900000D01*
X173964000Y-141893000D01*
X173923000Y-141883000D01*
X173883000Y-141871000D01*
X173843000Y-141857000D01*
X173805000Y-141841000D01*
X173767000Y-141823000D01*
X173730000Y-141803000D01*
X173694000Y-141781000D01*
X173660000Y-141757000D01*
X173627000Y-141732000D01*
X173595000Y-141705000D01*
X173564000Y-141676000D01*
X173535000Y-141645000D01*
X173508000Y-141613000D01*
X173483000Y-141580000D01*
X173459000Y-141546000D01*
X173437000Y-141510000D01*
X173417000Y-141473000D01*
X173399000Y-141435000D01*
X173383000Y-141397000D01*
X173369000Y-141357000D01*
X173357000Y-141317000D01*
X173347000Y-141276000D01*
X173340000Y-141235000D01*
X173334000Y-141194000D01*
X173331000Y-141152000D01*
X173330000Y-141110000D01*
X173330000Y-138710000D01*
X174930000Y-138710000D01*
X174930000Y-141110000D01*
G37*
X131571000Y-158091000D02*
X131581000Y-158092000D01*
X131592000Y-158094000D01*
X131602000Y-158097000D01*
X131612000Y-158100000D01*
X131622000Y-158103000D01*
X131631000Y-158107000D01*
X131641000Y-158112000D01*
X131650000Y-158117000D01*
X131659000Y-158122000D01*
X131668000Y-158128000D01*
X131676000Y-158135000D01*
X131684000Y-158141000D01*
X131691000Y-158149000D01*
X131699000Y-158156000D01*
X131705000Y-158164000D01*
X131712000Y-158172000D01*
X131718000Y-158181000D01*
X131723000Y-158190000D01*
X131728000Y-158199000D01*
X131733000Y-158209000D01*
X131737000Y-158218000D01*
X131740000Y-158228000D01*
X131743000Y-158238000D01*
X131746000Y-158248000D01*
X131748000Y-158259000D01*
X131749000Y-158269000D01*
X131750000Y-158280000D01*
X131750000Y-158290000D01*
X131750000Y-161290000D01*
X130150000Y-161290000D01*
X130150000Y-158290000D01*
X130150000Y-158280000D01*
X130151000Y-158269000D01*
X130152000Y-158259000D01*
X130154000Y-158248000D01*
X130157000Y-158238000D01*
X130160000Y-158228000D01*
X130163000Y-158218000D01*
X130167000Y-158209000D01*
X130172000Y-158199000D01*
X130177000Y-158190000D01*
X130182000Y-158181000D01*
X130188000Y-158172000D01*
X130195000Y-158164000D01*
X130201000Y-158156000D01*
X130209000Y-158149000D01*
X130216000Y-158141000D01*
X130224000Y-158135000D01*
X130232000Y-158128000D01*
X130241000Y-158122000D01*
X130250000Y-158117000D01*
X130259000Y-158112000D01*
X130269000Y-158107000D01*
X130278000Y-158103000D01*
X130288000Y-158100000D01*
X130298000Y-158097000D01*
X130308000Y-158094000D01*
X130319000Y-158092000D01*
X130329000Y-158091000D01*
X130340000Y-158090000D01*
X130350000Y-158090000D01*
X131550000Y-158090000D01*
X131560000Y-158090000D01*
X131571000Y-158091000D01*
G36*
X131571000Y-158091000D02*
G01*
X131581000Y-158092000D01*
X131592000Y-158094000D01*
X131602000Y-158097000D01*
X131612000Y-158100000D01*
X131622000Y-158103000D01*
X131631000Y-158107000D01*
X131641000Y-158112000D01*
X131650000Y-158117000D01*
X131659000Y-158122000D01*
X131668000Y-158128000D01*
X131676000Y-158135000D01*
X131684000Y-158141000D01*
X131691000Y-158149000D01*
X131699000Y-158156000D01*
X131705000Y-158164000D01*
X131712000Y-158172000D01*
X131718000Y-158181000D01*
X131723000Y-158190000D01*
X131728000Y-158199000D01*
X131733000Y-158209000D01*
X131737000Y-158218000D01*
X131740000Y-158228000D01*
X131743000Y-158238000D01*
X131746000Y-158248000D01*
X131748000Y-158259000D01*
X131749000Y-158269000D01*
X131750000Y-158280000D01*
X131750000Y-158290000D01*
X131750000Y-161290000D01*
X130150000Y-161290000D01*
X130150000Y-158290000D01*
X130150000Y-158280000D01*
X130151000Y-158269000D01*
X130152000Y-158259000D01*
X130154000Y-158248000D01*
X130157000Y-158238000D01*
X130160000Y-158228000D01*
X130163000Y-158218000D01*
X130167000Y-158209000D01*
X130172000Y-158199000D01*
X130177000Y-158190000D01*
X130182000Y-158181000D01*
X130188000Y-158172000D01*
X130195000Y-158164000D01*
X130201000Y-158156000D01*
X130209000Y-158149000D01*
X130216000Y-158141000D01*
X130224000Y-158135000D01*
X130232000Y-158128000D01*
X130241000Y-158122000D01*
X130250000Y-158117000D01*
X130259000Y-158112000D01*
X130269000Y-158107000D01*
X130278000Y-158103000D01*
X130288000Y-158100000D01*
X130298000Y-158097000D01*
X130308000Y-158094000D01*
X130319000Y-158092000D01*
X130329000Y-158091000D01*
X130340000Y-158090000D01*
X130350000Y-158090000D01*
X131550000Y-158090000D01*
X131560000Y-158090000D01*
X131571000Y-158091000D01*
G37*
X144271000Y-158091000D02*
X144281000Y-158092000D01*
X144292000Y-158094000D01*
X144302000Y-158097000D01*
X144312000Y-158100000D01*
X144322000Y-158103000D01*
X144331000Y-158107000D01*
X144341000Y-158112000D01*
X144350000Y-158117000D01*
X144359000Y-158122000D01*
X144368000Y-158128000D01*
X144376000Y-158135000D01*
X144384000Y-158141000D01*
X144391000Y-158149000D01*
X144399000Y-158156000D01*
X144405000Y-158164000D01*
X144412000Y-158172000D01*
X144418000Y-158181000D01*
X144423000Y-158190000D01*
X144428000Y-158199000D01*
X144433000Y-158209000D01*
X144437000Y-158218000D01*
X144440000Y-158228000D01*
X144443000Y-158238000D01*
X144446000Y-158248000D01*
X144448000Y-158259000D01*
X144449000Y-158269000D01*
X144450000Y-158280000D01*
X144450000Y-158290000D01*
X144450000Y-161290000D01*
X142850000Y-161290000D01*
X142850000Y-158290000D01*
X142850000Y-158280000D01*
X142851000Y-158269000D01*
X142852000Y-158259000D01*
X142854000Y-158248000D01*
X142857000Y-158238000D01*
X142860000Y-158228000D01*
X142863000Y-158218000D01*
X142867000Y-158209000D01*
X142872000Y-158199000D01*
X142877000Y-158190000D01*
X142882000Y-158181000D01*
X142888000Y-158172000D01*
X142895000Y-158164000D01*
X142901000Y-158156000D01*
X142909000Y-158149000D01*
X142916000Y-158141000D01*
X142924000Y-158135000D01*
X142932000Y-158128000D01*
X142941000Y-158122000D01*
X142950000Y-158117000D01*
X142959000Y-158112000D01*
X142969000Y-158107000D01*
X142978000Y-158103000D01*
X142988000Y-158100000D01*
X142998000Y-158097000D01*
X143008000Y-158094000D01*
X143019000Y-158092000D01*
X143029000Y-158091000D01*
X143040000Y-158090000D01*
X143050000Y-158090000D01*
X144250000Y-158090000D01*
X144260000Y-158090000D01*
X144271000Y-158091000D01*
G36*
X144271000Y-158091000D02*
G01*
X144281000Y-158092000D01*
X144292000Y-158094000D01*
X144302000Y-158097000D01*
X144312000Y-158100000D01*
X144322000Y-158103000D01*
X144331000Y-158107000D01*
X144341000Y-158112000D01*
X144350000Y-158117000D01*
X144359000Y-158122000D01*
X144368000Y-158128000D01*
X144376000Y-158135000D01*
X144384000Y-158141000D01*
X144391000Y-158149000D01*
X144399000Y-158156000D01*
X144405000Y-158164000D01*
X144412000Y-158172000D01*
X144418000Y-158181000D01*
X144423000Y-158190000D01*
X144428000Y-158199000D01*
X144433000Y-158209000D01*
X144437000Y-158218000D01*
X144440000Y-158228000D01*
X144443000Y-158238000D01*
X144446000Y-158248000D01*
X144448000Y-158259000D01*
X144449000Y-158269000D01*
X144450000Y-158280000D01*
X144450000Y-158290000D01*
X144450000Y-161290000D01*
X142850000Y-161290000D01*
X142850000Y-158290000D01*
X142850000Y-158280000D01*
X142851000Y-158269000D01*
X142852000Y-158259000D01*
X142854000Y-158248000D01*
X142857000Y-158238000D01*
X142860000Y-158228000D01*
X142863000Y-158218000D01*
X142867000Y-158209000D01*
X142872000Y-158199000D01*
X142877000Y-158190000D01*
X142882000Y-158181000D01*
X142888000Y-158172000D01*
X142895000Y-158164000D01*
X142901000Y-158156000D01*
X142909000Y-158149000D01*
X142916000Y-158141000D01*
X142924000Y-158135000D01*
X142932000Y-158128000D01*
X142941000Y-158122000D01*
X142950000Y-158117000D01*
X142959000Y-158112000D01*
X142969000Y-158107000D01*
X142978000Y-158103000D01*
X142988000Y-158100000D01*
X142998000Y-158097000D01*
X143008000Y-158094000D01*
X143019000Y-158092000D01*
X143029000Y-158091000D01*
X143040000Y-158090000D01*
X143050000Y-158090000D01*
X144250000Y-158090000D01*
X144260000Y-158090000D01*
X144271000Y-158091000D01*
G37*
X156971000Y-158091000D02*
X156981000Y-158092000D01*
X156992000Y-158094000D01*
X157002000Y-158097000D01*
X157012000Y-158100000D01*
X157022000Y-158103000D01*
X157031000Y-158107000D01*
X157041000Y-158112000D01*
X157050000Y-158117000D01*
X157059000Y-158122000D01*
X157068000Y-158128000D01*
X157076000Y-158135000D01*
X157084000Y-158141000D01*
X157091000Y-158149000D01*
X157099000Y-158156000D01*
X157105000Y-158164000D01*
X157112000Y-158172000D01*
X157118000Y-158181000D01*
X157123000Y-158190000D01*
X157128000Y-158199000D01*
X157133000Y-158209000D01*
X157137000Y-158218000D01*
X157140000Y-158228000D01*
X157143000Y-158238000D01*
X157146000Y-158248000D01*
X157148000Y-158259000D01*
X157149000Y-158269000D01*
X157150000Y-158280000D01*
X157150000Y-158290000D01*
X157150000Y-161290000D01*
X155550000Y-161290000D01*
X155550000Y-158290000D01*
X155550000Y-158280000D01*
X155551000Y-158269000D01*
X155552000Y-158259000D01*
X155554000Y-158248000D01*
X155557000Y-158238000D01*
X155560000Y-158228000D01*
X155563000Y-158218000D01*
X155567000Y-158209000D01*
X155572000Y-158199000D01*
X155577000Y-158190000D01*
X155582000Y-158181000D01*
X155588000Y-158172000D01*
X155595000Y-158164000D01*
X155601000Y-158156000D01*
X155609000Y-158149000D01*
X155616000Y-158141000D01*
X155624000Y-158135000D01*
X155632000Y-158128000D01*
X155641000Y-158122000D01*
X155650000Y-158117000D01*
X155659000Y-158112000D01*
X155669000Y-158107000D01*
X155678000Y-158103000D01*
X155688000Y-158100000D01*
X155698000Y-158097000D01*
X155708000Y-158094000D01*
X155719000Y-158092000D01*
X155729000Y-158091000D01*
X155740000Y-158090000D01*
X155750000Y-158090000D01*
X156950000Y-158090000D01*
X156960000Y-158090000D01*
X156971000Y-158091000D01*
G36*
X156971000Y-158091000D02*
G01*
X156981000Y-158092000D01*
X156992000Y-158094000D01*
X157002000Y-158097000D01*
X157012000Y-158100000D01*
X157022000Y-158103000D01*
X157031000Y-158107000D01*
X157041000Y-158112000D01*
X157050000Y-158117000D01*
X157059000Y-158122000D01*
X157068000Y-158128000D01*
X157076000Y-158135000D01*
X157084000Y-158141000D01*
X157091000Y-158149000D01*
X157099000Y-158156000D01*
X157105000Y-158164000D01*
X157112000Y-158172000D01*
X157118000Y-158181000D01*
X157123000Y-158190000D01*
X157128000Y-158199000D01*
X157133000Y-158209000D01*
X157137000Y-158218000D01*
X157140000Y-158228000D01*
X157143000Y-158238000D01*
X157146000Y-158248000D01*
X157148000Y-158259000D01*
X157149000Y-158269000D01*
X157150000Y-158280000D01*
X157150000Y-158290000D01*
X157150000Y-161290000D01*
X155550000Y-161290000D01*
X155550000Y-158290000D01*
X155550000Y-158280000D01*
X155551000Y-158269000D01*
X155552000Y-158259000D01*
X155554000Y-158248000D01*
X155557000Y-158238000D01*
X155560000Y-158228000D01*
X155563000Y-158218000D01*
X155567000Y-158209000D01*
X155572000Y-158199000D01*
X155577000Y-158190000D01*
X155582000Y-158181000D01*
X155588000Y-158172000D01*
X155595000Y-158164000D01*
X155601000Y-158156000D01*
X155609000Y-158149000D01*
X155616000Y-158141000D01*
X155624000Y-158135000D01*
X155632000Y-158128000D01*
X155641000Y-158122000D01*
X155650000Y-158117000D01*
X155659000Y-158112000D01*
X155669000Y-158107000D01*
X155678000Y-158103000D01*
X155688000Y-158100000D01*
X155698000Y-158097000D01*
X155708000Y-158094000D01*
X155719000Y-158092000D01*
X155729000Y-158091000D01*
X155740000Y-158090000D01*
X155750000Y-158090000D01*
X156950000Y-158090000D01*
X156960000Y-158090000D01*
X156971000Y-158091000D01*
G37*
X169671000Y-158091000D02*
X169681000Y-158092000D01*
X169692000Y-158094000D01*
X169702000Y-158097000D01*
X169712000Y-158100000D01*
X169722000Y-158103000D01*
X169731000Y-158107000D01*
X169741000Y-158112000D01*
X169750000Y-158117000D01*
X169759000Y-158122000D01*
X169768000Y-158128000D01*
X169776000Y-158135000D01*
X169784000Y-158141000D01*
X169791000Y-158149000D01*
X169799000Y-158156000D01*
X169805000Y-158164000D01*
X169812000Y-158172000D01*
X169818000Y-158181000D01*
X169823000Y-158190000D01*
X169828000Y-158199000D01*
X169833000Y-158209000D01*
X169837000Y-158218000D01*
X169840000Y-158228000D01*
X169843000Y-158238000D01*
X169846000Y-158248000D01*
X169848000Y-158259000D01*
X169849000Y-158269000D01*
X169850000Y-158280000D01*
X169850000Y-158290000D01*
X169850000Y-161290000D01*
X168250000Y-161290000D01*
X168250000Y-158290000D01*
X168250000Y-158280000D01*
X168251000Y-158269000D01*
X168252000Y-158259000D01*
X168254000Y-158248000D01*
X168257000Y-158238000D01*
X168260000Y-158228000D01*
X168263000Y-158218000D01*
X168267000Y-158209000D01*
X168272000Y-158199000D01*
X168277000Y-158190000D01*
X168282000Y-158181000D01*
X168288000Y-158172000D01*
X168295000Y-158164000D01*
X168301000Y-158156000D01*
X168309000Y-158149000D01*
X168316000Y-158141000D01*
X168324000Y-158135000D01*
X168332000Y-158128000D01*
X168341000Y-158122000D01*
X168350000Y-158117000D01*
X168359000Y-158112000D01*
X168369000Y-158107000D01*
X168378000Y-158103000D01*
X168388000Y-158100000D01*
X168398000Y-158097000D01*
X168408000Y-158094000D01*
X168419000Y-158092000D01*
X168429000Y-158091000D01*
X168440000Y-158090000D01*
X168450000Y-158090000D01*
X169650000Y-158090000D01*
X169660000Y-158090000D01*
X169671000Y-158091000D01*
G36*
X169671000Y-158091000D02*
G01*
X169681000Y-158092000D01*
X169692000Y-158094000D01*
X169702000Y-158097000D01*
X169712000Y-158100000D01*
X169722000Y-158103000D01*
X169731000Y-158107000D01*
X169741000Y-158112000D01*
X169750000Y-158117000D01*
X169759000Y-158122000D01*
X169768000Y-158128000D01*
X169776000Y-158135000D01*
X169784000Y-158141000D01*
X169791000Y-158149000D01*
X169799000Y-158156000D01*
X169805000Y-158164000D01*
X169812000Y-158172000D01*
X169818000Y-158181000D01*
X169823000Y-158190000D01*
X169828000Y-158199000D01*
X169833000Y-158209000D01*
X169837000Y-158218000D01*
X169840000Y-158228000D01*
X169843000Y-158238000D01*
X169846000Y-158248000D01*
X169848000Y-158259000D01*
X169849000Y-158269000D01*
X169850000Y-158280000D01*
X169850000Y-158290000D01*
X169850000Y-161290000D01*
X168250000Y-161290000D01*
X168250000Y-158290000D01*
X168250000Y-158280000D01*
X168251000Y-158269000D01*
X168252000Y-158259000D01*
X168254000Y-158248000D01*
X168257000Y-158238000D01*
X168260000Y-158228000D01*
X168263000Y-158218000D01*
X168267000Y-158209000D01*
X168272000Y-158199000D01*
X168277000Y-158190000D01*
X168282000Y-158181000D01*
X168288000Y-158172000D01*
X168295000Y-158164000D01*
X168301000Y-158156000D01*
X168309000Y-158149000D01*
X168316000Y-158141000D01*
X168324000Y-158135000D01*
X168332000Y-158128000D01*
X168341000Y-158122000D01*
X168350000Y-158117000D01*
X168359000Y-158112000D01*
X168369000Y-158107000D01*
X168378000Y-158103000D01*
X168388000Y-158100000D01*
X168398000Y-158097000D01*
X168408000Y-158094000D01*
X168419000Y-158092000D01*
X168429000Y-158091000D01*
X168440000Y-158090000D01*
X168450000Y-158090000D01*
X169650000Y-158090000D01*
X169660000Y-158090000D01*
X169671000Y-158091000D01*
G37*
X126721000Y-149201000D02*
X126731000Y-149202000D01*
X126742000Y-149204000D01*
X126752000Y-149207000D01*
X126762000Y-149210000D01*
X126772000Y-149213000D01*
X126781000Y-149217000D01*
X126791000Y-149222000D01*
X126800000Y-149227000D01*
X126809000Y-149232000D01*
X126818000Y-149238000D01*
X126826000Y-149245000D01*
X126834000Y-149251000D01*
X126841000Y-149259000D01*
X126849000Y-149266000D01*
X126855000Y-149274000D01*
X126862000Y-149282000D01*
X126868000Y-149291000D01*
X126873000Y-149300000D01*
X126878000Y-149309000D01*
X126883000Y-149319000D01*
X126887000Y-149328000D01*
X126890000Y-149338000D01*
X126893000Y-149348000D01*
X126896000Y-149358000D01*
X126898000Y-149369000D01*
X126899000Y-149379000D01*
X126900000Y-149390000D01*
X126900000Y-149400000D01*
X126900000Y-150600000D01*
X126900000Y-150610000D01*
X126899000Y-150621000D01*
X126898000Y-150631000D01*
X126896000Y-150642000D01*
X126893000Y-150652000D01*
X126890000Y-150662000D01*
X126887000Y-150672000D01*
X126883000Y-150681000D01*
X126878000Y-150691000D01*
X126873000Y-150700000D01*
X126868000Y-150709000D01*
X126862000Y-150718000D01*
X126855000Y-150726000D01*
X126849000Y-150734000D01*
X126841000Y-150741000D01*
X126834000Y-150749000D01*
X126826000Y-150755000D01*
X126818000Y-150762000D01*
X126809000Y-150768000D01*
X126800000Y-150773000D01*
X126791000Y-150778000D01*
X126781000Y-150783000D01*
X126772000Y-150787000D01*
X126762000Y-150790000D01*
X126752000Y-150793000D01*
X126742000Y-150796000D01*
X126731000Y-150798000D01*
X126721000Y-150799000D01*
X126710000Y-150800000D01*
X126700000Y-150800000D01*
X123700000Y-150800000D01*
X123700000Y-149200000D01*
X126700000Y-149200000D01*
X126710000Y-149200000D01*
X126721000Y-149201000D01*
G36*
X126721000Y-149201000D02*
G01*
X126731000Y-149202000D01*
X126742000Y-149204000D01*
X126752000Y-149207000D01*
X126762000Y-149210000D01*
X126772000Y-149213000D01*
X126781000Y-149217000D01*
X126791000Y-149222000D01*
X126800000Y-149227000D01*
X126809000Y-149232000D01*
X126818000Y-149238000D01*
X126826000Y-149245000D01*
X126834000Y-149251000D01*
X126841000Y-149259000D01*
X126849000Y-149266000D01*
X126855000Y-149274000D01*
X126862000Y-149282000D01*
X126868000Y-149291000D01*
X126873000Y-149300000D01*
X126878000Y-149309000D01*
X126883000Y-149319000D01*
X126887000Y-149328000D01*
X126890000Y-149338000D01*
X126893000Y-149348000D01*
X126896000Y-149358000D01*
X126898000Y-149369000D01*
X126899000Y-149379000D01*
X126900000Y-149390000D01*
X126900000Y-149400000D01*
X126900000Y-150600000D01*
X126900000Y-150610000D01*
X126899000Y-150621000D01*
X126898000Y-150631000D01*
X126896000Y-150642000D01*
X126893000Y-150652000D01*
X126890000Y-150662000D01*
X126887000Y-150672000D01*
X126883000Y-150681000D01*
X126878000Y-150691000D01*
X126873000Y-150700000D01*
X126868000Y-150709000D01*
X126862000Y-150718000D01*
X126855000Y-150726000D01*
X126849000Y-150734000D01*
X126841000Y-150741000D01*
X126834000Y-150749000D01*
X126826000Y-150755000D01*
X126818000Y-150762000D01*
X126809000Y-150768000D01*
X126800000Y-150773000D01*
X126791000Y-150778000D01*
X126781000Y-150783000D01*
X126772000Y-150787000D01*
X126762000Y-150790000D01*
X126752000Y-150793000D01*
X126742000Y-150796000D01*
X126731000Y-150798000D01*
X126721000Y-150799000D01*
X126710000Y-150800000D01*
X126700000Y-150800000D01*
X123700000Y-150800000D01*
X123700000Y-149200000D01*
X126700000Y-149200000D01*
X126710000Y-149200000D01*
X126721000Y-149201000D01*
G37*
X131750000Y-141710000D02*
X131750000Y-141720000D01*
X131749000Y-141731000D01*
X131748000Y-141741000D01*
X131746000Y-141752000D01*
X131743000Y-141762000D01*
X131740000Y-141772000D01*
X131737000Y-141782000D01*
X131733000Y-141791000D01*
X131728000Y-141801000D01*
X131723000Y-141810000D01*
X131718000Y-141819000D01*
X131712000Y-141828000D01*
X131705000Y-141836000D01*
X131699000Y-141844000D01*
X131691000Y-141851000D01*
X131684000Y-141859000D01*
X131676000Y-141865000D01*
X131668000Y-141872000D01*
X131659000Y-141878000D01*
X131650000Y-141883000D01*
X131641000Y-141888000D01*
X131631000Y-141893000D01*
X131622000Y-141897000D01*
X131612000Y-141900000D01*
X131602000Y-141903000D01*
X131592000Y-141906000D01*
X131581000Y-141908000D01*
X131571000Y-141909000D01*
X131560000Y-141910000D01*
X131550000Y-141910000D01*
X130350000Y-141910000D01*
X130340000Y-141910000D01*
X130329000Y-141909000D01*
X130319000Y-141908000D01*
X130308000Y-141906000D01*
X130298000Y-141903000D01*
X130288000Y-141900000D01*
X130278000Y-141897000D01*
X130269000Y-141893000D01*
X130259000Y-141888000D01*
X130250000Y-141883000D01*
X130241000Y-141878000D01*
X130232000Y-141872000D01*
X130224000Y-141865000D01*
X130216000Y-141859000D01*
X130209000Y-141851000D01*
X130201000Y-141844000D01*
X130195000Y-141836000D01*
X130188000Y-141828000D01*
X130182000Y-141819000D01*
X130177000Y-141810000D01*
X130172000Y-141801000D01*
X130167000Y-141791000D01*
X130163000Y-141782000D01*
X130160000Y-141772000D01*
X130157000Y-141762000D01*
X130154000Y-141752000D01*
X130152000Y-141741000D01*
X130151000Y-141731000D01*
X130150000Y-141720000D01*
X130150000Y-141710000D01*
X130150000Y-138710000D01*
X131750000Y-138710000D01*
X131750000Y-141710000D01*
G36*
X131750000Y-141710000D02*
G01*
X131750000Y-141720000D01*
X131749000Y-141731000D01*
X131748000Y-141741000D01*
X131746000Y-141752000D01*
X131743000Y-141762000D01*
X131740000Y-141772000D01*
X131737000Y-141782000D01*
X131733000Y-141791000D01*
X131728000Y-141801000D01*
X131723000Y-141810000D01*
X131718000Y-141819000D01*
X131712000Y-141828000D01*
X131705000Y-141836000D01*
X131699000Y-141844000D01*
X131691000Y-141851000D01*
X131684000Y-141859000D01*
X131676000Y-141865000D01*
X131668000Y-141872000D01*
X131659000Y-141878000D01*
X131650000Y-141883000D01*
X131641000Y-141888000D01*
X131631000Y-141893000D01*
X131622000Y-141897000D01*
X131612000Y-141900000D01*
X131602000Y-141903000D01*
X131592000Y-141906000D01*
X131581000Y-141908000D01*
X131571000Y-141909000D01*
X131560000Y-141910000D01*
X131550000Y-141910000D01*
X130350000Y-141910000D01*
X130340000Y-141910000D01*
X130329000Y-141909000D01*
X130319000Y-141908000D01*
X130308000Y-141906000D01*
X130298000Y-141903000D01*
X130288000Y-141900000D01*
X130278000Y-141897000D01*
X130269000Y-141893000D01*
X130259000Y-141888000D01*
X130250000Y-141883000D01*
X130241000Y-141878000D01*
X130232000Y-141872000D01*
X130224000Y-141865000D01*
X130216000Y-141859000D01*
X130209000Y-141851000D01*
X130201000Y-141844000D01*
X130195000Y-141836000D01*
X130188000Y-141828000D01*
X130182000Y-141819000D01*
X130177000Y-141810000D01*
X130172000Y-141801000D01*
X130167000Y-141791000D01*
X130163000Y-141782000D01*
X130160000Y-141772000D01*
X130157000Y-141762000D01*
X130154000Y-141752000D01*
X130152000Y-141741000D01*
X130151000Y-141731000D01*
X130150000Y-141720000D01*
X130150000Y-141710000D01*
X130150000Y-138710000D01*
X131750000Y-138710000D01*
X131750000Y-141710000D01*
G37*
X144450000Y-141710000D02*
X144450000Y-141720000D01*
X144449000Y-141731000D01*
X144448000Y-141741000D01*
X144446000Y-141752000D01*
X144443000Y-141762000D01*
X144440000Y-141772000D01*
X144437000Y-141782000D01*
X144433000Y-141791000D01*
X144428000Y-141801000D01*
X144423000Y-141810000D01*
X144418000Y-141819000D01*
X144412000Y-141828000D01*
X144405000Y-141836000D01*
X144399000Y-141844000D01*
X144391000Y-141851000D01*
X144384000Y-141859000D01*
X144376000Y-141865000D01*
X144368000Y-141872000D01*
X144359000Y-141878000D01*
X144350000Y-141883000D01*
X144341000Y-141888000D01*
X144331000Y-141893000D01*
X144322000Y-141897000D01*
X144312000Y-141900000D01*
X144302000Y-141903000D01*
X144292000Y-141906000D01*
X144281000Y-141908000D01*
X144271000Y-141909000D01*
X144260000Y-141910000D01*
X144250000Y-141910000D01*
X143050000Y-141910000D01*
X143040000Y-141910000D01*
X143029000Y-141909000D01*
X143019000Y-141908000D01*
X143008000Y-141906000D01*
X142998000Y-141903000D01*
X142988000Y-141900000D01*
X142978000Y-141897000D01*
X142969000Y-141893000D01*
X142959000Y-141888000D01*
X142950000Y-141883000D01*
X142941000Y-141878000D01*
X142932000Y-141872000D01*
X142924000Y-141865000D01*
X142916000Y-141859000D01*
X142909000Y-141851000D01*
X142901000Y-141844000D01*
X142895000Y-141836000D01*
X142888000Y-141828000D01*
X142882000Y-141819000D01*
X142877000Y-141810000D01*
X142872000Y-141801000D01*
X142867000Y-141791000D01*
X142863000Y-141782000D01*
X142860000Y-141772000D01*
X142857000Y-141762000D01*
X142854000Y-141752000D01*
X142852000Y-141741000D01*
X142851000Y-141731000D01*
X142850000Y-141720000D01*
X142850000Y-141710000D01*
X142850000Y-138710000D01*
X144450000Y-138710000D01*
X144450000Y-141710000D01*
G36*
X144450000Y-141710000D02*
G01*
X144450000Y-141720000D01*
X144449000Y-141731000D01*
X144448000Y-141741000D01*
X144446000Y-141752000D01*
X144443000Y-141762000D01*
X144440000Y-141772000D01*
X144437000Y-141782000D01*
X144433000Y-141791000D01*
X144428000Y-141801000D01*
X144423000Y-141810000D01*
X144418000Y-141819000D01*
X144412000Y-141828000D01*
X144405000Y-141836000D01*
X144399000Y-141844000D01*
X144391000Y-141851000D01*
X144384000Y-141859000D01*
X144376000Y-141865000D01*
X144368000Y-141872000D01*
X144359000Y-141878000D01*
X144350000Y-141883000D01*
X144341000Y-141888000D01*
X144331000Y-141893000D01*
X144322000Y-141897000D01*
X144312000Y-141900000D01*
X144302000Y-141903000D01*
X144292000Y-141906000D01*
X144281000Y-141908000D01*
X144271000Y-141909000D01*
X144260000Y-141910000D01*
X144250000Y-141910000D01*
X143050000Y-141910000D01*
X143040000Y-141910000D01*
X143029000Y-141909000D01*
X143019000Y-141908000D01*
X143008000Y-141906000D01*
X142998000Y-141903000D01*
X142988000Y-141900000D01*
X142978000Y-141897000D01*
X142969000Y-141893000D01*
X142959000Y-141888000D01*
X142950000Y-141883000D01*
X142941000Y-141878000D01*
X142932000Y-141872000D01*
X142924000Y-141865000D01*
X142916000Y-141859000D01*
X142909000Y-141851000D01*
X142901000Y-141844000D01*
X142895000Y-141836000D01*
X142888000Y-141828000D01*
X142882000Y-141819000D01*
X142877000Y-141810000D01*
X142872000Y-141801000D01*
X142867000Y-141791000D01*
X142863000Y-141782000D01*
X142860000Y-141772000D01*
X142857000Y-141762000D01*
X142854000Y-141752000D01*
X142852000Y-141741000D01*
X142851000Y-141731000D01*
X142850000Y-141720000D01*
X142850000Y-141710000D01*
X142850000Y-138710000D01*
X144450000Y-138710000D01*
X144450000Y-141710000D01*
G37*
X157150000Y-141710000D02*
X157150000Y-141720000D01*
X157149000Y-141731000D01*
X157148000Y-141741000D01*
X157146000Y-141752000D01*
X157143000Y-141762000D01*
X157140000Y-141772000D01*
X157137000Y-141782000D01*
X157133000Y-141791000D01*
X157128000Y-141801000D01*
X157123000Y-141810000D01*
X157118000Y-141819000D01*
X157112000Y-141828000D01*
X157105000Y-141836000D01*
X157099000Y-141844000D01*
X157091000Y-141851000D01*
X157084000Y-141859000D01*
X157076000Y-141865000D01*
X157068000Y-141872000D01*
X157059000Y-141878000D01*
X157050000Y-141883000D01*
X157041000Y-141888000D01*
X157031000Y-141893000D01*
X157022000Y-141897000D01*
X157012000Y-141900000D01*
X157002000Y-141903000D01*
X156992000Y-141906000D01*
X156981000Y-141908000D01*
X156971000Y-141909000D01*
X156960000Y-141910000D01*
X156950000Y-141910000D01*
X155750000Y-141910000D01*
X155740000Y-141910000D01*
X155729000Y-141909000D01*
X155719000Y-141908000D01*
X155708000Y-141906000D01*
X155698000Y-141903000D01*
X155688000Y-141900000D01*
X155678000Y-141897000D01*
X155669000Y-141893000D01*
X155659000Y-141888000D01*
X155650000Y-141883000D01*
X155641000Y-141878000D01*
X155632000Y-141872000D01*
X155624000Y-141865000D01*
X155616000Y-141859000D01*
X155609000Y-141851000D01*
X155601000Y-141844000D01*
X155595000Y-141836000D01*
X155588000Y-141828000D01*
X155582000Y-141819000D01*
X155577000Y-141810000D01*
X155572000Y-141801000D01*
X155567000Y-141791000D01*
X155563000Y-141782000D01*
X155560000Y-141772000D01*
X155557000Y-141762000D01*
X155554000Y-141752000D01*
X155552000Y-141741000D01*
X155551000Y-141731000D01*
X155550000Y-141720000D01*
X155550000Y-141710000D01*
X155550000Y-138710000D01*
X157150000Y-138710000D01*
X157150000Y-141710000D01*
G36*
X157150000Y-141710000D02*
G01*
X157150000Y-141720000D01*
X157149000Y-141731000D01*
X157148000Y-141741000D01*
X157146000Y-141752000D01*
X157143000Y-141762000D01*
X157140000Y-141772000D01*
X157137000Y-141782000D01*
X157133000Y-141791000D01*
X157128000Y-141801000D01*
X157123000Y-141810000D01*
X157118000Y-141819000D01*
X157112000Y-141828000D01*
X157105000Y-141836000D01*
X157099000Y-141844000D01*
X157091000Y-141851000D01*
X157084000Y-141859000D01*
X157076000Y-141865000D01*
X157068000Y-141872000D01*
X157059000Y-141878000D01*
X157050000Y-141883000D01*
X157041000Y-141888000D01*
X157031000Y-141893000D01*
X157022000Y-141897000D01*
X157012000Y-141900000D01*
X157002000Y-141903000D01*
X156992000Y-141906000D01*
X156981000Y-141908000D01*
X156971000Y-141909000D01*
X156960000Y-141910000D01*
X156950000Y-141910000D01*
X155750000Y-141910000D01*
X155740000Y-141910000D01*
X155729000Y-141909000D01*
X155719000Y-141908000D01*
X155708000Y-141906000D01*
X155698000Y-141903000D01*
X155688000Y-141900000D01*
X155678000Y-141897000D01*
X155669000Y-141893000D01*
X155659000Y-141888000D01*
X155650000Y-141883000D01*
X155641000Y-141878000D01*
X155632000Y-141872000D01*
X155624000Y-141865000D01*
X155616000Y-141859000D01*
X155609000Y-141851000D01*
X155601000Y-141844000D01*
X155595000Y-141836000D01*
X155588000Y-141828000D01*
X155582000Y-141819000D01*
X155577000Y-141810000D01*
X155572000Y-141801000D01*
X155567000Y-141791000D01*
X155563000Y-141782000D01*
X155560000Y-141772000D01*
X155557000Y-141762000D01*
X155554000Y-141752000D01*
X155552000Y-141741000D01*
X155551000Y-141731000D01*
X155550000Y-141720000D01*
X155550000Y-141710000D01*
X155550000Y-138710000D01*
X157150000Y-138710000D01*
X157150000Y-141710000D01*
G37*
X169850000Y-141710000D02*
X169850000Y-141720000D01*
X169849000Y-141731000D01*
X169848000Y-141741000D01*
X169846000Y-141752000D01*
X169843000Y-141762000D01*
X169840000Y-141772000D01*
X169837000Y-141782000D01*
X169833000Y-141791000D01*
X169828000Y-141801000D01*
X169823000Y-141810000D01*
X169818000Y-141819000D01*
X169812000Y-141828000D01*
X169805000Y-141836000D01*
X169799000Y-141844000D01*
X169791000Y-141851000D01*
X169784000Y-141859000D01*
X169776000Y-141865000D01*
X169768000Y-141872000D01*
X169759000Y-141878000D01*
X169750000Y-141883000D01*
X169741000Y-141888000D01*
X169731000Y-141893000D01*
X169722000Y-141897000D01*
X169712000Y-141900000D01*
X169702000Y-141903000D01*
X169692000Y-141906000D01*
X169681000Y-141908000D01*
X169671000Y-141909000D01*
X169660000Y-141910000D01*
X169650000Y-141910000D01*
X168450000Y-141910000D01*
X168440000Y-141910000D01*
X168429000Y-141909000D01*
X168419000Y-141908000D01*
X168408000Y-141906000D01*
X168398000Y-141903000D01*
X168388000Y-141900000D01*
X168378000Y-141897000D01*
X168369000Y-141893000D01*
X168359000Y-141888000D01*
X168350000Y-141883000D01*
X168341000Y-141878000D01*
X168332000Y-141872000D01*
X168324000Y-141865000D01*
X168316000Y-141859000D01*
X168309000Y-141851000D01*
X168301000Y-141844000D01*
X168295000Y-141836000D01*
X168288000Y-141828000D01*
X168282000Y-141819000D01*
X168277000Y-141810000D01*
X168272000Y-141801000D01*
X168267000Y-141791000D01*
X168263000Y-141782000D01*
X168260000Y-141772000D01*
X168257000Y-141762000D01*
X168254000Y-141752000D01*
X168252000Y-141741000D01*
X168251000Y-141731000D01*
X168250000Y-141720000D01*
X168250000Y-141710000D01*
X168250000Y-138710000D01*
X169850000Y-138710000D01*
X169850000Y-141710000D01*
G36*
X169850000Y-141710000D02*
G01*
X169850000Y-141720000D01*
X169849000Y-141731000D01*
X169848000Y-141741000D01*
X169846000Y-141752000D01*
X169843000Y-141762000D01*
X169840000Y-141772000D01*
X169837000Y-141782000D01*
X169833000Y-141791000D01*
X169828000Y-141801000D01*
X169823000Y-141810000D01*
X169818000Y-141819000D01*
X169812000Y-141828000D01*
X169805000Y-141836000D01*
X169799000Y-141844000D01*
X169791000Y-141851000D01*
X169784000Y-141859000D01*
X169776000Y-141865000D01*
X169768000Y-141872000D01*
X169759000Y-141878000D01*
X169750000Y-141883000D01*
X169741000Y-141888000D01*
X169731000Y-141893000D01*
X169722000Y-141897000D01*
X169712000Y-141900000D01*
X169702000Y-141903000D01*
X169692000Y-141906000D01*
X169681000Y-141908000D01*
X169671000Y-141909000D01*
X169660000Y-141910000D01*
X169650000Y-141910000D01*
X168450000Y-141910000D01*
X168440000Y-141910000D01*
X168429000Y-141909000D01*
X168419000Y-141908000D01*
X168408000Y-141906000D01*
X168398000Y-141903000D01*
X168388000Y-141900000D01*
X168378000Y-141897000D01*
X168369000Y-141893000D01*
X168359000Y-141888000D01*
X168350000Y-141883000D01*
X168341000Y-141878000D01*
X168332000Y-141872000D01*
X168324000Y-141865000D01*
X168316000Y-141859000D01*
X168309000Y-141851000D01*
X168301000Y-141844000D01*
X168295000Y-141836000D01*
X168288000Y-141828000D01*
X168282000Y-141819000D01*
X168277000Y-141810000D01*
X168272000Y-141801000D01*
X168267000Y-141791000D01*
X168263000Y-141782000D01*
X168260000Y-141772000D01*
X168257000Y-141762000D01*
X168254000Y-141752000D01*
X168252000Y-141741000D01*
X168251000Y-141731000D01*
X168250000Y-141720000D01*
X168250000Y-141710000D01*
X168250000Y-138710000D01*
X169850000Y-138710000D01*
X169850000Y-141710000D01*
G37*
%TD*%
D11*
%TO.C,U2*%
X186941420Y-133654122D03*
X187585859Y-133569280D03*
X188230298Y-133484438D03*
X188874737Y-133399596D03*
X189519176Y-133314754D03*
X190163616Y-133229912D03*
X190808055Y-133145070D03*
X191558580Y-138845878D03*
X190914141Y-138930720D03*
X190269702Y-139015562D03*
X189625263Y-139100404D03*
X188980824Y-139185246D03*
X188336384Y-139270088D03*
X187691945Y-139354930D03*
%TD*%
D12*
%TO.C,LED18*%
X94728987Y-163956860D03*
D13*
X95293523Y-166063737D03*
%TD*%
D14*
%TO.C,R65*%
X128500000Y-162950000D03*
X128500000Y-165050000D03*
%TD*%
D15*
%TO.C,U3*%
X174804903Y-178589408D03*
X175200598Y-179105088D03*
X175596293Y-179620767D03*
X175991988Y-180136447D03*
X176387683Y-180652127D03*
X176783378Y-181167806D03*
X177179073Y-181683486D03*
X172617291Y-185183864D03*
X172221596Y-184668184D03*
X171825901Y-184152505D03*
X171430206Y-183636825D03*
X171034511Y-183121145D03*
X170638816Y-182605466D03*
X170243121Y-182089786D03*
%TD*%
D16*
%TO.C,R11*%
X182646281Y-200145018D03*
X181596281Y-198326364D03*
%TD*%
D14*
%TO.C,R54*%
X158750000Y-162950000D03*
X158750000Y-165050000D03*
%TD*%
D17*
%TO.C,A2*%
X164804699Y-91850336D03*
X166253587Y-92238564D03*
%TD*%
D18*
%TO.C,LED13*%
X149176100Y-207000000D03*
D19*
X151357300Y-207000000D03*
%TD*%
D20*
%TO.C,C5*%
X194750000Y-166700000D03*
X194750000Y-164800000D03*
%TD*%
D21*
%TO.C,R8*%
X208542289Y-162373475D03*
X206513845Y-161829955D03*
%TD*%
D22*
%TO.C,C6*%
X190300000Y-161000000D03*
X192200000Y-161000000D03*
%TD*%
D14*
%TO.C,R72*%
X141000000Y-137050000D03*
X141000000Y-134950000D03*
%TD*%
D23*
%TO.C,LED9*%
X198951498Y-179213518D03*
D24*
X200042098Y-177324544D03*
%TD*%
D25*
%TO.C,LED15*%
X120786482Y-198951498D03*
D26*
X122675456Y-200042098D03*
%TD*%
D27*
%TO.C,R24*%
X131444599Y-93114153D03*
X131988119Y-95142597D03*
%TD*%
D28*
%TO.C,R5*%
X200145018Y-117353719D03*
X198326364Y-118403719D03*
%TD*%
D14*
%TO.C,C2*%
X169200000Y-137250000D03*
X171300000Y-137250000D03*
%TD*%
%TO.C,R64*%
X133500000Y-162950000D03*
X133500000Y-165050000D03*
%TD*%
D29*
%TO.C,R48*%
X138170045Y-93486155D03*
X137626525Y-91457711D03*
%TD*%
D30*
%TO.C,A24*%
X133746413Y-92238564D03*
X135195301Y-91850336D03*
%TD*%
D31*
%TO.C,LED23*%
X122213518Y-100224602D03*
D32*
X120324544Y-101315202D03*
%TD*%
D14*
%TO.C,R70*%
X136000000Y-137050000D03*
X136000000Y-134950000D03*
%TD*%
D33*
%TO.C,A13*%
X150750000Y-210000000D03*
X149250000Y-210000000D03*
%TD*%
D34*
%TO.C,LED17*%
X100224602Y-177786482D03*
D35*
X101315202Y-179675456D03*
%TD*%
D36*
%TO.C,R45*%
X101673636Y-118403719D03*
X99854982Y-117353719D03*
%TD*%
D37*
%TO.C,R18*%
X93114153Y-168555401D03*
X95142597Y-168011881D03*
%TD*%
D38*
%TO.C,R6*%
X206885847Y-131444599D03*
X204857403Y-131988119D03*
%TD*%
D36*
%TO.C,R9*%
X203345018Y-177103719D03*
X201526364Y-176053719D03*
%TD*%
D39*
%TO.C,C3*%
X187250000Y-164800000D03*
X187250000Y-166700000D03*
%TD*%
D40*
%TO.C,R17*%
X99854982Y-182646281D03*
X101673636Y-181596281D03*
%TD*%
D41*
%TO.C,LED11*%
X177786482Y-199775398D03*
D42*
X179675456Y-198684798D03*
%TD*%
D43*
%TO.C,A15*%
X120649519Y-202336524D03*
X119350481Y-201586524D03*
%TD*%
D14*
%TO.C,R62*%
X138550000Y-162950000D03*
X138550000Y-165050000D03*
%TD*%
%TO.C,R59*%
X148750000Y-162950000D03*
X148750000Y-165050000D03*
%TD*%
D44*
%TO.C,R4*%
X189986888Y-105487628D03*
X188501964Y-106972552D03*
%TD*%
D27*
%TO.C,R36*%
X161829955Y-206513845D03*
X162373475Y-208542289D03*
%TD*%
D45*
%TO.C,A17*%
X98413476Y-180649519D03*
X97663476Y-179350481D03*
%TD*%
D14*
%TO.C,R71*%
X138500000Y-137050000D03*
X138500000Y-134950000D03*
%TD*%
D46*
%TO.C,LED2*%
X165548512Y-95155469D03*
D47*
X163441635Y-94590933D03*
%TD*%
D14*
%TO.C,R61*%
X141250000Y-162950000D03*
X141250000Y-165050000D03*
%TD*%
D28*
%TO.C,R41*%
X98473636Y-176053719D03*
X96654982Y-177103719D03*
%TD*%
D48*
%TO.C,A12*%
X166253587Y-207761436D03*
X164804699Y-208149664D03*
%TD*%
D49*
%TO.C,R15*%
X122896281Y-203345018D03*
X123946281Y-201526364D03*
%TD*%
D14*
%TO.C,R52*%
X159000000Y-137050000D03*
X159000000Y-134950000D03*
%TD*%
%TO.C,R58*%
X151250000Y-162950000D03*
X151250000Y-165050000D03*
%TD*%
D50*
%TO.C,R22*%
X105487628Y-110013112D03*
X106972552Y-111498036D03*
%TD*%
D51*
%TO.C,LED3*%
X179213518Y-101048502D03*
D52*
X177324544Y-99957902D03*
%TD*%
D53*
%TO.C,A21*%
X97663476Y-120649519D03*
X98413476Y-119350481D03*
%TD*%
D54*
%TO.C,LED14*%
X134451488Y-204844531D03*
D55*
X136558365Y-205409067D03*
%TD*%
D56*
%TO.C,LED12*%
X163956860Y-205271013D03*
D57*
X166063737Y-204706477D03*
%TD*%
D44*
%TO.C,R40*%
X106972552Y-188501964D03*
X105487628Y-189986888D03*
%TD*%
D58*
%TO.C,U4*%
X137643298Y-185776380D03*
X137394554Y-186376901D03*
X137145810Y-186977423D03*
X136897066Y-187577945D03*
X136648321Y-188178467D03*
X136399577Y-188778988D03*
X136150833Y-189379510D03*
X130838526Y-187179080D03*
X131087270Y-186578559D03*
X131336014Y-185978037D03*
X131584758Y-185377515D03*
X131833503Y-184776993D03*
X132082247Y-184176472D03*
X132330991Y-183575950D03*
%TD*%
D59*
%TO.C,R20*%
X91457711Y-137626525D03*
X93486155Y-138170045D03*
%TD*%
D60*
%TO.C,R23*%
X117353719Y-99854982D03*
X118403719Y-101673636D03*
%TD*%
D14*
%TO.C,R53*%
X161500000Y-162950000D03*
X161500000Y-165050000D03*
%TD*%
D61*
%TO.C,LED6*%
X205271013Y-136043140D03*
D62*
X204706477Y-133936263D03*
%TD*%
D14*
%TO.C,R66*%
X125750000Y-162950000D03*
X125750000Y-165050000D03*
%TD*%
%TO.C,R1*%
X146800000Y-90250000D03*
X146800000Y-92350000D03*
%TD*%
D63*
%TO.C,A3*%
X179350481Y-97663476D03*
X180649519Y-98413476D03*
%TD*%
D64*
%TO.C,R14*%
X137626525Y-208542289D03*
X138170045Y-206513845D03*
%TD*%
D14*
%TO.C,R69*%
X133500000Y-137050000D03*
X133500000Y-134950000D03*
%TD*%
%TO.C,R19*%
X90250000Y-153200000D03*
X92350000Y-153200000D03*
%TD*%
D65*
%TO.C,LED22*%
X110277498Y-109112328D03*
D66*
X108735157Y-110654669D03*
%TD*%
D40*
%TO.C,R29*%
X201526364Y-123946281D03*
X203345018Y-122896281D03*
%TD*%
D21*
%TO.C,R44*%
X95142597Y-131988119D03*
X93114153Y-131444599D03*
%TD*%
D67*
%TO.C,A16*%
X108103923Y-192956737D03*
X107043263Y-191896077D03*
%TD*%
D68*
%TO.C,A4*%
X191896077Y-107043263D03*
X192956737Y-108103923D03*
%TD*%
D14*
%TO.C,R25*%
X153200000Y-92350000D03*
X153200000Y-90250000D03*
%TD*%
%TO.C,R57*%
X153750000Y-162950000D03*
X153750000Y-165050000D03*
%TD*%
D69*
%TO.C,LED8*%
X204844531Y-165548512D03*
D70*
X205409067Y-163441635D03*
%TD*%
D71*
%TO.C,U7*%
X174000000Y-152725000D03*
X174000000Y-147275000D03*
D72*
X170970000Y-152425000D03*
X170970000Y-147575000D03*
D73*
X171000000Y-150000000D03*
X174300000Y-149000000D03*
X174300000Y-151000000D03*
X167500000Y-152500000D03*
X165000000Y-152500000D03*
X162500000Y-152500000D03*
%TD*%
D14*
%TO.C,R43*%
X92350000Y-146800000D03*
X90250000Y-146800000D03*
%TD*%
D49*
%TO.C,R27*%
X181596281Y-101673636D03*
X182646281Y-99854982D03*
%TD*%
D74*
%TO.C,LED21*%
X101048502Y-120786482D03*
D75*
X99957902Y-122675456D03*
%TD*%
D29*
%TO.C,R12*%
X168555401Y-206885847D03*
X168011881Y-204857403D03*
%TD*%
D76*
%TO.C,U6*%
X125195097Y-121410592D03*
X124799402Y-120894912D03*
X124403707Y-120379233D03*
X124008012Y-119863553D03*
X123612317Y-119347873D03*
X123216622Y-118832194D03*
X122820927Y-118316514D03*
X127382709Y-114816136D03*
X127778404Y-115331816D03*
X128174099Y-115847495D03*
X128569794Y-116363175D03*
X128965489Y-116878855D03*
X129361184Y-117394534D03*
X129756879Y-117910214D03*
%TD*%
D77*
%TO.C,A9*%
X202336524Y-179350481D03*
X201586524Y-180649519D03*
%TD*%
D78*
%TO.C,R3*%
X177103719Y-96654982D03*
X176053719Y-98473636D03*
%TD*%
D79*
%TO.C,R33*%
X198326364Y-181596281D03*
X200145018Y-182646281D03*
%TD*%
D33*
%TO.C,A1*%
X149250000Y-90000000D03*
X150750000Y-90000000D03*
%TD*%
D80*
%TO.C,LED20*%
X95155469Y-134451488D03*
D81*
X94590933Y-136558365D03*
%TD*%
D82*
%TO.C,LED7*%
X207000000Y-150823900D03*
D83*
X207000000Y-148642700D03*
%TD*%
D84*
%TO.C,R2*%
X162373475Y-91457711D03*
X161829955Y-93486155D03*
%TD*%
D14*
%TO.C,R56*%
X166500000Y-162950000D03*
X166500000Y-165050000D03*
%TD*%
%TO.C,R37*%
X146800000Y-207650000D03*
X146800000Y-209750000D03*
%TD*%
%TO.C,R7*%
X209750000Y-146800000D03*
X207650000Y-146800000D03*
%TD*%
%TO.C,R67*%
X128500000Y-137050000D03*
X128500000Y-134950000D03*
%TD*%
D16*
%TO.C,R47*%
X123946281Y-98473636D03*
X122896281Y-96654982D03*
%TD*%
D14*
%TO.C,R31*%
X207650000Y-153200000D03*
X209750000Y-153200000D03*
%TD*%
D85*
%TO.C,A23*%
X119350481Y-98413476D03*
X120649519Y-97663476D03*
%TD*%
D38*
%TO.C,R42*%
X93486155Y-161829955D03*
X91457711Y-162373475D03*
%TD*%
D14*
%TO.C,R63*%
X136000000Y-162950000D03*
X136000000Y-165050000D03*
%TD*%
%TO.C,R49*%
X146250000Y-137050000D03*
X146250000Y-134950000D03*
%TD*%
D86*
%TO.C,U8*%
X189862500Y-166710000D03*
D87*
X189850000Y-165900000D03*
X189850000Y-165400000D03*
D88*
X189532504Y-163950000D03*
X189532504Y-164450000D03*
D89*
X189557503Y-162950001D03*
D90*
X189557504Y-163450001D03*
D91*
X190250000Y-163750000D03*
D92*
X192249999Y-163750000D03*
D93*
X192967496Y-163950001D03*
D94*
X192967497Y-162950001D03*
X192967497Y-163450001D03*
D95*
X192967497Y-164412503D03*
D87*
X192650000Y-165400000D03*
X192650000Y-165900000D03*
D86*
X192637500Y-166710000D03*
D96*
X191749999Y-166809998D03*
D97*
X191250000Y-166440000D03*
D96*
X190750001Y-166809998D03*
%TD*%
D98*
%TO.C,R28*%
X193027448Y-111498036D03*
X194512372Y-110013112D03*
%TD*%
D99*
%TO.C,R10*%
X194512372Y-189986888D03*
X193027448Y-188501964D03*
%TD*%
D14*
%TO.C,R13*%
X153200000Y-209750000D03*
X153200000Y-207650000D03*
%TD*%
D100*
%TO.C,A20*%
X91850336Y-135195301D03*
X92238564Y-133746413D03*
%TD*%
D101*
%TO.C,A5*%
X201586524Y-119350481D03*
X202336524Y-120649519D03*
%TD*%
D50*
%TO.C,R34*%
X188501964Y-193027448D03*
X189986888Y-194512372D03*
%TD*%
D102*
%TO.C,A8*%
X208149664Y-164804699D03*
X207761436Y-166253587D03*
%TD*%
D60*
%TO.C,R35*%
X176053719Y-201526364D03*
X177103719Y-203345018D03*
%TD*%
D103*
%TO.C,A11*%
X180649519Y-201586524D03*
X179350481Y-202336524D03*
%TD*%
D59*
%TO.C,R32*%
X204857403Y-168011881D03*
X206885847Y-168555401D03*
%TD*%
D104*
%TO.C,U5*%
X112838395Y-157186972D03*
X112193956Y-157271814D03*
X111549517Y-157356656D03*
X110905078Y-157441498D03*
X110260639Y-157526340D03*
X109616199Y-157611182D03*
X108971760Y-157696024D03*
X108221235Y-151995216D03*
X108865674Y-151910374D03*
X109510113Y-151825532D03*
X110154552Y-151740690D03*
X110798991Y-151655848D03*
X111443431Y-151571006D03*
X112087870Y-151486164D03*
%TD*%
D99*
%TO.C,R46*%
X111498036Y-106972552D03*
X110013112Y-105487628D03*
%TD*%
D18*
%TO.C,LED1*%
X150823900Y-93000000D03*
D19*
X148642700Y-93000000D03*
%TD*%
D14*
%TO.C,R51*%
X153750000Y-137050000D03*
X153750000Y-134950000D03*
%TD*%
D64*
%TO.C,R26*%
X168011881Y-95142597D03*
X168555401Y-93114153D03*
%TD*%
D39*
%TO.C,C4*%
X185250000Y-164800000D03*
X185250000Y-166700000D03*
%TD*%
D33*
%TO.C,A19*%
X90000000Y-150750000D03*
X90000000Y-149250000D03*
%TD*%
D82*
%TO.C,LED19*%
X93000000Y-149176100D03*
D83*
X93000000Y-151357300D03*
%TD*%
D37*
%TO.C,R30*%
X206513845Y-138170045D03*
X208542289Y-137626525D03*
%TD*%
D14*
%TO.C,R50*%
X151300000Y-137050000D03*
X151300000Y-134950000D03*
%TD*%
D84*
%TO.C,R38*%
X131988119Y-204857403D03*
X131444599Y-206885847D03*
%TD*%
D33*
%TO.C,A7*%
X210000000Y-149250000D03*
X210000000Y-150750000D03*
%TD*%
D105*
%TO.C,LED5*%
X199775398Y-122213518D03*
D106*
X198684798Y-120324544D03*
%TD*%
D107*
%TO.C,A6*%
X207761436Y-133746413D03*
X208149664Y-135195301D03*
%TD*%
D78*
%TO.C,R39*%
X118403719Y-198326364D03*
X117353719Y-200145018D03*
%TD*%
D108*
%TO.C,LED24*%
X136043140Y-94728987D03*
D109*
X133936263Y-95293523D03*
%TD*%
D110*
%TO.C,U1*%
X162356702Y-114223620D03*
X162605446Y-113623099D03*
X162854190Y-113022577D03*
X163102934Y-112422055D03*
X163351679Y-111821533D03*
X163600423Y-111221012D03*
X163849167Y-110620490D03*
X169161474Y-112820920D03*
X168912730Y-113421441D03*
X168663986Y-114021963D03*
X168415242Y-114622485D03*
X168166497Y-115223007D03*
X167917753Y-115823528D03*
X167669009Y-116424050D03*
%TD*%
D111*
%TO.C,LED16*%
X109112328Y-189722502D03*
D112*
X110654669Y-191264843D03*
%TD*%
D113*
%TO.C,A10*%
X192956737Y-191896077D03*
X191896077Y-192956737D03*
%TD*%
D14*
%TO.C,R74*%
X189200000Y-170500000D03*
X191300000Y-170500000D03*
%TD*%
%TO.C,R68*%
X125750000Y-137050000D03*
X125750000Y-134950000D03*
%TD*%
D79*
%TO.C,R21*%
X96654982Y-122896281D03*
X98473636Y-123946281D03*
%TD*%
D14*
%TO.C,R73*%
X191300000Y-168500000D03*
X189200000Y-168500000D03*
%TD*%
D114*
%TO.C,LED10*%
X189722502Y-190887672D03*
D115*
X191264843Y-189345331D03*
%TD*%
D116*
%TO.C,A22*%
X107043263Y-108103923D03*
X108103923Y-107043263D03*
%TD*%
D117*
%TO.C,C1*%
X169770000Y-135750000D03*
X170730000Y-135750000D03*
%TD*%
D98*
%TO.C,R16*%
X110013112Y-194512372D03*
X111498036Y-193027448D03*
%TD*%
D118*
%TO.C,LED4*%
X190887672Y-110277498D03*
D119*
X189345331Y-108735157D03*
%TD*%
D14*
%TO.C,R60*%
X146250000Y-162950000D03*
X146250000Y-165050000D03*
%TD*%
D22*
%TO.C,C7*%
X190300000Y-159000000D03*
X192200000Y-159000000D03*
%TD*%
D120*
%TO.C,A18*%
X92238564Y-166253587D03*
X91850336Y-164804699D03*
%TD*%
D14*
%TO.C,R55*%
X164000000Y-162950000D03*
X164000000Y-165050000D03*
%TD*%
D121*
%TO.C,A14*%
X135195301Y-208149664D03*
X133746413Y-207761436D03*
%TD*%
M02*
