0
SECTION
2
HEADER
9
$INSUNITS
70
4
9
$ACADVER
1
AC1014
9
$HANDSEED
5
FFFF
0
ENDSEC
0
SECTION
2
TABLES
0
TABLE
2
VPORT
5
8
100
AcDbSymbolTable
0
ENDTAB
0
TABLE
2
LTYPE
5
5
100
AcDbSymbolTable
0
LTYPE
5
14
100
AcDbSymbolTableRecord
100
AcDbLinetypeTableRecord
2
BYBLOCK
70
0
0
LTYPE
5
15
100
AcDbSymbolTableRecord
100
AcDbLinetypeTableRecord
2
BYLAYER
70
0
0
ENDTAB
0
TABLE
2
LAYER
5
2
100
AcDbSymbolTable
70
2
0
LAYER
5
50
100
AcDbSymbolTableRecord
100
AcDbLayerTableRecord
2
0
70
0
6
CONTINUOUS
0
ENDTAB
0
TABLE
2
STYLE
5
3
100
AcDbSymbolTable
70
1
0
STYLE
5
11
100
AcDbSymbolTableRecord
100
AcDbTextStyleTableRecord
2
STANDARD
70
0
0
ENDTAB
0
TABLE
2
VIEW
5
6
100
AcDbSymbolTable
70
0
0
ENDTAB
0
TABLE
2
UCS
5
7
100
AcDbSymbolTable
70
0
0
ENDTAB
0
TABLE
2
APPID
5
9
100
AcDbSymbolTable
70
2
0
APPID
5
12
100
AcDbSymbolTableRecord
100
AcDbRegAppTableRecord
2
ACAD
70
0
0
ENDTAB
0
TABLE
2
DIMSTYLE
5
A
100
AcDbSymbolTable
70
1
0
ENDTAB
0
TABLE
2
BLOCK_RECORD
5
1
100
AcDbSymbolTable
70
1
0
BLOCK_RECORD
5
1F
100
AcDbSymbolTableRecord
100
AcDbBlockTableRecord
2
*MODEL_SPACE
0
BLOCK_RECORD
5
1B
100
AcDbSymbolTableRecord
100
AcDbBlockTableRecord
2
*PAPER_SPACE
0
ENDTAB
0
ENDSEC
0
SECTION
2
BLOCKS
0
BLOCK
5
20
100
AcDbEntity
100
AcDbBlockBegin
2
*MODEL_SPACE
0
ENDBLK
5
21
100
AcDbEntity
100
AcDbBlockEnd
0
BLOCK
5
1C
100
AcDbEntity
100
AcDbBlockBegin
2
*PAPER_SPACE
0
ENDBLK
5
1D
100
AcDbEntity
100
AcDbBlockEnd
0
ENDSEC
0
SECTION
2
ENTITIES
0
CIRCLE
5
100
100
AcDbEntity
8
0
100
AcDbCircle
10
31.000000461936015
20
-75.000001117587075
30
0
40
1.599999999999997
210
0
220
0
230
1
0
CIRCLE
5
101
100
AcDbEntity
8
0
100
AcDbCircle
10
75.00000111758709
20
-31.00000046193599
30
0
40
1.6000000000000014
210
0
220
0
230
1
0
CIRCLE
5
102
100
AcDbEntity
8
0
100
AcDbCircle
10
-31.000000461935979
20
-75.000001117587104
30
0
40
1.599999999999997
210
0
220
0
230
1
0
CIRCLE
5
103
100
AcDbEntity
8
0
100
AcDbCircle
10
75.00000111758709
20
31.000000461936004
30
0
40
1.6000000000000014
210
0
220
0
230
1
0
CIRCLE
5
104
100
AcDbEntity
8
0
100
AcDbCircle
10
-75.00000111758709
20
-31.000000461935997
30
0
40
1.6000000000000014
210
0
220
0
230
1
0
CIRCLE
5
105
100
AcDbEntity
8
0
100
AcDbCircle
10
-75.00000111758709
20
31.000000461935997
30
0
40
1.6000000000000014
210
0
220
0
230
1
0
CIRCLE
5
106
100
AcDbEntity
8
0
100
AcDbCircle
10
-28.216846929523477
20
76.431390789572887
30
0
40
1.599999999999997
210
0
220
0
230
1
0
CIRCLE
5
107
100
AcDbEntity
8
0
100
AcDbCircle
10
28.216846845229838
20
76.431390789572887
30
0
40
1.599999999999997
210
0
220
0
230
1
0
LWPOLYLINE
5
108
100
AcDbEntity
8
0
100
AcDbPolyline
90
38
70
1
43
0.0
10
31.457981382447269
20
71.758794512206606
10
32.832192795699726
20
75.151926012592739
42
0.42058419304560202
10
30.545427662394047
20
80.392641674989221
42
0.0029879703318323966
10
29.582428481596747
20
80.751965456771146
42
0.3795928280170266
10
24.641652997334553
20
78.810406970534245
10
21.175463510216147
20
72
10
-21.17546351021614
20
72
10
-24.641652997334567
20
78.810406970534231
42
0.37959282801704408
10
-29.582428481596253
20
80.751965456769184
42
0.0029879700935768667
10
-30.545427613526876
20
80.392641777135253
42
0.42058419332610025
10
-32.832192795063136
20
75.151926011020947
10
-31.457981322451694
20
71.758794572202135
42
-0.30119354743198928
10
-32.776564752764841
20
65.263869197107553
10
-63.831919458643362
20
34.208514491229074
42
-0.4142135623730942
10
-72.317200832881923
20
34.208514491229089
10
-72.74926252257886
20
34.640576180926111
42
0.53267701315368643
10
-79.264406215487355
20
33.363961205261859
42
0.20188231676331822
10
-79.264406215316228
20
-33.363961205189888
42
0.53267701315369009
10
-72.749262522578874
20
-34.640576180926161
10
-72.317200832881866
20
-34.208514491229167
42
-0.41421356237309548
10
-63.831919458643284
20
-34.20851449122916
10
-34.208514491229082
20
-63.831919458643384
42
-0.41421356237309415
10
-34.208514491229082
20
-72.317200832881937
10
-34.640576180926118
20
-72.749262522578846
42
0.53267701315368643
10
-33.363961205261845
20
-79.264406215487398
42
0.20188231676254589
10
33.363961205234887
20
-79.264406215423051
42
0.53267701315368754
10
34.640576180926153
20
-72.749262522578874
10
34.208514491229131
20
-72.317200832881824
42
-0.41421356237309365
10
34.208514491229145
20
-63.83191945864327
10
63.831919458643362
20
-34.208514491229096
42
-0.41421356237309365
10
72.317200832881923
20
-34.208514491229096
10
72.749262522578832
20
-34.640576180926168
42
0.5326770131536851
10
79.264406215487369
20
-33.363961205261887
42
0.20188231676289667
10
79.264406215658326
20
33.363961205333887
42
0.53267701315368776
10
72.749262522578874
20
34.640576180926161
10
72.317200832881866
20
34.208514491229124
42
-0.41421356237309398
10
63.831919458643284
20
34.208514491229131
10
32.776564812760405
20
65.26386913711201
42
-0.30119354743198939
0
ENDSEC
0
SECTION
2
OBJECTS
0
DICTIONARY
5
C
100
AcDbDictionary
3
ACAD_GROUP
350
D
3
ACAD_MLINESTYLE
350
17
0
DICTIONARY
5
D
100
AcDbDictionary
0
DICTIONARY
5
1A
330
C
100
AcDbDictionary
0
DICTIONARY
5
17
100
AcDbDictionary
0
ENDSEC
0
EOF
