0
SECTION
2
HEADER
9
$INSUNITS
70
4
9
$ACADVER
1
AC1014
9
$HANDSEED
5
FFFF
0
ENDSEC
0
SECTION
2
TABLES
0
TABLE
2
VPORT
5
8
100
AcDbSymbolTable
0
ENDTAB
0
TABLE
2
LTYPE
5
5
100
AcDbSymbolTable
0
LTYPE
5
14
100
AcDbSymbolTableRecord
100
AcDbLinetypeTableRecord
2
BYBLOCK
70
0
0
LTYPE
5
15
100
AcDbSymbolTableRecord
100
AcDbLinetypeTableRecord
2
BYLAYER
70
0
0
ENDTAB
0
TABLE
2
LAYER
5
2
100
AcDbSymbolTable
70
2
0
LAYER
5
50
100
AcDbSymbolTableRecord
100
AcDbLayerTableRecord
2
0
70
0
6
CONTINUOUS
0
ENDTAB
0
TABLE
2
STYLE
5
3
100
AcDbSymbolTable
70
1
0
STYLE
5
11
100
AcDbSymbolTableRecord
100
AcDbTextStyleTableRecord
2
STANDARD
70
0
0
ENDTAB
0
TABLE
2
VIEW
5
6
100
AcDbSymbolTable
70
0
0
ENDTAB
0
TABLE
2
UCS
5
7
100
AcDbSymbolTable
70
0
0
ENDTAB
0
TABLE
2
APPID
5
9
100
AcDbSymbolTable
70
2
0
APPID
5
12
100
AcDbSymbolTableRecord
100
AcDbRegAppTableRecord
2
ACAD
70
0
0
ENDTAB
0
TABLE
2
DIMSTYLE
5
A
100
AcDbSymbolTable
70
1
0
ENDTAB
0
TABLE
2
BLOCK_RECORD
5
1
100
AcDbSymbolTable
70
1
0
BLOCK_RECORD
5
1F
100
AcDbSymbolTableRecord
100
AcDbBlockTableRecord
2
*MODEL_SPACE
0
BLOCK_RECORD
5
1B
100
AcDbSymbolTableRecord
100
AcDbBlockTableRecord
2
*PAPER_SPACE
0
ENDTAB
0
ENDSEC
0
SECTION
2
BLOCKS
0
BLOCK
5
20
100
AcDbEntity
100
AcDbBlockBegin
2
*MODEL_SPACE
0
ENDBLK
5
21
100
AcDbEntity
100
AcDbBlockEnd
0
BLOCK
5
1C
100
AcDbEntity
100
AcDbBlockBegin
2
*PAPER_SPACE
0
ENDBLK
5
1D
100
AcDbEntity
100
AcDbBlockEnd
0
ENDSEC
0
SECTION
2
ENTITIES
0
LINE
5
100
100
AcDbEntity
8
0
100
AcDbLine
10
6.7260000000000009
20
-15.989482206433896
30
0
11
6.7260000000000018
21
4.1105177935661015
31
0
0
LINE
5
101
100
AcDbEntity
8
0
100
AcDbLine
10
6.7260000000000018
20
4.1105177935661015
30
0
11
23.414025719807881
21
4.1105177935661033
31
-1.1102230246251565e-15
0
LINE
5
102
100
AcDbEntity
8
0
100
AcDbLine
10
23.414025719807881
20
4.1105177935661033
30
-1.1102230246251565e-15
11
23.414025719807885
21
11.965833202049737
31
0
0
LINE
5
103
100
AcDbEntity
8
0
100
AcDbLine
10
23.414025719807885
20
11.965833202049737
30
0
11
10.455908631817383
21
6.5380102554707769
31
0
0
SPLINE
5
104
100
AcDbEntity
8
0
100
AcDbSpline
70
0
71
3
72
10
73
6
74
0
42
0.000000001
43
0.0000000001
44
0.0000000001
40
0
40
0
40
0
40
0
40
0.80640438790748104
40
0.80640438790748104
40
1.9900982992863683
40
1.9900982992863683
40
1.9900982992863683
40
1.9900982992863683
10
10.455908631817383
20
6.5380102554707769
30
0
10
7.9378959101148618
20
5.5972474985228615
30
0
10
6.3497217186748927
20
5.2644253634868754
30
0
10
4.3157558014467128
20
4.9106941968085058
30
1.1102230246251565e-15
10
3.2669772215229909
20
4.8541904142205761
30
0
10
2.3986933121098577
20
4.8541904142205761
30
0
0
LINE
5
105
100
AcDbEntity
8
0
100
AcDbLine
10
2.3986933121098577
20
4.854190414220577
30
0
11
-2.398693312109855
21
4.8541904142205761
31
0
0
SPLINE
5
106
100
AcDbEntity
8
0
100
AcDbSpline
70
0
71
3
72
10
73
6
74
0
42
0.000000001
43
0.0000000001
44
0.0000000001
40
0
40
0
40
0
40
0
40
0.2604851728240094
40
0.2604851728240094
40
0.43794353797300789
40
0.43794353797300789
40
0.43794353797300789
40
0.43794353797300789
10
-2.398693312109855
20
4.8541904142205761
30
0
10
-3.2669772215232196
20
4.8541904142205761
30
0
10
-4.3157558014474207
20
4.9106941968086284
30
-1.1102230246251565e-15
10
-6.3497217186744104
20
5.264425363486791
30
0
10
-7.9378959101141824
20
5.5972474985226084
30
0
10
-10.455908631817383
20
6.5380102554707769
30
0
0
LINE
5
107
100
AcDbEntity
8
0
100
AcDbLine
10
-10.455908631817383
20
6.5380102554707751
30
0
11
-23.414025719807874
21
11.96583320204973
31
1.1102230246251565e-15
0
LINE
5
108
100
AcDbEntity
8
0
100
AcDbLine
10
-23.414025719807874
20
11.96583320204973
30
1.1102230246251565e-15
11
-23.414025719807874
21
4.1105177935661033
31
0
0
LINE
5
109
100
AcDbEntity
8
0
100
AcDbLine
10
-23.414025719807874
20
4.1105177935661033
30
0
11
-6.726
21
4.1105177935661033
31
0
0
LINE
5
110
100
AcDbEntity
8
0
100
AcDbLine
10
-6.726
20
4.1105177935661033
30
0
11
-6.7259999999999991
21
-15.989482206433895
31
0
0
LINE
5
111
100
AcDbEntity
8
0
100
AcDbLine
10
-6.7259999999999991
20
-15.989482206433895
30
0
11
-23.414025719807881
21
-15.989482206433896
31
1.1102230246251565e-15
0
LINE
5
112
100
AcDbEntity
8
0
100
AcDbLine
10
-23.414025719807881
20
-15.989482206433896
30
1.1102230246251565e-15
11
-23.414025719807881
21
-20.099328007916029
31
1.1102230246251565e-15
0
LINE
5
113
100
AcDbEntity
8
0
100
AcDbLine
10
-23.414025719807881
20
-20.099328007916029
30
1.1102230246251565e-15
11
-19.687063195640043
21
-22.266781390765409
31
0
0
SPLINE
5
114
100
AcDbEntity
8
0
100
AcDbSpline
70
0
71
3
72
14
73
10
74
0
42
0.000000001
43
0.0000000001
44
0.0000000001
40
0.23369238420757227
40
0.23369238420757227
40
0.23369238420757227
40
0.23369238420757227
40
0.6632083044754381
40
0.6632083044754381
40
0.95143112887504055
40
0.95143112887504055
40
1.2509227239090317
40
1.2509227239090317
40
1.3030514149536394
40
1.3030514149536394
40
1.3030514149536394
40
1.3030514149536394
10
-15.868871191520192
20
-21.964119829463947
30
0
10
-16.613410458492083
20
-22.358400748876996
30
0
10
-17.02964424926644
20
-22.51960007376956
30
-1.1102230246251565e-15
10
-17.996194130268307
20
-22.721857077664346
30
-1.1102230246251565e-15
10
-18.35957681258521
20
-22.7368307322965
30
-1.1102230246251565e-15
10
-19.08568407619039
20
-22.602555342036403
30
-1.1102230246251565e-15
10
-19.374902424829173
20
-22.460890698117396
30
-1.1102230246251565e-15
10
-19.616832936700476
20
-22.313003667961041
30
-1.1102230246251565e-15
10
-19.652210013142692
20
-22.290269774792542
30
0
10
-19.687063195640043
20
-22.266781390765409
30
0
0
LINE
5
115
100
AcDbEntity
8
0
100
AcDbLine
10
-15.868871191520192
20
-21.964119829463947
30
0
11
-12.586157334316654
21
-19.798925583223514
31
0
0
SPLINE
5
116
100
AcDbEntity
8
0
100
AcDbSpline
70
0
71
3
72
12
73
8
74
0
42
0.000000001
43
0.0000000001
44
0.0000000001
40
0.26010808396392771
40
0.26010808396392771
40
0.26010808396392771
40
0.26010808396392771
40
1.2700572286630445
40
1.2700572286630445
40
1.9018076675794668
40
1.9018076675794668
40
2.0274954772890146
40
2.0274954772890146
40
2.0274954772890146
40
2.0274954772890146
10
1.0898972578922941e-15
20
-17.819984605477654
30
0
10
-3.2267503993860847
20
-17.799606893044032
30
0
10
-6.1355918713936184
20
-17.878911699827281
30
1.1102230246251565e-15
10
-9.7538469546194602
20
-18.472546631439329
30
1.1102230246251565e-15
10
-10.823752259549213
20
-18.811583078933857
30
1.1102230246251565e-15
10
-12.010864716159425
20
-19.444142899309526
30
1.1102230246251565e-15
10
-12.186540105143058
20
-19.535348261853652
30
0
10
-12.586157334316644
20
-19.798925583223507
30
0
0
SPLINE
5
117
100
AcDbEntity
8
0
100
AcDbSpline
70
0
71
3
72
12
73
8
74
0
42
0.000000001
43
0.0000000001
44
0.0000000001
40
0
40
0
40
0
40
0
40
0.80179754245672696
40
0.80179754245672696
40
1.1372210631101631
40
1.1372210631101631
40
1.4543292218270332
40
1.4543292218270332
40
1.4543292218270332
40
1.4543292218270332
10
1.0898972578922941e-15
20
-17.819984605477654
30
0
10
2.6726051805764444
20
-17.803106454682734
30
0
10
5.6306352764797394
20
-17.857657243566869
30
0
10
8.8254615350249388
20
-18.303070771028466
30
0
10
9.6115140040085105
20
-18.474162515632294
30
0
10
10.991589290391923
20
-18.924629466373727
30
0
10
11.754932626668868
20
-19.250670988817522
30
0
10
12.586157334316644
20
-19.798925583223504
30
0
0
LINE
5
118
100
AcDbEntity
8
0
100
AcDbLine
10
12.586157334316642
20
-19.798925583223504
30
0
11
15.868871191518616
21
-21.964119829463105
31
0
0
SPLINE
5
119
100
AcDbEntity
8
0
100
AcDbSpline
70
0
71
3
72
14
73
10
74
0
42
0.000000001
43
0.0000000001
44
0.0000000001
40
0.19358941602583585
40
0.19358941602583585
40
0.19358941602583585
40
0.19358941602583585
40
0.40090795761151787
40
0.40090795761151787
40
1.0284028313035694
40
1.0284028313035694
40
1.7330758672370734
40
1.7330758672370734
40
2.3027828053491941
40
2.3027828053491941
40
2.3027828053491941
40
2.3027828053491941
10
19.687063195640043
20
-22.266781390765409
30
0
10
19.467065082786974
20
-22.415043322378956
30
0
10
19.360093651549334
20
-22.459992254067167
30
0
10
18.881080381348124
20
-22.66576801854486
30
0
10
18.552117924634551
20
-22.709605552929027
30
0
10
17.980975363998148
20
-22.714994967507632
30
0
10
17.621001489257992
20
-22.666927823066537
30
0
10
16.806415529107795
20
-22.410407156782401
30
0
10
16.457008459756558
20
-22.275575938158468
30
0
10
15.868871191518529
20
-21.964119829463055
30
0
0
LINE
5
120
100
AcDbEntity
8
0
100
AcDbLine
10
19.687063195640043
20
-22.266781390765409
30
0
11
23.414025719807881
21
-20.099328007916029
31
0
0
LINE
5
121
100
AcDbEntity
8
0
100
AcDbLine
10
23.414025719807881
20
-20.099328007916029
30
0
11
23.414025719807885
21
-15.989482206433896
31
0
0
LINE
5
122
100
AcDbEntity
8
0
100
AcDbLine
10
23.414025719807885
20
-15.989482206433896
30
0
11
6.7260000000000009
21
-15.989482206433896
31
0
0
LWPOLYLINE
5
123
100
AcDbEntity
8
0
100
AcDbPolyline
90
4
70
1
43
0.0
10
-6.7259999999999991
20
-15.989482206433895
10
-26.826000000000001
20
-15.989482206433895
10
-26.826000000000001
20
4.1105177935661086
10
-6.7259999999999991
20
4.1105177935661086
0
LWPOLYLINE
5
124
100
AcDbEntity
8
0
100
AcDbPolyline
90
4
70
1
43
0.0
10
6.7260000000000009
20
-15.989482206433896
10
26.826000000000004
20
-15.989482206433896
10
26.826000000000004
20
4.1105177935661068
10
6.7260000000000009
20
4.1105177935661068
0
ENDSEC
0
SECTION
2
OBJECTS
0
DICTIONARY
5
C
100
AcDbDictionary
3
ACAD_GROUP
350
D
3
ACAD_MLINESTYLE
350
17
0
DICTIONARY
5
D
100
AcDbDictionary
0
DICTIONARY
5
1A
330
C
100
AcDbDictionary
0
DICTIONARY
5
17
100
AcDbDictionary
0
ENDSEC
0
EOF
