%TF.GenerationSoftware,KiCad,Pcbnew,7.0.8*%
%TF.CreationDate,2023-10-26T13:22:37+11:00*%
%TF.ProjectId,linetest4.0,6c696e65-7465-4737-9434-2e302e6b6963,rev?*%
%TF.SameCoordinates,Original*%
%TF.FileFunction,Soldermask,Top*%
%TF.FilePolarity,Negative*%
%FSLAX46Y46*%
G04 Gerber Fmt 4.6, Leading zero omitted, Abs format (unit mm)*
G04 Created by KiCad (PCBNEW 7.0.8) date 2023-10-26 13:22:37*
%MOMM*%
%LPD*%
G01*
G04 APERTURE LIST*
G04 Aperture macros list*
%AMRoundRect*
0 Rectangle with rounded corners*
0 $1 Rounding radius*
0 $2 $3 $4 $5 $6 $7 $8 $9 X,Y pos of 4 corners*
0 Add a 4 corners polygon primitive as box body*
4,1,4,$2,$3,$4,$5,$6,$7,$8,$9,$2,$3,0*
0 Add four circle primitives for the rounded corners*
1,1,$1+$1,$2,$3*
1,1,$1+$1,$4,$5*
1,1,$1+$1,$6,$7*
1,1,$1+$1,$8,$9*
0 Add four rect primitives between the rounded corners*
20,1,$1+$1,$2,$3,$4,$5,0*
20,1,$1+$1,$4,$5,$6,$7,0*
20,1,$1+$1,$6,$7,$8,$9,0*
20,1,$1+$1,$8,$9,$2,$3,0*%
G04 Aperture macros list end*
%ADD10C,0.010000*%
%ADD11O,1.304000X2.004000*%
%ADD12O,1.254000X1.654000*%
%ADD13RoundRect,0.552000X0.300000X0.300000X-0.300000X0.300000X-0.300000X-0.300000X0.300000X-0.300000X0*%
%ADD14R,1.200000X1.200000*%
%ADD15RoundRect,0.140000X-0.170000X0.140000X-0.170000X-0.140000X0.170000X-0.140000X0.170000X0.140000X0*%
%ADD16C,3.200000*%
%ADD17RoundRect,0.140000X0.140000X0.170000X-0.140000X0.170000X-0.140000X-0.170000X0.140000X-0.170000X0*%
%ADD18R,3.200000X2.000000*%
%ADD19RoundRect,0.150000X-0.150000X0.512500X-0.150000X-0.512500X0.150000X-0.512500X0.150000X0.512500X0*%
%ADD20C,2.340000*%
%ADD21RoundRect,0.250000X-0.725000X0.600000X-0.725000X-0.600000X0.725000X-0.600000X0.725000X0.600000X0*%
%ADD22O,1.950000X1.700000*%
G04 APERTURE END LIST*
%TO.C,U7*%
D10*
X161390000Y-198030000D02*
X158890000Y-198030000D01*
X158843000Y-198029000D01*
X158796000Y-198025000D01*
X158749000Y-198019000D01*
X158703000Y-198010000D01*
X158657000Y-197999000D01*
X158612000Y-197986000D01*
X158567000Y-197970000D01*
X158524000Y-197952000D01*
X158481000Y-197932000D01*
X158440000Y-197909000D01*
X158400000Y-197885000D01*
X158361000Y-197858000D01*
X158324000Y-197829000D01*
X158288000Y-197799000D01*
X158254000Y-197766000D01*
X158221000Y-197732000D01*
X158191000Y-197696000D01*
X158162000Y-197659000D01*
X158135000Y-197620000D01*
X158111000Y-197580000D01*
X158088000Y-197539000D01*
X158068000Y-197496000D01*
X158050000Y-197453000D01*
X158034000Y-197408000D01*
X158021000Y-197363000D01*
X158010000Y-197317000D01*
X158001000Y-197271000D01*
X157995000Y-197224000D01*
X157991000Y-197177000D01*
X157990000Y-197130000D01*
X157991000Y-197083000D01*
X157995000Y-197036000D01*
X158001000Y-196989000D01*
X158010000Y-196943000D01*
X158021000Y-196897000D01*
X158034000Y-196852000D01*
X158050000Y-196807000D01*
X158068000Y-196764000D01*
X158088000Y-196721000D01*
X158111000Y-196680000D01*
X158135000Y-196640000D01*
X158162000Y-196601000D01*
X158191000Y-196564000D01*
X158221000Y-196528000D01*
X158254000Y-196494000D01*
X158288000Y-196461000D01*
X158324000Y-196431000D01*
X158361000Y-196402000D01*
X158400000Y-196375000D01*
X158440000Y-196351000D01*
X158481000Y-196328000D01*
X158524000Y-196308000D01*
X158567000Y-196290000D01*
X158612000Y-196274000D01*
X158657000Y-196261000D01*
X158703000Y-196250000D01*
X158749000Y-196241000D01*
X158796000Y-196235000D01*
X158843000Y-196231000D01*
X158890000Y-196230000D01*
X161390000Y-196230000D01*
X161390000Y-198030000D01*
G36*
X161390000Y-198030000D02*
G01*
X158890000Y-198030000D01*
X158843000Y-198029000D01*
X158796000Y-198025000D01*
X158749000Y-198019000D01*
X158703000Y-198010000D01*
X158657000Y-197999000D01*
X158612000Y-197986000D01*
X158567000Y-197970000D01*
X158524000Y-197952000D01*
X158481000Y-197932000D01*
X158440000Y-197909000D01*
X158400000Y-197885000D01*
X158361000Y-197858000D01*
X158324000Y-197829000D01*
X158288000Y-197799000D01*
X158254000Y-197766000D01*
X158221000Y-197732000D01*
X158191000Y-197696000D01*
X158162000Y-197659000D01*
X158135000Y-197620000D01*
X158111000Y-197580000D01*
X158088000Y-197539000D01*
X158068000Y-197496000D01*
X158050000Y-197453000D01*
X158034000Y-197408000D01*
X158021000Y-197363000D01*
X158010000Y-197317000D01*
X158001000Y-197271000D01*
X157995000Y-197224000D01*
X157991000Y-197177000D01*
X157990000Y-197130000D01*
X157991000Y-197083000D01*
X157995000Y-197036000D01*
X158001000Y-196989000D01*
X158010000Y-196943000D01*
X158021000Y-196897000D01*
X158034000Y-196852000D01*
X158050000Y-196807000D01*
X158068000Y-196764000D01*
X158088000Y-196721000D01*
X158111000Y-196680000D01*
X158135000Y-196640000D01*
X158162000Y-196601000D01*
X158191000Y-196564000D01*
X158221000Y-196528000D01*
X158254000Y-196494000D01*
X158288000Y-196461000D01*
X158324000Y-196431000D01*
X158361000Y-196402000D01*
X158400000Y-196375000D01*
X158440000Y-196351000D01*
X158481000Y-196328000D01*
X158524000Y-196308000D01*
X158567000Y-196290000D01*
X158612000Y-196274000D01*
X158657000Y-196261000D01*
X158703000Y-196250000D01*
X158749000Y-196241000D01*
X158796000Y-196235000D01*
X158843000Y-196231000D01*
X158890000Y-196230000D01*
X161390000Y-196230000D01*
X161390000Y-198030000D01*
G37*
X161390000Y-195490000D02*
X158890000Y-195490000D01*
X158843000Y-195489000D01*
X158796000Y-195485000D01*
X158749000Y-195479000D01*
X158703000Y-195470000D01*
X158657000Y-195459000D01*
X158612000Y-195446000D01*
X158567000Y-195430000D01*
X158524000Y-195412000D01*
X158481000Y-195392000D01*
X158440000Y-195369000D01*
X158400000Y-195345000D01*
X158361000Y-195318000D01*
X158324000Y-195289000D01*
X158288000Y-195259000D01*
X158254000Y-195226000D01*
X158221000Y-195192000D01*
X158191000Y-195156000D01*
X158162000Y-195119000D01*
X158135000Y-195080000D01*
X158111000Y-195040000D01*
X158088000Y-194999000D01*
X158068000Y-194956000D01*
X158050000Y-194913000D01*
X158034000Y-194868000D01*
X158021000Y-194823000D01*
X158010000Y-194777000D01*
X158001000Y-194731000D01*
X157995000Y-194684000D01*
X157991000Y-194637000D01*
X157990000Y-194590000D01*
X157991000Y-194543000D01*
X157995000Y-194496000D01*
X158001000Y-194449000D01*
X158010000Y-194403000D01*
X158021000Y-194357000D01*
X158034000Y-194312000D01*
X158050000Y-194267000D01*
X158068000Y-194224000D01*
X158088000Y-194181000D01*
X158111000Y-194140000D01*
X158135000Y-194100000D01*
X158162000Y-194061000D01*
X158191000Y-194024000D01*
X158221000Y-193988000D01*
X158254000Y-193954000D01*
X158288000Y-193921000D01*
X158324000Y-193891000D01*
X158361000Y-193862000D01*
X158400000Y-193835000D01*
X158440000Y-193811000D01*
X158481000Y-193788000D01*
X158524000Y-193768000D01*
X158567000Y-193750000D01*
X158612000Y-193734000D01*
X158657000Y-193721000D01*
X158703000Y-193710000D01*
X158749000Y-193701000D01*
X158796000Y-193695000D01*
X158843000Y-193691000D01*
X158890000Y-193690000D01*
X161390000Y-193690000D01*
X161390000Y-195490000D01*
G36*
X161390000Y-195490000D02*
G01*
X158890000Y-195490000D01*
X158843000Y-195489000D01*
X158796000Y-195485000D01*
X158749000Y-195479000D01*
X158703000Y-195470000D01*
X158657000Y-195459000D01*
X158612000Y-195446000D01*
X158567000Y-195430000D01*
X158524000Y-195412000D01*
X158481000Y-195392000D01*
X158440000Y-195369000D01*
X158400000Y-195345000D01*
X158361000Y-195318000D01*
X158324000Y-195289000D01*
X158288000Y-195259000D01*
X158254000Y-195226000D01*
X158221000Y-195192000D01*
X158191000Y-195156000D01*
X158162000Y-195119000D01*
X158135000Y-195080000D01*
X158111000Y-195040000D01*
X158088000Y-194999000D01*
X158068000Y-194956000D01*
X158050000Y-194913000D01*
X158034000Y-194868000D01*
X158021000Y-194823000D01*
X158010000Y-194777000D01*
X158001000Y-194731000D01*
X157995000Y-194684000D01*
X157991000Y-194637000D01*
X157990000Y-194590000D01*
X157991000Y-194543000D01*
X157995000Y-194496000D01*
X158001000Y-194449000D01*
X158010000Y-194403000D01*
X158021000Y-194357000D01*
X158034000Y-194312000D01*
X158050000Y-194267000D01*
X158068000Y-194224000D01*
X158088000Y-194181000D01*
X158111000Y-194140000D01*
X158135000Y-194100000D01*
X158162000Y-194061000D01*
X158191000Y-194024000D01*
X158221000Y-193988000D01*
X158254000Y-193954000D01*
X158288000Y-193921000D01*
X158324000Y-193891000D01*
X158361000Y-193862000D01*
X158400000Y-193835000D01*
X158440000Y-193811000D01*
X158481000Y-193788000D01*
X158524000Y-193768000D01*
X158567000Y-193750000D01*
X158612000Y-193734000D01*
X158657000Y-193721000D01*
X158703000Y-193710000D01*
X158749000Y-193701000D01*
X158796000Y-193695000D01*
X158843000Y-193691000D01*
X158890000Y-193690000D01*
X161390000Y-193690000D01*
X161390000Y-195490000D01*
G37*
X161390000Y-190410000D02*
X158890000Y-190410000D01*
X158843000Y-190409000D01*
X158796000Y-190405000D01*
X158749000Y-190399000D01*
X158703000Y-190390000D01*
X158657000Y-190379000D01*
X158612000Y-190366000D01*
X158567000Y-190350000D01*
X158524000Y-190332000D01*
X158481000Y-190312000D01*
X158440000Y-190289000D01*
X158400000Y-190265000D01*
X158361000Y-190238000D01*
X158324000Y-190209000D01*
X158288000Y-190179000D01*
X158254000Y-190146000D01*
X158221000Y-190112000D01*
X158191000Y-190076000D01*
X158162000Y-190039000D01*
X158135000Y-190000000D01*
X158111000Y-189960000D01*
X158088000Y-189919000D01*
X158068000Y-189876000D01*
X158050000Y-189833000D01*
X158034000Y-189788000D01*
X158021000Y-189743000D01*
X158010000Y-189697000D01*
X158001000Y-189651000D01*
X157995000Y-189604000D01*
X157991000Y-189557000D01*
X157990000Y-189510000D01*
X157991000Y-189463000D01*
X157995000Y-189416000D01*
X158001000Y-189369000D01*
X158010000Y-189323000D01*
X158021000Y-189277000D01*
X158034000Y-189232000D01*
X158050000Y-189187000D01*
X158068000Y-189144000D01*
X158088000Y-189101000D01*
X158111000Y-189060000D01*
X158135000Y-189020000D01*
X158162000Y-188981000D01*
X158191000Y-188944000D01*
X158221000Y-188908000D01*
X158254000Y-188874000D01*
X158288000Y-188841000D01*
X158324000Y-188811000D01*
X158361000Y-188782000D01*
X158400000Y-188755000D01*
X158440000Y-188731000D01*
X158481000Y-188708000D01*
X158524000Y-188688000D01*
X158567000Y-188670000D01*
X158612000Y-188654000D01*
X158657000Y-188641000D01*
X158703000Y-188630000D01*
X158749000Y-188621000D01*
X158796000Y-188615000D01*
X158843000Y-188611000D01*
X158890000Y-188610000D01*
X161390000Y-188610000D01*
X161390000Y-190410000D01*
G36*
X161390000Y-190410000D02*
G01*
X158890000Y-190410000D01*
X158843000Y-190409000D01*
X158796000Y-190405000D01*
X158749000Y-190399000D01*
X158703000Y-190390000D01*
X158657000Y-190379000D01*
X158612000Y-190366000D01*
X158567000Y-190350000D01*
X158524000Y-190332000D01*
X158481000Y-190312000D01*
X158440000Y-190289000D01*
X158400000Y-190265000D01*
X158361000Y-190238000D01*
X158324000Y-190209000D01*
X158288000Y-190179000D01*
X158254000Y-190146000D01*
X158221000Y-190112000D01*
X158191000Y-190076000D01*
X158162000Y-190039000D01*
X158135000Y-190000000D01*
X158111000Y-189960000D01*
X158088000Y-189919000D01*
X158068000Y-189876000D01*
X158050000Y-189833000D01*
X158034000Y-189788000D01*
X158021000Y-189743000D01*
X158010000Y-189697000D01*
X158001000Y-189651000D01*
X157995000Y-189604000D01*
X157991000Y-189557000D01*
X157990000Y-189510000D01*
X157991000Y-189463000D01*
X157995000Y-189416000D01*
X158001000Y-189369000D01*
X158010000Y-189323000D01*
X158021000Y-189277000D01*
X158034000Y-189232000D01*
X158050000Y-189187000D01*
X158068000Y-189144000D01*
X158088000Y-189101000D01*
X158111000Y-189060000D01*
X158135000Y-189020000D01*
X158162000Y-188981000D01*
X158191000Y-188944000D01*
X158221000Y-188908000D01*
X158254000Y-188874000D01*
X158288000Y-188841000D01*
X158324000Y-188811000D01*
X158361000Y-188782000D01*
X158400000Y-188755000D01*
X158440000Y-188731000D01*
X158481000Y-188708000D01*
X158524000Y-188688000D01*
X158567000Y-188670000D01*
X158612000Y-188654000D01*
X158657000Y-188641000D01*
X158703000Y-188630000D01*
X158749000Y-188621000D01*
X158796000Y-188615000D01*
X158843000Y-188611000D01*
X158890000Y-188610000D01*
X161390000Y-188610000D01*
X161390000Y-190410000D01*
G37*
X161390000Y-187870000D02*
X158890000Y-187870000D01*
X158843000Y-187869000D01*
X158796000Y-187865000D01*
X158749000Y-187859000D01*
X158703000Y-187850000D01*
X158657000Y-187839000D01*
X158612000Y-187826000D01*
X158567000Y-187810000D01*
X158524000Y-187792000D01*
X158481000Y-187772000D01*
X158440000Y-187749000D01*
X158400000Y-187725000D01*
X158361000Y-187698000D01*
X158324000Y-187669000D01*
X158288000Y-187639000D01*
X158254000Y-187606000D01*
X158221000Y-187572000D01*
X158191000Y-187536000D01*
X158162000Y-187499000D01*
X158135000Y-187460000D01*
X158111000Y-187420000D01*
X158088000Y-187379000D01*
X158068000Y-187336000D01*
X158050000Y-187293000D01*
X158034000Y-187248000D01*
X158021000Y-187203000D01*
X158010000Y-187157000D01*
X158001000Y-187111000D01*
X157995000Y-187064000D01*
X157991000Y-187017000D01*
X157990000Y-186970000D01*
X157991000Y-186923000D01*
X157995000Y-186876000D01*
X158001000Y-186829000D01*
X158010000Y-186783000D01*
X158021000Y-186737000D01*
X158034000Y-186692000D01*
X158050000Y-186647000D01*
X158068000Y-186604000D01*
X158088000Y-186561000D01*
X158111000Y-186520000D01*
X158135000Y-186480000D01*
X158162000Y-186441000D01*
X158191000Y-186404000D01*
X158221000Y-186368000D01*
X158254000Y-186334000D01*
X158288000Y-186301000D01*
X158324000Y-186271000D01*
X158361000Y-186242000D01*
X158400000Y-186215000D01*
X158440000Y-186191000D01*
X158481000Y-186168000D01*
X158524000Y-186148000D01*
X158567000Y-186130000D01*
X158612000Y-186114000D01*
X158657000Y-186101000D01*
X158703000Y-186090000D01*
X158749000Y-186081000D01*
X158796000Y-186075000D01*
X158843000Y-186071000D01*
X158890000Y-186070000D01*
X161390000Y-186070000D01*
X161390000Y-187870000D01*
G36*
X161390000Y-187870000D02*
G01*
X158890000Y-187870000D01*
X158843000Y-187869000D01*
X158796000Y-187865000D01*
X158749000Y-187859000D01*
X158703000Y-187850000D01*
X158657000Y-187839000D01*
X158612000Y-187826000D01*
X158567000Y-187810000D01*
X158524000Y-187792000D01*
X158481000Y-187772000D01*
X158440000Y-187749000D01*
X158400000Y-187725000D01*
X158361000Y-187698000D01*
X158324000Y-187669000D01*
X158288000Y-187639000D01*
X158254000Y-187606000D01*
X158221000Y-187572000D01*
X158191000Y-187536000D01*
X158162000Y-187499000D01*
X158135000Y-187460000D01*
X158111000Y-187420000D01*
X158088000Y-187379000D01*
X158068000Y-187336000D01*
X158050000Y-187293000D01*
X158034000Y-187248000D01*
X158021000Y-187203000D01*
X158010000Y-187157000D01*
X158001000Y-187111000D01*
X157995000Y-187064000D01*
X157991000Y-187017000D01*
X157990000Y-186970000D01*
X157991000Y-186923000D01*
X157995000Y-186876000D01*
X158001000Y-186829000D01*
X158010000Y-186783000D01*
X158021000Y-186737000D01*
X158034000Y-186692000D01*
X158050000Y-186647000D01*
X158068000Y-186604000D01*
X158088000Y-186561000D01*
X158111000Y-186520000D01*
X158135000Y-186480000D01*
X158162000Y-186441000D01*
X158191000Y-186404000D01*
X158221000Y-186368000D01*
X158254000Y-186334000D01*
X158288000Y-186301000D01*
X158324000Y-186271000D01*
X158361000Y-186242000D01*
X158400000Y-186215000D01*
X158440000Y-186191000D01*
X158481000Y-186168000D01*
X158524000Y-186148000D01*
X158567000Y-186130000D01*
X158612000Y-186114000D01*
X158657000Y-186101000D01*
X158703000Y-186090000D01*
X158749000Y-186081000D01*
X158796000Y-186075000D01*
X158843000Y-186071000D01*
X158890000Y-186070000D01*
X161390000Y-186070000D01*
X161390000Y-187870000D01*
G37*
X161390000Y-185330000D02*
X158890000Y-185330000D01*
X158843000Y-185329000D01*
X158796000Y-185325000D01*
X158749000Y-185319000D01*
X158703000Y-185310000D01*
X158657000Y-185299000D01*
X158612000Y-185286000D01*
X158567000Y-185270000D01*
X158524000Y-185252000D01*
X158481000Y-185232000D01*
X158440000Y-185209000D01*
X158400000Y-185185000D01*
X158361000Y-185158000D01*
X158324000Y-185129000D01*
X158288000Y-185099000D01*
X158254000Y-185066000D01*
X158221000Y-185032000D01*
X158191000Y-184996000D01*
X158162000Y-184959000D01*
X158135000Y-184920000D01*
X158111000Y-184880000D01*
X158088000Y-184839000D01*
X158068000Y-184796000D01*
X158050000Y-184753000D01*
X158034000Y-184708000D01*
X158021000Y-184663000D01*
X158010000Y-184617000D01*
X158001000Y-184571000D01*
X157995000Y-184524000D01*
X157991000Y-184477000D01*
X157990000Y-184430000D01*
X157991000Y-184383000D01*
X157995000Y-184336000D01*
X158001000Y-184289000D01*
X158010000Y-184243000D01*
X158021000Y-184197000D01*
X158034000Y-184152000D01*
X158050000Y-184107000D01*
X158068000Y-184064000D01*
X158088000Y-184021000D01*
X158111000Y-183980000D01*
X158135000Y-183940000D01*
X158162000Y-183901000D01*
X158191000Y-183864000D01*
X158221000Y-183828000D01*
X158254000Y-183794000D01*
X158288000Y-183761000D01*
X158324000Y-183731000D01*
X158361000Y-183702000D01*
X158400000Y-183675000D01*
X158440000Y-183651000D01*
X158481000Y-183628000D01*
X158524000Y-183608000D01*
X158567000Y-183590000D01*
X158612000Y-183574000D01*
X158657000Y-183561000D01*
X158703000Y-183550000D01*
X158749000Y-183541000D01*
X158796000Y-183535000D01*
X158843000Y-183531000D01*
X158890000Y-183530000D01*
X161390000Y-183530000D01*
X161390000Y-185330000D01*
G36*
X161390000Y-185330000D02*
G01*
X158890000Y-185330000D01*
X158843000Y-185329000D01*
X158796000Y-185325000D01*
X158749000Y-185319000D01*
X158703000Y-185310000D01*
X158657000Y-185299000D01*
X158612000Y-185286000D01*
X158567000Y-185270000D01*
X158524000Y-185252000D01*
X158481000Y-185232000D01*
X158440000Y-185209000D01*
X158400000Y-185185000D01*
X158361000Y-185158000D01*
X158324000Y-185129000D01*
X158288000Y-185099000D01*
X158254000Y-185066000D01*
X158221000Y-185032000D01*
X158191000Y-184996000D01*
X158162000Y-184959000D01*
X158135000Y-184920000D01*
X158111000Y-184880000D01*
X158088000Y-184839000D01*
X158068000Y-184796000D01*
X158050000Y-184753000D01*
X158034000Y-184708000D01*
X158021000Y-184663000D01*
X158010000Y-184617000D01*
X158001000Y-184571000D01*
X157995000Y-184524000D01*
X157991000Y-184477000D01*
X157990000Y-184430000D01*
X157991000Y-184383000D01*
X157995000Y-184336000D01*
X158001000Y-184289000D01*
X158010000Y-184243000D01*
X158021000Y-184197000D01*
X158034000Y-184152000D01*
X158050000Y-184107000D01*
X158068000Y-184064000D01*
X158088000Y-184021000D01*
X158111000Y-183980000D01*
X158135000Y-183940000D01*
X158162000Y-183901000D01*
X158191000Y-183864000D01*
X158221000Y-183828000D01*
X158254000Y-183794000D01*
X158288000Y-183761000D01*
X158324000Y-183731000D01*
X158361000Y-183702000D01*
X158400000Y-183675000D01*
X158440000Y-183651000D01*
X158481000Y-183628000D01*
X158524000Y-183608000D01*
X158567000Y-183590000D01*
X158612000Y-183574000D01*
X158657000Y-183561000D01*
X158703000Y-183550000D01*
X158749000Y-183541000D01*
X158796000Y-183535000D01*
X158843000Y-183531000D01*
X158890000Y-183530000D01*
X161390000Y-183530000D01*
X161390000Y-185330000D01*
G37*
X161390000Y-182790000D02*
X158890000Y-182790000D01*
X158843000Y-182789000D01*
X158796000Y-182785000D01*
X158749000Y-182779000D01*
X158703000Y-182770000D01*
X158657000Y-182759000D01*
X158612000Y-182746000D01*
X158567000Y-182730000D01*
X158524000Y-182712000D01*
X158481000Y-182692000D01*
X158440000Y-182669000D01*
X158400000Y-182645000D01*
X158361000Y-182618000D01*
X158324000Y-182589000D01*
X158288000Y-182559000D01*
X158254000Y-182526000D01*
X158221000Y-182492000D01*
X158191000Y-182456000D01*
X158162000Y-182419000D01*
X158135000Y-182380000D01*
X158111000Y-182340000D01*
X158088000Y-182299000D01*
X158068000Y-182256000D01*
X158050000Y-182213000D01*
X158034000Y-182168000D01*
X158021000Y-182123000D01*
X158010000Y-182077000D01*
X158001000Y-182031000D01*
X157995000Y-181984000D01*
X157991000Y-181937000D01*
X157990000Y-181890000D01*
X157991000Y-181843000D01*
X157995000Y-181796000D01*
X158001000Y-181749000D01*
X158010000Y-181703000D01*
X158021000Y-181657000D01*
X158034000Y-181612000D01*
X158050000Y-181567000D01*
X158068000Y-181524000D01*
X158088000Y-181481000D01*
X158111000Y-181440000D01*
X158135000Y-181400000D01*
X158162000Y-181361000D01*
X158191000Y-181324000D01*
X158221000Y-181288000D01*
X158254000Y-181254000D01*
X158288000Y-181221000D01*
X158324000Y-181191000D01*
X158361000Y-181162000D01*
X158400000Y-181135000D01*
X158440000Y-181111000D01*
X158481000Y-181088000D01*
X158524000Y-181068000D01*
X158567000Y-181050000D01*
X158612000Y-181034000D01*
X158657000Y-181021000D01*
X158703000Y-181010000D01*
X158749000Y-181001000D01*
X158796000Y-180995000D01*
X158843000Y-180991000D01*
X158890000Y-180990000D01*
X161390000Y-180990000D01*
X161390000Y-182790000D01*
G36*
X161390000Y-182790000D02*
G01*
X158890000Y-182790000D01*
X158843000Y-182789000D01*
X158796000Y-182785000D01*
X158749000Y-182779000D01*
X158703000Y-182770000D01*
X158657000Y-182759000D01*
X158612000Y-182746000D01*
X158567000Y-182730000D01*
X158524000Y-182712000D01*
X158481000Y-182692000D01*
X158440000Y-182669000D01*
X158400000Y-182645000D01*
X158361000Y-182618000D01*
X158324000Y-182589000D01*
X158288000Y-182559000D01*
X158254000Y-182526000D01*
X158221000Y-182492000D01*
X158191000Y-182456000D01*
X158162000Y-182419000D01*
X158135000Y-182380000D01*
X158111000Y-182340000D01*
X158088000Y-182299000D01*
X158068000Y-182256000D01*
X158050000Y-182213000D01*
X158034000Y-182168000D01*
X158021000Y-182123000D01*
X158010000Y-182077000D01*
X158001000Y-182031000D01*
X157995000Y-181984000D01*
X157991000Y-181937000D01*
X157990000Y-181890000D01*
X157991000Y-181843000D01*
X157995000Y-181796000D01*
X158001000Y-181749000D01*
X158010000Y-181703000D01*
X158021000Y-181657000D01*
X158034000Y-181612000D01*
X158050000Y-181567000D01*
X158068000Y-181524000D01*
X158088000Y-181481000D01*
X158111000Y-181440000D01*
X158135000Y-181400000D01*
X158162000Y-181361000D01*
X158191000Y-181324000D01*
X158221000Y-181288000D01*
X158254000Y-181254000D01*
X158288000Y-181221000D01*
X158324000Y-181191000D01*
X158361000Y-181162000D01*
X158400000Y-181135000D01*
X158440000Y-181111000D01*
X158481000Y-181088000D01*
X158524000Y-181068000D01*
X158567000Y-181050000D01*
X158612000Y-181034000D01*
X158657000Y-181021000D01*
X158703000Y-181010000D01*
X158749000Y-181001000D01*
X158796000Y-180995000D01*
X158843000Y-180991000D01*
X158890000Y-180990000D01*
X161390000Y-180990000D01*
X161390000Y-182790000D01*
G37*
X161390000Y-177710000D02*
X158890000Y-177710000D01*
X158843000Y-177709000D01*
X158796000Y-177705000D01*
X158749000Y-177699000D01*
X158703000Y-177690000D01*
X158657000Y-177679000D01*
X158612000Y-177666000D01*
X158567000Y-177650000D01*
X158524000Y-177632000D01*
X158481000Y-177612000D01*
X158440000Y-177589000D01*
X158400000Y-177565000D01*
X158361000Y-177538000D01*
X158324000Y-177509000D01*
X158288000Y-177479000D01*
X158254000Y-177446000D01*
X158221000Y-177412000D01*
X158191000Y-177376000D01*
X158162000Y-177339000D01*
X158135000Y-177300000D01*
X158111000Y-177260000D01*
X158088000Y-177219000D01*
X158068000Y-177176000D01*
X158050000Y-177133000D01*
X158034000Y-177088000D01*
X158021000Y-177043000D01*
X158010000Y-176997000D01*
X158001000Y-176951000D01*
X157995000Y-176904000D01*
X157991000Y-176857000D01*
X157990000Y-176810000D01*
X157991000Y-176763000D01*
X157995000Y-176716000D01*
X158001000Y-176669000D01*
X158010000Y-176623000D01*
X158021000Y-176577000D01*
X158034000Y-176532000D01*
X158050000Y-176487000D01*
X158068000Y-176444000D01*
X158088000Y-176401000D01*
X158111000Y-176360000D01*
X158135000Y-176320000D01*
X158162000Y-176281000D01*
X158191000Y-176244000D01*
X158221000Y-176208000D01*
X158254000Y-176174000D01*
X158288000Y-176141000D01*
X158324000Y-176111000D01*
X158361000Y-176082000D01*
X158400000Y-176055000D01*
X158440000Y-176031000D01*
X158481000Y-176008000D01*
X158524000Y-175988000D01*
X158567000Y-175970000D01*
X158612000Y-175954000D01*
X158657000Y-175941000D01*
X158703000Y-175930000D01*
X158749000Y-175921000D01*
X158796000Y-175915000D01*
X158843000Y-175911000D01*
X158890000Y-175910000D01*
X161390000Y-175910000D01*
X161390000Y-177710000D01*
G36*
X161390000Y-177710000D02*
G01*
X158890000Y-177710000D01*
X158843000Y-177709000D01*
X158796000Y-177705000D01*
X158749000Y-177699000D01*
X158703000Y-177690000D01*
X158657000Y-177679000D01*
X158612000Y-177666000D01*
X158567000Y-177650000D01*
X158524000Y-177632000D01*
X158481000Y-177612000D01*
X158440000Y-177589000D01*
X158400000Y-177565000D01*
X158361000Y-177538000D01*
X158324000Y-177509000D01*
X158288000Y-177479000D01*
X158254000Y-177446000D01*
X158221000Y-177412000D01*
X158191000Y-177376000D01*
X158162000Y-177339000D01*
X158135000Y-177300000D01*
X158111000Y-177260000D01*
X158088000Y-177219000D01*
X158068000Y-177176000D01*
X158050000Y-177133000D01*
X158034000Y-177088000D01*
X158021000Y-177043000D01*
X158010000Y-176997000D01*
X158001000Y-176951000D01*
X157995000Y-176904000D01*
X157991000Y-176857000D01*
X157990000Y-176810000D01*
X157991000Y-176763000D01*
X157995000Y-176716000D01*
X158001000Y-176669000D01*
X158010000Y-176623000D01*
X158021000Y-176577000D01*
X158034000Y-176532000D01*
X158050000Y-176487000D01*
X158068000Y-176444000D01*
X158088000Y-176401000D01*
X158111000Y-176360000D01*
X158135000Y-176320000D01*
X158162000Y-176281000D01*
X158191000Y-176244000D01*
X158221000Y-176208000D01*
X158254000Y-176174000D01*
X158288000Y-176141000D01*
X158324000Y-176111000D01*
X158361000Y-176082000D01*
X158400000Y-176055000D01*
X158440000Y-176031000D01*
X158481000Y-176008000D01*
X158524000Y-175988000D01*
X158567000Y-175970000D01*
X158612000Y-175954000D01*
X158657000Y-175941000D01*
X158703000Y-175930000D01*
X158749000Y-175921000D01*
X158796000Y-175915000D01*
X158843000Y-175911000D01*
X158890000Y-175910000D01*
X161390000Y-175910000D01*
X161390000Y-177710000D01*
G37*
X161390000Y-175170000D02*
X158890000Y-175170000D01*
X158843000Y-175169000D01*
X158796000Y-175165000D01*
X158749000Y-175159000D01*
X158703000Y-175150000D01*
X158657000Y-175139000D01*
X158612000Y-175126000D01*
X158567000Y-175110000D01*
X158524000Y-175092000D01*
X158481000Y-175072000D01*
X158440000Y-175049000D01*
X158400000Y-175025000D01*
X158361000Y-174998000D01*
X158324000Y-174969000D01*
X158288000Y-174939000D01*
X158254000Y-174906000D01*
X158221000Y-174872000D01*
X158191000Y-174836000D01*
X158162000Y-174799000D01*
X158135000Y-174760000D01*
X158111000Y-174720000D01*
X158088000Y-174679000D01*
X158068000Y-174636000D01*
X158050000Y-174593000D01*
X158034000Y-174548000D01*
X158021000Y-174503000D01*
X158010000Y-174457000D01*
X158001000Y-174411000D01*
X157995000Y-174364000D01*
X157991000Y-174317000D01*
X157990000Y-174270000D01*
X157991000Y-174223000D01*
X157995000Y-174176000D01*
X158001000Y-174129000D01*
X158010000Y-174083000D01*
X158021000Y-174037000D01*
X158034000Y-173992000D01*
X158050000Y-173947000D01*
X158068000Y-173904000D01*
X158088000Y-173861000D01*
X158111000Y-173820000D01*
X158135000Y-173780000D01*
X158162000Y-173741000D01*
X158191000Y-173704000D01*
X158221000Y-173668000D01*
X158254000Y-173634000D01*
X158288000Y-173601000D01*
X158324000Y-173571000D01*
X158361000Y-173542000D01*
X158400000Y-173515000D01*
X158440000Y-173491000D01*
X158481000Y-173468000D01*
X158524000Y-173448000D01*
X158567000Y-173430000D01*
X158612000Y-173414000D01*
X158657000Y-173401000D01*
X158703000Y-173390000D01*
X158749000Y-173381000D01*
X158796000Y-173375000D01*
X158843000Y-173371000D01*
X158890000Y-173370000D01*
X161390000Y-173370000D01*
X161390000Y-175170000D01*
G36*
X161390000Y-175170000D02*
G01*
X158890000Y-175170000D01*
X158843000Y-175169000D01*
X158796000Y-175165000D01*
X158749000Y-175159000D01*
X158703000Y-175150000D01*
X158657000Y-175139000D01*
X158612000Y-175126000D01*
X158567000Y-175110000D01*
X158524000Y-175092000D01*
X158481000Y-175072000D01*
X158440000Y-175049000D01*
X158400000Y-175025000D01*
X158361000Y-174998000D01*
X158324000Y-174969000D01*
X158288000Y-174939000D01*
X158254000Y-174906000D01*
X158221000Y-174872000D01*
X158191000Y-174836000D01*
X158162000Y-174799000D01*
X158135000Y-174760000D01*
X158111000Y-174720000D01*
X158088000Y-174679000D01*
X158068000Y-174636000D01*
X158050000Y-174593000D01*
X158034000Y-174548000D01*
X158021000Y-174503000D01*
X158010000Y-174457000D01*
X158001000Y-174411000D01*
X157995000Y-174364000D01*
X157991000Y-174317000D01*
X157990000Y-174270000D01*
X157991000Y-174223000D01*
X157995000Y-174176000D01*
X158001000Y-174129000D01*
X158010000Y-174083000D01*
X158021000Y-174037000D01*
X158034000Y-173992000D01*
X158050000Y-173947000D01*
X158068000Y-173904000D01*
X158088000Y-173861000D01*
X158111000Y-173820000D01*
X158135000Y-173780000D01*
X158162000Y-173741000D01*
X158191000Y-173704000D01*
X158221000Y-173668000D01*
X158254000Y-173634000D01*
X158288000Y-173601000D01*
X158324000Y-173571000D01*
X158361000Y-173542000D01*
X158400000Y-173515000D01*
X158440000Y-173491000D01*
X158481000Y-173468000D01*
X158524000Y-173448000D01*
X158567000Y-173430000D01*
X158612000Y-173414000D01*
X158657000Y-173401000D01*
X158703000Y-173390000D01*
X158749000Y-173381000D01*
X158796000Y-173375000D01*
X158843000Y-173371000D01*
X158890000Y-173370000D01*
X161390000Y-173370000D01*
X161390000Y-175170000D01*
G37*
X161390000Y-172630000D02*
X158890000Y-172630000D01*
X158843000Y-172629000D01*
X158796000Y-172625000D01*
X158749000Y-172619000D01*
X158703000Y-172610000D01*
X158657000Y-172599000D01*
X158612000Y-172586000D01*
X158567000Y-172570000D01*
X158524000Y-172552000D01*
X158481000Y-172532000D01*
X158440000Y-172509000D01*
X158400000Y-172485000D01*
X158361000Y-172458000D01*
X158324000Y-172429000D01*
X158288000Y-172399000D01*
X158254000Y-172366000D01*
X158221000Y-172332000D01*
X158191000Y-172296000D01*
X158162000Y-172259000D01*
X158135000Y-172220000D01*
X158111000Y-172180000D01*
X158088000Y-172139000D01*
X158068000Y-172096000D01*
X158050000Y-172053000D01*
X158034000Y-172008000D01*
X158021000Y-171963000D01*
X158010000Y-171917000D01*
X158001000Y-171871000D01*
X157995000Y-171824000D01*
X157991000Y-171777000D01*
X157990000Y-171730000D01*
X157991000Y-171683000D01*
X157995000Y-171636000D01*
X158001000Y-171589000D01*
X158010000Y-171543000D01*
X158021000Y-171497000D01*
X158034000Y-171452000D01*
X158050000Y-171407000D01*
X158068000Y-171364000D01*
X158088000Y-171321000D01*
X158111000Y-171280000D01*
X158135000Y-171240000D01*
X158162000Y-171201000D01*
X158191000Y-171164000D01*
X158221000Y-171128000D01*
X158254000Y-171094000D01*
X158288000Y-171061000D01*
X158324000Y-171031000D01*
X158361000Y-171002000D01*
X158400000Y-170975000D01*
X158440000Y-170951000D01*
X158481000Y-170928000D01*
X158524000Y-170908000D01*
X158567000Y-170890000D01*
X158612000Y-170874000D01*
X158657000Y-170861000D01*
X158703000Y-170850000D01*
X158749000Y-170841000D01*
X158796000Y-170835000D01*
X158843000Y-170831000D01*
X158890000Y-170830000D01*
X161390000Y-170830000D01*
X161390000Y-172630000D01*
G36*
X161390000Y-172630000D02*
G01*
X158890000Y-172630000D01*
X158843000Y-172629000D01*
X158796000Y-172625000D01*
X158749000Y-172619000D01*
X158703000Y-172610000D01*
X158657000Y-172599000D01*
X158612000Y-172586000D01*
X158567000Y-172570000D01*
X158524000Y-172552000D01*
X158481000Y-172532000D01*
X158440000Y-172509000D01*
X158400000Y-172485000D01*
X158361000Y-172458000D01*
X158324000Y-172429000D01*
X158288000Y-172399000D01*
X158254000Y-172366000D01*
X158221000Y-172332000D01*
X158191000Y-172296000D01*
X158162000Y-172259000D01*
X158135000Y-172220000D01*
X158111000Y-172180000D01*
X158088000Y-172139000D01*
X158068000Y-172096000D01*
X158050000Y-172053000D01*
X158034000Y-172008000D01*
X158021000Y-171963000D01*
X158010000Y-171917000D01*
X158001000Y-171871000D01*
X157995000Y-171824000D01*
X157991000Y-171777000D01*
X157990000Y-171730000D01*
X157991000Y-171683000D01*
X157995000Y-171636000D01*
X158001000Y-171589000D01*
X158010000Y-171543000D01*
X158021000Y-171497000D01*
X158034000Y-171452000D01*
X158050000Y-171407000D01*
X158068000Y-171364000D01*
X158088000Y-171321000D01*
X158111000Y-171280000D01*
X158135000Y-171240000D01*
X158162000Y-171201000D01*
X158191000Y-171164000D01*
X158221000Y-171128000D01*
X158254000Y-171094000D01*
X158288000Y-171061000D01*
X158324000Y-171031000D01*
X158361000Y-171002000D01*
X158400000Y-170975000D01*
X158440000Y-170951000D01*
X158481000Y-170928000D01*
X158524000Y-170908000D01*
X158567000Y-170890000D01*
X158612000Y-170874000D01*
X158657000Y-170861000D01*
X158703000Y-170850000D01*
X158749000Y-170841000D01*
X158796000Y-170835000D01*
X158843000Y-170831000D01*
X158890000Y-170830000D01*
X161390000Y-170830000D01*
X161390000Y-172630000D01*
G37*
X161390000Y-170090000D02*
X158890000Y-170090000D01*
X158843000Y-170089000D01*
X158796000Y-170085000D01*
X158749000Y-170079000D01*
X158703000Y-170070000D01*
X158657000Y-170059000D01*
X158612000Y-170046000D01*
X158567000Y-170030000D01*
X158524000Y-170012000D01*
X158481000Y-169992000D01*
X158440000Y-169969000D01*
X158400000Y-169945000D01*
X158361000Y-169918000D01*
X158324000Y-169889000D01*
X158288000Y-169859000D01*
X158254000Y-169826000D01*
X158221000Y-169792000D01*
X158191000Y-169756000D01*
X158162000Y-169719000D01*
X158135000Y-169680000D01*
X158111000Y-169640000D01*
X158088000Y-169599000D01*
X158068000Y-169556000D01*
X158050000Y-169513000D01*
X158034000Y-169468000D01*
X158021000Y-169423000D01*
X158010000Y-169377000D01*
X158001000Y-169331000D01*
X157995000Y-169284000D01*
X157991000Y-169237000D01*
X157990000Y-169190000D01*
X157991000Y-169143000D01*
X157995000Y-169096000D01*
X158001000Y-169049000D01*
X158010000Y-169003000D01*
X158021000Y-168957000D01*
X158034000Y-168912000D01*
X158050000Y-168867000D01*
X158068000Y-168824000D01*
X158088000Y-168781000D01*
X158111000Y-168740000D01*
X158135000Y-168700000D01*
X158162000Y-168661000D01*
X158191000Y-168624000D01*
X158221000Y-168588000D01*
X158254000Y-168554000D01*
X158288000Y-168521000D01*
X158324000Y-168491000D01*
X158361000Y-168462000D01*
X158400000Y-168435000D01*
X158440000Y-168411000D01*
X158481000Y-168388000D01*
X158524000Y-168368000D01*
X158567000Y-168350000D01*
X158612000Y-168334000D01*
X158657000Y-168321000D01*
X158703000Y-168310000D01*
X158749000Y-168301000D01*
X158796000Y-168295000D01*
X158843000Y-168291000D01*
X158890000Y-168290000D01*
X161390000Y-168290000D01*
X161390000Y-170090000D01*
G36*
X161390000Y-170090000D02*
G01*
X158890000Y-170090000D01*
X158843000Y-170089000D01*
X158796000Y-170085000D01*
X158749000Y-170079000D01*
X158703000Y-170070000D01*
X158657000Y-170059000D01*
X158612000Y-170046000D01*
X158567000Y-170030000D01*
X158524000Y-170012000D01*
X158481000Y-169992000D01*
X158440000Y-169969000D01*
X158400000Y-169945000D01*
X158361000Y-169918000D01*
X158324000Y-169889000D01*
X158288000Y-169859000D01*
X158254000Y-169826000D01*
X158221000Y-169792000D01*
X158191000Y-169756000D01*
X158162000Y-169719000D01*
X158135000Y-169680000D01*
X158111000Y-169640000D01*
X158088000Y-169599000D01*
X158068000Y-169556000D01*
X158050000Y-169513000D01*
X158034000Y-169468000D01*
X158021000Y-169423000D01*
X158010000Y-169377000D01*
X158001000Y-169331000D01*
X157995000Y-169284000D01*
X157991000Y-169237000D01*
X157990000Y-169190000D01*
X157991000Y-169143000D01*
X157995000Y-169096000D01*
X158001000Y-169049000D01*
X158010000Y-169003000D01*
X158021000Y-168957000D01*
X158034000Y-168912000D01*
X158050000Y-168867000D01*
X158068000Y-168824000D01*
X158088000Y-168781000D01*
X158111000Y-168740000D01*
X158135000Y-168700000D01*
X158162000Y-168661000D01*
X158191000Y-168624000D01*
X158221000Y-168588000D01*
X158254000Y-168554000D01*
X158288000Y-168521000D01*
X158324000Y-168491000D01*
X158361000Y-168462000D01*
X158400000Y-168435000D01*
X158440000Y-168411000D01*
X158481000Y-168388000D01*
X158524000Y-168368000D01*
X158567000Y-168350000D01*
X158612000Y-168334000D01*
X158657000Y-168321000D01*
X158703000Y-168310000D01*
X158749000Y-168301000D01*
X158796000Y-168295000D01*
X158843000Y-168291000D01*
X158890000Y-168290000D01*
X161390000Y-168290000D01*
X161390000Y-170090000D01*
G37*
X161390000Y-165010000D02*
X158890000Y-165010000D01*
X158843000Y-165009000D01*
X158796000Y-165005000D01*
X158749000Y-164999000D01*
X158703000Y-164990000D01*
X158657000Y-164979000D01*
X158612000Y-164966000D01*
X158567000Y-164950000D01*
X158524000Y-164932000D01*
X158481000Y-164912000D01*
X158440000Y-164889000D01*
X158400000Y-164865000D01*
X158361000Y-164838000D01*
X158324000Y-164809000D01*
X158288000Y-164779000D01*
X158254000Y-164746000D01*
X158221000Y-164712000D01*
X158191000Y-164676000D01*
X158162000Y-164639000D01*
X158135000Y-164600000D01*
X158111000Y-164560000D01*
X158088000Y-164519000D01*
X158068000Y-164476000D01*
X158050000Y-164433000D01*
X158034000Y-164388000D01*
X158021000Y-164343000D01*
X158010000Y-164297000D01*
X158001000Y-164251000D01*
X157995000Y-164204000D01*
X157991000Y-164157000D01*
X157990000Y-164110000D01*
X157991000Y-164063000D01*
X157995000Y-164016000D01*
X158001000Y-163969000D01*
X158010000Y-163923000D01*
X158021000Y-163877000D01*
X158034000Y-163832000D01*
X158050000Y-163787000D01*
X158068000Y-163744000D01*
X158088000Y-163701000D01*
X158111000Y-163660000D01*
X158135000Y-163620000D01*
X158162000Y-163581000D01*
X158191000Y-163544000D01*
X158221000Y-163508000D01*
X158254000Y-163474000D01*
X158288000Y-163441000D01*
X158324000Y-163411000D01*
X158361000Y-163382000D01*
X158400000Y-163355000D01*
X158440000Y-163331000D01*
X158481000Y-163308000D01*
X158524000Y-163288000D01*
X158567000Y-163270000D01*
X158612000Y-163254000D01*
X158657000Y-163241000D01*
X158703000Y-163230000D01*
X158749000Y-163221000D01*
X158796000Y-163215000D01*
X158843000Y-163211000D01*
X158890000Y-163210000D01*
X161390000Y-163210000D01*
X161390000Y-165010000D01*
G36*
X161390000Y-165010000D02*
G01*
X158890000Y-165010000D01*
X158843000Y-165009000D01*
X158796000Y-165005000D01*
X158749000Y-164999000D01*
X158703000Y-164990000D01*
X158657000Y-164979000D01*
X158612000Y-164966000D01*
X158567000Y-164950000D01*
X158524000Y-164932000D01*
X158481000Y-164912000D01*
X158440000Y-164889000D01*
X158400000Y-164865000D01*
X158361000Y-164838000D01*
X158324000Y-164809000D01*
X158288000Y-164779000D01*
X158254000Y-164746000D01*
X158221000Y-164712000D01*
X158191000Y-164676000D01*
X158162000Y-164639000D01*
X158135000Y-164600000D01*
X158111000Y-164560000D01*
X158088000Y-164519000D01*
X158068000Y-164476000D01*
X158050000Y-164433000D01*
X158034000Y-164388000D01*
X158021000Y-164343000D01*
X158010000Y-164297000D01*
X158001000Y-164251000D01*
X157995000Y-164204000D01*
X157991000Y-164157000D01*
X157990000Y-164110000D01*
X157991000Y-164063000D01*
X157995000Y-164016000D01*
X158001000Y-163969000D01*
X158010000Y-163923000D01*
X158021000Y-163877000D01*
X158034000Y-163832000D01*
X158050000Y-163787000D01*
X158068000Y-163744000D01*
X158088000Y-163701000D01*
X158111000Y-163660000D01*
X158135000Y-163620000D01*
X158162000Y-163581000D01*
X158191000Y-163544000D01*
X158221000Y-163508000D01*
X158254000Y-163474000D01*
X158288000Y-163441000D01*
X158324000Y-163411000D01*
X158361000Y-163382000D01*
X158400000Y-163355000D01*
X158440000Y-163331000D01*
X158481000Y-163308000D01*
X158524000Y-163288000D01*
X158567000Y-163270000D01*
X158612000Y-163254000D01*
X158657000Y-163241000D01*
X158703000Y-163230000D01*
X158749000Y-163221000D01*
X158796000Y-163215000D01*
X158843000Y-163211000D01*
X158890000Y-163210000D01*
X161390000Y-163210000D01*
X161390000Y-165010000D01*
G37*
X161390000Y-162470000D02*
X158890000Y-162470000D01*
X158843000Y-162469000D01*
X158796000Y-162465000D01*
X158749000Y-162459000D01*
X158703000Y-162450000D01*
X158657000Y-162439000D01*
X158612000Y-162426000D01*
X158567000Y-162410000D01*
X158524000Y-162392000D01*
X158481000Y-162372000D01*
X158440000Y-162349000D01*
X158400000Y-162325000D01*
X158361000Y-162298000D01*
X158324000Y-162269000D01*
X158288000Y-162239000D01*
X158254000Y-162206000D01*
X158221000Y-162172000D01*
X158191000Y-162136000D01*
X158162000Y-162099000D01*
X158135000Y-162060000D01*
X158111000Y-162020000D01*
X158088000Y-161979000D01*
X158068000Y-161936000D01*
X158050000Y-161893000D01*
X158034000Y-161848000D01*
X158021000Y-161803000D01*
X158010000Y-161757000D01*
X158001000Y-161711000D01*
X157995000Y-161664000D01*
X157991000Y-161617000D01*
X157990000Y-161570000D01*
X157991000Y-161523000D01*
X157995000Y-161476000D01*
X158001000Y-161429000D01*
X158010000Y-161383000D01*
X158021000Y-161337000D01*
X158034000Y-161292000D01*
X158050000Y-161247000D01*
X158068000Y-161204000D01*
X158088000Y-161161000D01*
X158111000Y-161120000D01*
X158135000Y-161080000D01*
X158162000Y-161041000D01*
X158191000Y-161004000D01*
X158221000Y-160968000D01*
X158254000Y-160934000D01*
X158288000Y-160901000D01*
X158324000Y-160871000D01*
X158361000Y-160842000D01*
X158400000Y-160815000D01*
X158440000Y-160791000D01*
X158481000Y-160768000D01*
X158524000Y-160748000D01*
X158567000Y-160730000D01*
X158612000Y-160714000D01*
X158657000Y-160701000D01*
X158703000Y-160690000D01*
X158749000Y-160681000D01*
X158796000Y-160675000D01*
X158843000Y-160671000D01*
X158890000Y-160670000D01*
X161390000Y-160670000D01*
X161390000Y-162470000D01*
G36*
X161390000Y-162470000D02*
G01*
X158890000Y-162470000D01*
X158843000Y-162469000D01*
X158796000Y-162465000D01*
X158749000Y-162459000D01*
X158703000Y-162450000D01*
X158657000Y-162439000D01*
X158612000Y-162426000D01*
X158567000Y-162410000D01*
X158524000Y-162392000D01*
X158481000Y-162372000D01*
X158440000Y-162349000D01*
X158400000Y-162325000D01*
X158361000Y-162298000D01*
X158324000Y-162269000D01*
X158288000Y-162239000D01*
X158254000Y-162206000D01*
X158221000Y-162172000D01*
X158191000Y-162136000D01*
X158162000Y-162099000D01*
X158135000Y-162060000D01*
X158111000Y-162020000D01*
X158088000Y-161979000D01*
X158068000Y-161936000D01*
X158050000Y-161893000D01*
X158034000Y-161848000D01*
X158021000Y-161803000D01*
X158010000Y-161757000D01*
X158001000Y-161711000D01*
X157995000Y-161664000D01*
X157991000Y-161617000D01*
X157990000Y-161570000D01*
X157991000Y-161523000D01*
X157995000Y-161476000D01*
X158001000Y-161429000D01*
X158010000Y-161383000D01*
X158021000Y-161337000D01*
X158034000Y-161292000D01*
X158050000Y-161247000D01*
X158068000Y-161204000D01*
X158088000Y-161161000D01*
X158111000Y-161120000D01*
X158135000Y-161080000D01*
X158162000Y-161041000D01*
X158191000Y-161004000D01*
X158221000Y-160968000D01*
X158254000Y-160934000D01*
X158288000Y-160901000D01*
X158324000Y-160871000D01*
X158361000Y-160842000D01*
X158400000Y-160815000D01*
X158440000Y-160791000D01*
X158481000Y-160768000D01*
X158524000Y-160748000D01*
X158567000Y-160730000D01*
X158612000Y-160714000D01*
X158657000Y-160701000D01*
X158703000Y-160690000D01*
X158749000Y-160681000D01*
X158796000Y-160675000D01*
X158843000Y-160671000D01*
X158890000Y-160670000D01*
X161390000Y-160670000D01*
X161390000Y-162470000D01*
G37*
X161390000Y-159930000D02*
X158890000Y-159930000D01*
X158843000Y-159929000D01*
X158796000Y-159925000D01*
X158749000Y-159919000D01*
X158703000Y-159910000D01*
X158657000Y-159899000D01*
X158612000Y-159886000D01*
X158567000Y-159870000D01*
X158524000Y-159852000D01*
X158481000Y-159832000D01*
X158440000Y-159809000D01*
X158400000Y-159785000D01*
X158361000Y-159758000D01*
X158324000Y-159729000D01*
X158288000Y-159699000D01*
X158254000Y-159666000D01*
X158221000Y-159632000D01*
X158191000Y-159596000D01*
X158162000Y-159559000D01*
X158135000Y-159520000D01*
X158111000Y-159480000D01*
X158088000Y-159439000D01*
X158068000Y-159396000D01*
X158050000Y-159353000D01*
X158034000Y-159308000D01*
X158021000Y-159263000D01*
X158010000Y-159217000D01*
X158001000Y-159171000D01*
X157995000Y-159124000D01*
X157991000Y-159077000D01*
X157990000Y-159030000D01*
X157991000Y-158983000D01*
X157995000Y-158936000D01*
X158001000Y-158889000D01*
X158010000Y-158843000D01*
X158021000Y-158797000D01*
X158034000Y-158752000D01*
X158050000Y-158707000D01*
X158068000Y-158664000D01*
X158088000Y-158621000D01*
X158111000Y-158580000D01*
X158135000Y-158540000D01*
X158162000Y-158501000D01*
X158191000Y-158464000D01*
X158221000Y-158428000D01*
X158254000Y-158394000D01*
X158288000Y-158361000D01*
X158324000Y-158331000D01*
X158361000Y-158302000D01*
X158400000Y-158275000D01*
X158440000Y-158251000D01*
X158481000Y-158228000D01*
X158524000Y-158208000D01*
X158567000Y-158190000D01*
X158612000Y-158174000D01*
X158657000Y-158161000D01*
X158703000Y-158150000D01*
X158749000Y-158141000D01*
X158796000Y-158135000D01*
X158843000Y-158131000D01*
X158890000Y-158130000D01*
X161390000Y-158130000D01*
X161390000Y-159930000D01*
G36*
X161390000Y-159930000D02*
G01*
X158890000Y-159930000D01*
X158843000Y-159929000D01*
X158796000Y-159925000D01*
X158749000Y-159919000D01*
X158703000Y-159910000D01*
X158657000Y-159899000D01*
X158612000Y-159886000D01*
X158567000Y-159870000D01*
X158524000Y-159852000D01*
X158481000Y-159832000D01*
X158440000Y-159809000D01*
X158400000Y-159785000D01*
X158361000Y-159758000D01*
X158324000Y-159729000D01*
X158288000Y-159699000D01*
X158254000Y-159666000D01*
X158221000Y-159632000D01*
X158191000Y-159596000D01*
X158162000Y-159559000D01*
X158135000Y-159520000D01*
X158111000Y-159480000D01*
X158088000Y-159439000D01*
X158068000Y-159396000D01*
X158050000Y-159353000D01*
X158034000Y-159308000D01*
X158021000Y-159263000D01*
X158010000Y-159217000D01*
X158001000Y-159171000D01*
X157995000Y-159124000D01*
X157991000Y-159077000D01*
X157990000Y-159030000D01*
X157991000Y-158983000D01*
X157995000Y-158936000D01*
X158001000Y-158889000D01*
X158010000Y-158843000D01*
X158021000Y-158797000D01*
X158034000Y-158752000D01*
X158050000Y-158707000D01*
X158068000Y-158664000D01*
X158088000Y-158621000D01*
X158111000Y-158580000D01*
X158135000Y-158540000D01*
X158162000Y-158501000D01*
X158191000Y-158464000D01*
X158221000Y-158428000D01*
X158254000Y-158394000D01*
X158288000Y-158361000D01*
X158324000Y-158331000D01*
X158361000Y-158302000D01*
X158400000Y-158275000D01*
X158440000Y-158251000D01*
X158481000Y-158228000D01*
X158524000Y-158208000D01*
X158567000Y-158190000D01*
X158612000Y-158174000D01*
X158657000Y-158161000D01*
X158703000Y-158150000D01*
X158749000Y-158141000D01*
X158796000Y-158135000D01*
X158843000Y-158131000D01*
X158890000Y-158130000D01*
X161390000Y-158130000D01*
X161390000Y-159930000D01*
G37*
X161390000Y-157390000D02*
X158890000Y-157390000D01*
X158843000Y-157389000D01*
X158796000Y-157385000D01*
X158749000Y-157379000D01*
X158703000Y-157370000D01*
X158657000Y-157359000D01*
X158612000Y-157346000D01*
X158567000Y-157330000D01*
X158524000Y-157312000D01*
X158481000Y-157292000D01*
X158440000Y-157269000D01*
X158400000Y-157245000D01*
X158361000Y-157218000D01*
X158324000Y-157189000D01*
X158288000Y-157159000D01*
X158254000Y-157126000D01*
X158221000Y-157092000D01*
X158191000Y-157056000D01*
X158162000Y-157019000D01*
X158135000Y-156980000D01*
X158111000Y-156940000D01*
X158088000Y-156899000D01*
X158068000Y-156856000D01*
X158050000Y-156813000D01*
X158034000Y-156768000D01*
X158021000Y-156723000D01*
X158010000Y-156677000D01*
X158001000Y-156631000D01*
X157995000Y-156584000D01*
X157991000Y-156537000D01*
X157990000Y-156490000D01*
X157991000Y-156443000D01*
X157995000Y-156396000D01*
X158001000Y-156349000D01*
X158010000Y-156303000D01*
X158021000Y-156257000D01*
X158034000Y-156212000D01*
X158050000Y-156167000D01*
X158068000Y-156124000D01*
X158088000Y-156081000D01*
X158111000Y-156040000D01*
X158135000Y-156000000D01*
X158162000Y-155961000D01*
X158191000Y-155924000D01*
X158221000Y-155888000D01*
X158254000Y-155854000D01*
X158288000Y-155821000D01*
X158324000Y-155791000D01*
X158361000Y-155762000D01*
X158400000Y-155735000D01*
X158440000Y-155711000D01*
X158481000Y-155688000D01*
X158524000Y-155668000D01*
X158567000Y-155650000D01*
X158612000Y-155634000D01*
X158657000Y-155621000D01*
X158703000Y-155610000D01*
X158749000Y-155601000D01*
X158796000Y-155595000D01*
X158843000Y-155591000D01*
X158890000Y-155590000D01*
X161390000Y-155590000D01*
X161390000Y-157390000D01*
G36*
X161390000Y-157390000D02*
G01*
X158890000Y-157390000D01*
X158843000Y-157389000D01*
X158796000Y-157385000D01*
X158749000Y-157379000D01*
X158703000Y-157370000D01*
X158657000Y-157359000D01*
X158612000Y-157346000D01*
X158567000Y-157330000D01*
X158524000Y-157312000D01*
X158481000Y-157292000D01*
X158440000Y-157269000D01*
X158400000Y-157245000D01*
X158361000Y-157218000D01*
X158324000Y-157189000D01*
X158288000Y-157159000D01*
X158254000Y-157126000D01*
X158221000Y-157092000D01*
X158191000Y-157056000D01*
X158162000Y-157019000D01*
X158135000Y-156980000D01*
X158111000Y-156940000D01*
X158088000Y-156899000D01*
X158068000Y-156856000D01*
X158050000Y-156813000D01*
X158034000Y-156768000D01*
X158021000Y-156723000D01*
X158010000Y-156677000D01*
X158001000Y-156631000D01*
X157995000Y-156584000D01*
X157991000Y-156537000D01*
X157990000Y-156490000D01*
X157991000Y-156443000D01*
X157995000Y-156396000D01*
X158001000Y-156349000D01*
X158010000Y-156303000D01*
X158021000Y-156257000D01*
X158034000Y-156212000D01*
X158050000Y-156167000D01*
X158068000Y-156124000D01*
X158088000Y-156081000D01*
X158111000Y-156040000D01*
X158135000Y-156000000D01*
X158162000Y-155961000D01*
X158191000Y-155924000D01*
X158221000Y-155888000D01*
X158254000Y-155854000D01*
X158288000Y-155821000D01*
X158324000Y-155791000D01*
X158361000Y-155762000D01*
X158400000Y-155735000D01*
X158440000Y-155711000D01*
X158481000Y-155688000D01*
X158524000Y-155668000D01*
X158567000Y-155650000D01*
X158612000Y-155634000D01*
X158657000Y-155621000D01*
X158703000Y-155610000D01*
X158749000Y-155601000D01*
X158796000Y-155595000D01*
X158843000Y-155591000D01*
X158890000Y-155590000D01*
X161390000Y-155590000D01*
X161390000Y-157390000D01*
G37*
X161390000Y-152310000D02*
X158890000Y-152310000D01*
X158843000Y-152309000D01*
X158796000Y-152305000D01*
X158749000Y-152299000D01*
X158703000Y-152290000D01*
X158657000Y-152279000D01*
X158612000Y-152266000D01*
X158567000Y-152250000D01*
X158524000Y-152232000D01*
X158481000Y-152212000D01*
X158440000Y-152189000D01*
X158400000Y-152165000D01*
X158361000Y-152138000D01*
X158324000Y-152109000D01*
X158288000Y-152079000D01*
X158254000Y-152046000D01*
X158221000Y-152012000D01*
X158191000Y-151976000D01*
X158162000Y-151939000D01*
X158135000Y-151900000D01*
X158111000Y-151860000D01*
X158088000Y-151819000D01*
X158068000Y-151776000D01*
X158050000Y-151733000D01*
X158034000Y-151688000D01*
X158021000Y-151643000D01*
X158010000Y-151597000D01*
X158001000Y-151551000D01*
X157995000Y-151504000D01*
X157991000Y-151457000D01*
X157990000Y-151410000D01*
X157991000Y-151363000D01*
X157995000Y-151316000D01*
X158001000Y-151269000D01*
X158010000Y-151223000D01*
X158021000Y-151177000D01*
X158034000Y-151132000D01*
X158050000Y-151087000D01*
X158068000Y-151044000D01*
X158088000Y-151001000D01*
X158111000Y-150960000D01*
X158135000Y-150920000D01*
X158162000Y-150881000D01*
X158191000Y-150844000D01*
X158221000Y-150808000D01*
X158254000Y-150774000D01*
X158288000Y-150741000D01*
X158324000Y-150711000D01*
X158361000Y-150682000D01*
X158400000Y-150655000D01*
X158440000Y-150631000D01*
X158481000Y-150608000D01*
X158524000Y-150588000D01*
X158567000Y-150570000D01*
X158612000Y-150554000D01*
X158657000Y-150541000D01*
X158703000Y-150530000D01*
X158749000Y-150521000D01*
X158796000Y-150515000D01*
X158843000Y-150511000D01*
X158890000Y-150510000D01*
X161390000Y-150510000D01*
X161390000Y-152310000D01*
G36*
X161390000Y-152310000D02*
G01*
X158890000Y-152310000D01*
X158843000Y-152309000D01*
X158796000Y-152305000D01*
X158749000Y-152299000D01*
X158703000Y-152290000D01*
X158657000Y-152279000D01*
X158612000Y-152266000D01*
X158567000Y-152250000D01*
X158524000Y-152232000D01*
X158481000Y-152212000D01*
X158440000Y-152189000D01*
X158400000Y-152165000D01*
X158361000Y-152138000D01*
X158324000Y-152109000D01*
X158288000Y-152079000D01*
X158254000Y-152046000D01*
X158221000Y-152012000D01*
X158191000Y-151976000D01*
X158162000Y-151939000D01*
X158135000Y-151900000D01*
X158111000Y-151860000D01*
X158088000Y-151819000D01*
X158068000Y-151776000D01*
X158050000Y-151733000D01*
X158034000Y-151688000D01*
X158021000Y-151643000D01*
X158010000Y-151597000D01*
X158001000Y-151551000D01*
X157995000Y-151504000D01*
X157991000Y-151457000D01*
X157990000Y-151410000D01*
X157991000Y-151363000D01*
X157995000Y-151316000D01*
X158001000Y-151269000D01*
X158010000Y-151223000D01*
X158021000Y-151177000D01*
X158034000Y-151132000D01*
X158050000Y-151087000D01*
X158068000Y-151044000D01*
X158088000Y-151001000D01*
X158111000Y-150960000D01*
X158135000Y-150920000D01*
X158162000Y-150881000D01*
X158191000Y-150844000D01*
X158221000Y-150808000D01*
X158254000Y-150774000D01*
X158288000Y-150741000D01*
X158324000Y-150711000D01*
X158361000Y-150682000D01*
X158400000Y-150655000D01*
X158440000Y-150631000D01*
X158481000Y-150608000D01*
X158524000Y-150588000D01*
X158567000Y-150570000D01*
X158612000Y-150554000D01*
X158657000Y-150541000D01*
X158703000Y-150530000D01*
X158749000Y-150521000D01*
X158796000Y-150515000D01*
X158843000Y-150511000D01*
X158890000Y-150510000D01*
X161390000Y-150510000D01*
X161390000Y-152310000D01*
G37*
X161390000Y-149770000D02*
X158890000Y-149770000D01*
X158843000Y-149769000D01*
X158796000Y-149765000D01*
X158749000Y-149759000D01*
X158703000Y-149750000D01*
X158657000Y-149739000D01*
X158612000Y-149726000D01*
X158567000Y-149710000D01*
X158524000Y-149692000D01*
X158481000Y-149672000D01*
X158440000Y-149649000D01*
X158400000Y-149625000D01*
X158361000Y-149598000D01*
X158324000Y-149569000D01*
X158288000Y-149539000D01*
X158254000Y-149506000D01*
X158221000Y-149472000D01*
X158191000Y-149436000D01*
X158162000Y-149399000D01*
X158135000Y-149360000D01*
X158111000Y-149320000D01*
X158088000Y-149279000D01*
X158068000Y-149236000D01*
X158050000Y-149193000D01*
X158034000Y-149148000D01*
X158021000Y-149103000D01*
X158010000Y-149057000D01*
X158001000Y-149011000D01*
X157995000Y-148964000D01*
X157991000Y-148917000D01*
X157990000Y-148870000D01*
X157991000Y-148823000D01*
X157995000Y-148776000D01*
X158001000Y-148729000D01*
X158010000Y-148683000D01*
X158021000Y-148637000D01*
X158034000Y-148592000D01*
X158050000Y-148547000D01*
X158068000Y-148504000D01*
X158088000Y-148461000D01*
X158111000Y-148420000D01*
X158135000Y-148380000D01*
X158162000Y-148341000D01*
X158191000Y-148304000D01*
X158221000Y-148268000D01*
X158254000Y-148234000D01*
X158288000Y-148201000D01*
X158324000Y-148171000D01*
X158361000Y-148142000D01*
X158400000Y-148115000D01*
X158440000Y-148091000D01*
X158481000Y-148068000D01*
X158524000Y-148048000D01*
X158567000Y-148030000D01*
X158612000Y-148014000D01*
X158657000Y-148001000D01*
X158703000Y-147990000D01*
X158749000Y-147981000D01*
X158796000Y-147975000D01*
X158843000Y-147971000D01*
X158890000Y-147970000D01*
X161390000Y-147970000D01*
X161390000Y-149770000D01*
G36*
X161390000Y-149770000D02*
G01*
X158890000Y-149770000D01*
X158843000Y-149769000D01*
X158796000Y-149765000D01*
X158749000Y-149759000D01*
X158703000Y-149750000D01*
X158657000Y-149739000D01*
X158612000Y-149726000D01*
X158567000Y-149710000D01*
X158524000Y-149692000D01*
X158481000Y-149672000D01*
X158440000Y-149649000D01*
X158400000Y-149625000D01*
X158361000Y-149598000D01*
X158324000Y-149569000D01*
X158288000Y-149539000D01*
X158254000Y-149506000D01*
X158221000Y-149472000D01*
X158191000Y-149436000D01*
X158162000Y-149399000D01*
X158135000Y-149360000D01*
X158111000Y-149320000D01*
X158088000Y-149279000D01*
X158068000Y-149236000D01*
X158050000Y-149193000D01*
X158034000Y-149148000D01*
X158021000Y-149103000D01*
X158010000Y-149057000D01*
X158001000Y-149011000D01*
X157995000Y-148964000D01*
X157991000Y-148917000D01*
X157990000Y-148870000D01*
X157991000Y-148823000D01*
X157995000Y-148776000D01*
X158001000Y-148729000D01*
X158010000Y-148683000D01*
X158021000Y-148637000D01*
X158034000Y-148592000D01*
X158050000Y-148547000D01*
X158068000Y-148504000D01*
X158088000Y-148461000D01*
X158111000Y-148420000D01*
X158135000Y-148380000D01*
X158162000Y-148341000D01*
X158191000Y-148304000D01*
X158221000Y-148268000D01*
X158254000Y-148234000D01*
X158288000Y-148201000D01*
X158324000Y-148171000D01*
X158361000Y-148142000D01*
X158400000Y-148115000D01*
X158440000Y-148091000D01*
X158481000Y-148068000D01*
X158524000Y-148048000D01*
X158567000Y-148030000D01*
X158612000Y-148014000D01*
X158657000Y-148001000D01*
X158703000Y-147990000D01*
X158749000Y-147981000D01*
X158796000Y-147975000D01*
X158843000Y-147971000D01*
X158890000Y-147970000D01*
X161390000Y-147970000D01*
X161390000Y-149770000D01*
G37*
X153440000Y-149100000D02*
X153439000Y-149147000D01*
X153435000Y-149194000D01*
X153429000Y-149241000D01*
X153420000Y-149287000D01*
X153409000Y-149333000D01*
X153396000Y-149378000D01*
X153380000Y-149423000D01*
X153362000Y-149466000D01*
X153342000Y-149509000D01*
X153319000Y-149550000D01*
X153295000Y-149590000D01*
X153268000Y-149629000D01*
X153239000Y-149666000D01*
X153209000Y-149702000D01*
X153176000Y-149736000D01*
X153142000Y-149769000D01*
X153106000Y-149799000D01*
X153069000Y-149828000D01*
X153030000Y-149855000D01*
X152990000Y-149879000D01*
X152949000Y-149902000D01*
X152906000Y-149922000D01*
X152863000Y-149940000D01*
X152818000Y-149956000D01*
X152773000Y-149969000D01*
X152727000Y-149980000D01*
X152681000Y-149989000D01*
X152634000Y-149995000D01*
X152587000Y-149999000D01*
X152540000Y-150000000D01*
X152493000Y-149999000D01*
X152446000Y-149995000D01*
X152399000Y-149989000D01*
X152353000Y-149980000D01*
X152307000Y-149969000D01*
X152262000Y-149956000D01*
X152217000Y-149940000D01*
X152174000Y-149922000D01*
X152131000Y-149902000D01*
X152090000Y-149879000D01*
X152050000Y-149855000D01*
X152011000Y-149828000D01*
X151974000Y-149799000D01*
X151938000Y-149769000D01*
X151904000Y-149736000D01*
X151871000Y-149702000D01*
X151841000Y-149666000D01*
X151812000Y-149629000D01*
X151785000Y-149590000D01*
X151761000Y-149550000D01*
X151738000Y-149509000D01*
X151718000Y-149466000D01*
X151700000Y-149423000D01*
X151684000Y-149378000D01*
X151671000Y-149333000D01*
X151660000Y-149287000D01*
X151651000Y-149241000D01*
X151645000Y-149194000D01*
X151641000Y-149147000D01*
X151640000Y-149100000D01*
X151640000Y-146600000D01*
X153440000Y-146600000D01*
X153440000Y-149100000D01*
G36*
X153440000Y-149100000D02*
G01*
X153439000Y-149147000D01*
X153435000Y-149194000D01*
X153429000Y-149241000D01*
X153420000Y-149287000D01*
X153409000Y-149333000D01*
X153396000Y-149378000D01*
X153380000Y-149423000D01*
X153362000Y-149466000D01*
X153342000Y-149509000D01*
X153319000Y-149550000D01*
X153295000Y-149590000D01*
X153268000Y-149629000D01*
X153239000Y-149666000D01*
X153209000Y-149702000D01*
X153176000Y-149736000D01*
X153142000Y-149769000D01*
X153106000Y-149799000D01*
X153069000Y-149828000D01*
X153030000Y-149855000D01*
X152990000Y-149879000D01*
X152949000Y-149902000D01*
X152906000Y-149922000D01*
X152863000Y-149940000D01*
X152818000Y-149956000D01*
X152773000Y-149969000D01*
X152727000Y-149980000D01*
X152681000Y-149989000D01*
X152634000Y-149995000D01*
X152587000Y-149999000D01*
X152540000Y-150000000D01*
X152493000Y-149999000D01*
X152446000Y-149995000D01*
X152399000Y-149989000D01*
X152353000Y-149980000D01*
X152307000Y-149969000D01*
X152262000Y-149956000D01*
X152217000Y-149940000D01*
X152174000Y-149922000D01*
X152131000Y-149902000D01*
X152090000Y-149879000D01*
X152050000Y-149855000D01*
X152011000Y-149828000D01*
X151974000Y-149799000D01*
X151938000Y-149769000D01*
X151904000Y-149736000D01*
X151871000Y-149702000D01*
X151841000Y-149666000D01*
X151812000Y-149629000D01*
X151785000Y-149590000D01*
X151761000Y-149550000D01*
X151738000Y-149509000D01*
X151718000Y-149466000D01*
X151700000Y-149423000D01*
X151684000Y-149378000D01*
X151671000Y-149333000D01*
X151660000Y-149287000D01*
X151651000Y-149241000D01*
X151645000Y-149194000D01*
X151641000Y-149147000D01*
X151640000Y-149100000D01*
X151640000Y-146600000D01*
X153440000Y-146600000D01*
X153440000Y-149100000D01*
G37*
X148360000Y-149100000D02*
X148359000Y-149147000D01*
X148355000Y-149194000D01*
X148349000Y-149241000D01*
X148340000Y-149287000D01*
X148329000Y-149333000D01*
X148316000Y-149378000D01*
X148300000Y-149423000D01*
X148282000Y-149466000D01*
X148262000Y-149509000D01*
X148239000Y-149550000D01*
X148215000Y-149590000D01*
X148188000Y-149629000D01*
X148159000Y-149666000D01*
X148129000Y-149702000D01*
X148096000Y-149736000D01*
X148062000Y-149769000D01*
X148026000Y-149799000D01*
X147989000Y-149828000D01*
X147950000Y-149855000D01*
X147910000Y-149879000D01*
X147869000Y-149902000D01*
X147826000Y-149922000D01*
X147783000Y-149940000D01*
X147738000Y-149956000D01*
X147693000Y-149969000D01*
X147647000Y-149980000D01*
X147601000Y-149989000D01*
X147554000Y-149995000D01*
X147507000Y-149999000D01*
X147460000Y-150000000D01*
X147413000Y-149999000D01*
X147366000Y-149995000D01*
X147319000Y-149989000D01*
X147273000Y-149980000D01*
X147227000Y-149969000D01*
X147182000Y-149956000D01*
X147137000Y-149940000D01*
X147094000Y-149922000D01*
X147051000Y-149902000D01*
X147010000Y-149879000D01*
X146970000Y-149855000D01*
X146931000Y-149828000D01*
X146894000Y-149799000D01*
X146858000Y-149769000D01*
X146824000Y-149736000D01*
X146791000Y-149702000D01*
X146761000Y-149666000D01*
X146732000Y-149629000D01*
X146705000Y-149590000D01*
X146681000Y-149550000D01*
X146658000Y-149509000D01*
X146638000Y-149466000D01*
X146620000Y-149423000D01*
X146604000Y-149378000D01*
X146591000Y-149333000D01*
X146580000Y-149287000D01*
X146571000Y-149241000D01*
X146565000Y-149194000D01*
X146561000Y-149147000D01*
X146560000Y-149100000D01*
X146560000Y-146600000D01*
X148360000Y-146600000D01*
X148360000Y-149100000D01*
G36*
X148360000Y-149100000D02*
G01*
X148359000Y-149147000D01*
X148355000Y-149194000D01*
X148349000Y-149241000D01*
X148340000Y-149287000D01*
X148329000Y-149333000D01*
X148316000Y-149378000D01*
X148300000Y-149423000D01*
X148282000Y-149466000D01*
X148262000Y-149509000D01*
X148239000Y-149550000D01*
X148215000Y-149590000D01*
X148188000Y-149629000D01*
X148159000Y-149666000D01*
X148129000Y-149702000D01*
X148096000Y-149736000D01*
X148062000Y-149769000D01*
X148026000Y-149799000D01*
X147989000Y-149828000D01*
X147950000Y-149855000D01*
X147910000Y-149879000D01*
X147869000Y-149902000D01*
X147826000Y-149922000D01*
X147783000Y-149940000D01*
X147738000Y-149956000D01*
X147693000Y-149969000D01*
X147647000Y-149980000D01*
X147601000Y-149989000D01*
X147554000Y-149995000D01*
X147507000Y-149999000D01*
X147460000Y-150000000D01*
X147413000Y-149999000D01*
X147366000Y-149995000D01*
X147319000Y-149989000D01*
X147273000Y-149980000D01*
X147227000Y-149969000D01*
X147182000Y-149956000D01*
X147137000Y-149940000D01*
X147094000Y-149922000D01*
X147051000Y-149902000D01*
X147010000Y-149879000D01*
X146970000Y-149855000D01*
X146931000Y-149828000D01*
X146894000Y-149799000D01*
X146858000Y-149769000D01*
X146824000Y-149736000D01*
X146791000Y-149702000D01*
X146761000Y-149666000D01*
X146732000Y-149629000D01*
X146705000Y-149590000D01*
X146681000Y-149550000D01*
X146658000Y-149509000D01*
X146638000Y-149466000D01*
X146620000Y-149423000D01*
X146604000Y-149378000D01*
X146591000Y-149333000D01*
X146580000Y-149287000D01*
X146571000Y-149241000D01*
X146565000Y-149194000D01*
X146561000Y-149147000D01*
X146560000Y-149100000D01*
X146560000Y-146600000D01*
X148360000Y-146600000D01*
X148360000Y-149100000D01*
G37*
X141157000Y-196231000D02*
X141204000Y-196235000D01*
X141251000Y-196241000D01*
X141297000Y-196250000D01*
X141343000Y-196261000D01*
X141388000Y-196274000D01*
X141433000Y-196290000D01*
X141476000Y-196308000D01*
X141519000Y-196328000D01*
X141560000Y-196351000D01*
X141600000Y-196375000D01*
X141639000Y-196402000D01*
X141676000Y-196431000D01*
X141712000Y-196461000D01*
X141746000Y-196494000D01*
X141779000Y-196528000D01*
X141809000Y-196564000D01*
X141838000Y-196601000D01*
X141865000Y-196640000D01*
X141889000Y-196680000D01*
X141912000Y-196721000D01*
X141932000Y-196764000D01*
X141950000Y-196807000D01*
X141966000Y-196852000D01*
X141979000Y-196897000D01*
X141990000Y-196943000D01*
X141999000Y-196989000D01*
X142005000Y-197036000D01*
X142009000Y-197083000D01*
X142010000Y-197130000D01*
X142009000Y-197177000D01*
X142005000Y-197224000D01*
X141999000Y-197271000D01*
X141990000Y-197317000D01*
X141979000Y-197363000D01*
X141966000Y-197408000D01*
X141950000Y-197453000D01*
X141932000Y-197496000D01*
X141912000Y-197539000D01*
X141889000Y-197580000D01*
X141865000Y-197620000D01*
X141838000Y-197659000D01*
X141809000Y-197696000D01*
X141779000Y-197732000D01*
X141746000Y-197766000D01*
X141712000Y-197799000D01*
X141676000Y-197829000D01*
X141639000Y-197858000D01*
X141600000Y-197885000D01*
X141560000Y-197909000D01*
X141519000Y-197932000D01*
X141476000Y-197952000D01*
X141433000Y-197970000D01*
X141388000Y-197986000D01*
X141343000Y-197999000D01*
X141297000Y-198010000D01*
X141251000Y-198019000D01*
X141204000Y-198025000D01*
X141157000Y-198029000D01*
X141110000Y-198030000D01*
X138610000Y-198030000D01*
X138610000Y-196230000D01*
X141110000Y-196230000D01*
X141157000Y-196231000D01*
G36*
X141157000Y-196231000D02*
G01*
X141204000Y-196235000D01*
X141251000Y-196241000D01*
X141297000Y-196250000D01*
X141343000Y-196261000D01*
X141388000Y-196274000D01*
X141433000Y-196290000D01*
X141476000Y-196308000D01*
X141519000Y-196328000D01*
X141560000Y-196351000D01*
X141600000Y-196375000D01*
X141639000Y-196402000D01*
X141676000Y-196431000D01*
X141712000Y-196461000D01*
X141746000Y-196494000D01*
X141779000Y-196528000D01*
X141809000Y-196564000D01*
X141838000Y-196601000D01*
X141865000Y-196640000D01*
X141889000Y-196680000D01*
X141912000Y-196721000D01*
X141932000Y-196764000D01*
X141950000Y-196807000D01*
X141966000Y-196852000D01*
X141979000Y-196897000D01*
X141990000Y-196943000D01*
X141999000Y-196989000D01*
X142005000Y-197036000D01*
X142009000Y-197083000D01*
X142010000Y-197130000D01*
X142009000Y-197177000D01*
X142005000Y-197224000D01*
X141999000Y-197271000D01*
X141990000Y-197317000D01*
X141979000Y-197363000D01*
X141966000Y-197408000D01*
X141950000Y-197453000D01*
X141932000Y-197496000D01*
X141912000Y-197539000D01*
X141889000Y-197580000D01*
X141865000Y-197620000D01*
X141838000Y-197659000D01*
X141809000Y-197696000D01*
X141779000Y-197732000D01*
X141746000Y-197766000D01*
X141712000Y-197799000D01*
X141676000Y-197829000D01*
X141639000Y-197858000D01*
X141600000Y-197885000D01*
X141560000Y-197909000D01*
X141519000Y-197932000D01*
X141476000Y-197952000D01*
X141433000Y-197970000D01*
X141388000Y-197986000D01*
X141343000Y-197999000D01*
X141297000Y-198010000D01*
X141251000Y-198019000D01*
X141204000Y-198025000D01*
X141157000Y-198029000D01*
X141110000Y-198030000D01*
X138610000Y-198030000D01*
X138610000Y-196230000D01*
X141110000Y-196230000D01*
X141157000Y-196231000D01*
G37*
X141157000Y-193691000D02*
X141204000Y-193695000D01*
X141251000Y-193701000D01*
X141297000Y-193710000D01*
X141343000Y-193721000D01*
X141388000Y-193734000D01*
X141433000Y-193750000D01*
X141476000Y-193768000D01*
X141519000Y-193788000D01*
X141560000Y-193811000D01*
X141600000Y-193835000D01*
X141639000Y-193862000D01*
X141676000Y-193891000D01*
X141712000Y-193921000D01*
X141746000Y-193954000D01*
X141779000Y-193988000D01*
X141809000Y-194024000D01*
X141838000Y-194061000D01*
X141865000Y-194100000D01*
X141889000Y-194140000D01*
X141912000Y-194181000D01*
X141932000Y-194224000D01*
X141950000Y-194267000D01*
X141966000Y-194312000D01*
X141979000Y-194357000D01*
X141990000Y-194403000D01*
X141999000Y-194449000D01*
X142005000Y-194496000D01*
X142009000Y-194543000D01*
X142010000Y-194590000D01*
X142009000Y-194637000D01*
X142005000Y-194684000D01*
X141999000Y-194731000D01*
X141990000Y-194777000D01*
X141979000Y-194823000D01*
X141966000Y-194868000D01*
X141950000Y-194913000D01*
X141932000Y-194956000D01*
X141912000Y-194999000D01*
X141889000Y-195040000D01*
X141865000Y-195080000D01*
X141838000Y-195119000D01*
X141809000Y-195156000D01*
X141779000Y-195192000D01*
X141746000Y-195226000D01*
X141712000Y-195259000D01*
X141676000Y-195289000D01*
X141639000Y-195318000D01*
X141600000Y-195345000D01*
X141560000Y-195369000D01*
X141519000Y-195392000D01*
X141476000Y-195412000D01*
X141433000Y-195430000D01*
X141388000Y-195446000D01*
X141343000Y-195459000D01*
X141297000Y-195470000D01*
X141251000Y-195479000D01*
X141204000Y-195485000D01*
X141157000Y-195489000D01*
X141110000Y-195490000D01*
X138610000Y-195490000D01*
X138610000Y-193690000D01*
X141110000Y-193690000D01*
X141157000Y-193691000D01*
G36*
X141157000Y-193691000D02*
G01*
X141204000Y-193695000D01*
X141251000Y-193701000D01*
X141297000Y-193710000D01*
X141343000Y-193721000D01*
X141388000Y-193734000D01*
X141433000Y-193750000D01*
X141476000Y-193768000D01*
X141519000Y-193788000D01*
X141560000Y-193811000D01*
X141600000Y-193835000D01*
X141639000Y-193862000D01*
X141676000Y-193891000D01*
X141712000Y-193921000D01*
X141746000Y-193954000D01*
X141779000Y-193988000D01*
X141809000Y-194024000D01*
X141838000Y-194061000D01*
X141865000Y-194100000D01*
X141889000Y-194140000D01*
X141912000Y-194181000D01*
X141932000Y-194224000D01*
X141950000Y-194267000D01*
X141966000Y-194312000D01*
X141979000Y-194357000D01*
X141990000Y-194403000D01*
X141999000Y-194449000D01*
X142005000Y-194496000D01*
X142009000Y-194543000D01*
X142010000Y-194590000D01*
X142009000Y-194637000D01*
X142005000Y-194684000D01*
X141999000Y-194731000D01*
X141990000Y-194777000D01*
X141979000Y-194823000D01*
X141966000Y-194868000D01*
X141950000Y-194913000D01*
X141932000Y-194956000D01*
X141912000Y-194999000D01*
X141889000Y-195040000D01*
X141865000Y-195080000D01*
X141838000Y-195119000D01*
X141809000Y-195156000D01*
X141779000Y-195192000D01*
X141746000Y-195226000D01*
X141712000Y-195259000D01*
X141676000Y-195289000D01*
X141639000Y-195318000D01*
X141600000Y-195345000D01*
X141560000Y-195369000D01*
X141519000Y-195392000D01*
X141476000Y-195412000D01*
X141433000Y-195430000D01*
X141388000Y-195446000D01*
X141343000Y-195459000D01*
X141297000Y-195470000D01*
X141251000Y-195479000D01*
X141204000Y-195485000D01*
X141157000Y-195489000D01*
X141110000Y-195490000D01*
X138610000Y-195490000D01*
X138610000Y-193690000D01*
X141110000Y-193690000D01*
X141157000Y-193691000D01*
G37*
X141157000Y-188611000D02*
X141204000Y-188615000D01*
X141251000Y-188621000D01*
X141297000Y-188630000D01*
X141343000Y-188641000D01*
X141388000Y-188654000D01*
X141433000Y-188670000D01*
X141476000Y-188688000D01*
X141519000Y-188708000D01*
X141560000Y-188731000D01*
X141600000Y-188755000D01*
X141639000Y-188782000D01*
X141676000Y-188811000D01*
X141712000Y-188841000D01*
X141746000Y-188874000D01*
X141779000Y-188908000D01*
X141809000Y-188944000D01*
X141838000Y-188981000D01*
X141865000Y-189020000D01*
X141889000Y-189060000D01*
X141912000Y-189101000D01*
X141932000Y-189144000D01*
X141950000Y-189187000D01*
X141966000Y-189232000D01*
X141979000Y-189277000D01*
X141990000Y-189323000D01*
X141999000Y-189369000D01*
X142005000Y-189416000D01*
X142009000Y-189463000D01*
X142010000Y-189510000D01*
X142009000Y-189557000D01*
X142005000Y-189604000D01*
X141999000Y-189651000D01*
X141990000Y-189697000D01*
X141979000Y-189743000D01*
X141966000Y-189788000D01*
X141950000Y-189833000D01*
X141932000Y-189876000D01*
X141912000Y-189919000D01*
X141889000Y-189960000D01*
X141865000Y-190000000D01*
X141838000Y-190039000D01*
X141809000Y-190076000D01*
X141779000Y-190112000D01*
X141746000Y-190146000D01*
X141712000Y-190179000D01*
X141676000Y-190209000D01*
X141639000Y-190238000D01*
X141600000Y-190265000D01*
X141560000Y-190289000D01*
X141519000Y-190312000D01*
X141476000Y-190332000D01*
X141433000Y-190350000D01*
X141388000Y-190366000D01*
X141343000Y-190379000D01*
X141297000Y-190390000D01*
X141251000Y-190399000D01*
X141204000Y-190405000D01*
X141157000Y-190409000D01*
X141110000Y-190410000D01*
X138610000Y-190410000D01*
X138610000Y-188610000D01*
X141110000Y-188610000D01*
X141157000Y-188611000D01*
G36*
X141157000Y-188611000D02*
G01*
X141204000Y-188615000D01*
X141251000Y-188621000D01*
X141297000Y-188630000D01*
X141343000Y-188641000D01*
X141388000Y-188654000D01*
X141433000Y-188670000D01*
X141476000Y-188688000D01*
X141519000Y-188708000D01*
X141560000Y-188731000D01*
X141600000Y-188755000D01*
X141639000Y-188782000D01*
X141676000Y-188811000D01*
X141712000Y-188841000D01*
X141746000Y-188874000D01*
X141779000Y-188908000D01*
X141809000Y-188944000D01*
X141838000Y-188981000D01*
X141865000Y-189020000D01*
X141889000Y-189060000D01*
X141912000Y-189101000D01*
X141932000Y-189144000D01*
X141950000Y-189187000D01*
X141966000Y-189232000D01*
X141979000Y-189277000D01*
X141990000Y-189323000D01*
X141999000Y-189369000D01*
X142005000Y-189416000D01*
X142009000Y-189463000D01*
X142010000Y-189510000D01*
X142009000Y-189557000D01*
X142005000Y-189604000D01*
X141999000Y-189651000D01*
X141990000Y-189697000D01*
X141979000Y-189743000D01*
X141966000Y-189788000D01*
X141950000Y-189833000D01*
X141932000Y-189876000D01*
X141912000Y-189919000D01*
X141889000Y-189960000D01*
X141865000Y-190000000D01*
X141838000Y-190039000D01*
X141809000Y-190076000D01*
X141779000Y-190112000D01*
X141746000Y-190146000D01*
X141712000Y-190179000D01*
X141676000Y-190209000D01*
X141639000Y-190238000D01*
X141600000Y-190265000D01*
X141560000Y-190289000D01*
X141519000Y-190312000D01*
X141476000Y-190332000D01*
X141433000Y-190350000D01*
X141388000Y-190366000D01*
X141343000Y-190379000D01*
X141297000Y-190390000D01*
X141251000Y-190399000D01*
X141204000Y-190405000D01*
X141157000Y-190409000D01*
X141110000Y-190410000D01*
X138610000Y-190410000D01*
X138610000Y-188610000D01*
X141110000Y-188610000D01*
X141157000Y-188611000D01*
G37*
X141157000Y-186071000D02*
X141204000Y-186075000D01*
X141251000Y-186081000D01*
X141297000Y-186090000D01*
X141343000Y-186101000D01*
X141388000Y-186114000D01*
X141433000Y-186130000D01*
X141476000Y-186148000D01*
X141519000Y-186168000D01*
X141560000Y-186191000D01*
X141600000Y-186215000D01*
X141639000Y-186242000D01*
X141676000Y-186271000D01*
X141712000Y-186301000D01*
X141746000Y-186334000D01*
X141779000Y-186368000D01*
X141809000Y-186404000D01*
X141838000Y-186441000D01*
X141865000Y-186480000D01*
X141889000Y-186520000D01*
X141912000Y-186561000D01*
X141932000Y-186604000D01*
X141950000Y-186647000D01*
X141966000Y-186692000D01*
X141979000Y-186737000D01*
X141990000Y-186783000D01*
X141999000Y-186829000D01*
X142005000Y-186876000D01*
X142009000Y-186923000D01*
X142010000Y-186970000D01*
X142009000Y-187017000D01*
X142005000Y-187064000D01*
X141999000Y-187111000D01*
X141990000Y-187157000D01*
X141979000Y-187203000D01*
X141966000Y-187248000D01*
X141950000Y-187293000D01*
X141932000Y-187336000D01*
X141912000Y-187379000D01*
X141889000Y-187420000D01*
X141865000Y-187460000D01*
X141838000Y-187499000D01*
X141809000Y-187536000D01*
X141779000Y-187572000D01*
X141746000Y-187606000D01*
X141712000Y-187639000D01*
X141676000Y-187669000D01*
X141639000Y-187698000D01*
X141600000Y-187725000D01*
X141560000Y-187749000D01*
X141519000Y-187772000D01*
X141476000Y-187792000D01*
X141433000Y-187810000D01*
X141388000Y-187826000D01*
X141343000Y-187839000D01*
X141297000Y-187850000D01*
X141251000Y-187859000D01*
X141204000Y-187865000D01*
X141157000Y-187869000D01*
X141110000Y-187870000D01*
X138610000Y-187870000D01*
X138610000Y-186070000D01*
X141110000Y-186070000D01*
X141157000Y-186071000D01*
G36*
X141157000Y-186071000D02*
G01*
X141204000Y-186075000D01*
X141251000Y-186081000D01*
X141297000Y-186090000D01*
X141343000Y-186101000D01*
X141388000Y-186114000D01*
X141433000Y-186130000D01*
X141476000Y-186148000D01*
X141519000Y-186168000D01*
X141560000Y-186191000D01*
X141600000Y-186215000D01*
X141639000Y-186242000D01*
X141676000Y-186271000D01*
X141712000Y-186301000D01*
X141746000Y-186334000D01*
X141779000Y-186368000D01*
X141809000Y-186404000D01*
X141838000Y-186441000D01*
X141865000Y-186480000D01*
X141889000Y-186520000D01*
X141912000Y-186561000D01*
X141932000Y-186604000D01*
X141950000Y-186647000D01*
X141966000Y-186692000D01*
X141979000Y-186737000D01*
X141990000Y-186783000D01*
X141999000Y-186829000D01*
X142005000Y-186876000D01*
X142009000Y-186923000D01*
X142010000Y-186970000D01*
X142009000Y-187017000D01*
X142005000Y-187064000D01*
X141999000Y-187111000D01*
X141990000Y-187157000D01*
X141979000Y-187203000D01*
X141966000Y-187248000D01*
X141950000Y-187293000D01*
X141932000Y-187336000D01*
X141912000Y-187379000D01*
X141889000Y-187420000D01*
X141865000Y-187460000D01*
X141838000Y-187499000D01*
X141809000Y-187536000D01*
X141779000Y-187572000D01*
X141746000Y-187606000D01*
X141712000Y-187639000D01*
X141676000Y-187669000D01*
X141639000Y-187698000D01*
X141600000Y-187725000D01*
X141560000Y-187749000D01*
X141519000Y-187772000D01*
X141476000Y-187792000D01*
X141433000Y-187810000D01*
X141388000Y-187826000D01*
X141343000Y-187839000D01*
X141297000Y-187850000D01*
X141251000Y-187859000D01*
X141204000Y-187865000D01*
X141157000Y-187869000D01*
X141110000Y-187870000D01*
X138610000Y-187870000D01*
X138610000Y-186070000D01*
X141110000Y-186070000D01*
X141157000Y-186071000D01*
G37*
X141157000Y-183531000D02*
X141204000Y-183535000D01*
X141251000Y-183541000D01*
X141297000Y-183550000D01*
X141343000Y-183561000D01*
X141388000Y-183574000D01*
X141433000Y-183590000D01*
X141476000Y-183608000D01*
X141519000Y-183628000D01*
X141560000Y-183651000D01*
X141600000Y-183675000D01*
X141639000Y-183702000D01*
X141676000Y-183731000D01*
X141712000Y-183761000D01*
X141746000Y-183794000D01*
X141779000Y-183828000D01*
X141809000Y-183864000D01*
X141838000Y-183901000D01*
X141865000Y-183940000D01*
X141889000Y-183980000D01*
X141912000Y-184021000D01*
X141932000Y-184064000D01*
X141950000Y-184107000D01*
X141966000Y-184152000D01*
X141979000Y-184197000D01*
X141990000Y-184243000D01*
X141999000Y-184289000D01*
X142005000Y-184336000D01*
X142009000Y-184383000D01*
X142010000Y-184430000D01*
X142009000Y-184477000D01*
X142005000Y-184524000D01*
X141999000Y-184571000D01*
X141990000Y-184617000D01*
X141979000Y-184663000D01*
X141966000Y-184708000D01*
X141950000Y-184753000D01*
X141932000Y-184796000D01*
X141912000Y-184839000D01*
X141889000Y-184880000D01*
X141865000Y-184920000D01*
X141838000Y-184959000D01*
X141809000Y-184996000D01*
X141779000Y-185032000D01*
X141746000Y-185066000D01*
X141712000Y-185099000D01*
X141676000Y-185129000D01*
X141639000Y-185158000D01*
X141600000Y-185185000D01*
X141560000Y-185209000D01*
X141519000Y-185232000D01*
X141476000Y-185252000D01*
X141433000Y-185270000D01*
X141388000Y-185286000D01*
X141343000Y-185299000D01*
X141297000Y-185310000D01*
X141251000Y-185319000D01*
X141204000Y-185325000D01*
X141157000Y-185329000D01*
X141110000Y-185330000D01*
X138610000Y-185330000D01*
X138610000Y-183530000D01*
X141110000Y-183530000D01*
X141157000Y-183531000D01*
G36*
X141157000Y-183531000D02*
G01*
X141204000Y-183535000D01*
X141251000Y-183541000D01*
X141297000Y-183550000D01*
X141343000Y-183561000D01*
X141388000Y-183574000D01*
X141433000Y-183590000D01*
X141476000Y-183608000D01*
X141519000Y-183628000D01*
X141560000Y-183651000D01*
X141600000Y-183675000D01*
X141639000Y-183702000D01*
X141676000Y-183731000D01*
X141712000Y-183761000D01*
X141746000Y-183794000D01*
X141779000Y-183828000D01*
X141809000Y-183864000D01*
X141838000Y-183901000D01*
X141865000Y-183940000D01*
X141889000Y-183980000D01*
X141912000Y-184021000D01*
X141932000Y-184064000D01*
X141950000Y-184107000D01*
X141966000Y-184152000D01*
X141979000Y-184197000D01*
X141990000Y-184243000D01*
X141999000Y-184289000D01*
X142005000Y-184336000D01*
X142009000Y-184383000D01*
X142010000Y-184430000D01*
X142009000Y-184477000D01*
X142005000Y-184524000D01*
X141999000Y-184571000D01*
X141990000Y-184617000D01*
X141979000Y-184663000D01*
X141966000Y-184708000D01*
X141950000Y-184753000D01*
X141932000Y-184796000D01*
X141912000Y-184839000D01*
X141889000Y-184880000D01*
X141865000Y-184920000D01*
X141838000Y-184959000D01*
X141809000Y-184996000D01*
X141779000Y-185032000D01*
X141746000Y-185066000D01*
X141712000Y-185099000D01*
X141676000Y-185129000D01*
X141639000Y-185158000D01*
X141600000Y-185185000D01*
X141560000Y-185209000D01*
X141519000Y-185232000D01*
X141476000Y-185252000D01*
X141433000Y-185270000D01*
X141388000Y-185286000D01*
X141343000Y-185299000D01*
X141297000Y-185310000D01*
X141251000Y-185319000D01*
X141204000Y-185325000D01*
X141157000Y-185329000D01*
X141110000Y-185330000D01*
X138610000Y-185330000D01*
X138610000Y-183530000D01*
X141110000Y-183530000D01*
X141157000Y-183531000D01*
G37*
X141157000Y-180991000D02*
X141204000Y-180995000D01*
X141251000Y-181001000D01*
X141297000Y-181010000D01*
X141343000Y-181021000D01*
X141388000Y-181034000D01*
X141433000Y-181050000D01*
X141476000Y-181068000D01*
X141519000Y-181088000D01*
X141560000Y-181111000D01*
X141600000Y-181135000D01*
X141639000Y-181162000D01*
X141676000Y-181191000D01*
X141712000Y-181221000D01*
X141746000Y-181254000D01*
X141779000Y-181288000D01*
X141809000Y-181324000D01*
X141838000Y-181361000D01*
X141865000Y-181400000D01*
X141889000Y-181440000D01*
X141912000Y-181481000D01*
X141932000Y-181524000D01*
X141950000Y-181567000D01*
X141966000Y-181612000D01*
X141979000Y-181657000D01*
X141990000Y-181703000D01*
X141999000Y-181749000D01*
X142005000Y-181796000D01*
X142009000Y-181843000D01*
X142010000Y-181890000D01*
X142009000Y-181937000D01*
X142005000Y-181984000D01*
X141999000Y-182031000D01*
X141990000Y-182077000D01*
X141979000Y-182123000D01*
X141966000Y-182168000D01*
X141950000Y-182213000D01*
X141932000Y-182256000D01*
X141912000Y-182299000D01*
X141889000Y-182340000D01*
X141865000Y-182380000D01*
X141838000Y-182419000D01*
X141809000Y-182456000D01*
X141779000Y-182492000D01*
X141746000Y-182526000D01*
X141712000Y-182559000D01*
X141676000Y-182589000D01*
X141639000Y-182618000D01*
X141600000Y-182645000D01*
X141560000Y-182669000D01*
X141519000Y-182692000D01*
X141476000Y-182712000D01*
X141433000Y-182730000D01*
X141388000Y-182746000D01*
X141343000Y-182759000D01*
X141297000Y-182770000D01*
X141251000Y-182779000D01*
X141204000Y-182785000D01*
X141157000Y-182789000D01*
X141110000Y-182790000D01*
X138610000Y-182790000D01*
X138610000Y-180990000D01*
X141110000Y-180990000D01*
X141157000Y-180991000D01*
G36*
X141157000Y-180991000D02*
G01*
X141204000Y-180995000D01*
X141251000Y-181001000D01*
X141297000Y-181010000D01*
X141343000Y-181021000D01*
X141388000Y-181034000D01*
X141433000Y-181050000D01*
X141476000Y-181068000D01*
X141519000Y-181088000D01*
X141560000Y-181111000D01*
X141600000Y-181135000D01*
X141639000Y-181162000D01*
X141676000Y-181191000D01*
X141712000Y-181221000D01*
X141746000Y-181254000D01*
X141779000Y-181288000D01*
X141809000Y-181324000D01*
X141838000Y-181361000D01*
X141865000Y-181400000D01*
X141889000Y-181440000D01*
X141912000Y-181481000D01*
X141932000Y-181524000D01*
X141950000Y-181567000D01*
X141966000Y-181612000D01*
X141979000Y-181657000D01*
X141990000Y-181703000D01*
X141999000Y-181749000D01*
X142005000Y-181796000D01*
X142009000Y-181843000D01*
X142010000Y-181890000D01*
X142009000Y-181937000D01*
X142005000Y-181984000D01*
X141999000Y-182031000D01*
X141990000Y-182077000D01*
X141979000Y-182123000D01*
X141966000Y-182168000D01*
X141950000Y-182213000D01*
X141932000Y-182256000D01*
X141912000Y-182299000D01*
X141889000Y-182340000D01*
X141865000Y-182380000D01*
X141838000Y-182419000D01*
X141809000Y-182456000D01*
X141779000Y-182492000D01*
X141746000Y-182526000D01*
X141712000Y-182559000D01*
X141676000Y-182589000D01*
X141639000Y-182618000D01*
X141600000Y-182645000D01*
X141560000Y-182669000D01*
X141519000Y-182692000D01*
X141476000Y-182712000D01*
X141433000Y-182730000D01*
X141388000Y-182746000D01*
X141343000Y-182759000D01*
X141297000Y-182770000D01*
X141251000Y-182779000D01*
X141204000Y-182785000D01*
X141157000Y-182789000D01*
X141110000Y-182790000D01*
X138610000Y-182790000D01*
X138610000Y-180990000D01*
X141110000Y-180990000D01*
X141157000Y-180991000D01*
G37*
X141157000Y-175911000D02*
X141204000Y-175915000D01*
X141251000Y-175921000D01*
X141297000Y-175930000D01*
X141343000Y-175941000D01*
X141388000Y-175954000D01*
X141433000Y-175970000D01*
X141476000Y-175988000D01*
X141519000Y-176008000D01*
X141560000Y-176031000D01*
X141600000Y-176055000D01*
X141639000Y-176082000D01*
X141676000Y-176111000D01*
X141712000Y-176141000D01*
X141746000Y-176174000D01*
X141779000Y-176208000D01*
X141809000Y-176244000D01*
X141838000Y-176281000D01*
X141865000Y-176320000D01*
X141889000Y-176360000D01*
X141912000Y-176401000D01*
X141932000Y-176444000D01*
X141950000Y-176487000D01*
X141966000Y-176532000D01*
X141979000Y-176577000D01*
X141990000Y-176623000D01*
X141999000Y-176669000D01*
X142005000Y-176716000D01*
X142009000Y-176763000D01*
X142010000Y-176810000D01*
X142009000Y-176857000D01*
X142005000Y-176904000D01*
X141999000Y-176951000D01*
X141990000Y-176997000D01*
X141979000Y-177043000D01*
X141966000Y-177088000D01*
X141950000Y-177133000D01*
X141932000Y-177176000D01*
X141912000Y-177219000D01*
X141889000Y-177260000D01*
X141865000Y-177300000D01*
X141838000Y-177339000D01*
X141809000Y-177376000D01*
X141779000Y-177412000D01*
X141746000Y-177446000D01*
X141712000Y-177479000D01*
X141676000Y-177509000D01*
X141639000Y-177538000D01*
X141600000Y-177565000D01*
X141560000Y-177589000D01*
X141519000Y-177612000D01*
X141476000Y-177632000D01*
X141433000Y-177650000D01*
X141388000Y-177666000D01*
X141343000Y-177679000D01*
X141297000Y-177690000D01*
X141251000Y-177699000D01*
X141204000Y-177705000D01*
X141157000Y-177709000D01*
X141110000Y-177710000D01*
X138610000Y-177710000D01*
X138610000Y-175910000D01*
X141110000Y-175910000D01*
X141157000Y-175911000D01*
G36*
X141157000Y-175911000D02*
G01*
X141204000Y-175915000D01*
X141251000Y-175921000D01*
X141297000Y-175930000D01*
X141343000Y-175941000D01*
X141388000Y-175954000D01*
X141433000Y-175970000D01*
X141476000Y-175988000D01*
X141519000Y-176008000D01*
X141560000Y-176031000D01*
X141600000Y-176055000D01*
X141639000Y-176082000D01*
X141676000Y-176111000D01*
X141712000Y-176141000D01*
X141746000Y-176174000D01*
X141779000Y-176208000D01*
X141809000Y-176244000D01*
X141838000Y-176281000D01*
X141865000Y-176320000D01*
X141889000Y-176360000D01*
X141912000Y-176401000D01*
X141932000Y-176444000D01*
X141950000Y-176487000D01*
X141966000Y-176532000D01*
X141979000Y-176577000D01*
X141990000Y-176623000D01*
X141999000Y-176669000D01*
X142005000Y-176716000D01*
X142009000Y-176763000D01*
X142010000Y-176810000D01*
X142009000Y-176857000D01*
X142005000Y-176904000D01*
X141999000Y-176951000D01*
X141990000Y-176997000D01*
X141979000Y-177043000D01*
X141966000Y-177088000D01*
X141950000Y-177133000D01*
X141932000Y-177176000D01*
X141912000Y-177219000D01*
X141889000Y-177260000D01*
X141865000Y-177300000D01*
X141838000Y-177339000D01*
X141809000Y-177376000D01*
X141779000Y-177412000D01*
X141746000Y-177446000D01*
X141712000Y-177479000D01*
X141676000Y-177509000D01*
X141639000Y-177538000D01*
X141600000Y-177565000D01*
X141560000Y-177589000D01*
X141519000Y-177612000D01*
X141476000Y-177632000D01*
X141433000Y-177650000D01*
X141388000Y-177666000D01*
X141343000Y-177679000D01*
X141297000Y-177690000D01*
X141251000Y-177699000D01*
X141204000Y-177705000D01*
X141157000Y-177709000D01*
X141110000Y-177710000D01*
X138610000Y-177710000D01*
X138610000Y-175910000D01*
X141110000Y-175910000D01*
X141157000Y-175911000D01*
G37*
X141157000Y-173371000D02*
X141204000Y-173375000D01*
X141251000Y-173381000D01*
X141297000Y-173390000D01*
X141343000Y-173401000D01*
X141388000Y-173414000D01*
X141433000Y-173430000D01*
X141476000Y-173448000D01*
X141519000Y-173468000D01*
X141560000Y-173491000D01*
X141600000Y-173515000D01*
X141639000Y-173542000D01*
X141676000Y-173571000D01*
X141712000Y-173601000D01*
X141746000Y-173634000D01*
X141779000Y-173668000D01*
X141809000Y-173704000D01*
X141838000Y-173741000D01*
X141865000Y-173780000D01*
X141889000Y-173820000D01*
X141912000Y-173861000D01*
X141932000Y-173904000D01*
X141950000Y-173947000D01*
X141966000Y-173992000D01*
X141979000Y-174037000D01*
X141990000Y-174083000D01*
X141999000Y-174129000D01*
X142005000Y-174176000D01*
X142009000Y-174223000D01*
X142010000Y-174270000D01*
X142009000Y-174317000D01*
X142005000Y-174364000D01*
X141999000Y-174411000D01*
X141990000Y-174457000D01*
X141979000Y-174503000D01*
X141966000Y-174548000D01*
X141950000Y-174593000D01*
X141932000Y-174636000D01*
X141912000Y-174679000D01*
X141889000Y-174720000D01*
X141865000Y-174760000D01*
X141838000Y-174799000D01*
X141809000Y-174836000D01*
X141779000Y-174872000D01*
X141746000Y-174906000D01*
X141712000Y-174939000D01*
X141676000Y-174969000D01*
X141639000Y-174998000D01*
X141600000Y-175025000D01*
X141560000Y-175049000D01*
X141519000Y-175072000D01*
X141476000Y-175092000D01*
X141433000Y-175110000D01*
X141388000Y-175126000D01*
X141343000Y-175139000D01*
X141297000Y-175150000D01*
X141251000Y-175159000D01*
X141204000Y-175165000D01*
X141157000Y-175169000D01*
X141110000Y-175170000D01*
X138610000Y-175170000D01*
X138610000Y-173370000D01*
X141110000Y-173370000D01*
X141157000Y-173371000D01*
G36*
X141157000Y-173371000D02*
G01*
X141204000Y-173375000D01*
X141251000Y-173381000D01*
X141297000Y-173390000D01*
X141343000Y-173401000D01*
X141388000Y-173414000D01*
X141433000Y-173430000D01*
X141476000Y-173448000D01*
X141519000Y-173468000D01*
X141560000Y-173491000D01*
X141600000Y-173515000D01*
X141639000Y-173542000D01*
X141676000Y-173571000D01*
X141712000Y-173601000D01*
X141746000Y-173634000D01*
X141779000Y-173668000D01*
X141809000Y-173704000D01*
X141838000Y-173741000D01*
X141865000Y-173780000D01*
X141889000Y-173820000D01*
X141912000Y-173861000D01*
X141932000Y-173904000D01*
X141950000Y-173947000D01*
X141966000Y-173992000D01*
X141979000Y-174037000D01*
X141990000Y-174083000D01*
X141999000Y-174129000D01*
X142005000Y-174176000D01*
X142009000Y-174223000D01*
X142010000Y-174270000D01*
X142009000Y-174317000D01*
X142005000Y-174364000D01*
X141999000Y-174411000D01*
X141990000Y-174457000D01*
X141979000Y-174503000D01*
X141966000Y-174548000D01*
X141950000Y-174593000D01*
X141932000Y-174636000D01*
X141912000Y-174679000D01*
X141889000Y-174720000D01*
X141865000Y-174760000D01*
X141838000Y-174799000D01*
X141809000Y-174836000D01*
X141779000Y-174872000D01*
X141746000Y-174906000D01*
X141712000Y-174939000D01*
X141676000Y-174969000D01*
X141639000Y-174998000D01*
X141600000Y-175025000D01*
X141560000Y-175049000D01*
X141519000Y-175072000D01*
X141476000Y-175092000D01*
X141433000Y-175110000D01*
X141388000Y-175126000D01*
X141343000Y-175139000D01*
X141297000Y-175150000D01*
X141251000Y-175159000D01*
X141204000Y-175165000D01*
X141157000Y-175169000D01*
X141110000Y-175170000D01*
X138610000Y-175170000D01*
X138610000Y-173370000D01*
X141110000Y-173370000D01*
X141157000Y-173371000D01*
G37*
X141157000Y-170831000D02*
X141204000Y-170835000D01*
X141251000Y-170841000D01*
X141297000Y-170850000D01*
X141343000Y-170861000D01*
X141388000Y-170874000D01*
X141433000Y-170890000D01*
X141476000Y-170908000D01*
X141519000Y-170928000D01*
X141560000Y-170951000D01*
X141600000Y-170975000D01*
X141639000Y-171002000D01*
X141676000Y-171031000D01*
X141712000Y-171061000D01*
X141746000Y-171094000D01*
X141779000Y-171128000D01*
X141809000Y-171164000D01*
X141838000Y-171201000D01*
X141865000Y-171240000D01*
X141889000Y-171280000D01*
X141912000Y-171321000D01*
X141932000Y-171364000D01*
X141950000Y-171407000D01*
X141966000Y-171452000D01*
X141979000Y-171497000D01*
X141990000Y-171543000D01*
X141999000Y-171589000D01*
X142005000Y-171636000D01*
X142009000Y-171683000D01*
X142010000Y-171730000D01*
X142009000Y-171777000D01*
X142005000Y-171824000D01*
X141999000Y-171871000D01*
X141990000Y-171917000D01*
X141979000Y-171963000D01*
X141966000Y-172008000D01*
X141950000Y-172053000D01*
X141932000Y-172096000D01*
X141912000Y-172139000D01*
X141889000Y-172180000D01*
X141865000Y-172220000D01*
X141838000Y-172259000D01*
X141809000Y-172296000D01*
X141779000Y-172332000D01*
X141746000Y-172366000D01*
X141712000Y-172399000D01*
X141676000Y-172429000D01*
X141639000Y-172458000D01*
X141600000Y-172485000D01*
X141560000Y-172509000D01*
X141519000Y-172532000D01*
X141476000Y-172552000D01*
X141433000Y-172570000D01*
X141388000Y-172586000D01*
X141343000Y-172599000D01*
X141297000Y-172610000D01*
X141251000Y-172619000D01*
X141204000Y-172625000D01*
X141157000Y-172629000D01*
X141110000Y-172630000D01*
X138610000Y-172630000D01*
X138610000Y-170830000D01*
X141110000Y-170830000D01*
X141157000Y-170831000D01*
G36*
X141157000Y-170831000D02*
G01*
X141204000Y-170835000D01*
X141251000Y-170841000D01*
X141297000Y-170850000D01*
X141343000Y-170861000D01*
X141388000Y-170874000D01*
X141433000Y-170890000D01*
X141476000Y-170908000D01*
X141519000Y-170928000D01*
X141560000Y-170951000D01*
X141600000Y-170975000D01*
X141639000Y-171002000D01*
X141676000Y-171031000D01*
X141712000Y-171061000D01*
X141746000Y-171094000D01*
X141779000Y-171128000D01*
X141809000Y-171164000D01*
X141838000Y-171201000D01*
X141865000Y-171240000D01*
X141889000Y-171280000D01*
X141912000Y-171321000D01*
X141932000Y-171364000D01*
X141950000Y-171407000D01*
X141966000Y-171452000D01*
X141979000Y-171497000D01*
X141990000Y-171543000D01*
X141999000Y-171589000D01*
X142005000Y-171636000D01*
X142009000Y-171683000D01*
X142010000Y-171730000D01*
X142009000Y-171777000D01*
X142005000Y-171824000D01*
X141999000Y-171871000D01*
X141990000Y-171917000D01*
X141979000Y-171963000D01*
X141966000Y-172008000D01*
X141950000Y-172053000D01*
X141932000Y-172096000D01*
X141912000Y-172139000D01*
X141889000Y-172180000D01*
X141865000Y-172220000D01*
X141838000Y-172259000D01*
X141809000Y-172296000D01*
X141779000Y-172332000D01*
X141746000Y-172366000D01*
X141712000Y-172399000D01*
X141676000Y-172429000D01*
X141639000Y-172458000D01*
X141600000Y-172485000D01*
X141560000Y-172509000D01*
X141519000Y-172532000D01*
X141476000Y-172552000D01*
X141433000Y-172570000D01*
X141388000Y-172586000D01*
X141343000Y-172599000D01*
X141297000Y-172610000D01*
X141251000Y-172619000D01*
X141204000Y-172625000D01*
X141157000Y-172629000D01*
X141110000Y-172630000D01*
X138610000Y-172630000D01*
X138610000Y-170830000D01*
X141110000Y-170830000D01*
X141157000Y-170831000D01*
G37*
X141157000Y-168291000D02*
X141204000Y-168295000D01*
X141251000Y-168301000D01*
X141297000Y-168310000D01*
X141343000Y-168321000D01*
X141388000Y-168334000D01*
X141433000Y-168350000D01*
X141476000Y-168368000D01*
X141519000Y-168388000D01*
X141560000Y-168411000D01*
X141600000Y-168435000D01*
X141639000Y-168462000D01*
X141676000Y-168491000D01*
X141712000Y-168521000D01*
X141746000Y-168554000D01*
X141779000Y-168588000D01*
X141809000Y-168624000D01*
X141838000Y-168661000D01*
X141865000Y-168700000D01*
X141889000Y-168740000D01*
X141912000Y-168781000D01*
X141932000Y-168824000D01*
X141950000Y-168867000D01*
X141966000Y-168912000D01*
X141979000Y-168957000D01*
X141990000Y-169003000D01*
X141999000Y-169049000D01*
X142005000Y-169096000D01*
X142009000Y-169143000D01*
X142010000Y-169190000D01*
X142009000Y-169237000D01*
X142005000Y-169284000D01*
X141999000Y-169331000D01*
X141990000Y-169377000D01*
X141979000Y-169423000D01*
X141966000Y-169468000D01*
X141950000Y-169513000D01*
X141932000Y-169556000D01*
X141912000Y-169599000D01*
X141889000Y-169640000D01*
X141865000Y-169680000D01*
X141838000Y-169719000D01*
X141809000Y-169756000D01*
X141779000Y-169792000D01*
X141746000Y-169826000D01*
X141712000Y-169859000D01*
X141676000Y-169889000D01*
X141639000Y-169918000D01*
X141600000Y-169945000D01*
X141560000Y-169969000D01*
X141519000Y-169992000D01*
X141476000Y-170012000D01*
X141433000Y-170030000D01*
X141388000Y-170046000D01*
X141343000Y-170059000D01*
X141297000Y-170070000D01*
X141251000Y-170079000D01*
X141204000Y-170085000D01*
X141157000Y-170089000D01*
X141110000Y-170090000D01*
X138610000Y-170090000D01*
X138610000Y-168290000D01*
X141110000Y-168290000D01*
X141157000Y-168291000D01*
G36*
X141157000Y-168291000D02*
G01*
X141204000Y-168295000D01*
X141251000Y-168301000D01*
X141297000Y-168310000D01*
X141343000Y-168321000D01*
X141388000Y-168334000D01*
X141433000Y-168350000D01*
X141476000Y-168368000D01*
X141519000Y-168388000D01*
X141560000Y-168411000D01*
X141600000Y-168435000D01*
X141639000Y-168462000D01*
X141676000Y-168491000D01*
X141712000Y-168521000D01*
X141746000Y-168554000D01*
X141779000Y-168588000D01*
X141809000Y-168624000D01*
X141838000Y-168661000D01*
X141865000Y-168700000D01*
X141889000Y-168740000D01*
X141912000Y-168781000D01*
X141932000Y-168824000D01*
X141950000Y-168867000D01*
X141966000Y-168912000D01*
X141979000Y-168957000D01*
X141990000Y-169003000D01*
X141999000Y-169049000D01*
X142005000Y-169096000D01*
X142009000Y-169143000D01*
X142010000Y-169190000D01*
X142009000Y-169237000D01*
X142005000Y-169284000D01*
X141999000Y-169331000D01*
X141990000Y-169377000D01*
X141979000Y-169423000D01*
X141966000Y-169468000D01*
X141950000Y-169513000D01*
X141932000Y-169556000D01*
X141912000Y-169599000D01*
X141889000Y-169640000D01*
X141865000Y-169680000D01*
X141838000Y-169719000D01*
X141809000Y-169756000D01*
X141779000Y-169792000D01*
X141746000Y-169826000D01*
X141712000Y-169859000D01*
X141676000Y-169889000D01*
X141639000Y-169918000D01*
X141600000Y-169945000D01*
X141560000Y-169969000D01*
X141519000Y-169992000D01*
X141476000Y-170012000D01*
X141433000Y-170030000D01*
X141388000Y-170046000D01*
X141343000Y-170059000D01*
X141297000Y-170070000D01*
X141251000Y-170079000D01*
X141204000Y-170085000D01*
X141157000Y-170089000D01*
X141110000Y-170090000D01*
X138610000Y-170090000D01*
X138610000Y-168290000D01*
X141110000Y-168290000D01*
X141157000Y-168291000D01*
G37*
X141157000Y-163211000D02*
X141204000Y-163215000D01*
X141251000Y-163221000D01*
X141297000Y-163230000D01*
X141343000Y-163241000D01*
X141388000Y-163254000D01*
X141433000Y-163270000D01*
X141476000Y-163288000D01*
X141519000Y-163308000D01*
X141560000Y-163331000D01*
X141600000Y-163355000D01*
X141639000Y-163382000D01*
X141676000Y-163411000D01*
X141712000Y-163441000D01*
X141746000Y-163474000D01*
X141779000Y-163508000D01*
X141809000Y-163544000D01*
X141838000Y-163581000D01*
X141865000Y-163620000D01*
X141889000Y-163660000D01*
X141912000Y-163701000D01*
X141932000Y-163744000D01*
X141950000Y-163787000D01*
X141966000Y-163832000D01*
X141979000Y-163877000D01*
X141990000Y-163923000D01*
X141999000Y-163969000D01*
X142005000Y-164016000D01*
X142009000Y-164063000D01*
X142010000Y-164110000D01*
X142009000Y-164157000D01*
X142005000Y-164204000D01*
X141999000Y-164251000D01*
X141990000Y-164297000D01*
X141979000Y-164343000D01*
X141966000Y-164388000D01*
X141950000Y-164433000D01*
X141932000Y-164476000D01*
X141912000Y-164519000D01*
X141889000Y-164560000D01*
X141865000Y-164600000D01*
X141838000Y-164639000D01*
X141809000Y-164676000D01*
X141779000Y-164712000D01*
X141746000Y-164746000D01*
X141712000Y-164779000D01*
X141676000Y-164809000D01*
X141639000Y-164838000D01*
X141600000Y-164865000D01*
X141560000Y-164889000D01*
X141519000Y-164912000D01*
X141476000Y-164932000D01*
X141433000Y-164950000D01*
X141388000Y-164966000D01*
X141343000Y-164979000D01*
X141297000Y-164990000D01*
X141251000Y-164999000D01*
X141204000Y-165005000D01*
X141157000Y-165009000D01*
X141110000Y-165010000D01*
X138610000Y-165010000D01*
X138610000Y-163210000D01*
X141110000Y-163210000D01*
X141157000Y-163211000D01*
G36*
X141157000Y-163211000D02*
G01*
X141204000Y-163215000D01*
X141251000Y-163221000D01*
X141297000Y-163230000D01*
X141343000Y-163241000D01*
X141388000Y-163254000D01*
X141433000Y-163270000D01*
X141476000Y-163288000D01*
X141519000Y-163308000D01*
X141560000Y-163331000D01*
X141600000Y-163355000D01*
X141639000Y-163382000D01*
X141676000Y-163411000D01*
X141712000Y-163441000D01*
X141746000Y-163474000D01*
X141779000Y-163508000D01*
X141809000Y-163544000D01*
X141838000Y-163581000D01*
X141865000Y-163620000D01*
X141889000Y-163660000D01*
X141912000Y-163701000D01*
X141932000Y-163744000D01*
X141950000Y-163787000D01*
X141966000Y-163832000D01*
X141979000Y-163877000D01*
X141990000Y-163923000D01*
X141999000Y-163969000D01*
X142005000Y-164016000D01*
X142009000Y-164063000D01*
X142010000Y-164110000D01*
X142009000Y-164157000D01*
X142005000Y-164204000D01*
X141999000Y-164251000D01*
X141990000Y-164297000D01*
X141979000Y-164343000D01*
X141966000Y-164388000D01*
X141950000Y-164433000D01*
X141932000Y-164476000D01*
X141912000Y-164519000D01*
X141889000Y-164560000D01*
X141865000Y-164600000D01*
X141838000Y-164639000D01*
X141809000Y-164676000D01*
X141779000Y-164712000D01*
X141746000Y-164746000D01*
X141712000Y-164779000D01*
X141676000Y-164809000D01*
X141639000Y-164838000D01*
X141600000Y-164865000D01*
X141560000Y-164889000D01*
X141519000Y-164912000D01*
X141476000Y-164932000D01*
X141433000Y-164950000D01*
X141388000Y-164966000D01*
X141343000Y-164979000D01*
X141297000Y-164990000D01*
X141251000Y-164999000D01*
X141204000Y-165005000D01*
X141157000Y-165009000D01*
X141110000Y-165010000D01*
X138610000Y-165010000D01*
X138610000Y-163210000D01*
X141110000Y-163210000D01*
X141157000Y-163211000D01*
G37*
X141157000Y-160671000D02*
X141204000Y-160675000D01*
X141251000Y-160681000D01*
X141297000Y-160690000D01*
X141343000Y-160701000D01*
X141388000Y-160714000D01*
X141433000Y-160730000D01*
X141476000Y-160748000D01*
X141519000Y-160768000D01*
X141560000Y-160791000D01*
X141600000Y-160815000D01*
X141639000Y-160842000D01*
X141676000Y-160871000D01*
X141712000Y-160901000D01*
X141746000Y-160934000D01*
X141779000Y-160968000D01*
X141809000Y-161004000D01*
X141838000Y-161041000D01*
X141865000Y-161080000D01*
X141889000Y-161120000D01*
X141912000Y-161161000D01*
X141932000Y-161204000D01*
X141950000Y-161247000D01*
X141966000Y-161292000D01*
X141979000Y-161337000D01*
X141990000Y-161383000D01*
X141999000Y-161429000D01*
X142005000Y-161476000D01*
X142009000Y-161523000D01*
X142010000Y-161570000D01*
X142009000Y-161617000D01*
X142005000Y-161664000D01*
X141999000Y-161711000D01*
X141990000Y-161757000D01*
X141979000Y-161803000D01*
X141966000Y-161848000D01*
X141950000Y-161893000D01*
X141932000Y-161936000D01*
X141912000Y-161979000D01*
X141889000Y-162020000D01*
X141865000Y-162060000D01*
X141838000Y-162099000D01*
X141809000Y-162136000D01*
X141779000Y-162172000D01*
X141746000Y-162206000D01*
X141712000Y-162239000D01*
X141676000Y-162269000D01*
X141639000Y-162298000D01*
X141600000Y-162325000D01*
X141560000Y-162349000D01*
X141519000Y-162372000D01*
X141476000Y-162392000D01*
X141433000Y-162410000D01*
X141388000Y-162426000D01*
X141343000Y-162439000D01*
X141297000Y-162450000D01*
X141251000Y-162459000D01*
X141204000Y-162465000D01*
X141157000Y-162469000D01*
X141110000Y-162470000D01*
X138610000Y-162470000D01*
X138610000Y-160670000D01*
X141110000Y-160670000D01*
X141157000Y-160671000D01*
G36*
X141157000Y-160671000D02*
G01*
X141204000Y-160675000D01*
X141251000Y-160681000D01*
X141297000Y-160690000D01*
X141343000Y-160701000D01*
X141388000Y-160714000D01*
X141433000Y-160730000D01*
X141476000Y-160748000D01*
X141519000Y-160768000D01*
X141560000Y-160791000D01*
X141600000Y-160815000D01*
X141639000Y-160842000D01*
X141676000Y-160871000D01*
X141712000Y-160901000D01*
X141746000Y-160934000D01*
X141779000Y-160968000D01*
X141809000Y-161004000D01*
X141838000Y-161041000D01*
X141865000Y-161080000D01*
X141889000Y-161120000D01*
X141912000Y-161161000D01*
X141932000Y-161204000D01*
X141950000Y-161247000D01*
X141966000Y-161292000D01*
X141979000Y-161337000D01*
X141990000Y-161383000D01*
X141999000Y-161429000D01*
X142005000Y-161476000D01*
X142009000Y-161523000D01*
X142010000Y-161570000D01*
X142009000Y-161617000D01*
X142005000Y-161664000D01*
X141999000Y-161711000D01*
X141990000Y-161757000D01*
X141979000Y-161803000D01*
X141966000Y-161848000D01*
X141950000Y-161893000D01*
X141932000Y-161936000D01*
X141912000Y-161979000D01*
X141889000Y-162020000D01*
X141865000Y-162060000D01*
X141838000Y-162099000D01*
X141809000Y-162136000D01*
X141779000Y-162172000D01*
X141746000Y-162206000D01*
X141712000Y-162239000D01*
X141676000Y-162269000D01*
X141639000Y-162298000D01*
X141600000Y-162325000D01*
X141560000Y-162349000D01*
X141519000Y-162372000D01*
X141476000Y-162392000D01*
X141433000Y-162410000D01*
X141388000Y-162426000D01*
X141343000Y-162439000D01*
X141297000Y-162450000D01*
X141251000Y-162459000D01*
X141204000Y-162465000D01*
X141157000Y-162469000D01*
X141110000Y-162470000D01*
X138610000Y-162470000D01*
X138610000Y-160670000D01*
X141110000Y-160670000D01*
X141157000Y-160671000D01*
G37*
X141157000Y-158131000D02*
X141204000Y-158135000D01*
X141251000Y-158141000D01*
X141297000Y-158150000D01*
X141343000Y-158161000D01*
X141388000Y-158174000D01*
X141433000Y-158190000D01*
X141476000Y-158208000D01*
X141519000Y-158228000D01*
X141560000Y-158251000D01*
X141600000Y-158275000D01*
X141639000Y-158302000D01*
X141676000Y-158331000D01*
X141712000Y-158361000D01*
X141746000Y-158394000D01*
X141779000Y-158428000D01*
X141809000Y-158464000D01*
X141838000Y-158501000D01*
X141865000Y-158540000D01*
X141889000Y-158580000D01*
X141912000Y-158621000D01*
X141932000Y-158664000D01*
X141950000Y-158707000D01*
X141966000Y-158752000D01*
X141979000Y-158797000D01*
X141990000Y-158843000D01*
X141999000Y-158889000D01*
X142005000Y-158936000D01*
X142009000Y-158983000D01*
X142010000Y-159030000D01*
X142009000Y-159077000D01*
X142005000Y-159124000D01*
X141999000Y-159171000D01*
X141990000Y-159217000D01*
X141979000Y-159263000D01*
X141966000Y-159308000D01*
X141950000Y-159353000D01*
X141932000Y-159396000D01*
X141912000Y-159439000D01*
X141889000Y-159480000D01*
X141865000Y-159520000D01*
X141838000Y-159559000D01*
X141809000Y-159596000D01*
X141779000Y-159632000D01*
X141746000Y-159666000D01*
X141712000Y-159699000D01*
X141676000Y-159729000D01*
X141639000Y-159758000D01*
X141600000Y-159785000D01*
X141560000Y-159809000D01*
X141519000Y-159832000D01*
X141476000Y-159852000D01*
X141433000Y-159870000D01*
X141388000Y-159886000D01*
X141343000Y-159899000D01*
X141297000Y-159910000D01*
X141251000Y-159919000D01*
X141204000Y-159925000D01*
X141157000Y-159929000D01*
X141110000Y-159930000D01*
X138610000Y-159930000D01*
X138610000Y-158130000D01*
X141110000Y-158130000D01*
X141157000Y-158131000D01*
G36*
X141157000Y-158131000D02*
G01*
X141204000Y-158135000D01*
X141251000Y-158141000D01*
X141297000Y-158150000D01*
X141343000Y-158161000D01*
X141388000Y-158174000D01*
X141433000Y-158190000D01*
X141476000Y-158208000D01*
X141519000Y-158228000D01*
X141560000Y-158251000D01*
X141600000Y-158275000D01*
X141639000Y-158302000D01*
X141676000Y-158331000D01*
X141712000Y-158361000D01*
X141746000Y-158394000D01*
X141779000Y-158428000D01*
X141809000Y-158464000D01*
X141838000Y-158501000D01*
X141865000Y-158540000D01*
X141889000Y-158580000D01*
X141912000Y-158621000D01*
X141932000Y-158664000D01*
X141950000Y-158707000D01*
X141966000Y-158752000D01*
X141979000Y-158797000D01*
X141990000Y-158843000D01*
X141999000Y-158889000D01*
X142005000Y-158936000D01*
X142009000Y-158983000D01*
X142010000Y-159030000D01*
X142009000Y-159077000D01*
X142005000Y-159124000D01*
X141999000Y-159171000D01*
X141990000Y-159217000D01*
X141979000Y-159263000D01*
X141966000Y-159308000D01*
X141950000Y-159353000D01*
X141932000Y-159396000D01*
X141912000Y-159439000D01*
X141889000Y-159480000D01*
X141865000Y-159520000D01*
X141838000Y-159559000D01*
X141809000Y-159596000D01*
X141779000Y-159632000D01*
X141746000Y-159666000D01*
X141712000Y-159699000D01*
X141676000Y-159729000D01*
X141639000Y-159758000D01*
X141600000Y-159785000D01*
X141560000Y-159809000D01*
X141519000Y-159832000D01*
X141476000Y-159852000D01*
X141433000Y-159870000D01*
X141388000Y-159886000D01*
X141343000Y-159899000D01*
X141297000Y-159910000D01*
X141251000Y-159919000D01*
X141204000Y-159925000D01*
X141157000Y-159929000D01*
X141110000Y-159930000D01*
X138610000Y-159930000D01*
X138610000Y-158130000D01*
X141110000Y-158130000D01*
X141157000Y-158131000D01*
G37*
X141157000Y-155591000D02*
X141204000Y-155595000D01*
X141251000Y-155601000D01*
X141297000Y-155610000D01*
X141343000Y-155621000D01*
X141388000Y-155634000D01*
X141433000Y-155650000D01*
X141476000Y-155668000D01*
X141519000Y-155688000D01*
X141560000Y-155711000D01*
X141600000Y-155735000D01*
X141639000Y-155762000D01*
X141676000Y-155791000D01*
X141712000Y-155821000D01*
X141746000Y-155854000D01*
X141779000Y-155888000D01*
X141809000Y-155924000D01*
X141838000Y-155961000D01*
X141865000Y-156000000D01*
X141889000Y-156040000D01*
X141912000Y-156081000D01*
X141932000Y-156124000D01*
X141950000Y-156167000D01*
X141966000Y-156212000D01*
X141979000Y-156257000D01*
X141990000Y-156303000D01*
X141999000Y-156349000D01*
X142005000Y-156396000D01*
X142009000Y-156443000D01*
X142010000Y-156490000D01*
X142009000Y-156537000D01*
X142005000Y-156584000D01*
X141999000Y-156631000D01*
X141990000Y-156677000D01*
X141979000Y-156723000D01*
X141966000Y-156768000D01*
X141950000Y-156813000D01*
X141932000Y-156856000D01*
X141912000Y-156899000D01*
X141889000Y-156940000D01*
X141865000Y-156980000D01*
X141838000Y-157019000D01*
X141809000Y-157056000D01*
X141779000Y-157092000D01*
X141746000Y-157126000D01*
X141712000Y-157159000D01*
X141676000Y-157189000D01*
X141639000Y-157218000D01*
X141600000Y-157245000D01*
X141560000Y-157269000D01*
X141519000Y-157292000D01*
X141476000Y-157312000D01*
X141433000Y-157330000D01*
X141388000Y-157346000D01*
X141343000Y-157359000D01*
X141297000Y-157370000D01*
X141251000Y-157379000D01*
X141204000Y-157385000D01*
X141157000Y-157389000D01*
X141110000Y-157390000D01*
X138610000Y-157390000D01*
X138610000Y-155590000D01*
X141110000Y-155590000D01*
X141157000Y-155591000D01*
G36*
X141157000Y-155591000D02*
G01*
X141204000Y-155595000D01*
X141251000Y-155601000D01*
X141297000Y-155610000D01*
X141343000Y-155621000D01*
X141388000Y-155634000D01*
X141433000Y-155650000D01*
X141476000Y-155668000D01*
X141519000Y-155688000D01*
X141560000Y-155711000D01*
X141600000Y-155735000D01*
X141639000Y-155762000D01*
X141676000Y-155791000D01*
X141712000Y-155821000D01*
X141746000Y-155854000D01*
X141779000Y-155888000D01*
X141809000Y-155924000D01*
X141838000Y-155961000D01*
X141865000Y-156000000D01*
X141889000Y-156040000D01*
X141912000Y-156081000D01*
X141932000Y-156124000D01*
X141950000Y-156167000D01*
X141966000Y-156212000D01*
X141979000Y-156257000D01*
X141990000Y-156303000D01*
X141999000Y-156349000D01*
X142005000Y-156396000D01*
X142009000Y-156443000D01*
X142010000Y-156490000D01*
X142009000Y-156537000D01*
X142005000Y-156584000D01*
X141999000Y-156631000D01*
X141990000Y-156677000D01*
X141979000Y-156723000D01*
X141966000Y-156768000D01*
X141950000Y-156813000D01*
X141932000Y-156856000D01*
X141912000Y-156899000D01*
X141889000Y-156940000D01*
X141865000Y-156980000D01*
X141838000Y-157019000D01*
X141809000Y-157056000D01*
X141779000Y-157092000D01*
X141746000Y-157126000D01*
X141712000Y-157159000D01*
X141676000Y-157189000D01*
X141639000Y-157218000D01*
X141600000Y-157245000D01*
X141560000Y-157269000D01*
X141519000Y-157292000D01*
X141476000Y-157312000D01*
X141433000Y-157330000D01*
X141388000Y-157346000D01*
X141343000Y-157359000D01*
X141297000Y-157370000D01*
X141251000Y-157379000D01*
X141204000Y-157385000D01*
X141157000Y-157389000D01*
X141110000Y-157390000D01*
X138610000Y-157390000D01*
X138610000Y-155590000D01*
X141110000Y-155590000D01*
X141157000Y-155591000D01*
G37*
X141157000Y-150511000D02*
X141204000Y-150515000D01*
X141251000Y-150521000D01*
X141297000Y-150530000D01*
X141343000Y-150541000D01*
X141388000Y-150554000D01*
X141433000Y-150570000D01*
X141476000Y-150588000D01*
X141519000Y-150608000D01*
X141560000Y-150631000D01*
X141600000Y-150655000D01*
X141639000Y-150682000D01*
X141676000Y-150711000D01*
X141712000Y-150741000D01*
X141746000Y-150774000D01*
X141779000Y-150808000D01*
X141809000Y-150844000D01*
X141838000Y-150881000D01*
X141865000Y-150920000D01*
X141889000Y-150960000D01*
X141912000Y-151001000D01*
X141932000Y-151044000D01*
X141950000Y-151087000D01*
X141966000Y-151132000D01*
X141979000Y-151177000D01*
X141990000Y-151223000D01*
X141999000Y-151269000D01*
X142005000Y-151316000D01*
X142009000Y-151363000D01*
X142010000Y-151410000D01*
X142009000Y-151457000D01*
X142005000Y-151504000D01*
X141999000Y-151551000D01*
X141990000Y-151597000D01*
X141979000Y-151643000D01*
X141966000Y-151688000D01*
X141950000Y-151733000D01*
X141932000Y-151776000D01*
X141912000Y-151819000D01*
X141889000Y-151860000D01*
X141865000Y-151900000D01*
X141838000Y-151939000D01*
X141809000Y-151976000D01*
X141779000Y-152012000D01*
X141746000Y-152046000D01*
X141712000Y-152079000D01*
X141676000Y-152109000D01*
X141639000Y-152138000D01*
X141600000Y-152165000D01*
X141560000Y-152189000D01*
X141519000Y-152212000D01*
X141476000Y-152232000D01*
X141433000Y-152250000D01*
X141388000Y-152266000D01*
X141343000Y-152279000D01*
X141297000Y-152290000D01*
X141251000Y-152299000D01*
X141204000Y-152305000D01*
X141157000Y-152309000D01*
X141110000Y-152310000D01*
X138610000Y-152310000D01*
X138610000Y-150510000D01*
X141110000Y-150510000D01*
X141157000Y-150511000D01*
G36*
X141157000Y-150511000D02*
G01*
X141204000Y-150515000D01*
X141251000Y-150521000D01*
X141297000Y-150530000D01*
X141343000Y-150541000D01*
X141388000Y-150554000D01*
X141433000Y-150570000D01*
X141476000Y-150588000D01*
X141519000Y-150608000D01*
X141560000Y-150631000D01*
X141600000Y-150655000D01*
X141639000Y-150682000D01*
X141676000Y-150711000D01*
X141712000Y-150741000D01*
X141746000Y-150774000D01*
X141779000Y-150808000D01*
X141809000Y-150844000D01*
X141838000Y-150881000D01*
X141865000Y-150920000D01*
X141889000Y-150960000D01*
X141912000Y-151001000D01*
X141932000Y-151044000D01*
X141950000Y-151087000D01*
X141966000Y-151132000D01*
X141979000Y-151177000D01*
X141990000Y-151223000D01*
X141999000Y-151269000D01*
X142005000Y-151316000D01*
X142009000Y-151363000D01*
X142010000Y-151410000D01*
X142009000Y-151457000D01*
X142005000Y-151504000D01*
X141999000Y-151551000D01*
X141990000Y-151597000D01*
X141979000Y-151643000D01*
X141966000Y-151688000D01*
X141950000Y-151733000D01*
X141932000Y-151776000D01*
X141912000Y-151819000D01*
X141889000Y-151860000D01*
X141865000Y-151900000D01*
X141838000Y-151939000D01*
X141809000Y-151976000D01*
X141779000Y-152012000D01*
X141746000Y-152046000D01*
X141712000Y-152079000D01*
X141676000Y-152109000D01*
X141639000Y-152138000D01*
X141600000Y-152165000D01*
X141560000Y-152189000D01*
X141519000Y-152212000D01*
X141476000Y-152232000D01*
X141433000Y-152250000D01*
X141388000Y-152266000D01*
X141343000Y-152279000D01*
X141297000Y-152290000D01*
X141251000Y-152299000D01*
X141204000Y-152305000D01*
X141157000Y-152309000D01*
X141110000Y-152310000D01*
X138610000Y-152310000D01*
X138610000Y-150510000D01*
X141110000Y-150510000D01*
X141157000Y-150511000D01*
G37*
X141157000Y-147971000D02*
X141204000Y-147975000D01*
X141251000Y-147981000D01*
X141297000Y-147990000D01*
X141343000Y-148001000D01*
X141388000Y-148014000D01*
X141433000Y-148030000D01*
X141476000Y-148048000D01*
X141519000Y-148068000D01*
X141560000Y-148091000D01*
X141600000Y-148115000D01*
X141639000Y-148142000D01*
X141676000Y-148171000D01*
X141712000Y-148201000D01*
X141746000Y-148234000D01*
X141779000Y-148268000D01*
X141809000Y-148304000D01*
X141838000Y-148341000D01*
X141865000Y-148380000D01*
X141889000Y-148420000D01*
X141912000Y-148461000D01*
X141932000Y-148504000D01*
X141950000Y-148547000D01*
X141966000Y-148592000D01*
X141979000Y-148637000D01*
X141990000Y-148683000D01*
X141999000Y-148729000D01*
X142005000Y-148776000D01*
X142009000Y-148823000D01*
X142010000Y-148870000D01*
X142009000Y-148917000D01*
X142005000Y-148964000D01*
X141999000Y-149011000D01*
X141990000Y-149057000D01*
X141979000Y-149103000D01*
X141966000Y-149148000D01*
X141950000Y-149193000D01*
X141932000Y-149236000D01*
X141912000Y-149279000D01*
X141889000Y-149320000D01*
X141865000Y-149360000D01*
X141838000Y-149399000D01*
X141809000Y-149436000D01*
X141779000Y-149472000D01*
X141746000Y-149506000D01*
X141712000Y-149539000D01*
X141676000Y-149569000D01*
X141639000Y-149598000D01*
X141600000Y-149625000D01*
X141560000Y-149649000D01*
X141519000Y-149672000D01*
X141476000Y-149692000D01*
X141433000Y-149710000D01*
X141388000Y-149726000D01*
X141343000Y-149739000D01*
X141297000Y-149750000D01*
X141251000Y-149759000D01*
X141204000Y-149765000D01*
X141157000Y-149769000D01*
X141110000Y-149770000D01*
X138610000Y-149770000D01*
X138610000Y-147970000D01*
X141110000Y-147970000D01*
X141157000Y-147971000D01*
G36*
X141157000Y-147971000D02*
G01*
X141204000Y-147975000D01*
X141251000Y-147981000D01*
X141297000Y-147990000D01*
X141343000Y-148001000D01*
X141388000Y-148014000D01*
X141433000Y-148030000D01*
X141476000Y-148048000D01*
X141519000Y-148068000D01*
X141560000Y-148091000D01*
X141600000Y-148115000D01*
X141639000Y-148142000D01*
X141676000Y-148171000D01*
X141712000Y-148201000D01*
X141746000Y-148234000D01*
X141779000Y-148268000D01*
X141809000Y-148304000D01*
X141838000Y-148341000D01*
X141865000Y-148380000D01*
X141889000Y-148420000D01*
X141912000Y-148461000D01*
X141932000Y-148504000D01*
X141950000Y-148547000D01*
X141966000Y-148592000D01*
X141979000Y-148637000D01*
X141990000Y-148683000D01*
X141999000Y-148729000D01*
X142005000Y-148776000D01*
X142009000Y-148823000D01*
X142010000Y-148870000D01*
X142009000Y-148917000D01*
X142005000Y-148964000D01*
X141999000Y-149011000D01*
X141990000Y-149057000D01*
X141979000Y-149103000D01*
X141966000Y-149148000D01*
X141950000Y-149193000D01*
X141932000Y-149236000D01*
X141912000Y-149279000D01*
X141889000Y-149320000D01*
X141865000Y-149360000D01*
X141838000Y-149399000D01*
X141809000Y-149436000D01*
X141779000Y-149472000D01*
X141746000Y-149506000D01*
X141712000Y-149539000D01*
X141676000Y-149569000D01*
X141639000Y-149598000D01*
X141600000Y-149625000D01*
X141560000Y-149649000D01*
X141519000Y-149672000D01*
X141476000Y-149692000D01*
X141433000Y-149710000D01*
X141388000Y-149726000D01*
X141343000Y-149739000D01*
X141297000Y-149750000D01*
X141251000Y-149759000D01*
X141204000Y-149765000D01*
X141157000Y-149769000D01*
X141110000Y-149770000D01*
X138610000Y-149770000D01*
X138610000Y-147970000D01*
X141110000Y-147970000D01*
X141157000Y-147971000D01*
G37*
X161390000Y-192950000D02*
X158290000Y-192950000D01*
X158274000Y-192950000D01*
X158259000Y-192948000D01*
X158243000Y-192946000D01*
X158228000Y-192943000D01*
X158212000Y-192940000D01*
X158197000Y-192935000D01*
X158182000Y-192930000D01*
X158168000Y-192924000D01*
X158154000Y-192917000D01*
X158140000Y-192910000D01*
X158127000Y-192902000D01*
X158114000Y-192893000D01*
X158101000Y-192883000D01*
X158089000Y-192873000D01*
X158078000Y-192862000D01*
X158067000Y-192851000D01*
X158057000Y-192839000D01*
X158047000Y-192826000D01*
X158038000Y-192813000D01*
X158030000Y-192800000D01*
X158023000Y-192786000D01*
X158016000Y-192772000D01*
X158010000Y-192758000D01*
X158005000Y-192743000D01*
X158000000Y-192728000D01*
X157997000Y-192712000D01*
X157994000Y-192697000D01*
X157992000Y-192681000D01*
X157990000Y-192666000D01*
X157990000Y-192650000D01*
X157990000Y-191450000D01*
X157990000Y-191434000D01*
X157992000Y-191419000D01*
X157994000Y-191403000D01*
X157997000Y-191388000D01*
X158000000Y-191372000D01*
X158005000Y-191357000D01*
X158010000Y-191342000D01*
X158016000Y-191328000D01*
X158023000Y-191314000D01*
X158030000Y-191300000D01*
X158038000Y-191287000D01*
X158047000Y-191274000D01*
X158057000Y-191261000D01*
X158067000Y-191249000D01*
X158078000Y-191238000D01*
X158089000Y-191227000D01*
X158101000Y-191217000D01*
X158114000Y-191207000D01*
X158127000Y-191198000D01*
X158140000Y-191190000D01*
X158154000Y-191183000D01*
X158168000Y-191176000D01*
X158182000Y-191170000D01*
X158197000Y-191165000D01*
X158212000Y-191160000D01*
X158228000Y-191157000D01*
X158243000Y-191154000D01*
X158259000Y-191152000D01*
X158274000Y-191150000D01*
X158290000Y-191150000D01*
X161390000Y-191150000D01*
X161390000Y-192950000D01*
G36*
X161390000Y-192950000D02*
G01*
X158290000Y-192950000D01*
X158274000Y-192950000D01*
X158259000Y-192948000D01*
X158243000Y-192946000D01*
X158228000Y-192943000D01*
X158212000Y-192940000D01*
X158197000Y-192935000D01*
X158182000Y-192930000D01*
X158168000Y-192924000D01*
X158154000Y-192917000D01*
X158140000Y-192910000D01*
X158127000Y-192902000D01*
X158114000Y-192893000D01*
X158101000Y-192883000D01*
X158089000Y-192873000D01*
X158078000Y-192862000D01*
X158067000Y-192851000D01*
X158057000Y-192839000D01*
X158047000Y-192826000D01*
X158038000Y-192813000D01*
X158030000Y-192800000D01*
X158023000Y-192786000D01*
X158016000Y-192772000D01*
X158010000Y-192758000D01*
X158005000Y-192743000D01*
X158000000Y-192728000D01*
X157997000Y-192712000D01*
X157994000Y-192697000D01*
X157992000Y-192681000D01*
X157990000Y-192666000D01*
X157990000Y-192650000D01*
X157990000Y-191450000D01*
X157990000Y-191434000D01*
X157992000Y-191419000D01*
X157994000Y-191403000D01*
X157997000Y-191388000D01*
X158000000Y-191372000D01*
X158005000Y-191357000D01*
X158010000Y-191342000D01*
X158016000Y-191328000D01*
X158023000Y-191314000D01*
X158030000Y-191300000D01*
X158038000Y-191287000D01*
X158047000Y-191274000D01*
X158057000Y-191261000D01*
X158067000Y-191249000D01*
X158078000Y-191238000D01*
X158089000Y-191227000D01*
X158101000Y-191217000D01*
X158114000Y-191207000D01*
X158127000Y-191198000D01*
X158140000Y-191190000D01*
X158154000Y-191183000D01*
X158168000Y-191176000D01*
X158182000Y-191170000D01*
X158197000Y-191165000D01*
X158212000Y-191160000D01*
X158228000Y-191157000D01*
X158243000Y-191154000D01*
X158259000Y-191152000D01*
X158274000Y-191150000D01*
X158290000Y-191150000D01*
X161390000Y-191150000D01*
X161390000Y-192950000D01*
G37*
X161390000Y-180250000D02*
X158290000Y-180250000D01*
X158274000Y-180250000D01*
X158259000Y-180248000D01*
X158243000Y-180246000D01*
X158228000Y-180243000D01*
X158212000Y-180240000D01*
X158197000Y-180235000D01*
X158182000Y-180230000D01*
X158168000Y-180224000D01*
X158154000Y-180217000D01*
X158140000Y-180210000D01*
X158127000Y-180202000D01*
X158114000Y-180193000D01*
X158101000Y-180183000D01*
X158089000Y-180173000D01*
X158078000Y-180162000D01*
X158067000Y-180151000D01*
X158057000Y-180139000D01*
X158047000Y-180126000D01*
X158038000Y-180113000D01*
X158030000Y-180100000D01*
X158023000Y-180086000D01*
X158016000Y-180072000D01*
X158010000Y-180058000D01*
X158005000Y-180043000D01*
X158000000Y-180028000D01*
X157997000Y-180012000D01*
X157994000Y-179997000D01*
X157992000Y-179981000D01*
X157990000Y-179966000D01*
X157990000Y-179950000D01*
X157990000Y-178750000D01*
X157990000Y-178734000D01*
X157992000Y-178719000D01*
X157994000Y-178703000D01*
X157997000Y-178688000D01*
X158000000Y-178672000D01*
X158005000Y-178657000D01*
X158010000Y-178642000D01*
X158016000Y-178628000D01*
X158023000Y-178614000D01*
X158030000Y-178600000D01*
X158038000Y-178587000D01*
X158047000Y-178574000D01*
X158057000Y-178561000D01*
X158067000Y-178549000D01*
X158078000Y-178538000D01*
X158089000Y-178527000D01*
X158101000Y-178517000D01*
X158114000Y-178507000D01*
X158127000Y-178498000D01*
X158140000Y-178490000D01*
X158154000Y-178483000D01*
X158168000Y-178476000D01*
X158182000Y-178470000D01*
X158197000Y-178465000D01*
X158212000Y-178460000D01*
X158228000Y-178457000D01*
X158243000Y-178454000D01*
X158259000Y-178452000D01*
X158274000Y-178450000D01*
X158290000Y-178450000D01*
X161390000Y-178450000D01*
X161390000Y-180250000D01*
G36*
X161390000Y-180250000D02*
G01*
X158290000Y-180250000D01*
X158274000Y-180250000D01*
X158259000Y-180248000D01*
X158243000Y-180246000D01*
X158228000Y-180243000D01*
X158212000Y-180240000D01*
X158197000Y-180235000D01*
X158182000Y-180230000D01*
X158168000Y-180224000D01*
X158154000Y-180217000D01*
X158140000Y-180210000D01*
X158127000Y-180202000D01*
X158114000Y-180193000D01*
X158101000Y-180183000D01*
X158089000Y-180173000D01*
X158078000Y-180162000D01*
X158067000Y-180151000D01*
X158057000Y-180139000D01*
X158047000Y-180126000D01*
X158038000Y-180113000D01*
X158030000Y-180100000D01*
X158023000Y-180086000D01*
X158016000Y-180072000D01*
X158010000Y-180058000D01*
X158005000Y-180043000D01*
X158000000Y-180028000D01*
X157997000Y-180012000D01*
X157994000Y-179997000D01*
X157992000Y-179981000D01*
X157990000Y-179966000D01*
X157990000Y-179950000D01*
X157990000Y-178750000D01*
X157990000Y-178734000D01*
X157992000Y-178719000D01*
X157994000Y-178703000D01*
X157997000Y-178688000D01*
X158000000Y-178672000D01*
X158005000Y-178657000D01*
X158010000Y-178642000D01*
X158016000Y-178628000D01*
X158023000Y-178614000D01*
X158030000Y-178600000D01*
X158038000Y-178587000D01*
X158047000Y-178574000D01*
X158057000Y-178561000D01*
X158067000Y-178549000D01*
X158078000Y-178538000D01*
X158089000Y-178527000D01*
X158101000Y-178517000D01*
X158114000Y-178507000D01*
X158127000Y-178498000D01*
X158140000Y-178490000D01*
X158154000Y-178483000D01*
X158168000Y-178476000D01*
X158182000Y-178470000D01*
X158197000Y-178465000D01*
X158212000Y-178460000D01*
X158228000Y-178457000D01*
X158243000Y-178454000D01*
X158259000Y-178452000D01*
X158274000Y-178450000D01*
X158290000Y-178450000D01*
X161390000Y-178450000D01*
X161390000Y-180250000D01*
G37*
X161390000Y-167550000D02*
X158290000Y-167550000D01*
X158274000Y-167550000D01*
X158259000Y-167548000D01*
X158243000Y-167546000D01*
X158228000Y-167543000D01*
X158212000Y-167540000D01*
X158197000Y-167535000D01*
X158182000Y-167530000D01*
X158168000Y-167524000D01*
X158154000Y-167517000D01*
X158140000Y-167510000D01*
X158127000Y-167502000D01*
X158114000Y-167493000D01*
X158101000Y-167483000D01*
X158089000Y-167473000D01*
X158078000Y-167462000D01*
X158067000Y-167451000D01*
X158057000Y-167439000D01*
X158047000Y-167426000D01*
X158038000Y-167413000D01*
X158030000Y-167400000D01*
X158023000Y-167386000D01*
X158016000Y-167372000D01*
X158010000Y-167358000D01*
X158005000Y-167343000D01*
X158000000Y-167328000D01*
X157997000Y-167312000D01*
X157994000Y-167297000D01*
X157992000Y-167281000D01*
X157990000Y-167266000D01*
X157990000Y-167250000D01*
X157990000Y-166050000D01*
X157990000Y-166034000D01*
X157992000Y-166019000D01*
X157994000Y-166003000D01*
X157997000Y-165988000D01*
X158000000Y-165972000D01*
X158005000Y-165957000D01*
X158010000Y-165942000D01*
X158016000Y-165928000D01*
X158023000Y-165914000D01*
X158030000Y-165900000D01*
X158038000Y-165887000D01*
X158047000Y-165874000D01*
X158057000Y-165861000D01*
X158067000Y-165849000D01*
X158078000Y-165838000D01*
X158089000Y-165827000D01*
X158101000Y-165817000D01*
X158114000Y-165807000D01*
X158127000Y-165798000D01*
X158140000Y-165790000D01*
X158154000Y-165783000D01*
X158168000Y-165776000D01*
X158182000Y-165770000D01*
X158197000Y-165765000D01*
X158212000Y-165760000D01*
X158228000Y-165757000D01*
X158243000Y-165754000D01*
X158259000Y-165752000D01*
X158274000Y-165750000D01*
X158290000Y-165750000D01*
X161390000Y-165750000D01*
X161390000Y-167550000D01*
G36*
X161390000Y-167550000D02*
G01*
X158290000Y-167550000D01*
X158274000Y-167550000D01*
X158259000Y-167548000D01*
X158243000Y-167546000D01*
X158228000Y-167543000D01*
X158212000Y-167540000D01*
X158197000Y-167535000D01*
X158182000Y-167530000D01*
X158168000Y-167524000D01*
X158154000Y-167517000D01*
X158140000Y-167510000D01*
X158127000Y-167502000D01*
X158114000Y-167493000D01*
X158101000Y-167483000D01*
X158089000Y-167473000D01*
X158078000Y-167462000D01*
X158067000Y-167451000D01*
X158057000Y-167439000D01*
X158047000Y-167426000D01*
X158038000Y-167413000D01*
X158030000Y-167400000D01*
X158023000Y-167386000D01*
X158016000Y-167372000D01*
X158010000Y-167358000D01*
X158005000Y-167343000D01*
X158000000Y-167328000D01*
X157997000Y-167312000D01*
X157994000Y-167297000D01*
X157992000Y-167281000D01*
X157990000Y-167266000D01*
X157990000Y-167250000D01*
X157990000Y-166050000D01*
X157990000Y-166034000D01*
X157992000Y-166019000D01*
X157994000Y-166003000D01*
X157997000Y-165988000D01*
X158000000Y-165972000D01*
X158005000Y-165957000D01*
X158010000Y-165942000D01*
X158016000Y-165928000D01*
X158023000Y-165914000D01*
X158030000Y-165900000D01*
X158038000Y-165887000D01*
X158047000Y-165874000D01*
X158057000Y-165861000D01*
X158067000Y-165849000D01*
X158078000Y-165838000D01*
X158089000Y-165827000D01*
X158101000Y-165817000D01*
X158114000Y-165807000D01*
X158127000Y-165798000D01*
X158140000Y-165790000D01*
X158154000Y-165783000D01*
X158168000Y-165776000D01*
X158182000Y-165770000D01*
X158197000Y-165765000D01*
X158212000Y-165760000D01*
X158228000Y-165757000D01*
X158243000Y-165754000D01*
X158259000Y-165752000D01*
X158274000Y-165750000D01*
X158290000Y-165750000D01*
X161390000Y-165750000D01*
X161390000Y-167550000D01*
G37*
X161390000Y-154850000D02*
X158290000Y-154850000D01*
X158274000Y-154850000D01*
X158259000Y-154848000D01*
X158243000Y-154846000D01*
X158228000Y-154843000D01*
X158212000Y-154840000D01*
X158197000Y-154835000D01*
X158182000Y-154830000D01*
X158168000Y-154824000D01*
X158154000Y-154817000D01*
X158140000Y-154810000D01*
X158127000Y-154802000D01*
X158114000Y-154793000D01*
X158101000Y-154783000D01*
X158089000Y-154773000D01*
X158078000Y-154762000D01*
X158067000Y-154751000D01*
X158057000Y-154739000D01*
X158047000Y-154726000D01*
X158038000Y-154713000D01*
X158030000Y-154700000D01*
X158023000Y-154686000D01*
X158016000Y-154672000D01*
X158010000Y-154658000D01*
X158005000Y-154643000D01*
X158000000Y-154628000D01*
X157997000Y-154612000D01*
X157994000Y-154597000D01*
X157992000Y-154581000D01*
X157990000Y-154566000D01*
X157990000Y-154550000D01*
X157990000Y-153350000D01*
X157990000Y-153334000D01*
X157992000Y-153319000D01*
X157994000Y-153303000D01*
X157997000Y-153288000D01*
X158000000Y-153272000D01*
X158005000Y-153257000D01*
X158010000Y-153242000D01*
X158016000Y-153228000D01*
X158023000Y-153214000D01*
X158030000Y-153200000D01*
X158038000Y-153187000D01*
X158047000Y-153174000D01*
X158057000Y-153161000D01*
X158067000Y-153149000D01*
X158078000Y-153138000D01*
X158089000Y-153127000D01*
X158101000Y-153117000D01*
X158114000Y-153107000D01*
X158127000Y-153098000D01*
X158140000Y-153090000D01*
X158154000Y-153083000D01*
X158168000Y-153076000D01*
X158182000Y-153070000D01*
X158197000Y-153065000D01*
X158212000Y-153060000D01*
X158228000Y-153057000D01*
X158243000Y-153054000D01*
X158259000Y-153052000D01*
X158274000Y-153050000D01*
X158290000Y-153050000D01*
X161390000Y-153050000D01*
X161390000Y-154850000D01*
G36*
X161390000Y-154850000D02*
G01*
X158290000Y-154850000D01*
X158274000Y-154850000D01*
X158259000Y-154848000D01*
X158243000Y-154846000D01*
X158228000Y-154843000D01*
X158212000Y-154840000D01*
X158197000Y-154835000D01*
X158182000Y-154830000D01*
X158168000Y-154824000D01*
X158154000Y-154817000D01*
X158140000Y-154810000D01*
X158127000Y-154802000D01*
X158114000Y-154793000D01*
X158101000Y-154783000D01*
X158089000Y-154773000D01*
X158078000Y-154762000D01*
X158067000Y-154751000D01*
X158057000Y-154739000D01*
X158047000Y-154726000D01*
X158038000Y-154713000D01*
X158030000Y-154700000D01*
X158023000Y-154686000D01*
X158016000Y-154672000D01*
X158010000Y-154658000D01*
X158005000Y-154643000D01*
X158000000Y-154628000D01*
X157997000Y-154612000D01*
X157994000Y-154597000D01*
X157992000Y-154581000D01*
X157990000Y-154566000D01*
X157990000Y-154550000D01*
X157990000Y-153350000D01*
X157990000Y-153334000D01*
X157992000Y-153319000D01*
X157994000Y-153303000D01*
X157997000Y-153288000D01*
X158000000Y-153272000D01*
X158005000Y-153257000D01*
X158010000Y-153242000D01*
X158016000Y-153228000D01*
X158023000Y-153214000D01*
X158030000Y-153200000D01*
X158038000Y-153187000D01*
X158047000Y-153174000D01*
X158057000Y-153161000D01*
X158067000Y-153149000D01*
X158078000Y-153138000D01*
X158089000Y-153127000D01*
X158101000Y-153117000D01*
X158114000Y-153107000D01*
X158127000Y-153098000D01*
X158140000Y-153090000D01*
X158154000Y-153083000D01*
X158168000Y-153076000D01*
X158182000Y-153070000D01*
X158197000Y-153065000D01*
X158212000Y-153060000D01*
X158228000Y-153057000D01*
X158243000Y-153054000D01*
X158259000Y-153052000D01*
X158274000Y-153050000D01*
X158290000Y-153050000D01*
X161390000Y-153050000D01*
X161390000Y-154850000D01*
G37*
X150900000Y-149700000D02*
X150900000Y-149716000D01*
X150898000Y-149731000D01*
X150896000Y-149747000D01*
X150893000Y-149762000D01*
X150890000Y-149778000D01*
X150885000Y-149793000D01*
X150880000Y-149808000D01*
X150874000Y-149822000D01*
X150867000Y-149836000D01*
X150860000Y-149850000D01*
X150852000Y-149863000D01*
X150843000Y-149876000D01*
X150833000Y-149889000D01*
X150823000Y-149901000D01*
X150812000Y-149912000D01*
X150801000Y-149923000D01*
X150789000Y-149933000D01*
X150776000Y-149943000D01*
X150763000Y-149952000D01*
X150750000Y-149960000D01*
X150736000Y-149967000D01*
X150722000Y-149974000D01*
X150708000Y-149980000D01*
X150693000Y-149985000D01*
X150678000Y-149990000D01*
X150662000Y-149993000D01*
X150647000Y-149996000D01*
X150631000Y-149998000D01*
X150616000Y-150000000D01*
X150600000Y-150000000D01*
X149400000Y-150000000D01*
X149384000Y-150000000D01*
X149369000Y-149998000D01*
X149353000Y-149996000D01*
X149338000Y-149993000D01*
X149322000Y-149990000D01*
X149307000Y-149985000D01*
X149292000Y-149980000D01*
X149278000Y-149974000D01*
X149264000Y-149967000D01*
X149250000Y-149960000D01*
X149237000Y-149952000D01*
X149224000Y-149943000D01*
X149211000Y-149933000D01*
X149199000Y-149923000D01*
X149188000Y-149912000D01*
X149177000Y-149901000D01*
X149167000Y-149889000D01*
X149157000Y-149876000D01*
X149148000Y-149863000D01*
X149140000Y-149850000D01*
X149133000Y-149836000D01*
X149126000Y-149822000D01*
X149120000Y-149808000D01*
X149115000Y-149793000D01*
X149110000Y-149778000D01*
X149107000Y-149762000D01*
X149104000Y-149747000D01*
X149102000Y-149731000D01*
X149100000Y-149716000D01*
X149100000Y-149700000D01*
X149100000Y-146600000D01*
X150900000Y-146600000D01*
X150900000Y-149700000D01*
G36*
X150900000Y-149700000D02*
G01*
X150900000Y-149716000D01*
X150898000Y-149731000D01*
X150896000Y-149747000D01*
X150893000Y-149762000D01*
X150890000Y-149778000D01*
X150885000Y-149793000D01*
X150880000Y-149808000D01*
X150874000Y-149822000D01*
X150867000Y-149836000D01*
X150860000Y-149850000D01*
X150852000Y-149863000D01*
X150843000Y-149876000D01*
X150833000Y-149889000D01*
X150823000Y-149901000D01*
X150812000Y-149912000D01*
X150801000Y-149923000D01*
X150789000Y-149933000D01*
X150776000Y-149943000D01*
X150763000Y-149952000D01*
X150750000Y-149960000D01*
X150736000Y-149967000D01*
X150722000Y-149974000D01*
X150708000Y-149980000D01*
X150693000Y-149985000D01*
X150678000Y-149990000D01*
X150662000Y-149993000D01*
X150647000Y-149996000D01*
X150631000Y-149998000D01*
X150616000Y-150000000D01*
X150600000Y-150000000D01*
X149400000Y-150000000D01*
X149384000Y-150000000D01*
X149369000Y-149998000D01*
X149353000Y-149996000D01*
X149338000Y-149993000D01*
X149322000Y-149990000D01*
X149307000Y-149985000D01*
X149292000Y-149980000D01*
X149278000Y-149974000D01*
X149264000Y-149967000D01*
X149250000Y-149960000D01*
X149237000Y-149952000D01*
X149224000Y-149943000D01*
X149211000Y-149933000D01*
X149199000Y-149923000D01*
X149188000Y-149912000D01*
X149177000Y-149901000D01*
X149167000Y-149889000D01*
X149157000Y-149876000D01*
X149148000Y-149863000D01*
X149140000Y-149850000D01*
X149133000Y-149836000D01*
X149126000Y-149822000D01*
X149120000Y-149808000D01*
X149115000Y-149793000D01*
X149110000Y-149778000D01*
X149107000Y-149762000D01*
X149104000Y-149747000D01*
X149102000Y-149731000D01*
X149100000Y-149716000D01*
X149100000Y-149700000D01*
X149100000Y-146600000D01*
X150900000Y-146600000D01*
X150900000Y-149700000D01*
G37*
X141741000Y-191152000D02*
X141757000Y-191154000D01*
X141772000Y-191157000D01*
X141788000Y-191160000D01*
X141803000Y-191165000D01*
X141818000Y-191170000D01*
X141832000Y-191176000D01*
X141846000Y-191183000D01*
X141860000Y-191190000D01*
X141873000Y-191198000D01*
X141886000Y-191207000D01*
X141899000Y-191217000D01*
X141911000Y-191227000D01*
X141922000Y-191238000D01*
X141933000Y-191249000D01*
X141943000Y-191261000D01*
X141953000Y-191274000D01*
X141962000Y-191287000D01*
X141970000Y-191300000D01*
X141977000Y-191314000D01*
X141984000Y-191328000D01*
X141990000Y-191342000D01*
X141995000Y-191357000D01*
X142000000Y-191372000D01*
X142003000Y-191388000D01*
X142006000Y-191403000D01*
X142008000Y-191419000D01*
X142010000Y-191434000D01*
X142010000Y-191450000D01*
X142010000Y-192650000D01*
X142010000Y-192666000D01*
X142008000Y-192681000D01*
X142006000Y-192697000D01*
X142003000Y-192712000D01*
X142000000Y-192728000D01*
X141995000Y-192743000D01*
X141990000Y-192758000D01*
X141984000Y-192772000D01*
X141977000Y-192786000D01*
X141970000Y-192800000D01*
X141962000Y-192813000D01*
X141953000Y-192826000D01*
X141943000Y-192839000D01*
X141933000Y-192851000D01*
X141922000Y-192862000D01*
X141911000Y-192873000D01*
X141899000Y-192883000D01*
X141886000Y-192893000D01*
X141873000Y-192902000D01*
X141860000Y-192910000D01*
X141846000Y-192917000D01*
X141832000Y-192924000D01*
X141818000Y-192930000D01*
X141803000Y-192935000D01*
X141788000Y-192940000D01*
X141772000Y-192943000D01*
X141757000Y-192946000D01*
X141741000Y-192948000D01*
X141726000Y-192950000D01*
X141710000Y-192950000D01*
X138610000Y-192950000D01*
X138610000Y-191150000D01*
X141710000Y-191150000D01*
X141726000Y-191150000D01*
X141741000Y-191152000D01*
G36*
X141741000Y-191152000D02*
G01*
X141757000Y-191154000D01*
X141772000Y-191157000D01*
X141788000Y-191160000D01*
X141803000Y-191165000D01*
X141818000Y-191170000D01*
X141832000Y-191176000D01*
X141846000Y-191183000D01*
X141860000Y-191190000D01*
X141873000Y-191198000D01*
X141886000Y-191207000D01*
X141899000Y-191217000D01*
X141911000Y-191227000D01*
X141922000Y-191238000D01*
X141933000Y-191249000D01*
X141943000Y-191261000D01*
X141953000Y-191274000D01*
X141962000Y-191287000D01*
X141970000Y-191300000D01*
X141977000Y-191314000D01*
X141984000Y-191328000D01*
X141990000Y-191342000D01*
X141995000Y-191357000D01*
X142000000Y-191372000D01*
X142003000Y-191388000D01*
X142006000Y-191403000D01*
X142008000Y-191419000D01*
X142010000Y-191434000D01*
X142010000Y-191450000D01*
X142010000Y-192650000D01*
X142010000Y-192666000D01*
X142008000Y-192681000D01*
X142006000Y-192697000D01*
X142003000Y-192712000D01*
X142000000Y-192728000D01*
X141995000Y-192743000D01*
X141990000Y-192758000D01*
X141984000Y-192772000D01*
X141977000Y-192786000D01*
X141970000Y-192800000D01*
X141962000Y-192813000D01*
X141953000Y-192826000D01*
X141943000Y-192839000D01*
X141933000Y-192851000D01*
X141922000Y-192862000D01*
X141911000Y-192873000D01*
X141899000Y-192883000D01*
X141886000Y-192893000D01*
X141873000Y-192902000D01*
X141860000Y-192910000D01*
X141846000Y-192917000D01*
X141832000Y-192924000D01*
X141818000Y-192930000D01*
X141803000Y-192935000D01*
X141788000Y-192940000D01*
X141772000Y-192943000D01*
X141757000Y-192946000D01*
X141741000Y-192948000D01*
X141726000Y-192950000D01*
X141710000Y-192950000D01*
X138610000Y-192950000D01*
X138610000Y-191150000D01*
X141710000Y-191150000D01*
X141726000Y-191150000D01*
X141741000Y-191152000D01*
G37*
X141741000Y-178452000D02*
X141757000Y-178454000D01*
X141772000Y-178457000D01*
X141788000Y-178460000D01*
X141803000Y-178465000D01*
X141818000Y-178470000D01*
X141832000Y-178476000D01*
X141846000Y-178483000D01*
X141860000Y-178490000D01*
X141873000Y-178498000D01*
X141886000Y-178507000D01*
X141899000Y-178517000D01*
X141911000Y-178527000D01*
X141922000Y-178538000D01*
X141933000Y-178549000D01*
X141943000Y-178561000D01*
X141953000Y-178574000D01*
X141962000Y-178587000D01*
X141970000Y-178600000D01*
X141977000Y-178614000D01*
X141984000Y-178628000D01*
X141990000Y-178642000D01*
X141995000Y-178657000D01*
X142000000Y-178672000D01*
X142003000Y-178688000D01*
X142006000Y-178703000D01*
X142008000Y-178719000D01*
X142010000Y-178734000D01*
X142010000Y-178750000D01*
X142010000Y-179950000D01*
X142010000Y-179966000D01*
X142008000Y-179981000D01*
X142006000Y-179997000D01*
X142003000Y-180012000D01*
X142000000Y-180028000D01*
X141995000Y-180043000D01*
X141990000Y-180058000D01*
X141984000Y-180072000D01*
X141977000Y-180086000D01*
X141970000Y-180100000D01*
X141962000Y-180113000D01*
X141953000Y-180126000D01*
X141943000Y-180139000D01*
X141933000Y-180151000D01*
X141922000Y-180162000D01*
X141911000Y-180173000D01*
X141899000Y-180183000D01*
X141886000Y-180193000D01*
X141873000Y-180202000D01*
X141860000Y-180210000D01*
X141846000Y-180217000D01*
X141832000Y-180224000D01*
X141818000Y-180230000D01*
X141803000Y-180235000D01*
X141788000Y-180240000D01*
X141772000Y-180243000D01*
X141757000Y-180246000D01*
X141741000Y-180248000D01*
X141726000Y-180250000D01*
X141710000Y-180250000D01*
X138610000Y-180250000D01*
X138610000Y-178450000D01*
X141710000Y-178450000D01*
X141726000Y-178450000D01*
X141741000Y-178452000D01*
G36*
X141741000Y-178452000D02*
G01*
X141757000Y-178454000D01*
X141772000Y-178457000D01*
X141788000Y-178460000D01*
X141803000Y-178465000D01*
X141818000Y-178470000D01*
X141832000Y-178476000D01*
X141846000Y-178483000D01*
X141860000Y-178490000D01*
X141873000Y-178498000D01*
X141886000Y-178507000D01*
X141899000Y-178517000D01*
X141911000Y-178527000D01*
X141922000Y-178538000D01*
X141933000Y-178549000D01*
X141943000Y-178561000D01*
X141953000Y-178574000D01*
X141962000Y-178587000D01*
X141970000Y-178600000D01*
X141977000Y-178614000D01*
X141984000Y-178628000D01*
X141990000Y-178642000D01*
X141995000Y-178657000D01*
X142000000Y-178672000D01*
X142003000Y-178688000D01*
X142006000Y-178703000D01*
X142008000Y-178719000D01*
X142010000Y-178734000D01*
X142010000Y-178750000D01*
X142010000Y-179950000D01*
X142010000Y-179966000D01*
X142008000Y-179981000D01*
X142006000Y-179997000D01*
X142003000Y-180012000D01*
X142000000Y-180028000D01*
X141995000Y-180043000D01*
X141990000Y-180058000D01*
X141984000Y-180072000D01*
X141977000Y-180086000D01*
X141970000Y-180100000D01*
X141962000Y-180113000D01*
X141953000Y-180126000D01*
X141943000Y-180139000D01*
X141933000Y-180151000D01*
X141922000Y-180162000D01*
X141911000Y-180173000D01*
X141899000Y-180183000D01*
X141886000Y-180193000D01*
X141873000Y-180202000D01*
X141860000Y-180210000D01*
X141846000Y-180217000D01*
X141832000Y-180224000D01*
X141818000Y-180230000D01*
X141803000Y-180235000D01*
X141788000Y-180240000D01*
X141772000Y-180243000D01*
X141757000Y-180246000D01*
X141741000Y-180248000D01*
X141726000Y-180250000D01*
X141710000Y-180250000D01*
X138610000Y-180250000D01*
X138610000Y-178450000D01*
X141710000Y-178450000D01*
X141726000Y-178450000D01*
X141741000Y-178452000D01*
G37*
X141741000Y-165752000D02*
X141757000Y-165754000D01*
X141772000Y-165757000D01*
X141788000Y-165760000D01*
X141803000Y-165765000D01*
X141818000Y-165770000D01*
X141832000Y-165776000D01*
X141846000Y-165783000D01*
X141860000Y-165790000D01*
X141873000Y-165798000D01*
X141886000Y-165807000D01*
X141899000Y-165817000D01*
X141911000Y-165827000D01*
X141922000Y-165838000D01*
X141933000Y-165849000D01*
X141943000Y-165861000D01*
X141953000Y-165874000D01*
X141962000Y-165887000D01*
X141970000Y-165900000D01*
X141977000Y-165914000D01*
X141984000Y-165928000D01*
X141990000Y-165942000D01*
X141995000Y-165957000D01*
X142000000Y-165972000D01*
X142003000Y-165988000D01*
X142006000Y-166003000D01*
X142008000Y-166019000D01*
X142010000Y-166034000D01*
X142010000Y-166050000D01*
X142010000Y-167250000D01*
X142010000Y-167266000D01*
X142008000Y-167281000D01*
X142006000Y-167297000D01*
X142003000Y-167312000D01*
X142000000Y-167328000D01*
X141995000Y-167343000D01*
X141990000Y-167358000D01*
X141984000Y-167372000D01*
X141977000Y-167386000D01*
X141970000Y-167400000D01*
X141962000Y-167413000D01*
X141953000Y-167426000D01*
X141943000Y-167439000D01*
X141933000Y-167451000D01*
X141922000Y-167462000D01*
X141911000Y-167473000D01*
X141899000Y-167483000D01*
X141886000Y-167493000D01*
X141873000Y-167502000D01*
X141860000Y-167510000D01*
X141846000Y-167517000D01*
X141832000Y-167524000D01*
X141818000Y-167530000D01*
X141803000Y-167535000D01*
X141788000Y-167540000D01*
X141772000Y-167543000D01*
X141757000Y-167546000D01*
X141741000Y-167548000D01*
X141726000Y-167550000D01*
X141710000Y-167550000D01*
X138610000Y-167550000D01*
X138610000Y-165750000D01*
X141710000Y-165750000D01*
X141726000Y-165750000D01*
X141741000Y-165752000D01*
G36*
X141741000Y-165752000D02*
G01*
X141757000Y-165754000D01*
X141772000Y-165757000D01*
X141788000Y-165760000D01*
X141803000Y-165765000D01*
X141818000Y-165770000D01*
X141832000Y-165776000D01*
X141846000Y-165783000D01*
X141860000Y-165790000D01*
X141873000Y-165798000D01*
X141886000Y-165807000D01*
X141899000Y-165817000D01*
X141911000Y-165827000D01*
X141922000Y-165838000D01*
X141933000Y-165849000D01*
X141943000Y-165861000D01*
X141953000Y-165874000D01*
X141962000Y-165887000D01*
X141970000Y-165900000D01*
X141977000Y-165914000D01*
X141984000Y-165928000D01*
X141990000Y-165942000D01*
X141995000Y-165957000D01*
X142000000Y-165972000D01*
X142003000Y-165988000D01*
X142006000Y-166003000D01*
X142008000Y-166019000D01*
X142010000Y-166034000D01*
X142010000Y-166050000D01*
X142010000Y-167250000D01*
X142010000Y-167266000D01*
X142008000Y-167281000D01*
X142006000Y-167297000D01*
X142003000Y-167312000D01*
X142000000Y-167328000D01*
X141995000Y-167343000D01*
X141990000Y-167358000D01*
X141984000Y-167372000D01*
X141977000Y-167386000D01*
X141970000Y-167400000D01*
X141962000Y-167413000D01*
X141953000Y-167426000D01*
X141943000Y-167439000D01*
X141933000Y-167451000D01*
X141922000Y-167462000D01*
X141911000Y-167473000D01*
X141899000Y-167483000D01*
X141886000Y-167493000D01*
X141873000Y-167502000D01*
X141860000Y-167510000D01*
X141846000Y-167517000D01*
X141832000Y-167524000D01*
X141818000Y-167530000D01*
X141803000Y-167535000D01*
X141788000Y-167540000D01*
X141772000Y-167543000D01*
X141757000Y-167546000D01*
X141741000Y-167548000D01*
X141726000Y-167550000D01*
X141710000Y-167550000D01*
X138610000Y-167550000D01*
X138610000Y-165750000D01*
X141710000Y-165750000D01*
X141726000Y-165750000D01*
X141741000Y-165752000D01*
G37*
X141741000Y-153052000D02*
X141757000Y-153054000D01*
X141772000Y-153057000D01*
X141788000Y-153060000D01*
X141803000Y-153065000D01*
X141818000Y-153070000D01*
X141832000Y-153076000D01*
X141846000Y-153083000D01*
X141860000Y-153090000D01*
X141873000Y-153098000D01*
X141886000Y-153107000D01*
X141899000Y-153117000D01*
X141911000Y-153127000D01*
X141922000Y-153138000D01*
X141933000Y-153149000D01*
X141943000Y-153161000D01*
X141953000Y-153174000D01*
X141962000Y-153187000D01*
X141970000Y-153200000D01*
X141977000Y-153214000D01*
X141984000Y-153228000D01*
X141990000Y-153242000D01*
X141995000Y-153257000D01*
X142000000Y-153272000D01*
X142003000Y-153288000D01*
X142006000Y-153303000D01*
X142008000Y-153319000D01*
X142010000Y-153334000D01*
X142010000Y-153350000D01*
X142010000Y-154550000D01*
X142010000Y-154566000D01*
X142008000Y-154581000D01*
X142006000Y-154597000D01*
X142003000Y-154612000D01*
X142000000Y-154628000D01*
X141995000Y-154643000D01*
X141990000Y-154658000D01*
X141984000Y-154672000D01*
X141977000Y-154686000D01*
X141970000Y-154700000D01*
X141962000Y-154713000D01*
X141953000Y-154726000D01*
X141943000Y-154739000D01*
X141933000Y-154751000D01*
X141922000Y-154762000D01*
X141911000Y-154773000D01*
X141899000Y-154783000D01*
X141886000Y-154793000D01*
X141873000Y-154802000D01*
X141860000Y-154810000D01*
X141846000Y-154817000D01*
X141832000Y-154824000D01*
X141818000Y-154830000D01*
X141803000Y-154835000D01*
X141788000Y-154840000D01*
X141772000Y-154843000D01*
X141757000Y-154846000D01*
X141741000Y-154848000D01*
X141726000Y-154850000D01*
X141710000Y-154850000D01*
X138610000Y-154850000D01*
X138610000Y-153050000D01*
X141710000Y-153050000D01*
X141726000Y-153050000D01*
X141741000Y-153052000D01*
G36*
X141741000Y-153052000D02*
G01*
X141757000Y-153054000D01*
X141772000Y-153057000D01*
X141788000Y-153060000D01*
X141803000Y-153065000D01*
X141818000Y-153070000D01*
X141832000Y-153076000D01*
X141846000Y-153083000D01*
X141860000Y-153090000D01*
X141873000Y-153098000D01*
X141886000Y-153107000D01*
X141899000Y-153117000D01*
X141911000Y-153127000D01*
X141922000Y-153138000D01*
X141933000Y-153149000D01*
X141943000Y-153161000D01*
X141953000Y-153174000D01*
X141962000Y-153187000D01*
X141970000Y-153200000D01*
X141977000Y-153214000D01*
X141984000Y-153228000D01*
X141990000Y-153242000D01*
X141995000Y-153257000D01*
X142000000Y-153272000D01*
X142003000Y-153288000D01*
X142006000Y-153303000D01*
X142008000Y-153319000D01*
X142010000Y-153334000D01*
X142010000Y-153350000D01*
X142010000Y-154550000D01*
X142010000Y-154566000D01*
X142008000Y-154581000D01*
X142006000Y-154597000D01*
X142003000Y-154612000D01*
X142000000Y-154628000D01*
X141995000Y-154643000D01*
X141990000Y-154658000D01*
X141984000Y-154672000D01*
X141977000Y-154686000D01*
X141970000Y-154700000D01*
X141962000Y-154713000D01*
X141953000Y-154726000D01*
X141943000Y-154739000D01*
X141933000Y-154751000D01*
X141922000Y-154762000D01*
X141911000Y-154773000D01*
X141899000Y-154783000D01*
X141886000Y-154793000D01*
X141873000Y-154802000D01*
X141860000Y-154810000D01*
X141846000Y-154817000D01*
X141832000Y-154824000D01*
X141818000Y-154830000D01*
X141803000Y-154835000D01*
X141788000Y-154840000D01*
X141772000Y-154843000D01*
X141757000Y-154846000D01*
X141741000Y-154848000D01*
X141726000Y-154850000D01*
X141710000Y-154850000D01*
X138610000Y-154850000D01*
X138610000Y-153050000D01*
X141710000Y-153050000D01*
X141726000Y-153050000D01*
X141741000Y-153052000D01*
G37*
%TD*%
D11*
%TO.C,U7*%
X152725000Y-197000000D03*
X147275000Y-197000000D03*
D12*
X152425000Y-193970000D03*
X147575000Y-193970000D03*
D13*
X150000000Y-194000000D03*
X149000000Y-197300000D03*
X151000000Y-197300000D03*
X152500000Y-190500000D03*
X152500000Y-188000000D03*
X152500000Y-185500000D03*
%TD*%
D14*
%TO.C,C5*%
X137250000Y-192200000D03*
X137250000Y-194300000D03*
%TD*%
%TO.C,R47*%
X137300000Y-149000000D03*
X135200000Y-149000000D03*
%TD*%
%TO.C,R39*%
X162700000Y-156500000D03*
X164800000Y-156500000D03*
%TD*%
%TO.C,R42*%
X162700000Y-162500000D03*
X164800000Y-162500000D03*
%TD*%
D15*
%TO.C,C6*%
X135750000Y-192790000D03*
X135750000Y-193750000D03*
%TD*%
D16*
%TO.C,H5*%
X165250000Y-185000000D03*
%TD*%
%TO.C,H1*%
X150000000Y-112000000D03*
%TD*%
D17*
%TO.C,C2*%
X132730000Y-144750000D03*
X131770000Y-144750000D03*
%TD*%
D14*
%TO.C,R48*%
X137300000Y-151000000D03*
X135200000Y-151000000D03*
%TD*%
%TO.C,R37*%
X162700000Y-149000000D03*
X164800000Y-149000000D03*
%TD*%
%TO.C,R44*%
X162700000Y-171250000D03*
X164800000Y-171250000D03*
%TD*%
%TO.C,R49*%
X137300000Y-156500000D03*
X135200000Y-156500000D03*
%TD*%
%TO.C,C3*%
X124750000Y-145700000D03*
X124750000Y-147800000D03*
%TD*%
D18*
%TO.C,L1*%
X127000000Y-150100000D03*
X127000000Y-157900000D03*
%TD*%
D14*
%TO.C,C4*%
X126750000Y-145700000D03*
X126750000Y-147800000D03*
%TD*%
%TO.C,R38*%
X162700000Y-151000000D03*
X164800000Y-151000000D03*
%TD*%
%TO.C,R52*%
X137300000Y-162500000D03*
X135200000Y-162500000D03*
%TD*%
D16*
%TO.C,H4*%
X188000000Y-150000000D03*
%TD*%
D14*
%TO.C,R40*%
X162700000Y-158500000D03*
X164800000Y-158500000D03*
%TD*%
%TO.C,R53*%
X137300000Y-169250000D03*
X135200000Y-169250000D03*
%TD*%
D16*
%TO.C,H2*%
X112000000Y-150000000D03*
%TD*%
D14*
%TO.C,R45*%
X162700000Y-173250000D03*
X164800000Y-173250000D03*
%TD*%
%TO.C,R46*%
X162700000Y-175250000D03*
X164800000Y-175250000D03*
%TD*%
%TO.C,R41*%
X162700000Y-160500000D03*
X164800000Y-160500000D03*
%TD*%
%TO.C,R43*%
X162700000Y-169250000D03*
X164800000Y-169250000D03*
%TD*%
%TO.C,R50*%
X137300000Y-158500000D03*
X135200000Y-158500000D03*
%TD*%
%TO.C,C1*%
X126750000Y-143800000D03*
X126750000Y-141700000D03*
%TD*%
D19*
%TO.C,U1*%
X130450000Y-142112500D03*
X129500000Y-142112500D03*
X128550000Y-142112500D03*
X128550000Y-144387500D03*
X129500000Y-144387500D03*
X130450000Y-144387500D03*
%TD*%
D16*
%TO.C,H3*%
X134750000Y-185000000D03*
%TD*%
D14*
%TO.C,R54*%
X137300000Y-171250000D03*
X135200000Y-171250000D03*
%TD*%
D20*
%TO.C,RV1*%
X145000000Y-139400000D03*
X155000000Y-136900000D03*
X145000000Y-134400000D03*
%TD*%
D14*
%TO.C,R51*%
X137300000Y-160500000D03*
X135200000Y-160500000D03*
%TD*%
D21*
%TO.C,J1*%
X119525000Y-146250000D03*
D22*
X119525000Y-148750000D03*
X119525000Y-151250000D03*
X119525000Y-153750000D03*
%TD*%
M02*
