%TF.GenerationSoftware,KiCad,Pcbnew,7.0.8*%
%TF.CreationDate,2023-10-26T13:22:37+11:00*%
%TF.ProjectId,linetest4.0,6c696e65-7465-4737-9434-2e302e6b6963,rev?*%
%TF.SameCoordinates,Original*%
%TF.FileFunction,Paste,Top*%
%TF.FilePolarity,Positive*%
%FSLAX46Y46*%
G04 Gerber Fmt 4.6, Leading zero omitted, Abs format (unit mm)*
G04 Created by KiCad (PCBNEW 7.0.8) date 2023-10-26 13:22:37*
%MOMM*%
%LPD*%
G01*
G04 APERTURE LIST*
G04 Aperture macros list*
%AMRoundRect*
0 Rectangle with rounded corners*
0 $1 Rounding radius*
0 $2 $3 $4 $5 $6 $7 $8 $9 X,Y pos of 4 corners*
0 Add a 4 corners polygon primitive as box body*
4,1,4,$2,$3,$4,$5,$6,$7,$8,$9,$2,$3,0*
0 Add four circle primitives for the rounded corners*
1,1,$1+$1,$2,$3*
1,1,$1+$1,$4,$5*
1,1,$1+$1,$6,$7*
1,1,$1+$1,$8,$9*
0 Add four rect primitives between the rounded corners*
20,1,$1+$1,$2,$3,$4,$5,0*
20,1,$1+$1,$4,$5,$6,$7,0*
20,1,$1+$1,$6,$7,$8,$9,0*
20,1,$1+$1,$8,$9,$2,$3,0*%
G04 Aperture macros list end*
%ADD10C,0.010000*%
%ADD11O,1.100000X1.800000*%
%ADD12O,1.050000X1.450000*%
%ADD13RoundRect,0.450000X0.300000X0.300000X-0.300000X0.300000X-0.300000X-0.300000X0.300000X-0.300000X0*%
%ADD14R,1.200000X1.200000*%
%ADD15RoundRect,0.140000X-0.170000X0.140000X-0.170000X-0.140000X0.170000X-0.140000X0.170000X0.140000X0*%
%ADD16RoundRect,0.140000X0.140000X0.170000X-0.140000X0.170000X-0.140000X-0.170000X0.140000X-0.170000X0*%
%ADD17R,3.200000X2.000000*%
%ADD18RoundRect,0.150000X-0.150000X0.512500X-0.150000X-0.512500X0.150000X-0.512500X0.150000X0.512500X0*%
G04 APERTURE END LIST*
%TO.C,U7*%
D10*
X161290000Y-197930000D02*
X158890000Y-197930000D01*
X158848000Y-197929000D01*
X158806000Y-197926000D01*
X158765000Y-197920000D01*
X158724000Y-197913000D01*
X158683000Y-197903000D01*
X158643000Y-197891000D01*
X158603000Y-197877000D01*
X158565000Y-197861000D01*
X158527000Y-197843000D01*
X158490000Y-197823000D01*
X158454000Y-197801000D01*
X158420000Y-197777000D01*
X158387000Y-197752000D01*
X158355000Y-197725000D01*
X158324000Y-197696000D01*
X158295000Y-197665000D01*
X158268000Y-197633000D01*
X158243000Y-197600000D01*
X158219000Y-197566000D01*
X158197000Y-197530000D01*
X158177000Y-197493000D01*
X158159000Y-197455000D01*
X158143000Y-197417000D01*
X158129000Y-197377000D01*
X158117000Y-197337000D01*
X158107000Y-197296000D01*
X158100000Y-197255000D01*
X158094000Y-197214000D01*
X158091000Y-197172000D01*
X158090000Y-197130000D01*
X158091000Y-197088000D01*
X158094000Y-197046000D01*
X158100000Y-197005000D01*
X158107000Y-196964000D01*
X158117000Y-196923000D01*
X158129000Y-196883000D01*
X158143000Y-196843000D01*
X158159000Y-196805000D01*
X158177000Y-196767000D01*
X158197000Y-196730000D01*
X158219000Y-196694000D01*
X158243000Y-196660000D01*
X158268000Y-196627000D01*
X158295000Y-196595000D01*
X158324000Y-196564000D01*
X158355000Y-196535000D01*
X158387000Y-196508000D01*
X158420000Y-196483000D01*
X158454000Y-196459000D01*
X158490000Y-196437000D01*
X158527000Y-196417000D01*
X158565000Y-196399000D01*
X158603000Y-196383000D01*
X158643000Y-196369000D01*
X158683000Y-196357000D01*
X158724000Y-196347000D01*
X158765000Y-196340000D01*
X158806000Y-196334000D01*
X158848000Y-196331000D01*
X158890000Y-196330000D01*
X161290000Y-196330000D01*
X161290000Y-197930000D01*
G36*
X161290000Y-197930000D02*
G01*
X158890000Y-197930000D01*
X158848000Y-197929000D01*
X158806000Y-197926000D01*
X158765000Y-197920000D01*
X158724000Y-197913000D01*
X158683000Y-197903000D01*
X158643000Y-197891000D01*
X158603000Y-197877000D01*
X158565000Y-197861000D01*
X158527000Y-197843000D01*
X158490000Y-197823000D01*
X158454000Y-197801000D01*
X158420000Y-197777000D01*
X158387000Y-197752000D01*
X158355000Y-197725000D01*
X158324000Y-197696000D01*
X158295000Y-197665000D01*
X158268000Y-197633000D01*
X158243000Y-197600000D01*
X158219000Y-197566000D01*
X158197000Y-197530000D01*
X158177000Y-197493000D01*
X158159000Y-197455000D01*
X158143000Y-197417000D01*
X158129000Y-197377000D01*
X158117000Y-197337000D01*
X158107000Y-197296000D01*
X158100000Y-197255000D01*
X158094000Y-197214000D01*
X158091000Y-197172000D01*
X158090000Y-197130000D01*
X158091000Y-197088000D01*
X158094000Y-197046000D01*
X158100000Y-197005000D01*
X158107000Y-196964000D01*
X158117000Y-196923000D01*
X158129000Y-196883000D01*
X158143000Y-196843000D01*
X158159000Y-196805000D01*
X158177000Y-196767000D01*
X158197000Y-196730000D01*
X158219000Y-196694000D01*
X158243000Y-196660000D01*
X158268000Y-196627000D01*
X158295000Y-196595000D01*
X158324000Y-196564000D01*
X158355000Y-196535000D01*
X158387000Y-196508000D01*
X158420000Y-196483000D01*
X158454000Y-196459000D01*
X158490000Y-196437000D01*
X158527000Y-196417000D01*
X158565000Y-196399000D01*
X158603000Y-196383000D01*
X158643000Y-196369000D01*
X158683000Y-196357000D01*
X158724000Y-196347000D01*
X158765000Y-196340000D01*
X158806000Y-196334000D01*
X158848000Y-196331000D01*
X158890000Y-196330000D01*
X161290000Y-196330000D01*
X161290000Y-197930000D01*
G37*
X161290000Y-195390000D02*
X158890000Y-195390000D01*
X158848000Y-195389000D01*
X158806000Y-195386000D01*
X158765000Y-195380000D01*
X158724000Y-195373000D01*
X158683000Y-195363000D01*
X158643000Y-195351000D01*
X158603000Y-195337000D01*
X158565000Y-195321000D01*
X158527000Y-195303000D01*
X158490000Y-195283000D01*
X158454000Y-195261000D01*
X158420000Y-195237000D01*
X158387000Y-195212000D01*
X158355000Y-195185000D01*
X158324000Y-195156000D01*
X158295000Y-195125000D01*
X158268000Y-195093000D01*
X158243000Y-195060000D01*
X158219000Y-195026000D01*
X158197000Y-194990000D01*
X158177000Y-194953000D01*
X158159000Y-194915000D01*
X158143000Y-194877000D01*
X158129000Y-194837000D01*
X158117000Y-194797000D01*
X158107000Y-194756000D01*
X158100000Y-194715000D01*
X158094000Y-194674000D01*
X158091000Y-194632000D01*
X158090000Y-194590000D01*
X158091000Y-194548000D01*
X158094000Y-194506000D01*
X158100000Y-194465000D01*
X158107000Y-194424000D01*
X158117000Y-194383000D01*
X158129000Y-194343000D01*
X158143000Y-194303000D01*
X158159000Y-194265000D01*
X158177000Y-194227000D01*
X158197000Y-194190000D01*
X158219000Y-194154000D01*
X158243000Y-194120000D01*
X158268000Y-194087000D01*
X158295000Y-194055000D01*
X158324000Y-194024000D01*
X158355000Y-193995000D01*
X158387000Y-193968000D01*
X158420000Y-193943000D01*
X158454000Y-193919000D01*
X158490000Y-193897000D01*
X158527000Y-193877000D01*
X158565000Y-193859000D01*
X158603000Y-193843000D01*
X158643000Y-193829000D01*
X158683000Y-193817000D01*
X158724000Y-193807000D01*
X158765000Y-193800000D01*
X158806000Y-193794000D01*
X158848000Y-193791000D01*
X158890000Y-193790000D01*
X161290000Y-193790000D01*
X161290000Y-195390000D01*
G36*
X161290000Y-195390000D02*
G01*
X158890000Y-195390000D01*
X158848000Y-195389000D01*
X158806000Y-195386000D01*
X158765000Y-195380000D01*
X158724000Y-195373000D01*
X158683000Y-195363000D01*
X158643000Y-195351000D01*
X158603000Y-195337000D01*
X158565000Y-195321000D01*
X158527000Y-195303000D01*
X158490000Y-195283000D01*
X158454000Y-195261000D01*
X158420000Y-195237000D01*
X158387000Y-195212000D01*
X158355000Y-195185000D01*
X158324000Y-195156000D01*
X158295000Y-195125000D01*
X158268000Y-195093000D01*
X158243000Y-195060000D01*
X158219000Y-195026000D01*
X158197000Y-194990000D01*
X158177000Y-194953000D01*
X158159000Y-194915000D01*
X158143000Y-194877000D01*
X158129000Y-194837000D01*
X158117000Y-194797000D01*
X158107000Y-194756000D01*
X158100000Y-194715000D01*
X158094000Y-194674000D01*
X158091000Y-194632000D01*
X158090000Y-194590000D01*
X158091000Y-194548000D01*
X158094000Y-194506000D01*
X158100000Y-194465000D01*
X158107000Y-194424000D01*
X158117000Y-194383000D01*
X158129000Y-194343000D01*
X158143000Y-194303000D01*
X158159000Y-194265000D01*
X158177000Y-194227000D01*
X158197000Y-194190000D01*
X158219000Y-194154000D01*
X158243000Y-194120000D01*
X158268000Y-194087000D01*
X158295000Y-194055000D01*
X158324000Y-194024000D01*
X158355000Y-193995000D01*
X158387000Y-193968000D01*
X158420000Y-193943000D01*
X158454000Y-193919000D01*
X158490000Y-193897000D01*
X158527000Y-193877000D01*
X158565000Y-193859000D01*
X158603000Y-193843000D01*
X158643000Y-193829000D01*
X158683000Y-193817000D01*
X158724000Y-193807000D01*
X158765000Y-193800000D01*
X158806000Y-193794000D01*
X158848000Y-193791000D01*
X158890000Y-193790000D01*
X161290000Y-193790000D01*
X161290000Y-195390000D01*
G37*
X161290000Y-190310000D02*
X158890000Y-190310000D01*
X158848000Y-190309000D01*
X158806000Y-190306000D01*
X158765000Y-190300000D01*
X158724000Y-190293000D01*
X158683000Y-190283000D01*
X158643000Y-190271000D01*
X158603000Y-190257000D01*
X158565000Y-190241000D01*
X158527000Y-190223000D01*
X158490000Y-190203000D01*
X158454000Y-190181000D01*
X158420000Y-190157000D01*
X158387000Y-190132000D01*
X158355000Y-190105000D01*
X158324000Y-190076000D01*
X158295000Y-190045000D01*
X158268000Y-190013000D01*
X158243000Y-189980000D01*
X158219000Y-189946000D01*
X158197000Y-189910000D01*
X158177000Y-189873000D01*
X158159000Y-189835000D01*
X158143000Y-189797000D01*
X158129000Y-189757000D01*
X158117000Y-189717000D01*
X158107000Y-189676000D01*
X158100000Y-189635000D01*
X158094000Y-189594000D01*
X158091000Y-189552000D01*
X158090000Y-189510000D01*
X158091000Y-189468000D01*
X158094000Y-189426000D01*
X158100000Y-189385000D01*
X158107000Y-189344000D01*
X158117000Y-189303000D01*
X158129000Y-189263000D01*
X158143000Y-189223000D01*
X158159000Y-189185000D01*
X158177000Y-189147000D01*
X158197000Y-189110000D01*
X158219000Y-189074000D01*
X158243000Y-189040000D01*
X158268000Y-189007000D01*
X158295000Y-188975000D01*
X158324000Y-188944000D01*
X158355000Y-188915000D01*
X158387000Y-188888000D01*
X158420000Y-188863000D01*
X158454000Y-188839000D01*
X158490000Y-188817000D01*
X158527000Y-188797000D01*
X158565000Y-188779000D01*
X158603000Y-188763000D01*
X158643000Y-188749000D01*
X158683000Y-188737000D01*
X158724000Y-188727000D01*
X158765000Y-188720000D01*
X158806000Y-188714000D01*
X158848000Y-188711000D01*
X158890000Y-188710000D01*
X161290000Y-188710000D01*
X161290000Y-190310000D01*
G36*
X161290000Y-190310000D02*
G01*
X158890000Y-190310000D01*
X158848000Y-190309000D01*
X158806000Y-190306000D01*
X158765000Y-190300000D01*
X158724000Y-190293000D01*
X158683000Y-190283000D01*
X158643000Y-190271000D01*
X158603000Y-190257000D01*
X158565000Y-190241000D01*
X158527000Y-190223000D01*
X158490000Y-190203000D01*
X158454000Y-190181000D01*
X158420000Y-190157000D01*
X158387000Y-190132000D01*
X158355000Y-190105000D01*
X158324000Y-190076000D01*
X158295000Y-190045000D01*
X158268000Y-190013000D01*
X158243000Y-189980000D01*
X158219000Y-189946000D01*
X158197000Y-189910000D01*
X158177000Y-189873000D01*
X158159000Y-189835000D01*
X158143000Y-189797000D01*
X158129000Y-189757000D01*
X158117000Y-189717000D01*
X158107000Y-189676000D01*
X158100000Y-189635000D01*
X158094000Y-189594000D01*
X158091000Y-189552000D01*
X158090000Y-189510000D01*
X158091000Y-189468000D01*
X158094000Y-189426000D01*
X158100000Y-189385000D01*
X158107000Y-189344000D01*
X158117000Y-189303000D01*
X158129000Y-189263000D01*
X158143000Y-189223000D01*
X158159000Y-189185000D01*
X158177000Y-189147000D01*
X158197000Y-189110000D01*
X158219000Y-189074000D01*
X158243000Y-189040000D01*
X158268000Y-189007000D01*
X158295000Y-188975000D01*
X158324000Y-188944000D01*
X158355000Y-188915000D01*
X158387000Y-188888000D01*
X158420000Y-188863000D01*
X158454000Y-188839000D01*
X158490000Y-188817000D01*
X158527000Y-188797000D01*
X158565000Y-188779000D01*
X158603000Y-188763000D01*
X158643000Y-188749000D01*
X158683000Y-188737000D01*
X158724000Y-188727000D01*
X158765000Y-188720000D01*
X158806000Y-188714000D01*
X158848000Y-188711000D01*
X158890000Y-188710000D01*
X161290000Y-188710000D01*
X161290000Y-190310000D01*
G37*
X161290000Y-187770000D02*
X158890000Y-187770000D01*
X158848000Y-187769000D01*
X158806000Y-187766000D01*
X158765000Y-187760000D01*
X158724000Y-187753000D01*
X158683000Y-187743000D01*
X158643000Y-187731000D01*
X158603000Y-187717000D01*
X158565000Y-187701000D01*
X158527000Y-187683000D01*
X158490000Y-187663000D01*
X158454000Y-187641000D01*
X158420000Y-187617000D01*
X158387000Y-187592000D01*
X158355000Y-187565000D01*
X158324000Y-187536000D01*
X158295000Y-187505000D01*
X158268000Y-187473000D01*
X158243000Y-187440000D01*
X158219000Y-187406000D01*
X158197000Y-187370000D01*
X158177000Y-187333000D01*
X158159000Y-187295000D01*
X158143000Y-187257000D01*
X158129000Y-187217000D01*
X158117000Y-187177000D01*
X158107000Y-187136000D01*
X158100000Y-187095000D01*
X158094000Y-187054000D01*
X158091000Y-187012000D01*
X158090000Y-186970000D01*
X158091000Y-186928000D01*
X158094000Y-186886000D01*
X158100000Y-186845000D01*
X158107000Y-186804000D01*
X158117000Y-186763000D01*
X158129000Y-186723000D01*
X158143000Y-186683000D01*
X158159000Y-186645000D01*
X158177000Y-186607000D01*
X158197000Y-186570000D01*
X158219000Y-186534000D01*
X158243000Y-186500000D01*
X158268000Y-186467000D01*
X158295000Y-186435000D01*
X158324000Y-186404000D01*
X158355000Y-186375000D01*
X158387000Y-186348000D01*
X158420000Y-186323000D01*
X158454000Y-186299000D01*
X158490000Y-186277000D01*
X158527000Y-186257000D01*
X158565000Y-186239000D01*
X158603000Y-186223000D01*
X158643000Y-186209000D01*
X158683000Y-186197000D01*
X158724000Y-186187000D01*
X158765000Y-186180000D01*
X158806000Y-186174000D01*
X158848000Y-186171000D01*
X158890000Y-186170000D01*
X161290000Y-186170000D01*
X161290000Y-187770000D01*
G36*
X161290000Y-187770000D02*
G01*
X158890000Y-187770000D01*
X158848000Y-187769000D01*
X158806000Y-187766000D01*
X158765000Y-187760000D01*
X158724000Y-187753000D01*
X158683000Y-187743000D01*
X158643000Y-187731000D01*
X158603000Y-187717000D01*
X158565000Y-187701000D01*
X158527000Y-187683000D01*
X158490000Y-187663000D01*
X158454000Y-187641000D01*
X158420000Y-187617000D01*
X158387000Y-187592000D01*
X158355000Y-187565000D01*
X158324000Y-187536000D01*
X158295000Y-187505000D01*
X158268000Y-187473000D01*
X158243000Y-187440000D01*
X158219000Y-187406000D01*
X158197000Y-187370000D01*
X158177000Y-187333000D01*
X158159000Y-187295000D01*
X158143000Y-187257000D01*
X158129000Y-187217000D01*
X158117000Y-187177000D01*
X158107000Y-187136000D01*
X158100000Y-187095000D01*
X158094000Y-187054000D01*
X158091000Y-187012000D01*
X158090000Y-186970000D01*
X158091000Y-186928000D01*
X158094000Y-186886000D01*
X158100000Y-186845000D01*
X158107000Y-186804000D01*
X158117000Y-186763000D01*
X158129000Y-186723000D01*
X158143000Y-186683000D01*
X158159000Y-186645000D01*
X158177000Y-186607000D01*
X158197000Y-186570000D01*
X158219000Y-186534000D01*
X158243000Y-186500000D01*
X158268000Y-186467000D01*
X158295000Y-186435000D01*
X158324000Y-186404000D01*
X158355000Y-186375000D01*
X158387000Y-186348000D01*
X158420000Y-186323000D01*
X158454000Y-186299000D01*
X158490000Y-186277000D01*
X158527000Y-186257000D01*
X158565000Y-186239000D01*
X158603000Y-186223000D01*
X158643000Y-186209000D01*
X158683000Y-186197000D01*
X158724000Y-186187000D01*
X158765000Y-186180000D01*
X158806000Y-186174000D01*
X158848000Y-186171000D01*
X158890000Y-186170000D01*
X161290000Y-186170000D01*
X161290000Y-187770000D01*
G37*
X161290000Y-185230000D02*
X158890000Y-185230000D01*
X158848000Y-185229000D01*
X158806000Y-185226000D01*
X158765000Y-185220000D01*
X158724000Y-185213000D01*
X158683000Y-185203000D01*
X158643000Y-185191000D01*
X158603000Y-185177000D01*
X158565000Y-185161000D01*
X158527000Y-185143000D01*
X158490000Y-185123000D01*
X158454000Y-185101000D01*
X158420000Y-185077000D01*
X158387000Y-185052000D01*
X158355000Y-185025000D01*
X158324000Y-184996000D01*
X158295000Y-184965000D01*
X158268000Y-184933000D01*
X158243000Y-184900000D01*
X158219000Y-184866000D01*
X158197000Y-184830000D01*
X158177000Y-184793000D01*
X158159000Y-184755000D01*
X158143000Y-184717000D01*
X158129000Y-184677000D01*
X158117000Y-184637000D01*
X158107000Y-184596000D01*
X158100000Y-184555000D01*
X158094000Y-184514000D01*
X158091000Y-184472000D01*
X158090000Y-184430000D01*
X158091000Y-184388000D01*
X158094000Y-184346000D01*
X158100000Y-184305000D01*
X158107000Y-184264000D01*
X158117000Y-184223000D01*
X158129000Y-184183000D01*
X158143000Y-184143000D01*
X158159000Y-184105000D01*
X158177000Y-184067000D01*
X158197000Y-184030000D01*
X158219000Y-183994000D01*
X158243000Y-183960000D01*
X158268000Y-183927000D01*
X158295000Y-183895000D01*
X158324000Y-183864000D01*
X158355000Y-183835000D01*
X158387000Y-183808000D01*
X158420000Y-183783000D01*
X158454000Y-183759000D01*
X158490000Y-183737000D01*
X158527000Y-183717000D01*
X158565000Y-183699000D01*
X158603000Y-183683000D01*
X158643000Y-183669000D01*
X158683000Y-183657000D01*
X158724000Y-183647000D01*
X158765000Y-183640000D01*
X158806000Y-183634000D01*
X158848000Y-183631000D01*
X158890000Y-183630000D01*
X161290000Y-183630000D01*
X161290000Y-185230000D01*
G36*
X161290000Y-185230000D02*
G01*
X158890000Y-185230000D01*
X158848000Y-185229000D01*
X158806000Y-185226000D01*
X158765000Y-185220000D01*
X158724000Y-185213000D01*
X158683000Y-185203000D01*
X158643000Y-185191000D01*
X158603000Y-185177000D01*
X158565000Y-185161000D01*
X158527000Y-185143000D01*
X158490000Y-185123000D01*
X158454000Y-185101000D01*
X158420000Y-185077000D01*
X158387000Y-185052000D01*
X158355000Y-185025000D01*
X158324000Y-184996000D01*
X158295000Y-184965000D01*
X158268000Y-184933000D01*
X158243000Y-184900000D01*
X158219000Y-184866000D01*
X158197000Y-184830000D01*
X158177000Y-184793000D01*
X158159000Y-184755000D01*
X158143000Y-184717000D01*
X158129000Y-184677000D01*
X158117000Y-184637000D01*
X158107000Y-184596000D01*
X158100000Y-184555000D01*
X158094000Y-184514000D01*
X158091000Y-184472000D01*
X158090000Y-184430000D01*
X158091000Y-184388000D01*
X158094000Y-184346000D01*
X158100000Y-184305000D01*
X158107000Y-184264000D01*
X158117000Y-184223000D01*
X158129000Y-184183000D01*
X158143000Y-184143000D01*
X158159000Y-184105000D01*
X158177000Y-184067000D01*
X158197000Y-184030000D01*
X158219000Y-183994000D01*
X158243000Y-183960000D01*
X158268000Y-183927000D01*
X158295000Y-183895000D01*
X158324000Y-183864000D01*
X158355000Y-183835000D01*
X158387000Y-183808000D01*
X158420000Y-183783000D01*
X158454000Y-183759000D01*
X158490000Y-183737000D01*
X158527000Y-183717000D01*
X158565000Y-183699000D01*
X158603000Y-183683000D01*
X158643000Y-183669000D01*
X158683000Y-183657000D01*
X158724000Y-183647000D01*
X158765000Y-183640000D01*
X158806000Y-183634000D01*
X158848000Y-183631000D01*
X158890000Y-183630000D01*
X161290000Y-183630000D01*
X161290000Y-185230000D01*
G37*
X161290000Y-182690000D02*
X158890000Y-182690000D01*
X158848000Y-182689000D01*
X158806000Y-182686000D01*
X158765000Y-182680000D01*
X158724000Y-182673000D01*
X158683000Y-182663000D01*
X158643000Y-182651000D01*
X158603000Y-182637000D01*
X158565000Y-182621000D01*
X158527000Y-182603000D01*
X158490000Y-182583000D01*
X158454000Y-182561000D01*
X158420000Y-182537000D01*
X158387000Y-182512000D01*
X158355000Y-182485000D01*
X158324000Y-182456000D01*
X158295000Y-182425000D01*
X158268000Y-182393000D01*
X158243000Y-182360000D01*
X158219000Y-182326000D01*
X158197000Y-182290000D01*
X158177000Y-182253000D01*
X158159000Y-182215000D01*
X158143000Y-182177000D01*
X158129000Y-182137000D01*
X158117000Y-182097000D01*
X158107000Y-182056000D01*
X158100000Y-182015000D01*
X158094000Y-181974000D01*
X158091000Y-181932000D01*
X158090000Y-181890000D01*
X158091000Y-181848000D01*
X158094000Y-181806000D01*
X158100000Y-181765000D01*
X158107000Y-181724000D01*
X158117000Y-181683000D01*
X158129000Y-181643000D01*
X158143000Y-181603000D01*
X158159000Y-181565000D01*
X158177000Y-181527000D01*
X158197000Y-181490000D01*
X158219000Y-181454000D01*
X158243000Y-181420000D01*
X158268000Y-181387000D01*
X158295000Y-181355000D01*
X158324000Y-181324000D01*
X158355000Y-181295000D01*
X158387000Y-181268000D01*
X158420000Y-181243000D01*
X158454000Y-181219000D01*
X158490000Y-181197000D01*
X158527000Y-181177000D01*
X158565000Y-181159000D01*
X158603000Y-181143000D01*
X158643000Y-181129000D01*
X158683000Y-181117000D01*
X158724000Y-181107000D01*
X158765000Y-181100000D01*
X158806000Y-181094000D01*
X158848000Y-181091000D01*
X158890000Y-181090000D01*
X161290000Y-181090000D01*
X161290000Y-182690000D01*
G36*
X161290000Y-182690000D02*
G01*
X158890000Y-182690000D01*
X158848000Y-182689000D01*
X158806000Y-182686000D01*
X158765000Y-182680000D01*
X158724000Y-182673000D01*
X158683000Y-182663000D01*
X158643000Y-182651000D01*
X158603000Y-182637000D01*
X158565000Y-182621000D01*
X158527000Y-182603000D01*
X158490000Y-182583000D01*
X158454000Y-182561000D01*
X158420000Y-182537000D01*
X158387000Y-182512000D01*
X158355000Y-182485000D01*
X158324000Y-182456000D01*
X158295000Y-182425000D01*
X158268000Y-182393000D01*
X158243000Y-182360000D01*
X158219000Y-182326000D01*
X158197000Y-182290000D01*
X158177000Y-182253000D01*
X158159000Y-182215000D01*
X158143000Y-182177000D01*
X158129000Y-182137000D01*
X158117000Y-182097000D01*
X158107000Y-182056000D01*
X158100000Y-182015000D01*
X158094000Y-181974000D01*
X158091000Y-181932000D01*
X158090000Y-181890000D01*
X158091000Y-181848000D01*
X158094000Y-181806000D01*
X158100000Y-181765000D01*
X158107000Y-181724000D01*
X158117000Y-181683000D01*
X158129000Y-181643000D01*
X158143000Y-181603000D01*
X158159000Y-181565000D01*
X158177000Y-181527000D01*
X158197000Y-181490000D01*
X158219000Y-181454000D01*
X158243000Y-181420000D01*
X158268000Y-181387000D01*
X158295000Y-181355000D01*
X158324000Y-181324000D01*
X158355000Y-181295000D01*
X158387000Y-181268000D01*
X158420000Y-181243000D01*
X158454000Y-181219000D01*
X158490000Y-181197000D01*
X158527000Y-181177000D01*
X158565000Y-181159000D01*
X158603000Y-181143000D01*
X158643000Y-181129000D01*
X158683000Y-181117000D01*
X158724000Y-181107000D01*
X158765000Y-181100000D01*
X158806000Y-181094000D01*
X158848000Y-181091000D01*
X158890000Y-181090000D01*
X161290000Y-181090000D01*
X161290000Y-182690000D01*
G37*
X161290000Y-177610000D02*
X158890000Y-177610000D01*
X158848000Y-177609000D01*
X158806000Y-177606000D01*
X158765000Y-177600000D01*
X158724000Y-177593000D01*
X158683000Y-177583000D01*
X158643000Y-177571000D01*
X158603000Y-177557000D01*
X158565000Y-177541000D01*
X158527000Y-177523000D01*
X158490000Y-177503000D01*
X158454000Y-177481000D01*
X158420000Y-177457000D01*
X158387000Y-177432000D01*
X158355000Y-177405000D01*
X158324000Y-177376000D01*
X158295000Y-177345000D01*
X158268000Y-177313000D01*
X158243000Y-177280000D01*
X158219000Y-177246000D01*
X158197000Y-177210000D01*
X158177000Y-177173000D01*
X158159000Y-177135000D01*
X158143000Y-177097000D01*
X158129000Y-177057000D01*
X158117000Y-177017000D01*
X158107000Y-176976000D01*
X158100000Y-176935000D01*
X158094000Y-176894000D01*
X158091000Y-176852000D01*
X158090000Y-176810000D01*
X158091000Y-176768000D01*
X158094000Y-176726000D01*
X158100000Y-176685000D01*
X158107000Y-176644000D01*
X158117000Y-176603000D01*
X158129000Y-176563000D01*
X158143000Y-176523000D01*
X158159000Y-176485000D01*
X158177000Y-176447000D01*
X158197000Y-176410000D01*
X158219000Y-176374000D01*
X158243000Y-176340000D01*
X158268000Y-176307000D01*
X158295000Y-176275000D01*
X158324000Y-176244000D01*
X158355000Y-176215000D01*
X158387000Y-176188000D01*
X158420000Y-176163000D01*
X158454000Y-176139000D01*
X158490000Y-176117000D01*
X158527000Y-176097000D01*
X158565000Y-176079000D01*
X158603000Y-176063000D01*
X158643000Y-176049000D01*
X158683000Y-176037000D01*
X158724000Y-176027000D01*
X158765000Y-176020000D01*
X158806000Y-176014000D01*
X158848000Y-176011000D01*
X158890000Y-176010000D01*
X161290000Y-176010000D01*
X161290000Y-177610000D01*
G36*
X161290000Y-177610000D02*
G01*
X158890000Y-177610000D01*
X158848000Y-177609000D01*
X158806000Y-177606000D01*
X158765000Y-177600000D01*
X158724000Y-177593000D01*
X158683000Y-177583000D01*
X158643000Y-177571000D01*
X158603000Y-177557000D01*
X158565000Y-177541000D01*
X158527000Y-177523000D01*
X158490000Y-177503000D01*
X158454000Y-177481000D01*
X158420000Y-177457000D01*
X158387000Y-177432000D01*
X158355000Y-177405000D01*
X158324000Y-177376000D01*
X158295000Y-177345000D01*
X158268000Y-177313000D01*
X158243000Y-177280000D01*
X158219000Y-177246000D01*
X158197000Y-177210000D01*
X158177000Y-177173000D01*
X158159000Y-177135000D01*
X158143000Y-177097000D01*
X158129000Y-177057000D01*
X158117000Y-177017000D01*
X158107000Y-176976000D01*
X158100000Y-176935000D01*
X158094000Y-176894000D01*
X158091000Y-176852000D01*
X158090000Y-176810000D01*
X158091000Y-176768000D01*
X158094000Y-176726000D01*
X158100000Y-176685000D01*
X158107000Y-176644000D01*
X158117000Y-176603000D01*
X158129000Y-176563000D01*
X158143000Y-176523000D01*
X158159000Y-176485000D01*
X158177000Y-176447000D01*
X158197000Y-176410000D01*
X158219000Y-176374000D01*
X158243000Y-176340000D01*
X158268000Y-176307000D01*
X158295000Y-176275000D01*
X158324000Y-176244000D01*
X158355000Y-176215000D01*
X158387000Y-176188000D01*
X158420000Y-176163000D01*
X158454000Y-176139000D01*
X158490000Y-176117000D01*
X158527000Y-176097000D01*
X158565000Y-176079000D01*
X158603000Y-176063000D01*
X158643000Y-176049000D01*
X158683000Y-176037000D01*
X158724000Y-176027000D01*
X158765000Y-176020000D01*
X158806000Y-176014000D01*
X158848000Y-176011000D01*
X158890000Y-176010000D01*
X161290000Y-176010000D01*
X161290000Y-177610000D01*
G37*
X161290000Y-175070000D02*
X158890000Y-175070000D01*
X158848000Y-175069000D01*
X158806000Y-175066000D01*
X158765000Y-175060000D01*
X158724000Y-175053000D01*
X158683000Y-175043000D01*
X158643000Y-175031000D01*
X158603000Y-175017000D01*
X158565000Y-175001000D01*
X158527000Y-174983000D01*
X158490000Y-174963000D01*
X158454000Y-174941000D01*
X158420000Y-174917000D01*
X158387000Y-174892000D01*
X158355000Y-174865000D01*
X158324000Y-174836000D01*
X158295000Y-174805000D01*
X158268000Y-174773000D01*
X158243000Y-174740000D01*
X158219000Y-174706000D01*
X158197000Y-174670000D01*
X158177000Y-174633000D01*
X158159000Y-174595000D01*
X158143000Y-174557000D01*
X158129000Y-174517000D01*
X158117000Y-174477000D01*
X158107000Y-174436000D01*
X158100000Y-174395000D01*
X158094000Y-174354000D01*
X158091000Y-174312000D01*
X158090000Y-174270000D01*
X158091000Y-174228000D01*
X158094000Y-174186000D01*
X158100000Y-174145000D01*
X158107000Y-174104000D01*
X158117000Y-174063000D01*
X158129000Y-174023000D01*
X158143000Y-173983000D01*
X158159000Y-173945000D01*
X158177000Y-173907000D01*
X158197000Y-173870000D01*
X158219000Y-173834000D01*
X158243000Y-173800000D01*
X158268000Y-173767000D01*
X158295000Y-173735000D01*
X158324000Y-173704000D01*
X158355000Y-173675000D01*
X158387000Y-173648000D01*
X158420000Y-173623000D01*
X158454000Y-173599000D01*
X158490000Y-173577000D01*
X158527000Y-173557000D01*
X158565000Y-173539000D01*
X158603000Y-173523000D01*
X158643000Y-173509000D01*
X158683000Y-173497000D01*
X158724000Y-173487000D01*
X158765000Y-173480000D01*
X158806000Y-173474000D01*
X158848000Y-173471000D01*
X158890000Y-173470000D01*
X161290000Y-173470000D01*
X161290000Y-175070000D01*
G36*
X161290000Y-175070000D02*
G01*
X158890000Y-175070000D01*
X158848000Y-175069000D01*
X158806000Y-175066000D01*
X158765000Y-175060000D01*
X158724000Y-175053000D01*
X158683000Y-175043000D01*
X158643000Y-175031000D01*
X158603000Y-175017000D01*
X158565000Y-175001000D01*
X158527000Y-174983000D01*
X158490000Y-174963000D01*
X158454000Y-174941000D01*
X158420000Y-174917000D01*
X158387000Y-174892000D01*
X158355000Y-174865000D01*
X158324000Y-174836000D01*
X158295000Y-174805000D01*
X158268000Y-174773000D01*
X158243000Y-174740000D01*
X158219000Y-174706000D01*
X158197000Y-174670000D01*
X158177000Y-174633000D01*
X158159000Y-174595000D01*
X158143000Y-174557000D01*
X158129000Y-174517000D01*
X158117000Y-174477000D01*
X158107000Y-174436000D01*
X158100000Y-174395000D01*
X158094000Y-174354000D01*
X158091000Y-174312000D01*
X158090000Y-174270000D01*
X158091000Y-174228000D01*
X158094000Y-174186000D01*
X158100000Y-174145000D01*
X158107000Y-174104000D01*
X158117000Y-174063000D01*
X158129000Y-174023000D01*
X158143000Y-173983000D01*
X158159000Y-173945000D01*
X158177000Y-173907000D01*
X158197000Y-173870000D01*
X158219000Y-173834000D01*
X158243000Y-173800000D01*
X158268000Y-173767000D01*
X158295000Y-173735000D01*
X158324000Y-173704000D01*
X158355000Y-173675000D01*
X158387000Y-173648000D01*
X158420000Y-173623000D01*
X158454000Y-173599000D01*
X158490000Y-173577000D01*
X158527000Y-173557000D01*
X158565000Y-173539000D01*
X158603000Y-173523000D01*
X158643000Y-173509000D01*
X158683000Y-173497000D01*
X158724000Y-173487000D01*
X158765000Y-173480000D01*
X158806000Y-173474000D01*
X158848000Y-173471000D01*
X158890000Y-173470000D01*
X161290000Y-173470000D01*
X161290000Y-175070000D01*
G37*
X161290000Y-172530000D02*
X158890000Y-172530000D01*
X158848000Y-172529000D01*
X158806000Y-172526000D01*
X158765000Y-172520000D01*
X158724000Y-172513000D01*
X158683000Y-172503000D01*
X158643000Y-172491000D01*
X158603000Y-172477000D01*
X158565000Y-172461000D01*
X158527000Y-172443000D01*
X158490000Y-172423000D01*
X158454000Y-172401000D01*
X158420000Y-172377000D01*
X158387000Y-172352000D01*
X158355000Y-172325000D01*
X158324000Y-172296000D01*
X158295000Y-172265000D01*
X158268000Y-172233000D01*
X158243000Y-172200000D01*
X158219000Y-172166000D01*
X158197000Y-172130000D01*
X158177000Y-172093000D01*
X158159000Y-172055000D01*
X158143000Y-172017000D01*
X158129000Y-171977000D01*
X158117000Y-171937000D01*
X158107000Y-171896000D01*
X158100000Y-171855000D01*
X158094000Y-171814000D01*
X158091000Y-171772000D01*
X158090000Y-171730000D01*
X158091000Y-171688000D01*
X158094000Y-171646000D01*
X158100000Y-171605000D01*
X158107000Y-171564000D01*
X158117000Y-171523000D01*
X158129000Y-171483000D01*
X158143000Y-171443000D01*
X158159000Y-171405000D01*
X158177000Y-171367000D01*
X158197000Y-171330000D01*
X158219000Y-171294000D01*
X158243000Y-171260000D01*
X158268000Y-171227000D01*
X158295000Y-171195000D01*
X158324000Y-171164000D01*
X158355000Y-171135000D01*
X158387000Y-171108000D01*
X158420000Y-171083000D01*
X158454000Y-171059000D01*
X158490000Y-171037000D01*
X158527000Y-171017000D01*
X158565000Y-170999000D01*
X158603000Y-170983000D01*
X158643000Y-170969000D01*
X158683000Y-170957000D01*
X158724000Y-170947000D01*
X158765000Y-170940000D01*
X158806000Y-170934000D01*
X158848000Y-170931000D01*
X158890000Y-170930000D01*
X161290000Y-170930000D01*
X161290000Y-172530000D01*
G36*
X161290000Y-172530000D02*
G01*
X158890000Y-172530000D01*
X158848000Y-172529000D01*
X158806000Y-172526000D01*
X158765000Y-172520000D01*
X158724000Y-172513000D01*
X158683000Y-172503000D01*
X158643000Y-172491000D01*
X158603000Y-172477000D01*
X158565000Y-172461000D01*
X158527000Y-172443000D01*
X158490000Y-172423000D01*
X158454000Y-172401000D01*
X158420000Y-172377000D01*
X158387000Y-172352000D01*
X158355000Y-172325000D01*
X158324000Y-172296000D01*
X158295000Y-172265000D01*
X158268000Y-172233000D01*
X158243000Y-172200000D01*
X158219000Y-172166000D01*
X158197000Y-172130000D01*
X158177000Y-172093000D01*
X158159000Y-172055000D01*
X158143000Y-172017000D01*
X158129000Y-171977000D01*
X158117000Y-171937000D01*
X158107000Y-171896000D01*
X158100000Y-171855000D01*
X158094000Y-171814000D01*
X158091000Y-171772000D01*
X158090000Y-171730000D01*
X158091000Y-171688000D01*
X158094000Y-171646000D01*
X158100000Y-171605000D01*
X158107000Y-171564000D01*
X158117000Y-171523000D01*
X158129000Y-171483000D01*
X158143000Y-171443000D01*
X158159000Y-171405000D01*
X158177000Y-171367000D01*
X158197000Y-171330000D01*
X158219000Y-171294000D01*
X158243000Y-171260000D01*
X158268000Y-171227000D01*
X158295000Y-171195000D01*
X158324000Y-171164000D01*
X158355000Y-171135000D01*
X158387000Y-171108000D01*
X158420000Y-171083000D01*
X158454000Y-171059000D01*
X158490000Y-171037000D01*
X158527000Y-171017000D01*
X158565000Y-170999000D01*
X158603000Y-170983000D01*
X158643000Y-170969000D01*
X158683000Y-170957000D01*
X158724000Y-170947000D01*
X158765000Y-170940000D01*
X158806000Y-170934000D01*
X158848000Y-170931000D01*
X158890000Y-170930000D01*
X161290000Y-170930000D01*
X161290000Y-172530000D01*
G37*
X161290000Y-169990000D02*
X158890000Y-169990000D01*
X158848000Y-169989000D01*
X158806000Y-169986000D01*
X158765000Y-169980000D01*
X158724000Y-169973000D01*
X158683000Y-169963000D01*
X158643000Y-169951000D01*
X158603000Y-169937000D01*
X158565000Y-169921000D01*
X158527000Y-169903000D01*
X158490000Y-169883000D01*
X158454000Y-169861000D01*
X158420000Y-169837000D01*
X158387000Y-169812000D01*
X158355000Y-169785000D01*
X158324000Y-169756000D01*
X158295000Y-169725000D01*
X158268000Y-169693000D01*
X158243000Y-169660000D01*
X158219000Y-169626000D01*
X158197000Y-169590000D01*
X158177000Y-169553000D01*
X158159000Y-169515000D01*
X158143000Y-169477000D01*
X158129000Y-169437000D01*
X158117000Y-169397000D01*
X158107000Y-169356000D01*
X158100000Y-169315000D01*
X158094000Y-169274000D01*
X158091000Y-169232000D01*
X158090000Y-169190000D01*
X158091000Y-169148000D01*
X158094000Y-169106000D01*
X158100000Y-169065000D01*
X158107000Y-169024000D01*
X158117000Y-168983000D01*
X158129000Y-168943000D01*
X158143000Y-168903000D01*
X158159000Y-168865000D01*
X158177000Y-168827000D01*
X158197000Y-168790000D01*
X158219000Y-168754000D01*
X158243000Y-168720000D01*
X158268000Y-168687000D01*
X158295000Y-168655000D01*
X158324000Y-168624000D01*
X158355000Y-168595000D01*
X158387000Y-168568000D01*
X158420000Y-168543000D01*
X158454000Y-168519000D01*
X158490000Y-168497000D01*
X158527000Y-168477000D01*
X158565000Y-168459000D01*
X158603000Y-168443000D01*
X158643000Y-168429000D01*
X158683000Y-168417000D01*
X158724000Y-168407000D01*
X158765000Y-168400000D01*
X158806000Y-168394000D01*
X158848000Y-168391000D01*
X158890000Y-168390000D01*
X161290000Y-168390000D01*
X161290000Y-169990000D01*
G36*
X161290000Y-169990000D02*
G01*
X158890000Y-169990000D01*
X158848000Y-169989000D01*
X158806000Y-169986000D01*
X158765000Y-169980000D01*
X158724000Y-169973000D01*
X158683000Y-169963000D01*
X158643000Y-169951000D01*
X158603000Y-169937000D01*
X158565000Y-169921000D01*
X158527000Y-169903000D01*
X158490000Y-169883000D01*
X158454000Y-169861000D01*
X158420000Y-169837000D01*
X158387000Y-169812000D01*
X158355000Y-169785000D01*
X158324000Y-169756000D01*
X158295000Y-169725000D01*
X158268000Y-169693000D01*
X158243000Y-169660000D01*
X158219000Y-169626000D01*
X158197000Y-169590000D01*
X158177000Y-169553000D01*
X158159000Y-169515000D01*
X158143000Y-169477000D01*
X158129000Y-169437000D01*
X158117000Y-169397000D01*
X158107000Y-169356000D01*
X158100000Y-169315000D01*
X158094000Y-169274000D01*
X158091000Y-169232000D01*
X158090000Y-169190000D01*
X158091000Y-169148000D01*
X158094000Y-169106000D01*
X158100000Y-169065000D01*
X158107000Y-169024000D01*
X158117000Y-168983000D01*
X158129000Y-168943000D01*
X158143000Y-168903000D01*
X158159000Y-168865000D01*
X158177000Y-168827000D01*
X158197000Y-168790000D01*
X158219000Y-168754000D01*
X158243000Y-168720000D01*
X158268000Y-168687000D01*
X158295000Y-168655000D01*
X158324000Y-168624000D01*
X158355000Y-168595000D01*
X158387000Y-168568000D01*
X158420000Y-168543000D01*
X158454000Y-168519000D01*
X158490000Y-168497000D01*
X158527000Y-168477000D01*
X158565000Y-168459000D01*
X158603000Y-168443000D01*
X158643000Y-168429000D01*
X158683000Y-168417000D01*
X158724000Y-168407000D01*
X158765000Y-168400000D01*
X158806000Y-168394000D01*
X158848000Y-168391000D01*
X158890000Y-168390000D01*
X161290000Y-168390000D01*
X161290000Y-169990000D01*
G37*
X161290000Y-164910000D02*
X158890000Y-164910000D01*
X158848000Y-164909000D01*
X158806000Y-164906000D01*
X158765000Y-164900000D01*
X158724000Y-164893000D01*
X158683000Y-164883000D01*
X158643000Y-164871000D01*
X158603000Y-164857000D01*
X158565000Y-164841000D01*
X158527000Y-164823000D01*
X158490000Y-164803000D01*
X158454000Y-164781000D01*
X158420000Y-164757000D01*
X158387000Y-164732000D01*
X158355000Y-164705000D01*
X158324000Y-164676000D01*
X158295000Y-164645000D01*
X158268000Y-164613000D01*
X158243000Y-164580000D01*
X158219000Y-164546000D01*
X158197000Y-164510000D01*
X158177000Y-164473000D01*
X158159000Y-164435000D01*
X158143000Y-164397000D01*
X158129000Y-164357000D01*
X158117000Y-164317000D01*
X158107000Y-164276000D01*
X158100000Y-164235000D01*
X158094000Y-164194000D01*
X158091000Y-164152000D01*
X158090000Y-164110000D01*
X158091000Y-164068000D01*
X158094000Y-164026000D01*
X158100000Y-163985000D01*
X158107000Y-163944000D01*
X158117000Y-163903000D01*
X158129000Y-163863000D01*
X158143000Y-163823000D01*
X158159000Y-163785000D01*
X158177000Y-163747000D01*
X158197000Y-163710000D01*
X158219000Y-163674000D01*
X158243000Y-163640000D01*
X158268000Y-163607000D01*
X158295000Y-163575000D01*
X158324000Y-163544000D01*
X158355000Y-163515000D01*
X158387000Y-163488000D01*
X158420000Y-163463000D01*
X158454000Y-163439000D01*
X158490000Y-163417000D01*
X158527000Y-163397000D01*
X158565000Y-163379000D01*
X158603000Y-163363000D01*
X158643000Y-163349000D01*
X158683000Y-163337000D01*
X158724000Y-163327000D01*
X158765000Y-163320000D01*
X158806000Y-163314000D01*
X158848000Y-163311000D01*
X158890000Y-163310000D01*
X161290000Y-163310000D01*
X161290000Y-164910000D01*
G36*
X161290000Y-164910000D02*
G01*
X158890000Y-164910000D01*
X158848000Y-164909000D01*
X158806000Y-164906000D01*
X158765000Y-164900000D01*
X158724000Y-164893000D01*
X158683000Y-164883000D01*
X158643000Y-164871000D01*
X158603000Y-164857000D01*
X158565000Y-164841000D01*
X158527000Y-164823000D01*
X158490000Y-164803000D01*
X158454000Y-164781000D01*
X158420000Y-164757000D01*
X158387000Y-164732000D01*
X158355000Y-164705000D01*
X158324000Y-164676000D01*
X158295000Y-164645000D01*
X158268000Y-164613000D01*
X158243000Y-164580000D01*
X158219000Y-164546000D01*
X158197000Y-164510000D01*
X158177000Y-164473000D01*
X158159000Y-164435000D01*
X158143000Y-164397000D01*
X158129000Y-164357000D01*
X158117000Y-164317000D01*
X158107000Y-164276000D01*
X158100000Y-164235000D01*
X158094000Y-164194000D01*
X158091000Y-164152000D01*
X158090000Y-164110000D01*
X158091000Y-164068000D01*
X158094000Y-164026000D01*
X158100000Y-163985000D01*
X158107000Y-163944000D01*
X158117000Y-163903000D01*
X158129000Y-163863000D01*
X158143000Y-163823000D01*
X158159000Y-163785000D01*
X158177000Y-163747000D01*
X158197000Y-163710000D01*
X158219000Y-163674000D01*
X158243000Y-163640000D01*
X158268000Y-163607000D01*
X158295000Y-163575000D01*
X158324000Y-163544000D01*
X158355000Y-163515000D01*
X158387000Y-163488000D01*
X158420000Y-163463000D01*
X158454000Y-163439000D01*
X158490000Y-163417000D01*
X158527000Y-163397000D01*
X158565000Y-163379000D01*
X158603000Y-163363000D01*
X158643000Y-163349000D01*
X158683000Y-163337000D01*
X158724000Y-163327000D01*
X158765000Y-163320000D01*
X158806000Y-163314000D01*
X158848000Y-163311000D01*
X158890000Y-163310000D01*
X161290000Y-163310000D01*
X161290000Y-164910000D01*
G37*
X161290000Y-162370000D02*
X158890000Y-162370000D01*
X158848000Y-162369000D01*
X158806000Y-162366000D01*
X158765000Y-162360000D01*
X158724000Y-162353000D01*
X158683000Y-162343000D01*
X158643000Y-162331000D01*
X158603000Y-162317000D01*
X158565000Y-162301000D01*
X158527000Y-162283000D01*
X158490000Y-162263000D01*
X158454000Y-162241000D01*
X158420000Y-162217000D01*
X158387000Y-162192000D01*
X158355000Y-162165000D01*
X158324000Y-162136000D01*
X158295000Y-162105000D01*
X158268000Y-162073000D01*
X158243000Y-162040000D01*
X158219000Y-162006000D01*
X158197000Y-161970000D01*
X158177000Y-161933000D01*
X158159000Y-161895000D01*
X158143000Y-161857000D01*
X158129000Y-161817000D01*
X158117000Y-161777000D01*
X158107000Y-161736000D01*
X158100000Y-161695000D01*
X158094000Y-161654000D01*
X158091000Y-161612000D01*
X158090000Y-161570000D01*
X158091000Y-161528000D01*
X158094000Y-161486000D01*
X158100000Y-161445000D01*
X158107000Y-161404000D01*
X158117000Y-161363000D01*
X158129000Y-161323000D01*
X158143000Y-161283000D01*
X158159000Y-161245000D01*
X158177000Y-161207000D01*
X158197000Y-161170000D01*
X158219000Y-161134000D01*
X158243000Y-161100000D01*
X158268000Y-161067000D01*
X158295000Y-161035000D01*
X158324000Y-161004000D01*
X158355000Y-160975000D01*
X158387000Y-160948000D01*
X158420000Y-160923000D01*
X158454000Y-160899000D01*
X158490000Y-160877000D01*
X158527000Y-160857000D01*
X158565000Y-160839000D01*
X158603000Y-160823000D01*
X158643000Y-160809000D01*
X158683000Y-160797000D01*
X158724000Y-160787000D01*
X158765000Y-160780000D01*
X158806000Y-160774000D01*
X158848000Y-160771000D01*
X158890000Y-160770000D01*
X161290000Y-160770000D01*
X161290000Y-162370000D01*
G36*
X161290000Y-162370000D02*
G01*
X158890000Y-162370000D01*
X158848000Y-162369000D01*
X158806000Y-162366000D01*
X158765000Y-162360000D01*
X158724000Y-162353000D01*
X158683000Y-162343000D01*
X158643000Y-162331000D01*
X158603000Y-162317000D01*
X158565000Y-162301000D01*
X158527000Y-162283000D01*
X158490000Y-162263000D01*
X158454000Y-162241000D01*
X158420000Y-162217000D01*
X158387000Y-162192000D01*
X158355000Y-162165000D01*
X158324000Y-162136000D01*
X158295000Y-162105000D01*
X158268000Y-162073000D01*
X158243000Y-162040000D01*
X158219000Y-162006000D01*
X158197000Y-161970000D01*
X158177000Y-161933000D01*
X158159000Y-161895000D01*
X158143000Y-161857000D01*
X158129000Y-161817000D01*
X158117000Y-161777000D01*
X158107000Y-161736000D01*
X158100000Y-161695000D01*
X158094000Y-161654000D01*
X158091000Y-161612000D01*
X158090000Y-161570000D01*
X158091000Y-161528000D01*
X158094000Y-161486000D01*
X158100000Y-161445000D01*
X158107000Y-161404000D01*
X158117000Y-161363000D01*
X158129000Y-161323000D01*
X158143000Y-161283000D01*
X158159000Y-161245000D01*
X158177000Y-161207000D01*
X158197000Y-161170000D01*
X158219000Y-161134000D01*
X158243000Y-161100000D01*
X158268000Y-161067000D01*
X158295000Y-161035000D01*
X158324000Y-161004000D01*
X158355000Y-160975000D01*
X158387000Y-160948000D01*
X158420000Y-160923000D01*
X158454000Y-160899000D01*
X158490000Y-160877000D01*
X158527000Y-160857000D01*
X158565000Y-160839000D01*
X158603000Y-160823000D01*
X158643000Y-160809000D01*
X158683000Y-160797000D01*
X158724000Y-160787000D01*
X158765000Y-160780000D01*
X158806000Y-160774000D01*
X158848000Y-160771000D01*
X158890000Y-160770000D01*
X161290000Y-160770000D01*
X161290000Y-162370000D01*
G37*
X161290000Y-159830000D02*
X158890000Y-159830000D01*
X158848000Y-159829000D01*
X158806000Y-159826000D01*
X158765000Y-159820000D01*
X158724000Y-159813000D01*
X158683000Y-159803000D01*
X158643000Y-159791000D01*
X158603000Y-159777000D01*
X158565000Y-159761000D01*
X158527000Y-159743000D01*
X158490000Y-159723000D01*
X158454000Y-159701000D01*
X158420000Y-159677000D01*
X158387000Y-159652000D01*
X158355000Y-159625000D01*
X158324000Y-159596000D01*
X158295000Y-159565000D01*
X158268000Y-159533000D01*
X158243000Y-159500000D01*
X158219000Y-159466000D01*
X158197000Y-159430000D01*
X158177000Y-159393000D01*
X158159000Y-159355000D01*
X158143000Y-159317000D01*
X158129000Y-159277000D01*
X158117000Y-159237000D01*
X158107000Y-159196000D01*
X158100000Y-159155000D01*
X158094000Y-159114000D01*
X158091000Y-159072000D01*
X158090000Y-159030000D01*
X158091000Y-158988000D01*
X158094000Y-158946000D01*
X158100000Y-158905000D01*
X158107000Y-158864000D01*
X158117000Y-158823000D01*
X158129000Y-158783000D01*
X158143000Y-158743000D01*
X158159000Y-158705000D01*
X158177000Y-158667000D01*
X158197000Y-158630000D01*
X158219000Y-158594000D01*
X158243000Y-158560000D01*
X158268000Y-158527000D01*
X158295000Y-158495000D01*
X158324000Y-158464000D01*
X158355000Y-158435000D01*
X158387000Y-158408000D01*
X158420000Y-158383000D01*
X158454000Y-158359000D01*
X158490000Y-158337000D01*
X158527000Y-158317000D01*
X158565000Y-158299000D01*
X158603000Y-158283000D01*
X158643000Y-158269000D01*
X158683000Y-158257000D01*
X158724000Y-158247000D01*
X158765000Y-158240000D01*
X158806000Y-158234000D01*
X158848000Y-158231000D01*
X158890000Y-158230000D01*
X161290000Y-158230000D01*
X161290000Y-159830000D01*
G36*
X161290000Y-159830000D02*
G01*
X158890000Y-159830000D01*
X158848000Y-159829000D01*
X158806000Y-159826000D01*
X158765000Y-159820000D01*
X158724000Y-159813000D01*
X158683000Y-159803000D01*
X158643000Y-159791000D01*
X158603000Y-159777000D01*
X158565000Y-159761000D01*
X158527000Y-159743000D01*
X158490000Y-159723000D01*
X158454000Y-159701000D01*
X158420000Y-159677000D01*
X158387000Y-159652000D01*
X158355000Y-159625000D01*
X158324000Y-159596000D01*
X158295000Y-159565000D01*
X158268000Y-159533000D01*
X158243000Y-159500000D01*
X158219000Y-159466000D01*
X158197000Y-159430000D01*
X158177000Y-159393000D01*
X158159000Y-159355000D01*
X158143000Y-159317000D01*
X158129000Y-159277000D01*
X158117000Y-159237000D01*
X158107000Y-159196000D01*
X158100000Y-159155000D01*
X158094000Y-159114000D01*
X158091000Y-159072000D01*
X158090000Y-159030000D01*
X158091000Y-158988000D01*
X158094000Y-158946000D01*
X158100000Y-158905000D01*
X158107000Y-158864000D01*
X158117000Y-158823000D01*
X158129000Y-158783000D01*
X158143000Y-158743000D01*
X158159000Y-158705000D01*
X158177000Y-158667000D01*
X158197000Y-158630000D01*
X158219000Y-158594000D01*
X158243000Y-158560000D01*
X158268000Y-158527000D01*
X158295000Y-158495000D01*
X158324000Y-158464000D01*
X158355000Y-158435000D01*
X158387000Y-158408000D01*
X158420000Y-158383000D01*
X158454000Y-158359000D01*
X158490000Y-158337000D01*
X158527000Y-158317000D01*
X158565000Y-158299000D01*
X158603000Y-158283000D01*
X158643000Y-158269000D01*
X158683000Y-158257000D01*
X158724000Y-158247000D01*
X158765000Y-158240000D01*
X158806000Y-158234000D01*
X158848000Y-158231000D01*
X158890000Y-158230000D01*
X161290000Y-158230000D01*
X161290000Y-159830000D01*
G37*
X161290000Y-157290000D02*
X158890000Y-157290000D01*
X158848000Y-157289000D01*
X158806000Y-157286000D01*
X158765000Y-157280000D01*
X158724000Y-157273000D01*
X158683000Y-157263000D01*
X158643000Y-157251000D01*
X158603000Y-157237000D01*
X158565000Y-157221000D01*
X158527000Y-157203000D01*
X158490000Y-157183000D01*
X158454000Y-157161000D01*
X158420000Y-157137000D01*
X158387000Y-157112000D01*
X158355000Y-157085000D01*
X158324000Y-157056000D01*
X158295000Y-157025000D01*
X158268000Y-156993000D01*
X158243000Y-156960000D01*
X158219000Y-156926000D01*
X158197000Y-156890000D01*
X158177000Y-156853000D01*
X158159000Y-156815000D01*
X158143000Y-156777000D01*
X158129000Y-156737000D01*
X158117000Y-156697000D01*
X158107000Y-156656000D01*
X158100000Y-156615000D01*
X158094000Y-156574000D01*
X158091000Y-156532000D01*
X158090000Y-156490000D01*
X158091000Y-156448000D01*
X158094000Y-156406000D01*
X158100000Y-156365000D01*
X158107000Y-156324000D01*
X158117000Y-156283000D01*
X158129000Y-156243000D01*
X158143000Y-156203000D01*
X158159000Y-156165000D01*
X158177000Y-156127000D01*
X158197000Y-156090000D01*
X158219000Y-156054000D01*
X158243000Y-156020000D01*
X158268000Y-155987000D01*
X158295000Y-155955000D01*
X158324000Y-155924000D01*
X158355000Y-155895000D01*
X158387000Y-155868000D01*
X158420000Y-155843000D01*
X158454000Y-155819000D01*
X158490000Y-155797000D01*
X158527000Y-155777000D01*
X158565000Y-155759000D01*
X158603000Y-155743000D01*
X158643000Y-155729000D01*
X158683000Y-155717000D01*
X158724000Y-155707000D01*
X158765000Y-155700000D01*
X158806000Y-155694000D01*
X158848000Y-155691000D01*
X158890000Y-155690000D01*
X161290000Y-155690000D01*
X161290000Y-157290000D01*
G36*
X161290000Y-157290000D02*
G01*
X158890000Y-157290000D01*
X158848000Y-157289000D01*
X158806000Y-157286000D01*
X158765000Y-157280000D01*
X158724000Y-157273000D01*
X158683000Y-157263000D01*
X158643000Y-157251000D01*
X158603000Y-157237000D01*
X158565000Y-157221000D01*
X158527000Y-157203000D01*
X158490000Y-157183000D01*
X158454000Y-157161000D01*
X158420000Y-157137000D01*
X158387000Y-157112000D01*
X158355000Y-157085000D01*
X158324000Y-157056000D01*
X158295000Y-157025000D01*
X158268000Y-156993000D01*
X158243000Y-156960000D01*
X158219000Y-156926000D01*
X158197000Y-156890000D01*
X158177000Y-156853000D01*
X158159000Y-156815000D01*
X158143000Y-156777000D01*
X158129000Y-156737000D01*
X158117000Y-156697000D01*
X158107000Y-156656000D01*
X158100000Y-156615000D01*
X158094000Y-156574000D01*
X158091000Y-156532000D01*
X158090000Y-156490000D01*
X158091000Y-156448000D01*
X158094000Y-156406000D01*
X158100000Y-156365000D01*
X158107000Y-156324000D01*
X158117000Y-156283000D01*
X158129000Y-156243000D01*
X158143000Y-156203000D01*
X158159000Y-156165000D01*
X158177000Y-156127000D01*
X158197000Y-156090000D01*
X158219000Y-156054000D01*
X158243000Y-156020000D01*
X158268000Y-155987000D01*
X158295000Y-155955000D01*
X158324000Y-155924000D01*
X158355000Y-155895000D01*
X158387000Y-155868000D01*
X158420000Y-155843000D01*
X158454000Y-155819000D01*
X158490000Y-155797000D01*
X158527000Y-155777000D01*
X158565000Y-155759000D01*
X158603000Y-155743000D01*
X158643000Y-155729000D01*
X158683000Y-155717000D01*
X158724000Y-155707000D01*
X158765000Y-155700000D01*
X158806000Y-155694000D01*
X158848000Y-155691000D01*
X158890000Y-155690000D01*
X161290000Y-155690000D01*
X161290000Y-157290000D01*
G37*
X161290000Y-152210000D02*
X158890000Y-152210000D01*
X158848000Y-152209000D01*
X158806000Y-152206000D01*
X158765000Y-152200000D01*
X158724000Y-152193000D01*
X158683000Y-152183000D01*
X158643000Y-152171000D01*
X158603000Y-152157000D01*
X158565000Y-152141000D01*
X158527000Y-152123000D01*
X158490000Y-152103000D01*
X158454000Y-152081000D01*
X158420000Y-152057000D01*
X158387000Y-152032000D01*
X158355000Y-152005000D01*
X158324000Y-151976000D01*
X158295000Y-151945000D01*
X158268000Y-151913000D01*
X158243000Y-151880000D01*
X158219000Y-151846000D01*
X158197000Y-151810000D01*
X158177000Y-151773000D01*
X158159000Y-151735000D01*
X158143000Y-151697000D01*
X158129000Y-151657000D01*
X158117000Y-151617000D01*
X158107000Y-151576000D01*
X158100000Y-151535000D01*
X158094000Y-151494000D01*
X158091000Y-151452000D01*
X158090000Y-151410000D01*
X158091000Y-151368000D01*
X158094000Y-151326000D01*
X158100000Y-151285000D01*
X158107000Y-151244000D01*
X158117000Y-151203000D01*
X158129000Y-151163000D01*
X158143000Y-151123000D01*
X158159000Y-151085000D01*
X158177000Y-151047000D01*
X158197000Y-151010000D01*
X158219000Y-150974000D01*
X158243000Y-150940000D01*
X158268000Y-150907000D01*
X158295000Y-150875000D01*
X158324000Y-150844000D01*
X158355000Y-150815000D01*
X158387000Y-150788000D01*
X158420000Y-150763000D01*
X158454000Y-150739000D01*
X158490000Y-150717000D01*
X158527000Y-150697000D01*
X158565000Y-150679000D01*
X158603000Y-150663000D01*
X158643000Y-150649000D01*
X158683000Y-150637000D01*
X158724000Y-150627000D01*
X158765000Y-150620000D01*
X158806000Y-150614000D01*
X158848000Y-150611000D01*
X158890000Y-150610000D01*
X161290000Y-150610000D01*
X161290000Y-152210000D01*
G36*
X161290000Y-152210000D02*
G01*
X158890000Y-152210000D01*
X158848000Y-152209000D01*
X158806000Y-152206000D01*
X158765000Y-152200000D01*
X158724000Y-152193000D01*
X158683000Y-152183000D01*
X158643000Y-152171000D01*
X158603000Y-152157000D01*
X158565000Y-152141000D01*
X158527000Y-152123000D01*
X158490000Y-152103000D01*
X158454000Y-152081000D01*
X158420000Y-152057000D01*
X158387000Y-152032000D01*
X158355000Y-152005000D01*
X158324000Y-151976000D01*
X158295000Y-151945000D01*
X158268000Y-151913000D01*
X158243000Y-151880000D01*
X158219000Y-151846000D01*
X158197000Y-151810000D01*
X158177000Y-151773000D01*
X158159000Y-151735000D01*
X158143000Y-151697000D01*
X158129000Y-151657000D01*
X158117000Y-151617000D01*
X158107000Y-151576000D01*
X158100000Y-151535000D01*
X158094000Y-151494000D01*
X158091000Y-151452000D01*
X158090000Y-151410000D01*
X158091000Y-151368000D01*
X158094000Y-151326000D01*
X158100000Y-151285000D01*
X158107000Y-151244000D01*
X158117000Y-151203000D01*
X158129000Y-151163000D01*
X158143000Y-151123000D01*
X158159000Y-151085000D01*
X158177000Y-151047000D01*
X158197000Y-151010000D01*
X158219000Y-150974000D01*
X158243000Y-150940000D01*
X158268000Y-150907000D01*
X158295000Y-150875000D01*
X158324000Y-150844000D01*
X158355000Y-150815000D01*
X158387000Y-150788000D01*
X158420000Y-150763000D01*
X158454000Y-150739000D01*
X158490000Y-150717000D01*
X158527000Y-150697000D01*
X158565000Y-150679000D01*
X158603000Y-150663000D01*
X158643000Y-150649000D01*
X158683000Y-150637000D01*
X158724000Y-150627000D01*
X158765000Y-150620000D01*
X158806000Y-150614000D01*
X158848000Y-150611000D01*
X158890000Y-150610000D01*
X161290000Y-150610000D01*
X161290000Y-152210000D01*
G37*
X161290000Y-149670000D02*
X158890000Y-149670000D01*
X158848000Y-149669000D01*
X158806000Y-149666000D01*
X158765000Y-149660000D01*
X158724000Y-149653000D01*
X158683000Y-149643000D01*
X158643000Y-149631000D01*
X158603000Y-149617000D01*
X158565000Y-149601000D01*
X158527000Y-149583000D01*
X158490000Y-149563000D01*
X158454000Y-149541000D01*
X158420000Y-149517000D01*
X158387000Y-149492000D01*
X158355000Y-149465000D01*
X158324000Y-149436000D01*
X158295000Y-149405000D01*
X158268000Y-149373000D01*
X158243000Y-149340000D01*
X158219000Y-149306000D01*
X158197000Y-149270000D01*
X158177000Y-149233000D01*
X158159000Y-149195000D01*
X158143000Y-149157000D01*
X158129000Y-149117000D01*
X158117000Y-149077000D01*
X158107000Y-149036000D01*
X158100000Y-148995000D01*
X158094000Y-148954000D01*
X158091000Y-148912000D01*
X158090000Y-148870000D01*
X158091000Y-148828000D01*
X158094000Y-148786000D01*
X158100000Y-148745000D01*
X158107000Y-148704000D01*
X158117000Y-148663000D01*
X158129000Y-148623000D01*
X158143000Y-148583000D01*
X158159000Y-148545000D01*
X158177000Y-148507000D01*
X158197000Y-148470000D01*
X158219000Y-148434000D01*
X158243000Y-148400000D01*
X158268000Y-148367000D01*
X158295000Y-148335000D01*
X158324000Y-148304000D01*
X158355000Y-148275000D01*
X158387000Y-148248000D01*
X158420000Y-148223000D01*
X158454000Y-148199000D01*
X158490000Y-148177000D01*
X158527000Y-148157000D01*
X158565000Y-148139000D01*
X158603000Y-148123000D01*
X158643000Y-148109000D01*
X158683000Y-148097000D01*
X158724000Y-148087000D01*
X158765000Y-148080000D01*
X158806000Y-148074000D01*
X158848000Y-148071000D01*
X158890000Y-148070000D01*
X161290000Y-148070000D01*
X161290000Y-149670000D01*
G36*
X161290000Y-149670000D02*
G01*
X158890000Y-149670000D01*
X158848000Y-149669000D01*
X158806000Y-149666000D01*
X158765000Y-149660000D01*
X158724000Y-149653000D01*
X158683000Y-149643000D01*
X158643000Y-149631000D01*
X158603000Y-149617000D01*
X158565000Y-149601000D01*
X158527000Y-149583000D01*
X158490000Y-149563000D01*
X158454000Y-149541000D01*
X158420000Y-149517000D01*
X158387000Y-149492000D01*
X158355000Y-149465000D01*
X158324000Y-149436000D01*
X158295000Y-149405000D01*
X158268000Y-149373000D01*
X158243000Y-149340000D01*
X158219000Y-149306000D01*
X158197000Y-149270000D01*
X158177000Y-149233000D01*
X158159000Y-149195000D01*
X158143000Y-149157000D01*
X158129000Y-149117000D01*
X158117000Y-149077000D01*
X158107000Y-149036000D01*
X158100000Y-148995000D01*
X158094000Y-148954000D01*
X158091000Y-148912000D01*
X158090000Y-148870000D01*
X158091000Y-148828000D01*
X158094000Y-148786000D01*
X158100000Y-148745000D01*
X158107000Y-148704000D01*
X158117000Y-148663000D01*
X158129000Y-148623000D01*
X158143000Y-148583000D01*
X158159000Y-148545000D01*
X158177000Y-148507000D01*
X158197000Y-148470000D01*
X158219000Y-148434000D01*
X158243000Y-148400000D01*
X158268000Y-148367000D01*
X158295000Y-148335000D01*
X158324000Y-148304000D01*
X158355000Y-148275000D01*
X158387000Y-148248000D01*
X158420000Y-148223000D01*
X158454000Y-148199000D01*
X158490000Y-148177000D01*
X158527000Y-148157000D01*
X158565000Y-148139000D01*
X158603000Y-148123000D01*
X158643000Y-148109000D01*
X158683000Y-148097000D01*
X158724000Y-148087000D01*
X158765000Y-148080000D01*
X158806000Y-148074000D01*
X158848000Y-148071000D01*
X158890000Y-148070000D01*
X161290000Y-148070000D01*
X161290000Y-149670000D01*
G37*
X153340000Y-149100000D02*
X153339000Y-149142000D01*
X153336000Y-149184000D01*
X153330000Y-149225000D01*
X153323000Y-149266000D01*
X153313000Y-149307000D01*
X153301000Y-149347000D01*
X153287000Y-149387000D01*
X153271000Y-149425000D01*
X153253000Y-149463000D01*
X153233000Y-149500000D01*
X153211000Y-149536000D01*
X153187000Y-149570000D01*
X153162000Y-149603000D01*
X153135000Y-149635000D01*
X153106000Y-149666000D01*
X153075000Y-149695000D01*
X153043000Y-149722000D01*
X153010000Y-149747000D01*
X152976000Y-149771000D01*
X152940000Y-149793000D01*
X152903000Y-149813000D01*
X152865000Y-149831000D01*
X152827000Y-149847000D01*
X152787000Y-149861000D01*
X152747000Y-149873000D01*
X152706000Y-149883000D01*
X152665000Y-149890000D01*
X152624000Y-149896000D01*
X152582000Y-149899000D01*
X152540000Y-149900000D01*
X152498000Y-149899000D01*
X152456000Y-149896000D01*
X152415000Y-149890000D01*
X152374000Y-149883000D01*
X152333000Y-149873000D01*
X152293000Y-149861000D01*
X152253000Y-149847000D01*
X152215000Y-149831000D01*
X152177000Y-149813000D01*
X152140000Y-149793000D01*
X152104000Y-149771000D01*
X152070000Y-149747000D01*
X152037000Y-149722000D01*
X152005000Y-149695000D01*
X151974000Y-149666000D01*
X151945000Y-149635000D01*
X151918000Y-149603000D01*
X151893000Y-149570000D01*
X151869000Y-149536000D01*
X151847000Y-149500000D01*
X151827000Y-149463000D01*
X151809000Y-149425000D01*
X151793000Y-149387000D01*
X151779000Y-149347000D01*
X151767000Y-149307000D01*
X151757000Y-149266000D01*
X151750000Y-149225000D01*
X151744000Y-149184000D01*
X151741000Y-149142000D01*
X151740000Y-149100000D01*
X151740000Y-146700000D01*
X153340000Y-146700000D01*
X153340000Y-149100000D01*
G36*
X153340000Y-149100000D02*
G01*
X153339000Y-149142000D01*
X153336000Y-149184000D01*
X153330000Y-149225000D01*
X153323000Y-149266000D01*
X153313000Y-149307000D01*
X153301000Y-149347000D01*
X153287000Y-149387000D01*
X153271000Y-149425000D01*
X153253000Y-149463000D01*
X153233000Y-149500000D01*
X153211000Y-149536000D01*
X153187000Y-149570000D01*
X153162000Y-149603000D01*
X153135000Y-149635000D01*
X153106000Y-149666000D01*
X153075000Y-149695000D01*
X153043000Y-149722000D01*
X153010000Y-149747000D01*
X152976000Y-149771000D01*
X152940000Y-149793000D01*
X152903000Y-149813000D01*
X152865000Y-149831000D01*
X152827000Y-149847000D01*
X152787000Y-149861000D01*
X152747000Y-149873000D01*
X152706000Y-149883000D01*
X152665000Y-149890000D01*
X152624000Y-149896000D01*
X152582000Y-149899000D01*
X152540000Y-149900000D01*
X152498000Y-149899000D01*
X152456000Y-149896000D01*
X152415000Y-149890000D01*
X152374000Y-149883000D01*
X152333000Y-149873000D01*
X152293000Y-149861000D01*
X152253000Y-149847000D01*
X152215000Y-149831000D01*
X152177000Y-149813000D01*
X152140000Y-149793000D01*
X152104000Y-149771000D01*
X152070000Y-149747000D01*
X152037000Y-149722000D01*
X152005000Y-149695000D01*
X151974000Y-149666000D01*
X151945000Y-149635000D01*
X151918000Y-149603000D01*
X151893000Y-149570000D01*
X151869000Y-149536000D01*
X151847000Y-149500000D01*
X151827000Y-149463000D01*
X151809000Y-149425000D01*
X151793000Y-149387000D01*
X151779000Y-149347000D01*
X151767000Y-149307000D01*
X151757000Y-149266000D01*
X151750000Y-149225000D01*
X151744000Y-149184000D01*
X151741000Y-149142000D01*
X151740000Y-149100000D01*
X151740000Y-146700000D01*
X153340000Y-146700000D01*
X153340000Y-149100000D01*
G37*
X148260000Y-149100000D02*
X148259000Y-149142000D01*
X148256000Y-149184000D01*
X148250000Y-149225000D01*
X148243000Y-149266000D01*
X148233000Y-149307000D01*
X148221000Y-149347000D01*
X148207000Y-149387000D01*
X148191000Y-149425000D01*
X148173000Y-149463000D01*
X148153000Y-149500000D01*
X148131000Y-149536000D01*
X148107000Y-149570000D01*
X148082000Y-149603000D01*
X148055000Y-149635000D01*
X148026000Y-149666000D01*
X147995000Y-149695000D01*
X147963000Y-149722000D01*
X147930000Y-149747000D01*
X147896000Y-149771000D01*
X147860000Y-149793000D01*
X147823000Y-149813000D01*
X147785000Y-149831000D01*
X147747000Y-149847000D01*
X147707000Y-149861000D01*
X147667000Y-149873000D01*
X147626000Y-149883000D01*
X147585000Y-149890000D01*
X147544000Y-149896000D01*
X147502000Y-149899000D01*
X147460000Y-149900000D01*
X147418000Y-149899000D01*
X147376000Y-149896000D01*
X147335000Y-149890000D01*
X147294000Y-149883000D01*
X147253000Y-149873000D01*
X147213000Y-149861000D01*
X147173000Y-149847000D01*
X147135000Y-149831000D01*
X147097000Y-149813000D01*
X147060000Y-149793000D01*
X147024000Y-149771000D01*
X146990000Y-149747000D01*
X146957000Y-149722000D01*
X146925000Y-149695000D01*
X146894000Y-149666000D01*
X146865000Y-149635000D01*
X146838000Y-149603000D01*
X146813000Y-149570000D01*
X146789000Y-149536000D01*
X146767000Y-149500000D01*
X146747000Y-149463000D01*
X146729000Y-149425000D01*
X146713000Y-149387000D01*
X146699000Y-149347000D01*
X146687000Y-149307000D01*
X146677000Y-149266000D01*
X146670000Y-149225000D01*
X146664000Y-149184000D01*
X146661000Y-149142000D01*
X146660000Y-149100000D01*
X146660000Y-146700000D01*
X148260000Y-146700000D01*
X148260000Y-149100000D01*
G36*
X148260000Y-149100000D02*
G01*
X148259000Y-149142000D01*
X148256000Y-149184000D01*
X148250000Y-149225000D01*
X148243000Y-149266000D01*
X148233000Y-149307000D01*
X148221000Y-149347000D01*
X148207000Y-149387000D01*
X148191000Y-149425000D01*
X148173000Y-149463000D01*
X148153000Y-149500000D01*
X148131000Y-149536000D01*
X148107000Y-149570000D01*
X148082000Y-149603000D01*
X148055000Y-149635000D01*
X148026000Y-149666000D01*
X147995000Y-149695000D01*
X147963000Y-149722000D01*
X147930000Y-149747000D01*
X147896000Y-149771000D01*
X147860000Y-149793000D01*
X147823000Y-149813000D01*
X147785000Y-149831000D01*
X147747000Y-149847000D01*
X147707000Y-149861000D01*
X147667000Y-149873000D01*
X147626000Y-149883000D01*
X147585000Y-149890000D01*
X147544000Y-149896000D01*
X147502000Y-149899000D01*
X147460000Y-149900000D01*
X147418000Y-149899000D01*
X147376000Y-149896000D01*
X147335000Y-149890000D01*
X147294000Y-149883000D01*
X147253000Y-149873000D01*
X147213000Y-149861000D01*
X147173000Y-149847000D01*
X147135000Y-149831000D01*
X147097000Y-149813000D01*
X147060000Y-149793000D01*
X147024000Y-149771000D01*
X146990000Y-149747000D01*
X146957000Y-149722000D01*
X146925000Y-149695000D01*
X146894000Y-149666000D01*
X146865000Y-149635000D01*
X146838000Y-149603000D01*
X146813000Y-149570000D01*
X146789000Y-149536000D01*
X146767000Y-149500000D01*
X146747000Y-149463000D01*
X146729000Y-149425000D01*
X146713000Y-149387000D01*
X146699000Y-149347000D01*
X146687000Y-149307000D01*
X146677000Y-149266000D01*
X146670000Y-149225000D01*
X146664000Y-149184000D01*
X146661000Y-149142000D01*
X146660000Y-149100000D01*
X146660000Y-146700000D01*
X148260000Y-146700000D01*
X148260000Y-149100000D01*
G37*
X141152000Y-196331000D02*
X141194000Y-196334000D01*
X141235000Y-196340000D01*
X141276000Y-196347000D01*
X141317000Y-196357000D01*
X141357000Y-196369000D01*
X141397000Y-196383000D01*
X141435000Y-196399000D01*
X141473000Y-196417000D01*
X141510000Y-196437000D01*
X141546000Y-196459000D01*
X141580000Y-196483000D01*
X141613000Y-196508000D01*
X141645000Y-196535000D01*
X141676000Y-196564000D01*
X141705000Y-196595000D01*
X141732000Y-196627000D01*
X141757000Y-196660000D01*
X141781000Y-196694000D01*
X141803000Y-196730000D01*
X141823000Y-196767000D01*
X141841000Y-196805000D01*
X141857000Y-196843000D01*
X141871000Y-196883000D01*
X141883000Y-196923000D01*
X141893000Y-196964000D01*
X141900000Y-197005000D01*
X141906000Y-197046000D01*
X141909000Y-197088000D01*
X141910000Y-197130000D01*
X141909000Y-197172000D01*
X141906000Y-197214000D01*
X141900000Y-197255000D01*
X141893000Y-197296000D01*
X141883000Y-197337000D01*
X141871000Y-197377000D01*
X141857000Y-197417000D01*
X141841000Y-197455000D01*
X141823000Y-197493000D01*
X141803000Y-197530000D01*
X141781000Y-197566000D01*
X141757000Y-197600000D01*
X141732000Y-197633000D01*
X141705000Y-197665000D01*
X141676000Y-197696000D01*
X141645000Y-197725000D01*
X141613000Y-197752000D01*
X141580000Y-197777000D01*
X141546000Y-197801000D01*
X141510000Y-197823000D01*
X141473000Y-197843000D01*
X141435000Y-197861000D01*
X141397000Y-197877000D01*
X141357000Y-197891000D01*
X141317000Y-197903000D01*
X141276000Y-197913000D01*
X141235000Y-197920000D01*
X141194000Y-197926000D01*
X141152000Y-197929000D01*
X141110000Y-197930000D01*
X138710000Y-197930000D01*
X138710000Y-196330000D01*
X141110000Y-196330000D01*
X141152000Y-196331000D01*
G36*
X141152000Y-196331000D02*
G01*
X141194000Y-196334000D01*
X141235000Y-196340000D01*
X141276000Y-196347000D01*
X141317000Y-196357000D01*
X141357000Y-196369000D01*
X141397000Y-196383000D01*
X141435000Y-196399000D01*
X141473000Y-196417000D01*
X141510000Y-196437000D01*
X141546000Y-196459000D01*
X141580000Y-196483000D01*
X141613000Y-196508000D01*
X141645000Y-196535000D01*
X141676000Y-196564000D01*
X141705000Y-196595000D01*
X141732000Y-196627000D01*
X141757000Y-196660000D01*
X141781000Y-196694000D01*
X141803000Y-196730000D01*
X141823000Y-196767000D01*
X141841000Y-196805000D01*
X141857000Y-196843000D01*
X141871000Y-196883000D01*
X141883000Y-196923000D01*
X141893000Y-196964000D01*
X141900000Y-197005000D01*
X141906000Y-197046000D01*
X141909000Y-197088000D01*
X141910000Y-197130000D01*
X141909000Y-197172000D01*
X141906000Y-197214000D01*
X141900000Y-197255000D01*
X141893000Y-197296000D01*
X141883000Y-197337000D01*
X141871000Y-197377000D01*
X141857000Y-197417000D01*
X141841000Y-197455000D01*
X141823000Y-197493000D01*
X141803000Y-197530000D01*
X141781000Y-197566000D01*
X141757000Y-197600000D01*
X141732000Y-197633000D01*
X141705000Y-197665000D01*
X141676000Y-197696000D01*
X141645000Y-197725000D01*
X141613000Y-197752000D01*
X141580000Y-197777000D01*
X141546000Y-197801000D01*
X141510000Y-197823000D01*
X141473000Y-197843000D01*
X141435000Y-197861000D01*
X141397000Y-197877000D01*
X141357000Y-197891000D01*
X141317000Y-197903000D01*
X141276000Y-197913000D01*
X141235000Y-197920000D01*
X141194000Y-197926000D01*
X141152000Y-197929000D01*
X141110000Y-197930000D01*
X138710000Y-197930000D01*
X138710000Y-196330000D01*
X141110000Y-196330000D01*
X141152000Y-196331000D01*
G37*
X141152000Y-193791000D02*
X141194000Y-193794000D01*
X141235000Y-193800000D01*
X141276000Y-193807000D01*
X141317000Y-193817000D01*
X141357000Y-193829000D01*
X141397000Y-193843000D01*
X141435000Y-193859000D01*
X141473000Y-193877000D01*
X141510000Y-193897000D01*
X141546000Y-193919000D01*
X141580000Y-193943000D01*
X141613000Y-193968000D01*
X141645000Y-193995000D01*
X141676000Y-194024000D01*
X141705000Y-194055000D01*
X141732000Y-194087000D01*
X141757000Y-194120000D01*
X141781000Y-194154000D01*
X141803000Y-194190000D01*
X141823000Y-194227000D01*
X141841000Y-194265000D01*
X141857000Y-194303000D01*
X141871000Y-194343000D01*
X141883000Y-194383000D01*
X141893000Y-194424000D01*
X141900000Y-194465000D01*
X141906000Y-194506000D01*
X141909000Y-194548000D01*
X141910000Y-194590000D01*
X141909000Y-194632000D01*
X141906000Y-194674000D01*
X141900000Y-194715000D01*
X141893000Y-194756000D01*
X141883000Y-194797000D01*
X141871000Y-194837000D01*
X141857000Y-194877000D01*
X141841000Y-194915000D01*
X141823000Y-194953000D01*
X141803000Y-194990000D01*
X141781000Y-195026000D01*
X141757000Y-195060000D01*
X141732000Y-195093000D01*
X141705000Y-195125000D01*
X141676000Y-195156000D01*
X141645000Y-195185000D01*
X141613000Y-195212000D01*
X141580000Y-195237000D01*
X141546000Y-195261000D01*
X141510000Y-195283000D01*
X141473000Y-195303000D01*
X141435000Y-195321000D01*
X141397000Y-195337000D01*
X141357000Y-195351000D01*
X141317000Y-195363000D01*
X141276000Y-195373000D01*
X141235000Y-195380000D01*
X141194000Y-195386000D01*
X141152000Y-195389000D01*
X141110000Y-195390000D01*
X138710000Y-195390000D01*
X138710000Y-193790000D01*
X141110000Y-193790000D01*
X141152000Y-193791000D01*
G36*
X141152000Y-193791000D02*
G01*
X141194000Y-193794000D01*
X141235000Y-193800000D01*
X141276000Y-193807000D01*
X141317000Y-193817000D01*
X141357000Y-193829000D01*
X141397000Y-193843000D01*
X141435000Y-193859000D01*
X141473000Y-193877000D01*
X141510000Y-193897000D01*
X141546000Y-193919000D01*
X141580000Y-193943000D01*
X141613000Y-193968000D01*
X141645000Y-193995000D01*
X141676000Y-194024000D01*
X141705000Y-194055000D01*
X141732000Y-194087000D01*
X141757000Y-194120000D01*
X141781000Y-194154000D01*
X141803000Y-194190000D01*
X141823000Y-194227000D01*
X141841000Y-194265000D01*
X141857000Y-194303000D01*
X141871000Y-194343000D01*
X141883000Y-194383000D01*
X141893000Y-194424000D01*
X141900000Y-194465000D01*
X141906000Y-194506000D01*
X141909000Y-194548000D01*
X141910000Y-194590000D01*
X141909000Y-194632000D01*
X141906000Y-194674000D01*
X141900000Y-194715000D01*
X141893000Y-194756000D01*
X141883000Y-194797000D01*
X141871000Y-194837000D01*
X141857000Y-194877000D01*
X141841000Y-194915000D01*
X141823000Y-194953000D01*
X141803000Y-194990000D01*
X141781000Y-195026000D01*
X141757000Y-195060000D01*
X141732000Y-195093000D01*
X141705000Y-195125000D01*
X141676000Y-195156000D01*
X141645000Y-195185000D01*
X141613000Y-195212000D01*
X141580000Y-195237000D01*
X141546000Y-195261000D01*
X141510000Y-195283000D01*
X141473000Y-195303000D01*
X141435000Y-195321000D01*
X141397000Y-195337000D01*
X141357000Y-195351000D01*
X141317000Y-195363000D01*
X141276000Y-195373000D01*
X141235000Y-195380000D01*
X141194000Y-195386000D01*
X141152000Y-195389000D01*
X141110000Y-195390000D01*
X138710000Y-195390000D01*
X138710000Y-193790000D01*
X141110000Y-193790000D01*
X141152000Y-193791000D01*
G37*
X141152000Y-188711000D02*
X141194000Y-188714000D01*
X141235000Y-188720000D01*
X141276000Y-188727000D01*
X141317000Y-188737000D01*
X141357000Y-188749000D01*
X141397000Y-188763000D01*
X141435000Y-188779000D01*
X141473000Y-188797000D01*
X141510000Y-188817000D01*
X141546000Y-188839000D01*
X141580000Y-188863000D01*
X141613000Y-188888000D01*
X141645000Y-188915000D01*
X141676000Y-188944000D01*
X141705000Y-188975000D01*
X141732000Y-189007000D01*
X141757000Y-189040000D01*
X141781000Y-189074000D01*
X141803000Y-189110000D01*
X141823000Y-189147000D01*
X141841000Y-189185000D01*
X141857000Y-189223000D01*
X141871000Y-189263000D01*
X141883000Y-189303000D01*
X141893000Y-189344000D01*
X141900000Y-189385000D01*
X141906000Y-189426000D01*
X141909000Y-189468000D01*
X141910000Y-189510000D01*
X141909000Y-189552000D01*
X141906000Y-189594000D01*
X141900000Y-189635000D01*
X141893000Y-189676000D01*
X141883000Y-189717000D01*
X141871000Y-189757000D01*
X141857000Y-189797000D01*
X141841000Y-189835000D01*
X141823000Y-189873000D01*
X141803000Y-189910000D01*
X141781000Y-189946000D01*
X141757000Y-189980000D01*
X141732000Y-190013000D01*
X141705000Y-190045000D01*
X141676000Y-190076000D01*
X141645000Y-190105000D01*
X141613000Y-190132000D01*
X141580000Y-190157000D01*
X141546000Y-190181000D01*
X141510000Y-190203000D01*
X141473000Y-190223000D01*
X141435000Y-190241000D01*
X141397000Y-190257000D01*
X141357000Y-190271000D01*
X141317000Y-190283000D01*
X141276000Y-190293000D01*
X141235000Y-190300000D01*
X141194000Y-190306000D01*
X141152000Y-190309000D01*
X141110000Y-190310000D01*
X138710000Y-190310000D01*
X138710000Y-188710000D01*
X141110000Y-188710000D01*
X141152000Y-188711000D01*
G36*
X141152000Y-188711000D02*
G01*
X141194000Y-188714000D01*
X141235000Y-188720000D01*
X141276000Y-188727000D01*
X141317000Y-188737000D01*
X141357000Y-188749000D01*
X141397000Y-188763000D01*
X141435000Y-188779000D01*
X141473000Y-188797000D01*
X141510000Y-188817000D01*
X141546000Y-188839000D01*
X141580000Y-188863000D01*
X141613000Y-188888000D01*
X141645000Y-188915000D01*
X141676000Y-188944000D01*
X141705000Y-188975000D01*
X141732000Y-189007000D01*
X141757000Y-189040000D01*
X141781000Y-189074000D01*
X141803000Y-189110000D01*
X141823000Y-189147000D01*
X141841000Y-189185000D01*
X141857000Y-189223000D01*
X141871000Y-189263000D01*
X141883000Y-189303000D01*
X141893000Y-189344000D01*
X141900000Y-189385000D01*
X141906000Y-189426000D01*
X141909000Y-189468000D01*
X141910000Y-189510000D01*
X141909000Y-189552000D01*
X141906000Y-189594000D01*
X141900000Y-189635000D01*
X141893000Y-189676000D01*
X141883000Y-189717000D01*
X141871000Y-189757000D01*
X141857000Y-189797000D01*
X141841000Y-189835000D01*
X141823000Y-189873000D01*
X141803000Y-189910000D01*
X141781000Y-189946000D01*
X141757000Y-189980000D01*
X141732000Y-190013000D01*
X141705000Y-190045000D01*
X141676000Y-190076000D01*
X141645000Y-190105000D01*
X141613000Y-190132000D01*
X141580000Y-190157000D01*
X141546000Y-190181000D01*
X141510000Y-190203000D01*
X141473000Y-190223000D01*
X141435000Y-190241000D01*
X141397000Y-190257000D01*
X141357000Y-190271000D01*
X141317000Y-190283000D01*
X141276000Y-190293000D01*
X141235000Y-190300000D01*
X141194000Y-190306000D01*
X141152000Y-190309000D01*
X141110000Y-190310000D01*
X138710000Y-190310000D01*
X138710000Y-188710000D01*
X141110000Y-188710000D01*
X141152000Y-188711000D01*
G37*
X141152000Y-186171000D02*
X141194000Y-186174000D01*
X141235000Y-186180000D01*
X141276000Y-186187000D01*
X141317000Y-186197000D01*
X141357000Y-186209000D01*
X141397000Y-186223000D01*
X141435000Y-186239000D01*
X141473000Y-186257000D01*
X141510000Y-186277000D01*
X141546000Y-186299000D01*
X141580000Y-186323000D01*
X141613000Y-186348000D01*
X141645000Y-186375000D01*
X141676000Y-186404000D01*
X141705000Y-186435000D01*
X141732000Y-186467000D01*
X141757000Y-186500000D01*
X141781000Y-186534000D01*
X141803000Y-186570000D01*
X141823000Y-186607000D01*
X141841000Y-186645000D01*
X141857000Y-186683000D01*
X141871000Y-186723000D01*
X141883000Y-186763000D01*
X141893000Y-186804000D01*
X141900000Y-186845000D01*
X141906000Y-186886000D01*
X141909000Y-186928000D01*
X141910000Y-186970000D01*
X141909000Y-187012000D01*
X141906000Y-187054000D01*
X141900000Y-187095000D01*
X141893000Y-187136000D01*
X141883000Y-187177000D01*
X141871000Y-187217000D01*
X141857000Y-187257000D01*
X141841000Y-187295000D01*
X141823000Y-187333000D01*
X141803000Y-187370000D01*
X141781000Y-187406000D01*
X141757000Y-187440000D01*
X141732000Y-187473000D01*
X141705000Y-187505000D01*
X141676000Y-187536000D01*
X141645000Y-187565000D01*
X141613000Y-187592000D01*
X141580000Y-187617000D01*
X141546000Y-187641000D01*
X141510000Y-187663000D01*
X141473000Y-187683000D01*
X141435000Y-187701000D01*
X141397000Y-187717000D01*
X141357000Y-187731000D01*
X141317000Y-187743000D01*
X141276000Y-187753000D01*
X141235000Y-187760000D01*
X141194000Y-187766000D01*
X141152000Y-187769000D01*
X141110000Y-187770000D01*
X138710000Y-187770000D01*
X138710000Y-186170000D01*
X141110000Y-186170000D01*
X141152000Y-186171000D01*
G36*
X141152000Y-186171000D02*
G01*
X141194000Y-186174000D01*
X141235000Y-186180000D01*
X141276000Y-186187000D01*
X141317000Y-186197000D01*
X141357000Y-186209000D01*
X141397000Y-186223000D01*
X141435000Y-186239000D01*
X141473000Y-186257000D01*
X141510000Y-186277000D01*
X141546000Y-186299000D01*
X141580000Y-186323000D01*
X141613000Y-186348000D01*
X141645000Y-186375000D01*
X141676000Y-186404000D01*
X141705000Y-186435000D01*
X141732000Y-186467000D01*
X141757000Y-186500000D01*
X141781000Y-186534000D01*
X141803000Y-186570000D01*
X141823000Y-186607000D01*
X141841000Y-186645000D01*
X141857000Y-186683000D01*
X141871000Y-186723000D01*
X141883000Y-186763000D01*
X141893000Y-186804000D01*
X141900000Y-186845000D01*
X141906000Y-186886000D01*
X141909000Y-186928000D01*
X141910000Y-186970000D01*
X141909000Y-187012000D01*
X141906000Y-187054000D01*
X141900000Y-187095000D01*
X141893000Y-187136000D01*
X141883000Y-187177000D01*
X141871000Y-187217000D01*
X141857000Y-187257000D01*
X141841000Y-187295000D01*
X141823000Y-187333000D01*
X141803000Y-187370000D01*
X141781000Y-187406000D01*
X141757000Y-187440000D01*
X141732000Y-187473000D01*
X141705000Y-187505000D01*
X141676000Y-187536000D01*
X141645000Y-187565000D01*
X141613000Y-187592000D01*
X141580000Y-187617000D01*
X141546000Y-187641000D01*
X141510000Y-187663000D01*
X141473000Y-187683000D01*
X141435000Y-187701000D01*
X141397000Y-187717000D01*
X141357000Y-187731000D01*
X141317000Y-187743000D01*
X141276000Y-187753000D01*
X141235000Y-187760000D01*
X141194000Y-187766000D01*
X141152000Y-187769000D01*
X141110000Y-187770000D01*
X138710000Y-187770000D01*
X138710000Y-186170000D01*
X141110000Y-186170000D01*
X141152000Y-186171000D01*
G37*
X141152000Y-183631000D02*
X141194000Y-183634000D01*
X141235000Y-183640000D01*
X141276000Y-183647000D01*
X141317000Y-183657000D01*
X141357000Y-183669000D01*
X141397000Y-183683000D01*
X141435000Y-183699000D01*
X141473000Y-183717000D01*
X141510000Y-183737000D01*
X141546000Y-183759000D01*
X141580000Y-183783000D01*
X141613000Y-183808000D01*
X141645000Y-183835000D01*
X141676000Y-183864000D01*
X141705000Y-183895000D01*
X141732000Y-183927000D01*
X141757000Y-183960000D01*
X141781000Y-183994000D01*
X141803000Y-184030000D01*
X141823000Y-184067000D01*
X141841000Y-184105000D01*
X141857000Y-184143000D01*
X141871000Y-184183000D01*
X141883000Y-184223000D01*
X141893000Y-184264000D01*
X141900000Y-184305000D01*
X141906000Y-184346000D01*
X141909000Y-184388000D01*
X141910000Y-184430000D01*
X141909000Y-184472000D01*
X141906000Y-184514000D01*
X141900000Y-184555000D01*
X141893000Y-184596000D01*
X141883000Y-184637000D01*
X141871000Y-184677000D01*
X141857000Y-184717000D01*
X141841000Y-184755000D01*
X141823000Y-184793000D01*
X141803000Y-184830000D01*
X141781000Y-184866000D01*
X141757000Y-184900000D01*
X141732000Y-184933000D01*
X141705000Y-184965000D01*
X141676000Y-184996000D01*
X141645000Y-185025000D01*
X141613000Y-185052000D01*
X141580000Y-185077000D01*
X141546000Y-185101000D01*
X141510000Y-185123000D01*
X141473000Y-185143000D01*
X141435000Y-185161000D01*
X141397000Y-185177000D01*
X141357000Y-185191000D01*
X141317000Y-185203000D01*
X141276000Y-185213000D01*
X141235000Y-185220000D01*
X141194000Y-185226000D01*
X141152000Y-185229000D01*
X141110000Y-185230000D01*
X138710000Y-185230000D01*
X138710000Y-183630000D01*
X141110000Y-183630000D01*
X141152000Y-183631000D01*
G36*
X141152000Y-183631000D02*
G01*
X141194000Y-183634000D01*
X141235000Y-183640000D01*
X141276000Y-183647000D01*
X141317000Y-183657000D01*
X141357000Y-183669000D01*
X141397000Y-183683000D01*
X141435000Y-183699000D01*
X141473000Y-183717000D01*
X141510000Y-183737000D01*
X141546000Y-183759000D01*
X141580000Y-183783000D01*
X141613000Y-183808000D01*
X141645000Y-183835000D01*
X141676000Y-183864000D01*
X141705000Y-183895000D01*
X141732000Y-183927000D01*
X141757000Y-183960000D01*
X141781000Y-183994000D01*
X141803000Y-184030000D01*
X141823000Y-184067000D01*
X141841000Y-184105000D01*
X141857000Y-184143000D01*
X141871000Y-184183000D01*
X141883000Y-184223000D01*
X141893000Y-184264000D01*
X141900000Y-184305000D01*
X141906000Y-184346000D01*
X141909000Y-184388000D01*
X141910000Y-184430000D01*
X141909000Y-184472000D01*
X141906000Y-184514000D01*
X141900000Y-184555000D01*
X141893000Y-184596000D01*
X141883000Y-184637000D01*
X141871000Y-184677000D01*
X141857000Y-184717000D01*
X141841000Y-184755000D01*
X141823000Y-184793000D01*
X141803000Y-184830000D01*
X141781000Y-184866000D01*
X141757000Y-184900000D01*
X141732000Y-184933000D01*
X141705000Y-184965000D01*
X141676000Y-184996000D01*
X141645000Y-185025000D01*
X141613000Y-185052000D01*
X141580000Y-185077000D01*
X141546000Y-185101000D01*
X141510000Y-185123000D01*
X141473000Y-185143000D01*
X141435000Y-185161000D01*
X141397000Y-185177000D01*
X141357000Y-185191000D01*
X141317000Y-185203000D01*
X141276000Y-185213000D01*
X141235000Y-185220000D01*
X141194000Y-185226000D01*
X141152000Y-185229000D01*
X141110000Y-185230000D01*
X138710000Y-185230000D01*
X138710000Y-183630000D01*
X141110000Y-183630000D01*
X141152000Y-183631000D01*
G37*
X141152000Y-181091000D02*
X141194000Y-181094000D01*
X141235000Y-181100000D01*
X141276000Y-181107000D01*
X141317000Y-181117000D01*
X141357000Y-181129000D01*
X141397000Y-181143000D01*
X141435000Y-181159000D01*
X141473000Y-181177000D01*
X141510000Y-181197000D01*
X141546000Y-181219000D01*
X141580000Y-181243000D01*
X141613000Y-181268000D01*
X141645000Y-181295000D01*
X141676000Y-181324000D01*
X141705000Y-181355000D01*
X141732000Y-181387000D01*
X141757000Y-181420000D01*
X141781000Y-181454000D01*
X141803000Y-181490000D01*
X141823000Y-181527000D01*
X141841000Y-181565000D01*
X141857000Y-181603000D01*
X141871000Y-181643000D01*
X141883000Y-181683000D01*
X141893000Y-181724000D01*
X141900000Y-181765000D01*
X141906000Y-181806000D01*
X141909000Y-181848000D01*
X141910000Y-181890000D01*
X141909000Y-181932000D01*
X141906000Y-181974000D01*
X141900000Y-182015000D01*
X141893000Y-182056000D01*
X141883000Y-182097000D01*
X141871000Y-182137000D01*
X141857000Y-182177000D01*
X141841000Y-182215000D01*
X141823000Y-182253000D01*
X141803000Y-182290000D01*
X141781000Y-182326000D01*
X141757000Y-182360000D01*
X141732000Y-182393000D01*
X141705000Y-182425000D01*
X141676000Y-182456000D01*
X141645000Y-182485000D01*
X141613000Y-182512000D01*
X141580000Y-182537000D01*
X141546000Y-182561000D01*
X141510000Y-182583000D01*
X141473000Y-182603000D01*
X141435000Y-182621000D01*
X141397000Y-182637000D01*
X141357000Y-182651000D01*
X141317000Y-182663000D01*
X141276000Y-182673000D01*
X141235000Y-182680000D01*
X141194000Y-182686000D01*
X141152000Y-182689000D01*
X141110000Y-182690000D01*
X138710000Y-182690000D01*
X138710000Y-181090000D01*
X141110000Y-181090000D01*
X141152000Y-181091000D01*
G36*
X141152000Y-181091000D02*
G01*
X141194000Y-181094000D01*
X141235000Y-181100000D01*
X141276000Y-181107000D01*
X141317000Y-181117000D01*
X141357000Y-181129000D01*
X141397000Y-181143000D01*
X141435000Y-181159000D01*
X141473000Y-181177000D01*
X141510000Y-181197000D01*
X141546000Y-181219000D01*
X141580000Y-181243000D01*
X141613000Y-181268000D01*
X141645000Y-181295000D01*
X141676000Y-181324000D01*
X141705000Y-181355000D01*
X141732000Y-181387000D01*
X141757000Y-181420000D01*
X141781000Y-181454000D01*
X141803000Y-181490000D01*
X141823000Y-181527000D01*
X141841000Y-181565000D01*
X141857000Y-181603000D01*
X141871000Y-181643000D01*
X141883000Y-181683000D01*
X141893000Y-181724000D01*
X141900000Y-181765000D01*
X141906000Y-181806000D01*
X141909000Y-181848000D01*
X141910000Y-181890000D01*
X141909000Y-181932000D01*
X141906000Y-181974000D01*
X141900000Y-182015000D01*
X141893000Y-182056000D01*
X141883000Y-182097000D01*
X141871000Y-182137000D01*
X141857000Y-182177000D01*
X141841000Y-182215000D01*
X141823000Y-182253000D01*
X141803000Y-182290000D01*
X141781000Y-182326000D01*
X141757000Y-182360000D01*
X141732000Y-182393000D01*
X141705000Y-182425000D01*
X141676000Y-182456000D01*
X141645000Y-182485000D01*
X141613000Y-182512000D01*
X141580000Y-182537000D01*
X141546000Y-182561000D01*
X141510000Y-182583000D01*
X141473000Y-182603000D01*
X141435000Y-182621000D01*
X141397000Y-182637000D01*
X141357000Y-182651000D01*
X141317000Y-182663000D01*
X141276000Y-182673000D01*
X141235000Y-182680000D01*
X141194000Y-182686000D01*
X141152000Y-182689000D01*
X141110000Y-182690000D01*
X138710000Y-182690000D01*
X138710000Y-181090000D01*
X141110000Y-181090000D01*
X141152000Y-181091000D01*
G37*
X141152000Y-176011000D02*
X141194000Y-176014000D01*
X141235000Y-176020000D01*
X141276000Y-176027000D01*
X141317000Y-176037000D01*
X141357000Y-176049000D01*
X141397000Y-176063000D01*
X141435000Y-176079000D01*
X141473000Y-176097000D01*
X141510000Y-176117000D01*
X141546000Y-176139000D01*
X141580000Y-176163000D01*
X141613000Y-176188000D01*
X141645000Y-176215000D01*
X141676000Y-176244000D01*
X141705000Y-176275000D01*
X141732000Y-176307000D01*
X141757000Y-176340000D01*
X141781000Y-176374000D01*
X141803000Y-176410000D01*
X141823000Y-176447000D01*
X141841000Y-176485000D01*
X141857000Y-176523000D01*
X141871000Y-176563000D01*
X141883000Y-176603000D01*
X141893000Y-176644000D01*
X141900000Y-176685000D01*
X141906000Y-176726000D01*
X141909000Y-176768000D01*
X141910000Y-176810000D01*
X141909000Y-176852000D01*
X141906000Y-176894000D01*
X141900000Y-176935000D01*
X141893000Y-176976000D01*
X141883000Y-177017000D01*
X141871000Y-177057000D01*
X141857000Y-177097000D01*
X141841000Y-177135000D01*
X141823000Y-177173000D01*
X141803000Y-177210000D01*
X141781000Y-177246000D01*
X141757000Y-177280000D01*
X141732000Y-177313000D01*
X141705000Y-177345000D01*
X141676000Y-177376000D01*
X141645000Y-177405000D01*
X141613000Y-177432000D01*
X141580000Y-177457000D01*
X141546000Y-177481000D01*
X141510000Y-177503000D01*
X141473000Y-177523000D01*
X141435000Y-177541000D01*
X141397000Y-177557000D01*
X141357000Y-177571000D01*
X141317000Y-177583000D01*
X141276000Y-177593000D01*
X141235000Y-177600000D01*
X141194000Y-177606000D01*
X141152000Y-177609000D01*
X141110000Y-177610000D01*
X138710000Y-177610000D01*
X138710000Y-176010000D01*
X141110000Y-176010000D01*
X141152000Y-176011000D01*
G36*
X141152000Y-176011000D02*
G01*
X141194000Y-176014000D01*
X141235000Y-176020000D01*
X141276000Y-176027000D01*
X141317000Y-176037000D01*
X141357000Y-176049000D01*
X141397000Y-176063000D01*
X141435000Y-176079000D01*
X141473000Y-176097000D01*
X141510000Y-176117000D01*
X141546000Y-176139000D01*
X141580000Y-176163000D01*
X141613000Y-176188000D01*
X141645000Y-176215000D01*
X141676000Y-176244000D01*
X141705000Y-176275000D01*
X141732000Y-176307000D01*
X141757000Y-176340000D01*
X141781000Y-176374000D01*
X141803000Y-176410000D01*
X141823000Y-176447000D01*
X141841000Y-176485000D01*
X141857000Y-176523000D01*
X141871000Y-176563000D01*
X141883000Y-176603000D01*
X141893000Y-176644000D01*
X141900000Y-176685000D01*
X141906000Y-176726000D01*
X141909000Y-176768000D01*
X141910000Y-176810000D01*
X141909000Y-176852000D01*
X141906000Y-176894000D01*
X141900000Y-176935000D01*
X141893000Y-176976000D01*
X141883000Y-177017000D01*
X141871000Y-177057000D01*
X141857000Y-177097000D01*
X141841000Y-177135000D01*
X141823000Y-177173000D01*
X141803000Y-177210000D01*
X141781000Y-177246000D01*
X141757000Y-177280000D01*
X141732000Y-177313000D01*
X141705000Y-177345000D01*
X141676000Y-177376000D01*
X141645000Y-177405000D01*
X141613000Y-177432000D01*
X141580000Y-177457000D01*
X141546000Y-177481000D01*
X141510000Y-177503000D01*
X141473000Y-177523000D01*
X141435000Y-177541000D01*
X141397000Y-177557000D01*
X141357000Y-177571000D01*
X141317000Y-177583000D01*
X141276000Y-177593000D01*
X141235000Y-177600000D01*
X141194000Y-177606000D01*
X141152000Y-177609000D01*
X141110000Y-177610000D01*
X138710000Y-177610000D01*
X138710000Y-176010000D01*
X141110000Y-176010000D01*
X141152000Y-176011000D01*
G37*
X141152000Y-173471000D02*
X141194000Y-173474000D01*
X141235000Y-173480000D01*
X141276000Y-173487000D01*
X141317000Y-173497000D01*
X141357000Y-173509000D01*
X141397000Y-173523000D01*
X141435000Y-173539000D01*
X141473000Y-173557000D01*
X141510000Y-173577000D01*
X141546000Y-173599000D01*
X141580000Y-173623000D01*
X141613000Y-173648000D01*
X141645000Y-173675000D01*
X141676000Y-173704000D01*
X141705000Y-173735000D01*
X141732000Y-173767000D01*
X141757000Y-173800000D01*
X141781000Y-173834000D01*
X141803000Y-173870000D01*
X141823000Y-173907000D01*
X141841000Y-173945000D01*
X141857000Y-173983000D01*
X141871000Y-174023000D01*
X141883000Y-174063000D01*
X141893000Y-174104000D01*
X141900000Y-174145000D01*
X141906000Y-174186000D01*
X141909000Y-174228000D01*
X141910000Y-174270000D01*
X141909000Y-174312000D01*
X141906000Y-174354000D01*
X141900000Y-174395000D01*
X141893000Y-174436000D01*
X141883000Y-174477000D01*
X141871000Y-174517000D01*
X141857000Y-174557000D01*
X141841000Y-174595000D01*
X141823000Y-174633000D01*
X141803000Y-174670000D01*
X141781000Y-174706000D01*
X141757000Y-174740000D01*
X141732000Y-174773000D01*
X141705000Y-174805000D01*
X141676000Y-174836000D01*
X141645000Y-174865000D01*
X141613000Y-174892000D01*
X141580000Y-174917000D01*
X141546000Y-174941000D01*
X141510000Y-174963000D01*
X141473000Y-174983000D01*
X141435000Y-175001000D01*
X141397000Y-175017000D01*
X141357000Y-175031000D01*
X141317000Y-175043000D01*
X141276000Y-175053000D01*
X141235000Y-175060000D01*
X141194000Y-175066000D01*
X141152000Y-175069000D01*
X141110000Y-175070000D01*
X138710000Y-175070000D01*
X138710000Y-173470000D01*
X141110000Y-173470000D01*
X141152000Y-173471000D01*
G36*
X141152000Y-173471000D02*
G01*
X141194000Y-173474000D01*
X141235000Y-173480000D01*
X141276000Y-173487000D01*
X141317000Y-173497000D01*
X141357000Y-173509000D01*
X141397000Y-173523000D01*
X141435000Y-173539000D01*
X141473000Y-173557000D01*
X141510000Y-173577000D01*
X141546000Y-173599000D01*
X141580000Y-173623000D01*
X141613000Y-173648000D01*
X141645000Y-173675000D01*
X141676000Y-173704000D01*
X141705000Y-173735000D01*
X141732000Y-173767000D01*
X141757000Y-173800000D01*
X141781000Y-173834000D01*
X141803000Y-173870000D01*
X141823000Y-173907000D01*
X141841000Y-173945000D01*
X141857000Y-173983000D01*
X141871000Y-174023000D01*
X141883000Y-174063000D01*
X141893000Y-174104000D01*
X141900000Y-174145000D01*
X141906000Y-174186000D01*
X141909000Y-174228000D01*
X141910000Y-174270000D01*
X141909000Y-174312000D01*
X141906000Y-174354000D01*
X141900000Y-174395000D01*
X141893000Y-174436000D01*
X141883000Y-174477000D01*
X141871000Y-174517000D01*
X141857000Y-174557000D01*
X141841000Y-174595000D01*
X141823000Y-174633000D01*
X141803000Y-174670000D01*
X141781000Y-174706000D01*
X141757000Y-174740000D01*
X141732000Y-174773000D01*
X141705000Y-174805000D01*
X141676000Y-174836000D01*
X141645000Y-174865000D01*
X141613000Y-174892000D01*
X141580000Y-174917000D01*
X141546000Y-174941000D01*
X141510000Y-174963000D01*
X141473000Y-174983000D01*
X141435000Y-175001000D01*
X141397000Y-175017000D01*
X141357000Y-175031000D01*
X141317000Y-175043000D01*
X141276000Y-175053000D01*
X141235000Y-175060000D01*
X141194000Y-175066000D01*
X141152000Y-175069000D01*
X141110000Y-175070000D01*
X138710000Y-175070000D01*
X138710000Y-173470000D01*
X141110000Y-173470000D01*
X141152000Y-173471000D01*
G37*
X141152000Y-170931000D02*
X141194000Y-170934000D01*
X141235000Y-170940000D01*
X141276000Y-170947000D01*
X141317000Y-170957000D01*
X141357000Y-170969000D01*
X141397000Y-170983000D01*
X141435000Y-170999000D01*
X141473000Y-171017000D01*
X141510000Y-171037000D01*
X141546000Y-171059000D01*
X141580000Y-171083000D01*
X141613000Y-171108000D01*
X141645000Y-171135000D01*
X141676000Y-171164000D01*
X141705000Y-171195000D01*
X141732000Y-171227000D01*
X141757000Y-171260000D01*
X141781000Y-171294000D01*
X141803000Y-171330000D01*
X141823000Y-171367000D01*
X141841000Y-171405000D01*
X141857000Y-171443000D01*
X141871000Y-171483000D01*
X141883000Y-171523000D01*
X141893000Y-171564000D01*
X141900000Y-171605000D01*
X141906000Y-171646000D01*
X141909000Y-171688000D01*
X141910000Y-171730000D01*
X141909000Y-171772000D01*
X141906000Y-171814000D01*
X141900000Y-171855000D01*
X141893000Y-171896000D01*
X141883000Y-171937000D01*
X141871000Y-171977000D01*
X141857000Y-172017000D01*
X141841000Y-172055000D01*
X141823000Y-172093000D01*
X141803000Y-172130000D01*
X141781000Y-172166000D01*
X141757000Y-172200000D01*
X141732000Y-172233000D01*
X141705000Y-172265000D01*
X141676000Y-172296000D01*
X141645000Y-172325000D01*
X141613000Y-172352000D01*
X141580000Y-172377000D01*
X141546000Y-172401000D01*
X141510000Y-172423000D01*
X141473000Y-172443000D01*
X141435000Y-172461000D01*
X141397000Y-172477000D01*
X141357000Y-172491000D01*
X141317000Y-172503000D01*
X141276000Y-172513000D01*
X141235000Y-172520000D01*
X141194000Y-172526000D01*
X141152000Y-172529000D01*
X141110000Y-172530000D01*
X138710000Y-172530000D01*
X138710000Y-170930000D01*
X141110000Y-170930000D01*
X141152000Y-170931000D01*
G36*
X141152000Y-170931000D02*
G01*
X141194000Y-170934000D01*
X141235000Y-170940000D01*
X141276000Y-170947000D01*
X141317000Y-170957000D01*
X141357000Y-170969000D01*
X141397000Y-170983000D01*
X141435000Y-170999000D01*
X141473000Y-171017000D01*
X141510000Y-171037000D01*
X141546000Y-171059000D01*
X141580000Y-171083000D01*
X141613000Y-171108000D01*
X141645000Y-171135000D01*
X141676000Y-171164000D01*
X141705000Y-171195000D01*
X141732000Y-171227000D01*
X141757000Y-171260000D01*
X141781000Y-171294000D01*
X141803000Y-171330000D01*
X141823000Y-171367000D01*
X141841000Y-171405000D01*
X141857000Y-171443000D01*
X141871000Y-171483000D01*
X141883000Y-171523000D01*
X141893000Y-171564000D01*
X141900000Y-171605000D01*
X141906000Y-171646000D01*
X141909000Y-171688000D01*
X141910000Y-171730000D01*
X141909000Y-171772000D01*
X141906000Y-171814000D01*
X141900000Y-171855000D01*
X141893000Y-171896000D01*
X141883000Y-171937000D01*
X141871000Y-171977000D01*
X141857000Y-172017000D01*
X141841000Y-172055000D01*
X141823000Y-172093000D01*
X141803000Y-172130000D01*
X141781000Y-172166000D01*
X141757000Y-172200000D01*
X141732000Y-172233000D01*
X141705000Y-172265000D01*
X141676000Y-172296000D01*
X141645000Y-172325000D01*
X141613000Y-172352000D01*
X141580000Y-172377000D01*
X141546000Y-172401000D01*
X141510000Y-172423000D01*
X141473000Y-172443000D01*
X141435000Y-172461000D01*
X141397000Y-172477000D01*
X141357000Y-172491000D01*
X141317000Y-172503000D01*
X141276000Y-172513000D01*
X141235000Y-172520000D01*
X141194000Y-172526000D01*
X141152000Y-172529000D01*
X141110000Y-172530000D01*
X138710000Y-172530000D01*
X138710000Y-170930000D01*
X141110000Y-170930000D01*
X141152000Y-170931000D01*
G37*
X141152000Y-168391000D02*
X141194000Y-168394000D01*
X141235000Y-168400000D01*
X141276000Y-168407000D01*
X141317000Y-168417000D01*
X141357000Y-168429000D01*
X141397000Y-168443000D01*
X141435000Y-168459000D01*
X141473000Y-168477000D01*
X141510000Y-168497000D01*
X141546000Y-168519000D01*
X141580000Y-168543000D01*
X141613000Y-168568000D01*
X141645000Y-168595000D01*
X141676000Y-168624000D01*
X141705000Y-168655000D01*
X141732000Y-168687000D01*
X141757000Y-168720000D01*
X141781000Y-168754000D01*
X141803000Y-168790000D01*
X141823000Y-168827000D01*
X141841000Y-168865000D01*
X141857000Y-168903000D01*
X141871000Y-168943000D01*
X141883000Y-168983000D01*
X141893000Y-169024000D01*
X141900000Y-169065000D01*
X141906000Y-169106000D01*
X141909000Y-169148000D01*
X141910000Y-169190000D01*
X141909000Y-169232000D01*
X141906000Y-169274000D01*
X141900000Y-169315000D01*
X141893000Y-169356000D01*
X141883000Y-169397000D01*
X141871000Y-169437000D01*
X141857000Y-169477000D01*
X141841000Y-169515000D01*
X141823000Y-169553000D01*
X141803000Y-169590000D01*
X141781000Y-169626000D01*
X141757000Y-169660000D01*
X141732000Y-169693000D01*
X141705000Y-169725000D01*
X141676000Y-169756000D01*
X141645000Y-169785000D01*
X141613000Y-169812000D01*
X141580000Y-169837000D01*
X141546000Y-169861000D01*
X141510000Y-169883000D01*
X141473000Y-169903000D01*
X141435000Y-169921000D01*
X141397000Y-169937000D01*
X141357000Y-169951000D01*
X141317000Y-169963000D01*
X141276000Y-169973000D01*
X141235000Y-169980000D01*
X141194000Y-169986000D01*
X141152000Y-169989000D01*
X141110000Y-169990000D01*
X138710000Y-169990000D01*
X138710000Y-168390000D01*
X141110000Y-168390000D01*
X141152000Y-168391000D01*
G36*
X141152000Y-168391000D02*
G01*
X141194000Y-168394000D01*
X141235000Y-168400000D01*
X141276000Y-168407000D01*
X141317000Y-168417000D01*
X141357000Y-168429000D01*
X141397000Y-168443000D01*
X141435000Y-168459000D01*
X141473000Y-168477000D01*
X141510000Y-168497000D01*
X141546000Y-168519000D01*
X141580000Y-168543000D01*
X141613000Y-168568000D01*
X141645000Y-168595000D01*
X141676000Y-168624000D01*
X141705000Y-168655000D01*
X141732000Y-168687000D01*
X141757000Y-168720000D01*
X141781000Y-168754000D01*
X141803000Y-168790000D01*
X141823000Y-168827000D01*
X141841000Y-168865000D01*
X141857000Y-168903000D01*
X141871000Y-168943000D01*
X141883000Y-168983000D01*
X141893000Y-169024000D01*
X141900000Y-169065000D01*
X141906000Y-169106000D01*
X141909000Y-169148000D01*
X141910000Y-169190000D01*
X141909000Y-169232000D01*
X141906000Y-169274000D01*
X141900000Y-169315000D01*
X141893000Y-169356000D01*
X141883000Y-169397000D01*
X141871000Y-169437000D01*
X141857000Y-169477000D01*
X141841000Y-169515000D01*
X141823000Y-169553000D01*
X141803000Y-169590000D01*
X141781000Y-169626000D01*
X141757000Y-169660000D01*
X141732000Y-169693000D01*
X141705000Y-169725000D01*
X141676000Y-169756000D01*
X141645000Y-169785000D01*
X141613000Y-169812000D01*
X141580000Y-169837000D01*
X141546000Y-169861000D01*
X141510000Y-169883000D01*
X141473000Y-169903000D01*
X141435000Y-169921000D01*
X141397000Y-169937000D01*
X141357000Y-169951000D01*
X141317000Y-169963000D01*
X141276000Y-169973000D01*
X141235000Y-169980000D01*
X141194000Y-169986000D01*
X141152000Y-169989000D01*
X141110000Y-169990000D01*
X138710000Y-169990000D01*
X138710000Y-168390000D01*
X141110000Y-168390000D01*
X141152000Y-168391000D01*
G37*
X141152000Y-163311000D02*
X141194000Y-163314000D01*
X141235000Y-163320000D01*
X141276000Y-163327000D01*
X141317000Y-163337000D01*
X141357000Y-163349000D01*
X141397000Y-163363000D01*
X141435000Y-163379000D01*
X141473000Y-163397000D01*
X141510000Y-163417000D01*
X141546000Y-163439000D01*
X141580000Y-163463000D01*
X141613000Y-163488000D01*
X141645000Y-163515000D01*
X141676000Y-163544000D01*
X141705000Y-163575000D01*
X141732000Y-163607000D01*
X141757000Y-163640000D01*
X141781000Y-163674000D01*
X141803000Y-163710000D01*
X141823000Y-163747000D01*
X141841000Y-163785000D01*
X141857000Y-163823000D01*
X141871000Y-163863000D01*
X141883000Y-163903000D01*
X141893000Y-163944000D01*
X141900000Y-163985000D01*
X141906000Y-164026000D01*
X141909000Y-164068000D01*
X141910000Y-164110000D01*
X141909000Y-164152000D01*
X141906000Y-164194000D01*
X141900000Y-164235000D01*
X141893000Y-164276000D01*
X141883000Y-164317000D01*
X141871000Y-164357000D01*
X141857000Y-164397000D01*
X141841000Y-164435000D01*
X141823000Y-164473000D01*
X141803000Y-164510000D01*
X141781000Y-164546000D01*
X141757000Y-164580000D01*
X141732000Y-164613000D01*
X141705000Y-164645000D01*
X141676000Y-164676000D01*
X141645000Y-164705000D01*
X141613000Y-164732000D01*
X141580000Y-164757000D01*
X141546000Y-164781000D01*
X141510000Y-164803000D01*
X141473000Y-164823000D01*
X141435000Y-164841000D01*
X141397000Y-164857000D01*
X141357000Y-164871000D01*
X141317000Y-164883000D01*
X141276000Y-164893000D01*
X141235000Y-164900000D01*
X141194000Y-164906000D01*
X141152000Y-164909000D01*
X141110000Y-164910000D01*
X138710000Y-164910000D01*
X138710000Y-163310000D01*
X141110000Y-163310000D01*
X141152000Y-163311000D01*
G36*
X141152000Y-163311000D02*
G01*
X141194000Y-163314000D01*
X141235000Y-163320000D01*
X141276000Y-163327000D01*
X141317000Y-163337000D01*
X141357000Y-163349000D01*
X141397000Y-163363000D01*
X141435000Y-163379000D01*
X141473000Y-163397000D01*
X141510000Y-163417000D01*
X141546000Y-163439000D01*
X141580000Y-163463000D01*
X141613000Y-163488000D01*
X141645000Y-163515000D01*
X141676000Y-163544000D01*
X141705000Y-163575000D01*
X141732000Y-163607000D01*
X141757000Y-163640000D01*
X141781000Y-163674000D01*
X141803000Y-163710000D01*
X141823000Y-163747000D01*
X141841000Y-163785000D01*
X141857000Y-163823000D01*
X141871000Y-163863000D01*
X141883000Y-163903000D01*
X141893000Y-163944000D01*
X141900000Y-163985000D01*
X141906000Y-164026000D01*
X141909000Y-164068000D01*
X141910000Y-164110000D01*
X141909000Y-164152000D01*
X141906000Y-164194000D01*
X141900000Y-164235000D01*
X141893000Y-164276000D01*
X141883000Y-164317000D01*
X141871000Y-164357000D01*
X141857000Y-164397000D01*
X141841000Y-164435000D01*
X141823000Y-164473000D01*
X141803000Y-164510000D01*
X141781000Y-164546000D01*
X141757000Y-164580000D01*
X141732000Y-164613000D01*
X141705000Y-164645000D01*
X141676000Y-164676000D01*
X141645000Y-164705000D01*
X141613000Y-164732000D01*
X141580000Y-164757000D01*
X141546000Y-164781000D01*
X141510000Y-164803000D01*
X141473000Y-164823000D01*
X141435000Y-164841000D01*
X141397000Y-164857000D01*
X141357000Y-164871000D01*
X141317000Y-164883000D01*
X141276000Y-164893000D01*
X141235000Y-164900000D01*
X141194000Y-164906000D01*
X141152000Y-164909000D01*
X141110000Y-164910000D01*
X138710000Y-164910000D01*
X138710000Y-163310000D01*
X141110000Y-163310000D01*
X141152000Y-163311000D01*
G37*
X141152000Y-160771000D02*
X141194000Y-160774000D01*
X141235000Y-160780000D01*
X141276000Y-160787000D01*
X141317000Y-160797000D01*
X141357000Y-160809000D01*
X141397000Y-160823000D01*
X141435000Y-160839000D01*
X141473000Y-160857000D01*
X141510000Y-160877000D01*
X141546000Y-160899000D01*
X141580000Y-160923000D01*
X141613000Y-160948000D01*
X141645000Y-160975000D01*
X141676000Y-161004000D01*
X141705000Y-161035000D01*
X141732000Y-161067000D01*
X141757000Y-161100000D01*
X141781000Y-161134000D01*
X141803000Y-161170000D01*
X141823000Y-161207000D01*
X141841000Y-161245000D01*
X141857000Y-161283000D01*
X141871000Y-161323000D01*
X141883000Y-161363000D01*
X141893000Y-161404000D01*
X141900000Y-161445000D01*
X141906000Y-161486000D01*
X141909000Y-161528000D01*
X141910000Y-161570000D01*
X141909000Y-161612000D01*
X141906000Y-161654000D01*
X141900000Y-161695000D01*
X141893000Y-161736000D01*
X141883000Y-161777000D01*
X141871000Y-161817000D01*
X141857000Y-161857000D01*
X141841000Y-161895000D01*
X141823000Y-161933000D01*
X141803000Y-161970000D01*
X141781000Y-162006000D01*
X141757000Y-162040000D01*
X141732000Y-162073000D01*
X141705000Y-162105000D01*
X141676000Y-162136000D01*
X141645000Y-162165000D01*
X141613000Y-162192000D01*
X141580000Y-162217000D01*
X141546000Y-162241000D01*
X141510000Y-162263000D01*
X141473000Y-162283000D01*
X141435000Y-162301000D01*
X141397000Y-162317000D01*
X141357000Y-162331000D01*
X141317000Y-162343000D01*
X141276000Y-162353000D01*
X141235000Y-162360000D01*
X141194000Y-162366000D01*
X141152000Y-162369000D01*
X141110000Y-162370000D01*
X138710000Y-162370000D01*
X138710000Y-160770000D01*
X141110000Y-160770000D01*
X141152000Y-160771000D01*
G36*
X141152000Y-160771000D02*
G01*
X141194000Y-160774000D01*
X141235000Y-160780000D01*
X141276000Y-160787000D01*
X141317000Y-160797000D01*
X141357000Y-160809000D01*
X141397000Y-160823000D01*
X141435000Y-160839000D01*
X141473000Y-160857000D01*
X141510000Y-160877000D01*
X141546000Y-160899000D01*
X141580000Y-160923000D01*
X141613000Y-160948000D01*
X141645000Y-160975000D01*
X141676000Y-161004000D01*
X141705000Y-161035000D01*
X141732000Y-161067000D01*
X141757000Y-161100000D01*
X141781000Y-161134000D01*
X141803000Y-161170000D01*
X141823000Y-161207000D01*
X141841000Y-161245000D01*
X141857000Y-161283000D01*
X141871000Y-161323000D01*
X141883000Y-161363000D01*
X141893000Y-161404000D01*
X141900000Y-161445000D01*
X141906000Y-161486000D01*
X141909000Y-161528000D01*
X141910000Y-161570000D01*
X141909000Y-161612000D01*
X141906000Y-161654000D01*
X141900000Y-161695000D01*
X141893000Y-161736000D01*
X141883000Y-161777000D01*
X141871000Y-161817000D01*
X141857000Y-161857000D01*
X141841000Y-161895000D01*
X141823000Y-161933000D01*
X141803000Y-161970000D01*
X141781000Y-162006000D01*
X141757000Y-162040000D01*
X141732000Y-162073000D01*
X141705000Y-162105000D01*
X141676000Y-162136000D01*
X141645000Y-162165000D01*
X141613000Y-162192000D01*
X141580000Y-162217000D01*
X141546000Y-162241000D01*
X141510000Y-162263000D01*
X141473000Y-162283000D01*
X141435000Y-162301000D01*
X141397000Y-162317000D01*
X141357000Y-162331000D01*
X141317000Y-162343000D01*
X141276000Y-162353000D01*
X141235000Y-162360000D01*
X141194000Y-162366000D01*
X141152000Y-162369000D01*
X141110000Y-162370000D01*
X138710000Y-162370000D01*
X138710000Y-160770000D01*
X141110000Y-160770000D01*
X141152000Y-160771000D01*
G37*
X141152000Y-158231000D02*
X141194000Y-158234000D01*
X141235000Y-158240000D01*
X141276000Y-158247000D01*
X141317000Y-158257000D01*
X141357000Y-158269000D01*
X141397000Y-158283000D01*
X141435000Y-158299000D01*
X141473000Y-158317000D01*
X141510000Y-158337000D01*
X141546000Y-158359000D01*
X141580000Y-158383000D01*
X141613000Y-158408000D01*
X141645000Y-158435000D01*
X141676000Y-158464000D01*
X141705000Y-158495000D01*
X141732000Y-158527000D01*
X141757000Y-158560000D01*
X141781000Y-158594000D01*
X141803000Y-158630000D01*
X141823000Y-158667000D01*
X141841000Y-158705000D01*
X141857000Y-158743000D01*
X141871000Y-158783000D01*
X141883000Y-158823000D01*
X141893000Y-158864000D01*
X141900000Y-158905000D01*
X141906000Y-158946000D01*
X141909000Y-158988000D01*
X141910000Y-159030000D01*
X141909000Y-159072000D01*
X141906000Y-159114000D01*
X141900000Y-159155000D01*
X141893000Y-159196000D01*
X141883000Y-159237000D01*
X141871000Y-159277000D01*
X141857000Y-159317000D01*
X141841000Y-159355000D01*
X141823000Y-159393000D01*
X141803000Y-159430000D01*
X141781000Y-159466000D01*
X141757000Y-159500000D01*
X141732000Y-159533000D01*
X141705000Y-159565000D01*
X141676000Y-159596000D01*
X141645000Y-159625000D01*
X141613000Y-159652000D01*
X141580000Y-159677000D01*
X141546000Y-159701000D01*
X141510000Y-159723000D01*
X141473000Y-159743000D01*
X141435000Y-159761000D01*
X141397000Y-159777000D01*
X141357000Y-159791000D01*
X141317000Y-159803000D01*
X141276000Y-159813000D01*
X141235000Y-159820000D01*
X141194000Y-159826000D01*
X141152000Y-159829000D01*
X141110000Y-159830000D01*
X138710000Y-159830000D01*
X138710000Y-158230000D01*
X141110000Y-158230000D01*
X141152000Y-158231000D01*
G36*
X141152000Y-158231000D02*
G01*
X141194000Y-158234000D01*
X141235000Y-158240000D01*
X141276000Y-158247000D01*
X141317000Y-158257000D01*
X141357000Y-158269000D01*
X141397000Y-158283000D01*
X141435000Y-158299000D01*
X141473000Y-158317000D01*
X141510000Y-158337000D01*
X141546000Y-158359000D01*
X141580000Y-158383000D01*
X141613000Y-158408000D01*
X141645000Y-158435000D01*
X141676000Y-158464000D01*
X141705000Y-158495000D01*
X141732000Y-158527000D01*
X141757000Y-158560000D01*
X141781000Y-158594000D01*
X141803000Y-158630000D01*
X141823000Y-158667000D01*
X141841000Y-158705000D01*
X141857000Y-158743000D01*
X141871000Y-158783000D01*
X141883000Y-158823000D01*
X141893000Y-158864000D01*
X141900000Y-158905000D01*
X141906000Y-158946000D01*
X141909000Y-158988000D01*
X141910000Y-159030000D01*
X141909000Y-159072000D01*
X141906000Y-159114000D01*
X141900000Y-159155000D01*
X141893000Y-159196000D01*
X141883000Y-159237000D01*
X141871000Y-159277000D01*
X141857000Y-159317000D01*
X141841000Y-159355000D01*
X141823000Y-159393000D01*
X141803000Y-159430000D01*
X141781000Y-159466000D01*
X141757000Y-159500000D01*
X141732000Y-159533000D01*
X141705000Y-159565000D01*
X141676000Y-159596000D01*
X141645000Y-159625000D01*
X141613000Y-159652000D01*
X141580000Y-159677000D01*
X141546000Y-159701000D01*
X141510000Y-159723000D01*
X141473000Y-159743000D01*
X141435000Y-159761000D01*
X141397000Y-159777000D01*
X141357000Y-159791000D01*
X141317000Y-159803000D01*
X141276000Y-159813000D01*
X141235000Y-159820000D01*
X141194000Y-159826000D01*
X141152000Y-159829000D01*
X141110000Y-159830000D01*
X138710000Y-159830000D01*
X138710000Y-158230000D01*
X141110000Y-158230000D01*
X141152000Y-158231000D01*
G37*
X141152000Y-155691000D02*
X141194000Y-155694000D01*
X141235000Y-155700000D01*
X141276000Y-155707000D01*
X141317000Y-155717000D01*
X141357000Y-155729000D01*
X141397000Y-155743000D01*
X141435000Y-155759000D01*
X141473000Y-155777000D01*
X141510000Y-155797000D01*
X141546000Y-155819000D01*
X141580000Y-155843000D01*
X141613000Y-155868000D01*
X141645000Y-155895000D01*
X141676000Y-155924000D01*
X141705000Y-155955000D01*
X141732000Y-155987000D01*
X141757000Y-156020000D01*
X141781000Y-156054000D01*
X141803000Y-156090000D01*
X141823000Y-156127000D01*
X141841000Y-156165000D01*
X141857000Y-156203000D01*
X141871000Y-156243000D01*
X141883000Y-156283000D01*
X141893000Y-156324000D01*
X141900000Y-156365000D01*
X141906000Y-156406000D01*
X141909000Y-156448000D01*
X141910000Y-156490000D01*
X141909000Y-156532000D01*
X141906000Y-156574000D01*
X141900000Y-156615000D01*
X141893000Y-156656000D01*
X141883000Y-156697000D01*
X141871000Y-156737000D01*
X141857000Y-156777000D01*
X141841000Y-156815000D01*
X141823000Y-156853000D01*
X141803000Y-156890000D01*
X141781000Y-156926000D01*
X141757000Y-156960000D01*
X141732000Y-156993000D01*
X141705000Y-157025000D01*
X141676000Y-157056000D01*
X141645000Y-157085000D01*
X141613000Y-157112000D01*
X141580000Y-157137000D01*
X141546000Y-157161000D01*
X141510000Y-157183000D01*
X141473000Y-157203000D01*
X141435000Y-157221000D01*
X141397000Y-157237000D01*
X141357000Y-157251000D01*
X141317000Y-157263000D01*
X141276000Y-157273000D01*
X141235000Y-157280000D01*
X141194000Y-157286000D01*
X141152000Y-157289000D01*
X141110000Y-157290000D01*
X138710000Y-157290000D01*
X138710000Y-155690000D01*
X141110000Y-155690000D01*
X141152000Y-155691000D01*
G36*
X141152000Y-155691000D02*
G01*
X141194000Y-155694000D01*
X141235000Y-155700000D01*
X141276000Y-155707000D01*
X141317000Y-155717000D01*
X141357000Y-155729000D01*
X141397000Y-155743000D01*
X141435000Y-155759000D01*
X141473000Y-155777000D01*
X141510000Y-155797000D01*
X141546000Y-155819000D01*
X141580000Y-155843000D01*
X141613000Y-155868000D01*
X141645000Y-155895000D01*
X141676000Y-155924000D01*
X141705000Y-155955000D01*
X141732000Y-155987000D01*
X141757000Y-156020000D01*
X141781000Y-156054000D01*
X141803000Y-156090000D01*
X141823000Y-156127000D01*
X141841000Y-156165000D01*
X141857000Y-156203000D01*
X141871000Y-156243000D01*
X141883000Y-156283000D01*
X141893000Y-156324000D01*
X141900000Y-156365000D01*
X141906000Y-156406000D01*
X141909000Y-156448000D01*
X141910000Y-156490000D01*
X141909000Y-156532000D01*
X141906000Y-156574000D01*
X141900000Y-156615000D01*
X141893000Y-156656000D01*
X141883000Y-156697000D01*
X141871000Y-156737000D01*
X141857000Y-156777000D01*
X141841000Y-156815000D01*
X141823000Y-156853000D01*
X141803000Y-156890000D01*
X141781000Y-156926000D01*
X141757000Y-156960000D01*
X141732000Y-156993000D01*
X141705000Y-157025000D01*
X141676000Y-157056000D01*
X141645000Y-157085000D01*
X141613000Y-157112000D01*
X141580000Y-157137000D01*
X141546000Y-157161000D01*
X141510000Y-157183000D01*
X141473000Y-157203000D01*
X141435000Y-157221000D01*
X141397000Y-157237000D01*
X141357000Y-157251000D01*
X141317000Y-157263000D01*
X141276000Y-157273000D01*
X141235000Y-157280000D01*
X141194000Y-157286000D01*
X141152000Y-157289000D01*
X141110000Y-157290000D01*
X138710000Y-157290000D01*
X138710000Y-155690000D01*
X141110000Y-155690000D01*
X141152000Y-155691000D01*
G37*
X141152000Y-150611000D02*
X141194000Y-150614000D01*
X141235000Y-150620000D01*
X141276000Y-150627000D01*
X141317000Y-150637000D01*
X141357000Y-150649000D01*
X141397000Y-150663000D01*
X141435000Y-150679000D01*
X141473000Y-150697000D01*
X141510000Y-150717000D01*
X141546000Y-150739000D01*
X141580000Y-150763000D01*
X141613000Y-150788000D01*
X141645000Y-150815000D01*
X141676000Y-150844000D01*
X141705000Y-150875000D01*
X141732000Y-150907000D01*
X141757000Y-150940000D01*
X141781000Y-150974000D01*
X141803000Y-151010000D01*
X141823000Y-151047000D01*
X141841000Y-151085000D01*
X141857000Y-151123000D01*
X141871000Y-151163000D01*
X141883000Y-151203000D01*
X141893000Y-151244000D01*
X141900000Y-151285000D01*
X141906000Y-151326000D01*
X141909000Y-151368000D01*
X141910000Y-151410000D01*
X141909000Y-151452000D01*
X141906000Y-151494000D01*
X141900000Y-151535000D01*
X141893000Y-151576000D01*
X141883000Y-151617000D01*
X141871000Y-151657000D01*
X141857000Y-151697000D01*
X141841000Y-151735000D01*
X141823000Y-151773000D01*
X141803000Y-151810000D01*
X141781000Y-151846000D01*
X141757000Y-151880000D01*
X141732000Y-151913000D01*
X141705000Y-151945000D01*
X141676000Y-151976000D01*
X141645000Y-152005000D01*
X141613000Y-152032000D01*
X141580000Y-152057000D01*
X141546000Y-152081000D01*
X141510000Y-152103000D01*
X141473000Y-152123000D01*
X141435000Y-152141000D01*
X141397000Y-152157000D01*
X141357000Y-152171000D01*
X141317000Y-152183000D01*
X141276000Y-152193000D01*
X141235000Y-152200000D01*
X141194000Y-152206000D01*
X141152000Y-152209000D01*
X141110000Y-152210000D01*
X138710000Y-152210000D01*
X138710000Y-150610000D01*
X141110000Y-150610000D01*
X141152000Y-150611000D01*
G36*
X141152000Y-150611000D02*
G01*
X141194000Y-150614000D01*
X141235000Y-150620000D01*
X141276000Y-150627000D01*
X141317000Y-150637000D01*
X141357000Y-150649000D01*
X141397000Y-150663000D01*
X141435000Y-150679000D01*
X141473000Y-150697000D01*
X141510000Y-150717000D01*
X141546000Y-150739000D01*
X141580000Y-150763000D01*
X141613000Y-150788000D01*
X141645000Y-150815000D01*
X141676000Y-150844000D01*
X141705000Y-150875000D01*
X141732000Y-150907000D01*
X141757000Y-150940000D01*
X141781000Y-150974000D01*
X141803000Y-151010000D01*
X141823000Y-151047000D01*
X141841000Y-151085000D01*
X141857000Y-151123000D01*
X141871000Y-151163000D01*
X141883000Y-151203000D01*
X141893000Y-151244000D01*
X141900000Y-151285000D01*
X141906000Y-151326000D01*
X141909000Y-151368000D01*
X141910000Y-151410000D01*
X141909000Y-151452000D01*
X141906000Y-151494000D01*
X141900000Y-151535000D01*
X141893000Y-151576000D01*
X141883000Y-151617000D01*
X141871000Y-151657000D01*
X141857000Y-151697000D01*
X141841000Y-151735000D01*
X141823000Y-151773000D01*
X141803000Y-151810000D01*
X141781000Y-151846000D01*
X141757000Y-151880000D01*
X141732000Y-151913000D01*
X141705000Y-151945000D01*
X141676000Y-151976000D01*
X141645000Y-152005000D01*
X141613000Y-152032000D01*
X141580000Y-152057000D01*
X141546000Y-152081000D01*
X141510000Y-152103000D01*
X141473000Y-152123000D01*
X141435000Y-152141000D01*
X141397000Y-152157000D01*
X141357000Y-152171000D01*
X141317000Y-152183000D01*
X141276000Y-152193000D01*
X141235000Y-152200000D01*
X141194000Y-152206000D01*
X141152000Y-152209000D01*
X141110000Y-152210000D01*
X138710000Y-152210000D01*
X138710000Y-150610000D01*
X141110000Y-150610000D01*
X141152000Y-150611000D01*
G37*
X141152000Y-148071000D02*
X141194000Y-148074000D01*
X141235000Y-148080000D01*
X141276000Y-148087000D01*
X141317000Y-148097000D01*
X141357000Y-148109000D01*
X141397000Y-148123000D01*
X141435000Y-148139000D01*
X141473000Y-148157000D01*
X141510000Y-148177000D01*
X141546000Y-148199000D01*
X141580000Y-148223000D01*
X141613000Y-148248000D01*
X141645000Y-148275000D01*
X141676000Y-148304000D01*
X141705000Y-148335000D01*
X141732000Y-148367000D01*
X141757000Y-148400000D01*
X141781000Y-148434000D01*
X141803000Y-148470000D01*
X141823000Y-148507000D01*
X141841000Y-148545000D01*
X141857000Y-148583000D01*
X141871000Y-148623000D01*
X141883000Y-148663000D01*
X141893000Y-148704000D01*
X141900000Y-148745000D01*
X141906000Y-148786000D01*
X141909000Y-148828000D01*
X141910000Y-148870000D01*
X141909000Y-148912000D01*
X141906000Y-148954000D01*
X141900000Y-148995000D01*
X141893000Y-149036000D01*
X141883000Y-149077000D01*
X141871000Y-149117000D01*
X141857000Y-149157000D01*
X141841000Y-149195000D01*
X141823000Y-149233000D01*
X141803000Y-149270000D01*
X141781000Y-149306000D01*
X141757000Y-149340000D01*
X141732000Y-149373000D01*
X141705000Y-149405000D01*
X141676000Y-149436000D01*
X141645000Y-149465000D01*
X141613000Y-149492000D01*
X141580000Y-149517000D01*
X141546000Y-149541000D01*
X141510000Y-149563000D01*
X141473000Y-149583000D01*
X141435000Y-149601000D01*
X141397000Y-149617000D01*
X141357000Y-149631000D01*
X141317000Y-149643000D01*
X141276000Y-149653000D01*
X141235000Y-149660000D01*
X141194000Y-149666000D01*
X141152000Y-149669000D01*
X141110000Y-149670000D01*
X138710000Y-149670000D01*
X138710000Y-148070000D01*
X141110000Y-148070000D01*
X141152000Y-148071000D01*
G36*
X141152000Y-148071000D02*
G01*
X141194000Y-148074000D01*
X141235000Y-148080000D01*
X141276000Y-148087000D01*
X141317000Y-148097000D01*
X141357000Y-148109000D01*
X141397000Y-148123000D01*
X141435000Y-148139000D01*
X141473000Y-148157000D01*
X141510000Y-148177000D01*
X141546000Y-148199000D01*
X141580000Y-148223000D01*
X141613000Y-148248000D01*
X141645000Y-148275000D01*
X141676000Y-148304000D01*
X141705000Y-148335000D01*
X141732000Y-148367000D01*
X141757000Y-148400000D01*
X141781000Y-148434000D01*
X141803000Y-148470000D01*
X141823000Y-148507000D01*
X141841000Y-148545000D01*
X141857000Y-148583000D01*
X141871000Y-148623000D01*
X141883000Y-148663000D01*
X141893000Y-148704000D01*
X141900000Y-148745000D01*
X141906000Y-148786000D01*
X141909000Y-148828000D01*
X141910000Y-148870000D01*
X141909000Y-148912000D01*
X141906000Y-148954000D01*
X141900000Y-148995000D01*
X141893000Y-149036000D01*
X141883000Y-149077000D01*
X141871000Y-149117000D01*
X141857000Y-149157000D01*
X141841000Y-149195000D01*
X141823000Y-149233000D01*
X141803000Y-149270000D01*
X141781000Y-149306000D01*
X141757000Y-149340000D01*
X141732000Y-149373000D01*
X141705000Y-149405000D01*
X141676000Y-149436000D01*
X141645000Y-149465000D01*
X141613000Y-149492000D01*
X141580000Y-149517000D01*
X141546000Y-149541000D01*
X141510000Y-149563000D01*
X141473000Y-149583000D01*
X141435000Y-149601000D01*
X141397000Y-149617000D01*
X141357000Y-149631000D01*
X141317000Y-149643000D01*
X141276000Y-149653000D01*
X141235000Y-149660000D01*
X141194000Y-149666000D01*
X141152000Y-149669000D01*
X141110000Y-149670000D01*
X138710000Y-149670000D01*
X138710000Y-148070000D01*
X141110000Y-148070000D01*
X141152000Y-148071000D01*
G37*
X161290000Y-192850000D02*
X158290000Y-192850000D01*
X158280000Y-192850000D01*
X158269000Y-192849000D01*
X158259000Y-192848000D01*
X158248000Y-192846000D01*
X158238000Y-192843000D01*
X158228000Y-192840000D01*
X158218000Y-192837000D01*
X158209000Y-192833000D01*
X158199000Y-192828000D01*
X158190000Y-192823000D01*
X158181000Y-192818000D01*
X158172000Y-192812000D01*
X158164000Y-192805000D01*
X158156000Y-192799000D01*
X158149000Y-192791000D01*
X158141000Y-192784000D01*
X158135000Y-192776000D01*
X158128000Y-192768000D01*
X158122000Y-192759000D01*
X158117000Y-192750000D01*
X158112000Y-192741000D01*
X158107000Y-192731000D01*
X158103000Y-192722000D01*
X158100000Y-192712000D01*
X158097000Y-192702000D01*
X158094000Y-192692000D01*
X158092000Y-192681000D01*
X158091000Y-192671000D01*
X158090000Y-192660000D01*
X158090000Y-192650000D01*
X158090000Y-191450000D01*
X158090000Y-191440000D01*
X158091000Y-191429000D01*
X158092000Y-191419000D01*
X158094000Y-191408000D01*
X158097000Y-191398000D01*
X158100000Y-191388000D01*
X158103000Y-191378000D01*
X158107000Y-191369000D01*
X158112000Y-191359000D01*
X158117000Y-191350000D01*
X158122000Y-191341000D01*
X158128000Y-191332000D01*
X158135000Y-191324000D01*
X158141000Y-191316000D01*
X158149000Y-191309000D01*
X158156000Y-191301000D01*
X158164000Y-191295000D01*
X158172000Y-191288000D01*
X158181000Y-191282000D01*
X158190000Y-191277000D01*
X158199000Y-191272000D01*
X158209000Y-191267000D01*
X158218000Y-191263000D01*
X158228000Y-191260000D01*
X158238000Y-191257000D01*
X158248000Y-191254000D01*
X158259000Y-191252000D01*
X158269000Y-191251000D01*
X158280000Y-191250000D01*
X158290000Y-191250000D01*
X161290000Y-191250000D01*
X161290000Y-192850000D01*
G36*
X161290000Y-192850000D02*
G01*
X158290000Y-192850000D01*
X158280000Y-192850000D01*
X158269000Y-192849000D01*
X158259000Y-192848000D01*
X158248000Y-192846000D01*
X158238000Y-192843000D01*
X158228000Y-192840000D01*
X158218000Y-192837000D01*
X158209000Y-192833000D01*
X158199000Y-192828000D01*
X158190000Y-192823000D01*
X158181000Y-192818000D01*
X158172000Y-192812000D01*
X158164000Y-192805000D01*
X158156000Y-192799000D01*
X158149000Y-192791000D01*
X158141000Y-192784000D01*
X158135000Y-192776000D01*
X158128000Y-192768000D01*
X158122000Y-192759000D01*
X158117000Y-192750000D01*
X158112000Y-192741000D01*
X158107000Y-192731000D01*
X158103000Y-192722000D01*
X158100000Y-192712000D01*
X158097000Y-192702000D01*
X158094000Y-192692000D01*
X158092000Y-192681000D01*
X158091000Y-192671000D01*
X158090000Y-192660000D01*
X158090000Y-192650000D01*
X158090000Y-191450000D01*
X158090000Y-191440000D01*
X158091000Y-191429000D01*
X158092000Y-191419000D01*
X158094000Y-191408000D01*
X158097000Y-191398000D01*
X158100000Y-191388000D01*
X158103000Y-191378000D01*
X158107000Y-191369000D01*
X158112000Y-191359000D01*
X158117000Y-191350000D01*
X158122000Y-191341000D01*
X158128000Y-191332000D01*
X158135000Y-191324000D01*
X158141000Y-191316000D01*
X158149000Y-191309000D01*
X158156000Y-191301000D01*
X158164000Y-191295000D01*
X158172000Y-191288000D01*
X158181000Y-191282000D01*
X158190000Y-191277000D01*
X158199000Y-191272000D01*
X158209000Y-191267000D01*
X158218000Y-191263000D01*
X158228000Y-191260000D01*
X158238000Y-191257000D01*
X158248000Y-191254000D01*
X158259000Y-191252000D01*
X158269000Y-191251000D01*
X158280000Y-191250000D01*
X158290000Y-191250000D01*
X161290000Y-191250000D01*
X161290000Y-192850000D01*
G37*
X161290000Y-180150000D02*
X158290000Y-180150000D01*
X158280000Y-180150000D01*
X158269000Y-180149000D01*
X158259000Y-180148000D01*
X158248000Y-180146000D01*
X158238000Y-180143000D01*
X158228000Y-180140000D01*
X158218000Y-180137000D01*
X158209000Y-180133000D01*
X158199000Y-180128000D01*
X158190000Y-180123000D01*
X158181000Y-180118000D01*
X158172000Y-180112000D01*
X158164000Y-180105000D01*
X158156000Y-180099000D01*
X158149000Y-180091000D01*
X158141000Y-180084000D01*
X158135000Y-180076000D01*
X158128000Y-180068000D01*
X158122000Y-180059000D01*
X158117000Y-180050000D01*
X158112000Y-180041000D01*
X158107000Y-180031000D01*
X158103000Y-180022000D01*
X158100000Y-180012000D01*
X158097000Y-180002000D01*
X158094000Y-179992000D01*
X158092000Y-179981000D01*
X158091000Y-179971000D01*
X158090000Y-179960000D01*
X158090000Y-179950000D01*
X158090000Y-178750000D01*
X158090000Y-178740000D01*
X158091000Y-178729000D01*
X158092000Y-178719000D01*
X158094000Y-178708000D01*
X158097000Y-178698000D01*
X158100000Y-178688000D01*
X158103000Y-178678000D01*
X158107000Y-178669000D01*
X158112000Y-178659000D01*
X158117000Y-178650000D01*
X158122000Y-178641000D01*
X158128000Y-178632000D01*
X158135000Y-178624000D01*
X158141000Y-178616000D01*
X158149000Y-178609000D01*
X158156000Y-178601000D01*
X158164000Y-178595000D01*
X158172000Y-178588000D01*
X158181000Y-178582000D01*
X158190000Y-178577000D01*
X158199000Y-178572000D01*
X158209000Y-178567000D01*
X158218000Y-178563000D01*
X158228000Y-178560000D01*
X158238000Y-178557000D01*
X158248000Y-178554000D01*
X158259000Y-178552000D01*
X158269000Y-178551000D01*
X158280000Y-178550000D01*
X158290000Y-178550000D01*
X161290000Y-178550000D01*
X161290000Y-180150000D01*
G36*
X161290000Y-180150000D02*
G01*
X158290000Y-180150000D01*
X158280000Y-180150000D01*
X158269000Y-180149000D01*
X158259000Y-180148000D01*
X158248000Y-180146000D01*
X158238000Y-180143000D01*
X158228000Y-180140000D01*
X158218000Y-180137000D01*
X158209000Y-180133000D01*
X158199000Y-180128000D01*
X158190000Y-180123000D01*
X158181000Y-180118000D01*
X158172000Y-180112000D01*
X158164000Y-180105000D01*
X158156000Y-180099000D01*
X158149000Y-180091000D01*
X158141000Y-180084000D01*
X158135000Y-180076000D01*
X158128000Y-180068000D01*
X158122000Y-180059000D01*
X158117000Y-180050000D01*
X158112000Y-180041000D01*
X158107000Y-180031000D01*
X158103000Y-180022000D01*
X158100000Y-180012000D01*
X158097000Y-180002000D01*
X158094000Y-179992000D01*
X158092000Y-179981000D01*
X158091000Y-179971000D01*
X158090000Y-179960000D01*
X158090000Y-179950000D01*
X158090000Y-178750000D01*
X158090000Y-178740000D01*
X158091000Y-178729000D01*
X158092000Y-178719000D01*
X158094000Y-178708000D01*
X158097000Y-178698000D01*
X158100000Y-178688000D01*
X158103000Y-178678000D01*
X158107000Y-178669000D01*
X158112000Y-178659000D01*
X158117000Y-178650000D01*
X158122000Y-178641000D01*
X158128000Y-178632000D01*
X158135000Y-178624000D01*
X158141000Y-178616000D01*
X158149000Y-178609000D01*
X158156000Y-178601000D01*
X158164000Y-178595000D01*
X158172000Y-178588000D01*
X158181000Y-178582000D01*
X158190000Y-178577000D01*
X158199000Y-178572000D01*
X158209000Y-178567000D01*
X158218000Y-178563000D01*
X158228000Y-178560000D01*
X158238000Y-178557000D01*
X158248000Y-178554000D01*
X158259000Y-178552000D01*
X158269000Y-178551000D01*
X158280000Y-178550000D01*
X158290000Y-178550000D01*
X161290000Y-178550000D01*
X161290000Y-180150000D01*
G37*
X161290000Y-167450000D02*
X158290000Y-167450000D01*
X158280000Y-167450000D01*
X158269000Y-167449000D01*
X158259000Y-167448000D01*
X158248000Y-167446000D01*
X158238000Y-167443000D01*
X158228000Y-167440000D01*
X158218000Y-167437000D01*
X158209000Y-167433000D01*
X158199000Y-167428000D01*
X158190000Y-167423000D01*
X158181000Y-167418000D01*
X158172000Y-167412000D01*
X158164000Y-167405000D01*
X158156000Y-167399000D01*
X158149000Y-167391000D01*
X158141000Y-167384000D01*
X158135000Y-167376000D01*
X158128000Y-167368000D01*
X158122000Y-167359000D01*
X158117000Y-167350000D01*
X158112000Y-167341000D01*
X158107000Y-167331000D01*
X158103000Y-167322000D01*
X158100000Y-167312000D01*
X158097000Y-167302000D01*
X158094000Y-167292000D01*
X158092000Y-167281000D01*
X158091000Y-167271000D01*
X158090000Y-167260000D01*
X158090000Y-167250000D01*
X158090000Y-166050000D01*
X158090000Y-166040000D01*
X158091000Y-166029000D01*
X158092000Y-166019000D01*
X158094000Y-166008000D01*
X158097000Y-165998000D01*
X158100000Y-165988000D01*
X158103000Y-165978000D01*
X158107000Y-165969000D01*
X158112000Y-165959000D01*
X158117000Y-165950000D01*
X158122000Y-165941000D01*
X158128000Y-165932000D01*
X158135000Y-165924000D01*
X158141000Y-165916000D01*
X158149000Y-165909000D01*
X158156000Y-165901000D01*
X158164000Y-165895000D01*
X158172000Y-165888000D01*
X158181000Y-165882000D01*
X158190000Y-165877000D01*
X158199000Y-165872000D01*
X158209000Y-165867000D01*
X158218000Y-165863000D01*
X158228000Y-165860000D01*
X158238000Y-165857000D01*
X158248000Y-165854000D01*
X158259000Y-165852000D01*
X158269000Y-165851000D01*
X158280000Y-165850000D01*
X158290000Y-165850000D01*
X161290000Y-165850000D01*
X161290000Y-167450000D01*
G36*
X161290000Y-167450000D02*
G01*
X158290000Y-167450000D01*
X158280000Y-167450000D01*
X158269000Y-167449000D01*
X158259000Y-167448000D01*
X158248000Y-167446000D01*
X158238000Y-167443000D01*
X158228000Y-167440000D01*
X158218000Y-167437000D01*
X158209000Y-167433000D01*
X158199000Y-167428000D01*
X158190000Y-167423000D01*
X158181000Y-167418000D01*
X158172000Y-167412000D01*
X158164000Y-167405000D01*
X158156000Y-167399000D01*
X158149000Y-167391000D01*
X158141000Y-167384000D01*
X158135000Y-167376000D01*
X158128000Y-167368000D01*
X158122000Y-167359000D01*
X158117000Y-167350000D01*
X158112000Y-167341000D01*
X158107000Y-167331000D01*
X158103000Y-167322000D01*
X158100000Y-167312000D01*
X158097000Y-167302000D01*
X158094000Y-167292000D01*
X158092000Y-167281000D01*
X158091000Y-167271000D01*
X158090000Y-167260000D01*
X158090000Y-167250000D01*
X158090000Y-166050000D01*
X158090000Y-166040000D01*
X158091000Y-166029000D01*
X158092000Y-166019000D01*
X158094000Y-166008000D01*
X158097000Y-165998000D01*
X158100000Y-165988000D01*
X158103000Y-165978000D01*
X158107000Y-165969000D01*
X158112000Y-165959000D01*
X158117000Y-165950000D01*
X158122000Y-165941000D01*
X158128000Y-165932000D01*
X158135000Y-165924000D01*
X158141000Y-165916000D01*
X158149000Y-165909000D01*
X158156000Y-165901000D01*
X158164000Y-165895000D01*
X158172000Y-165888000D01*
X158181000Y-165882000D01*
X158190000Y-165877000D01*
X158199000Y-165872000D01*
X158209000Y-165867000D01*
X158218000Y-165863000D01*
X158228000Y-165860000D01*
X158238000Y-165857000D01*
X158248000Y-165854000D01*
X158259000Y-165852000D01*
X158269000Y-165851000D01*
X158280000Y-165850000D01*
X158290000Y-165850000D01*
X161290000Y-165850000D01*
X161290000Y-167450000D01*
G37*
X161290000Y-154750000D02*
X158290000Y-154750000D01*
X158280000Y-154750000D01*
X158269000Y-154749000D01*
X158259000Y-154748000D01*
X158248000Y-154746000D01*
X158238000Y-154743000D01*
X158228000Y-154740000D01*
X158218000Y-154737000D01*
X158209000Y-154733000D01*
X158199000Y-154728000D01*
X158190000Y-154723000D01*
X158181000Y-154718000D01*
X158172000Y-154712000D01*
X158164000Y-154705000D01*
X158156000Y-154699000D01*
X158149000Y-154691000D01*
X158141000Y-154684000D01*
X158135000Y-154676000D01*
X158128000Y-154668000D01*
X158122000Y-154659000D01*
X158117000Y-154650000D01*
X158112000Y-154641000D01*
X158107000Y-154631000D01*
X158103000Y-154622000D01*
X158100000Y-154612000D01*
X158097000Y-154602000D01*
X158094000Y-154592000D01*
X158092000Y-154581000D01*
X158091000Y-154571000D01*
X158090000Y-154560000D01*
X158090000Y-154550000D01*
X158090000Y-153350000D01*
X158090000Y-153340000D01*
X158091000Y-153329000D01*
X158092000Y-153319000D01*
X158094000Y-153308000D01*
X158097000Y-153298000D01*
X158100000Y-153288000D01*
X158103000Y-153278000D01*
X158107000Y-153269000D01*
X158112000Y-153259000D01*
X158117000Y-153250000D01*
X158122000Y-153241000D01*
X158128000Y-153232000D01*
X158135000Y-153224000D01*
X158141000Y-153216000D01*
X158149000Y-153209000D01*
X158156000Y-153201000D01*
X158164000Y-153195000D01*
X158172000Y-153188000D01*
X158181000Y-153182000D01*
X158190000Y-153177000D01*
X158199000Y-153172000D01*
X158209000Y-153167000D01*
X158218000Y-153163000D01*
X158228000Y-153160000D01*
X158238000Y-153157000D01*
X158248000Y-153154000D01*
X158259000Y-153152000D01*
X158269000Y-153151000D01*
X158280000Y-153150000D01*
X158290000Y-153150000D01*
X161290000Y-153150000D01*
X161290000Y-154750000D01*
G36*
X161290000Y-154750000D02*
G01*
X158290000Y-154750000D01*
X158280000Y-154750000D01*
X158269000Y-154749000D01*
X158259000Y-154748000D01*
X158248000Y-154746000D01*
X158238000Y-154743000D01*
X158228000Y-154740000D01*
X158218000Y-154737000D01*
X158209000Y-154733000D01*
X158199000Y-154728000D01*
X158190000Y-154723000D01*
X158181000Y-154718000D01*
X158172000Y-154712000D01*
X158164000Y-154705000D01*
X158156000Y-154699000D01*
X158149000Y-154691000D01*
X158141000Y-154684000D01*
X158135000Y-154676000D01*
X158128000Y-154668000D01*
X158122000Y-154659000D01*
X158117000Y-154650000D01*
X158112000Y-154641000D01*
X158107000Y-154631000D01*
X158103000Y-154622000D01*
X158100000Y-154612000D01*
X158097000Y-154602000D01*
X158094000Y-154592000D01*
X158092000Y-154581000D01*
X158091000Y-154571000D01*
X158090000Y-154560000D01*
X158090000Y-154550000D01*
X158090000Y-153350000D01*
X158090000Y-153340000D01*
X158091000Y-153329000D01*
X158092000Y-153319000D01*
X158094000Y-153308000D01*
X158097000Y-153298000D01*
X158100000Y-153288000D01*
X158103000Y-153278000D01*
X158107000Y-153269000D01*
X158112000Y-153259000D01*
X158117000Y-153250000D01*
X158122000Y-153241000D01*
X158128000Y-153232000D01*
X158135000Y-153224000D01*
X158141000Y-153216000D01*
X158149000Y-153209000D01*
X158156000Y-153201000D01*
X158164000Y-153195000D01*
X158172000Y-153188000D01*
X158181000Y-153182000D01*
X158190000Y-153177000D01*
X158199000Y-153172000D01*
X158209000Y-153167000D01*
X158218000Y-153163000D01*
X158228000Y-153160000D01*
X158238000Y-153157000D01*
X158248000Y-153154000D01*
X158259000Y-153152000D01*
X158269000Y-153151000D01*
X158280000Y-153150000D01*
X158290000Y-153150000D01*
X161290000Y-153150000D01*
X161290000Y-154750000D01*
G37*
X150800000Y-149700000D02*
X150800000Y-149710000D01*
X150799000Y-149721000D01*
X150798000Y-149731000D01*
X150796000Y-149742000D01*
X150793000Y-149752000D01*
X150790000Y-149762000D01*
X150787000Y-149772000D01*
X150783000Y-149781000D01*
X150778000Y-149791000D01*
X150773000Y-149800000D01*
X150768000Y-149809000D01*
X150762000Y-149818000D01*
X150755000Y-149826000D01*
X150749000Y-149834000D01*
X150741000Y-149841000D01*
X150734000Y-149849000D01*
X150726000Y-149855000D01*
X150718000Y-149862000D01*
X150709000Y-149868000D01*
X150700000Y-149873000D01*
X150691000Y-149878000D01*
X150681000Y-149883000D01*
X150672000Y-149887000D01*
X150662000Y-149890000D01*
X150652000Y-149893000D01*
X150642000Y-149896000D01*
X150631000Y-149898000D01*
X150621000Y-149899000D01*
X150610000Y-149900000D01*
X150600000Y-149900000D01*
X149400000Y-149900000D01*
X149390000Y-149900000D01*
X149379000Y-149899000D01*
X149369000Y-149898000D01*
X149358000Y-149896000D01*
X149348000Y-149893000D01*
X149338000Y-149890000D01*
X149328000Y-149887000D01*
X149319000Y-149883000D01*
X149309000Y-149878000D01*
X149300000Y-149873000D01*
X149291000Y-149868000D01*
X149282000Y-149862000D01*
X149274000Y-149855000D01*
X149266000Y-149849000D01*
X149259000Y-149841000D01*
X149251000Y-149834000D01*
X149245000Y-149826000D01*
X149238000Y-149818000D01*
X149232000Y-149809000D01*
X149227000Y-149800000D01*
X149222000Y-149791000D01*
X149217000Y-149781000D01*
X149213000Y-149772000D01*
X149210000Y-149762000D01*
X149207000Y-149752000D01*
X149204000Y-149742000D01*
X149202000Y-149731000D01*
X149201000Y-149721000D01*
X149200000Y-149710000D01*
X149200000Y-149700000D01*
X149200000Y-146700000D01*
X150800000Y-146700000D01*
X150800000Y-149700000D01*
G36*
X150800000Y-149700000D02*
G01*
X150800000Y-149710000D01*
X150799000Y-149721000D01*
X150798000Y-149731000D01*
X150796000Y-149742000D01*
X150793000Y-149752000D01*
X150790000Y-149762000D01*
X150787000Y-149772000D01*
X150783000Y-149781000D01*
X150778000Y-149791000D01*
X150773000Y-149800000D01*
X150768000Y-149809000D01*
X150762000Y-149818000D01*
X150755000Y-149826000D01*
X150749000Y-149834000D01*
X150741000Y-149841000D01*
X150734000Y-149849000D01*
X150726000Y-149855000D01*
X150718000Y-149862000D01*
X150709000Y-149868000D01*
X150700000Y-149873000D01*
X150691000Y-149878000D01*
X150681000Y-149883000D01*
X150672000Y-149887000D01*
X150662000Y-149890000D01*
X150652000Y-149893000D01*
X150642000Y-149896000D01*
X150631000Y-149898000D01*
X150621000Y-149899000D01*
X150610000Y-149900000D01*
X150600000Y-149900000D01*
X149400000Y-149900000D01*
X149390000Y-149900000D01*
X149379000Y-149899000D01*
X149369000Y-149898000D01*
X149358000Y-149896000D01*
X149348000Y-149893000D01*
X149338000Y-149890000D01*
X149328000Y-149887000D01*
X149319000Y-149883000D01*
X149309000Y-149878000D01*
X149300000Y-149873000D01*
X149291000Y-149868000D01*
X149282000Y-149862000D01*
X149274000Y-149855000D01*
X149266000Y-149849000D01*
X149259000Y-149841000D01*
X149251000Y-149834000D01*
X149245000Y-149826000D01*
X149238000Y-149818000D01*
X149232000Y-149809000D01*
X149227000Y-149800000D01*
X149222000Y-149791000D01*
X149217000Y-149781000D01*
X149213000Y-149772000D01*
X149210000Y-149762000D01*
X149207000Y-149752000D01*
X149204000Y-149742000D01*
X149202000Y-149731000D01*
X149201000Y-149721000D01*
X149200000Y-149710000D01*
X149200000Y-149700000D01*
X149200000Y-146700000D01*
X150800000Y-146700000D01*
X150800000Y-149700000D01*
G37*
X141731000Y-191251000D02*
X141741000Y-191252000D01*
X141752000Y-191254000D01*
X141762000Y-191257000D01*
X141772000Y-191260000D01*
X141782000Y-191263000D01*
X141791000Y-191267000D01*
X141801000Y-191272000D01*
X141810000Y-191277000D01*
X141819000Y-191282000D01*
X141828000Y-191288000D01*
X141836000Y-191295000D01*
X141844000Y-191301000D01*
X141851000Y-191309000D01*
X141859000Y-191316000D01*
X141865000Y-191324000D01*
X141872000Y-191332000D01*
X141878000Y-191341000D01*
X141883000Y-191350000D01*
X141888000Y-191359000D01*
X141893000Y-191369000D01*
X141897000Y-191378000D01*
X141900000Y-191388000D01*
X141903000Y-191398000D01*
X141906000Y-191408000D01*
X141908000Y-191419000D01*
X141909000Y-191429000D01*
X141910000Y-191440000D01*
X141910000Y-191450000D01*
X141910000Y-192650000D01*
X141910000Y-192660000D01*
X141909000Y-192671000D01*
X141908000Y-192681000D01*
X141906000Y-192692000D01*
X141903000Y-192702000D01*
X141900000Y-192712000D01*
X141897000Y-192722000D01*
X141893000Y-192731000D01*
X141888000Y-192741000D01*
X141883000Y-192750000D01*
X141878000Y-192759000D01*
X141872000Y-192768000D01*
X141865000Y-192776000D01*
X141859000Y-192784000D01*
X141851000Y-192791000D01*
X141844000Y-192799000D01*
X141836000Y-192805000D01*
X141828000Y-192812000D01*
X141819000Y-192818000D01*
X141810000Y-192823000D01*
X141801000Y-192828000D01*
X141791000Y-192833000D01*
X141782000Y-192837000D01*
X141772000Y-192840000D01*
X141762000Y-192843000D01*
X141752000Y-192846000D01*
X141741000Y-192848000D01*
X141731000Y-192849000D01*
X141720000Y-192850000D01*
X141710000Y-192850000D01*
X138710000Y-192850000D01*
X138710000Y-191250000D01*
X141710000Y-191250000D01*
X141720000Y-191250000D01*
X141731000Y-191251000D01*
G36*
X141731000Y-191251000D02*
G01*
X141741000Y-191252000D01*
X141752000Y-191254000D01*
X141762000Y-191257000D01*
X141772000Y-191260000D01*
X141782000Y-191263000D01*
X141791000Y-191267000D01*
X141801000Y-191272000D01*
X141810000Y-191277000D01*
X141819000Y-191282000D01*
X141828000Y-191288000D01*
X141836000Y-191295000D01*
X141844000Y-191301000D01*
X141851000Y-191309000D01*
X141859000Y-191316000D01*
X141865000Y-191324000D01*
X141872000Y-191332000D01*
X141878000Y-191341000D01*
X141883000Y-191350000D01*
X141888000Y-191359000D01*
X141893000Y-191369000D01*
X141897000Y-191378000D01*
X141900000Y-191388000D01*
X141903000Y-191398000D01*
X141906000Y-191408000D01*
X141908000Y-191419000D01*
X141909000Y-191429000D01*
X141910000Y-191440000D01*
X141910000Y-191450000D01*
X141910000Y-192650000D01*
X141910000Y-192660000D01*
X141909000Y-192671000D01*
X141908000Y-192681000D01*
X141906000Y-192692000D01*
X141903000Y-192702000D01*
X141900000Y-192712000D01*
X141897000Y-192722000D01*
X141893000Y-192731000D01*
X141888000Y-192741000D01*
X141883000Y-192750000D01*
X141878000Y-192759000D01*
X141872000Y-192768000D01*
X141865000Y-192776000D01*
X141859000Y-192784000D01*
X141851000Y-192791000D01*
X141844000Y-192799000D01*
X141836000Y-192805000D01*
X141828000Y-192812000D01*
X141819000Y-192818000D01*
X141810000Y-192823000D01*
X141801000Y-192828000D01*
X141791000Y-192833000D01*
X141782000Y-192837000D01*
X141772000Y-192840000D01*
X141762000Y-192843000D01*
X141752000Y-192846000D01*
X141741000Y-192848000D01*
X141731000Y-192849000D01*
X141720000Y-192850000D01*
X141710000Y-192850000D01*
X138710000Y-192850000D01*
X138710000Y-191250000D01*
X141710000Y-191250000D01*
X141720000Y-191250000D01*
X141731000Y-191251000D01*
G37*
X141731000Y-178551000D02*
X141741000Y-178552000D01*
X141752000Y-178554000D01*
X141762000Y-178557000D01*
X141772000Y-178560000D01*
X141782000Y-178563000D01*
X141791000Y-178567000D01*
X141801000Y-178572000D01*
X141810000Y-178577000D01*
X141819000Y-178582000D01*
X141828000Y-178588000D01*
X141836000Y-178595000D01*
X141844000Y-178601000D01*
X141851000Y-178609000D01*
X141859000Y-178616000D01*
X141865000Y-178624000D01*
X141872000Y-178632000D01*
X141878000Y-178641000D01*
X141883000Y-178650000D01*
X141888000Y-178659000D01*
X141893000Y-178669000D01*
X141897000Y-178678000D01*
X141900000Y-178688000D01*
X141903000Y-178698000D01*
X141906000Y-178708000D01*
X141908000Y-178719000D01*
X141909000Y-178729000D01*
X141910000Y-178740000D01*
X141910000Y-178750000D01*
X141910000Y-179950000D01*
X141910000Y-179960000D01*
X141909000Y-179971000D01*
X141908000Y-179981000D01*
X141906000Y-179992000D01*
X141903000Y-180002000D01*
X141900000Y-180012000D01*
X141897000Y-180022000D01*
X141893000Y-180031000D01*
X141888000Y-180041000D01*
X141883000Y-180050000D01*
X141878000Y-180059000D01*
X141872000Y-180068000D01*
X141865000Y-180076000D01*
X141859000Y-180084000D01*
X141851000Y-180091000D01*
X141844000Y-180099000D01*
X141836000Y-180105000D01*
X141828000Y-180112000D01*
X141819000Y-180118000D01*
X141810000Y-180123000D01*
X141801000Y-180128000D01*
X141791000Y-180133000D01*
X141782000Y-180137000D01*
X141772000Y-180140000D01*
X141762000Y-180143000D01*
X141752000Y-180146000D01*
X141741000Y-180148000D01*
X141731000Y-180149000D01*
X141720000Y-180150000D01*
X141710000Y-180150000D01*
X138710000Y-180150000D01*
X138710000Y-178550000D01*
X141710000Y-178550000D01*
X141720000Y-178550000D01*
X141731000Y-178551000D01*
G36*
X141731000Y-178551000D02*
G01*
X141741000Y-178552000D01*
X141752000Y-178554000D01*
X141762000Y-178557000D01*
X141772000Y-178560000D01*
X141782000Y-178563000D01*
X141791000Y-178567000D01*
X141801000Y-178572000D01*
X141810000Y-178577000D01*
X141819000Y-178582000D01*
X141828000Y-178588000D01*
X141836000Y-178595000D01*
X141844000Y-178601000D01*
X141851000Y-178609000D01*
X141859000Y-178616000D01*
X141865000Y-178624000D01*
X141872000Y-178632000D01*
X141878000Y-178641000D01*
X141883000Y-178650000D01*
X141888000Y-178659000D01*
X141893000Y-178669000D01*
X141897000Y-178678000D01*
X141900000Y-178688000D01*
X141903000Y-178698000D01*
X141906000Y-178708000D01*
X141908000Y-178719000D01*
X141909000Y-178729000D01*
X141910000Y-178740000D01*
X141910000Y-178750000D01*
X141910000Y-179950000D01*
X141910000Y-179960000D01*
X141909000Y-179971000D01*
X141908000Y-179981000D01*
X141906000Y-179992000D01*
X141903000Y-180002000D01*
X141900000Y-180012000D01*
X141897000Y-180022000D01*
X141893000Y-180031000D01*
X141888000Y-180041000D01*
X141883000Y-180050000D01*
X141878000Y-180059000D01*
X141872000Y-180068000D01*
X141865000Y-180076000D01*
X141859000Y-180084000D01*
X141851000Y-180091000D01*
X141844000Y-180099000D01*
X141836000Y-180105000D01*
X141828000Y-180112000D01*
X141819000Y-180118000D01*
X141810000Y-180123000D01*
X141801000Y-180128000D01*
X141791000Y-180133000D01*
X141782000Y-180137000D01*
X141772000Y-180140000D01*
X141762000Y-180143000D01*
X141752000Y-180146000D01*
X141741000Y-180148000D01*
X141731000Y-180149000D01*
X141720000Y-180150000D01*
X141710000Y-180150000D01*
X138710000Y-180150000D01*
X138710000Y-178550000D01*
X141710000Y-178550000D01*
X141720000Y-178550000D01*
X141731000Y-178551000D01*
G37*
X141731000Y-165851000D02*
X141741000Y-165852000D01*
X141752000Y-165854000D01*
X141762000Y-165857000D01*
X141772000Y-165860000D01*
X141782000Y-165863000D01*
X141791000Y-165867000D01*
X141801000Y-165872000D01*
X141810000Y-165877000D01*
X141819000Y-165882000D01*
X141828000Y-165888000D01*
X141836000Y-165895000D01*
X141844000Y-165901000D01*
X141851000Y-165909000D01*
X141859000Y-165916000D01*
X141865000Y-165924000D01*
X141872000Y-165932000D01*
X141878000Y-165941000D01*
X141883000Y-165950000D01*
X141888000Y-165959000D01*
X141893000Y-165969000D01*
X141897000Y-165978000D01*
X141900000Y-165988000D01*
X141903000Y-165998000D01*
X141906000Y-166008000D01*
X141908000Y-166019000D01*
X141909000Y-166029000D01*
X141910000Y-166040000D01*
X141910000Y-166050000D01*
X141910000Y-167250000D01*
X141910000Y-167260000D01*
X141909000Y-167271000D01*
X141908000Y-167281000D01*
X141906000Y-167292000D01*
X141903000Y-167302000D01*
X141900000Y-167312000D01*
X141897000Y-167322000D01*
X141893000Y-167331000D01*
X141888000Y-167341000D01*
X141883000Y-167350000D01*
X141878000Y-167359000D01*
X141872000Y-167368000D01*
X141865000Y-167376000D01*
X141859000Y-167384000D01*
X141851000Y-167391000D01*
X141844000Y-167399000D01*
X141836000Y-167405000D01*
X141828000Y-167412000D01*
X141819000Y-167418000D01*
X141810000Y-167423000D01*
X141801000Y-167428000D01*
X141791000Y-167433000D01*
X141782000Y-167437000D01*
X141772000Y-167440000D01*
X141762000Y-167443000D01*
X141752000Y-167446000D01*
X141741000Y-167448000D01*
X141731000Y-167449000D01*
X141720000Y-167450000D01*
X141710000Y-167450000D01*
X138710000Y-167450000D01*
X138710000Y-165850000D01*
X141710000Y-165850000D01*
X141720000Y-165850000D01*
X141731000Y-165851000D01*
G36*
X141731000Y-165851000D02*
G01*
X141741000Y-165852000D01*
X141752000Y-165854000D01*
X141762000Y-165857000D01*
X141772000Y-165860000D01*
X141782000Y-165863000D01*
X141791000Y-165867000D01*
X141801000Y-165872000D01*
X141810000Y-165877000D01*
X141819000Y-165882000D01*
X141828000Y-165888000D01*
X141836000Y-165895000D01*
X141844000Y-165901000D01*
X141851000Y-165909000D01*
X141859000Y-165916000D01*
X141865000Y-165924000D01*
X141872000Y-165932000D01*
X141878000Y-165941000D01*
X141883000Y-165950000D01*
X141888000Y-165959000D01*
X141893000Y-165969000D01*
X141897000Y-165978000D01*
X141900000Y-165988000D01*
X141903000Y-165998000D01*
X141906000Y-166008000D01*
X141908000Y-166019000D01*
X141909000Y-166029000D01*
X141910000Y-166040000D01*
X141910000Y-166050000D01*
X141910000Y-167250000D01*
X141910000Y-167260000D01*
X141909000Y-167271000D01*
X141908000Y-167281000D01*
X141906000Y-167292000D01*
X141903000Y-167302000D01*
X141900000Y-167312000D01*
X141897000Y-167322000D01*
X141893000Y-167331000D01*
X141888000Y-167341000D01*
X141883000Y-167350000D01*
X141878000Y-167359000D01*
X141872000Y-167368000D01*
X141865000Y-167376000D01*
X141859000Y-167384000D01*
X141851000Y-167391000D01*
X141844000Y-167399000D01*
X141836000Y-167405000D01*
X141828000Y-167412000D01*
X141819000Y-167418000D01*
X141810000Y-167423000D01*
X141801000Y-167428000D01*
X141791000Y-167433000D01*
X141782000Y-167437000D01*
X141772000Y-167440000D01*
X141762000Y-167443000D01*
X141752000Y-167446000D01*
X141741000Y-167448000D01*
X141731000Y-167449000D01*
X141720000Y-167450000D01*
X141710000Y-167450000D01*
X138710000Y-167450000D01*
X138710000Y-165850000D01*
X141710000Y-165850000D01*
X141720000Y-165850000D01*
X141731000Y-165851000D01*
G37*
X141731000Y-153151000D02*
X141741000Y-153152000D01*
X141752000Y-153154000D01*
X141762000Y-153157000D01*
X141772000Y-153160000D01*
X141782000Y-153163000D01*
X141791000Y-153167000D01*
X141801000Y-153172000D01*
X141810000Y-153177000D01*
X141819000Y-153182000D01*
X141828000Y-153188000D01*
X141836000Y-153195000D01*
X141844000Y-153201000D01*
X141851000Y-153209000D01*
X141859000Y-153216000D01*
X141865000Y-153224000D01*
X141872000Y-153232000D01*
X141878000Y-153241000D01*
X141883000Y-153250000D01*
X141888000Y-153259000D01*
X141893000Y-153269000D01*
X141897000Y-153278000D01*
X141900000Y-153288000D01*
X141903000Y-153298000D01*
X141906000Y-153308000D01*
X141908000Y-153319000D01*
X141909000Y-153329000D01*
X141910000Y-153340000D01*
X141910000Y-153350000D01*
X141910000Y-154550000D01*
X141910000Y-154560000D01*
X141909000Y-154571000D01*
X141908000Y-154581000D01*
X141906000Y-154592000D01*
X141903000Y-154602000D01*
X141900000Y-154612000D01*
X141897000Y-154622000D01*
X141893000Y-154631000D01*
X141888000Y-154641000D01*
X141883000Y-154650000D01*
X141878000Y-154659000D01*
X141872000Y-154668000D01*
X141865000Y-154676000D01*
X141859000Y-154684000D01*
X141851000Y-154691000D01*
X141844000Y-154699000D01*
X141836000Y-154705000D01*
X141828000Y-154712000D01*
X141819000Y-154718000D01*
X141810000Y-154723000D01*
X141801000Y-154728000D01*
X141791000Y-154733000D01*
X141782000Y-154737000D01*
X141772000Y-154740000D01*
X141762000Y-154743000D01*
X141752000Y-154746000D01*
X141741000Y-154748000D01*
X141731000Y-154749000D01*
X141720000Y-154750000D01*
X141710000Y-154750000D01*
X138710000Y-154750000D01*
X138710000Y-153150000D01*
X141710000Y-153150000D01*
X141720000Y-153150000D01*
X141731000Y-153151000D01*
G36*
X141731000Y-153151000D02*
G01*
X141741000Y-153152000D01*
X141752000Y-153154000D01*
X141762000Y-153157000D01*
X141772000Y-153160000D01*
X141782000Y-153163000D01*
X141791000Y-153167000D01*
X141801000Y-153172000D01*
X141810000Y-153177000D01*
X141819000Y-153182000D01*
X141828000Y-153188000D01*
X141836000Y-153195000D01*
X141844000Y-153201000D01*
X141851000Y-153209000D01*
X141859000Y-153216000D01*
X141865000Y-153224000D01*
X141872000Y-153232000D01*
X141878000Y-153241000D01*
X141883000Y-153250000D01*
X141888000Y-153259000D01*
X141893000Y-153269000D01*
X141897000Y-153278000D01*
X141900000Y-153288000D01*
X141903000Y-153298000D01*
X141906000Y-153308000D01*
X141908000Y-153319000D01*
X141909000Y-153329000D01*
X141910000Y-153340000D01*
X141910000Y-153350000D01*
X141910000Y-154550000D01*
X141910000Y-154560000D01*
X141909000Y-154571000D01*
X141908000Y-154581000D01*
X141906000Y-154592000D01*
X141903000Y-154602000D01*
X141900000Y-154612000D01*
X141897000Y-154622000D01*
X141893000Y-154631000D01*
X141888000Y-154641000D01*
X141883000Y-154650000D01*
X141878000Y-154659000D01*
X141872000Y-154668000D01*
X141865000Y-154676000D01*
X141859000Y-154684000D01*
X141851000Y-154691000D01*
X141844000Y-154699000D01*
X141836000Y-154705000D01*
X141828000Y-154712000D01*
X141819000Y-154718000D01*
X141810000Y-154723000D01*
X141801000Y-154728000D01*
X141791000Y-154733000D01*
X141782000Y-154737000D01*
X141772000Y-154740000D01*
X141762000Y-154743000D01*
X141752000Y-154746000D01*
X141741000Y-154748000D01*
X141731000Y-154749000D01*
X141720000Y-154750000D01*
X141710000Y-154750000D01*
X138710000Y-154750000D01*
X138710000Y-153150000D01*
X141710000Y-153150000D01*
X141720000Y-153150000D01*
X141731000Y-153151000D01*
G37*
%TD*%
D11*
%TO.C,U7*%
X152725000Y-197000000D03*
X147275000Y-197000000D03*
D12*
X152425000Y-193970000D03*
X147575000Y-193970000D03*
D13*
X150000000Y-194000000D03*
X149000000Y-197300000D03*
X151000000Y-197300000D03*
X152500000Y-190500000D03*
X152500000Y-188000000D03*
X152500000Y-185500000D03*
%TD*%
D14*
%TO.C,C5*%
X137250000Y-192200000D03*
X137250000Y-194300000D03*
%TD*%
%TO.C,R47*%
X137300000Y-149000000D03*
X135200000Y-149000000D03*
%TD*%
%TO.C,R39*%
X162700000Y-156500000D03*
X164800000Y-156500000D03*
%TD*%
%TO.C,R42*%
X162700000Y-162500000D03*
X164800000Y-162500000D03*
%TD*%
D15*
%TO.C,C6*%
X135750000Y-192790000D03*
X135750000Y-193750000D03*
%TD*%
D16*
%TO.C,C2*%
X132730000Y-144750000D03*
X131770000Y-144750000D03*
%TD*%
D14*
%TO.C,R48*%
X137300000Y-151000000D03*
X135200000Y-151000000D03*
%TD*%
%TO.C,R37*%
X162700000Y-149000000D03*
X164800000Y-149000000D03*
%TD*%
%TO.C,R44*%
X162700000Y-171250000D03*
X164800000Y-171250000D03*
%TD*%
%TO.C,R49*%
X137300000Y-156500000D03*
X135200000Y-156500000D03*
%TD*%
%TO.C,C3*%
X124750000Y-145700000D03*
X124750000Y-147800000D03*
%TD*%
D17*
%TO.C,L1*%
X127000000Y-150100000D03*
X127000000Y-157900000D03*
%TD*%
D14*
%TO.C,C4*%
X126750000Y-145700000D03*
X126750000Y-147800000D03*
%TD*%
%TO.C,R38*%
X162700000Y-151000000D03*
X164800000Y-151000000D03*
%TD*%
%TO.C,R52*%
X137300000Y-162500000D03*
X135200000Y-162500000D03*
%TD*%
%TO.C,R40*%
X162700000Y-158500000D03*
X164800000Y-158500000D03*
%TD*%
%TO.C,R53*%
X137300000Y-169250000D03*
X135200000Y-169250000D03*
%TD*%
%TO.C,R45*%
X162700000Y-173250000D03*
X164800000Y-173250000D03*
%TD*%
%TO.C,R46*%
X162700000Y-175250000D03*
X164800000Y-175250000D03*
%TD*%
%TO.C,R41*%
X162700000Y-160500000D03*
X164800000Y-160500000D03*
%TD*%
%TO.C,R43*%
X162700000Y-169250000D03*
X164800000Y-169250000D03*
%TD*%
%TO.C,R50*%
X137300000Y-158500000D03*
X135200000Y-158500000D03*
%TD*%
%TO.C,C1*%
X126750000Y-143800000D03*
X126750000Y-141700000D03*
%TD*%
D18*
%TO.C,U1*%
X130450000Y-142112500D03*
X129500000Y-142112500D03*
X128550000Y-142112500D03*
X128550000Y-144387500D03*
X129500000Y-144387500D03*
X130450000Y-144387500D03*
%TD*%
D14*
%TO.C,R54*%
X137300000Y-171250000D03*
X135200000Y-171250000D03*
%TD*%
%TO.C,R51*%
X137300000Y-160500000D03*
X135200000Y-160500000D03*
%TD*%
M02*
