%TF.GenerationSoftware,KiCad,Pcbnew,(6.0.9)*%
%TF.CreationDate,2023-05-11T13:54:47+10:00*%
%TF.ProjectId,Rescue Line,52657363-7565-4204-9c69-6e652e6b6963,rev?*%
%TF.SameCoordinates,Original*%
%TF.FileFunction,Copper,L2,Bot*%
%TF.FilePolarity,Positive*%
%FSLAX46Y46*%
G04 Gerber Fmt 4.6, Leading zero omitted, Abs format (unit mm)*
G04 Created by KiCad (PCBNEW (6.0.9)) date 2023-05-11 13:54:47*
%MOMM*%
%LPD*%
G01*
G04 APERTURE LIST*
%TA.AperFunction,ComponentPad*%
%ADD10R,1.700000X1.700000*%
%TD*%
%TA.AperFunction,ComponentPad*%
%ADD11O,1.700000X1.700000*%
%TD*%
%TA.AperFunction,ComponentPad*%
%ADD12R,1.530000X1.530000*%
%TD*%
%TA.AperFunction,ComponentPad*%
%ADD13C,1.530000*%
%TD*%
%TA.AperFunction,ComponentPad*%
%ADD14C,1.700000*%
%TD*%
%TA.AperFunction,ComponentPad*%
%ADD15C,6.000000*%
%TD*%
%TA.AperFunction,ComponentPad*%
%ADD16R,6.000000X6.000000*%
%TD*%
%TA.AperFunction,ViaPad*%
%ADD17C,0.600000*%
%TD*%
%TA.AperFunction,ViaPad*%
%ADD18C,0.800000*%
%TD*%
%TA.AperFunction,Conductor*%
%ADD19C,0.400000*%
%TD*%
G04 APERTURE END LIST*
D10*
%TO.P,J3,1,Pin_1*%
%TO.N,+5V*%
X148025000Y-70275000D03*
D11*
%TO.P,J3,2,Pin_2*%
%TO.N,GND*%
X145485000Y-70275000D03*
%TO.P,J3,3,Pin_3*%
%TO.N,/COLOUR2*%
X142945000Y-70275000D03*
%TD*%
D10*
%TO.P,J6,1,Pin_1*%
%TO.N,/MOT1A*%
X163500000Y-80380000D03*
D11*
%TO.P,J6,2,Pin_2*%
%TO.N,/MOT1B*%
X163500000Y-82920000D03*
%TO.P,J6,3,Pin_3*%
%TO.N,+5V*%
X163500000Y-85460000D03*
%TO.P,J6,4,Pin_4*%
%TO.N,GND*%
X163500000Y-88000000D03*
%TO.P,J6,5,Pin_5*%
%TO.N,/MOT2A*%
X163500000Y-90540000D03*
%TO.P,J6,6,Pin_6*%
%TO.N,/MOT2B*%
X163500000Y-93080000D03*
%TD*%
D12*
%TO.P,U2,1,3V3*%
%TO.N,+3.3V*%
X119225000Y-74870000D03*
D13*
%TO.P,U2,2,EN*%
%TO.N,unconnected-(U2-Pad2)*%
X119225000Y-77410000D03*
%TO.P,U2,3,SENSOR_VP*%
%TO.N,unconnected-(U2-Pad3)*%
X119225000Y-79950000D03*
%TO.P,U2,4,SENSOR_VN*%
%TO.N,unconnected-(U2-Pad4)*%
X119225000Y-82490000D03*
%TO.P,U2,5,IO34*%
%TO.N,unconnected-(U2-Pad5)*%
X119225000Y-85030000D03*
%TO.P,U2,6,IO35*%
%TO.N,/UECHO*%
X119225000Y-87570000D03*
%TO.P,U2,7,IO32*%
%TO.N,/UTRIG*%
X119225000Y-90110000D03*
%TO.P,U2,8,IO33*%
%TO.N,/MOT1A*%
X119225000Y-92650000D03*
%TO.P,U2,9,IO25*%
%TO.N,/MOT1B*%
X119225000Y-95190000D03*
%TO.P,U2,10,IO26*%
%TO.N,/MOT2A*%
X119225000Y-97730000D03*
%TO.P,U2,11,IO27*%
%TO.N,/MOT2B*%
X119225000Y-100270000D03*
%TO.P,U2,12,IO14*%
%TO.N,/MOT3A*%
X119225000Y-102810000D03*
%TO.P,U2,13,IO12*%
%TO.N,/MOT3B*%
X119225000Y-105350000D03*
%TO.P,U2,14,GND1*%
%TO.N,GND*%
X119225000Y-107890000D03*
%TO.P,U2,15,IO13*%
%TO.N,unconnected-(U2-Pad15)*%
X119225000Y-110430000D03*
%TO.P,U2,16,SD2*%
%TO.N,unconnected-(U2-Pad16)*%
X119225000Y-112970000D03*
%TO.P,U2,17,SD3*%
%TO.N,unconnected-(U2-Pad17)*%
X119225000Y-115510000D03*
%TO.P,U2,18,CMD*%
%TO.N,unconnected-(U2-Pad18)*%
X119225000Y-118050000D03*
%TO.P,U2,19,EXT_5V*%
%TO.N,+5V*%
X119225000Y-120590000D03*
%TO.P,U2,20,CLK*%
%TO.N,unconnected-(U2-Pad20)*%
X144625000Y-120590000D03*
%TO.P,U2,21,SD0*%
%TO.N,unconnected-(U2-Pad21)*%
X144625000Y-118050000D03*
%TO.P,U2,22,SD1*%
%TO.N,unconnected-(U2-Pad22)*%
X144625000Y-115510000D03*
%TO.P,U2,23,IO15*%
%TO.N,/COLOUR1*%
X144625000Y-112970000D03*
%TO.P,U2,24,IO2*%
%TO.N,/MSERVO*%
X144625000Y-110430000D03*
%TO.P,U2,25,IO0*%
%TO.N,unconnected-(U2-Pad25)*%
X144625000Y-107890000D03*
%TO.P,U2,26,IO4*%
%TO.N,unconnected-(U2-Pad26)*%
X144625000Y-105350000D03*
%TO.P,U2,27,IO16*%
%TO.N,unconnected-(U2-Pad27)*%
X144625000Y-102810000D03*
%TO.P,U2,28,IO17*%
%TO.N,unconnected-(U2-Pad28)*%
X144625000Y-100270000D03*
%TO.P,U2,29,IO5*%
%TO.N,unconnected-(U2-Pad29)*%
X144625000Y-97730000D03*
%TO.P,U2,30,IO18*%
%TO.N,unconnected-(U2-Pad30)*%
X144625000Y-95190000D03*
%TO.P,U2,31,IO19*%
%TO.N,unconnected-(U2-Pad31)*%
X144625000Y-92650000D03*
%TO.P,U2,32,GND2*%
%TO.N,GND*%
X144625000Y-90110000D03*
%TO.P,U2,33,IO21*%
%TO.N,unconnected-(U2-Pad33)*%
X144625000Y-87570000D03*
%TO.P,U2,34,RXD0*%
%TO.N,unconnected-(U2-Pad34)*%
X144625000Y-85030000D03*
%TO.P,U2,35,TXD0*%
%TO.N,unconnected-(U2-Pad35)*%
X144625000Y-82490000D03*
%TO.P,U2,36,IO22*%
%TO.N,unconnected-(U2-Pad36)*%
X144625000Y-79950000D03*
%TO.P,U2,37,IO23*%
%TO.N,/COLOUR2*%
X144625000Y-77410000D03*
%TO.P,U2,38,GND3*%
%TO.N,GND*%
X144625000Y-74870000D03*
%TD*%
D10*
%TO.P,J8,1,Pin_1*%
%TO.N,/MSERVO*%
X163500000Y-74230000D03*
D11*
%TO.P,J8,2,Pin_2*%
%TO.N,GND*%
X163500000Y-76770000D03*
%TD*%
%TO.P,U3,12,AIN1*%
%TO.N,/MOT3A*%
X148585000Y-102805000D03*
%TO.P,U3,11,AIN2*%
%TO.N,/MOT3B*%
X148585000Y-105345000D03*
%TO.P,U3,10,VM*%
%TO.N,+12V*%
X148585000Y-107885000D03*
%TO.P,U3,9,GND*%
%TO.N,GND*%
X148585000Y-110425000D03*
%TO.P,U3,8,BIN1*%
%TO.N,unconnected-(U3-Pad8)*%
X148585000Y-112965000D03*
D14*
%TO.P,U3,7,BIN2*%
%TO.N,unconnected-(U3-Pad7)*%
X148585000Y-115505000D03*
D11*
%TO.P,U3,6,nFAULT*%
%TO.N,unconnected-(U3-Pad6)*%
X164225000Y-102815000D03*
%TO.P,U3,5,BOUT2*%
%TO.N,unconnected-(U3-Pad5)*%
X164225000Y-105355000D03*
%TO.P,U3,4,BOUT1*%
%TO.N,unconnected-(U3-Pad4)*%
X164225000Y-107895000D03*
%TO.P,U3,3,AOUT2*%
%TO.N,Net-(J7-Pad2)*%
X164225000Y-110435000D03*
%TO.P,U3,2,AOUT1*%
%TO.N,Net-(J7-Pad1)*%
X164225000Y-112975000D03*
D10*
%TO.P,U3,1,nSLEEP*%
%TO.N,unconnected-(U3-Pad1)*%
X164225000Y-115515000D03*
%TD*%
D15*
%TO.P,J5,N,NEG*%
%TO.N,GND*%
X110750000Y-113850000D03*
D16*
%TO.P,J5,P,POS*%
%TO.N,Net-(J5-PadP)*%
X110750000Y-106650000D03*
%TD*%
D10*
%TO.P,J2,1,Pin_1*%
%TO.N,+5V*%
X152000000Y-70250000D03*
D11*
%TO.P,J2,2,Pin_2*%
%TO.N,GND*%
X154540000Y-70250000D03*
%TO.P,J2,3,Pin_3*%
%TO.N,/COLOUR1*%
X157080000Y-70250000D03*
%TD*%
D10*
%TO.P,J1,1,Pin_1*%
%TO.N,+12V*%
X110905000Y-96218500D03*
D11*
%TO.P,J1,2,Pin_2*%
%TO.N,GND*%
X113445000Y-96218500D03*
%TD*%
D10*
%TO.P,J9,1,Pin_1*%
%TO.N,Net-(J5-PadP)*%
X113525000Y-100000000D03*
D11*
%TO.P,J9,2,Pin_2*%
%TO.N,+12V*%
X110985000Y-100000000D03*
%TD*%
D10*
%TO.P,J4,1,Pin_1*%
%TO.N,+5V*%
X113200000Y-70250000D03*
D11*
%TO.P,J4,2,Pin_2*%
%TO.N,/UTRIG*%
X115740000Y-70250000D03*
%TO.P,J4,3,Pin_3*%
%TO.N,/UECHO*%
X118280000Y-70250000D03*
%TO.P,J4,4,Pin_4*%
%TO.N,GND*%
X120820000Y-70250000D03*
%TD*%
D10*
%TO.P,J7,1,Pin_1*%
%TO.N,Net-(J7-Pad1)*%
X163500000Y-96705000D03*
D11*
%TO.P,J7,2,Pin_2*%
%TO.N,Net-(J7-Pad2)*%
X163500000Y-99245000D03*
%TD*%
D17*
%TO.N,GND*%
X114750500Y-94100500D03*
X107500000Y-91750000D03*
D18*
%TO.N,+5V*%
X161000000Y-79750000D03*
%TD*%
D19*
%TO.N,/COLOUR1*%
X143983720Y-81250000D02*
X142250000Y-82983720D01*
X142250000Y-110595000D02*
X144625000Y-112970000D01*
X147500000Y-81250000D02*
X143983720Y-81250000D01*
X157080000Y-71670000D02*
X147500000Y-81250000D01*
X142250000Y-82983720D02*
X142250000Y-110595000D01*
X157080000Y-70250000D02*
X157080000Y-71670000D01*
%TO.N,+5V*%
X161000000Y-79750000D02*
X161000000Y-82960000D01*
X161000000Y-82960000D02*
X163500000Y-85460000D01*
%TO.N,/COLOUR2*%
X142945000Y-75730000D02*
X144625000Y-77410000D01*
X142970000Y-70300000D02*
X142945000Y-70325000D01*
X142945000Y-70325000D02*
X142945000Y-75730000D01*
%TO.N,/UTRIG*%
X121000000Y-88335000D02*
X119225000Y-90110000D01*
X119549264Y-69751497D02*
X119549264Y-71950736D01*
X119549264Y-71950736D02*
X121000000Y-73401472D01*
X121000000Y-73401472D02*
X121000000Y-88335000D01*
X115740000Y-70250000D02*
X116990000Y-69000000D01*
X116990000Y-69000000D02*
X118797767Y-69000000D01*
X118797767Y-69000000D02*
X119549264Y-69751497D01*
%TO.N,/UECHO*%
X120390000Y-73640000D02*
X118280000Y-71530000D01*
X119225000Y-87570000D02*
X120390000Y-86405000D01*
X120390000Y-86405000D02*
X120390000Y-73640000D01*
X118280000Y-71530000D02*
X118280000Y-70250000D01*
%TO.N,/MSERVO*%
X144625000Y-110430000D02*
X146250000Y-108805000D01*
X146250000Y-91480000D02*
X163500000Y-74230000D01*
X146250000Y-108805000D02*
X146250000Y-91480000D01*
%TD*%
%TA.AperFunction,Conductor*%
%TO.N,GND*%
G36*
X163028651Y-67528502D02*
G01*
X163075144Y-67582158D01*
X163085248Y-67652432D01*
X163055754Y-67717012D01*
X163025236Y-67742616D01*
X162854725Y-67844664D01*
X162854721Y-67844667D01*
X162851043Y-67846868D01*
X162637318Y-68018094D01*
X162448808Y-68216742D01*
X162289002Y-68439136D01*
X162160857Y-68681161D01*
X162159385Y-68685184D01*
X162159383Y-68685188D01*
X162069037Y-68932069D01*
X162066743Y-68938337D01*
X162008404Y-69205907D01*
X162008068Y-69210177D01*
X161989381Y-69447617D01*
X161986917Y-69478918D01*
X161987334Y-69486156D01*
X162002682Y-69752320D01*
X162055405Y-70021053D01*
X162056792Y-70025103D01*
X162056793Y-70025108D01*
X162142723Y-70276088D01*
X162144112Y-70280144D01*
X162173238Y-70338054D01*
X162242837Y-70476437D01*
X162267160Y-70524799D01*
X162269586Y-70528328D01*
X162269589Y-70528334D01*
X162358459Y-70657639D01*
X162422274Y-70750490D01*
X162425161Y-70753663D01*
X162425162Y-70753664D01*
X162567286Y-70909857D01*
X162606582Y-70953043D01*
X162609877Y-70955798D01*
X162609878Y-70955799D01*
X162654382Y-70993010D01*
X162816675Y-71128707D01*
X162820316Y-71130991D01*
X163045024Y-71271951D01*
X163045028Y-71271953D01*
X163048664Y-71274234D01*
X163116544Y-71304883D01*
X163294345Y-71385164D01*
X163294349Y-71385166D01*
X163298257Y-71386930D01*
X163314131Y-71391632D01*
X163556723Y-71463491D01*
X163556727Y-71463492D01*
X163560836Y-71464709D01*
X163565070Y-71465357D01*
X163565075Y-71465358D01*
X163827298Y-71505483D01*
X163827300Y-71505483D01*
X163831540Y-71506132D01*
X163970912Y-71508322D01*
X164101071Y-71510367D01*
X164101077Y-71510367D01*
X164105362Y-71510434D01*
X164377235Y-71477534D01*
X164642127Y-71408041D01*
X164646087Y-71406401D01*
X164646092Y-71406399D01*
X164790205Y-71346705D01*
X164895136Y-71303241D01*
X165067602Y-71202460D01*
X165127879Y-71167237D01*
X165127880Y-71167236D01*
X165131582Y-71165073D01*
X165347089Y-70996094D01*
X165364692Y-70977930D01*
X165534686Y-70802509D01*
X165537669Y-70799431D01*
X165540202Y-70795983D01*
X165540206Y-70795978D01*
X165697257Y-70582178D01*
X165699795Y-70578723D01*
X165708295Y-70563069D01*
X165754769Y-70477474D01*
X165804852Y-70427152D01*
X165874190Y-70411896D01*
X165940769Y-70436549D01*
X165983451Y-70493283D01*
X165991500Y-70537596D01*
X165991500Y-120710393D01*
X165971498Y-120778514D01*
X165917842Y-120825007D01*
X165847568Y-120835111D01*
X165782988Y-120805617D01*
X165753534Y-120768183D01*
X165723978Y-120710919D01*
X165723978Y-120710918D01*
X165722013Y-120707112D01*
X165712040Y-120692921D01*
X165567008Y-120486562D01*
X165564545Y-120483057D01*
X165457641Y-120368014D01*
X165381046Y-120285588D01*
X165381043Y-120285585D01*
X165378125Y-120282445D01*
X165374810Y-120279731D01*
X165374806Y-120279728D01*
X165169523Y-120111706D01*
X165166205Y-120108990D01*
X164932704Y-119965901D01*
X164928768Y-119964173D01*
X164685873Y-119857549D01*
X164685869Y-119857548D01*
X164681945Y-119855825D01*
X164418566Y-119780800D01*
X164414324Y-119780196D01*
X164414318Y-119780195D01*
X164213834Y-119751662D01*
X164147443Y-119742213D01*
X164003589Y-119741460D01*
X163877877Y-119740802D01*
X163877871Y-119740802D01*
X163873591Y-119740780D01*
X163869347Y-119741339D01*
X163869343Y-119741339D01*
X163750302Y-119757011D01*
X163602078Y-119776525D01*
X163597938Y-119777658D01*
X163597936Y-119777658D01*
X163525008Y-119797609D01*
X163337928Y-119848788D01*
X163333980Y-119850472D01*
X163089982Y-119954546D01*
X163089978Y-119954548D01*
X163086030Y-119956232D01*
X163066125Y-119968145D01*
X162854725Y-120094664D01*
X162854721Y-120094667D01*
X162851043Y-120096868D01*
X162637318Y-120268094D01*
X162448808Y-120466742D01*
X162289002Y-120689136D01*
X162160857Y-120931161D01*
X162159385Y-120935184D01*
X162159383Y-120935188D01*
X162116872Y-121051355D01*
X162066743Y-121188337D01*
X162008404Y-121455907D01*
X161986917Y-121728918D01*
X161987334Y-121736156D01*
X162002682Y-122002320D01*
X162055405Y-122271053D01*
X162056792Y-122275103D01*
X162056793Y-122275108D01*
X162142723Y-122526088D01*
X162144112Y-122530144D01*
X162173238Y-122588054D01*
X162242837Y-122726437D01*
X162267160Y-122774799D01*
X162269586Y-122778328D01*
X162269589Y-122778334D01*
X162419843Y-122996953D01*
X162422274Y-123000490D01*
X162606582Y-123203043D01*
X162816675Y-123378707D01*
X162820316Y-123380991D01*
X163024001Y-123508763D01*
X163071079Y-123561906D01*
X163081951Y-123632065D01*
X163053167Y-123696965D01*
X162993864Y-123736000D01*
X162957045Y-123741500D01*
X109038332Y-123741500D01*
X108970211Y-123721498D01*
X108923718Y-123667842D01*
X108913614Y-123597568D01*
X108943108Y-123532988D01*
X108974761Y-123506712D01*
X109127879Y-123417237D01*
X109127880Y-123417236D01*
X109131582Y-123415073D01*
X109347089Y-123246094D01*
X109388809Y-123203043D01*
X109534686Y-123052509D01*
X109537669Y-123049431D01*
X109540202Y-123045983D01*
X109540206Y-123045978D01*
X109697257Y-122832178D01*
X109699795Y-122828723D01*
X109727154Y-122778334D01*
X109828418Y-122591830D01*
X109828419Y-122591828D01*
X109830468Y-122588054D01*
X109927269Y-122331877D01*
X109968173Y-122153279D01*
X109987449Y-122069117D01*
X109987450Y-122069113D01*
X109988407Y-122064933D01*
X109991349Y-122031975D01*
X110012531Y-121794627D01*
X110012531Y-121794625D01*
X110012751Y-121792161D01*
X110013193Y-121750000D01*
X110001089Y-121572443D01*
X109994859Y-121481055D01*
X109994858Y-121481049D01*
X109994567Y-121476778D01*
X109981901Y-121415614D01*
X109939901Y-121212809D01*
X109939032Y-121208612D01*
X109847617Y-120950465D01*
X109722013Y-120707112D01*
X109712040Y-120692921D01*
X109639706Y-120590000D01*
X117946635Y-120590000D01*
X117966056Y-120811986D01*
X118023730Y-121027227D01*
X118026052Y-121032208D01*
X118026053Y-121032209D01*
X118115577Y-121224195D01*
X118115580Y-121224200D01*
X118117903Y-121229182D01*
X118245716Y-121411717D01*
X118403283Y-121569284D01*
X118585817Y-121697097D01*
X118590799Y-121699420D01*
X118590804Y-121699423D01*
X118782791Y-121788947D01*
X118787773Y-121791270D01*
X118793081Y-121792692D01*
X118793083Y-121792693D01*
X118800301Y-121794627D01*
X119003014Y-121848944D01*
X119225000Y-121868365D01*
X119446986Y-121848944D01*
X119649699Y-121794627D01*
X119656917Y-121792693D01*
X119656919Y-121792692D01*
X119662227Y-121791270D01*
X119667209Y-121788947D01*
X119859196Y-121699423D01*
X119859201Y-121699420D01*
X119864183Y-121697097D01*
X120046717Y-121569284D01*
X120204284Y-121411717D01*
X120332097Y-121229182D01*
X120334420Y-121224200D01*
X120334423Y-121224195D01*
X120423947Y-121032209D01*
X120423948Y-121032208D01*
X120426270Y-121027227D01*
X120483944Y-120811986D01*
X120503365Y-120590000D01*
X120483944Y-120368014D01*
X120426270Y-120152773D01*
X120400201Y-120096868D01*
X120334423Y-119955805D01*
X120334420Y-119955800D01*
X120332097Y-119950818D01*
X120212625Y-119780195D01*
X120207443Y-119772794D01*
X120207441Y-119772791D01*
X120204284Y-119768283D01*
X120046717Y-119610716D01*
X119864183Y-119482903D01*
X119859201Y-119480580D01*
X119859196Y-119480577D01*
X119759728Y-119434195D01*
X119706443Y-119387278D01*
X119686982Y-119319001D01*
X119707524Y-119251041D01*
X119759728Y-119205805D01*
X119859196Y-119159423D01*
X119859201Y-119159420D01*
X119864183Y-119157097D01*
X120046717Y-119029284D01*
X120204284Y-118871717D01*
X120332097Y-118689182D01*
X120334420Y-118684200D01*
X120334423Y-118684195D01*
X120423947Y-118492209D01*
X120423948Y-118492208D01*
X120426270Y-118487227D01*
X120483944Y-118271986D01*
X120503365Y-118050000D01*
X120483944Y-117828014D01*
X120426270Y-117612773D01*
X120423947Y-117607791D01*
X120334423Y-117415805D01*
X120334420Y-117415800D01*
X120332097Y-117410818D01*
X120204284Y-117228283D01*
X120046717Y-117070716D01*
X120028015Y-117057620D01*
X119966890Y-117014820D01*
X119864183Y-116942903D01*
X119859201Y-116940580D01*
X119859196Y-116940577D01*
X119759728Y-116894195D01*
X119706443Y-116847278D01*
X119686982Y-116779001D01*
X119707524Y-116711041D01*
X119759728Y-116665805D01*
X119859196Y-116619423D01*
X119859201Y-116619420D01*
X119864183Y-116617097D01*
X120025605Y-116504067D01*
X120042206Y-116492443D01*
X120042208Y-116492441D01*
X120046717Y-116489284D01*
X120204284Y-116331717D01*
X120332097Y-116149182D01*
X120334420Y-116144200D01*
X120334423Y-116144195D01*
X120423947Y-115952209D01*
X120423948Y-115952208D01*
X120426270Y-115947227D01*
X120434256Y-115917425D01*
X120482520Y-115737299D01*
X120483944Y-115731986D01*
X120503365Y-115510000D01*
X120483944Y-115288014D01*
X120426270Y-115072773D01*
X120360780Y-114932328D01*
X120334423Y-114875805D01*
X120334420Y-114875800D01*
X120332097Y-114870818D01*
X120204284Y-114688283D01*
X120046717Y-114530716D01*
X120019803Y-114511870D01*
X119966890Y-114474820D01*
X119864183Y-114402903D01*
X119859201Y-114400580D01*
X119859196Y-114400577D01*
X119759728Y-114354195D01*
X119706443Y-114307278D01*
X119686982Y-114239001D01*
X119707524Y-114171041D01*
X119759728Y-114125805D01*
X119859196Y-114079423D01*
X119859201Y-114079420D01*
X119864183Y-114077097D01*
X120046717Y-113949284D01*
X120204284Y-113791717D01*
X120332097Y-113609182D01*
X120334420Y-113604200D01*
X120334423Y-113604195D01*
X120423947Y-113412209D01*
X120423948Y-113412208D01*
X120426270Y-113407227D01*
X120432859Y-113382639D01*
X120482520Y-113197299D01*
X120483944Y-113191986D01*
X120503365Y-112970000D01*
X120483944Y-112748014D01*
X120445480Y-112604464D01*
X120427693Y-112538083D01*
X120427692Y-112538081D01*
X120426270Y-112532773D01*
X120372879Y-112418275D01*
X120334423Y-112335805D01*
X120334420Y-112335800D01*
X120332097Y-112330818D01*
X120204284Y-112148283D01*
X120046717Y-111990716D01*
X120024056Y-111974848D01*
X119966890Y-111934820D01*
X119864183Y-111862903D01*
X119859201Y-111860580D01*
X119859196Y-111860577D01*
X119759728Y-111814195D01*
X119706443Y-111767278D01*
X119686982Y-111699001D01*
X119707524Y-111631041D01*
X119759728Y-111585805D01*
X119859196Y-111539423D01*
X119859201Y-111539420D01*
X119864183Y-111537097D01*
X120046717Y-111409284D01*
X120204284Y-111251717D01*
X120216901Y-111233699D01*
X120302923Y-111110846D01*
X120332097Y-111069182D01*
X120334420Y-111064200D01*
X120334423Y-111064195D01*
X120423947Y-110872209D01*
X120423948Y-110872208D01*
X120426270Y-110867227D01*
X120428262Y-110859795D01*
X120466272Y-110717939D01*
X120483944Y-110651986D01*
X120485662Y-110632352D01*
X141537275Y-110632352D01*
X141538580Y-110639829D01*
X141538580Y-110639830D01*
X141548261Y-110695299D01*
X141549223Y-110701821D01*
X141556898Y-110765242D01*
X141559581Y-110772343D01*
X141560222Y-110774952D01*
X141564685Y-110791262D01*
X141565450Y-110793798D01*
X141566757Y-110801284D01*
X141578242Y-110827446D01*
X141592442Y-110859795D01*
X141594933Y-110865899D01*
X141617513Y-110925656D01*
X141621817Y-110931919D01*
X141623054Y-110934285D01*
X141631299Y-110949097D01*
X141632632Y-110951351D01*
X141635685Y-110958305D01*
X141640307Y-110964328D01*
X141674579Y-111008991D01*
X141678459Y-111014332D01*
X141710339Y-111060720D01*
X141710344Y-111060725D01*
X141714643Y-111066981D01*
X141720313Y-111072032D01*
X141720314Y-111072034D01*
X141761170Y-111108435D01*
X141766446Y-111113416D01*
X143327324Y-112674294D01*
X143361350Y-112736606D01*
X143363750Y-112774370D01*
X143346635Y-112970000D01*
X143366056Y-113191986D01*
X143367480Y-113197299D01*
X143417142Y-113382639D01*
X143423730Y-113407227D01*
X143426052Y-113412208D01*
X143426053Y-113412209D01*
X143515577Y-113604195D01*
X143515580Y-113604200D01*
X143517903Y-113609182D01*
X143645716Y-113791717D01*
X143803283Y-113949284D01*
X143985817Y-114077097D01*
X143990802Y-114079421D01*
X143990808Y-114079425D01*
X144090272Y-114125805D01*
X144143558Y-114172722D01*
X144163019Y-114240999D01*
X144142478Y-114308959D01*
X144090273Y-114354195D01*
X143990805Y-114400577D01*
X143990800Y-114400580D01*
X143985818Y-114402903D01*
X143883608Y-114474472D01*
X143830198Y-114511870D01*
X143803283Y-114530716D01*
X143645716Y-114688283D01*
X143517903Y-114870818D01*
X143515580Y-114875800D01*
X143515577Y-114875805D01*
X143489220Y-114932328D01*
X143423730Y-115072773D01*
X143366056Y-115288014D01*
X143346635Y-115510000D01*
X143366056Y-115731986D01*
X143367480Y-115737299D01*
X143415745Y-115917425D01*
X143423730Y-115947227D01*
X143426052Y-115952208D01*
X143426053Y-115952209D01*
X143515577Y-116144195D01*
X143515580Y-116144200D01*
X143517903Y-116149182D01*
X143645716Y-116331717D01*
X143803283Y-116489284D01*
X143807792Y-116492441D01*
X143807794Y-116492443D01*
X143824395Y-116504067D01*
X143985817Y-116617097D01*
X143990802Y-116619421D01*
X143990808Y-116619425D01*
X144090272Y-116665805D01*
X144143558Y-116712722D01*
X144163019Y-116780999D01*
X144142478Y-116848959D01*
X144090273Y-116894195D01*
X143990805Y-116940577D01*
X143990800Y-116940580D01*
X143985818Y-116942903D01*
X143803283Y-117070716D01*
X143645716Y-117228283D01*
X143517903Y-117410818D01*
X143515580Y-117415800D01*
X143515577Y-117415805D01*
X143426053Y-117607791D01*
X143423730Y-117612773D01*
X143366056Y-117828014D01*
X143346635Y-118050000D01*
X143366056Y-118271986D01*
X143423730Y-118487227D01*
X143426052Y-118492208D01*
X143426053Y-118492209D01*
X143515577Y-118684195D01*
X143515580Y-118684200D01*
X143517903Y-118689182D01*
X143645716Y-118871717D01*
X143803283Y-119029284D01*
X143985817Y-119157097D01*
X143990802Y-119159421D01*
X143990808Y-119159425D01*
X144090272Y-119205805D01*
X144143558Y-119252722D01*
X144163019Y-119320999D01*
X144142478Y-119388959D01*
X144090273Y-119434195D01*
X143990805Y-119480577D01*
X143990800Y-119480580D01*
X143985818Y-119482903D01*
X143803283Y-119610716D01*
X143645716Y-119768283D01*
X143642559Y-119772791D01*
X143642557Y-119772794D01*
X143637375Y-119780195D01*
X143517903Y-119950818D01*
X143515580Y-119955800D01*
X143515577Y-119955805D01*
X143449799Y-120096868D01*
X143423730Y-120152773D01*
X143366056Y-120368014D01*
X143346635Y-120590000D01*
X143366056Y-120811986D01*
X143423730Y-121027227D01*
X143426052Y-121032208D01*
X143426053Y-121032209D01*
X143515577Y-121224195D01*
X143515580Y-121224200D01*
X143517903Y-121229182D01*
X143645716Y-121411717D01*
X143803283Y-121569284D01*
X143985817Y-121697097D01*
X143990799Y-121699420D01*
X143990804Y-121699423D01*
X144182791Y-121788947D01*
X144187773Y-121791270D01*
X144193081Y-121792692D01*
X144193083Y-121792693D01*
X144200301Y-121794627D01*
X144403014Y-121848944D01*
X144625000Y-121868365D01*
X144846986Y-121848944D01*
X145049699Y-121794627D01*
X145056917Y-121792693D01*
X145056919Y-121792692D01*
X145062227Y-121791270D01*
X145067209Y-121788947D01*
X145259196Y-121699423D01*
X145259201Y-121699420D01*
X145264183Y-121697097D01*
X145446717Y-121569284D01*
X145604284Y-121411717D01*
X145732097Y-121229182D01*
X145734420Y-121224200D01*
X145734423Y-121224195D01*
X145823947Y-121032209D01*
X145823948Y-121032208D01*
X145826270Y-121027227D01*
X145883944Y-120811986D01*
X145903365Y-120590000D01*
X145883944Y-120368014D01*
X145826270Y-120152773D01*
X145800201Y-120096868D01*
X145734423Y-119955805D01*
X145734420Y-119955800D01*
X145732097Y-119950818D01*
X145612625Y-119780195D01*
X145607443Y-119772794D01*
X145607441Y-119772791D01*
X145604284Y-119768283D01*
X145446717Y-119610716D01*
X145264183Y-119482903D01*
X145259201Y-119480580D01*
X145259196Y-119480577D01*
X145159728Y-119434195D01*
X145106443Y-119387278D01*
X145086982Y-119319001D01*
X145107524Y-119251041D01*
X145159728Y-119205805D01*
X145259196Y-119159423D01*
X145259201Y-119159420D01*
X145264183Y-119157097D01*
X145446717Y-119029284D01*
X145604284Y-118871717D01*
X145732097Y-118689182D01*
X145734420Y-118684200D01*
X145734423Y-118684195D01*
X145823947Y-118492209D01*
X145823948Y-118492208D01*
X145826270Y-118487227D01*
X145883944Y-118271986D01*
X145903365Y-118050000D01*
X145883944Y-117828014D01*
X145826270Y-117612773D01*
X145823947Y-117607791D01*
X145734423Y-117415805D01*
X145734420Y-117415800D01*
X145732097Y-117410818D01*
X145604284Y-117228283D01*
X145446717Y-117070716D01*
X145428015Y-117057620D01*
X145366890Y-117014820D01*
X145264183Y-116942903D01*
X145259201Y-116940580D01*
X145259196Y-116940577D01*
X145159728Y-116894195D01*
X145106443Y-116847278D01*
X145086982Y-116779001D01*
X145107524Y-116711041D01*
X145159728Y-116665805D01*
X145259196Y-116619423D01*
X145259201Y-116619420D01*
X145264183Y-116617097D01*
X145425605Y-116504067D01*
X145442206Y-116492443D01*
X145442208Y-116492441D01*
X145446717Y-116489284D01*
X145604284Y-116331717D01*
X145732097Y-116149182D01*
X145734420Y-116144200D01*
X145734423Y-116144195D01*
X145823947Y-115952209D01*
X145823948Y-115952208D01*
X145826270Y-115947227D01*
X145834256Y-115917425D01*
X145882520Y-115737299D01*
X145883944Y-115731986D01*
X145903365Y-115510000D01*
X145900014Y-115471695D01*
X147222251Y-115471695D01*
X147222548Y-115476848D01*
X147222548Y-115476851D01*
X147228011Y-115571590D01*
X147235110Y-115694715D01*
X147236247Y-115699761D01*
X147236248Y-115699767D01*
X147244707Y-115737299D01*
X147284222Y-115912639D01*
X147368266Y-116119616D01*
X147484987Y-116310088D01*
X147631250Y-116478938D01*
X147707846Y-116542529D01*
X147797664Y-116617097D01*
X147803126Y-116621632D01*
X147996000Y-116734338D01*
X148204692Y-116814030D01*
X148209760Y-116815061D01*
X148209763Y-116815062D01*
X148317017Y-116836883D01*
X148423597Y-116858567D01*
X148428772Y-116858757D01*
X148428774Y-116858757D01*
X148641673Y-116866564D01*
X148641677Y-116866564D01*
X148646837Y-116866753D01*
X148651957Y-116866097D01*
X148651959Y-116866097D01*
X148863288Y-116839025D01*
X148863289Y-116839025D01*
X148868416Y-116838368D01*
X148873366Y-116836883D01*
X149077429Y-116775661D01*
X149077434Y-116775659D01*
X149082384Y-116774174D01*
X149282994Y-116675896D01*
X149464860Y-116546173D01*
X149494816Y-116516322D01*
X149619435Y-116392137D01*
X149623096Y-116388489D01*
X149682594Y-116305689D01*
X149750435Y-116211277D01*
X149753453Y-116207077D01*
X149779839Y-116153690D01*
X149850136Y-116011453D01*
X149850137Y-116011451D01*
X149852430Y-116006811D01*
X149917370Y-115793069D01*
X149946529Y-115571590D01*
X149948156Y-115505000D01*
X149929852Y-115282361D01*
X149875431Y-115065702D01*
X149786354Y-114860840D01*
X149665014Y-114673277D01*
X149514670Y-114508051D01*
X149510619Y-114504852D01*
X149510615Y-114504848D01*
X149343414Y-114372800D01*
X149343410Y-114372798D01*
X149339359Y-114369598D01*
X149298053Y-114346796D01*
X149248084Y-114296364D01*
X149233312Y-114226921D01*
X149258428Y-114160516D01*
X149285780Y-114133909D01*
X149352846Y-114086071D01*
X149464860Y-114006173D01*
X149623096Y-113848489D01*
X149682594Y-113765689D01*
X149750435Y-113671277D01*
X149753453Y-113667077D01*
X149779839Y-113613690D01*
X149850136Y-113471453D01*
X149850137Y-113471451D01*
X149852430Y-113466811D01*
X149917370Y-113253069D01*
X149946529Y-113031590D01*
X149946611Y-113028240D01*
X149948074Y-112968365D01*
X149948074Y-112968361D01*
X149948156Y-112965000D01*
X149946240Y-112941695D01*
X162862251Y-112941695D01*
X162862548Y-112946848D01*
X162862548Y-112946851D01*
X162868011Y-113041590D01*
X162875110Y-113164715D01*
X162876247Y-113169761D01*
X162876248Y-113169767D01*
X162895022Y-113253069D01*
X162924222Y-113382639D01*
X162985673Y-113533976D01*
X163002262Y-113574829D01*
X163008266Y-113589616D01*
X163124987Y-113780088D01*
X163271250Y-113948938D01*
X163275230Y-113952242D01*
X163279981Y-113956187D01*
X163319616Y-114015090D01*
X163321113Y-114086071D01*
X163283997Y-114146593D01*
X163243725Y-114171112D01*
X163181770Y-114194338D01*
X163128295Y-114214385D01*
X163011739Y-114301739D01*
X162924385Y-114418295D01*
X162873255Y-114554684D01*
X162866500Y-114616866D01*
X162866500Y-116413134D01*
X162873255Y-116475316D01*
X162924385Y-116611705D01*
X163011739Y-116728261D01*
X163128295Y-116815615D01*
X163264684Y-116866745D01*
X163326866Y-116873500D01*
X165123134Y-116873500D01*
X165185316Y-116866745D01*
X165321705Y-116815615D01*
X165438261Y-116728261D01*
X165525615Y-116611705D01*
X165576745Y-116475316D01*
X165583500Y-116413134D01*
X165583500Y-114616866D01*
X165576745Y-114554684D01*
X165525615Y-114418295D01*
X165438261Y-114301739D01*
X165321705Y-114214385D01*
X165268230Y-114194338D01*
X165203203Y-114169960D01*
X165146439Y-114127318D01*
X165121739Y-114060756D01*
X165136947Y-113991408D01*
X165158493Y-113962727D01*
X165259435Y-113862137D01*
X165263096Y-113858489D01*
X165267066Y-113852965D01*
X165390435Y-113681277D01*
X165393453Y-113677077D01*
X165398396Y-113667077D01*
X165490136Y-113481453D01*
X165490137Y-113481451D01*
X165492430Y-113476811D01*
X165557370Y-113263069D01*
X165586529Y-113041590D01*
X165588156Y-112975000D01*
X165569852Y-112752361D01*
X165515431Y-112535702D01*
X165426354Y-112330840D01*
X165305014Y-112143277D01*
X165154670Y-111978051D01*
X165150619Y-111974852D01*
X165150615Y-111974848D01*
X164983414Y-111842800D01*
X164983410Y-111842798D01*
X164979359Y-111839598D01*
X164938053Y-111816796D01*
X164888084Y-111766364D01*
X164873312Y-111696921D01*
X164898428Y-111630516D01*
X164925780Y-111603909D01*
X164987478Y-111559900D01*
X165104860Y-111476173D01*
X165263096Y-111318489D01*
X165273533Y-111303965D01*
X165390435Y-111141277D01*
X165393453Y-111137077D01*
X165428097Y-111066981D01*
X165490136Y-110941453D01*
X165490137Y-110941451D01*
X165492430Y-110936811D01*
X165546848Y-110757702D01*
X165555865Y-110728023D01*
X165555865Y-110728021D01*
X165557370Y-110723069D01*
X165586529Y-110501590D01*
X165586611Y-110498240D01*
X165588074Y-110438365D01*
X165588074Y-110438361D01*
X165588156Y-110435000D01*
X165569852Y-110212361D01*
X165515431Y-109995702D01*
X165426354Y-109790840D01*
X165305014Y-109603277D01*
X165154670Y-109438051D01*
X165150619Y-109434852D01*
X165150615Y-109434848D01*
X164983414Y-109302800D01*
X164983410Y-109302798D01*
X164979359Y-109299598D01*
X164938053Y-109276796D01*
X164888084Y-109226364D01*
X164873312Y-109156921D01*
X164898428Y-109090516D01*
X164925780Y-109063909D01*
X164989543Y-109018427D01*
X165104860Y-108936173D01*
X165128484Y-108912632D01*
X165259435Y-108782137D01*
X165263096Y-108778489D01*
X165267661Y-108772137D01*
X165390435Y-108601277D01*
X165393453Y-108597077D01*
X165398396Y-108587077D01*
X165490136Y-108401453D01*
X165490137Y-108401451D01*
X165492430Y-108396811D01*
X165535656Y-108254539D01*
X165555865Y-108188023D01*
X165555865Y-108188021D01*
X165557370Y-108183069D01*
X165586529Y-107961590D01*
X165588156Y-107895000D01*
X165569852Y-107672361D01*
X165515431Y-107455702D01*
X165426354Y-107250840D01*
X165305014Y-107063277D01*
X165154670Y-106898051D01*
X165150619Y-106894852D01*
X165150615Y-106894848D01*
X164983414Y-106762800D01*
X164983410Y-106762798D01*
X164979359Y-106759598D01*
X164938053Y-106736796D01*
X164888084Y-106686364D01*
X164873312Y-106616921D01*
X164898428Y-106550516D01*
X164925780Y-106523909D01*
X164969603Y-106492650D01*
X165104860Y-106396173D01*
X165263096Y-106238489D01*
X165267661Y-106232137D01*
X165390435Y-106061277D01*
X165393453Y-106057077D01*
X165398396Y-106047077D01*
X165490136Y-105861453D01*
X165490137Y-105861451D01*
X165492430Y-105856811D01*
X165557370Y-105643069D01*
X165586529Y-105421590D01*
X165588156Y-105355000D01*
X165569852Y-105132361D01*
X165515431Y-104915702D01*
X165426354Y-104710840D01*
X165305014Y-104523277D01*
X165154670Y-104358051D01*
X165150619Y-104354852D01*
X165150615Y-104354848D01*
X164983414Y-104222800D01*
X164983410Y-104222798D01*
X164979359Y-104219598D01*
X164938053Y-104196796D01*
X164888084Y-104146364D01*
X164873312Y-104076921D01*
X164898428Y-104010516D01*
X164925780Y-103983909D01*
X164969603Y-103952650D01*
X165104860Y-103856173D01*
X165263096Y-103698489D01*
X165267661Y-103692137D01*
X165390435Y-103521277D01*
X165393453Y-103517077D01*
X165398396Y-103507077D01*
X165490136Y-103321453D01*
X165490137Y-103321451D01*
X165492430Y-103316811D01*
X165557370Y-103103069D01*
X165586529Y-102881590D01*
X165588156Y-102815000D01*
X165569852Y-102592361D01*
X165515431Y-102375702D01*
X165426354Y-102170840D01*
X165305014Y-101983277D01*
X165154670Y-101818051D01*
X165150619Y-101814852D01*
X165150615Y-101814848D01*
X164983414Y-101682800D01*
X164983410Y-101682798D01*
X164979359Y-101679598D01*
X164967045Y-101672800D01*
X164850981Y-101608730D01*
X164783789Y-101571638D01*
X164778920Y-101569914D01*
X164778916Y-101569912D01*
X164578087Y-101498795D01*
X164578083Y-101498794D01*
X164573212Y-101497069D01*
X164568119Y-101496162D01*
X164568116Y-101496161D01*
X164358373Y-101458800D01*
X164358367Y-101458799D01*
X164353284Y-101457894D01*
X164279452Y-101456992D01*
X164135081Y-101455228D01*
X164135079Y-101455228D01*
X164129911Y-101455165D01*
X163909091Y-101488955D01*
X163696756Y-101558357D01*
X163666443Y-101574137D01*
X163599991Y-101608730D01*
X163498607Y-101661507D01*
X163494474Y-101664610D01*
X163494471Y-101664612D01*
X163328305Y-101789373D01*
X163319965Y-101795635D01*
X163165629Y-101957138D01*
X163162715Y-101961410D01*
X163162714Y-101961411D01*
X163154620Y-101973277D01*
X163039743Y-102141680D01*
X163024003Y-102175590D01*
X162948013Y-102339297D01*
X162945688Y-102344305D01*
X162885989Y-102559570D01*
X162862251Y-102781695D01*
X162862548Y-102786848D01*
X162862548Y-102786851D01*
X162868011Y-102881590D01*
X162875110Y-103004715D01*
X162876247Y-103009761D01*
X162876248Y-103009767D01*
X162895022Y-103093069D01*
X162924222Y-103222639D01*
X162962461Y-103316811D01*
X163002262Y-103414829D01*
X163008266Y-103429616D01*
X163010965Y-103434020D01*
X163115915Y-103605283D01*
X163124987Y-103620088D01*
X163271250Y-103788938D01*
X163443126Y-103931632D01*
X163499332Y-103964476D01*
X163516445Y-103974476D01*
X163565169Y-104026114D01*
X163578240Y-104095897D01*
X163551509Y-104161669D01*
X163511055Y-104195027D01*
X163498607Y-104201507D01*
X163494474Y-104204610D01*
X163494471Y-104204612D01*
X163328305Y-104329373D01*
X163319965Y-104335635D01*
X163165629Y-104497138D01*
X163162715Y-104501410D01*
X163162714Y-104501411D01*
X163154620Y-104513277D01*
X163039743Y-104681680D01*
X163024003Y-104715590D01*
X162948013Y-104879297D01*
X162945688Y-104884305D01*
X162885989Y-105099570D01*
X162862251Y-105321695D01*
X162862548Y-105326848D01*
X162862548Y-105326851D01*
X162868011Y-105421590D01*
X162875110Y-105544715D01*
X162876247Y-105549761D01*
X162876248Y-105549767D01*
X162895022Y-105633069D01*
X162924222Y-105762639D01*
X162962461Y-105856811D01*
X163002262Y-105954829D01*
X163008266Y-105969616D01*
X163124987Y-106160088D01*
X163271250Y-106328938D01*
X163443126Y-106471632D01*
X163499332Y-106504476D01*
X163516445Y-106514476D01*
X163565169Y-106566114D01*
X163578240Y-106635897D01*
X163551509Y-106701669D01*
X163511055Y-106735027D01*
X163498607Y-106741507D01*
X163494474Y-106744610D01*
X163494471Y-106744612D01*
X163328305Y-106869373D01*
X163319965Y-106875635D01*
X163165629Y-107037138D01*
X163162715Y-107041410D01*
X163162714Y-107041411D01*
X163154620Y-107053277D01*
X163039743Y-107221680D01*
X163024003Y-107255590D01*
X162948013Y-107419297D01*
X162945688Y-107424305D01*
X162885989Y-107639570D01*
X162862251Y-107861695D01*
X162862548Y-107866848D01*
X162862548Y-107866851D01*
X162868011Y-107961590D01*
X162875110Y-108084715D01*
X162876247Y-108089761D01*
X162876248Y-108089767D01*
X162895022Y-108173069D01*
X162924222Y-108302639D01*
X162962461Y-108396811D01*
X163002262Y-108494829D01*
X163008266Y-108509616D01*
X163124987Y-108700088D01*
X163271250Y-108868938D01*
X163443126Y-109011632D01*
X163466605Y-109025352D01*
X163516445Y-109054476D01*
X163565169Y-109106114D01*
X163578240Y-109175897D01*
X163551509Y-109241669D01*
X163511055Y-109275027D01*
X163498607Y-109281507D01*
X163494474Y-109284610D01*
X163494471Y-109284612D01*
X163324100Y-109412530D01*
X163319965Y-109415635D01*
X163165629Y-109577138D01*
X163039743Y-109761680D01*
X162945688Y-109964305D01*
X162885989Y-110179570D01*
X162862251Y-110401695D01*
X162862548Y-110406848D01*
X162862548Y-110406851D01*
X162868011Y-110501590D01*
X162875110Y-110624715D01*
X162876247Y-110629761D01*
X162876248Y-110629767D01*
X162896113Y-110717910D01*
X162924222Y-110842639D01*
X163008266Y-111049616D01*
X163124987Y-111240088D01*
X163271250Y-111408938D01*
X163443126Y-111551632D01*
X163470141Y-111567418D01*
X163516445Y-111594476D01*
X163565169Y-111646114D01*
X163578240Y-111715897D01*
X163551509Y-111781669D01*
X163511055Y-111815027D01*
X163498607Y-111821507D01*
X163494474Y-111824610D01*
X163494471Y-111824612D01*
X163328305Y-111949373D01*
X163319965Y-111955635D01*
X163301605Y-111974848D01*
X163185321Y-112096532D01*
X163165629Y-112117138D01*
X163162715Y-112121410D01*
X163162714Y-112121411D01*
X163154620Y-112133277D01*
X163039743Y-112301680D01*
X163024003Y-112335590D01*
X162948013Y-112499297D01*
X162945688Y-112504305D01*
X162885989Y-112719570D01*
X162862251Y-112941695D01*
X149946240Y-112941695D01*
X149929852Y-112742361D01*
X149875431Y-112525702D01*
X149786354Y-112320840D01*
X149672201Y-112144386D01*
X149667822Y-112137617D01*
X149667820Y-112137614D01*
X149665014Y-112133277D01*
X149514670Y-111968051D01*
X149510619Y-111964852D01*
X149510615Y-111964848D01*
X149343414Y-111832800D01*
X149343410Y-111832798D01*
X149339359Y-111829598D01*
X149297569Y-111806529D01*
X149247598Y-111756097D01*
X149232826Y-111686654D01*
X149257942Y-111620248D01*
X149285294Y-111593641D01*
X149460328Y-111468792D01*
X149468200Y-111462139D01*
X149619052Y-111311812D01*
X149625730Y-111303965D01*
X149750003Y-111131020D01*
X149755313Y-111122183D01*
X149849670Y-110931267D01*
X149853469Y-110921672D01*
X149915377Y-110717910D01*
X149917555Y-110707837D01*
X149918986Y-110696962D01*
X149916775Y-110682778D01*
X149903617Y-110679000D01*
X147268225Y-110679000D01*
X147254694Y-110682973D01*
X147253257Y-110692966D01*
X147283565Y-110827446D01*
X147286645Y-110837275D01*
X147366770Y-111034603D01*
X147371413Y-111043794D01*
X147482694Y-111225388D01*
X147488777Y-111233699D01*
X147628213Y-111394667D01*
X147635580Y-111401883D01*
X147799434Y-111537916D01*
X147807881Y-111543831D01*
X147876969Y-111584203D01*
X147925693Y-111635842D01*
X147938764Y-111705625D01*
X147912033Y-111771396D01*
X147871584Y-111804752D01*
X147858607Y-111811507D01*
X147854474Y-111814610D01*
X147854471Y-111814612D01*
X147785949Y-111866060D01*
X147679965Y-111945635D01*
X147525629Y-112107138D01*
X147522715Y-112111410D01*
X147522714Y-112111411D01*
X147437556Y-112236249D01*
X147399743Y-112291680D01*
X147383584Y-112326492D01*
X147338190Y-112424286D01*
X147305688Y-112494305D01*
X147245989Y-112709570D01*
X147222251Y-112931695D01*
X147222548Y-112936848D01*
X147222548Y-112936851D01*
X147228011Y-113031590D01*
X147235110Y-113154715D01*
X147236247Y-113159761D01*
X147236248Y-113159767D01*
X147244707Y-113197299D01*
X147284222Y-113372639D01*
X147368266Y-113579616D01*
X147484987Y-113770088D01*
X147631250Y-113938938D01*
X147694451Y-113991408D01*
X147797664Y-114077097D01*
X147803126Y-114081632D01*
X147820239Y-114091632D01*
X147876445Y-114124476D01*
X147925169Y-114176114D01*
X147938240Y-114245897D01*
X147911509Y-114311669D01*
X147871055Y-114345027D01*
X147858607Y-114351507D01*
X147854474Y-114354610D01*
X147854471Y-114354612D01*
X147758455Y-114426703D01*
X147679965Y-114485635D01*
X147525629Y-114647138D01*
X147522715Y-114651410D01*
X147522714Y-114651411D01*
X147437556Y-114776249D01*
X147399743Y-114831680D01*
X147305688Y-115034305D01*
X147245989Y-115249570D01*
X147222251Y-115471695D01*
X145900014Y-115471695D01*
X145883944Y-115288014D01*
X145826270Y-115072773D01*
X145760780Y-114932328D01*
X145734423Y-114875805D01*
X145734420Y-114875800D01*
X145732097Y-114870818D01*
X145604284Y-114688283D01*
X145446717Y-114530716D01*
X145419803Y-114511870D01*
X145366890Y-114474820D01*
X145264183Y-114402903D01*
X145259201Y-114400580D01*
X145259196Y-114400577D01*
X145159728Y-114354195D01*
X145106443Y-114307278D01*
X145086982Y-114239001D01*
X145107524Y-114171041D01*
X145159728Y-114125805D01*
X145259196Y-114079423D01*
X145259201Y-114079420D01*
X145264183Y-114077097D01*
X145446717Y-113949284D01*
X145604284Y-113791717D01*
X145732097Y-113609182D01*
X145734420Y-113604200D01*
X145734423Y-113604195D01*
X145823947Y-113412209D01*
X145823948Y-113412208D01*
X145826270Y-113407227D01*
X145832859Y-113382639D01*
X145882520Y-113197299D01*
X145883944Y-113191986D01*
X145903365Y-112970000D01*
X145883944Y-112748014D01*
X145845480Y-112604464D01*
X145827693Y-112538083D01*
X145827692Y-112538081D01*
X145826270Y-112532773D01*
X145772879Y-112418275D01*
X145734423Y-112335805D01*
X145734420Y-112335800D01*
X145732097Y-112330818D01*
X145604284Y-112148283D01*
X145446717Y-111990716D01*
X145424056Y-111974848D01*
X145366890Y-111934820D01*
X145264183Y-111862903D01*
X145259201Y-111860580D01*
X145259196Y-111860577D01*
X145159728Y-111814195D01*
X145106443Y-111767278D01*
X145086982Y-111699001D01*
X145107524Y-111631041D01*
X145159728Y-111585805D01*
X145259196Y-111539423D01*
X145259201Y-111539420D01*
X145264183Y-111537097D01*
X145446717Y-111409284D01*
X145604284Y-111251717D01*
X145616901Y-111233699D01*
X145702923Y-111110846D01*
X145732097Y-111069182D01*
X145734420Y-111064200D01*
X145734423Y-111064195D01*
X145823947Y-110872209D01*
X145823948Y-110872208D01*
X145826270Y-110867227D01*
X145828262Y-110859795D01*
X145866272Y-110717939D01*
X145883944Y-110651986D01*
X145903365Y-110430000D01*
X145893590Y-110318268D01*
X145886250Y-110234370D01*
X145900239Y-110164766D01*
X145922676Y-110134294D01*
X146730520Y-109326450D01*
X146736785Y-109320596D01*
X146737238Y-109320201D01*
X146780385Y-109282561D01*
X146817129Y-109230280D01*
X146821061Y-109224986D01*
X146855791Y-109180693D01*
X146860476Y-109174718D01*
X146863599Y-109167802D01*
X146864983Y-109165516D01*
X146873357Y-109150835D01*
X146874622Y-109148475D01*
X146878990Y-109142261D01*
X146902203Y-109082723D01*
X146904759Y-109076642D01*
X146909612Y-109065896D01*
X146931045Y-109018427D01*
X146932429Y-109010960D01*
X146933230Y-109008405D01*
X146937859Y-108992152D01*
X146938522Y-108989572D01*
X146941282Y-108982491D01*
X146943933Y-108962359D01*
X146947380Y-108936173D01*
X146949622Y-108919139D01*
X146950653Y-108912632D01*
X146958140Y-108872240D01*
X146962296Y-108849814D01*
X146958709Y-108787608D01*
X146958500Y-108780354D01*
X146958500Y-107851695D01*
X147222251Y-107851695D01*
X147222548Y-107856848D01*
X147222548Y-107856851D01*
X147228011Y-107951590D01*
X147235110Y-108074715D01*
X147236247Y-108079761D01*
X147236248Y-108079767D01*
X147244707Y-108117299D01*
X147284222Y-108292639D01*
X147368266Y-108499616D01*
X147484987Y-108690088D01*
X147631250Y-108858938D01*
X147743203Y-108951883D01*
X147797664Y-108997097D01*
X147803126Y-109001632D01*
X147843718Y-109025352D01*
X147876955Y-109044774D01*
X147925679Y-109096412D01*
X147938750Y-109166195D01*
X147912019Y-109231967D01*
X147871562Y-109265327D01*
X147863457Y-109269546D01*
X147854738Y-109275036D01*
X147684433Y-109402905D01*
X147676726Y-109409748D01*
X147529590Y-109563717D01*
X147523104Y-109571727D01*
X147403098Y-109747649D01*
X147398000Y-109756623D01*
X147308338Y-109949783D01*
X147304775Y-109959470D01*
X147249389Y-110159183D01*
X147250912Y-110167607D01*
X147263292Y-110171000D01*
X149903344Y-110171000D01*
X149916875Y-110167027D01*
X149918180Y-110157947D01*
X149876214Y-109990875D01*
X149872894Y-109981124D01*
X149787972Y-109785814D01*
X149783105Y-109776739D01*
X149667426Y-109597926D01*
X149661136Y-109589757D01*
X149517806Y-109432240D01*
X149510273Y-109425215D01*
X149343139Y-109293222D01*
X149334556Y-109287520D01*
X149297602Y-109267120D01*
X149247631Y-109216687D01*
X149232859Y-109147245D01*
X149257975Y-109080839D01*
X149285327Y-109054232D01*
X149349574Y-109008405D01*
X149464860Y-108926173D01*
X149478449Y-108912632D01*
X149613061Y-108778489D01*
X149623096Y-108768489D01*
X149682594Y-108685689D01*
X149750435Y-108591277D01*
X149753453Y-108587077D01*
X149758394Y-108577081D01*
X149850136Y-108391453D01*
X149850137Y-108391451D01*
X149852430Y-108386811D01*
X149917370Y-108173069D01*
X149946529Y-107951590D01*
X149947800Y-107899580D01*
X149948074Y-107888365D01*
X149948074Y-107888361D01*
X149948156Y-107885000D01*
X149929852Y-107662361D01*
X149875431Y-107445702D01*
X149786354Y-107240840D01*
X149672201Y-107064386D01*
X149667822Y-107057617D01*
X149667820Y-107057614D01*
X149665014Y-107053277D01*
X149514670Y-106888051D01*
X149510619Y-106884852D01*
X149510615Y-106884848D01*
X149343414Y-106752800D01*
X149343410Y-106752798D01*
X149339359Y-106749598D01*
X149298053Y-106726796D01*
X149248084Y-106676364D01*
X149233312Y-106606921D01*
X149258428Y-106540516D01*
X149285780Y-106513909D01*
X149349684Y-106468327D01*
X149464860Y-106386173D01*
X149623096Y-106228489D01*
X149682594Y-106145689D01*
X149750435Y-106051277D01*
X149753453Y-106047077D01*
X149779839Y-105993690D01*
X149850136Y-105851453D01*
X149850137Y-105851451D01*
X149852430Y-105846811D01*
X149917370Y-105633069D01*
X149946529Y-105411590D01*
X149946611Y-105408240D01*
X149948074Y-105348365D01*
X149948074Y-105348361D01*
X149948156Y-105345000D01*
X149929852Y-105122361D01*
X149875431Y-104905702D01*
X149786354Y-104700840D01*
X149672201Y-104524386D01*
X149667822Y-104517617D01*
X149667820Y-104517614D01*
X149665014Y-104513277D01*
X149514670Y-104348051D01*
X149510619Y-104344852D01*
X149510615Y-104344848D01*
X149343414Y-104212800D01*
X149343410Y-104212798D01*
X149339359Y-104209598D01*
X149298053Y-104186796D01*
X149248084Y-104136364D01*
X149233312Y-104066921D01*
X149258428Y-104000516D01*
X149285780Y-103973909D01*
X149349684Y-103928327D01*
X149464860Y-103846173D01*
X149623096Y-103688489D01*
X149682594Y-103605689D01*
X149750435Y-103511277D01*
X149753453Y-103507077D01*
X149779839Y-103453690D01*
X149850136Y-103311453D01*
X149850137Y-103311451D01*
X149852430Y-103306811D01*
X149902543Y-103141869D01*
X149915865Y-103098023D01*
X149915865Y-103098021D01*
X149917370Y-103093069D01*
X149946529Y-102871590D01*
X149946611Y-102868240D01*
X149948074Y-102808365D01*
X149948074Y-102808361D01*
X149948156Y-102805000D01*
X149929852Y-102582361D01*
X149875431Y-102365702D01*
X149786354Y-102160840D01*
X149672201Y-101984386D01*
X149667822Y-101977617D01*
X149667820Y-101977614D01*
X149665014Y-101973277D01*
X149514670Y-101808051D01*
X149510619Y-101804852D01*
X149510615Y-101804848D01*
X149343414Y-101672800D01*
X149343410Y-101672798D01*
X149339359Y-101669598D01*
X149320375Y-101659118D01*
X149226466Y-101607278D01*
X149143789Y-101561638D01*
X149138920Y-101559914D01*
X149138916Y-101559912D01*
X148938087Y-101488795D01*
X148938083Y-101488794D01*
X148933212Y-101487069D01*
X148928119Y-101486162D01*
X148928116Y-101486161D01*
X148718373Y-101448800D01*
X148718367Y-101448799D01*
X148713284Y-101447894D01*
X148639452Y-101446992D01*
X148495081Y-101445228D01*
X148495079Y-101445228D01*
X148489911Y-101445165D01*
X148269091Y-101478955D01*
X148056756Y-101548357D01*
X147858607Y-101651507D01*
X147854474Y-101654610D01*
X147854471Y-101654612D01*
X147684100Y-101782530D01*
X147679965Y-101785635D01*
X147525629Y-101947138D01*
X147522715Y-101951410D01*
X147522714Y-101951411D01*
X147437556Y-102076249D01*
X147399743Y-102131680D01*
X147305688Y-102334305D01*
X147245989Y-102549570D01*
X147222251Y-102771695D01*
X147222548Y-102776848D01*
X147222548Y-102776851D01*
X147228011Y-102871590D01*
X147235110Y-102994715D01*
X147236247Y-102999761D01*
X147236248Y-102999767D01*
X147244707Y-103037299D01*
X147284222Y-103212639D01*
X147368266Y-103419616D01*
X147370965Y-103424020D01*
X147482043Y-103605283D01*
X147484987Y-103610088D01*
X147631250Y-103778938D01*
X147778610Y-103901279D01*
X147797664Y-103917097D01*
X147803126Y-103921632D01*
X147820239Y-103931632D01*
X147876445Y-103964476D01*
X147925169Y-104016114D01*
X147938240Y-104085897D01*
X147911509Y-104151669D01*
X147871055Y-104185027D01*
X147858607Y-104191507D01*
X147854474Y-104194610D01*
X147854471Y-104194612D01*
X147684100Y-104322530D01*
X147679965Y-104325635D01*
X147525629Y-104487138D01*
X147522715Y-104491410D01*
X147522714Y-104491411D01*
X147437556Y-104616249D01*
X147399743Y-104671680D01*
X147305688Y-104874305D01*
X147245989Y-105089570D01*
X147222251Y-105311695D01*
X147222548Y-105316848D01*
X147222548Y-105316851D01*
X147228011Y-105411590D01*
X147235110Y-105534715D01*
X147236247Y-105539761D01*
X147236248Y-105539767D01*
X147244707Y-105577299D01*
X147284222Y-105752639D01*
X147368266Y-105959616D01*
X147484987Y-106150088D01*
X147631250Y-106318938D01*
X147778610Y-106441279D01*
X147797664Y-106457097D01*
X147803126Y-106461632D01*
X147820239Y-106471632D01*
X147876445Y-106504476D01*
X147925169Y-106556114D01*
X147938240Y-106625897D01*
X147911509Y-106691669D01*
X147871055Y-106725027D01*
X147858607Y-106731507D01*
X147854474Y-106734610D01*
X147854471Y-106734612D01*
X147684100Y-106862530D01*
X147679965Y-106865635D01*
X147525629Y-107027138D01*
X147522715Y-107031410D01*
X147522714Y-107031411D01*
X147437556Y-107156249D01*
X147399743Y-107211680D01*
X147305688Y-107414305D01*
X147245989Y-107629570D01*
X147222251Y-107851695D01*
X146958500Y-107851695D01*
X146958500Y-99211695D01*
X162137251Y-99211695D01*
X162137548Y-99216848D01*
X162137548Y-99216851D01*
X162147272Y-99385499D01*
X162150110Y-99434715D01*
X162151247Y-99439761D01*
X162151248Y-99439767D01*
X162154184Y-99452794D01*
X162199222Y-99652639D01*
X162283266Y-99859616D01*
X162399987Y-100050088D01*
X162546250Y-100218938D01*
X162718126Y-100361632D01*
X162911000Y-100474338D01*
X163119692Y-100554030D01*
X163124760Y-100555061D01*
X163124763Y-100555062D01*
X163232017Y-100576883D01*
X163338597Y-100598567D01*
X163343772Y-100598757D01*
X163343774Y-100598757D01*
X163556673Y-100606564D01*
X163556677Y-100606564D01*
X163561837Y-100606753D01*
X163566957Y-100606097D01*
X163566959Y-100606097D01*
X163778288Y-100579025D01*
X163778289Y-100579025D01*
X163783416Y-100578368D01*
X163788366Y-100576883D01*
X163992429Y-100515661D01*
X163992434Y-100515659D01*
X163997384Y-100514174D01*
X164197994Y-100415896D01*
X164379860Y-100286173D01*
X164390596Y-100275475D01*
X164534435Y-100132137D01*
X164538096Y-100128489D01*
X164597594Y-100045689D01*
X164665435Y-99951277D01*
X164668453Y-99947077D01*
X164727408Y-99827791D01*
X164765136Y-99751453D01*
X164765137Y-99751451D01*
X164767430Y-99746811D01*
X164832370Y-99533069D01*
X164861529Y-99311590D01*
X164863156Y-99245000D01*
X164844852Y-99022361D01*
X164790431Y-98805702D01*
X164701354Y-98600840D01*
X164580014Y-98413277D01*
X164576532Y-98409450D01*
X164432798Y-98251488D01*
X164401746Y-98187642D01*
X164410141Y-98117143D01*
X164455317Y-98062375D01*
X164481761Y-98048706D01*
X164588297Y-98008767D01*
X164596705Y-98005615D01*
X164713261Y-97918261D01*
X164800615Y-97801705D01*
X164851745Y-97665316D01*
X164858500Y-97603134D01*
X164858500Y-95806866D01*
X164851745Y-95744684D01*
X164800615Y-95608295D01*
X164713261Y-95491739D01*
X164596705Y-95404385D01*
X164460316Y-95353255D01*
X164398134Y-95346500D01*
X162601866Y-95346500D01*
X162539684Y-95353255D01*
X162403295Y-95404385D01*
X162286739Y-95491739D01*
X162199385Y-95608295D01*
X162148255Y-95744684D01*
X162141500Y-95806866D01*
X162141500Y-97603134D01*
X162148255Y-97665316D01*
X162199385Y-97801705D01*
X162286739Y-97918261D01*
X162403295Y-98005615D01*
X162411704Y-98008767D01*
X162411705Y-98008768D01*
X162520451Y-98049535D01*
X162577216Y-98092176D01*
X162601916Y-98158738D01*
X162586709Y-98228087D01*
X162567316Y-98254568D01*
X162440629Y-98387138D01*
X162314743Y-98571680D01*
X162281716Y-98642831D01*
X162227729Y-98759137D01*
X162220688Y-98774305D01*
X162160989Y-98989570D01*
X162137251Y-99211695D01*
X146958500Y-99211695D01*
X146958500Y-93046695D01*
X162137251Y-93046695D01*
X162137548Y-93051848D01*
X162137548Y-93051851D01*
X162143011Y-93146590D01*
X162150110Y-93269715D01*
X162151247Y-93274761D01*
X162151248Y-93274767D01*
X162153373Y-93284195D01*
X162199222Y-93487639D01*
X162283266Y-93694616D01*
X162399987Y-93885088D01*
X162546250Y-94053938D01*
X162718126Y-94196632D01*
X162911000Y-94309338D01*
X163119692Y-94389030D01*
X163124760Y-94390061D01*
X163124763Y-94390062D01*
X163232017Y-94411883D01*
X163338597Y-94433567D01*
X163343772Y-94433757D01*
X163343774Y-94433757D01*
X163556673Y-94441564D01*
X163556677Y-94441564D01*
X163561837Y-94441753D01*
X163566957Y-94441097D01*
X163566959Y-94441097D01*
X163778288Y-94414025D01*
X163778289Y-94414025D01*
X163783416Y-94413368D01*
X163788366Y-94411883D01*
X163992429Y-94350661D01*
X163992434Y-94350659D01*
X163997384Y-94349174D01*
X164197994Y-94250896D01*
X164379860Y-94121173D01*
X164538096Y-93963489D01*
X164597594Y-93880689D01*
X164665435Y-93786277D01*
X164668453Y-93782077D01*
X164679649Y-93759425D01*
X164765136Y-93586453D01*
X164765137Y-93586451D01*
X164767430Y-93581811D01*
X164832370Y-93368069D01*
X164861529Y-93146590D01*
X164862858Y-93092209D01*
X164863074Y-93083365D01*
X164863074Y-93083361D01*
X164863156Y-93080000D01*
X164844852Y-92857361D01*
X164790431Y-92640702D01*
X164701354Y-92435840D01*
X164580014Y-92248277D01*
X164429670Y-92083051D01*
X164425619Y-92079852D01*
X164425615Y-92079848D01*
X164258414Y-91947800D01*
X164258410Y-91947798D01*
X164254359Y-91944598D01*
X164213053Y-91921796D01*
X164163084Y-91871364D01*
X164148312Y-91801921D01*
X164173428Y-91735516D01*
X164200780Y-91708909D01*
X164258753Y-91667557D01*
X164379860Y-91581173D01*
X164538096Y-91423489D01*
X164597594Y-91340689D01*
X164665435Y-91246277D01*
X164668453Y-91242077D01*
X164679649Y-91219425D01*
X164765136Y-91046453D01*
X164765137Y-91046451D01*
X164767430Y-91041811D01*
X164832370Y-90828069D01*
X164861529Y-90606590D01*
X164862862Y-90552037D01*
X164863074Y-90543365D01*
X164863074Y-90543361D01*
X164863156Y-90540000D01*
X164844852Y-90317361D01*
X164790431Y-90100702D01*
X164701354Y-89895840D01*
X164604154Y-89745592D01*
X164582822Y-89712617D01*
X164582820Y-89712614D01*
X164580014Y-89708277D01*
X164429670Y-89543051D01*
X164425619Y-89539852D01*
X164425615Y-89539848D01*
X164258414Y-89407800D01*
X164258410Y-89407798D01*
X164254359Y-89404598D01*
X164212569Y-89381529D01*
X164162598Y-89331097D01*
X164147826Y-89261654D01*
X164172942Y-89195248D01*
X164200294Y-89168641D01*
X164375328Y-89043792D01*
X164383200Y-89037139D01*
X164534052Y-88886812D01*
X164540730Y-88878965D01*
X164665003Y-88706020D01*
X164670313Y-88697183D01*
X164764670Y-88506267D01*
X164768469Y-88496672D01*
X164830377Y-88292910D01*
X164832555Y-88282837D01*
X164833986Y-88271962D01*
X164831775Y-88257778D01*
X164818617Y-88254000D01*
X162183225Y-88254000D01*
X162169694Y-88257973D01*
X162168257Y-88267966D01*
X162198565Y-88402446D01*
X162201645Y-88412275D01*
X162281770Y-88609603D01*
X162286413Y-88618794D01*
X162397694Y-88800388D01*
X162403777Y-88808699D01*
X162543213Y-88969667D01*
X162550580Y-88976883D01*
X162714434Y-89112916D01*
X162722881Y-89118831D01*
X162791969Y-89159203D01*
X162840693Y-89210842D01*
X162853764Y-89280625D01*
X162827033Y-89346396D01*
X162786584Y-89379752D01*
X162773607Y-89386507D01*
X162769474Y-89389610D01*
X162769471Y-89389612D01*
X162599100Y-89517530D01*
X162594965Y-89520635D01*
X162440629Y-89682138D01*
X162437715Y-89686410D01*
X162437714Y-89686411D01*
X162400333Y-89741210D01*
X162314743Y-89866680D01*
X162220688Y-90069305D01*
X162160989Y-90284570D01*
X162137251Y-90506695D01*
X162137548Y-90511848D01*
X162137548Y-90511851D01*
X162148033Y-90693693D01*
X162150110Y-90729715D01*
X162151247Y-90734761D01*
X162151248Y-90734767D01*
X162165775Y-90799226D01*
X162199222Y-90947639D01*
X162255155Y-91085387D01*
X162277511Y-91140442D01*
X162283266Y-91154616D01*
X162300626Y-91182945D01*
X162373895Y-91302509D01*
X162399987Y-91345088D01*
X162546250Y-91513938D01*
X162718126Y-91656632D01*
X162736822Y-91667557D01*
X162791445Y-91699476D01*
X162840169Y-91751114D01*
X162853240Y-91820897D01*
X162826509Y-91886669D01*
X162786055Y-91920027D01*
X162773607Y-91926507D01*
X162769474Y-91929610D01*
X162769471Y-91929612D01*
X162745247Y-91947800D01*
X162594965Y-92060635D01*
X162440629Y-92222138D01*
X162314743Y-92406680D01*
X162220688Y-92609305D01*
X162160989Y-92824570D01*
X162137251Y-93046695D01*
X146958500Y-93046695D01*
X146958500Y-91825660D01*
X146978502Y-91757539D01*
X146995405Y-91736565D01*
X158981970Y-79750000D01*
X160086496Y-79750000D01*
X160106458Y-79939928D01*
X160165473Y-80121556D01*
X160168776Y-80127278D01*
X160168777Y-80127279D01*
X160197656Y-80177299D01*
X160260960Y-80286944D01*
X160265379Y-80291852D01*
X160267436Y-80294683D01*
X160291295Y-80361551D01*
X160291500Y-80368744D01*
X160291500Y-82931088D01*
X160291208Y-82939658D01*
X160288009Y-82986590D01*
X160287275Y-82997352D01*
X160288580Y-83004829D01*
X160288580Y-83004830D01*
X160298261Y-83060299D01*
X160299223Y-83066821D01*
X160306898Y-83130242D01*
X160309581Y-83137343D01*
X160310222Y-83139952D01*
X160314685Y-83156262D01*
X160315450Y-83158798D01*
X160316757Y-83166284D01*
X160319811Y-83173241D01*
X160342442Y-83224795D01*
X160344933Y-83230899D01*
X160367513Y-83290656D01*
X160371817Y-83296919D01*
X160373054Y-83299285D01*
X160381299Y-83314097D01*
X160382632Y-83316351D01*
X160385685Y-83323305D01*
X160390307Y-83329328D01*
X160424579Y-83373991D01*
X160428459Y-83379332D01*
X160460339Y-83425720D01*
X160460344Y-83425725D01*
X160464643Y-83431981D01*
X160470313Y-83437032D01*
X160470314Y-83437034D01*
X160511170Y-83473435D01*
X160516446Y-83478416D01*
X162127252Y-85089222D01*
X162161278Y-85151534D01*
X162161914Y-85201235D01*
X162160989Y-85204570D01*
X162137251Y-85426695D01*
X162137548Y-85431848D01*
X162137548Y-85431851D01*
X162143011Y-85526590D01*
X162150110Y-85649715D01*
X162151247Y-85654761D01*
X162151248Y-85654767D01*
X162153373Y-85664195D01*
X162199222Y-85867639D01*
X162283266Y-86074616D01*
X162399987Y-86265088D01*
X162546250Y-86433938D01*
X162718126Y-86576632D01*
X162736822Y-86587557D01*
X162791955Y-86619774D01*
X162840679Y-86671412D01*
X162853750Y-86741195D01*
X162827019Y-86806967D01*
X162786562Y-86840327D01*
X162778457Y-86844546D01*
X162769738Y-86850036D01*
X162599433Y-86977905D01*
X162591726Y-86984748D01*
X162444590Y-87138717D01*
X162438104Y-87146727D01*
X162318098Y-87322649D01*
X162313000Y-87331623D01*
X162223338Y-87524783D01*
X162219775Y-87534470D01*
X162164389Y-87734183D01*
X162165912Y-87742607D01*
X162178292Y-87746000D01*
X164818344Y-87746000D01*
X164831875Y-87742027D01*
X164833180Y-87732947D01*
X164791214Y-87565875D01*
X164787894Y-87556124D01*
X164702972Y-87360814D01*
X164698105Y-87351739D01*
X164582426Y-87172926D01*
X164576136Y-87164757D01*
X164432806Y-87007240D01*
X164425273Y-87000215D01*
X164258139Y-86868222D01*
X164249556Y-86862520D01*
X164212602Y-86842120D01*
X164162631Y-86791687D01*
X164147859Y-86722245D01*
X164172975Y-86655839D01*
X164200327Y-86629232D01*
X164248861Y-86594613D01*
X164379860Y-86501173D01*
X164538096Y-86343489D01*
X164592309Y-86268044D01*
X164665435Y-86166277D01*
X164668453Y-86162077D01*
X164679649Y-86139425D01*
X164765136Y-85966453D01*
X164765137Y-85966451D01*
X164767430Y-85961811D01*
X164832370Y-85748069D01*
X164861529Y-85526590D01*
X164862858Y-85472209D01*
X164863074Y-85463365D01*
X164863074Y-85463361D01*
X164863156Y-85460000D01*
X164844852Y-85237361D01*
X164790431Y-85020702D01*
X164701354Y-84815840D01*
X164580014Y-84628277D01*
X164429670Y-84463051D01*
X164425619Y-84459852D01*
X164425615Y-84459848D01*
X164258414Y-84327800D01*
X164258410Y-84327798D01*
X164254359Y-84324598D01*
X164213053Y-84301796D01*
X164163084Y-84251364D01*
X164148312Y-84181921D01*
X164173428Y-84115516D01*
X164200780Y-84088909D01*
X164258753Y-84047557D01*
X164379860Y-83961173D01*
X164538096Y-83803489D01*
X164668453Y-83622077D01*
X164679649Y-83599425D01*
X164765136Y-83426453D01*
X164765137Y-83426451D01*
X164767430Y-83421811D01*
X164825432Y-83230904D01*
X164830865Y-83213023D01*
X164830865Y-83213021D01*
X164832370Y-83208069D01*
X164861529Y-82986590D01*
X164862694Y-82938906D01*
X164863074Y-82923365D01*
X164863074Y-82923361D01*
X164863156Y-82920000D01*
X164844852Y-82697361D01*
X164790431Y-82480702D01*
X164701354Y-82275840D01*
X164580014Y-82088277D01*
X164576532Y-82084450D01*
X164432798Y-81926488D01*
X164401746Y-81862642D01*
X164410141Y-81792143D01*
X164455317Y-81737375D01*
X164481761Y-81723706D01*
X164588297Y-81683767D01*
X164596705Y-81680615D01*
X164713261Y-81593261D01*
X164800615Y-81476705D01*
X164851745Y-81340316D01*
X164858500Y-81278134D01*
X164858500Y-79481866D01*
X164851745Y-79419684D01*
X164800615Y-79283295D01*
X164713261Y-79166739D01*
X164596705Y-79079385D01*
X164460316Y-79028255D01*
X164398134Y-79021500D01*
X162601866Y-79021500D01*
X162539684Y-79028255D01*
X162403295Y-79079385D01*
X162286739Y-79166739D01*
X162199385Y-79283295D01*
X162148255Y-79419684D01*
X162141500Y-79481866D01*
X162141500Y-79531133D01*
X162121498Y-79599254D01*
X162067842Y-79645747D01*
X161997568Y-79655851D01*
X161932988Y-79626357D01*
X161894604Y-79566631D01*
X161893966Y-79564106D01*
X161893542Y-79560072D01*
X161834527Y-79378444D01*
X161739040Y-79213056D01*
X161611253Y-79071134D01*
X161456752Y-78958882D01*
X161450724Y-78956198D01*
X161450722Y-78956197D01*
X161288319Y-78883891D01*
X161288318Y-78883891D01*
X161282288Y-78881206D01*
X161188887Y-78861353D01*
X161101944Y-78842872D01*
X161101939Y-78842872D01*
X161095487Y-78841500D01*
X160904513Y-78841500D01*
X160898061Y-78842872D01*
X160898056Y-78842872D01*
X160811113Y-78861353D01*
X160717712Y-78881206D01*
X160711682Y-78883891D01*
X160711681Y-78883891D01*
X160549278Y-78956197D01*
X160549276Y-78956198D01*
X160543248Y-78958882D01*
X160388747Y-79071134D01*
X160260960Y-79213056D01*
X160165473Y-79378444D01*
X160106458Y-79560072D01*
X160086496Y-79750000D01*
X158981970Y-79750000D01*
X161931275Y-76800695D01*
X161993587Y-76766669D01*
X162064402Y-76771734D01*
X162121238Y-76814281D01*
X162146161Y-76882537D01*
X162150309Y-76954476D01*
X162151745Y-76964697D01*
X162198565Y-77172446D01*
X162201645Y-77182275D01*
X162281770Y-77379603D01*
X162286413Y-77388794D01*
X162397694Y-77570388D01*
X162403777Y-77578699D01*
X162543213Y-77739667D01*
X162550580Y-77746883D01*
X162714434Y-77882916D01*
X162722881Y-77888831D01*
X162906756Y-77996279D01*
X162916042Y-78000729D01*
X163115001Y-78076703D01*
X163124899Y-78079579D01*
X163228250Y-78100606D01*
X163242299Y-78099410D01*
X163246000Y-78089065D01*
X163246000Y-78088517D01*
X163754000Y-78088517D01*
X163758064Y-78102359D01*
X163771478Y-78104393D01*
X163778184Y-78103534D01*
X163788262Y-78101392D01*
X163992255Y-78040191D01*
X164001842Y-78036433D01*
X164193095Y-77942739D01*
X164201945Y-77937464D01*
X164375328Y-77813792D01*
X164383200Y-77807139D01*
X164534052Y-77656812D01*
X164540730Y-77648965D01*
X164665003Y-77476020D01*
X164670313Y-77467183D01*
X164764670Y-77276267D01*
X164768469Y-77266672D01*
X164830377Y-77062910D01*
X164832555Y-77052837D01*
X164833986Y-77041962D01*
X164831775Y-77027778D01*
X164818617Y-77024000D01*
X163772115Y-77024000D01*
X163756876Y-77028475D01*
X163755671Y-77029865D01*
X163754000Y-77037548D01*
X163754000Y-78088517D01*
X163246000Y-78088517D01*
X163246000Y-76642000D01*
X163266002Y-76573879D01*
X163319658Y-76527386D01*
X163372000Y-76516000D01*
X164818344Y-76516000D01*
X164831875Y-76512027D01*
X164833180Y-76502947D01*
X164791214Y-76335875D01*
X164787894Y-76326124D01*
X164702972Y-76130814D01*
X164698105Y-76121739D01*
X164582426Y-75942926D01*
X164576136Y-75934757D01*
X164432293Y-75776677D01*
X164401241Y-75712831D01*
X164409635Y-75642333D01*
X164454812Y-75587564D01*
X164481256Y-75573895D01*
X164588297Y-75533767D01*
X164596705Y-75530615D01*
X164713261Y-75443261D01*
X164800615Y-75326705D01*
X164851745Y-75190316D01*
X164858500Y-75128134D01*
X164858500Y-73331866D01*
X164851745Y-73269684D01*
X164800615Y-73133295D01*
X164713261Y-73016739D01*
X164596705Y-72929385D01*
X164460316Y-72878255D01*
X164398134Y-72871500D01*
X162601866Y-72871500D01*
X162539684Y-72878255D01*
X162403295Y-72929385D01*
X162286739Y-73016739D01*
X162199385Y-73133295D01*
X162148255Y-73269684D01*
X162141500Y-73331866D01*
X162141500Y-74534340D01*
X162121498Y-74602461D01*
X162104595Y-74623435D01*
X146020751Y-90707279D01*
X145958439Y-90741305D01*
X145887624Y-90736240D01*
X145830788Y-90693693D01*
X145805977Y-90627173D01*
X145817461Y-90564935D01*
X145823473Y-90552042D01*
X145827221Y-90541745D01*
X145882025Y-90337214D01*
X145883928Y-90326419D01*
X145902384Y-90115475D01*
X145902384Y-90104525D01*
X145883928Y-89893581D01*
X145882025Y-89882786D01*
X145827221Y-89678255D01*
X145823475Y-89667963D01*
X145733988Y-89476056D01*
X145728505Y-89466561D01*
X145697360Y-89422081D01*
X145686883Y-89413706D01*
X145673436Y-89420774D01*
X143935053Y-91159157D01*
X143928623Y-91170932D01*
X143937916Y-91182945D01*
X143981569Y-91213512D01*
X143991051Y-91218986D01*
X144090864Y-91265529D01*
X144144150Y-91312446D01*
X144163611Y-91380723D01*
X144143070Y-91448683D01*
X144090865Y-91493919D01*
X143990805Y-91540577D01*
X143990800Y-91540580D01*
X143985818Y-91542903D01*
X143803283Y-91670716D01*
X143645716Y-91828283D01*
X143642559Y-91832791D01*
X143642557Y-91832794D01*
X143615550Y-91871364D01*
X143517903Y-92010818D01*
X143515580Y-92015800D01*
X143515577Y-92015805D01*
X143484220Y-92083051D01*
X143423730Y-92212773D01*
X143422308Y-92218081D01*
X143422307Y-92218083D01*
X143420076Y-92226411D01*
X143366056Y-92428014D01*
X143346635Y-92650000D01*
X143366056Y-92871986D01*
X143367480Y-92877299D01*
X143421794Y-93080000D01*
X143423730Y-93087227D01*
X143426052Y-93092208D01*
X143426053Y-93092209D01*
X143515577Y-93284195D01*
X143515580Y-93284200D01*
X143517903Y-93289182D01*
X143645716Y-93471717D01*
X143803283Y-93629284D01*
X143985817Y-93757097D01*
X143990802Y-93759421D01*
X143990808Y-93759425D01*
X144090272Y-93805805D01*
X144143558Y-93852722D01*
X144163019Y-93920999D01*
X144142478Y-93988959D01*
X144090273Y-94034195D01*
X143990805Y-94080577D01*
X143990800Y-94080580D01*
X143985818Y-94082903D01*
X143803283Y-94210716D01*
X143645716Y-94368283D01*
X143642559Y-94372791D01*
X143642557Y-94372794D01*
X143589472Y-94448608D01*
X143517903Y-94550818D01*
X143515580Y-94555800D01*
X143515577Y-94555805D01*
X143426053Y-94747791D01*
X143423730Y-94752773D01*
X143366056Y-94968014D01*
X143346635Y-95190000D01*
X143366056Y-95411986D01*
X143423730Y-95627227D01*
X143426052Y-95632208D01*
X143426053Y-95632209D01*
X143515577Y-95824195D01*
X143515580Y-95824200D01*
X143517903Y-95829182D01*
X143645716Y-96011717D01*
X143803283Y-96169284D01*
X143985817Y-96297097D01*
X143990802Y-96299421D01*
X143990808Y-96299425D01*
X144090272Y-96345805D01*
X144143558Y-96392722D01*
X144163019Y-96460999D01*
X144142478Y-96528959D01*
X144090273Y-96574195D01*
X143990805Y-96620577D01*
X143990800Y-96620580D01*
X143985818Y-96622903D01*
X143803283Y-96750716D01*
X143645716Y-96908283D01*
X143642559Y-96912791D01*
X143642557Y-96912794D01*
X143589472Y-96988608D01*
X143517903Y-97090818D01*
X143515580Y-97095800D01*
X143515577Y-97095805D01*
X143468227Y-97197348D01*
X143423730Y-97292773D01*
X143422308Y-97298081D01*
X143422307Y-97298083D01*
X143411791Y-97337331D01*
X143366056Y-97508014D01*
X143346635Y-97730000D01*
X143366056Y-97951986D01*
X143423730Y-98167227D01*
X143426052Y-98172208D01*
X143426053Y-98172209D01*
X143515577Y-98364195D01*
X143515580Y-98364200D01*
X143517903Y-98369182D01*
X143645716Y-98551717D01*
X143803283Y-98709284D01*
X143985817Y-98837097D01*
X143990802Y-98839421D01*
X143990808Y-98839425D01*
X144090272Y-98885805D01*
X144143558Y-98932722D01*
X144163019Y-99000999D01*
X144142478Y-99068959D01*
X144090273Y-99114195D01*
X143990805Y-99160577D01*
X143990800Y-99160580D01*
X143985818Y-99162903D01*
X143803283Y-99290716D01*
X143645716Y-99448283D01*
X143517903Y-99630818D01*
X143515580Y-99635800D01*
X143515577Y-99635805D01*
X143462464Y-99749707D01*
X143423730Y-99832773D01*
X143366056Y-100048014D01*
X143346635Y-100270000D01*
X143366056Y-100491986D01*
X143423730Y-100707227D01*
X143426052Y-100712208D01*
X143426053Y-100712209D01*
X143515577Y-100904195D01*
X143515580Y-100904200D01*
X143517903Y-100909182D01*
X143560510Y-100970031D01*
X143610325Y-101041173D01*
X143645716Y-101091717D01*
X143803283Y-101249284D01*
X143807792Y-101252441D01*
X143807794Y-101252443D01*
X143881092Y-101303767D01*
X143985817Y-101377097D01*
X143990802Y-101379421D01*
X143990808Y-101379425D01*
X144090272Y-101425805D01*
X144143558Y-101472722D01*
X144163019Y-101540999D01*
X144142478Y-101608959D01*
X144090273Y-101654195D01*
X143990805Y-101700577D01*
X143990800Y-101700580D01*
X143985818Y-101702903D01*
X143906772Y-101758252D01*
X143825945Y-101814848D01*
X143803283Y-101830716D01*
X143645716Y-101988283D01*
X143517903Y-102170818D01*
X143515580Y-102175800D01*
X143515577Y-102175805D01*
X143443857Y-102329610D01*
X143423730Y-102372773D01*
X143422308Y-102378081D01*
X143422307Y-102378083D01*
X143404520Y-102444464D01*
X143366056Y-102588014D01*
X143346635Y-102810000D01*
X143366056Y-103031986D01*
X143367480Y-103037299D01*
X143417142Y-103222639D01*
X143423730Y-103247227D01*
X143426052Y-103252208D01*
X143426053Y-103252209D01*
X143515577Y-103444195D01*
X143515580Y-103444200D01*
X143517903Y-103449182D01*
X143586774Y-103547540D01*
X143627207Y-103605283D01*
X143645716Y-103631717D01*
X143803283Y-103789284D01*
X143985817Y-103917097D01*
X143990802Y-103919421D01*
X143990808Y-103919425D01*
X144090272Y-103965805D01*
X144143558Y-104012722D01*
X144163019Y-104080999D01*
X144142478Y-104148959D01*
X144090273Y-104194195D01*
X143990805Y-104240577D01*
X143990800Y-104240580D01*
X143985818Y-104242903D01*
X143906772Y-104298252D01*
X143825945Y-104354848D01*
X143803283Y-104370716D01*
X143645716Y-104528283D01*
X143517903Y-104710818D01*
X143515580Y-104715800D01*
X143515577Y-104715805D01*
X143443857Y-104869610D01*
X143423730Y-104912773D01*
X143422308Y-104918081D01*
X143422307Y-104918083D01*
X143404520Y-104984464D01*
X143366056Y-105128014D01*
X143346635Y-105350000D01*
X143366056Y-105571986D01*
X143367480Y-105577299D01*
X143417142Y-105762639D01*
X143423730Y-105787227D01*
X143426052Y-105792208D01*
X143426053Y-105792209D01*
X143515577Y-105984195D01*
X143515580Y-105984200D01*
X143517903Y-105989182D01*
X143645716Y-106171717D01*
X143803283Y-106329284D01*
X143985817Y-106457097D01*
X143990802Y-106459421D01*
X143990808Y-106459425D01*
X144090272Y-106505805D01*
X144143558Y-106552722D01*
X144163019Y-106620999D01*
X144142478Y-106688959D01*
X144090273Y-106734195D01*
X143990805Y-106780577D01*
X143990800Y-106780580D01*
X143985818Y-106782903D01*
X143937044Y-106817055D01*
X143825945Y-106894848D01*
X143803283Y-106910716D01*
X143645716Y-107068283D01*
X143517903Y-107250818D01*
X143515580Y-107255800D01*
X143515577Y-107255805D01*
X143515460Y-107256056D01*
X143423730Y-107452773D01*
X143422308Y-107458081D01*
X143422307Y-107458083D01*
X143406258Y-107517978D01*
X143366056Y-107668014D01*
X143346635Y-107890000D01*
X143366056Y-108111986D01*
X143367480Y-108117299D01*
X143417142Y-108302639D01*
X143423730Y-108327227D01*
X143426052Y-108332208D01*
X143426053Y-108332209D01*
X143515577Y-108524195D01*
X143515580Y-108524200D01*
X143517903Y-108529182D01*
X143645716Y-108711717D01*
X143803283Y-108869284D01*
X143985817Y-108997097D01*
X143990802Y-108999421D01*
X143990808Y-108999425D01*
X144090272Y-109045805D01*
X144143558Y-109092722D01*
X144163019Y-109160999D01*
X144142478Y-109228959D01*
X144090273Y-109274195D01*
X143990805Y-109320577D01*
X143990800Y-109320580D01*
X143985818Y-109322903D01*
X143883608Y-109394472D01*
X143825945Y-109434848D01*
X143803283Y-109450716D01*
X143645716Y-109608283D01*
X143517903Y-109790818D01*
X143515580Y-109795800D01*
X143515577Y-109795805D01*
X143439259Y-109959470D01*
X143423730Y-109992773D01*
X143422308Y-109998081D01*
X143422307Y-109998083D01*
X143420164Y-110006081D01*
X143366056Y-110208014D01*
X143357875Y-110301530D01*
X143349295Y-110399596D01*
X143323432Y-110465714D01*
X143265928Y-110507353D01*
X143195041Y-110511294D01*
X143134679Y-110477709D01*
X142995405Y-110338435D01*
X142961379Y-110276123D01*
X142958500Y-110249340D01*
X142958500Y-90115475D01*
X143347616Y-90115475D01*
X143366072Y-90326419D01*
X143367975Y-90337214D01*
X143422779Y-90541745D01*
X143426525Y-90552037D01*
X143516012Y-90743944D01*
X143521495Y-90753439D01*
X143552640Y-90797919D01*
X143563117Y-90806294D01*
X143576564Y-90799226D01*
X144252978Y-90122812D01*
X144260592Y-90108868D01*
X144260461Y-90107035D01*
X144256210Y-90100420D01*
X143575843Y-89420053D01*
X143564068Y-89413623D01*
X143552053Y-89422919D01*
X143521495Y-89466561D01*
X143516012Y-89476056D01*
X143426525Y-89667963D01*
X143422779Y-89678255D01*
X143367975Y-89882786D01*
X143366072Y-89893581D01*
X143347616Y-90104525D01*
X143347616Y-90115475D01*
X142958500Y-90115475D01*
X142958500Y-83329380D01*
X142978502Y-83261259D01*
X142995405Y-83240285D01*
X143259832Y-82975858D01*
X143322144Y-82941832D01*
X143392959Y-82946897D01*
X143449795Y-82989444D01*
X143463122Y-83011703D01*
X143515577Y-83124195D01*
X143515580Y-83124200D01*
X143517903Y-83129182D01*
X143573141Y-83208069D01*
X143641798Y-83306121D01*
X143645716Y-83311717D01*
X143803283Y-83469284D01*
X143807792Y-83472441D01*
X143807794Y-83472443D01*
X143883110Y-83525180D01*
X143985817Y-83597097D01*
X143990802Y-83599421D01*
X143990808Y-83599425D01*
X144090272Y-83645805D01*
X144143558Y-83692722D01*
X144163019Y-83760999D01*
X144142478Y-83828959D01*
X144090273Y-83874195D01*
X143990805Y-83920577D01*
X143990800Y-83920580D01*
X143985818Y-83922903D01*
X143803283Y-84050716D01*
X143645716Y-84208283D01*
X143642559Y-84212791D01*
X143642557Y-84212794D01*
X143615550Y-84251364D01*
X143517903Y-84390818D01*
X143515580Y-84395800D01*
X143515577Y-84395805D01*
X143484220Y-84463051D01*
X143423730Y-84592773D01*
X143366056Y-84808014D01*
X143346635Y-85030000D01*
X143366056Y-85251986D01*
X143367480Y-85257299D01*
X143421794Y-85460000D01*
X143423730Y-85467227D01*
X143426052Y-85472208D01*
X143426053Y-85472209D01*
X143515577Y-85664195D01*
X143515580Y-85664200D01*
X143517903Y-85669182D01*
X143645716Y-85851717D01*
X143803283Y-86009284D01*
X143985817Y-86137097D01*
X143990802Y-86139421D01*
X143990808Y-86139425D01*
X144090272Y-86185805D01*
X144143558Y-86232722D01*
X144163019Y-86300999D01*
X144142478Y-86368959D01*
X144090273Y-86414195D01*
X143990805Y-86460577D01*
X143990800Y-86460580D01*
X143985818Y-86462903D01*
X143803283Y-86590716D01*
X143645716Y-86748283D01*
X143642559Y-86752791D01*
X143642557Y-86752794D01*
X143589472Y-86828608D01*
X143517903Y-86930818D01*
X143515580Y-86935800D01*
X143515577Y-86935805D01*
X143482267Y-87007240D01*
X143423730Y-87132773D01*
X143366056Y-87348014D01*
X143346635Y-87570000D01*
X143366056Y-87791986D01*
X143423730Y-88007227D01*
X143426052Y-88012208D01*
X143426053Y-88012209D01*
X143515577Y-88204195D01*
X143515580Y-88204200D01*
X143517903Y-88209182D01*
X143645716Y-88391717D01*
X143803283Y-88549284D01*
X143807792Y-88552441D01*
X143807794Y-88552443D01*
X143883110Y-88605180D01*
X143985817Y-88677097D01*
X143990802Y-88679421D01*
X143990808Y-88679425D01*
X144090864Y-88726081D01*
X144144150Y-88772998D01*
X144163611Y-88841275D01*
X144143070Y-88909235D01*
X144090865Y-88954471D01*
X143991056Y-89001012D01*
X143981561Y-89006495D01*
X143937081Y-89037640D01*
X143928706Y-89048117D01*
X143935774Y-89061564D01*
X144612188Y-89737978D01*
X144626132Y-89745592D01*
X144627965Y-89745461D01*
X144634580Y-89741210D01*
X145314947Y-89060843D01*
X145321377Y-89049068D01*
X145312084Y-89037055D01*
X145268431Y-89006488D01*
X145258953Y-89001016D01*
X145159136Y-88954471D01*
X145105851Y-88907554D01*
X145086390Y-88839277D01*
X145106932Y-88771317D01*
X145159136Y-88726081D01*
X145259196Y-88679423D01*
X145259201Y-88679420D01*
X145264183Y-88677097D01*
X145366890Y-88605180D01*
X145442206Y-88552443D01*
X145442208Y-88552441D01*
X145446717Y-88549284D01*
X145604284Y-88391717D01*
X145732097Y-88209182D01*
X145734420Y-88204200D01*
X145734423Y-88204195D01*
X145823947Y-88012209D01*
X145823948Y-88012208D01*
X145826270Y-88007227D01*
X145883944Y-87791986D01*
X145903365Y-87570000D01*
X145883944Y-87348014D01*
X145826270Y-87132773D01*
X145767733Y-87007240D01*
X145734423Y-86935805D01*
X145734420Y-86935800D01*
X145732097Y-86930818D01*
X145660528Y-86828608D01*
X145607443Y-86752794D01*
X145607441Y-86752791D01*
X145604284Y-86748283D01*
X145446717Y-86590716D01*
X145426604Y-86576632D01*
X145323119Y-86504171D01*
X145264183Y-86462903D01*
X145259201Y-86460580D01*
X145259196Y-86460577D01*
X145159728Y-86414195D01*
X145106443Y-86367278D01*
X145086982Y-86299001D01*
X145107524Y-86231041D01*
X145159728Y-86185805D01*
X145259196Y-86139423D01*
X145259201Y-86139420D01*
X145264183Y-86137097D01*
X145446717Y-86009284D01*
X145604284Y-85851717D01*
X145732097Y-85669182D01*
X145734420Y-85664200D01*
X145734423Y-85664195D01*
X145823947Y-85472209D01*
X145823948Y-85472208D01*
X145826270Y-85467227D01*
X145828207Y-85460000D01*
X145882520Y-85257299D01*
X145883944Y-85251986D01*
X145903365Y-85030000D01*
X145883944Y-84808014D01*
X145826270Y-84592773D01*
X145765780Y-84463051D01*
X145734423Y-84395805D01*
X145734420Y-84395800D01*
X145732097Y-84390818D01*
X145634450Y-84251364D01*
X145607443Y-84212794D01*
X145607441Y-84212791D01*
X145604284Y-84208283D01*
X145446717Y-84050716D01*
X145264183Y-83922903D01*
X145259201Y-83920580D01*
X145259196Y-83920577D01*
X145159728Y-83874195D01*
X145106443Y-83827278D01*
X145086982Y-83759001D01*
X145107524Y-83691041D01*
X145159728Y-83645805D01*
X145259196Y-83599423D01*
X145259201Y-83599420D01*
X145264183Y-83597097D01*
X145366890Y-83525180D01*
X145442206Y-83472443D01*
X145442208Y-83472441D01*
X145446717Y-83469284D01*
X145604284Y-83311717D01*
X145608203Y-83306121D01*
X145676859Y-83208069D01*
X145732097Y-83129182D01*
X145734420Y-83124200D01*
X145734423Y-83124195D01*
X145823947Y-82932209D01*
X145823948Y-82932208D01*
X145826270Y-82927227D01*
X145828207Y-82920000D01*
X145856673Y-82813762D01*
X145883944Y-82711986D01*
X145903365Y-82490000D01*
X145883944Y-82268014D01*
X145843509Y-82117110D01*
X145845199Y-82046135D01*
X145884993Y-81987339D01*
X145950257Y-81959391D01*
X145965216Y-81958500D01*
X147471088Y-81958500D01*
X147479658Y-81958792D01*
X147529776Y-81962209D01*
X147529780Y-81962209D01*
X147537352Y-81962725D01*
X147544829Y-81961420D01*
X147544830Y-81961420D01*
X147571308Y-81956799D01*
X147600303Y-81951738D01*
X147606821Y-81950777D01*
X147670242Y-81943102D01*
X147677343Y-81940419D01*
X147679952Y-81939778D01*
X147696262Y-81935315D01*
X147698798Y-81934550D01*
X147706284Y-81933243D01*
X147764800Y-81907556D01*
X147770904Y-81905065D01*
X147823548Y-81885173D01*
X147823549Y-81885172D01*
X147830656Y-81882487D01*
X147836919Y-81878183D01*
X147839285Y-81876946D01*
X147854097Y-81868701D01*
X147856351Y-81867368D01*
X147863305Y-81864315D01*
X147914002Y-81825413D01*
X147919332Y-81821541D01*
X147965720Y-81789661D01*
X147965725Y-81789656D01*
X147971981Y-81785357D01*
X148013436Y-81738829D01*
X148018416Y-81733554D01*
X157560520Y-72191450D01*
X157566785Y-72185596D01*
X157567238Y-72185201D01*
X157610385Y-72147561D01*
X157647129Y-72095280D01*
X157651061Y-72089986D01*
X157685791Y-72045693D01*
X157690476Y-72039718D01*
X157693599Y-72032802D01*
X157694983Y-72030516D01*
X157703357Y-72015835D01*
X157704622Y-72013475D01*
X157708990Y-72007261D01*
X157732203Y-71947723D01*
X157734759Y-71941642D01*
X157757918Y-71890352D01*
X157761045Y-71883427D01*
X157762429Y-71875960D01*
X157763230Y-71873405D01*
X157767859Y-71857152D01*
X157768522Y-71854572D01*
X157771282Y-71847491D01*
X157779622Y-71784139D01*
X157780653Y-71777632D01*
X157788317Y-71736284D01*
X157792296Y-71714814D01*
X157788709Y-71652608D01*
X157788500Y-71645354D01*
X157788500Y-71478297D01*
X157808502Y-71410176D01*
X157841332Y-71375718D01*
X157955656Y-71294172D01*
X157955659Y-71294170D01*
X157959860Y-71291173D01*
X158118096Y-71133489D01*
X158153665Y-71083990D01*
X158245435Y-70956277D01*
X158248453Y-70952077D01*
X158257209Y-70934362D01*
X158345136Y-70756453D01*
X158345137Y-70756451D01*
X158347430Y-70751811D01*
X158401163Y-70574955D01*
X158410865Y-70543023D01*
X158410865Y-70543021D01*
X158412370Y-70538069D01*
X158441529Y-70316590D01*
X158442326Y-70283975D01*
X158443074Y-70253365D01*
X158443074Y-70253361D01*
X158443156Y-70250000D01*
X158424852Y-70027361D01*
X158370431Y-69810702D01*
X158281354Y-69605840D01*
X158202015Y-69483200D01*
X158162822Y-69422617D01*
X158162820Y-69422614D01*
X158160014Y-69418277D01*
X158009670Y-69253051D01*
X158005619Y-69249852D01*
X158005615Y-69249848D01*
X157838414Y-69117800D01*
X157838410Y-69117798D01*
X157834359Y-69114598D01*
X157824956Y-69109407D01*
X157751611Y-69068919D01*
X157638789Y-69006638D01*
X157633920Y-69004914D01*
X157633916Y-69004912D01*
X157433087Y-68933795D01*
X157433083Y-68933794D01*
X157428212Y-68932069D01*
X157423119Y-68931162D01*
X157423116Y-68931161D01*
X157213373Y-68893800D01*
X157213367Y-68893799D01*
X157208284Y-68892894D01*
X157134452Y-68891992D01*
X156990081Y-68890228D01*
X156990079Y-68890228D01*
X156984911Y-68890165D01*
X156764091Y-68923955D01*
X156551756Y-68993357D01*
X156353607Y-69096507D01*
X156349474Y-69099610D01*
X156349471Y-69099612D01*
X156180102Y-69226778D01*
X156174965Y-69230635D01*
X156149894Y-69256870D01*
X156038470Y-69373469D01*
X156020629Y-69392138D01*
X156017715Y-69396410D01*
X156017714Y-69396411D01*
X155912898Y-69550066D01*
X155857987Y-69595069D01*
X155787462Y-69603240D01*
X155723715Y-69571986D01*
X155703018Y-69547502D01*
X155622426Y-69422926D01*
X155616136Y-69414757D01*
X155472806Y-69257240D01*
X155465273Y-69250215D01*
X155298139Y-69118222D01*
X155289552Y-69112517D01*
X155103117Y-69009599D01*
X155093705Y-69005369D01*
X154892959Y-68934280D01*
X154882988Y-68931646D01*
X154811837Y-68918972D01*
X154798540Y-68920432D01*
X154794000Y-68934989D01*
X154794000Y-71568517D01*
X154798064Y-71582359D01*
X154811478Y-71584393D01*
X154818184Y-71583534D01*
X154828262Y-71581392D01*
X155032255Y-71520191D01*
X155041842Y-71516433D01*
X155233095Y-71422739D01*
X155241945Y-71417464D01*
X155415328Y-71293792D01*
X155423200Y-71287139D01*
X155574052Y-71136812D01*
X155580730Y-71128965D01*
X155708022Y-70951819D01*
X155709279Y-70952722D01*
X155756373Y-70909362D01*
X155826311Y-70897145D01*
X155891751Y-70924678D01*
X155919579Y-70956511D01*
X155979987Y-71055088D01*
X156126250Y-71223938D01*
X156130225Y-71227238D01*
X156130228Y-71227241D01*
X156237271Y-71316110D01*
X156276906Y-71375013D01*
X156278404Y-71445994D01*
X156245881Y-71502149D01*
X147243435Y-80504595D01*
X147181123Y-80538621D01*
X147154340Y-80541500D01*
X145949139Y-80541500D01*
X145881018Y-80521498D01*
X145834525Y-80467842D01*
X145824421Y-80397568D01*
X145827430Y-80382898D01*
X145883944Y-80171986D01*
X145903365Y-79950000D01*
X145883944Y-79728014D01*
X145826270Y-79512773D01*
X145810274Y-79478469D01*
X145734423Y-79315805D01*
X145734420Y-79315800D01*
X145732097Y-79310818D01*
X145636239Y-79173919D01*
X145607443Y-79132794D01*
X145607441Y-79132791D01*
X145604284Y-79128283D01*
X145446717Y-78970716D01*
X145429817Y-78958882D01*
X145322719Y-78883891D01*
X145264183Y-78842903D01*
X145259201Y-78840580D01*
X145259196Y-78840577D01*
X145159728Y-78794195D01*
X145106443Y-78747278D01*
X145086982Y-78679001D01*
X145107524Y-78611041D01*
X145159728Y-78565805D01*
X145259196Y-78519423D01*
X145259201Y-78519420D01*
X145264183Y-78517097D01*
X145446717Y-78389284D01*
X145604284Y-78231717D01*
X145732097Y-78049182D01*
X145734420Y-78044200D01*
X145734423Y-78044195D01*
X145823947Y-77852209D01*
X145823948Y-77852208D01*
X145826270Y-77847227D01*
X145883944Y-77631986D01*
X145903365Y-77410000D01*
X145883944Y-77188014D01*
X145826270Y-76972773D01*
X145817738Y-76954476D01*
X145734423Y-76775805D01*
X145734420Y-76775800D01*
X145732097Y-76770818D01*
X145604284Y-76588283D01*
X145446717Y-76430716D01*
X145264183Y-76302903D01*
X145259201Y-76300580D01*
X145259196Y-76300577D01*
X145159136Y-76253919D01*
X145105851Y-76207002D01*
X145086390Y-76138725D01*
X145106932Y-76070765D01*
X145159136Y-76025529D01*
X145258953Y-75978984D01*
X145268431Y-75973512D01*
X145312920Y-75942359D01*
X145321294Y-75931883D01*
X145314226Y-75918436D01*
X144354885Y-74959095D01*
X144320859Y-74896783D01*
X144322694Y-74871132D01*
X144989408Y-74871132D01*
X144989539Y-74872965D01*
X144993790Y-74879580D01*
X145674157Y-75559947D01*
X145685932Y-75566377D01*
X145697947Y-75557081D01*
X145728505Y-75513439D01*
X145733988Y-75503944D01*
X145823475Y-75312037D01*
X145827221Y-75301745D01*
X145882025Y-75097214D01*
X145883928Y-75086419D01*
X145902384Y-74875475D01*
X145902384Y-74864525D01*
X145883928Y-74653581D01*
X145882025Y-74642786D01*
X145827221Y-74438255D01*
X145823475Y-74427963D01*
X145733988Y-74236056D01*
X145728505Y-74226561D01*
X145697360Y-74182081D01*
X145686883Y-74173706D01*
X145673436Y-74180774D01*
X144997022Y-74857188D01*
X144989408Y-74871132D01*
X144322694Y-74871132D01*
X144325924Y-74825968D01*
X144354885Y-74780905D01*
X145314947Y-73820843D01*
X145321377Y-73809068D01*
X145312084Y-73797055D01*
X145268431Y-73766488D01*
X145258953Y-73761016D01*
X145067038Y-73671525D01*
X145056745Y-73667779D01*
X144852214Y-73612975D01*
X144841419Y-73611072D01*
X144630475Y-73592616D01*
X144619525Y-73592616D01*
X144408581Y-73611072D01*
X144397786Y-73612975D01*
X144193255Y-73667779D01*
X144182963Y-73671525D01*
X143991050Y-73761015D01*
X143981569Y-73766489D01*
X143851771Y-73857375D01*
X143784497Y-73880063D01*
X143715636Y-73862778D01*
X143667052Y-73811008D01*
X143653500Y-73754162D01*
X143653500Y-71503297D01*
X143673502Y-71435176D01*
X143706332Y-71400718D01*
X143820656Y-71319172D01*
X143820659Y-71319170D01*
X143824860Y-71316173D01*
X143847320Y-71293792D01*
X143923663Y-71217715D01*
X143983096Y-71158489D01*
X143998673Y-71136812D01*
X144113453Y-70977077D01*
X144114640Y-70977930D01*
X144161960Y-70934362D01*
X144231897Y-70922145D01*
X144297338Y-70949678D01*
X144325166Y-70981511D01*
X144382694Y-71075388D01*
X144388777Y-71083699D01*
X144528213Y-71244667D01*
X144535580Y-71251883D01*
X144699434Y-71387916D01*
X144707881Y-71393831D01*
X144891756Y-71501279D01*
X144901042Y-71505729D01*
X145100001Y-71581703D01*
X145109899Y-71584579D01*
X145213250Y-71605606D01*
X145227299Y-71604410D01*
X145231000Y-71594065D01*
X145231000Y-71593517D01*
X145739000Y-71593517D01*
X145743064Y-71607359D01*
X145756478Y-71609393D01*
X145763184Y-71608534D01*
X145773262Y-71606392D01*
X145977255Y-71545191D01*
X145986842Y-71541433D01*
X146178095Y-71447739D01*
X146186945Y-71442464D01*
X146360328Y-71318792D01*
X146368193Y-71312145D01*
X146472897Y-71207805D01*
X146535268Y-71173889D01*
X146606075Y-71179077D01*
X146662837Y-71221723D01*
X146679819Y-71252826D01*
X146702057Y-71312145D01*
X146724385Y-71371705D01*
X146811739Y-71488261D01*
X146928295Y-71575615D01*
X147064684Y-71626745D01*
X147126866Y-71633500D01*
X148923134Y-71633500D01*
X148985316Y-71626745D01*
X149121705Y-71575615D01*
X149238261Y-71488261D01*
X149325615Y-71371705D01*
X149376745Y-71235316D01*
X149383500Y-71173134D01*
X149383500Y-71148134D01*
X150641500Y-71148134D01*
X150648255Y-71210316D01*
X150699385Y-71346705D01*
X150786739Y-71463261D01*
X150903295Y-71550615D01*
X151039684Y-71601745D01*
X151101866Y-71608500D01*
X152898134Y-71608500D01*
X152960316Y-71601745D01*
X153096705Y-71550615D01*
X153213261Y-71463261D01*
X153300615Y-71346705D01*
X153335809Y-71252826D01*
X153344798Y-71228848D01*
X153387440Y-71172084D01*
X153454001Y-71147384D01*
X153523350Y-71162592D01*
X153558017Y-71190580D01*
X153583218Y-71219673D01*
X153590580Y-71226883D01*
X153754434Y-71362916D01*
X153762881Y-71368831D01*
X153946756Y-71476279D01*
X153956042Y-71480729D01*
X154155001Y-71556703D01*
X154164899Y-71559579D01*
X154268250Y-71580606D01*
X154282299Y-71579410D01*
X154286000Y-71569065D01*
X154286000Y-68933102D01*
X154282082Y-68919758D01*
X154267806Y-68917771D01*
X154229324Y-68923660D01*
X154219288Y-68926051D01*
X154016868Y-68992212D01*
X154007359Y-68996209D01*
X153818463Y-69094542D01*
X153809738Y-69100036D01*
X153639433Y-69227905D01*
X153631726Y-69234748D01*
X153554478Y-69315584D01*
X153492954Y-69351014D01*
X153422042Y-69347557D01*
X153364255Y-69306311D01*
X153345402Y-69272763D01*
X153303767Y-69161703D01*
X153300615Y-69153295D01*
X153213261Y-69036739D01*
X153096705Y-68949385D01*
X152960316Y-68898255D01*
X152898134Y-68891500D01*
X151101866Y-68891500D01*
X151039684Y-68898255D01*
X150903295Y-68949385D01*
X150786739Y-69036739D01*
X150699385Y-69153295D01*
X150648255Y-69289684D01*
X150641500Y-69351866D01*
X150641500Y-71148134D01*
X149383500Y-71148134D01*
X149383500Y-69376866D01*
X149376745Y-69314684D01*
X149325615Y-69178295D01*
X149238261Y-69061739D01*
X149121705Y-68974385D01*
X148985316Y-68923255D01*
X148923134Y-68916500D01*
X147126866Y-68916500D01*
X147064684Y-68923255D01*
X146928295Y-68974385D01*
X146811739Y-69061739D01*
X146724385Y-69178295D01*
X146721233Y-69186703D01*
X146721232Y-69186705D01*
X146679722Y-69297433D01*
X146637081Y-69354198D01*
X146570519Y-69378898D01*
X146501170Y-69363691D01*
X146468546Y-69338004D01*
X146417799Y-69282234D01*
X146410273Y-69275215D01*
X146243139Y-69143222D01*
X146234552Y-69137517D01*
X146048117Y-69034599D01*
X146038705Y-69030369D01*
X145837959Y-68959280D01*
X145827988Y-68956646D01*
X145756837Y-68943972D01*
X145743540Y-68945432D01*
X145739000Y-68959989D01*
X145739000Y-71593517D01*
X145231000Y-71593517D01*
X145231000Y-68958102D01*
X145227082Y-68944758D01*
X145212806Y-68942771D01*
X145174324Y-68948660D01*
X145164288Y-68951051D01*
X144961868Y-69017212D01*
X144952359Y-69021209D01*
X144763463Y-69119542D01*
X144754738Y-69125036D01*
X144584433Y-69252905D01*
X144576726Y-69259748D01*
X144429590Y-69413717D01*
X144423109Y-69421722D01*
X144318498Y-69575074D01*
X144263587Y-69620076D01*
X144193062Y-69628247D01*
X144129315Y-69596993D01*
X144108618Y-69572509D01*
X144027822Y-69447617D01*
X144027820Y-69447614D01*
X144025014Y-69443277D01*
X143874670Y-69278051D01*
X143870619Y-69274852D01*
X143870615Y-69274848D01*
X143703414Y-69142800D01*
X143703410Y-69142798D01*
X143699359Y-69139598D01*
X143663028Y-69119542D01*
X143616972Y-69094118D01*
X143503789Y-69031638D01*
X143498920Y-69029914D01*
X143498916Y-69029912D01*
X143298087Y-68958795D01*
X143298083Y-68958794D01*
X143293212Y-68957069D01*
X143288119Y-68956162D01*
X143288116Y-68956161D01*
X143078373Y-68918800D01*
X143078367Y-68918799D01*
X143073284Y-68917894D01*
X142999452Y-68916992D01*
X142855081Y-68915228D01*
X142855079Y-68915228D01*
X142849911Y-68915165D01*
X142629091Y-68948955D01*
X142416756Y-69018357D01*
X142381445Y-69036739D01*
X142235877Y-69112517D01*
X142218607Y-69121507D01*
X142214474Y-69124610D01*
X142214471Y-69124612D01*
X142044100Y-69252530D01*
X142039965Y-69255635D01*
X142036393Y-69259373D01*
X141909520Y-69392138D01*
X141885629Y-69417138D01*
X141882715Y-69421410D01*
X141882714Y-69421411D01*
X141840230Y-69483691D01*
X141759743Y-69601680D01*
X141723859Y-69678985D01*
X141677293Y-69779305D01*
X141665688Y-69804305D01*
X141605989Y-70019570D01*
X141582251Y-70241695D01*
X141582548Y-70246848D01*
X141582548Y-70246851D01*
X141594044Y-70446234D01*
X141595110Y-70464715D01*
X141596247Y-70469761D01*
X141596248Y-70469767D01*
X141611641Y-70538069D01*
X141644222Y-70682639D01*
X141728266Y-70889616D01*
X141740670Y-70909857D01*
X141826971Y-71050688D01*
X141844987Y-71080088D01*
X141991250Y-71248938D01*
X142163126Y-71391632D01*
X142174070Y-71398027D01*
X142222793Y-71449664D01*
X142236500Y-71506815D01*
X142236500Y-75701088D01*
X142236208Y-75709658D01*
X142233273Y-75752715D01*
X142232275Y-75767352D01*
X142233580Y-75774829D01*
X142233580Y-75774830D01*
X142243261Y-75830299D01*
X142244223Y-75836821D01*
X142251898Y-75900242D01*
X142254581Y-75907343D01*
X142255222Y-75909952D01*
X142259685Y-75926262D01*
X142260450Y-75928798D01*
X142261757Y-75936284D01*
X142264811Y-75943241D01*
X142287442Y-75994795D01*
X142289933Y-76000899D01*
X142312513Y-76060656D01*
X142316817Y-76066919D01*
X142318054Y-76069285D01*
X142326299Y-76084097D01*
X142327632Y-76086351D01*
X142330685Y-76093305D01*
X142364019Y-76136745D01*
X142369579Y-76143991D01*
X142373459Y-76149332D01*
X142405339Y-76195720D01*
X142405344Y-76195725D01*
X142409643Y-76201981D01*
X142415313Y-76207032D01*
X142415314Y-76207034D01*
X142456170Y-76243435D01*
X142461446Y-76248416D01*
X143327324Y-77114294D01*
X143361350Y-77176606D01*
X143363750Y-77214370D01*
X143346635Y-77410000D01*
X143366056Y-77631986D01*
X143423730Y-77847227D01*
X143426052Y-77852208D01*
X143426053Y-77852209D01*
X143515577Y-78044195D01*
X143515580Y-78044200D01*
X143517903Y-78049182D01*
X143645716Y-78231717D01*
X143803283Y-78389284D01*
X143985817Y-78517097D01*
X143990802Y-78519421D01*
X143990808Y-78519425D01*
X144090272Y-78565805D01*
X144143558Y-78612722D01*
X144163019Y-78680999D01*
X144142478Y-78748959D01*
X144090273Y-78794195D01*
X143990805Y-78840577D01*
X143990800Y-78840580D01*
X143985818Y-78842903D01*
X143883608Y-78914472D01*
X143820184Y-78958882D01*
X143803283Y-78970716D01*
X143645716Y-79128283D01*
X143642559Y-79132791D01*
X143642557Y-79132794D01*
X143613761Y-79173919D01*
X143517903Y-79310818D01*
X143515580Y-79315800D01*
X143515577Y-79315805D01*
X143439726Y-79478469D01*
X143423730Y-79512773D01*
X143366056Y-79728014D01*
X143346635Y-79950000D01*
X143366056Y-80171986D01*
X143423730Y-80387227D01*
X143426052Y-80392208D01*
X143426053Y-80392209D01*
X143517903Y-80589182D01*
X143516203Y-80589975D01*
X143530988Y-80650860D01*
X143507782Y-80717957D01*
X143499205Y-80728711D01*
X143470285Y-80761170D01*
X143465304Y-80766446D01*
X141769480Y-82462270D01*
X141763215Y-82468124D01*
X141719615Y-82506159D01*
X141715248Y-82512373D01*
X141682872Y-82558439D01*
X141678939Y-82563734D01*
X141639524Y-82614002D01*
X141636401Y-82620918D01*
X141635017Y-82623204D01*
X141626643Y-82637885D01*
X141625378Y-82640245D01*
X141621010Y-82646459D01*
X141618250Y-82653538D01*
X141618249Y-82653540D01*
X141597798Y-82705995D01*
X141595247Y-82712064D01*
X141568955Y-82770293D01*
X141567571Y-82777760D01*
X141566770Y-82780315D01*
X141562141Y-82796568D01*
X141561478Y-82799148D01*
X141558718Y-82806229D01*
X141557727Y-82813760D01*
X141557726Y-82813762D01*
X141550379Y-82869572D01*
X141549348Y-82876079D01*
X141537704Y-82938906D01*
X141538141Y-82946486D01*
X141538141Y-82946487D01*
X141541291Y-83001112D01*
X141541500Y-83008366D01*
X141541500Y-110566088D01*
X141541208Y-110574658D01*
X141537796Y-110624715D01*
X141537275Y-110632352D01*
X120485662Y-110632352D01*
X120503365Y-110430000D01*
X120483944Y-110208014D01*
X120429836Y-110006081D01*
X120427693Y-109998083D01*
X120427692Y-109998081D01*
X120426270Y-109992773D01*
X120410741Y-109959470D01*
X120334423Y-109795805D01*
X120334420Y-109795800D01*
X120332097Y-109790818D01*
X120204284Y-109608283D01*
X120046717Y-109450716D01*
X120024056Y-109434848D01*
X119966890Y-109394820D01*
X119864183Y-109322903D01*
X119859201Y-109320580D01*
X119859196Y-109320577D01*
X119759136Y-109273919D01*
X119705851Y-109227002D01*
X119686390Y-109158725D01*
X119706932Y-109090765D01*
X119759136Y-109045529D01*
X119858953Y-108998984D01*
X119868431Y-108993512D01*
X119912920Y-108962359D01*
X119921294Y-108951883D01*
X119914226Y-108938436D01*
X119237812Y-108262022D01*
X119223868Y-108254408D01*
X119222035Y-108254539D01*
X119215420Y-108258790D01*
X118535053Y-108939157D01*
X118528623Y-108950932D01*
X118537916Y-108962945D01*
X118581569Y-108993512D01*
X118591051Y-108998986D01*
X118690864Y-109045529D01*
X118744150Y-109092446D01*
X118763611Y-109160723D01*
X118743070Y-109228683D01*
X118690865Y-109273919D01*
X118674592Y-109281507D01*
X118590805Y-109320577D01*
X118590800Y-109320580D01*
X118585818Y-109322903D01*
X118483608Y-109394472D01*
X118425945Y-109434848D01*
X118403283Y-109450716D01*
X118245716Y-109608283D01*
X118117903Y-109790818D01*
X118115580Y-109795800D01*
X118115577Y-109795805D01*
X118039259Y-109959470D01*
X118023730Y-109992773D01*
X118022308Y-109998081D01*
X118022307Y-109998083D01*
X118020164Y-110006081D01*
X117966056Y-110208014D01*
X117946635Y-110430000D01*
X117966056Y-110651986D01*
X117983728Y-110717939D01*
X118021739Y-110859795D01*
X118023730Y-110867227D01*
X118026052Y-110872208D01*
X118026053Y-110872209D01*
X118115577Y-111064195D01*
X118115580Y-111064200D01*
X118117903Y-111069182D01*
X118147077Y-111110846D01*
X118233100Y-111233699D01*
X118245716Y-111251717D01*
X118403283Y-111409284D01*
X118585817Y-111537097D01*
X118590802Y-111539421D01*
X118590808Y-111539425D01*
X118690272Y-111585805D01*
X118743558Y-111632722D01*
X118763019Y-111700999D01*
X118742478Y-111768959D01*
X118690273Y-111814195D01*
X118590805Y-111860577D01*
X118590800Y-111860580D01*
X118585818Y-111862903D01*
X118483608Y-111934472D01*
X118425945Y-111974848D01*
X118403283Y-111990716D01*
X118245716Y-112148283D01*
X118117903Y-112330818D01*
X118115580Y-112335800D01*
X118115577Y-112335805D01*
X118077121Y-112418275D01*
X118023730Y-112532773D01*
X118022308Y-112538081D01*
X118022307Y-112538083D01*
X118004520Y-112604465D01*
X117966056Y-112748014D01*
X117946635Y-112970000D01*
X117966056Y-113191986D01*
X117967480Y-113197299D01*
X118017142Y-113382639D01*
X118023730Y-113407227D01*
X118026052Y-113412208D01*
X118026053Y-113412209D01*
X118115577Y-113604195D01*
X118115580Y-113604200D01*
X118117903Y-113609182D01*
X118245716Y-113791717D01*
X118403283Y-113949284D01*
X118585817Y-114077097D01*
X118590802Y-114079421D01*
X118590808Y-114079425D01*
X118690272Y-114125805D01*
X118743558Y-114172722D01*
X118763019Y-114240999D01*
X118742478Y-114308959D01*
X118690273Y-114354195D01*
X118590805Y-114400577D01*
X118590800Y-114400580D01*
X118585818Y-114402903D01*
X118483608Y-114474472D01*
X118430198Y-114511870D01*
X118403283Y-114530716D01*
X118245716Y-114688283D01*
X118117903Y-114870818D01*
X118115580Y-114875800D01*
X118115577Y-114875805D01*
X118089220Y-114932328D01*
X118023730Y-115072773D01*
X117966056Y-115288014D01*
X117946635Y-115510000D01*
X117966056Y-115731986D01*
X117967480Y-115737299D01*
X118015745Y-115917425D01*
X118023730Y-115947227D01*
X118026052Y-115952208D01*
X118026053Y-115952209D01*
X118115577Y-116144195D01*
X118115580Y-116144200D01*
X118117903Y-116149182D01*
X118245716Y-116331717D01*
X118403283Y-116489284D01*
X118407792Y-116492441D01*
X118407794Y-116492443D01*
X118424395Y-116504067D01*
X118585817Y-116617097D01*
X118590802Y-116619421D01*
X118590808Y-116619425D01*
X118690272Y-116665805D01*
X118743558Y-116712722D01*
X118763019Y-116780999D01*
X118742478Y-116848959D01*
X118690273Y-116894195D01*
X118590805Y-116940577D01*
X118590800Y-116940580D01*
X118585818Y-116942903D01*
X118403283Y-117070716D01*
X118245716Y-117228283D01*
X118117903Y-117410818D01*
X118115580Y-117415800D01*
X118115577Y-117415805D01*
X118026053Y-117607791D01*
X118023730Y-117612773D01*
X117966056Y-117828014D01*
X117946635Y-118050000D01*
X117966056Y-118271986D01*
X118023730Y-118487227D01*
X118026052Y-118492208D01*
X118026053Y-118492209D01*
X118115577Y-118684195D01*
X118115580Y-118684200D01*
X118117903Y-118689182D01*
X118245716Y-118871717D01*
X118403283Y-119029284D01*
X118585817Y-119157097D01*
X118590802Y-119159421D01*
X118590808Y-119159425D01*
X118690272Y-119205805D01*
X118743558Y-119252722D01*
X118763019Y-119320999D01*
X118742478Y-119388959D01*
X118690273Y-119434195D01*
X118590805Y-119480577D01*
X118590800Y-119480580D01*
X118585818Y-119482903D01*
X118403283Y-119610716D01*
X118245716Y-119768283D01*
X118242559Y-119772791D01*
X118242557Y-119772794D01*
X118237375Y-119780195D01*
X118117903Y-119950818D01*
X118115580Y-119955800D01*
X118115577Y-119955805D01*
X118049799Y-120096868D01*
X118023730Y-120152773D01*
X117966056Y-120368014D01*
X117946635Y-120590000D01*
X109639706Y-120590000D01*
X109567008Y-120486562D01*
X109564545Y-120483057D01*
X109457641Y-120368014D01*
X109381046Y-120285588D01*
X109381043Y-120285585D01*
X109378125Y-120282445D01*
X109374810Y-120279731D01*
X109374806Y-120279728D01*
X109169523Y-120111706D01*
X109166205Y-120108990D01*
X108932704Y-119965901D01*
X108928768Y-119964173D01*
X108685873Y-119857549D01*
X108685869Y-119857548D01*
X108681945Y-119855825D01*
X108418566Y-119780800D01*
X108414324Y-119780196D01*
X108414318Y-119780195D01*
X108213834Y-119751662D01*
X108147443Y-119742213D01*
X108003589Y-119741460D01*
X107877877Y-119740802D01*
X107877871Y-119740802D01*
X107873591Y-119740780D01*
X107869347Y-119741339D01*
X107869343Y-119741339D01*
X107750302Y-119757011D01*
X107602078Y-119776525D01*
X107597938Y-119777658D01*
X107597936Y-119777658D01*
X107525008Y-119797609D01*
X107337928Y-119848788D01*
X107333980Y-119850472D01*
X107089982Y-119954546D01*
X107089978Y-119954548D01*
X107086030Y-119956232D01*
X107066125Y-119968145D01*
X106854725Y-120094664D01*
X106854721Y-120094667D01*
X106851043Y-120096868D01*
X106637318Y-120268094D01*
X106448808Y-120466742D01*
X106289002Y-120689136D01*
X106286998Y-120692921D01*
X106245855Y-120770627D01*
X106196302Y-120821470D01*
X106127128Y-120837452D01*
X106060294Y-120813498D01*
X106017020Y-120757214D01*
X106008500Y-120711668D01*
X106008500Y-116505186D01*
X108459960Y-116505186D01*
X108467418Y-116515554D01*
X108682662Y-116689854D01*
X108687984Y-116693721D01*
X108990823Y-116890387D01*
X108996532Y-116893683D01*
X109318275Y-117057620D01*
X109324286Y-117060296D01*
X109661395Y-117189700D01*
X109667672Y-117191740D01*
X110016463Y-117285198D01*
X110022901Y-117286567D01*
X110379560Y-117343055D01*
X110386104Y-117343743D01*
X110746699Y-117362641D01*
X110753301Y-117362641D01*
X111113896Y-117343743D01*
X111120440Y-117343055D01*
X111477099Y-117286567D01*
X111483537Y-117285198D01*
X111832328Y-117191740D01*
X111838605Y-117189700D01*
X112175714Y-117060296D01*
X112181725Y-117057620D01*
X112503468Y-116893683D01*
X112509177Y-116890387D01*
X112812016Y-116693721D01*
X112817338Y-116689854D01*
X113031634Y-116516322D01*
X113040100Y-116504067D01*
X113033766Y-116492976D01*
X110762812Y-114222022D01*
X110748868Y-114214408D01*
X110747035Y-114214539D01*
X110740420Y-114218790D01*
X108467100Y-116492110D01*
X108459960Y-116505186D01*
X106008500Y-116505186D01*
X106008500Y-113853301D01*
X107237359Y-113853301D01*
X107256257Y-114213896D01*
X107256945Y-114220440D01*
X107313433Y-114577099D01*
X107314802Y-114583537D01*
X107408260Y-114932328D01*
X107410300Y-114938605D01*
X107539704Y-115275714D01*
X107542380Y-115281725D01*
X107706317Y-115603468D01*
X107709613Y-115609177D01*
X107906279Y-115912016D01*
X107910146Y-115917338D01*
X108083678Y-116131634D01*
X108095933Y-116140100D01*
X108107024Y-116133766D01*
X110377978Y-113862812D01*
X110384356Y-113851132D01*
X111114408Y-113851132D01*
X111114539Y-113852965D01*
X111118790Y-113859580D01*
X113392110Y-116132900D01*
X113405186Y-116140040D01*
X113415554Y-116132582D01*
X113589854Y-115917338D01*
X113593721Y-115912016D01*
X113790387Y-115609177D01*
X113793683Y-115603468D01*
X113957620Y-115281725D01*
X113960296Y-115275714D01*
X114089700Y-114938605D01*
X114091740Y-114932328D01*
X114185198Y-114583537D01*
X114186567Y-114577099D01*
X114243055Y-114220440D01*
X114243743Y-114213896D01*
X114262641Y-113853301D01*
X114262641Y-113846699D01*
X114243743Y-113486104D01*
X114243055Y-113479560D01*
X114186567Y-113122901D01*
X114185198Y-113116463D01*
X114091740Y-112767672D01*
X114089700Y-112761395D01*
X113960296Y-112424286D01*
X113957620Y-112418275D01*
X113793683Y-112096532D01*
X113790387Y-112090823D01*
X113593721Y-111787984D01*
X113589854Y-111782662D01*
X113416322Y-111568366D01*
X113404067Y-111559900D01*
X113392976Y-111566234D01*
X111122022Y-113837188D01*
X111114408Y-113851132D01*
X110384356Y-113851132D01*
X110385592Y-113848868D01*
X110385461Y-113847035D01*
X110381210Y-113840420D01*
X108107890Y-111567100D01*
X108094814Y-111559960D01*
X108084446Y-111567418D01*
X107910146Y-111782662D01*
X107906279Y-111787984D01*
X107709613Y-112090823D01*
X107706317Y-112096532D01*
X107542380Y-112418275D01*
X107539704Y-112424286D01*
X107410300Y-112761395D01*
X107408260Y-112767672D01*
X107314802Y-113116463D01*
X107313433Y-113122901D01*
X107256945Y-113479560D01*
X107256257Y-113486104D01*
X107237359Y-113846699D01*
X107237359Y-113853301D01*
X106008500Y-113853301D01*
X106008500Y-109698134D01*
X107241500Y-109698134D01*
X107248255Y-109760316D01*
X107299385Y-109896705D01*
X107386739Y-110013261D01*
X107503295Y-110100615D01*
X107639684Y-110151745D01*
X107701866Y-110158500D01*
X110031504Y-110158500D01*
X110099625Y-110178502D01*
X110146118Y-110232158D01*
X110156222Y-110302432D01*
X110126728Y-110367012D01*
X110067002Y-110405396D01*
X110051215Y-110408949D01*
X110022898Y-110413434D01*
X110016463Y-110414802D01*
X109667672Y-110508260D01*
X109661395Y-110510300D01*
X109324286Y-110639704D01*
X109318275Y-110642380D01*
X108996532Y-110806317D01*
X108990823Y-110809613D01*
X108687984Y-111006279D01*
X108682662Y-111010146D01*
X108468366Y-111183678D01*
X108459900Y-111195933D01*
X108466234Y-111207024D01*
X110737188Y-113477978D01*
X110751132Y-113485592D01*
X110752965Y-113485461D01*
X110759580Y-113481210D01*
X113032900Y-111207890D01*
X113040040Y-111194814D01*
X113032582Y-111184446D01*
X112817338Y-111010146D01*
X112812016Y-111006279D01*
X112509177Y-110809613D01*
X112503468Y-110806317D01*
X112181725Y-110642380D01*
X112175714Y-110639704D01*
X111838605Y-110510300D01*
X111832328Y-110508260D01*
X111483537Y-110414802D01*
X111477102Y-110413434D01*
X111448785Y-110408949D01*
X111384632Y-110378537D01*
X111347105Y-110318268D01*
X111348119Y-110247279D01*
X111387352Y-110188107D01*
X111452347Y-110159539D01*
X111468496Y-110158500D01*
X113798134Y-110158500D01*
X113860316Y-110151745D01*
X113996705Y-110100615D01*
X114113261Y-110013261D01*
X114200615Y-109896705D01*
X114251745Y-109760316D01*
X114258500Y-109698134D01*
X114258500Y-107895475D01*
X117947616Y-107895475D01*
X117966072Y-108106419D01*
X117967975Y-108117214D01*
X118022779Y-108321745D01*
X118026525Y-108332037D01*
X118116012Y-108523944D01*
X118121495Y-108533439D01*
X118152640Y-108577919D01*
X118163117Y-108586294D01*
X118176564Y-108579226D01*
X118852978Y-107902812D01*
X118859356Y-107891132D01*
X119589408Y-107891132D01*
X119589539Y-107892965D01*
X119593790Y-107899580D01*
X120274157Y-108579947D01*
X120285932Y-108586377D01*
X120297947Y-108577081D01*
X120328505Y-108533439D01*
X120333988Y-108523944D01*
X120423475Y-108332037D01*
X120427221Y-108321745D01*
X120482025Y-108117214D01*
X120483928Y-108106419D01*
X120502384Y-107895475D01*
X120502384Y-107884525D01*
X120483928Y-107673581D01*
X120482025Y-107662786D01*
X120427221Y-107458255D01*
X120423475Y-107447963D01*
X120333988Y-107256056D01*
X120328505Y-107246561D01*
X120297360Y-107202081D01*
X120286883Y-107193706D01*
X120273436Y-107200774D01*
X119597022Y-107877188D01*
X119589408Y-107891132D01*
X118859356Y-107891132D01*
X118860592Y-107888868D01*
X118860461Y-107887035D01*
X118856210Y-107880420D01*
X118175843Y-107200053D01*
X118164068Y-107193623D01*
X118152053Y-107202919D01*
X118121495Y-107246561D01*
X118116012Y-107256056D01*
X118026525Y-107447963D01*
X118022779Y-107458255D01*
X117967975Y-107662786D01*
X117966072Y-107673581D01*
X117947616Y-107884525D01*
X117947616Y-107895475D01*
X114258500Y-107895475D01*
X114258500Y-103601866D01*
X114251745Y-103539684D01*
X114200615Y-103403295D01*
X114113261Y-103286739D01*
X113996705Y-103199385D01*
X113860316Y-103148255D01*
X113798134Y-103141500D01*
X107701866Y-103141500D01*
X107639684Y-103148255D01*
X107503295Y-103199385D01*
X107386739Y-103286739D01*
X107299385Y-103403295D01*
X107248255Y-103539684D01*
X107241500Y-103601866D01*
X107241500Y-109698134D01*
X106008500Y-109698134D01*
X106008500Y-99966695D01*
X109622251Y-99966695D01*
X109622548Y-99971848D01*
X109622548Y-99971851D01*
X109626940Y-100048014D01*
X109635110Y-100189715D01*
X109636247Y-100194761D01*
X109636248Y-100194767D01*
X109642440Y-100222240D01*
X109684222Y-100407639D01*
X109768266Y-100614616D01*
X109884987Y-100805088D01*
X110031250Y-100973938D01*
X110203126Y-101116632D01*
X110396000Y-101229338D01*
X110604692Y-101309030D01*
X110609760Y-101310061D01*
X110609763Y-101310062D01*
X110717017Y-101331883D01*
X110823597Y-101353567D01*
X110828772Y-101353757D01*
X110828774Y-101353757D01*
X111041673Y-101361564D01*
X111041677Y-101361564D01*
X111046837Y-101361753D01*
X111051957Y-101361097D01*
X111051959Y-101361097D01*
X111263288Y-101334025D01*
X111263289Y-101334025D01*
X111268416Y-101333368D01*
X111273366Y-101331883D01*
X111477429Y-101270661D01*
X111477434Y-101270659D01*
X111482384Y-101269174D01*
X111682994Y-101170896D01*
X111864860Y-101041173D01*
X111973091Y-100933319D01*
X112035462Y-100899404D01*
X112106268Y-100904592D01*
X112163030Y-100947238D01*
X112180012Y-100978341D01*
X112224385Y-101096705D01*
X112311739Y-101213261D01*
X112428295Y-101300615D01*
X112564684Y-101351745D01*
X112626866Y-101358500D01*
X114423134Y-101358500D01*
X114485316Y-101351745D01*
X114621705Y-101300615D01*
X114738261Y-101213261D01*
X114825615Y-101096705D01*
X114876745Y-100960316D01*
X114883500Y-100898134D01*
X114883500Y-99101866D01*
X114876745Y-99039684D01*
X114825615Y-98903295D01*
X114738261Y-98786739D01*
X114621705Y-98699385D01*
X114485316Y-98648255D01*
X114423134Y-98641500D01*
X112626866Y-98641500D01*
X112564684Y-98648255D01*
X112428295Y-98699385D01*
X112311739Y-98786739D01*
X112224385Y-98903295D01*
X112221233Y-98911703D01*
X112179919Y-99021907D01*
X112137277Y-99078671D01*
X112070716Y-99103371D01*
X112001367Y-99088163D01*
X111968743Y-99062476D01*
X111918151Y-99006875D01*
X111918142Y-99006866D01*
X111914670Y-99003051D01*
X111910619Y-98999852D01*
X111910615Y-98999848D01*
X111743414Y-98867800D01*
X111743410Y-98867798D01*
X111739359Y-98864598D01*
X111543789Y-98756638D01*
X111538920Y-98754914D01*
X111538916Y-98754912D01*
X111338087Y-98683795D01*
X111338083Y-98683794D01*
X111333212Y-98682069D01*
X111328119Y-98681162D01*
X111328116Y-98681161D01*
X111118373Y-98643800D01*
X111118367Y-98643799D01*
X111113284Y-98642894D01*
X111039452Y-98641992D01*
X110895081Y-98640228D01*
X110895079Y-98640228D01*
X110889911Y-98640165D01*
X110669091Y-98673955D01*
X110456756Y-98743357D01*
X110426591Y-98759060D01*
X110293940Y-98828114D01*
X110258607Y-98846507D01*
X110254474Y-98849610D01*
X110254471Y-98849612D01*
X110146018Y-98931041D01*
X110079965Y-98980635D01*
X110050894Y-99011056D01*
X109986280Y-99078671D01*
X109925629Y-99142138D01*
X109922715Y-99146410D01*
X109922714Y-99146411D01*
X109865930Y-99229653D01*
X109799743Y-99326680D01*
X109705688Y-99529305D01*
X109645989Y-99744570D01*
X109622251Y-99966695D01*
X106008500Y-99966695D01*
X106008500Y-97116634D01*
X109546500Y-97116634D01*
X109553255Y-97178816D01*
X109604385Y-97315205D01*
X109691739Y-97431761D01*
X109808295Y-97519115D01*
X109944684Y-97570245D01*
X110006866Y-97577000D01*
X111803134Y-97577000D01*
X111865316Y-97570245D01*
X112001705Y-97519115D01*
X112118261Y-97431761D01*
X112205615Y-97315205D01*
X112249798Y-97197348D01*
X112292440Y-97140584D01*
X112359001Y-97115884D01*
X112428350Y-97131092D01*
X112463017Y-97159080D01*
X112488218Y-97188173D01*
X112495580Y-97195383D01*
X112659434Y-97331416D01*
X112667881Y-97337331D01*
X112851756Y-97444779D01*
X112861042Y-97449229D01*
X113060001Y-97525203D01*
X113069899Y-97528079D01*
X113173250Y-97549106D01*
X113187299Y-97547910D01*
X113191000Y-97537565D01*
X113191000Y-97537017D01*
X113699000Y-97537017D01*
X113703064Y-97550859D01*
X113716478Y-97552893D01*
X113723184Y-97552034D01*
X113733262Y-97549892D01*
X113937255Y-97488691D01*
X113946842Y-97484933D01*
X114138095Y-97391239D01*
X114146945Y-97385964D01*
X114320328Y-97262292D01*
X114328200Y-97255639D01*
X114479052Y-97105312D01*
X114485730Y-97097465D01*
X114610003Y-96924520D01*
X114615313Y-96915683D01*
X114709670Y-96724767D01*
X114713469Y-96715172D01*
X114775377Y-96511410D01*
X114777555Y-96501337D01*
X114778986Y-96490462D01*
X114776775Y-96476278D01*
X114763617Y-96472500D01*
X113717115Y-96472500D01*
X113701876Y-96476975D01*
X113700671Y-96478365D01*
X113699000Y-96486048D01*
X113699000Y-97537017D01*
X113191000Y-97537017D01*
X113191000Y-95946385D01*
X113699000Y-95946385D01*
X113703475Y-95961624D01*
X113704865Y-95962829D01*
X113712548Y-95964500D01*
X114763344Y-95964500D01*
X114776875Y-95960527D01*
X114778180Y-95951447D01*
X114736214Y-95784375D01*
X114732894Y-95774624D01*
X114647972Y-95579314D01*
X114643105Y-95570239D01*
X114527426Y-95391426D01*
X114521136Y-95383257D01*
X114377806Y-95225740D01*
X114370273Y-95218715D01*
X114203139Y-95086722D01*
X114194552Y-95081017D01*
X114008117Y-94978099D01*
X113998705Y-94973869D01*
X113797959Y-94902780D01*
X113787988Y-94900146D01*
X113716837Y-94887472D01*
X113703540Y-94888932D01*
X113699000Y-94903489D01*
X113699000Y-95946385D01*
X113191000Y-95946385D01*
X113191000Y-94901602D01*
X113187082Y-94888258D01*
X113172806Y-94886271D01*
X113134324Y-94892160D01*
X113124288Y-94894551D01*
X112921868Y-94960712D01*
X112912359Y-94964709D01*
X112723463Y-95063042D01*
X112714738Y-95068536D01*
X112544433Y-95196405D01*
X112536726Y-95203248D01*
X112459478Y-95284084D01*
X112397954Y-95319514D01*
X112327042Y-95316057D01*
X112269255Y-95274811D01*
X112250402Y-95241263D01*
X112208767Y-95130203D01*
X112205615Y-95121795D01*
X112118261Y-95005239D01*
X112001705Y-94917885D01*
X111865316Y-94866755D01*
X111803134Y-94860000D01*
X110006866Y-94860000D01*
X109944684Y-94866755D01*
X109808295Y-94917885D01*
X109691739Y-95005239D01*
X109604385Y-95121795D01*
X109553255Y-95258184D01*
X109546500Y-95320366D01*
X109546500Y-97116634D01*
X106008500Y-97116634D01*
X106008500Y-70541458D01*
X106028502Y-70473337D01*
X106082158Y-70426844D01*
X106152432Y-70416740D01*
X106217012Y-70446234D01*
X106247065Y-70484843D01*
X106267160Y-70524799D01*
X106269586Y-70528328D01*
X106269589Y-70528334D01*
X106358459Y-70657639D01*
X106422274Y-70750490D01*
X106425161Y-70753663D01*
X106425162Y-70753664D01*
X106567286Y-70909857D01*
X106606582Y-70953043D01*
X106609877Y-70955798D01*
X106609878Y-70955799D01*
X106654382Y-70993010D01*
X106816675Y-71128707D01*
X106820316Y-71130991D01*
X107045024Y-71271951D01*
X107045028Y-71271953D01*
X107048664Y-71274234D01*
X107116544Y-71304883D01*
X107294345Y-71385164D01*
X107294349Y-71385166D01*
X107298257Y-71386930D01*
X107314131Y-71391632D01*
X107556723Y-71463491D01*
X107556727Y-71463492D01*
X107560836Y-71464709D01*
X107565070Y-71465357D01*
X107565075Y-71465358D01*
X107827298Y-71505483D01*
X107827300Y-71505483D01*
X107831540Y-71506132D01*
X107970912Y-71508322D01*
X108101071Y-71510367D01*
X108101077Y-71510367D01*
X108105362Y-71510434D01*
X108377235Y-71477534D01*
X108642127Y-71408041D01*
X108646087Y-71406401D01*
X108646092Y-71406399D01*
X108790205Y-71346705D01*
X108895136Y-71303241D01*
X109067602Y-71202460D01*
X109127879Y-71167237D01*
X109127880Y-71167236D01*
X109131582Y-71165073D01*
X109153185Y-71148134D01*
X111841500Y-71148134D01*
X111848255Y-71210316D01*
X111899385Y-71346705D01*
X111986739Y-71463261D01*
X112103295Y-71550615D01*
X112239684Y-71601745D01*
X112301866Y-71608500D01*
X114098134Y-71608500D01*
X114160316Y-71601745D01*
X114296705Y-71550615D01*
X114413261Y-71463261D01*
X114500615Y-71346705D01*
X114513571Y-71312145D01*
X114544598Y-71229382D01*
X114587240Y-71172618D01*
X114653802Y-71147918D01*
X114723150Y-71163126D01*
X114757817Y-71191114D01*
X114786250Y-71223938D01*
X114958126Y-71366632D01*
X115151000Y-71479338D01*
X115155825Y-71481180D01*
X115155826Y-71481181D01*
X115174367Y-71488261D01*
X115359692Y-71559030D01*
X115364760Y-71560061D01*
X115364763Y-71560062D01*
X115437351Y-71574830D01*
X115578597Y-71603567D01*
X115583772Y-71603757D01*
X115583774Y-71603757D01*
X115796673Y-71611564D01*
X115796677Y-71611564D01*
X115801837Y-71611753D01*
X115806957Y-71611097D01*
X115806959Y-71611097D01*
X116018288Y-71584025D01*
X116018289Y-71584025D01*
X116023416Y-71583368D01*
X116028966Y-71581703D01*
X116232429Y-71520661D01*
X116232434Y-71520659D01*
X116237384Y-71519174D01*
X116437994Y-71420896D01*
X116619860Y-71291173D01*
X116778096Y-71133489D01*
X116813665Y-71083990D01*
X116908453Y-70952077D01*
X116909776Y-70953028D01*
X116956645Y-70909857D01*
X117026580Y-70897625D01*
X117092026Y-70925144D01*
X117119875Y-70956994D01*
X117179987Y-71055088D01*
X117326250Y-71223938D01*
X117498126Y-71366632D01*
X117509070Y-71373027D01*
X117557793Y-71424664D01*
X117571500Y-71481815D01*
X117571500Y-71501088D01*
X117571208Y-71509658D01*
X117567805Y-71559579D01*
X117567275Y-71567352D01*
X117568580Y-71574829D01*
X117568580Y-71574830D01*
X117571734Y-71592899D01*
X117577790Y-71627598D01*
X117578261Y-71630299D01*
X117579223Y-71636821D01*
X117586898Y-71700242D01*
X117589581Y-71707343D01*
X117590222Y-71709952D01*
X117594680Y-71726246D01*
X117595451Y-71728799D01*
X117596757Y-71736284D01*
X117599811Y-71743241D01*
X117622442Y-71794795D01*
X117624933Y-71800899D01*
X117647513Y-71860656D01*
X117651817Y-71866919D01*
X117653054Y-71869285D01*
X117661299Y-71884097D01*
X117662632Y-71886351D01*
X117665685Y-71893305D01*
X117702777Y-71941642D01*
X117704579Y-71943991D01*
X117708459Y-71949332D01*
X117740339Y-71995720D01*
X117740344Y-71995725D01*
X117744643Y-72001981D01*
X117750313Y-72007032D01*
X117750314Y-72007034D01*
X117791170Y-72043435D01*
X117796446Y-72048416D01*
X119129435Y-73381405D01*
X119163461Y-73443717D01*
X119158396Y-73514532D01*
X119115849Y-73571368D01*
X119049329Y-73596179D01*
X119040340Y-73596500D01*
X118411866Y-73596500D01*
X118349684Y-73603255D01*
X118213295Y-73654385D01*
X118096739Y-73741739D01*
X118009385Y-73858295D01*
X117958255Y-73994684D01*
X117951500Y-74056866D01*
X117951500Y-75683134D01*
X117958255Y-75745316D01*
X118009385Y-75881705D01*
X118096739Y-75998261D01*
X118213295Y-76085615D01*
X118349684Y-76136745D01*
X118411866Y-76143500D01*
X118415282Y-76143500D01*
X118418680Y-76143684D01*
X118418614Y-76144899D01*
X118481969Y-76163502D01*
X118528462Y-76217158D01*
X118538566Y-76287432D01*
X118509072Y-76352012D01*
X118486119Y-76372713D01*
X118403283Y-76430716D01*
X118245716Y-76588283D01*
X118117903Y-76770818D01*
X118115580Y-76775800D01*
X118115577Y-76775805D01*
X118032262Y-76954476D01*
X118023730Y-76972773D01*
X117966056Y-77188014D01*
X117946635Y-77410000D01*
X117966056Y-77631986D01*
X118023730Y-77847227D01*
X118026052Y-77852208D01*
X118026053Y-77852209D01*
X118115577Y-78044195D01*
X118115580Y-78044200D01*
X118117903Y-78049182D01*
X118245716Y-78231717D01*
X118403283Y-78389284D01*
X118585817Y-78517097D01*
X118590802Y-78519421D01*
X118590808Y-78519425D01*
X118690272Y-78565805D01*
X118743558Y-78612722D01*
X118763019Y-78680999D01*
X118742478Y-78748959D01*
X118690273Y-78794195D01*
X118590805Y-78840577D01*
X118590800Y-78840580D01*
X118585818Y-78842903D01*
X118483608Y-78914472D01*
X118420184Y-78958882D01*
X118403283Y-78970716D01*
X118245716Y-79128283D01*
X118242559Y-79132791D01*
X118242557Y-79132794D01*
X118213761Y-79173919D01*
X118117903Y-79310818D01*
X118115580Y-79315800D01*
X118115577Y-79315805D01*
X118039726Y-79478469D01*
X118023730Y-79512773D01*
X117966056Y-79728014D01*
X117946635Y-79950000D01*
X117966056Y-80171986D01*
X118023730Y-80387227D01*
X118026052Y-80392208D01*
X118026053Y-80392209D01*
X118115577Y-80584195D01*
X118115580Y-80584200D01*
X118117903Y-80589182D01*
X118121060Y-80593690D01*
X118240226Y-80763876D01*
X118245716Y-80771717D01*
X118403283Y-80929284D01*
X118585817Y-81057097D01*
X118590802Y-81059421D01*
X118590808Y-81059425D01*
X118690272Y-81105805D01*
X118743558Y-81152722D01*
X118763019Y-81220999D01*
X118742478Y-81288959D01*
X118690273Y-81334195D01*
X118590805Y-81380577D01*
X118590800Y-81380580D01*
X118585818Y-81382903D01*
X118483608Y-81454472D01*
X118451856Y-81476705D01*
X118403283Y-81510716D01*
X118245716Y-81668283D01*
X118242559Y-81672791D01*
X118242557Y-81672794D01*
X118198213Y-81736124D01*
X118117903Y-81850818D01*
X118115580Y-81855800D01*
X118115577Y-81855805D01*
X118065720Y-81962725D01*
X118023730Y-82052773D01*
X118022308Y-82058081D01*
X118022307Y-82058083D01*
X118020076Y-82066411D01*
X117966056Y-82268014D01*
X117946635Y-82490000D01*
X117966056Y-82711986D01*
X117993327Y-82813762D01*
X118021794Y-82920000D01*
X118023730Y-82927227D01*
X118026052Y-82932208D01*
X118026053Y-82932209D01*
X118115577Y-83124195D01*
X118115580Y-83124200D01*
X118117903Y-83129182D01*
X118173141Y-83208069D01*
X118241798Y-83306121D01*
X118245716Y-83311717D01*
X118403283Y-83469284D01*
X118407792Y-83472441D01*
X118407794Y-83472443D01*
X118483110Y-83525180D01*
X118585817Y-83597097D01*
X118590802Y-83599421D01*
X118590808Y-83599425D01*
X118690272Y-83645805D01*
X118743558Y-83692722D01*
X118763019Y-83760999D01*
X118742478Y-83828959D01*
X118690273Y-83874195D01*
X118590805Y-83920577D01*
X118590800Y-83920580D01*
X118585818Y-83922903D01*
X118403283Y-84050716D01*
X118245716Y-84208283D01*
X118242559Y-84212791D01*
X118242557Y-84212794D01*
X118215550Y-84251364D01*
X118117903Y-84390818D01*
X118115580Y-84395800D01*
X118115577Y-84395805D01*
X118084220Y-84463051D01*
X118023730Y-84592773D01*
X117966056Y-84808014D01*
X117946635Y-85030000D01*
X117966056Y-85251986D01*
X117967480Y-85257299D01*
X118021794Y-85460000D01*
X118023730Y-85467227D01*
X118026052Y-85472208D01*
X118026053Y-85472209D01*
X118115577Y-85664195D01*
X118115580Y-85664200D01*
X118117903Y-85669182D01*
X118245716Y-85851717D01*
X118403283Y-86009284D01*
X118585817Y-86137097D01*
X118590802Y-86139421D01*
X118590808Y-86139425D01*
X118690272Y-86185805D01*
X118743558Y-86232722D01*
X118763019Y-86300999D01*
X118742478Y-86368959D01*
X118690273Y-86414195D01*
X118590805Y-86460577D01*
X118590800Y-86460580D01*
X118585818Y-86462903D01*
X118403283Y-86590716D01*
X118245716Y-86748283D01*
X118242559Y-86752791D01*
X118242557Y-86752794D01*
X118189472Y-86828608D01*
X118117903Y-86930818D01*
X118115580Y-86935800D01*
X118115577Y-86935805D01*
X118082267Y-87007240D01*
X118023730Y-87132773D01*
X117966056Y-87348014D01*
X117946635Y-87570000D01*
X117966056Y-87791986D01*
X118023730Y-88007227D01*
X118026052Y-88012208D01*
X118026053Y-88012209D01*
X118115577Y-88204195D01*
X118115580Y-88204200D01*
X118117903Y-88209182D01*
X118245716Y-88391717D01*
X118403283Y-88549284D01*
X118407792Y-88552441D01*
X118407794Y-88552443D01*
X118483110Y-88605180D01*
X118585817Y-88677097D01*
X118590802Y-88679421D01*
X118590808Y-88679425D01*
X118690272Y-88725805D01*
X118743558Y-88772722D01*
X118763019Y-88840999D01*
X118742478Y-88908959D01*
X118690273Y-88954195D01*
X118590805Y-89000577D01*
X118590800Y-89000580D01*
X118585818Y-89002903D01*
X118403283Y-89130716D01*
X118245716Y-89288283D01*
X118242559Y-89292791D01*
X118242557Y-89292794D01*
X118215737Y-89331097D01*
X118117903Y-89470818D01*
X118115580Y-89475800D01*
X118115577Y-89475805D01*
X118084220Y-89543051D01*
X118023730Y-89672773D01*
X118022308Y-89678081D01*
X118022307Y-89678083D01*
X118020076Y-89686411D01*
X117966056Y-89888014D01*
X117946635Y-90110000D01*
X117966056Y-90331986D01*
X117967480Y-90337299D01*
X118021794Y-90540000D01*
X118023730Y-90547227D01*
X118026052Y-90552208D01*
X118026053Y-90552209D01*
X118115577Y-90744195D01*
X118115580Y-90744200D01*
X118117903Y-90749182D01*
X118245716Y-90931717D01*
X118403283Y-91089284D01*
X118585817Y-91217097D01*
X118590802Y-91219421D01*
X118590808Y-91219425D01*
X118690272Y-91265805D01*
X118743558Y-91312722D01*
X118763019Y-91380999D01*
X118742478Y-91448959D01*
X118690273Y-91494195D01*
X118590805Y-91540577D01*
X118590800Y-91540580D01*
X118585818Y-91542903D01*
X118403283Y-91670716D01*
X118245716Y-91828283D01*
X118242559Y-91832791D01*
X118242557Y-91832794D01*
X118215550Y-91871364D01*
X118117903Y-92010818D01*
X118115580Y-92015800D01*
X118115577Y-92015805D01*
X118084220Y-92083051D01*
X118023730Y-92212773D01*
X118022308Y-92218081D01*
X118022307Y-92218083D01*
X118020076Y-92226411D01*
X117966056Y-92428014D01*
X117946635Y-92650000D01*
X117966056Y-92871986D01*
X117967480Y-92877299D01*
X118021794Y-93080000D01*
X118023730Y-93087227D01*
X118026052Y-93092208D01*
X118026053Y-93092209D01*
X118115577Y-93284195D01*
X118115580Y-93284200D01*
X118117903Y-93289182D01*
X118245716Y-93471717D01*
X118403283Y-93629284D01*
X118585817Y-93757097D01*
X118590802Y-93759421D01*
X118590808Y-93759425D01*
X118690272Y-93805805D01*
X118743558Y-93852722D01*
X118763019Y-93920999D01*
X118742478Y-93988959D01*
X118690273Y-94034195D01*
X118590805Y-94080577D01*
X118590800Y-94080580D01*
X118585818Y-94082903D01*
X118403283Y-94210716D01*
X118245716Y-94368283D01*
X118242559Y-94372791D01*
X118242557Y-94372794D01*
X118189472Y-94448608D01*
X118117903Y-94550818D01*
X118115580Y-94555800D01*
X118115577Y-94555805D01*
X118026053Y-94747791D01*
X118023730Y-94752773D01*
X117966056Y-94968014D01*
X117946635Y-95190000D01*
X117966056Y-95411986D01*
X118023730Y-95627227D01*
X118026052Y-95632208D01*
X118026053Y-95632209D01*
X118115577Y-95824195D01*
X118115580Y-95824200D01*
X118117903Y-95829182D01*
X118245716Y-96011717D01*
X118403283Y-96169284D01*
X118585817Y-96297097D01*
X118590802Y-96299421D01*
X118590808Y-96299425D01*
X118690272Y-96345805D01*
X118743558Y-96392722D01*
X118763019Y-96460999D01*
X118742478Y-96528959D01*
X118690273Y-96574195D01*
X118590805Y-96620577D01*
X118590800Y-96620580D01*
X118585818Y-96622903D01*
X118403283Y-96750716D01*
X118245716Y-96908283D01*
X118242559Y-96912791D01*
X118242557Y-96912794D01*
X118189472Y-96988608D01*
X118117903Y-97090818D01*
X118115580Y-97095800D01*
X118115577Y-97095805D01*
X118068227Y-97197348D01*
X118023730Y-97292773D01*
X118022308Y-97298081D01*
X118022307Y-97298083D01*
X118011791Y-97337331D01*
X117966056Y-97508014D01*
X117946635Y-97730000D01*
X117966056Y-97951986D01*
X118023730Y-98167227D01*
X118026052Y-98172208D01*
X118026053Y-98172209D01*
X118115577Y-98364195D01*
X118115580Y-98364200D01*
X118117903Y-98369182D01*
X118245716Y-98551717D01*
X118403283Y-98709284D01*
X118585817Y-98837097D01*
X118590802Y-98839421D01*
X118590808Y-98839425D01*
X118690272Y-98885805D01*
X118743558Y-98932722D01*
X118763019Y-99000999D01*
X118742478Y-99068959D01*
X118690273Y-99114195D01*
X118590805Y-99160577D01*
X118590800Y-99160580D01*
X118585818Y-99162903D01*
X118403283Y-99290716D01*
X118245716Y-99448283D01*
X118117903Y-99630818D01*
X118115580Y-99635800D01*
X118115577Y-99635805D01*
X118062464Y-99749707D01*
X118023730Y-99832773D01*
X117966056Y-100048014D01*
X117946635Y-100270000D01*
X117966056Y-100491986D01*
X118023730Y-100707227D01*
X118026052Y-100712208D01*
X118026053Y-100712209D01*
X118115577Y-100904195D01*
X118115580Y-100904200D01*
X118117903Y-100909182D01*
X118160510Y-100970031D01*
X118210325Y-101041173D01*
X118245716Y-101091717D01*
X118403283Y-101249284D01*
X118407792Y-101252441D01*
X118407794Y-101252443D01*
X118481092Y-101303767D01*
X118585817Y-101377097D01*
X118590802Y-101379421D01*
X118590808Y-101379425D01*
X118690272Y-101425805D01*
X118743558Y-101472722D01*
X118763019Y-101540999D01*
X118742478Y-101608959D01*
X118690273Y-101654195D01*
X118590805Y-101700577D01*
X118590800Y-101700580D01*
X118585818Y-101702903D01*
X118506772Y-101758252D01*
X118425945Y-101814848D01*
X118403283Y-101830716D01*
X118245716Y-101988283D01*
X118117903Y-102170818D01*
X118115580Y-102175800D01*
X118115577Y-102175805D01*
X118043857Y-102329610D01*
X118023730Y-102372773D01*
X118022308Y-102378081D01*
X118022307Y-102378083D01*
X118004520Y-102444464D01*
X117966056Y-102588014D01*
X117946635Y-102810000D01*
X117966056Y-103031986D01*
X117967480Y-103037299D01*
X118017142Y-103222639D01*
X118023730Y-103247227D01*
X118026052Y-103252208D01*
X118026053Y-103252209D01*
X118115577Y-103444195D01*
X118115580Y-103444200D01*
X118117903Y-103449182D01*
X118186774Y-103547540D01*
X118227207Y-103605283D01*
X118245716Y-103631717D01*
X118403283Y-103789284D01*
X118585817Y-103917097D01*
X118590802Y-103919421D01*
X118590808Y-103919425D01*
X118690272Y-103965805D01*
X118743558Y-104012722D01*
X118763019Y-104080999D01*
X118742478Y-104148959D01*
X118690273Y-104194195D01*
X118590805Y-104240577D01*
X118590800Y-104240580D01*
X118585818Y-104242903D01*
X118506772Y-104298252D01*
X118425945Y-104354848D01*
X118403283Y-104370716D01*
X118245716Y-104528283D01*
X118117903Y-104710818D01*
X118115580Y-104715800D01*
X118115577Y-104715805D01*
X118043857Y-104869610D01*
X118023730Y-104912773D01*
X118022308Y-104918081D01*
X118022307Y-104918083D01*
X118004520Y-104984464D01*
X117966056Y-105128014D01*
X117946635Y-105350000D01*
X117966056Y-105571986D01*
X117967480Y-105577299D01*
X118017142Y-105762639D01*
X118023730Y-105787227D01*
X118026052Y-105792208D01*
X118026053Y-105792209D01*
X118115577Y-105984195D01*
X118115580Y-105984200D01*
X118117903Y-105989182D01*
X118245716Y-106171717D01*
X118403283Y-106329284D01*
X118585817Y-106457097D01*
X118590802Y-106459421D01*
X118590808Y-106459425D01*
X118690864Y-106506081D01*
X118744150Y-106552998D01*
X118763611Y-106621275D01*
X118743070Y-106689235D01*
X118690865Y-106734471D01*
X118591056Y-106781012D01*
X118581561Y-106786495D01*
X118537081Y-106817640D01*
X118528706Y-106828117D01*
X118535774Y-106841564D01*
X119212188Y-107517978D01*
X119226132Y-107525592D01*
X119227965Y-107525461D01*
X119234580Y-107521210D01*
X119914947Y-106840843D01*
X119921377Y-106829068D01*
X119912084Y-106817055D01*
X119868431Y-106786488D01*
X119858953Y-106781016D01*
X119759136Y-106734471D01*
X119705851Y-106687554D01*
X119686390Y-106619277D01*
X119706932Y-106551317D01*
X119759136Y-106506081D01*
X119859196Y-106459423D01*
X119859201Y-106459420D01*
X119864183Y-106457097D01*
X120046717Y-106329284D01*
X120204284Y-106171717D01*
X120332097Y-105989182D01*
X120334420Y-105984200D01*
X120334423Y-105984195D01*
X120423947Y-105792209D01*
X120423948Y-105792208D01*
X120426270Y-105787227D01*
X120432859Y-105762639D01*
X120482520Y-105577299D01*
X120483944Y-105571986D01*
X120503365Y-105350000D01*
X120483944Y-105128014D01*
X120445480Y-104984464D01*
X120427693Y-104918083D01*
X120427692Y-104918081D01*
X120426270Y-104912773D01*
X120406143Y-104869610D01*
X120334423Y-104715805D01*
X120334420Y-104715800D01*
X120332097Y-104710818D01*
X120204284Y-104528283D01*
X120046717Y-104370716D01*
X120024056Y-104354848D01*
X119943229Y-104298252D01*
X119864183Y-104242903D01*
X119859201Y-104240580D01*
X119859196Y-104240577D01*
X119759728Y-104194195D01*
X119706443Y-104147278D01*
X119686982Y-104079001D01*
X119707524Y-104011041D01*
X119759728Y-103965805D01*
X119859196Y-103919423D01*
X119859201Y-103919420D01*
X119864183Y-103917097D01*
X120046717Y-103789284D01*
X120204284Y-103631717D01*
X120222794Y-103605283D01*
X120263226Y-103547540D01*
X120332097Y-103449182D01*
X120334420Y-103444200D01*
X120334423Y-103444195D01*
X120423947Y-103252209D01*
X120423948Y-103252208D01*
X120426270Y-103247227D01*
X120432859Y-103222639D01*
X120482520Y-103037299D01*
X120483944Y-103031986D01*
X120503365Y-102810000D01*
X120483944Y-102588014D01*
X120445480Y-102444465D01*
X120427693Y-102378083D01*
X120427692Y-102378081D01*
X120426270Y-102372773D01*
X120406143Y-102329610D01*
X120334423Y-102175805D01*
X120334420Y-102175800D01*
X120332097Y-102170818D01*
X120204284Y-101988283D01*
X120046717Y-101830716D01*
X120024056Y-101814848D01*
X119943229Y-101758252D01*
X119864183Y-101702903D01*
X119859201Y-101700580D01*
X119859196Y-101700577D01*
X119759728Y-101654195D01*
X119706443Y-101607278D01*
X119686982Y-101539001D01*
X119707524Y-101471041D01*
X119759728Y-101425805D01*
X119859196Y-101379423D01*
X119859201Y-101379420D01*
X119864183Y-101377097D01*
X119968908Y-101303767D01*
X120042206Y-101252443D01*
X120042208Y-101252441D01*
X120046717Y-101249284D01*
X120204284Y-101091717D01*
X120239676Y-101041173D01*
X120289490Y-100970031D01*
X120332097Y-100909182D01*
X120334420Y-100904200D01*
X120334423Y-100904195D01*
X120423947Y-100712209D01*
X120423948Y-100712208D01*
X120426270Y-100707227D01*
X120483944Y-100491986D01*
X120503365Y-100270000D01*
X120483944Y-100048014D01*
X120426270Y-99832773D01*
X120387536Y-99749707D01*
X120334423Y-99635805D01*
X120334420Y-99635800D01*
X120332097Y-99630818D01*
X120204284Y-99448283D01*
X120046717Y-99290716D01*
X119981429Y-99245000D01*
X119926534Y-99206562D01*
X119864183Y-99162903D01*
X119859201Y-99160580D01*
X119859196Y-99160577D01*
X119759728Y-99114195D01*
X119706443Y-99067278D01*
X119686982Y-98999001D01*
X119707524Y-98931041D01*
X119759728Y-98885805D01*
X119859196Y-98839423D01*
X119859201Y-98839420D01*
X119864183Y-98837097D01*
X120046717Y-98709284D01*
X120204284Y-98551717D01*
X120332097Y-98369182D01*
X120334420Y-98364200D01*
X120334423Y-98364195D01*
X120423947Y-98172209D01*
X120423948Y-98172208D01*
X120426270Y-98167227D01*
X120483944Y-97951986D01*
X120503365Y-97730000D01*
X120483944Y-97508014D01*
X120438209Y-97337331D01*
X120427693Y-97298083D01*
X120427692Y-97298081D01*
X120426270Y-97292773D01*
X120381773Y-97197348D01*
X120334423Y-97095805D01*
X120334420Y-97095800D01*
X120332097Y-97090818D01*
X120260528Y-96988608D01*
X120207443Y-96912794D01*
X120207441Y-96912791D01*
X120204284Y-96908283D01*
X120046717Y-96750716D01*
X120009659Y-96724767D01*
X119943229Y-96678252D01*
X119864183Y-96622903D01*
X119859201Y-96620580D01*
X119859196Y-96620577D01*
X119759728Y-96574195D01*
X119706443Y-96527278D01*
X119686982Y-96459001D01*
X119707524Y-96391041D01*
X119759728Y-96345805D01*
X119859196Y-96299423D01*
X119859201Y-96299420D01*
X119864183Y-96297097D01*
X120046717Y-96169284D01*
X120204284Y-96011717D01*
X120332097Y-95829182D01*
X120334420Y-95824200D01*
X120334423Y-95824195D01*
X120423947Y-95632209D01*
X120423948Y-95632208D01*
X120426270Y-95627227D01*
X120483944Y-95411986D01*
X120503365Y-95190000D01*
X120483944Y-94968014D01*
X120426270Y-94752773D01*
X120423947Y-94747791D01*
X120334423Y-94555805D01*
X120334420Y-94555800D01*
X120332097Y-94550818D01*
X120260528Y-94448608D01*
X120207443Y-94372794D01*
X120207441Y-94372791D01*
X120204284Y-94368283D01*
X120046717Y-94210716D01*
X120026604Y-94196632D01*
X119923119Y-94124171D01*
X119864183Y-94082903D01*
X119859201Y-94080580D01*
X119859196Y-94080577D01*
X119759728Y-94034195D01*
X119706443Y-93987278D01*
X119686982Y-93919001D01*
X119707524Y-93851041D01*
X119759728Y-93805805D01*
X119859196Y-93759423D01*
X119859201Y-93759420D01*
X119864183Y-93757097D01*
X120046717Y-93629284D01*
X120204284Y-93471717D01*
X120332097Y-93289182D01*
X120334420Y-93284200D01*
X120334423Y-93284195D01*
X120423947Y-93092209D01*
X120423948Y-93092208D01*
X120426270Y-93087227D01*
X120428207Y-93080000D01*
X120482520Y-92877299D01*
X120483944Y-92871986D01*
X120503365Y-92650000D01*
X120483944Y-92428014D01*
X120429924Y-92226411D01*
X120427693Y-92218083D01*
X120427692Y-92218081D01*
X120426270Y-92212773D01*
X120365780Y-92083051D01*
X120334423Y-92015805D01*
X120334420Y-92015800D01*
X120332097Y-92010818D01*
X120234450Y-91871364D01*
X120207443Y-91832794D01*
X120207441Y-91832791D01*
X120204284Y-91828283D01*
X120046717Y-91670716D01*
X120026604Y-91656632D01*
X119923119Y-91584171D01*
X119864183Y-91542903D01*
X119859201Y-91540580D01*
X119859196Y-91540577D01*
X119759728Y-91494195D01*
X119706443Y-91447278D01*
X119686982Y-91379001D01*
X119707524Y-91311041D01*
X119759728Y-91265805D01*
X119859196Y-91219423D01*
X119859201Y-91219420D01*
X119864183Y-91217097D01*
X120046717Y-91089284D01*
X120204284Y-90931717D01*
X120332097Y-90749182D01*
X120334420Y-90744200D01*
X120334423Y-90744195D01*
X120423947Y-90552209D01*
X120423948Y-90552208D01*
X120426270Y-90547227D01*
X120428207Y-90540000D01*
X120482520Y-90337299D01*
X120483944Y-90331986D01*
X120503365Y-90110000D01*
X120486250Y-89914370D01*
X120500239Y-89844766D01*
X120522676Y-89814294D01*
X121480520Y-88856450D01*
X121486785Y-88850596D01*
X121511605Y-88828944D01*
X121530385Y-88812561D01*
X121567129Y-88760280D01*
X121571061Y-88754986D01*
X121605791Y-88710693D01*
X121610476Y-88704718D01*
X121613599Y-88697802D01*
X121614983Y-88695516D01*
X121623357Y-88680835D01*
X121624622Y-88678475D01*
X121628990Y-88672261D01*
X121652203Y-88612723D01*
X121654759Y-88606642D01*
X121677918Y-88555352D01*
X121681045Y-88548427D01*
X121682430Y-88540954D01*
X121683234Y-88538388D01*
X121687855Y-88522165D01*
X121688520Y-88519573D01*
X121691282Y-88512491D01*
X121693365Y-88496672D01*
X121699622Y-88449139D01*
X121700654Y-88442623D01*
X121710911Y-88387281D01*
X121712295Y-88379814D01*
X121708709Y-88317620D01*
X121708500Y-88310367D01*
X121708500Y-73430399D01*
X121708792Y-73421830D01*
X121712210Y-73371697D01*
X121712210Y-73371693D01*
X121712726Y-73364120D01*
X121701736Y-73301153D01*
X121700775Y-73294637D01*
X121694014Y-73238770D01*
X121693102Y-73231230D01*
X121690419Y-73224129D01*
X121689778Y-73221520D01*
X121685313Y-73205200D01*
X121684548Y-73202667D01*
X121683243Y-73195189D01*
X121657552Y-73136662D01*
X121655067Y-73130574D01*
X121635172Y-73077921D01*
X121635171Y-73077919D01*
X121632487Y-73070816D01*
X121628186Y-73064557D01*
X121626949Y-73062192D01*
X121618727Y-73047420D01*
X121617372Y-73045128D01*
X121614316Y-73038167D01*
X121609691Y-73032140D01*
X121609689Y-73032136D01*
X121575407Y-72987459D01*
X121571529Y-72982122D01*
X121539659Y-72935750D01*
X121539658Y-72935749D01*
X121535357Y-72929491D01*
X121488838Y-72888044D01*
X121483563Y-72883064D01*
X120383360Y-71782862D01*
X120349335Y-71720550D01*
X120354399Y-71649735D01*
X120396946Y-71592899D01*
X120463466Y-71568088D01*
X120497575Y-71570296D01*
X120548249Y-71580606D01*
X120562299Y-71579410D01*
X120566000Y-71569065D01*
X120566000Y-71568517D01*
X121074000Y-71568517D01*
X121078064Y-71582359D01*
X121091478Y-71584393D01*
X121098184Y-71583534D01*
X121108262Y-71581392D01*
X121312255Y-71520191D01*
X121321842Y-71516433D01*
X121513095Y-71422739D01*
X121521945Y-71417464D01*
X121695328Y-71293792D01*
X121703200Y-71287139D01*
X121854052Y-71136812D01*
X121860730Y-71128965D01*
X121985003Y-70956020D01*
X121990313Y-70947183D01*
X122084670Y-70756267D01*
X122088469Y-70746672D01*
X122150377Y-70542910D01*
X122152555Y-70532837D01*
X122153986Y-70521962D01*
X122151775Y-70507778D01*
X122138617Y-70504000D01*
X121092115Y-70504000D01*
X121076876Y-70508475D01*
X121075671Y-70509865D01*
X121074000Y-70517548D01*
X121074000Y-71568517D01*
X120566000Y-71568517D01*
X120566000Y-69977885D01*
X121074000Y-69977885D01*
X121078475Y-69993124D01*
X121079865Y-69994329D01*
X121087548Y-69996000D01*
X122138344Y-69996000D01*
X122151875Y-69992027D01*
X122153180Y-69982947D01*
X122111214Y-69815875D01*
X122107894Y-69806124D01*
X122022972Y-69610814D01*
X122018105Y-69601739D01*
X121902426Y-69422926D01*
X121896136Y-69414757D01*
X121752806Y-69257240D01*
X121745273Y-69250215D01*
X121578139Y-69118222D01*
X121569552Y-69112517D01*
X121383117Y-69009599D01*
X121373705Y-69005369D01*
X121172959Y-68934280D01*
X121162988Y-68931646D01*
X121091837Y-68918972D01*
X121078540Y-68920432D01*
X121074000Y-68934989D01*
X121074000Y-69977885D01*
X120566000Y-69977885D01*
X120566000Y-68933102D01*
X120562082Y-68919758D01*
X120547806Y-68917771D01*
X120509324Y-68923660D01*
X120499288Y-68926051D01*
X120296868Y-68992212D01*
X120287359Y-68996209D01*
X120098463Y-69094542D01*
X120089737Y-69100037D01*
X120068674Y-69115852D01*
X120002190Y-69140759D01*
X119932794Y-69125768D01*
X119903925Y-69104188D01*
X119319217Y-68519480D01*
X119313363Y-68513215D01*
X119308128Y-68507214D01*
X119275328Y-68469615D01*
X119223047Y-68432871D01*
X119217753Y-68428939D01*
X119173460Y-68394209D01*
X119167485Y-68389524D01*
X119160569Y-68386401D01*
X119158283Y-68385017D01*
X119143602Y-68376643D01*
X119141242Y-68375378D01*
X119135028Y-68371010D01*
X119127949Y-68368250D01*
X119127947Y-68368249D01*
X119075492Y-68347798D01*
X119069423Y-68345247D01*
X119011194Y-68318955D01*
X119003727Y-68317571D01*
X119001172Y-68316770D01*
X118984919Y-68312141D01*
X118982339Y-68311478D01*
X118975258Y-68308718D01*
X118967727Y-68307727D01*
X118967725Y-68307726D01*
X118938106Y-68303827D01*
X118911906Y-68300378D01*
X118905408Y-68299348D01*
X118842581Y-68287704D01*
X118835001Y-68288141D01*
X118835000Y-68288141D01*
X118780375Y-68291291D01*
X118773121Y-68291500D01*
X117018912Y-68291500D01*
X117010342Y-68291208D01*
X116960224Y-68287791D01*
X116960220Y-68287791D01*
X116952648Y-68287275D01*
X116945171Y-68288580D01*
X116945170Y-68288580D01*
X116918692Y-68293201D01*
X116889697Y-68298262D01*
X116883179Y-68299223D01*
X116819758Y-68306898D01*
X116812657Y-68309581D01*
X116810048Y-68310222D01*
X116793738Y-68314685D01*
X116791202Y-68315450D01*
X116783716Y-68316757D01*
X116771586Y-68322082D01*
X116725205Y-68342442D01*
X116719101Y-68344933D01*
X116659344Y-68367513D01*
X116653081Y-68371817D01*
X116650715Y-68373054D01*
X116635903Y-68381299D01*
X116633649Y-68382632D01*
X116626695Y-68385685D01*
X116575998Y-68424587D01*
X116570668Y-68428459D01*
X116524280Y-68460339D01*
X116524275Y-68460344D01*
X116518019Y-68464643D01*
X116512968Y-68470313D01*
X116512966Y-68470314D01*
X116476565Y-68511170D01*
X116471584Y-68516446D01*
X116107316Y-68880714D01*
X116045004Y-68914740D01*
X115996125Y-68915666D01*
X115873373Y-68893800D01*
X115873367Y-68893799D01*
X115868284Y-68892894D01*
X115794452Y-68891992D01*
X115650081Y-68890228D01*
X115650079Y-68890228D01*
X115644911Y-68890165D01*
X115424091Y-68923955D01*
X115211756Y-68993357D01*
X115013607Y-69096507D01*
X115009474Y-69099610D01*
X115009471Y-69099612D01*
X114840102Y-69226778D01*
X114834965Y-69230635D01*
X114761591Y-69307417D01*
X114754283Y-69315064D01*
X114692759Y-69350494D01*
X114621846Y-69347037D01*
X114564060Y-69305791D01*
X114545207Y-69272243D01*
X114503767Y-69161703D01*
X114500615Y-69153295D01*
X114413261Y-69036739D01*
X114296705Y-68949385D01*
X114160316Y-68898255D01*
X114098134Y-68891500D01*
X112301866Y-68891500D01*
X112239684Y-68898255D01*
X112103295Y-68949385D01*
X111986739Y-69036739D01*
X111899385Y-69153295D01*
X111848255Y-69289684D01*
X111841500Y-69351866D01*
X111841500Y-71148134D01*
X109153185Y-71148134D01*
X109347089Y-70996094D01*
X109364692Y-70977930D01*
X109534686Y-70802509D01*
X109537669Y-70799431D01*
X109540202Y-70795983D01*
X109540206Y-70795978D01*
X109697257Y-70582178D01*
X109699795Y-70578723D01*
X109701841Y-70574955D01*
X109828418Y-70341830D01*
X109828419Y-70341828D01*
X109830468Y-70338054D01*
X109927269Y-70081877D01*
X109968173Y-69903279D01*
X109987449Y-69819117D01*
X109987450Y-69819113D01*
X109988407Y-69814933D01*
X109989194Y-69806124D01*
X110012531Y-69544627D01*
X110012531Y-69544625D01*
X110012751Y-69542161D01*
X110013193Y-69500000D01*
X110007857Y-69421722D01*
X109994859Y-69231055D01*
X109994858Y-69231049D01*
X109994567Y-69226778D01*
X109983039Y-69171109D01*
X109951405Y-69018357D01*
X109939032Y-68958612D01*
X109847617Y-68700465D01*
X109722013Y-68457112D01*
X109712040Y-68442921D01*
X109627113Y-68322082D01*
X109564545Y-68233057D01*
X109378125Y-68032445D01*
X109374810Y-68029731D01*
X109374806Y-68029728D01*
X109169523Y-67861706D01*
X109166205Y-67858990D01*
X109093411Y-67814382D01*
X108975185Y-67741933D01*
X108927554Y-67689285D01*
X108915947Y-67619244D01*
X108944050Y-67554046D01*
X109002940Y-67514392D01*
X109041020Y-67508500D01*
X162960530Y-67508500D01*
X163028651Y-67528502D01*
G37*
%TD.AperFunction*%
%TD*%
M02*
