%TF.GenerationSoftware,KiCad,Pcbnew,(6.0.9)*%
%TF.CreationDate,2023-05-11T13:54:47+10:00*%
%TF.ProjectId,Rescue Line,52657363-7565-4204-9c69-6e652e6b6963,rev?*%
%TF.SameCoordinates,Original*%
%TF.FileFunction,Soldermask,Top*%
%TF.FilePolarity,Negative*%
%FSLAX46Y46*%
G04 Gerber Fmt 4.6, Leading zero omitted, Abs format (unit mm)*
G04 Created by KiCad (PCBNEW (6.0.9)) date 2023-05-11 13:54:47*
%MOMM*%
%LPD*%
G01*
G04 APERTURE LIST*
G04 Aperture macros list*
%AMRoundRect*
0 Rectangle with rounded corners*
0 $1 Rounding radius*
0 $2 $3 $4 $5 $6 $7 $8 $9 X,Y pos of 4 corners*
0 Add a 4 corners polygon primitive as box body*
4,1,4,$2,$3,$4,$5,$6,$7,$8,$9,$2,$3,0*
0 Add four circle primitives for the rounded corners*
1,1,$1+$1,$2,$3*
1,1,$1+$1,$4,$5*
1,1,$1+$1,$6,$7*
1,1,$1+$1,$8,$9*
0 Add four rect primitives between the rounded corners*
20,1,$1+$1,$2,$3,$4,$5,0*
20,1,$1+$1,$4,$5,$6,$7,0*
20,1,$1+$1,$6,$7,$8,$9,0*
20,1,$1+$1,$8,$9,$2,$3,0*%
G04 Aperture macros list end*
%ADD10RoundRect,0.250000X0.250000X0.475000X-0.250000X0.475000X-0.250000X-0.475000X0.250000X-0.475000X0*%
%ADD11R,1.700000X1.700000*%
%ADD12O,1.700000X1.700000*%
%ADD13R,1.530000X1.530000*%
%ADD14C,1.530000*%
%ADD15C,1.700000*%
%ADD16C,6.000000*%
%ADD17R,6.000000X6.000000*%
%ADD18RoundRect,0.218750X0.218750X0.256250X-0.218750X0.256250X-0.218750X-0.256250X0.218750X-0.256250X0*%
%ADD19RoundRect,0.250000X0.262500X0.450000X-0.262500X0.450000X-0.262500X-0.450000X0.262500X-0.450000X0*%
%ADD20RoundRect,0.250000X-0.250000X-0.475000X0.250000X-0.475000X0.250000X0.475000X-0.250000X0.475000X0*%
%ADD21R,1.100000X4.600000*%
%ADD22R,10.800000X9.400000*%
G04 APERTURE END LIST*
D10*
%TO.C,C2*%
X110950000Y-90750000D03*
X109050000Y-90750000D03*
%TD*%
D11*
%TO.C,J3*%
X148025000Y-70275000D03*
D12*
X145485000Y-70275000D03*
X142945000Y-70275000D03*
%TD*%
D11*
%TO.C,J6*%
X163500000Y-80380000D03*
D12*
X163500000Y-82920000D03*
X163500000Y-85460000D03*
X163500000Y-88000000D03*
X163500000Y-90540000D03*
X163500000Y-93080000D03*
%TD*%
D13*
%TO.C,U2*%
X119225000Y-74870000D03*
D14*
X119225000Y-77410000D03*
X119225000Y-79950000D03*
X119225000Y-82490000D03*
X119225000Y-85030000D03*
X119225000Y-87570000D03*
X119225000Y-90110000D03*
X119225000Y-92650000D03*
X119225000Y-95190000D03*
X119225000Y-97730000D03*
X119225000Y-100270000D03*
X119225000Y-102810000D03*
X119225000Y-105350000D03*
X119225000Y-107890000D03*
X119225000Y-110430000D03*
X119225000Y-112970000D03*
X119225000Y-115510000D03*
X119225000Y-118050000D03*
X119225000Y-120590000D03*
X144625000Y-120590000D03*
X144625000Y-118050000D03*
X144625000Y-115510000D03*
X144625000Y-112970000D03*
X144625000Y-110430000D03*
X144625000Y-107890000D03*
X144625000Y-105350000D03*
X144625000Y-102810000D03*
X144625000Y-100270000D03*
X144625000Y-97730000D03*
X144625000Y-95190000D03*
X144625000Y-92650000D03*
X144625000Y-90110000D03*
X144625000Y-87570000D03*
X144625000Y-85030000D03*
X144625000Y-82490000D03*
X144625000Y-79950000D03*
X144625000Y-77410000D03*
X144625000Y-74870000D03*
%TD*%
D11*
%TO.C,J8*%
X163500000Y-74230000D03*
D12*
X163500000Y-76770000D03*
%TD*%
%TO.C,U3*%
X148585000Y-102805000D03*
X148585000Y-105345000D03*
X148585000Y-107885000D03*
X148585000Y-110425000D03*
X148585000Y-112965000D03*
D15*
X148585000Y-115505000D03*
D12*
X164225000Y-102815000D03*
X164225000Y-105355000D03*
X164225000Y-107895000D03*
X164225000Y-110435000D03*
X164225000Y-112975000D03*
D11*
X164225000Y-115515000D03*
%TD*%
D16*
%TO.C,J5*%
X110750000Y-113850000D03*
D17*
X110750000Y-106650000D03*
%TD*%
D11*
%TO.C,J2*%
X152000000Y-70250000D03*
D12*
X154540000Y-70250000D03*
X157080000Y-70250000D03*
%TD*%
D11*
%TO.C,J1*%
X110905000Y-96218500D03*
D12*
X113445000Y-96218500D03*
%TD*%
D18*
%TO.C,D2*%
X114287500Y-93000000D03*
X112712500Y-93000000D03*
%TD*%
D19*
%TO.C,R2*%
X110912500Y-93000000D03*
X109087500Y-93000000D03*
%TD*%
D11*
%TO.C,J9*%
X113525000Y-100000000D03*
D12*
X110985000Y-100000000D03*
%TD*%
D11*
%TO.C,J4*%
X113200000Y-70250000D03*
D12*
X115740000Y-70250000D03*
X118280000Y-70250000D03*
X120820000Y-70250000D03*
%TD*%
D20*
%TO.C,C1*%
X112550000Y-90750000D03*
X114450000Y-90750000D03*
%TD*%
D21*
%TO.C,U1*%
X108960000Y-87025000D03*
X111500000Y-87025000D03*
D22*
X111500000Y-77875000D03*
D21*
X114040000Y-87025000D03*
%TD*%
D11*
%TO.C,J7*%
X163500000Y-96705000D03*
D12*
X163500000Y-99245000D03*
%TD*%
M02*
