0
SECTION
2
HEADER
9
$INSUNITS
70
4
9
$ACADVER
1
AC1014
9
$HANDSEED
5
FFFF
0
ENDSEC
0
SECTION
2
TABLES
0
TABLE
2
VPORT
5
8
100
AcDbSymbolTable
0
ENDTAB
0
TABLE
2
LTYPE
5
5
100
AcDbSymbolTable
0
LTYPE
5
14
100
AcDbSymbolTableRecord
100
AcDbLinetypeTableRecord
2
BYBLOCK
70
0
0
LTYPE
5
15
100
AcDbSymbolTableRecord
100
AcDbLinetypeTableRecord
2
BYLAYER
70
0
0
ENDTAB
0
TABLE
2
LAYER
5
2
100
AcDbSymbolTable
70
2
0
LAYER
5
50
100
AcDbSymbolTableRecord
100
AcDbLayerTableRecord
2
0
70
0
6
CONTINUOUS
0
ENDTAB
0
TABLE
2
STYLE
5
3
100
AcDbSymbolTable
70
1
0
STYLE
5
11
100
AcDbSymbolTableRecord
100
AcDbTextStyleTableRecord
2
STANDARD
70
0
0
ENDTAB
0
TABLE
2
VIEW
5
6
100
AcDbSymbolTable
70
0
0
ENDTAB
0
TABLE
2
UCS
5
7
100
AcDbSymbolTable
70
0
0
ENDTAB
0
TABLE
2
APPID
5
9
100
AcDbSymbolTable
70
2
0
APPID
5
12
100
AcDbSymbolTableRecord
100
AcDbRegAppTableRecord
2
ACAD
70
0
0
ENDTAB
0
TABLE
2
DIMSTYLE
5
A
100
AcDbSymbolTable
70
1
0
ENDTAB
0
TABLE
2
BLOCK_RECORD
5
1
100
AcDbSymbolTable
70
1
0
BLOCK_RECORD
5
1F
100
AcDbSymbolTableRecord
100
AcDbBlockTableRecord
2
*MODEL_SPACE
0
BLOCK_RECORD
5
1B
100
AcDbSymbolTableRecord
100
AcDbBlockTableRecord
2
*PAPER_SPACE
0
ENDTAB
0
ENDSEC
0
SECTION
2
BLOCKS
0
BLOCK
5
20
100
AcDbEntity
100
AcDbBlockBegin
2
*MODEL_SPACE
0
ENDBLK
5
21
100
AcDbEntity
100
AcDbBlockEnd
0
BLOCK
5
1C
100
AcDbEntity
100
AcDbBlockBegin
2
*PAPER_SPACE
0
ENDBLK
5
1D
100
AcDbEntity
100
AcDbBlockEnd
0
ENDSEC
0
SECTION
2
ENTITIES
0
LINE
5
100
100
AcDbEntity
8
0
100
AcDbLine
10
0
20
0
30
0
11
39.921012530571723
21
0
31
0
0
LINE
5
101
100
AcDbEntity
8
0
100
AcDbLine
10
0
20
-20
30
0
11
0
21
-2.5
31
0
0
CIRCLE
5
102
100
AcDbEntity
8
0
100
AcDbCircle
10
19.5
20
-9.8566254990770723
30
0
40
11.500000000000002
210
0
220
0
230
1
0
LINE
5
103
100
AcDbEntity
8
0
100
AcDbLine
10
45.581986033221362
20
11.456012169726677
30
0
11
45.581986033221362
21
7.2133714826073874
31
0
0
LINE
5
104
100
AcDbEntity
8
0
100
AcDbLine
10
43.460665689661724
20
9.334691826167024
30
0
11
47.703306376781008
21
9.3346918261670311
31
0
0
LWPOLYLINE
5
105
100
AcDbEntity
8
0
100
AcDbPolyline
90
4
70
1
43
0.0
10
45.581986033221362
20
11.456012169726677
10
52.087368420137594
20
17.961394556642919
10
45.581986033221341
20
24.466776943559143
10
39.076603646305117
20
17.961394556642901
0
LWPOLYLINE
5
106
100
AcDbEntity
8
0
100
AcDbPolyline
90
4
70
1
43
0.0
10
47.703306376781008
20
9.3346918261670311
10
54.208688763697239
20
15.840074213083277
10
60.714071150613478
20
9.3346918261670471
10
54.208688763697253
20
2.8293094392508014
0
LWPOLYLINE
5
107
100
AcDbEntity
8
0
100
AcDbPolyline
90
4
70
1
43
0.0
10
45.581986033221362
20
7.2133714826073874
10
39.076603646305124
20
0.70798909569115054
10
45.581986033221362
20
-5.7973932912250881
10
52.087368420137594
20
0.70798909569114676
0
LWPOLYLINE
5
108
100
AcDbEntity
8
0
100
AcDbPolyline
90
4
70
1
43
0.0
10
43.460665689661724
20
9.334691826167024
10
36.955283302745464
20
15.840074213083234
10
30.44990091582925
20
9.3346918261669742
10
36.955283302745492
20
2.8293094392507379
0
LWPOLYLINE
5
109
100
AcDbEntity
8
0
100
AcDbPolyline
90
4
70
1
43
0.0
10
-54.208688763697253
20
2.8293094392508022
10
-47.703306376781008
20
9.3346918261670311
10
-54.208688763697239
20
15.840074213083275
10
-60.714071150613478
20
9.3346918261670453
0
LWPOLYLINE
5
110
100
AcDbEntity
8
0
100
AcDbPolyline
90
4
70
1
43
0.0
10
-45.581986033221362
20
7.2133714826073891
10
-39.076603646305124
20
0.70798909569115054
10
-45.581986033221362
20
-5.7973932912250881
10
-52.087368420137594
20
0.7079890956911461
0
LINE
5
111
100
AcDbEntity
8
0
100
AcDbLine
10
-43.460665689661724
20
9.334691826167024
30
0
11
-47.703306376781008
21
9.3346918261670311
31
0
0
LINE
5
112
100
AcDbEntity
8
0
100
AcDbLine
10
-45.581986033221362
20
11.456012169726675
30
0
11
-45.581986033221362
21
7.2133714826073891
31
0
0
LWPOLYLINE
5
113
100
AcDbEntity
8
0
100
AcDbPolyline
90
4
70
1
43
0.0
10
-43.460665689661724
20
9.334691826167024
10
-36.955283302745464
20
15.840074213083234
10
-30.44990091582925
20
9.3346918261669742
10
-36.955283302745492
20
2.8293094392507356
0
LWPOLYLINE
5
114
100
AcDbEntity
8
0
100
AcDbPolyline
90
4
70
1
43
0.0
10
-45.581986033221341
20
24.466776943559143
10
-39.076603646305117
20
17.961394556642901
10
-45.581986033221362
20
11.456012169726675
10
-52.087368420137594
20
17.961394556642919
0
CIRCLE
5
115
100
AcDbEntity
8
0
100
AcDbCircle
10
-19.5
20
-9.8566254990770723
30
0
40
11.500000000000002
210
0
220
0
230
1
0
LINE
5
116
100
AcDbEntity
8
0
100
AcDbLine
10
-23.94451852891299
20
7.3293094392507392
30
23.000000000000004
11
23.944518528913061
21
7.3293094392507392
31
23.000000000000004
0
LINE
5
117
100
AcDbEntity
8
0
100
AcDbLine
10
23.944518528913061
20
7.3293094392507392
30
23.000000000000004
11
23.944518528913061
21
20.340074213083234
31
23.000000000000004
0
LINE
5
118
100
AcDbEntity
8
0
100
AcDbLine
10
23.944518528913061
20
20.340074213083234
30
23.000000000000004
11
-23.94451852891299
21
20.340074213083234
31
23.000000000000004
0
LINE
5
119
100
AcDbEntity
8
0
100
AcDbLine
10
-23.94451852891299
20
20.340074213083234
30
23.000000000000004
11
-23.94451852891299
21
7.3293094392507392
31
23.000000000000004
0
LINE
5
120
100
AcDbEntity
8
0
100
AcDbLine
10
-19.5
20
-9.8566254990770723
30
0
11
-8.9161233080200386
21
-14.354575495349071
31
0
0
LINE
5
121
100
AcDbEntity
8
0
100
AcDbLine
10
-19.5
20
-9.8566254990770723
30
0
11
-30.083876691979967
21
-5.3586755028050712
31
0
0
LINE
5
122
100
AcDbEntity
8
0
100
AcDbLine
10
-19.5
20
-9.8566254990770723
30
0
11
-23.997949996272006
21
-20.440502191057032
31
0
0
LINE
5
123
100
AcDbEntity
8
0
100
AcDbLine
10
-19.5
20
-9.8566254990770723
30
0
11
-15.002050003728
21
0.72725119290289131
31
0
0
LINE
5
124
100
AcDbEntity
8
0
100
AcDbLine
10
19.5
20
-9.8566254990770723
30
0
11
9.6433745009229312
21
-15.780892016625355
31
0
0
LINE
5
125
100
AcDbEntity
8
0
100
AcDbLine
10
19.5
20
-9.8566254990770723
30
0
11
29.356625499077076
21
-3.9323589815287887
31
0
0
LINE
5
126
100
AcDbEntity
8
0
100
AcDbLine
10
19.5
20
-9.8566254990770723
30
0
11
25.424266517548286
21
-19.713250998154148
31
0
0
LINE
5
127
100
AcDbEntity
8
0
100
AcDbLine
10
19.5
20
-9.8566254990770723
30
0
11
13.575733482451717
21
0
31
0
0
LINE
5
128
100
AcDbEntity
8
0
100
AcDbLine
10
-19.5
20
-9.8566254990770723
30
0
11
19.5
21
-9.8566254990770723
31
0
0
LWPOLYLINE
5
129
100
AcDbEntity
8
0
100
AcDbPolyline
90
4
70
1
43
0.0
10
70
20
35
10
-70
20
35
10
-70
20
-35
10
70
20
-35
0
LINE
5
130
100
AcDbEntity
8
0
100
AcDbLine
10
70
20
35
30
0
11
-70
21
-35
31
0
0
LINE
5
131
100
AcDbEntity
8
0
100
AcDbLine
10
-70
20
35
30
0
11
70
21
-35
31
0
0
SPLINE
5
132
100
AcDbEntity
8
0
100
AcDbSpline
70
0
71
2
72
6
73
3
74
0
42
0.000000001
43
0.0000000001
44
0.0000000001
40
0
40
0
40
0
40
1
40
1
40
1
10
-17.900533154641121
20
13.603922637041057
30
23.000000000000004
10
-17.82891519371125
20
13.572092564638103
30
23.000000000000004
10
-17.757297232781379
20
13.540262492235149
30
23.000000000000004
0
SPLINE
5
133
100
AcDbEntity
8
0
100
AcDbSpline
70
0
71
2
72
6
73
3
74
0
42
0.000000001
43
0.0000000001
44
0.0000000001
40
0
40
0
40
0
40
1
40
1
40
1
10
-17.757297232781379
20
13.540262492235149
30
23.000000000000004
10
-16.993371322785347
20
13.166257055337871
30
23.000000000000004
10
-16.985414102707832
20
11.208697469766582
30
23.000000000000004
0
LINE
5
134
100
AcDbEntity
8
0
100
AcDbLine
10
-16.985414102707832
20
11.208697469766582
30
23.000000000000004
11
-16.985414102707832
21
11.017715843255962
31
23.000000000000004
0
SPLINE
5
135
100
AcDbEntity
8
0
100
AcDbSpline
70
0
71
2
72
6
73
3
74
0
42
0.000000001
43
0.0000000001
44
0.0000000001
40
0
40
0
40
0
40
1
40
1
40
1
10
-16.985414102707832
20
11.017715843255962
30
23.000000000000004
10
-16.993371322785347
20
10.834692032869304
30
23.000000000000004
10
-17.16843791309449
20
10.834692032869304
30
23.000000000000004
0
LINE
5
136
100
AcDbEntity
8
0
100
AcDbLine
10
-17.16843791309449
20
10.834692032869304
30
23.000000000000004
11
-18.274538591538398
21
10.834692032869304
31
23.000000000000004
0
SPLINE
5
137
100
AcDbEntity
8
0
100
AcDbSpline
70
0
71
2
72
6
73
3
74
0
42
0.000000001
43
0.0000000001
44
0.0000000001
40
0
40
0
40
0
40
1
40
1
40
1
10
-18.274538591538398
20
10.834692032869304
30
23.000000000000004
10
-18.457562401925056
20
10.842649848993267
30
23.000000000000004
10
-18.457562401925056
20
11.017715843255962
30
23.000000000000004
0
LINE
5
138
100
AcDbEntity
8
0
100
AcDbLine
10
-18.457562401925056
20
11.017715843255962
30
23.000000000000004
11
-18.457562401925056
21
11.208697469766582
31
23.000000000000004
0
SPLINE
5
139
100
AcDbEntity
8
0
100
AcDbSpline
70
0
71
2
72
6
73
3
74
0
42
0.000000001
43
0.0000000001
44
0.0000000001
40
0
40
0
40
0
40
1
40
1
40
1
10
-18.457562401925056
20
11.208697469766582
30
23.000000000000004
10
-18.457562401925056
20
12.481906922395671
30
23.000000000000004
10
-18.847482875023811
20
12.748485119874919
30
23.000000000000004
0
SPLINE
5
140
100
AcDbEntity
8
0
100
AcDbSpline
70
0
71
2
72
6
73
3
74
0
42
0.000000001
43
0.0000000001
44
0.0000000001
40
0
40
0
40
0
40
1
40
1
40
1
10
-18.847482875023811
20
12.748485119874919
30
23.000000000000004
10
-19.237403348122566
20
13.015063317354167
30
23.000000000000004
10
-19.961541369591682
20
13.015063317354167
30
23.000000000000004
0
LINE
5
141
100
AcDbEntity
8
0
100
AcDbLine
10
-19.961541369591682
20
13.015063317354167
30
23.000000000000004
11
-20.876660421524971
21
13.015063317354167
31
23.000000000000004
0
LINE
5
142
100
AcDbEntity
8
0
100
AcDbLine
10
-20.876660421524971
20
13.015063317354167
30
23.000000000000004
11
-20.876660421524971
21
11.017715843255962
31
23.000000000000004
0
SPLINE
5
143
100
AcDbEntity
8
0
100
AcDbSpline
70
0
71
2
72
6
73
3
74
0
42
0.000000001
43
0.0000000001
44
0.0000000001
40
0
40
0
40
0
40
1
40
1
40
1
10
-20.876660421524971
20
11.017715843255962
30
23.000000000000004
10
-20.876660421524971
20
10.834692032869304
30
23.000000000000004
10
-21.051727011834114
20
10.834692032869304
30
23.000000000000004
0
LINE
5
144
100
AcDbEntity
8
0
100
AcDbLine
10
-21.051727011834114
20
10.834692032869304
30
23.000000000000004
11
-22.165785357390373
21
10.834692032869304
31
23.000000000000004
0
SPLINE
5
145
100
AcDbEntity
8
0
100
AcDbSpline
70
0
71
2
72
6
73
3
74
0
42
0.000000001
43
0.0000000001
44
0.0000000001
40
0
40
0
40
0
40
1
40
1
40
1
10
-22.165785357390373
20
10.834692032869304
30
23.000000000000004
10
-22.348809167777031
20
10.834692032869304
30
23.000000000000004
10
-22.340851649676292
20
11.017715843255962
30
23.000000000000004
0
LINE
5
146
100
AcDbEntity
8
0
100
AcDbLine
10
-22.340851649676292
20
11.017715843255962
30
23.000000000000004
11
-22.340851649676292
21
16.651668460901227
31
23.000000000000004
0
SPLINE
5
147
100
AcDbEntity
8
0
100
AcDbSpline
70
0
71
2
72
6
73
3
74
0
42
0.000000001
43
0.0000000001
44
0.0000000001
40
0
40
0
40
0
40
1
40
1
40
1
10
-22.340851649676292
20
16.651668460901227
30
23.000000000000004
10
-22.340851649676292
20
16.834692271287885
30
23.000000000000004
10
-22.165785357390373
20
16.834692271287885
30
23.000000000000004
0
LINE
5
148
100
AcDbEntity
8
0
100
AcDbLine
10
-22.165785357390373
20
16.834692271287885
30
23.000000000000004
11
-19.062336757813423
21
16.834692271287885
31
23.000000000000004
0
SPLINE
5
149
100
AcDbEntity
8
0
100
AcDbSpline
70
0
71
2
72
6
73
3
74
0
42
0.000000001
43
0.0000000001
44
0.0000000001
40
0
40
0
40
0
40
1
40
1
40
1
10
-19.062336757813423
20
16.834692271287885
30
23.000000000000004
10
-18.075599744950264
20
16.834692271287885
30
23.000000000000004
10
-17.518570497666328
20
16.353260191019025
30
23.000000000000004
0
SPLINE
5
150
100
AcDbEntity
8
0
100
AcDbSpline
70
0
71
2
72
6
73
3
74
0
42
0.000000001
43
0.0000000001
44
0.0000000001
40
0
40
0
40
0
40
1
40
1
40
1
10
-17.518570497666328
20
16.353260191019025
30
23.000000000000004
10
-16.961541250382393
20
15.871827514703716
30
23.000000000000004
10
-16.961541250382393
20
15.036283643777812
30
23.000000000000004
0
SPLINE
5
151
100
AcDbEntity
8
0
100
AcDbSpline
70
0
71
2
72
6
73
3
74
0
42
0.000000001
43
0.0000000001
44
0.0000000001
40
0
40
0
40
0
40
1
40
1
40
1
10
-16.961541250382393
20
15.036283643777812
30
23.000000000000004
10
-16.961541250382393
20
13.954055817659343
30
23.000000000000004
10
-17.900533154641121
20
13.603922637041057
30
23.000000000000004
0
LINE
5
152
100
AcDbEntity
8
0
100
AcDbLine
10
-20.876660421524971
20
15.529652150209392
30
23.000000000000004
11
-20.876660421524971
21
14.320103438432659
31
23.000000000000004
0
LINE
5
153
100
AcDbEntity
8
0
100
AcDbLine
10
-20.876660421524971
20
14.320103438432659
30
23.000000000000004
11
-19.062336757813423
21
14.320103438432659
31
23.000000000000004
0
SPLINE
5
154
100
AcDbEntity
8
0
100
AcDbSpline
70
0
71
2
72
6
73
3
74
0
42
0.000000001
43
0.0000000001
44
0.0000000001
40
0
40
0
40
0
40
1
40
1
40
1
10
-19.062336757813423
20
14.320103438432659
30
23.000000000000004
10
-18.433690145646064
20
14.320103438432659
30
23.000000000000004
10
-18.433690145646064
20
14.940792830522502
30
23.000000000000004
0
SPLINE
5
155
100
AcDbEntity
8
0
100
AcDbSpline
70
0
71
2
72
6
73
3
74
0
42
0.000000001
43
0.0000000001
44
0.0000000001
40
0
40
0
40
0
40
1
40
1
40
1
10
-18.433690145646064
20
14.940792830522502
30
23.000000000000004
10
-18.433690145646064
20
15.529652150209392
30
23.000000000000004
10
-19.062336757813423
20
15.529652150209392
30
23.000000000000004
0
LINE
5
156
100
AcDbEntity
8
0
100
AcDbLine
10
-19.062336757813423
20
15.529652150209392
30
23.000000000000004
11
-20.876660421524971
21
15.529652150209392
31
23.000000000000004
0
SPLINE
5
157
100
AcDbEntity
8
0
100
AcDbSpline
70
0
71
2
72
6
73
3
74
0
42
0.000000001
43
0.0000000001
44
0.0000000001
40
0
40
0
40
0
40
1
40
1
40
1
10
-13.01857002082917
20
15.641057999666179
30
23.000000000000004
10
-13.706898763810127
20
15.641057999666179
30
23.000000000000004
10
-14.068968370591133
20
15.183498175676311
30
23.000000000000004
0
SPLINE
5
158
100
AcDbEntity
8
0
100
AcDbSpline
70
0
71
2
72
6
73
3
74
0
42
0.000000001
43
0.0000000001
44
0.0000000001
40
0
40
0
40
0
40
1
40
1
40
1
10
-14.068968370591133
20
15.183498175676311
30
23.000000000000004
10
-14.431036785279243
20
14.725938947732891
30
23.000000000000004
10
-14.431036785279243
20
13.846628578241313
30
23.000000000000004
0
SPLINE
5
159
100
AcDbEntity
8
0
100
AcDbSpline
70
0
71
2
72
6
73
3
74
0
42
0.000000001
43
0.0000000001
44
0.0000000001
40
0
40
0
40
0
40
1
40
1
40
1
10
-14.431036785279243
20
13.846628578241313
30
23.000000000000004
10
-14.431036785279243
20
12.967318208749736
30
23.000000000000004
10
-14.064989164505928
20
12.497821958597148
30
23.000000000000004
0
SPLINE
5
160
100
AcDbEntity
8
0
100
AcDbSpline
70
0
71
2
72
6
73
3
74
0
42
0.000000001
43
0.0000000001
44
0.0000000001
40
0
40
0
40
0
40
1
40
1
40
1
10
-14.064989164505928
20
12.497821958597148
30
23.000000000000004
10
-13.698941543732612
20
12.028326304491008
30
23.000000000000004
10
-13.01857002082917
20
12.028326304491008
30
23.000000000000004
0
SPLINE
5
161
100
AcDbEntity
8
0
100
AcDbSpline
70
0
71
2
72
6
73
3
74
0
42
0.000000001
43
0.0000000001
44
0.0000000001
40
0
40
0
40
0
40
1
40
1
40
1
10
-13.01857002082917
20
12.028326304491008
30
23.000000000000004
10
-12.338198497925728
20
12.028326304491008
30
23.000000000000004
10
-11.972150877152412
20
12.497821958597148
30
23.000000000000004
0
SPLINE
5
162
100
AcDbEntity
8
0
100
AcDbSpline
70
0
71
2
72
6
73
3
74
0
42
0.000000001
43
0.0000000001
44
0.0000000001
40
0
40
0
40
0
40
1
40
1
40
1
10
-11.972150877152412
20
12.497821958597148
30
23.000000000000004
10
-11.606103256379097
20
12.967318208749736
30
23.000000000000004
10
-11.606103256379097
20
13.846628578241313
30
23.000000000000004
0
SPLINE
5
163
100
AcDbEntity
8
0
100
AcDbSpline
70
0
71
2
72
6
73
3
74
0
42
0.000000001
43
0.0000000001
44
0.0000000001
40
0
40
0
40
0
40
1
40
1
40
1
10
-11.606103256379097
20
13.846628578241313
30
23.000000000000004
10
-11.606103256379097
20
14.725938947732891
30
23.000000000000004
10
-11.968172863160103
20
15.183498175676311
30
23.000000000000004
0
SPLINE
5
164
100
AcDbEntity
8
0
100
AcDbSpline
70
0
71
2
72
6
73
3
74
0
42
0.000000001
43
0.0000000001
44
0.0000000001
40
0
40
0
40
0
40
1
40
1
40
1
10
-11.968172863160103
20
15.183498175676311
30
23.000000000000004
10
-12.330241277848213
20
15.641057999666179
30
23.000000000000004
10
-13.01857002082917
20
15.641057999666179
30
23.000000000000004
0
SPLINE
5
165
100
AcDbEntity
8
0
100
AcDbSpline
70
0
71
2
72
6
73
3
74
0
42
0.000000001
43
0.0000000001
44
0.0000000001
40
0
40
0
40
0
40
1
40
1
40
1
10
-15.22679276767823
20
11.519042165811504
30
23.000000000000004
10
-15.974803641472786
20
12.314798148210491
30
23.000000000000004
10
-15.974803641472786
20
13.842649968202556
30
23.000000000000004
0
SPLINE
5
166
100
AcDbEntity
8
0
100
AcDbSpline
70
0
71
2
72
6
73
3
74
0
42
0.000000001
43
0.0000000001
44
0.0000000001
40
0
40
0
40
0
40
1
40
1
40
1
10
-15.974803641472786
20
13.842649968202556
30
23.000000000000004
10
-15.974803641472786
20
15.370501192148174
30
23.000000000000004
10
-15.230771973763435
20
16.158299954469648
30
23.000000000000004
0
SPLINE
5
167
100
AcDbEntity
8
0
100
AcDbSpline
70
0
71
2
72
6
73
3
74
0
42
0.000000001
43
0.0000000001
44
0.0000000001
40
0
40
0
40
0
40
1
40
1
40
1
10
-15.230771973763435
20
16.158299954469648
30
23.000000000000004
10
-14.486739710007637
20
16.946098120744672
30
23.000000000000004
10
-13.01857002082917
20
16.946098120744672
30
23.000000000000004
0
SPLINE
5
168
100
AcDbEntity
8
0
100
AcDbSpline
70
0
71
2
72
6
73
3
74
0
42
0.000000001
43
0.0000000001
44
0.0000000001
40
0
40
0
40
0
40
1
40
1
40
1
10
-13.01857002082917
20
16.946098120744672
30
23.000000000000004
10
-11.550400331650703
20
16.946098120744672
30
23.000000000000004
10
-10.806368663941353
20
16.158299954469648
30
23.000000000000004
0
SPLINE
5
169
100
AcDbEntity
8
0
100
AcDbSpline
70
0
71
2
72
6
73
3
74
0
42
0.000000001
43
0.0000000001
44
0.0000000001
40
0
40
0
40
0
40
1
40
1
40
1
10
-10.806368663941353
20
16.158299954469648
30
23.000000000000004
10
-10.062335804139106
20
15.370501192148174
30
23.000000000000004
10
-10.062335804139106
20
13.842649968202556
30
23.000000000000004
0
SPLINE
5
170
100
AcDbEntity
8
0
100
AcDbSpline
70
0
71
2
72
6
73
3
74
0
42
0.000000001
43
0.0000000001
44
0.0000000001
40
0
40
0
40
0
40
1
40
1
40
1
10
-10.062335804139106
20
13.842649968202556
30
23.000000000000004
10
-10.062335804139106
20
12.314798148210491
30
23.000000000000004
10
-10.810347870026558
20
11.519042165811504
30
23.000000000000004
0
SPLINE
5
171
100
AcDbEntity
8
0
100
AcDbSpline
70
0
71
2
72
6
73
3
74
0
42
0.000000001
43
0.0000000001
44
0.0000000001
40
0
40
0
40
0
40
1
40
1
40
1
10
-10.810347870026558
20
11.519042165811504
30
23.000000000000004
10
-11.558357551728218
20
10.723286183412517
30
23.000000000000004
10
-13.01857002082917
20
10.723286183412517
30
23.000000000000004
0
SPLINE
5
172
100
AcDbEntity
8
0
100
AcDbSpline
70
0
71
2
72
6
73
3
74
0
42
0.000000001
43
0.0000000001
44
0.0000000001
40
0
40
0
40
0
40
1
40
1
40
1
10
-13.01857002082917
20
10.723286183412517
30
23.000000000000004
10
-14.478782489930122
20
10.723286183412517
30
23.000000000000004
10
-15.22679276767823
20
11.519042165811504
30
23.000000000000004
0
SPLINE
5
173
100
AcDbEntity
8
0
100
AcDbSpline
70
0
71
2
72
6
73
3
74
0
42
0.000000001
43
0.0000000001
44
0.0000000001
40
0
40
0
40
0
40
1
40
1
40
1
10
-3.592840507660835
20
12.442119033868755
30
23.000000000000004
10
-3.592840507660835
20
11.65432086759373
30
23.000000000000004
10
-4.1498697549447705
20
11.244506152208293
30
23.000000000000004
0
SPLINE
5
174
100
AcDbEntity
8
0
100
AcDbSpline
70
0
71
2
72
6
73
3
74
0
42
0.000000001
43
0.0000000001
44
0.0000000001
40
0
40
0
40
0
40
1
40
1
40
1
10
-4.1498697549447705
20
11.244506152208293
30
23.000000000000004
10
-4.7068990022287061
20
10.834692032869304
30
23.000000000000004
10
-5.6936360150918652
20
10.834692032869304
30
23.000000000000004
0
LINE
5
175
100
AcDbEntity
8
0
100
AcDbLine
10
-5.6936360150918652
20
10.834692032869304
30
23.000000000000004
11
-8.7970841676339795
21
10.834692032869304
31
23.000000000000004
0
SPLINE
5
176
100
AcDbEntity
8
0
100
AcDbSpline
70
0
71
2
72
6
73
3
74
0
42
0.000000001
43
0.0000000001
44
0.0000000001
40
0
40
0
40
0
40
1
40
1
40
1
10
-8.7970841676339795
20
10.834692032869304
30
23.000000000000004
10
-8.980108574067085
20
10.834692032869304
30
23.000000000000004
10
-8.9721513539895703
20
11.017715843255962
30
23.000000000000004
0
LINE
5
177
100
AcDbEntity
8
0
100
AcDbLine
10
-8.9721513539895703
20
11.017715843255962
30
23.000000000000004
11
-8.9721513539895703
21
16.651668460901227
31
23.000000000000004
0
SPLINE
5
178
100
AcDbEntity
8
0
100
AcDbSpline
70
0
71
2
72
6
73
3
74
0
42
0.000000001
43
0.0000000001
44
0.0000000001
40
0
40
0
40
0
40
1
40
1
40
1
10
-8.9721513539895703
20
16.651668460901227
30
23.000000000000004
10
-8.9721513539895703
20
16.834692271287885
30
23.000000000000004
10
-8.7970841676339795
20
16.834692271287885
30
23.000000000000004
0
LINE
5
179
100
AcDbEntity
8
0
100
AcDbLine
10
-8.7970841676339795
20
16.834692271287885
30
23.000000000000004
11
-5.9323633462533643
21
16.834692271287885
31
23.000000000000004
0
SPLINE
5
180
100
AcDbEntity
8
0
100
AcDbSpline
70
0
71
2
72
6
73
3
74
0
42
0.000000001
43
0.0000000001
44
0.0000000001
40
0
40
0
40
0
40
1
40
1
40
1
10
-5.9323633462533643
20
16.834692271287885
30
23.000000000000004
10
-4.9456251412973096
20
16.834692271287885
30
23.000000000000004
10
-4.3925751000985791
20
16.420898945863691
30
23.000000000000004
0
SPLINE
5
181
100
AcDbEntity
8
0
100
AcDbSpline
70
0
71
2
72
6
73
3
74
0
42
0.000000001
43
0.0000000001
44
0.0000000001
40
0
40
0
40
0
40
1
40
1
40
1
10
-4.3925751000985791
20
16.420898945863691
30
23.000000000000004
10
-3.8395250588998486
20
16.007106216485944
30
23.000000000000004
10
-3.8395250588998486
20
15.139731677110637
30
23.000000000000004
0
SPLINE
5
182
100
AcDbEntity
8
0
100
AcDbSpline
70
0
71
2
72
6
73
3
74
0
42
0.000000001
43
0.0000000001
44
0.0000000001
40
0
40
0
40
0
40
1
40
1
40
1
10
-3.8395250588998486
20
15.139731677110637
30
23.000000000000004
10
-3.8395250588998486
20
14.27235773378178
30
23.000000000000004
10
-4.5079601556405713
20
13.890395076806987
30
23.000000000000004
0
SPLINE
5
183
100
AcDbEntity
8
0
100
AcDbSpline
70
0
71
2
72
6
73
3
74
0
42
0.000000001
43
0.0000000001
44
0.0000000001
40
0
40
0
40
0
40
1
40
1
40
1
10
-4.5079601556405713
20
13.890395076806987
30
23.000000000000004
10
-3.592840507660835
20
13.516389639909709
30
23.000000000000004
10
-3.592840507660835
20
12.442119033868755
30
23.000000000000004
0
LINE
5
184
100
AcDbEntity
8
0
100
AcDbLine
10
-7.5079596788034131
20
14.487212212617839
30
23.000000000000004
11
-5.9323633462533643
21
14.487212212617839
31
23.000000000000004
0
SPLINE
5
185
100
AcDbEntity
8
0
100
AcDbSpline
70
0
71
2
72
6
73
3
74
0
42
0.000000001
43
0.0000000001
44
0.0000000001
40
0
40
0
40
0
40
1
40
1
40
1
10
-5.9323633462533643
20
14.487212212617839
30
23.000000000000004
10
-5.3037155419931103
20
14.487212212617839
30
23.000000000000004
10
-5.3037155419931103
20
14.988538535173381
30
23.000000000000004
0
SPLINE
5
186
100
AcDbEntity
8
0
100
AcDbSpline
70
0
71
2
72
6
73
3
74
0
42
0.000000001
43
0.0000000001
44
0.0000000001
40
0
40
0
40
0
40
1
40
1
40
1
10
-5.3037155419931103
20
14.988538535173381
30
23.000000000000004
10
-5.3037155419931103
20
15.529652150209392
30
23.000000000000004
10
-5.9323633462533643
20
15.529652150209392
30
23.000000000000004
0
LINE
5
187
100
AcDbEntity
8
0
100
AcDbLine
10
-5.9323633462533643
20
15.529652150209392
30
23.000000000000004
11
-7.5079596788034131
21
15.529652150209392
31
23.000000000000004
0
LINE
5
188
100
AcDbEntity
8
0
100
AcDbLine
10
-7.5079596788034131
20
15.529652150209392
30
23.000000000000004
11
-7.5079596788034131
21
14.487212212617839
31
23.000000000000004
0
LINE
5
189
100
AcDbEntity
8
0
100
AcDbLine
10
-7.5079596788034131
20
12.139732153947795
30
23.000000000000004
11
-5.6936360150918652
21
12.139732153947795
31
23.000000000000004
0
SPLINE
5
190
100
AcDbEntity
8
0
100
AcDbSpline
70
0
71
2
72
6
73
3
74
0
42
0.000000001
43
0.0000000001
44
0.0000000001
40
0
40
0
40
0
40
1
40
1
40
1
10
-5.6936360150918652
20
12.139732153947795
30
23.000000000000004
10
-5.0649894029245068
20
12.139732153947795
30
23.000000000000004
10
-5.0649894029245068
20
12.641058476503337
30
23.000000000000004
0
SPLINE
5
191
100
AcDbEntity
8
0
100
AcDbSpline
70
0
71
2
72
6
73
3
74
0
42
0.000000001
43
0.0000000001
44
0.0000000001
40
0
40
0
40
0
40
1
40
1
40
1
10
-5.0649894029245068
20
12.641058476503337
30
23.000000000000004
10
-5.0649894029245068
20
13.182172091539348
30
23.000000000000004
10
-5.6936360150918652
20
13.182172091539348
30
23.000000000000004
0
LINE
5
192
100
AcDbEntity
8
0
100
AcDbLine
10
-5.6936360150918652
20
13.182172091539348
30
23.000000000000004
11
-7.5079596788034131
21
13.182172091539348
31
23.000000000000004
0
LINE
5
193
100
AcDbEntity
8
0
100
AcDbLine
10
-7.5079596788034131
20
13.182172091539348
30
23.000000000000004
11
-7.5079596788034131
21
12.139732153947795
31
23.000000000000004
0
SPLINE
5
194
100
AcDbEntity
8
0
100
AcDbSpline
70
0
71
2
72
6
73
3
74
0
42
0.000000001
43
0.0000000001
44
0.0000000001
40
0
40
0
40
0
40
1
40
1
40
1
10
0.28647057708647949
20
15.641057999666179
30
23.000000000000004
10
-0.40185816589447754
20
15.641057999666179
30
23.000000000000004
10
-0.7639277726754834
20
15.183498175676311
30
23.000000000000004
0
SPLINE
5
195
100
AcDbEntity
8
0
100
AcDbSpline
70
0
71
2
72
6
73
3
74
0
42
0.000000001
43
0.0000000001
44
0.0000000001
40
0
40
0
40
0
40
1
40
1
40
1
10
-0.7639277726754834
20
15.183498175676311
30
23.000000000000004
10
-1.1259949952706982
20
14.725938947732891
30
23.000000000000004
10
-1.1259949952706982
20
13.846628578241313
30
23.000000000000004
0
SPLINE
5
196
100
AcDbEntity
8
0
100
AcDbSpline
70
0
71
2
72
6
73
3
74
0
42
0.000000001
43
0.0000000001
44
0.0000000001
40
0
40
0
40
0
40
1
40
1
40
1
10
-1.1259949952706982
20
13.846628578241313
30
23.000000000000004
10
-1.1259949952706982
20
12.967318208749736
30
23.000000000000004
10
-0.75994856659027832
20
12.497821958597148
30
23.000000000000004
0
SPLINE
5
197
100
AcDbEntity
8
0
100
AcDbSpline
70
0
71
2
72
6
73
3
74
0
42
0.000000001
43
0.0000000001
44
0.0000000001
40
0
40
0
40
0
40
1
40
1
40
1
10
-0.75994856659027832
20
12.497821958597148
30
23.000000000000004
10
-0.39389975372406738
20
12.028326304491008
30
23.000000000000004
10
0.28647057708647949
20
12.028326304491008
30
23.000000000000004
0
SPLINE
5
198
100
AcDbEntity
8
0
100
AcDbSpline
70
0
71
2
72
6
73
3
74
0
42
0.000000001
43
0.0000000001
44
0.0000000001
40
0
40
0
40
0
40
1
40
1
40
1
10
0.28647057708647949
20
12.028326304491008
30
23.000000000000004
10
0.96684329208281738
20
12.028326304491008
30
23.000000000000004
10
1.3328897207632373
20
12.497821958597148
30
23.000000000000004
0
SPLINE
5
199
100
AcDbEntity
8
0
100
AcDbSpline
70
0
71
2
72
6
73
3
74
0
42
0.000000001
43
0.0000000001
44
0.0000000001
40
0
40
0
40
0
40
1
40
1
40
1
10
1.3328897207632373
20
12.497821958597148
30
23.000000000000004
10
1.6989385336294482
20
12.967318208749736
30
23.000000000000004
10
1.6989385336294482
20
13.846628578241313
30
23.000000000000004
0
SPLINE
5
200
100
AcDbEntity
8
0
100
AcDbSpline
70
0
71
2
72
6
73
3
74
0
42
0.000000001
43
0.0000000001
44
0.0000000001
40
0
40
0
40
0
40
1
40
1
40
1
10
1.6989385336294482
20
13.846628578241313
30
23.000000000000004
10
1.6989385336294482
20
14.725938947732891
30
23.000000000000004
10
1.3368689268484424
20
15.183498175676311
30
23.000000000000004
0
SPLINE
5
201
100
AcDbEntity
8
0
100
AcDbSpline
70
0
71
2
72
6
73
3
74
0
42
0.000000001
43
0.0000000001
44
0.0000000001
40
0
40
0
40
0
40
1
40
1
40
1
10
1.3368689268484424
20
15.183498175676311
30
23.000000000000004
10
0.97479932006743653
20
15.641057999666179
30
23.000000000000004
10
0.28647057708647949
20
15.641057999666179
30
23.000000000000004
0
SPLINE
5
202
100
AcDbEntity
8
0
100
AcDbSpline
70
0
71
2
72
6
73
3
74
0
42
0.000000001
43
0.0000000001
44
0.0000000001
40
0
40
0
40
0
40
1
40
1
40
1
10
-1.9217527658090283
20
11.519042165811504
30
23.000000000000004
10
-2.6697624475106885
20
12.314798148210491
30
23.000000000000004
10
-2.6697624475106885
20
13.842649968202556
30
23.000000000000004
0
SPLINE
5
203
100
AcDbEntity
8
0
100
AcDbSpline
70
0
71
2
72
6
73
3
74
0
42
0.000000001
43
0.0000000001
44
0.0000000001
40
0
40
0
40
0
40
1
40
1
40
1
10
-2.6697624475106885
20
13.842649968202556
30
23.000000000000004
10
-2.6697624475106885
20
15.370501192148174
30
23.000000000000004
10
-1.9257295877084424
20
16.158299954469648
30
23.000000000000004
0
SPLINE
5
204
100
AcDbEntity
8
0
100
AcDbSpline
70
0
71
2
72
6
73
3
74
0
42
0.000000001
43
0.0000000001
44
0.0000000001
40
0
40
0
40
0
40
1
40
1
40
1
10
-1.9257295877084424
20
16.158299954469648
30
23.000000000000004
10
-1.1816991120919873
20
16.946098120744672
30
23.000000000000004
10
0.28647057708647949
20
16.946098120744672
30
23.000000000000004
0
SPLINE
5
205
100
AcDbEntity
8
0
100
AcDbSpline
70
0
71
2
72
6
73
3
74
0
42
0.000000001
43
0.0000000001
44
0.0000000001
40
0
40
0
40
0
40
1
40
1
40
1
10
0.28647057708647949
20
16.946098120744672
30
23.000000000000004
10
1.7546402662649463
20
16.946098120744672
30
23.000000000000004
10
2.4986731260671924
20
16.158299954469648
30
23.000000000000004
0
SPLINE
5
206
100
AcDbEntity
8
0
100
AcDbSpline
70
0
71
2
72
6
73
3
74
0
42
0.000000001
43
0.0000000001
44
0.0000000001
40
0
40
0
40
0
40
1
40
1
40
1
10
2.4986731260671924
20
16.158299954469648
30
23.000000000000004
10
3.2427036016836475
20
15.370501192148174
30
23.000000000000004
10
3.2427036016836475
20
13.842649968202556
30
23.000000000000004
0
SPLINE
5
207
100
AcDbEntity
8
0
100
AcDbSpline
70
0
71
2
72
6
73
3
74
0
42
0.000000001
43
0.0000000001
44
0.0000000001
40
0
40
0
40
0
40
1
40
1
40
1
10
3.2427036016836475
20
13.842649968202556
30
23.000000000000004
10
3.2427036016836475
20
12.314798148210491
30
23.000000000000004
10
2.4946939199819873
20
11.519042165811504
30
23.000000000000004
0
SPLINE
5
208
100
AcDbEntity
8
0
100
AcDbSpline
70
0
71
2
72
6
73
3
74
0
42
0.000000001
43
0.0000000001
44
0.0000000001
40
0
40
0
40
0
40
1
40
1
40
1
10
2.4946939199819873
20
11.519042165811504
30
23.000000000000004
10
1.7466842382803272
20
10.723286183412517
30
23.000000000000004
10
0.28647057708647949
20
10.723286183412517
30
23.000000000000004
0
SPLINE
5
209
100
AcDbEntity
8
0
100
AcDbSpline
70
0
71
2
72
6
73
3
74
0
42
0.000000001
43
0.0000000001
44
0.0000000001
40
0
40
0
40
0
40
1
40
1
40
1
10
0.28647057708647949
20
10.723286183412517
30
23.000000000000004
10
-1.1737406999215771
20
10.723286183412517
30
23.000000000000004
10
-1.9217527658090283
20
11.519042165811504
30
23.000000000000004
0
SPLINE
5
210
100
AcDbEntity
8
0
100
AcDbSpline
70
0
71
2
72
6
73
3
74
0
42
0.000000001
43
0.0000000001
44
0.0000000001
40
0
40
0
40
0
40
1
40
1
40
1
10
9.3700277059927295
20
10.834692032869304
30
23.000000000000004
10
9.3700277059927295
20
10.834692032869304
30
23.000000000000004
10
8.2559668272390674
20
10.834692032869304
30
23.000000000000004
0
SPLINE
5
211
100
AcDbEntity
8
0
100
AcDbSpline
70
0
71
2
72
6
73
3
74
0
42
0.000000001
43
0.0000000001
44
0.0000000001
40
0
40
0
40
0
40
1
40
1
40
1
10
8.2559668272390674
20
10.834692032869304
30
23.000000000000004
10
8.0729448049917529
20
10.842649848993267
30
23.000000000000004
10
8.0809008329763721
20
11.017715843255962
30
23.000000000000004
0
LINE
5
212
100
AcDbEntity
8
0
100
AcDbLine
10
8.0809008329763721
20
11.017715843255962
30
23.000000000000004
11
8.0809008329763721
21
13.802861483629192
31
23.000000000000004
0
SPLINE
5
213
100
AcDbEntity
8
0
100
AcDbSpline
70
0
71
2
72
6
73
3
74
0
42
0.000000001
43
0.0000000001
44
0.0000000001
40
0
40
0
40
0
40
1
40
1
40
1
10
8.0809008329763721
20
13.802861483629192
30
23.000000000000004
10
8.0809008329763721
20
14.694108279283489
30
23.000000000000004
10
7.7626001089468311
20
15.111880810792888
30
23.000000000000004
0
SPLINE
5
214
100
AcDbEntity
8
0
100
AcDbSpline
70
0
71
2
72
6
73
3
74
0
42
0.000000001
43
0.0000000001
44
0.0000000001
40
0
40
0
40
0
40
1
40
1
40
1
10
7.7626001089468311
20
15.111880810792888
30
23.000000000000004
10
7.444297000731499
20
15.529652150209392
30
23.000000000000004
10
6.8952237814321826
20
15.529652150209392
30
23.000000000000004
0
LINE
5
215
100
AcDbEntity
8
0
100
AcDbLine
10
6.8952237814321826
20
15.529652150209392
30
23.000000000000004
11
5.7970821112051318
21
15.529652150209392
31
23.000000000000004
0
LINE
5
216
100
AcDbEntity
8
0
100
AcDbLine
10
5.7970821112051318
20
15.529652150209392
30
23.000000000000004
11
5.7970821112051318
21
11.017715843255962
31
23.000000000000004
0
SPLINE
5
217
100
AcDbEntity
8
0
100
AcDbSpline
70
0
71
2
72
6
73
3
74
0
42
0.000000001
43
0.0000000001
44
0.0000000001
40
0
40
0
40
0
40
1
40
1
40
1
10
5.7970821112051318
20
11.017715843255962
30
23.000000000000004
10
5.7891236990347217
20
10.834692032869304
30
23.000000000000004
10
5.6220161169424365
20
10.834692032869304
30
23.000000000000004
0
LINE
5
218
100
AcDbEntity
8
0
100
AcDbLine
10
5.6220161169424365
20
10.834692032869304
30
23.000000000000004
11
4.5079576223745654
21
10.834692032869304
31
23.000000000000004
0
SPLINE
5
219
100
AcDbEntity
8
0
100
AcDbSpline
70
0
71
2
72
6
73
3
74
0
42
0.000000001
43
0.0000000001
44
0.0000000001
40
0
40
0
40
0
40
1
40
1
40
1
10
4.5079576223745654
20
10.834692032869304
30
23.000000000000004
10
4.32493321594146
20
10.842649848993267
30
23.000000000000004
10
4.3328916281118701
20
11.017715843255962
30
23.000000000000004
0
LINE
5
220
100
AcDbEntity
8
0
100
AcDbLine
10
4.3328916281118701
20
11.017715843255962
30
23.000000000000004
11
4.3328916281118701
21
16.651668460901227
31
23.000000000000004
0
SPLINE
5
221
100
AcDbEntity
8
0
100
AcDbSpline
70
0
71
2
72
6
73
3
74
0
42
0.000000001
43
0.0000000001
44
0.0000000001
40
0
40
0
40
0
40
1
40
1
40
1
10
4.3328916281118701
20
16.651668460901227
30
23.000000000000004
10
4.3408476560964893
20
16.834692271287885
30
23.000000000000004
10
4.5079576223745654
20
16.834692271287885
30
23.000000000000004
0
LINE
5
222
100
AcDbEntity
8
0
100
AcDbLine
10
4.5079576223745654
20
16.834692271287885
30
23.000000000000004
11
6.8952237814321826
21
16.834692271287885
31
23.000000000000004
0
SPLINE
5
223
100
AcDbEntity
8
0
100
AcDbSpline
70
0
71
2
72
6
73
3
74
0
42
0.000000001
43
0.0000000001
44
0.0000000001
40
0
40
0
40
0
40
1
40
1
40
1
10
6.8952237814321826
20
16.834692271287885
30
23.000000000000004
10
8.2241379469290088
20
16.834692271287885
30
23.000000000000004
10
8.8846146314993213
20
16.054851325090375
30
23.000000000000004
0
SPLINE
5
224
100
AcDbEntity
8
0
100
AcDbSpline
70
0
71
2
72
6
73
3
74
0
42
0.000000001
43
0.0000000001
44
0.0000000001
40
0
40
0
40
0
40
1
40
1
40
1
10
8.8846146314993213
20
16.054851325090375
30
23.000000000000004
10
9.5450937002554248
20
15.275010378892864
30
23.000000000000004
10
9.5450937002554248
20
13.802861483629192
30
23.000000000000004
0
LINE
5
225
100
AcDbEntity
8
0
100
AcDbLine
10
9.5450937002554248
20
13.802861483629192
30
23.000000000000004
11
9.5450937002554248
21
11.017715843255962
31
23.000000000000004
0
SPLINE
5
226
100
AcDbEntity
8
0
100
AcDbSpline
70
0
71
2
72
6
73
3
74
0
42
0.000000001
43
0.0000000001
44
0.0000000001
40
0
40
0
40
0
40
1
40
1
40
1
10
9.5450937002554248
20
11.017715843255962
30
23.000000000000004
10
9.5450937002554248
20
10.834692032869304
30
23.000000000000004
10
9.3700277059927295
20
10.834692032869304
30
23.000000000000004
0
SPLINE
5
227
100
AcDbEntity
8
0
100
AcDbSpline
70
0
71
2
72
6
73
3
74
0
42
0.000000001
43
0.0000000001
44
0.0000000001
40
0
40
0
40
0
40
1
40
1
40
1
10
13.93766514953521
20
12.641058476503337
30
23.000000000000004
10
13.93766514953521
20
12.641058476503337
30
23.000000000000004
10
13.93766514953521
20
11.017715843255962
30
23.000000000000004
0
SPLINE
5
228
100
AcDbEntity
8
0
100
AcDbSpline
70
0
71
2
72
6
73
3
74
0
42
0.000000001
43
0.0000000001
44
0.0000000001
40
0
40
0
40
0
40
1
40
1
40
1
10
13.93766514953521
20
11.017715843255962
30
23.000000000000004
10
13.93766514953521
20
10.834692032869304
30
23.000000000000004
10
13.762599155272515
20
10.834692032869304
30
23.000000000000004
0
LINE
5
229
100
AcDbEntity
8
0
100
AcDbLine
10
13.762599155272515
20
10.834692032869304
30
23.000000000000004
11
12.648540660704644
21
10.834692032869304
31
23.000000000000004
0
SPLINE
5
230
100
AcDbEntity
8
0
100
AcDbSpline
70
0
71
2
72
6
73
3
74
0
42
0.000000001
43
0.0000000001
44
0.0000000001
40
0
40
0
40
0
40
1
40
1
40
1
10
12.648540660704644
20
10.834692032869304
30
23.000000000000004
10
12.465516254271538
20
10.834692032869304
30
23.000000000000004
10
12.473474666441948
20
11.017715843255962
30
23.000000000000004
0
LINE
5
231
100
AcDbEntity
8
0
100
AcDbLine
10
12.473474666441948
20
11.017715843255962
30
23.000000000000004
11
12.473474666441948
21
12.656972916658367
31
23.000000000000004
0
SPLINE
5
232
100
AcDbEntity
8
0
100
AcDbSpline
70
0
71
2
72
6
73
3
74
0
42
0.000000001
43
0.0000000001
44
0.0000000001
40
0
40
0
40
0
40
1
40
1
40
1
10
12.473474666441948
20
12.656972916658367
30
23.000000000000004
10
11.725464984740288
20
12.792251618440593
30
23.000000000000004
10
11.271883174742729
20
13.221959980066265
30
23.000000000000004
0
SPLINE
5
233
100
AcDbEntity
8
0
100
AcDbSpline
70
0
71
2
72
6
73
3
74
0
42
0.000000001
43
0.0000000001
44
0.0000000001
40
0
40
0
40
0
40
1
40
1
40
1
10
11.271883174742729
20
13.221959980066265
30
23.000000000000004
10
10.603448078002007
20
13.850607188280071
30
23.000000000000004
10
10.603448078002007
20
14.948750646646465
30
23.000000000000004
0
LINE
5
234
100
AcDbEntity
8
0
100
AcDbLine
10
10.603448078002007
20
14.948750646646465
30
23.000000000000004
11
10.603448078002007
21
16.651668460901227
31
23.000000000000004
0
SPLINE
5
235
100
AcDbEntity
8
0
100
AcDbSpline
70
0
71
2
72
6
73
3
74
0
42
0.000000001
43
0.0000000001
44
0.0000000001
40
0
40
0
40
0
40
1
40
1
40
1
10
10.603448078002007
20
16.651668460901227
30
23.000000000000004
10
10.603448078002007
20
16.834692271287885
30
23.000000000000004
10
10.786472484435112
20
16.834692271287885
30
23.000000000000004
0
LINE
5
236
100
AcDbEntity
8
0
100
AcDbLine
10
10.786472484435112
20
16.834692271287885
30
23.000000000000004
11
11.892572566832573
21
16.834692271287885
31
23.000000000000004
0
SPLINE
5
237
100
AcDbEntity
8
0
100
AcDbSpline
70
0
71
2
72
6
73
3
74
0
42
0.000000001
43
0.0000000001
44
0.0000000001
40
0
40
0
40
0
40
1
40
1
40
1
10
11.892572566832573
20
16.834692271287885
30
23.000000000000004
10
12.075596973265679
20
16.834692271287885
30
23.000000000000004
10
12.075596973265679
20
16.651668460901227
30
23.000000000000004
0
LINE
5
238
100
AcDbEntity
8
0
100
AcDbLine
10
12.075596973265679
20
16.651668460901227
30
23.000000000000004
11
12.075596973265679
21
14.956708462770427
31
23.000000000000004
0
SPLINE
5
239
100
AcDbEntity
8
0
100
AcDbSpline
70
0
71
2
72
6
73
3
74
0
42
0.000000001
43
0.0000000001
44
0.0000000001
40
0
40
0
40
0
40
1
40
1
40
1
10
12.075596973265679
20
14.956708462770427
30
23.000000000000004
10
12.075596973265679
20
14.455382140214885
30
23.000000000000004
10
12.40981452163604
20
14.184824736650432
30
23.000000000000004
0
SPLINE
5
240
100
AcDbEntity
8
0
100
AcDbSpline
70
0
71
2
72
6
73
3
74
0
42
0.000000001
43
0.0000000001
44
0.0000000001
40
0
40
0
40
0
40
1
40
1
40
1
10
12.40981452163604
20
14.184824736650432
30
23.000000000000004
10
12.744032070006401
20
13.914267333085979
30
23.000000000000004
10
13.273209258879692
20
13.914267333085979
30
23.000000000000004
0
SPLINE
5
241
100
AcDbEntity
8
0
100
AcDbSpline
70
0
71
2
72
6
73
3
74
0
42
0.000000001
43
0.0000000001
44
0.0000000001
40
0
40
0
40
0
40
1
40
1
40
1
10
13.273209258879692
20
13.914267333085979
30
23.000000000000004
10
13.802386447752983
20
13.914267333085979
30
23.000000000000004
10
14.076923057402642
20
14.184824736650432
30
23.000000000000004
0
SPLINE
5
242
100
AcDbEntity
8
0
100
AcDbSpline
70
0
71
2
72
6
73
3
74
0
42
0.000000001
43
0.0000000001
44
0.0000000001
40
0
40
0
40
0
40
1
40
1
40
1
10
14.076923057402642
20
14.184824736650432
30
23.000000000000004
10
14.3514596670523
20
14.455382140214885
30
23.000000000000004
10
14.3514596670523
20
14.956708462770427
30
23.000000000000004
0
LINE
5
243
100
AcDbEntity
8
0
100
AcDbLine
10
14.3514596670523
20
14.956708462770427
30
23.000000000000004
11
14.3514596670523
21
16.651668460901227
31
23.000000000000004
0
SPLINE
5
244
100
AcDbEntity
8
0
100
AcDbSpline
70
0
71
2
72
6
73
3
74
0
42
0.000000001
43
0.0000000001
44
0.0000000001
40
0
40
0
40
0
40
1
40
1
40
1
10
14.3514596670523
20
16.651668460901227
30
23.000000000000004
10
14.3514596670523
20
16.834692271287885
30
23.000000000000004
10
14.534481689299614
20
16.834692271287885
30
23.000000000000004
0
LINE
5
245
100
AcDbEntity
8
0
100
AcDbLine
10
14.534481689299614
20
16.834692271287885
30
23.000000000000004
11
15.640581771697075
21
16.834692271287885
31
23.000000000000004
0
SPLINE
5
246
100
AcDbEntity
8
0
100
AcDbSpline
70
0
71
2
72
6
73
3
74
0
42
0.000000001
43
0.0000000001
44
0.0000000001
40
0
40
0
40
0
40
1
40
1
40
1
10
15.640581771697075
20
16.834692271287885
30
23.000000000000004
10
15.823610946501763
20
16.834692271287885
30
23.000000000000004
10
15.823610946501763
20
16.651668460901227
30
23.000000000000004
0
LINE
5
247
100
AcDbEntity
8
0
100
AcDbLine
10
15.823610946501763
20
16.651668460901227
30
23.000000000000004
11
15.823610946501763
21
14.948750646646465
31
23.000000000000004
0
SPLINE
5
248
100
AcDbEntity
8
0
100
AcDbSpline
70
0
71
2
72
6
73
3
74
0
42
0.000000001
43
0.0000000001
44
0.0000000001
40
0
40
0
40
0
40
1
40
1
40
1
10
15.823610946501763
20
14.948750646646465
30
23.000000000000004
10
15.823610946501763
20
13.858564408357585
30
23.000000000000004
10
15.210875198210747
20
13.229917796190227
30
23.000000000000004
0
SPLINE
5
249
100
AcDbEntity
8
0
100
AcDbSpline
70
0
71
2
72
6
73
3
74
0
42
0.000000001
43
0.0000000001
44
0.0000000001
40
0
40
0
40
0
40
1
40
1
40
1
10
15.210875198210747
20
13.229917796190227
30
23.000000000000004
10
14.757293388213188
20
12.760421546037639
30
23.000000000000004
10
13.93766514953521
20
12.641058476503337
30
23.000000000000004
0
SPLINE
5
250
100
AcDbEntity
8
0
100
AcDbSpline
70
0
71
2
72
6
73
3
74
0
42
0.000000001
43
0.0000000001
44
0.0000000001
40
0
40
0
40
0
40
1
40
1
40
1
10
21.043766662444146
20
13.858564408357585
30
23.000000000000004
10
21.346148177947075
20
13.771031411226238
30
23.000000000000004
10
21.57691828903106
20
13.619838269288982
30
23.000000000000004
0
SPLINE
5
251
100
AcDbEntity
8
0
100
AcDbSpline
70
0
71
2
72
6
73
3
74
0
42
0.000000001
43
0.0000000001
44
0.0000000001
40
0
40
0
40
0
40
1
40
1
40
1
10
21.57691828903106
20
13.619838269288982
30
23.000000000000004
10
22.340849563445122
20
13.166257055337871
30
23.000000000000004
10
22.34880320724395
20
11.208697469766582
30
23.000000000000004
0
LINE
5
252
100
AcDbEntity
8
0
100
AcDbLine
10
22.34880320724395
20
11.208697469766582
30
23.000000000000004
11
22.34880320724395
21
11.017715843255962
31
23.000000000000004
0
SPLINE
5
253
100
AcDbEntity
8
0
100
AcDbSpline
70
0
71
2
72
6
73
3
74
0
42
0.000000001
43
0.0000000001
44
0.0000000001
40
0
40
0
40
0
40
1
40
1
40
1
10
22.34880320724395
20
11.017715843255962
30
23.000000000000004
10
22.340849563445122
20
10.834692032869304
30
23.000000000000004
10
22.165783569182427
20
10.834692032869304
30
23.000000000000004
0
LINE
5
254
100
AcDbEntity
8
0
100
AcDbLine
10
22.165783569182427
20
10.834692032869304
30
23.000000000000004
11
21.059683486784966
21
10.834692032869304
31
23.000000000000004
0
SPLINE
5
255
100
AcDbEntity
8
0
100
AcDbSpline
70
0
71
2
72
6
73
3
74
0
42
0.000000001
43
0.0000000001
44
0.0000000001
40
0
40
0
40
0
40
1
40
1
40
1
10
21.059683486784966
20
10.834692032869304
30
23.000000000000004
10
20.876654311980278
20
10.842649848993267
30
23.000000000000004
10
20.876654311980278
20
11.017715843255962
30
23.000000000000004
0
LINE
5
256
100
AcDbEntity
8
0
100
AcDbLine
10
20.876654311980278
20
11.017715843255962
30
23.000000000000004
11
20.876654311980278
21
11.208697469766582
31
23.000000000000004
0
SPLINE
5
257
100
AcDbEntity
8
0
100
AcDbSpline
70
0
71
2
72
6
73
3
74
0
42
0.000000001
43
0.0000000001
44
0.0000000001
40
0
40
0
40
0
40
1
40
1
40
1
10
20.876654311980278
20
11.208697469766582
30
23.000000000000004
10
20.876654311980278
20
12.481906922395671
30
23.000000000000004
10
20.486735030974419
20
12.83203950696751
30
23.000000000000004
0
SPLINE
5
258
100
AcDbEntity
8
0
100
AcDbSpline
70
0
71
2
72
6
73
3
74
0
42
0.000000001
43
0.0000000001
44
0.0000000001
40
0
40
0
40
0
40
1
40
1
40
1
10
20.486735030974419
20
12.83203950696751
30
23.000000000000004
10
20.152519866789849
20
13.134426982934917
30
23.000000000000004
10
19.579571410979302
20
13.174214871461833
30
23.000000000000004
0
SPLINE
5
259
100
AcDbEntity
8
0
100
AcDbSpline
70
0
71
2
72
6
73
3
74
0
42
0.000000001
43
0.0000000001
44
0.0000000001
40
0
40
0
40
0
40
1
40
1
40
1
10
19.579571410979302
20
13.174214871461833
30
23.000000000000004
10
18.998669311369927
20
13.134426982934917
30
23.000000000000004
10
18.664454147185356
20
12.83203950696751
30
23.000000000000004
0
SPLINE
5
260
100
AcDbEntity
8
0
100
AcDbSpline
70
0
71
2
72
6
73
3
74
0
42
0.000000001
43
0.0000000001
44
0.0000000001
40
0
40
0
40
0
40
1
40
1
40
1
10
18.664454147185356
20
12.83203950696751
30
23.000000000000004
10
18.274534866179497
20
12.481906922395671
30
23.000000000000004
10
18.274534866179497
20
11.208697469766582
30
23.000000000000004
0
LINE
5
261
100
AcDbEntity
8
0
100
AcDbLine
10
18.274534866179497
20
11.208697469766582
30
23.000000000000004
11
18.274534866179497
21
11.017715843255962
31
23.000000000000004
0
SPLINE
5
262
100
AcDbEntity
8
0
100
AcDbSpline
70
0
71
2
72
6
73
3
74
0
42
0.000000001
43
0.0000000001
44
0.0000000001
40
0
40
0
40
0
40
1
40
1
40
1
10
18.274534866179497
20
11.017715843255962
30
23.000000000000004
10
18.274534866179497
20
10.842649848993267
30
23.000000000000004
10
18.091515228117974
20
10.834692032869304
30
23.000000000000004
0
LINE
5
263
100
AcDbEntity
8
0
100
AcDbLine
10
18.091515228117974
20
10.834692032869304
30
23.000000000000004
11
16.985410377348931
21
10.834692032869304
31
23.000000000000004
0
SPLINE
5
264
100
AcDbEntity
8
0
100
AcDbSpline
70
0
71
2
72
6
73
3
74
0
42
0.000000001
43
0.0000000001
44
0.0000000001
40
0
40
0
40
0
40
1
40
1
40
1
10
16.985410377348931
20
10.834692032869304
30
23.000000000000004
10
16.810344383086235
20
10.834692032869304
30
23.000000000000004
10
16.802385970915825
20
11.017715843255962
30
23.000000000000004
0
LINE
5
265
100
AcDbEntity
8
0
100
AcDbLine
10
16.802385970915825
20
11.017715843255962
30
23.000000000000004
11
16.802385970915825
21
11.208697469766582
31
23.000000000000004
0
SPLINE
5
266
100
AcDbEntity
8
0
100
AcDbSpline
70
0
71
2
72
6
73
3
74
0
42
0.000000001
43
0.0000000001
44
0.0000000001
40
0
40
0
40
0
40
1
40
1
40
1
10
16.802385970915825
20
11.208697469766582
30
23.000000000000004
10
16.802385970915825
20
13.166257055337871
30
23.000000000000004
10
17.574270889128716
20
13.619838269288982
30
23.000000000000004
0
SPLINE
5
267
100
AcDbEntity
8
0
100
AcDbSpline
70
0
71
2
72
6
73
3
74
0
42
0.000000001
43
0.0000000001
44
0.0000000001
40
0
40
0
40
0
40
1
40
1
40
1
10
17.574270889128716
20
13.619838269288982
30
23.000000000000004
10
17.812994644011528
20
13.763074191148723
30
23.000000000000004
10
18.10742251571563
20
13.858564408357585
30
23.000000000000004
0
SPLINE
5
268
100
AcDbEntity
8
0
100
AcDbSpline
70
0
71
2
72
6
73
3
74
0
42
0.000000001
43
0.0000000001
44
0.0000000001
40
0
40
0
40
0
40
1
40
1
40
1
10
18.10742251571563
20
13.858564408357585
30
23.000000000000004
10
16.969498321379692
20
14.487212212617839
30
23.000000000000004
10
16.969498321379692
20
16.460686834390607
30
23.000000000000004
0
LINE
5
269
100
AcDbEntity
8
0
100
AcDbLine
10
16.969498321379692
20
16.460686834390607
30
23.000000000000004
11
16.969498321379692
21
16.651668460901227
31
23.000000000000004
0
SPLINE
5
270
100
AcDbEntity
8
0
100
AcDbSpline
70
0
71
2
72
6
73
3
74
0
42
0.000000001
43
0.0000000001
44
0.0000000001
40
0
40
0
40
0
40
1
40
1
40
1
10
16.969498321379692
20
16.651668460901227
30
23.000000000000004
10
16.969498321379692
20
16.834692271287885
30
23.000000000000004
10
17.144564315642388
20
16.834692271287885
30
23.000000000000004
0
LINE
5
271
100
AcDbEntity
8
0
100
AcDbLine
10
17.144564315642388
20
16.834692271287885
30
23.000000000000004
11
18.258618041838677
21
16.834692271287885
31
23.000000000000004
0
SPLINE
5
272
100
AcDbEntity
8
0
100
AcDbSpline
70
0
71
2
72
6
73
3
74
0
42
0.000000001
43
0.0000000001
44
0.0000000001
40
0
40
0
40
0
40
1
40
1
40
1
10
18.258618041838677
20
16.834692271287885
30
23.000000000000004
10
18.441647216643364
20
16.834692271287885
30
23.000000000000004
10
18.433684036101372
20
16.651668460901227
30
23.000000000000004
0
LINE
5
273
100
AcDbEntity
8
0
100
AcDbLine
10
18.433684036101372
20
16.651668460901227
30
23.000000000000004
11
18.433684036101372
21
16.460686834390607
31
23.000000000000004
0
SPLINE
5
274
100
AcDbEntity
8
0
100
AcDbSpline
70
0
71
2
72
6
73
3
74
0
42
0.000000001
43
0.0000000001
44
0.0000000001
40
0
40
0
40
0
40
1
40
1
40
1
10
18.433684036101372
20
16.460686834390607
30
23.000000000000004
10
18.433684036101372
20
15.107901604707683
30
23.000000000000004
10
18.688324615325005
20
14.817450554902996
30
23.000000000000004
0
SPLINE
5
275
100
AcDbEntity
8
0
100
AcDbSpline
70
0
71
2
72
6
73
3
74
0
42
0.000000001
43
0.0000000001
44
0.0000000001
40
0
40
0
40
0
40
1
40
1
40
1
10
18.688324615325005
20
14.817450554902996
30
23.000000000000004
10
18.942965194548638
20
14.526999505098308
30
23.000000000000004
10
19.579571410979302
20
14.495169432695354
30
23.000000000000004
0
SPLINE
5
276
100
AcDbEntity
8
0
100
AcDbSpline
70
0
71
2
72
6
73
3
74
0
42
0.000000001
43
0.0000000001
44
0.0000000001
40
0
40
0
40
0
40
1
40
1
40
1
10
19.579571410979302
20
14.495169432695354
30
23.000000000000004
10
20.216177627409966
20
14.526999505098308
30
23.000000000000004
10
20.466841384734185
20
14.817450554902996
30
23.000000000000004
0
SPLINE
5
277
100
AcDbEntity
8
0
100
AcDbSpline
70
0
71
2
72
6
73
3
74
0
42
0.000000001
43
0.0000000001
44
0.0000000001
40
0
40
0
40
0
40
1
40
1
40
1
10
20.466841384734185
20
14.817450554902996
30
23.000000000000004
10
20.717505142058403
20
15.107901604707683
30
23.000000000000004
10
20.717505142058403
20
16.460686834390607
30
23.000000000000004
0
LINE
5
278
100
AcDbEntity
8
0
100
AcDbLine
10
20.717505142058403
20
16.460686834390607
30
23.000000000000004
11
20.717505142058403
21
16.651668460901227
31
23.000000000000004
0
SPLINE
5
279
100
AcDbEntity
8
0
100
AcDbSpline
70
0
71
2
72
6
73
3
74
0
42
0.000000001
43
0.0000000001
44
0.0000000001
40
0
40
0
40
0
40
1
40
1
40
1
10
20.717505142058403
20
16.651668460901227
30
23.000000000000004
10
20.717505142058403
20
16.834692271287885
30
23.000000000000004
10
20.892571136321099
20
16.834692271287885
30
23.000000000000004
0
LINE
5
280
100
AcDbEntity
8
0
100
AcDbLine
10
20.892571136321099
20
16.834692271287885
30
23.000000000000004
11
22.006634399260552
21
16.834692271287885
31
23.000000000000004
0
SPLINE
5
281
100
AcDbEntity
8
0
100
AcDbSpline
70
0
71
2
72
6
73
3
74
0
42
0.000000001
43
0.0000000001
44
0.0000000001
40
0
40
0
40
0
40
1
40
1
40
1
10
22.006634399260552
20
16.834692271287885
30
23.000000000000004
10
22.189654037322075
20
16.834692271287885
30
23.000000000000004
10
22.181700393523247
20
16.651668460901227
30
23.000000000000004
0
LINE
5
282
100
AcDbEntity
8
0
100
AcDbLine
10
22.181700393523247
20
16.651668460901227
30
23.000000000000004
11
22.181700393523247
21
16.460686834390607
31
23.000000000000004
0
SPLINE
5
283
100
AcDbEntity
8
0
100
AcDbSpline
70
0
71
2
72
6
73
3
74
0
42
0.000000001
43
0.0000000001
44
0.0000000001
40
0
40
0
40
0
40
1
40
1
40
1
10
22.181700393523247
20
16.460686834390607
30
23.000000000000004
10
22.181700393523247
20
14.487212212617839
30
23.000000000000004
10
21.043766662444146
20
13.858564408357585
30
23.000000000000004
0
ENDSEC
0
SECTION
2
OBJECTS
0
DICTIONARY
5
C
100
AcDbDictionary
3
ACAD_GROUP
350
D
3
ACAD_MLINESTYLE
350
17
0
DICTIONARY
5
D
100
AcDbDictionary
0
DICTIONARY
5
1A
330
C
100
AcDbDictionary
0
DICTIONARY
5
17
100
AcDbDictionary
0
ENDSEC
0
EOF
