%TF.GenerationSoftware,KiCad,Pcbnew,(6.0.9)*%
%TF.CreationDate,2023-05-28T23:14:04+10:00*%
%TF.ProjectId,SumoNyxPCB2.0,53756d6f-4e79-4785-9043-42322e302e6b,rev?*%
%TF.SameCoordinates,Original*%
%TF.FileFunction,Soldermask,Top*%
%TF.FilePolarity,Negative*%
%FSLAX46Y46*%
G04 Gerber Fmt 4.6, Leading zero omitted, Abs format (unit mm)*
G04 Created by KiCad (PCBNEW (6.0.9)) date 2023-05-28 23:14:04*
%MOMM*%
%LPD*%
G01*
G04 APERTURE LIST*
G04 Aperture macros list*
%AMRoundRect*
0 Rectangle with rounded corners*
0 $1 Rounding radius*
0 $2 $3 $4 $5 $6 $7 $8 $9 X,Y pos of 4 corners*
0 Add a 4 corners polygon primitive as box body*
4,1,4,$2,$3,$4,$5,$6,$7,$8,$9,$2,$3,0*
0 Add four circle primitives for the rounded corners*
1,1,$1+$1,$2,$3*
1,1,$1+$1,$4,$5*
1,1,$1+$1,$6,$7*
1,1,$1+$1,$8,$9*
0 Add four rect primitives between the rounded corners*
20,1,$1+$1,$2,$3,$4,$5,0*
20,1,$1+$1,$4,$5,$6,$7,0*
20,1,$1+$1,$6,$7,$8,$9,0*
20,1,$1+$1,$8,$9,$2,$3,0*%
G04 Aperture macros list end*
%ADD10R,1.549400X0.863600*%
%ADD11R,1.549400X3.149600*%
%ADD12RoundRect,0.250000X0.262500X0.450000X-0.262500X0.450000X-0.262500X-0.450000X0.262500X-0.450000X0*%
%ADD13RoundRect,0.250000X0.375000X0.625000X-0.375000X0.625000X-0.375000X-0.625000X0.375000X-0.625000X0*%
%ADD14RoundRect,0.250000X0.475000X-0.337500X0.475000X0.337500X-0.475000X0.337500X-0.475000X-0.337500X0*%
%ADD15RoundRect,0.250000X-0.337500X-0.475000X0.337500X-0.475000X0.337500X0.475000X-0.337500X0.475000X0*%
%ADD16O,1.700000X1.700000*%
%ADD17C,1.700000*%
%ADD18R,1.700000X1.700000*%
%ADD19R,1.600000X1.600000*%
%ADD20O,1.600000X1.600000*%
G04 APERTURE END LIST*
D10*
%TO.C,U1*%
X178066300Y-87510100D03*
X178066300Y-89821500D03*
X178066300Y-92132900D03*
D11*
X183933700Y-89821500D03*
%TD*%
D12*
%TO.C,R2*%
X175662500Y-100250000D03*
X173837500Y-100250000D03*
%TD*%
D13*
%TO.C,F1*%
X180400000Y-100250000D03*
X177600000Y-100250000D03*
%TD*%
D14*
%TO.C,C8*%
X176750000Y-71037500D03*
X176750000Y-68962500D03*
%TD*%
D15*
%TO.C,C6*%
X173462500Y-87571500D03*
X175537500Y-87571500D03*
%TD*%
%TO.C,C4*%
X173462500Y-92071500D03*
X175537500Y-92071500D03*
%TD*%
%TO.C,C1*%
X173462500Y-89821500D03*
X175537500Y-89821500D03*
%TD*%
D16*
%TO.C,U3*%
X182335000Y-65555000D03*
X182335000Y-68095000D03*
X182335000Y-70635000D03*
X182335000Y-73175000D03*
X182335000Y-75715000D03*
D17*
X182335000Y-78255000D03*
D16*
X197975000Y-65565000D03*
X197975000Y-68105000D03*
X197975000Y-70645000D03*
X197975000Y-73185000D03*
X197975000Y-75725000D03*
D18*
X197975000Y-78265000D03*
%TD*%
D16*
%TO.C,J3*%
X201475000Y-68180000D03*
X201475000Y-70720000D03*
X201475000Y-73260000D03*
D18*
X201475000Y-75800000D03*
%TD*%
%TO.C,J4*%
X171010000Y-100750000D03*
D16*
X168470000Y-100750000D03*
%TD*%
D18*
%TO.C,J2*%
X183460000Y-100750000D03*
D16*
X186000000Y-100750000D03*
%TD*%
D18*
%TO.C,J1*%
X179100000Y-65750000D03*
D16*
X176560000Y-65750000D03*
X174020000Y-65750000D03*
X171480000Y-65750000D03*
X168940000Y-65750000D03*
X166400000Y-65750000D03*
%TD*%
D19*
%TO.C,A1*%
X197300000Y-96860000D03*
D20*
X194760000Y-96860000D03*
X192220000Y-96860000D03*
X189680000Y-96860000D03*
X187140000Y-96860000D03*
X184600000Y-96860000D03*
X182060000Y-96860000D03*
X179520000Y-96860000D03*
X176980000Y-96860000D03*
X174440000Y-96860000D03*
X171900000Y-96860000D03*
X169360000Y-96860000D03*
X166820000Y-96860000D03*
X164280000Y-96860000D03*
X161740000Y-96860000D03*
X161740000Y-81620000D03*
X164280000Y-81620000D03*
X166820000Y-81620000D03*
X169360000Y-81620000D03*
X171900000Y-81620000D03*
X174440000Y-81620000D03*
X176980000Y-81620000D03*
X179520000Y-81620000D03*
X182060000Y-81620000D03*
X184600000Y-81620000D03*
X187140000Y-81620000D03*
X189680000Y-81620000D03*
X192220000Y-81620000D03*
X194760000Y-81620000D03*
X197300000Y-81620000D03*
%TD*%
M02*
