0
SECTION
2
HEADER
9
$INSUNITS
70
4
9
$ACADVER
1
AC1014
9
$HANDSEED
5
FFFF
0
ENDSEC
0
SECTION
2
TABLES
0
TABLE
2
VPORT
5
8
100
AcDbSymbolTable
0
ENDTAB
0
TABLE
2
LTYPE
5
5
100
AcDbSymbolTable
0
LTYPE
5
14
100
AcDbSymbolTableRecord
100
AcDbLinetypeTableRecord
2
BYBLOCK
70
0
0
LTYPE
5
15
100
AcDbSymbolTableRecord
100
AcDbLinetypeTableRecord
2
BYLAYER
70
0
0
ENDTAB
0
TABLE
2
LAYER
5
2
100
AcDbSymbolTable
70
2
0
LAYER
5
50
100
AcDbSymbolTableRecord
100
AcDbLayerTableRecord
2
0
70
0
6
CONTINUOUS
0
ENDTAB
0
TABLE
2
STYLE
5
3
100
AcDbSymbolTable
70
1
0
STYLE
5
11
100
AcDbSymbolTableRecord
100
AcDbTextStyleTableRecord
2
STANDARD
70
0
0
ENDTAB
0
TABLE
2
VIEW
5
6
100
AcDbSymbolTable
70
0
0
ENDTAB
0
TABLE
2
UCS
5
7
100
AcDbSymbolTable
70
0
0
ENDTAB
0
TABLE
2
APPID
5
9
100
AcDbSymbolTable
70
2
0
APPID
5
12
100
AcDbSymbolTableRecord
100
AcDbRegAppTableRecord
2
ACAD
70
0
0
ENDTAB
0
TABLE
2
DIMSTYLE
5
A
100
AcDbSymbolTable
70
1
0
ENDTAB
0
TABLE
2
BLOCK_RECORD
5
1
100
AcDbSymbolTable
70
1
0
BLOCK_RECORD
5
1F
100
AcDbSymbolTableRecord
100
AcDbBlockTableRecord
2
*MODEL_SPACE
0
BLOCK_RECORD
5
1B
100
AcDbSymbolTableRecord
100
AcDbBlockTableRecord
2
*PAPER_SPACE
0
ENDTAB
0
ENDSEC
0
SECTION
2
BLOCKS
0
BLOCK
5
20
100
AcDbEntity
100
AcDbBlockBegin
2
*MODEL_SPACE
0
ENDBLK
5
21
100
AcDbEntity
100
AcDbBlockEnd
0
BLOCK
5
1C
100
AcDbEntity
100
AcDbBlockBegin
2
*PAPER_SPACE
0
ENDBLK
5
1D
100
AcDbEntity
100
AcDbBlockEnd
0
ENDSEC
0
SECTION
2
ENTITIES
0
CIRCLE
5
100
100
AcDbEntity
8
0
100
AcDbCircle
10
-17.00070195389587
20
63.311808695857124
30
0
40
1.6000000000000014
210
-7.7470643347647582e-44
220
-2.0947674425980532e-71
230
1
0
CIRCLE
5
101
100
AcDbEntity
8
0
100
AcDbCircle
10
16.999298046104144
20
63.313213696973719
30
0
40
1.5999999999999992
210
-7.7470643347647582e-44
220
-2.0947674425980532e-71
230
1
0
LWPOLYLINE
5
102
100
AcDbEntity
8
0
100
AcDbPolyline
90
14
70
1
43
0.0
10
-54.319091337424751
20
20.237581421188203
42
0.43592210427716294
10
-59.499171388451089
20
17.49566919447156
10
-60.275628523758655
20
14.59789171560435
42
0.41421356237309515
10
-57.447201399012464
20
9.69891223003801
10
-56.721162430470017
20
9.5043706747435195
42
-0.19954574654748705
10
-54.895895879465627
20
8.1002577700305842
10
-53.814638629836544
20
6.2168813774764997
42
0.26860223631345204
10
-52.513776786680573
20
5.4637136645536311
10
-51.930289024759134
20
5.4637136645536302
42
0.41421356237309509
10
-50.430289024759119
20
6.9637136645536302
10
-50.430289024759119
20
12.456472382365932
42
0.17707563260063242
10
-52.140023166232638
20
17.132790829268995
10
-52.676486969812196
20
17.768366042773863
42
-0.13237160126731304
10
-53.448656319685682
20
19.417865779457451
42
0.33182686069849521
0
LWPOLYLINE
5
103
100
AcDbEntity
8
0
100
AcDbPolyline
90
8
70
1
43
0.0
10
-24.350000011421162
20
-21.750000034525709
10
-24.350000011421166
20
-18.250000034525712
42
-0.41421356237309509
10
-22.850000011421166
20
-16.750000034525712
10
-17.150000011421167
20
-16.750000034525709
42
-0.41421356237309509
10
-15.650000011421167
20
-18.250000034525709
10
-15.650000011421167
20
-21.750000034525709
42
-0.41421356237309509
10
-17.150000011421163
20
-23.250000034525709
10
-22.850000011421162
20
-23.250000034525709
42
-0.41421356237309509
0
LWPOLYLINE
5
104
100
AcDbEntity
8
0
100
AcDbPolyline
90
8
70
1
43
0.0
10
2.8499999885788272
20
16.750000034525709
10
-2.850000011421173
20
16.750000034525705
42
-0.41421356237309537
10
-4.350000011421173
20
18.250000034525709
10
-4.3500000114211721
20
21.750000034525705
42
-0.41421356237309492
10
-2.850000011421173
20
23.250000034525705
10
2.8499999885788272
20
23.250000034525705
42
-0.41421356237309598
10
4.3499999885788281
20
21.750000034525701
10
4.3499999885788272
20
18.250000034525705
42
-0.4142135623730942
0
LWPOLYLINE
5
105
100
AcDbEntity
8
0
100
AcDbPolyline
90
8
70
1
43
0.0
10
4.3499999885788379
20
-18.250000034525705
10
4.3499999885788387
20
-21.750000034525705
42
-0.4142135623730952
10
2.8499999885788387
20
-23.250000034525705
10
-2.8500000114211623
20
-23.250000034525705
42
-0.41421356237309492
10
-4.3500000114211614
20
-21.750000034525705
10
-4.3500000114211623
20
-18.250000034525709
42
-0.41421356237309481
10
-2.8500000114211641
20
-16.750000034525709
10
2.8499999885788374
20
-16.750000034525705
42
-0.41421356237309515
0
LWPOLYLINE
5
106
100
AcDbEntity
8
0
100
AcDbPolyline
90
8
70
1
43
0.0
10
-15.650000011421174
20
21.750000034525701
10
-15.650000011421177
20
18.250000034525705
42
-0.41421356237309509
10
-17.150000011421177
20
16.750000034525705
10
-22.850000011421177
20
16.750000034525709
42
-0.41421356237309453
10
-24.350000011421177
20
18.250000034525705
10
-24.350000011421177
20
21.750000034525701
42
-0.41421356237309509
10
-22.850000011421177
20
23.250000034525698
10
-17.150000011421174
20
23.250000034525698
42
-0.41421356237309509
0
LWPOLYLINE
5
107
100
AcDbEntity
8
0
100
AcDbPolyline
90
8
70
1
43
0.0
10
17.149999988578827
20
23.250000034525694
10
22.849999988578826
20
23.250000034525698
42
-0.41421356237309509
10
24.349999988578826
20
21.750000034525701
10
24.349999988578826
20
18.250000034525705
42
-0.41421356237309509
10
22.849999988578826
20
16.750000034525705
10
17.149999988578827
20
16.750000034525709
42
-0.41421356237309453
10
15.649999988578829
20
18.250000034525705
10
15.649999988578831
20
21.750000034525701
42
-0.41421356237309509
0
LWPOLYLINE
5
108
100
AcDbEntity
8
0
100
AcDbPolyline
90
8
70
1
43
0.0
10
22.849999988578841
20
-23.250000034525684
10
17.149999988578841
20
-23.250000034525691
42
-0.41421356237309548
10
15.649999988578838
20
-21.750000034525691
10
15.649999988578838
20
-18.250000034525694
42
-0.41421356237309509
10
17.149999988578838
20
-16.750000034525698
10
22.849999988578837
20
-16.750000034525691
42
-0.41421356237309509
10
24.349999988578833
20
-18.250000034525691
10
24.349999988578837
20
-21.750000034525684
42
-0.41421356237309509
0
CIRCLE
5
109
100
AcDbEntity
8
0
100
AcDbCircle
10
-33.000000491738234
20
0.099999997764826404
30
0
40
1.2500000000000009
210
4.3181454422798004e-46
220
-6.5081270463646537e-76
230
1
0
CIRCLE
5
110
100
AcDbEntity
8
0
100
AcDbCircle
10
-22.99821810318122
20
2.6437967548777044
30
0
40
1.2500000000000009
210
4.3180989900176586e-46
220
-6.5079870253294345e-76
230
1
0
CIRCLE
5
111
100
AcDbEntity
8
0
100
AcDbCircle
10
-22.99821810318122
20
-2.3021235609425013
30
0
40
1.2499999999999964
210
4.3181665569444105e-46
220
-6.5081906927876961e-76
230
1
0
CIRCLE
5
112
100
AcDbEntity
8
0
100
AcDbCircle
10
29.999999988592648
20
-74.000000057373512
30
0
40
1.5000000000000036
210
4.3175410181264136e-46
220
-5.7034437366375445e-76
230
1
0
CIRCLE
5
113
100
AcDbEntity
8
0
100
AcDbCircle
10
-30.000000011407462
20
73.999999988257073
30
0
40
1.5000000000000036
210
4.3175410181264136e-46
220
-5.7034437366375445e-76
230
1
0
CIRCLE
5
114
100
AcDbEntity
8
0
100
AcDbCircle
10
74.000000011407892
20
-30.000000034558166
30
0
40
1.5000000000000036
210
4.3175410181264136e-46
220
-5.7034437366375445e-76
230
1
0
CIRCLE
5
115
100
AcDbEntity
8
0
100
AcDbCircle
10
-74.000000034222708
20
29.999999965441731
30
0
40
1.5000000000000036
210
4.3175410181264136e-46
220
-5.7034437366375445e-76
230
1
0
CIRCLE
5
116
100
AcDbEntity
8
0
100
AcDbCircle
10
29.999999988592549
20
73.999999988257116
30
0
40
1.5000000000000036
210
4.3175410181264136e-46
220
-5.7034437366375445e-76
230
1
0
CIRCLE
5
117
100
AcDbEntity
8
0
100
AcDbCircle
10
-30.000000011407355
20
-74.000000057373498
30
0
40
1.5000000000000036
210
4.3175410181264136e-46
220
-5.7034437366375445e-76
230
1
0
CIRCLE
5
118
100
AcDbEntity
8
0
100
AcDbCircle
10
74.000000011407892
20
29.999999965441834
30
0
40
1.5000000000000036
210
4.3175410181264136e-46
220
-5.7034437366375445e-76
230
1
0
CIRCLE
5
119
100
AcDbEntity
8
0
100
AcDbCircle
10
-74.000000034222708
20
-30.000000034558276
30
0
40
1.5000000000000036
210
4.3175410181264136e-46
220
-5.7034437366375445e-76
230
1
0
LINE
5
120
100
AcDbEntity
8
0
100
AcDbLine
10
-35.596490815892608
20
73.705177203511113
30
0
11
-35.269174651601404
21
73.37786103921988
31
0
0
ARC
5
121
100
AcDbEntity
8
0
100
AcDbCircle
10
-40.572475510500524
20
68.074560180320788
30
-1.0947644252537633e-45
40
7.5000000000000044
210
-2.1895288505075267e-46
220
-2.4404139177894696e-31
230
1
100
AcDbArc
50
-45.00000000000005
51
44.999999999999851
0
LINE
5
122
100
AcDbEntity
8
0
100
AcDbLine
10
-35.269174651601418
20
62.771259321421667
30
-1.2942249226282244e-30
11
-62.771259275455975
21
35.269174697567152
31
7.8886090522101181e-30
0
ARC
5
123
100
AcDbEntity
8
0
100
AcDbCircle
10
-68.074560134355096
20
40.572475556466273
30
2.1347906292448385e-45
40
7.500000000000008
210
-2.0917833581052595e-31
220
-3.4863055968421346e-32
230
1
100
AcDbArc
50
225.00000000000011
51
315
0
LINE
5
124
100
AcDbEntity
8
0
100
AcDbLine
10
-73.377860993254188
20
35.269174697567159
30
-1.2942249226282223e-30
11
-73.705177175058523
21
35.59649087937148
31
1.0785207688568521e-31
0
SPLINE
5
125
100
AcDbEntity
8
0
100
AcDbSpline
70
0
71
3
72
16
73
12
74
0
42
0.000000001
43
0.0000000001
44
0.0000000001
40
0
40
0
40
0
40
0
40
0.12635909001058296
40
0.12635909001058296
40
0.23738055897039206
40
0.23738055897039206
40
0.33501237051593724
40
0.33501237051593724
40
0.41972146695081519
40
0.41972146695081519
40
0.50429610710564743
40
0.50429610710564743
40
0.50429610710564743
40
0.50429610710564743
10
-73.705177175058523
20
35.59649087937148
30
0
10
-74.003008406428677
20
35.894322110741626
30
0
10
-74.357536295618175
20
36.133959772467591
30
0
10
-75.089570352460328
20
36.43149142728209
30
0
10
-75.455438745610266
20
36.506313475095993
30
0
10
-76.148474100702003
20
36.499823049810672
30
0
10
-76.468518940976679
20
36.436146615563587
30
0
10
-77.024288785566469
20
36.197858156272382
30
0
10
-77.259063121565617
20
36.041720457125656
30
0
10
-77.659574137589715
20
35.648706718751718
30
0
10
-77.81991887093514
20
35.41735290294428
30
0
10
-77.935258891630369
20
35.161703904881925
30
0
0
ARC
5
126
100
AcDbEntity
8
0
100
AcDbCircle
10
1.140746164196571e-08
20
3.4558222949954143e-08
30
7.0064923216240854e-45
40
85.499999996186403
210
-4.0253121344893391e-32
220
-8.9220290496712398e-32
230
1
100
AcDbArc
50
155.71674374404813
51
204.28325629817064
0
SPLINE
5
127
100
AcDbEntity
8
0
100
AcDbSpline
70
0
71
3
72
16
73
12
74
0
42
0.000000001
43
0.0000000001
44
0.0000000001
40
0
40
0
40
0
40
0
40
0.12635909001058296
40
0.12635909001058296
40
0.23738055897039206
40
0.23738055897039206
40
0.33501237051593724
40
0.33501237051593724
40
0.41972146695081519
40
0.41972146695081519
40
0.50429610710564743
40
0.50429610710564743
40
0.50429610710564743
40
0.50429610710564743
10
-73.705177175058523
20
-35.596490879371473
30
0
10
-74.003008406428677
20
-35.894322110741619
30
0
10
-74.357536295618175
20
-36.133959772467584
30
0
10
-75.089570352460328
20
-36.431491427282083
30
0
10
-75.455438745610266
20
-36.506313475095986
30
0
10
-76.148474100702003
20
-36.499823049810665
30
0
10
-76.468518940976679
20
-36.436146615563572
30
0
10
-77.024288785566469
20
-36.197858156272375
30
0
10
-77.259063121565617
20
-36.041720457125649
30
0
10
-77.659574137589715
20
-35.648706718751711
30
0
10
-77.81991887093514
20
-35.417352902944273
30
0
10
-77.935258891630369
20
-35.161703904881918
30
0
0
LINE
5
128
100
AcDbEntity
8
0
100
AcDbLine
10
-73.705177175058523
20
-35.596490879371473
30
0
11
-73.377860993254188
21
-35.269174697567159
31
-1.7179295103934144e-29
0
ARC
5
129
100
AcDbEntity
8
0
100
AcDbCircle
10
-68.074560134355082
20
-40.57247555646623
30
1.7516230804060213e-45
40
7.4999999999999769
210
1.743152798421081e-32
220
-2.614729197631575e-31
230
1
100
AcDbArc
50
44.999999999999893
51
135.0000000000002
0
LINE
5
130
100
AcDbEntity
8
0
100
AcDbLine
10
-62.771259275455982
20
-35.269174697567152
30
1.2942249226282171e-30
11
-35.269174651601411
21
-62.77125932142166
31
1.1832913578315177e-29
0
ARC
5
131
100
AcDbEntity
8
0
100
AcDbCircle
10
-40.572475510500524
20
-68.074560180320759
30
9.85287982728387e-46
40
7.5000000000000044
210
-1.568837518578944e-31
220
8.7157639921052406e-32
230
1
100
AcDbArc
50
-44.999999999999901
51
44.999999999999922
0
LINE
5
132
100
AcDbEntity
8
0
100
AcDbLine
10
-35.269174651601396
20
-73.377861039219866
30
1.2942249226282242e-30
11
-35.596490815892622
21
-73.705177203511099
31
2.311115933264683e-31
0
SPLINE
5
133
100
AcDbEntity
8
0
100
AcDbSpline
70
0
71
3
72
18
73
14
74
0
42
0.000000001
43
0.0000000001
44
0.0000000001
40
0
40
0
40
0
40
0
40
0.089804880423280081
40
0.089804880423280081
40
0.17770265860682902
40
0.17770265860682902
40
0.27087172707933682
40
0.27087172707933682
40
0.3752518825739305
40
0.3752518825739305
40
0.43804907173817431
40
0.43804907173817431
40
0.50175645866034246
40
0.50175645866034246
40
0.50175645866034246
40
0.50175645866034246
10
-35.161703839813811
20
-77.935258920986755
30
0
10
-35.434568035063577
20
-77.812151996666557
30
0
10
-35.679487135993263
20
-77.637895901448118
30
0
10
-36.083459381096191
20
-77.205072180192687
30
0
10
-36.238197888788612
20
-76.954846143566812
30
0
10
-36.454084304121508
20
-76.391136002242092
30
0
10
-36.506182823573695
20
-76.082598812090993
30
0
10
-36.499055452264962
20
-75.423103856199816
30
0
10
-36.425914982593596
20
-75.078343062824359
30
0
10
-36.216754908004354
20
-74.559787433204775
30
0
10
-36.117772402344286
20
-74.373520238403344
30
0
10
-35.883167074933617
20
-74.021277630830824
30
0
10
-35.747214253366749
20
-73.85590064098524
30
0
10
-35.596490815892615
20
-73.705177203511084
30
0
0
ARC
5
134
100
AcDbEntity
8
0
100
AcDbCircle
10
-1.1407408351260528e-08
20
-3.4558098604975385e-08
30
1.8392042344263224e-44
40
85.499999963808335
210
-2.5786394866878381e-32
220
1.1633932985746281e-32
230
1
100
AcDbArc
50
245.71674376507542
51
294.28325624886071
0
SPLINE
5
135
100
AcDbEntity
8
0
100
AcDbSpline
70
0
71
3
72
18
73
14
74
0
42
0.000000001
43
0.0000000001
44
0.0000000001
40
0
40
0
40
0
40
0
40
0.089804880423280081
40
0.089804880423280081
40
0.17770265860682902
40
0.17770265860682902
40
0.27087172707933682
40
0.27087172707933682
40
0.3752518825739305
40
0.3752518825739305
40
0.43804907173817431
40
0.43804907173817431
40
0.50175645866034246
40
0.50175645866034246
40
0.50175645866034246
40
0.50175645866034246
10
35.161703839813811
20
-77.935258920986755
30
0
10
35.434568035063577
20
-77.812151996666557
30
0
10
35.679487135993263
20
-77.637895901448118
30
0
10
36.083459381096191
20
-77.205072180192687
30
0
10
36.238197888788612
20
-76.954846143566812
30
0
10
36.454084304121508
20
-76.391136002242092
30
0
10
36.506182823573695
20
-76.082598812090993
30
0
10
36.499055452264962
20
-75.423103856199816
30
0
10
36.425914982593596
20
-75.078343062824359
30
0
10
36.216754908004354
20
-74.559787433204775
30
0
10
36.117772402344286
20
-74.373520238403344
30
0
10
35.883167074933617
20
-74.021277630830824
30
0
10
35.747214253366749
20
-73.85590064098524
30
0
10
35.596490815892615
20
-73.705177203511084
30
0
0
LINE
5
136
100
AcDbEntity
8
0
100
AcDbLine
10
35.596490815892622
20
-73.705177203511099
30
0
11
35.269174651601404
21
-73.377861039219866
31
-2.1108192190484105e-29
0
ARC
5
137
100
AcDbEntity
8
0
100
AcDbCircle
10
40.572475510500524
20
-68.074560180320759
30
1.0947644252537633e-45
40
7.5000000000000044
210
-2.1895288505075267e-46
220
-2.4404139177894696e-31
230
1
100
AcDbArc
50
135
51
224.99999999999991
0
LINE
5
138
100
AcDbEntity
8
0
100
AcDbLine
10
35.269174651601418
20
-62.771259321421653
30
1.2942249226282244e-30
11
62.771259275455975
21
-35.269174697567145
31
-9.8607613152626476e-30
0
ARC
5
139
100
AcDbEntity
8
0
100
AcDbCircle
10
68.074560134355096
20
-40.572475556466259
30
-2.1347906292448385e-45
40
7.500000000000008
210
-2.0917833581052595e-31
220
-3.4863055968421346e-32
230
1
100
AcDbArc
50
45.000000000000156
51
135.00000000000006
0
LINE
5
140
100
AcDbEntity
8
0
100
AcDbLine
10
73.377860993254188
20
-35.269174697567138
30
1.2942249226282223e-30
11
73.705177175058523
21
-35.596490879371473
31
-3.0814879110195774e-32
0
SPLINE
5
141
100
AcDbEntity
8
0
100
AcDbSpline
70
0
71
3
72
16
73
12
74
0
42
0.000000001
43
0.0000000001
44
0.0000000001
40
0
40
0
40
0
40
0
40
0.12635909001058296
40
0.12635909001058296
40
0.23738055897039206
40
0.23738055897039206
40
0.33501237051593724
40
0.33501237051593724
40
0.41972146695081519
40
0.41972146695081519
40
0.50429610710564743
40
0.50429610710564743
40
0.50429610710564743
40
0.50429610710564743
10
73.705177175058523
20
-35.596490879371473
30
0
10
74.003008406428677
20
-35.894322110741619
30
0
10
74.357536295618175
20
-36.133959772467584
30
0
10
75.089570352460328
20
-36.431491427282083
30
0
10
75.455438745610266
20
-36.506313475095986
30
0
10
76.148474100702003
20
-36.499823049810665
30
0
10
76.468518940976679
20
-36.436146615563572
30
0
10
77.024288785566469
20
-36.197858156272375
30
0
10
77.259063121565617
20
-36.041720457125649
30
0
10
77.659574137589715
20
-35.648706718751711
30
0
10
77.81991887093514
20
-35.417352902944273
30
0
10
77.935258891630369
20
-35.161703904881918
30
0
0
ARC
5
142
100
AcDbEntity
8
0
100
AcDbCircle
10
-1.1407408351260528e-08
20
-3.4558098604975385e-08
30
1.8392042344263224e-44
40
85.499999996186403
210
-4.0253121344893205e-32
220
-8.9220290496712366e-32
230
1
100
AcDbArc
50
-24.283256255951972
51
24.283256298170603
0
SPLINE
5
143
100
AcDbEntity
8
0
100
AcDbSpline
70
0
71
3
72
16
73
12
74
0
42
0.000000001
43
0.0000000001
44
0.0000000001
40
0
40
0
40
0
40
0
40
0.12635909001058296
40
0.12635909001058296
40
0.23738055897039206
40
0.23738055897039206
40
0.33501237051593724
40
0.33501237051593724
40
0.41972146695081519
40
0.41972146695081519
40
0.50429610710564743
40
0.50429610710564743
40
0.50429610710564743
40
0.50429610710564743
10
73.705177175058523
20
35.59649087937148
30
0
10
74.003008406428677
20
35.894322110741626
30
0
10
74.357536295618175
20
36.133959772467591
30
0
10
75.089570352460328
20
36.43149142728209
30
0
10
75.455438745610266
20
36.506313475095993
30
0
10
76.148474100702003
20
36.499823049810672
30
0
10
76.468518940976679
20
36.436146615563587
30
0
10
77.024288785566469
20
36.197858156272382
30
0
10
77.259063121565617
20
36.041720457125656
30
0
10
77.659574137589715
20
35.648706718751718
30
0
10
77.81991887093514
20
35.41735290294428
30
0
10
77.935258891630369
20
35.161703904881925
30
0
0
LINE
5
144
100
AcDbEntity
8
0
100
AcDbLine
10
73.705177175058523
20
35.59649087937148
30
0
11
73.377860993254188
21
35.269174697567159
31
1.4637067577342992e-29
0
ARC
5
145
100
AcDbEntity
8
0
100
AcDbCircle
10
68.074560134355082
20
40.572475556466252
30
-1.7516230804060213e-45
40
7.4999999999999769
210
1.743152798421081e-32
220
-2.614729197631575e-31
230
1
100
AcDbArc
50
224.99999999999991
51
315.00000000000006
0
LINE
5
146
100
AcDbEntity
8
0
100
AcDbLine
10
62.771259275455982
20
35.269174697567166
30
-1.2942249226282171e-30
11
35.269174651601411
21
62.77125932142166
31
-8.8746851837363828e-30
0
ARC
5
147
100
AcDbEntity
8
0
100
AcDbCircle
10
40.572475510500524
20
68.074560180320788
30
-9.85287982728387e-46
40
7.5000000000000044
210
-1.568837518578944e-31
220
8.7157639921052406e-32
230
1
100
AcDbArc
50
135.0000000000002
51
225.00000000000006
0
LINE
5
148
100
AcDbEntity
8
0
100
AcDbLine
10
35.269174651601396
20
73.37786103921988
30
-1.2942249226282242e-30
11
35.596490815892622
21
73.705177203511113
31
-2.311115933264683e-31
0
SPLINE
5
149
100
AcDbEntity
8
0
100
AcDbSpline
70
0
71
3
72
18
73
14
74
0
42
0.000000001
43
0.0000000001
44
0.0000000001
40
0
40
0
40
0
40
0
40
0.089804880423280081
40
0.089804880423280081
40
0.17770265860682902
40
0.17770265860682902
40
0.27087172707933682
40
0.27087172707933682
40
0.3752518825739305
40
0.3752518825739305
40
0.43804907173817431
40
0.43804907173817431
40
0.50175645866034246
40
0.50175645866034246
40
0.50175645866034246
40
0.50175645866034246
10
35.161703839813811
20
77.935258920986769
30
0
10
35.434568035063577
20
77.812151996666572
30
0
10
35.679487135993263
20
77.637895901448132
30
0
10
36.083459381096191
20
77.205072180192701
30
0
10
36.238197888788612
20
76.954846143566826
30
0
10
36.454084304121508
20
76.391136002242106
30
0
10
36.506182823573695
20
76.082598812091021
30
0
10
36.499055452264962
20
75.42310385619983
30
0
10
36.425914982593596
20
75.078343062824374
30
0
10
36.216754908004354
20
74.559787433204804
30
0
10
36.117772402344286
20
74.373520238403358
30
0
10
35.883167074933617
20
74.021277630830838
30
0
10
35.747214253366749
20
73.855900640985254
30
0
10
35.596490815892615
20
73.705177203511113
30
0
0
ARC
5
150
100
AcDbEntity
8
0
100
AcDbCircle
10
-1.1434182489722389e-08
20
3.449425634016734e-08
30
2.4767950356941142e-41
40
85.499999973260117
210
1.1442578358824232e-31
220
-5.1624971456267588e-32
230
1
100
AcDbArc
50
65.716743751140569
51
68.589100393873167
0
SPLINE
5
151
100
AcDbEntity
8
0
100
AcDbSpline
70
0
71
3
72
14
73
10
74
0
42
0.000000001
43
0.0000000001
44
0.0000000001
40
0
40
0
40
0
40
0
40
0.14833827819269618
40
0.14833827819269618
40
0.31517116550465896
40
0.31517116550465896
40
0.41949003420931397
40
0.41949003420931397
40
0.52636644388706522
40
0.52636644388706522
40
0.52636644388706522
40
0.52636644388706522
10
31.212108105131975
20
79.599336100457364
30
0
10
30.75177171283476
20
79.779840988374701
30
0
10
30.261457104296362
20
79.866551602415015
30
0
10
29.209283421280261
20
79.863204018471876
30
0
10
28.657861449591824
20
79.750085526063273
30
0
10
27.813988353840521
20
79.417466170338059
30
0
10
27.503714140730359
20
79.254434660719397
30
0
10
26.91427042689801
20
78.864538183212886
30
0
10
26.636535966841652
20
78.636537293045009
30
0
10
26.383602585621972
20
78.383603911825332
30
0
0
LINE
5
152
100
AcDbEntity
8
0
100
AcDbLine
10
26.383602585621972
20
78.383603911825332
30
0
11
24.928932188134528
21
76.928933514337871
31
4.622231866529366e-30
0
ARC
5
153
100
AcDbEntity
8
0
100
AcDbCircle
10
17.857864376269077
20
84.000001326203275
30
0
40
9.9999999999999289
210
-2.4404139177894713e-31
220
-3.4863055968420426e-32
230
1
100
AcDbArc
50
269.99999999999983
51
315.00000000000017
0
LINE
5
154
100
AcDbEntity
8
0
100
AcDbLine
10
17.857864376269049
20
74.000001326203346
30
-3.4863055968420941e-31
11
-17.857864376269021
21
74.00000132620336
31
1.5675294039424728e-44
0
ARC
5
155
100
AcDbEntity
8
0
100
AcDbCircle
10
-17.857864376269042
20
84.000001326203289
30
-1.8474149676157256e-45
40
9.9999999999999485
210
-6.3617812995349736e-32
220
3.8316754883881707e-47
230
1
100
AcDbArc
50
224.99999999999983
51
270.00000000000011
0
LINE
5
156
100
AcDbEntity
8
0
100
AcDbLine
10
-24.928932188134503
20
76.928933514337871
30
-4.4984586973269536e-31
11
-26.383602585621855
21
78.383603911825205
31
1.8488927466117464e-31
0
SPLINE
5
157
100
AcDbEntity
8
0
100
AcDbSpline
70
0
71
3
72
12
73
8
74
0
42
0.000000001
43
0.0000000001
44
0.0000000001
40
0
40
0
40
0
40
0
40
0.20550451100050912
40
0.20550451100050912
40
0.37123558198204365
40
0.37123558198204365
40
0.5293028256664426
40
0.5293028256664426
40
0.5293028256664426
40
0.5293028256664426
10
-26.383602585621855
20
78.383603911825205
30
0
10
-26.867981363264803
20
78.867982689468164
30
0
10
-27.442464506690847
20
79.260073092515697
30
0
10
-28.585191544015153
20
79.729330581461198
30
0
10
-29.128032792821152
20
79.850448279630427
30
0
10
-30.203114446255469
20
79.876476611328201
30
0
10
-30.724255385215283
20
79.790630558167308
30
0
10
-31.212108105131854
20
79.599336100457236
30
0
0
ARC
5
158
100
AcDbEntity
8
0
100
AcDbCircle
10
-1.1434182489722389e-08
20
3.449425634016734e-08
30
2.4767950356941142e-41
40
85.499999963712156
210
-2.0169545667165868e-31
220
-7.9087850561993222e-32
230
1
100
AcDbArc
50
111.41089959185976
51
114.2832562348906
0
SPLINE
5
159
100
AcDbEntity
8
0
100
AcDbSpline
70
0
71
3
72
18
73
14
74
0
42
0.000000001
43
0.0000000001
44
0.0000000001
40
0
40
0
40
0
40
0
40
0.089804880423280081
40
0.089804880423280081
40
0.17770265860682902
40
0.17770265860682902
40
0.27087172707933682
40
0.27087172707933682
40
0.3752518825739305
40
0.3752518825739305
40
0.43804907173817431
40
0.43804907173817431
40
0.50175645866034246
40
0.50175645866034246
40
0.50175645866034246
40
0.50175645866034246
10
-35.161703839813811
20
77.935258920986769
30
0
10
-35.434568035063577
20
77.812151996666572
30
0
10
-35.679487135993263
20
77.637895901448132
30
0
10
-36.083459381096191
20
77.205072180192701
30
0
10
-36.238197888788612
20
76.954846143566826
30
0
10
-36.454084304121508
20
76.391136002242106
30
0
10
-36.506182823573695
20
76.082598812091021
30
0
10
-36.499055452264962
20
75.42310385619983
30
0
10
-36.425914982593596
20
75.078343062824374
30
0
10
-36.216754908004354
20
74.559787433204804
30
0
10
-36.117772402344286
20
74.373520238403358
30
0
10
-35.883167074933617
20
74.021277630830838
30
0
10
-35.747214253366749
20
73.855900640985254
30
0
10
-35.596490815892615
20
73.705177203511113
30
0
0
LWPOLYLINE
5
160
100
AcDbEntity
8
0
100
AcDbPolyline
90
16
70
1
43
0.0
10
47.500000685453507
20
-4.1644246499010205
42
0.41421356237309537
10
46.500000685453514
20
-5.1644246499010205
10
46.500000685453514
20
-23.000000357627869
42
-0.41421356237309509
10
45.500000685453514
20
-24.000000357627869
10
44.750000655651178
20
-24.000000357627865
42
-0.41421356237309509
10
43.750000655651178
20
-23.000000357627869
10
43.750000655651178
20
23.000000357627869
42
-0.41421356237309509
10
44.750000655651178
20
24.000000357627869
10
45.250000685453514
20
24.000000357627865
42
-0.41421356237309509
10
46.250000685453507
20
23.000000357627869
10
46.250000685453507
20
17.469235474539065
42
0.4142135623730957
10
47.250000685453493
20
16.469235474539065
10
48.468131068570941
20
16.469235474539058
42
-0.4142135623730957
10
49.468131068570933
20
15.469235474539058
10
49.468131068570933
20
-3.1644246499010187
42
-0.41421356237309537
10
48.468131068570941
20
-4.1644246499010205
0
LWPOLYLINE
5
161
100
AcDbEntity
8
0
100
AcDbPolyline
90
8
70
1
43
0.0
10
57.999998681247249
20
-5.499999999999984
10
56.999998681247234
20
-5.4999999999999911
42
-0.41421356237309448
10
55.999998681247234
20
-4.4999999999999964
10
55.999998681247234
20
4.5000000000000115
42
-0.4142135623730947
10
56.999998681247234
20
5.5000000000000071
10
57.999998681247234
20
5.5000000000000062
42
-0.41421356237309509
10
61.999998681247234
20
1.5000000000000113
10
61.99999868124722
20
-1.4999999999999942
42
-0.41421356237309437
0
LWPOLYLINE
5
162
100
AcDbEntity
8
0
100
AcDbPolyline
90
8
70
1
43
0.0
10
60.275628523758662
20
-14.59789171560432
10
59.499171388451103
20
-17.495669194471535
42
-0.41421356237309509
10
54.60019190288476
20
-20.324096319217716
10
53.634266076595694
20
-20.065277274115196
42
-0.41421356237309681
10
52.927159295409147
20
-18.840532402723611
10
55.256530701331826
20
-10.147199966122001
42
-0.41421356237309659
10
56.481275572723426
20
-9.4400931849354528
10
57.447201399012485
20
-9.6989122300379762
42
-0.41421356237309409
0
LWPOLYLINE
5
163
100
AcDbEntity
8
0
100
AcDbPolyline
90
8
70
1
43
0.0
10
54.44357389256183
20
-29.70096123494692
10
52.943573892561808
20
-32.299037446300254
42
-0.41421356237309476
10
47.479472277424065
20
-33.76313906143799
10
46.61344687363961
20
-33.26313906143799
42
-0.41421356237309614
10
46.247421469855183
20
-31.897113657653552
10
50.747421469855183
20
-24.102885023593593
42
-0.41421356237309198
10
52.113446873639617
20
-23.736859619809163
10
52.979472277424087
20
-24.23685961980917
42
-0.41421356237309431
0
LWPOLYLINE
5
164
100
AcDbEntity
8
0
100
AcDbPolyline
90
8
70
1
43
0.0
10
44.901279672846748
20
-42.779959329287081
10
42.779959329287095
20
-44.901279672846741
42
-0.41421356237309431
10
37.123105079794733
20
-44.901279672846726
10
36.415998298608173
20
-44.194172891660173
42
-0.41421356237309315
10
36.415998298608166
20
-42.779959329287102
10
42.779959329287109
20
-36.415998298608159
42
-0.4142135623730932
10
44.194172891660195
20
-36.415998298608159
10
44.901279672846748
20
-37.123105079794726
42
-0.41421356237309476
0
LWPOLYLINE
5
165
100
AcDbEntity
8
0
100
AcDbPolyline
90
8
70
1
43
0.0
10
32.299037446300296
20
-52.943573892561773
10
29.700961234946973
20
-54.443573892561773
42
-0.41421356237309503
10
24.23685961980922
20
-52.979472277424023
10
23.73685961980922
20
-52.113446873639582
42
-0.41421356237309614
10
24.102885023593661
20
-50.747421469855148
10
31.897113657653616
20
-46.247421469855141
42
-0.41421356237309453
10
33.263139061438039
20
-46.613446873639575
10
33.763139061438054
20
-47.479472277424016
42
-0.4142135623730952
0
LWPOLYLINE
5
166
100
AcDbEntity
8
0
100
AcDbPolyline
90
8
70
1
43
0.0
10
17.495669194471596
20
-59.499171388451082
10
14.597891715604391
20
-60.275628523758641
42
-0.4142135623730942
10
9.6989122300380437
20
-57.447201399012464
10
9.4400931849355114
20
-56.481275572723376
42
-0.41421356237309453
10
10.147199966122056
20
-55.256530701331798
10
18.840532402723674
20
-52.927159295409112
42
-0.41421356237309453
10
20.065277274115264
20
-53.634266076595651
10
20.324096319217787
20
-54.60019190288471
42
-0.41421356237309581
0
LWPOLYLINE
5
167
100
AcDbEntity
8
0
100
AcDbPolyline
90
8
70
1
43
0.0
10
1.4999999999999958
20
-61.999998681247213
10
-1.50000000000001
20
-61.99999868124722
42
-0.41421356237309437
10
-5.5000000000000053
20
-57.999998681247234
10
-5.5000000000000071
20
-56.99999868124722
42
-0.41421356237309509
10
-4.5000000000000115
20
-55.999998681247227
10
4.4999999999999947
20
-55.999998681247227
42
-0.4142135623730952
10
5.4999999999999911
20
-56.99999868124722
10
5.4999999999999813
20
-57.999998681247234
42
-0.41421356237309437
0
LWPOLYLINE
5
168
100
AcDbEntity
8
0
100
AcDbPolyline
90
8
70
1
43
0.0
10
-14.597891715604355
20
-60.275628523758648
10
-17.495669194471557
20
-59.499171388451082
42
-0.4142135623730942
10
-20.324096319217752
20
-54.600191902884745
10
-20.065277274115232
20
-53.634266076595665
42
-0.4142135623730977
10
-18.840532402723642
20
-52.927159295409119
10
-10.147199966122027
20
-55.256530701331812
42
-0.41421356237309442
10
-9.440093184935483
20
-56.481275572723391
10
-9.6989122300380046
20
-57.447201399012457
42
-0.41421356237309548
0
LWPOLYLINE
5
169
100
AcDbEntity
8
0
100
AcDbPolyline
90
8
70
1
43
0.0
10
-29.700961234946952
20
-54.443573892561787
10
-32.299037446300275
20
-52.94357389256178
42
-0.41421356237309348
10
-33.763139061438032
20
-47.479472277424044
10
-33.263139061438025
20
-46.613446873639603
42
-0.41421356237309753
10
-31.897113657653584
20
-46.247421469855169
10
-24.102885023593643
20
-50.747421469855148
42
-0.41421356237309437
10
-23.736859619809202
20
-52.113446873639589
10
-24.23685961980922
20
-52.979472277424044
42
-0.41421356237309537
0
LWPOLYLINE
5
170
100
AcDbEntity
8
0
100
AcDbPolyline
90
8
70
1
43
0.0
10
-42.779959329287109
20
-44.901279672846741
10
-44.901279672846748
20
-42.779959329287095
42
-0.41421356237309509
10
-44.901279672846748
20
-37.123105079794712
10
-44.194172891660202
20
-36.415998298608166
42
-0.41421356237309509
10
-42.779959329287109
20
-36.415998298608166
10
-36.415998298608173
20
-42.779959329287081
42
-0.41421356237309315
10
-36.415998298608187
20
-44.194172891660166
10
-37.123105079794747
20
-44.901279672846741
42
-0.41421356237309453
0
LWPOLYLINE
5
171
100
AcDbEntity
8
0
100
AcDbPolyline
90
8
70
1
43
0.0
10
-52.943573892561787
20
-32.299037446300275
10
-54.443573892561794
20
-29.700961234946956
42
-0.41421356237309531
10
-52.979472277424051
20
-24.236859619809206
10
-52.113446873639617
20
-23.736859619809202
42
-0.41421356237309398
10
-50.747421469855176
20
-24.102885023593636
10
-46.247421469855169
20
-31.897113657653598
42
-0.4142135623730962
10
-46.61344687363961
20
-33.263139061438025
10
-47.47947227742408
20
-33.763139061438039
42
-0.41421356237309231
0
LWPOLYLINE
5
172
100
AcDbEntity
8
0
100
AcDbPolyline
90
8
70
1
43
0.0
10
-59.499171388451096
20
-17.495669194471553
10
-60.27562852375867
20
-14.597891715604359
42
-0.4142135623730952
10
-57.447201399012485
20
-9.6989122300380064
10
-56.481275572723405
20
-9.4400931849354741
42
-0.41421356237309936
10
-55.256530701331805
20
-10.147199966122029
10
-52.927159295409112
20
-18.840532402723642
42
-0.41421356237309931
10
-53.634266076595679
20
-20.065277274115232
10
-54.600191902884774
20
-20.324096319217738
42
-0.4142135623730942
0
LWPOLYLINE
5
173
100
AcDbEntity
8
0
100
AcDbPolyline
90
8
70
1
43
0.0
10
-61.999998681247234
20
-1.5000000000000078
10
-61.999998681247234
20
1.4999999999999991
42
-0.41421356237309437
10
-57.999998681247249
20
5.4999999999999938
10
-56.999998681247234
20
5.4999999999999973
42
-0.41421356237309448
10
-55.999998681247234
20
4.5000000000000027
10
-55.999998681247234
20
-4.5000000000000053
42
-0.4142135623730947
10
-56.999998681247234
20
-5.5
10
-57.999998681247234
20
-5.5
42
-0.41421356237309492
0
LWPOLYLINE
5
174
100
AcDbEntity
8
0
100
AcDbPolyline
90
8
70
1
43
0.0
10
-54.443573892561815
20
29.70096123494697
10
-52.943573892561801
20
32.299037446300282
42
-0.41421356237309409
10
-47.479472277424065
20
33.763139061438032
10
-46.613446873639603
20
33.263139061438032
42
-0.41421356237309209
10
-46.247421469855169
20
31.897113657653591
10
-50.747421469855169
20
24.102885023593643
42
-0.41421356237309548
10
-52.11344687363961
20
23.736859619809202
10
-52.979472277424058
20
24.236859619809202
42
-0.41421356237309542
0
LWPOLYLINE
5
175
100
AcDbEntity
8
0
100
AcDbPolyline
90
8
70
1
43
0.0
10
-44.901279672846755
20
42.779959329287117
10
-42.779959329287102
20
44.901279672846755
42
-0.41421356237309476
10
-37.123105079794733
20
44.901279672846755
10
-36.415998298608173
20
44.194172891660202
42
-0.41421356237309415
10
-36.415998298608173
20
42.779959329287117
10
-42.779959329287102
20
36.415998298608187
42
-0.41421356237309231
10
-44.194172891660187
20
36.41599829860818
10
-44.901279672846769
20
37.123105079794726
42
-0.41421356237309531
0
LWPOLYLINE
5
176
100
AcDbEntity
8
0
100
AcDbPolyline
90
8
70
1
43
0.0
10
-32.299037446300296
20
52.943573892561801
10
-29.700961234946984
20
54.443573892561794
42
-0.41421356237309381
10
-24.236859619809231
20
52.979472277424058
10
-23.736859619809216
20
52.113446873639603
42
-0.41421356237309614
10
-24.102885023593657
20
50.747421469855169
10
-31.897113657653605
20
46.247421469855155
42
-0.41421356237309731
10
-33.263139061438039
20
46.613446873639603
10
-33.763139061438046
20
47.479472277424044
42
-0.41421356237309442
0
LWPOLYLINE
5
177
100
AcDbEntity
8
0
100
AcDbPolyline
90
8
70
1
43
0.0
10
-17.49566919447156
20
59.499171388451089
10
-14.597891715604359
20
60.275628523758662
42
-0.41421356237309492
10
-9.69891223003801
20
57.447201399012478
10
-9.4400931849354883
20
56.481275572723391
42
-0.41421356237309614
10
-10.147199966122029
20
55.256530701331812
10
-18.840532402723635
20
52.927159295409126
42
-0.41421356237309387
10
-20.065277274115228
20
53.634266076595679
10
-20.32409631921773
20
54.600191902884745
42
-0.41421356237309653
0
LWPOLYLINE
5
178
100
AcDbEntity
8
0
100
AcDbPolyline
90
8
70
1
43
0.0
10
-1.5000000000000024
20
61.999998681247234
10
1.5000000000000022
20
61.999998681247241
42
-0.41421356237309437
10
5.4999999999999973
20
57.999998681247256
10
5.5
20
56.999998681247241
42
-0.4142135623730952
10
4.5000000000000027
20
55.999998681247249
10
-4.5000000000000018
20
55.999998681247249
42
-0.41421356237309509
10
-5.4999999999999982
20
56.999998681247241
10
-5.4999999999999885
20
57.999998681247256
42
-0.41421356237309437
0
LWPOLYLINE
5
179
100
AcDbEntity
8
0
100
AcDbPolyline
90
8
70
1
43
0.0
10
14.597891715604332
20
60.275628523758684
10
17.495669194471542
20
59.499171388451124
42
-0.41421356237309453
10
20.32409631921773
20
54.600191902884781
10
20.065277274115211
20
53.634266076595708
42
-0.4142135623730967
10
18.840532402723625
20
52.927159295409155
10
10.147199966122011
20
55.25653070133184
42
-0.41421356237309243
10
9.4400931849354546
20
56.481275572723419
10
9.6989122300379815
20
57.447201399012485
42
-0.41421356237309553
0
LWPOLYLINE
5
180
100
AcDbEntity
8
0
100
AcDbPolyline
90
8
70
1
43
0.0
10
29.700961234946966
20
54.44357389256183
10
32.299037446300275
20
52.943573892561808
42
-0.41421356237309348
10
33.763139061438025
20
47.47947227742408
10
33.263139061438032
20
46.613446873639631
42
-0.41421356237309959
10
31.897113657653581
20
46.247421469855183
10
24.102885023593636
20
50.747421469855176
42
-0.41421356237309309
10
23.736859619809199
20
52.113446873639617
10
24.236859619809191
20
52.97947227742408
42
-0.41421356237309492
0
LWPOLYLINE
5
181
100
AcDbEntity
8
0
100
AcDbPolyline
90
8
70
1
43
0.0
10
42.779959329287081
20
44.901279672846783
10
44.901279672846712
20
42.779959329287124
42
-0.41421356237309642
10
44.901279672846712
20
37.12310507979474
10
44.194172891660166
20
36.415998298608194
42
-0.41421356237309592
10
42.779959329287095
20
36.415998298608187
10
36.415998298608166
20
42.779959329287117
42
-0.41421356237309509
10
36.415998298608152
20
44.194172891660209
10
37.123105079794691
20
44.901279672846783
42
-0.41421356237309531
0
LWPOLYLINE
5
182
100
AcDbEntity
8
0
100
AcDbPolyline
90
8
70
1
43
0.0
10
52.943573892561787
20
32.299037446300296
10
54.443573892561773
20
29.700961234946973
42
-0.41421356237309437
10
52.979472277424044
20
24.236859619809227
10
52.113446873639603
20
23.736859619809223
42
-0.41421356237309731
10
50.747421469855155
20
24.102885023593657
10
46.247421469855148
20
31.897113657653613
42
-0.41421356237309437
10
46.613446873639582
20
33.263139061438039
10
47.479472277424023
20
33.763139061438054
42
-0.4142135623730952
0
LWPOLYLINE
5
183
100
AcDbEntity
8
0
100
AcDbPolyline
90
8
70
1
43
0.0
10
57.447201399012471
20
9.6989122300380419
10
56.481275572723384
20
9.4400931849355079
42
-0.41421356237309614
10
55.256530701331805
20
10.147199966122056
10
52.927159295409105
20
18.840532402723667
42
-0.41421356237309853
10
53.634266076595658
20
20.065277274115264
10
54.600191902884738
20
20.32409631921778
42
-0.41421356237309576
10
59.499171388451089
20
17.495669194471589
10
60.275628523758641
20
14.597891715604385
42
-0.4142135623730942
0
LWPOLYLINE
5
184
100
AcDbEntity
8
0
100
AcDbPolyline
90
12
70
1
43
0.0
10
65.000000968575563
20
-22.000000357627869
10
65.000000968575563
20
13.016645861943728
42
-0.41421356237309509
10
66.000000968575563
20
14.016645861943729
10
67.40446038386942
20
14.016645861943724
42
0.4142135623730937
10
68.404460383869406
20
15.016645861943726
10
68.40446038386942
20
23.016645861943722
42
-0.41421356237309637
10
69.404460383869392
20
24.016645861943729
10
69.66808597496393
20
24.016645861943736
42
-0.41421356237309176
10
71.66808597496393
20
22.01664586194374
10
71.66808597496393
20
-22.000000357627869
42
-0.41421356237309176
10
69.66808597496393
20
-24.000000357627869
10
67.000000968575563
20
-24.000000357627865
42
-0.41421356237309048
0
ENDSEC
0
SECTION
2
OBJECTS
0
DICTIONARY
5
C
100
AcDbDictionary
3
ACAD_GROUP
350
D
3
ACAD_MLINESTYLE
350
17
0
DICTIONARY
5
D
100
AcDbDictionary
0
DICTIONARY
5
1A
330
C
100
AcDbDictionary
0
DICTIONARY
5
17
100
AcDbDictionary
0
ENDSEC
0
EOF
