%TF.GenerationSoftware,KiCad,Pcbnew,8.0.4*%
%TF.CreationDate,2024-09-15T13:25:14+10:00*%
%TF.ProjectId,SBRcontroller,53425263-6f6e-4747-926f-6c6c65722e6b,rev?*%
%TF.SameCoordinates,PX3d09000PY568bc30*%
%TF.FileFunction,Legend,Top*%
%TF.FilePolarity,Positive*%
%FSLAX46Y46*%
G04 Gerber Fmt 4.6, Leading zero omitted, Abs format (unit mm)*
G04 Created by KiCad (PCBNEW 8.0.4) date 2024-09-15 13:25:14*
%MOMM*%
%LPD*%
G01*
G04 APERTURE LIST*
%ADD10C,0.300000*%
%ADD11C,0.150000*%
%ADD12C,0.100000*%
%ADD13C,0.228600*%
%ADD14C,0.120000*%
%ADD15C,0.254000*%
%ADD16C,0.127000*%
%ADD17C,0.200000*%
%ADD18C,0.000000*%
G04 APERTURE END LIST*
D10*
X62321427Y-39285471D02*
X62249999Y-39356900D01*
X62249999Y-39356900D02*
X62035713Y-39428328D01*
X62035713Y-39428328D02*
X61892856Y-39428328D01*
X61892856Y-39428328D02*
X61678570Y-39356900D01*
X61678570Y-39356900D02*
X61535713Y-39214042D01*
X61535713Y-39214042D02*
X61464284Y-39071185D01*
X61464284Y-39071185D02*
X61392856Y-38785471D01*
X61392856Y-38785471D02*
X61392856Y-38571185D01*
X61392856Y-38571185D02*
X61464284Y-38285471D01*
X61464284Y-38285471D02*
X61535713Y-38142614D01*
X61535713Y-38142614D02*
X61678570Y-37999757D01*
X61678570Y-37999757D02*
X61892856Y-37928328D01*
X61892856Y-37928328D02*
X62035713Y-37928328D01*
X62035713Y-37928328D02*
X62249999Y-37999757D01*
X62249999Y-37999757D02*
X62321427Y-38071185D01*
X63249999Y-37928328D02*
X63535713Y-37928328D01*
X63535713Y-37928328D02*
X63678570Y-37999757D01*
X63678570Y-37999757D02*
X63821427Y-38142614D01*
X63821427Y-38142614D02*
X63892856Y-38428328D01*
X63892856Y-38428328D02*
X63892856Y-38928328D01*
X63892856Y-38928328D02*
X63821427Y-39214042D01*
X63821427Y-39214042D02*
X63678570Y-39356900D01*
X63678570Y-39356900D02*
X63535713Y-39428328D01*
X63535713Y-39428328D02*
X63249999Y-39428328D01*
X63249999Y-39428328D02*
X63107142Y-39356900D01*
X63107142Y-39356900D02*
X62964284Y-39214042D01*
X62964284Y-39214042D02*
X62892856Y-38928328D01*
X62892856Y-38928328D02*
X62892856Y-38428328D01*
X62892856Y-38428328D02*
X62964284Y-38142614D01*
X62964284Y-38142614D02*
X63107142Y-37999757D01*
X63107142Y-37999757D02*
X63249999Y-37928328D01*
X64535713Y-39428328D02*
X64535713Y-37928328D01*
X64535713Y-37928328D02*
X65392856Y-39428328D01*
X65392856Y-39428328D02*
X65392856Y-37928328D01*
X65892857Y-37928328D02*
X66750000Y-37928328D01*
X66321428Y-39428328D02*
X66321428Y-37928328D01*
X68107142Y-39428328D02*
X67607142Y-38714042D01*
X67249999Y-39428328D02*
X67249999Y-37928328D01*
X67249999Y-37928328D02*
X67821428Y-37928328D01*
X67821428Y-37928328D02*
X67964285Y-37999757D01*
X67964285Y-37999757D02*
X68035714Y-38071185D01*
X68035714Y-38071185D02*
X68107142Y-38214042D01*
X68107142Y-38214042D02*
X68107142Y-38428328D01*
X68107142Y-38428328D02*
X68035714Y-38571185D01*
X68035714Y-38571185D02*
X67964285Y-38642614D01*
X67964285Y-38642614D02*
X67821428Y-38714042D01*
X67821428Y-38714042D02*
X67249999Y-38714042D01*
X69035714Y-37928328D02*
X69321428Y-37928328D01*
X69321428Y-37928328D02*
X69464285Y-37999757D01*
X69464285Y-37999757D02*
X69607142Y-38142614D01*
X69607142Y-38142614D02*
X69678571Y-38428328D01*
X69678571Y-38428328D02*
X69678571Y-38928328D01*
X69678571Y-38928328D02*
X69607142Y-39214042D01*
X69607142Y-39214042D02*
X69464285Y-39356900D01*
X69464285Y-39356900D02*
X69321428Y-39428328D01*
X69321428Y-39428328D02*
X69035714Y-39428328D01*
X69035714Y-39428328D02*
X68892857Y-39356900D01*
X68892857Y-39356900D02*
X68749999Y-39214042D01*
X68749999Y-39214042D02*
X68678571Y-38928328D01*
X68678571Y-38928328D02*
X68678571Y-38428328D01*
X68678571Y-38428328D02*
X68749999Y-38142614D01*
X68749999Y-38142614D02*
X68892857Y-37999757D01*
X68892857Y-37999757D02*
X69035714Y-37928328D01*
X71035714Y-39428328D02*
X70321428Y-39428328D01*
X70321428Y-39428328D02*
X70321428Y-37928328D01*
X72250000Y-39428328D02*
X71535714Y-39428328D01*
X71535714Y-39428328D02*
X71535714Y-37928328D01*
X72750000Y-38642614D02*
X73250000Y-38642614D01*
X73464286Y-39428328D02*
X72750000Y-39428328D01*
X72750000Y-39428328D02*
X72750000Y-37928328D01*
X72750000Y-37928328D02*
X73464286Y-37928328D01*
X74964286Y-39428328D02*
X74464286Y-38714042D01*
X74107143Y-39428328D02*
X74107143Y-37928328D01*
X74107143Y-37928328D02*
X74678572Y-37928328D01*
X74678572Y-37928328D02*
X74821429Y-37999757D01*
X74821429Y-37999757D02*
X74892858Y-38071185D01*
X74892858Y-38071185D02*
X74964286Y-38214042D01*
X74964286Y-38214042D02*
X74964286Y-38428328D01*
X74964286Y-38428328D02*
X74892858Y-38571185D01*
X74892858Y-38571185D02*
X74821429Y-38642614D01*
X74821429Y-38642614D02*
X74678572Y-38714042D01*
X74678572Y-38714042D02*
X74107143Y-38714042D01*
X76750000Y-39428328D02*
X76750000Y-37928328D01*
X76750000Y-37928328D02*
X77321429Y-37928328D01*
X77321429Y-37928328D02*
X77464286Y-37999757D01*
X77464286Y-37999757D02*
X77535715Y-38071185D01*
X77535715Y-38071185D02*
X77607143Y-38214042D01*
X77607143Y-38214042D02*
X77607143Y-38428328D01*
X77607143Y-38428328D02*
X77535715Y-38571185D01*
X77535715Y-38571185D02*
X77464286Y-38642614D01*
X77464286Y-38642614D02*
X77321429Y-38714042D01*
X77321429Y-38714042D02*
X76750000Y-38714042D01*
X79107143Y-39285471D02*
X79035715Y-39356900D01*
X79035715Y-39356900D02*
X78821429Y-39428328D01*
X78821429Y-39428328D02*
X78678572Y-39428328D01*
X78678572Y-39428328D02*
X78464286Y-39356900D01*
X78464286Y-39356900D02*
X78321429Y-39214042D01*
X78321429Y-39214042D02*
X78250000Y-39071185D01*
X78250000Y-39071185D02*
X78178572Y-38785471D01*
X78178572Y-38785471D02*
X78178572Y-38571185D01*
X78178572Y-38571185D02*
X78250000Y-38285471D01*
X78250000Y-38285471D02*
X78321429Y-38142614D01*
X78321429Y-38142614D02*
X78464286Y-37999757D01*
X78464286Y-37999757D02*
X78678572Y-37928328D01*
X78678572Y-37928328D02*
X78821429Y-37928328D01*
X78821429Y-37928328D02*
X79035715Y-37999757D01*
X79035715Y-37999757D02*
X79107143Y-38071185D01*
X80250000Y-38642614D02*
X80464286Y-38714042D01*
X80464286Y-38714042D02*
X80535715Y-38785471D01*
X80535715Y-38785471D02*
X80607143Y-38928328D01*
X80607143Y-38928328D02*
X80607143Y-39142614D01*
X80607143Y-39142614D02*
X80535715Y-39285471D01*
X80535715Y-39285471D02*
X80464286Y-39356900D01*
X80464286Y-39356900D02*
X80321429Y-39428328D01*
X80321429Y-39428328D02*
X79750000Y-39428328D01*
X79750000Y-39428328D02*
X79750000Y-37928328D01*
X79750000Y-37928328D02*
X80250000Y-37928328D01*
X80250000Y-37928328D02*
X80392858Y-37999757D01*
X80392858Y-37999757D02*
X80464286Y-38071185D01*
X80464286Y-38071185D02*
X80535715Y-38214042D01*
X80535715Y-38214042D02*
X80535715Y-38356900D01*
X80535715Y-38356900D02*
X80464286Y-38499757D01*
X80464286Y-38499757D02*
X80392858Y-38571185D01*
X80392858Y-38571185D02*
X80250000Y-38642614D01*
X80250000Y-38642614D02*
X79750000Y-38642614D01*
D11*
X62854819Y333334D02*
X62378628Y1D01*
X62854819Y-238094D02*
X61854819Y-238094D01*
X61854819Y-238094D02*
X61854819Y142858D01*
X61854819Y142858D02*
X61902438Y238096D01*
X61902438Y238096D02*
X61950057Y285715D01*
X61950057Y285715D02*
X62045295Y333334D01*
X62045295Y333334D02*
X62188152Y333334D01*
X62188152Y333334D02*
X62283390Y285715D01*
X62283390Y285715D02*
X62331009Y238096D01*
X62331009Y238096D02*
X62378628Y142858D01*
X62378628Y142858D02*
X62378628Y-238094D01*
X62854819Y809525D02*
X62854819Y1000001D01*
X62854819Y1000001D02*
X62807200Y1095239D01*
X62807200Y1095239D02*
X62759580Y1142858D01*
X62759580Y1142858D02*
X62616723Y1238096D01*
X62616723Y1238096D02*
X62426247Y1285715D01*
X62426247Y1285715D02*
X62045295Y1285715D01*
X62045295Y1285715D02*
X61950057Y1238096D01*
X61950057Y1238096D02*
X61902438Y1190477D01*
X61902438Y1190477D02*
X61854819Y1095239D01*
X61854819Y1095239D02*
X61854819Y904763D01*
X61854819Y904763D02*
X61902438Y809525D01*
X61902438Y809525D02*
X61950057Y761906D01*
X61950057Y761906D02*
X62045295Y714287D01*
X62045295Y714287D02*
X62283390Y714287D01*
X62283390Y714287D02*
X62378628Y761906D01*
X62378628Y761906D02*
X62426247Y809525D01*
X62426247Y809525D02*
X62473866Y904763D01*
X62473866Y904763D02*
X62473866Y1095239D01*
X62473866Y1095239D02*
X62426247Y1190477D01*
X62426247Y1190477D02*
X62378628Y1238096D01*
X62378628Y1238096D02*
X62283390Y1285715D01*
D12*
X9238095Y11792581D02*
X9238095Y10983058D01*
X9238095Y10983058D02*
X9285714Y10887820D01*
X9285714Y10887820D02*
X9333333Y10840200D01*
X9333333Y10840200D02*
X9428571Y10792581D01*
X9428571Y10792581D02*
X9619047Y10792581D01*
X9619047Y10792581D02*
X9714285Y10840200D01*
X9714285Y10840200D02*
X9761904Y10887820D01*
X9761904Y10887820D02*
X9809523Y10983058D01*
X9809523Y10983058D02*
X9809523Y11792581D01*
X10761904Y11792581D02*
X10285714Y11792581D01*
X10285714Y11792581D02*
X10238095Y11316391D01*
X10238095Y11316391D02*
X10285714Y11364010D01*
X10285714Y11364010D02*
X10380952Y11411629D01*
X10380952Y11411629D02*
X10619047Y11411629D01*
X10619047Y11411629D02*
X10714285Y11364010D01*
X10714285Y11364010D02*
X10761904Y11316391D01*
X10761904Y11316391D02*
X10809523Y11221153D01*
X10809523Y11221153D02*
X10809523Y10983058D01*
X10809523Y10983058D02*
X10761904Y10887820D01*
X10761904Y10887820D02*
X10714285Y10840200D01*
X10714285Y10840200D02*
X10619047Y10792581D01*
X10619047Y10792581D02*
X10380952Y10792581D01*
X10380952Y10792581D02*
X10285714Y10840200D01*
X10285714Y10840200D02*
X10238095Y10887820D01*
D13*
X6303105Y5076097D02*
X7290077Y5076097D01*
X6796591Y4582612D02*
X6796591Y5569583D01*
X12707722Y5076097D02*
X13694694Y5076097D01*
X13694694Y5076097D02*
X12707723Y5076097D01*
X7290077Y5076097D02*
X6303106Y5076097D01*
X6796591Y4582612D02*
X6796591Y5569583D01*
D11*
X4988095Y-9954819D02*
X4988095Y-10764342D01*
X4988095Y-10764342D02*
X5035714Y-10859580D01*
X5035714Y-10859580D02*
X5083333Y-10907200D01*
X5083333Y-10907200D02*
X5178571Y-10954819D01*
X5178571Y-10954819D02*
X5369047Y-10954819D01*
X5369047Y-10954819D02*
X5464285Y-10907200D01*
X5464285Y-10907200D02*
X5511904Y-10859580D01*
X5511904Y-10859580D02*
X5559523Y-10764342D01*
X5559523Y-10764342D02*
X5559523Y-9954819D01*
X6559523Y-10954819D02*
X5988095Y-10954819D01*
X6273809Y-10954819D02*
X6273809Y-9954819D01*
X6273809Y-9954819D02*
X6178571Y-10097676D01*
X6178571Y-10097676D02*
X6083333Y-10192914D01*
X6083333Y-10192914D02*
X5988095Y-10240533D01*
X55011905Y-7204819D02*
X55011905Y-8014342D01*
X55011905Y-8014342D02*
X55059524Y-8109580D01*
X55059524Y-8109580D02*
X55107143Y-8157200D01*
X55107143Y-8157200D02*
X55202381Y-8204819D01*
X55202381Y-8204819D02*
X55392857Y-8204819D01*
X55392857Y-8204819D02*
X55488095Y-8157200D01*
X55488095Y-8157200D02*
X55535714Y-8109580D01*
X55535714Y-8109580D02*
X55583333Y-8014342D01*
X55583333Y-8014342D02*
X55583333Y-7204819D01*
X56583333Y-8204819D02*
X56011905Y-8204819D01*
X56297619Y-8204819D02*
X56297619Y-7204819D01*
X56297619Y-7204819D02*
X56202381Y-7347676D01*
X56202381Y-7347676D02*
X56107143Y-7442914D01*
X56107143Y-7442914D02*
X56011905Y-7490533D01*
X57535714Y-8204819D02*
X56964286Y-8204819D01*
X57250000Y-8204819D02*
X57250000Y-7204819D01*
X57250000Y-7204819D02*
X57154762Y-7347676D01*
X57154762Y-7347676D02*
X57059524Y-7442914D01*
X57059524Y-7442914D02*
X56964286Y-7490533D01*
X84854819Y-13666666D02*
X84378628Y-13999999D01*
X84854819Y-14238094D02*
X83854819Y-14238094D01*
X83854819Y-14238094D02*
X83854819Y-13857142D01*
X83854819Y-13857142D02*
X83902438Y-13761904D01*
X83902438Y-13761904D02*
X83950057Y-13714285D01*
X83950057Y-13714285D02*
X84045295Y-13666666D01*
X84045295Y-13666666D02*
X84188152Y-13666666D01*
X84188152Y-13666666D02*
X84283390Y-13714285D01*
X84283390Y-13714285D02*
X84331009Y-13761904D01*
X84331009Y-13761904D02*
X84378628Y-13857142D01*
X84378628Y-13857142D02*
X84378628Y-14238094D01*
X83950057Y-13285713D02*
X83902438Y-13238094D01*
X83902438Y-13238094D02*
X83854819Y-13142856D01*
X83854819Y-13142856D02*
X83854819Y-12904761D01*
X83854819Y-12904761D02*
X83902438Y-12809523D01*
X83902438Y-12809523D02*
X83950057Y-12761904D01*
X83950057Y-12761904D02*
X84045295Y-12714285D01*
X84045295Y-12714285D02*
X84140533Y-12714285D01*
X84140533Y-12714285D02*
X84283390Y-12761904D01*
X84283390Y-12761904D02*
X84854819Y-13333332D01*
X84854819Y-13333332D02*
X84854819Y-12714285D01*
X52583333Y5045181D02*
X52250000Y5521372D01*
X52011905Y5045181D02*
X52011905Y6045181D01*
X52011905Y6045181D02*
X52392857Y6045181D01*
X52392857Y6045181D02*
X52488095Y5997562D01*
X52488095Y5997562D02*
X52535714Y5949943D01*
X52535714Y5949943D02*
X52583333Y5854705D01*
X52583333Y5854705D02*
X52583333Y5711848D01*
X52583333Y5711848D02*
X52535714Y5616610D01*
X52535714Y5616610D02*
X52488095Y5568991D01*
X52488095Y5568991D02*
X52392857Y5521372D01*
X52392857Y5521372D02*
X52011905Y5521372D01*
X53488095Y6045181D02*
X53011905Y6045181D01*
X53011905Y6045181D02*
X52964286Y5568991D01*
X52964286Y5568991D02*
X53011905Y5616610D01*
X53011905Y5616610D02*
X53107143Y5664229D01*
X53107143Y5664229D02*
X53345238Y5664229D01*
X53345238Y5664229D02*
X53440476Y5616610D01*
X53440476Y5616610D02*
X53488095Y5568991D01*
X53488095Y5568991D02*
X53535714Y5473753D01*
X53535714Y5473753D02*
X53535714Y5235658D01*
X53535714Y5235658D02*
X53488095Y5140420D01*
X53488095Y5140420D02*
X53440476Y5092800D01*
X53440476Y5092800D02*
X53345238Y5045181D01*
X53345238Y5045181D02*
X53107143Y5045181D01*
X53107143Y5045181D02*
X53011905Y5092800D01*
X53011905Y5092800D02*
X52964286Y5140420D01*
X85988095Y-28004819D02*
X85988095Y-27004819D01*
X85988095Y-27481009D02*
X86559523Y-27481009D01*
X86559523Y-28004819D02*
X86559523Y-27004819D01*
X87464285Y-27338152D02*
X87464285Y-28004819D01*
X87226190Y-26957200D02*
X86988095Y-27671485D01*
X86988095Y-27671485D02*
X87607142Y-27671485D01*
X-11145181Y-13916666D02*
X-11621372Y-14249999D01*
X-11145181Y-14488094D02*
X-12145181Y-14488094D01*
X-12145181Y-14488094D02*
X-12145181Y-14107142D01*
X-12145181Y-14107142D02*
X-12097562Y-14011904D01*
X-12097562Y-14011904D02*
X-12049943Y-13964285D01*
X-12049943Y-13964285D02*
X-11954705Y-13916666D01*
X-11954705Y-13916666D02*
X-11811848Y-13916666D01*
X-11811848Y-13916666D02*
X-11716610Y-13964285D01*
X-11716610Y-13964285D02*
X-11668991Y-14011904D01*
X-11668991Y-14011904D02*
X-11621372Y-14107142D01*
X-11621372Y-14107142D02*
X-11621372Y-14488094D01*
X-11145181Y-12964285D02*
X-11145181Y-13535713D01*
X-11145181Y-13249999D02*
X-12145181Y-13249999D01*
X-12145181Y-13249999D02*
X-12002324Y-13345237D01*
X-12002324Y-13345237D02*
X-11907086Y-13440475D01*
X-11907086Y-13440475D02*
X-11859467Y-13535713D01*
X-15511905Y-28004819D02*
X-15511905Y-27004819D01*
X-15511905Y-27481009D02*
X-14940477Y-27481009D01*
X-14940477Y-28004819D02*
X-14940477Y-27004819D01*
X-14511905Y-27100057D02*
X-14464286Y-27052438D01*
X-14464286Y-27052438D02*
X-14369048Y-27004819D01*
X-14369048Y-27004819D02*
X-14130953Y-27004819D01*
X-14130953Y-27004819D02*
X-14035715Y-27052438D01*
X-14035715Y-27052438D02*
X-13988096Y-27100057D01*
X-13988096Y-27100057D02*
X-13940477Y-27195295D01*
X-13940477Y-27195295D02*
X-13940477Y-27290533D01*
X-13940477Y-27290533D02*
X-13988096Y-27433390D01*
X-13988096Y-27433390D02*
X-14559524Y-28004819D01*
X-14559524Y-28004819D02*
X-13940477Y-28004819D01*
X54104819Y-3916666D02*
X53628628Y-4249999D01*
X54104819Y-4488094D02*
X53104819Y-4488094D01*
X53104819Y-4488094D02*
X53104819Y-4107142D01*
X53104819Y-4107142D02*
X53152438Y-4011904D01*
X53152438Y-4011904D02*
X53200057Y-3964285D01*
X53200057Y-3964285D02*
X53295295Y-3916666D01*
X53295295Y-3916666D02*
X53438152Y-3916666D01*
X53438152Y-3916666D02*
X53533390Y-3964285D01*
X53533390Y-3964285D02*
X53581009Y-4011904D01*
X53581009Y-4011904D02*
X53628628Y-4107142D01*
X53628628Y-4107142D02*
X53628628Y-4488094D01*
X53104819Y-3059523D02*
X53104819Y-3249999D01*
X53104819Y-3249999D02*
X53152438Y-3345237D01*
X53152438Y-3345237D02*
X53200057Y-3392856D01*
X53200057Y-3392856D02*
X53342914Y-3488094D01*
X53342914Y-3488094D02*
X53533390Y-3535713D01*
X53533390Y-3535713D02*
X53914342Y-3535713D01*
X53914342Y-3535713D02*
X54009580Y-3488094D01*
X54009580Y-3488094D02*
X54057200Y-3440475D01*
X54057200Y-3440475D02*
X54104819Y-3345237D01*
X54104819Y-3345237D02*
X54104819Y-3154761D01*
X54104819Y-3154761D02*
X54057200Y-3059523D01*
X54057200Y-3059523D02*
X54009580Y-3011904D01*
X54009580Y-3011904D02*
X53914342Y-2964285D01*
X53914342Y-2964285D02*
X53676247Y-2964285D01*
X53676247Y-2964285D02*
X53581009Y-3011904D01*
X53581009Y-3011904D02*
X53533390Y-3059523D01*
X53533390Y-3059523D02*
X53485771Y-3154761D01*
X53485771Y-3154761D02*
X53485771Y-3345237D01*
X53485771Y-3345237D02*
X53533390Y-3440475D01*
X53533390Y-3440475D02*
X53581009Y-3488094D01*
X53581009Y-3488094D02*
X53676247Y-3535713D01*
D12*
X-12761905Y-2457419D02*
X-12761905Y-3266942D01*
X-12761905Y-3266942D02*
X-12714286Y-3362180D01*
X-12714286Y-3362180D02*
X-12666667Y-3409800D01*
X-12666667Y-3409800D02*
X-12571429Y-3457419D01*
X-12571429Y-3457419D02*
X-12380953Y-3457419D01*
X-12380953Y-3457419D02*
X-12285715Y-3409800D01*
X-12285715Y-3409800D02*
X-12238096Y-3362180D01*
X-12238096Y-3362180D02*
X-12190477Y-3266942D01*
X-12190477Y-3266942D02*
X-12190477Y-2457419D01*
X-11809524Y-2457419D02*
X-11190477Y-2457419D01*
X-11190477Y-2457419D02*
X-11523810Y-2838371D01*
X-11523810Y-2838371D02*
X-11380953Y-2838371D01*
X-11380953Y-2838371D02*
X-11285715Y-2885990D01*
X-11285715Y-2885990D02*
X-11238096Y-2933609D01*
X-11238096Y-2933609D02*
X-11190477Y-3028847D01*
X-11190477Y-3028847D02*
X-11190477Y-3266942D01*
X-11190477Y-3266942D02*
X-11238096Y-3362180D01*
X-11238096Y-3362180D02*
X-11285715Y-3409800D01*
X-11285715Y-3409800D02*
X-11380953Y-3457419D01*
X-11380953Y-3457419D02*
X-11666667Y-3457419D01*
X-11666667Y-3457419D02*
X-11761905Y-3409800D01*
X-11761905Y-3409800D02*
X-11809524Y-3362180D01*
D13*
X-15696895Y-9173903D02*
X-14709923Y-9173903D01*
X-15203409Y-9667388D02*
X-15203409Y-8680417D01*
X-9292278Y-9173903D02*
X-8305306Y-9173903D01*
X-8305306Y-9173903D02*
X-9292277Y-9173903D01*
X-14709923Y-9173903D02*
X-15696894Y-9173903D01*
X-15203409Y-9667388D02*
X-15203409Y-8680417D01*
D11*
X53854819Y-9666666D02*
X53378628Y-9999999D01*
X53854819Y-10238094D02*
X52854819Y-10238094D01*
X52854819Y-10238094D02*
X52854819Y-9857142D01*
X52854819Y-9857142D02*
X52902438Y-9761904D01*
X52902438Y-9761904D02*
X52950057Y-9714285D01*
X52950057Y-9714285D02*
X53045295Y-9666666D01*
X53045295Y-9666666D02*
X53188152Y-9666666D01*
X53188152Y-9666666D02*
X53283390Y-9714285D01*
X53283390Y-9714285D02*
X53331009Y-9761904D01*
X53331009Y-9761904D02*
X53378628Y-9857142D01*
X53378628Y-9857142D02*
X53378628Y-10238094D01*
X53283390Y-9095237D02*
X53235771Y-9190475D01*
X53235771Y-9190475D02*
X53188152Y-9238094D01*
X53188152Y-9238094D02*
X53092914Y-9285713D01*
X53092914Y-9285713D02*
X53045295Y-9285713D01*
X53045295Y-9285713D02*
X52950057Y-9238094D01*
X52950057Y-9238094D02*
X52902438Y-9190475D01*
X52902438Y-9190475D02*
X52854819Y-9095237D01*
X52854819Y-9095237D02*
X52854819Y-8904761D01*
X52854819Y-8904761D02*
X52902438Y-8809523D01*
X52902438Y-8809523D02*
X52950057Y-8761904D01*
X52950057Y-8761904D02*
X53045295Y-8714285D01*
X53045295Y-8714285D02*
X53092914Y-8714285D01*
X53092914Y-8714285D02*
X53188152Y-8761904D01*
X53188152Y-8761904D02*
X53235771Y-8809523D01*
X53235771Y-8809523D02*
X53283390Y-8904761D01*
X53283390Y-8904761D02*
X53283390Y-9095237D01*
X53283390Y-9095237D02*
X53331009Y-9190475D01*
X53331009Y-9190475D02*
X53378628Y-9238094D01*
X53378628Y-9238094D02*
X53473866Y-9285713D01*
X53473866Y-9285713D02*
X53664342Y-9285713D01*
X53664342Y-9285713D02*
X53759580Y-9238094D01*
X53759580Y-9238094D02*
X53807200Y-9190475D01*
X53807200Y-9190475D02*
X53854819Y-9095237D01*
X53854819Y-9095237D02*
X53854819Y-8904761D01*
X53854819Y-8904761D02*
X53807200Y-8809523D01*
X53807200Y-8809523D02*
X53759580Y-8761904D01*
X53759580Y-8761904D02*
X53664342Y-8714285D01*
X53664342Y-8714285D02*
X53473866Y-8714285D01*
X53473866Y-8714285D02*
X53378628Y-8761904D01*
X53378628Y-8761904D02*
X53331009Y-8809523D01*
X53331009Y-8809523D02*
X53283390Y-8904761D01*
X53054819Y-27642857D02*
X52578628Y-27976190D01*
X53054819Y-28214285D02*
X52054819Y-28214285D01*
X52054819Y-28214285D02*
X52054819Y-27833333D01*
X52054819Y-27833333D02*
X52102438Y-27738095D01*
X52102438Y-27738095D02*
X52150057Y-27690476D01*
X52150057Y-27690476D02*
X52245295Y-27642857D01*
X52245295Y-27642857D02*
X52388152Y-27642857D01*
X52388152Y-27642857D02*
X52483390Y-27690476D01*
X52483390Y-27690476D02*
X52531009Y-27738095D01*
X52531009Y-27738095D02*
X52578628Y-27833333D01*
X52578628Y-27833333D02*
X52578628Y-28214285D01*
X53054819Y-26690476D02*
X53054819Y-27261904D01*
X53054819Y-26976190D02*
X52054819Y-26976190D01*
X52054819Y-26976190D02*
X52197676Y-27071428D01*
X52197676Y-27071428D02*
X52292914Y-27166666D01*
X52292914Y-27166666D02*
X52340533Y-27261904D01*
X52388152Y-25833333D02*
X53054819Y-25833333D01*
X52007200Y-26071428D02*
X52721485Y-26309523D01*
X52721485Y-26309523D02*
X52721485Y-25690476D01*
X24893095Y16045181D02*
X24893095Y15235658D01*
X24893095Y15235658D02*
X24940714Y15140420D01*
X24940714Y15140420D02*
X24988333Y15092800D01*
X24988333Y15092800D02*
X25083571Y15045181D01*
X25083571Y15045181D02*
X25274047Y15045181D01*
X25274047Y15045181D02*
X25369285Y15092800D01*
X25369285Y15092800D02*
X25416904Y15140420D01*
X25416904Y15140420D02*
X25464523Y15235658D01*
X25464523Y15235658D02*
X25464523Y16045181D01*
X25845476Y16045181D02*
X26512142Y16045181D01*
X26512142Y16045181D02*
X26083571Y15045181D01*
X10854819Y333334D02*
X10378628Y1D01*
X10854819Y-238094D02*
X9854819Y-238094D01*
X9854819Y-238094D02*
X9854819Y142858D01*
X9854819Y142858D02*
X9902438Y238096D01*
X9902438Y238096D02*
X9950057Y285715D01*
X9950057Y285715D02*
X10045295Y333334D01*
X10045295Y333334D02*
X10188152Y333334D01*
X10188152Y333334D02*
X10283390Y285715D01*
X10283390Y285715D02*
X10331009Y238096D01*
X10331009Y238096D02*
X10378628Y142858D01*
X10378628Y142858D02*
X10378628Y-238094D01*
X10188152Y1190477D02*
X10854819Y1190477D01*
X9807200Y952382D02*
X10521485Y714287D01*
X10521485Y714287D02*
X10521485Y1333334D01*
X16554819Y-27642857D02*
X16078628Y-27976190D01*
X16554819Y-28214285D02*
X15554819Y-28214285D01*
X15554819Y-28214285D02*
X15554819Y-27833333D01*
X15554819Y-27833333D02*
X15602438Y-27738095D01*
X15602438Y-27738095D02*
X15650057Y-27690476D01*
X15650057Y-27690476D02*
X15745295Y-27642857D01*
X15745295Y-27642857D02*
X15888152Y-27642857D01*
X15888152Y-27642857D02*
X15983390Y-27690476D01*
X15983390Y-27690476D02*
X16031009Y-27738095D01*
X16031009Y-27738095D02*
X16078628Y-27833333D01*
X16078628Y-27833333D02*
X16078628Y-28214285D01*
X16554819Y-26690476D02*
X16554819Y-27261904D01*
X16554819Y-26976190D02*
X15554819Y-26976190D01*
X15554819Y-26976190D02*
X15697676Y-27071428D01*
X15697676Y-27071428D02*
X15792914Y-27166666D01*
X15792914Y-27166666D02*
X15840533Y-27261904D01*
X15554819Y-26357142D02*
X15554819Y-25738095D01*
X15554819Y-25738095D02*
X15935771Y-26071428D01*
X15935771Y-26071428D02*
X15935771Y-25928571D01*
X15935771Y-25928571D02*
X15983390Y-25833333D01*
X15983390Y-25833333D02*
X16031009Y-25785714D01*
X16031009Y-25785714D02*
X16126247Y-25738095D01*
X16126247Y-25738095D02*
X16364342Y-25738095D01*
X16364342Y-25738095D02*
X16459580Y-25785714D01*
X16459580Y-25785714D02*
X16507200Y-25833333D01*
X16507200Y-25833333D02*
X16554819Y-25928571D01*
X16554819Y-25928571D02*
X16554819Y-26214285D01*
X16554819Y-26214285D02*
X16507200Y-26309523D01*
X16507200Y-26309523D02*
X16459580Y-26357142D01*
X52333333Y-604819D02*
X52000000Y-128628D01*
X51761905Y-604819D02*
X51761905Y395181D01*
X51761905Y395181D02*
X52142857Y395181D01*
X52142857Y395181D02*
X52238095Y347562D01*
X52238095Y347562D02*
X52285714Y299943D01*
X52285714Y299943D02*
X52333333Y204705D01*
X52333333Y204705D02*
X52333333Y61848D01*
X52333333Y61848D02*
X52285714Y-33390D01*
X52285714Y-33390D02*
X52238095Y-81009D01*
X52238095Y-81009D02*
X52142857Y-128628D01*
X52142857Y-128628D02*
X51761905Y-128628D01*
X52666667Y395181D02*
X53285714Y395181D01*
X53285714Y395181D02*
X52952381Y14229D01*
X52952381Y14229D02*
X53095238Y14229D01*
X53095238Y14229D02*
X53190476Y-33390D01*
X53190476Y-33390D02*
X53238095Y-81009D01*
X53238095Y-81009D02*
X53285714Y-176247D01*
X53285714Y-176247D02*
X53285714Y-414342D01*
X53285714Y-414342D02*
X53238095Y-509580D01*
X53238095Y-509580D02*
X53190476Y-557200D01*
X53190476Y-557200D02*
X53095238Y-604819D01*
X53095238Y-604819D02*
X52809524Y-604819D01*
X52809524Y-604819D02*
X52714286Y-557200D01*
X52714286Y-557200D02*
X52666667Y-509580D01*
D12*
X83238095Y-2207419D02*
X83238095Y-3016942D01*
X83238095Y-3016942D02*
X83285714Y-3112180D01*
X83285714Y-3112180D02*
X83333333Y-3159800D01*
X83333333Y-3159800D02*
X83428571Y-3207419D01*
X83428571Y-3207419D02*
X83619047Y-3207419D01*
X83619047Y-3207419D02*
X83714285Y-3159800D01*
X83714285Y-3159800D02*
X83761904Y-3112180D01*
X83761904Y-3112180D02*
X83809523Y-3016942D01*
X83809523Y-3016942D02*
X83809523Y-2207419D01*
X84714285Y-2540752D02*
X84714285Y-3207419D01*
X84476190Y-2159800D02*
X84238095Y-2874085D01*
X84238095Y-2874085D02*
X84857142Y-2874085D01*
D13*
X87694694Y-8923903D02*
X86707723Y-8923903D01*
X81290077Y-8923903D02*
X80303106Y-8923903D01*
X80796591Y-9417388D02*
X80796591Y-8430417D01*
X86707722Y-8923903D02*
X87694694Y-8923903D01*
X80303105Y-8923903D02*
X81290077Y-8923903D01*
X80796591Y-9417388D02*
X80796591Y-8430417D01*
D12*
X61238095Y11792581D02*
X61238095Y10983058D01*
X61238095Y10983058D02*
X61285714Y10887820D01*
X61285714Y10887820D02*
X61333333Y10840200D01*
X61333333Y10840200D02*
X61428571Y10792581D01*
X61428571Y10792581D02*
X61619047Y10792581D01*
X61619047Y10792581D02*
X61714285Y10840200D01*
X61714285Y10840200D02*
X61761904Y10887820D01*
X61761904Y10887820D02*
X61809523Y10983058D01*
X61809523Y10983058D02*
X61809523Y11792581D01*
X62238095Y11697343D02*
X62285714Y11744962D01*
X62285714Y11744962D02*
X62380952Y11792581D01*
X62380952Y11792581D02*
X62619047Y11792581D01*
X62619047Y11792581D02*
X62714285Y11744962D01*
X62714285Y11744962D02*
X62761904Y11697343D01*
X62761904Y11697343D02*
X62809523Y11602105D01*
X62809523Y11602105D02*
X62809523Y11506867D01*
X62809523Y11506867D02*
X62761904Y11364010D01*
X62761904Y11364010D02*
X62190476Y10792581D01*
X62190476Y10792581D02*
X62809523Y10792581D01*
D13*
X65694694Y5076097D02*
X64707723Y5076097D01*
X59290077Y5076097D02*
X58303106Y5076097D01*
X58796591Y4582612D02*
X58796591Y5569583D01*
X65694694Y5076097D02*
X64707723Y5076097D01*
X59290077Y5076097D02*
X58303106Y5076097D01*
X58796591Y4582612D02*
X58796591Y5569583D01*
D11*
X-15511905Y11745181D02*
X-15511905Y12745181D01*
X-15511905Y12268991D02*
X-14940477Y12268991D01*
X-14940477Y11745181D02*
X-14940477Y12745181D01*
X-13940477Y11745181D02*
X-14511905Y11745181D01*
X-14226191Y11745181D02*
X-14226191Y12745181D01*
X-14226191Y12745181D02*
X-14321429Y12602324D01*
X-14321429Y12602324D02*
X-14416667Y12507086D01*
X-14416667Y12507086D02*
X-14511905Y12459467D01*
X85988095Y11745181D02*
X85988095Y12745181D01*
X85988095Y12268991D02*
X86559523Y12268991D01*
X86559523Y11745181D02*
X86559523Y12745181D01*
X86940476Y12745181D02*
X87559523Y12745181D01*
X87559523Y12745181D02*
X87226190Y12364229D01*
X87226190Y12364229D02*
X87369047Y12364229D01*
X87369047Y12364229D02*
X87464285Y12316610D01*
X87464285Y12316610D02*
X87511904Y12268991D01*
X87511904Y12268991D02*
X87559523Y12173753D01*
X87559523Y12173753D02*
X87559523Y11935658D01*
X87559523Y11935658D02*
X87511904Y11840420D01*
X87511904Y11840420D02*
X87464285Y11792800D01*
X87464285Y11792800D02*
X87369047Y11745181D01*
X87369047Y11745181D02*
X87083333Y11745181D01*
X87083333Y11745181D02*
X86988095Y11792800D01*
X86988095Y11792800D02*
X86940476Y11840420D01*
D14*
%TO.C,R9*%
X60015000Y727064D02*
X60015000Y272936D01*
X61485000Y727064D02*
X61485000Y272936D01*
D15*
%TO.C,U5*%
X3904000Y16981000D02*
X16096000Y16981000D01*
X3904000Y3519000D02*
X3904000Y16981000D01*
X16096000Y16981000D02*
X16096000Y3519000D01*
X16096000Y3519000D02*
X3904000Y3519000D01*
D16*
%TO.C,U1*%
X4400000Y-14440000D02*
X4400000Y-22060000D01*
X5425000Y-24825000D02*
X7700000Y-24825000D01*
X7250000Y-8850000D02*
X7250000Y-11675000D01*
X7250000Y-11675000D02*
X5425000Y-11675000D01*
X7700000Y-24825000D02*
X7700000Y-27400000D01*
X7700000Y-29850000D02*
X16300000Y-29850000D01*
X8350000Y-8850000D02*
X7250000Y-8850000D01*
X15650000Y-8850000D02*
X16750000Y-8850000D01*
X16300000Y-24825000D02*
X18550000Y-24825000D01*
X16300000Y-27400000D02*
X16300000Y-24825000D01*
X16750000Y-8850000D02*
X16750000Y-11675000D01*
X16750000Y-11675000D02*
X18575000Y-11675000D01*
X19900000Y-13500000D02*
X21400000Y-13500000D01*
X21400000Y-13500000D02*
X21400000Y-14700000D01*
X21400000Y-22050000D02*
X21400000Y-23000000D01*
X21400000Y-23000000D02*
X19850000Y-23000000D01*
D17*
X22550000Y-20750000D02*
G75*
G02*
X22350000Y-20750000I-100000J0D01*
G01*
X22350000Y-20750000D02*
G75*
G02*
X22550000Y-20750000I100000J0D01*
G01*
D16*
%TO.C,U11*%
X52400000Y-14440000D02*
X52400000Y-22060000D01*
X53425000Y-24825000D02*
X55700000Y-24825000D01*
X55250000Y-8850000D02*
X55250000Y-11675000D01*
X55250000Y-11675000D02*
X53425000Y-11675000D01*
X55700000Y-24825000D02*
X55700000Y-27400000D01*
X55700000Y-29850000D02*
X64300000Y-29850000D01*
X56350000Y-8850000D02*
X55250000Y-8850000D01*
X63650000Y-8850000D02*
X64750000Y-8850000D01*
X64300000Y-24825000D02*
X66550000Y-24825000D01*
X64300000Y-27400000D02*
X64300000Y-24825000D01*
X64750000Y-8850000D02*
X64750000Y-11675000D01*
X64750000Y-11675000D02*
X66575000Y-11675000D01*
X67900000Y-13500000D02*
X69400000Y-13500000D01*
X69400000Y-13500000D02*
X69400000Y-14700000D01*
X69400000Y-22050000D02*
X69400000Y-23000000D01*
X69400000Y-23000000D02*
X67850000Y-23000000D01*
D17*
X70550000Y-20750000D02*
G75*
G02*
X70350000Y-20750000I-100000J0D01*
G01*
X70350000Y-20750000D02*
G75*
G02*
X70550000Y-20750000I100000J0D01*
G01*
D14*
%TO.C,R2*%
X82015000Y-13272936D02*
X82015000Y-13727064D01*
X83485000Y-13272936D02*
X83485000Y-13727064D01*
%TO.C,R5*%
X52727064Y4735000D02*
X52272936Y4735000D01*
X52727064Y3265000D02*
X52272936Y3265000D01*
%TO.C,R1*%
X-13985000Y-13522936D02*
X-13985000Y-13977064D01*
X-12515000Y-13522936D02*
X-12515000Y-13977064D01*
%TO.C,R6*%
X51265000Y-3522936D02*
X51265000Y-3977064D01*
X52735000Y-3522936D02*
X52735000Y-3977064D01*
D18*
%TO.C,G\u002A\u002A\u002A*%
G36*
X56721505Y-36543251D02*
G01*
X56810900Y-36549250D01*
X56886808Y-36560798D01*
X56889553Y-36561396D01*
X56976745Y-36584921D01*
X57055183Y-36614417D01*
X57122896Y-36648501D01*
X57177913Y-36685791D01*
X57218262Y-36724904D01*
X57241974Y-36764457D01*
X57247076Y-36803069D01*
X57245555Y-36811103D01*
X57226337Y-36849735D01*
X57189655Y-36889580D01*
X57138920Y-36928329D01*
X57077540Y-36963675D01*
X57008923Y-36993308D01*
X56949092Y-37011867D01*
X56818996Y-37036318D01*
X56679783Y-37046805D01*
X56538576Y-37042941D01*
X56482625Y-37037228D01*
X56388239Y-37020298D01*
X56299161Y-36994524D01*
X56218775Y-36961455D01*
X56150465Y-36922643D01*
X56097615Y-36879637D01*
X56072590Y-36849326D01*
X56056101Y-36808146D01*
X56059363Y-36765882D01*
X56081086Y-36723771D01*
X56119983Y-36683050D01*
X56174764Y-36644955D01*
X56244141Y-36610721D01*
X56326825Y-36581586D01*
X56361578Y-36572081D01*
X56438658Y-36557218D01*
X56528757Y-36547370D01*
X56625248Y-36542669D01*
X56721505Y-36543251D01*
G37*
G36*
X55462513Y-33245516D02*
G01*
X55574428Y-33275277D01*
X55678761Y-33322875D01*
X55773608Y-33386817D01*
X55857069Y-33465608D01*
X55927243Y-33557755D01*
X55982226Y-33661763D01*
X56016831Y-33763042D01*
X56028932Y-33832513D01*
X56033504Y-33913418D01*
X56030680Y-33997460D01*
X56020593Y-34076341D01*
X56011174Y-34117508D01*
X55969691Y-34228169D01*
X55910791Y-34329303D01*
X55836529Y-34418918D01*
X55748964Y-34495022D01*
X55650152Y-34555623D01*
X55542149Y-34598731D01*
X55503506Y-34609095D01*
X55441994Y-34618937D01*
X55368698Y-34623579D01*
X55292054Y-34623032D01*
X55220498Y-34617309D01*
X55170995Y-34608631D01*
X55060282Y-34571365D01*
X54959216Y-34516554D01*
X54869374Y-34446217D01*
X54792331Y-34362377D01*
X54729664Y-34267055D01*
X54682949Y-34162272D01*
X54653762Y-34050050D01*
X54643679Y-33932409D01*
X54643679Y-33932375D01*
X54653684Y-33813146D01*
X54682830Y-33699645D01*
X54729815Y-33593976D01*
X54793335Y-33498242D01*
X54872087Y-33414546D01*
X54964768Y-33344992D01*
X55029603Y-33309438D01*
X55103870Y-33276486D01*
X55168772Y-33254413D01*
X55231897Y-33241430D01*
X55300836Y-33235748D01*
X55344917Y-33235088D01*
X55462513Y-33245516D01*
G37*
G36*
X53587391Y-37517955D02*
G01*
X53619868Y-37527489D01*
X53668225Y-37543652D01*
X53678481Y-37547180D01*
X53833781Y-37606490D01*
X53969862Y-37671126D01*
X54088265Y-37742259D01*
X54190526Y-37821064D01*
X54278183Y-37908715D01*
X54352775Y-38006384D01*
X54411283Y-38106292D01*
X54432521Y-38148199D01*
X54444886Y-38175501D01*
X54449429Y-38192287D01*
X54447201Y-38202651D01*
X54439251Y-38210682D01*
X54438276Y-38211441D01*
X54411019Y-38228698D01*
X54368668Y-38251059D01*
X54316014Y-38276383D01*
X54257853Y-38302528D01*
X54198976Y-38327352D01*
X54144177Y-38348714D01*
X54098250Y-38364473D01*
X54090792Y-38366695D01*
X54019677Y-38383740D01*
X53947061Y-38395085D01*
X53878044Y-38400382D01*
X53817726Y-38399282D01*
X53771208Y-38391436D01*
X53764029Y-38389033D01*
X53719803Y-38366241D01*
X53681397Y-38332084D01*
X53647397Y-38284375D01*
X53616391Y-38220927D01*
X53586963Y-38139554D01*
X53573000Y-38093540D01*
X53546084Y-37973712D01*
X53531030Y-37845726D01*
X53528670Y-37718909D01*
X53533389Y-37650112D01*
X53538851Y-37602433D01*
X53544331Y-37561546D01*
X53549076Y-37532741D01*
X53551554Y-37522605D01*
X53556603Y-37516165D01*
X53567426Y-37514398D01*
X53587391Y-37517955D01*
G37*
G36*
X59754469Y-37507608D02*
G01*
X59756503Y-37519367D01*
X59758884Y-37548644D01*
X59761391Y-37591801D01*
X59763805Y-37645196D01*
X59765287Y-37685735D01*
X59767201Y-37755485D01*
X59767443Y-37809771D01*
X59765669Y-37854253D01*
X59761538Y-37894592D01*
X59754707Y-37936449D01*
X59748086Y-37969917D01*
X59727964Y-38057660D01*
X59705324Y-38139709D01*
X59681284Y-38212922D01*
X59656958Y-38274156D01*
X59633462Y-38320271D01*
X59614750Y-38345461D01*
X59569188Y-38376633D01*
X59507750Y-38395939D01*
X59432277Y-38403093D01*
X59344612Y-38397808D01*
X59310065Y-38392746D01*
X59215490Y-38370635D01*
X59112003Y-38334263D01*
X58997300Y-38282802D01*
X58980982Y-38274729D01*
X58933863Y-38251077D01*
X58894022Y-38230874D01*
X58865050Y-38215959D01*
X58850540Y-38208166D01*
X58849591Y-38207545D01*
X58849430Y-38194144D01*
X58858851Y-38166275D01*
X58876317Y-38127482D01*
X58900289Y-38081308D01*
X58917682Y-38050637D01*
X58991819Y-37944397D01*
X59084881Y-37846041D01*
X59195813Y-37756464D01*
X59323559Y-37676561D01*
X59410325Y-37632468D01*
X59456979Y-37611624D01*
X59509851Y-37589631D01*
X59565308Y-37567806D01*
X59619714Y-37547469D01*
X59669435Y-37529938D01*
X59710836Y-37516532D01*
X59740283Y-37508569D01*
X59754140Y-37507369D01*
X59754469Y-37507608D01*
G37*
G36*
X54365913Y-36388356D02*
G01*
X54367690Y-36388762D01*
X54402501Y-36398627D01*
X54428720Y-36411259D01*
X54448007Y-36429782D01*
X54462023Y-36457322D01*
X54472427Y-36497003D01*
X54480878Y-36551950D01*
X54488003Y-36615250D01*
X54508877Y-36796398D01*
X54535034Y-36991024D01*
X54565434Y-37192406D01*
X54599038Y-37393821D01*
X54634808Y-37588547D01*
X54651440Y-37672729D01*
X54663550Y-37733540D01*
X54674018Y-37787973D01*
X54682158Y-37832299D01*
X54687281Y-37862787D01*
X54688750Y-37875019D01*
X54680945Y-37889045D01*
X54661847Y-37908989D01*
X54637927Y-37929262D01*
X54615658Y-37944278D01*
X54603341Y-37948750D01*
X54595783Y-37940422D01*
X54581032Y-37918757D01*
X54565163Y-37893187D01*
X54519328Y-37826333D01*
X54460608Y-37755195D01*
X54394559Y-37685886D01*
X54326734Y-37624516D01*
X54305635Y-37607609D01*
X54228296Y-37550739D01*
X54150815Y-37500354D01*
X54069329Y-37454489D01*
X53979976Y-37411178D01*
X53878892Y-37368455D01*
X53762216Y-37324356D01*
X53717855Y-37308540D01*
X53714260Y-37296682D01*
X53719646Y-37268786D01*
X53733014Y-37227483D01*
X53753364Y-37175400D01*
X53779698Y-37115167D01*
X53811014Y-37049413D01*
X53832522Y-37006972D01*
X53888808Y-36905446D01*
X53948814Y-36812131D01*
X54016126Y-36722237D01*
X54094333Y-36630976D01*
X54187023Y-36533559D01*
X54187774Y-36532802D01*
X54239038Y-36481317D01*
X54277864Y-36443185D01*
X54306552Y-36416562D01*
X54327401Y-36399610D01*
X54342711Y-36390485D01*
X54354782Y-36387348D01*
X54365913Y-36388356D01*
G37*
G36*
X57958259Y-33523035D02*
G01*
X58080152Y-33549227D01*
X58198353Y-33593704D01*
X58314487Y-33657187D01*
X58430182Y-33740397D01*
X58522930Y-33821106D01*
X58578397Y-33876020D01*
X58617996Y-33923325D01*
X58643825Y-33966602D01*
X58657982Y-34009431D01*
X58662567Y-34055392D01*
X58662583Y-34059375D01*
X58652860Y-34129144D01*
X58624283Y-34189455D01*
X58577270Y-34239496D01*
X58564440Y-34249085D01*
X58533824Y-34267823D01*
X58503653Y-34278269D01*
X58464710Y-34283197D01*
X58448023Y-34284100D01*
X58395101Y-34283255D01*
X58354794Y-34276140D01*
X58345292Y-34272540D01*
X58325231Y-34259476D01*
X58294541Y-34234982D01*
X58257508Y-34202646D01*
X58220969Y-34168523D01*
X58136285Y-34093320D01*
X58056934Y-34036988D01*
X57980872Y-33998560D01*
X57906055Y-33977067D01*
X57830440Y-33971543D01*
X57807746Y-33972816D01*
X57727578Y-33988866D01*
X57644742Y-34022368D01*
X57563604Y-34070810D01*
X57488531Y-34131680D01*
X57437166Y-34185964D01*
X57389989Y-34233228D01*
X57340824Y-34261885D01*
X57284487Y-34274253D01*
X57239081Y-34274521D01*
X57170483Y-34262797D01*
X57115025Y-34235269D01*
X57070329Y-34190529D01*
X57053013Y-34164266D01*
X57029630Y-34104917D01*
X57023281Y-34040085D01*
X57034282Y-33976834D01*
X57043618Y-33953542D01*
X57064393Y-33921184D01*
X57098639Y-33880007D01*
X57142690Y-33833614D01*
X57192879Y-33785609D01*
X57245541Y-33739596D01*
X57297009Y-33699180D01*
X57316303Y-33685482D01*
X57433128Y-33614385D01*
X57548156Y-33562996D01*
X57664229Y-33530369D01*
X57784190Y-33515560D01*
X57831047Y-33514407D01*
X57958259Y-33523035D01*
G37*
G36*
X59028975Y-36447316D02*
G01*
X59144111Y-36558973D01*
X59253087Y-36683643D01*
X59352859Y-36817063D01*
X59440383Y-36954966D01*
X59512612Y-37093087D01*
X59546683Y-37172598D01*
X59568329Y-37229679D01*
X59581767Y-37269908D01*
X59587533Y-37295712D01*
X59586161Y-37309516D01*
X59578184Y-37313745D01*
X59577788Y-37313750D01*
X59559118Y-37317847D01*
X59525312Y-37329037D01*
X59480506Y-37345669D01*
X59428839Y-37366092D01*
X59374451Y-37388654D01*
X59321478Y-37411705D01*
X59274061Y-37433593D01*
X59259006Y-37440940D01*
X59204517Y-37469554D01*
X59145852Y-37502785D01*
X59092641Y-37535098D01*
X59073798Y-37547358D01*
X59011950Y-37593653D01*
X58945120Y-37651873D01*
X58878485Y-37716850D01*
X58817224Y-37783412D01*
X58766513Y-37846391D01*
X58748623Y-37872021D01*
X58725156Y-37906531D01*
X58705656Y-37932993D01*
X58693194Y-37947326D01*
X58690848Y-37948750D01*
X58678978Y-37942566D01*
X58657336Y-37926900D01*
X58645309Y-37917279D01*
X58607129Y-37885807D01*
X58654027Y-37660633D01*
X58669048Y-37587692D01*
X58682361Y-37520844D01*
X58694423Y-37457198D01*
X58705691Y-37393864D01*
X58716622Y-37327951D01*
X58727672Y-37256568D01*
X58739300Y-37176826D01*
X58751960Y-37085834D01*
X58766111Y-36980701D01*
X58782210Y-36858537D01*
X58788866Y-36807556D01*
X58800328Y-36721794D01*
X58811481Y-36642417D01*
X58821929Y-36571944D01*
X58831277Y-36512894D01*
X58839128Y-36467787D01*
X58845086Y-36439141D01*
X58848235Y-36429759D01*
X58865031Y-36417354D01*
X58893292Y-36403047D01*
X58906540Y-36397602D01*
X58952830Y-36379924D01*
X59028975Y-36447316D01*
G37*
G36*
X59827270Y-32326848D02*
G01*
X59900156Y-32337496D01*
X59963781Y-32355975D01*
X60013229Y-32381489D01*
X60022510Y-32388630D01*
X60045888Y-32410298D01*
X60063999Y-32433170D01*
X60077735Y-32460465D01*
X60087988Y-32495402D01*
X60095650Y-32541198D01*
X60101616Y-32601074D01*
X60106776Y-32678246D01*
X60107798Y-32696196D01*
X60111098Y-32766601D01*
X60113267Y-32836860D01*
X60114213Y-32901432D01*
X60113844Y-32954776D01*
X60112575Y-32985167D01*
X60107987Y-33041424D01*
X60101168Y-33113004D01*
X60092427Y-33197409D01*
X60082074Y-33292144D01*
X60070420Y-33394712D01*
X60057775Y-33502615D01*
X60044447Y-33613358D01*
X60030749Y-33724444D01*
X60016988Y-33833377D01*
X60003475Y-33937660D01*
X59990521Y-34034796D01*
X59978435Y-34122289D01*
X59967527Y-34197642D01*
X59958107Y-34258359D01*
X59950485Y-34301943D01*
X59947084Y-34318081D01*
X59920986Y-34397953D01*
X59882341Y-34475769D01*
X59833683Y-34548905D01*
X59777548Y-34614738D01*
X59716471Y-34670645D01*
X59652987Y-34714003D01*
X59589632Y-34742187D01*
X59528940Y-34752574D01*
X59527184Y-34752583D01*
X59513484Y-34751659D01*
X59506187Y-34745768D01*
X59503980Y-34730238D01*
X59505551Y-34700392D01*
X59507133Y-34681146D01*
X59508468Y-34660962D01*
X59510764Y-34621120D01*
X59513945Y-34563102D01*
X59517933Y-34488392D01*
X59522653Y-34398471D01*
X59528027Y-34294824D01*
X59533980Y-34178933D01*
X59540435Y-34052281D01*
X59547315Y-33916351D01*
X59554544Y-33772625D01*
X59562044Y-33622586D01*
X59569384Y-33474916D01*
X59625629Y-32340123D01*
X59673377Y-32332220D01*
X59750038Y-32324825D01*
X59827270Y-32326848D01*
G37*
G36*
X57678891Y-38132731D02*
G01*
X57673085Y-38161981D01*
X57662849Y-38205508D01*
X57648997Y-38260309D01*
X57632344Y-38323382D01*
X57613703Y-38391725D01*
X57593890Y-38462335D01*
X57573718Y-38532210D01*
X57554003Y-38598348D01*
X57535557Y-38657746D01*
X57524995Y-38690234D01*
X57459624Y-38869657D01*
X57388870Y-39031304D01*
X57313070Y-39174654D01*
X57232561Y-39299182D01*
X57147681Y-39404366D01*
X57058765Y-39489683D01*
X56969183Y-39552846D01*
X56872319Y-39597913D01*
X56766421Y-39626254D01*
X56656432Y-39637040D01*
X56547296Y-39629438D01*
X56530691Y-39626545D01*
X56423483Y-39595522D01*
X56321369Y-39544084D01*
X56224540Y-39472405D01*
X56133184Y-39380659D01*
X56047493Y-39269023D01*
X55967656Y-39137669D01*
X55938163Y-39081167D01*
X55882451Y-38962247D01*
X55827468Y-38830675D01*
X55776518Y-38694811D01*
X55732903Y-38563012D01*
X55731160Y-38557292D01*
X55715496Y-38503839D01*
X55698811Y-38443768D01*
X55681941Y-38380456D01*
X55665719Y-38317282D01*
X55650980Y-38257622D01*
X55638558Y-38204854D01*
X55629288Y-38162356D01*
X55624005Y-38133505D01*
X55623539Y-38121683D01*
X55634202Y-38124334D01*
X55659653Y-38134987D01*
X55695905Y-38151874D01*
X55732556Y-38169975D01*
X55899308Y-38246409D01*
X56063628Y-38305088D01*
X56229861Y-38347032D01*
X56402348Y-38373259D01*
X56585434Y-38384786D01*
X56651958Y-38385537D01*
X56846663Y-38377779D01*
X57030003Y-38354232D01*
X57205633Y-38314023D01*
X57377204Y-38256280D01*
X57548371Y-38180130D01*
X57580742Y-38163719D01*
X57620658Y-38143857D01*
X57653195Y-38129083D01*
X57674103Y-38121247D01*
X57679453Y-38120759D01*
X57678891Y-38132731D01*
G37*
G36*
X53575511Y-32327675D02*
G01*
X53618496Y-32331271D01*
X53651462Y-32336448D01*
X53668970Y-32342882D01*
X53669315Y-32343203D01*
X53670548Y-32354279D01*
X53672745Y-32385162D01*
X53675834Y-32434515D01*
X53679740Y-32501003D01*
X53684393Y-32583292D01*
X53689719Y-32680046D01*
X53695647Y-32789931D01*
X53702103Y-32911610D01*
X53709016Y-33043748D01*
X53716312Y-33185011D01*
X53723920Y-33334062D01*
X53731767Y-33489568D01*
X53734823Y-33550625D01*
X53794869Y-34752583D01*
X53762914Y-34751674D01*
X53729220Y-34748111D01*
X53703882Y-34742548D01*
X53642084Y-34714448D01*
X53579119Y-34668890D01*
X53517981Y-34609168D01*
X53461664Y-34538579D01*
X53413161Y-34460417D01*
X53377492Y-34383301D01*
X53369251Y-34361144D01*
X53361797Y-34338738D01*
X53354831Y-34314236D01*
X53348052Y-34285789D01*
X53341161Y-34251547D01*
X53333857Y-34209663D01*
X53325841Y-34158286D01*
X53316813Y-34095568D01*
X53306473Y-34019660D01*
X53294520Y-33928713D01*
X53280656Y-33820879D01*
X53264579Y-33694308D01*
X53260556Y-33662500D01*
X53242595Y-33518614D01*
X53227524Y-33393214D01*
X53215171Y-33283840D01*
X53205364Y-33188034D01*
X53197931Y-33103337D01*
X53192700Y-33027291D01*
X53189500Y-32957436D01*
X53188158Y-32891314D01*
X53188504Y-32826466D01*
X53190364Y-32760434D01*
X53193178Y-32698240D01*
X53197109Y-32625642D01*
X53200712Y-32570768D01*
X53204477Y-32530195D01*
X53208893Y-32500495D01*
X53214449Y-32478245D01*
X53221633Y-32460017D01*
X53229292Y-32445296D01*
X53267701Y-32398084D01*
X53323218Y-32361988D01*
X53394508Y-32337740D01*
X53440824Y-32329607D01*
X53481237Y-32326519D01*
X53527945Y-32325983D01*
X53575511Y-32327675D01*
G37*
G36*
X55070048Y-38762463D02*
G01*
X55100463Y-38840974D01*
X55135745Y-38925942D01*
X55173900Y-39013042D01*
X55212935Y-39097948D01*
X55250858Y-39176337D01*
X55285675Y-39243881D01*
X55315395Y-39296257D01*
X55317730Y-39300043D01*
X55332051Y-39326349D01*
X55338228Y-39344651D01*
X55337145Y-39349227D01*
X55324793Y-39354642D01*
X55296501Y-39366092D01*
X55256102Y-39382052D01*
X55207426Y-39401001D01*
X55191458Y-39407164D01*
X55050561Y-39461245D01*
X54928317Y-39507721D01*
X54823767Y-39546943D01*
X54735949Y-39579262D01*
X54663901Y-39605028D01*
X54606664Y-39624592D01*
X54563276Y-39638304D01*
X54540583Y-39644621D01*
X54479941Y-39656078D01*
X54404526Y-39664239D01*
X54320500Y-39668933D01*
X54234025Y-39669989D01*
X54151263Y-39667239D01*
X54078375Y-39660512D01*
X54060431Y-39657869D01*
X54008717Y-39648244D01*
X53946295Y-39634839D01*
X53882783Y-39619783D01*
X53848764Y-39611007D01*
X53751195Y-39583768D01*
X53671364Y-39558692D01*
X53606158Y-39534292D01*
X53552464Y-39509083D01*
X53507169Y-39481582D01*
X53467162Y-39450303D01*
X53429329Y-39413762D01*
X53424449Y-39408591D01*
X53389884Y-39367905D01*
X53364157Y-39327367D01*
X53346437Y-39283331D01*
X53335890Y-39232152D01*
X53331684Y-39170185D01*
X53332984Y-39093784D01*
X53336997Y-39025884D01*
X53348206Y-38867146D01*
X53396707Y-38873775D01*
X53447606Y-38878893D01*
X53514568Y-38882947D01*
X53592514Y-38885875D01*
X53676364Y-38887614D01*
X53761038Y-38888102D01*
X53841457Y-38887274D01*
X53912540Y-38885070D01*
X53969209Y-38881425D01*
X53974418Y-38880926D01*
X54191439Y-38849854D01*
X54410930Y-38800358D01*
X54627857Y-38733802D01*
X54837185Y-38651552D01*
X54863673Y-38639734D01*
X55001554Y-38577327D01*
X55070048Y-38762463D01*
G37*
G36*
X55424292Y-39477162D02*
G01*
X55438641Y-39487647D01*
X55461349Y-39511986D01*
X55489109Y-39546375D01*
X55514250Y-39580724D01*
X55550597Y-39629231D01*
X55595972Y-39684832D01*
X55644077Y-39740019D01*
X55681026Y-39779578D01*
X55779011Y-39880208D01*
X55744526Y-39909184D01*
X55706561Y-39939121D01*
X55655427Y-39976700D01*
X55596034Y-40018553D01*
X55533290Y-40061312D01*
X55472104Y-40101608D01*
X55417386Y-40136074D01*
X55390471Y-40152109D01*
X55235083Y-40234775D01*
X55085053Y-40299362D01*
X54936736Y-40346945D01*
X54786488Y-40378603D01*
X54630663Y-40395411D01*
X54556458Y-40398445D01*
X54495651Y-40399419D01*
X54439570Y-40399697D01*
X54392864Y-40399301D01*
X54360184Y-40398254D01*
X54350083Y-40397435D01*
X54229998Y-40376212D01*
X54103231Y-40342973D01*
X53978382Y-40300350D01*
X53864050Y-40250973D01*
X53852483Y-40245241D01*
X53794776Y-40213938D01*
X53733147Y-40176534D01*
X53670013Y-40134919D01*
X53607793Y-40090984D01*
X53548908Y-40046618D01*
X53495777Y-40003711D01*
X53450818Y-39964155D01*
X53416452Y-39929838D01*
X53395097Y-39902652D01*
X53389172Y-39884486D01*
X53389440Y-39883470D01*
X53404206Y-39871568D01*
X53438552Y-39863118D01*
X53491169Y-39858143D01*
X53560752Y-39856666D01*
X53645992Y-39858710D01*
X53745582Y-39864298D01*
X53858215Y-39873454D01*
X53873833Y-39874916D01*
X54051129Y-39881486D01*
X54228521Y-39867381D01*
X54407240Y-39832479D01*
X54466500Y-39816440D01*
X54503723Y-39804757D01*
X54557729Y-39786512D01*
X54625557Y-39762768D01*
X54704245Y-39734587D01*
X54790829Y-39703033D01*
X54882350Y-39669169D01*
X54975843Y-39634057D01*
X54995667Y-39626543D01*
X55092521Y-39590087D01*
X55180402Y-39557643D01*
X55257553Y-39529826D01*
X55322214Y-39507247D01*
X55372627Y-39490519D01*
X55407034Y-39480256D01*
X55423677Y-39477069D01*
X55424292Y-39477162D01*
G37*
G36*
X52793217Y-30598142D02*
G01*
X52798825Y-30617889D01*
X52804460Y-30650314D01*
X52810280Y-30696738D01*
X52816443Y-30758483D01*
X52823104Y-30836870D01*
X52830422Y-30933222D01*
X52838553Y-31048860D01*
X52842104Y-31101333D01*
X52856502Y-31312818D01*
X52870506Y-31512088D01*
X52884021Y-31697907D01*
X52896951Y-31869042D01*
X52909199Y-32024257D01*
X52920672Y-32162319D01*
X52931272Y-32281992D01*
X52940904Y-32382043D01*
X52942952Y-32401957D01*
X52951493Y-32479840D01*
X52959512Y-32541857D01*
X52968007Y-32593251D01*
X52977974Y-32639269D01*
X52990411Y-32685156D01*
X53006315Y-32736157D01*
X53006712Y-32737380D01*
X53027267Y-32797571D01*
X53043854Y-32839081D01*
X53057343Y-32863835D01*
X53068469Y-32873714D01*
X53082630Y-32879031D01*
X53094276Y-32886558D01*
X53103918Y-32898507D01*
X53112072Y-32917091D01*
X53119250Y-32944519D01*
X53125966Y-32983005D01*
X53132733Y-33034758D01*
X53140065Y-33101992D01*
X53148476Y-33186917D01*
X53153588Y-33240294D01*
X53167332Y-33385958D01*
X53178882Y-33511408D01*
X53188302Y-33617476D01*
X53195661Y-33704994D01*
X53201022Y-33774792D01*
X53204453Y-33827704D01*
X53206019Y-33864560D01*
X53205787Y-33886193D01*
X53205222Y-33890689D01*
X53200615Y-33897902D01*
X53190597Y-33892490D01*
X53172981Y-33872592D01*
X53152756Y-33846088D01*
X53095410Y-33757707D01*
X53042891Y-33653515D01*
X52995095Y-33533005D01*
X52951920Y-33395668D01*
X52913264Y-33240998D01*
X52879025Y-33068485D01*
X52849100Y-32877622D01*
X52823386Y-32667901D01*
X52801782Y-32438815D01*
X52784185Y-32189855D01*
X52772139Y-31958583D01*
X52769729Y-31892313D01*
X52767765Y-31813686D01*
X52766232Y-31724820D01*
X52765116Y-31627832D01*
X52764402Y-31524839D01*
X52764076Y-31417958D01*
X52764123Y-31309306D01*
X52764530Y-31201001D01*
X52765281Y-31095159D01*
X52766363Y-30993898D01*
X52767760Y-30899336D01*
X52769459Y-30813588D01*
X52771445Y-30738773D01*
X52773703Y-30677007D01*
X52776219Y-30630408D01*
X52778979Y-30601093D01*
X52781455Y-30591395D01*
X52787479Y-30589751D01*
X52793217Y-30598142D01*
G37*
G36*
X60517880Y-30590659D02*
G01*
X60520931Y-30593540D01*
X60523538Y-30600591D01*
X60525717Y-30613205D01*
X60527484Y-30632770D01*
X60528856Y-30660677D01*
X60529849Y-30698316D01*
X60530480Y-30747078D01*
X60530765Y-30808354D01*
X60530720Y-30883532D01*
X60530362Y-30974004D01*
X60529708Y-31081160D01*
X60528773Y-31206389D01*
X60527574Y-31351084D01*
X60527272Y-31386212D01*
X60525263Y-31589419D01*
X60522838Y-31773242D01*
X60519863Y-31939460D01*
X60516203Y-32089854D01*
X60511723Y-32226204D01*
X60506288Y-32350289D01*
X60499762Y-32463890D01*
X60492012Y-32568788D01*
X60482903Y-32666762D01*
X60472299Y-32759592D01*
X60460066Y-32849059D01*
X60446068Y-32936943D01*
X60430171Y-33025023D01*
X60412241Y-33115081D01*
X60392141Y-33208896D01*
X60387640Y-33229208D01*
X60346843Y-33393321D01*
X60301956Y-33537354D01*
X60252690Y-33662048D01*
X60198757Y-33768145D01*
X60148435Y-33845062D01*
X60118645Y-33882567D01*
X60098111Y-33901611D01*
X60086070Y-33902379D01*
X60081760Y-33885057D01*
X60083075Y-33860937D01*
X60085154Y-33840911D01*
X60089104Y-33802285D01*
X60094678Y-33747522D01*
X60101624Y-33679082D01*
X60109694Y-33599426D01*
X60118638Y-33511017D01*
X60128205Y-33416314D01*
X60133058Y-33368232D01*
X60178232Y-32920506D01*
X60221227Y-32876107D01*
X60248167Y-32843707D01*
X60268945Y-32806301D01*
X60287549Y-32756463D01*
X60290527Y-32747042D01*
X60302468Y-32707813D01*
X60313137Y-32670396D01*
X60322713Y-32633173D01*
X60331376Y-32594525D01*
X60339305Y-32552833D01*
X60346680Y-32506477D01*
X60353681Y-32453839D01*
X60360487Y-32393299D01*
X60367277Y-32323240D01*
X60374231Y-32242040D01*
X60381530Y-32148083D01*
X60389351Y-32039748D01*
X60397876Y-31915417D01*
X60407283Y-31773470D01*
X60417752Y-31612289D01*
X60419649Y-31582875D01*
X60430952Y-31409443D01*
X60441232Y-31256086D01*
X60450595Y-31121742D01*
X60459147Y-31005348D01*
X60466992Y-30905844D01*
X60474236Y-30822166D01*
X60480984Y-30753254D01*
X60487340Y-30698045D01*
X60493410Y-30655477D01*
X60499299Y-30624489D01*
X60505112Y-30604018D01*
X60510955Y-30593003D01*
X60516932Y-30590382D01*
X60517880Y-30590659D01*
G37*
G36*
X57763473Y-36818362D02*
G01*
X57766736Y-36831888D01*
X57769564Y-36863417D01*
X57771925Y-36909788D01*
X57773788Y-36967841D01*
X57775122Y-37034417D01*
X57775897Y-37106354D01*
X57776081Y-37180493D01*
X57775644Y-37253674D01*
X57774555Y-37322736D01*
X57772782Y-37384519D01*
X57770296Y-37435863D01*
X57769607Y-37446042D01*
X57761463Y-37548346D01*
X57752565Y-37642124D01*
X57743203Y-37725193D01*
X57733667Y-37795368D01*
X57724249Y-37850466D01*
X57715237Y-37888303D01*
X57708685Y-37904415D01*
X57684610Y-37930350D01*
X57643609Y-37961369D01*
X57588817Y-37995806D01*
X57523371Y-38031995D01*
X57450403Y-38068269D01*
X57373051Y-38102960D01*
X57294449Y-38134403D01*
X57239333Y-38153930D01*
X57155690Y-38180522D01*
X57080915Y-38200994D01*
X57009767Y-38216164D01*
X56937006Y-38226848D01*
X56857392Y-38233864D01*
X56765683Y-38238028D01*
X56689000Y-38239723D01*
X56619724Y-38240557D01*
X56555904Y-38240880D01*
X56501188Y-38240709D01*
X56459227Y-38240060D01*
X56433670Y-38238951D01*
X56429708Y-38238525D01*
X56293927Y-38215311D01*
X56172594Y-38187502D01*
X56059153Y-38153103D01*
X55947046Y-38110118D01*
X55829715Y-38056552D01*
X55826458Y-38054962D01*
X55750397Y-38016966D01*
X55691600Y-37985434D01*
X55647778Y-37958729D01*
X55616644Y-37935212D01*
X55595906Y-37913244D01*
X55583277Y-37891185D01*
X55578738Y-37877597D01*
X55563381Y-37803474D01*
X55550953Y-37708411D01*
X55541457Y-37592432D01*
X55534893Y-37455560D01*
X55531264Y-37297818D01*
X55530475Y-37179705D01*
X55530604Y-37095512D01*
X55531134Y-37018129D01*
X55532014Y-36950086D01*
X55533196Y-36893911D01*
X55534629Y-36852135D01*
X55536265Y-36827286D01*
X55537460Y-36821356D01*
X55549805Y-36820570D01*
X55579497Y-36822945D01*
X55623020Y-36828075D01*
X55676858Y-36835553D01*
X55727675Y-36843381D01*
X55794732Y-36854392D01*
X55844064Y-36863279D01*
X55878901Y-36870920D01*
X55902471Y-36878193D01*
X55918001Y-36885974D01*
X55928721Y-36895142D01*
X55932006Y-36898929D01*
X55987704Y-36963456D01*
X56038185Y-37013089D01*
X56088457Y-37051466D01*
X56143531Y-37082226D01*
X56208416Y-37109006D01*
X56233282Y-37117742D01*
X56308191Y-37141421D01*
X56377010Y-37158666D01*
X56445597Y-37170323D01*
X56519807Y-37177240D01*
X56605497Y-37180262D01*
X56667833Y-37180547D01*
X56738347Y-37179980D01*
X56792717Y-37178540D01*
X56835962Y-37175728D01*
X56873103Y-37171046D01*
X56909159Y-37163994D01*
X56949149Y-37154073D01*
X56958119Y-37151685D01*
X57017738Y-37133293D01*
X57083732Y-37109198D01*
X57144336Y-37083785D01*
X57159799Y-37076516D01*
X57199228Y-37056773D01*
X57230285Y-37039010D01*
X57257118Y-37019759D01*
X57283874Y-36995550D01*
X57314699Y-36962915D01*
X57353742Y-36918384D01*
X57366333Y-36903751D01*
X57377125Y-36892397D01*
X57389639Y-36883401D01*
X57407212Y-36875794D01*
X57433179Y-36868610D01*
X57470875Y-36860880D01*
X57523637Y-36851638D01*
X57575538Y-36843060D01*
X57635127Y-36833642D01*
X57687182Y-36826040D01*
X57728238Y-36820707D01*
X57754832Y-36818099D01*
X57763473Y-36818362D01*
G37*
G36*
X53468748Y-37222637D02*
G01*
X53468122Y-37233893D01*
X53463623Y-37262148D01*
X53455915Y-37303726D01*
X53445663Y-37354951D01*
X53439573Y-37384061D01*
X53419222Y-37499180D01*
X53405491Y-37618710D01*
X53398630Y-37737204D01*
X53398886Y-37849218D01*
X53406507Y-37949304D01*
X53412094Y-37987228D01*
X53439996Y-38115891D01*
X53475965Y-38228836D01*
X53519492Y-38325177D01*
X53570070Y-38404026D01*
X53627189Y-38464496D01*
X53690340Y-38505701D01*
X53715422Y-38515987D01*
X53777700Y-38530109D01*
X53853939Y-38535276D01*
X53938984Y-38531629D01*
X54027683Y-38519305D01*
X54087836Y-38505942D01*
X54199124Y-38472901D01*
X54304066Y-38432376D01*
X54406608Y-38382289D01*
X54510698Y-38320566D01*
X54620284Y-38245130D01*
X54703612Y-38182090D01*
X54749487Y-38146701D01*
X54789302Y-38116782D01*
X54820211Y-38094409D01*
X54839366Y-38081655D01*
X54844256Y-38079562D01*
X54850143Y-38092448D01*
X54860212Y-38121480D01*
X54873209Y-38162346D01*
X54887878Y-38210737D01*
X54902965Y-38262341D01*
X54917214Y-38312847D01*
X54929370Y-38357945D01*
X54938179Y-38393324D01*
X54942384Y-38414673D01*
X54942569Y-38417218D01*
X54940480Y-38432786D01*
X54932320Y-38447128D01*
X54915554Y-38461937D01*
X54887650Y-38478906D01*
X54846075Y-38499728D01*
X54788296Y-38526097D01*
X54762833Y-38537365D01*
X54565801Y-38614262D01*
X54360761Y-38675615D01*
X54151541Y-38720690D01*
X53941970Y-38748751D01*
X53735875Y-38759065D01*
X53619833Y-38756645D01*
X53565168Y-38753154D01*
X53504193Y-38747903D01*
X53442281Y-38741500D01*
X53384805Y-38734551D01*
X53337140Y-38727660D01*
X53304658Y-38721435D01*
X53302333Y-38720841D01*
X53276003Y-38708671D01*
X53242164Y-38686094D01*
X53208012Y-38657928D01*
X53207083Y-38657071D01*
X53162246Y-38618978D01*
X53114092Y-38585747D01*
X53058904Y-38555494D01*
X52992967Y-38526338D01*
X52912564Y-38496396D01*
X52845553Y-38473918D01*
X52757318Y-38444454D01*
X52687019Y-38419220D01*
X52635398Y-38398505D01*
X52603193Y-38382595D01*
X52594876Y-38376773D01*
X52597523Y-38366195D01*
X52611351Y-38344227D01*
X52633157Y-38315010D01*
X52659740Y-38282681D01*
X52687897Y-38251381D01*
X52706091Y-38233005D01*
X52741317Y-38203377D01*
X52786433Y-38171077D01*
X52832262Y-38142628D01*
X52836667Y-38140171D01*
X52909228Y-38093616D01*
X52962488Y-38043869D01*
X52998277Y-37988963D01*
X53012519Y-37951386D01*
X53018627Y-37928257D01*
X53022563Y-37905813D01*
X53024018Y-37881296D01*
X53022682Y-37851948D01*
X53018245Y-37815011D01*
X53010398Y-37767727D01*
X52998831Y-37707337D01*
X52983235Y-37631085D01*
X52968877Y-37562630D01*
X52955412Y-37496860D01*
X52944166Y-37438177D01*
X52935672Y-37389691D01*
X52930464Y-37354513D01*
X52929075Y-37335755D01*
X52929628Y-37333606D01*
X52941677Y-37329592D01*
X52970886Y-37322319D01*
X53013895Y-37312478D01*
X53067345Y-37300760D01*
X53127877Y-37287856D01*
X53192130Y-37274459D01*
X53256746Y-37261259D01*
X53318365Y-37248948D01*
X53373627Y-37238218D01*
X53419174Y-37229760D01*
X53451645Y-37224266D01*
X53467681Y-37222427D01*
X53468748Y-37222637D01*
G37*
G36*
X66531500Y-33492420D02*
G01*
X66729276Y-33516094D01*
X66911445Y-33553864D01*
X67078367Y-33605931D01*
X67230403Y-33672495D01*
X67367912Y-33753757D01*
X67491256Y-33849918D01*
X67600794Y-33961179D01*
X67696887Y-34087741D01*
X67747894Y-34170500D01*
X67812824Y-34298862D01*
X67866505Y-34437061D01*
X67909904Y-34588081D01*
X67943983Y-34754908D01*
X67951279Y-34800208D01*
X67962104Y-34890601D01*
X67969790Y-34996222D01*
X67974298Y-35111357D01*
X67975590Y-35230297D01*
X67973627Y-35347329D01*
X67968370Y-35456742D01*
X67959780Y-35552825D01*
X67956563Y-35578083D01*
X67922583Y-35770199D01*
X67875837Y-35946021D01*
X67815929Y-36106428D01*
X67742466Y-36252299D01*
X67655054Y-36384514D01*
X67553297Y-36503952D01*
X67531586Y-36525991D01*
X67422773Y-36622311D01*
X67304328Y-36704202D01*
X67173140Y-36773522D01*
X67026095Y-36832126D01*
X67008423Y-36838131D01*
X66923267Y-36864807D01*
X66842566Y-36885841D01*
X66761921Y-36901860D01*
X66676933Y-36913493D01*
X66583203Y-36921366D01*
X66476331Y-36926108D01*
X66378042Y-36928073D01*
X66300986Y-36928526D01*
X66225717Y-36928095D01*
X66156563Y-36926870D01*
X66097849Y-36924942D01*
X66053901Y-36922401D01*
X66039375Y-36920997D01*
X65860207Y-36891040D01*
X65691061Y-36845637D01*
X65533353Y-36785436D01*
X65388499Y-36711085D01*
X65257915Y-36623233D01*
X65143017Y-36522527D01*
X65122098Y-36500958D01*
X65021282Y-36381293D01*
X64934969Y-36250982D01*
X64862804Y-36109005D01*
X64804435Y-35954344D01*
X64759509Y-35785979D01*
X64727674Y-35602893D01*
X64708576Y-35404066D01*
X64703508Y-35292267D01*
X64703857Y-35202652D01*
X65557863Y-35202652D01*
X65562342Y-35351046D01*
X65576283Y-35483578D01*
X65600341Y-35603635D01*
X65635170Y-35714603D01*
X65674370Y-35805625D01*
X65700686Y-35855976D01*
X65729752Y-35905631D01*
X65757247Y-35947446D01*
X65771485Y-35966154D01*
X65854558Y-36049422D01*
X65951085Y-36116779D01*
X66059816Y-36167537D01*
X66179500Y-36201011D01*
X66208708Y-36206235D01*
X66244888Y-36209172D01*
X66295960Y-36209616D01*
X66355841Y-36207901D01*
X66418445Y-36204358D01*
X66477688Y-36199321D01*
X66527486Y-36193121D01*
X66557958Y-36187155D01*
X66668645Y-36147293D01*
X66770067Y-36089104D01*
X66860606Y-36013998D01*
X66938647Y-35923382D01*
X67002573Y-35818667D01*
X67018220Y-35785910D01*
X67059089Y-35675508D01*
X67090037Y-35550375D01*
X67110828Y-35414603D01*
X67121224Y-35272282D01*
X67120987Y-35127506D01*
X67109880Y-34984364D01*
X67087666Y-34846948D01*
X67075721Y-34794917D01*
X67043099Y-34691025D01*
X66999544Y-34592120D01*
X66947764Y-34503521D01*
X66890467Y-34430550D01*
X66890100Y-34430157D01*
X66812757Y-34357565D01*
X66730314Y-34301573D01*
X66635926Y-34257687D01*
X66616634Y-34250545D01*
X66583113Y-34238843D01*
X66555028Y-34230375D01*
X66527944Y-34224630D01*
X66497427Y-34221091D01*
X66459043Y-34219245D01*
X66408357Y-34218577D01*
X66341000Y-34218572D01*
X66272498Y-34218923D01*
X66220686Y-34219977D01*
X66181091Y-34222213D01*
X66149236Y-34226110D01*
X66120648Y-34232146D01*
X66090851Y-34240800D01*
X66070295Y-34247527D01*
X65959359Y-34295024D01*
X65861899Y-34358825D01*
X65777933Y-34438897D01*
X65707479Y-34535207D01*
X65650554Y-34647721D01*
X65607176Y-34776408D01*
X65577363Y-34921233D01*
X65561133Y-35082163D01*
X65557863Y-35202652D01*
X64703857Y-35202652D01*
X64704372Y-35070175D01*
X64720332Y-34861718D01*
X64751258Y-34667127D01*
X64797021Y-34486632D01*
X64857491Y-34320465D01*
X64932540Y-34168855D01*
X65022039Y-34032034D01*
X65125858Y-33910233D01*
X65243869Y-33803681D01*
X65375942Y-33712611D01*
X65521949Y-33637252D01*
X65658375Y-33585246D01*
X65835910Y-33537165D01*
X66024712Y-33504325D01*
X66220945Y-33487134D01*
X66420777Y-33485998D01*
X66531500Y-33492420D01*
G37*
G36*
X73685833Y-33492420D02*
G01*
X73883609Y-33516094D01*
X74065778Y-33553864D01*
X74232700Y-33605931D01*
X74384736Y-33672495D01*
X74522245Y-33753757D01*
X74645589Y-33849918D01*
X74755127Y-33961179D01*
X74851221Y-34087741D01*
X74902228Y-34170500D01*
X74967157Y-34298862D01*
X75020839Y-34437061D01*
X75064237Y-34588081D01*
X75098317Y-34754908D01*
X75105612Y-34800208D01*
X75116437Y-34890601D01*
X75124123Y-34996222D01*
X75128631Y-35111357D01*
X75129923Y-35230297D01*
X75127960Y-35347329D01*
X75122703Y-35456742D01*
X75114113Y-35552825D01*
X75110896Y-35578083D01*
X75076917Y-35770199D01*
X75030170Y-35946021D01*
X74970263Y-36106428D01*
X74896800Y-36252299D01*
X74809387Y-36384514D01*
X74707630Y-36503952D01*
X74685920Y-36525991D01*
X74577106Y-36622311D01*
X74458661Y-36704202D01*
X74327473Y-36773522D01*
X74180428Y-36832126D01*
X74162756Y-36838131D01*
X74077600Y-36864807D01*
X73996900Y-36885841D01*
X73916255Y-36901860D01*
X73831266Y-36913493D01*
X73737536Y-36921366D01*
X73630664Y-36926108D01*
X73532375Y-36928073D01*
X73455319Y-36928526D01*
X73380051Y-36928095D01*
X73310896Y-36926870D01*
X73252182Y-36924942D01*
X73208234Y-36922401D01*
X73193708Y-36920997D01*
X73014540Y-36891040D01*
X72845394Y-36845637D01*
X72687686Y-36785436D01*
X72542832Y-36711085D01*
X72412248Y-36623233D01*
X72297350Y-36522527D01*
X72276431Y-36500958D01*
X72175616Y-36381293D01*
X72089302Y-36250982D01*
X72017137Y-36109005D01*
X71958768Y-35954344D01*
X71913843Y-35785979D01*
X71882007Y-35602893D01*
X71862910Y-35404066D01*
X71857841Y-35292267D01*
X71858190Y-35202652D01*
X72712196Y-35202652D01*
X72716675Y-35351046D01*
X72730617Y-35483578D01*
X72754674Y-35603635D01*
X72789503Y-35714603D01*
X72828703Y-35805625D01*
X72855019Y-35855976D01*
X72884085Y-35905631D01*
X72911580Y-35947446D01*
X72925818Y-35966154D01*
X73008891Y-36049422D01*
X73105419Y-36116779D01*
X73214150Y-36167537D01*
X73333833Y-36201011D01*
X73363042Y-36206235D01*
X73399221Y-36209172D01*
X73450294Y-36209616D01*
X73510174Y-36207901D01*
X73572779Y-36204358D01*
X73632022Y-36199321D01*
X73681819Y-36193121D01*
X73712292Y-36187155D01*
X73822979Y-36147293D01*
X73924400Y-36089104D01*
X74014939Y-36013998D01*
X74092980Y-35923382D01*
X74156907Y-35818667D01*
X74172553Y-35785910D01*
X74213422Y-35675508D01*
X74244370Y-35550375D01*
X74265161Y-35414603D01*
X74275557Y-35272282D01*
X74275320Y-35127506D01*
X74264213Y-34984364D01*
X74241999Y-34846948D01*
X74230054Y-34794917D01*
X74197432Y-34691025D01*
X74153877Y-34592120D01*
X74102097Y-34503521D01*
X74044800Y-34430550D01*
X74044433Y-34430157D01*
X73967091Y-34357565D01*
X73884647Y-34301573D01*
X73790260Y-34257687D01*
X73770967Y-34250545D01*
X73737447Y-34238843D01*
X73709362Y-34230375D01*
X73682278Y-34224630D01*
X73651760Y-34221091D01*
X73613376Y-34219245D01*
X73562690Y-34218577D01*
X73495333Y-34218572D01*
X73426831Y-34218923D01*
X73375020Y-34219977D01*
X73335424Y-34222213D01*
X73303569Y-34226110D01*
X73274981Y-34232146D01*
X73245184Y-34240800D01*
X73224628Y-34247527D01*
X73113692Y-34295024D01*
X73016232Y-34358825D01*
X72932266Y-34438897D01*
X72861812Y-34535207D01*
X72804887Y-34647721D01*
X72761509Y-34776408D01*
X72731697Y-34921233D01*
X72715467Y-35082163D01*
X72712196Y-35202652D01*
X71858190Y-35202652D01*
X71858706Y-35070175D01*
X71874666Y-34861718D01*
X71905591Y-34667127D01*
X71951354Y-34486632D01*
X72011825Y-34320465D01*
X72086874Y-34168855D01*
X72176372Y-34032034D01*
X72280192Y-33910233D01*
X72398203Y-33803681D01*
X72530276Y-33712611D01*
X72676282Y-33637252D01*
X72812708Y-33585246D01*
X72990244Y-33537165D01*
X73179045Y-33504325D01*
X73375279Y-33487134D01*
X73575110Y-33485998D01*
X73685833Y-33492420D01*
G37*
G36*
X58583417Y-36511946D02*
G01*
X58581730Y-36535813D01*
X58576926Y-36578053D01*
X58569390Y-36636162D01*
X58559508Y-36707639D01*
X58547666Y-36789981D01*
X58534248Y-36880685D01*
X58519639Y-36977250D01*
X58504226Y-37077171D01*
X58488394Y-37177948D01*
X58472527Y-37277076D01*
X58457012Y-37372055D01*
X58442234Y-37460381D01*
X58428577Y-37539553D01*
X58416428Y-37607066D01*
X58407856Y-37652001D01*
X58352382Y-37907478D01*
X58289151Y-38153891D01*
X58218737Y-38389821D01*
X58141713Y-38613854D01*
X58058654Y-38824571D01*
X57970132Y-39020557D01*
X57876722Y-39200393D01*
X57778997Y-39362664D01*
X57677531Y-39505953D01*
X57636352Y-39557244D01*
X57524135Y-39679959D01*
X57408494Y-39782606D01*
X57287929Y-39866193D01*
X57160943Y-39931733D01*
X57026037Y-39980234D01*
X56997175Y-39988188D01*
X56956969Y-39998055D01*
X56919471Y-40005365D01*
X56880003Y-40010587D01*
X56833887Y-40014192D01*
X56776446Y-40016648D01*
X56703002Y-40018426D01*
X56694292Y-40018590D01*
X56586731Y-40019237D01*
X56498594Y-40016860D01*
X56430519Y-40011483D01*
X56408542Y-40008415D01*
X56256948Y-39973409D01*
X56114814Y-39919637D01*
X55981936Y-39846970D01*
X55858109Y-39755279D01*
X55743131Y-39644433D01*
X55642100Y-39521525D01*
X55580192Y-39435591D01*
X55519672Y-39347640D01*
X55463069Y-39261581D01*
X55412910Y-39181326D01*
X55371725Y-39110786D01*
X55349014Y-39068144D01*
X55297336Y-38957990D01*
X55243688Y-38830018D01*
X55189077Y-38687370D01*
X55134512Y-38533182D01*
X55081000Y-38370596D01*
X55029551Y-38202750D01*
X54981171Y-38032783D01*
X54936870Y-37863834D01*
X54897655Y-37699043D01*
X54873998Y-37588960D01*
X54863310Y-37533502D01*
X54851266Y-37465524D01*
X54838199Y-37387383D01*
X54824440Y-37301436D01*
X54810322Y-37210042D01*
X54796175Y-37115556D01*
X54782331Y-37020336D01*
X54769123Y-36926740D01*
X54756881Y-36837125D01*
X54745938Y-36753848D01*
X54736626Y-36679266D01*
X54729276Y-36615736D01*
X54724220Y-36565616D01*
X54721790Y-36531264D01*
X54722317Y-36515035D01*
X54722745Y-36514227D01*
X54733669Y-36516873D01*
X54757707Y-36529042D01*
X54790438Y-36548406D01*
X54804433Y-36557293D01*
X54905878Y-36615717D01*
X55019869Y-36667395D01*
X55149267Y-36713489D01*
X55284350Y-36751953D01*
X55324258Y-36762649D01*
X55356407Y-36772076D01*
X55375094Y-36778539D01*
X55376954Y-36779469D01*
X55379991Y-36791790D01*
X55382568Y-36823664D01*
X55384633Y-36873483D01*
X55386135Y-36939636D01*
X55387020Y-37020516D01*
X55387250Y-37095879D01*
X55390732Y-37334423D01*
X55401534Y-37556722D01*
X55420191Y-37766583D01*
X55447239Y-37967810D01*
X55483213Y-38164209D01*
X55528647Y-38359585D01*
X55584078Y-38557744D01*
X55600199Y-38610208D01*
X55668815Y-38813119D01*
X55741465Y-38995566D01*
X55818383Y-39157908D01*
X55899804Y-39300505D01*
X55985963Y-39423717D01*
X56077096Y-39527903D01*
X56173437Y-39613421D01*
X56275222Y-39680632D01*
X56313292Y-39700439D01*
X56433309Y-39747611D01*
X56554924Y-39774107D01*
X56676731Y-39780205D01*
X56797327Y-39766181D01*
X56915307Y-39732312D01*
X57029268Y-39678876D01*
X57137805Y-39606150D01*
X57235617Y-39518418D01*
X57318113Y-39422521D01*
X57397784Y-39307184D01*
X57474060Y-39174015D01*
X57546369Y-39024619D01*
X57614141Y-38860603D01*
X57676803Y-38683575D01*
X57733786Y-38495141D01*
X57784517Y-38296907D01*
X57828427Y-38090481D01*
X57864944Y-37877469D01*
X57892206Y-37671009D01*
X57898007Y-37612587D01*
X57902583Y-37549465D01*
X57906042Y-37478574D01*
X57908494Y-37396844D01*
X57910046Y-37301205D01*
X57910809Y-37188589D01*
X57910911Y-37143082D01*
X57911375Y-36776623D01*
X57990750Y-36758196D01*
X58122120Y-36722444D01*
X58250273Y-36677537D01*
X58370096Y-36625581D01*
X58476473Y-36568680D01*
X58522562Y-36539345D01*
X58554722Y-36519307D01*
X58575967Y-36509812D01*
X58583417Y-36511946D01*
G37*
G36*
X81662731Y-33556956D02*
G01*
X81727653Y-33558001D01*
X81777633Y-33560253D01*
X81814746Y-33564168D01*
X81841067Y-33570202D01*
X81858670Y-33578809D01*
X81869631Y-33590446D01*
X81876023Y-33605568D01*
X81879922Y-33624631D01*
X81882963Y-33645188D01*
X81884842Y-33669706D01*
X81886196Y-33712837D01*
X81887057Y-33772038D01*
X81887458Y-33844761D01*
X81887433Y-33928461D01*
X81887015Y-34020594D01*
X81886238Y-34118613D01*
X81885133Y-34219974D01*
X81883736Y-34322130D01*
X81882078Y-34422536D01*
X81880194Y-34518647D01*
X81878115Y-34607917D01*
X81875877Y-34687802D01*
X81873511Y-34755754D01*
X81871052Y-34809230D01*
X81868531Y-34845683D01*
X81867130Y-34857561D01*
X81837893Y-34998310D01*
X81796679Y-35133845D01*
X81745122Y-35259892D01*
X81684852Y-35372182D01*
X81651009Y-35423163D01*
X81569332Y-35521790D01*
X81472009Y-35613615D01*
X81364447Y-35694033D01*
X81264679Y-35752182D01*
X81213225Y-35775064D01*
X81147936Y-35799536D01*
X81075790Y-35823349D01*
X81003769Y-35844255D01*
X80938850Y-35860002D01*
X80916896Y-35864272D01*
X80840167Y-35877806D01*
X80840167Y-36334907D01*
X80839898Y-36458484D01*
X80839105Y-36565640D01*
X80837807Y-36655536D01*
X80836022Y-36727335D01*
X80833770Y-36780199D01*
X80831070Y-36813290D01*
X80829056Y-36823878D01*
X80812868Y-36850595D01*
X80791517Y-36867791D01*
X80772986Y-36871679D01*
X80735833Y-36874789D01*
X80679524Y-36877141D01*
X80603528Y-36878750D01*
X80507311Y-36879635D01*
X80421146Y-36879833D01*
X80077204Y-36879833D01*
X80025250Y-36827879D01*
X80025250Y-35866538D01*
X79980271Y-35859611D01*
X79905478Y-35843433D01*
X79819680Y-35817256D01*
X79728986Y-35783536D01*
X79639503Y-35744729D01*
X79557340Y-35703293D01*
X79489219Y-35662102D01*
X79446113Y-35629130D01*
X79395041Y-35584414D01*
X79341040Y-35532912D01*
X79289146Y-35479582D01*
X79244397Y-35429382D01*
X79215738Y-35392875D01*
X79144922Y-35278102D01*
X79085882Y-35148493D01*
X79038003Y-35002581D01*
X79017264Y-34919559D01*
X79012515Y-34897563D01*
X79008470Y-34875630D01*
X79005057Y-34851863D01*
X79002205Y-34824365D01*
X78999844Y-34791241D01*
X78997901Y-34750594D01*
X78996306Y-34700528D01*
X78994988Y-34639146D01*
X78993876Y-34564553D01*
X78992898Y-34474852D01*
X78991983Y-34368146D01*
X78991062Y-34242540D01*
X78990875Y-34215695D01*
X78986689Y-33610016D01*
X79013363Y-33583341D01*
X79040038Y-33556667D01*
X79759130Y-33556667D01*
X79781065Y-33584552D01*
X79786079Y-33591435D01*
X79790264Y-33599450D01*
X79793697Y-33610449D01*
X79796451Y-33626280D01*
X79798603Y-33648793D01*
X79800226Y-33679838D01*
X79801396Y-33721264D01*
X79802189Y-33774922D01*
X79802679Y-33842659D01*
X79802941Y-33926327D01*
X79803051Y-34027775D01*
X79803080Y-34126948D01*
X79803322Y-34239038D01*
X79803985Y-34344352D01*
X79805030Y-34440746D01*
X79806417Y-34526074D01*
X79808107Y-34598191D01*
X79810059Y-34654950D01*
X79812234Y-34694208D01*
X79813887Y-34710250D01*
X79839348Y-34807247D01*
X79883400Y-34895795D01*
X79944687Y-34974523D01*
X80021852Y-35042057D01*
X80113537Y-35097026D01*
X80218386Y-35138059D01*
X80244320Y-35145407D01*
X80312274Y-35158459D01*
X80392724Y-35166235D01*
X80478291Y-35168635D01*
X80561594Y-35165559D01*
X80635255Y-35156908D01*
X80663570Y-35151101D01*
X80767214Y-35116604D01*
X80855876Y-35067192D01*
X80929436Y-35002981D01*
X80987773Y-34924089D01*
X81030766Y-34830634D01*
X81046219Y-34779464D01*
X81050006Y-34761689D01*
X81053176Y-34739150D01*
X81055781Y-34709989D01*
X81057873Y-34672351D01*
X81059501Y-34624379D01*
X81060717Y-34564219D01*
X81061571Y-34490013D01*
X81062115Y-34399906D01*
X81062400Y-34292043D01*
X81062476Y-34186797D01*
X81062588Y-34058511D01*
X81062971Y-33949720D01*
X81063738Y-33858751D01*
X81065002Y-33783935D01*
X81066877Y-33723599D01*
X81069476Y-33676072D01*
X81072912Y-33639682D01*
X81077299Y-33612758D01*
X81082751Y-33593629D01*
X81089381Y-33580623D01*
X81097301Y-33572068D01*
X81104517Y-33567374D01*
X81120931Y-33564332D01*
X81157042Y-33561737D01*
X81211385Y-33559632D01*
X81282495Y-33558058D01*
X81368905Y-33557056D01*
X81469151Y-33556670D01*
X81479762Y-33556667D01*
X81580792Y-33556663D01*
X81662731Y-33556956D01*
G37*
G36*
X76614451Y-33556810D02*
G01*
X76748661Y-33557045D01*
X76864791Y-33557462D01*
X76964382Y-33558089D01*
X77048978Y-33558954D01*
X77120122Y-33560084D01*
X77179355Y-33561508D01*
X77228221Y-33563254D01*
X77268262Y-33565348D01*
X77301022Y-33567820D01*
X77328042Y-33570697D01*
X77342375Y-33572664D01*
X77503147Y-33603350D01*
X77647694Y-33645229D01*
X77778384Y-33699372D01*
X77897582Y-33766852D01*
X78007655Y-33848740D01*
X78064750Y-33899914D01*
X78159645Y-34000882D01*
X78242310Y-34112021D01*
X78313604Y-34235113D01*
X78374389Y-34371938D01*
X78425525Y-34524279D01*
X78467873Y-34693918D01*
X78481818Y-34763167D01*
X78485753Y-34784438D01*
X78489221Y-34805101D01*
X78492259Y-34826596D01*
X78494902Y-34850367D01*
X78497185Y-34877853D01*
X78499145Y-34910498D01*
X78500817Y-34949743D01*
X78502236Y-34997030D01*
X78503439Y-35053801D01*
X78504462Y-35121497D01*
X78505339Y-35201560D01*
X78506106Y-35295432D01*
X78506800Y-35404555D01*
X78507456Y-35530371D01*
X78508109Y-35674321D01*
X78508796Y-35837847D01*
X78508870Y-35855864D01*
X78512858Y-36826854D01*
X78459879Y-36879833D01*
X78111575Y-36879833D01*
X78016320Y-36879781D01*
X77939930Y-36879537D01*
X77880103Y-36878971D01*
X77834537Y-36877950D01*
X77800930Y-36876344D01*
X77776980Y-36874022D01*
X77760386Y-36870853D01*
X77748845Y-36866705D01*
X77740055Y-36861447D01*
X77736069Y-36858436D01*
X77708867Y-36837039D01*
X77704793Y-35924457D01*
X77704028Y-35757196D01*
X77703265Y-35609597D01*
X77702426Y-35480154D01*
X77701432Y-35367364D01*
X77700205Y-35269720D01*
X77698666Y-35185718D01*
X77696736Y-35113854D01*
X77694337Y-35052621D01*
X77691389Y-35000516D01*
X77687815Y-34956034D01*
X77683536Y-34917669D01*
X77678473Y-34883917D01*
X77672547Y-34853272D01*
X77665679Y-34824231D01*
X77657792Y-34795287D01*
X77648807Y-34764937D01*
X77643240Y-34746682D01*
X77601939Y-34640127D01*
X77547103Y-34543230D01*
X77480894Y-34458820D01*
X77405473Y-34389727D01*
X77337070Y-34345852D01*
X77302014Y-34328275D01*
X77268562Y-34313927D01*
X77234106Y-34302484D01*
X77196037Y-34293622D01*
X77151746Y-34287017D01*
X77098627Y-34282346D01*
X77034070Y-34279283D01*
X76955467Y-34277507D01*
X76860210Y-34276691D01*
X76778812Y-34276517D01*
X76437500Y-34276333D01*
X76437500Y-35541567D01*
X76437508Y-35735739D01*
X76437504Y-35909849D01*
X76437440Y-36065002D01*
X76437272Y-36202304D01*
X76436953Y-36322858D01*
X76436439Y-36427770D01*
X76435682Y-36518146D01*
X76434637Y-36595089D01*
X76433259Y-36659704D01*
X76431501Y-36713098D01*
X76429319Y-36756374D01*
X76426666Y-36790637D01*
X76423496Y-36816993D01*
X76419764Y-36836546D01*
X76415424Y-36850401D01*
X76410430Y-36859663D01*
X76404737Y-36865438D01*
X76398298Y-36868829D01*
X76391068Y-36870942D01*
X76383002Y-36872882D01*
X76382361Y-36873052D01*
X76363051Y-36875336D01*
X76326324Y-36877087D01*
X76275319Y-36878330D01*
X76213179Y-36879088D01*
X76143045Y-36879387D01*
X76068059Y-36879252D01*
X75991362Y-36878706D01*
X75916095Y-36877775D01*
X75845399Y-36876484D01*
X75782417Y-36874856D01*
X75730289Y-36872916D01*
X75692157Y-36870690D01*
X75671162Y-36868202D01*
X75668770Y-36867455D01*
X75646886Y-36849397D01*
X75634374Y-36830632D01*
X75632742Y-36816581D01*
X75631224Y-36782789D01*
X75629819Y-36730683D01*
X75628528Y-36661688D01*
X75627350Y-36577229D01*
X75626285Y-36478733D01*
X75625334Y-36367625D01*
X75624497Y-36245331D01*
X75623773Y-36113277D01*
X75623163Y-35972889D01*
X75622667Y-35825592D01*
X75622285Y-35672812D01*
X75622016Y-35515975D01*
X75621861Y-35356507D01*
X75621820Y-35195833D01*
X75621893Y-35035379D01*
X75622080Y-34876571D01*
X75622381Y-34720835D01*
X75622796Y-34569597D01*
X75623325Y-34424282D01*
X75623968Y-34286316D01*
X75624725Y-34157124D01*
X75625597Y-34038134D01*
X75626583Y-33930769D01*
X75627683Y-33836457D01*
X75628897Y-33756623D01*
X75630226Y-33692693D01*
X75631669Y-33646092D01*
X75633227Y-33618246D01*
X75634280Y-33610939D01*
X75648027Y-33584482D01*
X75664955Y-33567235D01*
X75665334Y-33567026D01*
X75679831Y-33564960D01*
X75714700Y-33563101D01*
X75769146Y-33561458D01*
X75842374Y-33560042D01*
X75933591Y-33558864D01*
X76042002Y-33557933D01*
X76166813Y-33557260D01*
X76307230Y-33556855D01*
X76460617Y-33556729D01*
X76614451Y-33556810D01*
G37*
G36*
X69435151Y-33556729D02*
G01*
X69601337Y-33556793D01*
X69747761Y-33556976D01*
X69875827Y-33557301D01*
X69986939Y-33557788D01*
X70082502Y-33558461D01*
X70163919Y-33559340D01*
X70232596Y-33560449D01*
X70289936Y-33561808D01*
X70337343Y-33563441D01*
X70376222Y-33565368D01*
X70407978Y-33567612D01*
X70434014Y-33570196D01*
X70452625Y-33572664D01*
X70601924Y-33600771D01*
X70733858Y-33638136D01*
X70850539Y-33685725D01*
X70954075Y-33744506D01*
X71046578Y-33815443D01*
X71104084Y-33870938D01*
X71174645Y-33957536D01*
X71229958Y-34053491D01*
X71270731Y-34160710D01*
X71297673Y-34281103D01*
X71311491Y-34416580D01*
X71312228Y-34432192D01*
X71311107Y-34574874D01*
X71294752Y-34703478D01*
X71262715Y-34819071D01*
X71214551Y-34922718D01*
X71149814Y-35015486D01*
X71068058Y-35098439D01*
X71016096Y-35139957D01*
X70955150Y-35184921D01*
X71042496Y-35230690D01*
X71127431Y-35284155D01*
X71208238Y-35351821D01*
X71279995Y-35428768D01*
X71337779Y-35510079D01*
X71357007Y-35544962D01*
X71391569Y-35621014D01*
X71416744Y-35694498D01*
X71433943Y-35771488D01*
X71444576Y-35858061D01*
X71449487Y-35943208D01*
X71449524Y-36059669D01*
X71439861Y-36162105D01*
X71419534Y-36255770D01*
X71387578Y-36345920D01*
X71367492Y-36390178D01*
X71343142Y-36437028D01*
X71317971Y-36476386D01*
X71287249Y-36514605D01*
X71246249Y-36558037D01*
X71231754Y-36572520D01*
X71156786Y-36640162D01*
X71079320Y-36695568D01*
X70993790Y-36742056D01*
X70894627Y-36782944D01*
X70855927Y-36796459D01*
X70819146Y-36808843D01*
X70785876Y-36819824D01*
X70754670Y-36829492D01*
X70724084Y-36837933D01*
X70692673Y-36845234D01*
X70658994Y-36851484D01*
X70621600Y-36856770D01*
X70579047Y-36861180D01*
X70529891Y-36864800D01*
X70472687Y-36867719D01*
X70405990Y-36870023D01*
X70328354Y-36871802D01*
X70238337Y-36873141D01*
X70134492Y-36874129D01*
X70015375Y-36874853D01*
X69879542Y-36875401D01*
X69725547Y-36875860D01*
X69551946Y-36876318D01*
X69537167Y-36876357D01*
X69371268Y-36876693D01*
X69216911Y-36876795D01*
X69075105Y-36876670D01*
X68946857Y-36876325D01*
X68833175Y-36875767D01*
X68735065Y-36875003D01*
X68653537Y-36874041D01*
X68589597Y-36872887D01*
X68544253Y-36871549D01*
X68518513Y-36870033D01*
X68513075Y-36869126D01*
X68491251Y-36851974D01*
X68478578Y-36831538D01*
X68477010Y-36816658D01*
X68475603Y-36780840D01*
X68474357Y-36724311D01*
X68473274Y-36647300D01*
X68472356Y-36550033D01*
X68471602Y-36432739D01*
X68471014Y-36295645D01*
X68470651Y-36160167D01*
X69283167Y-36160167D01*
X69793812Y-36159957D01*
X69899303Y-36159695D01*
X70000386Y-36159029D01*
X70094638Y-36158001D01*
X70179637Y-36156658D01*
X70252957Y-36155043D01*
X70312177Y-36153201D01*
X70354871Y-36151177D01*
X70377399Y-36149204D01*
X70462841Y-36129567D01*
X70531017Y-36097733D01*
X70582103Y-36053495D01*
X70616277Y-35996644D01*
X70633715Y-35926975D01*
X70634864Y-35847681D01*
X70621865Y-35770151D01*
X70594790Y-35707368D01*
X70552080Y-35657011D01*
X70492177Y-35616760D01*
X70473792Y-35607755D01*
X70461959Y-35602435D01*
X70450253Y-35597941D01*
X70436849Y-35594194D01*
X70419926Y-35591111D01*
X70397662Y-35588612D01*
X70368235Y-35586618D01*
X70329822Y-35585046D01*
X70280602Y-35583816D01*
X70218752Y-35582848D01*
X70142449Y-35582060D01*
X70049873Y-35581373D01*
X69939201Y-35580705D01*
X69852021Y-35580217D01*
X69283167Y-35577060D01*
X69283167Y-36160167D01*
X68470651Y-36160167D01*
X68470594Y-36138979D01*
X68470341Y-35962968D01*
X68470258Y-35767841D01*
X68470336Y-35577060D01*
X68470346Y-35553825D01*
X68470605Y-35321148D01*
X68470795Y-35200485D01*
X68471381Y-34858417D01*
X68472378Y-34276333D01*
X69283167Y-34276333D01*
X69283167Y-34858417D01*
X69725021Y-34858090D01*
X69823117Y-34857776D01*
X69917453Y-34857018D01*
X70005292Y-34855871D01*
X70083896Y-34854389D01*
X70150528Y-34852628D01*
X70202452Y-34850642D01*
X70236931Y-34848486D01*
X70244536Y-34847680D01*
X70327622Y-34829069D01*
X70395412Y-34797142D01*
X70447184Y-34752507D01*
X70482218Y-34695772D01*
X70499130Y-34632801D01*
X70502462Y-34552298D01*
X70490858Y-34477837D01*
X70465470Y-34412760D01*
X70427450Y-34360410D01*
X70396477Y-34334770D01*
X70375543Y-34321718D01*
X70354405Y-34310760D01*
X70331077Y-34301714D01*
X70303571Y-34294398D01*
X70269899Y-34288630D01*
X70228074Y-34284229D01*
X70176108Y-34281013D01*
X70112014Y-34278800D01*
X70033805Y-34277409D01*
X69939492Y-34276657D01*
X69827089Y-34276365D01*
X69757193Y-34276333D01*
X69283167Y-34276333D01*
X68472378Y-34276333D01*
X68473542Y-33597128D01*
X68498526Y-33576897D01*
X68503499Y-33573348D01*
X68509984Y-33570240D01*
X68519333Y-33567544D01*
X68532899Y-33565231D01*
X68552034Y-33563271D01*
X68578090Y-33561636D01*
X68612420Y-33560297D01*
X68656376Y-33559224D01*
X68711310Y-33558388D01*
X68778575Y-33557761D01*
X68859522Y-33557312D01*
X68955505Y-33557014D01*
X69067875Y-33556836D01*
X69197986Y-33556750D01*
X69347188Y-33556726D01*
X69435151Y-33556729D01*
G37*
G36*
X62307276Y-33556729D02*
G01*
X62479825Y-33556793D01*
X62632521Y-33556975D01*
X62766682Y-33557293D01*
X62883621Y-33557767D01*
X62984653Y-33558415D01*
X63071095Y-33559256D01*
X63144260Y-33560308D01*
X63205465Y-33561591D01*
X63256023Y-33563124D01*
X63297250Y-33564925D01*
X63330461Y-33567013D01*
X63356971Y-33569407D01*
X63377667Y-33572061D01*
X63535790Y-33604687D01*
X63679799Y-33652265D01*
X63809325Y-33714549D01*
X63924000Y-33791289D01*
X64023454Y-33882240D01*
X64107319Y-33987154D01*
X64175226Y-34105782D01*
X64176251Y-34107939D01*
X64205239Y-34173183D01*
X64226928Y-34233134D01*
X64242271Y-34292799D01*
X64252226Y-34357187D01*
X64257746Y-34431305D01*
X64259789Y-34520162D01*
X64259868Y-34546208D01*
X64258562Y-34639902D01*
X64254006Y-34717461D01*
X64245244Y-34783790D01*
X64231319Y-34843799D01*
X64211274Y-34902392D01*
X64184152Y-34964477D01*
X64174353Y-34984802D01*
X64124501Y-35066347D01*
X64058191Y-35144552D01*
X63980096Y-35214880D01*
X63894891Y-35272793D01*
X63856992Y-35292864D01*
X63816378Y-35312961D01*
X63784002Y-35329880D01*
X63763895Y-35341461D01*
X63759277Y-35345250D01*
X63768062Y-35351809D01*
X63791206Y-35363642D01*
X63819701Y-35376446D01*
X63871129Y-35405082D01*
X63926692Y-35449499D01*
X63955635Y-35476988D01*
X64019670Y-35551865D01*
X64075561Y-35641779D01*
X64123559Y-35747535D01*
X64163916Y-35869936D01*
X64196882Y-36009787D01*
X64222708Y-36167890D01*
X64241646Y-36345050D01*
X64246432Y-36407914D01*
X64250432Y-36478658D01*
X64253269Y-36555077D01*
X64254716Y-36628763D01*
X64254547Y-36691310D01*
X64254323Y-36700874D01*
X64252644Y-36754884D01*
X64250520Y-36791973D01*
X64247035Y-36816381D01*
X64241269Y-36832348D01*
X64232305Y-36844115D01*
X64221097Y-36854315D01*
X64191403Y-36879833D01*
X63852801Y-36879833D01*
X63750670Y-36879657D01*
X63667660Y-36878940D01*
X63601725Y-36877401D01*
X63550820Y-36874759D01*
X63512901Y-36870734D01*
X63485922Y-36865043D01*
X63467839Y-36857407D01*
X63456607Y-36847542D01*
X63450181Y-36835169D01*
X63447286Y-36824078D01*
X63445516Y-36806452D01*
X63443413Y-36771361D01*
X63441147Y-36722502D01*
X63438888Y-36663573D01*
X63436807Y-36598269D01*
X63436641Y-36592454D01*
X63430542Y-36450884D01*
X63420590Y-36327627D01*
X63406454Y-36220124D01*
X63387804Y-36125817D01*
X63366482Y-36048843D01*
X63332894Y-35962375D01*
X63291425Y-35892365D01*
X63239021Y-35835706D01*
X63172629Y-35789289D01*
X63089195Y-35750007D01*
X63063168Y-35740155D01*
X63021660Y-35725460D01*
X62984118Y-35713411D01*
X62947808Y-35703712D01*
X62909999Y-35696066D01*
X62867957Y-35690176D01*
X62818950Y-35685747D01*
X62760247Y-35682480D01*
X62689114Y-35680081D01*
X62602819Y-35678251D01*
X62498630Y-35676695D01*
X62475701Y-35676394D01*
X62097610Y-35671505D01*
X62094701Y-36255442D01*
X62091792Y-36839380D01*
X62066807Y-36859606D01*
X62058866Y-36865162D01*
X62048731Y-36869591D01*
X62034107Y-36873013D01*
X62012698Y-36875551D01*
X61982207Y-36877325D01*
X61940341Y-36878458D01*
X61884804Y-36879069D01*
X61813299Y-36879279D01*
X61723532Y-36879212D01*
X61696390Y-36879162D01*
X61611952Y-36878712D01*
X61533515Y-36877747D01*
X61463793Y-36876344D01*
X61405501Y-36874578D01*
X61361353Y-36872525D01*
X61334065Y-36870260D01*
X61326992Y-36868863D01*
X61305189Y-36851935D01*
X61292495Y-36831538D01*
X61290927Y-36816658D01*
X61289520Y-36780840D01*
X61288274Y-36724311D01*
X61287191Y-36647300D01*
X61286272Y-36550033D01*
X61285518Y-36432739D01*
X61284931Y-36295645D01*
X61284510Y-36138979D01*
X61284258Y-35962968D01*
X61284175Y-35767841D01*
X61284263Y-35553825D01*
X61284522Y-35321148D01*
X61284711Y-35200485D01*
X61285152Y-34943083D01*
X61286294Y-34276333D01*
X62097083Y-34276333D01*
X62097083Y-34943083D01*
X62645496Y-34943083D01*
X62770410Y-34943009D01*
X62875992Y-34942752D01*
X62964077Y-34942262D01*
X63036499Y-34941488D01*
X63095092Y-34940378D01*
X63141690Y-34938881D01*
X63178129Y-34936946D01*
X63206243Y-34934523D01*
X63227865Y-34931559D01*
X63244831Y-34928005D01*
X63251391Y-34926212D01*
X63292780Y-34910052D01*
X63329488Y-34885284D01*
X63361937Y-34854774D01*
X63397067Y-34813965D01*
X63421127Y-34772753D01*
X63436628Y-34724930D01*
X63446082Y-34664289D01*
X63448216Y-34641458D01*
X63447919Y-34552178D01*
X63431919Y-34472933D01*
X63400927Y-34405610D01*
X63355653Y-34352098D01*
X63332706Y-34334301D01*
X63313773Y-34322020D01*
X63294785Y-34311604D01*
X63273901Y-34302900D01*
X63249276Y-34295755D01*
X63219069Y-34290015D01*
X63181437Y-34285528D01*
X63134537Y-34282141D01*
X63076527Y-34279701D01*
X63005563Y-34278055D01*
X62919803Y-34277049D01*
X62817404Y-34276531D01*
X62696524Y-34276347D01*
X62634610Y-34276333D01*
X62097083Y-34276333D01*
X61286294Y-34276333D01*
X61287458Y-33597128D01*
X61312443Y-33576897D01*
X61317271Y-33573450D01*
X61323577Y-33570418D01*
X61332671Y-33567775D01*
X61345862Y-33565494D01*
X61364458Y-33563549D01*
X61389768Y-33561913D01*
X61423102Y-33560560D01*
X61465768Y-33559464D01*
X61519076Y-33558597D01*
X61584334Y-33557933D01*
X61662852Y-33557445D01*
X61755938Y-33557108D01*
X61864901Y-33556894D01*
X61991051Y-33556777D01*
X62135696Y-33556731D01*
X62300146Y-33556728D01*
X62307276Y-33556729D01*
G37*
G36*
X84991135Y-33556714D02*
G01*
X85068976Y-33556938D01*
X85130099Y-33557464D01*
X85176728Y-33558414D01*
X85211087Y-33559913D01*
X85235401Y-33562084D01*
X85251893Y-33565052D01*
X85262788Y-33568939D01*
X85270310Y-33573871D01*
X85274583Y-33577833D01*
X85290698Y-33601990D01*
X85296219Y-33622812D01*
X85297062Y-33803096D01*
X85291906Y-33965726D01*
X85280446Y-34113435D01*
X85262375Y-34248957D01*
X85237387Y-34375025D01*
X85205178Y-34494371D01*
X85195176Y-34525878D01*
X85166709Y-34603989D01*
X85131815Y-34686080D01*
X85093592Y-34765601D01*
X85055141Y-34836005D01*
X85028286Y-34878496D01*
X84991153Y-34926571D01*
X84942508Y-34981162D01*
X84887566Y-35037096D01*
X84831542Y-35089196D01*
X84779651Y-35132290D01*
X84753554Y-35151084D01*
X84720627Y-35173551D01*
X84696295Y-35191266D01*
X84684465Y-35201339D01*
X84683991Y-35202514D01*
X84694658Y-35207439D01*
X84720350Y-35217959D01*
X84756308Y-35232142D01*
X84771875Y-35238168D01*
X84885167Y-35288833D01*
X84983411Y-35348557D01*
X85067976Y-35419054D01*
X85140231Y-35502039D01*
X85201545Y-35599227D01*
X85253286Y-35712332D01*
X85296823Y-35843069D01*
X85317352Y-35921387D01*
X85338883Y-36019848D01*
X85355969Y-36119996D01*
X85369064Y-36225985D01*
X85378621Y-36341966D01*
X85385093Y-36472094D01*
X85387892Y-36567625D01*
X85389635Y-36647557D01*
X85390664Y-36709093D01*
X85390825Y-36754998D01*
X85389962Y-36788035D01*
X85387920Y-36810969D01*
X85384543Y-36826562D01*
X85379675Y-36837580D01*
X85373161Y-36846785D01*
X85372112Y-36848083D01*
X85350558Y-36874542D01*
X84994663Y-36877594D01*
X84638769Y-36880647D01*
X84576083Y-36817961D01*
X84576047Y-36655751D01*
X84571933Y-36482278D01*
X84559777Y-36324304D01*
X84539740Y-36182667D01*
X84511980Y-36058206D01*
X84476657Y-35951759D01*
X84433929Y-35864165D01*
X84421980Y-35845114D01*
X84384039Y-35799160D01*
X84331349Y-35751210D01*
X84269336Y-35705669D01*
X84203427Y-35666945D01*
X84201316Y-35665869D01*
X84138046Y-35639629D01*
X84061615Y-35616951D01*
X83979954Y-35599634D01*
X83900995Y-35589479D01*
X83856417Y-35587570D01*
X83747799Y-35595491D01*
X83641480Y-35618221D01*
X83540760Y-35654214D01*
X83448941Y-35701922D01*
X83369323Y-35759798D01*
X83305208Y-35826294D01*
X83284063Y-35855855D01*
X83245873Y-35925097D01*
X83213967Y-36005684D01*
X83188014Y-36099265D01*
X83167684Y-36207488D01*
X83152646Y-36332003D01*
X83142568Y-36474457D01*
X83138398Y-36581776D01*
X83131458Y-36828761D01*
X83072070Y-36879833D01*
X82373788Y-36879833D01*
X82346413Y-36852458D01*
X82319038Y-36825084D01*
X82325135Y-36548188D01*
X82327268Y-36468285D01*
X82330034Y-36390503D01*
X82333235Y-36318863D01*
X82336678Y-36257384D01*
X82340169Y-36210084D01*
X82342660Y-36186625D01*
X82371336Y-36012677D01*
X82407914Y-35857951D01*
X82452623Y-35721939D01*
X82505690Y-35604136D01*
X82567345Y-35504037D01*
X82637816Y-35421136D01*
X82717331Y-35354926D01*
X82718708Y-35353979D01*
X82760388Y-35328231D01*
X82813916Y-35299158D01*
X82871345Y-35270928D01*
X82909208Y-35254070D01*
X82954579Y-35234847D01*
X82992132Y-35218784D01*
X83017972Y-35207558D01*
X83028205Y-35202845D01*
X83028209Y-35202842D01*
X83021326Y-35196389D01*
X83000736Y-35180982D01*
X82970301Y-35159469D01*
X82956673Y-35150091D01*
X82843571Y-35060049D01*
X82742953Y-34953234D01*
X82655266Y-34830281D01*
X82580955Y-34691828D01*
X82520468Y-34538510D01*
X82513947Y-34518476D01*
X82484858Y-34418393D01*
X82461282Y-34316860D01*
X82442619Y-34209890D01*
X82428269Y-34093494D01*
X82417636Y-33963685D01*
X82410712Y-33831262D01*
X82408264Y-33749344D01*
X82408745Y-33685959D01*
X82412514Y-33638629D01*
X82419931Y-33604877D01*
X82431354Y-33582226D01*
X82447142Y-33568198D01*
X82448985Y-33567169D01*
X82465002Y-33564283D01*
X82500436Y-33561787D01*
X82553541Y-33559730D01*
X82622572Y-33558161D01*
X82705781Y-33557128D01*
X82801423Y-33556681D01*
X82823433Y-33556667D01*
X82919543Y-33556712D01*
X82996717Y-33556932D01*
X83057187Y-33557455D01*
X83103186Y-33558408D01*
X83136945Y-33559919D01*
X83160695Y-33562115D01*
X83176668Y-33565123D01*
X83187096Y-33569071D01*
X83194209Y-33574086D01*
X83198196Y-33578066D01*
X83204358Y-33586270D01*
X83209247Y-33597843D01*
X83213098Y-33615372D01*
X83216143Y-33641440D01*
X83218614Y-33678633D01*
X83220744Y-33729536D01*
X83222767Y-33796734D01*
X83224651Y-33871754D01*
X83230642Y-34040285D01*
X83240090Y-34188392D01*
X83253059Y-34316543D01*
X83269614Y-34425208D01*
X83289818Y-34514854D01*
X83313736Y-34585950D01*
X83325706Y-34611973D01*
X83366873Y-34670721D01*
X83426468Y-34723682D01*
X83502179Y-34769302D01*
X83591694Y-34806024D01*
X83632535Y-34818335D01*
X83706491Y-34832930D01*
X83792312Y-34841006D01*
X83882870Y-34842566D01*
X83971041Y-34837613D01*
X84049696Y-34826149D01*
X84082677Y-34818136D01*
X84184256Y-34782731D01*
X84266593Y-34740056D01*
X84330521Y-34689548D01*
X84376874Y-34630647D01*
X84386206Y-34613778D01*
X84411460Y-34551526D01*
X84433144Y-34470572D01*
X84451313Y-34370511D01*
X84466023Y-34250939D01*
X84477329Y-34111450D01*
X84485287Y-33951640D01*
X84487850Y-33870769D01*
X84490172Y-33788438D01*
X84492385Y-33724587D01*
X84494742Y-33676535D01*
X84497495Y-33641599D01*
X84500897Y-33617096D01*
X84505203Y-33600344D01*
X84510664Y-33588661D01*
X84515065Y-33582374D01*
X84535286Y-33556667D01*
X84894351Y-33556667D01*
X84991135Y-33556714D01*
G37*
G36*
X58941148Y-35746012D02*
G01*
X58969320Y-35770462D01*
X58995879Y-35805549D01*
X59013645Y-35839681D01*
X59023784Y-35879477D01*
X59027501Y-35928548D01*
X59024565Y-35976437D01*
X59017332Y-36006710D01*
X58999598Y-36036416D01*
X58969341Y-36071618D01*
X58932242Y-36107017D01*
X58893986Y-36137314D01*
X58860256Y-36157210D01*
X58852901Y-36160034D01*
X58794031Y-36182888D01*
X58738185Y-36213475D01*
X58678815Y-36255610D01*
X58652208Y-36276884D01*
X58499370Y-36388619D01*
X58334813Y-36482819D01*
X58159045Y-36559231D01*
X57977500Y-36616324D01*
X57937872Y-36625830D01*
X57885726Y-36637174D01*
X57824323Y-36649761D01*
X57756922Y-36662997D01*
X57686784Y-36676287D01*
X57617168Y-36689035D01*
X57551334Y-36700647D01*
X57492542Y-36710529D01*
X57444052Y-36718085D01*
X57409125Y-36722720D01*
X57391019Y-36723839D01*
X57389695Y-36723586D01*
X57376764Y-36711596D01*
X57360623Y-36687602D01*
X57354860Y-36677005D01*
X57318181Y-36622473D01*
X57265647Y-36573161D01*
X57195133Y-36527261D01*
X57152935Y-36505255D01*
X57049816Y-36461328D01*
X56944100Y-36430167D01*
X56828901Y-36409940D01*
X56771889Y-36403895D01*
X56643016Y-36398881D01*
X56514371Y-36405770D01*
X56389974Y-36423829D01*
X56273842Y-36452323D01*
X56169994Y-36490519D01*
X56100276Y-36526474D01*
X56051027Y-36557858D01*
X56014805Y-36586387D01*
X55985347Y-36617920D01*
X55956392Y-36658319D01*
X55951695Y-36665521D01*
X55938292Y-36686166D01*
X55926315Y-36701597D01*
X55912850Y-36712064D01*
X55894981Y-36717816D01*
X55869791Y-36719101D01*
X55834367Y-36716169D01*
X55785791Y-36709268D01*
X55721148Y-36698648D01*
X55668268Y-36689722D01*
X55514628Y-36661543D01*
X55378462Y-36631212D01*
X55256090Y-36597306D01*
X55143831Y-36558401D01*
X55038004Y-36513073D01*
X54934930Y-36459897D01*
X54902833Y-36440625D01*
X55598917Y-36440625D01*
X55604208Y-36445917D01*
X55609500Y-36440625D01*
X55604208Y-36435333D01*
X55598917Y-36440625D01*
X54902833Y-36440625D01*
X54830928Y-36397451D01*
X54722318Y-36324309D01*
X54720500Y-36323028D01*
X54635485Y-36264725D01*
X54563391Y-36219269D01*
X54501387Y-36185368D01*
X54446644Y-36161727D01*
X54396333Y-36147054D01*
X54347624Y-36140054D01*
X54318000Y-36139000D01*
X54291998Y-36141006D01*
X54266374Y-36148194D01*
X54238583Y-36162316D01*
X54206080Y-36185125D01*
X54166320Y-36218374D01*
X54116758Y-36263815D01*
X54065433Y-36312939D01*
X53912246Y-36473644D01*
X53779236Y-36639723D01*
X53665958Y-36811769D01*
X53597107Y-36938185D01*
X53569188Y-36991601D01*
X53547031Y-37027901D01*
X53528830Y-37049739D01*
X53514879Y-37059009D01*
X53497405Y-37064007D01*
X53462539Y-37072381D01*
X53413486Y-37083468D01*
X53353449Y-37096603D01*
X53285631Y-37111120D01*
X53213236Y-37126356D01*
X53139467Y-37141646D01*
X53067529Y-37156326D01*
X53000624Y-37169730D01*
X52941956Y-37181194D01*
X52894729Y-37190054D01*
X52862146Y-37195645D01*
X52848105Y-37197333D01*
X52833422Y-37191955D01*
X52817692Y-37173724D01*
X52798428Y-37139491D01*
X52791796Y-37126059D01*
X52739870Y-37042834D01*
X52670435Y-36971399D01*
X52583604Y-36911817D01*
X52479487Y-36864152D01*
X52358198Y-36828466D01*
X52222483Y-36805142D01*
X52097838Y-36800389D01*
X51972131Y-36815423D01*
X51848569Y-36849297D01*
X51730360Y-36901067D01*
X51620711Y-36969787D01*
X51593882Y-36990408D01*
X51552594Y-37022576D01*
X51525226Y-37041357D01*
X51510009Y-37047574D01*
X51505174Y-37042048D01*
X51507311Y-37030646D01*
X51512242Y-37011671D01*
X51520112Y-36978693D01*
X51529335Y-36938384D01*
X51530596Y-36932750D01*
X51564590Y-36813055D01*
X51613959Y-36686427D01*
X51676510Y-36557742D01*
X51750050Y-36431875D01*
X51768831Y-36403019D01*
X51819448Y-36334308D01*
X51882456Y-36260301D01*
X51953129Y-36185761D01*
X52026743Y-36115448D01*
X52098572Y-36054123D01*
X52159333Y-36009528D01*
X52265221Y-35945127D01*
X52376495Y-35887506D01*
X52489942Y-35837753D01*
X52602352Y-35796958D01*
X52710511Y-35766210D01*
X52811209Y-35746597D01*
X52901235Y-35739209D01*
X52950443Y-35741262D01*
X53042702Y-35756575D01*
X53121554Y-35783589D01*
X53190667Y-35824561D01*
X53253707Y-35881747D01*
X53314341Y-35957406D01*
X53323952Y-35971214D01*
X53356585Y-36016822D01*
X53390526Y-36060843D01*
X53420996Y-36097237D01*
X53437293Y-36114542D01*
X53497968Y-36160373D01*
X53566688Y-36189567D01*
X53638607Y-36200305D01*
X53663367Y-36199390D01*
X53700979Y-36194202D01*
X53737909Y-36184407D01*
X53777570Y-36168391D01*
X53823373Y-36144538D01*
X53878734Y-36111230D01*
X53947065Y-36066853D01*
X53956364Y-36060664D01*
X54046549Y-36002475D01*
X54124694Y-35957056D01*
X54194578Y-35923114D01*
X54259981Y-35899354D01*
X54324680Y-35884481D01*
X54392454Y-35877202D01*
X54467083Y-35876222D01*
X54492612Y-35877012D01*
X54559678Y-35880828D01*
X54613432Y-35887107D01*
X54661692Y-35897079D01*
X54709917Y-35911206D01*
X54797571Y-35942530D01*
X54873718Y-35976886D01*
X54943588Y-36017495D01*
X55012412Y-36067582D01*
X55085419Y-36130368D01*
X55123712Y-36166180D01*
X55169691Y-36207905D01*
X55218591Y-36248698D01*
X55264394Y-36283727D01*
X55299333Y-36307136D01*
X55332237Y-36325246D01*
X55373980Y-36346153D01*
X55420539Y-36368096D01*
X55467893Y-36389314D01*
X55512017Y-36408046D01*
X55548890Y-36422531D01*
X55574488Y-36431008D01*
X55584606Y-36432005D01*
X55578033Y-36424821D01*
X55557299Y-36408138D01*
X55525668Y-36384474D01*
X55488065Y-36357517D01*
X55428846Y-36313698D01*
X55370164Y-36266466D01*
X55315943Y-36219285D01*
X55270108Y-36175622D01*
X55236583Y-36138942D01*
X55228305Y-36128143D01*
X55207802Y-36099349D01*
X55275334Y-36113505D01*
X55387014Y-36135116D01*
X55514236Y-36156655D01*
X55651385Y-36177352D01*
X55792848Y-36196435D01*
X55933013Y-36213132D01*
X56066264Y-36226672D01*
X56149250Y-36233621D01*
X56456799Y-36249180D01*
X56773057Y-36250748D01*
X57092765Y-36238626D01*
X57410662Y-36213112D01*
X57721488Y-36174506D01*
X57990750Y-36128831D01*
X58033962Y-36120790D01*
X58068484Y-36114938D01*
X58089684Y-36112028D01*
X58094090Y-36112015D01*
X58088910Y-36120616D01*
X58069992Y-36139865D01*
X58040226Y-36167312D01*
X58002500Y-36200506D01*
X57959704Y-36236997D01*
X57914727Y-36274336D01*
X57870460Y-36310071D01*
X57829790Y-36341753D01*
X57795609Y-36366932D01*
X57784375Y-36374650D01*
X57734536Y-36408058D01*
X57702003Y-36430651D01*
X57686390Y-36443236D01*
X57687310Y-36446617D01*
X57704378Y-36441602D01*
X57737207Y-36428995D01*
X57763370Y-36418502D01*
X57869010Y-36373063D01*
X57959279Y-36327256D01*
X58039729Y-36277517D01*
X58115911Y-36220280D01*
X58193378Y-36151981D01*
X58223747Y-36122932D01*
X58335036Y-36014562D01*
X58612606Y-35875697D01*
X58684310Y-35840251D01*
X58750891Y-35808143D01*
X58809732Y-35780576D01*
X58858211Y-35758747D01*
X58893709Y-35743858D01*
X58913607Y-35737109D01*
X58915772Y-35736833D01*
X58941148Y-35746012D01*
G37*
G36*
X56920018Y-31057910D02*
G01*
X57120227Y-31065458D01*
X57318180Y-31076546D01*
X57510357Y-31090965D01*
X57693240Y-31108508D01*
X57863308Y-31128966D01*
X58017042Y-31152131D01*
X58064041Y-31160417D01*
X58270281Y-31202872D01*
X58459955Y-31251340D01*
X58631887Y-31305473D01*
X58784902Y-31364921D01*
X58846371Y-31392881D01*
X58966731Y-31455784D01*
X59067862Y-31520846D01*
X59151698Y-31590000D01*
X59220176Y-31665184D01*
X59275231Y-31748334D01*
X59318798Y-31841387D01*
X59332563Y-31879208D01*
X59361292Y-31963875D01*
X59360507Y-32376625D01*
X59360250Y-32450733D01*
X59359725Y-32522453D01*
X59358868Y-32593334D01*
X59357617Y-32664927D01*
X59355907Y-32738782D01*
X59353675Y-32816449D01*
X59350858Y-32899478D01*
X59347392Y-32989421D01*
X59343214Y-33087826D01*
X59338260Y-33196244D01*
X59332468Y-33316226D01*
X59325773Y-33449321D01*
X59318112Y-33597080D01*
X59309422Y-33761053D01*
X59299639Y-33942791D01*
X59288700Y-34143843D01*
X59286701Y-34180406D01*
X59278587Y-34326009D01*
X59271156Y-34452301D01*
X59264199Y-34561121D01*
X59257509Y-34654305D01*
X59250877Y-34733692D01*
X59244097Y-34801120D01*
X59236961Y-34858424D01*
X59229260Y-34907445D01*
X59220787Y-34950018D01*
X59211334Y-34987981D01*
X59200694Y-35023173D01*
X59188659Y-35057431D01*
X59187063Y-35061693D01*
X59141478Y-35155683D01*
X59075914Y-35249893D01*
X58991518Y-35343219D01*
X58889436Y-35434555D01*
X58770814Y-35522798D01*
X58636798Y-35606843D01*
X58599292Y-35628026D01*
X58454736Y-35701996D01*
X58304657Y-35766745D01*
X58146878Y-35822837D01*
X57979224Y-35870834D01*
X57799516Y-35911301D01*
X57605579Y-35944798D01*
X57395235Y-35971891D01*
X57197000Y-35990705D01*
X57149530Y-35993739D01*
X57085274Y-35996650D01*
X57008024Y-35999367D01*
X56921568Y-36001821D01*
X56829699Y-36003942D01*
X56736207Y-36005661D01*
X56644882Y-36006908D01*
X56559515Y-36007614D01*
X56483897Y-36007708D01*
X56421818Y-36007121D01*
X56377069Y-36005784D01*
X56376792Y-36005770D01*
X56180511Y-35994578D01*
X56003012Y-35981495D01*
X55841959Y-35966122D01*
X55695020Y-35948062D01*
X55559862Y-35926917D01*
X55434151Y-35902287D01*
X55315554Y-35873775D01*
X55201737Y-35840982D01*
X55090366Y-35803510D01*
X55006421Y-35771852D01*
X54839007Y-35699776D01*
X54685136Y-35620970D01*
X54545941Y-35536316D01*
X54422559Y-35446693D01*
X54316126Y-35352983D01*
X54227778Y-35256065D01*
X54158650Y-35156821D01*
X54122337Y-35086511D01*
X54111150Y-35060885D01*
X54101322Y-35036871D01*
X54092666Y-35012849D01*
X54084994Y-34987199D01*
X54078120Y-34958301D01*
X54071856Y-34924535D01*
X54066017Y-34884281D01*
X54060414Y-34835920D01*
X54054861Y-34777830D01*
X54049172Y-34708393D01*
X54043158Y-34625989D01*
X54036634Y-34528997D01*
X54029412Y-34415798D01*
X54021306Y-34284771D01*
X54012128Y-34134297D01*
X54011755Y-34128167D01*
X54000310Y-33938598D01*
X53990186Y-33767675D01*
X53981265Y-33612923D01*
X53973426Y-33471872D01*
X53966551Y-33342048D01*
X53960519Y-33220979D01*
X53955211Y-33106193D01*
X53950508Y-32995215D01*
X53946291Y-32885575D01*
X53942439Y-32774800D01*
X53938834Y-32660416D01*
X53936796Y-32590240D01*
X54092538Y-32590240D01*
X54092965Y-32647933D01*
X54093388Y-32678250D01*
X54094305Y-32720726D01*
X54096037Y-32781873D01*
X54098496Y-32859213D01*
X54101593Y-32950270D01*
X54105241Y-33052565D01*
X54109351Y-33163623D01*
X54113835Y-33280965D01*
X54118604Y-33402115D01*
X54123149Y-33514333D01*
X54128234Y-33638872D01*
X54133265Y-33763499D01*
X54138137Y-33885502D01*
X54142745Y-34002170D01*
X54146982Y-34110790D01*
X54150742Y-34208651D01*
X54153919Y-34293041D01*
X54156408Y-34361248D01*
X54157876Y-34403661D01*
X54160471Y-34479018D01*
X54162863Y-34536424D01*
X54165464Y-34579088D01*
X54168687Y-34610217D01*
X54172944Y-34633018D01*
X54178648Y-34650700D01*
X54186212Y-34666469D01*
X54193270Y-34678828D01*
X54201016Y-34691960D01*
X54208514Y-34703298D01*
X54217661Y-34714092D01*
X54230352Y-34725597D01*
X54248483Y-34739065D01*
X54273949Y-34755749D01*
X54308647Y-34776902D01*
X54354473Y-34803777D01*
X54413322Y-34837626D01*
X54487090Y-34879702D01*
X54560220Y-34921325D01*
X54630575Y-34961736D01*
X54701676Y-35003231D01*
X54769195Y-35043237D01*
X54828806Y-35079182D01*
X54876182Y-35108493D01*
X54892065Y-35118643D01*
X54984031Y-35175862D01*
X55062046Y-35219147D01*
X55125619Y-35248241D01*
X55162398Y-35260314D01*
X55214883Y-35266618D01*
X55276110Y-35263627D01*
X55336308Y-35252310D01*
X55374169Y-35239271D01*
X55402532Y-35224595D01*
X55442563Y-35201109D01*
X55488643Y-35172217D01*
X55529288Y-35145327D01*
X55661617Y-35062859D01*
X55790021Y-34998641D01*
X55918096Y-34951140D01*
X56049440Y-34918821D01*
X56068446Y-34915394D01*
X56106409Y-34911012D01*
X56162690Y-34907465D01*
X56234458Y-34904728D01*
X56318881Y-34902779D01*
X56413127Y-34901592D01*
X56514367Y-34901143D01*
X56619768Y-34901409D01*
X56726499Y-34902365D01*
X56831728Y-34903987D01*
X56932625Y-34906250D01*
X57026359Y-34909131D01*
X57110097Y-34912606D01*
X57181008Y-34916649D01*
X57236262Y-34921238D01*
X57269335Y-34925645D01*
X57365943Y-34946666D01*
X57455988Y-34974499D01*
X57544083Y-35011182D01*
X57634840Y-35058751D01*
X57732874Y-35119242D01*
X57781145Y-35151601D01*
X57839010Y-35190409D01*
X57890454Y-35222078D01*
X57937523Y-35246246D01*
X57982262Y-35262551D01*
X58026716Y-35270633D01*
X58072930Y-35270129D01*
X58122950Y-35260680D01*
X58178821Y-35241922D01*
X58242588Y-35213495D01*
X58316297Y-35175038D01*
X58401993Y-35126189D01*
X58501721Y-35066586D01*
X58599292Y-35007051D01*
X58669507Y-34964302D01*
X58744642Y-34919054D01*
X58819022Y-34874692D01*
X58886976Y-34834598D01*
X58942830Y-34802155D01*
X58944609Y-34801135D01*
X59008137Y-34764106D01*
X59055573Y-34733556D01*
X59089399Y-34705814D01*
X59112096Y-34677206D01*
X59126146Y-34644062D01*
X59134031Y-34602709D01*
X59138233Y-34549476D01*
X59139943Y-34512116D01*
X59141465Y-34473852D01*
X59143615Y-34417515D01*
X59146278Y-34346185D01*
X59149341Y-34262942D01*
X59152691Y-34170867D01*
X59156215Y-34073040D01*
X59159800Y-33972541D01*
X59160849Y-33942958D01*
X59164668Y-33836428D01*
X59168694Y-33726685D01*
X59172773Y-33617737D01*
X59176753Y-33513591D01*
X59180479Y-33418256D01*
X59183799Y-33335738D01*
X59186559Y-33270045D01*
X59186752Y-33265625D01*
X59193281Y-33111151D01*
X59198469Y-32976656D01*
X59202330Y-32860993D01*
X59204879Y-32763018D01*
X59206132Y-32681586D01*
X59206103Y-32615550D01*
X59204806Y-32563767D01*
X59202258Y-32525090D01*
X59198472Y-32498375D01*
X59196804Y-32491450D01*
X59169630Y-32431568D01*
X59126545Y-32382303D01*
X59071084Y-32345905D01*
X59006779Y-32324622D01*
X58937164Y-32320706D01*
X58929746Y-32321388D01*
X58904758Y-32327289D01*
X58861120Y-32341526D01*
X58799516Y-32363824D01*
X58720632Y-32393908D01*
X58625153Y-32431502D01*
X58513764Y-32476330D01*
X58387150Y-32528117D01*
X58245996Y-32586587D01*
X58090986Y-32651465D01*
X57922807Y-32722475D01*
X57749923Y-32796019D01*
X57629686Y-32847217D01*
X57526096Y-32890699D01*
X57436357Y-32927115D01*
X57357675Y-32957115D01*
X57287253Y-32981350D01*
X57222296Y-33000468D01*
X57160007Y-33015119D01*
X57097590Y-33025953D01*
X57032250Y-33033621D01*
X56961192Y-33038771D01*
X56881618Y-33042053D01*
X56790734Y-33044118D01*
X56685743Y-33045615D01*
X56675378Y-33045745D01*
X56574704Y-33046946D01*
X56492522Y-33047696D01*
X56426161Y-33047896D01*
X56372950Y-33047448D01*
X56330217Y-33046251D01*
X56295291Y-33044207D01*
X56265501Y-33041216D01*
X56238174Y-33037179D01*
X56210640Y-33031997D01*
X56190198Y-33027717D01*
X56135355Y-33015022D01*
X56079683Y-32999987D01*
X56020557Y-32981663D01*
X55955350Y-32959099D01*
X55881437Y-32931348D01*
X55796192Y-32897460D01*
X55696988Y-32856485D01*
X55583042Y-32808261D01*
X55507984Y-32776370D01*
X55417490Y-32738157D01*
X55315698Y-32695357D01*
X55206746Y-32649702D01*
X55094772Y-32602926D01*
X54983914Y-32556763D01*
X54878310Y-32512946D01*
X54863375Y-32506765D01*
X54754585Y-32461914D01*
X54663400Y-32424723D01*
X54587974Y-32394507D01*
X54526458Y-32370581D01*
X54477007Y-32352261D01*
X54437772Y-32338861D01*
X54406908Y-32329697D01*
X54382566Y-32324085D01*
X54363336Y-32321376D01*
X54289124Y-32324039D01*
X54223946Y-32345806D01*
X54168175Y-32386472D01*
X54122181Y-32445828D01*
X54113755Y-32460732D01*
X54105203Y-32478195D01*
X54099164Y-32496051D01*
X54095279Y-32518126D01*
X54093190Y-32548246D01*
X54092538Y-32590240D01*
X53936796Y-32590240D01*
X53935818Y-32556542D01*
X53932777Y-32445396D01*
X53930477Y-32353038D01*
X53928937Y-32277101D01*
X53928179Y-32215218D01*
X53928224Y-32165024D01*
X53929091Y-32124150D01*
X53930802Y-32090231D01*
X53933378Y-32060899D01*
X53936838Y-32033789D01*
X53940588Y-32010146D01*
X53966918Y-31894060D01*
X54005058Y-31792552D01*
X54057081Y-31701408D01*
X54125055Y-31616414D01*
X54143708Y-31596734D01*
X54233263Y-31518233D01*
X54342917Y-31445568D01*
X54472403Y-31378803D01*
X54621455Y-31318004D01*
X54789807Y-31263236D01*
X54977191Y-31214565D01*
X55183342Y-31172055D01*
X55407992Y-31135772D01*
X55650877Y-31105781D01*
X55911729Y-31082147D01*
X56190282Y-31064936D01*
X56341054Y-31058581D01*
X56526912Y-31054263D01*
X56721073Y-31054109D01*
X56920018Y-31057910D01*
G37*
D15*
%TO.C,U3*%
X-18096000Y2731000D02*
X-5904000Y2731000D01*
X-18096000Y-10731000D02*
X-18096000Y2731000D01*
X-5904000Y2731000D02*
X-5904000Y-10731000D01*
X-5904000Y-10731000D02*
X-18096000Y-10731000D01*
D14*
%TO.C,R8*%
X51015000Y-9272936D02*
X51015000Y-9727064D01*
X52485000Y-9272936D02*
X52485000Y-9727064D01*
%TO.C,R14*%
X53515000Y-27227064D02*
X53515000Y-26772936D01*
X54985000Y-27227064D02*
X54985000Y-26772936D01*
D16*
%TO.C,U7*%
X22500000Y7850000D02*
X22500000Y-40350000D01*
X22500000Y-40350000D02*
X32380000Y-40350000D01*
X27450000Y14050000D02*
X45450000Y14050000D01*
X27450000Y7850000D02*
X22500000Y7850000D01*
X27450000Y7850000D02*
X27450000Y14050000D01*
X32380000Y-40350000D02*
X32380000Y-41250000D01*
X32380000Y-41250000D02*
X40510000Y-41250000D01*
X40510000Y-40350000D02*
X50400000Y-40350000D01*
X40510000Y-41250000D02*
X40510000Y-40350000D01*
X45450000Y14050000D02*
X45450000Y7850000D01*
X50400000Y7850000D02*
X45450000Y7850000D01*
X50400000Y-40350000D02*
X50400000Y7850000D01*
D17*
X21980000Y6720000D02*
G75*
G02*
X21780000Y6720000I-100000J0D01*
G01*
X21780000Y6720000D02*
G75*
G02*
X21980000Y6720000I100000J0D01*
G01*
D14*
%TO.C,R4*%
X8015000Y727064D02*
X8015000Y272936D01*
X9485000Y727064D02*
X9485000Y272936D01*
%TO.C,R13*%
X17015000Y-27227064D02*
X17015000Y-26772936D01*
X18485000Y-27227064D02*
X18485000Y-26772936D01*
%TO.C,R3*%
X52727064Y2235000D02*
X52272936Y2235000D01*
X52727064Y765000D02*
X52272936Y765000D01*
D15*
%TO.C,U4*%
X77904000Y2981000D02*
X90096000Y2981000D01*
X77904000Y-10481000D02*
X77904000Y2981000D01*
X90096000Y2981000D02*
X90096000Y-10481000D01*
X90096000Y-10481000D02*
X77904000Y-10481000D01*
%TO.C,U2*%
X55904000Y16981000D02*
X68096000Y16981000D01*
X55904000Y3519000D02*
X55904000Y16981000D01*
X68096000Y16981000D02*
X68096000Y3519000D01*
X68096000Y3519000D02*
X55904000Y3519000D01*
%TD*%
M02*
