%TF.GenerationSoftware,KiCad,Pcbnew,8.0.4*%
%TF.CreationDate,2024-09-15T11:27:28+10:00*%
%TF.ProjectId,SBRcontroller,53425263-6f6e-4747-926f-6c6c65722e6b,rev?*%
%TF.SameCoordinates,PX3d09000PY568bc30*%
%TF.FileFunction,Drillmap*%
%TF.FilePolarity,Positive*%
%FSLAX45Y45*%
G04 Gerber Fmt 4.5, Leading zero omitted, Abs format (unit mm)*
G04 Created by KiCad (PCBNEW 8.0.4) date 2024-09-15 11:27:28*
%MOMM*%
%LPD*%
G01*
G04 APERTURE LIST*
%ADD10C,0.100000*%
%ADD11C,0.200000*%
%ADD12C,0.170688*%
%ADD13C,0.220000*%
%ADD14C,0.345000*%
%ADD15C,0.408940*%
G04 APERTURE END LIST*
D10*
X9275000Y-2625000D02*
G75*
G02*
X7775000Y-4125000I-1500000J0D01*
G01*
X4225000Y-4125000D02*
X7775000Y-4125000D01*
X4225000Y-1625000D02*
X4225000Y-4125000D01*
X2975000Y-1625000D02*
X4225000Y-1625000D01*
X2975000Y-4125000D02*
X2975000Y-1625000D01*
X-575000Y-4125000D02*
X2975000Y-4125000D01*
X-575000Y-4125000D02*
G75*
G02*
X-2075000Y-2625000I0J1500000D01*
G01*
X-2075000Y450000D02*
X-2075000Y-2625000D01*
X-2075000Y450000D02*
G75*
G02*
X-575000Y1950000I1500000J0D01*
G01*
X7775000Y1950000D02*
X-575000Y1950000D01*
X7775000Y1950000D02*
G75*
G02*
X9275000Y450000I0J-1500000D01*
G01*
X9275000Y-2625000D02*
X9275000Y450000D01*
D11*
D12*
X-1793344Y-314656D02*
X-1622656Y-485344D01*
X-1622656Y-314656D02*
X-1793344Y-485344D01*
X-777344Y-314656D02*
X-606656Y-485344D01*
X-606656Y-314656D02*
X-777344Y-485344D01*
X406656Y1110344D02*
X577344Y939656D01*
X577344Y1110344D02*
X406656Y939656D01*
X1422656Y1110344D02*
X1593344Y939656D01*
X1593344Y1110344D02*
X1422656Y939656D01*
X5606656Y1110344D02*
X5777344Y939656D01*
X5777344Y1110344D02*
X5606656Y939656D01*
X6622656Y1110344D02*
X6793344Y939656D01*
X6793344Y1110344D02*
X6622656Y939656D01*
X7806656Y-289656D02*
X7977344Y-460344D01*
X7977344Y-289656D02*
X7806656Y-460344D01*
X8822656Y-289656D02*
X8993344Y-460344D01*
X8993344Y-289656D02*
X8822656Y-460344D01*
D13*
X-1365000Y900000D02*
G75*
G02*
X-1585000Y900000I-110000J0D01*
G01*
X-1585000Y900000D02*
G75*
G02*
X-1365000Y900000I110000J0D01*
G01*
X-1365000Y-3075000D02*
G75*
G02*
X-1585000Y-3075000I-110000J0D01*
G01*
X-1585000Y-3075000D02*
G75*
G02*
X-1365000Y-3075000I110000J0D01*
G01*
X8785000Y900000D02*
G75*
G02*
X8565000Y900000I-110000J0D01*
G01*
X8565000Y900000D02*
G75*
G02*
X8785000Y900000I110000J0D01*
G01*
X8785000Y-3075000D02*
G75*
G02*
X8565000Y-3075000I-110000J0D01*
G01*
X8565000Y-3075000D02*
G75*
G02*
X8785000Y-3075000I110000J0D01*
G01*
D14*
X-135000Y543500D02*
X-135000Y198500D01*
X-307500Y371000D02*
X37500Y371000D01*
X335000Y-2453500D02*
X335000Y-2798500D01*
X162500Y-2626000D02*
X507500Y-2626000D01*
X6865000Y543500D02*
X6865000Y198500D01*
X6692500Y371000D02*
X7037500Y371000D01*
X7335000Y-2453500D02*
X7335000Y-2798500D01*
X7162500Y-2626000D02*
X7507500Y-2626000D01*
D15*
X-1055417Y-544584D02*
X-1055417Y-255416D01*
X-1344584Y-255416D01*
X-1344584Y-544584D01*
X-1055417Y-544584D01*
X1144584Y880416D02*
X1144584Y1169584D01*
X855416Y1169584D01*
X855416Y880416D01*
X1144584Y880416D01*
X6344583Y880416D02*
X6344583Y1169584D01*
X6055416Y1169584D01*
X6055416Y880416D01*
X6344583Y880416D01*
X8544584Y-519583D02*
X8544584Y-230416D01*
X8255416Y-230416D01*
X8255416Y-519583D01*
X8544584Y-519583D01*
D11*
X-1819223Y-4441484D02*
X-1819223Y-4241484D01*
X-1819223Y-4241484D02*
X-1771604Y-4241484D01*
X-1771604Y-4241484D02*
X-1743033Y-4251008D01*
X-1743033Y-4251008D02*
X-1723985Y-4270055D01*
X-1723985Y-4270055D02*
X-1714461Y-4289103D01*
X-1714461Y-4289103D02*
X-1704937Y-4327198D01*
X-1704937Y-4327198D02*
X-1704937Y-4355770D01*
X-1704937Y-4355770D02*
X-1714461Y-4393865D01*
X-1714461Y-4393865D02*
X-1723985Y-4412912D01*
X-1723985Y-4412912D02*
X-1743033Y-4431960D01*
X-1743033Y-4431960D02*
X-1771604Y-4441484D01*
X-1771604Y-4441484D02*
X-1819223Y-4441484D01*
X-1619223Y-4441484D02*
X-1619223Y-4308150D01*
X-1619223Y-4346246D02*
X-1609699Y-4327198D01*
X-1609699Y-4327198D02*
X-1600176Y-4317674D01*
X-1600176Y-4317674D02*
X-1581128Y-4308150D01*
X-1581128Y-4308150D02*
X-1562080Y-4308150D01*
X-1495414Y-4441484D02*
X-1495414Y-4308150D01*
X-1495414Y-4241484D02*
X-1504937Y-4251008D01*
X-1504937Y-4251008D02*
X-1495414Y-4260531D01*
X-1495414Y-4260531D02*
X-1485890Y-4251008D01*
X-1485890Y-4251008D02*
X-1495414Y-4241484D01*
X-1495414Y-4241484D02*
X-1495414Y-4260531D01*
X-1371604Y-4441484D02*
X-1390652Y-4431960D01*
X-1390652Y-4431960D02*
X-1400176Y-4412912D01*
X-1400176Y-4412912D02*
X-1400176Y-4241484D01*
X-1266842Y-4441484D02*
X-1285890Y-4431960D01*
X-1285890Y-4431960D02*
X-1295414Y-4412912D01*
X-1295414Y-4412912D02*
X-1295414Y-4241484D01*
X-1038271Y-4441484D02*
X-1038271Y-4241484D01*
X-1038271Y-4241484D02*
X-971604Y-4384341D01*
X-971604Y-4384341D02*
X-904937Y-4241484D01*
X-904937Y-4241484D02*
X-904937Y-4441484D01*
X-723985Y-4441484D02*
X-723985Y-4336722D01*
X-723985Y-4336722D02*
X-733509Y-4317674D01*
X-733509Y-4317674D02*
X-752556Y-4308150D01*
X-752556Y-4308150D02*
X-790652Y-4308150D01*
X-790652Y-4308150D02*
X-809699Y-4317674D01*
X-723985Y-4431960D02*
X-743033Y-4441484D01*
X-743033Y-4441484D02*
X-790652Y-4441484D01*
X-790652Y-4441484D02*
X-809699Y-4431960D01*
X-809699Y-4431960D02*
X-819223Y-4412912D01*
X-819223Y-4412912D02*
X-819223Y-4393865D01*
X-819223Y-4393865D02*
X-809699Y-4374817D01*
X-809699Y-4374817D02*
X-790652Y-4365293D01*
X-790652Y-4365293D02*
X-743033Y-4365293D01*
X-743033Y-4365293D02*
X-723985Y-4355770D01*
X-628747Y-4308150D02*
X-628747Y-4508150D01*
X-628747Y-4317674D02*
X-609699Y-4308150D01*
X-609699Y-4308150D02*
X-571604Y-4308150D01*
X-571604Y-4308150D02*
X-552557Y-4317674D01*
X-552557Y-4317674D02*
X-543033Y-4327198D01*
X-543033Y-4327198D02*
X-533509Y-4346246D01*
X-533509Y-4346246D02*
X-533509Y-4403389D01*
X-533509Y-4403389D02*
X-543033Y-4422436D01*
X-543033Y-4422436D02*
X-552557Y-4431960D01*
X-552557Y-4431960D02*
X-571604Y-4441484D01*
X-571604Y-4441484D02*
X-609699Y-4441484D01*
X-609699Y-4441484D02*
X-628747Y-4431960D01*
X-447795Y-4422436D02*
X-438271Y-4431960D01*
X-438271Y-4431960D02*
X-447795Y-4441484D01*
X-447795Y-4441484D02*
X-457318Y-4431960D01*
X-457318Y-4431960D02*
X-447795Y-4422436D01*
X-447795Y-4422436D02*
X-447795Y-4441484D01*
X-447795Y-4317674D02*
X-438271Y-4327198D01*
X-438271Y-4327198D02*
X-447795Y-4336722D01*
X-447795Y-4336722D02*
X-457318Y-4327198D01*
X-457318Y-4327198D02*
X-447795Y-4317674D01*
X-447795Y-4317674D02*
X-447795Y-4336722D01*
D12*
X-2250688Y-4684656D02*
X-2080000Y-4855344D01*
X-2080000Y-4684656D02*
X-2250688Y-4855344D01*
D11*
X-1714461Y-4861484D02*
X-1828747Y-4861484D01*
X-1771604Y-4861484D02*
X-1771604Y-4661484D01*
X-1771604Y-4661484D02*
X-1790652Y-4690055D01*
X-1790652Y-4690055D02*
X-1809699Y-4709103D01*
X-1809699Y-4709103D02*
X-1828747Y-4718627D01*
X-1628747Y-4842436D02*
X-1619223Y-4851960D01*
X-1619223Y-4851960D02*
X-1628747Y-4861484D01*
X-1628747Y-4861484D02*
X-1638271Y-4851960D01*
X-1638271Y-4851960D02*
X-1628747Y-4842436D01*
X-1628747Y-4842436D02*
X-1628747Y-4861484D01*
X-1552556Y-4661484D02*
X-1419223Y-4661484D01*
X-1419223Y-4661484D02*
X-1504937Y-4861484D01*
X-1304938Y-4661484D02*
X-1285890Y-4661484D01*
X-1285890Y-4661484D02*
X-1266842Y-4671008D01*
X-1266842Y-4671008D02*
X-1257318Y-4680531D01*
X-1257318Y-4680531D02*
X-1247795Y-4699579D01*
X-1247795Y-4699579D02*
X-1238271Y-4737674D01*
X-1238271Y-4737674D02*
X-1238271Y-4785293D01*
X-1238271Y-4785293D02*
X-1247795Y-4823389D01*
X-1247795Y-4823389D02*
X-1257318Y-4842436D01*
X-1257318Y-4842436D02*
X-1266842Y-4851960D01*
X-1266842Y-4851960D02*
X-1285890Y-4861484D01*
X-1285890Y-4861484D02*
X-1304938Y-4861484D01*
X-1304938Y-4861484D02*
X-1323985Y-4851960D01*
X-1323985Y-4851960D02*
X-1333509Y-4842436D01*
X-1333509Y-4842436D02*
X-1343033Y-4823389D01*
X-1343033Y-4823389D02*
X-1352557Y-4785293D01*
X-1352557Y-4785293D02*
X-1352557Y-4737674D01*
X-1352557Y-4737674D02*
X-1343033Y-4699579D01*
X-1343033Y-4699579D02*
X-1333509Y-4680531D01*
X-1333509Y-4680531D02*
X-1323985Y-4671008D01*
X-1323985Y-4671008D02*
X-1304938Y-4661484D01*
X-1171604Y-4661484D02*
X-1038271Y-4661484D01*
X-1038271Y-4661484D02*
X-1123985Y-4861484D01*
X-962080Y-4861484D02*
X-962080Y-4728150D01*
X-962080Y-4747198D02*
X-952556Y-4737674D01*
X-952556Y-4737674D02*
X-933509Y-4728150D01*
X-933509Y-4728150D02*
X-904937Y-4728150D01*
X-904937Y-4728150D02*
X-885890Y-4737674D01*
X-885890Y-4737674D02*
X-876366Y-4756722D01*
X-876366Y-4756722D02*
X-876366Y-4861484D01*
X-876366Y-4756722D02*
X-866842Y-4737674D01*
X-866842Y-4737674D02*
X-847795Y-4728150D01*
X-847795Y-4728150D02*
X-819223Y-4728150D01*
X-819223Y-4728150D02*
X-800175Y-4737674D01*
X-800175Y-4737674D02*
X-790652Y-4756722D01*
X-790652Y-4756722D02*
X-790652Y-4861484D01*
X-695414Y-4861484D02*
X-695414Y-4728150D01*
X-695414Y-4747198D02*
X-685890Y-4737674D01*
X-685890Y-4737674D02*
X-666842Y-4728150D01*
X-666842Y-4728150D02*
X-638271Y-4728150D01*
X-638271Y-4728150D02*
X-619223Y-4737674D01*
X-619223Y-4737674D02*
X-609699Y-4756722D01*
X-609699Y-4756722D02*
X-609699Y-4861484D01*
X-609699Y-4756722D02*
X-600176Y-4737674D01*
X-600176Y-4737674D02*
X-581128Y-4728150D01*
X-581128Y-4728150D02*
X-552557Y-4728150D01*
X-552557Y-4728150D02*
X-533509Y-4737674D01*
X-533509Y-4737674D02*
X-523985Y-4756722D01*
X-523985Y-4756722D02*
X-523985Y-4861484D01*
X-133509Y-4651960D02*
X-304937Y-4909103D01*
X123634Y-4661484D02*
X142682Y-4661484D01*
X142682Y-4661484D02*
X161729Y-4671008D01*
X161729Y-4671008D02*
X171253Y-4680531D01*
X171253Y-4680531D02*
X180777Y-4699579D01*
X180777Y-4699579D02*
X190301Y-4737674D01*
X190301Y-4737674D02*
X190301Y-4785293D01*
X190301Y-4785293D02*
X180777Y-4823389D01*
X180777Y-4823389D02*
X171253Y-4842436D01*
X171253Y-4842436D02*
X161729Y-4851960D01*
X161729Y-4851960D02*
X142682Y-4861484D01*
X142682Y-4861484D02*
X123634Y-4861484D01*
X123634Y-4861484D02*
X104586Y-4851960D01*
X104586Y-4851960D02*
X95063Y-4842436D01*
X95063Y-4842436D02*
X85539Y-4823389D01*
X85539Y-4823389D02*
X76015Y-4785293D01*
X76015Y-4785293D02*
X76015Y-4737674D01*
X76015Y-4737674D02*
X85539Y-4699579D01*
X85539Y-4699579D02*
X95063Y-4680531D01*
X95063Y-4680531D02*
X104586Y-4671008D01*
X104586Y-4671008D02*
X123634Y-4661484D01*
X276015Y-4842436D02*
X285539Y-4851960D01*
X285539Y-4851960D02*
X276015Y-4861484D01*
X276015Y-4861484D02*
X266491Y-4851960D01*
X266491Y-4851960D02*
X276015Y-4842436D01*
X276015Y-4842436D02*
X276015Y-4861484D01*
X409348Y-4661484D02*
X428396Y-4661484D01*
X428396Y-4661484D02*
X447444Y-4671008D01*
X447444Y-4671008D02*
X456967Y-4680531D01*
X456967Y-4680531D02*
X466491Y-4699579D01*
X466491Y-4699579D02*
X476015Y-4737674D01*
X476015Y-4737674D02*
X476015Y-4785293D01*
X476015Y-4785293D02*
X466491Y-4823389D01*
X466491Y-4823389D02*
X456967Y-4842436D01*
X456967Y-4842436D02*
X447444Y-4851960D01*
X447444Y-4851960D02*
X428396Y-4861484D01*
X428396Y-4861484D02*
X409348Y-4861484D01*
X409348Y-4861484D02*
X390301Y-4851960D01*
X390301Y-4851960D02*
X380777Y-4842436D01*
X380777Y-4842436D02*
X371253Y-4823389D01*
X371253Y-4823389D02*
X361729Y-4785293D01*
X361729Y-4785293D02*
X361729Y-4737674D01*
X361729Y-4737674D02*
X371253Y-4699579D01*
X371253Y-4699579D02*
X380777Y-4680531D01*
X380777Y-4680531D02*
X390301Y-4671008D01*
X390301Y-4671008D02*
X409348Y-4661484D01*
X647444Y-4661484D02*
X609348Y-4661484D01*
X609348Y-4661484D02*
X590301Y-4671008D01*
X590301Y-4671008D02*
X580777Y-4680531D01*
X580777Y-4680531D02*
X561729Y-4709103D01*
X561729Y-4709103D02*
X552206Y-4747198D01*
X552206Y-4747198D02*
X552206Y-4823389D01*
X552206Y-4823389D02*
X561729Y-4842436D01*
X561729Y-4842436D02*
X571253Y-4851960D01*
X571253Y-4851960D02*
X590301Y-4861484D01*
X590301Y-4861484D02*
X628396Y-4861484D01*
X628396Y-4861484D02*
X647444Y-4851960D01*
X647444Y-4851960D02*
X656968Y-4842436D01*
X656968Y-4842436D02*
X666491Y-4823389D01*
X666491Y-4823389D02*
X666491Y-4775770D01*
X666491Y-4775770D02*
X656968Y-4756722D01*
X656968Y-4756722D02*
X647444Y-4747198D01*
X647444Y-4747198D02*
X628396Y-4737674D01*
X628396Y-4737674D02*
X590301Y-4737674D01*
X590301Y-4737674D02*
X571253Y-4747198D01*
X571253Y-4747198D02*
X561729Y-4756722D01*
X561729Y-4756722D02*
X552206Y-4775770D01*
X733158Y-4661484D02*
X866491Y-4661484D01*
X866491Y-4661484D02*
X780777Y-4861484D01*
X933158Y-4680531D02*
X942682Y-4671008D01*
X942682Y-4671008D02*
X961729Y-4661484D01*
X961729Y-4661484D02*
X1009348Y-4661484D01*
X1009348Y-4661484D02*
X1028396Y-4671008D01*
X1028396Y-4671008D02*
X1037920Y-4680531D01*
X1037920Y-4680531D02*
X1047444Y-4699579D01*
X1047444Y-4699579D02*
X1047444Y-4718627D01*
X1047444Y-4718627D02*
X1037920Y-4747198D01*
X1037920Y-4747198D02*
X923634Y-4861484D01*
X923634Y-4861484D02*
X1047444Y-4861484D01*
X1123634Y-4661484D02*
X1123634Y-4699579D01*
X1199825Y-4661484D02*
X1199825Y-4699579D01*
X1495063Y-4937674D02*
X1485539Y-4928150D01*
X1485539Y-4928150D02*
X1466491Y-4899579D01*
X1466491Y-4899579D02*
X1456968Y-4880531D01*
X1456968Y-4880531D02*
X1447444Y-4851960D01*
X1447444Y-4851960D02*
X1437920Y-4804341D01*
X1437920Y-4804341D02*
X1437920Y-4766246D01*
X1437920Y-4766246D02*
X1447444Y-4718627D01*
X1447444Y-4718627D02*
X1456968Y-4690055D01*
X1456968Y-4690055D02*
X1466491Y-4671008D01*
X1466491Y-4671008D02*
X1485539Y-4642436D01*
X1485539Y-4642436D02*
X1495063Y-4632912D01*
X1599825Y-4747198D02*
X1580777Y-4737674D01*
X1580777Y-4737674D02*
X1571253Y-4728150D01*
X1571253Y-4728150D02*
X1561729Y-4709103D01*
X1561729Y-4709103D02*
X1561729Y-4699579D01*
X1561729Y-4699579D02*
X1571253Y-4680531D01*
X1571253Y-4680531D02*
X1580777Y-4671008D01*
X1580777Y-4671008D02*
X1599825Y-4661484D01*
X1599825Y-4661484D02*
X1637920Y-4661484D01*
X1637920Y-4661484D02*
X1656968Y-4671008D01*
X1656968Y-4671008D02*
X1666491Y-4680531D01*
X1666491Y-4680531D02*
X1676015Y-4699579D01*
X1676015Y-4699579D02*
X1676015Y-4709103D01*
X1676015Y-4709103D02*
X1666491Y-4728150D01*
X1666491Y-4728150D02*
X1656968Y-4737674D01*
X1656968Y-4737674D02*
X1637920Y-4747198D01*
X1637920Y-4747198D02*
X1599825Y-4747198D01*
X1599825Y-4747198D02*
X1580777Y-4756722D01*
X1580777Y-4756722D02*
X1571253Y-4766246D01*
X1571253Y-4766246D02*
X1561729Y-4785293D01*
X1561729Y-4785293D02*
X1561729Y-4823389D01*
X1561729Y-4823389D02*
X1571253Y-4842436D01*
X1571253Y-4842436D02*
X1580777Y-4851960D01*
X1580777Y-4851960D02*
X1599825Y-4861484D01*
X1599825Y-4861484D02*
X1637920Y-4861484D01*
X1637920Y-4861484D02*
X1656968Y-4851960D01*
X1656968Y-4851960D02*
X1666491Y-4842436D01*
X1666491Y-4842436D02*
X1676015Y-4823389D01*
X1676015Y-4823389D02*
X1676015Y-4785293D01*
X1676015Y-4785293D02*
X1666491Y-4766246D01*
X1666491Y-4766246D02*
X1656968Y-4756722D01*
X1656968Y-4756722D02*
X1637920Y-4747198D01*
X1914110Y-4861484D02*
X1914110Y-4661484D01*
X1999825Y-4861484D02*
X1999825Y-4756722D01*
X1999825Y-4756722D02*
X1990301Y-4737674D01*
X1990301Y-4737674D02*
X1971253Y-4728150D01*
X1971253Y-4728150D02*
X1942682Y-4728150D01*
X1942682Y-4728150D02*
X1923634Y-4737674D01*
X1923634Y-4737674D02*
X1914110Y-4747198D01*
X2123634Y-4861484D02*
X2104587Y-4851960D01*
X2104587Y-4851960D02*
X2095063Y-4842436D01*
X2095063Y-4842436D02*
X2085539Y-4823389D01*
X2085539Y-4823389D02*
X2085539Y-4766246D01*
X2085539Y-4766246D02*
X2095063Y-4747198D01*
X2095063Y-4747198D02*
X2104587Y-4737674D01*
X2104587Y-4737674D02*
X2123634Y-4728150D01*
X2123634Y-4728150D02*
X2152206Y-4728150D01*
X2152206Y-4728150D02*
X2171253Y-4737674D01*
X2171253Y-4737674D02*
X2180777Y-4747198D01*
X2180777Y-4747198D02*
X2190301Y-4766246D01*
X2190301Y-4766246D02*
X2190301Y-4823389D01*
X2190301Y-4823389D02*
X2180777Y-4842436D01*
X2180777Y-4842436D02*
X2171253Y-4851960D01*
X2171253Y-4851960D02*
X2152206Y-4861484D01*
X2152206Y-4861484D02*
X2123634Y-4861484D01*
X2304587Y-4861484D02*
X2285539Y-4851960D01*
X2285539Y-4851960D02*
X2276015Y-4832912D01*
X2276015Y-4832912D02*
X2276015Y-4661484D01*
X2456968Y-4851960D02*
X2437920Y-4861484D01*
X2437920Y-4861484D02*
X2399825Y-4861484D01*
X2399825Y-4861484D02*
X2380777Y-4851960D01*
X2380777Y-4851960D02*
X2371253Y-4832912D01*
X2371253Y-4832912D02*
X2371253Y-4756722D01*
X2371253Y-4756722D02*
X2380777Y-4737674D01*
X2380777Y-4737674D02*
X2399825Y-4728150D01*
X2399825Y-4728150D02*
X2437920Y-4728150D01*
X2437920Y-4728150D02*
X2456968Y-4737674D01*
X2456968Y-4737674D02*
X2466492Y-4756722D01*
X2466492Y-4756722D02*
X2466492Y-4775770D01*
X2466492Y-4775770D02*
X2371253Y-4794817D01*
X2542682Y-4851960D02*
X2561730Y-4861484D01*
X2561730Y-4861484D02*
X2599825Y-4861484D01*
X2599825Y-4861484D02*
X2618873Y-4851960D01*
X2618873Y-4851960D02*
X2628396Y-4832912D01*
X2628396Y-4832912D02*
X2628396Y-4823389D01*
X2628396Y-4823389D02*
X2618873Y-4804341D01*
X2618873Y-4804341D02*
X2599825Y-4794817D01*
X2599825Y-4794817D02*
X2571253Y-4794817D01*
X2571253Y-4794817D02*
X2552206Y-4785293D01*
X2552206Y-4785293D02*
X2542682Y-4766246D01*
X2542682Y-4766246D02*
X2542682Y-4756722D01*
X2542682Y-4756722D02*
X2552206Y-4737674D01*
X2552206Y-4737674D02*
X2571253Y-4728150D01*
X2571253Y-4728150D02*
X2599825Y-4728150D01*
X2599825Y-4728150D02*
X2618873Y-4737674D01*
X2695063Y-4937674D02*
X2704587Y-4928150D01*
X2704587Y-4928150D02*
X2723634Y-4899579D01*
X2723634Y-4899579D02*
X2733158Y-4880531D01*
X2733158Y-4880531D02*
X2742682Y-4851960D01*
X2742682Y-4851960D02*
X2752206Y-4804341D01*
X2752206Y-4804341D02*
X2752206Y-4766246D01*
X2752206Y-4766246D02*
X2742682Y-4718627D01*
X2742682Y-4718627D02*
X2733158Y-4690055D01*
X2733158Y-4690055D02*
X2723634Y-4671008D01*
X2723634Y-4671008D02*
X2704587Y-4642436D01*
X2704587Y-4642436D02*
X2695063Y-4632912D01*
X3056968Y-4937674D02*
X3047444Y-4928150D01*
X3047444Y-4928150D02*
X3028396Y-4899579D01*
X3028396Y-4899579D02*
X3018872Y-4880531D01*
X3018872Y-4880531D02*
X3009349Y-4851960D01*
X3009349Y-4851960D02*
X2999825Y-4804341D01*
X2999825Y-4804341D02*
X2999825Y-4766246D01*
X2999825Y-4766246D02*
X3009349Y-4718627D01*
X3009349Y-4718627D02*
X3018872Y-4690055D01*
X3018872Y-4690055D02*
X3028396Y-4671008D01*
X3028396Y-4671008D02*
X3047444Y-4642436D01*
X3047444Y-4642436D02*
X3056968Y-4632912D01*
X3133158Y-4728150D02*
X3133158Y-4861484D01*
X3133158Y-4747198D02*
X3142682Y-4737674D01*
X3142682Y-4737674D02*
X3161730Y-4728150D01*
X3161730Y-4728150D02*
X3190301Y-4728150D01*
X3190301Y-4728150D02*
X3209349Y-4737674D01*
X3209349Y-4737674D02*
X3218872Y-4756722D01*
X3218872Y-4756722D02*
X3218872Y-4861484D01*
X3342682Y-4861484D02*
X3323634Y-4851960D01*
X3323634Y-4851960D02*
X3314111Y-4842436D01*
X3314111Y-4842436D02*
X3304587Y-4823389D01*
X3304587Y-4823389D02*
X3304587Y-4766246D01*
X3304587Y-4766246D02*
X3314111Y-4747198D01*
X3314111Y-4747198D02*
X3323634Y-4737674D01*
X3323634Y-4737674D02*
X3342682Y-4728150D01*
X3342682Y-4728150D02*
X3371253Y-4728150D01*
X3371253Y-4728150D02*
X3390301Y-4737674D01*
X3390301Y-4737674D02*
X3399825Y-4747198D01*
X3399825Y-4747198D02*
X3409349Y-4766246D01*
X3409349Y-4766246D02*
X3409349Y-4823389D01*
X3409349Y-4823389D02*
X3399825Y-4842436D01*
X3399825Y-4842436D02*
X3390301Y-4851960D01*
X3390301Y-4851960D02*
X3371253Y-4861484D01*
X3371253Y-4861484D02*
X3342682Y-4861484D01*
X3466492Y-4728150D02*
X3542682Y-4728150D01*
X3495063Y-4661484D02*
X3495063Y-4832912D01*
X3495063Y-4832912D02*
X3504587Y-4851960D01*
X3504587Y-4851960D02*
X3523634Y-4861484D01*
X3523634Y-4861484D02*
X3542682Y-4861484D01*
X3761730Y-4728150D02*
X3761730Y-4928150D01*
X3761730Y-4737674D02*
X3780777Y-4728150D01*
X3780777Y-4728150D02*
X3818873Y-4728150D01*
X3818873Y-4728150D02*
X3837920Y-4737674D01*
X3837920Y-4737674D02*
X3847444Y-4747198D01*
X3847444Y-4747198D02*
X3856968Y-4766246D01*
X3856968Y-4766246D02*
X3856968Y-4823389D01*
X3856968Y-4823389D02*
X3847444Y-4842436D01*
X3847444Y-4842436D02*
X3837920Y-4851960D01*
X3837920Y-4851960D02*
X3818873Y-4861484D01*
X3818873Y-4861484D02*
X3780777Y-4861484D01*
X3780777Y-4861484D02*
X3761730Y-4851960D01*
X3971253Y-4861484D02*
X3952206Y-4851960D01*
X3952206Y-4851960D02*
X3942682Y-4832912D01*
X3942682Y-4832912D02*
X3942682Y-4661484D01*
X4133158Y-4861484D02*
X4133158Y-4756722D01*
X4133158Y-4756722D02*
X4123634Y-4737674D01*
X4123634Y-4737674D02*
X4104587Y-4728150D01*
X4104587Y-4728150D02*
X4066492Y-4728150D01*
X4066492Y-4728150D02*
X4047444Y-4737674D01*
X4133158Y-4851960D02*
X4114111Y-4861484D01*
X4114111Y-4861484D02*
X4066492Y-4861484D01*
X4066492Y-4861484D02*
X4047444Y-4851960D01*
X4047444Y-4851960D02*
X4037920Y-4832912D01*
X4037920Y-4832912D02*
X4037920Y-4813865D01*
X4037920Y-4813865D02*
X4047444Y-4794817D01*
X4047444Y-4794817D02*
X4066492Y-4785293D01*
X4066492Y-4785293D02*
X4114111Y-4785293D01*
X4114111Y-4785293D02*
X4133158Y-4775770D01*
X4199825Y-4728150D02*
X4276015Y-4728150D01*
X4228396Y-4661484D02*
X4228396Y-4832912D01*
X4228396Y-4832912D02*
X4237920Y-4851960D01*
X4237920Y-4851960D02*
X4256968Y-4861484D01*
X4256968Y-4861484D02*
X4276015Y-4861484D01*
X4418873Y-4851960D02*
X4399825Y-4861484D01*
X4399825Y-4861484D02*
X4361730Y-4861484D01*
X4361730Y-4861484D02*
X4342682Y-4851960D01*
X4342682Y-4851960D02*
X4333158Y-4832912D01*
X4333158Y-4832912D02*
X4333158Y-4756722D01*
X4333158Y-4756722D02*
X4342682Y-4737674D01*
X4342682Y-4737674D02*
X4361730Y-4728150D01*
X4361730Y-4728150D02*
X4399825Y-4728150D01*
X4399825Y-4728150D02*
X4418873Y-4737674D01*
X4418873Y-4737674D02*
X4428396Y-4756722D01*
X4428396Y-4756722D02*
X4428396Y-4775770D01*
X4428396Y-4775770D02*
X4333158Y-4794817D01*
X4599825Y-4861484D02*
X4599825Y-4661484D01*
X4599825Y-4851960D02*
X4580777Y-4861484D01*
X4580777Y-4861484D02*
X4542682Y-4861484D01*
X4542682Y-4861484D02*
X4523635Y-4851960D01*
X4523635Y-4851960D02*
X4514111Y-4842436D01*
X4514111Y-4842436D02*
X4504587Y-4823389D01*
X4504587Y-4823389D02*
X4504587Y-4766246D01*
X4504587Y-4766246D02*
X4514111Y-4747198D01*
X4514111Y-4747198D02*
X4523635Y-4737674D01*
X4523635Y-4737674D02*
X4542682Y-4728150D01*
X4542682Y-4728150D02*
X4580777Y-4728150D01*
X4580777Y-4728150D02*
X4599825Y-4737674D01*
X4676016Y-4937674D02*
X4685539Y-4928150D01*
X4685539Y-4928150D02*
X4704587Y-4899579D01*
X4704587Y-4899579D02*
X4714111Y-4880531D01*
X4714111Y-4880531D02*
X4723635Y-4851960D01*
X4723635Y-4851960D02*
X4733158Y-4804341D01*
X4733158Y-4804341D02*
X4733158Y-4766246D01*
X4733158Y-4766246D02*
X4723635Y-4718627D01*
X4723635Y-4718627D02*
X4714111Y-4690055D01*
X4714111Y-4690055D02*
X4704587Y-4671008D01*
X4704587Y-4671008D02*
X4685539Y-4642436D01*
X4685539Y-4642436D02*
X4676016Y-4632912D01*
X-2080000Y-5060688D02*
G75*
G02*
X-2280000Y-5060688I-100000J0D01*
G01*
X-2280000Y-5060688D02*
G75*
G02*
X-2080000Y-5060688I100000J0D01*
G01*
X-1828747Y-4971220D02*
X-1819223Y-4961696D01*
X-1819223Y-4961696D02*
X-1800176Y-4952172D01*
X-1800176Y-4952172D02*
X-1752556Y-4952172D01*
X-1752556Y-4952172D02*
X-1733509Y-4961696D01*
X-1733509Y-4961696D02*
X-1723985Y-4971220D01*
X-1723985Y-4971220D02*
X-1714461Y-4990267D01*
X-1714461Y-4990267D02*
X-1714461Y-5009315D01*
X-1714461Y-5009315D02*
X-1723985Y-5037886D01*
X-1723985Y-5037886D02*
X-1838271Y-5152172D01*
X-1838271Y-5152172D02*
X-1714461Y-5152172D01*
X-1628747Y-5133124D02*
X-1619223Y-5142648D01*
X-1619223Y-5142648D02*
X-1628747Y-5152172D01*
X-1628747Y-5152172D02*
X-1638271Y-5142648D01*
X-1638271Y-5142648D02*
X-1628747Y-5133124D01*
X-1628747Y-5133124D02*
X-1628747Y-5152172D01*
X-1543033Y-4971220D02*
X-1533509Y-4961696D01*
X-1533509Y-4961696D02*
X-1514461Y-4952172D01*
X-1514461Y-4952172D02*
X-1466842Y-4952172D01*
X-1466842Y-4952172D02*
X-1447795Y-4961696D01*
X-1447795Y-4961696D02*
X-1438271Y-4971220D01*
X-1438271Y-4971220D02*
X-1428747Y-4990267D01*
X-1428747Y-4990267D02*
X-1428747Y-5009315D01*
X-1428747Y-5009315D02*
X-1438271Y-5037886D01*
X-1438271Y-5037886D02*
X-1552556Y-5152172D01*
X-1552556Y-5152172D02*
X-1428747Y-5152172D01*
X-1304938Y-4952172D02*
X-1285890Y-4952172D01*
X-1285890Y-4952172D02*
X-1266842Y-4961696D01*
X-1266842Y-4961696D02*
X-1257318Y-4971220D01*
X-1257318Y-4971220D02*
X-1247795Y-4990267D01*
X-1247795Y-4990267D02*
X-1238271Y-5028362D01*
X-1238271Y-5028362D02*
X-1238271Y-5075981D01*
X-1238271Y-5075981D02*
X-1247795Y-5114077D01*
X-1247795Y-5114077D02*
X-1257318Y-5133124D01*
X-1257318Y-5133124D02*
X-1266842Y-5142648D01*
X-1266842Y-5142648D02*
X-1285890Y-5152172D01*
X-1285890Y-5152172D02*
X-1304938Y-5152172D01*
X-1304938Y-5152172D02*
X-1323985Y-5142648D01*
X-1323985Y-5142648D02*
X-1333509Y-5133124D01*
X-1333509Y-5133124D02*
X-1343033Y-5114077D01*
X-1343033Y-5114077D02*
X-1352557Y-5075981D01*
X-1352557Y-5075981D02*
X-1352557Y-5028362D01*
X-1352557Y-5028362D02*
X-1343033Y-4990267D01*
X-1343033Y-4990267D02*
X-1333509Y-4971220D01*
X-1333509Y-4971220D02*
X-1323985Y-4961696D01*
X-1323985Y-4961696D02*
X-1304938Y-4952172D01*
X-1114461Y-4952172D02*
X-1095414Y-4952172D01*
X-1095414Y-4952172D02*
X-1076366Y-4961696D01*
X-1076366Y-4961696D02*
X-1066842Y-4971220D01*
X-1066842Y-4971220D02*
X-1057318Y-4990267D01*
X-1057318Y-4990267D02*
X-1047795Y-5028362D01*
X-1047795Y-5028362D02*
X-1047795Y-5075981D01*
X-1047795Y-5075981D02*
X-1057318Y-5114077D01*
X-1057318Y-5114077D02*
X-1066842Y-5133124D01*
X-1066842Y-5133124D02*
X-1076366Y-5142648D01*
X-1076366Y-5142648D02*
X-1095414Y-5152172D01*
X-1095414Y-5152172D02*
X-1114461Y-5152172D01*
X-1114461Y-5152172D02*
X-1133509Y-5142648D01*
X-1133509Y-5142648D02*
X-1143033Y-5133124D01*
X-1143033Y-5133124D02*
X-1152557Y-5114077D01*
X-1152557Y-5114077D02*
X-1162080Y-5075981D01*
X-1162080Y-5075981D02*
X-1162080Y-5028362D01*
X-1162080Y-5028362D02*
X-1152557Y-4990267D01*
X-1152557Y-4990267D02*
X-1143033Y-4971220D01*
X-1143033Y-4971220D02*
X-1133509Y-4961696D01*
X-1133509Y-4961696D02*
X-1114461Y-4952172D01*
X-962080Y-5152172D02*
X-962080Y-5018839D01*
X-962080Y-5037886D02*
X-952556Y-5028362D01*
X-952556Y-5028362D02*
X-933509Y-5018839D01*
X-933509Y-5018839D02*
X-904937Y-5018839D01*
X-904937Y-5018839D02*
X-885890Y-5028362D01*
X-885890Y-5028362D02*
X-876366Y-5047410D01*
X-876366Y-5047410D02*
X-876366Y-5152172D01*
X-876366Y-5047410D02*
X-866842Y-5028362D01*
X-866842Y-5028362D02*
X-847795Y-5018839D01*
X-847795Y-5018839D02*
X-819223Y-5018839D01*
X-819223Y-5018839D02*
X-800175Y-5028362D01*
X-800175Y-5028362D02*
X-790652Y-5047410D01*
X-790652Y-5047410D02*
X-790652Y-5152172D01*
X-695414Y-5152172D02*
X-695414Y-5018839D01*
X-695414Y-5037886D02*
X-685890Y-5028362D01*
X-685890Y-5028362D02*
X-666842Y-5018839D01*
X-666842Y-5018839D02*
X-638271Y-5018839D01*
X-638271Y-5018839D02*
X-619223Y-5028362D01*
X-619223Y-5028362D02*
X-609699Y-5047410D01*
X-609699Y-5047410D02*
X-609699Y-5152172D01*
X-609699Y-5047410D02*
X-600176Y-5028362D01*
X-600176Y-5028362D02*
X-581128Y-5018839D01*
X-581128Y-5018839D02*
X-552557Y-5018839D01*
X-552557Y-5018839D02*
X-533509Y-5028362D01*
X-533509Y-5028362D02*
X-523985Y-5047410D01*
X-523985Y-5047410D02*
X-523985Y-5152172D01*
X-133509Y-4942648D02*
X-304937Y-5199791D01*
X123634Y-4952172D02*
X142682Y-4952172D01*
X142682Y-4952172D02*
X161729Y-4961696D01*
X161729Y-4961696D02*
X171253Y-4971220D01*
X171253Y-4971220D02*
X180777Y-4990267D01*
X180777Y-4990267D02*
X190301Y-5028362D01*
X190301Y-5028362D02*
X190301Y-5075981D01*
X190301Y-5075981D02*
X180777Y-5114077D01*
X180777Y-5114077D02*
X171253Y-5133124D01*
X171253Y-5133124D02*
X161729Y-5142648D01*
X161729Y-5142648D02*
X142682Y-5152172D01*
X142682Y-5152172D02*
X123634Y-5152172D01*
X123634Y-5152172D02*
X104586Y-5142648D01*
X104586Y-5142648D02*
X95063Y-5133124D01*
X95063Y-5133124D02*
X85539Y-5114077D01*
X85539Y-5114077D02*
X76015Y-5075981D01*
X76015Y-5075981D02*
X76015Y-5028362D01*
X76015Y-5028362D02*
X85539Y-4990267D01*
X85539Y-4990267D02*
X95063Y-4971220D01*
X95063Y-4971220D02*
X104586Y-4961696D01*
X104586Y-4961696D02*
X123634Y-4952172D01*
X276015Y-5133124D02*
X285539Y-5142648D01*
X285539Y-5142648D02*
X276015Y-5152172D01*
X276015Y-5152172D02*
X266491Y-5142648D01*
X266491Y-5142648D02*
X276015Y-5133124D01*
X276015Y-5133124D02*
X276015Y-5152172D01*
X409348Y-4952172D02*
X428396Y-4952172D01*
X428396Y-4952172D02*
X447444Y-4961696D01*
X447444Y-4961696D02*
X456967Y-4971220D01*
X456967Y-4971220D02*
X466491Y-4990267D01*
X466491Y-4990267D02*
X476015Y-5028362D01*
X476015Y-5028362D02*
X476015Y-5075981D01*
X476015Y-5075981D02*
X466491Y-5114077D01*
X466491Y-5114077D02*
X456967Y-5133124D01*
X456967Y-5133124D02*
X447444Y-5142648D01*
X447444Y-5142648D02*
X428396Y-5152172D01*
X428396Y-5152172D02*
X409348Y-5152172D01*
X409348Y-5152172D02*
X390301Y-5142648D01*
X390301Y-5142648D02*
X380777Y-5133124D01*
X380777Y-5133124D02*
X371253Y-5114077D01*
X371253Y-5114077D02*
X361729Y-5075981D01*
X361729Y-5075981D02*
X361729Y-5028362D01*
X361729Y-5028362D02*
X371253Y-4990267D01*
X371253Y-4990267D02*
X380777Y-4971220D01*
X380777Y-4971220D02*
X390301Y-4961696D01*
X390301Y-4961696D02*
X409348Y-4952172D01*
X590301Y-5037886D02*
X571253Y-5028362D01*
X571253Y-5028362D02*
X561729Y-5018839D01*
X561729Y-5018839D02*
X552206Y-4999791D01*
X552206Y-4999791D02*
X552206Y-4990267D01*
X552206Y-4990267D02*
X561729Y-4971220D01*
X561729Y-4971220D02*
X571253Y-4961696D01*
X571253Y-4961696D02*
X590301Y-4952172D01*
X590301Y-4952172D02*
X628396Y-4952172D01*
X628396Y-4952172D02*
X647444Y-4961696D01*
X647444Y-4961696D02*
X656968Y-4971220D01*
X656968Y-4971220D02*
X666491Y-4990267D01*
X666491Y-4990267D02*
X666491Y-4999791D01*
X666491Y-4999791D02*
X656968Y-5018839D01*
X656968Y-5018839D02*
X647444Y-5028362D01*
X647444Y-5028362D02*
X628396Y-5037886D01*
X628396Y-5037886D02*
X590301Y-5037886D01*
X590301Y-5037886D02*
X571253Y-5047410D01*
X571253Y-5047410D02*
X561729Y-5056934D01*
X561729Y-5056934D02*
X552206Y-5075981D01*
X552206Y-5075981D02*
X552206Y-5114077D01*
X552206Y-5114077D02*
X561729Y-5133124D01*
X561729Y-5133124D02*
X571253Y-5142648D01*
X571253Y-5142648D02*
X590301Y-5152172D01*
X590301Y-5152172D02*
X628396Y-5152172D01*
X628396Y-5152172D02*
X647444Y-5142648D01*
X647444Y-5142648D02*
X656968Y-5133124D01*
X656968Y-5133124D02*
X666491Y-5114077D01*
X666491Y-5114077D02*
X666491Y-5075981D01*
X666491Y-5075981D02*
X656968Y-5056934D01*
X656968Y-5056934D02*
X647444Y-5047410D01*
X647444Y-5047410D02*
X628396Y-5037886D01*
X837920Y-4952172D02*
X799825Y-4952172D01*
X799825Y-4952172D02*
X780777Y-4961696D01*
X780777Y-4961696D02*
X771253Y-4971220D01*
X771253Y-4971220D02*
X752206Y-4999791D01*
X752206Y-4999791D02*
X742682Y-5037886D01*
X742682Y-5037886D02*
X742682Y-5114077D01*
X742682Y-5114077D02*
X752206Y-5133124D01*
X752206Y-5133124D02*
X761729Y-5142648D01*
X761729Y-5142648D02*
X780777Y-5152172D01*
X780777Y-5152172D02*
X818872Y-5152172D01*
X818872Y-5152172D02*
X837920Y-5142648D01*
X837920Y-5142648D02*
X847444Y-5133124D01*
X847444Y-5133124D02*
X856967Y-5114077D01*
X856967Y-5114077D02*
X856967Y-5066458D01*
X856967Y-5066458D02*
X847444Y-5047410D01*
X847444Y-5047410D02*
X837920Y-5037886D01*
X837920Y-5037886D02*
X818872Y-5028362D01*
X818872Y-5028362D02*
X780777Y-5028362D01*
X780777Y-5028362D02*
X761729Y-5037886D01*
X761729Y-5037886D02*
X752206Y-5047410D01*
X752206Y-5047410D02*
X742682Y-5066458D01*
X1028396Y-4952172D02*
X990301Y-4952172D01*
X990301Y-4952172D02*
X971253Y-4961696D01*
X971253Y-4961696D02*
X961729Y-4971220D01*
X961729Y-4971220D02*
X942682Y-4999791D01*
X942682Y-4999791D02*
X933158Y-5037886D01*
X933158Y-5037886D02*
X933158Y-5114077D01*
X933158Y-5114077D02*
X942682Y-5133124D01*
X942682Y-5133124D02*
X952206Y-5142648D01*
X952206Y-5142648D02*
X971253Y-5152172D01*
X971253Y-5152172D02*
X1009348Y-5152172D01*
X1009348Y-5152172D02*
X1028396Y-5142648D01*
X1028396Y-5142648D02*
X1037920Y-5133124D01*
X1037920Y-5133124D02*
X1047444Y-5114077D01*
X1047444Y-5114077D02*
X1047444Y-5066458D01*
X1047444Y-5066458D02*
X1037920Y-5047410D01*
X1037920Y-5047410D02*
X1028396Y-5037886D01*
X1028396Y-5037886D02*
X1009348Y-5028362D01*
X1009348Y-5028362D02*
X971253Y-5028362D01*
X971253Y-5028362D02*
X952206Y-5037886D01*
X952206Y-5037886D02*
X942682Y-5047410D01*
X942682Y-5047410D02*
X933158Y-5066458D01*
X1123634Y-4952172D02*
X1123634Y-4990267D01*
X1199825Y-4952172D02*
X1199825Y-4990267D01*
X1495063Y-5228362D02*
X1485539Y-5218839D01*
X1485539Y-5218839D02*
X1466491Y-5190267D01*
X1466491Y-5190267D02*
X1456968Y-5171220D01*
X1456968Y-5171220D02*
X1447444Y-5142648D01*
X1447444Y-5142648D02*
X1437920Y-5095029D01*
X1437920Y-5095029D02*
X1437920Y-5056934D01*
X1437920Y-5056934D02*
X1447444Y-5009315D01*
X1447444Y-5009315D02*
X1456968Y-4980743D01*
X1456968Y-4980743D02*
X1466491Y-4961696D01*
X1466491Y-4961696D02*
X1485539Y-4933124D01*
X1485539Y-4933124D02*
X1495063Y-4923600D01*
X1656968Y-5018839D02*
X1656968Y-5152172D01*
X1609348Y-4942648D02*
X1561729Y-5085505D01*
X1561729Y-5085505D02*
X1685539Y-5085505D01*
X1914110Y-5152172D02*
X1914110Y-4952172D01*
X1999825Y-5152172D02*
X1999825Y-5047410D01*
X1999825Y-5047410D02*
X1990301Y-5028362D01*
X1990301Y-5028362D02*
X1971253Y-5018839D01*
X1971253Y-5018839D02*
X1942682Y-5018839D01*
X1942682Y-5018839D02*
X1923634Y-5028362D01*
X1923634Y-5028362D02*
X1914110Y-5037886D01*
X2123634Y-5152172D02*
X2104587Y-5142648D01*
X2104587Y-5142648D02*
X2095063Y-5133124D01*
X2095063Y-5133124D02*
X2085539Y-5114077D01*
X2085539Y-5114077D02*
X2085539Y-5056934D01*
X2085539Y-5056934D02*
X2095063Y-5037886D01*
X2095063Y-5037886D02*
X2104587Y-5028362D01*
X2104587Y-5028362D02*
X2123634Y-5018839D01*
X2123634Y-5018839D02*
X2152206Y-5018839D01*
X2152206Y-5018839D02*
X2171253Y-5028362D01*
X2171253Y-5028362D02*
X2180777Y-5037886D01*
X2180777Y-5037886D02*
X2190301Y-5056934D01*
X2190301Y-5056934D02*
X2190301Y-5114077D01*
X2190301Y-5114077D02*
X2180777Y-5133124D01*
X2180777Y-5133124D02*
X2171253Y-5142648D01*
X2171253Y-5142648D02*
X2152206Y-5152172D01*
X2152206Y-5152172D02*
X2123634Y-5152172D01*
X2304587Y-5152172D02*
X2285539Y-5142648D01*
X2285539Y-5142648D02*
X2276015Y-5123600D01*
X2276015Y-5123600D02*
X2276015Y-4952172D01*
X2456968Y-5142648D02*
X2437920Y-5152172D01*
X2437920Y-5152172D02*
X2399825Y-5152172D01*
X2399825Y-5152172D02*
X2380777Y-5142648D01*
X2380777Y-5142648D02*
X2371253Y-5123600D01*
X2371253Y-5123600D02*
X2371253Y-5047410D01*
X2371253Y-5047410D02*
X2380777Y-5028362D01*
X2380777Y-5028362D02*
X2399825Y-5018839D01*
X2399825Y-5018839D02*
X2437920Y-5018839D01*
X2437920Y-5018839D02*
X2456968Y-5028362D01*
X2456968Y-5028362D02*
X2466492Y-5047410D01*
X2466492Y-5047410D02*
X2466492Y-5066458D01*
X2466492Y-5066458D02*
X2371253Y-5085505D01*
X2542682Y-5142648D02*
X2561730Y-5152172D01*
X2561730Y-5152172D02*
X2599825Y-5152172D01*
X2599825Y-5152172D02*
X2618873Y-5142648D01*
X2618873Y-5142648D02*
X2628396Y-5123600D01*
X2628396Y-5123600D02*
X2628396Y-5114077D01*
X2628396Y-5114077D02*
X2618873Y-5095029D01*
X2618873Y-5095029D02*
X2599825Y-5085505D01*
X2599825Y-5085505D02*
X2571253Y-5085505D01*
X2571253Y-5085505D02*
X2552206Y-5075981D01*
X2552206Y-5075981D02*
X2542682Y-5056934D01*
X2542682Y-5056934D02*
X2542682Y-5047410D01*
X2542682Y-5047410D02*
X2552206Y-5028362D01*
X2552206Y-5028362D02*
X2571253Y-5018839D01*
X2571253Y-5018839D02*
X2599825Y-5018839D01*
X2599825Y-5018839D02*
X2618873Y-5028362D01*
X2695063Y-5228362D02*
X2704587Y-5218839D01*
X2704587Y-5218839D02*
X2723634Y-5190267D01*
X2723634Y-5190267D02*
X2733158Y-5171220D01*
X2733158Y-5171220D02*
X2742682Y-5142648D01*
X2742682Y-5142648D02*
X2752206Y-5095029D01*
X2752206Y-5095029D02*
X2752206Y-5056934D01*
X2752206Y-5056934D02*
X2742682Y-5009315D01*
X2742682Y-5009315D02*
X2733158Y-4980743D01*
X2733158Y-4980743D02*
X2723634Y-4961696D01*
X2723634Y-4961696D02*
X2704587Y-4933124D01*
X2704587Y-4933124D02*
X2695063Y-4923600D01*
X3056968Y-5228362D02*
X3047444Y-5218839D01*
X3047444Y-5218839D02*
X3028396Y-5190267D01*
X3028396Y-5190267D02*
X3018872Y-5171220D01*
X3018872Y-5171220D02*
X3009349Y-5142648D01*
X3009349Y-5142648D02*
X2999825Y-5095029D01*
X2999825Y-5095029D02*
X2999825Y-5056934D01*
X2999825Y-5056934D02*
X3009349Y-5009315D01*
X3009349Y-5009315D02*
X3018872Y-4980743D01*
X3018872Y-4980743D02*
X3028396Y-4961696D01*
X3028396Y-4961696D02*
X3047444Y-4933124D01*
X3047444Y-4933124D02*
X3056968Y-4923600D01*
X3133158Y-5018839D02*
X3133158Y-5152172D01*
X3133158Y-5037886D02*
X3142682Y-5028362D01*
X3142682Y-5028362D02*
X3161730Y-5018839D01*
X3161730Y-5018839D02*
X3190301Y-5018839D01*
X3190301Y-5018839D02*
X3209349Y-5028362D01*
X3209349Y-5028362D02*
X3218872Y-5047410D01*
X3218872Y-5047410D02*
X3218872Y-5152172D01*
X3342682Y-5152172D02*
X3323634Y-5142648D01*
X3323634Y-5142648D02*
X3314111Y-5133124D01*
X3314111Y-5133124D02*
X3304587Y-5114077D01*
X3304587Y-5114077D02*
X3304587Y-5056934D01*
X3304587Y-5056934D02*
X3314111Y-5037886D01*
X3314111Y-5037886D02*
X3323634Y-5028362D01*
X3323634Y-5028362D02*
X3342682Y-5018839D01*
X3342682Y-5018839D02*
X3371253Y-5018839D01*
X3371253Y-5018839D02*
X3390301Y-5028362D01*
X3390301Y-5028362D02*
X3399825Y-5037886D01*
X3399825Y-5037886D02*
X3409349Y-5056934D01*
X3409349Y-5056934D02*
X3409349Y-5114077D01*
X3409349Y-5114077D02*
X3399825Y-5133124D01*
X3399825Y-5133124D02*
X3390301Y-5142648D01*
X3390301Y-5142648D02*
X3371253Y-5152172D01*
X3371253Y-5152172D02*
X3342682Y-5152172D01*
X3466492Y-5018839D02*
X3542682Y-5018839D01*
X3495063Y-4952172D02*
X3495063Y-5123600D01*
X3495063Y-5123600D02*
X3504587Y-5142648D01*
X3504587Y-5142648D02*
X3523634Y-5152172D01*
X3523634Y-5152172D02*
X3542682Y-5152172D01*
X3761730Y-5018839D02*
X3761730Y-5218839D01*
X3761730Y-5028362D02*
X3780777Y-5018839D01*
X3780777Y-5018839D02*
X3818873Y-5018839D01*
X3818873Y-5018839D02*
X3837920Y-5028362D01*
X3837920Y-5028362D02*
X3847444Y-5037886D01*
X3847444Y-5037886D02*
X3856968Y-5056934D01*
X3856968Y-5056934D02*
X3856968Y-5114077D01*
X3856968Y-5114077D02*
X3847444Y-5133124D01*
X3847444Y-5133124D02*
X3837920Y-5142648D01*
X3837920Y-5142648D02*
X3818873Y-5152172D01*
X3818873Y-5152172D02*
X3780777Y-5152172D01*
X3780777Y-5152172D02*
X3761730Y-5142648D01*
X3971253Y-5152172D02*
X3952206Y-5142648D01*
X3952206Y-5142648D02*
X3942682Y-5123600D01*
X3942682Y-5123600D02*
X3942682Y-4952172D01*
X4133158Y-5152172D02*
X4133158Y-5047410D01*
X4133158Y-5047410D02*
X4123634Y-5028362D01*
X4123634Y-5028362D02*
X4104587Y-5018839D01*
X4104587Y-5018839D02*
X4066492Y-5018839D01*
X4066492Y-5018839D02*
X4047444Y-5028362D01*
X4133158Y-5142648D02*
X4114111Y-5152172D01*
X4114111Y-5152172D02*
X4066492Y-5152172D01*
X4066492Y-5152172D02*
X4047444Y-5142648D01*
X4047444Y-5142648D02*
X4037920Y-5123600D01*
X4037920Y-5123600D02*
X4037920Y-5104553D01*
X4037920Y-5104553D02*
X4047444Y-5085505D01*
X4047444Y-5085505D02*
X4066492Y-5075981D01*
X4066492Y-5075981D02*
X4114111Y-5075981D01*
X4114111Y-5075981D02*
X4133158Y-5066458D01*
X4199825Y-5018839D02*
X4276015Y-5018839D01*
X4228396Y-4952172D02*
X4228396Y-5123600D01*
X4228396Y-5123600D02*
X4237920Y-5142648D01*
X4237920Y-5142648D02*
X4256968Y-5152172D01*
X4256968Y-5152172D02*
X4276015Y-5152172D01*
X4418873Y-5142648D02*
X4399825Y-5152172D01*
X4399825Y-5152172D02*
X4361730Y-5152172D01*
X4361730Y-5152172D02*
X4342682Y-5142648D01*
X4342682Y-5142648D02*
X4333158Y-5123600D01*
X4333158Y-5123600D02*
X4333158Y-5047410D01*
X4333158Y-5047410D02*
X4342682Y-5028362D01*
X4342682Y-5028362D02*
X4361730Y-5018839D01*
X4361730Y-5018839D02*
X4399825Y-5018839D01*
X4399825Y-5018839D02*
X4418873Y-5028362D01*
X4418873Y-5028362D02*
X4428396Y-5047410D01*
X4428396Y-5047410D02*
X4428396Y-5066458D01*
X4428396Y-5066458D02*
X4333158Y-5085505D01*
X4599825Y-5152172D02*
X4599825Y-4952172D01*
X4599825Y-5142648D02*
X4580777Y-5152172D01*
X4580777Y-5152172D02*
X4542682Y-5152172D01*
X4542682Y-5152172D02*
X4523635Y-5142648D01*
X4523635Y-5142648D02*
X4514111Y-5133124D01*
X4514111Y-5133124D02*
X4504587Y-5114077D01*
X4504587Y-5114077D02*
X4504587Y-5056934D01*
X4504587Y-5056934D02*
X4514111Y-5037886D01*
X4514111Y-5037886D02*
X4523635Y-5028362D01*
X4523635Y-5028362D02*
X4542682Y-5018839D01*
X4542682Y-5018839D02*
X4580777Y-5018839D01*
X4580777Y-5018839D02*
X4599825Y-5028362D01*
X4676016Y-5228362D02*
X4685539Y-5218839D01*
X4685539Y-5218839D02*
X4704587Y-5190267D01*
X4704587Y-5190267D02*
X4714111Y-5171220D01*
X4714111Y-5171220D02*
X4723635Y-5142648D01*
X4723635Y-5142648D02*
X4733158Y-5095029D01*
X4733158Y-5095029D02*
X4733158Y-5056934D01*
X4733158Y-5056934D02*
X4723635Y-5009315D01*
X4723635Y-5009315D02*
X4714111Y-4980743D01*
X4714111Y-4980743D02*
X4704587Y-4961696D01*
X4704587Y-4961696D02*
X4685539Y-4933124D01*
X4685539Y-4933124D02*
X4676016Y-4923600D01*
X-2180000Y-5280688D02*
X-2180000Y-5480688D01*
X-2280000Y-5380688D02*
X-2080000Y-5380688D01*
X-1838271Y-5272172D02*
X-1714461Y-5272172D01*
X-1714461Y-5272172D02*
X-1781128Y-5348362D01*
X-1781128Y-5348362D02*
X-1752556Y-5348362D01*
X-1752556Y-5348362D02*
X-1733509Y-5357886D01*
X-1733509Y-5357886D02*
X-1723985Y-5367410D01*
X-1723985Y-5367410D02*
X-1714461Y-5386458D01*
X-1714461Y-5386458D02*
X-1714461Y-5434077D01*
X-1714461Y-5434077D02*
X-1723985Y-5453124D01*
X-1723985Y-5453124D02*
X-1733509Y-5462648D01*
X-1733509Y-5462648D02*
X-1752556Y-5472172D01*
X-1752556Y-5472172D02*
X-1809699Y-5472172D01*
X-1809699Y-5472172D02*
X-1828747Y-5462648D01*
X-1828747Y-5462648D02*
X-1838271Y-5453124D01*
X-1628747Y-5453124D02*
X-1619223Y-5462648D01*
X-1619223Y-5462648D02*
X-1628747Y-5472172D01*
X-1628747Y-5472172D02*
X-1638271Y-5462648D01*
X-1638271Y-5462648D02*
X-1628747Y-5453124D01*
X-1628747Y-5453124D02*
X-1628747Y-5472172D01*
X-1447795Y-5338839D02*
X-1447795Y-5472172D01*
X-1495414Y-5262648D02*
X-1543033Y-5405505D01*
X-1543033Y-5405505D02*
X-1419223Y-5405505D01*
X-1247795Y-5272172D02*
X-1343033Y-5272172D01*
X-1343033Y-5272172D02*
X-1352557Y-5367410D01*
X-1352557Y-5367410D02*
X-1343033Y-5357886D01*
X-1343033Y-5357886D02*
X-1323985Y-5348362D01*
X-1323985Y-5348362D02*
X-1276366Y-5348362D01*
X-1276366Y-5348362D02*
X-1257318Y-5357886D01*
X-1257318Y-5357886D02*
X-1247795Y-5367410D01*
X-1247795Y-5367410D02*
X-1238271Y-5386458D01*
X-1238271Y-5386458D02*
X-1238271Y-5434077D01*
X-1238271Y-5434077D02*
X-1247795Y-5453124D01*
X-1247795Y-5453124D02*
X-1257318Y-5462648D01*
X-1257318Y-5462648D02*
X-1276366Y-5472172D01*
X-1276366Y-5472172D02*
X-1323985Y-5472172D01*
X-1323985Y-5472172D02*
X-1343033Y-5462648D01*
X-1343033Y-5462648D02*
X-1352557Y-5453124D01*
X-1114461Y-5272172D02*
X-1095414Y-5272172D01*
X-1095414Y-5272172D02*
X-1076366Y-5281696D01*
X-1076366Y-5281696D02*
X-1066842Y-5291220D01*
X-1066842Y-5291220D02*
X-1057318Y-5310267D01*
X-1057318Y-5310267D02*
X-1047795Y-5348362D01*
X-1047795Y-5348362D02*
X-1047795Y-5395981D01*
X-1047795Y-5395981D02*
X-1057318Y-5434077D01*
X-1057318Y-5434077D02*
X-1066842Y-5453124D01*
X-1066842Y-5453124D02*
X-1076366Y-5462648D01*
X-1076366Y-5462648D02*
X-1095414Y-5472172D01*
X-1095414Y-5472172D02*
X-1114461Y-5472172D01*
X-1114461Y-5472172D02*
X-1133509Y-5462648D01*
X-1133509Y-5462648D02*
X-1143033Y-5453124D01*
X-1143033Y-5453124D02*
X-1152557Y-5434077D01*
X-1152557Y-5434077D02*
X-1162080Y-5395981D01*
X-1162080Y-5395981D02*
X-1162080Y-5348362D01*
X-1162080Y-5348362D02*
X-1152557Y-5310267D01*
X-1152557Y-5310267D02*
X-1143033Y-5291220D01*
X-1143033Y-5291220D02*
X-1133509Y-5281696D01*
X-1133509Y-5281696D02*
X-1114461Y-5272172D01*
X-962080Y-5472172D02*
X-962080Y-5338839D01*
X-962080Y-5357886D02*
X-952556Y-5348362D01*
X-952556Y-5348362D02*
X-933509Y-5338839D01*
X-933509Y-5338839D02*
X-904937Y-5338839D01*
X-904937Y-5338839D02*
X-885890Y-5348362D01*
X-885890Y-5348362D02*
X-876366Y-5367410D01*
X-876366Y-5367410D02*
X-876366Y-5472172D01*
X-876366Y-5367410D02*
X-866842Y-5348362D01*
X-866842Y-5348362D02*
X-847795Y-5338839D01*
X-847795Y-5338839D02*
X-819223Y-5338839D01*
X-819223Y-5338839D02*
X-800175Y-5348362D01*
X-800175Y-5348362D02*
X-790652Y-5367410D01*
X-790652Y-5367410D02*
X-790652Y-5472172D01*
X-695414Y-5472172D02*
X-695414Y-5338839D01*
X-695414Y-5357886D02*
X-685890Y-5348362D01*
X-685890Y-5348362D02*
X-666842Y-5338839D01*
X-666842Y-5338839D02*
X-638271Y-5338839D01*
X-638271Y-5338839D02*
X-619223Y-5348362D01*
X-619223Y-5348362D02*
X-609699Y-5367410D01*
X-609699Y-5367410D02*
X-609699Y-5472172D01*
X-609699Y-5367410D02*
X-600176Y-5348362D01*
X-600176Y-5348362D02*
X-581128Y-5338839D01*
X-581128Y-5338839D02*
X-552557Y-5338839D01*
X-552557Y-5338839D02*
X-533509Y-5348362D01*
X-533509Y-5348362D02*
X-523985Y-5367410D01*
X-523985Y-5367410D02*
X-523985Y-5472172D01*
X-133509Y-5262648D02*
X-304937Y-5519791D01*
X123634Y-5272172D02*
X142682Y-5272172D01*
X142682Y-5272172D02*
X161729Y-5281696D01*
X161729Y-5281696D02*
X171253Y-5291220D01*
X171253Y-5291220D02*
X180777Y-5310267D01*
X180777Y-5310267D02*
X190301Y-5348362D01*
X190301Y-5348362D02*
X190301Y-5395981D01*
X190301Y-5395981D02*
X180777Y-5434077D01*
X180777Y-5434077D02*
X171253Y-5453124D01*
X171253Y-5453124D02*
X161729Y-5462648D01*
X161729Y-5462648D02*
X142682Y-5472172D01*
X142682Y-5472172D02*
X123634Y-5472172D01*
X123634Y-5472172D02*
X104586Y-5462648D01*
X104586Y-5462648D02*
X95063Y-5453124D01*
X95063Y-5453124D02*
X85539Y-5434077D01*
X85539Y-5434077D02*
X76015Y-5395981D01*
X76015Y-5395981D02*
X76015Y-5348362D01*
X76015Y-5348362D02*
X85539Y-5310267D01*
X85539Y-5310267D02*
X95063Y-5291220D01*
X95063Y-5291220D02*
X104586Y-5281696D01*
X104586Y-5281696D02*
X123634Y-5272172D01*
X276015Y-5453124D02*
X285539Y-5462648D01*
X285539Y-5462648D02*
X276015Y-5472172D01*
X276015Y-5472172D02*
X266491Y-5462648D01*
X266491Y-5462648D02*
X276015Y-5453124D01*
X276015Y-5453124D02*
X276015Y-5472172D01*
X476015Y-5472172D02*
X361729Y-5472172D01*
X418872Y-5472172D02*
X418872Y-5272172D01*
X418872Y-5272172D02*
X399825Y-5300743D01*
X399825Y-5300743D02*
X380777Y-5319791D01*
X380777Y-5319791D02*
X361729Y-5329315D01*
X542682Y-5272172D02*
X666491Y-5272172D01*
X666491Y-5272172D02*
X599825Y-5348362D01*
X599825Y-5348362D02*
X628396Y-5348362D01*
X628396Y-5348362D02*
X647444Y-5357886D01*
X647444Y-5357886D02*
X656968Y-5367410D01*
X656968Y-5367410D02*
X666491Y-5386458D01*
X666491Y-5386458D02*
X666491Y-5434077D01*
X666491Y-5434077D02*
X656968Y-5453124D01*
X656968Y-5453124D02*
X647444Y-5462648D01*
X647444Y-5462648D02*
X628396Y-5472172D01*
X628396Y-5472172D02*
X571253Y-5472172D01*
X571253Y-5472172D02*
X552206Y-5462648D01*
X552206Y-5462648D02*
X542682Y-5453124D01*
X847444Y-5272172D02*
X752206Y-5272172D01*
X752206Y-5272172D02*
X742682Y-5367410D01*
X742682Y-5367410D02*
X752206Y-5357886D01*
X752206Y-5357886D02*
X771253Y-5348362D01*
X771253Y-5348362D02*
X818872Y-5348362D01*
X818872Y-5348362D02*
X837920Y-5357886D01*
X837920Y-5357886D02*
X847444Y-5367410D01*
X847444Y-5367410D02*
X856967Y-5386458D01*
X856967Y-5386458D02*
X856967Y-5434077D01*
X856967Y-5434077D02*
X847444Y-5453124D01*
X847444Y-5453124D02*
X837920Y-5462648D01*
X837920Y-5462648D02*
X818872Y-5472172D01*
X818872Y-5472172D02*
X771253Y-5472172D01*
X771253Y-5472172D02*
X752206Y-5462648D01*
X752206Y-5462648D02*
X742682Y-5453124D01*
X971253Y-5357886D02*
X952206Y-5348362D01*
X952206Y-5348362D02*
X942682Y-5338839D01*
X942682Y-5338839D02*
X933158Y-5319791D01*
X933158Y-5319791D02*
X933158Y-5310267D01*
X933158Y-5310267D02*
X942682Y-5291220D01*
X942682Y-5291220D02*
X952206Y-5281696D01*
X952206Y-5281696D02*
X971253Y-5272172D01*
X971253Y-5272172D02*
X1009348Y-5272172D01*
X1009348Y-5272172D02*
X1028396Y-5281696D01*
X1028396Y-5281696D02*
X1037920Y-5291220D01*
X1037920Y-5291220D02*
X1047444Y-5310267D01*
X1047444Y-5310267D02*
X1047444Y-5319791D01*
X1047444Y-5319791D02*
X1037920Y-5338839D01*
X1037920Y-5338839D02*
X1028396Y-5348362D01*
X1028396Y-5348362D02*
X1009348Y-5357886D01*
X1009348Y-5357886D02*
X971253Y-5357886D01*
X971253Y-5357886D02*
X952206Y-5367410D01*
X952206Y-5367410D02*
X942682Y-5376934D01*
X942682Y-5376934D02*
X933158Y-5395981D01*
X933158Y-5395981D02*
X933158Y-5434077D01*
X933158Y-5434077D02*
X942682Y-5453124D01*
X942682Y-5453124D02*
X952206Y-5462648D01*
X952206Y-5462648D02*
X971253Y-5472172D01*
X971253Y-5472172D02*
X1009348Y-5472172D01*
X1009348Y-5472172D02*
X1028396Y-5462648D01*
X1028396Y-5462648D02*
X1037920Y-5453124D01*
X1037920Y-5453124D02*
X1047444Y-5434077D01*
X1047444Y-5434077D02*
X1047444Y-5395981D01*
X1047444Y-5395981D02*
X1037920Y-5376934D01*
X1037920Y-5376934D02*
X1028396Y-5367410D01*
X1028396Y-5367410D02*
X1009348Y-5357886D01*
X1123634Y-5272172D02*
X1123634Y-5310267D01*
X1199825Y-5272172D02*
X1199825Y-5310267D01*
X1495063Y-5548362D02*
X1485539Y-5538839D01*
X1485539Y-5538839D02*
X1466491Y-5510267D01*
X1466491Y-5510267D02*
X1456968Y-5491220D01*
X1456968Y-5491220D02*
X1447444Y-5462648D01*
X1447444Y-5462648D02*
X1437920Y-5415029D01*
X1437920Y-5415029D02*
X1437920Y-5376934D01*
X1437920Y-5376934D02*
X1447444Y-5329315D01*
X1447444Y-5329315D02*
X1456968Y-5300743D01*
X1456968Y-5300743D02*
X1466491Y-5281696D01*
X1466491Y-5281696D02*
X1485539Y-5253124D01*
X1485539Y-5253124D02*
X1495063Y-5243600D01*
X1656968Y-5338839D02*
X1656968Y-5472172D01*
X1609348Y-5262648D02*
X1561729Y-5405505D01*
X1561729Y-5405505D02*
X1685539Y-5405505D01*
X1914110Y-5472172D02*
X1914110Y-5272172D01*
X1999825Y-5472172D02*
X1999825Y-5367410D01*
X1999825Y-5367410D02*
X1990301Y-5348362D01*
X1990301Y-5348362D02*
X1971253Y-5338839D01*
X1971253Y-5338839D02*
X1942682Y-5338839D01*
X1942682Y-5338839D02*
X1923634Y-5348362D01*
X1923634Y-5348362D02*
X1914110Y-5357886D01*
X2123634Y-5472172D02*
X2104587Y-5462648D01*
X2104587Y-5462648D02*
X2095063Y-5453124D01*
X2095063Y-5453124D02*
X2085539Y-5434077D01*
X2085539Y-5434077D02*
X2085539Y-5376934D01*
X2085539Y-5376934D02*
X2095063Y-5357886D01*
X2095063Y-5357886D02*
X2104587Y-5348362D01*
X2104587Y-5348362D02*
X2123634Y-5338839D01*
X2123634Y-5338839D02*
X2152206Y-5338839D01*
X2152206Y-5338839D02*
X2171253Y-5348362D01*
X2171253Y-5348362D02*
X2180777Y-5357886D01*
X2180777Y-5357886D02*
X2190301Y-5376934D01*
X2190301Y-5376934D02*
X2190301Y-5434077D01*
X2190301Y-5434077D02*
X2180777Y-5453124D01*
X2180777Y-5453124D02*
X2171253Y-5462648D01*
X2171253Y-5462648D02*
X2152206Y-5472172D01*
X2152206Y-5472172D02*
X2123634Y-5472172D01*
X2304587Y-5472172D02*
X2285539Y-5462648D01*
X2285539Y-5462648D02*
X2276015Y-5443600D01*
X2276015Y-5443600D02*
X2276015Y-5272172D01*
X2456968Y-5462648D02*
X2437920Y-5472172D01*
X2437920Y-5472172D02*
X2399825Y-5472172D01*
X2399825Y-5472172D02*
X2380777Y-5462648D01*
X2380777Y-5462648D02*
X2371253Y-5443600D01*
X2371253Y-5443600D02*
X2371253Y-5367410D01*
X2371253Y-5367410D02*
X2380777Y-5348362D01*
X2380777Y-5348362D02*
X2399825Y-5338839D01*
X2399825Y-5338839D02*
X2437920Y-5338839D01*
X2437920Y-5338839D02*
X2456968Y-5348362D01*
X2456968Y-5348362D02*
X2466492Y-5367410D01*
X2466492Y-5367410D02*
X2466492Y-5386458D01*
X2466492Y-5386458D02*
X2371253Y-5405505D01*
X2542682Y-5462648D02*
X2561730Y-5472172D01*
X2561730Y-5472172D02*
X2599825Y-5472172D01*
X2599825Y-5472172D02*
X2618873Y-5462648D01*
X2618873Y-5462648D02*
X2628396Y-5443600D01*
X2628396Y-5443600D02*
X2628396Y-5434077D01*
X2628396Y-5434077D02*
X2618873Y-5415029D01*
X2618873Y-5415029D02*
X2599825Y-5405505D01*
X2599825Y-5405505D02*
X2571253Y-5405505D01*
X2571253Y-5405505D02*
X2552206Y-5395981D01*
X2552206Y-5395981D02*
X2542682Y-5376934D01*
X2542682Y-5376934D02*
X2542682Y-5367410D01*
X2542682Y-5367410D02*
X2552206Y-5348362D01*
X2552206Y-5348362D02*
X2571253Y-5338839D01*
X2571253Y-5338839D02*
X2599825Y-5338839D01*
X2599825Y-5338839D02*
X2618873Y-5348362D01*
X2695063Y-5548362D02*
X2704587Y-5538839D01*
X2704587Y-5538839D02*
X2723634Y-5510267D01*
X2723634Y-5510267D02*
X2733158Y-5491220D01*
X2733158Y-5491220D02*
X2742682Y-5462648D01*
X2742682Y-5462648D02*
X2752206Y-5415029D01*
X2752206Y-5415029D02*
X2752206Y-5376934D01*
X2752206Y-5376934D02*
X2742682Y-5329315D01*
X2742682Y-5329315D02*
X2733158Y-5300743D01*
X2733158Y-5300743D02*
X2723634Y-5281696D01*
X2723634Y-5281696D02*
X2704587Y-5253124D01*
X2704587Y-5253124D02*
X2695063Y-5243600D01*
X3056968Y-5548362D02*
X3047444Y-5538839D01*
X3047444Y-5538839D02*
X3028396Y-5510267D01*
X3028396Y-5510267D02*
X3018872Y-5491220D01*
X3018872Y-5491220D02*
X3009349Y-5462648D01*
X3009349Y-5462648D02*
X2999825Y-5415029D01*
X2999825Y-5415029D02*
X2999825Y-5376934D01*
X2999825Y-5376934D02*
X3009349Y-5329315D01*
X3009349Y-5329315D02*
X3018872Y-5300743D01*
X3018872Y-5300743D02*
X3028396Y-5281696D01*
X3028396Y-5281696D02*
X3047444Y-5253124D01*
X3047444Y-5253124D02*
X3056968Y-5243600D01*
X3133158Y-5338839D02*
X3133158Y-5472172D01*
X3133158Y-5357886D02*
X3142682Y-5348362D01*
X3142682Y-5348362D02*
X3161730Y-5338839D01*
X3161730Y-5338839D02*
X3190301Y-5338839D01*
X3190301Y-5338839D02*
X3209349Y-5348362D01*
X3209349Y-5348362D02*
X3218872Y-5367410D01*
X3218872Y-5367410D02*
X3218872Y-5472172D01*
X3342682Y-5472172D02*
X3323634Y-5462648D01*
X3323634Y-5462648D02*
X3314111Y-5453124D01*
X3314111Y-5453124D02*
X3304587Y-5434077D01*
X3304587Y-5434077D02*
X3304587Y-5376934D01*
X3304587Y-5376934D02*
X3314111Y-5357886D01*
X3314111Y-5357886D02*
X3323634Y-5348362D01*
X3323634Y-5348362D02*
X3342682Y-5338839D01*
X3342682Y-5338839D02*
X3371253Y-5338839D01*
X3371253Y-5338839D02*
X3390301Y-5348362D01*
X3390301Y-5348362D02*
X3399825Y-5357886D01*
X3399825Y-5357886D02*
X3409349Y-5376934D01*
X3409349Y-5376934D02*
X3409349Y-5434077D01*
X3409349Y-5434077D02*
X3399825Y-5453124D01*
X3399825Y-5453124D02*
X3390301Y-5462648D01*
X3390301Y-5462648D02*
X3371253Y-5472172D01*
X3371253Y-5472172D02*
X3342682Y-5472172D01*
X3466492Y-5338839D02*
X3542682Y-5338839D01*
X3495063Y-5272172D02*
X3495063Y-5443600D01*
X3495063Y-5443600D02*
X3504587Y-5462648D01*
X3504587Y-5462648D02*
X3523634Y-5472172D01*
X3523634Y-5472172D02*
X3542682Y-5472172D01*
X3761730Y-5338839D02*
X3761730Y-5538839D01*
X3761730Y-5348362D02*
X3780777Y-5338839D01*
X3780777Y-5338839D02*
X3818873Y-5338839D01*
X3818873Y-5338839D02*
X3837920Y-5348362D01*
X3837920Y-5348362D02*
X3847444Y-5357886D01*
X3847444Y-5357886D02*
X3856968Y-5376934D01*
X3856968Y-5376934D02*
X3856968Y-5434077D01*
X3856968Y-5434077D02*
X3847444Y-5453124D01*
X3847444Y-5453124D02*
X3837920Y-5462648D01*
X3837920Y-5462648D02*
X3818873Y-5472172D01*
X3818873Y-5472172D02*
X3780777Y-5472172D01*
X3780777Y-5472172D02*
X3761730Y-5462648D01*
X3971253Y-5472172D02*
X3952206Y-5462648D01*
X3952206Y-5462648D02*
X3942682Y-5443600D01*
X3942682Y-5443600D02*
X3942682Y-5272172D01*
X4133158Y-5472172D02*
X4133158Y-5367410D01*
X4133158Y-5367410D02*
X4123634Y-5348362D01*
X4123634Y-5348362D02*
X4104587Y-5338839D01*
X4104587Y-5338839D02*
X4066492Y-5338839D01*
X4066492Y-5338839D02*
X4047444Y-5348362D01*
X4133158Y-5462648D02*
X4114111Y-5472172D01*
X4114111Y-5472172D02*
X4066492Y-5472172D01*
X4066492Y-5472172D02*
X4047444Y-5462648D01*
X4047444Y-5462648D02*
X4037920Y-5443600D01*
X4037920Y-5443600D02*
X4037920Y-5424553D01*
X4037920Y-5424553D02*
X4047444Y-5405505D01*
X4047444Y-5405505D02*
X4066492Y-5395981D01*
X4066492Y-5395981D02*
X4114111Y-5395981D01*
X4114111Y-5395981D02*
X4133158Y-5386458D01*
X4199825Y-5338839D02*
X4276015Y-5338839D01*
X4228396Y-5272172D02*
X4228396Y-5443600D01*
X4228396Y-5443600D02*
X4237920Y-5462648D01*
X4237920Y-5462648D02*
X4256968Y-5472172D01*
X4256968Y-5472172D02*
X4276015Y-5472172D01*
X4418873Y-5462648D02*
X4399825Y-5472172D01*
X4399825Y-5472172D02*
X4361730Y-5472172D01*
X4361730Y-5472172D02*
X4342682Y-5462648D01*
X4342682Y-5462648D02*
X4333158Y-5443600D01*
X4333158Y-5443600D02*
X4333158Y-5367410D01*
X4333158Y-5367410D02*
X4342682Y-5348362D01*
X4342682Y-5348362D02*
X4361730Y-5338839D01*
X4361730Y-5338839D02*
X4399825Y-5338839D01*
X4399825Y-5338839D02*
X4418873Y-5348362D01*
X4418873Y-5348362D02*
X4428396Y-5367410D01*
X4428396Y-5367410D02*
X4428396Y-5386458D01*
X4428396Y-5386458D02*
X4333158Y-5405505D01*
X4599825Y-5472172D02*
X4599825Y-5272172D01*
X4599825Y-5462648D02*
X4580777Y-5472172D01*
X4580777Y-5472172D02*
X4542682Y-5472172D01*
X4542682Y-5472172D02*
X4523635Y-5462648D01*
X4523635Y-5462648D02*
X4514111Y-5453124D01*
X4514111Y-5453124D02*
X4504587Y-5434077D01*
X4504587Y-5434077D02*
X4504587Y-5376934D01*
X4504587Y-5376934D02*
X4514111Y-5357886D01*
X4514111Y-5357886D02*
X4523635Y-5348362D01*
X4523635Y-5348362D02*
X4542682Y-5338839D01*
X4542682Y-5338839D02*
X4580777Y-5338839D01*
X4580777Y-5338839D02*
X4599825Y-5348362D01*
X4676016Y-5548362D02*
X4685539Y-5538839D01*
X4685539Y-5538839D02*
X4704587Y-5510267D01*
X4704587Y-5510267D02*
X4714111Y-5491220D01*
X4714111Y-5491220D02*
X4723635Y-5462648D01*
X4723635Y-5462648D02*
X4733158Y-5415029D01*
X4733158Y-5415029D02*
X4733158Y-5376934D01*
X4733158Y-5376934D02*
X4723635Y-5329315D01*
X4723635Y-5329315D02*
X4714111Y-5300743D01*
X4714111Y-5300743D02*
X4704587Y-5281696D01*
X4704587Y-5281696D02*
X4685539Y-5253124D01*
X4685539Y-5253124D02*
X4676016Y-5243600D01*
X-2109289Y-5771399D02*
X-2109289Y-5629977D01*
X-2250711Y-5629977D01*
X-2250711Y-5771399D01*
X-2109289Y-5771399D01*
X-1733509Y-5658838D02*
X-1733509Y-5792172D01*
X-1781128Y-5582648D02*
X-1828747Y-5725505D01*
X-1828747Y-5725505D02*
X-1704937Y-5725505D01*
X-1628747Y-5773124D02*
X-1619223Y-5782648D01*
X-1619223Y-5782648D02*
X-1628747Y-5792172D01*
X-1628747Y-5792172D02*
X-1638271Y-5782648D01*
X-1638271Y-5782648D02*
X-1628747Y-5773124D01*
X-1628747Y-5773124D02*
X-1628747Y-5792172D01*
X-1495414Y-5592172D02*
X-1476366Y-5592172D01*
X-1476366Y-5592172D02*
X-1457318Y-5601696D01*
X-1457318Y-5601696D02*
X-1447795Y-5611219D01*
X-1447795Y-5611219D02*
X-1438271Y-5630267D01*
X-1438271Y-5630267D02*
X-1428747Y-5668362D01*
X-1428747Y-5668362D02*
X-1428747Y-5715981D01*
X-1428747Y-5715981D02*
X-1438271Y-5754077D01*
X-1438271Y-5754077D02*
X-1447795Y-5773124D01*
X-1447795Y-5773124D02*
X-1457318Y-5782648D01*
X-1457318Y-5782648D02*
X-1476366Y-5792172D01*
X-1476366Y-5792172D02*
X-1495414Y-5792172D01*
X-1495414Y-5792172D02*
X-1514461Y-5782648D01*
X-1514461Y-5782648D02*
X-1523985Y-5773124D01*
X-1523985Y-5773124D02*
X-1533509Y-5754077D01*
X-1533509Y-5754077D02*
X-1543033Y-5715981D01*
X-1543033Y-5715981D02*
X-1543033Y-5668362D01*
X-1543033Y-5668362D02*
X-1533509Y-5630267D01*
X-1533509Y-5630267D02*
X-1523985Y-5611219D01*
X-1523985Y-5611219D02*
X-1514461Y-5601696D01*
X-1514461Y-5601696D02*
X-1495414Y-5592172D01*
X-1314461Y-5677886D02*
X-1333509Y-5668362D01*
X-1333509Y-5668362D02*
X-1343033Y-5658838D01*
X-1343033Y-5658838D02*
X-1352557Y-5639791D01*
X-1352557Y-5639791D02*
X-1352557Y-5630267D01*
X-1352557Y-5630267D02*
X-1343033Y-5611219D01*
X-1343033Y-5611219D02*
X-1333509Y-5601696D01*
X-1333509Y-5601696D02*
X-1314461Y-5592172D01*
X-1314461Y-5592172D02*
X-1276366Y-5592172D01*
X-1276366Y-5592172D02*
X-1257318Y-5601696D01*
X-1257318Y-5601696D02*
X-1247795Y-5611219D01*
X-1247795Y-5611219D02*
X-1238271Y-5630267D01*
X-1238271Y-5630267D02*
X-1238271Y-5639791D01*
X-1238271Y-5639791D02*
X-1247795Y-5658838D01*
X-1247795Y-5658838D02*
X-1257318Y-5668362D01*
X-1257318Y-5668362D02*
X-1276366Y-5677886D01*
X-1276366Y-5677886D02*
X-1314461Y-5677886D01*
X-1314461Y-5677886D02*
X-1333509Y-5687410D01*
X-1333509Y-5687410D02*
X-1343033Y-5696934D01*
X-1343033Y-5696934D02*
X-1352557Y-5715981D01*
X-1352557Y-5715981D02*
X-1352557Y-5754077D01*
X-1352557Y-5754077D02*
X-1343033Y-5773124D01*
X-1343033Y-5773124D02*
X-1333509Y-5782648D01*
X-1333509Y-5782648D02*
X-1314461Y-5792172D01*
X-1314461Y-5792172D02*
X-1276366Y-5792172D01*
X-1276366Y-5792172D02*
X-1257318Y-5782648D01*
X-1257318Y-5782648D02*
X-1247795Y-5773124D01*
X-1247795Y-5773124D02*
X-1238271Y-5754077D01*
X-1238271Y-5754077D02*
X-1238271Y-5715981D01*
X-1238271Y-5715981D02*
X-1247795Y-5696934D01*
X-1247795Y-5696934D02*
X-1257318Y-5687410D01*
X-1257318Y-5687410D02*
X-1276366Y-5677886D01*
X-1143033Y-5792172D02*
X-1104938Y-5792172D01*
X-1104938Y-5792172D02*
X-1085890Y-5782648D01*
X-1085890Y-5782648D02*
X-1076366Y-5773124D01*
X-1076366Y-5773124D02*
X-1057318Y-5744553D01*
X-1057318Y-5744553D02*
X-1047795Y-5706458D01*
X-1047795Y-5706458D02*
X-1047795Y-5630267D01*
X-1047795Y-5630267D02*
X-1057318Y-5611219D01*
X-1057318Y-5611219D02*
X-1066842Y-5601696D01*
X-1066842Y-5601696D02*
X-1085890Y-5592172D01*
X-1085890Y-5592172D02*
X-1123985Y-5592172D01*
X-1123985Y-5592172D02*
X-1143033Y-5601696D01*
X-1143033Y-5601696D02*
X-1152557Y-5611219D01*
X-1152557Y-5611219D02*
X-1162080Y-5630267D01*
X-1162080Y-5630267D02*
X-1162080Y-5677886D01*
X-1162080Y-5677886D02*
X-1152557Y-5696934D01*
X-1152557Y-5696934D02*
X-1143033Y-5706458D01*
X-1143033Y-5706458D02*
X-1123985Y-5715981D01*
X-1123985Y-5715981D02*
X-1085890Y-5715981D01*
X-1085890Y-5715981D02*
X-1066842Y-5706458D01*
X-1066842Y-5706458D02*
X-1057318Y-5696934D01*
X-1057318Y-5696934D02*
X-1047795Y-5677886D01*
X-962080Y-5792172D02*
X-962080Y-5658838D01*
X-962080Y-5677886D02*
X-952556Y-5668362D01*
X-952556Y-5668362D02*
X-933509Y-5658838D01*
X-933509Y-5658838D02*
X-904937Y-5658838D01*
X-904937Y-5658838D02*
X-885890Y-5668362D01*
X-885890Y-5668362D02*
X-876366Y-5687410D01*
X-876366Y-5687410D02*
X-876366Y-5792172D01*
X-876366Y-5687410D02*
X-866842Y-5668362D01*
X-866842Y-5668362D02*
X-847795Y-5658838D01*
X-847795Y-5658838D02*
X-819223Y-5658838D01*
X-819223Y-5658838D02*
X-800175Y-5668362D01*
X-800175Y-5668362D02*
X-790652Y-5687410D01*
X-790652Y-5687410D02*
X-790652Y-5792172D01*
X-695414Y-5792172D02*
X-695414Y-5658838D01*
X-695414Y-5677886D02*
X-685890Y-5668362D01*
X-685890Y-5668362D02*
X-666842Y-5658838D01*
X-666842Y-5658838D02*
X-638271Y-5658838D01*
X-638271Y-5658838D02*
X-619223Y-5668362D01*
X-619223Y-5668362D02*
X-609699Y-5687410D01*
X-609699Y-5687410D02*
X-609699Y-5792172D01*
X-609699Y-5687410D02*
X-600176Y-5668362D01*
X-600176Y-5668362D02*
X-581128Y-5658838D01*
X-581128Y-5658838D02*
X-552557Y-5658838D01*
X-552557Y-5658838D02*
X-533509Y-5668362D01*
X-533509Y-5668362D02*
X-523985Y-5687410D01*
X-523985Y-5687410D02*
X-523985Y-5792172D01*
X-133509Y-5582648D02*
X-304937Y-5839791D01*
X123634Y-5592172D02*
X142682Y-5592172D01*
X142682Y-5592172D02*
X161729Y-5601696D01*
X161729Y-5601696D02*
X171253Y-5611219D01*
X171253Y-5611219D02*
X180777Y-5630267D01*
X180777Y-5630267D02*
X190301Y-5668362D01*
X190301Y-5668362D02*
X190301Y-5715981D01*
X190301Y-5715981D02*
X180777Y-5754077D01*
X180777Y-5754077D02*
X171253Y-5773124D01*
X171253Y-5773124D02*
X161729Y-5782648D01*
X161729Y-5782648D02*
X142682Y-5792172D01*
X142682Y-5792172D02*
X123634Y-5792172D01*
X123634Y-5792172D02*
X104586Y-5782648D01*
X104586Y-5782648D02*
X95063Y-5773124D01*
X95063Y-5773124D02*
X85539Y-5754077D01*
X85539Y-5754077D02*
X76015Y-5715981D01*
X76015Y-5715981D02*
X76015Y-5668362D01*
X76015Y-5668362D02*
X85539Y-5630267D01*
X85539Y-5630267D02*
X95063Y-5611219D01*
X95063Y-5611219D02*
X104586Y-5601696D01*
X104586Y-5601696D02*
X123634Y-5592172D01*
X276015Y-5773124D02*
X285539Y-5782648D01*
X285539Y-5782648D02*
X276015Y-5792172D01*
X276015Y-5792172D02*
X266491Y-5782648D01*
X266491Y-5782648D02*
X276015Y-5773124D01*
X276015Y-5773124D02*
X276015Y-5792172D01*
X476015Y-5792172D02*
X361729Y-5792172D01*
X418872Y-5792172D02*
X418872Y-5592172D01*
X418872Y-5592172D02*
X399825Y-5620743D01*
X399825Y-5620743D02*
X380777Y-5639791D01*
X380777Y-5639791D02*
X361729Y-5649315D01*
X647444Y-5592172D02*
X609348Y-5592172D01*
X609348Y-5592172D02*
X590301Y-5601696D01*
X590301Y-5601696D02*
X580777Y-5611219D01*
X580777Y-5611219D02*
X561729Y-5639791D01*
X561729Y-5639791D02*
X552206Y-5677886D01*
X552206Y-5677886D02*
X552206Y-5754077D01*
X552206Y-5754077D02*
X561729Y-5773124D01*
X561729Y-5773124D02*
X571253Y-5782648D01*
X571253Y-5782648D02*
X590301Y-5792172D01*
X590301Y-5792172D02*
X628396Y-5792172D01*
X628396Y-5792172D02*
X647444Y-5782648D01*
X647444Y-5782648D02*
X656968Y-5773124D01*
X656968Y-5773124D02*
X666491Y-5754077D01*
X666491Y-5754077D02*
X666491Y-5706458D01*
X666491Y-5706458D02*
X656968Y-5687410D01*
X656968Y-5687410D02*
X647444Y-5677886D01*
X647444Y-5677886D02*
X628396Y-5668362D01*
X628396Y-5668362D02*
X590301Y-5668362D01*
X590301Y-5668362D02*
X571253Y-5677886D01*
X571253Y-5677886D02*
X561729Y-5687410D01*
X561729Y-5687410D02*
X552206Y-5706458D01*
X856967Y-5792172D02*
X742682Y-5792172D01*
X799825Y-5792172D02*
X799825Y-5592172D01*
X799825Y-5592172D02*
X780777Y-5620743D01*
X780777Y-5620743D02*
X761729Y-5639791D01*
X761729Y-5639791D02*
X742682Y-5649315D01*
X980777Y-5592172D02*
X999825Y-5592172D01*
X999825Y-5592172D02*
X1018872Y-5601696D01*
X1018872Y-5601696D02*
X1028396Y-5611219D01*
X1028396Y-5611219D02*
X1037920Y-5630267D01*
X1037920Y-5630267D02*
X1047444Y-5668362D01*
X1047444Y-5668362D02*
X1047444Y-5715981D01*
X1047444Y-5715981D02*
X1037920Y-5754077D01*
X1037920Y-5754077D02*
X1028396Y-5773124D01*
X1028396Y-5773124D02*
X1018872Y-5782648D01*
X1018872Y-5782648D02*
X999825Y-5792172D01*
X999825Y-5792172D02*
X980777Y-5792172D01*
X980777Y-5792172D02*
X961729Y-5782648D01*
X961729Y-5782648D02*
X952206Y-5773124D01*
X952206Y-5773124D02*
X942682Y-5754077D01*
X942682Y-5754077D02*
X933158Y-5715981D01*
X933158Y-5715981D02*
X933158Y-5668362D01*
X933158Y-5668362D02*
X942682Y-5630267D01*
X942682Y-5630267D02*
X952206Y-5611219D01*
X952206Y-5611219D02*
X961729Y-5601696D01*
X961729Y-5601696D02*
X980777Y-5592172D01*
X1123634Y-5592172D02*
X1123634Y-5630267D01*
X1199825Y-5592172D02*
X1199825Y-5630267D01*
X1495063Y-5868362D02*
X1485539Y-5858838D01*
X1485539Y-5858838D02*
X1466491Y-5830267D01*
X1466491Y-5830267D02*
X1456968Y-5811219D01*
X1456968Y-5811219D02*
X1447444Y-5782648D01*
X1447444Y-5782648D02*
X1437920Y-5735029D01*
X1437920Y-5735029D02*
X1437920Y-5696934D01*
X1437920Y-5696934D02*
X1447444Y-5649315D01*
X1447444Y-5649315D02*
X1456968Y-5620743D01*
X1456968Y-5620743D02*
X1466491Y-5601696D01*
X1466491Y-5601696D02*
X1485539Y-5573124D01*
X1485539Y-5573124D02*
X1495063Y-5563600D01*
X1656968Y-5658838D02*
X1656968Y-5792172D01*
X1609348Y-5582648D02*
X1561729Y-5725505D01*
X1561729Y-5725505D02*
X1685539Y-5725505D01*
X1914110Y-5792172D02*
X1914110Y-5592172D01*
X1999825Y-5792172D02*
X1999825Y-5687410D01*
X1999825Y-5687410D02*
X1990301Y-5668362D01*
X1990301Y-5668362D02*
X1971253Y-5658838D01*
X1971253Y-5658838D02*
X1942682Y-5658838D01*
X1942682Y-5658838D02*
X1923634Y-5668362D01*
X1923634Y-5668362D02*
X1914110Y-5677886D01*
X2123634Y-5792172D02*
X2104587Y-5782648D01*
X2104587Y-5782648D02*
X2095063Y-5773124D01*
X2095063Y-5773124D02*
X2085539Y-5754077D01*
X2085539Y-5754077D02*
X2085539Y-5696934D01*
X2085539Y-5696934D02*
X2095063Y-5677886D01*
X2095063Y-5677886D02*
X2104587Y-5668362D01*
X2104587Y-5668362D02*
X2123634Y-5658838D01*
X2123634Y-5658838D02*
X2152206Y-5658838D01*
X2152206Y-5658838D02*
X2171253Y-5668362D01*
X2171253Y-5668362D02*
X2180777Y-5677886D01*
X2180777Y-5677886D02*
X2190301Y-5696934D01*
X2190301Y-5696934D02*
X2190301Y-5754077D01*
X2190301Y-5754077D02*
X2180777Y-5773124D01*
X2180777Y-5773124D02*
X2171253Y-5782648D01*
X2171253Y-5782648D02*
X2152206Y-5792172D01*
X2152206Y-5792172D02*
X2123634Y-5792172D01*
X2304587Y-5792172D02*
X2285539Y-5782648D01*
X2285539Y-5782648D02*
X2276015Y-5763600D01*
X2276015Y-5763600D02*
X2276015Y-5592172D01*
X2456968Y-5782648D02*
X2437920Y-5792172D01*
X2437920Y-5792172D02*
X2399825Y-5792172D01*
X2399825Y-5792172D02*
X2380777Y-5782648D01*
X2380777Y-5782648D02*
X2371253Y-5763600D01*
X2371253Y-5763600D02*
X2371253Y-5687410D01*
X2371253Y-5687410D02*
X2380777Y-5668362D01*
X2380777Y-5668362D02*
X2399825Y-5658838D01*
X2399825Y-5658838D02*
X2437920Y-5658838D01*
X2437920Y-5658838D02*
X2456968Y-5668362D01*
X2456968Y-5668362D02*
X2466492Y-5687410D01*
X2466492Y-5687410D02*
X2466492Y-5706458D01*
X2466492Y-5706458D02*
X2371253Y-5725505D01*
X2542682Y-5782648D02*
X2561730Y-5792172D01*
X2561730Y-5792172D02*
X2599825Y-5792172D01*
X2599825Y-5792172D02*
X2618873Y-5782648D01*
X2618873Y-5782648D02*
X2628396Y-5763600D01*
X2628396Y-5763600D02*
X2628396Y-5754077D01*
X2628396Y-5754077D02*
X2618873Y-5735029D01*
X2618873Y-5735029D02*
X2599825Y-5725505D01*
X2599825Y-5725505D02*
X2571253Y-5725505D01*
X2571253Y-5725505D02*
X2552206Y-5715981D01*
X2552206Y-5715981D02*
X2542682Y-5696934D01*
X2542682Y-5696934D02*
X2542682Y-5687410D01*
X2542682Y-5687410D02*
X2552206Y-5668362D01*
X2552206Y-5668362D02*
X2571253Y-5658838D01*
X2571253Y-5658838D02*
X2599825Y-5658838D01*
X2599825Y-5658838D02*
X2618873Y-5668362D01*
X2695063Y-5868362D02*
X2704587Y-5858838D01*
X2704587Y-5858838D02*
X2723634Y-5830267D01*
X2723634Y-5830267D02*
X2733158Y-5811219D01*
X2733158Y-5811219D02*
X2742682Y-5782648D01*
X2742682Y-5782648D02*
X2752206Y-5735029D01*
X2752206Y-5735029D02*
X2752206Y-5696934D01*
X2752206Y-5696934D02*
X2742682Y-5649315D01*
X2742682Y-5649315D02*
X2733158Y-5620743D01*
X2733158Y-5620743D02*
X2723634Y-5601696D01*
X2723634Y-5601696D02*
X2704587Y-5573124D01*
X2704587Y-5573124D02*
X2695063Y-5563600D01*
X3056968Y-5868362D02*
X3047444Y-5858838D01*
X3047444Y-5858838D02*
X3028396Y-5830267D01*
X3028396Y-5830267D02*
X3018872Y-5811219D01*
X3018872Y-5811219D02*
X3009349Y-5782648D01*
X3009349Y-5782648D02*
X2999825Y-5735029D01*
X2999825Y-5735029D02*
X2999825Y-5696934D01*
X2999825Y-5696934D02*
X3009349Y-5649315D01*
X3009349Y-5649315D02*
X3018872Y-5620743D01*
X3018872Y-5620743D02*
X3028396Y-5601696D01*
X3028396Y-5601696D02*
X3047444Y-5573124D01*
X3047444Y-5573124D02*
X3056968Y-5563600D01*
X3133158Y-5658838D02*
X3133158Y-5792172D01*
X3133158Y-5677886D02*
X3142682Y-5668362D01*
X3142682Y-5668362D02*
X3161730Y-5658838D01*
X3161730Y-5658838D02*
X3190301Y-5658838D01*
X3190301Y-5658838D02*
X3209349Y-5668362D01*
X3209349Y-5668362D02*
X3218872Y-5687410D01*
X3218872Y-5687410D02*
X3218872Y-5792172D01*
X3342682Y-5792172D02*
X3323634Y-5782648D01*
X3323634Y-5782648D02*
X3314111Y-5773124D01*
X3314111Y-5773124D02*
X3304587Y-5754077D01*
X3304587Y-5754077D02*
X3304587Y-5696934D01*
X3304587Y-5696934D02*
X3314111Y-5677886D01*
X3314111Y-5677886D02*
X3323634Y-5668362D01*
X3323634Y-5668362D02*
X3342682Y-5658838D01*
X3342682Y-5658838D02*
X3371253Y-5658838D01*
X3371253Y-5658838D02*
X3390301Y-5668362D01*
X3390301Y-5668362D02*
X3399825Y-5677886D01*
X3399825Y-5677886D02*
X3409349Y-5696934D01*
X3409349Y-5696934D02*
X3409349Y-5754077D01*
X3409349Y-5754077D02*
X3399825Y-5773124D01*
X3399825Y-5773124D02*
X3390301Y-5782648D01*
X3390301Y-5782648D02*
X3371253Y-5792172D01*
X3371253Y-5792172D02*
X3342682Y-5792172D01*
X3466492Y-5658838D02*
X3542682Y-5658838D01*
X3495063Y-5592172D02*
X3495063Y-5763600D01*
X3495063Y-5763600D02*
X3504587Y-5782648D01*
X3504587Y-5782648D02*
X3523634Y-5792172D01*
X3523634Y-5792172D02*
X3542682Y-5792172D01*
X3761730Y-5658838D02*
X3761730Y-5858838D01*
X3761730Y-5668362D02*
X3780777Y-5658838D01*
X3780777Y-5658838D02*
X3818873Y-5658838D01*
X3818873Y-5658838D02*
X3837920Y-5668362D01*
X3837920Y-5668362D02*
X3847444Y-5677886D01*
X3847444Y-5677886D02*
X3856968Y-5696934D01*
X3856968Y-5696934D02*
X3856968Y-5754077D01*
X3856968Y-5754077D02*
X3847444Y-5773124D01*
X3847444Y-5773124D02*
X3837920Y-5782648D01*
X3837920Y-5782648D02*
X3818873Y-5792172D01*
X3818873Y-5792172D02*
X3780777Y-5792172D01*
X3780777Y-5792172D02*
X3761730Y-5782648D01*
X3971253Y-5792172D02*
X3952206Y-5782648D01*
X3952206Y-5782648D02*
X3942682Y-5763600D01*
X3942682Y-5763600D02*
X3942682Y-5592172D01*
X4133158Y-5792172D02*
X4133158Y-5687410D01*
X4133158Y-5687410D02*
X4123634Y-5668362D01*
X4123634Y-5668362D02*
X4104587Y-5658838D01*
X4104587Y-5658838D02*
X4066492Y-5658838D01*
X4066492Y-5658838D02*
X4047444Y-5668362D01*
X4133158Y-5782648D02*
X4114111Y-5792172D01*
X4114111Y-5792172D02*
X4066492Y-5792172D01*
X4066492Y-5792172D02*
X4047444Y-5782648D01*
X4047444Y-5782648D02*
X4037920Y-5763600D01*
X4037920Y-5763600D02*
X4037920Y-5744553D01*
X4037920Y-5744553D02*
X4047444Y-5725505D01*
X4047444Y-5725505D02*
X4066492Y-5715981D01*
X4066492Y-5715981D02*
X4114111Y-5715981D01*
X4114111Y-5715981D02*
X4133158Y-5706458D01*
X4199825Y-5658838D02*
X4276015Y-5658838D01*
X4228396Y-5592172D02*
X4228396Y-5763600D01*
X4228396Y-5763600D02*
X4237920Y-5782648D01*
X4237920Y-5782648D02*
X4256968Y-5792172D01*
X4256968Y-5792172D02*
X4276015Y-5792172D01*
X4418873Y-5782648D02*
X4399825Y-5792172D01*
X4399825Y-5792172D02*
X4361730Y-5792172D01*
X4361730Y-5792172D02*
X4342682Y-5782648D01*
X4342682Y-5782648D02*
X4333158Y-5763600D01*
X4333158Y-5763600D02*
X4333158Y-5687410D01*
X4333158Y-5687410D02*
X4342682Y-5668362D01*
X4342682Y-5668362D02*
X4361730Y-5658838D01*
X4361730Y-5658838D02*
X4399825Y-5658838D01*
X4399825Y-5658838D02*
X4418873Y-5668362D01*
X4418873Y-5668362D02*
X4428396Y-5687410D01*
X4428396Y-5687410D02*
X4428396Y-5706458D01*
X4428396Y-5706458D02*
X4333158Y-5725505D01*
X4599825Y-5792172D02*
X4599825Y-5592172D01*
X4599825Y-5782648D02*
X4580777Y-5792172D01*
X4580777Y-5792172D02*
X4542682Y-5792172D01*
X4542682Y-5792172D02*
X4523635Y-5782648D01*
X4523635Y-5782648D02*
X4514111Y-5773124D01*
X4514111Y-5773124D02*
X4504587Y-5754077D01*
X4504587Y-5754077D02*
X4504587Y-5696934D01*
X4504587Y-5696934D02*
X4514111Y-5677886D01*
X4514111Y-5677886D02*
X4523635Y-5668362D01*
X4523635Y-5668362D02*
X4542682Y-5658838D01*
X4542682Y-5658838D02*
X4580777Y-5658838D01*
X4580777Y-5658838D02*
X4599825Y-5668362D01*
X4676016Y-5868362D02*
X4685539Y-5858838D01*
X4685539Y-5858838D02*
X4704587Y-5830267D01*
X4704587Y-5830267D02*
X4714111Y-5811219D01*
X4714111Y-5811219D02*
X4723635Y-5782648D01*
X4723635Y-5782648D02*
X4733158Y-5735029D01*
X4733158Y-5735029D02*
X4733158Y-5696934D01*
X4733158Y-5696934D02*
X4723635Y-5649315D01*
X4723635Y-5649315D02*
X4714111Y-5620743D01*
X4714111Y-5620743D02*
X4704587Y-5601696D01*
X4704587Y-5601696D02*
X4685539Y-5573124D01*
X4685539Y-5573124D02*
X4676016Y-5563600D01*
M02*
