%TF.GenerationSoftware,KiCad,Pcbnew,(6.0.9)*%
%TF.CreationDate,2023-05-29T15:26:19+10:00*%
%TF.ProjectId,SumoNyxPCB2.2,53756d6f-4e79-4785-9043-42322e322e6b,rev?*%
%TF.SameCoordinates,Original*%
%TF.FileFunction,Legend,Bot*%
%TF.FilePolarity,Positive*%
%FSLAX46Y46*%
G04 Gerber Fmt 4.6, Leading zero omitted, Abs format (unit mm)*
G04 Created by KiCad (PCBNEW (6.0.9)) date 2023-05-29 15:26:19*
%MOMM*%
%LPD*%
G01*
G04 APERTURE LIST*
%ADD10C,0.100000*%
%ADD11C,0.150000*%
%ADD12C,0.120000*%
G04 APERTURE END LIST*
D10*
X181130952Y-68285714D02*
X180750000Y-68285714D01*
X180940476Y-68476190D02*
X180940476Y-68095238D01*
X180559523Y-67976190D02*
X180250000Y-67976190D01*
X180416666Y-68166666D01*
X180345238Y-68166666D01*
X180297619Y-68190476D01*
X180273809Y-68214285D01*
X180250000Y-68261904D01*
X180250000Y-68380952D01*
X180273809Y-68428571D01*
X180297619Y-68452380D01*
X180345238Y-68476190D01*
X180488095Y-68476190D01*
X180535714Y-68452380D01*
X180559523Y-68428571D01*
X180107142Y-67976190D02*
X179940476Y-68476190D01*
X179773809Y-67976190D01*
X179654761Y-67976190D02*
X179345238Y-67976190D01*
X179511904Y-68166666D01*
X179440476Y-68166666D01*
X179392857Y-68190476D01*
X179369047Y-68214285D01*
X179345238Y-68261904D01*
X179345238Y-68380952D01*
X179369047Y-68428571D01*
X179392857Y-68452380D01*
X179440476Y-68476190D01*
X179583333Y-68476190D01*
X179630952Y-68452380D01*
X179654761Y-68428571D01*
X181011904Y-79476190D02*
X181011904Y-78976190D01*
X180488095Y-79476190D02*
X180654761Y-79238095D01*
X180773809Y-79476190D02*
X180773809Y-78976190D01*
X180583333Y-78976190D01*
X180535714Y-79000000D01*
X180511904Y-79023809D01*
X180488095Y-79071428D01*
X180488095Y-79142857D01*
X180511904Y-79190476D01*
X180535714Y-79214285D01*
X180583333Y-79238095D01*
X180773809Y-79238095D01*
X179940476Y-79523809D02*
X179988095Y-79500000D01*
X180035714Y-79452380D01*
X180107142Y-79380952D01*
X180154761Y-79357142D01*
X180202380Y-79357142D01*
X180178571Y-79476190D02*
X180226190Y-79452380D01*
X180273809Y-79404761D01*
X180297619Y-79309523D01*
X180297619Y-79142857D01*
X180273809Y-79047619D01*
X180226190Y-79000000D01*
X180178571Y-78976190D01*
X180083333Y-78976190D01*
X180035714Y-79000000D01*
X179988095Y-79047619D01*
X179964285Y-79142857D01*
X179964285Y-79309523D01*
X179988095Y-79404761D01*
X180035714Y-79452380D01*
X180083333Y-79476190D01*
X180178571Y-79476190D01*
D11*
X211135714Y-87892857D02*
X211802380Y-87892857D01*
X210754761Y-88130952D02*
X211469047Y-88369047D01*
X211469047Y-87750000D01*
X210802380Y-87178571D02*
X210802380Y-87083333D01*
X210850000Y-86988095D01*
X210897619Y-86940476D01*
X210992857Y-86892857D01*
X211183333Y-86845238D01*
X211421428Y-86845238D01*
X211611904Y-86892857D01*
X211707142Y-86940476D01*
X211754761Y-86988095D01*
X211802380Y-87083333D01*
X211802380Y-87178571D01*
X211754761Y-87273809D01*
X211707142Y-87321428D01*
X211611904Y-87369047D01*
X211421428Y-87416666D01*
X211183333Y-87416666D01*
X210992857Y-87369047D01*
X210897619Y-87321428D01*
X210850000Y-87273809D01*
X210802380Y-87178571D01*
X211707142Y-86416666D02*
X211754761Y-86369047D01*
X211802380Y-86416666D01*
X211754761Y-86464285D01*
X211707142Y-86416666D01*
X211802380Y-86416666D01*
X210802380Y-85750000D02*
X210802380Y-85654761D01*
X210850000Y-85559523D01*
X210897619Y-85511904D01*
X210992857Y-85464285D01*
X211183333Y-85416666D01*
X211421428Y-85416666D01*
X211611904Y-85464285D01*
X211707142Y-85511904D01*
X211754761Y-85559523D01*
X211802380Y-85654761D01*
X211802380Y-85750000D01*
X211754761Y-85845238D01*
X211707142Y-85892857D01*
X211611904Y-85940476D01*
X211421428Y-85988095D01*
X211183333Y-85988095D01*
X210992857Y-85940476D01*
X210897619Y-85892857D01*
X210850000Y-85845238D01*
X210802380Y-85750000D01*
X210802380Y-84797619D02*
X210802380Y-84702380D01*
X210850000Y-84607142D01*
X210897619Y-84559523D01*
X210992857Y-84511904D01*
X211183333Y-84464285D01*
X211421428Y-84464285D01*
X211611904Y-84511904D01*
X211707142Y-84559523D01*
X211754761Y-84607142D01*
X211802380Y-84702380D01*
X211802380Y-84797619D01*
X211754761Y-84892857D01*
X211707142Y-84940476D01*
X211611904Y-84988095D01*
X211421428Y-85035714D01*
X211183333Y-85035714D01*
X210992857Y-84988095D01*
X210897619Y-84940476D01*
X210850000Y-84892857D01*
X210802380Y-84797619D01*
X210802380Y-83845238D02*
X210802380Y-83750000D01*
X210850000Y-83654761D01*
X210897619Y-83607142D01*
X210992857Y-83559523D01*
X211183333Y-83511904D01*
X211421428Y-83511904D01*
X211611904Y-83559523D01*
X211707142Y-83607142D01*
X211754761Y-83654761D01*
X211802380Y-83750000D01*
X211802380Y-83845238D01*
X211754761Y-83940476D01*
X211707142Y-83988095D01*
X211611904Y-84035714D01*
X211421428Y-84083333D01*
X211183333Y-84083333D01*
X210992857Y-84035714D01*
X210897619Y-83988095D01*
X210850000Y-83940476D01*
X210802380Y-83845238D01*
X210802380Y-82892857D02*
X210802380Y-82797619D01*
X210850000Y-82702380D01*
X210897619Y-82654761D01*
X210992857Y-82607142D01*
X211183333Y-82559523D01*
X211421428Y-82559523D01*
X211611904Y-82607142D01*
X211707142Y-82654761D01*
X211754761Y-82702380D01*
X211802380Y-82797619D01*
X211802380Y-82892857D01*
X211754761Y-82988095D01*
X211707142Y-83035714D01*
X211611904Y-83083333D01*
X211421428Y-83130952D01*
X211183333Y-83130952D01*
X210992857Y-83083333D01*
X210897619Y-83035714D01*
X210850000Y-82988095D01*
X210802380Y-82892857D01*
X211802380Y-81369047D02*
X211135714Y-81369047D01*
X211230952Y-81369047D02*
X211183333Y-81321428D01*
X211135714Y-81226190D01*
X211135714Y-81083333D01*
X211183333Y-80988095D01*
X211278571Y-80940476D01*
X211802380Y-80940476D01*
X211278571Y-80940476D02*
X211183333Y-80892857D01*
X211135714Y-80797619D01*
X211135714Y-80654761D01*
X211183333Y-80559523D01*
X211278571Y-80511904D01*
X211802380Y-80511904D01*
X211802380Y-80035714D02*
X211135714Y-80035714D01*
X211230952Y-80035714D02*
X211183333Y-79988095D01*
X211135714Y-79892857D01*
X211135714Y-79750000D01*
X211183333Y-79654761D01*
X211278571Y-79607142D01*
X211802380Y-79607142D01*
X211278571Y-79607142D02*
X211183333Y-79559523D01*
X211135714Y-79464285D01*
X211135714Y-79321428D01*
X211183333Y-79226190D01*
X211278571Y-79178571D01*
X211802380Y-79178571D01*
X207750000Y-63750000D02*
X213086420Y-63750000D01*
X207750000Y-103750000D02*
X213086420Y-103750000D01*
X212500000Y-63750000D02*
X212500000Y-103750000D01*
X212500000Y-63750000D02*
X212500000Y-103750000D01*
X212500000Y-63750000D02*
X211913579Y-64876504D01*
X212500000Y-63750000D02*
X213086421Y-64876504D01*
X212500000Y-103750000D02*
X213086421Y-102623496D01*
X212500000Y-103750000D02*
X211913579Y-102623496D01*
X178654761Y-61052381D02*
X178178571Y-61052381D01*
X178130952Y-61528572D01*
X178178571Y-61480953D01*
X178273809Y-61433334D01*
X178511904Y-61433334D01*
X178607142Y-61480953D01*
X178654761Y-61528572D01*
X178702380Y-61623810D01*
X178702380Y-61861905D01*
X178654761Y-61957143D01*
X178607142Y-62004762D01*
X178511904Y-62052381D01*
X178273809Y-62052381D01*
X178178571Y-62004762D01*
X178130952Y-61957143D01*
X179559523Y-61385715D02*
X179559523Y-62052381D01*
X179321428Y-61004762D02*
X179083333Y-61719048D01*
X179702380Y-61719048D01*
X180083333Y-61957143D02*
X180130952Y-62004762D01*
X180083333Y-62052381D01*
X180035714Y-62004762D01*
X180083333Y-61957143D01*
X180083333Y-62052381D01*
X180750000Y-61052381D02*
X180845238Y-61052381D01*
X180940476Y-61100001D01*
X180988095Y-61147620D01*
X181035714Y-61242858D01*
X181083333Y-61433334D01*
X181083333Y-61671429D01*
X181035714Y-61861905D01*
X180988095Y-61957143D01*
X180940476Y-62004762D01*
X180845238Y-62052381D01*
X180750000Y-62052381D01*
X180654761Y-62004762D01*
X180607142Y-61957143D01*
X180559523Y-61861905D01*
X180511904Y-61671429D01*
X180511904Y-61433334D01*
X180559523Y-61242858D01*
X180607142Y-61147620D01*
X180654761Y-61100001D01*
X180750000Y-61052381D01*
X181702380Y-61052381D02*
X181797619Y-61052381D01*
X181892857Y-61100001D01*
X181940476Y-61147620D01*
X181988095Y-61242858D01*
X182035714Y-61433334D01*
X182035714Y-61671429D01*
X181988095Y-61861905D01*
X181940476Y-61957143D01*
X181892857Y-62004762D01*
X181797619Y-62052381D01*
X181702380Y-62052381D01*
X181607142Y-62004762D01*
X181559523Y-61957143D01*
X181511904Y-61861905D01*
X181464285Y-61671429D01*
X181464285Y-61433334D01*
X181511904Y-61242858D01*
X181559523Y-61147620D01*
X181607142Y-61100001D01*
X181702380Y-61052381D01*
X182654761Y-61052381D02*
X182750000Y-61052381D01*
X182845238Y-61100001D01*
X182892857Y-61147620D01*
X182940476Y-61242858D01*
X182988095Y-61433334D01*
X182988095Y-61671429D01*
X182940476Y-61861905D01*
X182892857Y-61957143D01*
X182845238Y-62004762D01*
X182750000Y-62052381D01*
X182654761Y-62052381D01*
X182559523Y-62004762D01*
X182511904Y-61957143D01*
X182464285Y-61861905D01*
X182416666Y-61671429D01*
X182416666Y-61433334D01*
X182464285Y-61242858D01*
X182511904Y-61147620D01*
X182559523Y-61100001D01*
X182654761Y-61052381D01*
X183607142Y-61052381D02*
X183702380Y-61052381D01*
X183797619Y-61100001D01*
X183845238Y-61147620D01*
X183892857Y-61242858D01*
X183940476Y-61433334D01*
X183940476Y-61671429D01*
X183892857Y-61861905D01*
X183845238Y-61957143D01*
X183797619Y-62004762D01*
X183702380Y-62052381D01*
X183607142Y-62052381D01*
X183511904Y-62004762D01*
X183464285Y-61957143D01*
X183416666Y-61861905D01*
X183369047Y-61671429D01*
X183369047Y-61433334D01*
X183416666Y-61242858D01*
X183464285Y-61147620D01*
X183511904Y-61100001D01*
X183607142Y-61052381D01*
X185130952Y-62052381D02*
X185130952Y-61385715D01*
X185130952Y-61480953D02*
X185178571Y-61433334D01*
X185273809Y-61385715D01*
X185416666Y-61385715D01*
X185511904Y-61433334D01*
X185559523Y-61528572D01*
X185559523Y-62052381D01*
X185559523Y-61528572D02*
X185607142Y-61433334D01*
X185702380Y-61385715D01*
X185845238Y-61385715D01*
X185940476Y-61433334D01*
X185988095Y-61528572D01*
X185988095Y-62052381D01*
X186464285Y-62052381D02*
X186464285Y-61385715D01*
X186464285Y-61480953D02*
X186511904Y-61433334D01*
X186607142Y-61385715D01*
X186750000Y-61385715D01*
X186845238Y-61433334D01*
X186892857Y-61528572D01*
X186892857Y-62052381D01*
X186892857Y-61528572D02*
X186940476Y-61433334D01*
X187035714Y-61385715D01*
X187178571Y-61385715D01*
X187273809Y-61433334D01*
X187321428Y-61528572D01*
X187321428Y-62052381D01*
X209750000Y-65750000D02*
X209750000Y-62163581D01*
X155750000Y-65750000D02*
X155750000Y-62163581D01*
X209750000Y-62750001D02*
X155750000Y-62750001D01*
X209750000Y-62750001D02*
X155750000Y-62750001D01*
X209750000Y-62750001D02*
X208623496Y-62163580D01*
X209750000Y-62750001D02*
X208623496Y-63336422D01*
X155750000Y-62750001D02*
X156876504Y-63336422D01*
X155750000Y-62750001D02*
X156876504Y-62163580D01*
D10*
%TO.C,A1*%
X201357142Y-79583333D02*
X201119047Y-79583333D01*
X201404761Y-79726190D02*
X201238095Y-79226190D01*
X201071428Y-79726190D01*
X200642857Y-79726190D02*
X200928571Y-79726190D01*
X200785714Y-79726190D02*
X200785714Y-79226190D01*
X200833333Y-79297619D01*
X200880952Y-79345238D01*
X200928571Y-79369047D01*
D11*
X162287619Y-90501904D02*
X161478095Y-90501904D01*
X161382857Y-90454285D01*
X161335238Y-90406666D01*
X161287619Y-90311428D01*
X161287619Y-90120952D01*
X161335238Y-90025714D01*
X161382857Y-89978095D01*
X161478095Y-89930476D01*
X162287619Y-89930476D01*
X161335238Y-89501904D02*
X161287619Y-89359047D01*
X161287619Y-89120952D01*
X161335238Y-89025714D01*
X161382857Y-88978095D01*
X161478095Y-88930476D01*
X161573333Y-88930476D01*
X161668571Y-88978095D01*
X161716190Y-89025714D01*
X161763809Y-89120952D01*
X161811428Y-89311428D01*
X161859047Y-89406666D01*
X161906666Y-89454285D01*
X162001904Y-89501904D01*
X162097142Y-89501904D01*
X162192380Y-89454285D01*
X162240000Y-89406666D01*
X162287619Y-89311428D01*
X162287619Y-89073333D01*
X162240000Y-88930476D01*
X161811428Y-88168571D02*
X161763809Y-88025714D01*
X161716190Y-87978095D01*
X161620952Y-87930476D01*
X161478095Y-87930476D01*
X161382857Y-87978095D01*
X161335238Y-88025714D01*
X161287619Y-88120952D01*
X161287619Y-88501904D01*
X162287619Y-88501904D01*
X162287619Y-88168571D01*
X162240000Y-88073333D01*
X162192380Y-88025714D01*
X162097142Y-87978095D01*
X162001904Y-87978095D01*
X161906666Y-88025714D01*
X161859047Y-88073333D01*
X161811428Y-88168571D01*
X161811428Y-88501904D01*
D10*
%TO.C,U2*%
X161630952Y-66726190D02*
X161630952Y-67130952D01*
X161607142Y-67178571D01*
X161583333Y-67202380D01*
X161535714Y-67226190D01*
X161440476Y-67226190D01*
X161392857Y-67202380D01*
X161369047Y-67178571D01*
X161345238Y-67130952D01*
X161345238Y-66726190D01*
X161130952Y-66773809D02*
X161107142Y-66750000D01*
X161059523Y-66726190D01*
X160940476Y-66726190D01*
X160892857Y-66750000D01*
X160869047Y-66773809D01*
X160845238Y-66821428D01*
X160845238Y-66869047D01*
X160869047Y-66940476D01*
X161154761Y-67226190D01*
X160845238Y-67226190D01*
D12*
%TO.C,A1*%
X201240000Y-98260000D02*
X198570000Y-98260000D01*
X201240000Y-80220000D02*
X201240000Y-98260000D01*
X196030000Y-95590000D02*
X196030000Y-98260000D01*
X198570000Y-82890000D02*
X160470000Y-82890000D01*
X198570000Y-95590000D02*
X198570000Y-98260000D01*
X196030000Y-95590000D02*
X198570000Y-95590000D01*
X157800000Y-80220000D02*
X157800000Y-85300000D01*
X157800000Y-80220000D02*
X201240000Y-80220000D01*
X196030000Y-98260000D02*
X157800000Y-98260000D01*
X160470000Y-95590000D02*
X160470000Y-98260000D01*
X155260000Y-85300000D02*
X155260000Y-93180000D01*
X198570000Y-82890000D02*
X198570000Y-80220000D01*
X165680000Y-85300000D02*
X155260000Y-85300000D01*
X155260000Y-93180000D02*
X165680000Y-93180000D01*
X196030000Y-95590000D02*
X160470000Y-95590000D01*
X165680000Y-93180000D02*
X165680000Y-85300000D01*
X160470000Y-82890000D02*
X160470000Y-80220000D01*
X157800000Y-98260000D02*
X157800000Y-93180000D01*
%TO.C,U2*%
X179000000Y-67750000D02*
X161000000Y-67750000D01*
X161000000Y-67750000D02*
X161000000Y-79750000D01*
X161000000Y-79750000D02*
X179000000Y-79750000D01*
X179000000Y-79750000D02*
X179000000Y-67750000D01*
%TD*%
M02*
