%TF.GenerationSoftware,KiCad,Pcbnew,(6.0.9)*%
%TF.CreationDate,2023-07-09T09:41:20+10:00*%
%TF.ProjectId,Line 2.4,4c696e65-2032-42e3-942e-6b696361645f,rev?*%
%TF.SameCoordinates,Original*%
%TF.FileFunction,Profile,NP*%
%FSLAX46Y46*%
G04 Gerber Fmt 4.6, Leading zero omitted, Abs format (unit mm)*
G04 Created by KiCad (PCBNEW (6.0.9)) date 2023-07-09 09:41:20*
%MOMM*%
%LPD*%
G01*
G04 APERTURE LIST*
%TA.AperFunction,Profile*%
%ADD10C,0.100000*%
%TD*%
G04 APERTURE END LIST*
D10*
X296987067Y-55586526D02*
X339413474Y-98012933D01*
X167586526Y-184987067D02*
X177486021Y-175087572D01*
X222835220Y-173814780D02*
G75*
G03*
X222835220Y-173814780I-1650000J0D01*
G01*
X304750000Y-227669528D02*
G75*
G03*
X304750000Y-227669528I-1500000J0D01*
G01*
X205250000Y-55330472D02*
G75*
G03*
X205250000Y-55330472I-1500000J0D01*
G01*
X287464780Y-109185220D02*
G75*
G03*
X287464780Y-109185220I-1650000J0D01*
G01*
X282049551Y-183876202D02*
G75*
G03*
X282049551Y-183876202I-1700000J0D01*
G01*
X228350449Y-99123798D02*
G75*
G03*
X228350449Y-99123798I-1700000J0D01*
G01*
X311046587Y-181819936D02*
G75*
G03*
X311046587Y-181819936I-1700001J0D01*
G01*
X300935164Y-95714836D02*
G75*
G03*
X300935164Y-95714836I-1650000J0D01*
G01*
X277559423Y-103613926D02*
G75*
G03*
X277559423Y-103613926I-1700000J0D01*
G01*
X223860321Y-94633670D02*
G75*
G03*
X223860321Y-94633670I-1700000J0D01*
G01*
X306556458Y-105670193D02*
G75*
G03*
X306556458Y-105670193I-1700000J0D01*
G01*
X177486021Y-175087572D02*
X219912428Y-217513979D01*
X209364836Y-95714836D02*
G75*
G03*
X209364836Y-95714836I-1650000J0D01*
G01*
X221804055Y-159369295D02*
G75*
G03*
X221804055Y-159369295I-1700001J0D01*
G01*
X221804053Y-123630705D02*
G75*
G03*
X221804053Y-123630705I-1699999J0D01*
G01*
X286539679Y-188366330D02*
G75*
G03*
X286539679Y-188366330I-1700000J0D01*
G01*
X273069294Y-108104054D02*
G75*
G03*
X273069294Y-108104054I-1699999J0D01*
G01*
X231815477Y-164834523D02*
G75*
G03*
X231815477Y-164834523I-1650000J0D01*
G01*
X302066330Y-110160321D02*
G75*
G03*
X302066330Y-110160321I-1700000J0D01*
G01*
X210012933Y-227413474D02*
X167586526Y-184987067D01*
X219912428Y-217513979D02*
X210012933Y-227413474D01*
X204874708Y-191775292D02*
G75*
G03*
X204874708Y-191775292I-1650000J0D01*
G01*
X304750000Y-55330472D02*
G75*
G03*
X304750000Y-55330472I-1500000J0D01*
G01*
X282049551Y-99123798D02*
G75*
G03*
X282049551Y-99123798I-1700000J0D01*
G01*
X277559424Y-179386074D02*
G75*
G03*
X277559424Y-179386074I-1700001J0D01*
G01*
X209364836Y-187285164D02*
G75*
G03*
X209364836Y-187285164I-1650000J0D01*
G01*
X306556458Y-177329807D02*
G75*
G03*
X306556458Y-177329807I-1700000J0D01*
G01*
X295519937Y-85653414D02*
G75*
G03*
X295519937Y-85653414I-1700001J0D01*
G01*
X211882660Y-240617340D02*
X233500000Y-219000000D01*
X237330706Y-108104054D02*
G75*
G03*
X237330706Y-108104054I-1700001J0D01*
G01*
X218345092Y-104695092D02*
G75*
G03*
X218345092Y-104695092I-1650000J0D01*
G01*
X288595947Y-123630705D02*
G75*
G03*
X288595947Y-123630705I-1700001J0D01*
G01*
X291029807Y-192856458D02*
G75*
G03*
X291029807Y-192856458I-1700000J0D01*
G01*
X273069296Y-174895946D02*
G75*
G03*
X273069296Y-174895946I-1700001J0D01*
G01*
X295519935Y-197346586D02*
G75*
G03*
X295519935Y-197346586I-1699999J0D01*
G01*
X305425292Y-91224708D02*
G75*
G03*
X305425292Y-91224708I-1650000J0D01*
G01*
X278484523Y-118165477D02*
G75*
G03*
X278484523Y-118165477I-1650000J0D01*
G01*
X155500000Y-141500000D02*
G75*
G03*
X155500000Y-141500000I-1500000J0D01*
G01*
X214880065Y-197346586D02*
G75*
G03*
X214880065Y-197346586I-1700001J0D01*
G01*
X273500000Y-219000000D02*
X295117340Y-240617340D01*
X212823798Y-168349551D02*
G75*
G03*
X212823798Y-168349551I-1700000J0D01*
G01*
X297576202Y-114650449D02*
G75*
G03*
X297576202Y-114650449I-1700000J0D01*
G01*
X210012933Y-55586526D02*
X219912428Y-65486021D01*
X213854964Y-100204964D02*
G75*
G03*
X213854964Y-100204964I-1650000J0D01*
G01*
X286539679Y-94633670D02*
G75*
G03*
X286539679Y-94633670I-1700000J0D01*
G01*
X223860321Y-188366330D02*
G75*
G03*
X223860321Y-188366330I-1700000J0D01*
G01*
X339413474Y-184987067D02*
X296987067Y-227413474D01*
X278484523Y-164834523D02*
G75*
G03*
X278484523Y-164834523I-1650000J0D01*
G01*
X293086074Y-163859423D02*
G75*
G03*
X293086074Y-163859423I-1700000J0D01*
G01*
X222835220Y-109185220D02*
G75*
G03*
X222835220Y-109185220I-1650000J0D01*
G01*
X329513979Y-107912428D02*
X287087572Y-65486021D01*
X297576202Y-168349551D02*
G75*
G03*
X297576202Y-168349551I-1700000J0D01*
G01*
X218345092Y-178304908D02*
G75*
G03*
X218345092Y-178304908I-1650000J0D01*
G01*
X217313927Y-163859423D02*
G75*
G03*
X217313927Y-163859423I-1700001J0D01*
G01*
X217313926Y-119140577D02*
G75*
G03*
X217313926Y-119140577I-1700000J0D01*
G01*
X208333670Y-110160321D02*
G75*
G03*
X208333670Y-110160321I-1700000J0D01*
G01*
X203843542Y-177329807D02*
G75*
G03*
X203843542Y-177329807I-1700000J0D01*
G01*
X339413474Y-98012933D02*
X329513979Y-107912428D01*
X233500000Y-219000000D02*
X273500000Y-219000000D01*
X341169528Y-91750000D02*
G75*
G03*
X341169528Y-91750000I-1500000J0D01*
G01*
X214880063Y-85653414D02*
G75*
G03*
X214880063Y-85653414I-1699999J0D01*
G01*
X227325348Y-169324652D02*
G75*
G03*
X227325348Y-169324652I-1650000J0D01*
G01*
X341169528Y-191250000D02*
G75*
G03*
X341169528Y-191250000I-1500000J0D01*
G01*
X296445036Y-182795036D02*
G75*
G03*
X296445036Y-182795036I-1650000J0D01*
G01*
X287464780Y-173814780D02*
G75*
G03*
X287464780Y-173814780I-1650000J0D01*
G01*
X199353413Y-181819936D02*
G75*
G03*
X199353413Y-181819936I-1699999J0D01*
G01*
X228350449Y-183876202D02*
G75*
G03*
X228350449Y-183876202I-1700000J0D01*
G01*
X168830472Y-91750000D02*
G75*
G03*
X168830472Y-91750000I-1500000J0D01*
G01*
X212823798Y-114650449D02*
G75*
G03*
X212823798Y-114650449I-1700000J0D01*
G01*
X282974652Y-113675348D02*
G75*
G03*
X282974652Y-113675348I-1650000J0D01*
G01*
X291954908Y-104695092D02*
G75*
G03*
X291954908Y-104695092I-1650000J0D01*
G01*
X199353415Y-101180064D02*
G75*
G03*
X199353415Y-101180064I-1700001J0D01*
G01*
X219370193Y-90143542D02*
G75*
G03*
X219370193Y-90143542I-1700000J0D01*
G01*
X227325348Y-113675348D02*
G75*
G03*
X227325348Y-113675348I-1650000J0D01*
G01*
X232840578Y-103613926D02*
G75*
G03*
X232840578Y-103613926I-1700001J0D01*
G01*
X208333670Y-172839679D02*
G75*
G03*
X208333670Y-172839679I-1700000J0D01*
G01*
X305425292Y-191775292D02*
G75*
G03*
X305425292Y-191775292I-1650000J0D01*
G01*
X311046585Y-101180064D02*
G75*
G03*
X311046585Y-101180064I-1699999J0D01*
G01*
X205250000Y-227669528D02*
G75*
G03*
X205250000Y-227669528I-1500000J0D01*
G01*
X354500000Y-141500000D02*
G75*
G03*
X354500000Y-141500000I-1500000J0D01*
G01*
X291029807Y-90143542D02*
G75*
G03*
X291029807Y-90143542I-1700000J0D01*
G01*
X213854964Y-182795036D02*
G75*
G03*
X213854964Y-182795036I-1650000J0D01*
G01*
X287087572Y-217513979D02*
X329513979Y-175087572D01*
X232840577Y-179386074D02*
G75*
G03*
X232840577Y-179386074I-1700000J0D01*
G01*
X231815477Y-118165477D02*
G75*
G03*
X231815477Y-118165477I-1650000J0D01*
G01*
X302066330Y-172839679D02*
G75*
G03*
X302066330Y-172839679I-1700000J0D01*
G01*
X167586526Y-98012933D02*
X210012933Y-55586526D01*
X204874708Y-91224708D02*
G75*
G03*
X204874708Y-91224708I-1650000J0D01*
G01*
X293086075Y-119140577D02*
G75*
G03*
X293086075Y-119140577I-1700001J0D01*
G01*
X282974652Y-169324652D02*
G75*
G03*
X282974652Y-169324652I-1650000J0D01*
G01*
X300935164Y-187285164D02*
G75*
G03*
X300935164Y-187285164I-1650000J0D01*
G01*
X296987067Y-227413474D02*
X287087572Y-217513979D01*
X287087572Y-65486021D02*
X296987067Y-55586526D01*
X177486021Y-107912428D02*
X167586526Y-98012933D01*
X329513979Y-175087572D02*
X339413474Y-184987067D01*
X219912428Y-65486021D02*
X177486021Y-107912428D01*
X295117340Y-240617340D02*
G75*
G03*
X211882660Y-240617340I-41617340J99117340D01*
G01*
X296445036Y-100204964D02*
G75*
G03*
X296445036Y-100204964I-1650000J0D01*
G01*
X291954908Y-178304908D02*
G75*
G03*
X291954908Y-178304908I-1650000J0D01*
G01*
X237330704Y-174895946D02*
G75*
G03*
X237330704Y-174895946I-1699999J0D01*
G01*
X219370193Y-192856458D02*
G75*
G03*
X219370193Y-192856458I-1700000J0D01*
G01*
X288595945Y-159369295D02*
G75*
G03*
X288595945Y-159369295I-1699999J0D01*
G01*
X203843542Y-105670193D02*
G75*
G03*
X203843542Y-105670193I-1700000J0D01*
G01*
X168830472Y-191250000D02*
G75*
G03*
X168830472Y-191250000I-1500000J0D01*
G01*
M02*
