%TF.GenerationSoftware,KiCad,Pcbnew,(6.0.9)*%
%TF.CreationDate,2023-04-13T12:37:26+10:00*%
%TF.ProjectId,Dpadright,44706164-7269-4676-9874-2e6b69636164,rev?*%
%TF.SameCoordinates,PX61094f0PY518a060*%
%TF.FileFunction,Drillmap*%
%TF.FilePolarity,Positive*%
%FSLAX45Y45*%
G04 Gerber Fmt 4.5, Leading zero omitted, Abs format (unit mm)*
G04 Created by KiCad (PCBNEW (6.0.9)) date 2023-04-13 12:37:26*
%MOMM*%
%LPD*%
G01*
G04 APERTURE LIST*
%ADD10C,0.100000*%
%ADD11C,0.200000*%
G04 APERTURE END LIST*
D10*
X3700000Y0D02*
G75*
G03*
X3700000Y0I-100000J0D01*
G01*
X2050000Y1650000D02*
G75*
G03*
X2050000Y1650000I-100000J0D01*
G01*
X1950000Y-1950000D02*
X3900000Y0D01*
X2050000Y-1650000D02*
G75*
G03*
X2050000Y-1650000I-100000J0D01*
G01*
X400000Y0D02*
G75*
G03*
X400000Y0I-100000J0D01*
G01*
X1950000Y1950000D02*
X0Y0D01*
X0Y0D02*
X1950000Y-1950000D01*
X3900000Y0D02*
X1950000Y1950000D01*
D11*
X252619Y-2265476D02*
X252619Y-2065476D01*
X300238Y-2065476D01*
X328810Y-2075000D01*
X347857Y-2094048D01*
X357381Y-2113095D01*
X366905Y-2151190D01*
X366905Y-2179762D01*
X357381Y-2217857D01*
X347857Y-2236905D01*
X328810Y-2255952D01*
X300238Y-2265476D01*
X252619Y-2265476D01*
X452619Y-2265476D02*
X452619Y-2132143D01*
X452619Y-2170238D02*
X462143Y-2151190D01*
X471667Y-2141667D01*
X490714Y-2132143D01*
X509762Y-2132143D01*
X576429Y-2265476D02*
X576429Y-2132143D01*
X576429Y-2065476D02*
X566905Y-2075000D01*
X576429Y-2084524D01*
X585952Y-2075000D01*
X576429Y-2065476D01*
X576429Y-2084524D01*
X700238Y-2265476D02*
X681190Y-2255952D01*
X671667Y-2236905D01*
X671667Y-2065476D01*
X805000Y-2265476D02*
X785952Y-2255952D01*
X776428Y-2236905D01*
X776428Y-2065476D01*
X1033571Y-2265476D02*
X1033571Y-2065476D01*
X1100238Y-2208333D01*
X1166905Y-2065476D01*
X1166905Y-2265476D01*
X1347857Y-2265476D02*
X1347857Y-2160714D01*
X1338333Y-2141667D01*
X1319286Y-2132143D01*
X1281190Y-2132143D01*
X1262143Y-2141667D01*
X1347857Y-2255952D02*
X1328810Y-2265476D01*
X1281190Y-2265476D01*
X1262143Y-2255952D01*
X1252619Y-2236905D01*
X1252619Y-2217857D01*
X1262143Y-2198810D01*
X1281190Y-2189286D01*
X1328810Y-2189286D01*
X1347857Y-2179762D01*
X1443095Y-2132143D02*
X1443095Y-2332143D01*
X1443095Y-2141667D02*
X1462143Y-2132143D01*
X1500238Y-2132143D01*
X1519286Y-2141667D01*
X1528809Y-2151190D01*
X1538333Y-2170238D01*
X1538333Y-2227381D01*
X1528809Y-2246429D01*
X1519286Y-2255952D01*
X1500238Y-2265476D01*
X1462143Y-2265476D01*
X1443095Y-2255952D01*
X1624048Y-2246429D02*
X1633571Y-2255952D01*
X1624048Y-2265476D01*
X1614524Y-2255952D01*
X1624048Y-2246429D01*
X1624048Y-2265476D01*
X1624048Y-2141667D02*
X1633571Y-2151190D01*
X1624048Y-2160714D01*
X1614524Y-2151190D01*
X1624048Y-2141667D01*
X1624048Y-2160714D01*
M02*
