%TF.GenerationSoftware,KiCad,Pcbnew,(6.0.9)*%
%TF.CreationDate,2023-04-13T12:37:24+10:00*%
%TF.ProjectId,Dpadright,44706164-7269-4676-9874-2e6b69636164,rev?*%
%TF.SameCoordinates,PX61094f0PY518a060*%
%TF.FileFunction,Legend,Top*%
%TF.FilePolarity,Positive*%
%FSLAX46Y46*%
G04 Gerber Fmt 4.6, Leading zero omitted, Abs format (unit mm)*
G04 Created by KiCad (PCBNEW (6.0.9)) date 2023-04-13 12:37:24*
%MOMM*%
%LPD*%
G01*
G04 APERTURE LIST*
%ADD10C,0.150000*%
%ADD11C,0.100000*%
%ADD12C,0.120000*%
G04 APERTURE END LIST*
D10*
%TO.C,U9*%
X15574026Y-5651522D02*
X16146446Y-6223942D01*
X16247461Y-6257614D01*
X16314805Y-6257614D01*
X16415820Y-6223942D01*
X16550507Y-6089255D01*
X16584179Y-5988240D01*
X16584179Y-5920896D01*
X16550507Y-5819881D01*
X15978087Y-5247461D01*
X17055583Y-5584179D02*
X17190270Y-5449492D01*
X17223942Y-5348477D01*
X17223942Y-5281133D01*
X17190270Y-5112774D01*
X17089255Y-4944416D01*
X16819881Y-4675042D01*
X16718866Y-4641370D01*
X16651522Y-4641370D01*
X16550507Y-4675042D01*
X16415820Y-4809729D01*
X16382148Y-4910744D01*
X16382148Y-4978087D01*
X16415820Y-5079103D01*
X16584179Y-5247461D01*
X16685194Y-5281133D01*
X16752538Y-5281133D01*
X16853553Y-5247461D01*
X16988240Y-5112774D01*
X17021912Y-5011759D01*
X17021912Y-4944416D01*
X16988240Y-4843400D01*
%TO.C,R7*%
X14687732Y-10547969D02*
X14586717Y-11120389D01*
X15091793Y-10952030D02*
X14384687Y-11659137D01*
X14115312Y-11389763D01*
X14081641Y-11288748D01*
X14081641Y-11221404D01*
X14115312Y-11120389D01*
X14216328Y-11019374D01*
X14317343Y-10985702D01*
X14384687Y-10985702D01*
X14485702Y-11019374D01*
X14755076Y-11288748D01*
X13744923Y-11019374D02*
X13273519Y-10547969D01*
X14283671Y-10143908D01*
%TO.C,R17*%
X23274450Y-2134687D02*
X23173435Y-2707106D01*
X23678511Y-2538748D02*
X22971404Y-3245854D01*
X22702030Y-2976480D01*
X22668358Y-2875465D01*
X22668358Y-2808122D01*
X22702030Y-2707106D01*
X22803045Y-2606091D01*
X22904061Y-2572419D01*
X22971404Y-2572419D01*
X23072419Y-2606091D01*
X23341793Y-2875465D01*
X22601015Y-1461251D02*
X23005076Y-1865312D01*
X22803045Y-1663282D02*
X22095938Y-2370389D01*
X22264297Y-2336717D01*
X22398984Y-2336717D01*
X22500000Y-2370389D01*
X21658206Y-1932656D02*
X21186801Y-1461251D01*
X22196954Y-1057190D01*
%TO.C,R6*%
X6187732Y-2047969D02*
X6086717Y-2620389D01*
X6591793Y-2452030D02*
X5884687Y-3159137D01*
X5615312Y-2889763D01*
X5581641Y-2788748D01*
X5581641Y-2721404D01*
X5615312Y-2620389D01*
X5716328Y-2519374D01*
X5817343Y-2485702D01*
X5884687Y-2485702D01*
X5985702Y-2519374D01*
X6255076Y-2788748D01*
X4874534Y-2148984D02*
X5009221Y-2283671D01*
X5110236Y-2317343D01*
X5177580Y-2317343D01*
X5345938Y-2283671D01*
X5514297Y-2182656D01*
X5783671Y-1913282D01*
X5817343Y-1812267D01*
X5817343Y-1744923D01*
X5783671Y-1643908D01*
X5648984Y-1509221D01*
X5547969Y-1475549D01*
X5480625Y-1475549D01*
X5379610Y-1509221D01*
X5211251Y-1677580D01*
X5177580Y-1778595D01*
X5177580Y-1845938D01*
X5211251Y-1946954D01*
X5345938Y-2081641D01*
X5446954Y-2115312D01*
X5514297Y-2115312D01*
X5615312Y-2081641D01*
%TO.C,R18*%
X30774451Y5615313D02*
X30673436Y5042894D01*
X31178512Y5211252D02*
X30471405Y4504146D01*
X30202031Y4773520D01*
X30168359Y4874535D01*
X30168359Y4941878D01*
X30202031Y5042894D01*
X30303046Y5143909D01*
X30404062Y5177581D01*
X30471405Y5177581D01*
X30572420Y5143909D01*
X30841794Y4874535D01*
X30101016Y6288749D02*
X30505077Y5884688D01*
X30303046Y6086718D02*
X29595939Y5379611D01*
X29764298Y5413283D01*
X29898985Y5413283D01*
X30000001Y5379611D01*
X29292894Y6288749D02*
X29326565Y6187733D01*
X29326565Y6120390D01*
X29292894Y6019375D01*
X29259222Y5985703D01*
X29158207Y5952031D01*
X29090863Y5952031D01*
X28989848Y5985703D01*
X28855161Y6120390D01*
X28821489Y6221405D01*
X28821489Y6288749D01*
X28855161Y6389764D01*
X28888833Y6423436D01*
X28989848Y6457107D01*
X29057191Y6457107D01*
X29158207Y6423436D01*
X29292894Y6288749D01*
X29393909Y6255077D01*
X29461252Y6255077D01*
X29562268Y6288749D01*
X29696955Y6423436D01*
X29730626Y6524451D01*
X29730626Y6591794D01*
X29696955Y6692810D01*
X29562268Y6827497D01*
X29461252Y6861168D01*
X29393909Y6861168D01*
X29292894Y6827497D01*
X29158207Y6692810D01*
X29124535Y6591794D01*
X29124535Y6524451D01*
X29158207Y6423436D01*
%TO.C,U8*%
X7074026Y2848478D02*
X7646446Y2276058D01*
X7747461Y2242386D01*
X7814805Y2242386D01*
X7915820Y2276058D01*
X8050507Y2410745D01*
X8084179Y2511760D01*
X8084179Y2579104D01*
X8050507Y2680119D01*
X7478087Y3252539D01*
X8218866Y3387226D02*
X8117851Y3353554D01*
X8050507Y3353554D01*
X7949492Y3387226D01*
X7915820Y3420897D01*
X7882148Y3521913D01*
X7882148Y3589256D01*
X7915820Y3690271D01*
X8050507Y3824958D01*
X8151522Y3858630D01*
X8218866Y3858630D01*
X8319881Y3824958D01*
X8353553Y3791287D01*
X8387225Y3690271D01*
X8387225Y3622928D01*
X8353553Y3521913D01*
X8218866Y3387226D01*
X8185194Y3286210D01*
X8185194Y3218867D01*
X8218866Y3117852D01*
X8353553Y2983165D01*
X8454568Y2949493D01*
X8521912Y2949493D01*
X8622927Y2983165D01*
X8757614Y3117852D01*
X8791286Y3218867D01*
X8791286Y3286210D01*
X8757614Y3387226D01*
X8622927Y3521913D01*
X8521912Y3555584D01*
X8454568Y3555584D01*
X8353553Y3521913D01*
%TO.C,U10*%
X23737309Y2511760D02*
X24309729Y1939340D01*
X24410744Y1905669D01*
X24478087Y1905669D01*
X24579103Y1939340D01*
X24713790Y2074027D01*
X24747461Y2175043D01*
X24747461Y2242386D01*
X24713790Y2343401D01*
X24141370Y2915821D01*
X25555583Y2915821D02*
X25151522Y2511760D01*
X25353553Y2713791D02*
X24646446Y3420897D01*
X24680118Y3252539D01*
X24680118Y3117852D01*
X24646446Y3016836D01*
X25286209Y4060661D02*
X25353553Y4128004D01*
X25454568Y4161676D01*
X25521912Y4161676D01*
X25622927Y4128004D01*
X25791286Y4026989D01*
X25959644Y3858630D01*
X26060660Y3690271D01*
X26094331Y3589256D01*
X26094331Y3521913D01*
X26060660Y3420897D01*
X25993316Y3353554D01*
X25892301Y3319882D01*
X25824957Y3319882D01*
X25723942Y3353554D01*
X25555583Y3454569D01*
X25387225Y3622928D01*
X25286209Y3791287D01*
X25252538Y3892302D01*
X25252538Y3959645D01*
X25286209Y4060661D01*
%TO.C,U7*%
X15574026Y11348478D02*
X16146446Y10776058D01*
X16247461Y10742386D01*
X16314805Y10742386D01*
X16415820Y10776058D01*
X16550507Y10910745D01*
X16584179Y11011760D01*
X16584179Y11079104D01*
X16550507Y11180119D01*
X15978087Y11752539D01*
X16247461Y12021913D02*
X16718866Y12493317D01*
X17122927Y11483165D01*
%TO.C,R5*%
X13937732Y5452031D02*
X13836717Y4879611D01*
X14341793Y5047970D02*
X13634687Y4340863D01*
X13365312Y4610237D01*
X13331641Y4711252D01*
X13331641Y4778596D01*
X13365312Y4879611D01*
X13466328Y4980626D01*
X13567343Y5014298D01*
X13634687Y5014298D01*
X13735702Y4980626D01*
X14005076Y4711252D01*
X12590862Y5384688D02*
X12927580Y5047970D01*
X13297969Y5351016D01*
X13230625Y5351016D01*
X13129610Y5384688D01*
X12961251Y5553046D01*
X12927580Y5654062D01*
X12927580Y5721405D01*
X12961251Y5822420D01*
X13129610Y5990779D01*
X13230625Y6024451D01*
X13297969Y6024451D01*
X13398984Y5990779D01*
X13567343Y5822420D01*
X13601015Y5721405D01*
X13601015Y5654062D01*
%TO.C,J4*%
X21460790Y-14760615D02*
X21965866Y-14255539D01*
X22100553Y-14188195D01*
X22235240Y-14188195D01*
X22369927Y-14255539D01*
X22437270Y-14322882D01*
X21056729Y-13885149D02*
X21528133Y-13413745D01*
X20955713Y-14322882D02*
X21629148Y-13986165D01*
X21191416Y-13548432D01*
%TO.C,R16*%
X14774450Y6365313D02*
X14673435Y5792894D01*
X15178511Y5961252D02*
X14471404Y5254146D01*
X14202030Y5523520D01*
X14168358Y5624535D01*
X14168358Y5691878D01*
X14202030Y5792894D01*
X14303045Y5893909D01*
X14404061Y5927581D01*
X14471404Y5927581D01*
X14572419Y5893909D01*
X14841793Y5624535D01*
X14101015Y7038749D02*
X14505076Y6634688D01*
X14303045Y6836718D02*
X13595938Y6129611D01*
X13764297Y6163283D01*
X13898984Y6163283D01*
X14000000Y6129611D01*
X12787816Y6937733D02*
X12922503Y6803046D01*
X13023519Y6769375D01*
X13090862Y6769375D01*
X13259221Y6803046D01*
X13427580Y6904062D01*
X13696954Y7173436D01*
X13730625Y7274451D01*
X13730625Y7341794D01*
X13696954Y7442810D01*
X13562267Y7577497D01*
X13461251Y7611168D01*
X13393908Y7611168D01*
X13292893Y7577497D01*
X13124534Y7409138D01*
X13090862Y7308123D01*
X13090862Y7240779D01*
X13124534Y7139764D01*
X13259221Y7005077D01*
X13360236Y6971405D01*
X13427580Y6971405D01*
X13528595Y7005077D01*
%TO.C,R8*%
X22437732Y-3047969D02*
X22336717Y-3620389D01*
X22841793Y-3452030D02*
X22134687Y-4159137D01*
X21865312Y-3889763D01*
X21831641Y-3788748D01*
X21831641Y-3721404D01*
X21865312Y-3620389D01*
X21966328Y-3519374D01*
X22067343Y-3485702D01*
X22134687Y-3485702D01*
X22235702Y-3519374D01*
X22505076Y-3788748D01*
X21629610Y-3047969D02*
X21663282Y-3148984D01*
X21663282Y-3216328D01*
X21629610Y-3317343D01*
X21595938Y-3351015D01*
X21494923Y-3384687D01*
X21427580Y-3384687D01*
X21326564Y-3351015D01*
X21191877Y-3216328D01*
X21158206Y-3115312D01*
X21158206Y-3047969D01*
X21191877Y-2946954D01*
X21225549Y-2913282D01*
X21326564Y-2879610D01*
X21393908Y-2879610D01*
X21494923Y-2913282D01*
X21629610Y-3047969D01*
X21730625Y-3081641D01*
X21797969Y-3081641D01*
X21898984Y-3047969D01*
X22033671Y-2913282D01*
X22067343Y-2812267D01*
X22067343Y-2744923D01*
X22033671Y-2643908D01*
X21898984Y-2509221D01*
X21797969Y-2475549D01*
X21730625Y-2475549D01*
X21629610Y-2509221D01*
X21494923Y-2643908D01*
X21461251Y-2744923D01*
X21461251Y-2812267D01*
X21494923Y-2913282D01*
%TO.C,R15*%
X22274451Y14115313D02*
X22173436Y13542894D01*
X22678512Y13711252D02*
X21971405Y13004146D01*
X21702031Y13273520D01*
X21668359Y13374535D01*
X21668359Y13441878D01*
X21702031Y13542894D01*
X21803046Y13643909D01*
X21904062Y13677581D01*
X21971405Y13677581D01*
X22072420Y13643909D01*
X22341794Y13374535D01*
X21601016Y14788749D02*
X22005077Y14384688D01*
X21803046Y14586718D02*
X21095939Y13879611D01*
X21264298Y13913283D01*
X21398985Y13913283D01*
X21500001Y13879611D01*
X20254146Y14721405D02*
X20590863Y14384688D01*
X20961252Y14687733D01*
X20893909Y14687733D01*
X20792894Y14721405D01*
X20624535Y14889764D01*
X20590863Y14990779D01*
X20590863Y15058123D01*
X20624535Y15159138D01*
X20792894Y15327497D01*
X20893909Y15361168D01*
X20961252Y15361168D01*
X21062268Y15327497D01*
X21230626Y15159138D01*
X21264298Y15058123D01*
X21264298Y14990779D01*
D11*
%TO.C,U9*%
X16603408Y-9912234D02*
X16426631Y-10089010D01*
X16598741Y-9907567D02*
X18089463Y-11398289D01*
X15723060Y-7622198D02*
X19023410Y-4321847D01*
X23711104Y-8973620D02*
X19961599Y-12709265D01*
X20924113Y-5597751D02*
X22405643Y-7079281D01*
D12*
%TO.C,R7*%
X16127341Y-12089940D02*
X15910060Y-11872659D01*
X15589940Y-12627341D02*
X15372659Y-12410060D01*
%TO.C,R17*%
X22872659Y-4910060D02*
X23089940Y-5127341D01*
X23410060Y-4372659D02*
X23627341Y-4589940D01*
%TO.C,R6*%
X7089940Y-4127341D02*
X6872659Y-3910060D01*
X7627341Y-3589940D02*
X7410060Y-3372659D01*
%TO.C,R18*%
X31372659Y3589940D02*
X31589940Y3372659D01*
X31910060Y4127341D02*
X32127341Y3910060D01*
D11*
%TO.C,U8*%
X12424113Y2902249D02*
X13905643Y1420719D01*
X15211104Y-473620D02*
X11461599Y-4209265D01*
X8103408Y-1412234D02*
X7926631Y-1589010D01*
X8098741Y-1407567D02*
X9589463Y-2898289D01*
X7223060Y877802D02*
X10523410Y4178153D01*
%TO.C,U10*%
X25103408Y-1412234D02*
X24926631Y-1589010D01*
X29424113Y2902249D02*
X30905643Y1420719D01*
X25098741Y-1407567D02*
X26589463Y-2898289D01*
X32211104Y-473620D02*
X28461599Y-4209265D01*
X24223060Y877802D02*
X27523410Y4178153D01*
%TO.C,U7*%
X15723060Y9377802D02*
X19023410Y12678153D01*
X23711104Y8026380D02*
X19961599Y4290735D01*
X20924113Y11402249D02*
X22405643Y9920719D01*
X16598741Y7092433D02*
X18089463Y5601711D01*
X16603408Y7087766D02*
X16426631Y6910990D01*
D12*
%TO.C,R5*%
X16127341Y4910060D02*
X15910060Y5127341D01*
X15589940Y4372659D02*
X15372659Y4589940D01*
%TO.C,J4*%
X24200324Y-13430581D02*
X23259872Y-14371033D01*
X25098350Y-12532555D02*
X34121032Y-3509873D01*
X23217446Y-10651651D02*
X32240128Y-1628969D01*
X34121032Y-3509873D02*
X32240128Y-1628969D01*
X25098350Y-12532555D02*
X23217446Y-10651651D01*
X23259872Y-14371033D02*
X22319420Y-13430581D01*
%TO.C,R16*%
X14910060Y4127341D02*
X15127341Y3910060D01*
X14372659Y3589940D02*
X14589940Y3372659D01*
%TO.C,R8*%
X24627341Y-3589940D02*
X24410060Y-3372659D01*
X24089940Y-4127341D02*
X23872659Y-3910060D01*
%TO.C,R15*%
X22872659Y12089940D02*
X23089940Y11872659D01*
X23410060Y12627341D02*
X23627341Y12410060D01*
%TD*%
M02*
