0
SECTION
2
HEADER
9
$INSUNITS
70
4
9
$ACADVER
1
AC1014
9
$HANDSEED
5
FFFF
0
ENDSEC
0
SECTION
2
TABLES
0
TABLE
2
VPORT
5
8
100
AcDbSymbolTable
0
ENDTAB
0
TABLE
2
LTYPE
5
5
100
AcDbSymbolTable
0
LTYPE
5
14
100
AcDbSymbolTableRecord
100
AcDbLinetypeTableRecord
2
BYBLOCK
70
0
0
LTYPE
5
15
100
AcDbSymbolTableRecord
100
AcDbLinetypeTableRecord
2
BYLAYER
70
0
0
ENDTAB
0
TABLE
2
LAYER
5
2
100
AcDbSymbolTable
70
2
0
LAYER
5
50
100
AcDbSymbolTableRecord
100
AcDbLayerTableRecord
2
0
70
0
6
CONTINUOUS
0
ENDTAB
0
TABLE
2
STYLE
5
3
100
AcDbSymbolTable
70
1
0
STYLE
5
11
100
AcDbSymbolTableRecord
100
AcDbTextStyleTableRecord
2
STANDARD
70
0
0
ENDTAB
0
TABLE
2
VIEW
5
6
100
AcDbSymbolTable
70
0
0
ENDTAB
0
TABLE
2
UCS
5
7
100
AcDbSymbolTable
70
0
0
ENDTAB
0
TABLE
2
APPID
5
9
100
AcDbSymbolTable
70
2
0
APPID
5
12
100
AcDbSymbolTableRecord
100
AcDbRegAppTableRecord
2
ACAD
70
0
0
ENDTAB
0
TABLE
2
DIMSTYLE
5
A
100
AcDbSymbolTable
70
1
0
ENDTAB
0
TABLE
2
BLOCK_RECORD
5
1
100
AcDbSymbolTable
70
1
0
BLOCK_RECORD
5
1F
100
AcDbSymbolTableRecord
100
AcDbBlockTableRecord
2
*MODEL_SPACE
0
BLOCK_RECORD
5
1B
100
AcDbSymbolTableRecord
100
AcDbBlockTableRecord
2
*PAPER_SPACE
0
ENDTAB
0
ENDSEC
0
SECTION
2
BLOCKS
0
BLOCK
5
20
100
AcDbEntity
100
AcDbBlockBegin
2
*MODEL_SPACE
0
ENDBLK
5
21
100
AcDbEntity
100
AcDbBlockEnd
0
BLOCK
5
1C
100
AcDbEntity
100
AcDbBlockBegin
2
*PAPER_SPACE
0
ENDBLK
5
1D
100
AcDbEntity
100
AcDbBlockEnd
0
ENDSEC
0
SECTION
2
ENTITIES
0
ARC
5
100
100
AcDbEntity
8
0
100
AcDbCircle
10
17.85786444536113
20
84.000001395271397
30
0
40
10
210
0
220
0
230
1
100
AcDbArc
50
270
51
315.00000000000034
0
LINE
5
101
100
AcDbEntity
8
0
100
AcDbLine
10
17.857864445361127
20
74.000001395271397
30
0
11
-17.857864307176868
21
74.000001395271397
31
0
0
ARC
5
102
100
AcDbEntity
8
0
100
AcDbCircle
10
-17.857864307176868
20
84.000001395271397
30
0
40
10.000000000000002
210
0
220
0
230
1
100
AcDbArc
50
224.99999999999957
51
270
0
LINE
5
103
100
AcDbEntity
8
0
100
AcDbLine
10
-24.928932119042393
20
76.928933583405978
30
0
11
-26.383602516530161
21
78.383603980893696
31
1.5777218104420236e-29
0
SPLINE
5
104
100
AcDbEntity
8
0
100
AcDbSpline
70
0
71
3
72
14
73
10
74
0
42
0.000000001
43
0.0000000001
44
0.0000000001
40
0
40
0
40
0
40
0
40
0.094535601208643918
40
0.094535601208643918
40
0.20567945876654109
40
0.20567945876654109
40
0.2700975441643203
40
0.2700975441643203
40
0.33662427368917802
40
0.33662427368917802
40
0.33662427368917802
40
0.33662427368917802
10
-31.210995217309577
20
79.598225296299162
30
0
10
-30.917649468896705
20
79.713325463583914
30
0
10
-30.60988817028602
20
79.790292476140877
30
0
10
-29.929551185614692
20
79.877871973855264
30
0
10
-29.351702097121791
20
79.905137056742021
30
0
10
-28.216312835789481
20
79.593889999672072
30
0
10
-27.814702548471836
20
79.420719794579881
30
0
10
-27.056691875485921
20
78.975819475889779
30
0
10
-26.699510337305121
20
78.699511801668606
30
0
10
-26.383602516530168
20
78.383603980893696
30
0
0
ARC
5
105
100
AcDbEntity
8
0
100
AcDbCircle
10
8.0502084998101964e-08
20
1.0362023239451901e-07
30
-4.1842772144739038e-41
40
85.500000000006594
210
-3.24417467045972e-31
220
7.1906525076707877e-31
230
1
100
AcDbArc
50
111.41051447461977
51
114.28325615060062
0
SPLINE
5
106
100
AcDbEntity
8
0
100
AcDbSpline
70
0
71
3
72
18
73
14
74
0
42
0.000000001
43
0.0000000001
44
0.0000000001
40
1.7940118959139093e-05
40
1.7940118959139093e-05
40
1.7940118959139093e-05
40
1.7940118959139093e-05
40
0.078018759955816863
40
0.078018759955816863
40
0.15597243926848417
40
0.15597243926848417
40
0.25066067705731976
40
0.25066067705731976
40
0.34689836353376002
40
0.34689836353376002
40
0.41314313862100066
40
0.41314313862100066
40
0.480632397406072
40
0.480632397406072
40
0.480632397406072
40
0.480632397406072
10
-35.161510520979974
20
77.93483107765185
30
0
10
-35.398495937523244
20
77.827878727444769
30
0
10
-35.614353672197133
20
77.679478101787765
30
0
10
-35.98643840466324
20
77.316777791877655
30
0
10
-36.140621488388916
20
77.10457522903026
30
0
10
-36.396682464623417
20
76.589260296496548
30
0
10
-36.475267569837037
20
76.28675071210418
30
0
10
-36.516821010686556
20
75.6505275316416
30
0
10
-36.478598589587811
20
75.307989169477622
30
0
10
-36.296243051846588
20
74.731807151166151
30
0
10
-36.191490586611472
20
74.506078281416507
30
0
10
-35.931231916555227
20
74.081847500679856
30
0
10
-35.774143563349242
20
73.882830089127978
30
0
10
-35.596490746867609
20
73.705177272646338
30
0
0
LINE
5
107
100
AcDbEntity
8
0
100
AcDbLine
10
-35.596490746867609
20
73.705177272646338
30
0
11
-33.501407660186658
21
71.610094124677815
31
0
0
ARC
5
108
100
AcDbEntity
8
0
100
AcDbCircle
10
-37.036941581441269
20
68.074560203423189
30
0
40
5.0000000000000018
210
-0
220
0
230
1
100
AcDbArc
50
-45.000000000000718
51
45.000000000000121
0
LINE
5
109
100
AcDbEntity
8
0
100
AcDbLine
10
-33.501407675508574
20
64.539026297490409
30
0
11
-64.539026205295869
21
33.501407767703199
31
0
0
ARC
5
110
100
AcDbEntity
8
0
100
AcDbCircle
10
-68.074560111228578
20
37.036941673636001
30
0
40
4.9999999999999991
210
0
220
0
230
1
100
AcDbArc
50
225
51
314.9999999999992
0
LINE
5
111
100
AcDbEntity
8
0
100
AcDbLine
10
-71.610094017161316
20
33.501407767703263
30
0
11
-73.705177106032721
21
35.596490948505931
31
1.1832913578315177e-29
0
SPLINE
5
112
100
AcDbEntity
8
0
100
AcDbSpline
70
0
71
3
72
18
73
14
74
0
42
0.000000001
43
0.0000000001
44
0.0000000001
40
0
40
0
40
0
40
0
40
0.075352283652142443
40
0.075352283652142443
40
0.14931559465796251
40
0.14931559465796251
40
0.25684290658857029
40
0.25684290658857029
40
0.36267649507706901
40
0.36267649507706901
40
0.44981881091526954
40
0.44981881091526954
40
0.5370135211996504
40
0.5370135211996504
40
0.5370135211996504
40
0.5370135211996504
10
-73.705177106032721
20
35.596490948505938
30
0
10
-73.882784141794119
20
35.774097984267343
30
0
10
-74.081744646130744
20
35.931151037511043
30
0
10
-74.5058516786534
20
36.19136960927473
30
0
10
-74.731513355052414
20
36.296116034540596
30
0
10
-75.307769820607604
20
36.478579204265309
30
0
10
-75.650318836004416
20
36.516794842107046
30
0
10
-76.286439567134309
20
36.475327399422206
30
0
10
-76.588972856370049
20
36.396781486253253
30
0
10
-77.104374476302326
20
36.140757487331989
30
0
10
-77.31663201062625
20
35.986564640225893
30
0
10
-77.679423218734641
20
35.614433345090823
30
0
10
-77.827858801916236
20
35.398539912166981
30
0
10
-77.934830907447989
20
35.161510722990656
30
0
0
ARC
5
113
100
AcDbEntity
8
0
100
AcDbCircle
10
8.0499531876603389e-08
20
3.4509874919108789e-08
30
0
40
85.500000000000028
210
0
220
0
230
1
100
AcDbArc
50
155.71674380009202
51
204.28325615768901
0
SPLINE
5
114
100
AcDbEntity
8
0
100
AcDbSpline
70
0
71
3
72
18
73
14
74
0
42
0.000000001
43
0.0000000001
44
0.0000000001
40
0
40
0
40
0
40
0
40
0.075352283652142041
40
0.075352283652142041
40
0.14931559465797917
40
0.14931559465797917
40
0.25684290658854275
40
0.25684290658854275
40
0.36267649507690819
40
0.36267649507690819
40
0.44981881091500797
40
0.44981881091500797
40
0.53701352119929313
40
0.53701352119929313
40
0.53701352119929313
40
0.53701352119929313
10
-73.705177106065875
20
-35.596490810402898
30
0
10
-73.882784141794133
20
-35.774097846131156
30
0
10
-74.081744646130744
20
-35.931150899374856
30
0
10
-74.505851678653471
20
-36.191369471138579
30
0
10
-74.731513355052471
20
-36.296115896404416
30
0
10
-75.307769820607348
20
-36.478579066129036
30
0
10
-75.650318836004161
20
-36.516794703970874
30
0
10
-76.286439567134295
20
-36.475327261286019
30
0
10
-76.588972856370049
20
-36.396781348117074
30
0
10
-77.104374476302368
20
-36.140757349195781
30
0
10
-77.316632010626265
20
-35.986564502089685
30
0
10
-77.679423218734655
20
-35.614433206954629
30
0
10
-77.82785880191625
20
-35.398539774030766
30
0
10
-77.934830907448017
20
-35.161510584854426
30
0
0
LINE
5
115
100
AcDbEntity
8
0
100
AcDbLine
10
-73.705177106065875
20
-35.596490810402898
30
0
11
-71.610093971195681
21
-33.501407675532697
31
-5.1985933654064678e-27
0
ARC
5
116
100
AcDbEntity
8
0
100
AcDbCircle
10
-68.074560065262972
20
-37.036941581465406
30
0
40
4.9999999999999991
210
0
220
-0
230
1
100
AcDbArc
50
44.999999999999304
51
135
0
LINE
5
117
100
AcDbEntity
8
0
100
AcDbLine
10
-64.539026159330191
20
-33.501407675532711
30
0
11
-33.501407675508588
21
-64.539026159354208
31
0
0
ARC
5
118
100
AcDbEntity
8
0
100
AcDbCircle
10
-37.036941581441283
20
-68.074560065287002
30
0
40
4.9999999999999991
210
2.2312355819789434e-30
220
-6.3058430894616756e-45
230
1
100
AcDbArc
50
-45.000000000000199
51
45.000000000000803
0
LINE
5
119
100
AcDbEntity
8
0
100
AcDbLine
10
-33.50140767550856
20
-71.610093971219754
30
-7.8886090522101153e-30
11
-35.596490746867609
21
-73.705177134510123
31
-1.1832913578315177e-29
0
SPLINE
5
120
100
AcDbEntity
8
0
100
AcDbSpline
70
0
71
3
72
18
73
14
74
0
42
0.000000001
43
0.0000000001
44
0.0000000001
40
1.7940118955385914e-05
40
1.7940118955385914e-05
40
1.7940118955385914e-05
40
1.7940118955385914e-05
40
0.078018759955818986
40
0.078018759955818986
40
0.15597243926849313
40
0.15597243926849313
40
0.25066067705733525
40
0.25066067705733525
40
0.34689836353383158
40
0.34689836353383158
40
0.41314313862113611
40
0.41314313862113611
40
0.48063239740626157
40
0.48063239740626157
40
0.48063239740626157
40
0.48063239740626157
10
-35.161510520979988
20
-77.934830939515678
30
0
10
-35.398495937523265
20
-77.827878589308597
30
0
10
-35.614353672197169
20
-77.679477963651607
30
0
10
-35.986438404663268
20
-77.316777653741497
30
0
10
-36.140621488388952
20
-77.104575090894087
30
0
10
-36.396682464623453
20
-76.589260158360361
30
0
10
-36.475267569837072
20
-76.286750573967993
30
0
10
-36.516821010686591
20
-75.650527393505257
30
0
10
-36.47859858958779
20
-75.307989031341279
30
0
10
-36.296243051846616
20
-74.731807013029965
30
0
10
-36.191490586611515
20
-74.506078143280348
30
0
10
-35.931231916555255
20
-74.081847362543684
30
0
10
-35.774143563349291
20
-73.882829950991805
30
0
10
-35.596490746867609
20
-73.705177134510123
30
0
0
ARC
5
121
100
AcDbEntity
8
0
100
AcDbCircle
10
8.0499531876603389e-08
20
3.4509874919108789e-08
30
0
40
85.5
210
2.5518435360241566e-30
220
-2.0167351189523289e-30
230
1
100
AcDbArc
50
245.71674384939936
51
294.28325613666448
0
SPLINE
5
122
100
AcDbEntity
8
0
100
AcDbSpline
70
0
71
3
72
18
73
14
74
0
42
0.000000001
43
0.0000000001
44
0.0000000001
40
1.794011896434263e-05
40
1.794011896434263e-05
40
1.794011896434263e-05
40
1.794011896434263e-05
40
0.078018759955813061
40
0.078018759955813061
40
0.15597243926847393
40
0.15597243926847393
40
0.2506606770572925
40
0.2506606770572925
40
0.34689836353376485
40
0.34689836353376485
40
0.41314313862106405
40
0.41314313862106405
40
0.4806323974061894
40
0.4806323974061894
40
0.4806323974061894
40
0.4806323974061894
10
35.161510659164172
20
-77.934830939515507
30
0
10
35.398496075707399
20
-77.82787858930844
30
0
10
35.61435381038126
20
-77.679477963651465
30
0
10
35.986438542847303
20
-77.316777653741426
30
0
10
36.140621626572987
20
-77.104575090894073
30
0
10
36.396682602807509
20
-76.589260158360347
30
0
10
36.47526770802115
20
-76.286750573967979
30
0
10
36.516821148870697
20
-75.650527393505243
30
0
10
36.47859872777191
20
-75.307989031341279
30
0
10
36.296243190030758
20
-74.73180701302995
30
0
10
36.191490724795649
20
-74.506078143280291
30
0
10
35.931232054739368
20
-74.08184736254357
30
0
10
35.774143701533362
20
-73.882829950991663
30
0
10
35.596490885085423
20
-73.705177134543717
30
0
0
LINE
5
123
100
AcDbEntity
8
0
100
AcDbLine
10
35.596490885085423
20
-73.705177134543717
30
0
11
33.501407767727123
21
-71.610094017185418
31
-3.6248158594905492e-27
0
ARC
5
124
100
AcDbEntity
8
0
100
AcDbCircle
10
37.036941673659925
20
-68.074560111252723
30
0
40
4.9999999999999991
210
0
220
0
230
1
100
AcDbArc
50
135
51
224.99999999999912
0
LINE
5
125
100
AcDbEntity
8
0
100
AcDbLine
10
33.501407767727187
20
-64.539026205319985
30
0
11
64.539026297514425
21
-33.501407675532711
31
0
0
ARC
5
126
100
AcDbEntity
8
0
100
AcDbCircle
10
68.07456020344722
20
-37.03694158146542
30
0
40
4.9999999999999991
210
0
220
-0
230
1
100
AcDbArc
50
44.99999999999995
51
135.00000000000071
0
LINE
5
127
100
AcDbEntity
8
0
100
AcDbLine
10
71.610094109379958
20
-33.50140767553269
30
0
11
73.705177244250123
21
-35.596490810402919
31
3.0450030941531056e-27
0
SPLINE
5
128
100
AcDbEntity
8
0
100
AcDbSpline
70
0
71
3
72
18
73
14
74
0
42
0.000000001
43
0.0000000001
44
0.0000000001
40
0
40
0
40
0
40
0
40
0.075344856236359892
40
0.075344856236359892
40
0.14930468954416093
40
0.14930468954416093
40
0.25686833063297299
40
0.25686833063297299
40
0.36274142035555512
40
0.36274142035555512
40
0.4499296135192371
40
0.4499296135192371
40
0.53718164982844097
40
0.53718164982844097
40
0.53718164982844097
40
0.53718164982844097
10
73.705177244250109
20
-35.596490810402919
30
0
10
73.882766773391168
20
-35.774080339543978
30
0
10
74.081706304961997
20
-35.931120681184211
30
0
10
74.505770590566357
20
-36.191340045128882
30
0
10
74.731415189418186
20
-36.296098989445667
30
0
10
75.307755152836449
20
-36.478663014435739
30
0
10
75.650347170269555
20
-36.516907335880482
30
0
10
76.28644434839336
20
-36.475532144989032
30
0
10
76.588988905901687
20
-36.397040029832425
30
0
10
77.104456740822485
20
-36.141075492028108
30
0
10
77.316757217994635
20
-35.986881937312198
30
0
10
77.679634952613668
20
-35.614685562896696
30
0
10
77.828098868764982
20
-35.398726486448361
30
0
10
77.93507128316557
20
-35.161619171320154
30
0
0
ARC
5
129
100
AcDbEntity
8
0
100
AcDbCircle
10
5.768471687529021e-08
20
1.0362630916167531e-07
30
0
40
85.5
210
1.4381304998068715e-30
220
-6.4883493792311686e-31
230
1
100
AcDbArc
50
-24.283256303219289
51
24.283256261000357
0
SPLINE
5
130
100
AcDbEntity
8
0
100
AcDbSpline
70
0
71
3
72
18
73
14
74
0
42
0.000000001
43
0.0000000001
44
0.0000000001
40
0
40
0
40
0
40
0
40
0.075344856236364624
40
0.075344856236364624
40
0.14930468954417053
40
0.14930468954417053
40
0.25686833063300962
40
0.25686833063300962
40
0.36274142035565793
40
0.36274142035565793
40
0.44992961351939986
40
0.44992961351939986
40
0.53718164982865901
40
0.53718164982865901
40
0.53718164982865901
40
0.53718164982865901
10
73.705177244250109
20
35.596490948539085
30
0
10
73.882766773391197
20
35.774080477680116
30
0
10
74.081706304962054
20
35.931120819320334
30
0
10
74.505770590566357
20
36.191340183264991
30
0
10
74.731415189418215
20
36.296099127581797
30
0
10
75.307755152836563
20
36.478663152571926
30
0
10
75.650347170269654
20
36.516907474016627
30
0
10
76.28644434839336
20
36.475532283125183
30
0
10
76.588988905901687
20
36.397040167968569
30
0
10
77.104456740822499
20
36.141075630164252
30
0
10
77.316757217994635
20
35.986882075448349
30
0
10
77.679634952613611
20
35.614685701032876
30
0
10
77.828098868764982
20
35.398726624584505
30
0
10
77.935071283165584
20
35.16161930945627
30
0
0
LINE
5
131
100
AcDbEntity
8
0
100
AcDbLine
10
73.705177244250109
20
35.596490948539085
30
0
11
71.610094109379943
21
33.501407813668877
31
5.1985933654064678e-27
0
ARC
5
132
100
AcDbEntity
8
0
100
AcDbCircle
10
68.07456020344722
20
37.036941719601579
30
0
40
4.9999999999999991
210
0
220
0
230
1
100
AcDbArc
50
224.99999999999923
51
315.00000000000017
0
LINE
5
133
100
AcDbEntity
8
0
100
AcDbLine
10
64.53902629751444
20
33.501407813668891
30
0
11
33.50140776772713
21
64.539026343456086
31
0
0
ARC
5
134
100
AcDbEntity
8
0
100
AcDbCircle
10
37.036941673659939
20
68.074560249388895
30
0
40
4.9999999999999991
210
0
220
0
230
1
100
AcDbArc
50
135.00000000000085
51
225
0
LINE
5
135
100
AcDbEntity
8
0
100
AcDbLine
10
33.501407767727152
20
71.610094155321576
30
0
11
35.596490885085437
21
73.70517727267989
31
-3.6642589047515998e-27
0
SPLINE
5
136
100
AcDbEntity
8
0
100
AcDbSpline
70
0
71
3
72
18
73
14
74
0
42
0.000000001
43
0.0000000001
44
0.0000000001
40
1.794011896363057e-05
40
1.794011896363057e-05
40
1.794011896363057e-05
40
1.794011896363057e-05
40
0.078018759955814393
40
0.078018759955814393
40
0.15597243926848836
40
0.15597243926848836
40
0.25066067705732964
40
0.25066067705732964
40
0.34689836353384673
40
0.34689836353384673
40
0.41314313862118573
40
0.41314313862118573
40
0.48063239740634783
40
0.48063239740634783
40
0.48063239740634783
40
0.48063239740634783
10
35.161510659164172
20
77.93483107765168
30
0
10
35.398496075707399
20
77.827878727444613
30
0
10
35.61435381038126
20
77.679478101787609
30
0
10
35.986438542847274
20
77.316777791877612
30
0
10
36.140621626572944
20
77.10457522903026
30
0
10
36.396682602807488
20
76.589260296496548
30
0
10
36.475267708021136
20
76.286750712104165
30
0
10
36.516821148870704
20
75.65052753164133
30
0
10
36.478598727771889
20
75.307989169477324
30
0
10
36.296243190030765
20
74.731807151166066
30
0
10
36.191490724795656
20
74.506078281416421
30
0
10
35.931232054739375
20
74.081847500679714
30
0
10
35.77414370153339
20
73.882830089127836
30
0
10
35.596490885085444
20
73.70517727267989
30
0
0
ARC
5
137
100
AcDbEntity
8
0
100
AcDbCircle
10
8.0502084998101964e-08
20
1.0362023239451901e-07
30
-4.1842772144739038e-41
40
85.500000000004505
210
-2.0126030663011331e-43
220
-4.4608970740118707e-43
230
1
100
AcDbArc
50
65.716743863338735
51
68.589253400694332
0
SPLINE
5
138
100
AcDbEntity
8
0
100
AcDbSpline
70
0
71
3
72
14
73
10
74
0
42
0.000000001
43
0.0000000001
44
0.0000000001
40
0
40
0
40
0
40
0
40
0.13402019378057786
40
0.13402019378057786
40
0.26380601706676998
40
0.26380601706676998
40
0.46574597342111801
40
0.46574597342111801
40
0.60590154200814084
40
0.60590154200814084
40
0.60590154200814084
40
0.60590154200814084
10
26.383602654714338
20
78.383603980893596
30
0
10
26.699491280841634
20
78.699492607020844
30
0
10
27.056656516485663
20
78.975793806243914
30
0
10
27.814630207650048
20
79.420748097796803
30
0
10
28.216244554169528
20
79.593978612365362
30
0
10
29.281058171750878
20
79.886094937894214
30
0
10
29.8470181219114
20
79.889021195054568
30
0
10
30.61042085486168
20
79.790898441160195
30
0
10
30.918253111861517
20
79.713975866289275
30
0
10
31.211668017982333
20
79.598899512992901
30
0
0
LINE
5
139
100
AcDbEntity
8
0
100
AcDbLine
10
26.383602654714338
20
78.383603980893596
30
0
11
24.928932257226649
21
76.928933583405964
31
0
0
CIRCLE
5
140
100
AcDbEntity
8
0
100
AcDbCircle
10
30.000000080499639
20
74.000000057325195
30
0
40
1.6500000000000001
210
0
220
-0
230
1
0
CIRCLE
5
141
100
AcDbEntity
8
0
100
AcDbCircle
10
-29.999999919500368
20
74.000000057325195
30
0
40
1.6500000000000001
210
0
220
-0
230
1
0
CIRCLE
5
142
100
AcDbEntity
8
0
100
AcDbCircle
10
74.000000103314832
20
30.000000034509782
30
0
40
1.6500000000000001
210
0
220
-0
230
1
0
CIRCLE
5
143
100
AcDbEntity
8
0
100
AcDbCircle
10
74.000000103314832
20
-29.999999965490222
30
0
40
1.6500000000000001
210
0
220
-0
230
1
0
CIRCLE
5
144
100
AcDbEntity
8
0
100
AcDbCircle
10
-73.999999942315796
20
-29.999999965490108
30
0
40
1.6500000000000001
210
0
220
-0
230
1
0
CIRCLE
5
145
100
AcDbEntity
8
0
100
AcDbCircle
10
-73.999999942315796
20
30.000000034509895
30
0
40
1.6500000000000001
210
0
220
-0
230
1
0
CIRCLE
5
146
100
AcDbEntity
8
0
100
AcDbCircle
10
-29.999999919500482
20
-73.999999988305404
30
0
40
1.6500000000000001
210
0
220
-0
230
1
0
CIRCLE
5
147
100
AcDbEntity
8
0
100
AcDbCircle
10
30.000000080499522
20
-73.999999988305419
30
0
40
1.6500000000000001
210
0
220
-0
230
1
0
LWPOLYLINE
5
148
100
AcDbEntity
8
0
100
AcDbPolyline
90
8
70
1
43
0.0
10
37.000000057683138
20
-6.4999999654899394
10
24.50000005768316
20
-6.499999965489895
42
-0.4142135623730957
10
23.50000005768316
20
-5.4999999654899101
10
23.500000057683131
20
5.5000000345100837
42
-0.4142135623731012
10
24.500000057683163
20
6.500000034510121
10
37.000000057683131
20
6.5000000345100961
42
-0.41421356237309176
10
38.000000057683138
20
5.5000000345100979
10
38.000000057683138
20
-5.4999999654899412
42
-0.41421356237308982
0
LWPOLYLINE
5
149
100
AcDbEntity
8
0
100
AcDbPolyline
90
8
70
1
43
0.0
10
-64.94999994231685
20
-23.999999965489913
42
0.41421356237308982
10
-63.949999942316865
20
-24.999999965489899
10
-61.949999942316836
20
-24.999999965489899
42
0.41421356237310802
10
-60.94999994231685
20
-23.999999965489923
10
-60.94999994231685
20
24.000000034510091
42
0.41421356237309637
10
-61.94999994231685
20
25.000000034510087
10
-63.949999942316865
20
25.000000034510094
42
0.41421356237308854
10
-64.94999994231685
20
24.000000034510094
0
LWPOLYLINE
5
150
100
AcDbEntity
8
0
100
AcDbPolyline
90
8
70
1
43
0.0
10
-6.4999999423168475
20
-31.499999965489881
10
-6.4999999423168289
20
-24.49999996548992
42
-0.41421356237309925
10
-5.4999999423168493
20
-23.499999965489927
10
5.5000000576831454
20
-23.499999965489895
42
-0.41421356237310608
10
6.5000000576831818
20
-24.499999965489927
10
6.5000000576831427
20
-31.499999965489877
42
-0.41421356237310053
10
5.5000000576831232
20
-32.499999965489884
10
-5.49999994231682
20
-32.499999965489884
42
-0.4142135623730967
0
LWPOLYLINE
5
151
100
AcDbEntity
8
0
100
AcDbPolyline
90
8
70
1
43
0.0
10
6.5000000576831436
20
31.500000034510045
42
0.41421356237310381
10
5.5000000576831169
20
32.500000034510052
10
-5.4999999423168422
20
32.500000034510052
42
0.41421356237309925
10
-6.4999999423168529
20
31.500000034510045
10
-6.4999999423168751
20
24.500000034510123
42
0.41421356237310608
10
-5.499999942316844
20
23.500000034510101
10
5.5000000576831205
20
23.500000034510084
42
0.41421356237309859
10
6.5000000576831543
20
24.500000034510094
0
LWPOLYLINE
5
152
100
AcDbEntity
8
0
100
AcDbPolyline
90
8
70
1
43
0.0
10
-39.549999942316852
20
-23.999999965489902
42
0.41421356237308982
10
-38.549999942316845
20
-24.999999965489906
10
-36.549999942316859
20
-24.999999965489906
42
0.41421356237308982
10
-35.549999942316852
20
-23.999999965489902
10
-35.549999942316852
20
24.000000034510087
42
0.41421356237308982
10
-36.549999942316859
20
25.000000034510094
10
-38.549999942316852
20
25.000000034510094
42
0.41421356237308854
10
-39.549999942316852
20
24.000000034510094
0
LWPOLYLINE
5
153
100
AcDbEntity
8
0
100
AcDbPolyline
90
8
70
1
43
0.0
10
-16.499999942316812
20
6.5000000345100837
42
0.4142135623731002
10
-17.49999994231683
20
5.5000000345100712
10
-17.499999942316823
20
-5.4999999654898986
42
0.4142135623731022
10
-16.499999942316812
20
-6.4999999654899216
10
-9.4999999423168973
20
-6.4999999654899296
42
0.41421356237310447
10
-8.4999999423168635
20
-5.4999999654899074
10
-8.49999994231686
20
5.5000000345100801
42
0.41421356237309537
10
-9.4999999423168671
20
6.5000000345100828
0
LWPOLYLINE
5
154
100
AcDbEntity
8
0
100
AcDbPolyline
90
8
70
1
43
0.0
10
-31.499999942316805
20
6.5000000345100863
10
-24.499999942316858
20
6.5000000345100641
42
-0.41421356237309731
10
-23.499999942316869
20
5.5000000345100819
10
-23.499999942316837
20
-5.4999999654899128
42
-0.41421356237310153
10
-24.499999942316869
20
-6.4999999654899501
10
-31.499999942316812
20
-6.4999999654899074
42
-0.41421356237310319
10
-32.499999942316826
20
-5.4999999654898835
10
-32.499999942316819
20
5.5000000345100819
42
-0.4142135623731012
0
LWPOLYLINE
5
155
100
AcDbEntity
8
0
100
AcDbPolyline
90
8
70
1
43
0.0
10
-6.4999999423168511
20
-16.499999965489881
42
0.41421356237309792
10
-5.4999999423168342
20
-17.49999996548987
10
5.5000000576831489
20
-17.499999965489888
42
0.41421356237309859
10
6.5000000576831587
20
-16.499999965489863
10
6.5000000576831525
20
-9.4999999654899483
42
0.41421356237310253
10
5.5000000576831409
20
-8.4999999654899199
10
-5.4999999423168529
20
-8.4999999654899199
42
0.41421356237309409
10
-6.4999999423168546
20
-9.4999999654899288
0
LWPOLYLINE
5
156
100
AcDbEntity
8
0
100
AcDbPolyline
90
8
70
1
43
0.0
10
16.500000057683096
20
-6.499999965489911
42
0.4142135623731012
10
17.500000057683121
20
-5.4999999654899092
10
17.50000005768311
20
5.5000000345100917
42
0.41421356237309082
10
16.500000057683117
20
6.5000000345100819
10
9.500000057683172
20
6.5000000345101032
42
0.41421356237310319
10
8.5000000576831418
20
5.5000000345100837
10
8.5000000576831489
20
-5.4999999654899128
42
0.41421356237309437
10
9.5000000576831596
20
-6.4999999654899208
0
LWPOLYLINE
5
157
100
AcDbEntity
8
0
100
AcDbPolyline
90
8
70
1
43
0.0
10
5.5000000576831294
20
8.5000000345100837
42
0.41421356237309509
10
6.500000057683156
20
9.5000000345100926
10
6.5000000576831427
20
16.500000034510045
42
0.41421356237310153
10
5.5000000576831169
20
17.500000034510052
10
-5.4999999423168422
20
17.500000034510052
42
0.41421356237309959
10
-6.4999999423168608
20
16.500000034510037
10
-6.4999999423168751
20
9.500000034510121
42
0.41421356237310836
10
-5.499999942316844
20
8.5000000345101014
0
ENDSEC
0
SECTION
2
OBJECTS
0
DICTIONARY
5
C
100
AcDbDictionary
3
ACAD_GROUP
350
D
3
ACAD_MLINESTYLE
350
17
0
DICTIONARY
5
D
100
AcDbDictionary
0
DICTIONARY
5
1A
330
C
100
AcDbDictionary
0
DICTIONARY
5
17
100
AcDbDictionary
0
ENDSEC
0
EOF
