%TF.GenerationSoftware,KiCad,Pcbnew,(6.0.9)*%
%TF.CreationDate,2023-02-05T07:26:13+11:00*%
%TF.ProjectId,SumoBotPCBA001,53756d6f-426f-4745-9043-42413030312e,rev?*%
%TF.SameCoordinates,Original*%
%TF.FileFunction,Soldermask,Top*%
%TF.FilePolarity,Negative*%
%FSLAX46Y46*%
G04 Gerber Fmt 4.6, Leading zero omitted, Abs format (unit mm)*
G04 Created by KiCad (PCBNEW (6.0.9)) date 2023-02-05 07:26:13*
%MOMM*%
%LPD*%
G01*
G04 APERTURE LIST*
G04 Aperture macros list*
%AMRoundRect*
0 Rectangle with rounded corners*
0 $1 Rounding radius*
0 $2 $3 $4 $5 $6 $7 $8 $9 X,Y pos of 4 corners*
0 Add a 4 corners polygon primitive as box body*
4,1,4,$2,$3,$4,$5,$6,$7,$8,$9,$2,$3,0*
0 Add four circle primitives for the rounded corners*
1,1,$1+$1,$2,$3*
1,1,$1+$1,$4,$5*
1,1,$1+$1,$6,$7*
1,1,$1+$1,$8,$9*
0 Add four rect primitives between the rounded corners*
20,1,$1+$1,$2,$3,$4,$5,0*
20,1,$1+$1,$4,$5,$6,$7,0*
20,1,$1+$1,$6,$7,$8,$9,0*
20,1,$1+$1,$8,$9,$2,$3,0*%
%AMFreePoly0*
4,1,9,5.362500,-0.866500,1.237500,-0.866500,1.237500,-0.450000,-1.237500,-0.450000,-1.237500,0.450000,1.237500,0.450000,1.237500,0.866500,5.362500,0.866500,5.362500,-0.866500,5.362500,-0.866500,$1*%
G04 Aperture macros list end*
%ADD10R,1.600000X1.600000*%
%ADD11O,1.600000X1.600000*%
%ADD12R,1.700000X1.700000*%
%ADD13C,1.700000*%
%ADD14RoundRect,0.250000X0.337500X0.475000X-0.337500X0.475000X-0.337500X-0.475000X0.337500X-0.475000X0*%
%ADD15R,2.300000X0.900000*%
%ADD16FreePoly0,180.000000*%
%ADD17RoundRect,0.250000X0.350000X0.450000X-0.350000X0.450000X-0.350000X-0.450000X0.350000X-0.450000X0*%
%ADD18R,3.000000X3.000000*%
%ADD19C,3.000000*%
%ADD20RoundRect,0.070000X-0.150000X-0.800000X0.150000X-0.800000X0.150000X0.800000X-0.150000X0.800000X0*%
%ADD21C,0.380000*%
%ADD22RoundRect,0.000100X-1.155000X-1.230000X1.155000X-1.230000X1.155000X1.230000X-1.155000X1.230000X0*%
%ADD23O,1.700000X1.700000*%
%ADD24RoundRect,0.250000X-0.337500X-0.475000X0.337500X-0.475000X0.337500X0.475000X-0.337500X0.475000X0*%
G04 APERTURE END LIST*
D10*
%TO.C,A1*%
X162390000Y-91950000D03*
D11*
X162390000Y-94490000D03*
X162390000Y-97030000D03*
X162390000Y-99570000D03*
X162390000Y-102110000D03*
X162390000Y-104650000D03*
X162390000Y-107190000D03*
X162390000Y-109730000D03*
X162390000Y-112270000D03*
X162390000Y-114810000D03*
X162390000Y-117350000D03*
X162390000Y-119890000D03*
X162390000Y-122430000D03*
X162390000Y-124970000D03*
X162390000Y-127510000D03*
X177630000Y-127510000D03*
X177630000Y-124970000D03*
X177630000Y-122430000D03*
X177630000Y-119890000D03*
X177630000Y-117350000D03*
X177630000Y-114810000D03*
X177630000Y-112270000D03*
X177630000Y-109730000D03*
X177630000Y-107190000D03*
X177630000Y-104650000D03*
X177630000Y-102110000D03*
X177630000Y-99570000D03*
X177630000Y-97030000D03*
X177630000Y-94490000D03*
X177630000Y-91950000D03*
%TD*%
D12*
%TO.C,U2*%
X147175000Y-116000000D03*
D13*
X147175000Y-113460000D03*
X149715000Y-116000000D03*
X149715000Y-113460000D03*
X152255000Y-116000000D03*
X152255000Y-113460000D03*
X154795000Y-116000000D03*
X154795000Y-113460000D03*
%TD*%
D14*
%TO.C,C2*%
X180237500Y-84500000D03*
X178162500Y-84500000D03*
%TD*%
D15*
%TO.C,U1*%
X158150000Y-87000000D03*
D16*
X158062500Y-85500000D03*
D15*
X158150000Y-84000000D03*
%TD*%
D17*
%TO.C,R1*%
X180200000Y-86700000D03*
X178200000Y-86700000D03*
%TD*%
D18*
%TO.C,J2*%
X152960000Y-122000000D03*
D19*
X158040000Y-122000000D03*
%TD*%
D20*
%TO.C,U3*%
X181825000Y-94400000D03*
X182475000Y-94400000D03*
X183125000Y-94400000D03*
X183775000Y-94400000D03*
X184425000Y-94400000D03*
X185075000Y-94400000D03*
X185725000Y-94400000D03*
X186375000Y-94400000D03*
X186375000Y-88800000D03*
X185725000Y-88800000D03*
X185075000Y-88800000D03*
X184425000Y-88800000D03*
X183775000Y-88800000D03*
X183125000Y-88800000D03*
X182475000Y-88800000D03*
X181825000Y-88800000D03*
D21*
X184100000Y-90850000D03*
X185600000Y-92350000D03*
D22*
X184100000Y-91600000D03*
D21*
X182600000Y-90850000D03*
X182600000Y-92350000D03*
X185600000Y-90850000D03*
X184100000Y-92350000D03*
%TD*%
D12*
%TO.C,J5*%
X186820000Y-81000000D03*
D23*
X184280000Y-81000000D03*
X181740000Y-81000000D03*
X179200000Y-81000000D03*
%TD*%
D18*
%TO.C,J4*%
X184500000Y-115040000D03*
D19*
X184500000Y-109960000D03*
%TD*%
D14*
%TO.C,C1*%
X171837500Y-83600000D03*
X169762500Y-83600000D03*
%TD*%
D18*
%TO.C,J1*%
X181960000Y-122000000D03*
D19*
X187040000Y-122000000D03*
%TD*%
D12*
%TO.C,J6*%
X161000000Y-81000000D03*
D23*
X158460000Y-81000000D03*
X155920000Y-81000000D03*
X153380000Y-81000000D03*
%TD*%
D24*
%TO.C,C3*%
X169762500Y-85800000D03*
X171837500Y-85800000D03*
%TD*%
D18*
%TO.C,J3*%
X184500000Y-104472500D03*
D19*
X184500000Y-99392500D03*
%TD*%
M02*
