%TF.GenerationSoftware,KiCad,Pcbnew,(6.0.9)*%
%TF.CreationDate,2023-02-05T07:26:17+11:00*%
%TF.ProjectId,SumoBotPCBA001,53756d6f-426f-4745-9043-42413030312e,rev?*%
%TF.SameCoordinates,Original*%
%TF.FileFunction,Drillmap*%
%TF.FilePolarity,Positive*%
%FSLAX45Y45*%
G04 Gerber Fmt 4.5, Leading zero omitted, Abs format (unit mm)*
G04 Created by KiCad (PCBNEW (6.0.9)) date 2023-02-05 07:26:17*
%MOMM*%
%LPD*%
G01*
G04 APERTURE LIST*
%ADD10C,0.100000*%
%ADD11C,0.200000*%
%ADD12C,0.033000*%
%ADD13C,0.040000*%
%ADD14C,0.152000*%
G04 APERTURE END LIST*
D10*
X14650000Y-12400000D02*
G75*
G03*
X14650000Y-12400000I-150000J0D01*
G01*
X14650000Y-8400000D02*
G75*
G03*
X14650000Y-8400000I-150000J0D01*
G01*
X19650000Y-8400000D02*
G75*
G03*
X19650000Y-8400000I-150000J0D01*
G01*
X19650000Y-12400000D02*
G75*
G03*
X19650000Y-12400000I-150000J0D01*
G01*
X18950000Y-12750000D02*
G75*
G03*
X18850000Y-12650000I-100000J0D01*
G01*
X18050000Y-12650000D02*
G75*
G03*
X17950000Y-12750000I0J-100000D01*
G01*
X16050000Y-12750000D02*
G75*
G03*
X15950000Y-12650000I-100000J0D01*
G01*
X15150000Y-12650000D02*
G75*
G03*
X15050000Y-12750000I0J-100000D01*
G01*
X19500000Y-7900000D02*
X14500000Y-7900000D01*
X18950000Y-12900000D02*
X19500000Y-12900000D01*
X16050000Y-12900000D02*
X17950000Y-12900000D01*
X14500000Y-12900000D02*
X15050000Y-12900000D01*
X14000000Y-8400000D02*
X14000000Y-12400000D01*
X14500000Y-7900000D02*
G75*
G03*
X14000000Y-8400000I0J-500000D01*
G01*
X14000000Y-12400000D02*
G75*
G03*
X14500000Y-12900000I500000J0D01*
G01*
X19500000Y-8900000D02*
G75*
G03*
X19500000Y-7900000I0J500000D01*
G01*
X19500000Y-12900000D02*
G75*
G03*
X20000000Y-12400000I0J500000D01*
G01*
X20000000Y-12400000D02*
G75*
G03*
X19500000Y-11900000I-500000J0D01*
G01*
X19000000Y-11400000D02*
X19500000Y-11900000D01*
X19000000Y-9400000D02*
X19500000Y-8900000D01*
X15050000Y-12750000D02*
X15050000Y-12900000D01*
X15950000Y-12650000D02*
X15150000Y-12650000D01*
X16050000Y-12900000D02*
X16050000Y-12750000D01*
X18950000Y-12750000D02*
X18950000Y-12900000D01*
X18050000Y-12650000D02*
X18850000Y-12650000D01*
X17950000Y-12900000D02*
X17950000Y-12750000D01*
X19000000Y-11400000D02*
X19000000Y-9400000D01*
D11*
D12*
X18243500Y-9068500D02*
X18276500Y-9101500D01*
X18276500Y-9068500D02*
X18243500Y-9101500D01*
X18243500Y-9218500D02*
X18276500Y-9251500D01*
X18276500Y-9218500D02*
X18243500Y-9251500D01*
X18393500Y-9068500D02*
X18426500Y-9101500D01*
X18426500Y-9068500D02*
X18393500Y-9101500D01*
X18393500Y-9218500D02*
X18426500Y-9251500D01*
X18426500Y-9218500D02*
X18393500Y-9251500D01*
X18543500Y-9068500D02*
X18576500Y-9101500D01*
X18576500Y-9068500D02*
X18543500Y-9101500D01*
X18543500Y-9218500D02*
X18576500Y-9251500D01*
X18576500Y-9218500D02*
X18543500Y-9251500D01*
D13*
X15460000Y-8400000D02*
G75*
G03*
X15460000Y-8400000I-20000J0D01*
G01*
X16020000Y-9250000D02*
G75*
G03*
X16020000Y-9250000I-20000J0D01*
G01*
X16390000Y-8500000D02*
G75*
G03*
X16390000Y-8500000I-20000J0D01*
G01*
X16390000Y-8600000D02*
G75*
G03*
X16390000Y-8600000I-20000J0D01*
G01*
X16540000Y-8180000D02*
G75*
G03*
X16540000Y-8180000I-20000J0D01*
G01*
X16598770Y-8588770D02*
G75*
G03*
X16598770Y-8588770I-20000J0D01*
G01*
X16658171Y-8508387D02*
G75*
G03*
X16658171Y-8508387I-20000J0D01*
G01*
X16790000Y-8580000D02*
G75*
G03*
X16790000Y-8580000I-20000J0D01*
G01*
X16818770Y-9751230D02*
G75*
G03*
X16818770Y-9751230I-20000J0D01*
G01*
X16908770Y-9608770D02*
G75*
G03*
X16908770Y-9608770I-20000J0D01*
G01*
X17410000Y-8470000D02*
G75*
G03*
X17410000Y-8470000I-20000J0D01*
G01*
X17410000Y-8910000D02*
G75*
G03*
X17410000Y-8910000I-20000J0D01*
G01*
X18180050Y-8690000D02*
G75*
G03*
X18180050Y-8690000I-20000J0D01*
G01*
X18280000Y-8690000D02*
G75*
G03*
X18280000Y-8690000I-20000J0D01*
G01*
X18380000Y-8700000D02*
G75*
G03*
X18380000Y-8700000I-20000J0D01*
G01*
X18620000Y-8630000D02*
G75*
G03*
X18620000Y-8630000I-20000J0D01*
G01*
X18770000Y-8650000D02*
G75*
G03*
X18770000Y-8650000I-20000J0D01*
G01*
X18770000Y-8750000D02*
G75*
G03*
X18770000Y-8750000I-20000J0D01*
G01*
D10*
X14717500Y-11296000D02*
X14717500Y-11396000D01*
X14667500Y-11346000D02*
X14767500Y-11346000D01*
X14717500Y-11550000D02*
X14717500Y-11650000D01*
X14667500Y-11600000D02*
X14767500Y-11600000D01*
X14971500Y-11296000D02*
X14971500Y-11396000D01*
X14921500Y-11346000D02*
X15021500Y-11346000D01*
X14971500Y-11550000D02*
X14971500Y-11650000D01*
X14921500Y-11600000D02*
X15021500Y-11600000D01*
X15225500Y-11296000D02*
X15225500Y-11396000D01*
X15175500Y-11346000D02*
X15275500Y-11346000D01*
X15225500Y-11550000D02*
X15225500Y-11650000D01*
X15175500Y-11600000D02*
X15275500Y-11600000D01*
X15338000Y-8050000D02*
X15338000Y-8150000D01*
X15288000Y-8100000D02*
X15388000Y-8100000D01*
X15479500Y-11296000D02*
X15479500Y-11396000D01*
X15429500Y-11346000D02*
X15529500Y-11346000D01*
X15479500Y-11550000D02*
X15479500Y-11650000D01*
X15429500Y-11600000D02*
X15529500Y-11600000D01*
X15592000Y-8050000D02*
X15592000Y-8150000D01*
X15542000Y-8100000D02*
X15642000Y-8100000D01*
X15846000Y-8050000D02*
X15846000Y-8150000D01*
X15796000Y-8100000D02*
X15896000Y-8100000D01*
X16100000Y-8050000D02*
X16100000Y-8150000D01*
X16050000Y-8100000D02*
X16150000Y-8100000D01*
X16239000Y-9145000D02*
X16239000Y-9245000D01*
X16189000Y-9195000D02*
X16289000Y-9195000D01*
X16239000Y-9399000D02*
X16239000Y-9499000D01*
X16189000Y-9449000D02*
X16289000Y-9449000D01*
X16239000Y-9653000D02*
X16239000Y-9753000D01*
X16189000Y-9703000D02*
X16289000Y-9703000D01*
X16239000Y-9907000D02*
X16239000Y-10007000D01*
X16189000Y-9957000D02*
X16289000Y-9957000D01*
X16239000Y-10161000D02*
X16239000Y-10261000D01*
X16189000Y-10211000D02*
X16289000Y-10211000D01*
X16239000Y-10415000D02*
X16239000Y-10515000D01*
X16189000Y-10465000D02*
X16289000Y-10465000D01*
X16239000Y-10669000D02*
X16239000Y-10769000D01*
X16189000Y-10719000D02*
X16289000Y-10719000D01*
X16239000Y-10923000D02*
X16239000Y-11023000D01*
X16189000Y-10973000D02*
X16289000Y-10973000D01*
X16239000Y-11177000D02*
X16239000Y-11277000D01*
X16189000Y-11227000D02*
X16289000Y-11227000D01*
X16239000Y-11431000D02*
X16239000Y-11531000D01*
X16189000Y-11481000D02*
X16289000Y-11481000D01*
X16239000Y-11685000D02*
X16239000Y-11785000D01*
X16189000Y-11735000D02*
X16289000Y-11735000D01*
X16239000Y-11939000D02*
X16239000Y-12039000D01*
X16189000Y-11989000D02*
X16289000Y-11989000D01*
X16239000Y-12193000D02*
X16239000Y-12293000D01*
X16189000Y-12243000D02*
X16289000Y-12243000D01*
X16239000Y-12447000D02*
X16239000Y-12547000D01*
X16189000Y-12497000D02*
X16289000Y-12497000D01*
X16239000Y-12701000D02*
X16239000Y-12801000D01*
X16189000Y-12751000D02*
X16289000Y-12751000D01*
X17763000Y-9145000D02*
X17763000Y-9245000D01*
X17713000Y-9195000D02*
X17813000Y-9195000D01*
X17763000Y-9399000D02*
X17763000Y-9499000D01*
X17713000Y-9449000D02*
X17813000Y-9449000D01*
X17763000Y-9653000D02*
X17763000Y-9753000D01*
X17713000Y-9703000D02*
X17813000Y-9703000D01*
X17763000Y-9907000D02*
X17763000Y-10007000D01*
X17713000Y-9957000D02*
X17813000Y-9957000D01*
X17763000Y-10161000D02*
X17763000Y-10261000D01*
X17713000Y-10211000D02*
X17813000Y-10211000D01*
X17763000Y-10415000D02*
X17763000Y-10515000D01*
X17713000Y-10465000D02*
X17813000Y-10465000D01*
X17763000Y-10669000D02*
X17763000Y-10769000D01*
X17713000Y-10719000D02*
X17813000Y-10719000D01*
X17763000Y-10923000D02*
X17763000Y-11023000D01*
X17713000Y-10973000D02*
X17813000Y-10973000D01*
X17763000Y-11177000D02*
X17763000Y-11277000D01*
X17713000Y-11227000D02*
X17813000Y-11227000D01*
X17763000Y-11431000D02*
X17763000Y-11531000D01*
X17713000Y-11481000D02*
X17813000Y-11481000D01*
X17763000Y-11685000D02*
X17763000Y-11785000D01*
X17713000Y-11735000D02*
X17813000Y-11735000D01*
X17763000Y-11939000D02*
X17763000Y-12039000D01*
X17713000Y-11989000D02*
X17813000Y-11989000D01*
X17763000Y-12193000D02*
X17763000Y-12293000D01*
X17713000Y-12243000D02*
X17813000Y-12243000D01*
X17763000Y-12447000D02*
X17763000Y-12547000D01*
X17713000Y-12497000D02*
X17813000Y-12497000D01*
X17763000Y-12701000D02*
X17763000Y-12801000D01*
X17713000Y-12751000D02*
X17813000Y-12751000D01*
X17920000Y-8050000D02*
X17920000Y-8150000D01*
X17870000Y-8100000D02*
X17970000Y-8100000D01*
X18174000Y-8050000D02*
X18174000Y-8150000D01*
X18124000Y-8100000D02*
X18224000Y-8100000D01*
X18428000Y-8050000D02*
X18428000Y-8150000D01*
X18378000Y-8100000D02*
X18478000Y-8100000D01*
X18682000Y-8050000D02*
X18682000Y-8150000D01*
X18632000Y-8100000D02*
X18732000Y-8100000D01*
D14*
X15349741Y-12253741D02*
X15349741Y-12146259D01*
X15242259Y-12146259D01*
X15242259Y-12253741D01*
X15349741Y-12253741D01*
X15857741Y-12253741D02*
X15857741Y-12146259D01*
X15750259Y-12146259D01*
X15750259Y-12253741D01*
X15857741Y-12253741D01*
X18249741Y-12253741D02*
X18249741Y-12146259D01*
X18142259Y-12146259D01*
X18142259Y-12253741D01*
X18249741Y-12253741D01*
X18503741Y-9992991D02*
X18503741Y-9885509D01*
X18396259Y-9885509D01*
X18396259Y-9992991D01*
X18503741Y-9992991D01*
X18503741Y-10500991D02*
X18503741Y-10393509D01*
X18396259Y-10393509D01*
X18396259Y-10500991D01*
X18503741Y-10500991D01*
X18503741Y-11049741D02*
X18503741Y-10942259D01*
X18396259Y-10942259D01*
X18396259Y-11049741D01*
X18503741Y-11049741D01*
X18503741Y-11557741D02*
X18503741Y-11450259D01*
X18396259Y-11450259D01*
X18396259Y-11557741D01*
X18503741Y-11557741D01*
X18757741Y-12253741D02*
X18757741Y-12146259D01*
X18650259Y-12146259D01*
X18650259Y-12253741D01*
X18757741Y-12253741D01*
D11*
X14252619Y-13215476D02*
X14252619Y-13015476D01*
X14300238Y-13015476D01*
X14328809Y-13025000D01*
X14347857Y-13044048D01*
X14357381Y-13063095D01*
X14366905Y-13101190D01*
X14366905Y-13129762D01*
X14357381Y-13167857D01*
X14347857Y-13186905D01*
X14328809Y-13205952D01*
X14300238Y-13215476D01*
X14252619Y-13215476D01*
X14452619Y-13215476D02*
X14452619Y-13082143D01*
X14452619Y-13120238D02*
X14462143Y-13101190D01*
X14471667Y-13091667D01*
X14490714Y-13082143D01*
X14509762Y-13082143D01*
X14576428Y-13215476D02*
X14576428Y-13082143D01*
X14576428Y-13015476D02*
X14566905Y-13025000D01*
X14576428Y-13034524D01*
X14585952Y-13025000D01*
X14576428Y-13015476D01*
X14576428Y-13034524D01*
X14700238Y-13215476D02*
X14681190Y-13205952D01*
X14671667Y-13186905D01*
X14671667Y-13015476D01*
X14805000Y-13215476D02*
X14785952Y-13205952D01*
X14776428Y-13186905D01*
X14776428Y-13015476D01*
X15033571Y-13215476D02*
X15033571Y-13015476D01*
X15100238Y-13158333D01*
X15166905Y-13015476D01*
X15166905Y-13215476D01*
X15347857Y-13215476D02*
X15347857Y-13110714D01*
X15338333Y-13091667D01*
X15319286Y-13082143D01*
X15281190Y-13082143D01*
X15262143Y-13091667D01*
X15347857Y-13205952D02*
X15328809Y-13215476D01*
X15281190Y-13215476D01*
X15262143Y-13205952D01*
X15252619Y-13186905D01*
X15252619Y-13167857D01*
X15262143Y-13148809D01*
X15281190Y-13139286D01*
X15328809Y-13139286D01*
X15347857Y-13129762D01*
X15443095Y-13082143D02*
X15443095Y-13282143D01*
X15443095Y-13091667D02*
X15462143Y-13082143D01*
X15500238Y-13082143D01*
X15519286Y-13091667D01*
X15528809Y-13101190D01*
X15538333Y-13120238D01*
X15538333Y-13177381D01*
X15528809Y-13196428D01*
X15519286Y-13205952D01*
X15500238Y-13215476D01*
X15462143Y-13215476D01*
X15443095Y-13205952D01*
X15624048Y-13196428D02*
X15633571Y-13205952D01*
X15624048Y-13215476D01*
X15614524Y-13205952D01*
X15624048Y-13196428D01*
X15624048Y-13215476D01*
X15624048Y-13091667D02*
X15633571Y-13101190D01*
X15624048Y-13110714D01*
X15614524Y-13101190D01*
X15624048Y-13091667D01*
X15624048Y-13110714D01*
D12*
X13962000Y-13528500D02*
X13995000Y-13561500D01*
X13995000Y-13528500D02*
X13962000Y-13561500D01*
D11*
X14290714Y-13435476D02*
X14309762Y-13435476D01*
X14328809Y-13445000D01*
X14338333Y-13454524D01*
X14347857Y-13473571D01*
X14357381Y-13511667D01*
X14357381Y-13559286D01*
X14347857Y-13597381D01*
X14338333Y-13616428D01*
X14328809Y-13625952D01*
X14309762Y-13635476D01*
X14290714Y-13635476D01*
X14271667Y-13625952D01*
X14262143Y-13616428D01*
X14252619Y-13597381D01*
X14243095Y-13559286D01*
X14243095Y-13511667D01*
X14252619Y-13473571D01*
X14262143Y-13454524D01*
X14271667Y-13445000D01*
X14290714Y-13435476D01*
X14443095Y-13616428D02*
X14452619Y-13625952D01*
X14443095Y-13635476D01*
X14433571Y-13625952D01*
X14443095Y-13616428D01*
X14443095Y-13635476D01*
X14519286Y-13435476D02*
X14643095Y-13435476D01*
X14576428Y-13511667D01*
X14605000Y-13511667D01*
X14624048Y-13521190D01*
X14633571Y-13530714D01*
X14643095Y-13549762D01*
X14643095Y-13597381D01*
X14633571Y-13616428D01*
X14624048Y-13625952D01*
X14605000Y-13635476D01*
X14547857Y-13635476D01*
X14528809Y-13625952D01*
X14519286Y-13616428D01*
X14709762Y-13435476D02*
X14833571Y-13435476D01*
X14766905Y-13511667D01*
X14795476Y-13511667D01*
X14814524Y-13521190D01*
X14824048Y-13530714D01*
X14833571Y-13549762D01*
X14833571Y-13597381D01*
X14824048Y-13616428D01*
X14814524Y-13625952D01*
X14795476Y-13635476D01*
X14738333Y-13635476D01*
X14719286Y-13625952D01*
X14709762Y-13616428D01*
X14957381Y-13435476D02*
X14976428Y-13435476D01*
X14995476Y-13445000D01*
X15005000Y-13454524D01*
X15014524Y-13473571D01*
X15024048Y-13511667D01*
X15024048Y-13559286D01*
X15014524Y-13597381D01*
X15005000Y-13616428D01*
X14995476Y-13625952D01*
X14976428Y-13635476D01*
X14957381Y-13635476D01*
X14938333Y-13625952D01*
X14928809Y-13616428D01*
X14919286Y-13597381D01*
X14909762Y-13559286D01*
X14909762Y-13511667D01*
X14919286Y-13473571D01*
X14928809Y-13454524D01*
X14938333Y-13445000D01*
X14957381Y-13435476D01*
X15109762Y-13635476D02*
X15109762Y-13502143D01*
X15109762Y-13521190D02*
X15119286Y-13511667D01*
X15138333Y-13502143D01*
X15166905Y-13502143D01*
X15185952Y-13511667D01*
X15195476Y-13530714D01*
X15195476Y-13635476D01*
X15195476Y-13530714D02*
X15205000Y-13511667D01*
X15224048Y-13502143D01*
X15252619Y-13502143D01*
X15271667Y-13511667D01*
X15281190Y-13530714D01*
X15281190Y-13635476D01*
X15376428Y-13635476D02*
X15376428Y-13502143D01*
X15376428Y-13521190D02*
X15385952Y-13511667D01*
X15405000Y-13502143D01*
X15433571Y-13502143D01*
X15452619Y-13511667D01*
X15462143Y-13530714D01*
X15462143Y-13635476D01*
X15462143Y-13530714D02*
X15471667Y-13511667D01*
X15490714Y-13502143D01*
X15519286Y-13502143D01*
X15538333Y-13511667D01*
X15547857Y-13530714D01*
X15547857Y-13635476D01*
X15938333Y-13425952D02*
X15766905Y-13683095D01*
X16195476Y-13435476D02*
X16214524Y-13435476D01*
X16233571Y-13445000D01*
X16243095Y-13454524D01*
X16252619Y-13473571D01*
X16262143Y-13511667D01*
X16262143Y-13559286D01*
X16252619Y-13597381D01*
X16243095Y-13616428D01*
X16233571Y-13625952D01*
X16214524Y-13635476D01*
X16195476Y-13635476D01*
X16176428Y-13625952D01*
X16166905Y-13616428D01*
X16157381Y-13597381D01*
X16147857Y-13559286D01*
X16147857Y-13511667D01*
X16157381Y-13473571D01*
X16166905Y-13454524D01*
X16176428Y-13445000D01*
X16195476Y-13435476D01*
X16347857Y-13616428D02*
X16357381Y-13625952D01*
X16347857Y-13635476D01*
X16338333Y-13625952D01*
X16347857Y-13616428D01*
X16347857Y-13635476D01*
X16481190Y-13435476D02*
X16500238Y-13435476D01*
X16519286Y-13445000D01*
X16528809Y-13454524D01*
X16538333Y-13473571D01*
X16547857Y-13511667D01*
X16547857Y-13559286D01*
X16538333Y-13597381D01*
X16528809Y-13616428D01*
X16519286Y-13625952D01*
X16500238Y-13635476D01*
X16481190Y-13635476D01*
X16462143Y-13625952D01*
X16452619Y-13616428D01*
X16443095Y-13597381D01*
X16433571Y-13559286D01*
X16433571Y-13511667D01*
X16443095Y-13473571D01*
X16452619Y-13454524D01*
X16462143Y-13445000D01*
X16481190Y-13435476D01*
X16738333Y-13635476D02*
X16624048Y-13635476D01*
X16681190Y-13635476D02*
X16681190Y-13435476D01*
X16662143Y-13464048D01*
X16643095Y-13483095D01*
X16624048Y-13492619D01*
X16805000Y-13435476D02*
X16928810Y-13435476D01*
X16862143Y-13511667D01*
X16890714Y-13511667D01*
X16909762Y-13521190D01*
X16919286Y-13530714D01*
X16928810Y-13549762D01*
X16928810Y-13597381D01*
X16919286Y-13616428D01*
X16909762Y-13625952D01*
X16890714Y-13635476D01*
X16833571Y-13635476D01*
X16814524Y-13625952D01*
X16805000Y-13616428D01*
X17052619Y-13435476D02*
X17071667Y-13435476D01*
X17090714Y-13445000D01*
X17100238Y-13454524D01*
X17109762Y-13473571D01*
X17119286Y-13511667D01*
X17119286Y-13559286D01*
X17109762Y-13597381D01*
X17100238Y-13616428D01*
X17090714Y-13625952D01*
X17071667Y-13635476D01*
X17052619Y-13635476D01*
X17033571Y-13625952D01*
X17024048Y-13616428D01*
X17014524Y-13597381D01*
X17005000Y-13559286D01*
X17005000Y-13511667D01*
X17014524Y-13473571D01*
X17024048Y-13454524D01*
X17033571Y-13445000D01*
X17052619Y-13435476D01*
X17195476Y-13435476D02*
X17195476Y-13473571D01*
X17271667Y-13435476D02*
X17271667Y-13473571D01*
X17566905Y-13711667D02*
X17557381Y-13702143D01*
X17538333Y-13673571D01*
X17528810Y-13654524D01*
X17519286Y-13625952D01*
X17509762Y-13578333D01*
X17509762Y-13540238D01*
X17519286Y-13492619D01*
X17528810Y-13464048D01*
X17538333Y-13445000D01*
X17557381Y-13416428D01*
X17566905Y-13406905D01*
X17728810Y-13435476D02*
X17690714Y-13435476D01*
X17671667Y-13445000D01*
X17662143Y-13454524D01*
X17643095Y-13483095D01*
X17633571Y-13521190D01*
X17633571Y-13597381D01*
X17643095Y-13616428D01*
X17652619Y-13625952D01*
X17671667Y-13635476D01*
X17709762Y-13635476D01*
X17728810Y-13625952D01*
X17738333Y-13616428D01*
X17747857Y-13597381D01*
X17747857Y-13549762D01*
X17738333Y-13530714D01*
X17728810Y-13521190D01*
X17709762Y-13511667D01*
X17671667Y-13511667D01*
X17652619Y-13521190D01*
X17643095Y-13530714D01*
X17633571Y-13549762D01*
X17985952Y-13635476D02*
X17985952Y-13435476D01*
X18071667Y-13635476D02*
X18071667Y-13530714D01*
X18062143Y-13511667D01*
X18043095Y-13502143D01*
X18014524Y-13502143D01*
X17995476Y-13511667D01*
X17985952Y-13521190D01*
X18195476Y-13635476D02*
X18176429Y-13625952D01*
X18166905Y-13616428D01*
X18157381Y-13597381D01*
X18157381Y-13540238D01*
X18166905Y-13521190D01*
X18176429Y-13511667D01*
X18195476Y-13502143D01*
X18224048Y-13502143D01*
X18243095Y-13511667D01*
X18252619Y-13521190D01*
X18262143Y-13540238D01*
X18262143Y-13597381D01*
X18252619Y-13616428D01*
X18243095Y-13625952D01*
X18224048Y-13635476D01*
X18195476Y-13635476D01*
X18376429Y-13635476D02*
X18357381Y-13625952D01*
X18347857Y-13606905D01*
X18347857Y-13435476D01*
X18528810Y-13625952D02*
X18509762Y-13635476D01*
X18471667Y-13635476D01*
X18452619Y-13625952D01*
X18443095Y-13606905D01*
X18443095Y-13530714D01*
X18452619Y-13511667D01*
X18471667Y-13502143D01*
X18509762Y-13502143D01*
X18528810Y-13511667D01*
X18538333Y-13530714D01*
X18538333Y-13549762D01*
X18443095Y-13568809D01*
X18614524Y-13625952D02*
X18633571Y-13635476D01*
X18671667Y-13635476D01*
X18690714Y-13625952D01*
X18700238Y-13606905D01*
X18700238Y-13597381D01*
X18690714Y-13578333D01*
X18671667Y-13568809D01*
X18643095Y-13568809D01*
X18624048Y-13559286D01*
X18614524Y-13540238D01*
X18614524Y-13530714D01*
X18624048Y-13511667D01*
X18643095Y-13502143D01*
X18671667Y-13502143D01*
X18690714Y-13511667D01*
X18766905Y-13711667D02*
X18776429Y-13702143D01*
X18795476Y-13673571D01*
X18805000Y-13654524D01*
X18814524Y-13625952D01*
X18824048Y-13578333D01*
X18824048Y-13540238D01*
X18814524Y-13492619D01*
X18805000Y-13464048D01*
X18795476Y-13445000D01*
X18776429Y-13416428D01*
X18766905Y-13406905D01*
D13*
X13995000Y-13809000D02*
G75*
G03*
X13995000Y-13809000I-20000J0D01*
G01*
D11*
X14290714Y-13699476D02*
X14309762Y-13699476D01*
X14328809Y-13709000D01*
X14338333Y-13718524D01*
X14347857Y-13737571D01*
X14357381Y-13775667D01*
X14357381Y-13823286D01*
X14347857Y-13861381D01*
X14338333Y-13880428D01*
X14328809Y-13889952D01*
X14309762Y-13899476D01*
X14290714Y-13899476D01*
X14271667Y-13889952D01*
X14262143Y-13880428D01*
X14252619Y-13861381D01*
X14243095Y-13823286D01*
X14243095Y-13775667D01*
X14252619Y-13737571D01*
X14262143Y-13718524D01*
X14271667Y-13709000D01*
X14290714Y-13699476D01*
X14443095Y-13880428D02*
X14452619Y-13889952D01*
X14443095Y-13899476D01*
X14433571Y-13889952D01*
X14443095Y-13880428D01*
X14443095Y-13899476D01*
X14624048Y-13766143D02*
X14624048Y-13899476D01*
X14576428Y-13689952D02*
X14528809Y-13832809D01*
X14652619Y-13832809D01*
X14766905Y-13699476D02*
X14785952Y-13699476D01*
X14805000Y-13709000D01*
X14814524Y-13718524D01*
X14824048Y-13737571D01*
X14833571Y-13775667D01*
X14833571Y-13823286D01*
X14824048Y-13861381D01*
X14814524Y-13880428D01*
X14805000Y-13889952D01*
X14785952Y-13899476D01*
X14766905Y-13899476D01*
X14747857Y-13889952D01*
X14738333Y-13880428D01*
X14728809Y-13861381D01*
X14719286Y-13823286D01*
X14719286Y-13775667D01*
X14728809Y-13737571D01*
X14738333Y-13718524D01*
X14747857Y-13709000D01*
X14766905Y-13699476D01*
X14957381Y-13699476D02*
X14976428Y-13699476D01*
X14995476Y-13709000D01*
X15005000Y-13718524D01*
X15014524Y-13737571D01*
X15024048Y-13775667D01*
X15024048Y-13823286D01*
X15014524Y-13861381D01*
X15005000Y-13880428D01*
X14995476Y-13889952D01*
X14976428Y-13899476D01*
X14957381Y-13899476D01*
X14938333Y-13889952D01*
X14928809Y-13880428D01*
X14919286Y-13861381D01*
X14909762Y-13823286D01*
X14909762Y-13775667D01*
X14919286Y-13737571D01*
X14928809Y-13718524D01*
X14938333Y-13709000D01*
X14957381Y-13699476D01*
X15109762Y-13899476D02*
X15109762Y-13766143D01*
X15109762Y-13785190D02*
X15119286Y-13775667D01*
X15138333Y-13766143D01*
X15166905Y-13766143D01*
X15185952Y-13775667D01*
X15195476Y-13794714D01*
X15195476Y-13899476D01*
X15195476Y-13794714D02*
X15205000Y-13775667D01*
X15224048Y-13766143D01*
X15252619Y-13766143D01*
X15271667Y-13775667D01*
X15281190Y-13794714D01*
X15281190Y-13899476D01*
X15376428Y-13899476D02*
X15376428Y-13766143D01*
X15376428Y-13785190D02*
X15385952Y-13775667D01*
X15405000Y-13766143D01*
X15433571Y-13766143D01*
X15452619Y-13775667D01*
X15462143Y-13794714D01*
X15462143Y-13899476D01*
X15462143Y-13794714D02*
X15471667Y-13775667D01*
X15490714Y-13766143D01*
X15519286Y-13766143D01*
X15538333Y-13775667D01*
X15547857Y-13794714D01*
X15547857Y-13899476D01*
X15938333Y-13689952D02*
X15766905Y-13947095D01*
X16195476Y-13699476D02*
X16214524Y-13699476D01*
X16233571Y-13709000D01*
X16243095Y-13718524D01*
X16252619Y-13737571D01*
X16262143Y-13775667D01*
X16262143Y-13823286D01*
X16252619Y-13861381D01*
X16243095Y-13880428D01*
X16233571Y-13889952D01*
X16214524Y-13899476D01*
X16195476Y-13899476D01*
X16176428Y-13889952D01*
X16166905Y-13880428D01*
X16157381Y-13861381D01*
X16147857Y-13823286D01*
X16147857Y-13775667D01*
X16157381Y-13737571D01*
X16166905Y-13718524D01*
X16176428Y-13709000D01*
X16195476Y-13699476D01*
X16347857Y-13880428D02*
X16357381Y-13889952D01*
X16347857Y-13899476D01*
X16338333Y-13889952D01*
X16347857Y-13880428D01*
X16347857Y-13899476D01*
X16481190Y-13699476D02*
X16500238Y-13699476D01*
X16519286Y-13709000D01*
X16528809Y-13718524D01*
X16538333Y-13737571D01*
X16547857Y-13775667D01*
X16547857Y-13823286D01*
X16538333Y-13861381D01*
X16528809Y-13880428D01*
X16519286Y-13889952D01*
X16500238Y-13899476D01*
X16481190Y-13899476D01*
X16462143Y-13889952D01*
X16452619Y-13880428D01*
X16443095Y-13861381D01*
X16433571Y-13823286D01*
X16433571Y-13775667D01*
X16443095Y-13737571D01*
X16452619Y-13718524D01*
X16462143Y-13709000D01*
X16481190Y-13699476D01*
X16738333Y-13899476D02*
X16624048Y-13899476D01*
X16681190Y-13899476D02*
X16681190Y-13699476D01*
X16662143Y-13728048D01*
X16643095Y-13747095D01*
X16624048Y-13756619D01*
X16919286Y-13699476D02*
X16824048Y-13699476D01*
X16814524Y-13794714D01*
X16824048Y-13785190D01*
X16843095Y-13775667D01*
X16890714Y-13775667D01*
X16909762Y-13785190D01*
X16919286Y-13794714D01*
X16928810Y-13813762D01*
X16928810Y-13861381D01*
X16919286Y-13880428D01*
X16909762Y-13889952D01*
X16890714Y-13899476D01*
X16843095Y-13899476D01*
X16824048Y-13889952D01*
X16814524Y-13880428D01*
X16995476Y-13699476D02*
X17128810Y-13699476D01*
X17043095Y-13899476D01*
X17195476Y-13699476D02*
X17195476Y-13737571D01*
X17271667Y-13699476D02*
X17271667Y-13737571D01*
X17566905Y-13975667D02*
X17557381Y-13966143D01*
X17538333Y-13937571D01*
X17528810Y-13918524D01*
X17519286Y-13889952D01*
X17509762Y-13842333D01*
X17509762Y-13804238D01*
X17519286Y-13756619D01*
X17528810Y-13728048D01*
X17538333Y-13709000D01*
X17557381Y-13680428D01*
X17566905Y-13670905D01*
X17747857Y-13899476D02*
X17633571Y-13899476D01*
X17690714Y-13899476D02*
X17690714Y-13699476D01*
X17671667Y-13728048D01*
X17652619Y-13747095D01*
X17633571Y-13756619D01*
X17862143Y-13785190D02*
X17843095Y-13775667D01*
X17833571Y-13766143D01*
X17824048Y-13747095D01*
X17824048Y-13737571D01*
X17833571Y-13718524D01*
X17843095Y-13709000D01*
X17862143Y-13699476D01*
X17900238Y-13699476D01*
X17919286Y-13709000D01*
X17928810Y-13718524D01*
X17938333Y-13737571D01*
X17938333Y-13747095D01*
X17928810Y-13766143D01*
X17919286Y-13775667D01*
X17900238Y-13785190D01*
X17862143Y-13785190D01*
X17843095Y-13794714D01*
X17833571Y-13804238D01*
X17824048Y-13823286D01*
X17824048Y-13861381D01*
X17833571Y-13880428D01*
X17843095Y-13889952D01*
X17862143Y-13899476D01*
X17900238Y-13899476D01*
X17919286Y-13889952D01*
X17928810Y-13880428D01*
X17938333Y-13861381D01*
X17938333Y-13823286D01*
X17928810Y-13804238D01*
X17919286Y-13794714D01*
X17900238Y-13785190D01*
X18176429Y-13899476D02*
X18176429Y-13699476D01*
X18262143Y-13899476D02*
X18262143Y-13794714D01*
X18252619Y-13775667D01*
X18233571Y-13766143D01*
X18205000Y-13766143D01*
X18185952Y-13775667D01*
X18176429Y-13785190D01*
X18385952Y-13899476D02*
X18366905Y-13889952D01*
X18357381Y-13880428D01*
X18347857Y-13861381D01*
X18347857Y-13804238D01*
X18357381Y-13785190D01*
X18366905Y-13775667D01*
X18385952Y-13766143D01*
X18414524Y-13766143D01*
X18433571Y-13775667D01*
X18443095Y-13785190D01*
X18452619Y-13804238D01*
X18452619Y-13861381D01*
X18443095Y-13880428D01*
X18433571Y-13889952D01*
X18414524Y-13899476D01*
X18385952Y-13899476D01*
X18566905Y-13899476D02*
X18547857Y-13889952D01*
X18538333Y-13870905D01*
X18538333Y-13699476D01*
X18719286Y-13889952D02*
X18700238Y-13899476D01*
X18662143Y-13899476D01*
X18643095Y-13889952D01*
X18633571Y-13870905D01*
X18633571Y-13794714D01*
X18643095Y-13775667D01*
X18662143Y-13766143D01*
X18700238Y-13766143D01*
X18719286Y-13775667D01*
X18728810Y-13794714D01*
X18728810Y-13813762D01*
X18633571Y-13832809D01*
X18805000Y-13889952D02*
X18824048Y-13899476D01*
X18862143Y-13899476D01*
X18881190Y-13889952D01*
X18890714Y-13870905D01*
X18890714Y-13861381D01*
X18881190Y-13842333D01*
X18862143Y-13832809D01*
X18833571Y-13832809D01*
X18814524Y-13823286D01*
X18805000Y-13804238D01*
X18805000Y-13794714D01*
X18814524Y-13775667D01*
X18833571Y-13766143D01*
X18862143Y-13766143D01*
X18881190Y-13775667D01*
X18957381Y-13975667D02*
X18966905Y-13966143D01*
X18985952Y-13937571D01*
X18995476Y-13918524D01*
X19005000Y-13889952D01*
X19014524Y-13842333D01*
X19014524Y-13804238D01*
X19005000Y-13756619D01*
X18995476Y-13728048D01*
X18985952Y-13709000D01*
X18966905Y-13680428D01*
X18957381Y-13670905D01*
D10*
X13945000Y-14023000D02*
X13945000Y-14123000D01*
X13895000Y-14073000D02*
X13995000Y-14073000D01*
D11*
X14357381Y-14163476D02*
X14243095Y-14163476D01*
X14300238Y-14163476D02*
X14300238Y-13963476D01*
X14281190Y-13992048D01*
X14262143Y-14011095D01*
X14243095Y-14020619D01*
X14443095Y-14144428D02*
X14452619Y-14153952D01*
X14443095Y-14163476D01*
X14433571Y-14153952D01*
X14443095Y-14144428D01*
X14443095Y-14163476D01*
X14576428Y-13963476D02*
X14595476Y-13963476D01*
X14614524Y-13973000D01*
X14624048Y-13982524D01*
X14633571Y-14001571D01*
X14643095Y-14039667D01*
X14643095Y-14087286D01*
X14633571Y-14125381D01*
X14624048Y-14144428D01*
X14614524Y-14153952D01*
X14595476Y-14163476D01*
X14576428Y-14163476D01*
X14557381Y-14153952D01*
X14547857Y-14144428D01*
X14538333Y-14125381D01*
X14528809Y-14087286D01*
X14528809Y-14039667D01*
X14538333Y-14001571D01*
X14547857Y-13982524D01*
X14557381Y-13973000D01*
X14576428Y-13963476D01*
X14766905Y-13963476D02*
X14785952Y-13963476D01*
X14805000Y-13973000D01*
X14814524Y-13982524D01*
X14824048Y-14001571D01*
X14833571Y-14039667D01*
X14833571Y-14087286D01*
X14824048Y-14125381D01*
X14814524Y-14144428D01*
X14805000Y-14153952D01*
X14785952Y-14163476D01*
X14766905Y-14163476D01*
X14747857Y-14153952D01*
X14738333Y-14144428D01*
X14728809Y-14125381D01*
X14719286Y-14087286D01*
X14719286Y-14039667D01*
X14728809Y-14001571D01*
X14738333Y-13982524D01*
X14747857Y-13973000D01*
X14766905Y-13963476D01*
X14957381Y-13963476D02*
X14976428Y-13963476D01*
X14995476Y-13973000D01*
X15005000Y-13982524D01*
X15014524Y-14001571D01*
X15024048Y-14039667D01*
X15024048Y-14087286D01*
X15014524Y-14125381D01*
X15005000Y-14144428D01*
X14995476Y-14153952D01*
X14976428Y-14163476D01*
X14957381Y-14163476D01*
X14938333Y-14153952D01*
X14928809Y-14144428D01*
X14919286Y-14125381D01*
X14909762Y-14087286D01*
X14909762Y-14039667D01*
X14919286Y-14001571D01*
X14928809Y-13982524D01*
X14938333Y-13973000D01*
X14957381Y-13963476D01*
X15109762Y-14163476D02*
X15109762Y-14030143D01*
X15109762Y-14049190D02*
X15119286Y-14039667D01*
X15138333Y-14030143D01*
X15166905Y-14030143D01*
X15185952Y-14039667D01*
X15195476Y-14058714D01*
X15195476Y-14163476D01*
X15195476Y-14058714D02*
X15205000Y-14039667D01*
X15224048Y-14030143D01*
X15252619Y-14030143D01*
X15271667Y-14039667D01*
X15281190Y-14058714D01*
X15281190Y-14163476D01*
X15376428Y-14163476D02*
X15376428Y-14030143D01*
X15376428Y-14049190D02*
X15385952Y-14039667D01*
X15405000Y-14030143D01*
X15433571Y-14030143D01*
X15452619Y-14039667D01*
X15462143Y-14058714D01*
X15462143Y-14163476D01*
X15462143Y-14058714D02*
X15471667Y-14039667D01*
X15490714Y-14030143D01*
X15519286Y-14030143D01*
X15538333Y-14039667D01*
X15547857Y-14058714D01*
X15547857Y-14163476D01*
X15938333Y-13953952D02*
X15766905Y-14211095D01*
X16195476Y-13963476D02*
X16214524Y-13963476D01*
X16233571Y-13973000D01*
X16243095Y-13982524D01*
X16252619Y-14001571D01*
X16262143Y-14039667D01*
X16262143Y-14087286D01*
X16252619Y-14125381D01*
X16243095Y-14144428D01*
X16233571Y-14153952D01*
X16214524Y-14163476D01*
X16195476Y-14163476D01*
X16176428Y-14153952D01*
X16166905Y-14144428D01*
X16157381Y-14125381D01*
X16147857Y-14087286D01*
X16147857Y-14039667D01*
X16157381Y-14001571D01*
X16166905Y-13982524D01*
X16176428Y-13973000D01*
X16195476Y-13963476D01*
X16347857Y-14144428D02*
X16357381Y-14153952D01*
X16347857Y-14163476D01*
X16338333Y-14153952D01*
X16347857Y-14144428D01*
X16347857Y-14163476D01*
X16481190Y-13963476D02*
X16500238Y-13963476D01*
X16519286Y-13973000D01*
X16528809Y-13982524D01*
X16538333Y-14001571D01*
X16547857Y-14039667D01*
X16547857Y-14087286D01*
X16538333Y-14125381D01*
X16528809Y-14144428D01*
X16519286Y-14153952D01*
X16500238Y-14163476D01*
X16481190Y-14163476D01*
X16462143Y-14153952D01*
X16452619Y-14144428D01*
X16443095Y-14125381D01*
X16433571Y-14087286D01*
X16433571Y-14039667D01*
X16443095Y-14001571D01*
X16452619Y-13982524D01*
X16462143Y-13973000D01*
X16481190Y-13963476D01*
X16614524Y-13963476D02*
X16738333Y-13963476D01*
X16671667Y-14039667D01*
X16700238Y-14039667D01*
X16719286Y-14049190D01*
X16728809Y-14058714D01*
X16738333Y-14077762D01*
X16738333Y-14125381D01*
X16728809Y-14144428D01*
X16719286Y-14153952D01*
X16700238Y-14163476D01*
X16643095Y-14163476D01*
X16624048Y-14153952D01*
X16614524Y-14144428D01*
X16833571Y-14163476D02*
X16871667Y-14163476D01*
X16890714Y-14153952D01*
X16900238Y-14144428D01*
X16919286Y-14115857D01*
X16928810Y-14077762D01*
X16928810Y-14001571D01*
X16919286Y-13982524D01*
X16909762Y-13973000D01*
X16890714Y-13963476D01*
X16852619Y-13963476D01*
X16833571Y-13973000D01*
X16824048Y-13982524D01*
X16814524Y-14001571D01*
X16814524Y-14049190D01*
X16824048Y-14068238D01*
X16833571Y-14077762D01*
X16852619Y-14087286D01*
X16890714Y-14087286D01*
X16909762Y-14077762D01*
X16919286Y-14068238D01*
X16928810Y-14049190D01*
X17100238Y-14030143D02*
X17100238Y-14163476D01*
X17052619Y-13953952D02*
X17005000Y-14096809D01*
X17128810Y-14096809D01*
X17195476Y-13963476D02*
X17195476Y-14001571D01*
X17271667Y-13963476D02*
X17271667Y-14001571D01*
X17566905Y-14239667D02*
X17557381Y-14230143D01*
X17538333Y-14201571D01*
X17528810Y-14182524D01*
X17519286Y-14153952D01*
X17509762Y-14106333D01*
X17509762Y-14068238D01*
X17519286Y-14020619D01*
X17528810Y-13992048D01*
X17538333Y-13973000D01*
X17557381Y-13944428D01*
X17566905Y-13934905D01*
X17728810Y-14030143D02*
X17728810Y-14163476D01*
X17681190Y-13953952D02*
X17633571Y-14096809D01*
X17757381Y-14096809D01*
X17919286Y-13963476D02*
X17881190Y-13963476D01*
X17862143Y-13973000D01*
X17852619Y-13982524D01*
X17833571Y-14011095D01*
X17824048Y-14049190D01*
X17824048Y-14125381D01*
X17833571Y-14144428D01*
X17843095Y-14153952D01*
X17862143Y-14163476D01*
X17900238Y-14163476D01*
X17919286Y-14153952D01*
X17928810Y-14144428D01*
X17938333Y-14125381D01*
X17938333Y-14077762D01*
X17928810Y-14058714D01*
X17919286Y-14049190D01*
X17900238Y-14039667D01*
X17862143Y-14039667D01*
X17843095Y-14049190D01*
X17833571Y-14058714D01*
X17824048Y-14077762D01*
X18176429Y-14163476D02*
X18176429Y-13963476D01*
X18262143Y-14163476D02*
X18262143Y-14058714D01*
X18252619Y-14039667D01*
X18233571Y-14030143D01*
X18205000Y-14030143D01*
X18185952Y-14039667D01*
X18176429Y-14049190D01*
X18385952Y-14163476D02*
X18366905Y-14153952D01*
X18357381Y-14144428D01*
X18347857Y-14125381D01*
X18347857Y-14068238D01*
X18357381Y-14049190D01*
X18366905Y-14039667D01*
X18385952Y-14030143D01*
X18414524Y-14030143D01*
X18433571Y-14039667D01*
X18443095Y-14049190D01*
X18452619Y-14068238D01*
X18452619Y-14125381D01*
X18443095Y-14144428D01*
X18433571Y-14153952D01*
X18414524Y-14163476D01*
X18385952Y-14163476D01*
X18566905Y-14163476D02*
X18547857Y-14153952D01*
X18538333Y-14134905D01*
X18538333Y-13963476D01*
X18719286Y-14153952D02*
X18700238Y-14163476D01*
X18662143Y-14163476D01*
X18643095Y-14153952D01*
X18633571Y-14134905D01*
X18633571Y-14058714D01*
X18643095Y-14039667D01*
X18662143Y-14030143D01*
X18700238Y-14030143D01*
X18719286Y-14039667D01*
X18728810Y-14058714D01*
X18728810Y-14077762D01*
X18633571Y-14096809D01*
X18805000Y-14153952D02*
X18824048Y-14163476D01*
X18862143Y-14163476D01*
X18881190Y-14153952D01*
X18890714Y-14134905D01*
X18890714Y-14125381D01*
X18881190Y-14106333D01*
X18862143Y-14096809D01*
X18833571Y-14096809D01*
X18814524Y-14087286D01*
X18805000Y-14068238D01*
X18805000Y-14058714D01*
X18814524Y-14039667D01*
X18833571Y-14030143D01*
X18862143Y-14030143D01*
X18881190Y-14039667D01*
X18957381Y-14239667D02*
X18966905Y-14230143D01*
X18985952Y-14201571D01*
X18995476Y-14182524D01*
X19005000Y-14153952D01*
X19014524Y-14106333D01*
X19014524Y-14068238D01*
X19005000Y-14020619D01*
X18995476Y-13992048D01*
X18985952Y-13973000D01*
X18966905Y-13944428D01*
X18957381Y-13934905D01*
D14*
X13972741Y-14390741D02*
X13972741Y-14283259D01*
X13865259Y-14283259D01*
X13865259Y-14390741D01*
X13972741Y-14390741D01*
D11*
X14357381Y-14427476D02*
X14243095Y-14427476D01*
X14300238Y-14427476D02*
X14300238Y-14227476D01*
X14281190Y-14256048D01*
X14262143Y-14275095D01*
X14243095Y-14284619D01*
X14443095Y-14408428D02*
X14452619Y-14417952D01*
X14443095Y-14427476D01*
X14433571Y-14417952D01*
X14443095Y-14408428D01*
X14443095Y-14427476D01*
X14633571Y-14227476D02*
X14538333Y-14227476D01*
X14528809Y-14322714D01*
X14538333Y-14313190D01*
X14557381Y-14303667D01*
X14605000Y-14303667D01*
X14624048Y-14313190D01*
X14633571Y-14322714D01*
X14643095Y-14341762D01*
X14643095Y-14389381D01*
X14633571Y-14408428D01*
X14624048Y-14417952D01*
X14605000Y-14427476D01*
X14557381Y-14427476D01*
X14538333Y-14417952D01*
X14528809Y-14408428D01*
X14719286Y-14246524D02*
X14728809Y-14237000D01*
X14747857Y-14227476D01*
X14795476Y-14227476D01*
X14814524Y-14237000D01*
X14824048Y-14246524D01*
X14833571Y-14265571D01*
X14833571Y-14284619D01*
X14824048Y-14313190D01*
X14709762Y-14427476D01*
X14833571Y-14427476D01*
X14957381Y-14227476D02*
X14976428Y-14227476D01*
X14995476Y-14237000D01*
X15005000Y-14246524D01*
X15014524Y-14265571D01*
X15024048Y-14303667D01*
X15024048Y-14351286D01*
X15014524Y-14389381D01*
X15005000Y-14408428D01*
X14995476Y-14417952D01*
X14976428Y-14427476D01*
X14957381Y-14427476D01*
X14938333Y-14417952D01*
X14928809Y-14408428D01*
X14919286Y-14389381D01*
X14909762Y-14351286D01*
X14909762Y-14303667D01*
X14919286Y-14265571D01*
X14928809Y-14246524D01*
X14938333Y-14237000D01*
X14957381Y-14227476D01*
X15109762Y-14427476D02*
X15109762Y-14294143D01*
X15109762Y-14313190D02*
X15119286Y-14303667D01*
X15138333Y-14294143D01*
X15166905Y-14294143D01*
X15185952Y-14303667D01*
X15195476Y-14322714D01*
X15195476Y-14427476D01*
X15195476Y-14322714D02*
X15205000Y-14303667D01*
X15224048Y-14294143D01*
X15252619Y-14294143D01*
X15271667Y-14303667D01*
X15281190Y-14322714D01*
X15281190Y-14427476D01*
X15376428Y-14427476D02*
X15376428Y-14294143D01*
X15376428Y-14313190D02*
X15385952Y-14303667D01*
X15405000Y-14294143D01*
X15433571Y-14294143D01*
X15452619Y-14303667D01*
X15462143Y-14322714D01*
X15462143Y-14427476D01*
X15462143Y-14322714D02*
X15471667Y-14303667D01*
X15490714Y-14294143D01*
X15519286Y-14294143D01*
X15538333Y-14303667D01*
X15547857Y-14322714D01*
X15547857Y-14427476D01*
X15938333Y-14217952D02*
X15766905Y-14475095D01*
X16195476Y-14227476D02*
X16214524Y-14227476D01*
X16233571Y-14237000D01*
X16243095Y-14246524D01*
X16252619Y-14265571D01*
X16262143Y-14303667D01*
X16262143Y-14351286D01*
X16252619Y-14389381D01*
X16243095Y-14408428D01*
X16233571Y-14417952D01*
X16214524Y-14427476D01*
X16195476Y-14427476D01*
X16176428Y-14417952D01*
X16166905Y-14408428D01*
X16157381Y-14389381D01*
X16147857Y-14351286D01*
X16147857Y-14303667D01*
X16157381Y-14265571D01*
X16166905Y-14246524D01*
X16176428Y-14237000D01*
X16195476Y-14227476D01*
X16347857Y-14408428D02*
X16357381Y-14417952D01*
X16347857Y-14427476D01*
X16338333Y-14417952D01*
X16347857Y-14408428D01*
X16347857Y-14427476D01*
X16481190Y-14227476D02*
X16500238Y-14227476D01*
X16519286Y-14237000D01*
X16528809Y-14246524D01*
X16538333Y-14265571D01*
X16547857Y-14303667D01*
X16547857Y-14351286D01*
X16538333Y-14389381D01*
X16528809Y-14408428D01*
X16519286Y-14417952D01*
X16500238Y-14427476D01*
X16481190Y-14427476D01*
X16462143Y-14417952D01*
X16452619Y-14408428D01*
X16443095Y-14389381D01*
X16433571Y-14351286D01*
X16433571Y-14303667D01*
X16443095Y-14265571D01*
X16452619Y-14246524D01*
X16462143Y-14237000D01*
X16481190Y-14227476D01*
X16728809Y-14227476D02*
X16633571Y-14227476D01*
X16624048Y-14322714D01*
X16633571Y-14313190D01*
X16652619Y-14303667D01*
X16700238Y-14303667D01*
X16719286Y-14313190D01*
X16728809Y-14322714D01*
X16738333Y-14341762D01*
X16738333Y-14389381D01*
X16728809Y-14408428D01*
X16719286Y-14417952D01*
X16700238Y-14427476D01*
X16652619Y-14427476D01*
X16633571Y-14417952D01*
X16624048Y-14408428D01*
X16833571Y-14427476D02*
X16871667Y-14427476D01*
X16890714Y-14417952D01*
X16900238Y-14408428D01*
X16919286Y-14379857D01*
X16928810Y-14341762D01*
X16928810Y-14265571D01*
X16919286Y-14246524D01*
X16909762Y-14237000D01*
X16890714Y-14227476D01*
X16852619Y-14227476D01*
X16833571Y-14237000D01*
X16824048Y-14246524D01*
X16814524Y-14265571D01*
X16814524Y-14313190D01*
X16824048Y-14332238D01*
X16833571Y-14341762D01*
X16852619Y-14351286D01*
X16890714Y-14351286D01*
X16909762Y-14341762D01*
X16919286Y-14332238D01*
X16928810Y-14313190D01*
X17043095Y-14313190D02*
X17024048Y-14303667D01*
X17014524Y-14294143D01*
X17005000Y-14275095D01*
X17005000Y-14265571D01*
X17014524Y-14246524D01*
X17024048Y-14237000D01*
X17043095Y-14227476D01*
X17081190Y-14227476D01*
X17100238Y-14237000D01*
X17109762Y-14246524D01*
X17119286Y-14265571D01*
X17119286Y-14275095D01*
X17109762Y-14294143D01*
X17100238Y-14303667D01*
X17081190Y-14313190D01*
X17043095Y-14313190D01*
X17024048Y-14322714D01*
X17014524Y-14332238D01*
X17005000Y-14351286D01*
X17005000Y-14389381D01*
X17014524Y-14408428D01*
X17024048Y-14417952D01*
X17043095Y-14427476D01*
X17081190Y-14427476D01*
X17100238Y-14417952D01*
X17109762Y-14408428D01*
X17119286Y-14389381D01*
X17119286Y-14351286D01*
X17109762Y-14332238D01*
X17100238Y-14322714D01*
X17081190Y-14313190D01*
X17195476Y-14227476D02*
X17195476Y-14265571D01*
X17271667Y-14227476D02*
X17271667Y-14265571D01*
X17566905Y-14503667D02*
X17557381Y-14494143D01*
X17538333Y-14465571D01*
X17528810Y-14446524D01*
X17519286Y-14417952D01*
X17509762Y-14370333D01*
X17509762Y-14332238D01*
X17519286Y-14284619D01*
X17528810Y-14256048D01*
X17538333Y-14237000D01*
X17557381Y-14208428D01*
X17566905Y-14198905D01*
X17671667Y-14313190D02*
X17652619Y-14303667D01*
X17643095Y-14294143D01*
X17633571Y-14275095D01*
X17633571Y-14265571D01*
X17643095Y-14246524D01*
X17652619Y-14237000D01*
X17671667Y-14227476D01*
X17709762Y-14227476D01*
X17728810Y-14237000D01*
X17738333Y-14246524D01*
X17747857Y-14265571D01*
X17747857Y-14275095D01*
X17738333Y-14294143D01*
X17728810Y-14303667D01*
X17709762Y-14313190D01*
X17671667Y-14313190D01*
X17652619Y-14322714D01*
X17643095Y-14332238D01*
X17633571Y-14351286D01*
X17633571Y-14389381D01*
X17643095Y-14408428D01*
X17652619Y-14417952D01*
X17671667Y-14427476D01*
X17709762Y-14427476D01*
X17728810Y-14417952D01*
X17738333Y-14408428D01*
X17747857Y-14389381D01*
X17747857Y-14351286D01*
X17738333Y-14332238D01*
X17728810Y-14322714D01*
X17709762Y-14313190D01*
X17985952Y-14427476D02*
X17985952Y-14227476D01*
X18071667Y-14427476D02*
X18071667Y-14322714D01*
X18062143Y-14303667D01*
X18043095Y-14294143D01*
X18014524Y-14294143D01*
X17995476Y-14303667D01*
X17985952Y-14313190D01*
X18195476Y-14427476D02*
X18176429Y-14417952D01*
X18166905Y-14408428D01*
X18157381Y-14389381D01*
X18157381Y-14332238D01*
X18166905Y-14313190D01*
X18176429Y-14303667D01*
X18195476Y-14294143D01*
X18224048Y-14294143D01*
X18243095Y-14303667D01*
X18252619Y-14313190D01*
X18262143Y-14332238D01*
X18262143Y-14389381D01*
X18252619Y-14408428D01*
X18243095Y-14417952D01*
X18224048Y-14427476D01*
X18195476Y-14427476D01*
X18376429Y-14427476D02*
X18357381Y-14417952D01*
X18347857Y-14398905D01*
X18347857Y-14227476D01*
X18528810Y-14417952D02*
X18509762Y-14427476D01*
X18471667Y-14427476D01*
X18452619Y-14417952D01*
X18443095Y-14398905D01*
X18443095Y-14322714D01*
X18452619Y-14303667D01*
X18471667Y-14294143D01*
X18509762Y-14294143D01*
X18528810Y-14303667D01*
X18538333Y-14322714D01*
X18538333Y-14341762D01*
X18443095Y-14360809D01*
X18614524Y-14417952D02*
X18633571Y-14427476D01*
X18671667Y-14427476D01*
X18690714Y-14417952D01*
X18700238Y-14398905D01*
X18700238Y-14389381D01*
X18690714Y-14370333D01*
X18671667Y-14360809D01*
X18643095Y-14360809D01*
X18624048Y-14351286D01*
X18614524Y-14332238D01*
X18614524Y-14322714D01*
X18624048Y-14303667D01*
X18643095Y-14294143D01*
X18671667Y-14294143D01*
X18690714Y-14303667D01*
X18766905Y-14503667D02*
X18776429Y-14494143D01*
X18795476Y-14465571D01*
X18805000Y-14446524D01*
X18814524Y-14417952D01*
X18824048Y-14370333D01*
X18824048Y-14332238D01*
X18814524Y-14284619D01*
X18805000Y-14256048D01*
X18795476Y-14237000D01*
X18776429Y-14208428D01*
X18766905Y-14198905D01*
M02*
