%TF.GenerationSoftware,KiCad,Pcbnew,(6.0.9)*%
%TF.CreationDate,2023-02-05T07:26:16+11:00*%
%TF.ProjectId,SumoBotPCBA001,53756d6f-426f-4745-9043-42413030312e,rev?*%
%TF.SameCoordinates,Original*%
%TF.FileFunction,Plated,1,2,PTH,Drill*%
%TF.FilePolarity,Positive*%
%FSLAX46Y46*%
G04 Gerber Fmt 4.6, Leading zero omitted, Abs format (unit mm)*
G04 Created by KiCad (PCBNEW (6.0.9)) date 2023-02-05 07:26:16*
%MOMM*%
%LPD*%
G01*
G04 APERTURE LIST*
%TA.AperFunction,ComponentDrill*%
%ADD10C,0.330000*%
%TD*%
%TA.AperFunction,ViaDrill*%
%ADD11C,0.400000*%
%TD*%
%TA.AperFunction,ComponentDrill*%
%ADD12C,1.000000*%
%TD*%
%TA.AperFunction,ComponentDrill*%
%ADD13C,1.520000*%
%TD*%
G04 APERTURE END LIST*
D10*
%TO.C,U3*%
X182600000Y-90850000D03*
X182600000Y-92350000D03*
X184100000Y-90850000D03*
X184100000Y-92350000D03*
X185600000Y-90850000D03*
X185600000Y-92350000D03*
%TD*%
D11*
X154400000Y-84000000D03*
X160000000Y-92500000D03*
X163700000Y-85000000D03*
X163700000Y-86000000D03*
X165200000Y-81800000D03*
X165787701Y-85887701D03*
X166381715Y-85083866D03*
X167700000Y-85800000D03*
X167987701Y-97512299D03*
X168887701Y-96087701D03*
X173900000Y-84700000D03*
X173900000Y-89100000D03*
X181600497Y-86900000D03*
X182600000Y-86900000D03*
X183600000Y-87000000D03*
X186000000Y-86300000D03*
X187500000Y-86500000D03*
X187500000Y-87500000D03*
D12*
%TO.C,U2*%
X147175000Y-113460000D03*
X147175000Y-116000000D03*
X149715000Y-113460000D03*
X149715000Y-116000000D03*
X152255000Y-113460000D03*
X152255000Y-116000000D03*
%TO.C,J6*%
X153380000Y-81000000D03*
%TO.C,U2*%
X154795000Y-113460000D03*
X154795000Y-116000000D03*
%TO.C,J6*%
X155920000Y-81000000D03*
X158460000Y-81000000D03*
X161000000Y-81000000D03*
%TO.C,A1*%
X162390000Y-91950000D03*
X162390000Y-94490000D03*
X162390000Y-97030000D03*
X162390000Y-99570000D03*
X162390000Y-102110000D03*
X162390000Y-104650000D03*
X162390000Y-107190000D03*
X162390000Y-109730000D03*
X162390000Y-112270000D03*
X162390000Y-114810000D03*
X162390000Y-117350000D03*
X162390000Y-119890000D03*
X162390000Y-122430000D03*
X162390000Y-124970000D03*
X162390000Y-127510000D03*
X177630000Y-91950000D03*
X177630000Y-94490000D03*
X177630000Y-97030000D03*
X177630000Y-99570000D03*
X177630000Y-102110000D03*
X177630000Y-104650000D03*
X177630000Y-107190000D03*
X177630000Y-109730000D03*
X177630000Y-112270000D03*
X177630000Y-114810000D03*
X177630000Y-117350000D03*
X177630000Y-119890000D03*
X177630000Y-122430000D03*
X177630000Y-124970000D03*
X177630000Y-127510000D03*
%TO.C,J5*%
X179200000Y-81000000D03*
X181740000Y-81000000D03*
X184280000Y-81000000D03*
X186820000Y-81000000D03*
D13*
%TO.C,J2*%
X152960000Y-122000000D03*
X158040000Y-122000000D03*
%TO.C,J1*%
X181960000Y-122000000D03*
%TO.C,J3*%
X184500000Y-99392500D03*
X184500000Y-104472500D03*
%TO.C,J4*%
X184500000Y-109960000D03*
X184500000Y-115040000D03*
%TO.C,J1*%
X187040000Y-122000000D03*
M02*
